G04 #@! TF.GenerationSoftware,KiCad,Pcbnew,9.0.4*
G04 #@! TF.CreationDate,2025-12-23T06:35:07-05:00*
G04 #@! TF.ProjectId,main_board_peripheral_v2,6d61696e-5f62-46f6-9172-645f70657269,rev?*
G04 #@! TF.SameCoordinates,Original*
G04 #@! TF.FileFunction,Copper,L3,Inr*
G04 #@! TF.FilePolarity,Positive*
%FSLAX46Y46*%
G04 Gerber Fmt 4.6, Leading zero omitted, Abs format (unit mm)*
G04 Created by KiCad (PCBNEW 9.0.4) date 2025-12-23 06:35:07*
%MOMM*%
%LPD*%
G01*
G04 APERTURE LIST*
G04 #@! TA.AperFunction,ComponentPad*
%ADD10C,4.400000*%
G04 #@! TD*
G04 #@! TA.AperFunction,ComponentPad*
%ADD11R,1.300000X1.300000*%
G04 #@! TD*
G04 #@! TA.AperFunction,ComponentPad*
%ADD12C,1.381000*%
G04 #@! TD*
G04 #@! TA.AperFunction,ComponentPad*
%ADD13C,1.300000*%
G04 #@! TD*
G04 #@! TA.AperFunction,ViaPad*
%ADD14C,0.450000*%
G04 #@! TD*
G04 #@! TA.AperFunction,Conductor*
%ADD15C,0.200000*%
G04 #@! TD*
G04 APERTURE END LIST*
D10*
X91000000Y-104000000D03*
X138500000Y-104000000D03*
D11*
X99000000Y-97000000D03*
D12*
X97050000Y-96375000D03*
X99000000Y-93600000D03*
X97050000Y-94225000D03*
D10*
X138500000Y-77000000D03*
X91000000Y-77000000D03*
D11*
X131000000Y-93600000D03*
D13*
X129050000Y-94225000D03*
X131000000Y-97000000D03*
X129050000Y-96375000D03*
D14*
X112090000Y-91450000D03*
X112500000Y-87000000D03*
X117030000Y-93550000D03*
X116086455Y-98873727D03*
X115436616Y-98859176D03*
X112377488Y-99318514D03*
X111882512Y-99813490D03*
X115848167Y-93036626D03*
X117450000Y-83100000D03*
X108700000Y-102350000D03*
X96660000Y-85070000D03*
X134750000Y-84275000D03*
X92170000Y-79580000D03*
X90340000Y-79800000D03*
X118780000Y-96480000D03*
X115010000Y-86050000D03*
X104595000Y-90049999D03*
X105500000Y-84275000D03*
X111190000Y-90300000D03*
X102040000Y-81480000D03*
X131480000Y-82980000D03*
X99020000Y-92380000D03*
X118375000Y-102425000D03*
X117755000Y-86825000D03*
X117050000Y-100690000D03*
X94140000Y-82110000D03*
X120900000Y-84275000D03*
X114990000Y-97680000D03*
X115620000Y-105460000D03*
X117755000Y-85275000D03*
X120930000Y-77470000D03*
X117420000Y-98838489D03*
X102070000Y-84440000D03*
X104595000Y-89089999D03*
X105500000Y-77490000D03*
X134730000Y-77490000D03*
X115985751Y-91124249D03*
X117520000Y-92474998D03*
X136300000Y-82980000D03*
X120920000Y-87430000D03*
X119480000Y-88890000D03*
X115070000Y-95950000D03*
X113995000Y-97025000D03*
D15*
X91000000Y-77000000D02*
X91000000Y-78410000D01*
X91000000Y-79140000D02*
X90340000Y-79800000D01*
X91000000Y-77000000D02*
X91000000Y-79140000D01*
X91000000Y-78410000D02*
X92170000Y-79580000D01*
G04 #@! TA.AperFunction,Conductor*
G36*
X120358785Y-84240973D02*
G01*
X120425227Y-84262581D01*
X120469442Y-84316682D01*
X120474985Y-84332828D01*
X120503497Y-84439238D01*
X120503498Y-84439239D01*
X120559515Y-84536263D01*
X120638737Y-84615485D01*
X120735763Y-84671503D01*
X120843982Y-84700500D01*
X120843984Y-84700500D01*
X120956016Y-84700500D01*
X120956018Y-84700500D01*
X121064237Y-84671503D01*
X121161263Y-84615485D01*
X121240485Y-84536263D01*
X121296503Y-84439237D01*
X121316665Y-84363990D01*
X121353027Y-84304333D01*
X121415873Y-84273803D01*
X121440000Y-84272137D01*
X126450186Y-84416546D01*
X126516629Y-84438154D01*
X126560844Y-84492255D01*
X126570610Y-84539863D01*
X126684880Y-106974868D01*
X126665538Y-107042007D01*
X126612967Y-107088031D01*
X126560882Y-107099500D01*
X114146443Y-107099500D01*
X114079404Y-107079815D01*
X114033649Y-107027011D01*
X114022651Y-106968317D01*
X114293166Y-102307734D01*
X114316702Y-102241949D01*
X114372069Y-102199330D01*
X114417925Y-102190924D01*
X117829419Y-102217681D01*
X117896298Y-102237890D01*
X117941637Y-102291051D01*
X117951038Y-102360285D01*
X117949977Y-102365355D01*
X117949500Y-102368980D01*
X117949500Y-102368982D01*
X117949500Y-102481018D01*
X117978497Y-102589237D01*
X118034515Y-102686263D01*
X118113737Y-102765485D01*
X118210763Y-102821503D01*
X118318982Y-102850500D01*
X118318984Y-102850500D01*
X118431016Y-102850500D01*
X118431018Y-102850500D01*
X118539237Y-102821503D01*
X118636263Y-102765485D01*
X118715485Y-102686263D01*
X118771503Y-102589237D01*
X118800500Y-102481018D01*
X118800500Y-102368982D01*
X118800167Y-102366454D01*
X118800500Y-102364317D01*
X118800500Y-102360855D01*
X118801040Y-102360855D01*
X118810929Y-102297419D01*
X118857306Y-102245160D01*
X118924077Y-102226267D01*
X119400000Y-102230000D01*
X119560008Y-89402671D01*
X119580526Y-89335888D01*
X119633896Y-89290795D01*
X119636794Y-89289782D01*
X119636725Y-89289615D01*
X119644231Y-89286504D01*
X119644237Y-89286503D01*
X119741263Y-89230485D01*
X119820485Y-89151263D01*
X119876503Y-89054237D01*
X119905500Y-88946018D01*
X119905500Y-88833982D01*
X119876503Y-88725763D01*
X119820485Y-88628737D01*
X119741263Y-88549515D01*
X119741261Y-88549514D01*
X119741259Y-88549512D01*
X119637199Y-88489433D01*
X119638614Y-88486981D01*
X119594901Y-88451751D01*
X119572840Y-88385455D01*
X119572771Y-88379489D01*
X119580000Y-87800000D01*
X119099959Y-87795555D01*
X114299566Y-87751107D01*
X114232712Y-87730802D01*
X114187448Y-87677577D01*
X114176760Y-87630474D01*
X114169809Y-87373982D01*
X120494500Y-87373982D01*
X120494500Y-87486018D01*
X120523497Y-87594237D01*
X120579515Y-87691263D01*
X120658737Y-87770485D01*
X120755763Y-87826503D01*
X120863982Y-87855500D01*
X120863984Y-87855500D01*
X120976016Y-87855500D01*
X120976018Y-87855500D01*
X121084237Y-87826503D01*
X121181263Y-87770485D01*
X121260485Y-87691263D01*
X121316503Y-87594237D01*
X121345500Y-87486018D01*
X121345500Y-87373982D01*
X121316503Y-87265763D01*
X121260485Y-87168737D01*
X121181263Y-87089515D01*
X121084237Y-87033497D01*
X120976018Y-87004500D01*
X120863982Y-87004500D01*
X120755763Y-87033497D01*
X120755760Y-87033498D01*
X120658740Y-87089513D01*
X120658734Y-87089517D01*
X120579517Y-87168734D01*
X120579513Y-87168740D01*
X120523498Y-87265760D01*
X120523497Y-87265763D01*
X120494500Y-87373982D01*
X114169809Y-87373982D01*
X114153414Y-86768982D01*
X117329500Y-86768982D01*
X117329500Y-86881018D01*
X117358497Y-86989237D01*
X117414515Y-87086263D01*
X117493737Y-87165485D01*
X117590763Y-87221503D01*
X117698982Y-87250500D01*
X117698984Y-87250500D01*
X117811015Y-87250500D01*
X117811018Y-87250500D01*
X117919237Y-87221503D01*
X118016263Y-87165485D01*
X118095485Y-87086263D01*
X118151503Y-86989237D01*
X118180500Y-86881018D01*
X118180500Y-86768982D01*
X118151503Y-86660763D01*
X118095485Y-86563737D01*
X118016263Y-86484515D01*
X117919237Y-86428497D01*
X117811018Y-86399500D01*
X117698982Y-86399500D01*
X117590763Y-86428497D01*
X117590760Y-86428498D01*
X117493740Y-86484513D01*
X117493734Y-86484517D01*
X117414517Y-86563734D01*
X117414513Y-86563740D01*
X117358498Y-86660760D01*
X117358497Y-86660763D01*
X117329500Y-86768982D01*
X114153414Y-86768982D01*
X114132411Y-85993982D01*
X114584500Y-85993982D01*
X114584500Y-86106018D01*
X114613497Y-86214237D01*
X114669515Y-86311263D01*
X114748737Y-86390485D01*
X114845763Y-86446503D01*
X114953982Y-86475500D01*
X114953984Y-86475500D01*
X115066016Y-86475500D01*
X115066018Y-86475500D01*
X115174237Y-86446503D01*
X115271263Y-86390485D01*
X115350485Y-86311263D01*
X115406503Y-86214237D01*
X115435500Y-86106018D01*
X115435500Y-85993982D01*
X115406503Y-85885763D01*
X115350485Y-85788737D01*
X115271263Y-85709515D01*
X115174237Y-85653497D01*
X115066018Y-85624500D01*
X114953982Y-85624500D01*
X114845763Y-85653497D01*
X114845760Y-85653498D01*
X114748740Y-85709513D01*
X114748734Y-85709517D01*
X114669517Y-85788734D01*
X114669513Y-85788740D01*
X114613498Y-85885760D01*
X114613497Y-85885763D01*
X114584500Y-85993982D01*
X114132411Y-85993982D01*
X114083552Y-84191084D01*
X114101413Y-84123538D01*
X114152958Y-84076369D01*
X114211078Y-84063778D01*
X120358785Y-84240973D01*
G37*
G04 #@! TD.AperFunction*
G04 #@! TA.AperFunction,Conductor*
G36*
X113657968Y-84081690D02*
G01*
X113724758Y-84102203D01*
X113769856Y-84155570D01*
X113780363Y-84209844D01*
X113642348Y-88318439D01*
X113642349Y-88318440D01*
X114178025Y-88300067D01*
X114181943Y-88299995D01*
X118161094Y-88290313D01*
X118228179Y-88309835D01*
X118274063Y-88362527D01*
X118285312Y-88418822D01*
X118145920Y-92250000D01*
X118123811Y-92316279D01*
X118069378Y-92360084D01*
X117999904Y-92367506D01*
X117937446Y-92336189D01*
X117914615Y-92307491D01*
X117907450Y-92295081D01*
X117860485Y-92213735D01*
X117781263Y-92134513D01*
X117684237Y-92078495D01*
X117576018Y-92049498D01*
X117463982Y-92049498D01*
X117355763Y-92078495D01*
X117355760Y-92078496D01*
X117258740Y-92134511D01*
X117258734Y-92134515D01*
X117179517Y-92213732D01*
X117179513Y-92213738D01*
X117123498Y-92310758D01*
X117123497Y-92310761D01*
X117094500Y-92418980D01*
X117094500Y-92531016D01*
X117123497Y-92639235D01*
X117179515Y-92736261D01*
X117258737Y-92815483D01*
X117355763Y-92871501D01*
X117463982Y-92900498D01*
X117463984Y-92900498D01*
X117576016Y-92900498D01*
X117576018Y-92900498D01*
X117684237Y-92871501D01*
X117781263Y-92815483D01*
X117860485Y-92736261D01*
X117896793Y-92673372D01*
X117947356Y-92625160D01*
X118015963Y-92611936D01*
X118080828Y-92637903D01*
X118121358Y-92694817D01*
X118128096Y-92739884D01*
X117964417Y-97238589D01*
X117942308Y-97304868D01*
X117887875Y-97348673D01*
X117838523Y-97358064D01*
X115243026Y-97316701D01*
X115183002Y-97300104D01*
X115154240Y-97283498D01*
X115154237Y-97283497D01*
X115046018Y-97254500D01*
X114933982Y-97254500D01*
X114825763Y-97283497D01*
X114825761Y-97283497D01*
X114825757Y-97283499D01*
X114810691Y-97292197D01*
X114794520Y-97296391D01*
X114781731Y-97304326D01*
X114746720Y-97308791D01*
X114520055Y-97305179D01*
X114453338Y-97284429D01*
X114408430Y-97230903D01*
X114399590Y-97161595D01*
X114402250Y-97149125D01*
X114420500Y-97081018D01*
X114420500Y-96968982D01*
X114391503Y-96860763D01*
X114335485Y-96763737D01*
X114256263Y-96684515D01*
X114191579Y-96647169D01*
X114159239Y-96628498D01*
X114159238Y-96628497D01*
X114159237Y-96628497D01*
X114051018Y-96599500D01*
X113938982Y-96599500D01*
X113830763Y-96628497D01*
X113830760Y-96628498D01*
X113733740Y-96684513D01*
X113733734Y-96684517D01*
X113654517Y-96763734D01*
X113654513Y-96763740D01*
X113598498Y-96860760D01*
X113598497Y-96860763D01*
X113569500Y-96968982D01*
X113569500Y-97081017D01*
X113583223Y-97132232D01*
X113581560Y-97202082D01*
X113542397Y-97259944D01*
X113478169Y-97287448D01*
X113461472Y-97288309D01*
X110550736Y-97241924D01*
X110484019Y-97221174D01*
X110439111Y-97167648D01*
X110428719Y-97119255D01*
X110415724Y-95893982D01*
X114644500Y-95893982D01*
X114644500Y-96006018D01*
X114673497Y-96114237D01*
X114729515Y-96211263D01*
X114808737Y-96290485D01*
X114905763Y-96346503D01*
X115013982Y-96375500D01*
X115013984Y-96375500D01*
X115126016Y-96375500D01*
X115126018Y-96375500D01*
X115234237Y-96346503D01*
X115331263Y-96290485D01*
X115410485Y-96211263D01*
X115466503Y-96114237D01*
X115495500Y-96006018D01*
X115495500Y-95893982D01*
X115466503Y-95785763D01*
X115410485Y-95688737D01*
X115331263Y-95609515D01*
X115234237Y-95553497D01*
X115126018Y-95524500D01*
X115013982Y-95524500D01*
X114905763Y-95553497D01*
X114905760Y-95553498D01*
X114808740Y-95609513D01*
X114808734Y-95609517D01*
X114729517Y-95688734D01*
X114729513Y-95688740D01*
X114673498Y-95785760D01*
X114673497Y-95785763D01*
X114644500Y-95893982D01*
X110415724Y-95893982D01*
X110384824Y-92980608D01*
X115422667Y-92980608D01*
X115422667Y-93092644D01*
X115451664Y-93200863D01*
X115507682Y-93297889D01*
X115586904Y-93377111D01*
X115683930Y-93433129D01*
X115792149Y-93462126D01*
X115792151Y-93462126D01*
X115904183Y-93462126D01*
X115904185Y-93462126D01*
X116012404Y-93433129D01*
X116109430Y-93377111D01*
X116188652Y-93297889D01*
X116244670Y-93200863D01*
X116273667Y-93092644D01*
X116273667Y-92980608D01*
X116244670Y-92872389D01*
X116188652Y-92775363D01*
X116109430Y-92696141D01*
X116032144Y-92651520D01*
X116012406Y-92640124D01*
X116012405Y-92640123D01*
X116012404Y-92640123D01*
X115904185Y-92611126D01*
X115792149Y-92611126D01*
X115683930Y-92640123D01*
X115683927Y-92640124D01*
X115586907Y-92696139D01*
X115586901Y-92696143D01*
X115507684Y-92775360D01*
X115507680Y-92775366D01*
X115451665Y-92872386D01*
X115451664Y-92872389D01*
X115422667Y-92980608D01*
X110384824Y-92980608D01*
X110364541Y-91068231D01*
X115560251Y-91068231D01*
X115560251Y-91180267D01*
X115589248Y-91288486D01*
X115645266Y-91385512D01*
X115724488Y-91464734D01*
X115821514Y-91520752D01*
X115929733Y-91549749D01*
X115929735Y-91549749D01*
X116041767Y-91549749D01*
X116041769Y-91549749D01*
X116149988Y-91520752D01*
X116247014Y-91464734D01*
X116326236Y-91385512D01*
X116382254Y-91288486D01*
X116411251Y-91180267D01*
X116411251Y-91068231D01*
X116382254Y-90960012D01*
X116326236Y-90862986D01*
X116247014Y-90783764D01*
X116149988Y-90727746D01*
X116041769Y-90698749D01*
X115929733Y-90698749D01*
X115821514Y-90727746D01*
X115821511Y-90727747D01*
X115724491Y-90783762D01*
X115724485Y-90783766D01*
X115645268Y-90862983D01*
X115645264Y-90862989D01*
X115589249Y-90960009D01*
X115589248Y-90960012D01*
X115560251Y-91068231D01*
X110364541Y-91068231D01*
X110355799Y-90243982D01*
X110764500Y-90243982D01*
X110764500Y-90356018D01*
X110793497Y-90464237D01*
X110849515Y-90561263D01*
X110928737Y-90640485D01*
X111025763Y-90696503D01*
X111133982Y-90725500D01*
X111133984Y-90725500D01*
X111246016Y-90725500D01*
X111246018Y-90725500D01*
X111354237Y-90696503D01*
X111451263Y-90640485D01*
X111530485Y-90561263D01*
X111586503Y-90464237D01*
X111615500Y-90356018D01*
X111615500Y-90243982D01*
X111586503Y-90135763D01*
X111530485Y-90038737D01*
X111451263Y-89959515D01*
X111354237Y-89903497D01*
X111246018Y-89874500D01*
X111133982Y-89874500D01*
X111025763Y-89903497D01*
X111025760Y-89903498D01*
X110928740Y-89959513D01*
X110928734Y-89959517D01*
X110849517Y-90038734D01*
X110849513Y-90038740D01*
X110793498Y-90135760D01*
X110793497Y-90135763D01*
X110764500Y-90243982D01*
X110355799Y-90243982D01*
X110291345Y-84166873D01*
X110310317Y-84099632D01*
X110362633Y-84053319D01*
X110416870Y-84041570D01*
X113657968Y-84081690D01*
G37*
G04 #@! TD.AperFunction*
G04 #@! TA.AperFunction,Conductor*
G36*
X136044803Y-73920185D02*
G01*
X136090558Y-73972989D01*
X136101743Y-74022239D01*
X136147021Y-76505001D01*
X136143933Y-76534854D01*
X136129688Y-76597263D01*
X136129686Y-76597280D01*
X136099500Y-76865186D01*
X136099500Y-77134813D01*
X136129686Y-77402719D01*
X136129688Y-77402736D01*
X136163465Y-77550723D01*
X136166553Y-77576054D01*
X136214872Y-80225499D01*
X136252235Y-82274239D01*
X136255514Y-82453994D01*
X136237056Y-82521381D01*
X136193306Y-82563774D01*
X136179264Y-82571840D01*
X136135763Y-82583497D01*
X136038737Y-82639515D01*
X136008042Y-82670209D01*
X135993767Y-82678411D01*
X135975154Y-82682884D01*
X135958352Y-82692059D01*
X135930071Y-82694877D01*
X131756238Y-82630073D01*
X131696165Y-82613476D01*
X131644241Y-82583499D01*
X131644239Y-82583498D01*
X131644237Y-82583497D01*
X131536018Y-82554500D01*
X131423982Y-82554500D01*
X131315763Y-82583497D01*
X131315758Y-82583499D01*
X131278402Y-82605066D01*
X131214479Y-82621663D01*
X105139537Y-82216823D01*
X105139536Y-82216823D01*
X105140641Y-84013125D01*
X105124029Y-84075200D01*
X105103497Y-84110762D01*
X105103497Y-84110763D01*
X105074500Y-84218982D01*
X105074500Y-84331017D01*
X105103497Y-84439236D01*
X105103500Y-84439243D01*
X105124350Y-84475357D01*
X105140963Y-84537280D01*
X105144137Y-89697950D01*
X105124494Y-89765001D01*
X105071718Y-89810789D01*
X105002565Y-89820775D01*
X104938992Y-89791789D01*
X104932456Y-89785707D01*
X104856265Y-89709516D01*
X104856263Y-89709514D01*
X104759237Y-89653496D01*
X104651018Y-89624499D01*
X104538982Y-89624499D01*
X104430763Y-89653496D01*
X104430760Y-89653497D01*
X104333740Y-89709512D01*
X104333734Y-89709516D01*
X104254517Y-89788733D01*
X104254513Y-89788739D01*
X104198498Y-89885759D01*
X104198497Y-89885762D01*
X104169500Y-89993981D01*
X104169500Y-90106017D01*
X104198497Y-90214236D01*
X104254515Y-90311262D01*
X104333737Y-90390484D01*
X104430763Y-90446502D01*
X104538982Y-90475499D01*
X104538984Y-90475499D01*
X104651016Y-90475499D01*
X104651018Y-90475499D01*
X104759237Y-90446502D01*
X104856263Y-90390484D01*
X104932891Y-90313855D01*
X104994210Y-90280373D01*
X105063902Y-90285357D01*
X105119836Y-90327228D01*
X105144253Y-90392692D01*
X105144569Y-90401463D01*
X105149529Y-98465087D01*
X115007994Y-98385692D01*
X115075190Y-98404836D01*
X115121369Y-98457270D01*
X115131869Y-98526346D01*
X115103357Y-98590133D01*
X115096681Y-98597362D01*
X115096136Y-98597906D01*
X115096129Y-98597916D01*
X115040114Y-98694936D01*
X115040113Y-98694939D01*
X115011116Y-98803158D01*
X115011116Y-98915194D01*
X115040113Y-99023413D01*
X115096131Y-99120439D01*
X115175353Y-99199661D01*
X115272379Y-99255679D01*
X115380598Y-99284676D01*
X115380600Y-99284676D01*
X115492632Y-99284676D01*
X115492634Y-99284676D01*
X115600853Y-99255679D01*
X115687956Y-99205390D01*
X115755852Y-99188918D01*
X115817993Y-99210425D01*
X115818153Y-99210148D01*
X115819590Y-99210977D01*
X115821879Y-99211770D01*
X115825146Y-99214185D01*
X115825190Y-99214210D01*
X115825192Y-99214212D01*
X115922218Y-99270230D01*
X116030437Y-99299227D01*
X116030439Y-99299227D01*
X116142471Y-99299227D01*
X116142473Y-99299227D01*
X116250692Y-99270230D01*
X116347718Y-99214212D01*
X116426940Y-99134990D01*
X116482958Y-99037964D01*
X116511955Y-98929745D01*
X116511955Y-98817709D01*
X116482958Y-98709490D01*
X116426940Y-98612464D01*
X116399937Y-98585461D01*
X116366452Y-98524138D01*
X116371436Y-98454446D01*
X116413308Y-98398513D01*
X116478772Y-98374096D01*
X116486615Y-98373784D01*
X117638517Y-98364507D01*
X117705712Y-98383651D01*
X117751891Y-98436085D01*
X117763359Y-98482276D01*
X117907122Y-101341674D01*
X117890828Y-101409618D01*
X117840388Y-101457966D01*
X117787600Y-101471826D01*
X113517372Y-101620742D01*
X113517371Y-101620743D01*
X113281814Y-106980944D01*
X113259206Y-107047055D01*
X113204444Y-107090447D01*
X113157934Y-107099500D01*
X88024500Y-107099500D01*
X87957461Y-107079815D01*
X87911706Y-107027011D01*
X87900500Y-106975500D01*
X87900500Y-103865186D01*
X88599500Y-103865186D01*
X88599500Y-104134813D01*
X88629686Y-104402719D01*
X88629688Y-104402731D01*
X88689684Y-104665594D01*
X88689687Y-104665602D01*
X88778734Y-104920082D01*
X88895714Y-105162994D01*
X88895716Y-105162997D01*
X89039162Y-105391289D01*
X89207266Y-105602085D01*
X89397915Y-105792734D01*
X89608711Y-105960838D01*
X89837003Y-106104284D01*
X90079921Y-106221267D01*
X90271049Y-106288145D01*
X90334397Y-106310312D01*
X90334405Y-106310315D01*
X90334408Y-106310315D01*
X90334409Y-106310316D01*
X90597268Y-106370312D01*
X90865187Y-106400499D01*
X90865188Y-106400500D01*
X90865191Y-106400500D01*
X91134812Y-106400500D01*
X91134812Y-106400499D01*
X91402732Y-106370312D01*
X91665591Y-106310316D01*
X91920079Y-106221267D01*
X92162997Y-106104284D01*
X92391289Y-105960838D01*
X92602085Y-105792734D01*
X92792734Y-105602085D01*
X92960838Y-105391289D01*
X93104284Y-105162997D01*
X93221267Y-104920079D01*
X93310316Y-104665591D01*
X93370312Y-104402732D01*
X93400500Y-104134809D01*
X93400500Y-103865191D01*
X93370312Y-103597268D01*
X93310316Y-103334409D01*
X93221267Y-103079921D01*
X93104284Y-102837003D01*
X92960838Y-102608711D01*
X92792734Y-102397915D01*
X92688801Y-102293982D01*
X108274500Y-102293982D01*
X108274500Y-102406018D01*
X108303497Y-102514237D01*
X108359515Y-102611263D01*
X108438737Y-102690485D01*
X108535763Y-102746503D01*
X108643982Y-102775500D01*
X108643984Y-102775500D01*
X108756016Y-102775500D01*
X108756018Y-102775500D01*
X108864237Y-102746503D01*
X108961263Y-102690485D01*
X109040485Y-102611263D01*
X109096503Y-102514237D01*
X109125500Y-102406018D01*
X109125500Y-102293982D01*
X109096503Y-102185763D01*
X109040485Y-102088737D01*
X108961263Y-102009515D01*
X108864237Y-101953497D01*
X108756018Y-101924500D01*
X108643982Y-101924500D01*
X108535763Y-101953497D01*
X108535760Y-101953498D01*
X108438740Y-102009513D01*
X108438734Y-102009517D01*
X108359517Y-102088734D01*
X108359513Y-102088740D01*
X108303498Y-102185760D01*
X108303497Y-102185763D01*
X108274500Y-102293982D01*
X92688801Y-102293982D01*
X92602085Y-102207266D01*
X92391289Y-102039162D01*
X92162997Y-101895716D01*
X92162994Y-101895714D01*
X91920082Y-101778734D01*
X91665602Y-101689687D01*
X91665594Y-101689684D01*
X91468446Y-101644687D01*
X91402732Y-101629688D01*
X91402728Y-101629687D01*
X91402719Y-101629686D01*
X91134813Y-101599500D01*
X91134809Y-101599500D01*
X90865191Y-101599500D01*
X90865186Y-101599500D01*
X90597280Y-101629686D01*
X90597268Y-101629688D01*
X90334405Y-101689684D01*
X90334397Y-101689687D01*
X90079917Y-101778734D01*
X89837005Y-101895714D01*
X89608712Y-102039161D01*
X89397915Y-102207265D01*
X89207265Y-102397915D01*
X89039161Y-102608712D01*
X88895714Y-102837005D01*
X88778734Y-103079917D01*
X88689687Y-103334397D01*
X88689684Y-103334405D01*
X88629688Y-103597268D01*
X88629686Y-103597280D01*
X88599500Y-103865186D01*
X87900500Y-103865186D01*
X87900500Y-100633982D01*
X116624500Y-100633982D01*
X116624500Y-100746018D01*
X116653497Y-100854237D01*
X116709515Y-100951263D01*
X116788737Y-101030485D01*
X116885763Y-101086503D01*
X116993982Y-101115500D01*
X116993984Y-101115500D01*
X117106016Y-101115500D01*
X117106018Y-101115500D01*
X117214237Y-101086503D01*
X117311263Y-101030485D01*
X117390485Y-100951263D01*
X117446503Y-100854237D01*
X117475500Y-100746018D01*
X117475500Y-100633982D01*
X117446503Y-100525763D01*
X117390485Y-100428737D01*
X117311263Y-100349515D01*
X117214237Y-100293497D01*
X117106018Y-100264500D01*
X116993982Y-100264500D01*
X116885763Y-100293497D01*
X116885760Y-100293498D01*
X116788740Y-100349513D01*
X116788734Y-100349517D01*
X116709517Y-100428734D01*
X116709513Y-100428740D01*
X116653498Y-100525760D01*
X116653497Y-100525763D01*
X116624500Y-100633982D01*
X87900500Y-100633982D01*
X87900500Y-99757472D01*
X111457012Y-99757472D01*
X111457012Y-99869508D01*
X111486009Y-99977727D01*
X111542027Y-100074753D01*
X111621249Y-100153975D01*
X111718275Y-100209993D01*
X111826494Y-100238990D01*
X111826496Y-100238990D01*
X111938528Y-100238990D01*
X111938530Y-100238990D01*
X112046749Y-100209993D01*
X112143775Y-100153975D01*
X112222997Y-100074753D01*
X112279015Y-99977727D01*
X112308012Y-99869508D01*
X112308012Y-99868014D01*
X112308368Y-99866801D01*
X112309073Y-99861448D01*
X112309907Y-99861557D01*
X112327697Y-99800975D01*
X112380501Y-99755220D01*
X112425493Y-99745432D01*
X112425446Y-99745075D01*
X112429724Y-99744511D01*
X112432012Y-99744014D01*
X112433504Y-99744014D01*
X112433506Y-99744014D01*
X112541725Y-99715017D01*
X112638751Y-99658999D01*
X112717973Y-99579777D01*
X112773991Y-99482751D01*
X112802988Y-99374532D01*
X112802988Y-99262496D01*
X112773991Y-99154277D01*
X112717973Y-99057251D01*
X112638751Y-98978029D01*
X112541725Y-98922011D01*
X112433506Y-98893014D01*
X112321470Y-98893014D01*
X112213251Y-98922011D01*
X112213248Y-98922012D01*
X112116228Y-98978027D01*
X112116222Y-98978031D01*
X112037005Y-99057248D01*
X112037001Y-99057254D01*
X111980986Y-99154274D01*
X111980985Y-99154277D01*
X111951988Y-99262496D01*
X111951988Y-99263990D01*
X111951631Y-99265202D01*
X111950927Y-99270556D01*
X111950092Y-99270446D01*
X111932303Y-99331029D01*
X111879499Y-99376784D01*
X111834506Y-99386571D01*
X111834554Y-99386929D01*
X111830275Y-99387492D01*
X111827988Y-99387990D01*
X111826494Y-99387990D01*
X111718275Y-99416987D01*
X111718272Y-99416988D01*
X111621252Y-99473003D01*
X111621246Y-99473007D01*
X111542029Y-99552224D01*
X111542025Y-99552230D01*
X111486010Y-99649250D01*
X111486009Y-99649253D01*
X111457012Y-99757472D01*
X87900500Y-99757472D01*
X87900500Y-96462758D01*
X96158999Y-96462758D01*
X96193239Y-96634889D01*
X96193242Y-96634899D01*
X96260402Y-96797040D01*
X96260409Y-96797053D01*
X96357914Y-96942978D01*
X96357917Y-96942982D01*
X96482017Y-97067082D01*
X96482021Y-97067085D01*
X96627946Y-97164590D01*
X96627959Y-97164597D01*
X96774994Y-97225500D01*
X96790105Y-97231759D01*
X96790109Y-97231759D01*
X96790110Y-97231760D01*
X96962241Y-97266000D01*
X96962244Y-97266000D01*
X97137758Y-97266000D01*
X97253564Y-97242963D01*
X97309895Y-97231759D01*
X97472047Y-97164594D01*
X97617979Y-97067085D01*
X97742085Y-96942979D01*
X97839594Y-96797047D01*
X97906759Y-96634895D01*
X97906760Y-96634889D01*
X97906840Y-96634628D01*
X97906921Y-96634504D01*
X97909090Y-96629268D01*
X97910083Y-96629679D01*
X97945138Y-96576190D01*
X98008951Y-96547734D01*
X98078018Y-96558296D01*
X98130411Y-96604521D01*
X98149500Y-96670625D01*
X98149500Y-97669752D01*
X98161131Y-97728229D01*
X98161132Y-97728230D01*
X98205447Y-97794552D01*
X98271769Y-97838867D01*
X98271770Y-97838868D01*
X98330247Y-97850499D01*
X98330250Y-97850500D01*
X98330252Y-97850500D01*
X99669750Y-97850500D01*
X99669751Y-97850499D01*
X99684568Y-97847552D01*
X99728229Y-97838868D01*
X99728229Y-97838867D01*
X99728231Y-97838867D01*
X99794552Y-97794552D01*
X99838867Y-97728231D01*
X99838867Y-97728229D01*
X99838868Y-97728229D01*
X99850499Y-97669752D01*
X99850500Y-97669750D01*
X99850500Y-96330249D01*
X99850499Y-96330247D01*
X99838868Y-96271770D01*
X99838867Y-96271769D01*
X99794552Y-96205447D01*
X99728230Y-96161132D01*
X99728229Y-96161131D01*
X99669752Y-96149500D01*
X99669748Y-96149500D01*
X98330252Y-96149500D01*
X98330247Y-96149500D01*
X98271770Y-96161131D01*
X98271769Y-96161132D01*
X98205446Y-96205448D01*
X98155442Y-96280284D01*
X98101830Y-96325088D01*
X98032505Y-96333795D01*
X97969477Y-96303640D01*
X97932759Y-96244196D01*
X97930724Y-96235583D01*
X97920102Y-96182184D01*
X97906759Y-96115105D01*
X97906757Y-96115100D01*
X97839597Y-95952959D01*
X97839590Y-95952946D01*
X97742085Y-95807021D01*
X97742082Y-95807017D01*
X97617982Y-95682917D01*
X97617978Y-95682914D01*
X97472053Y-95585409D01*
X97472040Y-95585402D01*
X97309899Y-95518242D01*
X97309889Y-95518239D01*
X97137758Y-95484000D01*
X97137756Y-95484000D01*
X96962244Y-95484000D01*
X96962242Y-95484000D01*
X96790110Y-95518239D01*
X96790100Y-95518242D01*
X96627959Y-95585402D01*
X96627946Y-95585409D01*
X96482021Y-95682914D01*
X96482017Y-95682917D01*
X96357917Y-95807017D01*
X96357914Y-95807021D01*
X96260409Y-95952946D01*
X96260402Y-95952959D01*
X96193242Y-96115100D01*
X96193239Y-96115110D01*
X96159000Y-96287241D01*
X96159000Y-96287244D01*
X96159000Y-96462756D01*
X96159000Y-96462758D01*
X96158999Y-96462758D01*
X87900500Y-96462758D01*
X87900500Y-94312758D01*
X96158999Y-94312758D01*
X96193239Y-94484889D01*
X96193242Y-94484899D01*
X96260402Y-94647040D01*
X96260409Y-94647053D01*
X96357914Y-94792978D01*
X96357917Y-94792982D01*
X96482017Y-94917082D01*
X96482021Y-94917085D01*
X96627946Y-95014590D01*
X96627959Y-95014597D01*
X96774994Y-95075500D01*
X96790105Y-95081759D01*
X96790109Y-95081759D01*
X96790110Y-95081760D01*
X96962241Y-95116000D01*
X96962244Y-95116000D01*
X97137758Y-95116000D01*
X97253564Y-95092963D01*
X97309895Y-95081759D01*
X97472047Y-95014594D01*
X97617979Y-94917085D01*
X97742085Y-94792979D01*
X97839594Y-94647047D01*
X97906759Y-94484895D01*
X97941000Y-94312756D01*
X97941000Y-94137244D01*
X97941000Y-94137241D01*
X97906760Y-93965110D01*
X97906759Y-93965109D01*
X97906759Y-93965105D01*
X97863180Y-93859895D01*
X97839597Y-93802959D01*
X97839590Y-93802946D01*
X97762623Y-93687758D01*
X98108999Y-93687758D01*
X98143239Y-93859889D01*
X98143242Y-93859899D01*
X98210402Y-94022040D01*
X98210409Y-94022053D01*
X98307914Y-94167978D01*
X98307917Y-94167982D01*
X98432017Y-94292082D01*
X98432021Y-94292085D01*
X98577946Y-94389590D01*
X98577959Y-94389597D01*
X98724994Y-94450500D01*
X98740105Y-94456759D01*
X98740109Y-94456759D01*
X98740110Y-94456760D01*
X98912241Y-94491000D01*
X98912244Y-94491000D01*
X99087758Y-94491000D01*
X99203564Y-94467963D01*
X99259895Y-94456759D01*
X99422047Y-94389594D01*
X99567979Y-94292085D01*
X99692085Y-94167979D01*
X99789594Y-94022047D01*
X99856759Y-93859895D01*
X99891000Y-93687756D01*
X99891000Y-93512244D01*
X99891000Y-93512241D01*
X99856760Y-93340110D01*
X99856759Y-93340109D01*
X99856759Y-93340105D01*
X99835482Y-93288737D01*
X99789597Y-93177959D01*
X99789590Y-93177946D01*
X99692085Y-93032021D01*
X99692082Y-93032017D01*
X99567982Y-92907917D01*
X99567978Y-92907914D01*
X99422053Y-92810409D01*
X99416677Y-92807536D01*
X99417535Y-92805930D01*
X99369785Y-92767451D01*
X99347721Y-92701156D01*
X99364254Y-92634734D01*
X99416503Y-92544237D01*
X99445500Y-92436018D01*
X99445500Y-92323982D01*
X99416503Y-92215763D01*
X99360485Y-92118737D01*
X99281263Y-92039515D01*
X99184237Y-91983497D01*
X99076018Y-91954500D01*
X98963982Y-91954500D01*
X98855763Y-91983497D01*
X98855760Y-91983498D01*
X98758740Y-92039513D01*
X98758734Y-92039517D01*
X98679517Y-92118734D01*
X98679513Y-92118740D01*
X98623498Y-92215760D01*
X98623497Y-92215763D01*
X98594500Y-92323982D01*
X98594500Y-92436018D01*
X98619955Y-92531016D01*
X98623497Y-92544236D01*
X98623499Y-92544243D01*
X98668024Y-92621362D01*
X98684497Y-92689262D01*
X98661644Y-92755289D01*
X98608092Y-92797921D01*
X98577958Y-92810403D01*
X98577946Y-92810409D01*
X98432021Y-92907914D01*
X98432017Y-92907917D01*
X98307917Y-93032017D01*
X98307914Y-93032021D01*
X98210409Y-93177946D01*
X98210402Y-93177959D01*
X98143242Y-93340100D01*
X98143239Y-93340110D01*
X98109000Y-93512241D01*
X98109000Y-93512244D01*
X98109000Y-93687756D01*
X98109000Y-93687758D01*
X98108999Y-93687758D01*
X97762623Y-93687758D01*
X97742085Y-93657021D01*
X97742082Y-93657017D01*
X97617982Y-93532917D01*
X97617978Y-93532914D01*
X97472053Y-93435409D01*
X97472040Y-93435402D01*
X97309899Y-93368242D01*
X97309889Y-93368239D01*
X97137758Y-93334000D01*
X97137756Y-93334000D01*
X96962244Y-93334000D01*
X96962242Y-93334000D01*
X96790110Y-93368239D01*
X96790100Y-93368242D01*
X96627959Y-93435402D01*
X96627946Y-93435409D01*
X96482021Y-93532914D01*
X96482017Y-93532917D01*
X96357917Y-93657017D01*
X96357914Y-93657021D01*
X96260409Y-93802946D01*
X96260402Y-93802959D01*
X96193242Y-93965100D01*
X96193239Y-93965110D01*
X96159000Y-94137241D01*
X96159000Y-94137244D01*
X96159000Y-94312756D01*
X96159000Y-94312758D01*
X96158999Y-94312758D01*
X87900500Y-94312758D01*
X87900500Y-85013982D01*
X96234500Y-85013982D01*
X96234500Y-85126018D01*
X96263497Y-85234237D01*
X96319515Y-85331263D01*
X96398737Y-85410485D01*
X96495763Y-85466503D01*
X96603982Y-85495500D01*
X96603984Y-85495500D01*
X96716016Y-85495500D01*
X96716018Y-85495500D01*
X96824237Y-85466503D01*
X96921263Y-85410485D01*
X97000485Y-85331263D01*
X97056503Y-85234237D01*
X97085500Y-85126018D01*
X97085500Y-85013982D01*
X97056503Y-84905763D01*
X97000485Y-84808737D01*
X96921263Y-84729515D01*
X96824237Y-84673497D01*
X96716018Y-84644500D01*
X96603982Y-84644500D01*
X96495763Y-84673497D01*
X96495760Y-84673498D01*
X96398740Y-84729513D01*
X96398734Y-84729517D01*
X96319517Y-84808734D01*
X96319513Y-84808740D01*
X96263498Y-84905760D01*
X96263497Y-84905763D01*
X96234500Y-85013982D01*
X87900500Y-85013982D01*
X87900500Y-82053982D01*
X93714500Y-82053982D01*
X93714500Y-82166018D01*
X93743497Y-82274237D01*
X93799515Y-82371263D01*
X93878737Y-82450485D01*
X93975763Y-82506503D01*
X94083982Y-82535500D01*
X94083984Y-82535500D01*
X94196016Y-82535500D01*
X94196018Y-82535500D01*
X94304237Y-82506503D01*
X94401263Y-82450485D01*
X94480485Y-82371263D01*
X94536503Y-82274237D01*
X94565500Y-82166018D01*
X94565500Y-82053982D01*
X94536503Y-81945763D01*
X94480485Y-81848737D01*
X94401263Y-81769515D01*
X94304237Y-81713497D01*
X94196018Y-81684500D01*
X94083982Y-81684500D01*
X93975763Y-81713497D01*
X93975760Y-81713498D01*
X93878740Y-81769513D01*
X93878734Y-81769517D01*
X93799517Y-81848734D01*
X93799513Y-81848740D01*
X93743498Y-81945760D01*
X93743497Y-81945763D01*
X93714500Y-82053982D01*
X87900500Y-82053982D01*
X87900500Y-81423982D01*
X101614500Y-81423982D01*
X101614500Y-81536018D01*
X101643497Y-81644237D01*
X101699515Y-81741263D01*
X101778737Y-81820485D01*
X101875763Y-81876503D01*
X101983982Y-81905500D01*
X101983984Y-81905500D01*
X102096016Y-81905500D01*
X102096018Y-81905500D01*
X102204237Y-81876503D01*
X102301263Y-81820485D01*
X102380485Y-81741263D01*
X102436503Y-81644237D01*
X102465500Y-81536018D01*
X102465500Y-81423982D01*
X102436503Y-81315763D01*
X102380485Y-81218737D01*
X102301263Y-81139515D01*
X102204237Y-81083497D01*
X102096018Y-81054500D01*
X101983982Y-81054500D01*
X101875763Y-81083497D01*
X101875760Y-81083498D01*
X101778740Y-81139513D01*
X101778734Y-81139517D01*
X101699517Y-81218734D01*
X101699513Y-81218740D01*
X101643498Y-81315760D01*
X101643497Y-81315763D01*
X101614500Y-81423982D01*
X87900500Y-81423982D01*
X87900500Y-76865186D01*
X88599500Y-76865186D01*
X88599500Y-77134813D01*
X88629686Y-77402719D01*
X88629688Y-77402731D01*
X88689684Y-77665594D01*
X88689687Y-77665602D01*
X88778734Y-77920082D01*
X88895714Y-78162994D01*
X88895716Y-78162997D01*
X89039162Y-78391289D01*
X89207266Y-78602085D01*
X89397915Y-78792734D01*
X89608711Y-78960838D01*
X89837003Y-79104284D01*
X90079921Y-79221267D01*
X90080970Y-79221634D01*
X90081192Y-79221793D01*
X90083121Y-79222592D01*
X90083046Y-79222772D01*
X90083056Y-79222777D01*
X90082973Y-79222948D01*
X90082934Y-79223042D01*
X90137748Y-79262344D01*
X90163505Y-79327293D01*
X90150059Y-79395857D01*
X90102033Y-79446064D01*
X90078740Y-79459513D01*
X90078734Y-79459517D01*
X89999517Y-79538734D01*
X89999513Y-79538740D01*
X89943498Y-79635760D01*
X89943497Y-79635763D01*
X89914500Y-79743982D01*
X89914500Y-79856018D01*
X89943497Y-79964237D01*
X89999515Y-80061263D01*
X90078737Y-80140485D01*
X90175763Y-80196503D01*
X90283982Y-80225500D01*
X90283984Y-80225500D01*
X90396016Y-80225500D01*
X90396018Y-80225500D01*
X90504237Y-80196503D01*
X90601263Y-80140485D01*
X90680485Y-80061263D01*
X90736503Y-79964237D01*
X90765500Y-79856018D01*
X90765500Y-79850832D01*
X90785185Y-79783793D01*
X90801815Y-79763155D01*
X91137556Y-79427413D01*
X91157434Y-79416559D01*
X91174679Y-79401870D01*
X91193958Y-79396615D01*
X91198879Y-79393929D01*
X91208627Y-79392213D01*
X91209996Y-79392027D01*
X91402732Y-79370312D01*
X91449326Y-79359676D01*
X91454867Y-79358928D01*
X91484102Y-79363383D01*
X91513623Y-79365192D01*
X91519191Y-79368730D01*
X91523939Y-79369454D01*
X91533266Y-79377675D01*
X91559158Y-79394129D01*
X91708181Y-79543152D01*
X91741666Y-79604475D01*
X91744500Y-79630833D01*
X91744500Y-79636018D01*
X91773497Y-79744237D01*
X91829515Y-79841263D01*
X91908737Y-79920485D01*
X92005763Y-79976503D01*
X92113982Y-80005500D01*
X92113984Y-80005500D01*
X92226016Y-80005500D01*
X92226018Y-80005500D01*
X92334237Y-79976503D01*
X92431263Y-79920485D01*
X92510485Y-79841263D01*
X92566503Y-79744237D01*
X92595500Y-79636018D01*
X92595500Y-79523982D01*
X92566503Y-79415763D01*
X92510485Y-79318737D01*
X92431263Y-79239515D01*
X92357513Y-79196935D01*
X92309298Y-79146369D01*
X92296075Y-79077762D01*
X92322043Y-79012897D01*
X92353540Y-78984556D01*
X92391289Y-78960838D01*
X92602085Y-78792734D01*
X92792734Y-78602085D01*
X92960838Y-78391289D01*
X93104284Y-78162997D01*
X93221267Y-77920079D01*
X93310316Y-77665591D01*
X93370312Y-77402732D01*
X93400500Y-77134809D01*
X93400500Y-76865191D01*
X93370312Y-76597268D01*
X93310316Y-76334409D01*
X93221267Y-76079921D01*
X93104284Y-75837003D01*
X92960838Y-75608711D01*
X92792734Y-75397915D01*
X92602085Y-75207266D01*
X92391289Y-75039162D01*
X92162997Y-74895716D01*
X92162994Y-74895714D01*
X91920082Y-74778734D01*
X91665602Y-74689687D01*
X91665594Y-74689684D01*
X91468446Y-74644687D01*
X91402732Y-74629688D01*
X91402728Y-74629687D01*
X91402719Y-74629686D01*
X91134813Y-74599500D01*
X91134809Y-74599500D01*
X90865191Y-74599500D01*
X90865186Y-74599500D01*
X90597280Y-74629686D01*
X90597268Y-74629688D01*
X90334405Y-74689684D01*
X90334397Y-74689687D01*
X90079917Y-74778734D01*
X89837005Y-74895714D01*
X89608712Y-75039161D01*
X89397915Y-75207265D01*
X89207265Y-75397915D01*
X89039161Y-75608712D01*
X88895714Y-75837005D01*
X88778734Y-76079917D01*
X88689687Y-76334397D01*
X88689684Y-76334405D01*
X88629688Y-76597268D01*
X88629686Y-76597280D01*
X88599500Y-76865186D01*
X87900500Y-76865186D01*
X87900500Y-74024500D01*
X87920185Y-73957461D01*
X87972989Y-73911706D01*
X88024500Y-73900500D01*
X135977764Y-73900500D01*
X136044803Y-73920185D01*
G37*
G04 #@! TD.AperFunction*
M02*
