G04 #@! TF.GenerationSoftware,KiCad,Pcbnew,9.0.4*
G04 #@! TF.CreationDate,2025-12-23T06:35:07-05:00*
G04 #@! TF.ProjectId,main_board_peripheral_v2,6d61696e-5f62-46f6-9172-645f70657269,rev?*
G04 #@! TF.SameCoordinates,Original*
G04 #@! TF.FileFunction,Copper,L2,Inr*
G04 #@! TF.FilePolarity,Positive*
%FSLAX46Y46*%
G04 Gerber Fmt 4.6, Leading zero omitted, Abs format (unit mm)*
G04 Created by KiCad (PCBNEW 9.0.4) date 2025-12-23 06:35:07*
%MOMM*%
%LPD*%
G01*
G04 APERTURE LIST*
G04 #@! TA.AperFunction,ComponentPad*
%ADD10C,4.400000*%
G04 #@! TD*
G04 #@! TA.AperFunction,ComponentPad*
%ADD11R,1.300000X1.300000*%
G04 #@! TD*
G04 #@! TA.AperFunction,ComponentPad*
%ADD12C,1.381000*%
G04 #@! TD*
G04 #@! TA.AperFunction,ComponentPad*
%ADD13C,1.300000*%
G04 #@! TD*
G04 #@! TA.AperFunction,ViaPad*
%ADD14C,0.450000*%
G04 #@! TD*
G04 APERTURE END LIST*
D10*
X91000000Y-104000000D03*
X138500000Y-104000000D03*
D11*
X99000000Y-97000000D03*
D12*
X97050000Y-96375000D03*
X99000000Y-93600000D03*
X97050000Y-94225000D03*
D10*
X138500000Y-77000000D03*
X91000000Y-77000000D03*
D11*
X131000000Y-93600000D03*
D13*
X129050000Y-94225000D03*
X131000000Y-97000000D03*
X129050000Y-96375000D03*
D14*
X112090000Y-91450000D03*
X112500000Y-87000000D03*
X117030000Y-93550000D03*
X116086455Y-98873727D03*
X115436616Y-98859176D03*
X112377488Y-99318514D03*
X111882512Y-99813490D03*
X115848167Y-93036626D03*
X117450000Y-83100000D03*
X108700000Y-102350000D03*
X96660000Y-85070000D03*
X134750000Y-84275000D03*
X92170000Y-79580000D03*
X90340000Y-79800000D03*
X118780000Y-96480000D03*
X115010000Y-86050000D03*
X104595000Y-90049999D03*
X105500000Y-84275000D03*
X111190000Y-90300000D03*
X102040000Y-81480000D03*
X131480000Y-82980000D03*
X99020000Y-92380000D03*
X118375000Y-102425000D03*
X117755000Y-86825000D03*
X117050000Y-100690000D03*
X94140000Y-82110000D03*
X120900000Y-84275000D03*
X114990000Y-97680000D03*
X115620000Y-105460000D03*
X117755000Y-85275000D03*
X120930000Y-77470000D03*
X117420000Y-98838489D03*
X102070000Y-84440000D03*
X104595000Y-89089999D03*
X105500000Y-77490000D03*
X134730000Y-77490000D03*
X115985751Y-91124249D03*
X117520000Y-92474998D03*
X136300000Y-82980000D03*
X120920000Y-87430000D03*
X119480000Y-88890000D03*
X115070000Y-95950000D03*
X113995000Y-97025000D03*
G04 #@! TA.AperFunction,Conductor*
G36*
X141542539Y-73920185D02*
G01*
X141588294Y-73972989D01*
X141599500Y-74024500D01*
X141599500Y-106975500D01*
X141579815Y-107042539D01*
X141527011Y-107088294D01*
X141475500Y-107099500D01*
X88024500Y-107099500D01*
X87957461Y-107079815D01*
X87911706Y-107027011D01*
X87900500Y-106975500D01*
X87900500Y-105531457D01*
X114894499Y-105531457D01*
X114922379Y-105671614D01*
X114922381Y-105671620D01*
X114977069Y-105803650D01*
X114977074Y-105803659D01*
X115056467Y-105922478D01*
X115056470Y-105922482D01*
X115157517Y-106023529D01*
X115157521Y-106023532D01*
X115276340Y-106102925D01*
X115276346Y-106102928D01*
X115276347Y-106102929D01*
X115408380Y-106157619D01*
X115408384Y-106157619D01*
X115408385Y-106157620D01*
X115548542Y-106185500D01*
X115548545Y-106185500D01*
X115691457Y-106185500D01*
X115785751Y-106166742D01*
X115831620Y-106157619D01*
X115963653Y-106102929D01*
X116082479Y-106023532D01*
X116183532Y-105922479D01*
X116262929Y-105803653D01*
X116317619Y-105671620D01*
X116345500Y-105531455D01*
X116345500Y-105388545D01*
X116345500Y-105388542D01*
X116317620Y-105248385D01*
X116317619Y-105248384D01*
X116317619Y-105248380D01*
X116262929Y-105116347D01*
X116262928Y-105116346D01*
X116262925Y-105116340D01*
X116183532Y-104997521D01*
X116183529Y-104997517D01*
X116082482Y-104896470D01*
X116082478Y-104896467D01*
X115963659Y-104817074D01*
X115963650Y-104817069D01*
X115831620Y-104762381D01*
X115831614Y-104762379D01*
X115691457Y-104734500D01*
X115691455Y-104734500D01*
X115548545Y-104734500D01*
X115548543Y-104734500D01*
X115408385Y-104762379D01*
X115408379Y-104762381D01*
X115276349Y-104817069D01*
X115276340Y-104817074D01*
X115157521Y-104896467D01*
X115157517Y-104896470D01*
X115056470Y-104997517D01*
X115056467Y-104997521D01*
X114977074Y-105116340D01*
X114977069Y-105116349D01*
X114922381Y-105248379D01*
X114922379Y-105248385D01*
X114894500Y-105388542D01*
X114894500Y-105388545D01*
X114894500Y-105531455D01*
X114894500Y-105531457D01*
X114894499Y-105531457D01*
X87900500Y-105531457D01*
X87900500Y-99884947D01*
X111157011Y-99884947D01*
X111184891Y-100025104D01*
X111184893Y-100025110D01*
X111239581Y-100157140D01*
X111239586Y-100157149D01*
X111318979Y-100275968D01*
X111318982Y-100275972D01*
X111420029Y-100377019D01*
X111420033Y-100377022D01*
X111538852Y-100456415D01*
X111538858Y-100456418D01*
X111538859Y-100456419D01*
X111670892Y-100511109D01*
X111670896Y-100511109D01*
X111670897Y-100511110D01*
X111811054Y-100538990D01*
X111811057Y-100538990D01*
X111953969Y-100538990D01*
X112048263Y-100520232D01*
X112094132Y-100511109D01*
X112226165Y-100456419D01*
X112344991Y-100377022D01*
X112446044Y-100275969D01*
X112525441Y-100157143D01*
X112563106Y-100066210D01*
X112606944Y-100011812D01*
X112630200Y-99999112D01*
X112721141Y-99961443D01*
X112839967Y-99882046D01*
X112941020Y-99780993D01*
X113020417Y-99662167D01*
X113075107Y-99530134D01*
X113096476Y-99422708D01*
X113102988Y-99389971D01*
X113102988Y-99247056D01*
X113075108Y-99106899D01*
X113075107Y-99106898D01*
X113075107Y-99106894D01*
X113020417Y-98974861D01*
X113020416Y-98974860D01*
X113020413Y-98974854D01*
X112941020Y-98856035D01*
X112941017Y-98856031D01*
X112839970Y-98754984D01*
X112839966Y-98754981D01*
X112721147Y-98675588D01*
X112721138Y-98675583D01*
X112589108Y-98620895D01*
X112589102Y-98620893D01*
X112448945Y-98593014D01*
X112448943Y-98593014D01*
X112306033Y-98593014D01*
X112306031Y-98593014D01*
X112165873Y-98620893D01*
X112165867Y-98620895D01*
X112033837Y-98675583D01*
X112033828Y-98675588D01*
X111915009Y-98754981D01*
X111915005Y-98754984D01*
X111813958Y-98856031D01*
X111813955Y-98856035D01*
X111734562Y-98974854D01*
X111734557Y-98974864D01*
X111696895Y-99065789D01*
X111653054Y-99120192D01*
X111629787Y-99132897D01*
X111538862Y-99170559D01*
X111538852Y-99170564D01*
X111420033Y-99249957D01*
X111420029Y-99249960D01*
X111318982Y-99351007D01*
X111318979Y-99351011D01*
X111239586Y-99469830D01*
X111239581Y-99469839D01*
X111184893Y-99601869D01*
X111184891Y-99601875D01*
X111157012Y-99742032D01*
X111157012Y-99742035D01*
X111157012Y-99884945D01*
X111157012Y-99884947D01*
X111157011Y-99884947D01*
X87900500Y-99884947D01*
X87900500Y-94131260D01*
X95859000Y-94131260D01*
X95859000Y-94318739D01*
X95886495Y-94492335D01*
X95888326Y-94503893D01*
X95946257Y-94682185D01*
X96031365Y-94849220D01*
X96141556Y-95000885D01*
X96274115Y-95133444D01*
X96365284Y-95199682D01*
X96407949Y-95255012D01*
X96413928Y-95324626D01*
X96381322Y-95386421D01*
X96365284Y-95400317D01*
X96274115Y-95466556D01*
X96274113Y-95466558D01*
X96274112Y-95466558D01*
X96141558Y-95599112D01*
X96141558Y-95599113D01*
X96141556Y-95599115D01*
X96122383Y-95625505D01*
X96031365Y-95750779D01*
X95946258Y-95917812D01*
X95888325Y-96096110D01*
X95859000Y-96281260D01*
X95859000Y-96468739D01*
X95887332Y-96647618D01*
X95888326Y-96653893D01*
X95946257Y-96832185D01*
X96031365Y-96999220D01*
X96141556Y-97150885D01*
X96274115Y-97283444D01*
X96425780Y-97393635D01*
X96592815Y-97478743D01*
X96771107Y-97536674D01*
X96840541Y-97547671D01*
X96956261Y-97566000D01*
X96956266Y-97566000D01*
X97143739Y-97566000D01*
X97246600Y-97549707D01*
X97328893Y-97536674D01*
X97507185Y-97478743D01*
X97669208Y-97396188D01*
X97737874Y-97383293D01*
X97802614Y-97409569D01*
X97842872Y-97466675D01*
X97849500Y-97506673D01*
X97849500Y-97697869D01*
X97849501Y-97697876D01*
X97855908Y-97757483D01*
X97906202Y-97892328D01*
X97906206Y-97892335D01*
X97992452Y-98007544D01*
X97992455Y-98007547D01*
X98107664Y-98093793D01*
X98107671Y-98093797D01*
X98242517Y-98144091D01*
X98242516Y-98144091D01*
X98249444Y-98144835D01*
X98302127Y-98150500D01*
X99697872Y-98150499D01*
X99757483Y-98144091D01*
X99892331Y-98093796D01*
X100007546Y-98007546D01*
X100093796Y-97892331D01*
X100144091Y-97757483D01*
X100150500Y-97697873D01*
X100150500Y-97096457D01*
X113269499Y-97096457D01*
X113297379Y-97236614D01*
X113297381Y-97236620D01*
X113352069Y-97368650D01*
X113352074Y-97368659D01*
X113431467Y-97487478D01*
X113431470Y-97487482D01*
X113532517Y-97588529D01*
X113532521Y-97588532D01*
X113651340Y-97667925D01*
X113651346Y-97667928D01*
X113651347Y-97667929D01*
X113783380Y-97722619D01*
X113783384Y-97722619D01*
X113783385Y-97722620D01*
X113923542Y-97750500D01*
X113923545Y-97750500D01*
X114066456Y-97750500D01*
X114085837Y-97746644D01*
X114135161Y-97736833D01*
X114204752Y-97743060D01*
X114259930Y-97785922D01*
X114280970Y-97834258D01*
X114292379Y-97891614D01*
X114292381Y-97891620D01*
X114347069Y-98023650D01*
X114347074Y-98023659D01*
X114426467Y-98142478D01*
X114426470Y-98142482D01*
X114527517Y-98243529D01*
X114527521Y-98243532D01*
X114646340Y-98322925D01*
X114646353Y-98322932D01*
X114725639Y-98355773D01*
X114780043Y-98399614D01*
X114802108Y-98465908D01*
X114792748Y-98517786D01*
X114738998Y-98647551D01*
X114738995Y-98647561D01*
X114711116Y-98787718D01*
X114711116Y-98787721D01*
X114711116Y-98930631D01*
X114711116Y-98930633D01*
X114711115Y-98930633D01*
X114738995Y-99070790D01*
X114738997Y-99070796D01*
X114793685Y-99202826D01*
X114793690Y-99202835D01*
X114873083Y-99321654D01*
X114873086Y-99321658D01*
X114974133Y-99422705D01*
X114974137Y-99422708D01*
X115092956Y-99502101D01*
X115092962Y-99502104D01*
X115092963Y-99502105D01*
X115224996Y-99556795D01*
X115225000Y-99556795D01*
X115225001Y-99556796D01*
X115365158Y-99584676D01*
X115365161Y-99584676D01*
X115508073Y-99584676D01*
X115612070Y-99563989D01*
X115648236Y-99556795D01*
X115696517Y-99536795D01*
X115765984Y-99529326D01*
X115791417Y-99536793D01*
X115874835Y-99571346D01*
X115874839Y-99571346D01*
X115874840Y-99571347D01*
X116014997Y-99599227D01*
X116015000Y-99599227D01*
X116157912Y-99599227D01*
X116252206Y-99580469D01*
X116298075Y-99571346D01*
X116430108Y-99516656D01*
X116548934Y-99437259D01*
X116649987Y-99336206D01*
X116662860Y-99316939D01*
X116716470Y-99272133D01*
X116785795Y-99263423D01*
X116848824Y-99293576D01*
X116853645Y-99298146D01*
X116957517Y-99402018D01*
X116957521Y-99402021D01*
X117076340Y-99481414D01*
X117076346Y-99481417D01*
X117076347Y-99481418D01*
X117208380Y-99536108D01*
X117208384Y-99536108D01*
X117208385Y-99536109D01*
X117348542Y-99563989D01*
X117348545Y-99563989D01*
X117491457Y-99563989D01*
X117585751Y-99545231D01*
X117631620Y-99536108D01*
X117763653Y-99481418D01*
X117882479Y-99402021D01*
X117983532Y-99300968D01*
X118062929Y-99182142D01*
X118117619Y-99050109D01*
X118126742Y-99004240D01*
X118145500Y-98909946D01*
X118145500Y-98767031D01*
X118117620Y-98626874D01*
X118117619Y-98626873D01*
X118117619Y-98626869D01*
X118062929Y-98494836D01*
X118062928Y-98494835D01*
X118062925Y-98494829D01*
X117983532Y-98376010D01*
X117983529Y-98376006D01*
X117882482Y-98274959D01*
X117882478Y-98274956D01*
X117763659Y-98195563D01*
X117763650Y-98195558D01*
X117631620Y-98140870D01*
X117631614Y-98140868D01*
X117491457Y-98112989D01*
X117491455Y-98112989D01*
X117348545Y-98112989D01*
X117348543Y-98112989D01*
X117208385Y-98140868D01*
X117208379Y-98140870D01*
X117076349Y-98195558D01*
X117076340Y-98195563D01*
X116957521Y-98274956D01*
X116957517Y-98274959D01*
X116856470Y-98376006D01*
X116856465Y-98376012D01*
X116843591Y-98395280D01*
X116789978Y-98440085D01*
X116720653Y-98448791D01*
X116657626Y-98418635D01*
X116652809Y-98414069D01*
X116548937Y-98310197D01*
X116548933Y-98310194D01*
X116430114Y-98230801D01*
X116430105Y-98230796D01*
X116298075Y-98176108D01*
X116298069Y-98176106D01*
X116157912Y-98148227D01*
X116157910Y-98148227D01*
X116015000Y-98148227D01*
X116014998Y-98148227D01*
X115874841Y-98176106D01*
X115874837Y-98176107D01*
X115874835Y-98176108D01*
X115826549Y-98196108D01*
X115796030Y-98199389D01*
X115765844Y-98204835D01*
X115759776Y-98203286D01*
X115757082Y-98203576D01*
X115731653Y-98196109D01*
X115700972Y-98183401D01*
X115646571Y-98139560D01*
X115624507Y-98073266D01*
X115633867Y-98021388D01*
X115639600Y-98007547D01*
X115687619Y-97891620D01*
X115714301Y-97757483D01*
X115715500Y-97751457D01*
X115715500Y-97608542D01*
X115687620Y-97468385D01*
X115687619Y-97468384D01*
X115687619Y-97468380D01*
X115632929Y-97336347D01*
X115632928Y-97336346D01*
X115632925Y-97336340D01*
X115553532Y-97217521D01*
X115553529Y-97217517D01*
X115452482Y-97116470D01*
X115452478Y-97116467D01*
X115333659Y-97037074D01*
X115333650Y-97037069D01*
X115201620Y-96982381D01*
X115201614Y-96982379D01*
X115061457Y-96954500D01*
X115061455Y-96954500D01*
X114918545Y-96954500D01*
X114918540Y-96954500D01*
X114849837Y-96968166D01*
X114843421Y-96967591D01*
X114837440Y-96969987D01*
X114809044Y-96964515D01*
X114780245Y-96961939D01*
X114775157Y-96957986D01*
X114768832Y-96956768D01*
X114747905Y-96936816D01*
X114725068Y-96919076D01*
X114721760Y-96911890D01*
X114718262Y-96908555D01*
X114709458Y-96885164D01*
X114705143Y-96875790D01*
X114704534Y-96873282D01*
X114692619Y-96813380D01*
X114686292Y-96798105D01*
X114684027Y-96788771D01*
X114685249Y-96763084D01*
X114682500Y-96737514D01*
X114686882Y-96728758D01*
X114687348Y-96718980D01*
X114702263Y-96698031D01*
X114713775Y-96675035D01*
X114722194Y-96670039D01*
X114727873Y-96662064D01*
X114751746Y-96652504D01*
X114773863Y-96639382D01*
X114783647Y-96639731D01*
X114792736Y-96636092D01*
X114817988Y-96640957D01*
X114843688Y-96641875D01*
X114851976Y-96644966D01*
X114858380Y-96647619D01*
X114858384Y-96647619D01*
X114858385Y-96647620D01*
X114998542Y-96675500D01*
X114998545Y-96675500D01*
X115141457Y-96675500D01*
X115250099Y-96653889D01*
X115281620Y-96647619D01*
X115413653Y-96592929D01*
X115532479Y-96513532D01*
X115633532Y-96412479D01*
X115712929Y-96293653D01*
X115767619Y-96161620D01*
X115785326Y-96072602D01*
X115795500Y-96021457D01*
X115795500Y-95878542D01*
X115767620Y-95738385D01*
X115767619Y-95738384D01*
X115767619Y-95738380D01*
X115720865Y-95625505D01*
X115712930Y-95606349D01*
X115712925Y-95606340D01*
X115633532Y-95487521D01*
X115633529Y-95487517D01*
X115532482Y-95386470D01*
X115532478Y-95386467D01*
X115413659Y-95307074D01*
X115413650Y-95307069D01*
X115281620Y-95252381D01*
X115281614Y-95252379D01*
X115141457Y-95224500D01*
X115141455Y-95224500D01*
X114998545Y-95224500D01*
X114998543Y-95224500D01*
X114858385Y-95252379D01*
X114858379Y-95252381D01*
X114726349Y-95307069D01*
X114726340Y-95307074D01*
X114607521Y-95386467D01*
X114607517Y-95386470D01*
X114506470Y-95487517D01*
X114506467Y-95487521D01*
X114427074Y-95606340D01*
X114427069Y-95606349D01*
X114372381Y-95738379D01*
X114372379Y-95738385D01*
X114344500Y-95878542D01*
X114344500Y-95878545D01*
X114344500Y-96021455D01*
X114344500Y-96021457D01*
X114344499Y-96021457D01*
X114372379Y-96161614D01*
X114372381Y-96161619D01*
X114375032Y-96168020D01*
X114382498Y-96237490D01*
X114351221Y-96299968D01*
X114291131Y-96335618D01*
X114221306Y-96333122D01*
X114213020Y-96330032D01*
X114206620Y-96327381D01*
X114206618Y-96327380D01*
X114206614Y-96327379D01*
X114066457Y-96299500D01*
X114066455Y-96299500D01*
X113923545Y-96299500D01*
X113923543Y-96299500D01*
X113783385Y-96327379D01*
X113783379Y-96327381D01*
X113651349Y-96382069D01*
X113651340Y-96382074D01*
X113532521Y-96461467D01*
X113532517Y-96461470D01*
X113431470Y-96562517D01*
X113431467Y-96562521D01*
X113352074Y-96681340D01*
X113352069Y-96681349D01*
X113297381Y-96813379D01*
X113297379Y-96813385D01*
X113269500Y-96953542D01*
X113269500Y-96953545D01*
X113269500Y-97096455D01*
X113269500Y-97096457D01*
X113269499Y-97096457D01*
X100150500Y-97096457D01*
X100150499Y-96302128D01*
X100144091Y-96242517D01*
X100116305Y-96168020D01*
X100093797Y-96107671D01*
X100093793Y-96107664D01*
X100007547Y-95992455D01*
X100007544Y-95992452D01*
X99892335Y-95906206D01*
X99892328Y-95906202D01*
X99757482Y-95855908D01*
X99757483Y-95855908D01*
X99697883Y-95849501D01*
X99697881Y-95849500D01*
X99697873Y-95849500D01*
X99697864Y-95849500D01*
X98302129Y-95849500D01*
X98302123Y-95849501D01*
X98242515Y-95855909D01*
X98234971Y-95857692D01*
X98234507Y-95855728D01*
X98175313Y-95859951D01*
X98113996Y-95826455D01*
X98091209Y-95795084D01*
X98068636Y-95750781D01*
X98052082Y-95727997D01*
X97958444Y-95599115D01*
X97825885Y-95466556D01*
X97734715Y-95400317D01*
X97692050Y-95344988D01*
X97686071Y-95275375D01*
X97718677Y-95213580D01*
X97734716Y-95199682D01*
X97825885Y-95133444D01*
X97958444Y-95000885D01*
X98068635Y-94849220D01*
X98153743Y-94682185D01*
X98160276Y-94662077D01*
X98199711Y-94604405D01*
X98264069Y-94577206D01*
X98332915Y-94589119D01*
X98351093Y-94600080D01*
X98376036Y-94618202D01*
X98376040Y-94618205D01*
X98543002Y-94703276D01*
X98721229Y-94761186D01*
X98906301Y-94790500D01*
X99093699Y-94790500D01*
X99278770Y-94761186D01*
X99457000Y-94703276D01*
X99623950Y-94618211D01*
X99623964Y-94618203D01*
X99647527Y-94601081D01*
X99647528Y-94601080D01*
X99068172Y-94021725D01*
X99164044Y-93996037D01*
X99260956Y-93940084D01*
X99340084Y-93860956D01*
X99396037Y-93764044D01*
X99421725Y-93668173D01*
X100001080Y-94247528D01*
X100001081Y-94247527D01*
X100018203Y-94223964D01*
X100018211Y-94223950D01*
X100103276Y-94057000D01*
X100161186Y-93878770D01*
X100190500Y-93693699D01*
X100190500Y-93621457D01*
X116304499Y-93621457D01*
X116332379Y-93761614D01*
X116332381Y-93761620D01*
X116387069Y-93893650D01*
X116387074Y-93893659D01*
X116466467Y-94012478D01*
X116466470Y-94012482D01*
X116567517Y-94113529D01*
X116567521Y-94113532D01*
X116686340Y-94192925D01*
X116686346Y-94192928D01*
X116686347Y-94192929D01*
X116818380Y-94247619D01*
X116818384Y-94247619D01*
X116818385Y-94247620D01*
X116958542Y-94275500D01*
X116958545Y-94275500D01*
X117101457Y-94275500D01*
X117195751Y-94256742D01*
X117241620Y-94247619D01*
X117373653Y-94192929D01*
X117461176Y-94134448D01*
X127899500Y-94134448D01*
X127899500Y-94315551D01*
X127927829Y-94494410D01*
X127983787Y-94666636D01*
X127983788Y-94666639D01*
X128066006Y-94827997D01*
X128172441Y-94974494D01*
X128172445Y-94974499D01*
X128300500Y-95102554D01*
X128300505Y-95102558D01*
X128434185Y-95199682D01*
X128476851Y-95255012D01*
X128482830Y-95324625D01*
X128450225Y-95386420D01*
X128434185Y-95400318D01*
X128300505Y-95497441D01*
X128300500Y-95497445D01*
X128172445Y-95625500D01*
X128172441Y-95625505D01*
X128066006Y-95772002D01*
X127983788Y-95933360D01*
X127983787Y-95933363D01*
X127927829Y-96105589D01*
X127899500Y-96284448D01*
X127899500Y-96465551D01*
X127927829Y-96644410D01*
X127983787Y-96816636D01*
X127983788Y-96816639D01*
X128013928Y-96875790D01*
X128061924Y-96969987D01*
X128066006Y-96977997D01*
X128172441Y-97124494D01*
X128172445Y-97124499D01*
X128300500Y-97252554D01*
X128300505Y-97252558D01*
X128415832Y-97336347D01*
X128447006Y-97358996D01*
X128552484Y-97412740D01*
X128608360Y-97441211D01*
X128608363Y-97441212D01*
X128686732Y-97466675D01*
X128780591Y-97497171D01*
X128863429Y-97510291D01*
X128959449Y-97525500D01*
X128959454Y-97525500D01*
X129140551Y-97525500D01*
X129227259Y-97511765D01*
X129319409Y-97497171D01*
X129491639Y-97441211D01*
X129652994Y-97358996D01*
X129720361Y-97310050D01*
X129786167Y-97286570D01*
X129854221Y-97302395D01*
X129902916Y-97352500D01*
X129911178Y-97372050D01*
X129933787Y-97441636D01*
X129933788Y-97441639D01*
X129982212Y-97536674D01*
X130008635Y-97588532D01*
X130016006Y-97602997D01*
X130122441Y-97749494D01*
X130122445Y-97749499D01*
X130250500Y-97877554D01*
X130250505Y-97877558D01*
X130378287Y-97970396D01*
X130397006Y-97983996D01*
X130474831Y-98023650D01*
X130558360Y-98066211D01*
X130558363Y-98066212D01*
X130580074Y-98073266D01*
X130730591Y-98122171D01*
X130813429Y-98135291D01*
X130909449Y-98150500D01*
X130909454Y-98150500D01*
X131090551Y-98150500D01*
X131177259Y-98136765D01*
X131269409Y-98122171D01*
X131441639Y-98066211D01*
X131602994Y-97983996D01*
X131749501Y-97877553D01*
X131877553Y-97749501D01*
X131983996Y-97602994D01*
X132066211Y-97441639D01*
X132122171Y-97269409D01*
X132140943Y-97150886D01*
X132150500Y-97090551D01*
X132150500Y-96909448D01*
X132123267Y-96737514D01*
X132122171Y-96730591D01*
X132077443Y-96592929D01*
X132066212Y-96558363D01*
X132066211Y-96558360D01*
X132020543Y-96468734D01*
X131983996Y-96397006D01*
X131933411Y-96327381D01*
X131877558Y-96250505D01*
X131877554Y-96250500D01*
X131749499Y-96122445D01*
X131749494Y-96122441D01*
X131602997Y-96016006D01*
X131602996Y-96016005D01*
X131602994Y-96016004D01*
X131551300Y-95989664D01*
X131441639Y-95933788D01*
X131441636Y-95933787D01*
X131269410Y-95877829D01*
X131090551Y-95849500D01*
X131090546Y-95849500D01*
X130909454Y-95849500D01*
X130909449Y-95849500D01*
X130730589Y-95877829D01*
X130558363Y-95933787D01*
X130558360Y-95933788D01*
X130397003Y-96016005D01*
X130329636Y-96064949D01*
X130263829Y-96088428D01*
X130195775Y-96072602D01*
X130147081Y-96022495D01*
X130138821Y-96002947D01*
X130116213Y-95933366D01*
X130116211Y-95933360D01*
X130061739Y-95826455D01*
X130033996Y-95772006D01*
X130018575Y-95750781D01*
X129927558Y-95625505D01*
X129927554Y-95625500D01*
X129799501Y-95497447D01*
X129785833Y-95487517D01*
X129665812Y-95400317D01*
X129623148Y-95344989D01*
X129617169Y-95275376D01*
X129649774Y-95213580D01*
X129665808Y-95199685D01*
X129799501Y-95102553D01*
X129927553Y-94974501D01*
X130033996Y-94827994D01*
X130053014Y-94790666D01*
X130100986Y-94739873D01*
X130168806Y-94723077D01*
X130206829Y-94730780D01*
X130242517Y-94744091D01*
X130302127Y-94750500D01*
X131697872Y-94750499D01*
X131757483Y-94744091D01*
X131892331Y-94693796D01*
X132007546Y-94607546D01*
X132093796Y-94492331D01*
X132144091Y-94357483D01*
X132150500Y-94297873D01*
X132150499Y-92902128D01*
X132144091Y-92842517D01*
X132142450Y-92838118D01*
X132093797Y-92707671D01*
X132093793Y-92707664D01*
X132007547Y-92592455D01*
X132007544Y-92592452D01*
X131892335Y-92506206D01*
X131892328Y-92506202D01*
X131757482Y-92455908D01*
X131757483Y-92455908D01*
X131697883Y-92449501D01*
X131697881Y-92449500D01*
X131697873Y-92449500D01*
X131697864Y-92449500D01*
X130302129Y-92449500D01*
X130302123Y-92449501D01*
X130242516Y-92455908D01*
X130107671Y-92506202D01*
X130107664Y-92506206D01*
X129992455Y-92592452D01*
X129992452Y-92592455D01*
X129906206Y-92707664D01*
X129906202Y-92707671D01*
X129855908Y-92842517D01*
X129849501Y-92902116D01*
X129849501Y-92902123D01*
X129849500Y-92902135D01*
X129849500Y-93140409D01*
X129829815Y-93207448D01*
X129777011Y-93253203D01*
X129707853Y-93263147D01*
X129657629Y-93242767D01*
X129657150Y-93243550D01*
X129653002Y-93241008D01*
X129491639Y-93158788D01*
X129491636Y-93158787D01*
X129319410Y-93102829D01*
X129140551Y-93074500D01*
X129140546Y-93074500D01*
X128959454Y-93074500D01*
X128959449Y-93074500D01*
X128780589Y-93102829D01*
X128608363Y-93158787D01*
X128608360Y-93158788D01*
X128447002Y-93241006D01*
X128300505Y-93347441D01*
X128300500Y-93347445D01*
X128172445Y-93475500D01*
X128172441Y-93475505D01*
X128066006Y-93622002D01*
X127983788Y-93783360D01*
X127983787Y-93783363D01*
X127927829Y-93955589D01*
X127899500Y-94134448D01*
X117461176Y-94134448D01*
X117492479Y-94113532D01*
X117492482Y-94113529D01*
X117564111Y-94041901D01*
X117593529Y-94012482D01*
X117593532Y-94012479D01*
X117672929Y-93893653D01*
X117727619Y-93761620D01*
X117748638Y-93655952D01*
X117755500Y-93621457D01*
X117755500Y-93478542D01*
X117727620Y-93338385D01*
X117727619Y-93338384D01*
X117727619Y-93338380D01*
X117717050Y-93312865D01*
X117709582Y-93243400D01*
X117740856Y-93180920D01*
X117784160Y-93150854D01*
X117803110Y-93143005D01*
X117863653Y-93117927D01*
X117982479Y-93038530D01*
X118083532Y-92937477D01*
X118162929Y-92818651D01*
X118217619Y-92686618D01*
X118235064Y-92598918D01*
X118245500Y-92546455D01*
X118245500Y-92403540D01*
X118217620Y-92263383D01*
X118217619Y-92263382D01*
X118217619Y-92263378D01*
X118162929Y-92131345D01*
X118162928Y-92131344D01*
X118162925Y-92131338D01*
X118083532Y-92012519D01*
X118083529Y-92012515D01*
X117982482Y-91911468D01*
X117982478Y-91911465D01*
X117863659Y-91832072D01*
X117863650Y-91832067D01*
X117731620Y-91777379D01*
X117731614Y-91777377D01*
X117591457Y-91749498D01*
X117591455Y-91749498D01*
X117448545Y-91749498D01*
X117448543Y-91749498D01*
X117308385Y-91777377D01*
X117308379Y-91777379D01*
X117176349Y-91832067D01*
X117176340Y-91832072D01*
X117057521Y-91911465D01*
X117057517Y-91911468D01*
X116956470Y-92012515D01*
X116956467Y-92012519D01*
X116877074Y-92131338D01*
X116877069Y-92131347D01*
X116822381Y-92263377D01*
X116822379Y-92263383D01*
X116794500Y-92403540D01*
X116794500Y-92403543D01*
X116794500Y-92546453D01*
X116794500Y-92546455D01*
X116794499Y-92546455D01*
X116822379Y-92686612D01*
X116822382Y-92686622D01*
X116832948Y-92712130D01*
X116840417Y-92781599D01*
X116809141Y-92844078D01*
X116765841Y-92874143D01*
X116686346Y-92907071D01*
X116686340Y-92907074D01*
X116567521Y-92986467D01*
X116567517Y-92986470D01*
X116466470Y-93087517D01*
X116466467Y-93087521D01*
X116387074Y-93206340D01*
X116387069Y-93206349D01*
X116332381Y-93338379D01*
X116332379Y-93338385D01*
X116304500Y-93478542D01*
X116304500Y-93478545D01*
X116304500Y-93621455D01*
X116304500Y-93621457D01*
X116304499Y-93621457D01*
X100190500Y-93621457D01*
X100190500Y-93506303D01*
X100188211Y-93491853D01*
X100188211Y-93491851D01*
X100161186Y-93321229D01*
X100103276Y-93143002D01*
X100018206Y-92976041D01*
X100001080Y-92952471D01*
X99421725Y-93531826D01*
X99396037Y-93435956D01*
X99340084Y-93339044D01*
X99260956Y-93259916D01*
X99164044Y-93203963D01*
X99068172Y-93178274D01*
X99647528Y-92598919D01*
X99647527Y-92598918D01*
X99623958Y-92581793D01*
X99456997Y-92496723D01*
X99278770Y-92438813D01*
X99093699Y-92409500D01*
X98906301Y-92409500D01*
X98721229Y-92438813D01*
X98543002Y-92496723D01*
X98376043Y-92581792D01*
X98352471Y-92598918D01*
X98931828Y-93178274D01*
X98835956Y-93203963D01*
X98739044Y-93259916D01*
X98659916Y-93339044D01*
X98603963Y-93435956D01*
X98578274Y-93531828D01*
X97998918Y-92952471D01*
X97981792Y-92976043D01*
X97896721Y-93143005D01*
X97890310Y-93162735D01*
X97850870Y-93220408D01*
X97786510Y-93247603D01*
X97717664Y-93235686D01*
X97699497Y-93224729D01*
X97690871Y-93218463D01*
X97674221Y-93206365D01*
X97507187Y-93121258D01*
X97507186Y-93121257D01*
X97507185Y-93121257D01*
X97328893Y-93063326D01*
X97328891Y-93063325D01*
X97328889Y-93063325D01*
X97143739Y-93034000D01*
X97143734Y-93034000D01*
X96956266Y-93034000D01*
X96956261Y-93034000D01*
X96771110Y-93063325D01*
X96592812Y-93121258D01*
X96425779Y-93206365D01*
X96361313Y-93253203D01*
X96274115Y-93316556D01*
X96274113Y-93316558D01*
X96274112Y-93316558D01*
X96141558Y-93449112D01*
X96141558Y-93449113D01*
X96141556Y-93449115D01*
X96110505Y-93491853D01*
X96031365Y-93600779D01*
X95946258Y-93767812D01*
X95888325Y-93946110D01*
X95859000Y-94131260D01*
X87900500Y-94131260D01*
X87900500Y-91521457D01*
X111364499Y-91521457D01*
X111392379Y-91661614D01*
X111392381Y-91661620D01*
X111447069Y-91793650D01*
X111447074Y-91793659D01*
X111526467Y-91912478D01*
X111526470Y-91912482D01*
X111627517Y-92013529D01*
X111627521Y-92013532D01*
X111746340Y-92092925D01*
X111746346Y-92092928D01*
X111746347Y-92092929D01*
X111878380Y-92147619D01*
X111878384Y-92147619D01*
X111878385Y-92147620D01*
X112018542Y-92175500D01*
X112018545Y-92175500D01*
X112161457Y-92175500D01*
X112255751Y-92156742D01*
X112301620Y-92147619D01*
X112433653Y-92092929D01*
X112552479Y-92013532D01*
X112653532Y-91912479D01*
X112732929Y-91793653D01*
X112787619Y-91661620D01*
X112802516Y-91586728D01*
X112815500Y-91521457D01*
X112815500Y-91378542D01*
X112787620Y-91238385D01*
X112787619Y-91238384D01*
X112787619Y-91238380D01*
X112769943Y-91195706D01*
X115260250Y-91195706D01*
X115288130Y-91335863D01*
X115288132Y-91335869D01*
X115342820Y-91467899D01*
X115342825Y-91467908D01*
X115422218Y-91586727D01*
X115422221Y-91586731D01*
X115523268Y-91687778D01*
X115523272Y-91687781D01*
X115642091Y-91767174D01*
X115642100Y-91767179D01*
X115666725Y-91777379D01*
X115774131Y-91821868D01*
X115774135Y-91821868D01*
X115774136Y-91821869D01*
X115914293Y-91849749D01*
X115914296Y-91849749D01*
X116057208Y-91849749D01*
X116151502Y-91830991D01*
X116197371Y-91821868D01*
X116329404Y-91767178D01*
X116448230Y-91687781D01*
X116549283Y-91586728D01*
X116628680Y-91467902D01*
X116683370Y-91335869D01*
X116711251Y-91195704D01*
X116711251Y-91052794D01*
X116711251Y-91052791D01*
X116683371Y-90912634D01*
X116683370Y-90912633D01*
X116683370Y-90912629D01*
X116628680Y-90780596D01*
X116628679Y-90780595D01*
X116628676Y-90780589D01*
X116549283Y-90661770D01*
X116549280Y-90661766D01*
X116448233Y-90560719D01*
X116448229Y-90560716D01*
X116329410Y-90481323D01*
X116329401Y-90481318D01*
X116197371Y-90426630D01*
X116197365Y-90426628D01*
X116057208Y-90398749D01*
X116057206Y-90398749D01*
X115914296Y-90398749D01*
X115914294Y-90398749D01*
X115774136Y-90426628D01*
X115774130Y-90426630D01*
X115642100Y-90481318D01*
X115642091Y-90481323D01*
X115523272Y-90560716D01*
X115523268Y-90560719D01*
X115422221Y-90661766D01*
X115422218Y-90661770D01*
X115342825Y-90780589D01*
X115342820Y-90780598D01*
X115288132Y-90912628D01*
X115288130Y-90912634D01*
X115260251Y-91052791D01*
X115260251Y-91052794D01*
X115260251Y-91195704D01*
X115260251Y-91195706D01*
X115260250Y-91195706D01*
X112769943Y-91195706D01*
X112732929Y-91106347D01*
X112732924Y-91106340D01*
X112653532Y-90987521D01*
X112653529Y-90987517D01*
X112552482Y-90886470D01*
X112552478Y-90886467D01*
X112433659Y-90807074D01*
X112433650Y-90807069D01*
X112301620Y-90752381D01*
X112301614Y-90752379D01*
X112161457Y-90724500D01*
X112161455Y-90724500D01*
X112018545Y-90724500D01*
X112018543Y-90724500D01*
X111878385Y-90752379D01*
X111878379Y-90752381D01*
X111746349Y-90807069D01*
X111746340Y-90807074D01*
X111627521Y-90886467D01*
X111627517Y-90886470D01*
X111526470Y-90987517D01*
X111526467Y-90987521D01*
X111447074Y-91106340D01*
X111447069Y-91106349D01*
X111392381Y-91238379D01*
X111392379Y-91238385D01*
X111364500Y-91378542D01*
X111364500Y-91378545D01*
X111364500Y-91521455D01*
X111364500Y-91521457D01*
X111364499Y-91521457D01*
X87900500Y-91521457D01*
X87900500Y-89161456D01*
X103869499Y-89161456D01*
X103897379Y-89301613D01*
X103897381Y-89301619D01*
X103952069Y-89433649D01*
X103952074Y-89433658D01*
X104031467Y-89552477D01*
X104031470Y-89552481D01*
X104132517Y-89653528D01*
X104132521Y-89653531D01*
X104251340Y-89732924D01*
X104251346Y-89732927D01*
X104251347Y-89732928D01*
X104383380Y-89787618D01*
X104383384Y-89787618D01*
X104383385Y-89787619D01*
X104523542Y-89815499D01*
X104523545Y-89815499D01*
X104666457Y-89815499D01*
X104760751Y-89796741D01*
X104806620Y-89787618D01*
X104938653Y-89732928D01*
X105057479Y-89653531D01*
X105158532Y-89552478D01*
X105237929Y-89433652D01*
X105292619Y-89301619D01*
X105306137Y-89233659D01*
X105320500Y-89161456D01*
X105320500Y-89018541D01*
X105309145Y-88961457D01*
X118754499Y-88961457D01*
X118782379Y-89101614D01*
X118782381Y-89101620D01*
X118837069Y-89233650D01*
X118837074Y-89233659D01*
X118916467Y-89352478D01*
X118916470Y-89352482D01*
X119017517Y-89453529D01*
X119017521Y-89453532D01*
X119136340Y-89532925D01*
X119136346Y-89532928D01*
X119136347Y-89532929D01*
X119268380Y-89587619D01*
X119268384Y-89587619D01*
X119268385Y-89587620D01*
X119408542Y-89615500D01*
X119408545Y-89615500D01*
X119551457Y-89615500D01*
X119645751Y-89596742D01*
X119691620Y-89587619D01*
X119823653Y-89532929D01*
X119942479Y-89453532D01*
X120043532Y-89352479D01*
X120122929Y-89233653D01*
X120177619Y-89101620D01*
X120205500Y-88961455D01*
X120205500Y-88818545D01*
X120205500Y-88818542D01*
X120177620Y-88678385D01*
X120177619Y-88678384D01*
X120177619Y-88678380D01*
X120122929Y-88546347D01*
X120122928Y-88546346D01*
X120122925Y-88546340D01*
X120043532Y-88427521D01*
X120043529Y-88427517D01*
X119942482Y-88326470D01*
X119942478Y-88326467D01*
X119823659Y-88247074D01*
X119823650Y-88247069D01*
X119691620Y-88192381D01*
X119691614Y-88192379D01*
X119551457Y-88164500D01*
X119551455Y-88164500D01*
X119408545Y-88164500D01*
X119408543Y-88164500D01*
X119268385Y-88192379D01*
X119268379Y-88192381D01*
X119136349Y-88247069D01*
X119136340Y-88247074D01*
X119017521Y-88326467D01*
X119017517Y-88326470D01*
X118916470Y-88427517D01*
X118916467Y-88427521D01*
X118837074Y-88546340D01*
X118837069Y-88546349D01*
X118782381Y-88678379D01*
X118782379Y-88678385D01*
X118754500Y-88818542D01*
X118754500Y-88818545D01*
X118754500Y-88961455D01*
X118754500Y-88961457D01*
X118754499Y-88961457D01*
X105309145Y-88961457D01*
X105292620Y-88878384D01*
X105292619Y-88878383D01*
X105292619Y-88878379D01*
X105237929Y-88746346D01*
X105237928Y-88746345D01*
X105237925Y-88746339D01*
X105158532Y-88627520D01*
X105158529Y-88627516D01*
X105057482Y-88526469D01*
X105057478Y-88526466D01*
X104938659Y-88447073D01*
X104938650Y-88447068D01*
X104806620Y-88392380D01*
X104806614Y-88392378D01*
X104666457Y-88364499D01*
X104666455Y-88364499D01*
X104523545Y-88364499D01*
X104523543Y-88364499D01*
X104383385Y-88392378D01*
X104383379Y-88392380D01*
X104251349Y-88447068D01*
X104251340Y-88447073D01*
X104132521Y-88526466D01*
X104132517Y-88526469D01*
X104031470Y-88627516D01*
X104031467Y-88627520D01*
X103952074Y-88746339D01*
X103952069Y-88746348D01*
X103897381Y-88878378D01*
X103897379Y-88878384D01*
X103869500Y-89018541D01*
X103869500Y-89018544D01*
X103869500Y-89161454D01*
X103869500Y-89161456D01*
X103869499Y-89161456D01*
X87900500Y-89161456D01*
X87900500Y-87071457D01*
X111774499Y-87071457D01*
X111802379Y-87211614D01*
X111802381Y-87211620D01*
X111857069Y-87343650D01*
X111857074Y-87343659D01*
X111936467Y-87462478D01*
X111936470Y-87462482D01*
X112037517Y-87563529D01*
X112037521Y-87563532D01*
X112156340Y-87642925D01*
X112156346Y-87642928D01*
X112156347Y-87642929D01*
X112288380Y-87697619D01*
X112288384Y-87697619D01*
X112288385Y-87697620D01*
X112428542Y-87725500D01*
X112428545Y-87725500D01*
X112571457Y-87725500D01*
X112665751Y-87706742D01*
X112711620Y-87697619D01*
X112843653Y-87642929D01*
X112962479Y-87563532D01*
X113024554Y-87501457D01*
X120194499Y-87501457D01*
X120222379Y-87641614D01*
X120222381Y-87641620D01*
X120277069Y-87773650D01*
X120277074Y-87773659D01*
X120356467Y-87892478D01*
X120356470Y-87892482D01*
X120457517Y-87993529D01*
X120457521Y-87993532D01*
X120576340Y-88072925D01*
X120576346Y-88072928D01*
X120576347Y-88072929D01*
X120708380Y-88127619D01*
X120708384Y-88127619D01*
X120708385Y-88127620D01*
X120848542Y-88155500D01*
X120848545Y-88155500D01*
X120991457Y-88155500D01*
X121085751Y-88136742D01*
X121131620Y-88127619D01*
X121263653Y-88072929D01*
X121382479Y-87993532D01*
X121483532Y-87892479D01*
X121562929Y-87773653D01*
X121617619Y-87641620D01*
X121645500Y-87501455D01*
X121645500Y-87358545D01*
X121645500Y-87358542D01*
X121617620Y-87218385D01*
X121617619Y-87218384D01*
X121617619Y-87218380D01*
X121562929Y-87086347D01*
X121562928Y-87086346D01*
X121562925Y-87086340D01*
X121483532Y-86967521D01*
X121483529Y-86967517D01*
X121382482Y-86866470D01*
X121382478Y-86866467D01*
X121263659Y-86787074D01*
X121263650Y-86787069D01*
X121131620Y-86732381D01*
X121131614Y-86732379D01*
X120991457Y-86704500D01*
X120991455Y-86704500D01*
X120848545Y-86704500D01*
X120848543Y-86704500D01*
X120708385Y-86732379D01*
X120708379Y-86732381D01*
X120576349Y-86787069D01*
X120576340Y-86787074D01*
X120457521Y-86866467D01*
X120457517Y-86866470D01*
X120356470Y-86967517D01*
X120356467Y-86967521D01*
X120277074Y-87086340D01*
X120277069Y-87086349D01*
X120222381Y-87218379D01*
X120222379Y-87218385D01*
X120194500Y-87358542D01*
X120194500Y-87358545D01*
X120194500Y-87501455D01*
X120194500Y-87501457D01*
X120194499Y-87501457D01*
X113024554Y-87501457D01*
X113063532Y-87462479D01*
X113142929Y-87343653D01*
X113197619Y-87211620D01*
X113206742Y-87165751D01*
X113225500Y-87071457D01*
X113225500Y-86928542D01*
X113197620Y-86788385D01*
X113197619Y-86788384D01*
X113197619Y-86788380D01*
X113142929Y-86656347D01*
X113142928Y-86656346D01*
X113142925Y-86656340D01*
X113063532Y-86537521D01*
X113063529Y-86537517D01*
X112962482Y-86436470D01*
X112962478Y-86436467D01*
X112843659Y-86357074D01*
X112843650Y-86357069D01*
X112711620Y-86302381D01*
X112711614Y-86302379D01*
X112571457Y-86274500D01*
X112571455Y-86274500D01*
X112428545Y-86274500D01*
X112428543Y-86274500D01*
X112288385Y-86302379D01*
X112288379Y-86302381D01*
X112156349Y-86357069D01*
X112156340Y-86357074D01*
X112037521Y-86436467D01*
X112037517Y-86436470D01*
X111936470Y-86537517D01*
X111936467Y-86537521D01*
X111857074Y-86656340D01*
X111857069Y-86656349D01*
X111802381Y-86788379D01*
X111802379Y-86788385D01*
X111774500Y-86928542D01*
X111774500Y-86928545D01*
X111774500Y-87071455D01*
X111774500Y-87071457D01*
X111774499Y-87071457D01*
X87900500Y-87071457D01*
X87900500Y-85346457D01*
X117029499Y-85346457D01*
X117057379Y-85486614D01*
X117057381Y-85486620D01*
X117112069Y-85618650D01*
X117112074Y-85618659D01*
X117191467Y-85737478D01*
X117191470Y-85737482D01*
X117292517Y-85838529D01*
X117292521Y-85838532D01*
X117411340Y-85917925D01*
X117411346Y-85917928D01*
X117411347Y-85917929D01*
X117543380Y-85972619D01*
X117543384Y-85972619D01*
X117543385Y-85972620D01*
X117683542Y-86000500D01*
X117683545Y-86000500D01*
X117826457Y-86000500D01*
X117920751Y-85981742D01*
X117966620Y-85972619D01*
X118098653Y-85917929D01*
X118217479Y-85838532D01*
X118318532Y-85737479D01*
X118397929Y-85618653D01*
X118452619Y-85486620D01*
X118480500Y-85346455D01*
X118480500Y-85203545D01*
X118480500Y-85203542D01*
X118452620Y-85063385D01*
X118452619Y-85063384D01*
X118452619Y-85063380D01*
X118397929Y-84931347D01*
X118397928Y-84931346D01*
X118397925Y-84931340D01*
X118318532Y-84812521D01*
X118318529Y-84812517D01*
X118217482Y-84711470D01*
X118217478Y-84711467D01*
X118098659Y-84632074D01*
X118098650Y-84632069D01*
X117966620Y-84577381D01*
X117966614Y-84577379D01*
X117826457Y-84549500D01*
X117826455Y-84549500D01*
X117683545Y-84549500D01*
X117683543Y-84549500D01*
X117543385Y-84577379D01*
X117543379Y-84577381D01*
X117411349Y-84632069D01*
X117411340Y-84632074D01*
X117292521Y-84711467D01*
X117292517Y-84711470D01*
X117191470Y-84812517D01*
X117191467Y-84812521D01*
X117112074Y-84931340D01*
X117112069Y-84931349D01*
X117057381Y-85063379D01*
X117057379Y-85063385D01*
X117029500Y-85203542D01*
X117029500Y-85203545D01*
X117029500Y-85346455D01*
X117029500Y-85346457D01*
X117029499Y-85346457D01*
X87900500Y-85346457D01*
X87900500Y-84511457D01*
X101344499Y-84511457D01*
X101372379Y-84651614D01*
X101372381Y-84651620D01*
X101427069Y-84783650D01*
X101427074Y-84783659D01*
X101506467Y-84902478D01*
X101506470Y-84902482D01*
X101607517Y-85003529D01*
X101607521Y-85003532D01*
X101726340Y-85082925D01*
X101726346Y-85082928D01*
X101726347Y-85082929D01*
X101858380Y-85137619D01*
X101858384Y-85137619D01*
X101858385Y-85137620D01*
X101998542Y-85165500D01*
X101998545Y-85165500D01*
X102141457Y-85165500D01*
X102235751Y-85146742D01*
X102281620Y-85137619D01*
X102413653Y-85082929D01*
X102532479Y-85003532D01*
X102633532Y-84902479D01*
X102712929Y-84783653D01*
X102767619Y-84651620D01*
X102795500Y-84511455D01*
X102795500Y-84368545D01*
X102795500Y-84368542D01*
X102767620Y-84228385D01*
X102767619Y-84228384D01*
X102767619Y-84228380D01*
X102712929Y-84096347D01*
X102712928Y-84096346D01*
X102712925Y-84096340D01*
X102633532Y-83977521D01*
X102633529Y-83977517D01*
X102532482Y-83876470D01*
X102532478Y-83876467D01*
X102413659Y-83797074D01*
X102413650Y-83797069D01*
X102281620Y-83742381D01*
X102281614Y-83742379D01*
X102141457Y-83714500D01*
X102141455Y-83714500D01*
X101998545Y-83714500D01*
X101998543Y-83714500D01*
X101858385Y-83742379D01*
X101858379Y-83742381D01*
X101726349Y-83797069D01*
X101726340Y-83797074D01*
X101607521Y-83876467D01*
X101607517Y-83876470D01*
X101506470Y-83977517D01*
X101506467Y-83977521D01*
X101427074Y-84096340D01*
X101427069Y-84096349D01*
X101372381Y-84228379D01*
X101372379Y-84228385D01*
X101344500Y-84368542D01*
X101344500Y-84368545D01*
X101344500Y-84511455D01*
X101344500Y-84511457D01*
X101344499Y-84511457D01*
X87900500Y-84511457D01*
X87900500Y-83051457D01*
X135574499Y-83051457D01*
X135602379Y-83191614D01*
X135602381Y-83191620D01*
X135657069Y-83323650D01*
X135657074Y-83323659D01*
X135736467Y-83442478D01*
X135736470Y-83442482D01*
X135837517Y-83543529D01*
X135837521Y-83543532D01*
X135956340Y-83622925D01*
X135956346Y-83622928D01*
X135956347Y-83622929D01*
X136088380Y-83677619D01*
X136088384Y-83677619D01*
X136088385Y-83677620D01*
X136228542Y-83705500D01*
X136228545Y-83705500D01*
X136371457Y-83705500D01*
X136465751Y-83686742D01*
X136511620Y-83677619D01*
X136643653Y-83622929D01*
X136762479Y-83543532D01*
X136863532Y-83442479D01*
X136942929Y-83323653D01*
X136997619Y-83191620D01*
X137025500Y-83051455D01*
X137025500Y-82908545D01*
X137025500Y-82908542D01*
X136997620Y-82768385D01*
X136997619Y-82768384D01*
X136997619Y-82768380D01*
X136942929Y-82636347D01*
X136942928Y-82636346D01*
X136942925Y-82636340D01*
X136863532Y-82517521D01*
X136863529Y-82517517D01*
X136762482Y-82416470D01*
X136762478Y-82416467D01*
X136643659Y-82337074D01*
X136643650Y-82337069D01*
X136511620Y-82282381D01*
X136511614Y-82282379D01*
X136371457Y-82254500D01*
X136371455Y-82254500D01*
X136228545Y-82254500D01*
X136228543Y-82254500D01*
X136088385Y-82282379D01*
X136088379Y-82282381D01*
X135956349Y-82337069D01*
X135956340Y-82337074D01*
X135837521Y-82416467D01*
X135837517Y-82416470D01*
X135736470Y-82517517D01*
X135736467Y-82517521D01*
X135657074Y-82636340D01*
X135657069Y-82636349D01*
X135602381Y-82768379D01*
X135602379Y-82768385D01*
X135574500Y-82908542D01*
X135574500Y-82908545D01*
X135574500Y-83051455D01*
X135574500Y-83051457D01*
X135574499Y-83051457D01*
X87900500Y-83051457D01*
X87900500Y-77561457D01*
X104774499Y-77561457D01*
X104802379Y-77701614D01*
X104802381Y-77701620D01*
X104857069Y-77833650D01*
X104857074Y-77833659D01*
X104936467Y-77952478D01*
X104936470Y-77952482D01*
X105037517Y-78053529D01*
X105037521Y-78053532D01*
X105156340Y-78132925D01*
X105156346Y-78132928D01*
X105156347Y-78132929D01*
X105288380Y-78187619D01*
X105288384Y-78187619D01*
X105288385Y-78187620D01*
X105428542Y-78215500D01*
X105428545Y-78215500D01*
X105571457Y-78215500D01*
X105672000Y-78195500D01*
X105711620Y-78187619D01*
X105843653Y-78132929D01*
X105962479Y-78053532D01*
X106063532Y-77952479D01*
X106142929Y-77833653D01*
X106197619Y-77701620D01*
X106225500Y-77561455D01*
X106225500Y-77541457D01*
X120204499Y-77541457D01*
X120232379Y-77681614D01*
X120232381Y-77681620D01*
X120287069Y-77813650D01*
X120287074Y-77813659D01*
X120366467Y-77932478D01*
X120366470Y-77932482D01*
X120467517Y-78033529D01*
X120467521Y-78033532D01*
X120586340Y-78112925D01*
X120586346Y-78112928D01*
X120586347Y-78112929D01*
X120718380Y-78167619D01*
X120718384Y-78167619D01*
X120718385Y-78167620D01*
X120858542Y-78195500D01*
X120858545Y-78195500D01*
X121001457Y-78195500D01*
X121095751Y-78176742D01*
X121141620Y-78167619D01*
X121273653Y-78112929D01*
X121392479Y-78033532D01*
X121493532Y-77932479D01*
X121572929Y-77813653D01*
X121627619Y-77681620D01*
X121636742Y-77635751D01*
X121651521Y-77561457D01*
X134004499Y-77561457D01*
X134032379Y-77701614D01*
X134032381Y-77701620D01*
X134087069Y-77833650D01*
X134087074Y-77833659D01*
X134166467Y-77952478D01*
X134166470Y-77952482D01*
X134267517Y-78053529D01*
X134267521Y-78053532D01*
X134386340Y-78132925D01*
X134386346Y-78132928D01*
X134386347Y-78132929D01*
X134518380Y-78187619D01*
X134518384Y-78187619D01*
X134518385Y-78187620D01*
X134658542Y-78215500D01*
X134658545Y-78215500D01*
X134801457Y-78215500D01*
X134902000Y-78195500D01*
X134941620Y-78187619D01*
X135073653Y-78132929D01*
X135192479Y-78053532D01*
X135293532Y-77952479D01*
X135372929Y-77833653D01*
X135427619Y-77701620D01*
X135455500Y-77561455D01*
X135455500Y-77418545D01*
X135455500Y-77418543D01*
X135455500Y-77418542D01*
X135427620Y-77278385D01*
X135427619Y-77278384D01*
X135427619Y-77278380D01*
X135372929Y-77146347D01*
X135372928Y-77146346D01*
X135372925Y-77146340D01*
X135293532Y-77027521D01*
X135293529Y-77027517D01*
X135192482Y-76926470D01*
X135192478Y-76926467D01*
X135073659Y-76847074D01*
X135073650Y-76847069D01*
X134941620Y-76792381D01*
X134941614Y-76792379D01*
X134801457Y-76764500D01*
X134801455Y-76764500D01*
X134658545Y-76764500D01*
X134658543Y-76764500D01*
X134518385Y-76792379D01*
X134518379Y-76792381D01*
X134386349Y-76847069D01*
X134386340Y-76847074D01*
X134267521Y-76926467D01*
X134267517Y-76926470D01*
X134166470Y-77027517D01*
X134166467Y-77027521D01*
X134087074Y-77146340D01*
X134087069Y-77146349D01*
X134032381Y-77278379D01*
X134032379Y-77278385D01*
X134004500Y-77418542D01*
X134004500Y-77418543D01*
X134004500Y-77418545D01*
X134004500Y-77561455D01*
X134004500Y-77561457D01*
X134004499Y-77561457D01*
X121651521Y-77561457D01*
X121655500Y-77541457D01*
X121655500Y-77398542D01*
X121627620Y-77258385D01*
X121627619Y-77258384D01*
X121627619Y-77258380D01*
X121572929Y-77126347D01*
X121572928Y-77126346D01*
X121572925Y-77126340D01*
X121493532Y-77007521D01*
X121493529Y-77007517D01*
X121392482Y-76906470D01*
X121392478Y-76906467D01*
X121273659Y-76827074D01*
X121273650Y-76827069D01*
X121141620Y-76772381D01*
X121141614Y-76772379D01*
X121001457Y-76744500D01*
X121001455Y-76744500D01*
X120858545Y-76744500D01*
X120858543Y-76744500D01*
X120718385Y-76772379D01*
X120718379Y-76772381D01*
X120586349Y-76827069D01*
X120586340Y-76827074D01*
X120467521Y-76906467D01*
X120467517Y-76906470D01*
X120366470Y-77007517D01*
X120366467Y-77007521D01*
X120287074Y-77126340D01*
X120287069Y-77126349D01*
X120232381Y-77258379D01*
X120232379Y-77258385D01*
X120204500Y-77398542D01*
X120204500Y-77398545D01*
X120204500Y-77541455D01*
X120204500Y-77541457D01*
X120204499Y-77541457D01*
X106225500Y-77541457D01*
X106225500Y-77418545D01*
X106225499Y-77418542D01*
X106225121Y-77416638D01*
X106225121Y-77416635D01*
X106197620Y-77278385D01*
X106197619Y-77278384D01*
X106197619Y-77278380D01*
X106142929Y-77146347D01*
X106142928Y-77146346D01*
X106142925Y-77146340D01*
X106063532Y-77027521D01*
X106063529Y-77027517D01*
X105962482Y-76926470D01*
X105962478Y-76926467D01*
X105843659Y-76847074D01*
X105843650Y-76847069D01*
X105711620Y-76792381D01*
X105711614Y-76792379D01*
X105571457Y-76764500D01*
X105571455Y-76764500D01*
X105428545Y-76764500D01*
X105428543Y-76764500D01*
X105288385Y-76792379D01*
X105288379Y-76792381D01*
X105156349Y-76847069D01*
X105156340Y-76847074D01*
X105037521Y-76926467D01*
X105037517Y-76926470D01*
X104936470Y-77027517D01*
X104936467Y-77027521D01*
X104857074Y-77146340D01*
X104857069Y-77146349D01*
X104802381Y-77278379D01*
X104802379Y-77278385D01*
X104774500Y-77418542D01*
X104774500Y-77418543D01*
X104774500Y-77418545D01*
X104774500Y-77561455D01*
X104774500Y-77561457D01*
X104774499Y-77561457D01*
X87900500Y-77561457D01*
X87900500Y-74024500D01*
X87920185Y-73957461D01*
X87972989Y-73911706D01*
X88024500Y-73900500D01*
X141475500Y-73900500D01*
X141542539Y-73920185D01*
G37*
G04 #@! TD.AperFunction*
M02*
