G04 #@! TF.GenerationSoftware,KiCad,Pcbnew,9.0.4*
G04 #@! TF.CreationDate,2025-12-23T06:35:07-05:00*
G04 #@! TF.ProjectId,main_board_peripheral_v2,6d61696e-5f62-46f6-9172-645f70657269,rev?*
G04 #@! TF.SameCoordinates,Original*
G04 #@! TF.FileFunction,Copper,L1,Top*
G04 #@! TF.FilePolarity,Positive*
%FSLAX46Y46*%
G04 Gerber Fmt 4.6, Leading zero omitted, Abs format (unit mm)*
G04 Created by KiCad (PCBNEW 9.0.4) date 2025-12-23 06:35:07*
%MOMM*%
%LPD*%
G01*
G04 APERTURE LIST*
G04 Aperture macros list*
%AMRoundRect*
0 Rectangle with rounded corners*
0 $1 Rounding radius*
0 $2 $3 $4 $5 $6 $7 $8 $9 X,Y pos of 4 corners*
0 Add a 4 corners polygon primitive as box body*
4,1,4,$2,$3,$4,$5,$6,$7,$8,$9,$2,$3,0*
0 Add four circle primitives for the rounded corners*
1,1,$1+$1,$2,$3*
1,1,$1+$1,$4,$5*
1,1,$1+$1,$6,$7*
1,1,$1+$1,$8,$9*
0 Add four rect primitives between the rounded corners*
20,1,$1+$1,$2,$3,$4,$5,0*
20,1,$1+$1,$4,$5,$6,$7,0*
20,1,$1+$1,$6,$7,$8,$9,0*
20,1,$1+$1,$8,$9,$2,$3,0*%
G04 Aperture macros list end*
G04 #@! TA.AperFunction,SMDPad,CuDef*
%ADD10R,2.800000X1.000000*%
G04 #@! TD*
G04 #@! TA.AperFunction,SMDPad,CuDef*
%ADD11RoundRect,0.135000X-0.185000X0.135000X-0.185000X-0.135000X0.185000X-0.135000X0.185000X0.135000X0*%
G04 #@! TD*
G04 #@! TA.AperFunction,ComponentPad*
%ADD12C,4.400000*%
G04 #@! TD*
G04 #@! TA.AperFunction,SMDPad,CuDef*
%ADD13R,1.200000X1.300000*%
G04 #@! TD*
G04 #@! TA.AperFunction,ComponentPad*
%ADD14R,1.300000X1.300000*%
G04 #@! TD*
G04 #@! TA.AperFunction,ComponentPad*
%ADD15C,1.381000*%
G04 #@! TD*
G04 #@! TA.AperFunction,SMDPad,CuDef*
%ADD16RoundRect,0.225000X-0.250000X0.225000X-0.250000X-0.225000X0.250000X-0.225000X0.250000X0.225000X0*%
G04 #@! TD*
G04 #@! TA.AperFunction,SMDPad,CuDef*
%ADD17RoundRect,0.135000X0.185000X-0.135000X0.185000X0.135000X-0.185000X0.135000X-0.185000X-0.135000X0*%
G04 #@! TD*
G04 #@! TA.AperFunction,SMDPad,CuDef*
%ADD18RoundRect,0.225000X-0.225000X-0.250000X0.225000X-0.250000X0.225000X0.250000X-0.225000X0.250000X0*%
G04 #@! TD*
G04 #@! TA.AperFunction,ComponentPad*
%ADD19C,1.300000*%
G04 #@! TD*
G04 #@! TA.AperFunction,ViaPad*
%ADD20C,0.450000*%
G04 #@! TD*
G04 #@! TA.AperFunction,Conductor*
%ADD21C,0.200000*%
G04 #@! TD*
G04 APERTURE END LIST*
D10*
X131400000Y-83000000D03*
X125600000Y-83000000D03*
X131400000Y-79000000D03*
X125600000Y-79000000D03*
D11*
X120900000Y-79990000D03*
X120900000Y-81010000D03*
D10*
X117400000Y-83000000D03*
X111600000Y-83000000D03*
X117400000Y-79000000D03*
X111600000Y-79000000D03*
D12*
X91000000Y-104000000D03*
X138500000Y-104000000D03*
D13*
X112830000Y-90350000D03*
X112830000Y-93550000D03*
X117030000Y-93550000D03*
X117030000Y-90350000D03*
D14*
X99000000Y-97000000D03*
D15*
X97050000Y-96375000D03*
X99000000Y-93600000D03*
X97050000Y-94225000D03*
D16*
X120900000Y-82725000D03*
X120900000Y-84275000D03*
D12*
X138500000Y-77000000D03*
D17*
X113000000Y-97010000D03*
X113000000Y-95990000D03*
D12*
X91000000Y-77000000D03*
D18*
X117225000Y-96500000D03*
X118775000Y-96500000D03*
D10*
X102000000Y-83000000D03*
X96200000Y-83000000D03*
X102000000Y-79000000D03*
X96200000Y-79000000D03*
D11*
X134750000Y-79990000D03*
X134750000Y-81010000D03*
D16*
X134750000Y-82725000D03*
X134750000Y-84275000D03*
D11*
X105500000Y-79990000D03*
X105500000Y-81010000D03*
X120900000Y-77490000D03*
X120900000Y-78510000D03*
X105500000Y-77490000D03*
X105500000Y-78510000D03*
D16*
X105500000Y-82725000D03*
X105500000Y-84275000D03*
D11*
X134750000Y-77490000D03*
X134750000Y-78510000D03*
D14*
X131000000Y-93600000D03*
D19*
X129050000Y-94225000D03*
X131000000Y-97000000D03*
X129050000Y-96375000D03*
D20*
X112090000Y-91450000D03*
X112500000Y-87000000D03*
X117030000Y-93550000D03*
X116086455Y-98873727D03*
X115436616Y-98859176D03*
X112377488Y-99318514D03*
X111882512Y-99813490D03*
X115848167Y-93036626D03*
X117450000Y-83100000D03*
X108700000Y-102350000D03*
X96660000Y-85070000D03*
X134750000Y-84275000D03*
X92170000Y-79580000D03*
X90340000Y-79800000D03*
X118780000Y-96480000D03*
X115010000Y-86050000D03*
X104595000Y-90049999D03*
X105500000Y-84275000D03*
X111190000Y-90300000D03*
X102040000Y-81480000D03*
X131480000Y-82980000D03*
X99020000Y-92380000D03*
X118375000Y-102425000D03*
X117755000Y-86825000D03*
X117050000Y-100690000D03*
X94140000Y-82110000D03*
X120900000Y-84275000D03*
X114990000Y-97680000D03*
X115620000Y-105460000D03*
X117755000Y-85275000D03*
X120930000Y-77470000D03*
X117420000Y-98838489D03*
X102070000Y-84440000D03*
X104595000Y-89089999D03*
X105500000Y-77490000D03*
X134730000Y-77490000D03*
X115985751Y-91124249D03*
X117520000Y-92474998D03*
X136300000Y-82980000D03*
X120920000Y-87430000D03*
X119480000Y-88890000D03*
X115070000Y-95950000D03*
X113995000Y-97025000D03*
D21*
X117030000Y-96305000D02*
X117225000Y-96500000D01*
X117030000Y-93550000D02*
X117030000Y-96305000D01*
X113000000Y-93720000D02*
X112830000Y-93550000D01*
X113000000Y-95990000D02*
X113000000Y-93720000D01*
X116086455Y-98873727D02*
X115962616Y-98997566D01*
X114155023Y-98431000D02*
X107462098Y-98431000D01*
X115962616Y-98997566D02*
X115962616Y-99077053D01*
X115962616Y-99077053D02*
X115654493Y-99385176D01*
X104517098Y-95486000D02*
X97890000Y-95486000D01*
X115654493Y-99385176D02*
X115109199Y-99385176D01*
X115109199Y-99385176D02*
X114155023Y-98431000D01*
X97890000Y-95486000D02*
X97050000Y-96326000D01*
X97050000Y-96326000D02*
X97050000Y-96375000D01*
X107462098Y-98431000D02*
X104517098Y-95486000D01*
X104683198Y-95085000D02*
X107628198Y-98030000D01*
X97050000Y-94225000D02*
X97910000Y-95085000D01*
X97910000Y-95085000D02*
X104683198Y-95085000D01*
X114321123Y-98030000D02*
X115211123Y-98920000D01*
X115211123Y-98920000D02*
X115375792Y-98920000D01*
X107628198Y-98030000D02*
X114321123Y-98030000D01*
X115375792Y-98920000D02*
X115436616Y-98859176D01*
X129570000Y-98350000D02*
X130920000Y-97000000D01*
X109775000Y-102353198D02*
X111396802Y-103975000D01*
X129488198Y-98350000D02*
X129570000Y-98350000D01*
X112377488Y-99318514D02*
X112200711Y-99318514D01*
X130920000Y-97000000D02*
X131000000Y-97000000D01*
X109775000Y-99896802D02*
X109775000Y-102353198D01*
X111947197Y-99065000D02*
X110606802Y-99065000D01*
X112200711Y-99318514D02*
X111947197Y-99065000D01*
X110606802Y-99065000D02*
X109775000Y-99896802D01*
X123863198Y-103975000D02*
X129488198Y-98350000D01*
X111396802Y-103975000D02*
X123863198Y-103975000D01*
X123676802Y-103525000D02*
X129050000Y-98151802D01*
X111882512Y-99813490D02*
X111882512Y-99636713D01*
X110793198Y-99515000D02*
X110225000Y-100083198D01*
X129050000Y-98151802D02*
X129050000Y-96375000D01*
X110225000Y-102166802D02*
X111583198Y-103525000D01*
X111760799Y-99515000D02*
X110793198Y-99515000D01*
X111583198Y-103525000D02*
X123676802Y-103525000D01*
X110225000Y-100083198D02*
X110225000Y-102166802D01*
X111882512Y-99636713D02*
X111760799Y-99515000D01*
X111240000Y-90350000D02*
X111190000Y-90300000D01*
X118775000Y-96500000D02*
X118775000Y-96485000D01*
X112830000Y-90350000D02*
X111240000Y-90350000D01*
X102000000Y-81520000D02*
X102040000Y-81480000D01*
X102000000Y-83000000D02*
X102000000Y-81520000D01*
X117400000Y-83000000D02*
X117400000Y-83050000D01*
X99000000Y-92400000D02*
X99020000Y-92380000D01*
X118775000Y-96485000D02*
X118780000Y-96480000D01*
X131400000Y-83000000D02*
X131460000Y-83000000D01*
X117400000Y-83050000D02*
X117450000Y-83100000D01*
X99000000Y-93600000D02*
X99000000Y-92400000D01*
X131460000Y-83000000D02*
X131480000Y-82980000D01*
X113236123Y-97010000D02*
X113000000Y-97010000D01*
X114990000Y-97680000D02*
X114860000Y-97550000D01*
X114860000Y-97550000D02*
X113776123Y-97550000D01*
X113776123Y-97550000D02*
X113236123Y-97010000D01*
X120910000Y-77490000D02*
X120930000Y-77470000D01*
X120900000Y-77490000D02*
X120910000Y-77490000D01*
X134750000Y-77490000D02*
X134730000Y-77490000D01*
X115304249Y-91124249D02*
X107470000Y-83290000D01*
X106065000Y-83290000D02*
X105500000Y-82725000D01*
X105500000Y-81010000D02*
X105500000Y-82725000D01*
X107470000Y-83290000D02*
X106065000Y-83290000D01*
X115985751Y-91124249D02*
X115304249Y-91124249D01*
X121676000Y-83501000D02*
X120900000Y-82725000D01*
X117520000Y-92474998D02*
X121676000Y-88318998D01*
X120900000Y-81010000D02*
X120900000Y-82725000D01*
X121676000Y-88318998D02*
X121676000Y-83501000D01*
X135005000Y-82980000D02*
X134750000Y-82725000D01*
X120920000Y-87450000D02*
X120920000Y-87430000D01*
X119480000Y-88890000D02*
X120920000Y-87450000D01*
X134750000Y-81010000D02*
X134750000Y-82725000D01*
X136300000Y-82980000D02*
X135005000Y-82980000D01*
X105000000Y-78510000D02*
X104510000Y-79000000D01*
X102000000Y-79000000D02*
X104510000Y-79000000D01*
X104510000Y-79000000D02*
X105500000Y-79990000D01*
X105500000Y-78510000D02*
X105000000Y-78510000D01*
X119910000Y-79000000D02*
X120900000Y-79990000D01*
X117400000Y-79000000D02*
X119900000Y-79000000D01*
X119900000Y-79000000D02*
X119910000Y-79000000D01*
X120900000Y-78510000D02*
X120390000Y-78510000D01*
X120390000Y-78510000D02*
X119900000Y-79000000D01*
X134750000Y-78510000D02*
X134250000Y-78510000D01*
X131400000Y-79000000D02*
X133760000Y-79000000D01*
X134250000Y-78510000D02*
X133760000Y-79000000D01*
X133760000Y-79000000D02*
X134750000Y-79990000D01*
X113995000Y-97025000D02*
X115070000Y-95950000D01*
M02*
