M48
; DRILL file {KiCad 9.0.3} date 2026-02-10T01:52:12-0500
; FORMAT={-:-/ absolute / metric / decimal}
; #@! TF.CreationDate,2026-02-10T01:52:12-05:00
; #@! TF.GenerationSoftware,Kicad,Pcbnew,9.0.3
; #@! TF.FileFunction,Plated,1,4,PTH
FMAT,2
METRIC
; #@! TA.AperFunction,Plated,PTH,ViaDrill
T1C0.300
; #@! TA.AperFunction,Plated,PTH,ViaDrill
T2C0.400
; #@! TA.AperFunction,Plated,PTH,ComponentDrill
T3C0.600
; #@! TA.AperFunction,Plated,PTH,ComponentDrill
T4C1.000
; #@! TA.AperFunction,Plated,PTH,ComponentDrill
T5C1.152
%
G90
G05
T1
X101.9Y-93.29
X101.92Y-91.49
X102.6Y-90.07
X102.6Y-95.3
X105.63Y-93.44
X105.73Y-95.66
X105.77Y-91.61
X106.26Y-83.37
X106.613Y-89.87
X106.75Y-94.555
X107.06Y-89.28
X107.49Y-87.08
X107.53Y-98.61
X107.95Y-80.26
X109.51Y-83.69
X109.77Y-84.77
X111.17Y-87.59
X111.73Y-85.35
X111.86Y-82.73
X114.34Y-90.47
X114.45Y-94.88
X114.501Y-101.122
X114.578Y-99.7
X114.95Y-94.25
X115.166Y-88.205
X115.239Y-89.409
X115.29Y-92.25
X115.44Y-80.79
X115.443Y-96.52
X115.55Y-85.77
X115.63Y-83.1
X115.898Y-101.198
X116.025Y-99.7
X116.033Y-98.958
X116.144Y-94.213
X116.36Y-85.87
X116.56Y-90.87
X116.6Y-89.86
X117.016Y-94.03
X117.17Y-98.781
X117.19Y-80.55
X117.32Y-83.49
X117.42Y-94.87
X117.468Y-87.014
X117.52Y-90.43
X117.604Y-91.347
X117.61Y-85.32
X117.65Y-88.51
X117.65Y-92.322
X117.849Y-93.163
X118.17Y-83.768
X118.49Y-85.07
X118.773Y-96.41
X118.96Y-82.47
X119.23Y-99.78
X119.3Y-95.1
X119.81Y-93.28
X120.0Y-97.0
X120.475Y-88.555
X120.51Y-100.05
X120.67Y-83.49
X121.27Y-95.214
X121.641Y-90.899
X121.971Y-94.386
X122.228Y-83.48
X122.34Y-91.87
X122.63Y-90.76
X123.05Y-82.64
X123.11Y-83.47
X123.391Y-90.671
X123.525Y-96.91
X123.69Y-81.66
X123.75Y-80.6
X123.94Y-89.71
X124.08Y-94.42
X124.14Y-95.46
X124.232Y-86.331
X124.37Y-92.59
X124.41Y-82.59
X124.663Y-94.43
X124.708Y-87.37
X124.8Y-91.69
X124.816Y-96.926
X125.32Y-84.48
X125.33Y-82.32
X125.343Y-89.893
X125.45Y-98.17
X125.691Y-90.959
X125.94Y-96.06
X126.27Y-90.19
X126.475Y-97.86
X126.483Y-88.72
X126.78Y-94.76
X126.92Y-86.91
X127.5Y-93.69
X127.843Y-88.195
X128.21Y-94.27
X128.245Y-96.535
X128.263Y-90.215
X128.869Y-89.332
X128.97Y-91.93
X129.275Y-95.165
X129.523Y-89.51
X130.095Y-88.511
X130.19Y-85.62
X130.96Y-82.99
X131.0Y-97.23
X131.05Y-94.99
X131.14Y-91.497
X131.29Y-95.79
X132.0Y-97.0
X132.0Y-99.0
X132.0Y-101.0
X132.163Y-92.403
X132.41Y-83.04
X132.5Y-98.0
X132.5Y-100.0
X132.705Y-92.868
X132.753Y-84.08
X133.5Y-97.0
X133.5Y-99.0
X133.5Y-101.0
X133.99Y-96.35
X134.0Y-98.0
X134.0Y-100.0
X134.523Y-84.93
X134.98Y-96.22
X135.0Y-97.0
X135.0Y-99.0
X135.0Y-101.0
X135.5Y-98.0
X135.5Y-100.0
X135.55Y-80.24
X135.56Y-81.8
X135.61Y-88.66
X135.69Y-94.13
X135.793Y-84.93
X135.942Y-91.553
X135.966Y-96.012
X136.415Y-88.6
X136.5Y-97.0
X136.5Y-99.0
X136.5Y-101.0
X136.77Y-87.06
X137.0Y-94.13
X137.0Y-96.0
X137.0Y-98.0
X137.0Y-100.0
X137.22Y-93.21
X137.255Y-83.515
X137.39Y-87.52
X138.0Y-94.2
X138.0Y-97.0
X138.0Y-99.0
X138.0Y-101.0
X138.1Y-89.992
X138.125Y-89.332
X138.125Y-95.987
X138.22Y-93.21
X138.5Y-98.0
X138.5Y-100.0
X138.54Y-83.258
X139.0Y-94.2
X139.0Y-97.0
X139.0Y-99.0
X139.0Y-101.0
X139.014Y-95.91
X139.476Y-93.441
X140.26Y-94.22
X140.575Y-86.075
X140.589Y-93.523
X141.32Y-94.14
X141.5Y-81.5
X141.5Y-90.5
X141.91Y-93.55
X142.5Y-81.5
X142.5Y-90.5
X142.6Y-94.2
X142.748Y-93.447
X145.2Y-93.6
X145.237Y-94.386
T2
X120.33Y-97.6
T3
X123.62Y-99.83
X123.62Y-100.83
T4
X93.838Y-90.128
X94.332Y-92.355
X95.956Y-88.01
X96.336Y-93.443
X96.528Y-90.7
X98.183Y-88.504
X98.473Y-92.645
X99.272Y-90.508
T5
X102.0Y-81.0
X102.0Y-100.5
X144.0Y-84.0
M30
