%TF.GenerationSoftware,KiCad,Pcbnew,9.0.3*%
%TF.CreationDate,2026-02-10T01:52:12-05:00*%
%TF.ProjectId,WSG_2.0,5753475f-322e-4302-9e6b-696361645f70,rev?*%
%TF.SameCoordinates,Original*%
%TF.FileFunction,Drillmap*%
%TF.FilePolarity,Positive*%
%FSLAX45Y45*%
G04 Gerber Fmt 4.5, Leading zero omitted, Abs format (unit mm)*
G04 Created by KiCad (PCBNEW 9.0.3) date 2026-02-10 01:52:12*
%MOMM*%
%LPD*%
G01*
G04 APERTURE LIST*
%ADD10C,0.050000*%
%ADD11C,0.200000*%
%ADD12C,0.100000*%
G04 APERTURE END LIST*
D10*
X8950000Y-10200000D02*
G75*
G02*
X8900000Y-10150000I0J50000D01*
G01*
X14550000Y-7900000D02*
X8950000Y-7900000D01*
X14600000Y-10150000D02*
X14600000Y-7950000D01*
X14600000Y-10150000D02*
G75*
G02*
X14550000Y-10200000I-50000J0D01*
G01*
X8900000Y-7950000D02*
X8900000Y-10150000D01*
X8950000Y-10200000D02*
X14550000Y-10200000D01*
X14550000Y-7900000D02*
G75*
G02*
X14600000Y-7950000I0J-50000D01*
G01*
X8900000Y-7950000D02*
G75*
G02*
X8950000Y-7900000I50000J0D01*
G01*
D11*
D12*
X14024480Y-8352980D02*
X14090520Y-8419020D01*
X14090520Y-8352980D02*
X14024480Y-8419020D01*
X14024480Y-8930980D02*
X14090520Y-8997020D01*
X14090520Y-8930980D02*
X14024480Y-8997020D01*
D11*
X9158277Y-10513984D02*
X9158277Y-10313984D01*
X9158277Y-10313984D02*
X9205896Y-10313984D01*
X9205896Y-10313984D02*
X9234467Y-10323508D01*
X9234467Y-10323508D02*
X9253515Y-10342555D01*
X9253515Y-10342555D02*
X9263039Y-10361603D01*
X9263039Y-10361603D02*
X9272563Y-10399698D01*
X9272563Y-10399698D02*
X9272563Y-10428270D01*
X9272563Y-10428270D02*
X9263039Y-10466365D01*
X9263039Y-10466365D02*
X9253515Y-10485412D01*
X9253515Y-10485412D02*
X9234467Y-10504460D01*
X9234467Y-10504460D02*
X9205896Y-10513984D01*
X9205896Y-10513984D02*
X9158277Y-10513984D01*
X9358277Y-10513984D02*
X9358277Y-10380650D01*
X9358277Y-10418746D02*
X9367801Y-10399698D01*
X9367801Y-10399698D02*
X9377324Y-10390174D01*
X9377324Y-10390174D02*
X9396372Y-10380650D01*
X9396372Y-10380650D02*
X9415420Y-10380650D01*
X9482086Y-10513984D02*
X9482086Y-10380650D01*
X9482086Y-10313984D02*
X9472563Y-10323508D01*
X9472563Y-10323508D02*
X9482086Y-10333031D01*
X9482086Y-10333031D02*
X9491610Y-10323508D01*
X9491610Y-10323508D02*
X9482086Y-10313984D01*
X9482086Y-10313984D02*
X9482086Y-10333031D01*
X9605896Y-10513984D02*
X9586848Y-10504460D01*
X9586848Y-10504460D02*
X9577324Y-10485412D01*
X9577324Y-10485412D02*
X9577324Y-10313984D01*
X9710658Y-10513984D02*
X9691610Y-10504460D01*
X9691610Y-10504460D02*
X9682086Y-10485412D01*
X9682086Y-10485412D02*
X9682086Y-10313984D01*
X9939229Y-10513984D02*
X9939229Y-10313984D01*
X9939229Y-10313984D02*
X10005896Y-10456841D01*
X10005896Y-10456841D02*
X10072563Y-10313984D01*
X10072563Y-10313984D02*
X10072563Y-10513984D01*
X10253515Y-10513984D02*
X10253515Y-10409222D01*
X10253515Y-10409222D02*
X10243991Y-10390174D01*
X10243991Y-10390174D02*
X10224944Y-10380650D01*
X10224944Y-10380650D02*
X10186848Y-10380650D01*
X10186848Y-10380650D02*
X10167801Y-10390174D01*
X10253515Y-10504460D02*
X10234467Y-10513984D01*
X10234467Y-10513984D02*
X10186848Y-10513984D01*
X10186848Y-10513984D02*
X10167801Y-10504460D01*
X10167801Y-10504460D02*
X10158277Y-10485412D01*
X10158277Y-10485412D02*
X10158277Y-10466365D01*
X10158277Y-10466365D02*
X10167801Y-10447317D01*
X10167801Y-10447317D02*
X10186848Y-10437793D01*
X10186848Y-10437793D02*
X10234467Y-10437793D01*
X10234467Y-10437793D02*
X10253515Y-10428270D01*
X10348753Y-10380650D02*
X10348753Y-10580650D01*
X10348753Y-10390174D02*
X10367801Y-10380650D01*
X10367801Y-10380650D02*
X10405896Y-10380650D01*
X10405896Y-10380650D02*
X10424944Y-10390174D01*
X10424944Y-10390174D02*
X10434467Y-10399698D01*
X10434467Y-10399698D02*
X10443991Y-10418746D01*
X10443991Y-10418746D02*
X10443991Y-10475889D01*
X10443991Y-10475889D02*
X10434467Y-10494936D01*
X10434467Y-10494936D02*
X10424944Y-10504460D01*
X10424944Y-10504460D02*
X10405896Y-10513984D01*
X10405896Y-10513984D02*
X10367801Y-10513984D01*
X10367801Y-10513984D02*
X10348753Y-10504460D01*
X10529705Y-10494936D02*
X10539229Y-10504460D01*
X10539229Y-10504460D02*
X10529705Y-10513984D01*
X10529705Y-10513984D02*
X10520182Y-10504460D01*
X10520182Y-10504460D02*
X10529705Y-10494936D01*
X10529705Y-10494936D02*
X10529705Y-10513984D01*
X10529705Y-10390174D02*
X10539229Y-10399698D01*
X10539229Y-10399698D02*
X10529705Y-10409222D01*
X10529705Y-10409222D02*
X10520182Y-10399698D01*
X10520182Y-10399698D02*
X10529705Y-10390174D01*
X10529705Y-10390174D02*
X10529705Y-10409222D01*
D12*
X8831460Y-10809480D02*
X8897500Y-10875520D01*
X8897500Y-10809480D02*
X8831460Y-10875520D01*
D11*
X9196372Y-10733984D02*
X9215420Y-10733984D01*
X9215420Y-10733984D02*
X9234467Y-10743508D01*
X9234467Y-10743508D02*
X9243991Y-10753031D01*
X9243991Y-10753031D02*
X9253515Y-10772079D01*
X9253515Y-10772079D02*
X9263039Y-10810174D01*
X9263039Y-10810174D02*
X9263039Y-10857793D01*
X9263039Y-10857793D02*
X9253515Y-10895889D01*
X9253515Y-10895889D02*
X9243991Y-10914936D01*
X9243991Y-10914936D02*
X9234467Y-10924460D01*
X9234467Y-10924460D02*
X9215420Y-10933984D01*
X9215420Y-10933984D02*
X9196372Y-10933984D01*
X9196372Y-10933984D02*
X9177324Y-10924460D01*
X9177324Y-10924460D02*
X9167801Y-10914936D01*
X9167801Y-10914936D02*
X9158277Y-10895889D01*
X9158277Y-10895889D02*
X9148753Y-10857793D01*
X9148753Y-10857793D02*
X9148753Y-10810174D01*
X9148753Y-10810174D02*
X9158277Y-10772079D01*
X9158277Y-10772079D02*
X9167801Y-10753031D01*
X9167801Y-10753031D02*
X9177324Y-10743508D01*
X9177324Y-10743508D02*
X9196372Y-10733984D01*
X9348753Y-10914936D02*
X9358277Y-10924460D01*
X9358277Y-10924460D02*
X9348753Y-10933984D01*
X9348753Y-10933984D02*
X9339229Y-10924460D01*
X9339229Y-10924460D02*
X9348753Y-10914936D01*
X9348753Y-10914936D02*
X9348753Y-10933984D01*
X9529705Y-10733984D02*
X9491610Y-10733984D01*
X9491610Y-10733984D02*
X9472563Y-10743508D01*
X9472563Y-10743508D02*
X9463039Y-10753031D01*
X9463039Y-10753031D02*
X9443991Y-10781603D01*
X9443991Y-10781603D02*
X9434467Y-10819698D01*
X9434467Y-10819698D02*
X9434467Y-10895889D01*
X9434467Y-10895889D02*
X9443991Y-10914936D01*
X9443991Y-10914936D02*
X9453515Y-10924460D01*
X9453515Y-10924460D02*
X9472563Y-10933984D01*
X9472563Y-10933984D02*
X9510658Y-10933984D01*
X9510658Y-10933984D02*
X9529705Y-10924460D01*
X9529705Y-10924460D02*
X9539229Y-10914936D01*
X9539229Y-10914936D02*
X9548753Y-10895889D01*
X9548753Y-10895889D02*
X9548753Y-10848270D01*
X9548753Y-10848270D02*
X9539229Y-10829222D01*
X9539229Y-10829222D02*
X9529705Y-10819698D01*
X9529705Y-10819698D02*
X9510658Y-10810174D01*
X9510658Y-10810174D02*
X9472563Y-10810174D01*
X9472563Y-10810174D02*
X9453515Y-10819698D01*
X9453515Y-10819698D02*
X9443991Y-10829222D01*
X9443991Y-10829222D02*
X9434467Y-10848270D01*
X9720182Y-10733984D02*
X9682086Y-10733984D01*
X9682086Y-10733984D02*
X9663039Y-10743508D01*
X9663039Y-10743508D02*
X9653515Y-10753031D01*
X9653515Y-10753031D02*
X9634467Y-10781603D01*
X9634467Y-10781603D02*
X9624944Y-10819698D01*
X9624944Y-10819698D02*
X9624944Y-10895889D01*
X9624944Y-10895889D02*
X9634467Y-10914936D01*
X9634467Y-10914936D02*
X9643991Y-10924460D01*
X9643991Y-10924460D02*
X9663039Y-10933984D01*
X9663039Y-10933984D02*
X9701134Y-10933984D01*
X9701134Y-10933984D02*
X9720182Y-10924460D01*
X9720182Y-10924460D02*
X9729705Y-10914936D01*
X9729705Y-10914936D02*
X9739229Y-10895889D01*
X9739229Y-10895889D02*
X9739229Y-10848270D01*
X9739229Y-10848270D02*
X9729705Y-10829222D01*
X9729705Y-10829222D02*
X9720182Y-10819698D01*
X9720182Y-10819698D02*
X9701134Y-10810174D01*
X9701134Y-10810174D02*
X9663039Y-10810174D01*
X9663039Y-10810174D02*
X9643991Y-10819698D01*
X9643991Y-10819698D02*
X9634467Y-10829222D01*
X9634467Y-10829222D02*
X9624944Y-10848270D01*
X9863039Y-10733984D02*
X9882086Y-10733984D01*
X9882086Y-10733984D02*
X9901134Y-10743508D01*
X9901134Y-10743508D02*
X9910658Y-10753031D01*
X9910658Y-10753031D02*
X9920182Y-10772079D01*
X9920182Y-10772079D02*
X9929705Y-10810174D01*
X9929705Y-10810174D02*
X9929705Y-10857793D01*
X9929705Y-10857793D02*
X9920182Y-10895889D01*
X9920182Y-10895889D02*
X9910658Y-10914936D01*
X9910658Y-10914936D02*
X9901134Y-10924460D01*
X9901134Y-10924460D02*
X9882086Y-10933984D01*
X9882086Y-10933984D02*
X9863039Y-10933984D01*
X9863039Y-10933984D02*
X9843991Y-10924460D01*
X9843991Y-10924460D02*
X9834467Y-10914936D01*
X9834467Y-10914936D02*
X9824944Y-10895889D01*
X9824944Y-10895889D02*
X9815420Y-10857793D01*
X9815420Y-10857793D02*
X9815420Y-10810174D01*
X9815420Y-10810174D02*
X9824944Y-10772079D01*
X9824944Y-10772079D02*
X9834467Y-10753031D01*
X9834467Y-10753031D02*
X9843991Y-10743508D01*
X9843991Y-10743508D02*
X9863039Y-10733984D01*
X10015420Y-10933984D02*
X10015420Y-10800650D01*
X10015420Y-10819698D02*
X10024944Y-10810174D01*
X10024944Y-10810174D02*
X10043991Y-10800650D01*
X10043991Y-10800650D02*
X10072563Y-10800650D01*
X10072563Y-10800650D02*
X10091610Y-10810174D01*
X10091610Y-10810174D02*
X10101134Y-10829222D01*
X10101134Y-10829222D02*
X10101134Y-10933984D01*
X10101134Y-10829222D02*
X10110658Y-10810174D01*
X10110658Y-10810174D02*
X10129705Y-10800650D01*
X10129705Y-10800650D02*
X10158277Y-10800650D01*
X10158277Y-10800650D02*
X10177325Y-10810174D01*
X10177325Y-10810174D02*
X10186848Y-10829222D01*
X10186848Y-10829222D02*
X10186848Y-10933984D01*
X10282086Y-10933984D02*
X10282086Y-10800650D01*
X10282086Y-10819698D02*
X10291610Y-10810174D01*
X10291610Y-10810174D02*
X10310658Y-10800650D01*
X10310658Y-10800650D02*
X10339229Y-10800650D01*
X10339229Y-10800650D02*
X10358277Y-10810174D01*
X10358277Y-10810174D02*
X10367801Y-10829222D01*
X10367801Y-10829222D02*
X10367801Y-10933984D01*
X10367801Y-10829222D02*
X10377325Y-10810174D01*
X10377325Y-10810174D02*
X10396372Y-10800650D01*
X10396372Y-10800650D02*
X10424944Y-10800650D01*
X10424944Y-10800650D02*
X10443991Y-10810174D01*
X10443991Y-10810174D02*
X10453515Y-10829222D01*
X10453515Y-10829222D02*
X10453515Y-10933984D01*
X10843991Y-10724460D02*
X10672563Y-10981603D01*
X11101134Y-10733984D02*
X11120182Y-10733984D01*
X11120182Y-10733984D02*
X11139229Y-10743508D01*
X11139229Y-10743508D02*
X11148753Y-10753031D01*
X11148753Y-10753031D02*
X11158277Y-10772079D01*
X11158277Y-10772079D02*
X11167801Y-10810174D01*
X11167801Y-10810174D02*
X11167801Y-10857793D01*
X11167801Y-10857793D02*
X11158277Y-10895889D01*
X11158277Y-10895889D02*
X11148753Y-10914936D01*
X11148753Y-10914936D02*
X11139229Y-10924460D01*
X11139229Y-10924460D02*
X11120182Y-10933984D01*
X11120182Y-10933984D02*
X11101134Y-10933984D01*
X11101134Y-10933984D02*
X11082087Y-10924460D01*
X11082087Y-10924460D02*
X11072563Y-10914936D01*
X11072563Y-10914936D02*
X11063039Y-10895889D01*
X11063039Y-10895889D02*
X11053515Y-10857793D01*
X11053515Y-10857793D02*
X11053515Y-10810174D01*
X11053515Y-10810174D02*
X11063039Y-10772079D01*
X11063039Y-10772079D02*
X11072563Y-10753031D01*
X11072563Y-10753031D02*
X11082087Y-10743508D01*
X11082087Y-10743508D02*
X11101134Y-10733984D01*
X11253515Y-10914936D02*
X11263039Y-10924460D01*
X11263039Y-10924460D02*
X11253515Y-10933984D01*
X11253515Y-10933984D02*
X11243991Y-10924460D01*
X11243991Y-10924460D02*
X11253515Y-10914936D01*
X11253515Y-10914936D02*
X11253515Y-10933984D01*
X11386848Y-10733984D02*
X11405896Y-10733984D01*
X11405896Y-10733984D02*
X11424944Y-10743508D01*
X11424944Y-10743508D02*
X11434467Y-10753031D01*
X11434467Y-10753031D02*
X11443991Y-10772079D01*
X11443991Y-10772079D02*
X11453515Y-10810174D01*
X11453515Y-10810174D02*
X11453515Y-10857793D01*
X11453515Y-10857793D02*
X11443991Y-10895889D01*
X11443991Y-10895889D02*
X11434467Y-10914936D01*
X11434467Y-10914936D02*
X11424944Y-10924460D01*
X11424944Y-10924460D02*
X11405896Y-10933984D01*
X11405896Y-10933984D02*
X11386848Y-10933984D01*
X11386848Y-10933984D02*
X11367801Y-10924460D01*
X11367801Y-10924460D02*
X11358277Y-10914936D01*
X11358277Y-10914936D02*
X11348753Y-10895889D01*
X11348753Y-10895889D02*
X11339229Y-10857793D01*
X11339229Y-10857793D02*
X11339229Y-10810174D01*
X11339229Y-10810174D02*
X11348753Y-10772079D01*
X11348753Y-10772079D02*
X11358277Y-10753031D01*
X11358277Y-10753031D02*
X11367801Y-10743508D01*
X11367801Y-10743508D02*
X11386848Y-10733984D01*
X11529706Y-10753031D02*
X11539229Y-10743508D01*
X11539229Y-10743508D02*
X11558277Y-10733984D01*
X11558277Y-10733984D02*
X11605896Y-10733984D01*
X11605896Y-10733984D02*
X11624944Y-10743508D01*
X11624944Y-10743508D02*
X11634467Y-10753031D01*
X11634467Y-10753031D02*
X11643991Y-10772079D01*
X11643991Y-10772079D02*
X11643991Y-10791127D01*
X11643991Y-10791127D02*
X11634467Y-10819698D01*
X11634467Y-10819698D02*
X11520182Y-10933984D01*
X11520182Y-10933984D02*
X11643991Y-10933984D01*
X11815420Y-10733984D02*
X11777325Y-10733984D01*
X11777325Y-10733984D02*
X11758277Y-10743508D01*
X11758277Y-10743508D02*
X11748753Y-10753031D01*
X11748753Y-10753031D02*
X11729706Y-10781603D01*
X11729706Y-10781603D02*
X11720182Y-10819698D01*
X11720182Y-10819698D02*
X11720182Y-10895889D01*
X11720182Y-10895889D02*
X11729706Y-10914936D01*
X11729706Y-10914936D02*
X11739229Y-10924460D01*
X11739229Y-10924460D02*
X11758277Y-10933984D01*
X11758277Y-10933984D02*
X11796372Y-10933984D01*
X11796372Y-10933984D02*
X11815420Y-10924460D01*
X11815420Y-10924460D02*
X11824944Y-10914936D01*
X11824944Y-10914936D02*
X11834467Y-10895889D01*
X11834467Y-10895889D02*
X11834467Y-10848270D01*
X11834467Y-10848270D02*
X11824944Y-10829222D01*
X11824944Y-10829222D02*
X11815420Y-10819698D01*
X11815420Y-10819698D02*
X11796372Y-10810174D01*
X11796372Y-10810174D02*
X11758277Y-10810174D01*
X11758277Y-10810174D02*
X11739229Y-10819698D01*
X11739229Y-10819698D02*
X11729706Y-10829222D01*
X11729706Y-10829222D02*
X11720182Y-10848270D01*
X11958277Y-10733984D02*
X11977325Y-10733984D01*
X11977325Y-10733984D02*
X11996372Y-10743508D01*
X11996372Y-10743508D02*
X12005896Y-10753031D01*
X12005896Y-10753031D02*
X12015420Y-10772079D01*
X12015420Y-10772079D02*
X12024944Y-10810174D01*
X12024944Y-10810174D02*
X12024944Y-10857793D01*
X12024944Y-10857793D02*
X12015420Y-10895889D01*
X12015420Y-10895889D02*
X12005896Y-10914936D01*
X12005896Y-10914936D02*
X11996372Y-10924460D01*
X11996372Y-10924460D02*
X11977325Y-10933984D01*
X11977325Y-10933984D02*
X11958277Y-10933984D01*
X11958277Y-10933984D02*
X11939229Y-10924460D01*
X11939229Y-10924460D02*
X11929706Y-10914936D01*
X11929706Y-10914936D02*
X11920182Y-10895889D01*
X11920182Y-10895889D02*
X11910658Y-10857793D01*
X11910658Y-10857793D02*
X11910658Y-10810174D01*
X11910658Y-10810174D02*
X11920182Y-10772079D01*
X11920182Y-10772079D02*
X11929706Y-10753031D01*
X11929706Y-10753031D02*
X11939229Y-10743508D01*
X11939229Y-10743508D02*
X11958277Y-10733984D01*
X12101134Y-10733984D02*
X12101134Y-10772079D01*
X12177325Y-10733984D02*
X12177325Y-10772079D01*
X12472563Y-11010174D02*
X12463039Y-11000650D01*
X12463039Y-11000650D02*
X12443991Y-10972079D01*
X12443991Y-10972079D02*
X12434468Y-10953031D01*
X12434468Y-10953031D02*
X12424944Y-10924460D01*
X12424944Y-10924460D02*
X12415420Y-10876841D01*
X12415420Y-10876841D02*
X12415420Y-10838746D01*
X12415420Y-10838746D02*
X12424944Y-10791127D01*
X12424944Y-10791127D02*
X12434468Y-10762555D01*
X12434468Y-10762555D02*
X12443991Y-10743508D01*
X12443991Y-10743508D02*
X12463039Y-10714936D01*
X12463039Y-10714936D02*
X12472563Y-10705412D01*
X12539229Y-10753031D02*
X12548753Y-10743508D01*
X12548753Y-10743508D02*
X12567801Y-10733984D01*
X12567801Y-10733984D02*
X12615420Y-10733984D01*
X12615420Y-10733984D02*
X12634468Y-10743508D01*
X12634468Y-10743508D02*
X12643991Y-10753031D01*
X12643991Y-10753031D02*
X12653515Y-10772079D01*
X12653515Y-10772079D02*
X12653515Y-10791127D01*
X12653515Y-10791127D02*
X12643991Y-10819698D01*
X12643991Y-10819698D02*
X12529706Y-10933984D01*
X12529706Y-10933984D02*
X12653515Y-10933984D01*
X12891610Y-10933984D02*
X12891610Y-10733984D01*
X12977325Y-10933984D02*
X12977325Y-10829222D01*
X12977325Y-10829222D02*
X12967801Y-10810174D01*
X12967801Y-10810174D02*
X12948753Y-10800650D01*
X12948753Y-10800650D02*
X12920182Y-10800650D01*
X12920182Y-10800650D02*
X12901134Y-10810174D01*
X12901134Y-10810174D02*
X12891610Y-10819698D01*
X13101134Y-10933984D02*
X13082087Y-10924460D01*
X13082087Y-10924460D02*
X13072563Y-10914936D01*
X13072563Y-10914936D02*
X13063039Y-10895889D01*
X13063039Y-10895889D02*
X13063039Y-10838746D01*
X13063039Y-10838746D02*
X13072563Y-10819698D01*
X13072563Y-10819698D02*
X13082087Y-10810174D01*
X13082087Y-10810174D02*
X13101134Y-10800650D01*
X13101134Y-10800650D02*
X13129706Y-10800650D01*
X13129706Y-10800650D02*
X13148753Y-10810174D01*
X13148753Y-10810174D02*
X13158277Y-10819698D01*
X13158277Y-10819698D02*
X13167801Y-10838746D01*
X13167801Y-10838746D02*
X13167801Y-10895889D01*
X13167801Y-10895889D02*
X13158277Y-10914936D01*
X13158277Y-10914936D02*
X13148753Y-10924460D01*
X13148753Y-10924460D02*
X13129706Y-10933984D01*
X13129706Y-10933984D02*
X13101134Y-10933984D01*
X13282087Y-10933984D02*
X13263039Y-10924460D01*
X13263039Y-10924460D02*
X13253515Y-10905412D01*
X13253515Y-10905412D02*
X13253515Y-10733984D01*
X13434468Y-10924460D02*
X13415420Y-10933984D01*
X13415420Y-10933984D02*
X13377325Y-10933984D01*
X13377325Y-10933984D02*
X13358277Y-10924460D01*
X13358277Y-10924460D02*
X13348753Y-10905412D01*
X13348753Y-10905412D02*
X13348753Y-10829222D01*
X13348753Y-10829222D02*
X13358277Y-10810174D01*
X13358277Y-10810174D02*
X13377325Y-10800650D01*
X13377325Y-10800650D02*
X13415420Y-10800650D01*
X13415420Y-10800650D02*
X13434468Y-10810174D01*
X13434468Y-10810174D02*
X13443991Y-10829222D01*
X13443991Y-10829222D02*
X13443991Y-10848270D01*
X13443991Y-10848270D02*
X13348753Y-10867317D01*
X13520182Y-10924460D02*
X13539230Y-10933984D01*
X13539230Y-10933984D02*
X13577325Y-10933984D01*
X13577325Y-10933984D02*
X13596372Y-10924460D01*
X13596372Y-10924460D02*
X13605896Y-10905412D01*
X13605896Y-10905412D02*
X13605896Y-10895889D01*
X13605896Y-10895889D02*
X13596372Y-10876841D01*
X13596372Y-10876841D02*
X13577325Y-10867317D01*
X13577325Y-10867317D02*
X13548753Y-10867317D01*
X13548753Y-10867317D02*
X13529706Y-10857793D01*
X13529706Y-10857793D02*
X13520182Y-10838746D01*
X13520182Y-10838746D02*
X13520182Y-10829222D01*
X13520182Y-10829222D02*
X13529706Y-10810174D01*
X13529706Y-10810174D02*
X13548753Y-10800650D01*
X13548753Y-10800650D02*
X13577325Y-10800650D01*
X13577325Y-10800650D02*
X13596372Y-10810174D01*
X13672563Y-11010174D02*
X13682087Y-11000650D01*
X13682087Y-11000650D02*
X13701134Y-10972079D01*
X13701134Y-10972079D02*
X13710658Y-10953031D01*
X13710658Y-10953031D02*
X13720182Y-10924460D01*
X13720182Y-10924460D02*
X13729706Y-10876841D01*
X13729706Y-10876841D02*
X13729706Y-10838746D01*
X13729706Y-10838746D02*
X13720182Y-10791127D01*
X13720182Y-10791127D02*
X13710658Y-10762555D01*
X13710658Y-10762555D02*
X13701134Y-10743508D01*
X13701134Y-10743508D02*
X13682087Y-10714936D01*
X13682087Y-10714936D02*
X13672563Y-10705412D01*
X14034468Y-11010174D02*
X14024944Y-11000650D01*
X14024944Y-11000650D02*
X14005896Y-10972079D01*
X14005896Y-10972079D02*
X13996372Y-10953031D01*
X13996372Y-10953031D02*
X13986849Y-10924460D01*
X13986849Y-10924460D02*
X13977325Y-10876841D01*
X13977325Y-10876841D02*
X13977325Y-10838746D01*
X13977325Y-10838746D02*
X13986849Y-10791127D01*
X13986849Y-10791127D02*
X13996372Y-10762555D01*
X13996372Y-10762555D02*
X14005896Y-10743508D01*
X14005896Y-10743508D02*
X14024944Y-10714936D01*
X14024944Y-10714936D02*
X14034468Y-10705412D01*
X14110658Y-10800650D02*
X14110658Y-10933984D01*
X14110658Y-10819698D02*
X14120182Y-10810174D01*
X14120182Y-10810174D02*
X14139230Y-10800650D01*
X14139230Y-10800650D02*
X14167801Y-10800650D01*
X14167801Y-10800650D02*
X14186849Y-10810174D01*
X14186849Y-10810174D02*
X14196372Y-10829222D01*
X14196372Y-10829222D02*
X14196372Y-10933984D01*
X14320182Y-10933984D02*
X14301134Y-10924460D01*
X14301134Y-10924460D02*
X14291611Y-10914936D01*
X14291611Y-10914936D02*
X14282087Y-10895889D01*
X14282087Y-10895889D02*
X14282087Y-10838746D01*
X14282087Y-10838746D02*
X14291611Y-10819698D01*
X14291611Y-10819698D02*
X14301134Y-10810174D01*
X14301134Y-10810174D02*
X14320182Y-10800650D01*
X14320182Y-10800650D02*
X14348753Y-10800650D01*
X14348753Y-10800650D02*
X14367801Y-10810174D01*
X14367801Y-10810174D02*
X14377325Y-10819698D01*
X14377325Y-10819698D02*
X14386849Y-10838746D01*
X14386849Y-10838746D02*
X14386849Y-10895889D01*
X14386849Y-10895889D02*
X14377325Y-10914936D01*
X14377325Y-10914936D02*
X14367801Y-10924460D01*
X14367801Y-10924460D02*
X14348753Y-10933984D01*
X14348753Y-10933984D02*
X14320182Y-10933984D01*
X14443992Y-10800650D02*
X14520182Y-10800650D01*
X14472563Y-10733984D02*
X14472563Y-10905412D01*
X14472563Y-10905412D02*
X14482087Y-10924460D01*
X14482087Y-10924460D02*
X14501134Y-10933984D01*
X14501134Y-10933984D02*
X14520182Y-10933984D01*
X14739230Y-10800650D02*
X14739230Y-11000650D01*
X14739230Y-10810174D02*
X14758277Y-10800650D01*
X14758277Y-10800650D02*
X14796373Y-10800650D01*
X14796373Y-10800650D02*
X14815420Y-10810174D01*
X14815420Y-10810174D02*
X14824944Y-10819698D01*
X14824944Y-10819698D02*
X14834468Y-10838746D01*
X14834468Y-10838746D02*
X14834468Y-10895889D01*
X14834468Y-10895889D02*
X14824944Y-10914936D01*
X14824944Y-10914936D02*
X14815420Y-10924460D01*
X14815420Y-10924460D02*
X14796373Y-10933984D01*
X14796373Y-10933984D02*
X14758277Y-10933984D01*
X14758277Y-10933984D02*
X14739230Y-10924460D01*
X14948753Y-10933984D02*
X14929706Y-10924460D01*
X14929706Y-10924460D02*
X14920182Y-10905412D01*
X14920182Y-10905412D02*
X14920182Y-10733984D01*
X15110658Y-10933984D02*
X15110658Y-10829222D01*
X15110658Y-10829222D02*
X15101134Y-10810174D01*
X15101134Y-10810174D02*
X15082087Y-10800650D01*
X15082087Y-10800650D02*
X15043992Y-10800650D01*
X15043992Y-10800650D02*
X15024944Y-10810174D01*
X15110658Y-10924460D02*
X15091611Y-10933984D01*
X15091611Y-10933984D02*
X15043992Y-10933984D01*
X15043992Y-10933984D02*
X15024944Y-10924460D01*
X15024944Y-10924460D02*
X15015420Y-10905412D01*
X15015420Y-10905412D02*
X15015420Y-10886365D01*
X15015420Y-10886365D02*
X15024944Y-10867317D01*
X15024944Y-10867317D02*
X15043992Y-10857793D01*
X15043992Y-10857793D02*
X15091611Y-10857793D01*
X15091611Y-10857793D02*
X15110658Y-10848270D01*
X15177325Y-10800650D02*
X15253515Y-10800650D01*
X15205896Y-10733984D02*
X15205896Y-10905412D01*
X15205896Y-10905412D02*
X15215420Y-10924460D01*
X15215420Y-10924460D02*
X15234468Y-10933984D01*
X15234468Y-10933984D02*
X15253515Y-10933984D01*
X15396373Y-10924460D02*
X15377325Y-10933984D01*
X15377325Y-10933984D02*
X15339230Y-10933984D01*
X15339230Y-10933984D02*
X15320182Y-10924460D01*
X15320182Y-10924460D02*
X15310658Y-10905412D01*
X15310658Y-10905412D02*
X15310658Y-10829222D01*
X15310658Y-10829222D02*
X15320182Y-10810174D01*
X15320182Y-10810174D02*
X15339230Y-10800650D01*
X15339230Y-10800650D02*
X15377325Y-10800650D01*
X15377325Y-10800650D02*
X15396373Y-10810174D01*
X15396373Y-10810174D02*
X15405896Y-10829222D01*
X15405896Y-10829222D02*
X15405896Y-10848270D01*
X15405896Y-10848270D02*
X15310658Y-10867317D01*
X15577325Y-10933984D02*
X15577325Y-10733984D01*
X15577325Y-10924460D02*
X15558277Y-10933984D01*
X15558277Y-10933984D02*
X15520182Y-10933984D01*
X15520182Y-10933984D02*
X15501134Y-10924460D01*
X15501134Y-10924460D02*
X15491611Y-10914936D01*
X15491611Y-10914936D02*
X15482087Y-10895889D01*
X15482087Y-10895889D02*
X15482087Y-10838746D01*
X15482087Y-10838746D02*
X15491611Y-10819698D01*
X15491611Y-10819698D02*
X15501134Y-10810174D01*
X15501134Y-10810174D02*
X15520182Y-10800650D01*
X15520182Y-10800650D02*
X15558277Y-10800650D01*
X15558277Y-10800650D02*
X15577325Y-10810174D01*
X15653515Y-11010174D02*
X15663039Y-11000650D01*
X15663039Y-11000650D02*
X15682087Y-10972079D01*
X15682087Y-10972079D02*
X15691611Y-10953031D01*
X15691611Y-10953031D02*
X15701134Y-10924460D01*
X15701134Y-10924460D02*
X15710658Y-10876841D01*
X15710658Y-10876841D02*
X15710658Y-10838746D01*
X15710658Y-10838746D02*
X15701134Y-10791127D01*
X15701134Y-10791127D02*
X15691611Y-10762555D01*
X15691611Y-10762555D02*
X15682087Y-10743508D01*
X15682087Y-10743508D02*
X15663039Y-10714936D01*
X15663039Y-10714936D02*
X15653515Y-10705412D01*
M02*
