M48
; DRILL file {KiCad 9.0.4} date 2025-12-19T16:33:56-0500
; FORMAT={-:-/ absolute / metric / decimal}
; #@! TF.CreationDate,2025-12-19T16:33:56-05:00
; #@! TF.GenerationSoftware,Kicad,Pcbnew,9.0.4
; #@! TF.FileFunction,Plated,1,2,PTH
FMAT,2
METRIC
; #@! TA.AperFunction,Plated,PTH,ViaDrill
T1C0.300
; #@! TA.AperFunction,Plated,PTH,ComponentDrill
T2C1.000
%
G90
G05
T1
X146.75Y-63.5
X147.0Y-65.25
X147.996Y-64.875
X148.486Y-64.121
X158.25Y-62.5
X158.5Y-66.75
X160.5Y-62.0
X160.5Y-67.0
T2
X145.45Y-55.34
X145.45Y-57.88
X145.45Y-60.42
X145.45Y-62.96
X145.45Y-65.5
X145.45Y-68.04
X145.45Y-70.58
X145.45Y-73.12
X163.23Y-55.32
X163.23Y-57.86
X163.23Y-60.4
X163.23Y-62.94
X163.23Y-65.48
X163.23Y-68.02
X163.23Y-70.56
X163.23Y-73.1
M30
