G04 #@! TF.GenerationSoftware,KiCad,Pcbnew,9.0.4*
G04 #@! TF.CreationDate,2025-12-19T23:17:47-05:00*
G04 #@! TF.ProjectId,ADS1120IPWR,41445331-3132-4304-9950-57522e6b6963,rev?*
G04 #@! TF.SameCoordinates,Original*
G04 #@! TF.FileFunction,Copper,L1,Top*
G04 #@! TF.FilePolarity,Positive*
%FSLAX46Y46*%
G04 Gerber Fmt 4.6, Leading zero omitted, Abs format (unit mm)*
G04 Created by KiCad (PCBNEW 9.0.4) date 2025-12-19 23:17:47*
%MOMM*%
%LPD*%
G01*
G04 APERTURE LIST*
G04 Aperture macros list*
%AMRoundRect*
0 Rectangle with rounded corners*
0 $1 Rounding radius*
0 $2 $3 $4 $5 $6 $7 $8 $9 X,Y pos of 4 corners*
0 Add a 4 corners polygon primitive as box body*
4,1,4,$2,$3,$4,$5,$6,$7,$8,$9,$2,$3,0*
0 Add four circle primitives for the rounded corners*
1,1,$1+$1,$2,$3*
1,1,$1+$1,$4,$5*
1,1,$1+$1,$6,$7*
1,1,$1+$1,$8,$9*
0 Add four rect primitives between the rounded corners*
20,1,$1+$1,$2,$3,$4,$5,0*
20,1,$1+$1,$4,$5,$6,$7,0*
20,1,$1+$1,$6,$7,$8,$9,0*
20,1,$1+$1,$8,$9,$2,$3,0*%
G04 Aperture macros list end*
G04 #@! TA.AperFunction,SMDPad,CuDef*
%ADD10RoundRect,0.225000X0.250000X-0.225000X0.250000X0.225000X-0.250000X0.225000X-0.250000X-0.225000X0*%
G04 #@! TD*
G04 #@! TA.AperFunction,ComponentPad*
%ADD11R,1.700000X1.700000*%
G04 #@! TD*
G04 #@! TA.AperFunction,ComponentPad*
%ADD12C,1.700000*%
G04 #@! TD*
G04 #@! TA.AperFunction,SMDPad,CuDef*
%ADD13RoundRect,0.140000X0.170000X-0.140000X0.170000X0.140000X-0.170000X0.140000X-0.170000X-0.140000X0*%
G04 #@! TD*
G04 #@! TA.AperFunction,SMDPad,CuDef*
%ADD14RoundRect,0.051250X-0.733750X-0.153750X0.733750X-0.153750X0.733750X0.153750X-0.733750X0.153750X0*%
G04 #@! TD*
G04 #@! TA.AperFunction,SMDPad,CuDef*
%ADD15RoundRect,0.140000X-0.170000X0.140000X-0.170000X-0.140000X0.170000X-0.140000X0.170000X0.140000X0*%
G04 #@! TD*
G04 #@! TA.AperFunction,SMDPad,CuDef*
%ADD16RoundRect,0.225000X-0.250000X0.225000X-0.250000X-0.225000X0.250000X-0.225000X0.250000X0.225000X0*%
G04 #@! TD*
G04 #@! TA.AperFunction,ViaPad*
%ADD17C,0.500000*%
G04 #@! TD*
G04 #@! TA.AperFunction,ViaPad*
%ADD18C,0.600000*%
G04 #@! TD*
G04 #@! TA.AperFunction,Conductor*
%ADD19C,0.200000*%
G04 #@! TD*
G04 APERTURE END LIST*
D10*
X159500000Y-63525000D03*
X159500000Y-61975000D03*
D11*
X145450000Y-55340000D03*
D12*
X145450000Y-57880000D03*
X145450000Y-60420000D03*
X145450000Y-62960000D03*
X145450000Y-65500000D03*
X145450000Y-68040000D03*
X145450000Y-70580000D03*
X145450000Y-73120000D03*
D13*
X158250000Y-66230000D03*
X158250000Y-65270000D03*
D14*
X150130000Y-62225000D03*
X150130000Y-62875000D03*
X150130000Y-63525000D03*
X150130000Y-64175000D03*
X150130000Y-64825000D03*
X150130000Y-65475000D03*
X150130000Y-66125000D03*
X150130000Y-66775000D03*
X155870000Y-66775000D03*
X155870000Y-66125000D03*
X155870000Y-65475000D03*
X155870000Y-64825000D03*
X155870000Y-64175000D03*
X155870000Y-63525000D03*
X155870000Y-62875000D03*
X155870000Y-62225000D03*
D15*
X158000000Y-63020000D03*
X158000000Y-63980000D03*
D11*
X163230000Y-73100000D03*
D12*
X163230000Y-70560000D03*
X163230000Y-68020000D03*
X163230000Y-65480000D03*
X163230000Y-62940000D03*
X163230000Y-60400000D03*
X163230000Y-57860000D03*
X163230000Y-55320000D03*
D16*
X159750000Y-65225000D03*
X159750000Y-66775000D03*
D17*
X156500000Y-72000000D03*
X150000000Y-72000000D03*
X155500000Y-54500000D03*
X149000000Y-54500000D03*
D18*
X147996062Y-64875298D03*
X160500000Y-67000000D03*
X148485987Y-64121018D03*
X147000000Y-65250000D03*
X158500000Y-66750000D03*
X158250000Y-62500000D03*
D17*
X146750000Y-63500000D03*
D18*
X160500000Y-62000000D03*
D19*
X159705000Y-65270000D02*
X159750000Y-65225000D01*
X157805000Y-64825000D02*
X155870000Y-64825000D01*
X158250000Y-65270000D02*
X159705000Y-65270000D01*
X163230000Y-65480000D02*
X160005000Y-65480000D01*
X160005000Y-65480000D02*
X159750000Y-65225000D01*
X158250000Y-65270000D02*
X157805000Y-64825000D01*
X158250000Y-66500000D02*
X158500000Y-66750000D01*
X150130000Y-64825000D02*
X148046360Y-64825000D01*
X159500000Y-61975000D02*
X160475000Y-61975000D01*
X148046360Y-64825000D02*
X147996062Y-64875298D01*
X158000000Y-63020000D02*
X158000000Y-62750000D01*
X146750000Y-65500000D02*
X147000000Y-65250000D01*
X159750000Y-66775000D02*
X160275000Y-66775000D01*
X146210000Y-62960000D02*
X146750000Y-63500000D01*
X150130000Y-64175000D02*
X148539969Y-64175000D01*
X160275000Y-66775000D02*
X160500000Y-67000000D01*
X158250000Y-66230000D02*
X158250000Y-66500000D01*
X160475000Y-61975000D02*
X160500000Y-62000000D01*
X145455000Y-65500000D02*
X146750000Y-65500000D01*
X145455000Y-62960000D02*
X146210000Y-62960000D01*
X148539969Y-64175000D02*
X148485987Y-64121018D01*
X158000000Y-62750000D02*
X158250000Y-62500000D01*
X160085000Y-62940000D02*
X159500000Y-63525000D01*
X157805000Y-64175000D02*
X155870000Y-64175000D01*
X159500000Y-63525000D02*
X158455000Y-63525000D01*
X158455000Y-63525000D02*
X158000000Y-63980000D01*
X158000000Y-63980000D02*
X157805000Y-64175000D01*
X163230000Y-62940000D02*
X160085000Y-62940000D01*
X162195000Y-73100000D02*
X163230000Y-73100000D01*
X155870000Y-66775000D02*
X162195000Y-73100000D01*
X150130000Y-60020000D02*
X145450000Y-55340000D01*
X150130000Y-62225000D02*
X150130000Y-60020000D01*
X145450000Y-73120000D02*
X150130000Y-68440000D01*
X150130000Y-68440000D02*
X150130000Y-66775000D01*
X150130000Y-62875000D02*
X149345001Y-62875000D01*
X149345001Y-62875000D02*
X148000000Y-61529999D01*
X148000000Y-61529999D02*
X148000000Y-60430000D01*
X148000000Y-60430000D02*
X145450000Y-57880000D01*
X145450000Y-60420000D02*
X148555000Y-63525000D01*
X148555000Y-63525000D02*
X150130000Y-63525000D01*
X155870000Y-66125000D02*
X156625000Y-66125000D01*
X157238000Y-66972650D02*
X160825350Y-70560000D01*
X156625000Y-66125000D02*
X157238000Y-66738000D01*
X160825350Y-70560000D02*
X163230000Y-70560000D01*
X157238000Y-66738000D02*
X157238000Y-66972650D01*
X155870000Y-62225000D02*
X162775000Y-55320000D01*
X162775000Y-55320000D02*
X163230000Y-55320000D01*
X157099000Y-61863822D02*
X161102822Y-57860000D01*
X157099000Y-62383078D02*
X157099000Y-61863822D01*
X161102822Y-57860000D02*
X163230000Y-57860000D01*
X156607078Y-62875000D02*
X157099000Y-62383078D01*
X155870000Y-62875000D02*
X156607078Y-62875000D01*
X159129922Y-60400000D02*
X157500000Y-62029922D01*
X157500000Y-62029922D02*
X157500000Y-62582450D01*
X157389000Y-62790999D02*
X156654999Y-63525000D01*
X157389000Y-62693450D02*
X157389000Y-62790999D01*
X156654999Y-63525000D02*
X155870000Y-63525000D01*
X163230000Y-60400000D02*
X159129922Y-60400000D01*
X157500000Y-62582450D02*
X157389000Y-62693450D01*
X145450000Y-70020001D02*
X149345001Y-66125000D01*
X149345001Y-66125000D02*
X150130000Y-66125000D01*
X145450000Y-70580000D02*
X145450000Y-70020001D01*
X145450000Y-68040000D02*
X148015000Y-65475000D01*
X148015000Y-65475000D02*
X150130000Y-65475000D01*
X155870000Y-65475000D02*
X156725000Y-65475000D01*
X157639000Y-66389000D02*
X157639000Y-66806550D01*
X156725000Y-65475000D02*
X157639000Y-66389000D01*
X157639000Y-66806550D02*
X158852450Y-68020000D01*
X163230000Y-68020000D02*
X158852450Y-68020000D01*
G04 #@! TA.AperFunction,Conductor*
G36*
X164756922Y-52001280D02*
G01*
X164847266Y-52011459D01*
X164874331Y-52017636D01*
X164953540Y-52045352D01*
X164978553Y-52057398D01*
X165049606Y-52102043D01*
X165071313Y-52119355D01*
X165130644Y-52178686D01*
X165147957Y-52200395D01*
X165192600Y-52271444D01*
X165204648Y-52296462D01*
X165232362Y-52375666D01*
X165238540Y-52402735D01*
X165248720Y-52493076D01*
X165249500Y-52506961D01*
X165249500Y-64126000D01*
X165229815Y-64193039D01*
X165177011Y-64238794D01*
X165125500Y-64250000D01*
X164106181Y-64250000D01*
X164039142Y-64230315D01*
X163993387Y-64177511D01*
X163983443Y-64108353D01*
X164012468Y-64044797D01*
X164033296Y-64025682D01*
X164109786Y-63970109D01*
X164109788Y-63970106D01*
X164109792Y-63970104D01*
X164260104Y-63819792D01*
X164260106Y-63819788D01*
X164260109Y-63819786D01*
X164385048Y-63647820D01*
X164385047Y-63647820D01*
X164385051Y-63647816D01*
X164481557Y-63458412D01*
X164547246Y-63256243D01*
X164580500Y-63046287D01*
X164580500Y-62833713D01*
X164547246Y-62623757D01*
X164481557Y-62421588D01*
X164385051Y-62232184D01*
X164385049Y-62232181D01*
X164385048Y-62232179D01*
X164260109Y-62060213D01*
X164109786Y-61909890D01*
X163937820Y-61784951D01*
X163937115Y-61784591D01*
X163929054Y-61780485D01*
X163878259Y-61732512D01*
X163861463Y-61664692D01*
X163883999Y-61598556D01*
X163929054Y-61559515D01*
X163937816Y-61555051D01*
X164002172Y-61508294D01*
X164109786Y-61430109D01*
X164109788Y-61430106D01*
X164109792Y-61430104D01*
X164260104Y-61279792D01*
X164260106Y-61279788D01*
X164260109Y-61279786D01*
X164385048Y-61107820D01*
X164385047Y-61107820D01*
X164385051Y-61107816D01*
X164481557Y-60918412D01*
X164547246Y-60716243D01*
X164580500Y-60506287D01*
X164580500Y-60293713D01*
X164547246Y-60083757D01*
X164481557Y-59881588D01*
X164385051Y-59692184D01*
X164385049Y-59692181D01*
X164385048Y-59692179D01*
X164260109Y-59520213D01*
X164109786Y-59369890D01*
X163937820Y-59244951D01*
X163937115Y-59244591D01*
X163929054Y-59240485D01*
X163878259Y-59192512D01*
X163861463Y-59124692D01*
X163883999Y-59058556D01*
X163929054Y-59019515D01*
X163937816Y-59015051D01*
X163959789Y-58999086D01*
X164109786Y-58890109D01*
X164109788Y-58890106D01*
X164109792Y-58890104D01*
X164260104Y-58739792D01*
X164260106Y-58739788D01*
X164260109Y-58739786D01*
X164385048Y-58567820D01*
X164385047Y-58567820D01*
X164385051Y-58567816D01*
X164481557Y-58378412D01*
X164547246Y-58176243D01*
X164580500Y-57966287D01*
X164580500Y-57753713D01*
X164547246Y-57543757D01*
X164481557Y-57341588D01*
X164385051Y-57152184D01*
X164385049Y-57152181D01*
X164385048Y-57152179D01*
X164260109Y-56980213D01*
X164109786Y-56829890D01*
X163937820Y-56704951D01*
X163937115Y-56704591D01*
X163929054Y-56700485D01*
X163878259Y-56652512D01*
X163861463Y-56584692D01*
X163883999Y-56518556D01*
X163929054Y-56479515D01*
X163937816Y-56475051D01*
X163996610Y-56432335D01*
X164109786Y-56350109D01*
X164109788Y-56350106D01*
X164109792Y-56350104D01*
X164260104Y-56199792D01*
X164260106Y-56199788D01*
X164260109Y-56199786D01*
X164385048Y-56027820D01*
X164385047Y-56027820D01*
X164385051Y-56027816D01*
X164481557Y-55838412D01*
X164547246Y-55636243D01*
X164580500Y-55426287D01*
X164580500Y-55213713D01*
X164547246Y-55003757D01*
X164481557Y-54801588D01*
X164385051Y-54612184D01*
X164385049Y-54612181D01*
X164385048Y-54612179D01*
X164260109Y-54440213D01*
X164109786Y-54289890D01*
X163937820Y-54164951D01*
X163748414Y-54068444D01*
X163748413Y-54068443D01*
X163748412Y-54068443D01*
X163546243Y-54002754D01*
X163546241Y-54002753D01*
X163546240Y-54002753D01*
X163384957Y-53977208D01*
X163336287Y-53969500D01*
X163123713Y-53969500D01*
X163075042Y-53977208D01*
X162913760Y-54002753D01*
X162711585Y-54068444D01*
X162522179Y-54164951D01*
X162350213Y-54289890D01*
X162199890Y-54440213D01*
X162074951Y-54612179D01*
X161978444Y-54801585D01*
X161912753Y-55003760D01*
X161879500Y-55213713D01*
X161879500Y-55314902D01*
X161859815Y-55381941D01*
X161843181Y-55402583D01*
X155762584Y-61483181D01*
X155701261Y-61516666D01*
X155674903Y-61519500D01*
X155093056Y-61519500D01*
X155053140Y-61524293D01*
X155004388Y-61530147D01*
X154863287Y-61585790D01*
X154742435Y-61677435D01*
X154687407Y-61750000D01*
X151312592Y-61750000D01*
X151257564Y-61677435D01*
X151136712Y-61585790D01*
X150995611Y-61530147D01*
X150950097Y-61524682D01*
X150906944Y-61519500D01*
X150906938Y-61519500D01*
X150854500Y-61519500D01*
X150787461Y-61499815D01*
X150741706Y-61447011D01*
X150730500Y-61395500D01*
X150730500Y-59940942D01*
X150730108Y-59939480D01*
X150730103Y-59939461D01*
X150708925Y-59860424D01*
X150708925Y-59860423D01*
X150689577Y-59788216D01*
X150654241Y-59727011D01*
X150610524Y-59651290D01*
X150610521Y-59651286D01*
X150610520Y-59651284D01*
X150498716Y-59539480D01*
X150498715Y-59539479D01*
X150494385Y-59535149D01*
X150494374Y-59535139D01*
X146836818Y-55877583D01*
X146803333Y-55816260D01*
X146800499Y-55789902D01*
X146800499Y-54442129D01*
X146800498Y-54442123D01*
X146800497Y-54442116D01*
X146794091Y-54382517D01*
X146759543Y-54289890D01*
X146743797Y-54247671D01*
X146743793Y-54247664D01*
X146657547Y-54132455D01*
X146657544Y-54132452D01*
X146542335Y-54046206D01*
X146542328Y-54046202D01*
X146407482Y-53995908D01*
X146407483Y-53995908D01*
X146347883Y-53989501D01*
X146347881Y-53989500D01*
X146347873Y-53989500D01*
X146347864Y-53989500D01*
X144552129Y-53989500D01*
X144552123Y-53989501D01*
X144492516Y-53995908D01*
X144357671Y-54046202D01*
X144357664Y-54046206D01*
X144242455Y-54132452D01*
X144242452Y-54132455D01*
X144156206Y-54247664D01*
X144156202Y-54247671D01*
X144105908Y-54382517D01*
X144099706Y-54440208D01*
X144099501Y-54442123D01*
X144099500Y-54442135D01*
X144099500Y-56237870D01*
X144099501Y-56237876D01*
X144105908Y-56297483D01*
X144156202Y-56432328D01*
X144156206Y-56432335D01*
X144242452Y-56547544D01*
X144242455Y-56547547D01*
X144357664Y-56633793D01*
X144357671Y-56633797D01*
X144489082Y-56682810D01*
X144545016Y-56724681D01*
X144569433Y-56790145D01*
X144554582Y-56858418D01*
X144533431Y-56886673D01*
X144419889Y-57000215D01*
X144294951Y-57172179D01*
X144198444Y-57361585D01*
X144132753Y-57563760D01*
X144099500Y-57773713D01*
X144099500Y-57986286D01*
X144132753Y-58196239D01*
X144132753Y-58196241D01*
X144132754Y-58196243D01*
X144191945Y-58378414D01*
X144198444Y-58398414D01*
X144294951Y-58587820D01*
X144419890Y-58759786D01*
X144570213Y-58910109D01*
X144742182Y-59035050D01*
X144750946Y-59039516D01*
X144801742Y-59087491D01*
X144818536Y-59155312D01*
X144795998Y-59221447D01*
X144750946Y-59260484D01*
X144742182Y-59264949D01*
X144570213Y-59389890D01*
X144419890Y-59540213D01*
X144294951Y-59712179D01*
X144198444Y-59901585D01*
X144132753Y-60103760D01*
X144099500Y-60313713D01*
X144099500Y-60526286D01*
X144132753Y-60736239D01*
X144132753Y-60736241D01*
X144132754Y-60736243D01*
X144191945Y-60918414D01*
X144198444Y-60938414D01*
X144294951Y-61127820D01*
X144419890Y-61299786D01*
X144570213Y-61450109D01*
X144742179Y-61575048D01*
X144742181Y-61575049D01*
X144742184Y-61575051D01*
X144751493Y-61579794D01*
X144802290Y-61627766D01*
X144819087Y-61695587D01*
X144796552Y-61761722D01*
X144751505Y-61800760D01*
X144742446Y-61805376D01*
X144742440Y-61805380D01*
X144688282Y-61844727D01*
X144688282Y-61844728D01*
X145320591Y-62477037D01*
X145257007Y-62494075D01*
X145142993Y-62559901D01*
X145049901Y-62652993D01*
X144984075Y-62767007D01*
X144967037Y-62830591D01*
X144334728Y-62198282D01*
X144334727Y-62198282D01*
X144295380Y-62252439D01*
X144198904Y-62441782D01*
X144133242Y-62643869D01*
X144133242Y-62643872D01*
X144100000Y-62853753D01*
X144100000Y-63066246D01*
X144133242Y-63276127D01*
X144133242Y-63276130D01*
X144198904Y-63478217D01*
X144295375Y-63667550D01*
X144334728Y-63721716D01*
X144967037Y-63089408D01*
X144984075Y-63152993D01*
X145049901Y-63267007D01*
X145142993Y-63360099D01*
X145257007Y-63425925D01*
X145320590Y-63442962D01*
X144688282Y-64075269D01*
X144691510Y-64116270D01*
X144677146Y-64184647D01*
X144628096Y-64234404D01*
X144567892Y-64250000D01*
X142874500Y-64250000D01*
X142807461Y-64230315D01*
X142761706Y-64177511D01*
X142750500Y-64126000D01*
X142750500Y-52506961D01*
X142751280Y-52493077D01*
X142751280Y-52493076D01*
X142761460Y-52402729D01*
X142767635Y-52375670D01*
X142795353Y-52296456D01*
X142807396Y-52271450D01*
X142852046Y-52200389D01*
X142869351Y-52178690D01*
X142928690Y-52119351D01*
X142950389Y-52102046D01*
X143021450Y-52057396D01*
X143046456Y-52045353D01*
X143125670Y-52017635D01*
X143152733Y-52011459D01*
X143215419Y-52004396D01*
X143243079Y-52001280D01*
X143256962Y-52000500D01*
X143315892Y-52000500D01*
X164684108Y-52000500D01*
X164743038Y-52000500D01*
X164756922Y-52001280D01*
G37*
G04 #@! TD.AperFunction*
G04 #@! TA.AperFunction,Conductor*
G36*
X147005203Y-62824884D02*
G01*
X147011681Y-62830916D01*
X148074478Y-63893713D01*
X148074480Y-63893716D01*
X148186284Y-64005520D01*
X148220395Y-64025213D01*
X148230188Y-64034080D01*
X148241810Y-64053063D01*
X148257177Y-64069178D01*
X148259703Y-64082285D01*
X148266672Y-64093667D01*
X148266186Y-64115921D01*
X148270401Y-64137785D01*
X148265439Y-64150177D01*
X148265149Y-64163520D01*
X148252708Y-64181979D01*
X148244434Y-64202650D01*
X148233560Y-64210393D01*
X148226102Y-64221461D01*
X148205656Y-64230264D01*
X148187520Y-64243180D01*
X148168063Y-64246451D01*
X148161929Y-64249093D01*
X148157112Y-64248293D01*
X148146962Y-64250000D01*
X146332108Y-64250000D01*
X146265069Y-64230315D01*
X146219314Y-64177511D01*
X146208490Y-64116271D01*
X146211716Y-64075269D01*
X145579408Y-63442962D01*
X145642993Y-63425925D01*
X145757007Y-63360099D01*
X145850099Y-63267007D01*
X145915925Y-63152993D01*
X145932962Y-63089408D01*
X146565270Y-63721717D01*
X146565270Y-63721716D01*
X146604622Y-63667554D01*
X146701095Y-63478217D01*
X146766757Y-63276130D01*
X146766757Y-63276127D01*
X146800000Y-63066246D01*
X146800000Y-62918597D01*
X146819685Y-62851558D01*
X146872489Y-62805803D01*
X146941647Y-62795859D01*
X147005203Y-62824884D01*
G37*
G04 #@! TD.AperFunction*
G04 #@! TA.AperFunction,Conductor*
G36*
X161958883Y-61004787D02*
G01*
X161974088Y-61004136D01*
X161991726Y-61014431D01*
X162011320Y-61020185D01*
X162022216Y-61032228D01*
X162034430Y-61039358D01*
X162054765Y-61068205D01*
X162074947Y-61107814D01*
X162074948Y-61107815D01*
X162199890Y-61279786D01*
X162350213Y-61430109D01*
X162522182Y-61555050D01*
X162530946Y-61559516D01*
X162581742Y-61607491D01*
X162598536Y-61675312D01*
X162575998Y-61741447D01*
X162530946Y-61780484D01*
X162522182Y-61784949D01*
X162350213Y-61909890D01*
X162199890Y-62060213D01*
X162074948Y-62232184D01*
X162074947Y-62232185D01*
X162054765Y-62271795D01*
X162006791Y-62322591D01*
X161944281Y-62339500D01*
X160599000Y-62339500D01*
X160531961Y-62319815D01*
X160486206Y-62267011D01*
X160477641Y-62227641D01*
X160475000Y-62225000D01*
X159624000Y-62225000D01*
X159556961Y-62205315D01*
X159511206Y-62152511D01*
X159500000Y-62101000D01*
X159500000Y-61849000D01*
X159519685Y-61781961D01*
X159572489Y-61736206D01*
X159624000Y-61725000D01*
X160474999Y-61725000D01*
X160474999Y-61701692D01*
X160474998Y-61701677D01*
X160464855Y-61602392D01*
X160411547Y-61441518D01*
X160411542Y-61441507D01*
X160322575Y-61297271D01*
X160322572Y-61297267D01*
X160237486Y-61212181D01*
X160204001Y-61150858D01*
X160208985Y-61081166D01*
X160250857Y-61025233D01*
X160316321Y-61000816D01*
X160325167Y-61000500D01*
X161944281Y-61000500D01*
X161958883Y-61004787D01*
G37*
G04 #@! TD.AperFunction*
G04 #@! TA.AperFunction,Conductor*
G36*
X144287415Y-64575872D02*
G01*
X144334295Y-64627680D01*
X144345723Y-64696609D01*
X144322953Y-64754489D01*
X144295378Y-64792443D01*
X144198904Y-64981782D01*
X144133242Y-65183869D01*
X144133242Y-65183872D01*
X144100000Y-65393753D01*
X144100000Y-65606246D01*
X144133242Y-65816127D01*
X144133242Y-65816130D01*
X144198904Y-66018217D01*
X144295375Y-66207550D01*
X144334728Y-66261716D01*
X144967036Y-65629407D01*
X144984075Y-65692993D01*
X145049901Y-65807007D01*
X145142993Y-65900099D01*
X145257007Y-65965925D01*
X145320589Y-65982962D01*
X144688282Y-66615269D01*
X144688282Y-66615270D01*
X144742452Y-66654626D01*
X144742451Y-66654626D01*
X144751495Y-66659234D01*
X144802292Y-66707208D01*
X144819087Y-66775029D01*
X144796550Y-66841164D01*
X144751499Y-66880202D01*
X144742182Y-66884949D01*
X144570213Y-67009890D01*
X144419890Y-67160213D01*
X144294951Y-67332179D01*
X144198444Y-67521585D01*
X144132753Y-67723760D01*
X144099500Y-67933713D01*
X144099500Y-68146286D01*
X144132753Y-68356239D01*
X144198444Y-68558414D01*
X144294951Y-68747820D01*
X144419890Y-68919786D01*
X144570213Y-69070109D01*
X144742182Y-69195050D01*
X144750946Y-69199516D01*
X144801742Y-69247491D01*
X144818536Y-69315312D01*
X144795998Y-69381447D01*
X144750946Y-69420484D01*
X144742182Y-69424949D01*
X144570213Y-69549890D01*
X144419890Y-69700213D01*
X144294951Y-69872179D01*
X144198444Y-70061585D01*
X144132753Y-70263760D01*
X144099500Y-70473713D01*
X144099500Y-70686286D01*
X144129585Y-70876239D01*
X144132754Y-70896243D01*
X144191945Y-71078414D01*
X144198444Y-71098414D01*
X144294951Y-71287820D01*
X144419890Y-71459786D01*
X144570213Y-71610109D01*
X144742182Y-71735050D01*
X144750946Y-71739516D01*
X144801742Y-71787491D01*
X144818536Y-71855312D01*
X144795998Y-71921447D01*
X144750946Y-71960484D01*
X144742182Y-71964949D01*
X144570213Y-72089890D01*
X144419890Y-72240213D01*
X144294951Y-72412179D01*
X144198444Y-72601585D01*
X144132753Y-72803760D01*
X144132753Y-72803762D01*
X144099500Y-73013713D01*
X144099500Y-73226287D01*
X144132754Y-73436243D01*
X144180805Y-73584129D01*
X144198444Y-73638414D01*
X144294951Y-73827820D01*
X144419890Y-73999786D01*
X144570213Y-74150109D01*
X144742179Y-74275048D01*
X144742181Y-74275049D01*
X144742184Y-74275051D01*
X144931588Y-74371557D01*
X145133757Y-74437246D01*
X145343713Y-74470500D01*
X145343714Y-74470500D01*
X145556286Y-74470500D01*
X145556287Y-74470500D01*
X145766243Y-74437246D01*
X145968412Y-74371557D01*
X146157816Y-74275051D01*
X146271666Y-74192335D01*
X146329786Y-74150109D01*
X146329788Y-74150106D01*
X146329792Y-74150104D01*
X146480104Y-73999792D01*
X146480106Y-73999788D01*
X146480109Y-73999786D01*
X146605048Y-73827820D01*
X146605047Y-73827820D01*
X146605051Y-73827816D01*
X146701557Y-73638412D01*
X146767246Y-73436243D01*
X146800500Y-73226287D01*
X146800500Y-73013713D01*
X146767246Y-72803757D01*
X146753506Y-72761473D01*
X146751512Y-72691635D01*
X146783755Y-72635478D01*
X150488506Y-68930728D01*
X150488511Y-68930724D01*
X150498714Y-68920520D01*
X150498716Y-68920520D01*
X150610520Y-68808716D01*
X150689577Y-68671784D01*
X150725314Y-68538412D01*
X150730500Y-68519058D01*
X150730500Y-68360943D01*
X150730500Y-67604500D01*
X150750185Y-67537461D01*
X150802989Y-67491706D01*
X150854500Y-67480500D01*
X150906938Y-67480500D01*
X150906944Y-67480500D01*
X150995613Y-67469852D01*
X151136711Y-67414210D01*
X151257564Y-67322564D01*
X151312591Y-67250000D01*
X154687408Y-67250000D01*
X154742435Y-67322564D01*
X154863287Y-67414209D01*
X154863288Y-67414209D01*
X154863289Y-67414210D01*
X155004387Y-67469852D01*
X155093056Y-67480500D01*
X155674903Y-67480500D01*
X155741942Y-67500185D01*
X155762583Y-67516818D01*
X161826284Y-73580520D01*
X161826287Y-73580522D01*
X161830988Y-73584129D01*
X161872190Y-73640558D01*
X161879500Y-73682504D01*
X161879500Y-73997869D01*
X161879501Y-73997876D01*
X161885908Y-74057483D01*
X161936202Y-74192328D01*
X161936206Y-74192335D01*
X162022452Y-74307544D01*
X162022455Y-74307547D01*
X162137664Y-74393793D01*
X162137671Y-74393797D01*
X162272517Y-74444091D01*
X162272516Y-74444091D01*
X162279444Y-74444835D01*
X162332127Y-74450500D01*
X164127872Y-74450499D01*
X164187483Y-74444091D01*
X164322331Y-74393796D01*
X164437546Y-74307546D01*
X164523796Y-74192331D01*
X164574091Y-74057483D01*
X164580500Y-73997873D01*
X164580499Y-72202128D01*
X164574091Y-72142517D01*
X164554462Y-72089890D01*
X164523797Y-72007671D01*
X164523793Y-72007664D01*
X164437547Y-71892455D01*
X164437544Y-71892452D01*
X164322335Y-71806206D01*
X164322328Y-71806202D01*
X164190917Y-71757189D01*
X164134983Y-71715318D01*
X164110566Y-71649853D01*
X164125418Y-71581580D01*
X164146563Y-71553332D01*
X164260104Y-71439792D01*
X164385051Y-71267816D01*
X164481557Y-71078412D01*
X164547246Y-70876243D01*
X164580500Y-70666287D01*
X164580500Y-70453713D01*
X164547246Y-70243757D01*
X164481557Y-70041588D01*
X164385051Y-69852184D01*
X164385049Y-69852181D01*
X164385048Y-69852179D01*
X164260109Y-69680213D01*
X164109786Y-69529890D01*
X163937820Y-69404951D01*
X163937115Y-69404591D01*
X163929054Y-69400485D01*
X163878259Y-69352512D01*
X163861463Y-69284692D01*
X163883999Y-69218556D01*
X163929054Y-69179515D01*
X163937816Y-69175051D01*
X163959789Y-69159086D01*
X164109786Y-69050109D01*
X164109788Y-69050106D01*
X164109792Y-69050104D01*
X164260104Y-68899792D01*
X164260106Y-68899788D01*
X164260109Y-68899786D01*
X164385048Y-68727820D01*
X164385047Y-68727820D01*
X164385051Y-68727816D01*
X164481557Y-68538412D01*
X164547246Y-68336243D01*
X164580500Y-68126287D01*
X164580500Y-67913713D01*
X164547246Y-67703757D01*
X164481557Y-67501588D01*
X164385051Y-67312184D01*
X164385049Y-67312181D01*
X164385048Y-67312179D01*
X164260109Y-67140213D01*
X164109786Y-66989890D01*
X163937820Y-66864951D01*
X163937115Y-66864591D01*
X163929054Y-66860485D01*
X163878259Y-66812512D01*
X163861463Y-66744692D01*
X163883999Y-66678556D01*
X163929054Y-66639515D01*
X163937816Y-66635051D01*
X164010889Y-66581961D01*
X164109786Y-66510109D01*
X164109788Y-66510106D01*
X164109792Y-66510104D01*
X164260104Y-66359792D01*
X164260106Y-66359788D01*
X164260109Y-66359786D01*
X164385048Y-66187820D01*
X164385047Y-66187820D01*
X164385051Y-66187816D01*
X164481557Y-65998412D01*
X164547246Y-65796243D01*
X164580500Y-65586287D01*
X164580500Y-65373713D01*
X164547246Y-65163757D01*
X164481557Y-64961588D01*
X164481554Y-64961582D01*
X164465613Y-64930294D01*
X164452717Y-64861624D01*
X164478994Y-64796884D01*
X164536101Y-64756628D01*
X164576098Y-64750000D01*
X165125500Y-64750000D01*
X165192539Y-64769685D01*
X165238294Y-64822489D01*
X165249500Y-64874000D01*
X165249500Y-74993038D01*
X165248720Y-75006922D01*
X165248720Y-75006923D01*
X165238540Y-75097264D01*
X165232362Y-75124333D01*
X165204648Y-75203537D01*
X165192600Y-75228555D01*
X165147957Y-75299604D01*
X165130644Y-75321313D01*
X165071313Y-75380644D01*
X165049604Y-75397957D01*
X164978555Y-75442600D01*
X164953537Y-75454648D01*
X164874333Y-75482362D01*
X164847264Y-75488540D01*
X164767075Y-75497576D01*
X164756921Y-75498720D01*
X164743038Y-75499500D01*
X143256962Y-75499500D01*
X143243078Y-75498720D01*
X143230553Y-75497308D01*
X143152735Y-75488540D01*
X143125666Y-75482362D01*
X143046462Y-75454648D01*
X143021444Y-75442600D01*
X142950395Y-75397957D01*
X142928686Y-75380644D01*
X142869355Y-75321313D01*
X142852042Y-75299604D01*
X142807399Y-75228555D01*
X142795351Y-75203537D01*
X142767637Y-75124333D01*
X142761459Y-75097263D01*
X142751280Y-75006922D01*
X142750500Y-74993038D01*
X142750500Y-64710597D01*
X142770185Y-64643558D01*
X142822989Y-64597803D01*
X142871828Y-64586627D01*
X144219971Y-64557635D01*
X144287415Y-64575872D01*
G37*
G04 #@! TD.AperFunction*
G04 #@! TA.AperFunction,Conductor*
G36*
X162011320Y-66100185D02*
G01*
X162054765Y-66148205D01*
X162074947Y-66187814D01*
X162074948Y-66187815D01*
X162199890Y-66359786D01*
X162350213Y-66510109D01*
X162522182Y-66635050D01*
X162530946Y-66639516D01*
X162581742Y-66687491D01*
X162598536Y-66755312D01*
X162575998Y-66821447D01*
X162530946Y-66860484D01*
X162522182Y-66864949D01*
X162350213Y-66989890D01*
X162199890Y-67140213D01*
X162074948Y-67312184D01*
X162074947Y-67312185D01*
X162054765Y-67351795D01*
X162006791Y-67402591D01*
X161944281Y-67419500D01*
X160796480Y-67419500D01*
X160729441Y-67399815D01*
X160683686Y-67347011D01*
X160673742Y-67277853D01*
X160678774Y-67256496D01*
X160714855Y-67147607D01*
X160724999Y-67048322D01*
X160725000Y-67048309D01*
X160725000Y-67025000D01*
X159874000Y-67025000D01*
X159806961Y-67005315D01*
X159761206Y-66952511D01*
X159750000Y-66901000D01*
X159750000Y-66649000D01*
X159769685Y-66581961D01*
X159822489Y-66536206D01*
X159874000Y-66525000D01*
X160724999Y-66525000D01*
X160724999Y-66501692D01*
X160724998Y-66501677D01*
X160714855Y-66402392D01*
X160662205Y-66243504D01*
X160659803Y-66173676D01*
X160695535Y-66113634D01*
X160758055Y-66082441D01*
X160779911Y-66080500D01*
X161944281Y-66080500D01*
X162011320Y-66100185D01*
G37*
G04 #@! TD.AperFunction*
G04 #@! TA.AperFunction,Conductor*
G36*
X148720425Y-64538405D02*
G01*
X148787030Y-64559498D01*
X148810566Y-64580088D01*
X148845972Y-64620000D01*
X149000000Y-64620000D01*
X149000000Y-64874500D01*
X148101670Y-64874500D01*
X148101654Y-64874499D01*
X148094058Y-64874499D01*
X147935943Y-64874499D01*
X147795736Y-64912067D01*
X147783211Y-64915424D01*
X147646287Y-64994477D01*
X147646282Y-64994481D01*
X147011681Y-65629082D01*
X146950358Y-65662567D01*
X146880666Y-65657583D01*
X146824733Y-65615711D01*
X146800316Y-65550247D01*
X146800000Y-65541401D01*
X146800000Y-65393753D01*
X146766757Y-65183872D01*
X146766757Y-65183869D01*
X146701095Y-64981782D01*
X146604622Y-64792445D01*
X146539283Y-64702514D01*
X146515803Y-64636707D01*
X146531628Y-64568654D01*
X146581734Y-64519959D01*
X146636933Y-64505657D01*
X146897396Y-64500055D01*
X146902607Y-64500055D01*
X148720425Y-64538405D01*
G37*
G04 #@! TD.AperFunction*
G04 #@! TA.AperFunction,Conductor*
G36*
X154650790Y-61798287D02*
G01*
X154595147Y-61939388D01*
X154589293Y-61988140D01*
X154584500Y-62028056D01*
X154584500Y-62421944D01*
X154591276Y-62478369D01*
X154595148Y-62510617D01*
X154597095Y-62518317D01*
X154594068Y-62519082D01*
X154599008Y-62574170D01*
X154596822Y-62581614D01*
X154597095Y-62581683D01*
X154595148Y-62589382D01*
X154590308Y-62629691D01*
X154584500Y-62678056D01*
X154584500Y-63071944D01*
X154591276Y-63128369D01*
X154595148Y-63160617D01*
X154597095Y-63168317D01*
X154594068Y-63169082D01*
X154599008Y-63224170D01*
X154596822Y-63231614D01*
X154597095Y-63231683D01*
X154595148Y-63239382D01*
X154591289Y-63271519D01*
X154584500Y-63328056D01*
X154584500Y-63721944D01*
X154591276Y-63778369D01*
X154595148Y-63810617D01*
X154597095Y-63818317D01*
X154594068Y-63819082D01*
X154599008Y-63874170D01*
X154596822Y-63881614D01*
X154597095Y-63881683D01*
X154595148Y-63889382D01*
X154594628Y-63893716D01*
X154584500Y-63978056D01*
X154584500Y-64371944D01*
X154588684Y-64406784D01*
X154595148Y-64460617D01*
X154597095Y-64468317D01*
X154594068Y-64469082D01*
X154599008Y-64524170D01*
X154596822Y-64531614D01*
X154597095Y-64531683D01*
X154595148Y-64539382D01*
X154595134Y-64539500D01*
X154584500Y-64628056D01*
X154584500Y-65021944D01*
X154587664Y-65048289D01*
X154595148Y-65110617D01*
X154597095Y-65118317D01*
X154594068Y-65119082D01*
X154599008Y-65174170D01*
X154596822Y-65181614D01*
X154597095Y-65181683D01*
X154595148Y-65189382D01*
X154594628Y-65193716D01*
X154584500Y-65278056D01*
X154584500Y-65671944D01*
X154588684Y-65706784D01*
X154595148Y-65760617D01*
X154597095Y-65768317D01*
X154594068Y-65769082D01*
X154599008Y-65824170D01*
X154596822Y-65831614D01*
X154597095Y-65831683D01*
X154595148Y-65839382D01*
X154594628Y-65843716D01*
X154584500Y-65928056D01*
X154584500Y-66321944D01*
X154591276Y-66378369D01*
X154595148Y-66410617D01*
X154597095Y-66418317D01*
X154594068Y-66419082D01*
X154599008Y-66474170D01*
X154596822Y-66481614D01*
X154597095Y-66481683D01*
X154595148Y-66489382D01*
X154590308Y-66529691D01*
X154584500Y-66578056D01*
X154584500Y-66971944D01*
X154590092Y-67018511D01*
X154595147Y-67060611D01*
X154650790Y-67201712D01*
X154687408Y-67250000D01*
X151312591Y-67250000D01*
X151349210Y-67201711D01*
X151404852Y-67060613D01*
X151415500Y-66971944D01*
X151415500Y-66578056D01*
X151404852Y-66489387D01*
X151404849Y-66489381D01*
X151402903Y-66481675D01*
X151405948Y-66480905D01*
X151400969Y-66425944D01*
X151403185Y-66418396D01*
X151402903Y-66418325D01*
X151404850Y-66410617D01*
X151404852Y-66410613D01*
X151415500Y-66321944D01*
X151415500Y-65928056D01*
X151404852Y-65839387D01*
X151404849Y-65839381D01*
X151402903Y-65831675D01*
X151405948Y-65830905D01*
X151400969Y-65775944D01*
X151403185Y-65768396D01*
X151402903Y-65768325D01*
X151404850Y-65760617D01*
X151404852Y-65760613D01*
X151415500Y-65671944D01*
X151415500Y-65278056D01*
X151404852Y-65189387D01*
X151404851Y-65189385D01*
X151404851Y-65189382D01*
X151402905Y-65181683D01*
X151405745Y-65180965D01*
X151400702Y-65125252D01*
X151402751Y-65118286D01*
X151402414Y-65118201D01*
X151404361Y-65110494D01*
X151414028Y-65030000D01*
X151396930Y-65030000D01*
X151329891Y-65010315D01*
X151312964Y-64997245D01*
X151304816Y-64989747D01*
X151257564Y-64927436D01*
X151141265Y-64839243D01*
X151136920Y-64835245D01*
X151121835Y-64810155D01*
X151104437Y-64786611D01*
X151104042Y-64780561D01*
X151100918Y-64775365D01*
X151101792Y-64746102D01*
X151099886Y-64716890D01*
X151102824Y-64711586D01*
X151103006Y-64705526D01*
X151119562Y-64681381D01*
X151133751Y-64655776D01*
X151139090Y-64652903D01*
X151142519Y-64647903D01*
X151169497Y-64636544D01*
X151195281Y-64622672D01*
X151204804Y-64621678D01*
X151206914Y-64620790D01*
X151209310Y-64621207D01*
X151220886Y-64620000D01*
X151414027Y-64620000D01*
X151404361Y-64539500D01*
X151402414Y-64531796D01*
X151405429Y-64531033D01*
X151400426Y-64475975D01*
X151402687Y-64468273D01*
X151402414Y-64468204D01*
X151404361Y-64460499D01*
X151414028Y-64380000D01*
X151220886Y-64380000D01*
X151197248Y-64373059D01*
X151172767Y-64370283D01*
X151164311Y-64363387D01*
X151153847Y-64360315D01*
X151137715Y-64341698D01*
X151118620Y-64326126D01*
X151115234Y-64315754D01*
X151108092Y-64307511D01*
X151104585Y-64283127D01*
X151096941Y-64259704D01*
X151099700Y-64249149D01*
X151098148Y-64238353D01*
X151108381Y-64215943D01*
X151114614Y-64192107D01*
X151124084Y-64181559D01*
X151127173Y-64174797D01*
X151136920Y-64164755D01*
X151141265Y-64160756D01*
X151257564Y-64072564D01*
X151304816Y-64010252D01*
X151312964Y-64002755D01*
X151334766Y-63991999D01*
X151354318Y-63977552D01*
X151369511Y-63974859D01*
X151375624Y-63971844D01*
X151382271Y-63972597D01*
X151396930Y-63970000D01*
X151414027Y-63970000D01*
X151404361Y-63889502D01*
X151402415Y-63881802D01*
X151405636Y-63880987D01*
X151400687Y-63826689D01*
X151403124Y-63818380D01*
X151402903Y-63818325D01*
X151404850Y-63810617D01*
X151404852Y-63810613D01*
X151415500Y-63721944D01*
X151415500Y-63328056D01*
X151404852Y-63239387D01*
X151404849Y-63239381D01*
X151402903Y-63231675D01*
X151405948Y-63230905D01*
X151400969Y-63175944D01*
X151403185Y-63168396D01*
X151402903Y-63168325D01*
X151404850Y-63160617D01*
X151404852Y-63160613D01*
X151415500Y-63071944D01*
X151415500Y-62678056D01*
X151404852Y-62589387D01*
X151404849Y-62589381D01*
X151402903Y-62581675D01*
X151405948Y-62580905D01*
X151400969Y-62525944D01*
X151403185Y-62518396D01*
X151402903Y-62518325D01*
X151404850Y-62510617D01*
X151404852Y-62510613D01*
X151415500Y-62421944D01*
X151415500Y-62028056D01*
X151404852Y-61939387D01*
X151349210Y-61798289D01*
X151349209Y-61798288D01*
X151349209Y-61798287D01*
X151312592Y-61750000D01*
X154687408Y-61750000D01*
X154650790Y-61798287D01*
G37*
G04 #@! TD.AperFunction*
M02*
