%TF.GenerationSoftware,KiCad,Pcbnew,9.0.4*%
%TF.CreationDate,2025-12-19T16:33:56-05:00*%
%TF.ProjectId,ADS1120IPWR,41445331-3132-4304-9950-57522e6b6963,rev?*%
%TF.SameCoordinates,Original*%
%TF.FileFunction,Drillmap*%
%TF.FilePolarity,Positive*%
%FSLAX45Y45*%
G04 Gerber Fmt 4.5, Leading zero omitted, Abs format (unit mm)*
G04 Created by KiCad (PCBNEW 9.0.4) date 2025-12-19 16:33:56*
%MOMM*%
%LPD*%
G01*
G04 APERTURE LIST*
%ADD10C,0.050000*%
%ADD11C,0.200000*%
%ADD12C,0.100000*%
G04 APERTURE END LIST*
D10*
X16575000Y-7500000D02*
G75*
G02*
X16475000Y-7600000I-100000J0D01*
G01*
X14325000Y-5150000D02*
X16475000Y-5150000D01*
X14225000Y-5250000D02*
G75*
G02*
X14325000Y-5150000I100000J0D01*
G01*
X16575000Y-5250000D02*
X16575000Y-7500000D01*
X16475000Y-7600000D02*
X14325000Y-7600000D01*
X14325000Y-7600000D02*
G75*
G02*
X14225000Y-7500000I0J100000D01*
G01*
X16475000Y-5150000D02*
G75*
G02*
X16575000Y-5250000I0J-100000D01*
G01*
X14225000Y-7500000D02*
X14225000Y-5250000D01*
D11*
D12*
X14660000Y-6335000D02*
X14690000Y-6365000D01*
X14690000Y-6335000D02*
X14660000Y-6365000D01*
X14685000Y-6510000D02*
X14715000Y-6540000D01*
X14715000Y-6510000D02*
X14685000Y-6540000D01*
X14784606Y-6472530D02*
X14814606Y-6502530D01*
X14814606Y-6472530D02*
X14784606Y-6502530D01*
X14833599Y-6397102D02*
X14863599Y-6427102D01*
X14863599Y-6397102D02*
X14833599Y-6427102D01*
X15810000Y-6235000D02*
X15840000Y-6265000D01*
X15840000Y-6235000D02*
X15810000Y-6265000D01*
X15835000Y-6660000D02*
X15865000Y-6690000D01*
X15865000Y-6660000D02*
X15835000Y-6690000D01*
X16035000Y-6185000D02*
X16065000Y-6215000D01*
X16065000Y-6185000D02*
X16035000Y-6215000D01*
X16035000Y-6685000D02*
X16065000Y-6715000D01*
X16065000Y-6685000D02*
X16035000Y-6715000D01*
X14595000Y-5534000D02*
G75*
G02*
X14495000Y-5534000I-50000J0D01*
G01*
X14495000Y-5534000D02*
G75*
G02*
X14595000Y-5534000I50000J0D01*
G01*
X14595000Y-5788000D02*
G75*
G02*
X14495000Y-5788000I-50000J0D01*
G01*
X14495000Y-5788000D02*
G75*
G02*
X14595000Y-5788000I50000J0D01*
G01*
X14595000Y-6042000D02*
G75*
G02*
X14495000Y-6042000I-50000J0D01*
G01*
X14495000Y-6042000D02*
G75*
G02*
X14595000Y-6042000I50000J0D01*
G01*
X14595000Y-6296000D02*
G75*
G02*
X14495000Y-6296000I-50000J0D01*
G01*
X14495000Y-6296000D02*
G75*
G02*
X14595000Y-6296000I50000J0D01*
G01*
X14595000Y-6550000D02*
G75*
G02*
X14495000Y-6550000I-50000J0D01*
G01*
X14495000Y-6550000D02*
G75*
G02*
X14595000Y-6550000I50000J0D01*
G01*
X14595000Y-6804000D02*
G75*
G02*
X14495000Y-6804000I-50000J0D01*
G01*
X14495000Y-6804000D02*
G75*
G02*
X14595000Y-6804000I50000J0D01*
G01*
X14595000Y-7058000D02*
G75*
G02*
X14495000Y-7058000I-50000J0D01*
G01*
X14495000Y-7058000D02*
G75*
G02*
X14595000Y-7058000I50000J0D01*
G01*
X14595000Y-7312000D02*
G75*
G02*
X14495000Y-7312000I-50000J0D01*
G01*
X14495000Y-7312000D02*
G75*
G02*
X14595000Y-7312000I50000J0D01*
G01*
X16373000Y-5532000D02*
G75*
G02*
X16273000Y-5532000I-50000J0D01*
G01*
X16273000Y-5532000D02*
G75*
G02*
X16373000Y-5532000I50000J0D01*
G01*
X16373000Y-5786000D02*
G75*
G02*
X16273000Y-5786000I-50000J0D01*
G01*
X16273000Y-5786000D02*
G75*
G02*
X16373000Y-5786000I50000J0D01*
G01*
X16373000Y-6040000D02*
G75*
G02*
X16273000Y-6040000I-50000J0D01*
G01*
X16273000Y-6040000D02*
G75*
G02*
X16373000Y-6040000I50000J0D01*
G01*
X16373000Y-6294000D02*
G75*
G02*
X16273000Y-6294000I-50000J0D01*
G01*
X16273000Y-6294000D02*
G75*
G02*
X16373000Y-6294000I50000J0D01*
G01*
X16373000Y-6548000D02*
G75*
G02*
X16273000Y-6548000I-50000J0D01*
G01*
X16273000Y-6548000D02*
G75*
G02*
X16373000Y-6548000I50000J0D01*
G01*
X16373000Y-6802000D02*
G75*
G02*
X16273000Y-6802000I-50000J0D01*
G01*
X16273000Y-6802000D02*
G75*
G02*
X16373000Y-6802000I50000J0D01*
G01*
X16373000Y-7056000D02*
G75*
G02*
X16273000Y-7056000I-50000J0D01*
G01*
X16273000Y-7056000D02*
G75*
G02*
X16373000Y-7056000I50000J0D01*
G01*
X16373000Y-7310000D02*
G75*
G02*
X16273000Y-7310000I-50000J0D01*
G01*
X16273000Y-7310000D02*
G75*
G02*
X16373000Y-7310000I50000J0D01*
G01*
D11*
X14483277Y-7913984D02*
X14483277Y-7713984D01*
X14483277Y-7713984D02*
X14530896Y-7713984D01*
X14530896Y-7713984D02*
X14559467Y-7723508D01*
X14559467Y-7723508D02*
X14578515Y-7742555D01*
X14578515Y-7742555D02*
X14588039Y-7761603D01*
X14588039Y-7761603D02*
X14597562Y-7799698D01*
X14597562Y-7799698D02*
X14597562Y-7828269D01*
X14597562Y-7828269D02*
X14588039Y-7866365D01*
X14588039Y-7866365D02*
X14578515Y-7885412D01*
X14578515Y-7885412D02*
X14559467Y-7904460D01*
X14559467Y-7904460D02*
X14530896Y-7913984D01*
X14530896Y-7913984D02*
X14483277Y-7913984D01*
X14683277Y-7913984D02*
X14683277Y-7780650D01*
X14683277Y-7818746D02*
X14692801Y-7799698D01*
X14692801Y-7799698D02*
X14702324Y-7790174D01*
X14702324Y-7790174D02*
X14721372Y-7780650D01*
X14721372Y-7780650D02*
X14740420Y-7780650D01*
X14807086Y-7913984D02*
X14807086Y-7780650D01*
X14807086Y-7713984D02*
X14797562Y-7723508D01*
X14797562Y-7723508D02*
X14807086Y-7733031D01*
X14807086Y-7733031D02*
X14816610Y-7723508D01*
X14816610Y-7723508D02*
X14807086Y-7713984D01*
X14807086Y-7713984D02*
X14807086Y-7733031D01*
X14930896Y-7913984D02*
X14911848Y-7904460D01*
X14911848Y-7904460D02*
X14902324Y-7885412D01*
X14902324Y-7885412D02*
X14902324Y-7713984D01*
X15035658Y-7913984D02*
X15016610Y-7904460D01*
X15016610Y-7904460D02*
X15007086Y-7885412D01*
X15007086Y-7885412D02*
X15007086Y-7713984D01*
X15264229Y-7913984D02*
X15264229Y-7713984D01*
X15264229Y-7713984D02*
X15330896Y-7856841D01*
X15330896Y-7856841D02*
X15397562Y-7713984D01*
X15397562Y-7713984D02*
X15397562Y-7913984D01*
X15578515Y-7913984D02*
X15578515Y-7809222D01*
X15578515Y-7809222D02*
X15568991Y-7790174D01*
X15568991Y-7790174D02*
X15549943Y-7780650D01*
X15549943Y-7780650D02*
X15511848Y-7780650D01*
X15511848Y-7780650D02*
X15492801Y-7790174D01*
X15578515Y-7904460D02*
X15559467Y-7913984D01*
X15559467Y-7913984D02*
X15511848Y-7913984D01*
X15511848Y-7913984D02*
X15492801Y-7904460D01*
X15492801Y-7904460D02*
X15483277Y-7885412D01*
X15483277Y-7885412D02*
X15483277Y-7866365D01*
X15483277Y-7866365D02*
X15492801Y-7847317D01*
X15492801Y-7847317D02*
X15511848Y-7837793D01*
X15511848Y-7837793D02*
X15559467Y-7837793D01*
X15559467Y-7837793D02*
X15578515Y-7828269D01*
X15673753Y-7780650D02*
X15673753Y-7980650D01*
X15673753Y-7790174D02*
X15692801Y-7780650D01*
X15692801Y-7780650D02*
X15730896Y-7780650D01*
X15730896Y-7780650D02*
X15749943Y-7790174D01*
X15749943Y-7790174D02*
X15759467Y-7799698D01*
X15759467Y-7799698D02*
X15768991Y-7818746D01*
X15768991Y-7818746D02*
X15768991Y-7875888D01*
X15768991Y-7875888D02*
X15759467Y-7894936D01*
X15759467Y-7894936D02*
X15749943Y-7904460D01*
X15749943Y-7904460D02*
X15730896Y-7913984D01*
X15730896Y-7913984D02*
X15692801Y-7913984D01*
X15692801Y-7913984D02*
X15673753Y-7904460D01*
X15854705Y-7894936D02*
X15864229Y-7904460D01*
X15864229Y-7904460D02*
X15854705Y-7913984D01*
X15854705Y-7913984D02*
X15845182Y-7904460D01*
X15845182Y-7904460D02*
X15854705Y-7894936D01*
X15854705Y-7894936D02*
X15854705Y-7913984D01*
X15854705Y-7790174D02*
X15864229Y-7799698D01*
X15864229Y-7799698D02*
X15854705Y-7809222D01*
X15854705Y-7809222D02*
X15845182Y-7799698D01*
X15845182Y-7799698D02*
X15854705Y-7790174D01*
X15854705Y-7790174D02*
X15854705Y-7809222D01*
D12*
X14192500Y-8227500D02*
X14222500Y-8257500D01*
X14222500Y-8227500D02*
X14192500Y-8257500D01*
D11*
X14521372Y-8133984D02*
X14540420Y-8133984D01*
X14540420Y-8133984D02*
X14559467Y-8143508D01*
X14559467Y-8143508D02*
X14568991Y-8153031D01*
X14568991Y-8153031D02*
X14578515Y-8172079D01*
X14578515Y-8172079D02*
X14588039Y-8210174D01*
X14588039Y-8210174D02*
X14588039Y-8257793D01*
X14588039Y-8257793D02*
X14578515Y-8295888D01*
X14578515Y-8295888D02*
X14568991Y-8314936D01*
X14568991Y-8314936D02*
X14559467Y-8324460D01*
X14559467Y-8324460D02*
X14540420Y-8333984D01*
X14540420Y-8333984D02*
X14521372Y-8333984D01*
X14521372Y-8333984D02*
X14502324Y-8324460D01*
X14502324Y-8324460D02*
X14492801Y-8314936D01*
X14492801Y-8314936D02*
X14483277Y-8295888D01*
X14483277Y-8295888D02*
X14473753Y-8257793D01*
X14473753Y-8257793D02*
X14473753Y-8210174D01*
X14473753Y-8210174D02*
X14483277Y-8172079D01*
X14483277Y-8172079D02*
X14492801Y-8153031D01*
X14492801Y-8153031D02*
X14502324Y-8143508D01*
X14502324Y-8143508D02*
X14521372Y-8133984D01*
X14673753Y-8314936D02*
X14683277Y-8324460D01*
X14683277Y-8324460D02*
X14673753Y-8333984D01*
X14673753Y-8333984D02*
X14664229Y-8324460D01*
X14664229Y-8324460D02*
X14673753Y-8314936D01*
X14673753Y-8314936D02*
X14673753Y-8333984D01*
X14749943Y-8133984D02*
X14873753Y-8133984D01*
X14873753Y-8133984D02*
X14807086Y-8210174D01*
X14807086Y-8210174D02*
X14835658Y-8210174D01*
X14835658Y-8210174D02*
X14854705Y-8219698D01*
X14854705Y-8219698D02*
X14864229Y-8229222D01*
X14864229Y-8229222D02*
X14873753Y-8248269D01*
X14873753Y-8248269D02*
X14873753Y-8295888D01*
X14873753Y-8295888D02*
X14864229Y-8314936D01*
X14864229Y-8314936D02*
X14854705Y-8324460D01*
X14854705Y-8324460D02*
X14835658Y-8333984D01*
X14835658Y-8333984D02*
X14778515Y-8333984D01*
X14778515Y-8333984D02*
X14759467Y-8324460D01*
X14759467Y-8324460D02*
X14749943Y-8314936D01*
X14997562Y-8133984D02*
X15016610Y-8133984D01*
X15016610Y-8133984D02*
X15035658Y-8143508D01*
X15035658Y-8143508D02*
X15045182Y-8153031D01*
X15045182Y-8153031D02*
X15054705Y-8172079D01*
X15054705Y-8172079D02*
X15064229Y-8210174D01*
X15064229Y-8210174D02*
X15064229Y-8257793D01*
X15064229Y-8257793D02*
X15054705Y-8295888D01*
X15054705Y-8295888D02*
X15045182Y-8314936D01*
X15045182Y-8314936D02*
X15035658Y-8324460D01*
X15035658Y-8324460D02*
X15016610Y-8333984D01*
X15016610Y-8333984D02*
X14997562Y-8333984D01*
X14997562Y-8333984D02*
X14978515Y-8324460D01*
X14978515Y-8324460D02*
X14968991Y-8314936D01*
X14968991Y-8314936D02*
X14959467Y-8295888D01*
X14959467Y-8295888D02*
X14949943Y-8257793D01*
X14949943Y-8257793D02*
X14949943Y-8210174D01*
X14949943Y-8210174D02*
X14959467Y-8172079D01*
X14959467Y-8172079D02*
X14968991Y-8153031D01*
X14968991Y-8153031D02*
X14978515Y-8143508D01*
X14978515Y-8143508D02*
X14997562Y-8133984D01*
X15188039Y-8133984D02*
X15207086Y-8133984D01*
X15207086Y-8133984D02*
X15226134Y-8143508D01*
X15226134Y-8143508D02*
X15235658Y-8153031D01*
X15235658Y-8153031D02*
X15245182Y-8172079D01*
X15245182Y-8172079D02*
X15254705Y-8210174D01*
X15254705Y-8210174D02*
X15254705Y-8257793D01*
X15254705Y-8257793D02*
X15245182Y-8295888D01*
X15245182Y-8295888D02*
X15235658Y-8314936D01*
X15235658Y-8314936D02*
X15226134Y-8324460D01*
X15226134Y-8324460D02*
X15207086Y-8333984D01*
X15207086Y-8333984D02*
X15188039Y-8333984D01*
X15188039Y-8333984D02*
X15168991Y-8324460D01*
X15168991Y-8324460D02*
X15159467Y-8314936D01*
X15159467Y-8314936D02*
X15149943Y-8295888D01*
X15149943Y-8295888D02*
X15140420Y-8257793D01*
X15140420Y-8257793D02*
X15140420Y-8210174D01*
X15140420Y-8210174D02*
X15149943Y-8172079D01*
X15149943Y-8172079D02*
X15159467Y-8153031D01*
X15159467Y-8153031D02*
X15168991Y-8143508D01*
X15168991Y-8143508D02*
X15188039Y-8133984D01*
X15340420Y-8333984D02*
X15340420Y-8200650D01*
X15340420Y-8219698D02*
X15349943Y-8210174D01*
X15349943Y-8210174D02*
X15368991Y-8200650D01*
X15368991Y-8200650D02*
X15397563Y-8200650D01*
X15397563Y-8200650D02*
X15416610Y-8210174D01*
X15416610Y-8210174D02*
X15426134Y-8229222D01*
X15426134Y-8229222D02*
X15426134Y-8333984D01*
X15426134Y-8229222D02*
X15435658Y-8210174D01*
X15435658Y-8210174D02*
X15454705Y-8200650D01*
X15454705Y-8200650D02*
X15483277Y-8200650D01*
X15483277Y-8200650D02*
X15502324Y-8210174D01*
X15502324Y-8210174D02*
X15511848Y-8229222D01*
X15511848Y-8229222D02*
X15511848Y-8333984D01*
X15607086Y-8333984D02*
X15607086Y-8200650D01*
X15607086Y-8219698D02*
X15616610Y-8210174D01*
X15616610Y-8210174D02*
X15635658Y-8200650D01*
X15635658Y-8200650D02*
X15664229Y-8200650D01*
X15664229Y-8200650D02*
X15683277Y-8210174D01*
X15683277Y-8210174D02*
X15692801Y-8229222D01*
X15692801Y-8229222D02*
X15692801Y-8333984D01*
X15692801Y-8229222D02*
X15702324Y-8210174D01*
X15702324Y-8210174D02*
X15721372Y-8200650D01*
X15721372Y-8200650D02*
X15749943Y-8200650D01*
X15749943Y-8200650D02*
X15768991Y-8210174D01*
X15768991Y-8210174D02*
X15778515Y-8229222D01*
X15778515Y-8229222D02*
X15778515Y-8333984D01*
X16168991Y-8124460D02*
X15997563Y-8381603D01*
X16426134Y-8133984D02*
X16445182Y-8133984D01*
X16445182Y-8133984D02*
X16464229Y-8143508D01*
X16464229Y-8143508D02*
X16473753Y-8153031D01*
X16473753Y-8153031D02*
X16483277Y-8172079D01*
X16483277Y-8172079D02*
X16492801Y-8210174D01*
X16492801Y-8210174D02*
X16492801Y-8257793D01*
X16492801Y-8257793D02*
X16483277Y-8295888D01*
X16483277Y-8295888D02*
X16473753Y-8314936D01*
X16473753Y-8314936D02*
X16464229Y-8324460D01*
X16464229Y-8324460D02*
X16445182Y-8333984D01*
X16445182Y-8333984D02*
X16426134Y-8333984D01*
X16426134Y-8333984D02*
X16407086Y-8324460D01*
X16407086Y-8324460D02*
X16397563Y-8314936D01*
X16397563Y-8314936D02*
X16388039Y-8295888D01*
X16388039Y-8295888D02*
X16378515Y-8257793D01*
X16378515Y-8257793D02*
X16378515Y-8210174D01*
X16378515Y-8210174D02*
X16388039Y-8172079D01*
X16388039Y-8172079D02*
X16397563Y-8153031D01*
X16397563Y-8153031D02*
X16407086Y-8143508D01*
X16407086Y-8143508D02*
X16426134Y-8133984D01*
X16578515Y-8314936D02*
X16588039Y-8324460D01*
X16588039Y-8324460D02*
X16578515Y-8333984D01*
X16578515Y-8333984D02*
X16568991Y-8324460D01*
X16568991Y-8324460D02*
X16578515Y-8314936D01*
X16578515Y-8314936D02*
X16578515Y-8333984D01*
X16711848Y-8133984D02*
X16730896Y-8133984D01*
X16730896Y-8133984D02*
X16749944Y-8143508D01*
X16749944Y-8143508D02*
X16759467Y-8153031D01*
X16759467Y-8153031D02*
X16768991Y-8172079D01*
X16768991Y-8172079D02*
X16778515Y-8210174D01*
X16778515Y-8210174D02*
X16778515Y-8257793D01*
X16778515Y-8257793D02*
X16768991Y-8295888D01*
X16768991Y-8295888D02*
X16759467Y-8314936D01*
X16759467Y-8314936D02*
X16749944Y-8324460D01*
X16749944Y-8324460D02*
X16730896Y-8333984D01*
X16730896Y-8333984D02*
X16711848Y-8333984D01*
X16711848Y-8333984D02*
X16692801Y-8324460D01*
X16692801Y-8324460D02*
X16683277Y-8314936D01*
X16683277Y-8314936D02*
X16673753Y-8295888D01*
X16673753Y-8295888D02*
X16664229Y-8257793D01*
X16664229Y-8257793D02*
X16664229Y-8210174D01*
X16664229Y-8210174D02*
X16673753Y-8172079D01*
X16673753Y-8172079D02*
X16683277Y-8153031D01*
X16683277Y-8153031D02*
X16692801Y-8143508D01*
X16692801Y-8143508D02*
X16711848Y-8133984D01*
X16968991Y-8333984D02*
X16854706Y-8333984D01*
X16911848Y-8333984D02*
X16911848Y-8133984D01*
X16911848Y-8133984D02*
X16892801Y-8162555D01*
X16892801Y-8162555D02*
X16873753Y-8181603D01*
X16873753Y-8181603D02*
X16854706Y-8191127D01*
X17159468Y-8333984D02*
X17045182Y-8333984D01*
X17102325Y-8333984D02*
X17102325Y-8133984D01*
X17102325Y-8133984D02*
X17083277Y-8162555D01*
X17083277Y-8162555D02*
X17064229Y-8181603D01*
X17064229Y-8181603D02*
X17045182Y-8191127D01*
X17273753Y-8219698D02*
X17254706Y-8210174D01*
X17254706Y-8210174D02*
X17245182Y-8200650D01*
X17245182Y-8200650D02*
X17235658Y-8181603D01*
X17235658Y-8181603D02*
X17235658Y-8172079D01*
X17235658Y-8172079D02*
X17245182Y-8153031D01*
X17245182Y-8153031D02*
X17254706Y-8143508D01*
X17254706Y-8143508D02*
X17273753Y-8133984D01*
X17273753Y-8133984D02*
X17311849Y-8133984D01*
X17311849Y-8133984D02*
X17330896Y-8143508D01*
X17330896Y-8143508D02*
X17340420Y-8153031D01*
X17340420Y-8153031D02*
X17349944Y-8172079D01*
X17349944Y-8172079D02*
X17349944Y-8181603D01*
X17349944Y-8181603D02*
X17340420Y-8200650D01*
X17340420Y-8200650D02*
X17330896Y-8210174D01*
X17330896Y-8210174D02*
X17311849Y-8219698D01*
X17311849Y-8219698D02*
X17273753Y-8219698D01*
X17273753Y-8219698D02*
X17254706Y-8229222D01*
X17254706Y-8229222D02*
X17245182Y-8238746D01*
X17245182Y-8238746D02*
X17235658Y-8257793D01*
X17235658Y-8257793D02*
X17235658Y-8295888D01*
X17235658Y-8295888D02*
X17245182Y-8314936D01*
X17245182Y-8314936D02*
X17254706Y-8324460D01*
X17254706Y-8324460D02*
X17273753Y-8333984D01*
X17273753Y-8333984D02*
X17311849Y-8333984D01*
X17311849Y-8333984D02*
X17330896Y-8324460D01*
X17330896Y-8324460D02*
X17340420Y-8314936D01*
X17340420Y-8314936D02*
X17349944Y-8295888D01*
X17349944Y-8295888D02*
X17349944Y-8257793D01*
X17349944Y-8257793D02*
X17340420Y-8238746D01*
X17340420Y-8238746D02*
X17330896Y-8229222D01*
X17330896Y-8229222D02*
X17311849Y-8219698D01*
X17426134Y-8133984D02*
X17426134Y-8172079D01*
X17502325Y-8133984D02*
X17502325Y-8172079D01*
X17797563Y-8410174D02*
X17788039Y-8400650D01*
X17788039Y-8400650D02*
X17768991Y-8372079D01*
X17768991Y-8372079D02*
X17759468Y-8353031D01*
X17759468Y-8353031D02*
X17749944Y-8324460D01*
X17749944Y-8324460D02*
X17740420Y-8276841D01*
X17740420Y-8276841D02*
X17740420Y-8238746D01*
X17740420Y-8238746D02*
X17749944Y-8191127D01*
X17749944Y-8191127D02*
X17759468Y-8162555D01*
X17759468Y-8162555D02*
X17768991Y-8143508D01*
X17768991Y-8143508D02*
X17788039Y-8114936D01*
X17788039Y-8114936D02*
X17797563Y-8105412D01*
X17902325Y-8219698D02*
X17883277Y-8210174D01*
X17883277Y-8210174D02*
X17873753Y-8200650D01*
X17873753Y-8200650D02*
X17864230Y-8181603D01*
X17864230Y-8181603D02*
X17864230Y-8172079D01*
X17864230Y-8172079D02*
X17873753Y-8153031D01*
X17873753Y-8153031D02*
X17883277Y-8143508D01*
X17883277Y-8143508D02*
X17902325Y-8133984D01*
X17902325Y-8133984D02*
X17940420Y-8133984D01*
X17940420Y-8133984D02*
X17959468Y-8143508D01*
X17959468Y-8143508D02*
X17968991Y-8153031D01*
X17968991Y-8153031D02*
X17978515Y-8172079D01*
X17978515Y-8172079D02*
X17978515Y-8181603D01*
X17978515Y-8181603D02*
X17968991Y-8200650D01*
X17968991Y-8200650D02*
X17959468Y-8210174D01*
X17959468Y-8210174D02*
X17940420Y-8219698D01*
X17940420Y-8219698D02*
X17902325Y-8219698D01*
X17902325Y-8219698D02*
X17883277Y-8229222D01*
X17883277Y-8229222D02*
X17873753Y-8238746D01*
X17873753Y-8238746D02*
X17864230Y-8257793D01*
X17864230Y-8257793D02*
X17864230Y-8295888D01*
X17864230Y-8295888D02*
X17873753Y-8314936D01*
X17873753Y-8314936D02*
X17883277Y-8324460D01*
X17883277Y-8324460D02*
X17902325Y-8333984D01*
X17902325Y-8333984D02*
X17940420Y-8333984D01*
X17940420Y-8333984D02*
X17959468Y-8324460D01*
X17959468Y-8324460D02*
X17968991Y-8314936D01*
X17968991Y-8314936D02*
X17978515Y-8295888D01*
X17978515Y-8295888D02*
X17978515Y-8257793D01*
X17978515Y-8257793D02*
X17968991Y-8238746D01*
X17968991Y-8238746D02*
X17959468Y-8229222D01*
X17959468Y-8229222D02*
X17940420Y-8219698D01*
X18216611Y-8333984D02*
X18216611Y-8133984D01*
X18302325Y-8333984D02*
X18302325Y-8229222D01*
X18302325Y-8229222D02*
X18292801Y-8210174D01*
X18292801Y-8210174D02*
X18273753Y-8200650D01*
X18273753Y-8200650D02*
X18245182Y-8200650D01*
X18245182Y-8200650D02*
X18226134Y-8210174D01*
X18226134Y-8210174D02*
X18216611Y-8219698D01*
X18426134Y-8333984D02*
X18407087Y-8324460D01*
X18407087Y-8324460D02*
X18397563Y-8314936D01*
X18397563Y-8314936D02*
X18388039Y-8295888D01*
X18388039Y-8295888D02*
X18388039Y-8238746D01*
X18388039Y-8238746D02*
X18397563Y-8219698D01*
X18397563Y-8219698D02*
X18407087Y-8210174D01*
X18407087Y-8210174D02*
X18426134Y-8200650D01*
X18426134Y-8200650D02*
X18454706Y-8200650D01*
X18454706Y-8200650D02*
X18473753Y-8210174D01*
X18473753Y-8210174D02*
X18483277Y-8219698D01*
X18483277Y-8219698D02*
X18492801Y-8238746D01*
X18492801Y-8238746D02*
X18492801Y-8295888D01*
X18492801Y-8295888D02*
X18483277Y-8314936D01*
X18483277Y-8314936D02*
X18473753Y-8324460D01*
X18473753Y-8324460D02*
X18454706Y-8333984D01*
X18454706Y-8333984D02*
X18426134Y-8333984D01*
X18607087Y-8333984D02*
X18588039Y-8324460D01*
X18588039Y-8324460D02*
X18578515Y-8305412D01*
X18578515Y-8305412D02*
X18578515Y-8133984D01*
X18759468Y-8324460D02*
X18740420Y-8333984D01*
X18740420Y-8333984D02*
X18702325Y-8333984D01*
X18702325Y-8333984D02*
X18683277Y-8324460D01*
X18683277Y-8324460D02*
X18673753Y-8305412D01*
X18673753Y-8305412D02*
X18673753Y-8229222D01*
X18673753Y-8229222D02*
X18683277Y-8210174D01*
X18683277Y-8210174D02*
X18702325Y-8200650D01*
X18702325Y-8200650D02*
X18740420Y-8200650D01*
X18740420Y-8200650D02*
X18759468Y-8210174D01*
X18759468Y-8210174D02*
X18768992Y-8229222D01*
X18768992Y-8229222D02*
X18768992Y-8248269D01*
X18768992Y-8248269D02*
X18673753Y-8267317D01*
X18845182Y-8324460D02*
X18864230Y-8333984D01*
X18864230Y-8333984D02*
X18902325Y-8333984D01*
X18902325Y-8333984D02*
X18921373Y-8324460D01*
X18921373Y-8324460D02*
X18930896Y-8305412D01*
X18930896Y-8305412D02*
X18930896Y-8295888D01*
X18930896Y-8295888D02*
X18921373Y-8276841D01*
X18921373Y-8276841D02*
X18902325Y-8267317D01*
X18902325Y-8267317D02*
X18873753Y-8267317D01*
X18873753Y-8267317D02*
X18854706Y-8257793D01*
X18854706Y-8257793D02*
X18845182Y-8238746D01*
X18845182Y-8238746D02*
X18845182Y-8229222D01*
X18845182Y-8229222D02*
X18854706Y-8210174D01*
X18854706Y-8210174D02*
X18873753Y-8200650D01*
X18873753Y-8200650D02*
X18902325Y-8200650D01*
X18902325Y-8200650D02*
X18921373Y-8210174D01*
X18997563Y-8410174D02*
X19007087Y-8400650D01*
X19007087Y-8400650D02*
X19026134Y-8372079D01*
X19026134Y-8372079D02*
X19035658Y-8353031D01*
X19035658Y-8353031D02*
X19045182Y-8324460D01*
X19045182Y-8324460D02*
X19054706Y-8276841D01*
X19054706Y-8276841D02*
X19054706Y-8238746D01*
X19054706Y-8238746D02*
X19045182Y-8191127D01*
X19045182Y-8191127D02*
X19035658Y-8162555D01*
X19035658Y-8162555D02*
X19026134Y-8143508D01*
X19026134Y-8143508D02*
X19007087Y-8114936D01*
X19007087Y-8114936D02*
X18997563Y-8105412D01*
D12*
X14222500Y-8506500D02*
G75*
G02*
X14122500Y-8506500I-50000J0D01*
G01*
X14122500Y-8506500D02*
G75*
G02*
X14222500Y-8506500I50000J0D01*
G01*
D11*
X14588039Y-8597984D02*
X14473753Y-8597984D01*
X14530896Y-8597984D02*
X14530896Y-8397984D01*
X14530896Y-8397984D02*
X14511848Y-8426555D01*
X14511848Y-8426555D02*
X14492801Y-8445603D01*
X14492801Y-8445603D02*
X14473753Y-8455127D01*
X14673753Y-8578936D02*
X14683277Y-8588460D01*
X14683277Y-8588460D02*
X14673753Y-8597984D01*
X14673753Y-8597984D02*
X14664229Y-8588460D01*
X14664229Y-8588460D02*
X14673753Y-8578936D01*
X14673753Y-8578936D02*
X14673753Y-8597984D01*
X14807086Y-8397984D02*
X14826134Y-8397984D01*
X14826134Y-8397984D02*
X14845182Y-8407508D01*
X14845182Y-8407508D02*
X14854705Y-8417031D01*
X14854705Y-8417031D02*
X14864229Y-8436079D01*
X14864229Y-8436079D02*
X14873753Y-8474174D01*
X14873753Y-8474174D02*
X14873753Y-8521793D01*
X14873753Y-8521793D02*
X14864229Y-8559889D01*
X14864229Y-8559889D02*
X14854705Y-8578936D01*
X14854705Y-8578936D02*
X14845182Y-8588460D01*
X14845182Y-8588460D02*
X14826134Y-8597984D01*
X14826134Y-8597984D02*
X14807086Y-8597984D01*
X14807086Y-8597984D02*
X14788039Y-8588460D01*
X14788039Y-8588460D02*
X14778515Y-8578936D01*
X14778515Y-8578936D02*
X14768991Y-8559889D01*
X14768991Y-8559889D02*
X14759467Y-8521793D01*
X14759467Y-8521793D02*
X14759467Y-8474174D01*
X14759467Y-8474174D02*
X14768991Y-8436079D01*
X14768991Y-8436079D02*
X14778515Y-8417031D01*
X14778515Y-8417031D02*
X14788039Y-8407508D01*
X14788039Y-8407508D02*
X14807086Y-8397984D01*
X14997562Y-8397984D02*
X15016610Y-8397984D01*
X15016610Y-8397984D02*
X15035658Y-8407508D01*
X15035658Y-8407508D02*
X15045182Y-8417031D01*
X15045182Y-8417031D02*
X15054705Y-8436079D01*
X15054705Y-8436079D02*
X15064229Y-8474174D01*
X15064229Y-8474174D02*
X15064229Y-8521793D01*
X15064229Y-8521793D02*
X15054705Y-8559889D01*
X15054705Y-8559889D02*
X15045182Y-8578936D01*
X15045182Y-8578936D02*
X15035658Y-8588460D01*
X15035658Y-8588460D02*
X15016610Y-8597984D01*
X15016610Y-8597984D02*
X14997562Y-8597984D01*
X14997562Y-8597984D02*
X14978515Y-8588460D01*
X14978515Y-8588460D02*
X14968991Y-8578936D01*
X14968991Y-8578936D02*
X14959467Y-8559889D01*
X14959467Y-8559889D02*
X14949943Y-8521793D01*
X14949943Y-8521793D02*
X14949943Y-8474174D01*
X14949943Y-8474174D02*
X14959467Y-8436079D01*
X14959467Y-8436079D02*
X14968991Y-8417031D01*
X14968991Y-8417031D02*
X14978515Y-8407508D01*
X14978515Y-8407508D02*
X14997562Y-8397984D01*
X15188039Y-8397984D02*
X15207086Y-8397984D01*
X15207086Y-8397984D02*
X15226134Y-8407508D01*
X15226134Y-8407508D02*
X15235658Y-8417031D01*
X15235658Y-8417031D02*
X15245182Y-8436079D01*
X15245182Y-8436079D02*
X15254705Y-8474174D01*
X15254705Y-8474174D02*
X15254705Y-8521793D01*
X15254705Y-8521793D02*
X15245182Y-8559889D01*
X15245182Y-8559889D02*
X15235658Y-8578936D01*
X15235658Y-8578936D02*
X15226134Y-8588460D01*
X15226134Y-8588460D02*
X15207086Y-8597984D01*
X15207086Y-8597984D02*
X15188039Y-8597984D01*
X15188039Y-8597984D02*
X15168991Y-8588460D01*
X15168991Y-8588460D02*
X15159467Y-8578936D01*
X15159467Y-8578936D02*
X15149943Y-8559889D01*
X15149943Y-8559889D02*
X15140420Y-8521793D01*
X15140420Y-8521793D02*
X15140420Y-8474174D01*
X15140420Y-8474174D02*
X15149943Y-8436079D01*
X15149943Y-8436079D02*
X15159467Y-8417031D01*
X15159467Y-8417031D02*
X15168991Y-8407508D01*
X15168991Y-8407508D02*
X15188039Y-8397984D01*
X15340420Y-8597984D02*
X15340420Y-8464650D01*
X15340420Y-8483698D02*
X15349943Y-8474174D01*
X15349943Y-8474174D02*
X15368991Y-8464650D01*
X15368991Y-8464650D02*
X15397563Y-8464650D01*
X15397563Y-8464650D02*
X15416610Y-8474174D01*
X15416610Y-8474174D02*
X15426134Y-8493222D01*
X15426134Y-8493222D02*
X15426134Y-8597984D01*
X15426134Y-8493222D02*
X15435658Y-8474174D01*
X15435658Y-8474174D02*
X15454705Y-8464650D01*
X15454705Y-8464650D02*
X15483277Y-8464650D01*
X15483277Y-8464650D02*
X15502324Y-8474174D01*
X15502324Y-8474174D02*
X15511848Y-8493222D01*
X15511848Y-8493222D02*
X15511848Y-8597984D01*
X15607086Y-8597984D02*
X15607086Y-8464650D01*
X15607086Y-8483698D02*
X15616610Y-8474174D01*
X15616610Y-8474174D02*
X15635658Y-8464650D01*
X15635658Y-8464650D02*
X15664229Y-8464650D01*
X15664229Y-8464650D02*
X15683277Y-8474174D01*
X15683277Y-8474174D02*
X15692801Y-8493222D01*
X15692801Y-8493222D02*
X15692801Y-8597984D01*
X15692801Y-8493222D02*
X15702324Y-8474174D01*
X15702324Y-8474174D02*
X15721372Y-8464650D01*
X15721372Y-8464650D02*
X15749943Y-8464650D01*
X15749943Y-8464650D02*
X15768991Y-8474174D01*
X15768991Y-8474174D02*
X15778515Y-8493222D01*
X15778515Y-8493222D02*
X15778515Y-8597984D01*
X16168991Y-8388460D02*
X15997563Y-8645603D01*
X16426134Y-8397984D02*
X16445182Y-8397984D01*
X16445182Y-8397984D02*
X16464229Y-8407508D01*
X16464229Y-8407508D02*
X16473753Y-8417031D01*
X16473753Y-8417031D02*
X16483277Y-8436079D01*
X16483277Y-8436079D02*
X16492801Y-8474174D01*
X16492801Y-8474174D02*
X16492801Y-8521793D01*
X16492801Y-8521793D02*
X16483277Y-8559889D01*
X16483277Y-8559889D02*
X16473753Y-8578936D01*
X16473753Y-8578936D02*
X16464229Y-8588460D01*
X16464229Y-8588460D02*
X16445182Y-8597984D01*
X16445182Y-8597984D02*
X16426134Y-8597984D01*
X16426134Y-8597984D02*
X16407086Y-8588460D01*
X16407086Y-8588460D02*
X16397563Y-8578936D01*
X16397563Y-8578936D02*
X16388039Y-8559889D01*
X16388039Y-8559889D02*
X16378515Y-8521793D01*
X16378515Y-8521793D02*
X16378515Y-8474174D01*
X16378515Y-8474174D02*
X16388039Y-8436079D01*
X16388039Y-8436079D02*
X16397563Y-8417031D01*
X16397563Y-8417031D02*
X16407086Y-8407508D01*
X16407086Y-8407508D02*
X16426134Y-8397984D01*
X16578515Y-8578936D02*
X16588039Y-8588460D01*
X16588039Y-8588460D02*
X16578515Y-8597984D01*
X16578515Y-8597984D02*
X16568991Y-8588460D01*
X16568991Y-8588460D02*
X16578515Y-8578936D01*
X16578515Y-8578936D02*
X16578515Y-8597984D01*
X16711848Y-8397984D02*
X16730896Y-8397984D01*
X16730896Y-8397984D02*
X16749944Y-8407508D01*
X16749944Y-8407508D02*
X16759467Y-8417031D01*
X16759467Y-8417031D02*
X16768991Y-8436079D01*
X16768991Y-8436079D02*
X16778515Y-8474174D01*
X16778515Y-8474174D02*
X16778515Y-8521793D01*
X16778515Y-8521793D02*
X16768991Y-8559889D01*
X16768991Y-8559889D02*
X16759467Y-8578936D01*
X16759467Y-8578936D02*
X16749944Y-8588460D01*
X16749944Y-8588460D02*
X16730896Y-8597984D01*
X16730896Y-8597984D02*
X16711848Y-8597984D01*
X16711848Y-8597984D02*
X16692801Y-8588460D01*
X16692801Y-8588460D02*
X16683277Y-8578936D01*
X16683277Y-8578936D02*
X16673753Y-8559889D01*
X16673753Y-8559889D02*
X16664229Y-8521793D01*
X16664229Y-8521793D02*
X16664229Y-8474174D01*
X16664229Y-8474174D02*
X16673753Y-8436079D01*
X16673753Y-8436079D02*
X16683277Y-8417031D01*
X16683277Y-8417031D02*
X16692801Y-8407508D01*
X16692801Y-8407508D02*
X16711848Y-8397984D01*
X16845182Y-8397984D02*
X16968991Y-8397984D01*
X16968991Y-8397984D02*
X16902325Y-8474174D01*
X16902325Y-8474174D02*
X16930896Y-8474174D01*
X16930896Y-8474174D02*
X16949944Y-8483698D01*
X16949944Y-8483698D02*
X16959468Y-8493222D01*
X16959468Y-8493222D02*
X16968991Y-8512270D01*
X16968991Y-8512270D02*
X16968991Y-8559889D01*
X16968991Y-8559889D02*
X16959468Y-8578936D01*
X16959468Y-8578936D02*
X16949944Y-8588460D01*
X16949944Y-8588460D02*
X16930896Y-8597984D01*
X16930896Y-8597984D02*
X16873753Y-8597984D01*
X16873753Y-8597984D02*
X16854706Y-8588460D01*
X16854706Y-8588460D02*
X16845182Y-8578936D01*
X17064229Y-8597984D02*
X17102325Y-8597984D01*
X17102325Y-8597984D02*
X17121372Y-8588460D01*
X17121372Y-8588460D02*
X17130896Y-8578936D01*
X17130896Y-8578936D02*
X17149944Y-8550365D01*
X17149944Y-8550365D02*
X17159468Y-8512270D01*
X17159468Y-8512270D02*
X17159468Y-8436079D01*
X17159468Y-8436079D02*
X17149944Y-8417031D01*
X17149944Y-8417031D02*
X17140420Y-8407508D01*
X17140420Y-8407508D02*
X17121372Y-8397984D01*
X17121372Y-8397984D02*
X17083277Y-8397984D01*
X17083277Y-8397984D02*
X17064229Y-8407508D01*
X17064229Y-8407508D02*
X17054706Y-8417031D01*
X17054706Y-8417031D02*
X17045182Y-8436079D01*
X17045182Y-8436079D02*
X17045182Y-8483698D01*
X17045182Y-8483698D02*
X17054706Y-8502746D01*
X17054706Y-8502746D02*
X17064229Y-8512270D01*
X17064229Y-8512270D02*
X17083277Y-8521793D01*
X17083277Y-8521793D02*
X17121372Y-8521793D01*
X17121372Y-8521793D02*
X17140420Y-8512270D01*
X17140420Y-8512270D02*
X17149944Y-8502746D01*
X17149944Y-8502746D02*
X17159468Y-8483698D01*
X17330896Y-8464650D02*
X17330896Y-8597984D01*
X17283277Y-8388460D02*
X17235658Y-8531317D01*
X17235658Y-8531317D02*
X17359468Y-8531317D01*
X17426134Y-8397984D02*
X17426134Y-8436079D01*
X17502325Y-8397984D02*
X17502325Y-8436079D01*
X17797563Y-8674174D02*
X17788039Y-8664650D01*
X17788039Y-8664650D02*
X17768991Y-8636079D01*
X17768991Y-8636079D02*
X17759468Y-8617031D01*
X17759468Y-8617031D02*
X17749944Y-8588460D01*
X17749944Y-8588460D02*
X17740420Y-8540841D01*
X17740420Y-8540841D02*
X17740420Y-8502746D01*
X17740420Y-8502746D02*
X17749944Y-8455127D01*
X17749944Y-8455127D02*
X17759468Y-8426555D01*
X17759468Y-8426555D02*
X17768991Y-8407508D01*
X17768991Y-8407508D02*
X17788039Y-8378936D01*
X17788039Y-8378936D02*
X17797563Y-8369412D01*
X17978515Y-8597984D02*
X17864230Y-8597984D01*
X17921372Y-8597984D02*
X17921372Y-8397984D01*
X17921372Y-8397984D02*
X17902325Y-8426555D01*
X17902325Y-8426555D02*
X17883277Y-8445603D01*
X17883277Y-8445603D02*
X17864230Y-8455127D01*
X18149944Y-8397984D02*
X18111849Y-8397984D01*
X18111849Y-8397984D02*
X18092801Y-8407508D01*
X18092801Y-8407508D02*
X18083277Y-8417031D01*
X18083277Y-8417031D02*
X18064230Y-8445603D01*
X18064230Y-8445603D02*
X18054706Y-8483698D01*
X18054706Y-8483698D02*
X18054706Y-8559889D01*
X18054706Y-8559889D02*
X18064230Y-8578936D01*
X18064230Y-8578936D02*
X18073753Y-8588460D01*
X18073753Y-8588460D02*
X18092801Y-8597984D01*
X18092801Y-8597984D02*
X18130896Y-8597984D01*
X18130896Y-8597984D02*
X18149944Y-8588460D01*
X18149944Y-8588460D02*
X18159468Y-8578936D01*
X18159468Y-8578936D02*
X18168991Y-8559889D01*
X18168991Y-8559889D02*
X18168991Y-8512270D01*
X18168991Y-8512270D02*
X18159468Y-8493222D01*
X18159468Y-8493222D02*
X18149944Y-8483698D01*
X18149944Y-8483698D02*
X18130896Y-8474174D01*
X18130896Y-8474174D02*
X18092801Y-8474174D01*
X18092801Y-8474174D02*
X18073753Y-8483698D01*
X18073753Y-8483698D02*
X18064230Y-8493222D01*
X18064230Y-8493222D02*
X18054706Y-8512270D01*
X18407087Y-8597984D02*
X18407087Y-8397984D01*
X18492801Y-8597984D02*
X18492801Y-8493222D01*
X18492801Y-8493222D02*
X18483277Y-8474174D01*
X18483277Y-8474174D02*
X18464230Y-8464650D01*
X18464230Y-8464650D02*
X18435658Y-8464650D01*
X18435658Y-8464650D02*
X18416611Y-8474174D01*
X18416611Y-8474174D02*
X18407087Y-8483698D01*
X18616611Y-8597984D02*
X18597563Y-8588460D01*
X18597563Y-8588460D02*
X18588039Y-8578936D01*
X18588039Y-8578936D02*
X18578515Y-8559889D01*
X18578515Y-8559889D02*
X18578515Y-8502746D01*
X18578515Y-8502746D02*
X18588039Y-8483698D01*
X18588039Y-8483698D02*
X18597563Y-8474174D01*
X18597563Y-8474174D02*
X18616611Y-8464650D01*
X18616611Y-8464650D02*
X18645182Y-8464650D01*
X18645182Y-8464650D02*
X18664230Y-8474174D01*
X18664230Y-8474174D02*
X18673753Y-8483698D01*
X18673753Y-8483698D02*
X18683277Y-8502746D01*
X18683277Y-8502746D02*
X18683277Y-8559889D01*
X18683277Y-8559889D02*
X18673753Y-8578936D01*
X18673753Y-8578936D02*
X18664230Y-8588460D01*
X18664230Y-8588460D02*
X18645182Y-8597984D01*
X18645182Y-8597984D02*
X18616611Y-8597984D01*
X18797563Y-8597984D02*
X18778515Y-8588460D01*
X18778515Y-8588460D02*
X18768992Y-8569412D01*
X18768992Y-8569412D02*
X18768992Y-8397984D01*
X18949944Y-8588460D02*
X18930896Y-8597984D01*
X18930896Y-8597984D02*
X18892801Y-8597984D01*
X18892801Y-8597984D02*
X18873753Y-8588460D01*
X18873753Y-8588460D02*
X18864230Y-8569412D01*
X18864230Y-8569412D02*
X18864230Y-8493222D01*
X18864230Y-8493222D02*
X18873753Y-8474174D01*
X18873753Y-8474174D02*
X18892801Y-8464650D01*
X18892801Y-8464650D02*
X18930896Y-8464650D01*
X18930896Y-8464650D02*
X18949944Y-8474174D01*
X18949944Y-8474174D02*
X18959468Y-8493222D01*
X18959468Y-8493222D02*
X18959468Y-8512270D01*
X18959468Y-8512270D02*
X18864230Y-8531317D01*
X19035658Y-8588460D02*
X19054706Y-8597984D01*
X19054706Y-8597984D02*
X19092801Y-8597984D01*
X19092801Y-8597984D02*
X19111849Y-8588460D01*
X19111849Y-8588460D02*
X19121373Y-8569412D01*
X19121373Y-8569412D02*
X19121373Y-8559889D01*
X19121373Y-8559889D02*
X19111849Y-8540841D01*
X19111849Y-8540841D02*
X19092801Y-8531317D01*
X19092801Y-8531317D02*
X19064230Y-8531317D01*
X19064230Y-8531317D02*
X19045182Y-8521793D01*
X19045182Y-8521793D02*
X19035658Y-8502746D01*
X19035658Y-8502746D02*
X19035658Y-8493222D01*
X19035658Y-8493222D02*
X19045182Y-8474174D01*
X19045182Y-8474174D02*
X19064230Y-8464650D01*
X19064230Y-8464650D02*
X19092801Y-8464650D01*
X19092801Y-8464650D02*
X19111849Y-8474174D01*
X19188039Y-8674174D02*
X19197563Y-8664650D01*
X19197563Y-8664650D02*
X19216611Y-8636079D01*
X19216611Y-8636079D02*
X19226134Y-8617031D01*
X19226134Y-8617031D02*
X19235658Y-8588460D01*
X19235658Y-8588460D02*
X19245182Y-8540841D01*
X19245182Y-8540841D02*
X19245182Y-8502746D01*
X19245182Y-8502746D02*
X19235658Y-8455127D01*
X19235658Y-8455127D02*
X19226134Y-8426555D01*
X19226134Y-8426555D02*
X19216611Y-8407508D01*
X19216611Y-8407508D02*
X19197563Y-8378936D01*
X19197563Y-8378936D02*
X19188039Y-8369412D01*
M02*
