%TF.GenerationSoftware,KiCad,Pcbnew,9.0.4*%
%TF.CreationDate,2026-02-10T01:39:38-05:00*%
%TF.ProjectId,main_board_peripheral_v3,6d61696e-5f62-46f6-9172-645f70657269,rev?*%
%TF.SameCoordinates,Original*%
%TF.FileFunction,Paste,Bot*%
%TF.FilePolarity,Positive*%
%FSLAX46Y46*%
G04 Gerber Fmt 4.6, Leading zero omitted, Abs format (unit mm)*
G04 Created by KiCad (PCBNEW 9.0.4) date 2026-02-10 01:39:38*
%MOMM*%
%LPD*%
G01*
G04 APERTURE LIST*
G04 Aperture macros list*
%AMRoundRect*
0 Rectangle with rounded corners*
0 $1 Rounding radius*
0 $2 $3 $4 $5 $6 $7 $8 $9 X,Y pos of 4 corners*
0 Add a 4 corners polygon primitive as box body*
4,1,4,$2,$3,$4,$5,$6,$7,$8,$9,$2,$3,0*
0 Add four circle primitives for the rounded corners*
1,1,$1+$1,$2,$3*
1,1,$1+$1,$4,$5*
1,1,$1+$1,$6,$7*
1,1,$1+$1,$8,$9*
0 Add four rect primitives between the rounded corners*
20,1,$1+$1,$2,$3,$4,$5,0*
20,1,$1+$1,$4,$5,$6,$7,0*
20,1,$1+$1,$6,$7,$8,$9,0*
20,1,$1+$1,$8,$9,$2,$3,0*%
G04 Aperture macros list end*
%ADD10RoundRect,0.060000X-0.675000X-0.180000X0.675000X-0.180000X0.675000X0.180000X-0.675000X0.180000X0*%
%ADD11RoundRect,0.140000X-0.170000X0.140000X-0.170000X-0.140000X0.170000X-0.140000X0.170000X0.140000X0*%
%ADD12R,1.200000X0.750000*%
%ADD13R,0.300000X0.650000*%
%ADD14R,0.300000X1.200000*%
%ADD15R,0.400000X1.550000*%
%ADD16R,2.810000X1.180000*%
%ADD17R,0.530000X0.260000*%
%ADD18R,1.050000X0.600000*%
%ADD19RoundRect,0.225000X-0.250000X0.225000X-0.250000X-0.225000X0.250000X-0.225000X0.250000X0.225000X0*%
%ADD20RoundRect,0.140000X0.140000X0.170000X-0.140000X0.170000X-0.140000X-0.170000X0.140000X-0.170000X0*%
%ADD21RoundRect,0.140000X0.170000X-0.140000X0.170000X0.140000X-0.170000X0.140000X-0.170000X-0.140000X0*%
G04 APERTURE END LIST*
D10*
%TO.C,U1*%
X102350000Y-82975000D03*
X102350000Y-82325000D03*
X102350000Y-81675000D03*
X102350000Y-81025000D03*
X106650000Y-81025000D03*
X106650000Y-81675000D03*
X106650000Y-82325000D03*
X106650000Y-82975000D03*
%TD*%
D11*
%TO.C,C3*%
X106700000Y-86330000D03*
X106700000Y-87290000D03*
%TD*%
D12*
%TO.C,D1*%
X100710000Y-87120000D03*
X104110000Y-87120000D03*
%TD*%
D13*
%TO.C,J4*%
X118500000Y-81500000D03*
X118000000Y-81500000D03*
X117500000Y-81500000D03*
X117000000Y-81500000D03*
X116500000Y-81500000D03*
X116000000Y-81500000D03*
X115500000Y-81500000D03*
X115000000Y-81500000D03*
X114500000Y-81500000D03*
X114000000Y-81500000D03*
X113500000Y-81500000D03*
X113000000Y-81500000D03*
X112500000Y-81500000D03*
X112000000Y-81500000D03*
X111500000Y-81500000D03*
D14*
X117500000Y-87175000D03*
X115000000Y-87175000D03*
X112500000Y-87175000D03*
D15*
X119750000Y-86750000D03*
X110250000Y-86750000D03*
%TD*%
D16*
%TO.C,F1*%
X96500000Y-88485000D03*
X96500000Y-85515000D03*
%TD*%
D17*
%TO.C,PS1*%
X115600000Y-90100000D03*
X115600000Y-90700000D03*
X115600000Y-91300000D03*
X115600000Y-91900000D03*
X114400000Y-91900000D03*
X114400000Y-91300000D03*
X114400000Y-90700000D03*
X114400000Y-90100000D03*
%TD*%
D18*
%TO.C,Q1*%
X95900000Y-82450000D03*
X95900000Y-80550000D03*
X98350000Y-81500000D03*
%TD*%
D19*
%TO.C,C4*%
X118520000Y-90265000D03*
X118520000Y-91815000D03*
%TD*%
D20*
%TO.C,C2*%
X104920000Y-84670000D03*
X103960000Y-84670000D03*
%TD*%
D21*
%TO.C,C1*%
X99010000Y-88080000D03*
X99010000Y-87120000D03*
%TD*%
M02*
