M48
; DRILL file {KiCad 9.0.4} date 2026-02-10T01:39:44-0500
; FORMAT={-:-/ absolute / metric / decimal}
; #@! TF.CreationDate,2026-02-10T01:39:44-05:00
; #@! TF.GenerationSoftware,Kicad,Pcbnew,9.0.4
; #@! TF.FileFunction,Plated,1,4,PTH
FMAT,2
METRIC
; #@! TA.AperFunction,Plated,PTH,ViaDrill
T1C0.300
; #@! TA.AperFunction,Plated,PTH,ComponentDrill
T2C1.200
%
G90
G05
T1
X99.06Y-88.9
X99.4Y-81.5
X99.5Y-80.55
X105.16Y-87.13
X105.3Y-82.9
X106.55Y-83.88
X106.71Y-85.42
X106.72Y-88.09
X110.03Y-81.079
X110.25Y-85.5
X111.29Y-83.76
X111.975Y-86.775
X112.53Y-80.77
X113.08Y-80.82
X113.46Y-90.72
X113.52Y-91.36
X113.68Y-96.52
X114.059Y-85.761
X114.09Y-88.43
X114.46Y-92.45
X114.518Y-86.22
X114.578Y-83.796
X115.0Y-82.25
X115.0Y-88.3
X115.038Y-83.336
X115.04Y-91.29
X115.05Y-90.73
X115.4Y-80.77
X115.81Y-88.1
X116.0Y-80.772
X116.49Y-89.91
X116.53Y-91.51
X117.06Y-80.69
X117.61Y-88.93
X117.69Y-80.74
X118.23Y-86.62
X118.25Y-85.25
X119.54Y-92.0
X119.75Y-85.5
X119.86Y-80.53
T2
X103.05Y-91.725
X103.05Y-93.875
X105.0Y-91.1
X105.0Y-94.5
X124.55Y-91.725
X124.55Y-93.875
X126.5Y-91.1
X126.5Y-94.5
M30
