%TF.GenerationSoftware,KiCad,Pcbnew,9.0.4*%
%TF.CreationDate,2026-02-10T01:37:08-05:00*%
%TF.ProjectId,WSG_2.0,5753475f-322e-4302-9e6b-696361645f70,rev?*%
%TF.SameCoordinates,Original*%
%TF.FileFunction,Copper,L3,Inr*%
%TF.FilePolarity,Positive*%
%FSLAX46Y46*%
G04 Gerber Fmt 4.6, Leading zero omitted, Abs format (unit mm)*
G04 Created by KiCad (PCBNEW 9.0.4) date 2026-02-10 01:37:08*
%MOMM*%
%LPD*%
G01*
G04 APERTURE LIST*
%TA.AperFunction,ComponentPad*%
%ADD10C,1.300000*%
%TD*%
%TA.AperFunction,ComponentPad*%
%ADD11R,0.850000X0.850000*%
%TD*%
%TA.AperFunction,ComponentPad*%
%ADD12C,0.850000*%
%TD*%
%TA.AperFunction,ComponentPad*%
%ADD13R,1.508000X1.508000*%
%TD*%
%TA.AperFunction,ComponentPad*%
%ADD14C,1.508000*%
%TD*%
%TA.AperFunction,ViaPad*%
%ADD15C,0.450000*%
%TD*%
%TA.AperFunction,ViaPad*%
%ADD16C,0.600000*%
%TD*%
%TA.AperFunction,ViaPad*%
%ADD17C,0.500000*%
%TD*%
%TA.AperFunction,Conductor*%
%ADD18C,0.500000*%
%TD*%
G04 APERTURE END LIST*
D10*
%TO.N,N/C*%
%TO.C,*%
X144000000Y-84000000D03*
%TD*%
%TO.N,N/C*%
%TO.C,*%
X102000000Y-81000000D03*
%TD*%
%TO.N,N/C*%
%TO.C,*%
X102000000Y-100500000D03*
%TD*%
D11*
%TO.N,3.7V_BAT-*%
%TO.C,J4*%
X123620000Y-100830000D03*
D12*
%TO.N,3.7V_BAT+*%
X123620000Y-99830000D03*
%TD*%
D13*
%TO.N,SG1+*%
%TO.C,J3*%
X93838357Y-90128357D03*
D14*
%TO.N,3V3_Ref*%
X95956494Y-88010220D03*
%TO.N,SG2+*%
X98183227Y-88503880D03*
%TO.N,3V3_Ref*%
X99271537Y-90508282D03*
%TO.N,SG3+*%
X98472787Y-92644650D03*
%TO.N,3V3_Ref*%
X96336419Y-93443400D03*
%TO.N,GND*%
X94332007Y-92355100D03*
%TO.N,3V3_Ref*%
X96528247Y-90700110D03*
%TD*%
D15*
%TO.N,3V3_Ref*%
X114950000Y-94250000D03*
X101900000Y-93290000D03*
X119300000Y-95100000D03*
X101920000Y-91490000D03*
X102600000Y-90070000D03*
X114340000Y-90470000D03*
X114450000Y-94880000D03*
X109770000Y-84770000D03*
X106750000Y-94554999D03*
X102600000Y-95300000D03*
X123939800Y-89710000D03*
X111730000Y-85350000D03*
X117849294Y-93163129D03*
X118490000Y-85070000D03*
X106612800Y-89870000D03*
X115550000Y-85770000D03*
%TO.N,5.5V_BOOST*%
X121970800Y-94386400D03*
D16*
%TO.N,3V3*%
X131140329Y-91497000D03*
D15*
X136414802Y-88600000D03*
X135941698Y-91552640D03*
X132752800Y-84079999D03*
X132705171Y-92867629D03*
D16*
X117190000Y-80550000D03*
D15*
X131290000Y-95790000D03*
X135792800Y-84929999D03*
X127500000Y-93690000D03*
X125320000Y-84480000D03*
X130190000Y-85620000D03*
X134522800Y-84929999D03*
D16*
X107950000Y-80260000D03*
X123690000Y-81660000D03*
D15*
%TO.N,CS_FLASH*%
X128970000Y-91930000D03*
%TO.N,DAC_BIAS_REF*%
X117650000Y-88509999D03*
X115290000Y-92250000D03*
X115442800Y-96519999D03*
X115165565Y-88205339D03*
D16*
%TO.N,EN*%
X123750000Y-80600000D03*
X136770000Y-87060000D03*
%TO.N,GPIO0*%
X137390000Y-87520000D03*
X115440000Y-80790000D03*
%TO.N,5v_USB_EXT*%
X123525002Y-96910000D03*
D15*
X121270113Y-95214006D03*
X138125200Y-89331800D03*
%TO.N,Net-(J1-CC1)*%
X137254529Y-83515471D03*
X140575000Y-86075000D03*
%TO.N,3.7V_BAT+*%
X126475001Y-97860001D03*
D16*
%TO.N,LDAC_DAC*%
X125691496Y-90958504D03*
X121641496Y-90898504D03*
D15*
%TO.N,SCLK_ADC*%
X124707633Y-87369999D03*
%TO.N,MISO_ADC*%
X125342800Y-89892800D03*
%TO.N,MOSI_ADC*%
X126482800Y-88719999D03*
%TO.N,CS_ADC*%
X124370000Y-92590000D03*
X122340000Y-91870000D03*
%TO.N,CS_DAC*%
X124800000Y-91690000D03*
X122630000Y-90760000D03*
D16*
%TO.N,GND*%
X138500000Y-98000000D03*
X133500000Y-97000000D03*
X132500000Y-98000000D03*
X134980000Y-96220000D03*
D15*
X118772800Y-96409999D03*
D16*
X137220000Y-93210000D03*
D17*
X141500000Y-81500000D03*
D16*
X141910000Y-93550000D03*
D15*
X128262800Y-90215001D03*
X129275002Y-95165001D03*
X117650000Y-92321999D03*
D16*
X133500000Y-99000000D03*
X134000000Y-98000000D03*
X139000000Y-94200000D03*
D15*
X135560000Y-81800000D03*
D17*
X142500000Y-81500000D03*
D15*
X116560000Y-90870000D03*
D17*
X141500000Y-90500000D03*
D15*
X128245001Y-96534999D03*
D16*
X137000000Y-96000000D03*
D15*
X124662800Y-94429999D03*
X122228029Y-83479903D03*
X117016014Y-94030000D03*
X115898400Y-101198400D03*
D16*
X138500000Y-100000000D03*
X139000000Y-97000000D03*
D15*
X120000000Y-97000000D03*
D16*
X136500000Y-97000000D03*
X130960000Y-82990000D03*
D15*
X105730000Y-95660291D03*
X114577600Y-99699800D03*
D16*
X119230000Y-99780000D03*
D15*
X132162528Y-92402528D03*
D16*
X140260000Y-94220000D03*
D17*
X142500000Y-90500000D03*
D15*
X126920000Y-86910000D03*
D16*
X135000000Y-97000000D03*
X138125200Y-95986600D03*
X138000000Y-94200000D03*
D15*
X132410000Y-83040000D03*
D16*
X109510000Y-83690000D03*
D15*
X124080000Y-94420000D03*
X117603929Y-91346957D03*
D16*
X138000000Y-97000000D03*
D15*
X123110000Y-83470000D03*
X125330000Y-82320000D03*
X128869364Y-89332000D03*
D16*
X132000000Y-99000000D03*
X139014200Y-95910400D03*
X133500000Y-101000000D03*
X120330000Y-97600000D03*
X139000000Y-101000000D03*
D15*
X135550000Y-80240000D03*
D16*
X141320000Y-94140000D03*
D15*
X123050000Y-82640000D03*
D16*
X106260000Y-83370000D03*
X115630000Y-83100000D03*
X137000000Y-100000000D03*
D15*
X118170000Y-83768000D03*
D16*
X134000000Y-100000000D03*
D15*
X105630000Y-93440000D03*
X131000000Y-97230000D03*
X130094882Y-88510882D03*
X135609999Y-88660002D03*
X117610000Y-85320000D03*
X114501400Y-101122200D03*
D16*
X139475711Y-93440500D03*
D15*
X120670000Y-83490000D03*
D16*
X133990000Y-96350000D03*
X120510000Y-100050000D03*
X138000000Y-99000000D03*
X135500000Y-100000000D03*
D15*
X107530000Y-98610000D03*
X131050000Y-94990000D03*
X107490000Y-87080000D03*
D16*
X135690000Y-94130000D03*
D15*
X127842800Y-88194999D03*
D16*
X138000000Y-101000000D03*
X145237200Y-94386400D03*
X138220000Y-93210000D03*
D15*
X117520000Y-90430000D03*
X116600000Y-89860000D03*
D16*
X123391432Y-90671432D03*
D15*
X111170000Y-87590000D03*
D16*
X125939904Y-96060096D03*
X139000000Y-99000000D03*
D15*
X116025400Y-99699800D03*
X125450000Y-98170000D03*
D16*
X111860000Y-82730000D03*
D15*
X129522800Y-89509999D03*
D16*
X132500000Y-100000000D03*
X136500000Y-101000000D03*
D15*
X138099800Y-89992200D03*
D16*
X136500000Y-99000000D03*
X142600000Y-94200000D03*
D15*
X105770000Y-91610000D03*
X116360000Y-85870000D03*
D16*
X142748000Y-93446600D03*
X132000000Y-97000000D03*
D15*
X138540000Y-83258000D03*
X124410000Y-82590000D03*
X117420000Y-94870000D03*
X124140000Y-95460000D03*
X128210000Y-94270000D03*
X119810000Y-93280000D03*
X117468000Y-87013882D03*
D16*
X137000000Y-98000000D03*
X135966200Y-96012000D03*
X135000000Y-101000000D03*
X124815600Y-96926400D03*
D15*
X116144361Y-94213084D03*
D16*
X118960000Y-82470000D03*
X137000000Y-94130000D03*
D15*
X117170200Y-98780600D03*
D16*
X145200000Y-93600000D03*
D15*
X107060000Y-89280000D03*
D16*
X135000000Y-99000000D03*
D15*
X115239453Y-89409392D03*
D16*
X132000000Y-101000000D03*
X117320000Y-83490000D03*
X140589000Y-93522800D03*
X126780000Y-94760000D03*
X135500000Y-98000000D03*
D15*
X116032800Y-98958400D03*
%TO.N,GPIO46*%
X124232215Y-86331282D03*
X126270000Y-90190000D03*
%TO.N,VIN*%
X120475000Y-88555000D03*
%TD*%
D18*
%TO.N,5v_USB_EXT*%
X136264201Y-90472999D02*
X128857573Y-90472999D01*
X121256099Y-93627901D02*
X121256099Y-95221099D01*
X124785800Y-93294200D02*
X121589800Y-93294200D01*
X138125200Y-89331800D02*
X137405400Y-89331800D01*
X128857573Y-90472999D02*
X128220572Y-91110000D01*
X121589800Y-93294200D02*
X121256099Y-93627901D01*
X126970000Y-91110000D02*
X124785800Y-93294200D01*
X121256099Y-95221099D02*
X121975000Y-95940000D01*
X137405400Y-89331800D02*
X136264201Y-90472999D01*
X121975000Y-95940000D02*
X122555002Y-95940000D01*
X128220572Y-91110000D02*
X126970000Y-91110000D01*
X122555002Y-95940000D02*
X123525002Y-96910000D01*
%TD*%
%TA.AperFunction,Conductor*%
%TO.N,3V3*%
G36*
X129258800Y-86201202D02*
G01*
X129258470Y-86250844D01*
X129258371Y-86250843D01*
X126492800Y-86229998D01*
X126492799Y-86229999D01*
X126485651Y-86537376D01*
X126464414Y-86603940D01*
X126410560Y-86648454D01*
X126360154Y-86658484D01*
X124984567Y-86641502D01*
X124917776Y-86620991D01*
X124872676Y-86567626D01*
X124862100Y-86518224D01*
X124860512Y-86241891D01*
X124858664Y-85920374D01*
X129258800Y-86201202D01*
G37*
%TD.AperFunction*%
%TD*%
%TA.AperFunction,Conductor*%
%TO.N,3V3_Ref*%
G36*
X124279267Y-84339771D02*
G01*
X124325108Y-84392500D01*
X124336345Y-84440552D01*
X124367544Y-85501323D01*
X124367572Y-85502452D01*
X124372669Y-85753573D01*
X124372267Y-85766386D01*
X124370126Y-85792079D01*
X124344942Y-85857252D01*
X124288521Y-85898464D01*
X124246554Y-85905782D01*
X124176197Y-85905782D01*
X124067978Y-85934779D01*
X124067975Y-85934780D01*
X123970955Y-85990795D01*
X123970949Y-85990799D01*
X123891732Y-86070016D01*
X123891728Y-86070022D01*
X123842080Y-86156013D01*
X122342555Y-86263868D01*
X120036997Y-86429697D01*
X120028605Y-86430016D01*
X116680713Y-86443633D01*
X116613594Y-86424221D01*
X116567625Y-86371604D01*
X116557400Y-86302486D01*
X116586167Y-86238813D01*
X116618213Y-86212245D01*
X116621263Y-86210485D01*
X116700485Y-86131263D01*
X116756503Y-86034237D01*
X116785500Y-85926018D01*
X116785500Y-85813982D01*
X116756503Y-85705763D01*
X116700485Y-85608737D01*
X116621263Y-85529515D01*
X116542839Y-85484237D01*
X116524239Y-85473498D01*
X116524238Y-85473497D01*
X116524237Y-85473497D01*
X116416018Y-85444500D01*
X116303982Y-85444500D01*
X116195763Y-85473497D01*
X116195760Y-85473498D01*
X116098740Y-85529513D01*
X116098734Y-85529517D01*
X116019517Y-85608734D01*
X116019513Y-85608740D01*
X115963498Y-85705760D01*
X115963497Y-85705763D01*
X115934500Y-85813982D01*
X115934500Y-85926018D01*
X115963497Y-86034237D01*
X116019515Y-86131263D01*
X116098737Y-86210485D01*
X116106270Y-86214834D01*
X116154485Y-86265400D01*
X116167709Y-86334007D01*
X116141741Y-86398872D01*
X116084827Y-86439401D01*
X116044774Y-86446220D01*
X115364727Y-86448986D01*
X115364727Y-86448987D01*
X113575349Y-86456266D01*
X109094605Y-86474492D01*
X109094604Y-86474492D01*
X109094604Y-86474493D01*
X106374163Y-86485559D01*
X106425675Y-85263982D01*
X117184500Y-85263982D01*
X117184500Y-85376018D01*
X117213497Y-85484237D01*
X117269515Y-85581263D01*
X117348737Y-85660485D01*
X117445763Y-85716503D01*
X117553982Y-85745500D01*
X117553984Y-85745500D01*
X117666016Y-85745500D01*
X117666018Y-85745500D01*
X117774237Y-85716503D01*
X117871263Y-85660485D01*
X117950485Y-85581263D01*
X118006503Y-85484237D01*
X118035500Y-85376018D01*
X118035500Y-85263982D01*
X118006503Y-85155763D01*
X117950485Y-85058737D01*
X117871263Y-84979515D01*
X117774237Y-84923497D01*
X117666018Y-84894500D01*
X117553982Y-84894500D01*
X117445763Y-84923497D01*
X117445760Y-84923498D01*
X117348740Y-84979513D01*
X117348734Y-84979517D01*
X117269517Y-85058734D01*
X117269513Y-85058740D01*
X117213498Y-85155760D01*
X117213497Y-85155763D01*
X117184500Y-85263982D01*
X106425675Y-85263982D01*
X106463906Y-84357373D01*
X106119915Y-84356565D01*
X106119976Y-84351807D01*
X106173232Y-84349978D01*
X106174203Y-84350227D01*
X106177278Y-84349905D01*
X124212197Y-84320197D01*
X124279267Y-84339771D01*
G37*
%TD.AperFunction*%
%TD*%
%TA.AperFunction,Conductor*%
%TO.N,3V3_Ref*%
G36*
X106463906Y-84357373D02*
G01*
X106165100Y-91443333D01*
X106110485Y-91348737D01*
X106031263Y-91269515D01*
X105934237Y-91213497D01*
X105826018Y-91184500D01*
X105713982Y-91184500D01*
X105605763Y-91213497D01*
X105605760Y-91213498D01*
X105508740Y-91269513D01*
X105508734Y-91269517D01*
X105429517Y-91348734D01*
X105429513Y-91348740D01*
X105373498Y-91445760D01*
X105373497Y-91445763D01*
X105344500Y-91553982D01*
X105344500Y-91666018D01*
X105373497Y-91774237D01*
X105429515Y-91871263D01*
X105508737Y-91950485D01*
X105605763Y-92006503D01*
X105713982Y-92035500D01*
X105713984Y-92035500D01*
X105826016Y-92035500D01*
X105826018Y-92035500D01*
X105934237Y-92006503D01*
X106031263Y-91950485D01*
X106110485Y-91871263D01*
X106149935Y-91802932D01*
X106110000Y-92750000D01*
X106091908Y-92750335D01*
X106091909Y-92750335D01*
X99553294Y-92871710D01*
X99485901Y-92853273D01*
X99439174Y-92801327D01*
X99429212Y-92744752D01*
X99427287Y-92744752D01*
X99427287Y-92550637D01*
X99427286Y-92550635D01*
X99390607Y-92366240D01*
X99390606Y-92366233D01*
X99390604Y-92366228D01*
X99318657Y-92192531D01*
X99318650Y-92192518D01*
X99214195Y-92036192D01*
X99214192Y-92036188D01*
X99081248Y-91903244D01*
X99081244Y-91903241D01*
X98924918Y-91798786D01*
X98924905Y-91798779D01*
X98751208Y-91726832D01*
X98751196Y-91726829D01*
X98566800Y-91690150D01*
X98566797Y-91690150D01*
X98378777Y-91690150D01*
X98378774Y-91690150D01*
X98194377Y-91726829D01*
X98194365Y-91726832D01*
X98020668Y-91798779D01*
X98020655Y-91798786D01*
X97864329Y-91903241D01*
X97864325Y-91903244D01*
X97731381Y-92036188D01*
X97731378Y-92036192D01*
X97626923Y-92192518D01*
X97626916Y-92192531D01*
X97554969Y-92366228D01*
X97554966Y-92366240D01*
X97518287Y-92550635D01*
X97518287Y-92738658D01*
X97523216Y-92763440D01*
X97516987Y-92833032D01*
X97474124Y-92888208D01*
X97408234Y-92911452D01*
X97403899Y-92911609D01*
X95306380Y-92950545D01*
X95238987Y-92932108D01*
X95192260Y-92880162D01*
X95181035Y-92811200D01*
X95189518Y-92779113D01*
X95196010Y-92763440D01*
X95249826Y-92633517D01*
X95286507Y-92449110D01*
X95286507Y-92261090D01*
X95286507Y-92261087D01*
X95286506Y-92261085D01*
X95272870Y-92192531D01*
X95249826Y-92076683D01*
X95233054Y-92036192D01*
X95177877Y-91902981D01*
X95177870Y-91902968D01*
X95073415Y-91746642D01*
X95073412Y-91746638D01*
X94940468Y-91613694D01*
X94940464Y-91613691D01*
X94784138Y-91509236D01*
X94784125Y-91509229D01*
X94610428Y-91437282D01*
X94610416Y-91437279D01*
X94426020Y-91400600D01*
X94426017Y-91400600D01*
X94237997Y-91400600D01*
X94237994Y-91400600D01*
X94053597Y-91437279D01*
X94053585Y-91437282D01*
X93879888Y-91509229D01*
X93879875Y-91509236D01*
X93723549Y-91613691D01*
X93723545Y-91613694D01*
X93590601Y-91746638D01*
X93590598Y-91746642D01*
X93486143Y-91902968D01*
X93486136Y-91902981D01*
X93414189Y-92076678D01*
X93414186Y-92076690D01*
X93377507Y-92261085D01*
X93377507Y-92449114D01*
X93414186Y-92633509D01*
X93414189Y-92633521D01*
X93488471Y-92812854D01*
X93486410Y-92813707D01*
X93498617Y-92872320D01*
X93473619Y-92937565D01*
X93417315Y-92978937D01*
X93377317Y-92986354D01*
X89537787Y-93057627D01*
X89470394Y-93039190D01*
X89423667Y-92987244D01*
X89411494Y-92932201D01*
X89453337Y-89354604D01*
X92883857Y-89354604D01*
X92883857Y-90902109D01*
X92895488Y-90960586D01*
X92895489Y-90960587D01*
X92939804Y-91026909D01*
X93006126Y-91071224D01*
X93006127Y-91071225D01*
X93064604Y-91082856D01*
X93064607Y-91082857D01*
X93064609Y-91082857D01*
X94612107Y-91082857D01*
X94612108Y-91082856D01*
X94626925Y-91079909D01*
X94670586Y-91071225D01*
X94670586Y-91071224D01*
X94670588Y-91071224D01*
X94736909Y-91026909D01*
X94781224Y-90960588D01*
X94781224Y-90960586D01*
X94781225Y-90960586D01*
X94792856Y-90902109D01*
X94792857Y-90902107D01*
X94792857Y-89354606D01*
X94792856Y-89354604D01*
X94781225Y-89296127D01*
X94781224Y-89296126D01*
X94736909Y-89229804D01*
X94670587Y-89185489D01*
X94670586Y-89185488D01*
X94612109Y-89173857D01*
X94612105Y-89173857D01*
X93064609Y-89173857D01*
X93064604Y-89173857D01*
X93006127Y-89185488D01*
X93006126Y-89185489D01*
X92939804Y-89229804D01*
X92895489Y-89296126D01*
X92895488Y-89296127D01*
X92883857Y-89354604D01*
X89453337Y-89354604D01*
X89464387Y-88409865D01*
X97228727Y-88409865D01*
X97228727Y-88597894D01*
X97265406Y-88782289D01*
X97265409Y-88782301D01*
X97337356Y-88955998D01*
X97337363Y-88956011D01*
X97441818Y-89112337D01*
X97441821Y-89112341D01*
X97574765Y-89245285D01*
X97574769Y-89245288D01*
X97731095Y-89349743D01*
X97731108Y-89349750D01*
X97904805Y-89421697D01*
X97904810Y-89421699D01*
X98018116Y-89444237D01*
X98089212Y-89458379D01*
X98089215Y-89458380D01*
X98089217Y-89458380D01*
X98277239Y-89458380D01*
X98277240Y-89458379D01*
X98461644Y-89421699D01*
X98635352Y-89349747D01*
X98791685Y-89245288D01*
X98924635Y-89112338D01*
X99029094Y-88956005D01*
X99101046Y-88782297D01*
X99137727Y-88597890D01*
X99137727Y-88409870D01*
X99137727Y-88409867D01*
X99137726Y-88409865D01*
X99101047Y-88225470D01*
X99101046Y-88225463D01*
X99101044Y-88225458D01*
X99029097Y-88051761D01*
X99029090Y-88051748D01*
X98924635Y-87895422D01*
X98924632Y-87895418D01*
X98791688Y-87762474D01*
X98791684Y-87762471D01*
X98635358Y-87658016D01*
X98635345Y-87658009D01*
X98461648Y-87586062D01*
X98461636Y-87586059D01*
X98277240Y-87549380D01*
X98277237Y-87549380D01*
X98089217Y-87549380D01*
X98089214Y-87549380D01*
X97904817Y-87586059D01*
X97904805Y-87586062D01*
X97731108Y-87658009D01*
X97731095Y-87658016D01*
X97574769Y-87762471D01*
X97574765Y-87762474D01*
X97441821Y-87895418D01*
X97441818Y-87895422D01*
X97337363Y-88051748D01*
X97337356Y-88051761D01*
X97265409Y-88225458D01*
X97265406Y-88225470D01*
X97228727Y-88409865D01*
X89464387Y-88409865D01*
X89510813Y-84440439D01*
X89531281Y-84373636D01*
X89584616Y-84328502D01*
X89635095Y-84317891D01*
X106463906Y-84357373D01*
G37*
%TD.AperFunction*%
%TD*%
%TA.AperFunction,Conductor*%
%TO.N,3V3*%
G36*
X133562800Y-91990740D02*
G01*
X133562800Y-93221364D01*
X133543115Y-93288403D01*
X133490311Y-93334158D01*
X133434253Y-93345281D01*
X132610418Y-93315048D01*
X132505978Y-93311216D01*
X132501145Y-93311038D01*
X132485075Y-93310449D01*
X132472881Y-93306377D01*
X132478464Y-93056937D01*
X132506181Y-93045457D01*
X132625007Y-92966060D01*
X132726060Y-92865007D01*
X132805457Y-92746181D01*
X132860147Y-92614148D01*
X132888028Y-92473983D01*
X132888028Y-92331073D01*
X132888028Y-92331070D01*
X132860148Y-92190913D01*
X132860147Y-92190912D01*
X132860147Y-92190908D01*
X132805457Y-92058875D01*
X132805456Y-92058874D01*
X132805453Y-92058868D01*
X132744548Y-91967718D01*
X133562800Y-91959999D01*
X133562800Y-91990740D01*
G37*
%TD.AperFunction*%
%TD*%
%TA.AperFunction,Conductor*%
%TO.N,3V3_Ref*%
G36*
X120192064Y-93886821D02*
G01*
X120258560Y-93908262D01*
X120302910Y-93962252D01*
X120312800Y-94010778D01*
X120312800Y-95153647D01*
X120293115Y-95220686D01*
X120240311Y-95266441D01*
X120189266Y-95277646D01*
X117886211Y-95286304D01*
X117819098Y-95266872D01*
X117773145Y-95214240D01*
X117762942Y-95145119D01*
X117778356Y-95100309D01*
X117816503Y-95034237D01*
X117845500Y-94926018D01*
X117845500Y-94813982D01*
X117816503Y-94705763D01*
X117760485Y-94608737D01*
X117687849Y-94536101D01*
X117654365Y-94474777D01*
X117652800Y-94460382D01*
X117652800Y-93819999D01*
X120192064Y-93886821D01*
G37*
%TD.AperFunction*%
%TD*%
%TA.AperFunction,Conductor*%
%TO.N,3V3*%
G36*
X136205839Y-83959684D02*
G01*
X136251594Y-84012488D01*
X136262800Y-84063999D01*
X136262800Y-85494086D01*
X136243115Y-85561125D01*
X136190311Y-85606880D01*
X136136902Y-85618071D01*
X134394714Y-85591404D01*
X134394714Y-85591405D01*
X134382800Y-83939999D01*
X136138800Y-83939999D01*
X136205839Y-83959684D01*
G37*
%TD.AperFunction*%
%TD*%
%TA.AperFunction,Conductor*%
%TO.N,3V3*%
G36*
X136612895Y-90814215D02*
G01*
X136624516Y-90812079D01*
X136646494Y-90821096D01*
X136669768Y-90825862D01*
X136678223Y-90834113D01*
X136689157Y-90838599D01*
X136702773Y-90858069D01*
X136719774Y-90874660D01*
X136723020Y-90887023D01*
X136729198Y-90895857D01*
X136729872Y-90913115D01*
X136735676Y-90935215D01*
X136737254Y-91926215D01*
X136717676Y-91993285D01*
X136664945Y-92039124D01*
X136610828Y-92050388D01*
X133562800Y-91990740D01*
X133562800Y-91959999D01*
X132502800Y-91969999D01*
X132499054Y-92137306D01*
X132423791Y-92062043D01*
X132326765Y-92006025D01*
X132218546Y-91977028D01*
X132106510Y-91977028D01*
X131998291Y-92006025D01*
X131998288Y-92006026D01*
X131901268Y-92062041D01*
X131901262Y-92062045D01*
X131822045Y-92141262D01*
X131822041Y-92141268D01*
X131766026Y-92238288D01*
X131766025Y-92238291D01*
X131737028Y-92346510D01*
X131737028Y-92458546D01*
X131766025Y-92566765D01*
X131822043Y-92663791D01*
X131901265Y-92743013D01*
X131998291Y-92799031D01*
X132106510Y-92828028D01*
X132106512Y-92828028D01*
X132218544Y-92828028D01*
X132218546Y-92828028D01*
X132326765Y-92799031D01*
X132423791Y-92743013D01*
X132486906Y-92679897D01*
X132472800Y-93309999D01*
X132505978Y-93311216D01*
X132512509Y-96067419D01*
X132492983Y-96134505D01*
X132440288Y-96180385D01*
X132390231Y-96191701D01*
X131200731Y-96208222D01*
X131133425Y-96189470D01*
X131086941Y-96137307D01*
X131075028Y-96082076D01*
X131084922Y-95514141D01*
X131105771Y-95447459D01*
X131159364Y-95402630D01*
X131176788Y-95396537D01*
X131214237Y-95386503D01*
X131311263Y-95330485D01*
X131390485Y-95251263D01*
X131446503Y-95154237D01*
X131475500Y-95046018D01*
X131475500Y-94933982D01*
X131446503Y-94825763D01*
X131390485Y-94728737D01*
X131311263Y-94649515D01*
X131246579Y-94612169D01*
X131214239Y-94593498D01*
X131214238Y-94593497D01*
X131214237Y-94593497D01*
X131212097Y-94592923D01*
X131195060Y-94588358D01*
X131135400Y-94551992D01*
X131104872Y-94489144D01*
X131103175Y-94466433D01*
X131122800Y-93339999D01*
X131016060Y-93339999D01*
X130949021Y-93320314D01*
X130903266Y-93267510D01*
X130892062Y-93216742D01*
X130888751Y-92663787D01*
X130882866Y-91681125D01*
X130884718Y-91659033D01*
X130995429Y-91026132D01*
X131026370Y-90963488D01*
X131086269Y-90927516D01*
X131117574Y-90923499D01*
X136323509Y-90923499D01*
X136323510Y-90923499D01*
X136413874Y-90899285D01*
X136438088Y-90892798D01*
X136540815Y-90833488D01*
X136543257Y-90831045D01*
X136555799Y-90824715D01*
X136579162Y-90820418D01*
X136601319Y-90811845D01*
X136612895Y-90814215D01*
G37*
%TD.AperFunction*%
%TA.AperFunction,Conductor*%
G36*
X133634453Y-83916972D02*
G01*
X134382790Y-83939999D01*
X134382800Y-83939999D01*
X134394714Y-85591405D01*
X134404341Y-86925684D01*
X136143319Y-86895092D01*
X136210694Y-86913595D01*
X136257371Y-86965586D01*
X136269500Y-87019073D01*
X136269500Y-87125891D01*
X136303608Y-87253187D01*
X136336554Y-87310250D01*
X136369500Y-87367314D01*
X136462686Y-87460500D01*
X136576814Y-87526392D01*
X136638560Y-87542936D01*
X136698220Y-87579301D01*
X136728749Y-87642148D01*
X136730466Y-87662514D01*
X136733097Y-89315439D01*
X136713519Y-89382509D01*
X136696778Y-89403317D01*
X136113917Y-89986180D01*
X136052594Y-90019665D01*
X136026236Y-90022499D01*
X131246592Y-90022499D01*
X131179553Y-90002814D01*
X131133798Y-89950010D01*
X131123344Y-89884869D01*
X131265022Y-88603984D01*
X135184499Y-88603984D01*
X135184499Y-88716020D01*
X135213496Y-88824239D01*
X135269514Y-88921265D01*
X135348736Y-89000487D01*
X135445762Y-89056505D01*
X135553981Y-89085502D01*
X135553983Y-89085502D01*
X135666015Y-89085502D01*
X135666017Y-89085502D01*
X135774236Y-89056505D01*
X135871262Y-89000487D01*
X135950484Y-88921265D01*
X136006502Y-88824239D01*
X136035499Y-88716020D01*
X136035499Y-88603984D01*
X136006502Y-88495765D01*
X135950484Y-88398739D01*
X135871262Y-88319517D01*
X135774236Y-88263499D01*
X135666017Y-88234502D01*
X135553981Y-88234502D01*
X135445762Y-88263499D01*
X135445759Y-88263500D01*
X135348739Y-88319515D01*
X135348733Y-88319519D01*
X135269516Y-88398736D01*
X135269512Y-88398742D01*
X135213497Y-88495762D01*
X135213496Y-88495765D01*
X135184499Y-88603984D01*
X131265022Y-88603984D01*
X131350592Y-87830366D01*
X131377527Y-87765898D01*
X131435041Y-87726225D01*
X131473840Y-87719999D01*
X133172799Y-87719999D01*
X133172800Y-87719999D01*
X133152800Y-86309999D01*
X133029820Y-86308130D01*
X129258470Y-86250844D01*
X129258800Y-86201202D01*
X129710000Y-86229999D01*
X129799243Y-84768112D01*
X131735129Y-84827908D01*
X131802798Y-84829999D01*
X131802798Y-84829998D01*
X131802800Y-84829999D01*
X131785490Y-83990506D01*
X131803789Y-83923079D01*
X131855638Y-83876245D01*
X131913275Y-83864013D01*
X133634453Y-83916972D01*
G37*
%TD.AperFunction*%
%TD*%
%TA.AperFunction,Conductor*%
%TO.N,3V3*%
G36*
X130062155Y-79420185D02*
G01*
X130107910Y-79472989D01*
X130118886Y-79532056D01*
X129799243Y-84768111D01*
X129710000Y-86229999D01*
X124858664Y-85920374D01*
X124854425Y-85920103D01*
X124852556Y-85869084D01*
X124852762Y-85868273D01*
X124852475Y-85865279D01*
X124833200Y-82618977D01*
X124852486Y-82551822D01*
X124905018Y-82505754D01*
X124974116Y-82495401D01*
X125037843Y-82524048D01*
X125044879Y-82530560D01*
X125049531Y-82535212D01*
X125114788Y-82600469D01*
X125114791Y-82600470D01*
X125114794Y-82600473D01*
X125194706Y-82646611D01*
X125194707Y-82646611D01*
X125194712Y-82646614D01*
X125283856Y-82670500D01*
X125283858Y-82670500D01*
X125376142Y-82670500D01*
X125376144Y-82670500D01*
X125465288Y-82646614D01*
X125545212Y-82600469D01*
X125610469Y-82535212D01*
X125656614Y-82455288D01*
X125680500Y-82366144D01*
X125680500Y-82273856D01*
X125656614Y-82184712D01*
X125636296Y-82149520D01*
X125610473Y-82104794D01*
X125610470Y-82104791D01*
X125610469Y-82104788D01*
X125545212Y-82039531D01*
X125545209Y-82039529D01*
X125545205Y-82039526D01*
X125465293Y-81993388D01*
X125465290Y-81993387D01*
X125465289Y-81993386D01*
X125465288Y-81993386D01*
X125376144Y-81969500D01*
X125283856Y-81969500D01*
X125194712Y-81993386D01*
X125194711Y-81993386D01*
X125194709Y-81993387D01*
X125194706Y-81993388D01*
X125114794Y-82039526D01*
X125114785Y-82039533D01*
X125043784Y-82110535D01*
X125042341Y-82109092D01*
X124994743Y-82143838D01*
X124924996Y-82147983D01*
X124865511Y-82115204D01*
X124830000Y-82080000D01*
X119126510Y-82095523D01*
X119094081Y-82091298D01*
X119012728Y-82069500D01*
X119012727Y-82069500D01*
X118907273Y-82069500D01*
X118907267Y-82069500D01*
X118822506Y-82092211D01*
X118790752Y-82096436D01*
X106584338Y-82129661D01*
X106517245Y-82110159D01*
X106471346Y-82057479D01*
X106460000Y-82005661D01*
X106460000Y-80737273D01*
X115039500Y-80737273D01*
X115039500Y-80842727D01*
X115066793Y-80944587D01*
X115119520Y-81035913D01*
X115194087Y-81110480D01*
X115285413Y-81163207D01*
X115387273Y-81190500D01*
X115387275Y-81190500D01*
X115492725Y-81190500D01*
X115492727Y-81190500D01*
X115594587Y-81163207D01*
X115685913Y-81110480D01*
X115760480Y-81035913D01*
X115813207Y-80944587D01*
X115840500Y-80842727D01*
X115840500Y-80737273D01*
X115813207Y-80635413D01*
X115762319Y-80547273D01*
X123349500Y-80547273D01*
X123349500Y-80652727D01*
X123376793Y-80754587D01*
X123429520Y-80845913D01*
X123504087Y-80920480D01*
X123595413Y-80973207D01*
X123697273Y-81000500D01*
X123697275Y-81000500D01*
X123802725Y-81000500D01*
X123802727Y-81000500D01*
X123904587Y-80973207D01*
X123995913Y-80920480D01*
X124070480Y-80845913D01*
X124123207Y-80754587D01*
X124150500Y-80652727D01*
X124150500Y-80547273D01*
X124123207Y-80445413D01*
X124070480Y-80354087D01*
X123995913Y-80279520D01*
X123904587Y-80226793D01*
X123802727Y-80199500D01*
X123697273Y-80199500D01*
X123595413Y-80226793D01*
X123595410Y-80226794D01*
X123504085Y-80279521D01*
X123429521Y-80354085D01*
X123376794Y-80445410D01*
X123376793Y-80445413D01*
X123349500Y-80547273D01*
X115762319Y-80547273D01*
X115760480Y-80544087D01*
X115685913Y-80469520D01*
X115594587Y-80416793D01*
X115492727Y-80389500D01*
X115387273Y-80389500D01*
X115285413Y-80416793D01*
X115285410Y-80416794D01*
X115194085Y-80469521D01*
X115119521Y-80544085D01*
X115066794Y-80635410D01*
X115066793Y-80635413D01*
X115039500Y-80737273D01*
X106460000Y-80737273D01*
X106460000Y-79524500D01*
X106479685Y-79457461D01*
X106532489Y-79411706D01*
X106584000Y-79400500D01*
X129995116Y-79400500D01*
X130062155Y-79420185D01*
G37*
%TD.AperFunction*%
%TD*%
%TA.AperFunction,Conductor*%
%TO.N,3V3_Ref*%
G36*
X123835712Y-86167044D02*
G01*
X123835712Y-86167045D01*
X123806715Y-86275264D01*
X123806715Y-86387300D01*
X123835712Y-86495519D01*
X123891730Y-86592545D01*
X123970952Y-86671767D01*
X124067978Y-86727785D01*
X124176197Y-86756782D01*
X124176199Y-86756782D01*
X124229527Y-86756782D01*
X124237367Y-86759084D01*
X124245440Y-86757807D01*
X124270406Y-86768785D01*
X124296566Y-86776467D01*
X124301916Y-86782641D01*
X124309399Y-86785932D01*
X124324467Y-86808666D01*
X124342321Y-86829271D01*
X124344477Y-86838858D01*
X124347999Y-86844171D01*
X124353515Y-86879032D01*
X124356523Y-87092140D01*
X124339923Y-87155888D01*
X124311132Y-87205757D01*
X124311130Y-87205762D01*
X124282133Y-87313981D01*
X124282133Y-87426016D01*
X124311130Y-87534235D01*
X124311130Y-87534236D01*
X124347914Y-87597949D01*
X124364514Y-87658198D01*
X124401058Y-90246620D01*
X124382321Y-90313930D01*
X124330169Y-90360426D01*
X124279432Y-90372348D01*
X123861862Y-90380302D01*
X123794459Y-90361897D01*
X123771819Y-90344005D01*
X123698748Y-90270934D01*
X123698746Y-90270932D01*
X123641682Y-90237986D01*
X123584619Y-90205040D01*
X123520971Y-90187986D01*
X123457324Y-90170932D01*
X123325540Y-90170932D01*
X123198244Y-90205040D01*
X123084118Y-90270932D01*
X123084114Y-90270935D01*
X122992865Y-90362183D01*
X122966933Y-90376342D01*
X122942385Y-90392789D01*
X122934434Y-90394087D01*
X122931542Y-90395667D01*
X122907553Y-90398478D01*
X122891006Y-90398794D01*
X122826639Y-90382204D01*
X122794237Y-90363497D01*
X122686018Y-90334500D01*
X122573982Y-90334500D01*
X122465763Y-90363497D01*
X122465760Y-90363498D01*
X122415709Y-90392394D01*
X122356074Y-90408983D01*
X121806222Y-90419457D01*
X121771768Y-90415254D01*
X121707389Y-90398004D01*
X121707388Y-90398004D01*
X121575604Y-90398004D01*
X121575602Y-90398004D01*
X121486371Y-90421913D01*
X121456640Y-90426116D01*
X119152799Y-90469999D01*
X119122744Y-93858681D01*
X117652800Y-93819999D01*
X117652800Y-94460385D01*
X117651532Y-94448723D01*
X117647808Y-92858533D01*
X117667336Y-92791449D01*
X117720033Y-92745571D01*
X117739704Y-92738472D01*
X117814237Y-92718502D01*
X117911263Y-92662484D01*
X117990485Y-92583262D01*
X118046503Y-92486236D01*
X118075500Y-92378017D01*
X118075500Y-92265981D01*
X118046503Y-92157762D01*
X117990485Y-92060736D01*
X117911263Y-91981514D01*
X117819553Y-91928565D01*
X117771337Y-91877998D01*
X117758115Y-91809391D01*
X117784083Y-91744526D01*
X117819550Y-91713793D01*
X117865192Y-91687442D01*
X117944414Y-91608220D01*
X118000432Y-91511194D01*
X118029429Y-91402975D01*
X118029429Y-91290939D01*
X118000432Y-91182720D01*
X117944414Y-91085694D01*
X117865192Y-91006472D01*
X117802321Y-90970173D01*
X117754106Y-90919607D01*
X117740883Y-90851000D01*
X117766851Y-90786135D01*
X117776641Y-90775105D01*
X117781258Y-90770487D01*
X117781263Y-90770485D01*
X117860485Y-90691263D01*
X117916503Y-90594237D01*
X117945500Y-90486018D01*
X117945500Y-90373982D01*
X117916503Y-90265763D01*
X117860485Y-90168737D01*
X117781263Y-90089515D01*
X117702964Y-90044309D01*
X117654749Y-89993741D01*
X117640966Y-89937217D01*
X117638886Y-89048921D01*
X117645162Y-89027360D01*
X117646830Y-89004962D01*
X117654739Y-88994460D01*
X117658413Y-88981840D01*
X117675351Y-88967093D01*
X117688865Y-88949151D01*
X117704842Y-88941418D01*
X117711110Y-88935962D01*
X117719891Y-88932327D01*
X117725251Y-88930345D01*
X117814237Y-88906502D01*
X117857813Y-88881342D01*
X117867693Y-88877691D01*
X117886895Y-88876373D01*
X117910687Y-88869999D01*
X120138431Y-88869999D01*
X120205470Y-88889684D01*
X120213648Y-88895434D01*
X120232819Y-88906502D01*
X120310763Y-88951503D01*
X120418982Y-88980500D01*
X120418984Y-88980500D01*
X120531016Y-88980500D01*
X120531018Y-88980500D01*
X120639237Y-88951503D01*
X120736263Y-88895485D01*
X120736263Y-88895484D01*
X120743302Y-88891421D01*
X120743968Y-88892574D01*
X120801250Y-88870429D01*
X120811569Y-88869999D01*
X122334980Y-88869999D01*
X122342556Y-86263868D01*
X123842080Y-86156013D01*
X123835712Y-86167044D01*
G37*
%TD.AperFunction*%
%TD*%
%TA.AperFunction,Conductor*%
%TO.N,3V3_Ref*%
G36*
X115373731Y-87658085D02*
G01*
X115354546Y-87725269D01*
X115302084Y-87771416D01*
X115233001Y-87781874D01*
X115225361Y-87780336D01*
X115221584Y-87779839D01*
X115221583Y-87779839D01*
X115109547Y-87779839D01*
X115001328Y-87808836D01*
X115001325Y-87808837D01*
X114904305Y-87864852D01*
X114904299Y-87864856D01*
X114825082Y-87944073D01*
X114825078Y-87944079D01*
X114769063Y-88041099D01*
X114769062Y-88041102D01*
X114740065Y-88149321D01*
X114740065Y-88261357D01*
X114769062Y-88369576D01*
X114825080Y-88466602D01*
X114904302Y-88545824D01*
X115001328Y-88601842D01*
X115109547Y-88630839D01*
X115109549Y-88630839D01*
X115221579Y-88630839D01*
X115221583Y-88630839D01*
X115225758Y-88629720D01*
X115229418Y-88629806D01*
X115229639Y-88629778D01*
X115229643Y-88629812D01*
X115250306Y-88630302D01*
X115274588Y-88626627D01*
X115284617Y-88631117D01*
X115295604Y-88631378D01*
X115315944Y-88645143D01*
X115338358Y-88655178D01*
X115344367Y-88664377D01*
X115353469Y-88670537D01*
X115363137Y-88693111D01*
X115376569Y-88713673D01*
X115379097Y-88730375D01*
X115380977Y-88734764D01*
X115381852Y-88748570D01*
X115382674Y-88858969D01*
X115363489Y-88926153D01*
X115311027Y-88972300D01*
X115258677Y-88983892D01*
X115183435Y-88983892D01*
X115075216Y-89012889D01*
X115075213Y-89012890D01*
X114978193Y-89068905D01*
X114978187Y-89068909D01*
X114898970Y-89148126D01*
X114898966Y-89148132D01*
X114842951Y-89245152D01*
X114842950Y-89245155D01*
X114813953Y-89353374D01*
X114813953Y-89465410D01*
X114842950Y-89573629D01*
X114898968Y-89670655D01*
X114978190Y-89749877D01*
X115075216Y-89805895D01*
X115183435Y-89834892D01*
X115183437Y-89834892D01*
X115266862Y-89834892D01*
X115333901Y-89854577D01*
X115379656Y-89907381D01*
X115390859Y-89957969D01*
X115403828Y-91699577D01*
X115384643Y-91766761D01*
X115332181Y-91812908D01*
X115279831Y-91824500D01*
X115233982Y-91824500D01*
X115125763Y-91853497D01*
X115125760Y-91853498D01*
X115028740Y-91909513D01*
X115028734Y-91909517D01*
X114949517Y-91988734D01*
X114949513Y-91988740D01*
X114893498Y-92085760D01*
X114893497Y-92085763D01*
X114864500Y-92193982D01*
X114864500Y-92306018D01*
X114893497Y-92414237D01*
X114949515Y-92511263D01*
X115028737Y-92590485D01*
X115125763Y-92646503D01*
X115233982Y-92675500D01*
X115233984Y-92675500D01*
X115288015Y-92675500D01*
X115355054Y-92695185D01*
X115400809Y-92747989D01*
X115412012Y-92798577D01*
X115431870Y-95465076D01*
X115412685Y-95532260D01*
X115360223Y-95578407D01*
X115307873Y-95589999D01*
X113785618Y-95589999D01*
X113718579Y-95570314D01*
X113672824Y-95517510D01*
X113661624Y-95467186D01*
X113661604Y-95465076D01*
X113575349Y-86456266D01*
X115364728Y-86448987D01*
X115373731Y-87658085D01*
G37*
%TD.AperFunction*%
%TD*%
%TA.AperFunction,Conductor*%
%TO.N,3V3_Ref*%
G36*
X108805789Y-98366896D02*
G01*
X108784483Y-98433437D01*
X108730584Y-98477897D01*
X108679679Y-98487866D01*
X108013607Y-98476332D01*
X107946918Y-98455490D01*
X107908367Y-98414351D01*
X107880969Y-98366896D01*
X107870485Y-98348737D01*
X107791263Y-98269515D01*
X107694237Y-98213497D01*
X107586018Y-98184500D01*
X107473982Y-98184500D01*
X107365763Y-98213497D01*
X107365760Y-98213498D01*
X107268740Y-98269513D01*
X107268734Y-98269517D01*
X107189517Y-98348734D01*
X107189513Y-98348740D01*
X107161247Y-98397697D01*
X107110679Y-98445911D01*
X107051714Y-98459676D01*
X106492814Y-98449998D01*
X106200929Y-98452333D01*
X106133734Y-98433185D01*
X106087558Y-98380749D01*
X106075938Y-98327986D01*
X106082796Y-95933096D01*
X106099405Y-95871462D01*
X106126503Y-95824528D01*
X106155500Y-95716309D01*
X106155500Y-95604273D01*
X106126503Y-95496054D01*
X106100964Y-95451819D01*
X106084352Y-95389469D01*
X106091908Y-92750335D01*
X106110000Y-92750000D01*
X106149936Y-91802930D01*
X106166503Y-91774237D01*
X106195500Y-91666018D01*
X106195500Y-91553982D01*
X106166503Y-91445763D01*
X106165100Y-91443333D01*
X106258687Y-89223982D01*
X106634500Y-89223982D01*
X106634500Y-89336018D01*
X106663497Y-89444237D01*
X106719515Y-89541263D01*
X106798737Y-89620485D01*
X106895763Y-89676503D01*
X107003982Y-89705500D01*
X107003984Y-89705500D01*
X107116016Y-89705500D01*
X107116018Y-89705500D01*
X107224237Y-89676503D01*
X107321263Y-89620485D01*
X107400485Y-89541263D01*
X107456503Y-89444237D01*
X107485500Y-89336018D01*
X107485500Y-89223982D01*
X107456503Y-89115763D01*
X107400485Y-89018737D01*
X107321263Y-88939515D01*
X107224237Y-88883497D01*
X107116018Y-88854500D01*
X107003982Y-88854500D01*
X106895763Y-88883497D01*
X106895760Y-88883498D01*
X106798740Y-88939513D01*
X106798734Y-88939517D01*
X106719517Y-89018734D01*
X106719513Y-89018740D01*
X106663498Y-89115760D01*
X106663497Y-89115763D01*
X106634500Y-89223982D01*
X106258687Y-89223982D01*
X106351458Y-87023982D01*
X107064500Y-87023982D01*
X107064500Y-87136018D01*
X107093497Y-87244237D01*
X107149515Y-87341263D01*
X107228737Y-87420485D01*
X107325763Y-87476503D01*
X107433982Y-87505500D01*
X107433984Y-87505500D01*
X107546016Y-87505500D01*
X107546018Y-87505500D01*
X107654237Y-87476503D01*
X107751263Y-87420485D01*
X107830485Y-87341263D01*
X107886503Y-87244237D01*
X107915500Y-87136018D01*
X107915500Y-87023982D01*
X107886503Y-86915763D01*
X107830485Y-86818737D01*
X107751263Y-86739515D01*
X107654237Y-86683497D01*
X107546018Y-86654500D01*
X107433982Y-86654500D01*
X107325763Y-86683497D01*
X107325760Y-86683498D01*
X107228740Y-86739513D01*
X107228734Y-86739517D01*
X107149517Y-86818734D01*
X107149513Y-86818740D01*
X107093498Y-86915760D01*
X107093497Y-86915763D01*
X107064500Y-87023982D01*
X106351458Y-87023982D01*
X106374163Y-86485558D01*
X109094603Y-86474493D01*
X108805789Y-98366896D01*
G37*
%TD.AperFunction*%
%TD*%
M02*
