%TF.GenerationSoftware,KiCad,Pcbnew,9.0.3*%
%TF.CreationDate,2026-02-10T01:55:30-05:00*%
%TF.ProjectId,WSG_2.0,5753475f-322e-4302-9e6b-696361645f70,rev?*%
%TF.SameCoordinates,Original*%
%TF.FileFunction,Legend,Bot*%
%TF.FilePolarity,Positive*%
%FSLAX46Y46*%
G04 Gerber Fmt 4.6, Leading zero omitted, Abs format (unit mm)*
G04 Created by KiCad (PCBNEW 9.0.3) date 2026-02-10 01:55:30*
%MOMM*%
%LPD*%
G01*
G04 APERTURE LIST*
%ADD10C,0.150000*%
%ADD11C,0.125000*%
%ADD12C,0.100000*%
%ADD13C,0.120000*%
%ADD14C,0.152400*%
%ADD15C,0.200000*%
%ADD16C,0.250000*%
G04 APERTURE END LIST*
D10*
X93504173Y-93567342D02*
X93561316Y-93538771D01*
X93561316Y-93538771D02*
X93647030Y-93538771D01*
X93647030Y-93538771D02*
X93732744Y-93567342D01*
X93732744Y-93567342D02*
X93789887Y-93624485D01*
X93789887Y-93624485D02*
X93818458Y-93681628D01*
X93818458Y-93681628D02*
X93847030Y-93795914D01*
X93847030Y-93795914D02*
X93847030Y-93881628D01*
X93847030Y-93881628D02*
X93818458Y-93995914D01*
X93818458Y-93995914D02*
X93789887Y-94053057D01*
X93789887Y-94053057D02*
X93732744Y-94110200D01*
X93732744Y-94110200D02*
X93647030Y-94138771D01*
X93647030Y-94138771D02*
X93589887Y-94138771D01*
X93589887Y-94138771D02*
X93504173Y-94110200D01*
X93504173Y-94110200D02*
X93475601Y-94081628D01*
X93475601Y-94081628D02*
X93475601Y-93881628D01*
X93475601Y-93881628D02*
X93589887Y-93881628D01*
X93218458Y-94138771D02*
X93218458Y-93538771D01*
X93218458Y-93538771D02*
X92875601Y-94138771D01*
X92875601Y-94138771D02*
X92875601Y-93538771D01*
X92589887Y-94138771D02*
X92589887Y-93538771D01*
X92589887Y-93538771D02*
X92447030Y-93538771D01*
X92447030Y-93538771D02*
X92361316Y-93567342D01*
X92361316Y-93567342D02*
X92304173Y-93624485D01*
X92304173Y-93624485D02*
X92275602Y-93681628D01*
X92275602Y-93681628D02*
X92247030Y-93795914D01*
X92247030Y-93795914D02*
X92247030Y-93881628D01*
X92247030Y-93881628D02*
X92275602Y-93995914D01*
X92275602Y-93995914D02*
X92304173Y-94053057D01*
X92304173Y-94053057D02*
X92361316Y-94110200D01*
X92361316Y-94110200D02*
X92447030Y-94138771D01*
X92447030Y-94138771D02*
X92589887Y-94138771D01*
X100567030Y-94250200D02*
X100481316Y-94278771D01*
X100481316Y-94278771D02*
X100338458Y-94278771D01*
X100338458Y-94278771D02*
X100281316Y-94250200D01*
X100281316Y-94250200D02*
X100252744Y-94221628D01*
X100252744Y-94221628D02*
X100224173Y-94164485D01*
X100224173Y-94164485D02*
X100224173Y-94107342D01*
X100224173Y-94107342D02*
X100252744Y-94050200D01*
X100252744Y-94050200D02*
X100281316Y-94021628D01*
X100281316Y-94021628D02*
X100338458Y-93993057D01*
X100338458Y-93993057D02*
X100452744Y-93964485D01*
X100452744Y-93964485D02*
X100509887Y-93935914D01*
X100509887Y-93935914D02*
X100538458Y-93907342D01*
X100538458Y-93907342D02*
X100567030Y-93850200D01*
X100567030Y-93850200D02*
X100567030Y-93793057D01*
X100567030Y-93793057D02*
X100538458Y-93735914D01*
X100538458Y-93735914D02*
X100509887Y-93707342D01*
X100509887Y-93707342D02*
X100452744Y-93678771D01*
X100452744Y-93678771D02*
X100309887Y-93678771D01*
X100309887Y-93678771D02*
X100224173Y-93707342D01*
X99652744Y-93707342D02*
X99709887Y-93678771D01*
X99709887Y-93678771D02*
X99795601Y-93678771D01*
X99795601Y-93678771D02*
X99881315Y-93707342D01*
X99881315Y-93707342D02*
X99938458Y-93764485D01*
X99938458Y-93764485D02*
X99967029Y-93821628D01*
X99967029Y-93821628D02*
X99995601Y-93935914D01*
X99995601Y-93935914D02*
X99995601Y-94021628D01*
X99995601Y-94021628D02*
X99967029Y-94135914D01*
X99967029Y-94135914D02*
X99938458Y-94193057D01*
X99938458Y-94193057D02*
X99881315Y-94250200D01*
X99881315Y-94250200D02*
X99795601Y-94278771D01*
X99795601Y-94278771D02*
X99738458Y-94278771D01*
X99738458Y-94278771D02*
X99652744Y-94250200D01*
X99652744Y-94250200D02*
X99624172Y-94221628D01*
X99624172Y-94221628D02*
X99624172Y-94021628D01*
X99624172Y-94021628D02*
X99738458Y-94021628D01*
X99424172Y-93678771D02*
X99052744Y-93678771D01*
X99052744Y-93678771D02*
X99252744Y-93907342D01*
X99252744Y-93907342D02*
X99167029Y-93907342D01*
X99167029Y-93907342D02*
X99109887Y-93935914D01*
X99109887Y-93935914D02*
X99081315Y-93964485D01*
X99081315Y-93964485D02*
X99052744Y-94021628D01*
X99052744Y-94021628D02*
X99052744Y-94164485D01*
X99052744Y-94164485D02*
X99081315Y-94221628D01*
X99081315Y-94221628D02*
X99109887Y-94250200D01*
X99109887Y-94250200D02*
X99167029Y-94278771D01*
X99167029Y-94278771D02*
X99338458Y-94278771D01*
X99338458Y-94278771D02*
X99395601Y-94250200D01*
X99395601Y-94250200D02*
X99424172Y-94221628D01*
X98938458Y-94335914D02*
X98481315Y-94335914D01*
X98367029Y-94107342D02*
X98081315Y-94107342D01*
X98424172Y-94278771D02*
X98224172Y-93678771D01*
X98224172Y-93678771D02*
X98024172Y-94278771D01*
X102807030Y-90700200D02*
X102721316Y-90728771D01*
X102721316Y-90728771D02*
X102578458Y-90728771D01*
X102578458Y-90728771D02*
X102521316Y-90700200D01*
X102521316Y-90700200D02*
X102492744Y-90671628D01*
X102492744Y-90671628D02*
X102464173Y-90614485D01*
X102464173Y-90614485D02*
X102464173Y-90557342D01*
X102464173Y-90557342D02*
X102492744Y-90500200D01*
X102492744Y-90500200D02*
X102521316Y-90471628D01*
X102521316Y-90471628D02*
X102578458Y-90443057D01*
X102578458Y-90443057D02*
X102692744Y-90414485D01*
X102692744Y-90414485D02*
X102749887Y-90385914D01*
X102749887Y-90385914D02*
X102778458Y-90357342D01*
X102778458Y-90357342D02*
X102807030Y-90300200D01*
X102807030Y-90300200D02*
X102807030Y-90243057D01*
X102807030Y-90243057D02*
X102778458Y-90185914D01*
X102778458Y-90185914D02*
X102749887Y-90157342D01*
X102749887Y-90157342D02*
X102692744Y-90128771D01*
X102692744Y-90128771D02*
X102549887Y-90128771D01*
X102549887Y-90128771D02*
X102464173Y-90157342D01*
X101892744Y-90157342D02*
X101949887Y-90128771D01*
X101949887Y-90128771D02*
X102035601Y-90128771D01*
X102035601Y-90128771D02*
X102121315Y-90157342D01*
X102121315Y-90157342D02*
X102178458Y-90214485D01*
X102178458Y-90214485D02*
X102207029Y-90271628D01*
X102207029Y-90271628D02*
X102235601Y-90385914D01*
X102235601Y-90385914D02*
X102235601Y-90471628D01*
X102235601Y-90471628D02*
X102207029Y-90585914D01*
X102207029Y-90585914D02*
X102178458Y-90643057D01*
X102178458Y-90643057D02*
X102121315Y-90700200D01*
X102121315Y-90700200D02*
X102035601Y-90728771D01*
X102035601Y-90728771D02*
X101978458Y-90728771D01*
X101978458Y-90728771D02*
X101892744Y-90700200D01*
X101892744Y-90700200D02*
X101864172Y-90671628D01*
X101864172Y-90671628D02*
X101864172Y-90471628D01*
X101864172Y-90471628D02*
X101978458Y-90471628D01*
X101635601Y-90185914D02*
X101607029Y-90157342D01*
X101607029Y-90157342D02*
X101549887Y-90128771D01*
X101549887Y-90128771D02*
X101407029Y-90128771D01*
X101407029Y-90128771D02*
X101349887Y-90157342D01*
X101349887Y-90157342D02*
X101321315Y-90185914D01*
X101321315Y-90185914D02*
X101292744Y-90243057D01*
X101292744Y-90243057D02*
X101292744Y-90300200D01*
X101292744Y-90300200D02*
X101321315Y-90385914D01*
X101321315Y-90385914D02*
X101664172Y-90728771D01*
X101664172Y-90728771D02*
X101292744Y-90728771D01*
X101178458Y-90785914D02*
X100721315Y-90785914D01*
X100378457Y-90414485D02*
X100292743Y-90443057D01*
X100292743Y-90443057D02*
X100264172Y-90471628D01*
X100264172Y-90471628D02*
X100235600Y-90528771D01*
X100235600Y-90528771D02*
X100235600Y-90614485D01*
X100235600Y-90614485D02*
X100264172Y-90671628D01*
X100264172Y-90671628D02*
X100292743Y-90700200D01*
X100292743Y-90700200D02*
X100349886Y-90728771D01*
X100349886Y-90728771D02*
X100578457Y-90728771D01*
X100578457Y-90728771D02*
X100578457Y-90128771D01*
X100578457Y-90128771D02*
X100378457Y-90128771D01*
X100378457Y-90128771D02*
X100321315Y-90157342D01*
X100321315Y-90157342D02*
X100292743Y-90185914D01*
X100292743Y-90185914D02*
X100264172Y-90243057D01*
X100264172Y-90243057D02*
X100264172Y-90300200D01*
X100264172Y-90300200D02*
X100292743Y-90357342D01*
X100292743Y-90357342D02*
X100321315Y-90385914D01*
X100321315Y-90385914D02*
X100378457Y-90414485D01*
X100378457Y-90414485D02*
X100578457Y-90414485D01*
X100197030Y-87340200D02*
X100111316Y-87368771D01*
X100111316Y-87368771D02*
X99968458Y-87368771D01*
X99968458Y-87368771D02*
X99911316Y-87340200D01*
X99911316Y-87340200D02*
X99882744Y-87311628D01*
X99882744Y-87311628D02*
X99854173Y-87254485D01*
X99854173Y-87254485D02*
X99854173Y-87197342D01*
X99854173Y-87197342D02*
X99882744Y-87140200D01*
X99882744Y-87140200D02*
X99911316Y-87111628D01*
X99911316Y-87111628D02*
X99968458Y-87083057D01*
X99968458Y-87083057D02*
X100082744Y-87054485D01*
X100082744Y-87054485D02*
X100139887Y-87025914D01*
X100139887Y-87025914D02*
X100168458Y-86997342D01*
X100168458Y-86997342D02*
X100197030Y-86940200D01*
X100197030Y-86940200D02*
X100197030Y-86883057D01*
X100197030Y-86883057D02*
X100168458Y-86825914D01*
X100168458Y-86825914D02*
X100139887Y-86797342D01*
X100139887Y-86797342D02*
X100082744Y-86768771D01*
X100082744Y-86768771D02*
X99939887Y-86768771D01*
X99939887Y-86768771D02*
X99854173Y-86797342D01*
X99282744Y-86797342D02*
X99339887Y-86768771D01*
X99339887Y-86768771D02*
X99425601Y-86768771D01*
X99425601Y-86768771D02*
X99511315Y-86797342D01*
X99511315Y-86797342D02*
X99568458Y-86854485D01*
X99568458Y-86854485D02*
X99597029Y-86911628D01*
X99597029Y-86911628D02*
X99625601Y-87025914D01*
X99625601Y-87025914D02*
X99625601Y-87111628D01*
X99625601Y-87111628D02*
X99597029Y-87225914D01*
X99597029Y-87225914D02*
X99568458Y-87283057D01*
X99568458Y-87283057D02*
X99511315Y-87340200D01*
X99511315Y-87340200D02*
X99425601Y-87368771D01*
X99425601Y-87368771D02*
X99368458Y-87368771D01*
X99368458Y-87368771D02*
X99282744Y-87340200D01*
X99282744Y-87340200D02*
X99254172Y-87311628D01*
X99254172Y-87311628D02*
X99254172Y-87111628D01*
X99254172Y-87111628D02*
X99368458Y-87111628D01*
X99025601Y-86825914D02*
X98997029Y-86797342D01*
X98997029Y-86797342D02*
X98939887Y-86768771D01*
X98939887Y-86768771D02*
X98797029Y-86768771D01*
X98797029Y-86768771D02*
X98739887Y-86797342D01*
X98739887Y-86797342D02*
X98711315Y-86825914D01*
X98711315Y-86825914D02*
X98682744Y-86883057D01*
X98682744Y-86883057D02*
X98682744Y-86940200D01*
X98682744Y-86940200D02*
X98711315Y-87025914D01*
X98711315Y-87025914D02*
X99054172Y-87368771D01*
X99054172Y-87368771D02*
X98682744Y-87368771D01*
X98568458Y-87425914D02*
X98111315Y-87425914D01*
X97997029Y-87197342D02*
X97711315Y-87197342D01*
X98054172Y-87368771D02*
X97854172Y-86768771D01*
X97854172Y-86768771D02*
X97654172Y-87368771D01*
D11*
X96000621Y-91782309D02*
X96238716Y-91782309D01*
X96238716Y-91782309D02*
X96262525Y-92020404D01*
X96262525Y-92020404D02*
X96238716Y-91996595D01*
X96238716Y-91996595D02*
X96191097Y-91972785D01*
X96191097Y-91972785D02*
X96072049Y-91972785D01*
X96072049Y-91972785D02*
X96024430Y-91996595D01*
X96024430Y-91996595D02*
X96000621Y-92020404D01*
X96000621Y-92020404D02*
X95976811Y-92068023D01*
X95976811Y-92068023D02*
X95976811Y-92187071D01*
X95976811Y-92187071D02*
X96000621Y-92234690D01*
X96000621Y-92234690D02*
X96024430Y-92258500D01*
X96024430Y-92258500D02*
X96072049Y-92282309D01*
X96072049Y-92282309D02*
X96191097Y-92282309D01*
X96191097Y-92282309D02*
X96238716Y-92258500D01*
X96238716Y-92258500D02*
X96262525Y-92234690D01*
X95833954Y-91782309D02*
X95667288Y-92282309D01*
X95667288Y-92282309D02*
X95500621Y-91782309D01*
D10*
X97367030Y-95110200D02*
X97281316Y-95138771D01*
X97281316Y-95138771D02*
X97138458Y-95138771D01*
X97138458Y-95138771D02*
X97081316Y-95110200D01*
X97081316Y-95110200D02*
X97052744Y-95081628D01*
X97052744Y-95081628D02*
X97024173Y-95024485D01*
X97024173Y-95024485D02*
X97024173Y-94967342D01*
X97024173Y-94967342D02*
X97052744Y-94910200D01*
X97052744Y-94910200D02*
X97081316Y-94881628D01*
X97081316Y-94881628D02*
X97138458Y-94853057D01*
X97138458Y-94853057D02*
X97252744Y-94824485D01*
X97252744Y-94824485D02*
X97309887Y-94795914D01*
X97309887Y-94795914D02*
X97338458Y-94767342D01*
X97338458Y-94767342D02*
X97367030Y-94710200D01*
X97367030Y-94710200D02*
X97367030Y-94653057D01*
X97367030Y-94653057D02*
X97338458Y-94595914D01*
X97338458Y-94595914D02*
X97309887Y-94567342D01*
X97309887Y-94567342D02*
X97252744Y-94538771D01*
X97252744Y-94538771D02*
X97109887Y-94538771D01*
X97109887Y-94538771D02*
X97024173Y-94567342D01*
X96452744Y-94567342D02*
X96509887Y-94538771D01*
X96509887Y-94538771D02*
X96595601Y-94538771D01*
X96595601Y-94538771D02*
X96681315Y-94567342D01*
X96681315Y-94567342D02*
X96738458Y-94624485D01*
X96738458Y-94624485D02*
X96767029Y-94681628D01*
X96767029Y-94681628D02*
X96795601Y-94795914D01*
X96795601Y-94795914D02*
X96795601Y-94881628D01*
X96795601Y-94881628D02*
X96767029Y-94995914D01*
X96767029Y-94995914D02*
X96738458Y-95053057D01*
X96738458Y-95053057D02*
X96681315Y-95110200D01*
X96681315Y-95110200D02*
X96595601Y-95138771D01*
X96595601Y-95138771D02*
X96538458Y-95138771D01*
X96538458Y-95138771D02*
X96452744Y-95110200D01*
X96452744Y-95110200D02*
X96424172Y-95081628D01*
X96424172Y-95081628D02*
X96424172Y-94881628D01*
X96424172Y-94881628D02*
X96538458Y-94881628D01*
X96224172Y-94538771D02*
X95852744Y-94538771D01*
X95852744Y-94538771D02*
X96052744Y-94767342D01*
X96052744Y-94767342D02*
X95967029Y-94767342D01*
X95967029Y-94767342D02*
X95909887Y-94795914D01*
X95909887Y-94795914D02*
X95881315Y-94824485D01*
X95881315Y-94824485D02*
X95852744Y-94881628D01*
X95852744Y-94881628D02*
X95852744Y-95024485D01*
X95852744Y-95024485D02*
X95881315Y-95081628D01*
X95881315Y-95081628D02*
X95909887Y-95110200D01*
X95909887Y-95110200D02*
X95967029Y-95138771D01*
X95967029Y-95138771D02*
X96138458Y-95138771D01*
X96138458Y-95138771D02*
X96195601Y-95110200D01*
X96195601Y-95110200D02*
X96224172Y-95081628D01*
X95738458Y-95195914D02*
X95281315Y-95195914D01*
X94938457Y-94824485D02*
X94852743Y-94853057D01*
X94852743Y-94853057D02*
X94824172Y-94881628D01*
X94824172Y-94881628D02*
X94795600Y-94938771D01*
X94795600Y-94938771D02*
X94795600Y-95024485D01*
X94795600Y-95024485D02*
X94824172Y-95081628D01*
X94824172Y-95081628D02*
X94852743Y-95110200D01*
X94852743Y-95110200D02*
X94909886Y-95138771D01*
X94909886Y-95138771D02*
X95138457Y-95138771D01*
X95138457Y-95138771D02*
X95138457Y-94538771D01*
X95138457Y-94538771D02*
X94938457Y-94538771D01*
X94938457Y-94538771D02*
X94881315Y-94567342D01*
X94881315Y-94567342D02*
X94852743Y-94595914D01*
X94852743Y-94595914D02*
X94824172Y-94653057D01*
X94824172Y-94653057D02*
X94824172Y-94710200D01*
X94824172Y-94710200D02*
X94852743Y-94767342D01*
X94852743Y-94767342D02*
X94881315Y-94795914D01*
X94881315Y-94795914D02*
X94938457Y-94824485D01*
X94938457Y-94824485D02*
X95138457Y-94824485D01*
X96827030Y-86770200D02*
X96741316Y-86798771D01*
X96741316Y-86798771D02*
X96598458Y-86798771D01*
X96598458Y-86798771D02*
X96541316Y-86770200D01*
X96541316Y-86770200D02*
X96512744Y-86741628D01*
X96512744Y-86741628D02*
X96484173Y-86684485D01*
X96484173Y-86684485D02*
X96484173Y-86627342D01*
X96484173Y-86627342D02*
X96512744Y-86570200D01*
X96512744Y-86570200D02*
X96541316Y-86541628D01*
X96541316Y-86541628D02*
X96598458Y-86513057D01*
X96598458Y-86513057D02*
X96712744Y-86484485D01*
X96712744Y-86484485D02*
X96769887Y-86455914D01*
X96769887Y-86455914D02*
X96798458Y-86427342D01*
X96798458Y-86427342D02*
X96827030Y-86370200D01*
X96827030Y-86370200D02*
X96827030Y-86313057D01*
X96827030Y-86313057D02*
X96798458Y-86255914D01*
X96798458Y-86255914D02*
X96769887Y-86227342D01*
X96769887Y-86227342D02*
X96712744Y-86198771D01*
X96712744Y-86198771D02*
X96569887Y-86198771D01*
X96569887Y-86198771D02*
X96484173Y-86227342D01*
X95912744Y-86227342D02*
X95969887Y-86198771D01*
X95969887Y-86198771D02*
X96055601Y-86198771D01*
X96055601Y-86198771D02*
X96141315Y-86227342D01*
X96141315Y-86227342D02*
X96198458Y-86284485D01*
X96198458Y-86284485D02*
X96227029Y-86341628D01*
X96227029Y-86341628D02*
X96255601Y-86455914D01*
X96255601Y-86455914D02*
X96255601Y-86541628D01*
X96255601Y-86541628D02*
X96227029Y-86655914D01*
X96227029Y-86655914D02*
X96198458Y-86713057D01*
X96198458Y-86713057D02*
X96141315Y-86770200D01*
X96141315Y-86770200D02*
X96055601Y-86798771D01*
X96055601Y-86798771D02*
X95998458Y-86798771D01*
X95998458Y-86798771D02*
X95912744Y-86770200D01*
X95912744Y-86770200D02*
X95884172Y-86741628D01*
X95884172Y-86741628D02*
X95884172Y-86541628D01*
X95884172Y-86541628D02*
X95998458Y-86541628D01*
X95312744Y-86798771D02*
X95655601Y-86798771D01*
X95484172Y-86798771D02*
X95484172Y-86198771D01*
X95484172Y-86198771D02*
X95541315Y-86284485D01*
X95541315Y-86284485D02*
X95598458Y-86341628D01*
X95598458Y-86341628D02*
X95655601Y-86370200D01*
X95198458Y-86855914D02*
X94741315Y-86855914D01*
X94398457Y-86484485D02*
X94312743Y-86513057D01*
X94312743Y-86513057D02*
X94284172Y-86541628D01*
X94284172Y-86541628D02*
X94255600Y-86598771D01*
X94255600Y-86598771D02*
X94255600Y-86684485D01*
X94255600Y-86684485D02*
X94284172Y-86741628D01*
X94284172Y-86741628D02*
X94312743Y-86770200D01*
X94312743Y-86770200D02*
X94369886Y-86798771D01*
X94369886Y-86798771D02*
X94598457Y-86798771D01*
X94598457Y-86798771D02*
X94598457Y-86198771D01*
X94598457Y-86198771D02*
X94398457Y-86198771D01*
X94398457Y-86198771D02*
X94341315Y-86227342D01*
X94341315Y-86227342D02*
X94312743Y-86255914D01*
X94312743Y-86255914D02*
X94284172Y-86313057D01*
X94284172Y-86313057D02*
X94284172Y-86370200D01*
X94284172Y-86370200D02*
X94312743Y-86427342D01*
X94312743Y-86427342D02*
X94341315Y-86455914D01*
X94341315Y-86455914D02*
X94398457Y-86484485D01*
X94398457Y-86484485D02*
X94598457Y-86484485D01*
X92487030Y-90390200D02*
X92401316Y-90418771D01*
X92401316Y-90418771D02*
X92258458Y-90418771D01*
X92258458Y-90418771D02*
X92201316Y-90390200D01*
X92201316Y-90390200D02*
X92172744Y-90361628D01*
X92172744Y-90361628D02*
X92144173Y-90304485D01*
X92144173Y-90304485D02*
X92144173Y-90247342D01*
X92144173Y-90247342D02*
X92172744Y-90190200D01*
X92172744Y-90190200D02*
X92201316Y-90161628D01*
X92201316Y-90161628D02*
X92258458Y-90133057D01*
X92258458Y-90133057D02*
X92372744Y-90104485D01*
X92372744Y-90104485D02*
X92429887Y-90075914D01*
X92429887Y-90075914D02*
X92458458Y-90047342D01*
X92458458Y-90047342D02*
X92487030Y-89990200D01*
X92487030Y-89990200D02*
X92487030Y-89933057D01*
X92487030Y-89933057D02*
X92458458Y-89875914D01*
X92458458Y-89875914D02*
X92429887Y-89847342D01*
X92429887Y-89847342D02*
X92372744Y-89818771D01*
X92372744Y-89818771D02*
X92229887Y-89818771D01*
X92229887Y-89818771D02*
X92144173Y-89847342D01*
X91572744Y-89847342D02*
X91629887Y-89818771D01*
X91629887Y-89818771D02*
X91715601Y-89818771D01*
X91715601Y-89818771D02*
X91801315Y-89847342D01*
X91801315Y-89847342D02*
X91858458Y-89904485D01*
X91858458Y-89904485D02*
X91887029Y-89961628D01*
X91887029Y-89961628D02*
X91915601Y-90075914D01*
X91915601Y-90075914D02*
X91915601Y-90161628D01*
X91915601Y-90161628D02*
X91887029Y-90275914D01*
X91887029Y-90275914D02*
X91858458Y-90333057D01*
X91858458Y-90333057D02*
X91801315Y-90390200D01*
X91801315Y-90390200D02*
X91715601Y-90418771D01*
X91715601Y-90418771D02*
X91658458Y-90418771D01*
X91658458Y-90418771D02*
X91572744Y-90390200D01*
X91572744Y-90390200D02*
X91544172Y-90361628D01*
X91544172Y-90361628D02*
X91544172Y-90161628D01*
X91544172Y-90161628D02*
X91658458Y-90161628D01*
X90972744Y-90418771D02*
X91315601Y-90418771D01*
X91144172Y-90418771D02*
X91144172Y-89818771D01*
X91144172Y-89818771D02*
X91201315Y-89904485D01*
X91201315Y-89904485D02*
X91258458Y-89961628D01*
X91258458Y-89961628D02*
X91315601Y-89990200D01*
X90858458Y-90475914D02*
X90401315Y-90475914D01*
X90287029Y-90247342D02*
X90001315Y-90247342D01*
X90344172Y-90418771D02*
X90144172Y-89818771D01*
X90144172Y-89818771D02*
X89944172Y-90418771D01*
D12*
X96633333Y-84279847D02*
X96633333Y-84565561D01*
X96633333Y-84565561D02*
X96652380Y-84622704D01*
X96652380Y-84622704D02*
X96690476Y-84660800D01*
X96690476Y-84660800D02*
X96747618Y-84679847D01*
X96747618Y-84679847D02*
X96785714Y-84679847D01*
X96480952Y-84279847D02*
X96233333Y-84279847D01*
X96233333Y-84279847D02*
X96366666Y-84432228D01*
X96366666Y-84432228D02*
X96309523Y-84432228D01*
X96309523Y-84432228D02*
X96271428Y-84451276D01*
X96271428Y-84451276D02*
X96252380Y-84470323D01*
X96252380Y-84470323D02*
X96233333Y-84508419D01*
X96233333Y-84508419D02*
X96233333Y-84603657D01*
X96233333Y-84603657D02*
X96252380Y-84641752D01*
X96252380Y-84641752D02*
X96271428Y-84660800D01*
X96271428Y-84660800D02*
X96309523Y-84679847D01*
X96309523Y-84679847D02*
X96423809Y-84679847D01*
X96423809Y-84679847D02*
X96461904Y-84660800D01*
X96461904Y-84660800D02*
X96480952Y-84641752D01*
X122607142Y-83649848D02*
X122740475Y-83459372D01*
X122835713Y-83649848D02*
X122835713Y-83249848D01*
X122835713Y-83249848D02*
X122683332Y-83249848D01*
X122683332Y-83249848D02*
X122645237Y-83268896D01*
X122645237Y-83268896D02*
X122626190Y-83287943D01*
X122626190Y-83287943D02*
X122607142Y-83326039D01*
X122607142Y-83326039D02*
X122607142Y-83383181D01*
X122607142Y-83383181D02*
X122626190Y-83421277D01*
X122626190Y-83421277D02*
X122645237Y-83440324D01*
X122645237Y-83440324D02*
X122683332Y-83459372D01*
X122683332Y-83459372D02*
X122835713Y-83459372D01*
X122454761Y-83287943D02*
X122435713Y-83268896D01*
X122435713Y-83268896D02*
X122397618Y-83249848D01*
X122397618Y-83249848D02*
X122302380Y-83249848D01*
X122302380Y-83249848D02*
X122264285Y-83268896D01*
X122264285Y-83268896D02*
X122245237Y-83287943D01*
X122245237Y-83287943D02*
X122226190Y-83326039D01*
X122226190Y-83326039D02*
X122226190Y-83364134D01*
X122226190Y-83364134D02*
X122245237Y-83421277D01*
X122245237Y-83421277D02*
X122473809Y-83649848D01*
X122473809Y-83649848D02*
X122226190Y-83649848D01*
X121864285Y-83249848D02*
X122054761Y-83249848D01*
X122054761Y-83249848D02*
X122073809Y-83440324D01*
X122073809Y-83440324D02*
X122054761Y-83421277D01*
X122054761Y-83421277D02*
X122016666Y-83402229D01*
X122016666Y-83402229D02*
X121921428Y-83402229D01*
X121921428Y-83402229D02*
X121883333Y-83421277D01*
X121883333Y-83421277D02*
X121864285Y-83440324D01*
X121864285Y-83440324D02*
X121845238Y-83478420D01*
X121845238Y-83478420D02*
X121845238Y-83573658D01*
X121845238Y-83573658D02*
X121864285Y-83611753D01*
X121864285Y-83611753D02*
X121883333Y-83630801D01*
X121883333Y-83630801D02*
X121921428Y-83649848D01*
X121921428Y-83649848D02*
X122016666Y-83649848D01*
X122016666Y-83649848D02*
X122054761Y-83630801D01*
X122054761Y-83630801D02*
X122073809Y-83611753D01*
X121581752Y-84352857D02*
X121600800Y-84333809D01*
X121600800Y-84333809D02*
X121619847Y-84276667D01*
X121619847Y-84276667D02*
X121619847Y-84238571D01*
X121619847Y-84238571D02*
X121600800Y-84181428D01*
X121600800Y-84181428D02*
X121562704Y-84143333D01*
X121562704Y-84143333D02*
X121524609Y-84124286D01*
X121524609Y-84124286D02*
X121448419Y-84105238D01*
X121448419Y-84105238D02*
X121391276Y-84105238D01*
X121391276Y-84105238D02*
X121315085Y-84124286D01*
X121315085Y-84124286D02*
X121276990Y-84143333D01*
X121276990Y-84143333D02*
X121238895Y-84181428D01*
X121238895Y-84181428D02*
X121219847Y-84238571D01*
X121219847Y-84238571D02*
X121219847Y-84276667D01*
X121219847Y-84276667D02*
X121238895Y-84333809D01*
X121238895Y-84333809D02*
X121257942Y-84352857D01*
X121219847Y-84486190D02*
X121219847Y-84733809D01*
X121219847Y-84733809D02*
X121372228Y-84600476D01*
X121372228Y-84600476D02*
X121372228Y-84657619D01*
X121372228Y-84657619D02*
X121391276Y-84695714D01*
X121391276Y-84695714D02*
X121410323Y-84714762D01*
X121410323Y-84714762D02*
X121448419Y-84733809D01*
X121448419Y-84733809D02*
X121543657Y-84733809D01*
X121543657Y-84733809D02*
X121581752Y-84714762D01*
X121581752Y-84714762D02*
X121600800Y-84695714D01*
X121600800Y-84695714D02*
X121619847Y-84657619D01*
X121619847Y-84657619D02*
X121619847Y-84543333D01*
X121619847Y-84543333D02*
X121600800Y-84505238D01*
X121600800Y-84505238D02*
X121581752Y-84486190D01*
X121219847Y-84981428D02*
X121219847Y-85019523D01*
X121219847Y-85019523D02*
X121238895Y-85057619D01*
X121238895Y-85057619D02*
X121257942Y-85076666D01*
X121257942Y-85076666D02*
X121296038Y-85095714D01*
X121296038Y-85095714D02*
X121372228Y-85114761D01*
X121372228Y-85114761D02*
X121467466Y-85114761D01*
X121467466Y-85114761D02*
X121543657Y-85095714D01*
X121543657Y-85095714D02*
X121581752Y-85076666D01*
X121581752Y-85076666D02*
X121600800Y-85057619D01*
X121600800Y-85057619D02*
X121619847Y-85019523D01*
X121619847Y-85019523D02*
X121619847Y-84981428D01*
X121619847Y-84981428D02*
X121600800Y-84943333D01*
X121600800Y-84943333D02*
X121581752Y-84924285D01*
X121581752Y-84924285D02*
X121543657Y-84905238D01*
X121543657Y-84905238D02*
X121467466Y-84886190D01*
X121467466Y-84886190D02*
X121372228Y-84886190D01*
X121372228Y-84886190D02*
X121296038Y-84905238D01*
X121296038Y-84905238D02*
X121257942Y-84924285D01*
X121257942Y-84924285D02*
X121238895Y-84943333D01*
X121238895Y-84943333D02*
X121219847Y-84981428D01*
X120161752Y-96263333D02*
X120180800Y-96244285D01*
X120180800Y-96244285D02*
X120199847Y-96187143D01*
X120199847Y-96187143D02*
X120199847Y-96149047D01*
X120199847Y-96149047D02*
X120180800Y-96091904D01*
X120180800Y-96091904D02*
X120142704Y-96053809D01*
X120142704Y-96053809D02*
X120104609Y-96034762D01*
X120104609Y-96034762D02*
X120028419Y-96015714D01*
X120028419Y-96015714D02*
X119971276Y-96015714D01*
X119971276Y-96015714D02*
X119895085Y-96034762D01*
X119895085Y-96034762D02*
X119856990Y-96053809D01*
X119856990Y-96053809D02*
X119818895Y-96091904D01*
X119818895Y-96091904D02*
X119799847Y-96149047D01*
X119799847Y-96149047D02*
X119799847Y-96187143D01*
X119799847Y-96187143D02*
X119818895Y-96244285D01*
X119818895Y-96244285D02*
X119837942Y-96263333D01*
X119837942Y-96415714D02*
X119818895Y-96434762D01*
X119818895Y-96434762D02*
X119799847Y-96472857D01*
X119799847Y-96472857D02*
X119799847Y-96568095D01*
X119799847Y-96568095D02*
X119818895Y-96606190D01*
X119818895Y-96606190D02*
X119837942Y-96625238D01*
X119837942Y-96625238D02*
X119876038Y-96644285D01*
X119876038Y-96644285D02*
X119914133Y-96644285D01*
X119914133Y-96644285D02*
X119971276Y-96625238D01*
X119971276Y-96625238D02*
X120199847Y-96396666D01*
X120199847Y-96396666D02*
X120199847Y-96644285D01*
X129609847Y-99073333D02*
X129419371Y-98940000D01*
X129609847Y-98844762D02*
X129209847Y-98844762D01*
X129209847Y-98844762D02*
X129209847Y-98997143D01*
X129209847Y-98997143D02*
X129228895Y-99035238D01*
X129228895Y-99035238D02*
X129247942Y-99054285D01*
X129247942Y-99054285D02*
X129286038Y-99073333D01*
X129286038Y-99073333D02*
X129343180Y-99073333D01*
X129343180Y-99073333D02*
X129381276Y-99054285D01*
X129381276Y-99054285D02*
X129400323Y-99035238D01*
X129400323Y-99035238D02*
X129419371Y-98997143D01*
X129419371Y-98997143D02*
X129419371Y-98844762D01*
X129343180Y-99416190D02*
X129609847Y-99416190D01*
X129190800Y-99320952D02*
X129476514Y-99225714D01*
X129476514Y-99225714D02*
X129476514Y-99473333D01*
X129705237Y-100969847D02*
X129705237Y-100569847D01*
X129705237Y-100569847D02*
X129609999Y-100569847D01*
X129609999Y-100569847D02*
X129552856Y-100588895D01*
X129552856Y-100588895D02*
X129514761Y-100626990D01*
X129514761Y-100626990D02*
X129495714Y-100665085D01*
X129495714Y-100665085D02*
X129476666Y-100741276D01*
X129476666Y-100741276D02*
X129476666Y-100798419D01*
X129476666Y-100798419D02*
X129495714Y-100874609D01*
X129495714Y-100874609D02*
X129514761Y-100912704D01*
X129514761Y-100912704D02*
X129552856Y-100950800D01*
X129552856Y-100950800D02*
X129609999Y-100969847D01*
X129609999Y-100969847D02*
X129705237Y-100969847D01*
X129095714Y-100969847D02*
X129324285Y-100969847D01*
X129209999Y-100969847D02*
X129209999Y-100569847D01*
X129209999Y-100569847D02*
X129248095Y-100626990D01*
X129248095Y-100626990D02*
X129286190Y-100665085D01*
X129286190Y-100665085D02*
X129324285Y-100684133D01*
D10*
X114106189Y-83454819D02*
X114106189Y-82454819D01*
X113058571Y-83359580D02*
X113106190Y-83407200D01*
X113106190Y-83407200D02*
X113249047Y-83454819D01*
X113249047Y-83454819D02*
X113344285Y-83454819D01*
X113344285Y-83454819D02*
X113487142Y-83407200D01*
X113487142Y-83407200D02*
X113582380Y-83311961D01*
X113582380Y-83311961D02*
X113629999Y-83216723D01*
X113629999Y-83216723D02*
X113677618Y-83026247D01*
X113677618Y-83026247D02*
X113677618Y-82883390D01*
X113677618Y-82883390D02*
X113629999Y-82692914D01*
X113629999Y-82692914D02*
X113582380Y-82597676D01*
X113582380Y-82597676D02*
X113487142Y-82502438D01*
X113487142Y-82502438D02*
X113344285Y-82454819D01*
X113344285Y-82454819D02*
X113249047Y-82454819D01*
X113249047Y-82454819D02*
X113106190Y-82502438D01*
X113106190Y-82502438D02*
X113058571Y-82550057D01*
X112725237Y-82454819D02*
X112106190Y-82454819D01*
X112106190Y-82454819D02*
X112439523Y-82835771D01*
X112439523Y-82835771D02*
X112296666Y-82835771D01*
X112296666Y-82835771D02*
X112201428Y-82883390D01*
X112201428Y-82883390D02*
X112153809Y-82931009D01*
X112153809Y-82931009D02*
X112106190Y-83026247D01*
X112106190Y-83026247D02*
X112106190Y-83264342D01*
X112106190Y-83264342D02*
X112153809Y-83359580D01*
X112153809Y-83359580D02*
X112201428Y-83407200D01*
X112201428Y-83407200D02*
X112296666Y-83454819D01*
X112296666Y-83454819D02*
X112582380Y-83454819D01*
X112582380Y-83454819D02*
X112677618Y-83407200D01*
X112677618Y-83407200D02*
X112725237Y-83359580D01*
X114679399Y-82473819D02*
X114679399Y-82711914D01*
X114917494Y-82616676D02*
X114679399Y-82711914D01*
X114679399Y-82711914D02*
X114441304Y-82616676D01*
X114822256Y-82902390D02*
X114679399Y-82711914D01*
X114679399Y-82711914D02*
X114536542Y-82902390D01*
X114679399Y-82473819D02*
X114679399Y-82711914D01*
X114917494Y-82616676D02*
X114679399Y-82711914D01*
X114679399Y-82711914D02*
X114441304Y-82616676D01*
X114822256Y-82902390D02*
X114679399Y-82711914D01*
X114679399Y-82711914D02*
X114536542Y-82902390D01*
D12*
X109718952Y-85017858D02*
X109738000Y-84998810D01*
X109738000Y-84998810D02*
X109757047Y-84941668D01*
X109757047Y-84941668D02*
X109757047Y-84903572D01*
X109757047Y-84903572D02*
X109738000Y-84846429D01*
X109738000Y-84846429D02*
X109699904Y-84808334D01*
X109699904Y-84808334D02*
X109661809Y-84789287D01*
X109661809Y-84789287D02*
X109585619Y-84770239D01*
X109585619Y-84770239D02*
X109528476Y-84770239D01*
X109528476Y-84770239D02*
X109452285Y-84789287D01*
X109452285Y-84789287D02*
X109414190Y-84808334D01*
X109414190Y-84808334D02*
X109376095Y-84846429D01*
X109376095Y-84846429D02*
X109357047Y-84903572D01*
X109357047Y-84903572D02*
X109357047Y-84941668D01*
X109357047Y-84941668D02*
X109376095Y-84998810D01*
X109376095Y-84998810D02*
X109395142Y-85017858D01*
X109395142Y-85170239D02*
X109376095Y-85189287D01*
X109376095Y-85189287D02*
X109357047Y-85227382D01*
X109357047Y-85227382D02*
X109357047Y-85322620D01*
X109357047Y-85322620D02*
X109376095Y-85360715D01*
X109376095Y-85360715D02*
X109395142Y-85379763D01*
X109395142Y-85379763D02*
X109433238Y-85398810D01*
X109433238Y-85398810D02*
X109471333Y-85398810D01*
X109471333Y-85398810D02*
X109528476Y-85379763D01*
X109528476Y-85379763D02*
X109757047Y-85151191D01*
X109757047Y-85151191D02*
X109757047Y-85398810D01*
X109528476Y-85627381D02*
X109509428Y-85589286D01*
X109509428Y-85589286D02*
X109490380Y-85570239D01*
X109490380Y-85570239D02*
X109452285Y-85551191D01*
X109452285Y-85551191D02*
X109433238Y-85551191D01*
X109433238Y-85551191D02*
X109395142Y-85570239D01*
X109395142Y-85570239D02*
X109376095Y-85589286D01*
X109376095Y-85589286D02*
X109357047Y-85627381D01*
X109357047Y-85627381D02*
X109357047Y-85703572D01*
X109357047Y-85703572D02*
X109376095Y-85741667D01*
X109376095Y-85741667D02*
X109395142Y-85760715D01*
X109395142Y-85760715D02*
X109433238Y-85779762D01*
X109433238Y-85779762D02*
X109452285Y-85779762D01*
X109452285Y-85779762D02*
X109490380Y-85760715D01*
X109490380Y-85760715D02*
X109509428Y-85741667D01*
X109509428Y-85741667D02*
X109528476Y-85703572D01*
X109528476Y-85703572D02*
X109528476Y-85627381D01*
X109528476Y-85627381D02*
X109547523Y-85589286D01*
X109547523Y-85589286D02*
X109566571Y-85570239D01*
X109566571Y-85570239D02*
X109604666Y-85551191D01*
X109604666Y-85551191D02*
X109680857Y-85551191D01*
X109680857Y-85551191D02*
X109718952Y-85570239D01*
X109718952Y-85570239D02*
X109738000Y-85589286D01*
X109738000Y-85589286D02*
X109757047Y-85627381D01*
X109757047Y-85627381D02*
X109757047Y-85703572D01*
X109757047Y-85703572D02*
X109738000Y-85741667D01*
X109738000Y-85741667D02*
X109718952Y-85760715D01*
X109718952Y-85760715D02*
X109680857Y-85779762D01*
X109680857Y-85779762D02*
X109604666Y-85779762D01*
X109604666Y-85779762D02*
X109566571Y-85760715D01*
X109566571Y-85760715D02*
X109547523Y-85741667D01*
X109547523Y-85741667D02*
X109528476Y-85703572D01*
D10*
X118799819Y-90114905D02*
X117799819Y-90114905D01*
X117799819Y-90114905D02*
X117799819Y-90353000D01*
X117799819Y-90353000D02*
X117847438Y-90495857D01*
X117847438Y-90495857D02*
X117942676Y-90591095D01*
X117942676Y-90591095D02*
X118037914Y-90638714D01*
X118037914Y-90638714D02*
X118228390Y-90686333D01*
X118228390Y-90686333D02*
X118371247Y-90686333D01*
X118371247Y-90686333D02*
X118561723Y-90638714D01*
X118561723Y-90638714D02*
X118656961Y-90591095D01*
X118656961Y-90591095D02*
X118752200Y-90495857D01*
X118752200Y-90495857D02*
X118799819Y-90353000D01*
X118799819Y-90353000D02*
X118799819Y-90114905D01*
X117895057Y-91067286D02*
X117847438Y-91114905D01*
X117847438Y-91114905D02*
X117799819Y-91210143D01*
X117799819Y-91210143D02*
X117799819Y-91448238D01*
X117799819Y-91448238D02*
X117847438Y-91543476D01*
X117847438Y-91543476D02*
X117895057Y-91591095D01*
X117895057Y-91591095D02*
X117990295Y-91638714D01*
X117990295Y-91638714D02*
X118085533Y-91638714D01*
X118085533Y-91638714D02*
X118228390Y-91591095D01*
X118228390Y-91591095D02*
X118799819Y-91019667D01*
X118799819Y-91019667D02*
X118799819Y-91638714D01*
D12*
X125304761Y-97639848D02*
X125304761Y-97963658D01*
X125304761Y-97963658D02*
X125285714Y-98001753D01*
X125285714Y-98001753D02*
X125266666Y-98020801D01*
X125266666Y-98020801D02*
X125228571Y-98039848D01*
X125228571Y-98039848D02*
X125152380Y-98039848D01*
X125152380Y-98039848D02*
X125114285Y-98020801D01*
X125114285Y-98020801D02*
X125095238Y-98001753D01*
X125095238Y-98001753D02*
X125076190Y-97963658D01*
X125076190Y-97963658D02*
X125076190Y-97639848D01*
X124676190Y-98039848D02*
X124904761Y-98039848D01*
X124790475Y-98039848D02*
X124790475Y-97639848D01*
X124790475Y-97639848D02*
X124828571Y-97696991D01*
X124828571Y-97696991D02*
X124866666Y-97735086D01*
X124866666Y-97735086D02*
X124904761Y-97754134D01*
X127375713Y-95549847D02*
X127375713Y-95149847D01*
X127375713Y-95149847D02*
X127280475Y-95149847D01*
X127280475Y-95149847D02*
X127223332Y-95168895D01*
X127223332Y-95168895D02*
X127185237Y-95206990D01*
X127185237Y-95206990D02*
X127166190Y-95245085D01*
X127166190Y-95245085D02*
X127147142Y-95321276D01*
X127147142Y-95321276D02*
X127147142Y-95378419D01*
X127147142Y-95378419D02*
X127166190Y-95454609D01*
X127166190Y-95454609D02*
X127185237Y-95492704D01*
X127185237Y-95492704D02*
X127223332Y-95530800D01*
X127223332Y-95530800D02*
X127280475Y-95549847D01*
X127280475Y-95549847D02*
X127375713Y-95549847D01*
X126823332Y-95530800D02*
X126861428Y-95549847D01*
X126861428Y-95549847D02*
X126937618Y-95549847D01*
X126937618Y-95549847D02*
X126975713Y-95530800D01*
X126975713Y-95530800D02*
X126994761Y-95492704D01*
X126994761Y-95492704D02*
X126994761Y-95340323D01*
X126994761Y-95340323D02*
X126975713Y-95302228D01*
X126975713Y-95302228D02*
X126937618Y-95283180D01*
X126937618Y-95283180D02*
X126861428Y-95283180D01*
X126861428Y-95283180D02*
X126823332Y-95302228D01*
X126823332Y-95302228D02*
X126804285Y-95340323D01*
X126804285Y-95340323D02*
X126804285Y-95378419D01*
X126804285Y-95378419D02*
X126994761Y-95416514D01*
X126651904Y-95530800D02*
X126613809Y-95549847D01*
X126613809Y-95549847D02*
X126537618Y-95549847D01*
X126537618Y-95549847D02*
X126499523Y-95530800D01*
X126499523Y-95530800D02*
X126480475Y-95492704D01*
X126480475Y-95492704D02*
X126480475Y-95473657D01*
X126480475Y-95473657D02*
X126499523Y-95435561D01*
X126499523Y-95435561D02*
X126537618Y-95416514D01*
X126537618Y-95416514D02*
X126594761Y-95416514D01*
X126594761Y-95416514D02*
X126632856Y-95397466D01*
X126632856Y-95397466D02*
X126651904Y-95359371D01*
X126651904Y-95359371D02*
X126651904Y-95340323D01*
X126651904Y-95340323D02*
X126632856Y-95302228D01*
X126632856Y-95302228D02*
X126594761Y-95283180D01*
X126594761Y-95283180D02*
X126537618Y-95283180D01*
X126537618Y-95283180D02*
X126499523Y-95302228D01*
X126309046Y-95549847D02*
X126309046Y-95283180D01*
X126309046Y-95149847D02*
X126328094Y-95168895D01*
X126328094Y-95168895D02*
X126309046Y-95187942D01*
X126309046Y-95187942D02*
X126289999Y-95168895D01*
X126289999Y-95168895D02*
X126309046Y-95149847D01*
X126309046Y-95149847D02*
X126309046Y-95187942D01*
X125947142Y-95283180D02*
X125947142Y-95606990D01*
X125947142Y-95606990D02*
X125966189Y-95645085D01*
X125966189Y-95645085D02*
X125985237Y-95664133D01*
X125985237Y-95664133D02*
X126023332Y-95683180D01*
X126023332Y-95683180D02*
X126080475Y-95683180D01*
X126080475Y-95683180D02*
X126118570Y-95664133D01*
X125947142Y-95530800D02*
X125985237Y-95549847D01*
X125985237Y-95549847D02*
X126061428Y-95549847D01*
X126061428Y-95549847D02*
X126099523Y-95530800D01*
X126099523Y-95530800D02*
X126118570Y-95511752D01*
X126118570Y-95511752D02*
X126137618Y-95473657D01*
X126137618Y-95473657D02*
X126137618Y-95359371D01*
X126137618Y-95359371D02*
X126118570Y-95321276D01*
X126118570Y-95321276D02*
X126099523Y-95302228D01*
X126099523Y-95302228D02*
X126061428Y-95283180D01*
X126061428Y-95283180D02*
X125985237Y-95283180D01*
X125985237Y-95283180D02*
X125947142Y-95302228D01*
X125756665Y-95283180D02*
X125756665Y-95549847D01*
X125756665Y-95321276D02*
X125737618Y-95302228D01*
X125737618Y-95302228D02*
X125699523Y-95283180D01*
X125699523Y-95283180D02*
X125642380Y-95283180D01*
X125642380Y-95283180D02*
X125604284Y-95302228D01*
X125604284Y-95302228D02*
X125585237Y-95340323D01*
X125585237Y-95340323D02*
X125585237Y-95549847D01*
X125223332Y-95549847D02*
X125223332Y-95340323D01*
X125223332Y-95340323D02*
X125242379Y-95302228D01*
X125242379Y-95302228D02*
X125280475Y-95283180D01*
X125280475Y-95283180D02*
X125356665Y-95283180D01*
X125356665Y-95283180D02*
X125394760Y-95302228D01*
X125223332Y-95530800D02*
X125261427Y-95549847D01*
X125261427Y-95549847D02*
X125356665Y-95549847D01*
X125356665Y-95549847D02*
X125394760Y-95530800D01*
X125394760Y-95530800D02*
X125413808Y-95492704D01*
X125413808Y-95492704D02*
X125413808Y-95454609D01*
X125413808Y-95454609D02*
X125394760Y-95416514D01*
X125394760Y-95416514D02*
X125356665Y-95397466D01*
X125356665Y-95397466D02*
X125261427Y-95397466D01*
X125261427Y-95397466D02*
X125223332Y-95378419D01*
X125089998Y-95283180D02*
X124937617Y-95283180D01*
X125032855Y-95149847D02*
X125032855Y-95492704D01*
X125032855Y-95492704D02*
X125013808Y-95530800D01*
X125013808Y-95530800D02*
X124975713Y-95549847D01*
X124975713Y-95549847D02*
X124937617Y-95549847D01*
X124747142Y-95549847D02*
X124785237Y-95530800D01*
X124785237Y-95530800D02*
X124804284Y-95511752D01*
X124804284Y-95511752D02*
X124823332Y-95473657D01*
X124823332Y-95473657D02*
X124823332Y-95359371D01*
X124823332Y-95359371D02*
X124804284Y-95321276D01*
X124804284Y-95321276D02*
X124785237Y-95302228D01*
X124785237Y-95302228D02*
X124747142Y-95283180D01*
X124747142Y-95283180D02*
X124689999Y-95283180D01*
X124689999Y-95283180D02*
X124651903Y-95302228D01*
X124651903Y-95302228D02*
X124632856Y-95321276D01*
X124632856Y-95321276D02*
X124613808Y-95359371D01*
X124613808Y-95359371D02*
X124613808Y-95473657D01*
X124613808Y-95473657D02*
X124632856Y-95511752D01*
X124632856Y-95511752D02*
X124651903Y-95530800D01*
X124651903Y-95530800D02*
X124689999Y-95549847D01*
X124689999Y-95549847D02*
X124747142Y-95549847D01*
X124442379Y-95549847D02*
X124442379Y-95283180D01*
X124442379Y-95359371D02*
X124423332Y-95321276D01*
X124423332Y-95321276D02*
X124404284Y-95302228D01*
X124404284Y-95302228D02*
X124366189Y-95283180D01*
X124366189Y-95283180D02*
X124328094Y-95283180D01*
X124175713Y-95549847D02*
X124099522Y-95549847D01*
X124099522Y-95549847D02*
X124061427Y-95530800D01*
X124061427Y-95530800D02*
X124042379Y-95511752D01*
X124042379Y-95511752D02*
X124004284Y-95454609D01*
X124004284Y-95454609D02*
X123985237Y-95378419D01*
X123985237Y-95378419D02*
X123985237Y-95226038D01*
X123985237Y-95226038D02*
X124004284Y-95187942D01*
X124004284Y-95187942D02*
X124023332Y-95168895D01*
X124023332Y-95168895D02*
X124061427Y-95149847D01*
X124061427Y-95149847D02*
X124137618Y-95149847D01*
X124137618Y-95149847D02*
X124175713Y-95168895D01*
X124175713Y-95168895D02*
X124194760Y-95187942D01*
X124194760Y-95187942D02*
X124213808Y-95226038D01*
X124213808Y-95226038D02*
X124213808Y-95321276D01*
X124213808Y-95321276D02*
X124194760Y-95359371D01*
X124194760Y-95359371D02*
X124175713Y-95378419D01*
X124175713Y-95378419D02*
X124137618Y-95397466D01*
X124137618Y-95397466D02*
X124061427Y-95397466D01*
X124061427Y-95397466D02*
X124023332Y-95378419D01*
X124023332Y-95378419D02*
X124004284Y-95359371D01*
X124004284Y-95359371D02*
X123985237Y-95321276D01*
X121066666Y-100469847D02*
X121199999Y-100279371D01*
X121295237Y-100469847D02*
X121295237Y-100069847D01*
X121295237Y-100069847D02*
X121142856Y-100069847D01*
X121142856Y-100069847D02*
X121104761Y-100088895D01*
X121104761Y-100088895D02*
X121085714Y-100107942D01*
X121085714Y-100107942D02*
X121066666Y-100146038D01*
X121066666Y-100146038D02*
X121066666Y-100203180D01*
X121066666Y-100203180D02*
X121085714Y-100241276D01*
X121085714Y-100241276D02*
X121104761Y-100260323D01*
X121104761Y-100260323D02*
X121142856Y-100279371D01*
X121142856Y-100279371D02*
X121295237Y-100279371D01*
X120933333Y-100069847D02*
X120685714Y-100069847D01*
X120685714Y-100069847D02*
X120819047Y-100222228D01*
X120819047Y-100222228D02*
X120761904Y-100222228D01*
X120761904Y-100222228D02*
X120723809Y-100241276D01*
X120723809Y-100241276D02*
X120704761Y-100260323D01*
X120704761Y-100260323D02*
X120685714Y-100298419D01*
X120685714Y-100298419D02*
X120685714Y-100393657D01*
X120685714Y-100393657D02*
X120704761Y-100431752D01*
X120704761Y-100431752D02*
X120723809Y-100450800D01*
X120723809Y-100450800D02*
X120761904Y-100469847D01*
X120761904Y-100469847D02*
X120876190Y-100469847D01*
X120876190Y-100469847D02*
X120914285Y-100450800D01*
X120914285Y-100450800D02*
X120933333Y-100431752D01*
X116689942Y-83941751D02*
X116708990Y-83960799D01*
X116708990Y-83960799D02*
X116766132Y-83979846D01*
X116766132Y-83979846D02*
X116804228Y-83979846D01*
X116804228Y-83979846D02*
X116861371Y-83960799D01*
X116861371Y-83960799D02*
X116899466Y-83922703D01*
X116899466Y-83922703D02*
X116918513Y-83884608D01*
X116918513Y-83884608D02*
X116937561Y-83808418D01*
X116937561Y-83808418D02*
X116937561Y-83751275D01*
X116937561Y-83751275D02*
X116918513Y-83675084D01*
X116918513Y-83675084D02*
X116899466Y-83636989D01*
X116899466Y-83636989D02*
X116861371Y-83598894D01*
X116861371Y-83598894D02*
X116804228Y-83579846D01*
X116804228Y-83579846D02*
X116766132Y-83579846D01*
X116766132Y-83579846D02*
X116708990Y-83598894D01*
X116708990Y-83598894D02*
X116689942Y-83617941D01*
X116537561Y-83617941D02*
X116518513Y-83598894D01*
X116518513Y-83598894D02*
X116480418Y-83579846D01*
X116480418Y-83579846D02*
X116385180Y-83579846D01*
X116385180Y-83579846D02*
X116347085Y-83598894D01*
X116347085Y-83598894D02*
X116328037Y-83617941D01*
X116328037Y-83617941D02*
X116308990Y-83656037D01*
X116308990Y-83656037D02*
X116308990Y-83694132D01*
X116308990Y-83694132D02*
X116328037Y-83751275D01*
X116328037Y-83751275D02*
X116556609Y-83979846D01*
X116556609Y-83979846D02*
X116308990Y-83979846D01*
X116118514Y-83979846D02*
X116042323Y-83979846D01*
X116042323Y-83979846D02*
X116004228Y-83960799D01*
X116004228Y-83960799D02*
X115985180Y-83941751D01*
X115985180Y-83941751D02*
X115947085Y-83884608D01*
X115947085Y-83884608D02*
X115928038Y-83808418D01*
X115928038Y-83808418D02*
X115928038Y-83656037D01*
X115928038Y-83656037D02*
X115947085Y-83617941D01*
X115947085Y-83617941D02*
X115966133Y-83598894D01*
X115966133Y-83598894D02*
X116004228Y-83579846D01*
X116004228Y-83579846D02*
X116080419Y-83579846D01*
X116080419Y-83579846D02*
X116118514Y-83598894D01*
X116118514Y-83598894D02*
X116137561Y-83617941D01*
X116137561Y-83617941D02*
X116156609Y-83656037D01*
X116156609Y-83656037D02*
X116156609Y-83751275D01*
X116156609Y-83751275D02*
X116137561Y-83789370D01*
X116137561Y-83789370D02*
X116118514Y-83808418D01*
X116118514Y-83808418D02*
X116080419Y-83827465D01*
X116080419Y-83827465D02*
X116004228Y-83827465D01*
X116004228Y-83827465D02*
X115966133Y-83808418D01*
X115966133Y-83808418D02*
X115947085Y-83789370D01*
X115947085Y-83789370D02*
X115928038Y-83751275D01*
X123199848Y-83222857D02*
X123009372Y-83089524D01*
X123199848Y-82994286D02*
X122799848Y-82994286D01*
X122799848Y-82994286D02*
X122799848Y-83146667D01*
X122799848Y-83146667D02*
X122818896Y-83184762D01*
X122818896Y-83184762D02*
X122837943Y-83203809D01*
X122837943Y-83203809D02*
X122876039Y-83222857D01*
X122876039Y-83222857D02*
X122933181Y-83222857D01*
X122933181Y-83222857D02*
X122971277Y-83203809D01*
X122971277Y-83203809D02*
X122990324Y-83184762D01*
X122990324Y-83184762D02*
X123009372Y-83146667D01*
X123009372Y-83146667D02*
X123009372Y-82994286D01*
X122933181Y-83565714D02*
X123199848Y-83565714D01*
X122780801Y-83470476D02*
X123066515Y-83375238D01*
X123066515Y-83375238D02*
X123066515Y-83622857D01*
X122799848Y-83965714D02*
X122799848Y-83775238D01*
X122799848Y-83775238D02*
X122990324Y-83756190D01*
X122990324Y-83756190D02*
X122971277Y-83775238D01*
X122971277Y-83775238D02*
X122952229Y-83813333D01*
X122952229Y-83813333D02*
X122952229Y-83908571D01*
X122952229Y-83908571D02*
X122971277Y-83946666D01*
X122971277Y-83946666D02*
X122990324Y-83965714D01*
X122990324Y-83965714D02*
X123028420Y-83984761D01*
X123028420Y-83984761D02*
X123123658Y-83984761D01*
X123123658Y-83984761D02*
X123161753Y-83965714D01*
X123161753Y-83965714D02*
X123180801Y-83946666D01*
X123180801Y-83946666D02*
X123199848Y-83908571D01*
X123199848Y-83908571D02*
X123199848Y-83813333D01*
X123199848Y-83813333D02*
X123180801Y-83775238D01*
X123180801Y-83775238D02*
X123161753Y-83756190D01*
X125533275Y-90679847D02*
X125533275Y-90279847D01*
X125114228Y-90641752D02*
X125133276Y-90660800D01*
X125133276Y-90660800D02*
X125190418Y-90679847D01*
X125190418Y-90679847D02*
X125228514Y-90679847D01*
X125228514Y-90679847D02*
X125285657Y-90660800D01*
X125285657Y-90660800D02*
X125323752Y-90622704D01*
X125323752Y-90622704D02*
X125342799Y-90584609D01*
X125342799Y-90584609D02*
X125361847Y-90508419D01*
X125361847Y-90508419D02*
X125361847Y-90451276D01*
X125361847Y-90451276D02*
X125342799Y-90375085D01*
X125342799Y-90375085D02*
X125323752Y-90336990D01*
X125323752Y-90336990D02*
X125285657Y-90298895D01*
X125285657Y-90298895D02*
X125228514Y-90279847D01*
X125228514Y-90279847D02*
X125190418Y-90279847D01*
X125190418Y-90279847D02*
X125133276Y-90298895D01*
X125133276Y-90298895D02*
X125114228Y-90317942D01*
X124885657Y-90451276D02*
X124923752Y-90432228D01*
X124923752Y-90432228D02*
X124942799Y-90413180D01*
X124942799Y-90413180D02*
X124961847Y-90375085D01*
X124961847Y-90375085D02*
X124961847Y-90356038D01*
X124961847Y-90356038D02*
X124942799Y-90317942D01*
X124942799Y-90317942D02*
X124923752Y-90298895D01*
X124923752Y-90298895D02*
X124885657Y-90279847D01*
X124885657Y-90279847D02*
X124809466Y-90279847D01*
X124809466Y-90279847D02*
X124771371Y-90298895D01*
X124771371Y-90298895D02*
X124752323Y-90317942D01*
X124752323Y-90317942D02*
X124733276Y-90356038D01*
X124733276Y-90356038D02*
X124733276Y-90375085D01*
X124733276Y-90375085D02*
X124752323Y-90413180D01*
X124752323Y-90413180D02*
X124771371Y-90432228D01*
X124771371Y-90432228D02*
X124809466Y-90451276D01*
X124809466Y-90451276D02*
X124885657Y-90451276D01*
X124885657Y-90451276D02*
X124923752Y-90470323D01*
X124923752Y-90470323D02*
X124942799Y-90489371D01*
X124942799Y-90489371D02*
X124961847Y-90527466D01*
X124961847Y-90527466D02*
X124961847Y-90603657D01*
X124961847Y-90603657D02*
X124942799Y-90641752D01*
X124942799Y-90641752D02*
X124923752Y-90660800D01*
X124923752Y-90660800D02*
X124885657Y-90679847D01*
X124885657Y-90679847D02*
X124809466Y-90679847D01*
X124809466Y-90679847D02*
X124771371Y-90660800D01*
X124771371Y-90660800D02*
X124752323Y-90641752D01*
X124752323Y-90641752D02*
X124733276Y-90603657D01*
X124733276Y-90603657D02*
X124733276Y-90527466D01*
X124733276Y-90527466D02*
X124752323Y-90489371D01*
X124752323Y-90489371D02*
X124771371Y-90470323D01*
X124771371Y-90470323D02*
X124809466Y-90451276D01*
X130566666Y-97369847D02*
X130699999Y-97179371D01*
X130795237Y-97369847D02*
X130795237Y-96969847D01*
X130795237Y-96969847D02*
X130642856Y-96969847D01*
X130642856Y-96969847D02*
X130604761Y-96988895D01*
X130604761Y-96988895D02*
X130585714Y-97007942D01*
X130585714Y-97007942D02*
X130566666Y-97046038D01*
X130566666Y-97046038D02*
X130566666Y-97103180D01*
X130566666Y-97103180D02*
X130585714Y-97141276D01*
X130585714Y-97141276D02*
X130604761Y-97160323D01*
X130604761Y-97160323D02*
X130642856Y-97179371D01*
X130642856Y-97179371D02*
X130795237Y-97179371D01*
X130433333Y-96969847D02*
X130166666Y-96969847D01*
X130166666Y-96969847D02*
X130338095Y-97369847D01*
X129676666Y-91879847D02*
X129809999Y-91689371D01*
X129905237Y-91879847D02*
X129905237Y-91479847D01*
X129905237Y-91479847D02*
X129752856Y-91479847D01*
X129752856Y-91479847D02*
X129714761Y-91498895D01*
X129714761Y-91498895D02*
X129695714Y-91517942D01*
X129695714Y-91517942D02*
X129676666Y-91556038D01*
X129676666Y-91556038D02*
X129676666Y-91613180D01*
X129676666Y-91613180D02*
X129695714Y-91651276D01*
X129695714Y-91651276D02*
X129714761Y-91670323D01*
X129714761Y-91670323D02*
X129752856Y-91689371D01*
X129752856Y-91689371D02*
X129905237Y-91689371D01*
X129333809Y-91479847D02*
X129409999Y-91479847D01*
X129409999Y-91479847D02*
X129448095Y-91498895D01*
X129448095Y-91498895D02*
X129467142Y-91517942D01*
X129467142Y-91517942D02*
X129505237Y-91575085D01*
X129505237Y-91575085D02*
X129524285Y-91651276D01*
X129524285Y-91651276D02*
X129524285Y-91803657D01*
X129524285Y-91803657D02*
X129505237Y-91841752D01*
X129505237Y-91841752D02*
X129486190Y-91860800D01*
X129486190Y-91860800D02*
X129448095Y-91879847D01*
X129448095Y-91879847D02*
X129371904Y-91879847D01*
X129371904Y-91879847D02*
X129333809Y-91860800D01*
X129333809Y-91860800D02*
X129314761Y-91841752D01*
X129314761Y-91841752D02*
X129295714Y-91803657D01*
X129295714Y-91803657D02*
X129295714Y-91708419D01*
X129295714Y-91708419D02*
X129314761Y-91670323D01*
X129314761Y-91670323D02*
X129333809Y-91651276D01*
X129333809Y-91651276D02*
X129371904Y-91632228D01*
X129371904Y-91632228D02*
X129448095Y-91632228D01*
X129448095Y-91632228D02*
X129486190Y-91651276D01*
X129486190Y-91651276D02*
X129505237Y-91670323D01*
X129505237Y-91670323D02*
X129524285Y-91708419D01*
D10*
X117571428Y-88454819D02*
X117571428Y-87454819D01*
X117571428Y-87454819D02*
X117238095Y-88169104D01*
X117238095Y-88169104D02*
X116904762Y-87454819D01*
X116904762Y-87454819D02*
X116904762Y-88454819D01*
X116238095Y-87454819D02*
X116047619Y-87454819D01*
X116047619Y-87454819D02*
X115952381Y-87502438D01*
X115952381Y-87502438D02*
X115857143Y-87597676D01*
X115857143Y-87597676D02*
X115809524Y-87788152D01*
X115809524Y-87788152D02*
X115809524Y-88121485D01*
X115809524Y-88121485D02*
X115857143Y-88311961D01*
X115857143Y-88311961D02*
X115952381Y-88407200D01*
X115952381Y-88407200D02*
X116047619Y-88454819D01*
X116047619Y-88454819D02*
X116238095Y-88454819D01*
X116238095Y-88454819D02*
X116333333Y-88407200D01*
X116333333Y-88407200D02*
X116428571Y-88311961D01*
X116428571Y-88311961D02*
X116476190Y-88121485D01*
X116476190Y-88121485D02*
X116476190Y-87788152D01*
X116476190Y-87788152D02*
X116428571Y-87597676D01*
X116428571Y-87597676D02*
X116333333Y-87502438D01*
X116333333Y-87502438D02*
X116238095Y-87454819D01*
X115428571Y-88407200D02*
X115285714Y-88454819D01*
X115285714Y-88454819D02*
X115047619Y-88454819D01*
X115047619Y-88454819D02*
X114952381Y-88407200D01*
X114952381Y-88407200D02*
X114904762Y-88359580D01*
X114904762Y-88359580D02*
X114857143Y-88264342D01*
X114857143Y-88264342D02*
X114857143Y-88169104D01*
X114857143Y-88169104D02*
X114904762Y-88073866D01*
X114904762Y-88073866D02*
X114952381Y-88026247D01*
X114952381Y-88026247D02*
X115047619Y-87978628D01*
X115047619Y-87978628D02*
X115238095Y-87931009D01*
X115238095Y-87931009D02*
X115333333Y-87883390D01*
X115333333Y-87883390D02*
X115380952Y-87835771D01*
X115380952Y-87835771D02*
X115428571Y-87740533D01*
X115428571Y-87740533D02*
X115428571Y-87645295D01*
X115428571Y-87645295D02*
X115380952Y-87550057D01*
X115380952Y-87550057D02*
X115333333Y-87502438D01*
X115333333Y-87502438D02*
X115238095Y-87454819D01*
X115238095Y-87454819D02*
X115000000Y-87454819D01*
X115000000Y-87454819D02*
X114857143Y-87502438D01*
X114095238Y-87931009D02*
X114428571Y-87931009D01*
X114428571Y-88454819D02*
X114428571Y-87454819D01*
X114428571Y-87454819D02*
X113952381Y-87454819D01*
X113571428Y-87931009D02*
X113238095Y-87931009D01*
X113095238Y-88454819D02*
X113571428Y-88454819D01*
X113571428Y-88454819D02*
X113571428Y-87454819D01*
X113571428Y-87454819D02*
X113095238Y-87454819D01*
X112809523Y-87454819D02*
X112238095Y-87454819D01*
X112523809Y-88454819D02*
X112523809Y-87454819D01*
X111380952Y-88454819D02*
X111952380Y-88454819D01*
X111666666Y-88454819D02*
X111666666Y-87454819D01*
X111666666Y-87454819D02*
X111761904Y-87597676D01*
X111761904Y-87597676D02*
X111857142Y-87692914D01*
X111857142Y-87692914D02*
X111952380Y-87740533D01*
D13*
%TO.C,R25*%
X122196359Y-83810000D02*
X122503641Y-83810000D01*
X122196359Y-84570000D02*
X122503641Y-84570000D01*
%TO.C,C30*%
X120290000Y-84502164D02*
X120290000Y-84717836D01*
X121010000Y-84502164D02*
X121010000Y-84717836D01*
%TO.C,C2*%
X120490000Y-96719421D02*
X120490000Y-97000581D01*
X121510000Y-96719421D02*
X121510000Y-97000581D01*
%TO.C,R4*%
X128120000Y-99153641D02*
X128120000Y-98846359D01*
X128880000Y-99153641D02*
X128880000Y-98846359D01*
D12*
%TO.C,D1*%
X126960000Y-100860001D02*
G75*
G02*
X126860000Y-100860001I-50000J0D01*
G01*
X126860000Y-100860001D02*
G75*
G02*
X126960000Y-100860001I50000J0D01*
G01*
D14*
%TO.C,IC3*%
X112101300Y-83943600D02*
X114158700Y-83943600D01*
X112101300Y-85983261D02*
X112101300Y-85256739D01*
X114158700Y-87296400D02*
X112101300Y-87296400D01*
D13*
%TO.C,C28*%
X110040000Y-85082164D02*
X110040000Y-85297836D01*
X110760000Y-85082164D02*
X110760000Y-85297836D01*
%TO.C,D2*%
X119250000Y-88770000D02*
X119250000Y-92630000D01*
X119250000Y-88770000D02*
X121250000Y-88770000D01*
X121250000Y-88770000D02*
X121250000Y-92630000D01*
D15*
%TO.C,U1*%
X125399999Y-99410000D02*
X124624997Y-99410000D01*
X126825000Y-96310002D02*
X124650001Y-96310002D01*
D13*
%TO.C,R3*%
X121153641Y-98980001D02*
X120846359Y-98980001D01*
X121153641Y-99740001D02*
X120846359Y-99740001D01*
%TO.C,C29*%
X116312164Y-84350000D02*
X116527836Y-84350000D01*
X116312164Y-85070000D02*
X116527836Y-85070000D01*
%TO.C,R45*%
X123380000Y-83633641D02*
X123380000Y-83326359D01*
X124140000Y-83633641D02*
X124140000Y-83326359D01*
D15*
%TO.C,IC8*%
X121692800Y-90139999D02*
X123192800Y-90139999D01*
X123542800Y-85109999D02*
X123542800Y-90009999D01*
X123542800Y-90009999D02*
X126742800Y-90009999D01*
X126742800Y-85109999D02*
X123542800Y-85109999D01*
X126742800Y-90009999D02*
X126742800Y-85109999D01*
D13*
%TO.C,R7*%
X130346359Y-97620000D02*
X130653641Y-97620000D01*
X130346359Y-98380000D02*
X130653641Y-98380000D01*
%TO.C,R6*%
X129763641Y-92200000D02*
X129456359Y-92200000D01*
X129763641Y-92960000D02*
X129456359Y-92960000D01*
D16*
%TO.C,IC1*%
X136642800Y-93204999D02*
G75*
G02*
X136392800Y-93204999I-125000J0D01*
G01*
X136392800Y-93204999D02*
G75*
G02*
X136642800Y-93204999I125000J0D01*
G01*
D14*
%TO.C,MOSFET1*%
X118624500Y-85534400D02*
X120275500Y-85534400D01*
X118624500Y-87488259D02*
X118624500Y-86831741D01*
X120275500Y-85534400D02*
X120275500Y-86573260D01*
X120275500Y-87746740D02*
X120275500Y-88785600D01*
X120275500Y-88785600D02*
X118624500Y-88785600D01*
X118332400Y-89928600D02*
G75*
G02*
X118078400Y-89928600I-127000J0D01*
G01*
X118078400Y-89928600D02*
G75*
G02*
X118332400Y-89928600I127000J0D01*
G01*
D13*
%TO.C,C13*%
X118537836Y-90330000D02*
X118322164Y-90330000D01*
X118537836Y-91050000D02*
X118322164Y-91050000D01*
%TO.C,C14*%
X118527836Y-91250000D02*
X118312164Y-91250000D01*
X118527836Y-91970000D02*
X118312164Y-91970000D01*
%TD*%
M02*
