%TF.GenerationSoftware,KiCad,Pcbnew,9.0.4*%
%TF.CreationDate,2026-02-10T01:37:11-05:00*%
%TF.ProjectId,WSG_2.0,5753475f-322e-4302-9e6b-696361645f70,rev?*%
%TF.SameCoordinates,Original*%
%TF.FileFunction,Drillmap*%
%TF.FilePolarity,Positive*%
%FSLAX45Y45*%
G04 Gerber Fmt 4.5, Leading zero omitted, Abs format (unit mm)*
G04 Created by KiCad (PCBNEW 9.0.4) date 2026-02-10 01:37:11*
%MOMM*%
%LPD*%
G01*
G04 APERTURE LIST*
%ADD10C,0.050000*%
%ADD11C,0.200000*%
%ADD12C,0.100000*%
%ADD13C,0.115200*%
G04 APERTURE END LIST*
D10*
X8950000Y-10200000D02*
G75*
G02*
X8900000Y-10150000I0J50000D01*
G01*
X14550000Y-7900000D02*
X8950000Y-7900000D01*
X14600000Y-10150000D02*
X14600000Y-7950000D01*
X14600000Y-10150000D02*
G75*
G02*
X14550000Y-10200000I-50000J0D01*
G01*
X8900000Y-7950000D02*
X8900000Y-10150000D01*
X8950000Y-10200000D02*
X14550000Y-10200000D01*
X14550000Y-7900000D02*
G75*
G02*
X14600000Y-7950000I0J-50000D01*
G01*
X8900000Y-7950000D02*
G75*
G02*
X8950000Y-7900000I50000J0D01*
G01*
D11*
D12*
X10175000Y-9314000D02*
X10205000Y-9344000D01*
X10205000Y-9314000D02*
X10175000Y-9344000D01*
X10177000Y-9134000D02*
X10207000Y-9164000D01*
X10207000Y-9134000D02*
X10177000Y-9164000D01*
X10245000Y-8992000D02*
X10275000Y-9022000D01*
X10275000Y-8992000D02*
X10245000Y-9022000D01*
X10245000Y-9515000D02*
X10275000Y-9545000D01*
X10275000Y-9515000D02*
X10245000Y-9545000D01*
X10548000Y-9329000D02*
X10578000Y-9359000D01*
X10578000Y-9329000D02*
X10548000Y-9359000D01*
X10558000Y-9551029D02*
X10588000Y-9581029D01*
X10588000Y-9551029D02*
X10558000Y-9581029D01*
X10562000Y-9146000D02*
X10592000Y-9176000D01*
X10592000Y-9146000D02*
X10562000Y-9176000D01*
X10611000Y-8322000D02*
X10641000Y-8352000D01*
X10641000Y-8322000D02*
X10611000Y-8352000D01*
X10646280Y-8972000D02*
X10676280Y-9002000D01*
X10676280Y-8972000D02*
X10646280Y-9002000D01*
X10660000Y-9440500D02*
X10690000Y-9470500D01*
X10690000Y-9440500D02*
X10660000Y-9470500D01*
X10691000Y-8913000D02*
X10721000Y-8943000D01*
X10721000Y-8913000D02*
X10691000Y-8943000D01*
X10734000Y-8693000D02*
X10764000Y-8723000D01*
X10764000Y-8693000D02*
X10734000Y-8723000D01*
X10738000Y-9846000D02*
X10768000Y-9876000D01*
X10768000Y-9846000D02*
X10738000Y-9876000D01*
X10780000Y-8011000D02*
X10810000Y-8041000D01*
X10810000Y-8011000D02*
X10780000Y-8041000D01*
X10936000Y-8354000D02*
X10966000Y-8384000D01*
X10966000Y-8354000D02*
X10936000Y-8384000D01*
X10962000Y-8462000D02*
X10992000Y-8492000D01*
X10992000Y-8462000D02*
X10962000Y-8492000D01*
X11102000Y-8744000D02*
X11132000Y-8774000D01*
X11132000Y-8744000D02*
X11102000Y-8774000D01*
X11158000Y-8520000D02*
X11188000Y-8550000D01*
X11188000Y-8520000D02*
X11158000Y-8550000D01*
X11171000Y-8258000D02*
X11201000Y-8288000D01*
X11201000Y-8258000D02*
X11171000Y-8288000D01*
X11419000Y-9032000D02*
X11449000Y-9062000D01*
X11449000Y-9032000D02*
X11419000Y-9062000D01*
X11430000Y-9473000D02*
X11460000Y-9503000D01*
X11460000Y-9473000D02*
X11430000Y-9503000D01*
X11435140Y-10097220D02*
X11465140Y-10127220D01*
X11465140Y-10097220D02*
X11435140Y-10127220D01*
X11442760Y-9954980D02*
X11472760Y-9984980D01*
X11472760Y-9954980D02*
X11442760Y-9984980D01*
X11480000Y-9410000D02*
X11510000Y-9440000D01*
X11510000Y-9410000D02*
X11480000Y-9440000D01*
X11501556Y-8805534D02*
X11531556Y-8835534D01*
X11531556Y-8805534D02*
X11501556Y-8835534D01*
X11508945Y-8925939D02*
X11538945Y-8955939D01*
X11538945Y-8925939D02*
X11508945Y-8955939D01*
X11514000Y-9210000D02*
X11544000Y-9240000D01*
X11544000Y-9210000D02*
X11514000Y-9240000D01*
X11529000Y-8064000D02*
X11559000Y-8094000D01*
X11559000Y-8064000D02*
X11529000Y-8094000D01*
X11529280Y-9637000D02*
X11559280Y-9667000D01*
X11559280Y-9637000D02*
X11529280Y-9667000D01*
X11540000Y-8562000D02*
X11570000Y-8592000D01*
X11570000Y-8562000D02*
X11540000Y-8592000D01*
X11548000Y-8295000D02*
X11578000Y-8325000D01*
X11578000Y-8295000D02*
X11548000Y-8325000D01*
X11574840Y-10104840D02*
X11604840Y-10134840D01*
X11604840Y-10104840D02*
X11574840Y-10134840D01*
X11587540Y-9954980D02*
X11617540Y-9984980D01*
X11617540Y-9954980D02*
X11587540Y-9984980D01*
X11588280Y-9880840D02*
X11618280Y-9910840D01*
X11618280Y-9880840D02*
X11588280Y-9910840D01*
X11599436Y-9406308D02*
X11629436Y-9436308D01*
X11629436Y-9406308D02*
X11599436Y-9436308D01*
X11621000Y-8572000D02*
X11651000Y-8602000D01*
X11651000Y-8572000D02*
X11621000Y-8602000D01*
X11641000Y-9072000D02*
X11671000Y-9102000D01*
X11671000Y-9072000D02*
X11641000Y-9102000D01*
X11645000Y-8971000D02*
X11675000Y-9001000D01*
X11675000Y-8971000D02*
X11645000Y-9001000D01*
X11686601Y-9388000D02*
X11716601Y-9418000D01*
X11716601Y-9388000D02*
X11686601Y-9418000D01*
X11702020Y-9863060D02*
X11732020Y-9893060D01*
X11732020Y-9863060D02*
X11702020Y-9893060D01*
X11704000Y-8040000D02*
X11734000Y-8070000D01*
X11734000Y-8040000D02*
X11704000Y-8070000D01*
X11717000Y-8334000D02*
X11747000Y-8364000D01*
X11747000Y-8334000D02*
X11717000Y-8364000D01*
X11727000Y-9472000D02*
X11757000Y-9502000D01*
X11757000Y-9472000D02*
X11727000Y-9502000D01*
X11731800Y-8686388D02*
X11761800Y-8716388D01*
X11761800Y-8686388D02*
X11731800Y-8716388D01*
X11737000Y-9028000D02*
X11767000Y-9058000D01*
X11767000Y-9028000D02*
X11737000Y-9058000D01*
X11745393Y-9119696D02*
X11775393Y-9149696D01*
X11775393Y-9119696D02*
X11745393Y-9149696D01*
X11746000Y-8517000D02*
X11776000Y-8547000D01*
X11776000Y-8517000D02*
X11746000Y-8547000D01*
X11750000Y-8836000D02*
X11780000Y-8866000D01*
X11780000Y-8836000D02*
X11750000Y-8866000D01*
X11750000Y-9217200D02*
X11780000Y-9247200D01*
X11780000Y-9217200D02*
X11750000Y-9247200D01*
X11769929Y-9301313D02*
X11799929Y-9331313D01*
X11799929Y-9301313D02*
X11769929Y-9331313D01*
X11802000Y-8361800D02*
X11832000Y-8391800D01*
X11832000Y-8361800D02*
X11802000Y-8391800D01*
X11834000Y-8492000D02*
X11864000Y-8522000D01*
X11864000Y-8492000D02*
X11834000Y-8522000D01*
X11862280Y-9626000D02*
X11892280Y-9656000D01*
X11892280Y-9626000D02*
X11862280Y-9656000D01*
X11881000Y-8232000D02*
X11911000Y-8262000D01*
X11911000Y-8232000D02*
X11881000Y-8262000D01*
X11908000Y-9963000D02*
X11938000Y-9993000D01*
X11938000Y-9963000D02*
X11908000Y-9993000D01*
X11915000Y-9495000D02*
X11945000Y-9525000D01*
X11945000Y-9495000D02*
X11915000Y-9525000D01*
X11966000Y-9313000D02*
X11996000Y-9343000D01*
X11996000Y-9313000D02*
X11966000Y-9343000D01*
X11985000Y-9685000D02*
X12015000Y-9715000D01*
X12015000Y-9685000D02*
X11985000Y-9715000D01*
X12032500Y-8840500D02*
X12062500Y-8870500D01*
X12062500Y-8840500D02*
X12032500Y-8870500D01*
X12036000Y-9990000D02*
X12066000Y-10020000D01*
X12066000Y-9990000D02*
X12036000Y-10020000D01*
X12052000Y-8334000D02*
X12082000Y-8364000D01*
X12082000Y-8334000D02*
X12052000Y-8364000D01*
X12112011Y-9506401D02*
X12142011Y-9536401D01*
X12142011Y-9506401D02*
X12112011Y-9536401D01*
X12149150Y-9074850D02*
X12179150Y-9104850D01*
X12179150Y-9074850D02*
X12149150Y-9104850D01*
X12182080Y-9423640D02*
X12212080Y-9453640D01*
X12212080Y-9423640D02*
X12182080Y-9453640D01*
X12207803Y-8332990D02*
X12237803Y-8362990D01*
X12237803Y-8332990D02*
X12207803Y-8362990D01*
X12219000Y-9172000D02*
X12249000Y-9202000D01*
X12249000Y-9172000D02*
X12219000Y-9202000D01*
X12248000Y-9061000D02*
X12278000Y-9091000D01*
X12278000Y-9061000D02*
X12248000Y-9091000D01*
X12290000Y-8249000D02*
X12320000Y-8279000D01*
X12320000Y-8249000D02*
X12290000Y-8279000D01*
X12296000Y-8332000D02*
X12326000Y-8362000D01*
X12326000Y-8332000D02*
X12296000Y-8362000D01*
X12324143Y-9052143D02*
X12354143Y-9082143D01*
X12354143Y-9052143D02*
X12324143Y-9082143D01*
X12337500Y-9676000D02*
X12367500Y-9706000D01*
X12367500Y-9676000D02*
X12337500Y-9706000D01*
X12354000Y-8151000D02*
X12384000Y-8181000D01*
X12384000Y-8151000D02*
X12354000Y-8181000D01*
X12360000Y-8045000D02*
X12390000Y-8075000D01*
X12390000Y-8045000D02*
X12360000Y-8075000D01*
X12378980Y-8956000D02*
X12408980Y-8986000D01*
X12408980Y-8956000D02*
X12378980Y-8986000D01*
X12393000Y-9427000D02*
X12423000Y-9457000D01*
X12423000Y-9427000D02*
X12393000Y-9457000D01*
X12399000Y-9531000D02*
X12429000Y-9561000D01*
X12429000Y-9531000D02*
X12399000Y-9561000D01*
X12408221Y-8618128D02*
X12438221Y-8648128D01*
X12438221Y-8618128D02*
X12408221Y-8648128D01*
X12422000Y-9244000D02*
X12452000Y-9274000D01*
X12452000Y-9244000D02*
X12422000Y-9274000D01*
X12426000Y-8244000D02*
X12456000Y-8274000D01*
X12456000Y-8244000D02*
X12426000Y-8274000D01*
X12451280Y-9428000D02*
X12481280Y-9458000D01*
X12481280Y-9428000D02*
X12451280Y-9458000D01*
X12455763Y-8722000D02*
X12485763Y-8752000D01*
X12485763Y-8722000D02*
X12455763Y-8752000D01*
X12465000Y-9154000D02*
X12495000Y-9184000D01*
X12495000Y-9154000D02*
X12465000Y-9184000D01*
X12466560Y-9677640D02*
X12496560Y-9707640D01*
X12496560Y-9677640D02*
X12466560Y-9707640D01*
X12517000Y-8433000D02*
X12547000Y-8463000D01*
X12547000Y-8433000D02*
X12517000Y-8463000D01*
X12518000Y-8217000D02*
X12548000Y-8247000D01*
X12548000Y-8217000D02*
X12518000Y-8247000D01*
X12519280Y-8974280D02*
X12549280Y-9004280D01*
X12549280Y-8974280D02*
X12519280Y-9004280D01*
X12530000Y-9802000D02*
X12560000Y-9832000D01*
X12560000Y-9802000D02*
X12530000Y-9832000D01*
X12554150Y-9080850D02*
X12584150Y-9110850D01*
X12584150Y-9080850D02*
X12554150Y-9110850D01*
X12578990Y-9591010D02*
X12608990Y-9621010D01*
X12608990Y-9591010D02*
X12578990Y-9621010D01*
X12612000Y-9004000D02*
X12642000Y-9034000D01*
X12642000Y-9004000D02*
X12612000Y-9034000D01*
X12632500Y-9771000D02*
X12662500Y-9801000D01*
X12662500Y-9771000D02*
X12632500Y-9801000D01*
X12633280Y-8857000D02*
X12663280Y-8887000D01*
X12663280Y-8857000D02*
X12633280Y-8887000D01*
X12663000Y-9461000D02*
X12693000Y-9491000D01*
X12693000Y-9461000D02*
X12663000Y-9491000D01*
X12677000Y-8676000D02*
X12707000Y-8706000D01*
X12707000Y-8676000D02*
X12677000Y-8706000D01*
X12735000Y-9354000D02*
X12765000Y-9384000D01*
X12765000Y-9354000D02*
X12735000Y-9384000D01*
X12769280Y-8804500D02*
X12799280Y-8834500D01*
X12799280Y-8804500D02*
X12769280Y-8834500D01*
X12806000Y-9412000D02*
X12836000Y-9442000D01*
X12836000Y-9412000D02*
X12806000Y-9442000D01*
X12809500Y-9638500D02*
X12839500Y-9668500D01*
X12839500Y-9638500D02*
X12809500Y-9668500D01*
X12811280Y-9006500D02*
X12841280Y-9036500D01*
X12841280Y-9006500D02*
X12811280Y-9036500D01*
X12871936Y-8918200D02*
X12901936Y-8948200D01*
X12901936Y-8918200D02*
X12871936Y-8948200D01*
X12882000Y-9178000D02*
X12912000Y-9208000D01*
X12912000Y-9178000D02*
X12882000Y-9208000D01*
X12912500Y-9501500D02*
X12942500Y-9531500D01*
X12942500Y-9501500D02*
X12912500Y-9531500D01*
X12937280Y-8936000D02*
X12967280Y-8966000D01*
X12967280Y-8936000D02*
X12937280Y-8966000D01*
X12994488Y-8836088D02*
X13024488Y-8866088D01*
X13024488Y-8836088D02*
X12994488Y-8866088D01*
X13004000Y-8547000D02*
X13034000Y-8577000D01*
X13034000Y-8547000D02*
X13004000Y-8577000D01*
X13081000Y-8284000D02*
X13111000Y-8314000D01*
X13111000Y-8284000D02*
X13081000Y-8314000D01*
X13085000Y-9708000D02*
X13115000Y-9738000D01*
X13115000Y-9708000D02*
X13085000Y-9738000D01*
X13090000Y-9484000D02*
X13120000Y-9514000D01*
X13120000Y-9484000D02*
X13090000Y-9514000D01*
X13099033Y-9134700D02*
X13129033Y-9164700D01*
X13129033Y-9134700D02*
X13099033Y-9164700D01*
X13114000Y-9564000D02*
X13144000Y-9594000D01*
X13144000Y-9564000D02*
X13114000Y-9594000D01*
X13185000Y-9685000D02*
X13215000Y-9715000D01*
X13215000Y-9685000D02*
X13185000Y-9715000D01*
X13185000Y-9885000D02*
X13215000Y-9915000D01*
X13215000Y-9885000D02*
X13185000Y-9915000D01*
X13185000Y-10085000D02*
X13215000Y-10115000D01*
X13215000Y-10085000D02*
X13185000Y-10115000D01*
X13201253Y-9225253D02*
X13231253Y-9255253D01*
X13231253Y-9225253D02*
X13201253Y-9255253D01*
X13226000Y-8289000D02*
X13256000Y-8319000D01*
X13256000Y-8289000D02*
X13226000Y-8319000D01*
X13235000Y-9785000D02*
X13265000Y-9815000D01*
X13265000Y-9785000D02*
X13235000Y-9815000D01*
X13235000Y-9985000D02*
X13265000Y-10015000D01*
X13265000Y-9985000D02*
X13235000Y-10015000D01*
X13255517Y-9271763D02*
X13285517Y-9301763D01*
X13285517Y-9271763D02*
X13255517Y-9301763D01*
X13260280Y-8393000D02*
X13290280Y-8423000D01*
X13290280Y-8393000D02*
X13260280Y-8423000D01*
X13335000Y-9685000D02*
X13365000Y-9715000D01*
X13365000Y-9685000D02*
X13335000Y-9715000D01*
X13335000Y-9885000D02*
X13365000Y-9915000D01*
X13365000Y-9885000D02*
X13335000Y-9915000D01*
X13335000Y-10085000D02*
X13365000Y-10115000D01*
X13365000Y-10085000D02*
X13335000Y-10115000D01*
X13384000Y-9620000D02*
X13414000Y-9650000D01*
X13414000Y-9620000D02*
X13384000Y-9650000D01*
X13385000Y-9785000D02*
X13415000Y-9815000D01*
X13415000Y-9785000D02*
X13385000Y-9815000D01*
X13385000Y-9985000D02*
X13415000Y-10015000D01*
X13415000Y-9985000D02*
X13385000Y-10015000D01*
X13437280Y-8478000D02*
X13467280Y-8508000D01*
X13467280Y-8478000D02*
X13437280Y-8508000D01*
X13483000Y-9607000D02*
X13513000Y-9637000D01*
X13513000Y-9607000D02*
X13483000Y-9637000D01*
X13485000Y-9685000D02*
X13515000Y-9715000D01*
X13515000Y-9685000D02*
X13485000Y-9715000D01*
X13485000Y-9885000D02*
X13515000Y-9915000D01*
X13515000Y-9885000D02*
X13485000Y-9915000D01*
X13485000Y-10085000D02*
X13515000Y-10115000D01*
X13515000Y-10085000D02*
X13485000Y-10115000D01*
X13535000Y-9785000D02*
X13565000Y-9815000D01*
X13565000Y-9785000D02*
X13535000Y-9815000D01*
X13535000Y-9985000D02*
X13565000Y-10015000D01*
X13565000Y-9985000D02*
X13535000Y-10015000D01*
X13540000Y-8009000D02*
X13570000Y-8039000D01*
X13570000Y-8009000D02*
X13540000Y-8039000D01*
X13541000Y-8165000D02*
X13571000Y-8195000D01*
X13571000Y-8165000D02*
X13541000Y-8195000D01*
X13546000Y-8851000D02*
X13576000Y-8881000D01*
X13576000Y-8851000D02*
X13546000Y-8881000D01*
X13554000Y-9398000D02*
X13584000Y-9428000D01*
X13584000Y-9398000D02*
X13554000Y-9428000D01*
X13564280Y-8478000D02*
X13594280Y-8508000D01*
X13594280Y-8478000D02*
X13564280Y-8508000D01*
X13579170Y-9140264D02*
X13609170Y-9170264D01*
X13609170Y-9140264D02*
X13579170Y-9170264D01*
X13581620Y-9586200D02*
X13611620Y-9616200D01*
X13611620Y-9586200D02*
X13581620Y-9616200D01*
X13626480Y-8845000D02*
X13656480Y-8875000D01*
X13656480Y-8845000D02*
X13626480Y-8875000D01*
X13635000Y-9685000D02*
X13665000Y-9715000D01*
X13665000Y-9685000D02*
X13635000Y-9715000D01*
X13635000Y-9885000D02*
X13665000Y-9915000D01*
X13665000Y-9885000D02*
X13635000Y-9915000D01*
X13635000Y-10085000D02*
X13665000Y-10115000D01*
X13665000Y-10085000D02*
X13635000Y-10115000D01*
X13662000Y-8691000D02*
X13692000Y-8721000D01*
X13692000Y-8691000D02*
X13662000Y-8721000D01*
X13685000Y-9398000D02*
X13715000Y-9428000D01*
X13715000Y-9398000D02*
X13685000Y-9428000D01*
X13685000Y-9585000D02*
X13715000Y-9615000D01*
X13715000Y-9585000D02*
X13685000Y-9615000D01*
X13685000Y-9785000D02*
X13715000Y-9815000D01*
X13715000Y-9785000D02*
X13685000Y-9815000D01*
X13685000Y-9985000D02*
X13715000Y-10015000D01*
X13715000Y-9985000D02*
X13685000Y-10015000D01*
X13707000Y-9306000D02*
X13737000Y-9336000D01*
X13737000Y-9306000D02*
X13707000Y-9336000D01*
X13710453Y-8336547D02*
X13740453Y-8366547D01*
X13740453Y-8336547D02*
X13710453Y-8366547D01*
X13724000Y-8737000D02*
X13754000Y-8767000D01*
X13754000Y-8737000D02*
X13724000Y-8767000D01*
X13785000Y-9405000D02*
X13815000Y-9435000D01*
X13815000Y-9405000D02*
X13785000Y-9435000D01*
X13785000Y-9685000D02*
X13815000Y-9715000D01*
X13815000Y-9685000D02*
X13785000Y-9715000D01*
X13785000Y-9885000D02*
X13815000Y-9915000D01*
X13815000Y-9885000D02*
X13785000Y-9915000D01*
X13785000Y-10085000D02*
X13815000Y-10115000D01*
X13815000Y-10085000D02*
X13785000Y-10115000D01*
X13794980Y-8984220D02*
X13824980Y-9014220D01*
X13824980Y-8984220D02*
X13794980Y-9014220D01*
X13797520Y-8918180D02*
X13827520Y-8948180D01*
X13827520Y-8918180D02*
X13797520Y-8948180D01*
X13797520Y-9583660D02*
X13827520Y-9613660D01*
X13827520Y-9583660D02*
X13797520Y-9613660D01*
X13807000Y-9306000D02*
X13837000Y-9336000D01*
X13837000Y-9306000D02*
X13807000Y-9336000D01*
X13835000Y-9785000D02*
X13865000Y-9815000D01*
X13865000Y-9785000D02*
X13835000Y-9815000D01*
X13835000Y-9985000D02*
X13865000Y-10015000D01*
X13865000Y-9985000D02*
X13835000Y-10015000D01*
X13839000Y-8310800D02*
X13869000Y-8340800D01*
X13869000Y-8310800D02*
X13839000Y-8340800D01*
X13885000Y-9405000D02*
X13915000Y-9435000D01*
X13915000Y-9405000D02*
X13885000Y-9435000D01*
X13885000Y-9685000D02*
X13915000Y-9715000D01*
X13915000Y-9685000D02*
X13885000Y-9715000D01*
X13885000Y-9885000D02*
X13915000Y-9915000D01*
X13915000Y-9885000D02*
X13885000Y-9915000D01*
X13885000Y-10085000D02*
X13915000Y-10115000D01*
X13915000Y-10085000D02*
X13885000Y-10115000D01*
X13886420Y-9576040D02*
X13916420Y-9606040D01*
X13916420Y-9576040D02*
X13886420Y-9606040D01*
X13932571Y-9329050D02*
X13962571Y-9359050D01*
X13962571Y-9329050D02*
X13932571Y-9359050D01*
X14011000Y-9407000D02*
X14041000Y-9437000D01*
X14041000Y-9407000D02*
X14011000Y-9437000D01*
X14042500Y-8592500D02*
X14072500Y-8622500D01*
X14072500Y-8592500D02*
X14042500Y-8622500D01*
X14043900Y-9337280D02*
X14073900Y-9367280D01*
X14073900Y-9337280D02*
X14043900Y-9367280D01*
X14117000Y-9399000D02*
X14147000Y-9429000D01*
X14147000Y-9399000D02*
X14117000Y-9429000D01*
X14135000Y-8135000D02*
X14165000Y-8165000D01*
X14165000Y-8135000D02*
X14135000Y-8165000D01*
X14135000Y-9035000D02*
X14165000Y-9065000D01*
X14165000Y-9035000D02*
X14135000Y-9065000D01*
X14176000Y-9340000D02*
X14206000Y-9370000D01*
X14206000Y-9340000D02*
X14176000Y-9370000D01*
X14235000Y-8135000D02*
X14265000Y-8165000D01*
X14265000Y-8135000D02*
X14235000Y-8165000D01*
X14235000Y-9035000D02*
X14265000Y-9065000D01*
X14265000Y-9035000D02*
X14235000Y-9065000D01*
X14245000Y-9405000D02*
X14275000Y-9435000D01*
X14275000Y-9405000D02*
X14245000Y-9435000D01*
X14259800Y-9329660D02*
X14289800Y-9359660D01*
X14289800Y-9329660D02*
X14259800Y-9359660D01*
X14505000Y-9345000D02*
X14535000Y-9375000D01*
X14535000Y-9345000D02*
X14505000Y-9375000D01*
X14508720Y-9423640D02*
X14538720Y-9453640D01*
X14538720Y-9423640D02*
X14508720Y-9453640D01*
X12053000Y-9760000D02*
G75*
G02*
X12013000Y-9760000I-20000J0D01*
G01*
X12013000Y-9760000D02*
G75*
G02*
X12053000Y-9760000I20000J0D01*
G01*
X12362000Y-9953000D02*
X12362000Y-10013000D01*
X12332000Y-9983000D02*
X12392000Y-9983000D01*
X12362000Y-10053000D02*
X12362000Y-10113000D01*
X12332000Y-10083000D02*
X12392000Y-10083000D01*
X9419191Y-9048191D02*
X9419191Y-8977480D01*
X9348480Y-8977480D01*
X9348480Y-9048191D01*
X9419191Y-9048191D01*
X9468556Y-9270866D02*
X9468556Y-9200154D01*
X9397845Y-9200154D01*
X9397845Y-9270866D01*
X9468556Y-9270866D01*
X9631005Y-8836378D02*
X9631005Y-8765666D01*
X9560294Y-8765666D01*
X9560294Y-8836378D01*
X9631005Y-8836378D01*
X9668998Y-9379696D02*
X9668998Y-9308984D01*
X9598286Y-9308984D01*
X9598286Y-9379696D01*
X9668998Y-9379696D01*
X9688180Y-9105367D02*
X9688180Y-9034655D01*
X9617469Y-9034655D01*
X9617469Y-9105367D01*
X9688180Y-9105367D01*
X9853678Y-8885744D02*
X9853678Y-8815032D01*
X9782967Y-8815032D01*
X9782967Y-8885744D01*
X9853678Y-8885744D01*
X9882634Y-9299821D02*
X9882634Y-9229109D01*
X9811923Y-9229109D01*
X9811923Y-9299821D01*
X9882634Y-9299821D01*
X9962509Y-9086184D02*
X9962509Y-9015473D01*
X9891798Y-9015473D01*
X9891798Y-9086184D01*
X9962509Y-9086184D01*
D13*
X10200000Y-8157600D02*
X10257600Y-8100000D01*
X10200000Y-8042400D01*
X10142400Y-8100000D01*
X10200000Y-8157600D01*
X10200000Y-10107600D02*
X10257600Y-10050000D01*
X10200000Y-9992400D01*
X10142400Y-10050000D01*
X10200000Y-10107600D01*
X14400000Y-8457600D02*
X14457600Y-8400000D01*
X14400000Y-8342400D01*
X14342400Y-8400000D01*
X14400000Y-8457600D01*
D11*
X9158277Y-10513984D02*
X9158277Y-10313984D01*
X9158277Y-10313984D02*
X9205896Y-10313984D01*
X9205896Y-10313984D02*
X9234467Y-10323508D01*
X9234467Y-10323508D02*
X9253515Y-10342555D01*
X9253515Y-10342555D02*
X9263039Y-10361603D01*
X9263039Y-10361603D02*
X9272563Y-10399698D01*
X9272563Y-10399698D02*
X9272563Y-10428270D01*
X9272563Y-10428270D02*
X9263039Y-10466365D01*
X9263039Y-10466365D02*
X9253515Y-10485412D01*
X9253515Y-10485412D02*
X9234467Y-10504460D01*
X9234467Y-10504460D02*
X9205896Y-10513984D01*
X9205896Y-10513984D02*
X9158277Y-10513984D01*
X9358277Y-10513984D02*
X9358277Y-10380650D01*
X9358277Y-10418746D02*
X9367801Y-10399698D01*
X9367801Y-10399698D02*
X9377324Y-10390174D01*
X9377324Y-10390174D02*
X9396372Y-10380650D01*
X9396372Y-10380650D02*
X9415420Y-10380650D01*
X9482086Y-10513984D02*
X9482086Y-10380650D01*
X9482086Y-10313984D02*
X9472563Y-10323508D01*
X9472563Y-10323508D02*
X9482086Y-10333031D01*
X9482086Y-10333031D02*
X9491610Y-10323508D01*
X9491610Y-10323508D02*
X9482086Y-10313984D01*
X9482086Y-10313984D02*
X9482086Y-10333031D01*
X9605896Y-10513984D02*
X9586848Y-10504460D01*
X9586848Y-10504460D02*
X9577324Y-10485412D01*
X9577324Y-10485412D02*
X9577324Y-10313984D01*
X9710658Y-10513984D02*
X9691610Y-10504460D01*
X9691610Y-10504460D02*
X9682086Y-10485412D01*
X9682086Y-10485412D02*
X9682086Y-10313984D01*
X9939229Y-10513984D02*
X9939229Y-10313984D01*
X9939229Y-10313984D02*
X10005896Y-10456841D01*
X10005896Y-10456841D02*
X10072563Y-10313984D01*
X10072563Y-10313984D02*
X10072563Y-10513984D01*
X10253515Y-10513984D02*
X10253515Y-10409222D01*
X10253515Y-10409222D02*
X10243991Y-10390174D01*
X10243991Y-10390174D02*
X10224944Y-10380650D01*
X10224944Y-10380650D02*
X10186848Y-10380650D01*
X10186848Y-10380650D02*
X10167801Y-10390174D01*
X10253515Y-10504460D02*
X10234467Y-10513984D01*
X10234467Y-10513984D02*
X10186848Y-10513984D01*
X10186848Y-10513984D02*
X10167801Y-10504460D01*
X10167801Y-10504460D02*
X10158277Y-10485412D01*
X10158277Y-10485412D02*
X10158277Y-10466365D01*
X10158277Y-10466365D02*
X10167801Y-10447317D01*
X10167801Y-10447317D02*
X10186848Y-10437793D01*
X10186848Y-10437793D02*
X10234467Y-10437793D01*
X10234467Y-10437793D02*
X10253515Y-10428270D01*
X10348753Y-10380650D02*
X10348753Y-10580650D01*
X10348753Y-10390174D02*
X10367801Y-10380650D01*
X10367801Y-10380650D02*
X10405896Y-10380650D01*
X10405896Y-10380650D02*
X10424944Y-10390174D01*
X10424944Y-10390174D02*
X10434467Y-10399698D01*
X10434467Y-10399698D02*
X10443991Y-10418746D01*
X10443991Y-10418746D02*
X10443991Y-10475889D01*
X10443991Y-10475889D02*
X10434467Y-10494936D01*
X10434467Y-10494936D02*
X10424944Y-10504460D01*
X10424944Y-10504460D02*
X10405896Y-10513984D01*
X10405896Y-10513984D02*
X10367801Y-10513984D01*
X10367801Y-10513984D02*
X10348753Y-10504460D01*
X10529705Y-10494936D02*
X10539229Y-10504460D01*
X10539229Y-10504460D02*
X10529705Y-10513984D01*
X10529705Y-10513984D02*
X10520182Y-10504460D01*
X10520182Y-10504460D02*
X10529705Y-10494936D01*
X10529705Y-10494936D02*
X10529705Y-10513984D01*
X10529705Y-10390174D02*
X10539229Y-10399698D01*
X10539229Y-10399698D02*
X10529705Y-10409222D01*
X10529705Y-10409222D02*
X10520182Y-10399698D01*
X10520182Y-10399698D02*
X10529705Y-10390174D01*
X10529705Y-10390174D02*
X10529705Y-10409222D01*
D12*
X8867500Y-10827500D02*
X8897500Y-10857500D01*
X8897500Y-10827500D02*
X8867500Y-10857500D01*
D11*
X9196372Y-10733984D02*
X9215420Y-10733984D01*
X9215420Y-10733984D02*
X9234467Y-10743508D01*
X9234467Y-10743508D02*
X9243991Y-10753031D01*
X9243991Y-10753031D02*
X9253515Y-10772079D01*
X9253515Y-10772079D02*
X9263039Y-10810174D01*
X9263039Y-10810174D02*
X9263039Y-10857793D01*
X9263039Y-10857793D02*
X9253515Y-10895889D01*
X9253515Y-10895889D02*
X9243991Y-10914936D01*
X9243991Y-10914936D02*
X9234467Y-10924460D01*
X9234467Y-10924460D02*
X9215420Y-10933984D01*
X9215420Y-10933984D02*
X9196372Y-10933984D01*
X9196372Y-10933984D02*
X9177324Y-10924460D01*
X9177324Y-10924460D02*
X9167801Y-10914936D01*
X9167801Y-10914936D02*
X9158277Y-10895889D01*
X9158277Y-10895889D02*
X9148753Y-10857793D01*
X9148753Y-10857793D02*
X9148753Y-10810174D01*
X9148753Y-10810174D02*
X9158277Y-10772079D01*
X9158277Y-10772079D02*
X9167801Y-10753031D01*
X9167801Y-10753031D02*
X9177324Y-10743508D01*
X9177324Y-10743508D02*
X9196372Y-10733984D01*
X9348753Y-10914936D02*
X9358277Y-10924460D01*
X9358277Y-10924460D02*
X9348753Y-10933984D01*
X9348753Y-10933984D02*
X9339229Y-10924460D01*
X9339229Y-10924460D02*
X9348753Y-10914936D01*
X9348753Y-10914936D02*
X9348753Y-10933984D01*
X9424944Y-10733984D02*
X9548753Y-10733984D01*
X9548753Y-10733984D02*
X9482086Y-10810174D01*
X9482086Y-10810174D02*
X9510658Y-10810174D01*
X9510658Y-10810174D02*
X9529705Y-10819698D01*
X9529705Y-10819698D02*
X9539229Y-10829222D01*
X9539229Y-10829222D02*
X9548753Y-10848270D01*
X9548753Y-10848270D02*
X9548753Y-10895889D01*
X9548753Y-10895889D02*
X9539229Y-10914936D01*
X9539229Y-10914936D02*
X9529705Y-10924460D01*
X9529705Y-10924460D02*
X9510658Y-10933984D01*
X9510658Y-10933984D02*
X9453515Y-10933984D01*
X9453515Y-10933984D02*
X9434467Y-10924460D01*
X9434467Y-10924460D02*
X9424944Y-10914936D01*
X9672563Y-10733984D02*
X9691610Y-10733984D01*
X9691610Y-10733984D02*
X9710658Y-10743508D01*
X9710658Y-10743508D02*
X9720182Y-10753031D01*
X9720182Y-10753031D02*
X9729705Y-10772079D01*
X9729705Y-10772079D02*
X9739229Y-10810174D01*
X9739229Y-10810174D02*
X9739229Y-10857793D01*
X9739229Y-10857793D02*
X9729705Y-10895889D01*
X9729705Y-10895889D02*
X9720182Y-10914936D01*
X9720182Y-10914936D02*
X9710658Y-10924460D01*
X9710658Y-10924460D02*
X9691610Y-10933984D01*
X9691610Y-10933984D02*
X9672563Y-10933984D01*
X9672563Y-10933984D02*
X9653515Y-10924460D01*
X9653515Y-10924460D02*
X9643991Y-10914936D01*
X9643991Y-10914936D02*
X9634467Y-10895889D01*
X9634467Y-10895889D02*
X9624944Y-10857793D01*
X9624944Y-10857793D02*
X9624944Y-10810174D01*
X9624944Y-10810174D02*
X9634467Y-10772079D01*
X9634467Y-10772079D02*
X9643991Y-10753031D01*
X9643991Y-10753031D02*
X9653515Y-10743508D01*
X9653515Y-10743508D02*
X9672563Y-10733984D01*
X9863039Y-10733984D02*
X9882086Y-10733984D01*
X9882086Y-10733984D02*
X9901134Y-10743508D01*
X9901134Y-10743508D02*
X9910658Y-10753031D01*
X9910658Y-10753031D02*
X9920182Y-10772079D01*
X9920182Y-10772079D02*
X9929705Y-10810174D01*
X9929705Y-10810174D02*
X9929705Y-10857793D01*
X9929705Y-10857793D02*
X9920182Y-10895889D01*
X9920182Y-10895889D02*
X9910658Y-10914936D01*
X9910658Y-10914936D02*
X9901134Y-10924460D01*
X9901134Y-10924460D02*
X9882086Y-10933984D01*
X9882086Y-10933984D02*
X9863039Y-10933984D01*
X9863039Y-10933984D02*
X9843991Y-10924460D01*
X9843991Y-10924460D02*
X9834467Y-10914936D01*
X9834467Y-10914936D02*
X9824944Y-10895889D01*
X9824944Y-10895889D02*
X9815420Y-10857793D01*
X9815420Y-10857793D02*
X9815420Y-10810174D01*
X9815420Y-10810174D02*
X9824944Y-10772079D01*
X9824944Y-10772079D02*
X9834467Y-10753031D01*
X9834467Y-10753031D02*
X9843991Y-10743508D01*
X9843991Y-10743508D02*
X9863039Y-10733984D01*
X10015420Y-10933984D02*
X10015420Y-10800650D01*
X10015420Y-10819698D02*
X10024944Y-10810174D01*
X10024944Y-10810174D02*
X10043991Y-10800650D01*
X10043991Y-10800650D02*
X10072563Y-10800650D01*
X10072563Y-10800650D02*
X10091610Y-10810174D01*
X10091610Y-10810174D02*
X10101134Y-10829222D01*
X10101134Y-10829222D02*
X10101134Y-10933984D01*
X10101134Y-10829222D02*
X10110658Y-10810174D01*
X10110658Y-10810174D02*
X10129705Y-10800650D01*
X10129705Y-10800650D02*
X10158277Y-10800650D01*
X10158277Y-10800650D02*
X10177325Y-10810174D01*
X10177325Y-10810174D02*
X10186848Y-10829222D01*
X10186848Y-10829222D02*
X10186848Y-10933984D01*
X10282086Y-10933984D02*
X10282086Y-10800650D01*
X10282086Y-10819698D02*
X10291610Y-10810174D01*
X10291610Y-10810174D02*
X10310658Y-10800650D01*
X10310658Y-10800650D02*
X10339229Y-10800650D01*
X10339229Y-10800650D02*
X10358277Y-10810174D01*
X10358277Y-10810174D02*
X10367801Y-10829222D01*
X10367801Y-10829222D02*
X10367801Y-10933984D01*
X10367801Y-10829222D02*
X10377325Y-10810174D01*
X10377325Y-10810174D02*
X10396372Y-10800650D01*
X10396372Y-10800650D02*
X10424944Y-10800650D01*
X10424944Y-10800650D02*
X10443991Y-10810174D01*
X10443991Y-10810174D02*
X10453515Y-10829222D01*
X10453515Y-10829222D02*
X10453515Y-10933984D01*
X10843991Y-10724460D02*
X10672563Y-10981603D01*
X11101134Y-10733984D02*
X11120182Y-10733984D01*
X11120182Y-10733984D02*
X11139229Y-10743508D01*
X11139229Y-10743508D02*
X11148753Y-10753031D01*
X11148753Y-10753031D02*
X11158277Y-10772079D01*
X11158277Y-10772079D02*
X11167801Y-10810174D01*
X11167801Y-10810174D02*
X11167801Y-10857793D01*
X11167801Y-10857793D02*
X11158277Y-10895889D01*
X11158277Y-10895889D02*
X11148753Y-10914936D01*
X11148753Y-10914936D02*
X11139229Y-10924460D01*
X11139229Y-10924460D02*
X11120182Y-10933984D01*
X11120182Y-10933984D02*
X11101134Y-10933984D01*
X11101134Y-10933984D02*
X11082087Y-10924460D01*
X11082087Y-10924460D02*
X11072563Y-10914936D01*
X11072563Y-10914936D02*
X11063039Y-10895889D01*
X11063039Y-10895889D02*
X11053515Y-10857793D01*
X11053515Y-10857793D02*
X11053515Y-10810174D01*
X11053515Y-10810174D02*
X11063039Y-10772079D01*
X11063039Y-10772079D02*
X11072563Y-10753031D01*
X11072563Y-10753031D02*
X11082087Y-10743508D01*
X11082087Y-10743508D02*
X11101134Y-10733984D01*
X11253515Y-10914936D02*
X11263039Y-10924460D01*
X11263039Y-10924460D02*
X11253515Y-10933984D01*
X11253515Y-10933984D02*
X11243991Y-10924460D01*
X11243991Y-10924460D02*
X11253515Y-10914936D01*
X11253515Y-10914936D02*
X11253515Y-10933984D01*
X11386848Y-10733984D02*
X11405896Y-10733984D01*
X11405896Y-10733984D02*
X11424944Y-10743508D01*
X11424944Y-10743508D02*
X11434467Y-10753031D01*
X11434467Y-10753031D02*
X11443991Y-10772079D01*
X11443991Y-10772079D02*
X11453515Y-10810174D01*
X11453515Y-10810174D02*
X11453515Y-10857793D01*
X11453515Y-10857793D02*
X11443991Y-10895889D01*
X11443991Y-10895889D02*
X11434467Y-10914936D01*
X11434467Y-10914936D02*
X11424944Y-10924460D01*
X11424944Y-10924460D02*
X11405896Y-10933984D01*
X11405896Y-10933984D02*
X11386848Y-10933984D01*
X11386848Y-10933984D02*
X11367801Y-10924460D01*
X11367801Y-10924460D02*
X11358277Y-10914936D01*
X11358277Y-10914936D02*
X11348753Y-10895889D01*
X11348753Y-10895889D02*
X11339229Y-10857793D01*
X11339229Y-10857793D02*
X11339229Y-10810174D01*
X11339229Y-10810174D02*
X11348753Y-10772079D01*
X11348753Y-10772079D02*
X11358277Y-10753031D01*
X11358277Y-10753031D02*
X11367801Y-10743508D01*
X11367801Y-10743508D02*
X11386848Y-10733984D01*
X11643991Y-10933984D02*
X11529706Y-10933984D01*
X11586848Y-10933984D02*
X11586848Y-10733984D01*
X11586848Y-10733984D02*
X11567801Y-10762555D01*
X11567801Y-10762555D02*
X11548753Y-10781603D01*
X11548753Y-10781603D02*
X11529706Y-10791127D01*
X11834467Y-10933984D02*
X11720182Y-10933984D01*
X11777325Y-10933984D02*
X11777325Y-10733984D01*
X11777325Y-10733984D02*
X11758277Y-10762555D01*
X11758277Y-10762555D02*
X11739229Y-10781603D01*
X11739229Y-10781603D02*
X11720182Y-10791127D01*
X11948753Y-10819698D02*
X11929706Y-10810174D01*
X11929706Y-10810174D02*
X11920182Y-10800650D01*
X11920182Y-10800650D02*
X11910658Y-10781603D01*
X11910658Y-10781603D02*
X11910658Y-10772079D01*
X11910658Y-10772079D02*
X11920182Y-10753031D01*
X11920182Y-10753031D02*
X11929706Y-10743508D01*
X11929706Y-10743508D02*
X11948753Y-10733984D01*
X11948753Y-10733984D02*
X11986848Y-10733984D01*
X11986848Y-10733984D02*
X12005896Y-10743508D01*
X12005896Y-10743508D02*
X12015420Y-10753031D01*
X12015420Y-10753031D02*
X12024944Y-10772079D01*
X12024944Y-10772079D02*
X12024944Y-10781603D01*
X12024944Y-10781603D02*
X12015420Y-10800650D01*
X12015420Y-10800650D02*
X12005896Y-10810174D01*
X12005896Y-10810174D02*
X11986848Y-10819698D01*
X11986848Y-10819698D02*
X11948753Y-10819698D01*
X11948753Y-10819698D02*
X11929706Y-10829222D01*
X11929706Y-10829222D02*
X11920182Y-10838746D01*
X11920182Y-10838746D02*
X11910658Y-10857793D01*
X11910658Y-10857793D02*
X11910658Y-10895889D01*
X11910658Y-10895889D02*
X11920182Y-10914936D01*
X11920182Y-10914936D02*
X11929706Y-10924460D01*
X11929706Y-10924460D02*
X11948753Y-10933984D01*
X11948753Y-10933984D02*
X11986848Y-10933984D01*
X11986848Y-10933984D02*
X12005896Y-10924460D01*
X12005896Y-10924460D02*
X12015420Y-10914936D01*
X12015420Y-10914936D02*
X12024944Y-10895889D01*
X12024944Y-10895889D02*
X12024944Y-10857793D01*
X12024944Y-10857793D02*
X12015420Y-10838746D01*
X12015420Y-10838746D02*
X12005896Y-10829222D01*
X12005896Y-10829222D02*
X11986848Y-10819698D01*
X12101134Y-10733984D02*
X12101134Y-10772079D01*
X12177325Y-10733984D02*
X12177325Y-10772079D01*
X12472563Y-11010174D02*
X12463039Y-11000650D01*
X12463039Y-11000650D02*
X12443991Y-10972079D01*
X12443991Y-10972079D02*
X12434468Y-10953031D01*
X12434468Y-10953031D02*
X12424944Y-10924460D01*
X12424944Y-10924460D02*
X12415420Y-10876841D01*
X12415420Y-10876841D02*
X12415420Y-10838746D01*
X12415420Y-10838746D02*
X12424944Y-10791127D01*
X12424944Y-10791127D02*
X12434468Y-10762555D01*
X12434468Y-10762555D02*
X12443991Y-10743508D01*
X12443991Y-10743508D02*
X12463039Y-10714936D01*
X12463039Y-10714936D02*
X12472563Y-10705412D01*
X12653515Y-10933984D02*
X12539229Y-10933984D01*
X12596372Y-10933984D02*
X12596372Y-10733984D01*
X12596372Y-10733984D02*
X12577325Y-10762555D01*
X12577325Y-10762555D02*
X12558277Y-10781603D01*
X12558277Y-10781603D02*
X12539229Y-10791127D01*
X12767801Y-10819698D02*
X12748753Y-10810174D01*
X12748753Y-10810174D02*
X12739229Y-10800650D01*
X12739229Y-10800650D02*
X12729706Y-10781603D01*
X12729706Y-10781603D02*
X12729706Y-10772079D01*
X12729706Y-10772079D02*
X12739229Y-10753031D01*
X12739229Y-10753031D02*
X12748753Y-10743508D01*
X12748753Y-10743508D02*
X12767801Y-10733984D01*
X12767801Y-10733984D02*
X12805896Y-10733984D01*
X12805896Y-10733984D02*
X12824944Y-10743508D01*
X12824944Y-10743508D02*
X12834468Y-10753031D01*
X12834468Y-10753031D02*
X12843991Y-10772079D01*
X12843991Y-10772079D02*
X12843991Y-10781603D01*
X12843991Y-10781603D02*
X12834468Y-10800650D01*
X12834468Y-10800650D02*
X12824944Y-10810174D01*
X12824944Y-10810174D02*
X12805896Y-10819698D01*
X12805896Y-10819698D02*
X12767801Y-10819698D01*
X12767801Y-10819698D02*
X12748753Y-10829222D01*
X12748753Y-10829222D02*
X12739229Y-10838746D01*
X12739229Y-10838746D02*
X12729706Y-10857793D01*
X12729706Y-10857793D02*
X12729706Y-10895889D01*
X12729706Y-10895889D02*
X12739229Y-10914936D01*
X12739229Y-10914936D02*
X12748753Y-10924460D01*
X12748753Y-10924460D02*
X12767801Y-10933984D01*
X12767801Y-10933984D02*
X12805896Y-10933984D01*
X12805896Y-10933984D02*
X12824944Y-10924460D01*
X12824944Y-10924460D02*
X12834468Y-10914936D01*
X12834468Y-10914936D02*
X12843991Y-10895889D01*
X12843991Y-10895889D02*
X12843991Y-10857793D01*
X12843991Y-10857793D02*
X12834468Y-10838746D01*
X12834468Y-10838746D02*
X12824944Y-10829222D01*
X12824944Y-10829222D02*
X12805896Y-10819698D01*
X13034468Y-10933984D02*
X12920182Y-10933984D01*
X12977325Y-10933984D02*
X12977325Y-10733984D01*
X12977325Y-10733984D02*
X12958277Y-10762555D01*
X12958277Y-10762555D02*
X12939229Y-10781603D01*
X12939229Y-10781603D02*
X12920182Y-10791127D01*
X13272563Y-10933984D02*
X13272563Y-10733984D01*
X13358277Y-10933984D02*
X13358277Y-10829222D01*
X13358277Y-10829222D02*
X13348753Y-10810174D01*
X13348753Y-10810174D02*
X13329706Y-10800650D01*
X13329706Y-10800650D02*
X13301134Y-10800650D01*
X13301134Y-10800650D02*
X13282087Y-10810174D01*
X13282087Y-10810174D02*
X13272563Y-10819698D01*
X13482087Y-10933984D02*
X13463039Y-10924460D01*
X13463039Y-10924460D02*
X13453515Y-10914936D01*
X13453515Y-10914936D02*
X13443991Y-10895889D01*
X13443991Y-10895889D02*
X13443991Y-10838746D01*
X13443991Y-10838746D02*
X13453515Y-10819698D01*
X13453515Y-10819698D02*
X13463039Y-10810174D01*
X13463039Y-10810174D02*
X13482087Y-10800650D01*
X13482087Y-10800650D02*
X13510658Y-10800650D01*
X13510658Y-10800650D02*
X13529706Y-10810174D01*
X13529706Y-10810174D02*
X13539230Y-10819698D01*
X13539230Y-10819698D02*
X13548753Y-10838746D01*
X13548753Y-10838746D02*
X13548753Y-10895889D01*
X13548753Y-10895889D02*
X13539230Y-10914936D01*
X13539230Y-10914936D02*
X13529706Y-10924460D01*
X13529706Y-10924460D02*
X13510658Y-10933984D01*
X13510658Y-10933984D02*
X13482087Y-10933984D01*
X13663039Y-10933984D02*
X13643991Y-10924460D01*
X13643991Y-10924460D02*
X13634468Y-10905412D01*
X13634468Y-10905412D02*
X13634468Y-10733984D01*
X13815420Y-10924460D02*
X13796372Y-10933984D01*
X13796372Y-10933984D02*
X13758277Y-10933984D01*
X13758277Y-10933984D02*
X13739230Y-10924460D01*
X13739230Y-10924460D02*
X13729706Y-10905412D01*
X13729706Y-10905412D02*
X13729706Y-10829222D01*
X13729706Y-10829222D02*
X13739230Y-10810174D01*
X13739230Y-10810174D02*
X13758277Y-10800650D01*
X13758277Y-10800650D02*
X13796372Y-10800650D01*
X13796372Y-10800650D02*
X13815420Y-10810174D01*
X13815420Y-10810174D02*
X13824944Y-10829222D01*
X13824944Y-10829222D02*
X13824944Y-10848270D01*
X13824944Y-10848270D02*
X13729706Y-10867317D01*
X13901134Y-10924460D02*
X13920182Y-10933984D01*
X13920182Y-10933984D02*
X13958277Y-10933984D01*
X13958277Y-10933984D02*
X13977325Y-10924460D01*
X13977325Y-10924460D02*
X13986849Y-10905412D01*
X13986849Y-10905412D02*
X13986849Y-10895889D01*
X13986849Y-10895889D02*
X13977325Y-10876841D01*
X13977325Y-10876841D02*
X13958277Y-10867317D01*
X13958277Y-10867317D02*
X13929706Y-10867317D01*
X13929706Y-10867317D02*
X13910658Y-10857793D01*
X13910658Y-10857793D02*
X13901134Y-10838746D01*
X13901134Y-10838746D02*
X13901134Y-10829222D01*
X13901134Y-10829222D02*
X13910658Y-10810174D01*
X13910658Y-10810174D02*
X13929706Y-10800650D01*
X13929706Y-10800650D02*
X13958277Y-10800650D01*
X13958277Y-10800650D02*
X13977325Y-10810174D01*
X14053515Y-11010174D02*
X14063039Y-11000650D01*
X14063039Y-11000650D02*
X14082087Y-10972079D01*
X14082087Y-10972079D02*
X14091611Y-10953031D01*
X14091611Y-10953031D02*
X14101134Y-10924460D01*
X14101134Y-10924460D02*
X14110658Y-10876841D01*
X14110658Y-10876841D02*
X14110658Y-10838746D01*
X14110658Y-10838746D02*
X14101134Y-10791127D01*
X14101134Y-10791127D02*
X14091611Y-10762555D01*
X14091611Y-10762555D02*
X14082087Y-10743508D01*
X14082087Y-10743508D02*
X14063039Y-10714936D01*
X14063039Y-10714936D02*
X14053515Y-10705412D01*
D12*
X8897500Y-11106500D02*
G75*
G02*
X8857500Y-11106500I-20000J0D01*
G01*
X8857500Y-11106500D02*
G75*
G02*
X8897500Y-11106500I20000J0D01*
G01*
D11*
X9196372Y-10997984D02*
X9215420Y-10997984D01*
X9215420Y-10997984D02*
X9234467Y-11007508D01*
X9234467Y-11007508D02*
X9243991Y-11017031D01*
X9243991Y-11017031D02*
X9253515Y-11036079D01*
X9253515Y-11036079D02*
X9263039Y-11074174D01*
X9263039Y-11074174D02*
X9263039Y-11121793D01*
X9263039Y-11121793D02*
X9253515Y-11159889D01*
X9253515Y-11159889D02*
X9243991Y-11178936D01*
X9243991Y-11178936D02*
X9234467Y-11188460D01*
X9234467Y-11188460D02*
X9215420Y-11197984D01*
X9215420Y-11197984D02*
X9196372Y-11197984D01*
X9196372Y-11197984D02*
X9177324Y-11188460D01*
X9177324Y-11188460D02*
X9167801Y-11178936D01*
X9167801Y-11178936D02*
X9158277Y-11159889D01*
X9158277Y-11159889D02*
X9148753Y-11121793D01*
X9148753Y-11121793D02*
X9148753Y-11074174D01*
X9148753Y-11074174D02*
X9158277Y-11036079D01*
X9158277Y-11036079D02*
X9167801Y-11017031D01*
X9167801Y-11017031D02*
X9177324Y-11007508D01*
X9177324Y-11007508D02*
X9196372Y-10997984D01*
X9348753Y-11178936D02*
X9358277Y-11188460D01*
X9358277Y-11188460D02*
X9348753Y-11197984D01*
X9348753Y-11197984D02*
X9339229Y-11188460D01*
X9339229Y-11188460D02*
X9348753Y-11178936D01*
X9348753Y-11178936D02*
X9348753Y-11197984D01*
X9529705Y-11064650D02*
X9529705Y-11197984D01*
X9482086Y-10988460D02*
X9434467Y-11131317D01*
X9434467Y-11131317D02*
X9558277Y-11131317D01*
X9672563Y-10997984D02*
X9691610Y-10997984D01*
X9691610Y-10997984D02*
X9710658Y-11007508D01*
X9710658Y-11007508D02*
X9720182Y-11017031D01*
X9720182Y-11017031D02*
X9729705Y-11036079D01*
X9729705Y-11036079D02*
X9739229Y-11074174D01*
X9739229Y-11074174D02*
X9739229Y-11121793D01*
X9739229Y-11121793D02*
X9729705Y-11159889D01*
X9729705Y-11159889D02*
X9720182Y-11178936D01*
X9720182Y-11178936D02*
X9710658Y-11188460D01*
X9710658Y-11188460D02*
X9691610Y-11197984D01*
X9691610Y-11197984D02*
X9672563Y-11197984D01*
X9672563Y-11197984D02*
X9653515Y-11188460D01*
X9653515Y-11188460D02*
X9643991Y-11178936D01*
X9643991Y-11178936D02*
X9634467Y-11159889D01*
X9634467Y-11159889D02*
X9624944Y-11121793D01*
X9624944Y-11121793D02*
X9624944Y-11074174D01*
X9624944Y-11074174D02*
X9634467Y-11036079D01*
X9634467Y-11036079D02*
X9643991Y-11017031D01*
X9643991Y-11017031D02*
X9653515Y-11007508D01*
X9653515Y-11007508D02*
X9672563Y-10997984D01*
X9863039Y-10997984D02*
X9882086Y-10997984D01*
X9882086Y-10997984D02*
X9901134Y-11007508D01*
X9901134Y-11007508D02*
X9910658Y-11017031D01*
X9910658Y-11017031D02*
X9920182Y-11036079D01*
X9920182Y-11036079D02*
X9929705Y-11074174D01*
X9929705Y-11074174D02*
X9929705Y-11121793D01*
X9929705Y-11121793D02*
X9920182Y-11159889D01*
X9920182Y-11159889D02*
X9910658Y-11178936D01*
X9910658Y-11178936D02*
X9901134Y-11188460D01*
X9901134Y-11188460D02*
X9882086Y-11197984D01*
X9882086Y-11197984D02*
X9863039Y-11197984D01*
X9863039Y-11197984D02*
X9843991Y-11188460D01*
X9843991Y-11188460D02*
X9834467Y-11178936D01*
X9834467Y-11178936D02*
X9824944Y-11159889D01*
X9824944Y-11159889D02*
X9815420Y-11121793D01*
X9815420Y-11121793D02*
X9815420Y-11074174D01*
X9815420Y-11074174D02*
X9824944Y-11036079D01*
X9824944Y-11036079D02*
X9834467Y-11017031D01*
X9834467Y-11017031D02*
X9843991Y-11007508D01*
X9843991Y-11007508D02*
X9863039Y-10997984D01*
X10015420Y-11197984D02*
X10015420Y-11064650D01*
X10015420Y-11083698D02*
X10024944Y-11074174D01*
X10024944Y-11074174D02*
X10043991Y-11064650D01*
X10043991Y-11064650D02*
X10072563Y-11064650D01*
X10072563Y-11064650D02*
X10091610Y-11074174D01*
X10091610Y-11074174D02*
X10101134Y-11093222D01*
X10101134Y-11093222D02*
X10101134Y-11197984D01*
X10101134Y-11093222D02*
X10110658Y-11074174D01*
X10110658Y-11074174D02*
X10129705Y-11064650D01*
X10129705Y-11064650D02*
X10158277Y-11064650D01*
X10158277Y-11064650D02*
X10177325Y-11074174D01*
X10177325Y-11074174D02*
X10186848Y-11093222D01*
X10186848Y-11093222D02*
X10186848Y-11197984D01*
X10282086Y-11197984D02*
X10282086Y-11064650D01*
X10282086Y-11083698D02*
X10291610Y-11074174D01*
X10291610Y-11074174D02*
X10310658Y-11064650D01*
X10310658Y-11064650D02*
X10339229Y-11064650D01*
X10339229Y-11064650D02*
X10358277Y-11074174D01*
X10358277Y-11074174D02*
X10367801Y-11093222D01*
X10367801Y-11093222D02*
X10367801Y-11197984D01*
X10367801Y-11093222D02*
X10377325Y-11074174D01*
X10377325Y-11074174D02*
X10396372Y-11064650D01*
X10396372Y-11064650D02*
X10424944Y-11064650D01*
X10424944Y-11064650D02*
X10443991Y-11074174D01*
X10443991Y-11074174D02*
X10453515Y-11093222D01*
X10453515Y-11093222D02*
X10453515Y-11197984D01*
X10843991Y-10988460D02*
X10672563Y-11245603D01*
X11101134Y-10997984D02*
X11120182Y-10997984D01*
X11120182Y-10997984D02*
X11139229Y-11007508D01*
X11139229Y-11007508D02*
X11148753Y-11017031D01*
X11148753Y-11017031D02*
X11158277Y-11036079D01*
X11158277Y-11036079D02*
X11167801Y-11074174D01*
X11167801Y-11074174D02*
X11167801Y-11121793D01*
X11167801Y-11121793D02*
X11158277Y-11159889D01*
X11158277Y-11159889D02*
X11148753Y-11178936D01*
X11148753Y-11178936D02*
X11139229Y-11188460D01*
X11139229Y-11188460D02*
X11120182Y-11197984D01*
X11120182Y-11197984D02*
X11101134Y-11197984D01*
X11101134Y-11197984D02*
X11082087Y-11188460D01*
X11082087Y-11188460D02*
X11072563Y-11178936D01*
X11072563Y-11178936D02*
X11063039Y-11159889D01*
X11063039Y-11159889D02*
X11053515Y-11121793D01*
X11053515Y-11121793D02*
X11053515Y-11074174D01*
X11053515Y-11074174D02*
X11063039Y-11036079D01*
X11063039Y-11036079D02*
X11072563Y-11017031D01*
X11072563Y-11017031D02*
X11082087Y-11007508D01*
X11082087Y-11007508D02*
X11101134Y-10997984D01*
X11253515Y-11178936D02*
X11263039Y-11188460D01*
X11263039Y-11188460D02*
X11253515Y-11197984D01*
X11253515Y-11197984D02*
X11243991Y-11188460D01*
X11243991Y-11188460D02*
X11253515Y-11178936D01*
X11253515Y-11178936D02*
X11253515Y-11197984D01*
X11386848Y-10997984D02*
X11405896Y-10997984D01*
X11405896Y-10997984D02*
X11424944Y-11007508D01*
X11424944Y-11007508D02*
X11434467Y-11017031D01*
X11434467Y-11017031D02*
X11443991Y-11036079D01*
X11443991Y-11036079D02*
X11453515Y-11074174D01*
X11453515Y-11074174D02*
X11453515Y-11121793D01*
X11453515Y-11121793D02*
X11443991Y-11159889D01*
X11443991Y-11159889D02*
X11434467Y-11178936D01*
X11434467Y-11178936D02*
X11424944Y-11188460D01*
X11424944Y-11188460D02*
X11405896Y-11197984D01*
X11405896Y-11197984D02*
X11386848Y-11197984D01*
X11386848Y-11197984D02*
X11367801Y-11188460D01*
X11367801Y-11188460D02*
X11358277Y-11178936D01*
X11358277Y-11178936D02*
X11348753Y-11159889D01*
X11348753Y-11159889D02*
X11339229Y-11121793D01*
X11339229Y-11121793D02*
X11339229Y-11074174D01*
X11339229Y-11074174D02*
X11348753Y-11036079D01*
X11348753Y-11036079D02*
X11358277Y-11017031D01*
X11358277Y-11017031D02*
X11367801Y-11007508D01*
X11367801Y-11007508D02*
X11386848Y-10997984D01*
X11643991Y-11197984D02*
X11529706Y-11197984D01*
X11586848Y-11197984D02*
X11586848Y-10997984D01*
X11586848Y-10997984D02*
X11567801Y-11026555D01*
X11567801Y-11026555D02*
X11548753Y-11045603D01*
X11548753Y-11045603D02*
X11529706Y-11055127D01*
X11824944Y-10997984D02*
X11729706Y-10997984D01*
X11729706Y-10997984D02*
X11720182Y-11093222D01*
X11720182Y-11093222D02*
X11729706Y-11083698D01*
X11729706Y-11083698D02*
X11748753Y-11074174D01*
X11748753Y-11074174D02*
X11796372Y-11074174D01*
X11796372Y-11074174D02*
X11815420Y-11083698D01*
X11815420Y-11083698D02*
X11824944Y-11093222D01*
X11824944Y-11093222D02*
X11834467Y-11112270D01*
X11834467Y-11112270D02*
X11834467Y-11159889D01*
X11834467Y-11159889D02*
X11824944Y-11178936D01*
X11824944Y-11178936D02*
X11815420Y-11188460D01*
X11815420Y-11188460D02*
X11796372Y-11197984D01*
X11796372Y-11197984D02*
X11748753Y-11197984D01*
X11748753Y-11197984D02*
X11729706Y-11188460D01*
X11729706Y-11188460D02*
X11720182Y-11178936D01*
X11901134Y-10997984D02*
X12034467Y-10997984D01*
X12034467Y-10997984D02*
X11948753Y-11197984D01*
X12101134Y-10997984D02*
X12101134Y-11036079D01*
X12177325Y-10997984D02*
X12177325Y-11036079D01*
X12472563Y-11274174D02*
X12463039Y-11264650D01*
X12463039Y-11264650D02*
X12443991Y-11236079D01*
X12443991Y-11236079D02*
X12434468Y-11217031D01*
X12434468Y-11217031D02*
X12424944Y-11188460D01*
X12424944Y-11188460D02*
X12415420Y-11140841D01*
X12415420Y-11140841D02*
X12415420Y-11102746D01*
X12415420Y-11102746D02*
X12424944Y-11055127D01*
X12424944Y-11055127D02*
X12434468Y-11026555D01*
X12434468Y-11026555D02*
X12443991Y-11007508D01*
X12443991Y-11007508D02*
X12463039Y-10978936D01*
X12463039Y-10978936D02*
X12472563Y-10969412D01*
X12653515Y-11197984D02*
X12539229Y-11197984D01*
X12596372Y-11197984D02*
X12596372Y-10997984D01*
X12596372Y-10997984D02*
X12577325Y-11026555D01*
X12577325Y-11026555D02*
X12558277Y-11045603D01*
X12558277Y-11045603D02*
X12539229Y-11055127D01*
X12891610Y-11197984D02*
X12891610Y-10997984D01*
X12977325Y-11197984D02*
X12977325Y-11093222D01*
X12977325Y-11093222D02*
X12967801Y-11074174D01*
X12967801Y-11074174D02*
X12948753Y-11064650D01*
X12948753Y-11064650D02*
X12920182Y-11064650D01*
X12920182Y-11064650D02*
X12901134Y-11074174D01*
X12901134Y-11074174D02*
X12891610Y-11083698D01*
X13101134Y-11197984D02*
X13082087Y-11188460D01*
X13082087Y-11188460D02*
X13072563Y-11178936D01*
X13072563Y-11178936D02*
X13063039Y-11159889D01*
X13063039Y-11159889D02*
X13063039Y-11102746D01*
X13063039Y-11102746D02*
X13072563Y-11083698D01*
X13072563Y-11083698D02*
X13082087Y-11074174D01*
X13082087Y-11074174D02*
X13101134Y-11064650D01*
X13101134Y-11064650D02*
X13129706Y-11064650D01*
X13129706Y-11064650D02*
X13148753Y-11074174D01*
X13148753Y-11074174D02*
X13158277Y-11083698D01*
X13158277Y-11083698D02*
X13167801Y-11102746D01*
X13167801Y-11102746D02*
X13167801Y-11159889D01*
X13167801Y-11159889D02*
X13158277Y-11178936D01*
X13158277Y-11178936D02*
X13148753Y-11188460D01*
X13148753Y-11188460D02*
X13129706Y-11197984D01*
X13129706Y-11197984D02*
X13101134Y-11197984D01*
X13282087Y-11197984D02*
X13263039Y-11188460D01*
X13263039Y-11188460D02*
X13253515Y-11169412D01*
X13253515Y-11169412D02*
X13253515Y-10997984D01*
X13434468Y-11188460D02*
X13415420Y-11197984D01*
X13415420Y-11197984D02*
X13377325Y-11197984D01*
X13377325Y-11197984D02*
X13358277Y-11188460D01*
X13358277Y-11188460D02*
X13348753Y-11169412D01*
X13348753Y-11169412D02*
X13348753Y-11093222D01*
X13348753Y-11093222D02*
X13358277Y-11074174D01*
X13358277Y-11074174D02*
X13377325Y-11064650D01*
X13377325Y-11064650D02*
X13415420Y-11064650D01*
X13415420Y-11064650D02*
X13434468Y-11074174D01*
X13434468Y-11074174D02*
X13443991Y-11093222D01*
X13443991Y-11093222D02*
X13443991Y-11112270D01*
X13443991Y-11112270D02*
X13348753Y-11131317D01*
X13510658Y-11274174D02*
X13520182Y-11264650D01*
X13520182Y-11264650D02*
X13539230Y-11236079D01*
X13539230Y-11236079D02*
X13548753Y-11217031D01*
X13548753Y-11217031D02*
X13558277Y-11188460D01*
X13558277Y-11188460D02*
X13567801Y-11140841D01*
X13567801Y-11140841D02*
X13567801Y-11102746D01*
X13567801Y-11102746D02*
X13558277Y-11055127D01*
X13558277Y-11055127D02*
X13548753Y-11026555D01*
X13548753Y-11026555D02*
X13539230Y-11007508D01*
X13539230Y-11007508D02*
X13520182Y-10978936D01*
X13520182Y-10978936D02*
X13510658Y-10969412D01*
D12*
X8867500Y-11340500D02*
X8867500Y-11400500D01*
X8837500Y-11370500D02*
X8897500Y-11370500D01*
D11*
X9196372Y-11261984D02*
X9215420Y-11261984D01*
X9215420Y-11261984D02*
X9234467Y-11271508D01*
X9234467Y-11271508D02*
X9243991Y-11281031D01*
X9243991Y-11281031D02*
X9253515Y-11300079D01*
X9253515Y-11300079D02*
X9263039Y-11338174D01*
X9263039Y-11338174D02*
X9263039Y-11385793D01*
X9263039Y-11385793D02*
X9253515Y-11423888D01*
X9253515Y-11423888D02*
X9243991Y-11442936D01*
X9243991Y-11442936D02*
X9234467Y-11452460D01*
X9234467Y-11452460D02*
X9215420Y-11461984D01*
X9215420Y-11461984D02*
X9196372Y-11461984D01*
X9196372Y-11461984D02*
X9177324Y-11452460D01*
X9177324Y-11452460D02*
X9167801Y-11442936D01*
X9167801Y-11442936D02*
X9158277Y-11423888D01*
X9158277Y-11423888D02*
X9148753Y-11385793D01*
X9148753Y-11385793D02*
X9148753Y-11338174D01*
X9148753Y-11338174D02*
X9158277Y-11300079D01*
X9158277Y-11300079D02*
X9167801Y-11281031D01*
X9167801Y-11281031D02*
X9177324Y-11271508D01*
X9177324Y-11271508D02*
X9196372Y-11261984D01*
X9348753Y-11442936D02*
X9358277Y-11452460D01*
X9358277Y-11452460D02*
X9348753Y-11461984D01*
X9348753Y-11461984D02*
X9339229Y-11452460D01*
X9339229Y-11452460D02*
X9348753Y-11442936D01*
X9348753Y-11442936D02*
X9348753Y-11461984D01*
X9529705Y-11261984D02*
X9491610Y-11261984D01*
X9491610Y-11261984D02*
X9472563Y-11271508D01*
X9472563Y-11271508D02*
X9463039Y-11281031D01*
X9463039Y-11281031D02*
X9443991Y-11309603D01*
X9443991Y-11309603D02*
X9434467Y-11347698D01*
X9434467Y-11347698D02*
X9434467Y-11423888D01*
X9434467Y-11423888D02*
X9443991Y-11442936D01*
X9443991Y-11442936D02*
X9453515Y-11452460D01*
X9453515Y-11452460D02*
X9472563Y-11461984D01*
X9472563Y-11461984D02*
X9510658Y-11461984D01*
X9510658Y-11461984D02*
X9529705Y-11452460D01*
X9529705Y-11452460D02*
X9539229Y-11442936D01*
X9539229Y-11442936D02*
X9548753Y-11423888D01*
X9548753Y-11423888D02*
X9548753Y-11376269D01*
X9548753Y-11376269D02*
X9539229Y-11357222D01*
X9539229Y-11357222D02*
X9529705Y-11347698D01*
X9529705Y-11347698D02*
X9510658Y-11338174D01*
X9510658Y-11338174D02*
X9472563Y-11338174D01*
X9472563Y-11338174D02*
X9453515Y-11347698D01*
X9453515Y-11347698D02*
X9443991Y-11357222D01*
X9443991Y-11357222D02*
X9434467Y-11376269D01*
X9672563Y-11261984D02*
X9691610Y-11261984D01*
X9691610Y-11261984D02*
X9710658Y-11271508D01*
X9710658Y-11271508D02*
X9720182Y-11281031D01*
X9720182Y-11281031D02*
X9729705Y-11300079D01*
X9729705Y-11300079D02*
X9739229Y-11338174D01*
X9739229Y-11338174D02*
X9739229Y-11385793D01*
X9739229Y-11385793D02*
X9729705Y-11423888D01*
X9729705Y-11423888D02*
X9720182Y-11442936D01*
X9720182Y-11442936D02*
X9710658Y-11452460D01*
X9710658Y-11452460D02*
X9691610Y-11461984D01*
X9691610Y-11461984D02*
X9672563Y-11461984D01*
X9672563Y-11461984D02*
X9653515Y-11452460D01*
X9653515Y-11452460D02*
X9643991Y-11442936D01*
X9643991Y-11442936D02*
X9634467Y-11423888D01*
X9634467Y-11423888D02*
X9624944Y-11385793D01*
X9624944Y-11385793D02*
X9624944Y-11338174D01*
X9624944Y-11338174D02*
X9634467Y-11300079D01*
X9634467Y-11300079D02*
X9643991Y-11281031D01*
X9643991Y-11281031D02*
X9653515Y-11271508D01*
X9653515Y-11271508D02*
X9672563Y-11261984D01*
X9863039Y-11261984D02*
X9882086Y-11261984D01*
X9882086Y-11261984D02*
X9901134Y-11271508D01*
X9901134Y-11271508D02*
X9910658Y-11281031D01*
X9910658Y-11281031D02*
X9920182Y-11300079D01*
X9920182Y-11300079D02*
X9929705Y-11338174D01*
X9929705Y-11338174D02*
X9929705Y-11385793D01*
X9929705Y-11385793D02*
X9920182Y-11423888D01*
X9920182Y-11423888D02*
X9910658Y-11442936D01*
X9910658Y-11442936D02*
X9901134Y-11452460D01*
X9901134Y-11452460D02*
X9882086Y-11461984D01*
X9882086Y-11461984D02*
X9863039Y-11461984D01*
X9863039Y-11461984D02*
X9843991Y-11452460D01*
X9843991Y-11452460D02*
X9834467Y-11442936D01*
X9834467Y-11442936D02*
X9824944Y-11423888D01*
X9824944Y-11423888D02*
X9815420Y-11385793D01*
X9815420Y-11385793D02*
X9815420Y-11338174D01*
X9815420Y-11338174D02*
X9824944Y-11300079D01*
X9824944Y-11300079D02*
X9834467Y-11281031D01*
X9834467Y-11281031D02*
X9843991Y-11271508D01*
X9843991Y-11271508D02*
X9863039Y-11261984D01*
X10015420Y-11461984D02*
X10015420Y-11328650D01*
X10015420Y-11347698D02*
X10024944Y-11338174D01*
X10024944Y-11338174D02*
X10043991Y-11328650D01*
X10043991Y-11328650D02*
X10072563Y-11328650D01*
X10072563Y-11328650D02*
X10091610Y-11338174D01*
X10091610Y-11338174D02*
X10101134Y-11357222D01*
X10101134Y-11357222D02*
X10101134Y-11461984D01*
X10101134Y-11357222D02*
X10110658Y-11338174D01*
X10110658Y-11338174D02*
X10129705Y-11328650D01*
X10129705Y-11328650D02*
X10158277Y-11328650D01*
X10158277Y-11328650D02*
X10177325Y-11338174D01*
X10177325Y-11338174D02*
X10186848Y-11357222D01*
X10186848Y-11357222D02*
X10186848Y-11461984D01*
X10282086Y-11461984D02*
X10282086Y-11328650D01*
X10282086Y-11347698D02*
X10291610Y-11338174D01*
X10291610Y-11338174D02*
X10310658Y-11328650D01*
X10310658Y-11328650D02*
X10339229Y-11328650D01*
X10339229Y-11328650D02*
X10358277Y-11338174D01*
X10358277Y-11338174D02*
X10367801Y-11357222D01*
X10367801Y-11357222D02*
X10367801Y-11461984D01*
X10367801Y-11357222D02*
X10377325Y-11338174D01*
X10377325Y-11338174D02*
X10396372Y-11328650D01*
X10396372Y-11328650D02*
X10424944Y-11328650D01*
X10424944Y-11328650D02*
X10443991Y-11338174D01*
X10443991Y-11338174D02*
X10453515Y-11357222D01*
X10453515Y-11357222D02*
X10453515Y-11461984D01*
X10843991Y-11252460D02*
X10672563Y-11509603D01*
X11101134Y-11261984D02*
X11120182Y-11261984D01*
X11120182Y-11261984D02*
X11139229Y-11271508D01*
X11139229Y-11271508D02*
X11148753Y-11281031D01*
X11148753Y-11281031D02*
X11158277Y-11300079D01*
X11158277Y-11300079D02*
X11167801Y-11338174D01*
X11167801Y-11338174D02*
X11167801Y-11385793D01*
X11167801Y-11385793D02*
X11158277Y-11423888D01*
X11158277Y-11423888D02*
X11148753Y-11442936D01*
X11148753Y-11442936D02*
X11139229Y-11452460D01*
X11139229Y-11452460D02*
X11120182Y-11461984D01*
X11120182Y-11461984D02*
X11101134Y-11461984D01*
X11101134Y-11461984D02*
X11082087Y-11452460D01*
X11082087Y-11452460D02*
X11072563Y-11442936D01*
X11072563Y-11442936D02*
X11063039Y-11423888D01*
X11063039Y-11423888D02*
X11053515Y-11385793D01*
X11053515Y-11385793D02*
X11053515Y-11338174D01*
X11053515Y-11338174D02*
X11063039Y-11300079D01*
X11063039Y-11300079D02*
X11072563Y-11281031D01*
X11072563Y-11281031D02*
X11082087Y-11271508D01*
X11082087Y-11271508D02*
X11101134Y-11261984D01*
X11253515Y-11442936D02*
X11263039Y-11452460D01*
X11263039Y-11452460D02*
X11253515Y-11461984D01*
X11253515Y-11461984D02*
X11243991Y-11452460D01*
X11243991Y-11452460D02*
X11253515Y-11442936D01*
X11253515Y-11442936D02*
X11253515Y-11461984D01*
X11386848Y-11261984D02*
X11405896Y-11261984D01*
X11405896Y-11261984D02*
X11424944Y-11271508D01*
X11424944Y-11271508D02*
X11434467Y-11281031D01*
X11434467Y-11281031D02*
X11443991Y-11300079D01*
X11443991Y-11300079D02*
X11453515Y-11338174D01*
X11453515Y-11338174D02*
X11453515Y-11385793D01*
X11453515Y-11385793D02*
X11443991Y-11423888D01*
X11443991Y-11423888D02*
X11434467Y-11442936D01*
X11434467Y-11442936D02*
X11424944Y-11452460D01*
X11424944Y-11452460D02*
X11405896Y-11461984D01*
X11405896Y-11461984D02*
X11386848Y-11461984D01*
X11386848Y-11461984D02*
X11367801Y-11452460D01*
X11367801Y-11452460D02*
X11358277Y-11442936D01*
X11358277Y-11442936D02*
X11348753Y-11423888D01*
X11348753Y-11423888D02*
X11339229Y-11385793D01*
X11339229Y-11385793D02*
X11339229Y-11338174D01*
X11339229Y-11338174D02*
X11348753Y-11300079D01*
X11348753Y-11300079D02*
X11358277Y-11281031D01*
X11358277Y-11281031D02*
X11367801Y-11271508D01*
X11367801Y-11271508D02*
X11386848Y-11261984D01*
X11529706Y-11281031D02*
X11539229Y-11271508D01*
X11539229Y-11271508D02*
X11558277Y-11261984D01*
X11558277Y-11261984D02*
X11605896Y-11261984D01*
X11605896Y-11261984D02*
X11624944Y-11271508D01*
X11624944Y-11271508D02*
X11634467Y-11281031D01*
X11634467Y-11281031D02*
X11643991Y-11300079D01*
X11643991Y-11300079D02*
X11643991Y-11319127D01*
X11643991Y-11319127D02*
X11634467Y-11347698D01*
X11634467Y-11347698D02*
X11520182Y-11461984D01*
X11520182Y-11461984D02*
X11643991Y-11461984D01*
X11710658Y-11261984D02*
X11834467Y-11261984D01*
X11834467Y-11261984D02*
X11767801Y-11338174D01*
X11767801Y-11338174D02*
X11796372Y-11338174D01*
X11796372Y-11338174D02*
X11815420Y-11347698D01*
X11815420Y-11347698D02*
X11824944Y-11357222D01*
X11824944Y-11357222D02*
X11834467Y-11376269D01*
X11834467Y-11376269D02*
X11834467Y-11423888D01*
X11834467Y-11423888D02*
X11824944Y-11442936D01*
X11824944Y-11442936D02*
X11815420Y-11452460D01*
X11815420Y-11452460D02*
X11796372Y-11461984D01*
X11796372Y-11461984D02*
X11739229Y-11461984D01*
X11739229Y-11461984D02*
X11720182Y-11452460D01*
X11720182Y-11452460D02*
X11710658Y-11442936D01*
X12005896Y-11261984D02*
X11967801Y-11261984D01*
X11967801Y-11261984D02*
X11948753Y-11271508D01*
X11948753Y-11271508D02*
X11939229Y-11281031D01*
X11939229Y-11281031D02*
X11920182Y-11309603D01*
X11920182Y-11309603D02*
X11910658Y-11347698D01*
X11910658Y-11347698D02*
X11910658Y-11423888D01*
X11910658Y-11423888D02*
X11920182Y-11442936D01*
X11920182Y-11442936D02*
X11929706Y-11452460D01*
X11929706Y-11452460D02*
X11948753Y-11461984D01*
X11948753Y-11461984D02*
X11986848Y-11461984D01*
X11986848Y-11461984D02*
X12005896Y-11452460D01*
X12005896Y-11452460D02*
X12015420Y-11442936D01*
X12015420Y-11442936D02*
X12024944Y-11423888D01*
X12024944Y-11423888D02*
X12024944Y-11376269D01*
X12024944Y-11376269D02*
X12015420Y-11357222D01*
X12015420Y-11357222D02*
X12005896Y-11347698D01*
X12005896Y-11347698D02*
X11986848Y-11338174D01*
X11986848Y-11338174D02*
X11948753Y-11338174D01*
X11948753Y-11338174D02*
X11929706Y-11347698D01*
X11929706Y-11347698D02*
X11920182Y-11357222D01*
X11920182Y-11357222D02*
X11910658Y-11376269D01*
X12101134Y-11261984D02*
X12101134Y-11300079D01*
X12177325Y-11261984D02*
X12177325Y-11300079D01*
X12472563Y-11538174D02*
X12463039Y-11528650D01*
X12463039Y-11528650D02*
X12443991Y-11500079D01*
X12443991Y-11500079D02*
X12434468Y-11481031D01*
X12434468Y-11481031D02*
X12424944Y-11452460D01*
X12424944Y-11452460D02*
X12415420Y-11404841D01*
X12415420Y-11404841D02*
X12415420Y-11366746D01*
X12415420Y-11366746D02*
X12424944Y-11319127D01*
X12424944Y-11319127D02*
X12434468Y-11290555D01*
X12434468Y-11290555D02*
X12443991Y-11271508D01*
X12443991Y-11271508D02*
X12463039Y-11242936D01*
X12463039Y-11242936D02*
X12472563Y-11233412D01*
X12539229Y-11281031D02*
X12548753Y-11271508D01*
X12548753Y-11271508D02*
X12567801Y-11261984D01*
X12567801Y-11261984D02*
X12615420Y-11261984D01*
X12615420Y-11261984D02*
X12634468Y-11271508D01*
X12634468Y-11271508D02*
X12643991Y-11281031D01*
X12643991Y-11281031D02*
X12653515Y-11300079D01*
X12653515Y-11300079D02*
X12653515Y-11319127D01*
X12653515Y-11319127D02*
X12643991Y-11347698D01*
X12643991Y-11347698D02*
X12529706Y-11461984D01*
X12529706Y-11461984D02*
X12653515Y-11461984D01*
X12891610Y-11461984D02*
X12891610Y-11261984D01*
X12977325Y-11461984D02*
X12977325Y-11357222D01*
X12977325Y-11357222D02*
X12967801Y-11338174D01*
X12967801Y-11338174D02*
X12948753Y-11328650D01*
X12948753Y-11328650D02*
X12920182Y-11328650D01*
X12920182Y-11328650D02*
X12901134Y-11338174D01*
X12901134Y-11338174D02*
X12891610Y-11347698D01*
X13101134Y-11461984D02*
X13082087Y-11452460D01*
X13082087Y-11452460D02*
X13072563Y-11442936D01*
X13072563Y-11442936D02*
X13063039Y-11423888D01*
X13063039Y-11423888D02*
X13063039Y-11366746D01*
X13063039Y-11366746D02*
X13072563Y-11347698D01*
X13072563Y-11347698D02*
X13082087Y-11338174D01*
X13082087Y-11338174D02*
X13101134Y-11328650D01*
X13101134Y-11328650D02*
X13129706Y-11328650D01*
X13129706Y-11328650D02*
X13148753Y-11338174D01*
X13148753Y-11338174D02*
X13158277Y-11347698D01*
X13158277Y-11347698D02*
X13167801Y-11366746D01*
X13167801Y-11366746D02*
X13167801Y-11423888D01*
X13167801Y-11423888D02*
X13158277Y-11442936D01*
X13158277Y-11442936D02*
X13148753Y-11452460D01*
X13148753Y-11452460D02*
X13129706Y-11461984D01*
X13129706Y-11461984D02*
X13101134Y-11461984D01*
X13282087Y-11461984D02*
X13263039Y-11452460D01*
X13263039Y-11452460D02*
X13253515Y-11433412D01*
X13253515Y-11433412D02*
X13253515Y-11261984D01*
X13434468Y-11452460D02*
X13415420Y-11461984D01*
X13415420Y-11461984D02*
X13377325Y-11461984D01*
X13377325Y-11461984D02*
X13358277Y-11452460D01*
X13358277Y-11452460D02*
X13348753Y-11433412D01*
X13348753Y-11433412D02*
X13348753Y-11357222D01*
X13348753Y-11357222D02*
X13358277Y-11338174D01*
X13358277Y-11338174D02*
X13377325Y-11328650D01*
X13377325Y-11328650D02*
X13415420Y-11328650D01*
X13415420Y-11328650D02*
X13434468Y-11338174D01*
X13434468Y-11338174D02*
X13443991Y-11357222D01*
X13443991Y-11357222D02*
X13443991Y-11376269D01*
X13443991Y-11376269D02*
X13348753Y-11395317D01*
X13520182Y-11452460D02*
X13539230Y-11461984D01*
X13539230Y-11461984D02*
X13577325Y-11461984D01*
X13577325Y-11461984D02*
X13596372Y-11452460D01*
X13596372Y-11452460D02*
X13605896Y-11433412D01*
X13605896Y-11433412D02*
X13605896Y-11423888D01*
X13605896Y-11423888D02*
X13596372Y-11404841D01*
X13596372Y-11404841D02*
X13577325Y-11395317D01*
X13577325Y-11395317D02*
X13548753Y-11395317D01*
X13548753Y-11395317D02*
X13529706Y-11385793D01*
X13529706Y-11385793D02*
X13520182Y-11366746D01*
X13520182Y-11366746D02*
X13520182Y-11357222D01*
X13520182Y-11357222D02*
X13529706Y-11338174D01*
X13529706Y-11338174D02*
X13548753Y-11328650D01*
X13548753Y-11328650D02*
X13577325Y-11328650D01*
X13577325Y-11328650D02*
X13596372Y-11338174D01*
X13672563Y-11538174D02*
X13682087Y-11528650D01*
X13682087Y-11528650D02*
X13701134Y-11500079D01*
X13701134Y-11500079D02*
X13710658Y-11481031D01*
X13710658Y-11481031D02*
X13720182Y-11452460D01*
X13720182Y-11452460D02*
X13729706Y-11404841D01*
X13729706Y-11404841D02*
X13729706Y-11366746D01*
X13729706Y-11366746D02*
X13720182Y-11319127D01*
X13720182Y-11319127D02*
X13710658Y-11290555D01*
X13710658Y-11290555D02*
X13701134Y-11271508D01*
X13701134Y-11271508D02*
X13682087Y-11242936D01*
X13682087Y-11242936D02*
X13672563Y-11233412D01*
D12*
X8882856Y-11669856D02*
X8882856Y-11599144D01*
X8812144Y-11599144D01*
X8812144Y-11669856D01*
X8882856Y-11669856D01*
D11*
X9263039Y-11725984D02*
X9148753Y-11725984D01*
X9205896Y-11725984D02*
X9205896Y-11525984D01*
X9205896Y-11525984D02*
X9186848Y-11554555D01*
X9186848Y-11554555D02*
X9167801Y-11573603D01*
X9167801Y-11573603D02*
X9148753Y-11583127D01*
X9348753Y-11706936D02*
X9358277Y-11716460D01*
X9358277Y-11716460D02*
X9348753Y-11725984D01*
X9348753Y-11725984D02*
X9339229Y-11716460D01*
X9339229Y-11716460D02*
X9348753Y-11706936D01*
X9348753Y-11706936D02*
X9348753Y-11725984D01*
X9482086Y-11525984D02*
X9501134Y-11525984D01*
X9501134Y-11525984D02*
X9520182Y-11535508D01*
X9520182Y-11535508D02*
X9529705Y-11545031D01*
X9529705Y-11545031D02*
X9539229Y-11564079D01*
X9539229Y-11564079D02*
X9548753Y-11602174D01*
X9548753Y-11602174D02*
X9548753Y-11649793D01*
X9548753Y-11649793D02*
X9539229Y-11687888D01*
X9539229Y-11687888D02*
X9529705Y-11706936D01*
X9529705Y-11706936D02*
X9520182Y-11716460D01*
X9520182Y-11716460D02*
X9501134Y-11725984D01*
X9501134Y-11725984D02*
X9482086Y-11725984D01*
X9482086Y-11725984D02*
X9463039Y-11716460D01*
X9463039Y-11716460D02*
X9453515Y-11706936D01*
X9453515Y-11706936D02*
X9443991Y-11687888D01*
X9443991Y-11687888D02*
X9434467Y-11649793D01*
X9434467Y-11649793D02*
X9434467Y-11602174D01*
X9434467Y-11602174D02*
X9443991Y-11564079D01*
X9443991Y-11564079D02*
X9453515Y-11545031D01*
X9453515Y-11545031D02*
X9463039Y-11535508D01*
X9463039Y-11535508D02*
X9482086Y-11525984D01*
X9672563Y-11525984D02*
X9691610Y-11525984D01*
X9691610Y-11525984D02*
X9710658Y-11535508D01*
X9710658Y-11535508D02*
X9720182Y-11545031D01*
X9720182Y-11545031D02*
X9729705Y-11564079D01*
X9729705Y-11564079D02*
X9739229Y-11602174D01*
X9739229Y-11602174D02*
X9739229Y-11649793D01*
X9739229Y-11649793D02*
X9729705Y-11687888D01*
X9729705Y-11687888D02*
X9720182Y-11706936D01*
X9720182Y-11706936D02*
X9710658Y-11716460D01*
X9710658Y-11716460D02*
X9691610Y-11725984D01*
X9691610Y-11725984D02*
X9672563Y-11725984D01*
X9672563Y-11725984D02*
X9653515Y-11716460D01*
X9653515Y-11716460D02*
X9643991Y-11706936D01*
X9643991Y-11706936D02*
X9634467Y-11687888D01*
X9634467Y-11687888D02*
X9624944Y-11649793D01*
X9624944Y-11649793D02*
X9624944Y-11602174D01*
X9624944Y-11602174D02*
X9634467Y-11564079D01*
X9634467Y-11564079D02*
X9643991Y-11545031D01*
X9643991Y-11545031D02*
X9653515Y-11535508D01*
X9653515Y-11535508D02*
X9672563Y-11525984D01*
X9863039Y-11525984D02*
X9882086Y-11525984D01*
X9882086Y-11525984D02*
X9901134Y-11535508D01*
X9901134Y-11535508D02*
X9910658Y-11545031D01*
X9910658Y-11545031D02*
X9920182Y-11564079D01*
X9920182Y-11564079D02*
X9929705Y-11602174D01*
X9929705Y-11602174D02*
X9929705Y-11649793D01*
X9929705Y-11649793D02*
X9920182Y-11687888D01*
X9920182Y-11687888D02*
X9910658Y-11706936D01*
X9910658Y-11706936D02*
X9901134Y-11716460D01*
X9901134Y-11716460D02*
X9882086Y-11725984D01*
X9882086Y-11725984D02*
X9863039Y-11725984D01*
X9863039Y-11725984D02*
X9843991Y-11716460D01*
X9843991Y-11716460D02*
X9834467Y-11706936D01*
X9834467Y-11706936D02*
X9824944Y-11687888D01*
X9824944Y-11687888D02*
X9815420Y-11649793D01*
X9815420Y-11649793D02*
X9815420Y-11602174D01*
X9815420Y-11602174D02*
X9824944Y-11564079D01*
X9824944Y-11564079D02*
X9834467Y-11545031D01*
X9834467Y-11545031D02*
X9843991Y-11535508D01*
X9843991Y-11535508D02*
X9863039Y-11525984D01*
X10015420Y-11725984D02*
X10015420Y-11592650D01*
X10015420Y-11611698D02*
X10024944Y-11602174D01*
X10024944Y-11602174D02*
X10043991Y-11592650D01*
X10043991Y-11592650D02*
X10072563Y-11592650D01*
X10072563Y-11592650D02*
X10091610Y-11602174D01*
X10091610Y-11602174D02*
X10101134Y-11621222D01*
X10101134Y-11621222D02*
X10101134Y-11725984D01*
X10101134Y-11621222D02*
X10110658Y-11602174D01*
X10110658Y-11602174D02*
X10129705Y-11592650D01*
X10129705Y-11592650D02*
X10158277Y-11592650D01*
X10158277Y-11592650D02*
X10177325Y-11602174D01*
X10177325Y-11602174D02*
X10186848Y-11621222D01*
X10186848Y-11621222D02*
X10186848Y-11725984D01*
X10282086Y-11725984D02*
X10282086Y-11592650D01*
X10282086Y-11611698D02*
X10291610Y-11602174D01*
X10291610Y-11602174D02*
X10310658Y-11592650D01*
X10310658Y-11592650D02*
X10339229Y-11592650D01*
X10339229Y-11592650D02*
X10358277Y-11602174D01*
X10358277Y-11602174D02*
X10367801Y-11621222D01*
X10367801Y-11621222D02*
X10367801Y-11725984D01*
X10367801Y-11621222D02*
X10377325Y-11602174D01*
X10377325Y-11602174D02*
X10396372Y-11592650D01*
X10396372Y-11592650D02*
X10424944Y-11592650D01*
X10424944Y-11592650D02*
X10443991Y-11602174D01*
X10443991Y-11602174D02*
X10453515Y-11621222D01*
X10453515Y-11621222D02*
X10453515Y-11725984D01*
X10843991Y-11516460D02*
X10672563Y-11773603D01*
X11101134Y-11525984D02*
X11120182Y-11525984D01*
X11120182Y-11525984D02*
X11139229Y-11535508D01*
X11139229Y-11535508D02*
X11148753Y-11545031D01*
X11148753Y-11545031D02*
X11158277Y-11564079D01*
X11158277Y-11564079D02*
X11167801Y-11602174D01*
X11167801Y-11602174D02*
X11167801Y-11649793D01*
X11167801Y-11649793D02*
X11158277Y-11687888D01*
X11158277Y-11687888D02*
X11148753Y-11706936D01*
X11148753Y-11706936D02*
X11139229Y-11716460D01*
X11139229Y-11716460D02*
X11120182Y-11725984D01*
X11120182Y-11725984D02*
X11101134Y-11725984D01*
X11101134Y-11725984D02*
X11082087Y-11716460D01*
X11082087Y-11716460D02*
X11072563Y-11706936D01*
X11072563Y-11706936D02*
X11063039Y-11687888D01*
X11063039Y-11687888D02*
X11053515Y-11649793D01*
X11053515Y-11649793D02*
X11053515Y-11602174D01*
X11053515Y-11602174D02*
X11063039Y-11564079D01*
X11063039Y-11564079D02*
X11072563Y-11545031D01*
X11072563Y-11545031D02*
X11082087Y-11535508D01*
X11082087Y-11535508D02*
X11101134Y-11525984D01*
X11253515Y-11706936D02*
X11263039Y-11716460D01*
X11263039Y-11716460D02*
X11253515Y-11725984D01*
X11253515Y-11725984D02*
X11243991Y-11716460D01*
X11243991Y-11716460D02*
X11253515Y-11706936D01*
X11253515Y-11706936D02*
X11253515Y-11725984D01*
X11386848Y-11525984D02*
X11405896Y-11525984D01*
X11405896Y-11525984D02*
X11424944Y-11535508D01*
X11424944Y-11535508D02*
X11434467Y-11545031D01*
X11434467Y-11545031D02*
X11443991Y-11564079D01*
X11443991Y-11564079D02*
X11453515Y-11602174D01*
X11453515Y-11602174D02*
X11453515Y-11649793D01*
X11453515Y-11649793D02*
X11443991Y-11687888D01*
X11443991Y-11687888D02*
X11434467Y-11706936D01*
X11434467Y-11706936D02*
X11424944Y-11716460D01*
X11424944Y-11716460D02*
X11405896Y-11725984D01*
X11405896Y-11725984D02*
X11386848Y-11725984D01*
X11386848Y-11725984D02*
X11367801Y-11716460D01*
X11367801Y-11716460D02*
X11358277Y-11706936D01*
X11358277Y-11706936D02*
X11348753Y-11687888D01*
X11348753Y-11687888D02*
X11339229Y-11649793D01*
X11339229Y-11649793D02*
X11339229Y-11602174D01*
X11339229Y-11602174D02*
X11348753Y-11564079D01*
X11348753Y-11564079D02*
X11358277Y-11545031D01*
X11358277Y-11545031D02*
X11367801Y-11535508D01*
X11367801Y-11535508D02*
X11386848Y-11525984D01*
X11520182Y-11525984D02*
X11643991Y-11525984D01*
X11643991Y-11525984D02*
X11577325Y-11602174D01*
X11577325Y-11602174D02*
X11605896Y-11602174D01*
X11605896Y-11602174D02*
X11624944Y-11611698D01*
X11624944Y-11611698D02*
X11634467Y-11621222D01*
X11634467Y-11621222D02*
X11643991Y-11640269D01*
X11643991Y-11640269D02*
X11643991Y-11687888D01*
X11643991Y-11687888D02*
X11634467Y-11706936D01*
X11634467Y-11706936D02*
X11624944Y-11716460D01*
X11624944Y-11716460D02*
X11605896Y-11725984D01*
X11605896Y-11725984D02*
X11548753Y-11725984D01*
X11548753Y-11725984D02*
X11529706Y-11716460D01*
X11529706Y-11716460D02*
X11520182Y-11706936D01*
X11739229Y-11725984D02*
X11777325Y-11725984D01*
X11777325Y-11725984D02*
X11796372Y-11716460D01*
X11796372Y-11716460D02*
X11805896Y-11706936D01*
X11805896Y-11706936D02*
X11824944Y-11678365D01*
X11824944Y-11678365D02*
X11834467Y-11640269D01*
X11834467Y-11640269D02*
X11834467Y-11564079D01*
X11834467Y-11564079D02*
X11824944Y-11545031D01*
X11824944Y-11545031D02*
X11815420Y-11535508D01*
X11815420Y-11535508D02*
X11796372Y-11525984D01*
X11796372Y-11525984D02*
X11758277Y-11525984D01*
X11758277Y-11525984D02*
X11739229Y-11535508D01*
X11739229Y-11535508D02*
X11729706Y-11545031D01*
X11729706Y-11545031D02*
X11720182Y-11564079D01*
X11720182Y-11564079D02*
X11720182Y-11611698D01*
X11720182Y-11611698D02*
X11729706Y-11630746D01*
X11729706Y-11630746D02*
X11739229Y-11640269D01*
X11739229Y-11640269D02*
X11758277Y-11649793D01*
X11758277Y-11649793D02*
X11796372Y-11649793D01*
X11796372Y-11649793D02*
X11815420Y-11640269D01*
X11815420Y-11640269D02*
X11824944Y-11630746D01*
X11824944Y-11630746D02*
X11834467Y-11611698D01*
X12005896Y-11592650D02*
X12005896Y-11725984D01*
X11958277Y-11516460D02*
X11910658Y-11659317D01*
X11910658Y-11659317D02*
X12034467Y-11659317D01*
X12101134Y-11525984D02*
X12101134Y-11564079D01*
X12177325Y-11525984D02*
X12177325Y-11564079D01*
X12472563Y-11802174D02*
X12463039Y-11792650D01*
X12463039Y-11792650D02*
X12443991Y-11764079D01*
X12443991Y-11764079D02*
X12434468Y-11745031D01*
X12434468Y-11745031D02*
X12424944Y-11716460D01*
X12424944Y-11716460D02*
X12415420Y-11668841D01*
X12415420Y-11668841D02*
X12415420Y-11630746D01*
X12415420Y-11630746D02*
X12424944Y-11583127D01*
X12424944Y-11583127D02*
X12434468Y-11554555D01*
X12434468Y-11554555D02*
X12443991Y-11535508D01*
X12443991Y-11535508D02*
X12463039Y-11506936D01*
X12463039Y-11506936D02*
X12472563Y-11497412D01*
X12577325Y-11611698D02*
X12558277Y-11602174D01*
X12558277Y-11602174D02*
X12548753Y-11592650D01*
X12548753Y-11592650D02*
X12539229Y-11573603D01*
X12539229Y-11573603D02*
X12539229Y-11564079D01*
X12539229Y-11564079D02*
X12548753Y-11545031D01*
X12548753Y-11545031D02*
X12558277Y-11535508D01*
X12558277Y-11535508D02*
X12577325Y-11525984D01*
X12577325Y-11525984D02*
X12615420Y-11525984D01*
X12615420Y-11525984D02*
X12634468Y-11535508D01*
X12634468Y-11535508D02*
X12643991Y-11545031D01*
X12643991Y-11545031D02*
X12653515Y-11564079D01*
X12653515Y-11564079D02*
X12653515Y-11573603D01*
X12653515Y-11573603D02*
X12643991Y-11592650D01*
X12643991Y-11592650D02*
X12634468Y-11602174D01*
X12634468Y-11602174D02*
X12615420Y-11611698D01*
X12615420Y-11611698D02*
X12577325Y-11611698D01*
X12577325Y-11611698D02*
X12558277Y-11621222D01*
X12558277Y-11621222D02*
X12548753Y-11630746D01*
X12548753Y-11630746D02*
X12539229Y-11649793D01*
X12539229Y-11649793D02*
X12539229Y-11687888D01*
X12539229Y-11687888D02*
X12548753Y-11706936D01*
X12548753Y-11706936D02*
X12558277Y-11716460D01*
X12558277Y-11716460D02*
X12577325Y-11725984D01*
X12577325Y-11725984D02*
X12615420Y-11725984D01*
X12615420Y-11725984D02*
X12634468Y-11716460D01*
X12634468Y-11716460D02*
X12643991Y-11706936D01*
X12643991Y-11706936D02*
X12653515Y-11687888D01*
X12653515Y-11687888D02*
X12653515Y-11649793D01*
X12653515Y-11649793D02*
X12643991Y-11630746D01*
X12643991Y-11630746D02*
X12634468Y-11621222D01*
X12634468Y-11621222D02*
X12615420Y-11611698D01*
X12891610Y-11725984D02*
X12891610Y-11525984D01*
X12977325Y-11725984D02*
X12977325Y-11621222D01*
X12977325Y-11621222D02*
X12967801Y-11602174D01*
X12967801Y-11602174D02*
X12948753Y-11592650D01*
X12948753Y-11592650D02*
X12920182Y-11592650D01*
X12920182Y-11592650D02*
X12901134Y-11602174D01*
X12901134Y-11602174D02*
X12891610Y-11611698D01*
X13101134Y-11725984D02*
X13082087Y-11716460D01*
X13082087Y-11716460D02*
X13072563Y-11706936D01*
X13072563Y-11706936D02*
X13063039Y-11687888D01*
X13063039Y-11687888D02*
X13063039Y-11630746D01*
X13063039Y-11630746D02*
X13072563Y-11611698D01*
X13072563Y-11611698D02*
X13082087Y-11602174D01*
X13082087Y-11602174D02*
X13101134Y-11592650D01*
X13101134Y-11592650D02*
X13129706Y-11592650D01*
X13129706Y-11592650D02*
X13148753Y-11602174D01*
X13148753Y-11602174D02*
X13158277Y-11611698D01*
X13158277Y-11611698D02*
X13167801Y-11630746D01*
X13167801Y-11630746D02*
X13167801Y-11687888D01*
X13167801Y-11687888D02*
X13158277Y-11706936D01*
X13158277Y-11706936D02*
X13148753Y-11716460D01*
X13148753Y-11716460D02*
X13129706Y-11725984D01*
X13129706Y-11725984D02*
X13101134Y-11725984D01*
X13282087Y-11725984D02*
X13263039Y-11716460D01*
X13263039Y-11716460D02*
X13253515Y-11697412D01*
X13253515Y-11697412D02*
X13253515Y-11525984D01*
X13434468Y-11716460D02*
X13415420Y-11725984D01*
X13415420Y-11725984D02*
X13377325Y-11725984D01*
X13377325Y-11725984D02*
X13358277Y-11716460D01*
X13358277Y-11716460D02*
X13348753Y-11697412D01*
X13348753Y-11697412D02*
X13348753Y-11621222D01*
X13348753Y-11621222D02*
X13358277Y-11602174D01*
X13358277Y-11602174D02*
X13377325Y-11592650D01*
X13377325Y-11592650D02*
X13415420Y-11592650D01*
X13415420Y-11592650D02*
X13434468Y-11602174D01*
X13434468Y-11602174D02*
X13443991Y-11621222D01*
X13443991Y-11621222D02*
X13443991Y-11640269D01*
X13443991Y-11640269D02*
X13348753Y-11659317D01*
X13520182Y-11716460D02*
X13539230Y-11725984D01*
X13539230Y-11725984D02*
X13577325Y-11725984D01*
X13577325Y-11725984D02*
X13596372Y-11716460D01*
X13596372Y-11716460D02*
X13605896Y-11697412D01*
X13605896Y-11697412D02*
X13605896Y-11687888D01*
X13605896Y-11687888D02*
X13596372Y-11668841D01*
X13596372Y-11668841D02*
X13577325Y-11659317D01*
X13577325Y-11659317D02*
X13548753Y-11659317D01*
X13548753Y-11659317D02*
X13529706Y-11649793D01*
X13529706Y-11649793D02*
X13520182Y-11630746D01*
X13520182Y-11630746D02*
X13520182Y-11621222D01*
X13520182Y-11621222D02*
X13529706Y-11602174D01*
X13529706Y-11602174D02*
X13548753Y-11592650D01*
X13548753Y-11592650D02*
X13577325Y-11592650D01*
X13577325Y-11592650D02*
X13596372Y-11602174D01*
X13672563Y-11802174D02*
X13682087Y-11792650D01*
X13682087Y-11792650D02*
X13701134Y-11764079D01*
X13701134Y-11764079D02*
X13710658Y-11745031D01*
X13710658Y-11745031D02*
X13720182Y-11716460D01*
X13720182Y-11716460D02*
X13729706Y-11668841D01*
X13729706Y-11668841D02*
X13729706Y-11630746D01*
X13729706Y-11630746D02*
X13720182Y-11583127D01*
X13720182Y-11583127D02*
X13710658Y-11554555D01*
X13710658Y-11554555D02*
X13701134Y-11535508D01*
X13701134Y-11535508D02*
X13682087Y-11506936D01*
X13682087Y-11506936D02*
X13672563Y-11497412D01*
D13*
X8839900Y-11956100D02*
X8897500Y-11898500D01*
X8839900Y-11840900D01*
X8782300Y-11898500D01*
X8839900Y-11956100D01*
D11*
X9263039Y-11989984D02*
X9148753Y-11989984D01*
X9205896Y-11989984D02*
X9205896Y-11789984D01*
X9205896Y-11789984D02*
X9186848Y-11818555D01*
X9186848Y-11818555D02*
X9167801Y-11837603D01*
X9167801Y-11837603D02*
X9148753Y-11847127D01*
X9348753Y-11970936D02*
X9358277Y-11980460D01*
X9358277Y-11980460D02*
X9348753Y-11989984D01*
X9348753Y-11989984D02*
X9339229Y-11980460D01*
X9339229Y-11980460D02*
X9348753Y-11970936D01*
X9348753Y-11970936D02*
X9348753Y-11989984D01*
X9548753Y-11989984D02*
X9434467Y-11989984D01*
X9491610Y-11989984D02*
X9491610Y-11789984D01*
X9491610Y-11789984D02*
X9472563Y-11818555D01*
X9472563Y-11818555D02*
X9453515Y-11837603D01*
X9453515Y-11837603D02*
X9434467Y-11847127D01*
X9729705Y-11789984D02*
X9634467Y-11789984D01*
X9634467Y-11789984D02*
X9624944Y-11885222D01*
X9624944Y-11885222D02*
X9634467Y-11875698D01*
X9634467Y-11875698D02*
X9653515Y-11866174D01*
X9653515Y-11866174D02*
X9701134Y-11866174D01*
X9701134Y-11866174D02*
X9720182Y-11875698D01*
X9720182Y-11875698D02*
X9729705Y-11885222D01*
X9729705Y-11885222D02*
X9739229Y-11904269D01*
X9739229Y-11904269D02*
X9739229Y-11951888D01*
X9739229Y-11951888D02*
X9729705Y-11970936D01*
X9729705Y-11970936D02*
X9720182Y-11980460D01*
X9720182Y-11980460D02*
X9701134Y-11989984D01*
X9701134Y-11989984D02*
X9653515Y-11989984D01*
X9653515Y-11989984D02*
X9634467Y-11980460D01*
X9634467Y-11980460D02*
X9624944Y-11970936D01*
X9815420Y-11809031D02*
X9824944Y-11799508D01*
X9824944Y-11799508D02*
X9843991Y-11789984D01*
X9843991Y-11789984D02*
X9891610Y-11789984D01*
X9891610Y-11789984D02*
X9910658Y-11799508D01*
X9910658Y-11799508D02*
X9920182Y-11809031D01*
X9920182Y-11809031D02*
X9929705Y-11828079D01*
X9929705Y-11828079D02*
X9929705Y-11847127D01*
X9929705Y-11847127D02*
X9920182Y-11875698D01*
X9920182Y-11875698D02*
X9805896Y-11989984D01*
X9805896Y-11989984D02*
X9929705Y-11989984D01*
X10015420Y-11989984D02*
X10015420Y-11856650D01*
X10015420Y-11875698D02*
X10024944Y-11866174D01*
X10024944Y-11866174D02*
X10043991Y-11856650D01*
X10043991Y-11856650D02*
X10072563Y-11856650D01*
X10072563Y-11856650D02*
X10091610Y-11866174D01*
X10091610Y-11866174D02*
X10101134Y-11885222D01*
X10101134Y-11885222D02*
X10101134Y-11989984D01*
X10101134Y-11885222D02*
X10110658Y-11866174D01*
X10110658Y-11866174D02*
X10129705Y-11856650D01*
X10129705Y-11856650D02*
X10158277Y-11856650D01*
X10158277Y-11856650D02*
X10177325Y-11866174D01*
X10177325Y-11866174D02*
X10186848Y-11885222D01*
X10186848Y-11885222D02*
X10186848Y-11989984D01*
X10282086Y-11989984D02*
X10282086Y-11856650D01*
X10282086Y-11875698D02*
X10291610Y-11866174D01*
X10291610Y-11866174D02*
X10310658Y-11856650D01*
X10310658Y-11856650D02*
X10339229Y-11856650D01*
X10339229Y-11856650D02*
X10358277Y-11866174D01*
X10358277Y-11866174D02*
X10367801Y-11885222D01*
X10367801Y-11885222D02*
X10367801Y-11989984D01*
X10367801Y-11885222D02*
X10377325Y-11866174D01*
X10377325Y-11866174D02*
X10396372Y-11856650D01*
X10396372Y-11856650D02*
X10424944Y-11856650D01*
X10424944Y-11856650D02*
X10443991Y-11866174D01*
X10443991Y-11866174D02*
X10453515Y-11885222D01*
X10453515Y-11885222D02*
X10453515Y-11989984D01*
X10843991Y-11780460D02*
X10672563Y-12037603D01*
X11101134Y-11789984D02*
X11120182Y-11789984D01*
X11120182Y-11789984D02*
X11139229Y-11799508D01*
X11139229Y-11799508D02*
X11148753Y-11809031D01*
X11148753Y-11809031D02*
X11158277Y-11828079D01*
X11158277Y-11828079D02*
X11167801Y-11866174D01*
X11167801Y-11866174D02*
X11167801Y-11913793D01*
X11167801Y-11913793D02*
X11158277Y-11951888D01*
X11158277Y-11951888D02*
X11148753Y-11970936D01*
X11148753Y-11970936D02*
X11139229Y-11980460D01*
X11139229Y-11980460D02*
X11120182Y-11989984D01*
X11120182Y-11989984D02*
X11101134Y-11989984D01*
X11101134Y-11989984D02*
X11082087Y-11980460D01*
X11082087Y-11980460D02*
X11072563Y-11970936D01*
X11072563Y-11970936D02*
X11063039Y-11951888D01*
X11063039Y-11951888D02*
X11053515Y-11913793D01*
X11053515Y-11913793D02*
X11053515Y-11866174D01*
X11053515Y-11866174D02*
X11063039Y-11828079D01*
X11063039Y-11828079D02*
X11072563Y-11809031D01*
X11072563Y-11809031D02*
X11082087Y-11799508D01*
X11082087Y-11799508D02*
X11101134Y-11789984D01*
X11253515Y-11970936D02*
X11263039Y-11980460D01*
X11263039Y-11980460D02*
X11253515Y-11989984D01*
X11253515Y-11989984D02*
X11243991Y-11980460D01*
X11243991Y-11980460D02*
X11253515Y-11970936D01*
X11253515Y-11970936D02*
X11253515Y-11989984D01*
X11386848Y-11789984D02*
X11405896Y-11789984D01*
X11405896Y-11789984D02*
X11424944Y-11799508D01*
X11424944Y-11799508D02*
X11434467Y-11809031D01*
X11434467Y-11809031D02*
X11443991Y-11828079D01*
X11443991Y-11828079D02*
X11453515Y-11866174D01*
X11453515Y-11866174D02*
X11453515Y-11913793D01*
X11453515Y-11913793D02*
X11443991Y-11951888D01*
X11443991Y-11951888D02*
X11434467Y-11970936D01*
X11434467Y-11970936D02*
X11424944Y-11980460D01*
X11424944Y-11980460D02*
X11405896Y-11989984D01*
X11405896Y-11989984D02*
X11386848Y-11989984D01*
X11386848Y-11989984D02*
X11367801Y-11980460D01*
X11367801Y-11980460D02*
X11358277Y-11970936D01*
X11358277Y-11970936D02*
X11348753Y-11951888D01*
X11348753Y-11951888D02*
X11339229Y-11913793D01*
X11339229Y-11913793D02*
X11339229Y-11866174D01*
X11339229Y-11866174D02*
X11348753Y-11828079D01*
X11348753Y-11828079D02*
X11358277Y-11809031D01*
X11358277Y-11809031D02*
X11367801Y-11799508D01*
X11367801Y-11799508D02*
X11386848Y-11789984D01*
X11624944Y-11856650D02*
X11624944Y-11989984D01*
X11577325Y-11780460D02*
X11529706Y-11923317D01*
X11529706Y-11923317D02*
X11653515Y-11923317D01*
X11824944Y-11789984D02*
X11729706Y-11789984D01*
X11729706Y-11789984D02*
X11720182Y-11885222D01*
X11720182Y-11885222D02*
X11729706Y-11875698D01*
X11729706Y-11875698D02*
X11748753Y-11866174D01*
X11748753Y-11866174D02*
X11796372Y-11866174D01*
X11796372Y-11866174D02*
X11815420Y-11875698D01*
X11815420Y-11875698D02*
X11824944Y-11885222D01*
X11824944Y-11885222D02*
X11834467Y-11904269D01*
X11834467Y-11904269D02*
X11834467Y-11951888D01*
X11834467Y-11951888D02*
X11824944Y-11970936D01*
X11824944Y-11970936D02*
X11815420Y-11980460D01*
X11815420Y-11980460D02*
X11796372Y-11989984D01*
X11796372Y-11989984D02*
X11748753Y-11989984D01*
X11748753Y-11989984D02*
X11729706Y-11980460D01*
X11729706Y-11980460D02*
X11720182Y-11970936D01*
X12005896Y-11856650D02*
X12005896Y-11989984D01*
X11958277Y-11780460D02*
X11910658Y-11923317D01*
X11910658Y-11923317D02*
X12034467Y-11923317D01*
X12101134Y-11789984D02*
X12101134Y-11828079D01*
X12177325Y-11789984D02*
X12177325Y-11828079D01*
X12472563Y-12066174D02*
X12463039Y-12056650D01*
X12463039Y-12056650D02*
X12443991Y-12028079D01*
X12443991Y-12028079D02*
X12434468Y-12009031D01*
X12434468Y-12009031D02*
X12424944Y-11980460D01*
X12424944Y-11980460D02*
X12415420Y-11932841D01*
X12415420Y-11932841D02*
X12415420Y-11894746D01*
X12415420Y-11894746D02*
X12424944Y-11847127D01*
X12424944Y-11847127D02*
X12434468Y-11818555D01*
X12434468Y-11818555D02*
X12443991Y-11799508D01*
X12443991Y-11799508D02*
X12463039Y-11770936D01*
X12463039Y-11770936D02*
X12472563Y-11761412D01*
X12529706Y-11789984D02*
X12653515Y-11789984D01*
X12653515Y-11789984D02*
X12586848Y-11866174D01*
X12586848Y-11866174D02*
X12615420Y-11866174D01*
X12615420Y-11866174D02*
X12634468Y-11875698D01*
X12634468Y-11875698D02*
X12643991Y-11885222D01*
X12643991Y-11885222D02*
X12653515Y-11904269D01*
X12653515Y-11904269D02*
X12653515Y-11951888D01*
X12653515Y-11951888D02*
X12643991Y-11970936D01*
X12643991Y-11970936D02*
X12634468Y-11980460D01*
X12634468Y-11980460D02*
X12615420Y-11989984D01*
X12615420Y-11989984D02*
X12558277Y-11989984D01*
X12558277Y-11989984D02*
X12539229Y-11980460D01*
X12539229Y-11980460D02*
X12529706Y-11970936D01*
X12891610Y-11989984D02*
X12891610Y-11789984D01*
X12977325Y-11989984D02*
X12977325Y-11885222D01*
X12977325Y-11885222D02*
X12967801Y-11866174D01*
X12967801Y-11866174D02*
X12948753Y-11856650D01*
X12948753Y-11856650D02*
X12920182Y-11856650D01*
X12920182Y-11856650D02*
X12901134Y-11866174D01*
X12901134Y-11866174D02*
X12891610Y-11875698D01*
X13101134Y-11989984D02*
X13082087Y-11980460D01*
X13082087Y-11980460D02*
X13072563Y-11970936D01*
X13072563Y-11970936D02*
X13063039Y-11951888D01*
X13063039Y-11951888D02*
X13063039Y-11894746D01*
X13063039Y-11894746D02*
X13072563Y-11875698D01*
X13072563Y-11875698D02*
X13082087Y-11866174D01*
X13082087Y-11866174D02*
X13101134Y-11856650D01*
X13101134Y-11856650D02*
X13129706Y-11856650D01*
X13129706Y-11856650D02*
X13148753Y-11866174D01*
X13148753Y-11866174D02*
X13158277Y-11875698D01*
X13158277Y-11875698D02*
X13167801Y-11894746D01*
X13167801Y-11894746D02*
X13167801Y-11951888D01*
X13167801Y-11951888D02*
X13158277Y-11970936D01*
X13158277Y-11970936D02*
X13148753Y-11980460D01*
X13148753Y-11980460D02*
X13129706Y-11989984D01*
X13129706Y-11989984D02*
X13101134Y-11989984D01*
X13282087Y-11989984D02*
X13263039Y-11980460D01*
X13263039Y-11980460D02*
X13253515Y-11961412D01*
X13253515Y-11961412D02*
X13253515Y-11789984D01*
X13434468Y-11980460D02*
X13415420Y-11989984D01*
X13415420Y-11989984D02*
X13377325Y-11989984D01*
X13377325Y-11989984D02*
X13358277Y-11980460D01*
X13358277Y-11980460D02*
X13348753Y-11961412D01*
X13348753Y-11961412D02*
X13348753Y-11885222D01*
X13348753Y-11885222D02*
X13358277Y-11866174D01*
X13358277Y-11866174D02*
X13377325Y-11856650D01*
X13377325Y-11856650D02*
X13415420Y-11856650D01*
X13415420Y-11856650D02*
X13434468Y-11866174D01*
X13434468Y-11866174D02*
X13443991Y-11885222D01*
X13443991Y-11885222D02*
X13443991Y-11904269D01*
X13443991Y-11904269D02*
X13348753Y-11923317D01*
X13520182Y-11980460D02*
X13539230Y-11989984D01*
X13539230Y-11989984D02*
X13577325Y-11989984D01*
X13577325Y-11989984D02*
X13596372Y-11980460D01*
X13596372Y-11980460D02*
X13605896Y-11961412D01*
X13605896Y-11961412D02*
X13605896Y-11951888D01*
X13605896Y-11951888D02*
X13596372Y-11932841D01*
X13596372Y-11932841D02*
X13577325Y-11923317D01*
X13577325Y-11923317D02*
X13548753Y-11923317D01*
X13548753Y-11923317D02*
X13529706Y-11913793D01*
X13529706Y-11913793D02*
X13520182Y-11894746D01*
X13520182Y-11894746D02*
X13520182Y-11885222D01*
X13520182Y-11885222D02*
X13529706Y-11866174D01*
X13529706Y-11866174D02*
X13548753Y-11856650D01*
X13548753Y-11856650D02*
X13577325Y-11856650D01*
X13577325Y-11856650D02*
X13596372Y-11866174D01*
X13672563Y-12066174D02*
X13682087Y-12056650D01*
X13682087Y-12056650D02*
X13701134Y-12028079D01*
X13701134Y-12028079D02*
X13710658Y-12009031D01*
X13710658Y-12009031D02*
X13720182Y-11980460D01*
X13720182Y-11980460D02*
X13729706Y-11932841D01*
X13729706Y-11932841D02*
X13729706Y-11894746D01*
X13729706Y-11894746D02*
X13720182Y-11847127D01*
X13720182Y-11847127D02*
X13710658Y-11818555D01*
X13710658Y-11818555D02*
X13701134Y-11799508D01*
X13701134Y-11799508D02*
X13682087Y-11770936D01*
X13682087Y-11770936D02*
X13672563Y-11761412D01*
M02*
