%TF.GenerationSoftware,KiCad,Pcbnew,9.0.4*%
%TF.CreationDate,2026-02-10T01:39:38-05:00*%
%TF.ProjectId,main_board_peripheral_v3,6d61696e-5f62-46f6-9172-645f70657269,rev?*%
%TF.SameCoordinates,Original*%
%TF.FileFunction,Legend,Top*%
%TF.FilePolarity,Positive*%
%FSLAX46Y46*%
G04 Gerber Fmt 4.6, Leading zero omitted, Abs format (unit mm)*
G04 Created by KiCad (PCBNEW 9.0.4) date 2026-02-10 01:39:38*
%MOMM*%
%LPD*%
G01*
G04 APERTURE LIST*
%ADD10C,0.200000*%
%ADD11C,0.254000*%
%ADD12C,0.150000*%
%ADD13C,0.100000*%
%ADD14C,0.400000*%
%ADD15C,0.120000*%
%ADD16C,0.127000*%
G04 APERTURE END LIST*
D10*
X100413863Y-101463219D02*
X99937673Y-101463219D01*
X99937673Y-101463219D02*
X99890054Y-101939409D01*
X99890054Y-101939409D02*
X99937673Y-101891790D01*
X99937673Y-101891790D02*
X100032911Y-101844171D01*
X100032911Y-101844171D02*
X100271006Y-101844171D01*
X100271006Y-101844171D02*
X100366244Y-101891790D01*
X100366244Y-101891790D02*
X100413863Y-101939409D01*
X100413863Y-101939409D02*
X100461482Y-102034647D01*
X100461482Y-102034647D02*
X100461482Y-102272742D01*
X100461482Y-102272742D02*
X100413863Y-102367980D01*
X100413863Y-102367980D02*
X100366244Y-102415600D01*
X100366244Y-102415600D02*
X100271006Y-102463219D01*
X100271006Y-102463219D02*
X100032911Y-102463219D01*
X100032911Y-102463219D02*
X99937673Y-102415600D01*
X99937673Y-102415600D02*
X99890054Y-102367980D01*
X100747197Y-101463219D02*
X101080530Y-102463219D01*
X101080530Y-102463219D02*
X101413863Y-101463219D01*
X131290816Y-101717219D02*
X131862244Y-101717219D01*
X131576530Y-102717219D02*
X131576530Y-101717219D01*
X132100340Y-101717219D02*
X132767006Y-102717219D01*
X132767006Y-101717219D02*
X132100340Y-102717219D01*
X133147959Y-102336266D02*
X133909864Y-102336266D01*
X133528911Y-102717219D02*
X133528911Y-101955314D01*
X128255101Y-101213219D02*
X127921768Y-100737028D01*
X127683673Y-101213219D02*
X127683673Y-100213219D01*
X127683673Y-100213219D02*
X128064625Y-100213219D01*
X128064625Y-100213219D02*
X128159863Y-100260838D01*
X128159863Y-100260838D02*
X128207482Y-100308457D01*
X128207482Y-100308457D02*
X128255101Y-100403695D01*
X128255101Y-100403695D02*
X128255101Y-100546552D01*
X128255101Y-100546552D02*
X128207482Y-100641790D01*
X128207482Y-100641790D02*
X128159863Y-100689409D01*
X128159863Y-100689409D02*
X128064625Y-100737028D01*
X128064625Y-100737028D02*
X127683673Y-100737028D01*
X128588435Y-100213219D02*
X129255101Y-101213219D01*
X129255101Y-100213219D02*
X128588435Y-101213219D01*
X129636054Y-100832266D02*
X130397959Y-100832266D01*
X95163673Y-99959219D02*
X95163673Y-100768742D01*
X95163673Y-100768742D02*
X95211292Y-100863980D01*
X95211292Y-100863980D02*
X95258911Y-100911600D01*
X95258911Y-100911600D02*
X95354149Y-100959219D01*
X95354149Y-100959219D02*
X95544625Y-100959219D01*
X95544625Y-100959219D02*
X95639863Y-100911600D01*
X95639863Y-100911600D02*
X95687482Y-100863980D01*
X95687482Y-100863980D02*
X95735101Y-100768742D01*
X95735101Y-100768742D02*
X95735101Y-99959219D01*
X96163673Y-100911600D02*
X96306530Y-100959219D01*
X96306530Y-100959219D02*
X96544625Y-100959219D01*
X96544625Y-100959219D02*
X96639863Y-100911600D01*
X96639863Y-100911600D02*
X96687482Y-100863980D01*
X96687482Y-100863980D02*
X96735101Y-100768742D01*
X96735101Y-100768742D02*
X96735101Y-100673504D01*
X96735101Y-100673504D02*
X96687482Y-100578266D01*
X96687482Y-100578266D02*
X96639863Y-100530647D01*
X96639863Y-100530647D02*
X96544625Y-100483028D01*
X96544625Y-100483028D02*
X96354149Y-100435409D01*
X96354149Y-100435409D02*
X96258911Y-100387790D01*
X96258911Y-100387790D02*
X96211292Y-100340171D01*
X96211292Y-100340171D02*
X96163673Y-100244933D01*
X96163673Y-100244933D02*
X96163673Y-100149695D01*
X96163673Y-100149695D02*
X96211292Y-100054457D01*
X96211292Y-100054457D02*
X96258911Y-100006838D01*
X96258911Y-100006838D02*
X96354149Y-99959219D01*
X96354149Y-99959219D02*
X96592244Y-99959219D01*
X96592244Y-99959219D02*
X96735101Y-100006838D01*
X97497006Y-100435409D02*
X97639863Y-100483028D01*
X97639863Y-100483028D02*
X97687482Y-100530647D01*
X97687482Y-100530647D02*
X97735101Y-100625885D01*
X97735101Y-100625885D02*
X97735101Y-100768742D01*
X97735101Y-100768742D02*
X97687482Y-100863980D01*
X97687482Y-100863980D02*
X97639863Y-100911600D01*
X97639863Y-100911600D02*
X97544625Y-100959219D01*
X97544625Y-100959219D02*
X97163673Y-100959219D01*
X97163673Y-100959219D02*
X97163673Y-99959219D01*
X97163673Y-99959219D02*
X97497006Y-99959219D01*
X97497006Y-99959219D02*
X97592244Y-100006838D01*
X97592244Y-100006838D02*
X97639863Y-100054457D01*
X97639863Y-100054457D02*
X97687482Y-100149695D01*
X97687482Y-100149695D02*
X97687482Y-100244933D01*
X97687482Y-100244933D02*
X97639863Y-100340171D01*
X97639863Y-100340171D02*
X97592244Y-100387790D01*
X97592244Y-100387790D02*
X97497006Y-100435409D01*
X97497006Y-100435409D02*
X97163673Y-100435409D01*
X98163673Y-100578266D02*
X98925578Y-100578266D01*
X98544625Y-100959219D02*
X98544625Y-100197314D01*
X127540816Y-101717219D02*
X128112244Y-101717219D01*
X127826530Y-102717219D02*
X127826530Y-101717219D01*
X128350340Y-101717219D02*
X129017006Y-102717219D01*
X129017006Y-101717219D02*
X128350340Y-102717219D01*
X129397959Y-102336266D02*
X130159864Y-102336266D01*
X95163673Y-101463219D02*
X95163673Y-102272742D01*
X95163673Y-102272742D02*
X95211292Y-102367980D01*
X95211292Y-102367980D02*
X95258911Y-102415600D01*
X95258911Y-102415600D02*
X95354149Y-102463219D01*
X95354149Y-102463219D02*
X95544625Y-102463219D01*
X95544625Y-102463219D02*
X95639863Y-102415600D01*
X95639863Y-102415600D02*
X95687482Y-102367980D01*
X95687482Y-102367980D02*
X95735101Y-102272742D01*
X95735101Y-102272742D02*
X95735101Y-101463219D01*
X96163673Y-102415600D02*
X96306530Y-102463219D01*
X96306530Y-102463219D02*
X96544625Y-102463219D01*
X96544625Y-102463219D02*
X96639863Y-102415600D01*
X96639863Y-102415600D02*
X96687482Y-102367980D01*
X96687482Y-102367980D02*
X96735101Y-102272742D01*
X96735101Y-102272742D02*
X96735101Y-102177504D01*
X96735101Y-102177504D02*
X96687482Y-102082266D01*
X96687482Y-102082266D02*
X96639863Y-102034647D01*
X96639863Y-102034647D02*
X96544625Y-101987028D01*
X96544625Y-101987028D02*
X96354149Y-101939409D01*
X96354149Y-101939409D02*
X96258911Y-101891790D01*
X96258911Y-101891790D02*
X96211292Y-101844171D01*
X96211292Y-101844171D02*
X96163673Y-101748933D01*
X96163673Y-101748933D02*
X96163673Y-101653695D01*
X96163673Y-101653695D02*
X96211292Y-101558457D01*
X96211292Y-101558457D02*
X96258911Y-101510838D01*
X96258911Y-101510838D02*
X96354149Y-101463219D01*
X96354149Y-101463219D02*
X96592244Y-101463219D01*
X96592244Y-101463219D02*
X96735101Y-101510838D01*
X97497006Y-101939409D02*
X97639863Y-101987028D01*
X97639863Y-101987028D02*
X97687482Y-102034647D01*
X97687482Y-102034647D02*
X97735101Y-102129885D01*
X97735101Y-102129885D02*
X97735101Y-102272742D01*
X97735101Y-102272742D02*
X97687482Y-102367980D01*
X97687482Y-102367980D02*
X97639863Y-102415600D01*
X97639863Y-102415600D02*
X97544625Y-102463219D01*
X97544625Y-102463219D02*
X97163673Y-102463219D01*
X97163673Y-102463219D02*
X97163673Y-101463219D01*
X97163673Y-101463219D02*
X97497006Y-101463219D01*
X97497006Y-101463219D02*
X97592244Y-101510838D01*
X97592244Y-101510838D02*
X97639863Y-101558457D01*
X97639863Y-101558457D02*
X97687482Y-101653695D01*
X97687482Y-101653695D02*
X97687482Y-101748933D01*
X97687482Y-101748933D02*
X97639863Y-101844171D01*
X97639863Y-101844171D02*
X97592244Y-101891790D01*
X97592244Y-101891790D02*
X97497006Y-101939409D01*
X97497006Y-101939409D02*
X97163673Y-101939409D01*
X98163673Y-102082266D02*
X98925578Y-102082266D01*
X100461482Y-100006838D02*
X100366244Y-99959219D01*
X100366244Y-99959219D02*
X100223387Y-99959219D01*
X100223387Y-99959219D02*
X100080530Y-100006838D01*
X100080530Y-100006838D02*
X99985292Y-100102076D01*
X99985292Y-100102076D02*
X99937673Y-100197314D01*
X99937673Y-100197314D02*
X99890054Y-100387790D01*
X99890054Y-100387790D02*
X99890054Y-100530647D01*
X99890054Y-100530647D02*
X99937673Y-100721123D01*
X99937673Y-100721123D02*
X99985292Y-100816361D01*
X99985292Y-100816361D02*
X100080530Y-100911600D01*
X100080530Y-100911600D02*
X100223387Y-100959219D01*
X100223387Y-100959219D02*
X100318625Y-100959219D01*
X100318625Y-100959219D02*
X100461482Y-100911600D01*
X100461482Y-100911600D02*
X100509101Y-100863980D01*
X100509101Y-100863980D02*
X100509101Y-100530647D01*
X100509101Y-100530647D02*
X100318625Y-100530647D01*
X100937673Y-100959219D02*
X100937673Y-99959219D01*
X100937673Y-99959219D02*
X101509101Y-100959219D01*
X101509101Y-100959219D02*
X101509101Y-99959219D01*
X101985292Y-100959219D02*
X101985292Y-99959219D01*
X101985292Y-99959219D02*
X102223387Y-99959219D01*
X102223387Y-99959219D02*
X102366244Y-100006838D01*
X102366244Y-100006838D02*
X102461482Y-100102076D01*
X102461482Y-100102076D02*
X102509101Y-100197314D01*
X102509101Y-100197314D02*
X102556720Y-100387790D01*
X102556720Y-100387790D02*
X102556720Y-100530647D01*
X102556720Y-100530647D02*
X102509101Y-100721123D01*
X102509101Y-100721123D02*
X102461482Y-100816361D01*
X102461482Y-100816361D02*
X102366244Y-100911600D01*
X102366244Y-100911600D02*
X102223387Y-100959219D01*
X102223387Y-100959219D02*
X101985292Y-100959219D01*
X113318244Y-101690552D02*
X113318244Y-102357219D01*
X113080149Y-101309600D02*
X112842054Y-102023885D01*
X112842054Y-102023885D02*
X113461101Y-102023885D01*
X114365863Y-102357219D02*
X113794435Y-102357219D01*
X114080149Y-102357219D02*
X114080149Y-101357219D01*
X114080149Y-101357219D02*
X113984911Y-101500076D01*
X113984911Y-101500076D02*
X113889673Y-101595314D01*
X113889673Y-101595314D02*
X113794435Y-101642933D01*
X114699197Y-102357219D02*
X115223006Y-101690552D01*
X114699197Y-101690552D02*
X115223006Y-102357219D01*
X115556340Y-101452457D02*
X115603959Y-101404838D01*
X115603959Y-101404838D02*
X115699197Y-101357219D01*
X115699197Y-101357219D02*
X115937292Y-101357219D01*
X115937292Y-101357219D02*
X116032530Y-101404838D01*
X116032530Y-101404838D02*
X116080149Y-101452457D01*
X116080149Y-101452457D02*
X116127768Y-101547695D01*
X116127768Y-101547695D02*
X116127768Y-101642933D01*
X116127768Y-101642933D02*
X116080149Y-101785790D01*
X116080149Y-101785790D02*
X115508721Y-102357219D01*
X115508721Y-102357219D02*
X116127768Y-102357219D01*
X117032530Y-101357219D02*
X116556340Y-101357219D01*
X116556340Y-101357219D02*
X116508721Y-101833409D01*
X116508721Y-101833409D02*
X116556340Y-101785790D01*
X116556340Y-101785790D02*
X116651578Y-101738171D01*
X116651578Y-101738171D02*
X116889673Y-101738171D01*
X116889673Y-101738171D02*
X116984911Y-101785790D01*
X116984911Y-101785790D02*
X117032530Y-101833409D01*
X117032530Y-101833409D02*
X117080149Y-101928647D01*
X117080149Y-101928647D02*
X117080149Y-102166742D01*
X117080149Y-102166742D02*
X117032530Y-102261980D01*
X117032530Y-102261980D02*
X116984911Y-102309600D01*
X116984911Y-102309600D02*
X116889673Y-102357219D01*
X116889673Y-102357219D02*
X116651578Y-102357219D01*
X116651578Y-102357219D02*
X116556340Y-102309600D01*
X116556340Y-102309600D02*
X116508721Y-102261980D01*
X118270626Y-102357219D02*
X118270626Y-101690552D01*
X118270626Y-101785790D02*
X118318245Y-101738171D01*
X118318245Y-101738171D02*
X118413483Y-101690552D01*
X118413483Y-101690552D02*
X118556340Y-101690552D01*
X118556340Y-101690552D02*
X118651578Y-101738171D01*
X118651578Y-101738171D02*
X118699197Y-101833409D01*
X118699197Y-101833409D02*
X118699197Y-102357219D01*
X118699197Y-101833409D02*
X118746816Y-101738171D01*
X118746816Y-101738171D02*
X118842054Y-101690552D01*
X118842054Y-101690552D02*
X118984911Y-101690552D01*
X118984911Y-101690552D02*
X119080150Y-101738171D01*
X119080150Y-101738171D02*
X119127769Y-101833409D01*
X119127769Y-101833409D02*
X119127769Y-102357219D01*
X119603959Y-102357219D02*
X119603959Y-101690552D01*
X119603959Y-101785790D02*
X119651578Y-101738171D01*
X119651578Y-101738171D02*
X119746816Y-101690552D01*
X119746816Y-101690552D02*
X119889673Y-101690552D01*
X119889673Y-101690552D02*
X119984911Y-101738171D01*
X119984911Y-101738171D02*
X120032530Y-101833409D01*
X120032530Y-101833409D02*
X120032530Y-102357219D01*
X120032530Y-101833409D02*
X120080149Y-101738171D01*
X120080149Y-101738171D02*
X120175387Y-101690552D01*
X120175387Y-101690552D02*
X120318244Y-101690552D01*
X120318244Y-101690552D02*
X120413483Y-101738171D01*
X120413483Y-101738171D02*
X120461102Y-101833409D01*
X120461102Y-101833409D02*
X120461102Y-102357219D01*
X132005101Y-101213219D02*
X131671768Y-100737028D01*
X131433673Y-101213219D02*
X131433673Y-100213219D01*
X131433673Y-100213219D02*
X131814625Y-100213219D01*
X131814625Y-100213219D02*
X131909863Y-100260838D01*
X131909863Y-100260838D02*
X131957482Y-100308457D01*
X131957482Y-100308457D02*
X132005101Y-100403695D01*
X132005101Y-100403695D02*
X132005101Y-100546552D01*
X132005101Y-100546552D02*
X131957482Y-100641790D01*
X131957482Y-100641790D02*
X131909863Y-100689409D01*
X131909863Y-100689409D02*
X131814625Y-100737028D01*
X131814625Y-100737028D02*
X131433673Y-100737028D01*
X132338435Y-100213219D02*
X133005101Y-101213219D01*
X133005101Y-100213219D02*
X132338435Y-101213219D01*
X133386054Y-100832266D02*
X134147959Y-100832266D01*
X133767006Y-101213219D02*
X133767006Y-100451314D01*
D11*
X103576667Y-101304318D02*
X103576667Y-102211461D01*
X103576667Y-102211461D02*
X103516190Y-102392889D01*
X103516190Y-102392889D02*
X103395238Y-102513842D01*
X103395238Y-102513842D02*
X103213809Y-102574318D01*
X103213809Y-102574318D02*
X103092857Y-102574318D01*
X104120952Y-101425270D02*
X104181428Y-101364794D01*
X104181428Y-101364794D02*
X104302381Y-101304318D01*
X104302381Y-101304318D02*
X104604762Y-101304318D01*
X104604762Y-101304318D02*
X104725714Y-101364794D01*
X104725714Y-101364794D02*
X104786190Y-101425270D01*
X104786190Y-101425270D02*
X104846667Y-101546222D01*
X104846667Y-101546222D02*
X104846667Y-101667175D01*
X104846667Y-101667175D02*
X104786190Y-101848603D01*
X104786190Y-101848603D02*
X104060476Y-102574318D01*
X104060476Y-102574318D02*
X104846667Y-102574318D01*
D10*
X119382219Y-83512666D02*
X118906028Y-83845999D01*
X119382219Y-84084094D02*
X118382219Y-84084094D01*
X118382219Y-84084094D02*
X118382219Y-83703142D01*
X118382219Y-83703142D02*
X118429838Y-83607904D01*
X118429838Y-83607904D02*
X118477457Y-83560285D01*
X118477457Y-83560285D02*
X118572695Y-83512666D01*
X118572695Y-83512666D02*
X118715552Y-83512666D01*
X118715552Y-83512666D02*
X118810790Y-83560285D01*
X118810790Y-83560285D02*
X118858409Y-83607904D01*
X118858409Y-83607904D02*
X118906028Y-83703142D01*
X118906028Y-83703142D02*
X118906028Y-84084094D01*
X119382219Y-82560285D02*
X119382219Y-83131713D01*
X119382219Y-82845999D02*
X118382219Y-82845999D01*
X118382219Y-82845999D02*
X118525076Y-82941237D01*
X118525076Y-82941237D02*
X118620314Y-83036475D01*
X118620314Y-83036475D02*
X118667933Y-83131713D01*
X111716980Y-82080666D02*
X111764600Y-82128285D01*
X111764600Y-82128285D02*
X111812219Y-82271142D01*
X111812219Y-82271142D02*
X111812219Y-82366380D01*
X111812219Y-82366380D02*
X111764600Y-82509237D01*
X111764600Y-82509237D02*
X111669361Y-82604475D01*
X111669361Y-82604475D02*
X111574123Y-82652094D01*
X111574123Y-82652094D02*
X111383647Y-82699713D01*
X111383647Y-82699713D02*
X111240790Y-82699713D01*
X111240790Y-82699713D02*
X111050314Y-82652094D01*
X111050314Y-82652094D02*
X110955076Y-82604475D01*
X110955076Y-82604475D02*
X110859838Y-82509237D01*
X110859838Y-82509237D02*
X110812219Y-82366380D01*
X110812219Y-82366380D02*
X110812219Y-82271142D01*
X110812219Y-82271142D02*
X110859838Y-82128285D01*
X110859838Y-82128285D02*
X110907457Y-82080666D01*
X110812219Y-81175904D02*
X110812219Y-81652094D01*
X110812219Y-81652094D02*
X111288409Y-81699713D01*
X111288409Y-81699713D02*
X111240790Y-81652094D01*
X111240790Y-81652094D02*
X111193171Y-81556856D01*
X111193171Y-81556856D02*
X111193171Y-81318761D01*
X111193171Y-81318761D02*
X111240790Y-81223523D01*
X111240790Y-81223523D02*
X111288409Y-81175904D01*
X111288409Y-81175904D02*
X111383647Y-81128285D01*
X111383647Y-81128285D02*
X111621742Y-81128285D01*
X111621742Y-81128285D02*
X111716980Y-81175904D01*
X111716980Y-81175904D02*
X111764600Y-81223523D01*
X111764600Y-81223523D02*
X111812219Y-81318761D01*
X111812219Y-81318761D02*
X111812219Y-81556856D01*
X111812219Y-81556856D02*
X111764600Y-81652094D01*
X111764600Y-81652094D02*
X111716980Y-81699713D01*
D12*
X112734819Y-94746666D02*
X112258628Y-95079999D01*
X112734819Y-95318094D02*
X111734819Y-95318094D01*
X111734819Y-95318094D02*
X111734819Y-94937142D01*
X111734819Y-94937142D02*
X111782438Y-94841904D01*
X111782438Y-94841904D02*
X111830057Y-94794285D01*
X111830057Y-94794285D02*
X111925295Y-94746666D01*
X111925295Y-94746666D02*
X112068152Y-94746666D01*
X112068152Y-94746666D02*
X112163390Y-94794285D01*
X112163390Y-94794285D02*
X112211009Y-94841904D01*
X112211009Y-94841904D02*
X112258628Y-94937142D01*
X112258628Y-94937142D02*
X112258628Y-95318094D01*
X111734819Y-94413332D02*
X111734819Y-93794285D01*
X111734819Y-93794285D02*
X112115771Y-94127618D01*
X112115771Y-94127618D02*
X112115771Y-93984761D01*
X112115771Y-93984761D02*
X112163390Y-93889523D01*
X112163390Y-93889523D02*
X112211009Y-93841904D01*
X112211009Y-93841904D02*
X112306247Y-93794285D01*
X112306247Y-93794285D02*
X112544342Y-93794285D01*
X112544342Y-93794285D02*
X112639580Y-93841904D01*
X112639580Y-93841904D02*
X112687200Y-93889523D01*
X112687200Y-93889523D02*
X112734819Y-93984761D01*
X112734819Y-93984761D02*
X112734819Y-94270475D01*
X112734819Y-94270475D02*
X112687200Y-94365713D01*
X112687200Y-94365713D02*
X112639580Y-94413332D01*
D10*
X113971905Y-80970219D02*
X113971905Y-79970219D01*
X113971905Y-79970219D02*
X114210000Y-79970219D01*
X114210000Y-79970219D02*
X114352857Y-80017838D01*
X114352857Y-80017838D02*
X114448095Y-80113076D01*
X114448095Y-80113076D02*
X114495714Y-80208314D01*
X114495714Y-80208314D02*
X114543333Y-80398790D01*
X114543333Y-80398790D02*
X114543333Y-80541647D01*
X114543333Y-80541647D02*
X114495714Y-80732123D01*
X114495714Y-80732123D02*
X114448095Y-80827361D01*
X114448095Y-80827361D02*
X114352857Y-80922600D01*
X114352857Y-80922600D02*
X114210000Y-80970219D01*
X114210000Y-80970219D02*
X113971905Y-80970219D01*
X114924286Y-80065457D02*
X114971905Y-80017838D01*
X114971905Y-80017838D02*
X115067143Y-79970219D01*
X115067143Y-79970219D02*
X115305238Y-79970219D01*
X115305238Y-79970219D02*
X115400476Y-80017838D01*
X115400476Y-80017838D02*
X115448095Y-80065457D01*
X115448095Y-80065457D02*
X115495714Y-80160695D01*
X115495714Y-80160695D02*
X115495714Y-80255933D01*
X115495714Y-80255933D02*
X115448095Y-80398790D01*
X115448095Y-80398790D02*
X114876667Y-80970219D01*
X114876667Y-80970219D02*
X115495714Y-80970219D01*
D11*
X125101667Y-101304318D02*
X125101667Y-102211461D01*
X125101667Y-102211461D02*
X125041190Y-102392889D01*
X125041190Y-102392889D02*
X124920238Y-102513842D01*
X124920238Y-102513842D02*
X124738809Y-102574318D01*
X124738809Y-102574318D02*
X124617857Y-102574318D01*
X125585476Y-101304318D02*
X126371667Y-101304318D01*
X126371667Y-101304318D02*
X125948333Y-101788127D01*
X125948333Y-101788127D02*
X126129762Y-101788127D01*
X126129762Y-101788127D02*
X126250714Y-101848603D01*
X126250714Y-101848603D02*
X126311190Y-101909080D01*
X126311190Y-101909080D02*
X126371667Y-102030032D01*
X126371667Y-102030032D02*
X126371667Y-102332413D01*
X126371667Y-102332413D02*
X126311190Y-102453365D01*
X126311190Y-102453365D02*
X126250714Y-102513842D01*
X126250714Y-102513842D02*
X126129762Y-102574318D01*
X126129762Y-102574318D02*
X125766905Y-102574318D01*
X125766905Y-102574318D02*
X125645952Y-102513842D01*
X125645952Y-102513842D02*
X125585476Y-102453365D01*
D10*
X115696980Y-89796666D02*
X115744600Y-89844285D01*
X115744600Y-89844285D02*
X115792219Y-89987142D01*
X115792219Y-89987142D02*
X115792219Y-90082380D01*
X115792219Y-90082380D02*
X115744600Y-90225237D01*
X115744600Y-90225237D02*
X115649361Y-90320475D01*
X115649361Y-90320475D02*
X115554123Y-90368094D01*
X115554123Y-90368094D02*
X115363647Y-90415713D01*
X115363647Y-90415713D02*
X115220790Y-90415713D01*
X115220790Y-90415713D02*
X115030314Y-90368094D01*
X115030314Y-90368094D02*
X114935076Y-90320475D01*
X114935076Y-90320475D02*
X114839838Y-90225237D01*
X114839838Y-90225237D02*
X114792219Y-90082380D01*
X114792219Y-90082380D02*
X114792219Y-89987142D01*
X114792219Y-89987142D02*
X114839838Y-89844285D01*
X114839838Y-89844285D02*
X114887457Y-89796666D01*
X114792219Y-88939523D02*
X114792219Y-89129999D01*
X114792219Y-89129999D02*
X114839838Y-89225237D01*
X114839838Y-89225237D02*
X114887457Y-89272856D01*
X114887457Y-89272856D02*
X115030314Y-89368094D01*
X115030314Y-89368094D02*
X115220790Y-89415713D01*
X115220790Y-89415713D02*
X115601742Y-89415713D01*
X115601742Y-89415713D02*
X115696980Y-89368094D01*
X115696980Y-89368094D02*
X115744600Y-89320475D01*
X115744600Y-89320475D02*
X115792219Y-89225237D01*
X115792219Y-89225237D02*
X115792219Y-89034761D01*
X115792219Y-89034761D02*
X115744600Y-88939523D01*
X115744600Y-88939523D02*
X115696980Y-88891904D01*
X115696980Y-88891904D02*
X115601742Y-88844285D01*
X115601742Y-88844285D02*
X115363647Y-88844285D01*
X115363647Y-88844285D02*
X115268409Y-88891904D01*
X115268409Y-88891904D02*
X115220790Y-88939523D01*
X115220790Y-88939523D02*
X115173171Y-89034761D01*
X115173171Y-89034761D02*
X115173171Y-89225237D01*
X115173171Y-89225237D02*
X115220790Y-89320475D01*
X115220790Y-89320475D02*
X115268409Y-89368094D01*
X115268409Y-89368094D02*
X115363647Y-89415713D01*
D12*
X115204819Y-94766666D02*
X114728628Y-95099999D01*
X115204819Y-95338094D02*
X114204819Y-95338094D01*
X114204819Y-95338094D02*
X114204819Y-94957142D01*
X114204819Y-94957142D02*
X114252438Y-94861904D01*
X114252438Y-94861904D02*
X114300057Y-94814285D01*
X114300057Y-94814285D02*
X114395295Y-94766666D01*
X114395295Y-94766666D02*
X114538152Y-94766666D01*
X114538152Y-94766666D02*
X114633390Y-94814285D01*
X114633390Y-94814285D02*
X114681009Y-94861904D01*
X114681009Y-94861904D02*
X114728628Y-94957142D01*
X114728628Y-94957142D02*
X114728628Y-95338094D01*
X114300057Y-94385713D02*
X114252438Y-94338094D01*
X114252438Y-94338094D02*
X114204819Y-94242856D01*
X114204819Y-94242856D02*
X114204819Y-94004761D01*
X114204819Y-94004761D02*
X114252438Y-93909523D01*
X114252438Y-93909523D02*
X114300057Y-93861904D01*
X114300057Y-93861904D02*
X114395295Y-93814285D01*
X114395295Y-93814285D02*
X114490533Y-93814285D01*
X114490533Y-93814285D02*
X114633390Y-93861904D01*
X114633390Y-93861904D02*
X115204819Y-94433332D01*
X115204819Y-94433332D02*
X115204819Y-93814285D01*
D13*
%TO.C,J2*%
X104025000Y-86500000D02*
X104025000Y-86500000D01*
X104025000Y-99100000D02*
X104025000Y-99100000D01*
D14*
X105000000Y-99800000D02*
X105000000Y-99800000D01*
X105000000Y-99900000D02*
X105000000Y-99900000D01*
D13*
X104025000Y-86500000D02*
G75*
G02*
X104025000Y-99100000I0J-6300000D01*
G01*
X104025000Y-99100000D02*
G75*
G02*
X104025000Y-86500000I0J6300000D01*
G01*
D14*
X105000000Y-99800000D02*
G75*
G02*
X105000000Y-99900000I0J-50000D01*
G01*
X105000000Y-99900000D02*
G75*
G02*
X105000000Y-99800000I0J50000D01*
G01*
D15*
%TO.C,R1*%
X119820000Y-82176359D02*
X119820000Y-82483641D01*
X120580000Y-82176359D02*
X120580000Y-82483641D01*
%TO.C,C5*%
X109580000Y-83070580D02*
X109580000Y-82789420D01*
X110600000Y-83070580D02*
X110600000Y-82789420D01*
%TO.C,R3*%
X113187500Y-94817258D02*
X113187500Y-94342742D01*
X114232500Y-94817258D02*
X114232500Y-94342742D01*
D16*
%TO.C,D2*%
X112310000Y-81470000D02*
X117110000Y-81470000D01*
X112310000Y-86470000D02*
X117110000Y-86470000D01*
D10*
X111840000Y-81010000D02*
G75*
G02*
X111640000Y-81010000I-100000J0D01*
G01*
X111640000Y-81010000D02*
G75*
G02*
X111840000Y-81010000I100000J0D01*
G01*
%TO.C,J3*%
X119225000Y-92800000D02*
X119225000Y-92800000D01*
D13*
X126500000Y-86000000D02*
X126500000Y-86000000D01*
X126500000Y-86100000D02*
X126500000Y-86100000D01*
D10*
X131825000Y-92800000D02*
X131825000Y-92800000D01*
X119225000Y-92800000D02*
G75*
G02*
X131825000Y-92800000I6300000J0D01*
G01*
D13*
X126500000Y-86000000D02*
G75*
G02*
X126500000Y-86100000I0J-50000D01*
G01*
X126500000Y-86100000D02*
G75*
G02*
X126500000Y-86000000I0J50000D01*
G01*
D10*
X131825000Y-92800000D02*
G75*
G02*
X119225000Y-92800000I-6300000J0D01*
G01*
D15*
%TO.C,C6*%
X116260000Y-89770580D02*
X116260000Y-89489420D01*
X117280000Y-89770580D02*
X117280000Y-89489420D01*
%TO.C,R2*%
X115657500Y-94837258D02*
X115657500Y-94362742D01*
X116702500Y-94837258D02*
X116702500Y-94362742D01*
%TD*%
M02*
