M48
; DRILL file {KiCad 9.0.6} date 2026-02-08T19:57:16-0500
; FORMAT={-:-/ absolute / inch / decimal}
; #@! TF.CreationDate,2026-02-08T19:57:16-05:00
; #@! TF.GenerationSoftware,Kicad,Pcbnew,9.0.6
; #@! TF.FileFunction,Plated,1,4,PTH
FMAT,2
INCH
; #@! TA.AperFunction,Plated,PTH,ViaDrill
T1C0.0118
; #@! TA.AperFunction,Plated,PTH,ComponentDrill
T2C0.0315
; #@! TA.AperFunction,Plated,PTH,ComponentDrill
T3C0.0433
; #@! TA.AperFunction,Plated,PTH,ComponentDrill
T4C0.0984
%
G90
G05
T1
X2.0827Y-3.0236
X2.0945Y-2.9173
X2.1339Y-2.9449
X2.1732Y-3.0748
X2.185Y-0.9449
X2.2343Y-0.9941
X2.2343Y-1.8602
X2.2415Y-1.6886
X2.2667Y-1.4626
X2.2835Y-0.9843
X2.2835Y-1.8898
X2.312Y-1.4626
X2.3386Y-2.0354
X2.3425Y-0.8543
X2.3425Y-0.8858
X2.3425Y-0.9252
X2.3425Y-0.9646
X2.3425Y-0.9961
X2.3524Y-0.7776
X2.3524Y-1.3189
X2.3524Y-1.378
X2.3524Y-1.4961
X2.374Y-0.9685
X2.374Y-0.9961
X2.3766Y-0.9288
X2.378Y-0.8543
X2.378Y-0.8858
X2.3819Y-2.1811
X2.4094Y-0.9252
X2.4094Y-0.9685
X2.4094Y-0.9961
X2.4134Y-0.8543
X2.4134Y-0.8858
X2.4213Y-1.752
X2.437Y-3.1181
X2.4409Y-1.6535
X2.4606Y-0.7874
X2.4606Y-3.0
X2.4902Y-1.0138
X2.4902Y-1.1319
X2.5049Y-0.9253
X2.5236Y-2.9921
X2.563Y-1.2953
X2.5709Y-3.0945
X2.5886Y-1.0236
X2.6229Y-2.9812
X2.6496Y-3.0945
X2.6929Y-2.9803
X2.6969Y-2.6535
X2.7404Y-2.1929
X2.7559Y-1.5945
X2.7992Y-2.6496
X2.8059Y-1.3425
X2.8425Y-2.3425
X2.8543Y-1.5453
X2.874Y-1.752
X2.9094Y-2.6614
X2.9146Y-2.2308
X2.9388Y-2.968
X2.957Y-2.9265
X2.9606Y-0.7598
X2.9724Y-2.8868
X2.9764Y-2.8514
X2.9803Y-2.811
X2.9961Y-0.9724
X2.998Y-2.7539
X3.0039Y-1.9961
X3.0394Y-0.9724
X3.0433Y-3.0
X3.0472Y-0.7323
X3.0472Y-0.8858
X3.0695Y-0.8961
X3.0902Y-2.9957
X3.1215Y-0.948
X3.1417Y-1.7677
X3.1457Y-0.7323
X3.1575Y-3.0
X3.1769Y-0.8919
X3.1772Y-1.7953
X3.1772Y-2.0118
X3.2126Y-2.5433
X3.2283Y-0.8976
X3.2362Y-0.9488
X3.237Y-2.439
X3.2382Y-1.7717
X3.2441Y-0.7323
X3.261Y-0.8894
X3.2862Y-0.8894
X3.29Y-2.5533
X3.2902Y-2.439
X3.311Y-0.7165
X3.3356Y-2.437
X3.3356Y-2.5591
X3.3583Y-1.0189
X3.3583Y-1.052
X3.365Y-2.4291
X3.3701Y-3.2598
X3.378Y-3.0669
X3.3898Y-2.3228
X3.3937Y-2.5433
X3.4142Y-2.3701
X3.4157Y-2.5693
X3.4213Y-2.6417
X3.4577Y-0.8681
X3.4577Y-0.9429
X3.4685Y-2.3543
X3.4724Y-2.5866
X3.4743Y-2.5185
X3.4744Y-2.422
X3.4882Y-3.3583
X3.4941Y-1.6043
X3.5354Y-1.4449
X3.5433Y-1.5551
X3.5472Y-0.8681
X3.5472Y-0.9429
X3.5512Y-3.3583
X3.5669Y-3.0551
X3.5827Y-0.9055
X3.5866Y-2.3543
X3.6102Y-2.1575
X3.6319Y-0.8661
X3.64Y-1.4272
X3.6417Y-0.9449
X3.6417Y-1.5906
X3.6433Y-1.5577
X3.6457Y-3.1063
X3.6811Y-3.2598
X3.685Y-3.0984
X3.6929Y-2.0866
X3.7087Y-3.1654
X3.7205Y-3.1063
X3.7224Y-3.3661
X3.7618Y-3.3661
X3.7756Y-2.1811
X3.7913Y-2.0866
X3.7951Y-1.5086
X3.811Y-3.0984
X3.8228Y-3.3071
X3.8287Y-0.7677
X3.8287Y-1.0138
X3.8543Y-2.9921
X3.8553Y-2.812
X3.8661Y-2.1929
X3.8878Y-1.6043
X3.8898Y-2.8622
X3.8898Y-3.0945
X3.9016Y-3.3031
X3.9075Y-1.4764
X3.9291Y-2.0659
X3.9291Y-2.9961
X3.9409Y-2.8126
X3.9469Y-1.437
X3.9559Y-1.4609
X3.9646Y-2.189
X3.9646Y-2.8829
X3.9685Y-3.0945
X3.9803Y-3.3031
X3.9961Y-2.811
X4.0079Y-2.9961
X4.0197Y-2.0659
X4.0248Y-1.4871
X4.0433Y-3.0945
X4.0551Y-2.185
X4.0591Y-2.8987
X4.0669Y-3.2913
X4.0787Y-2.811
X4.0866Y-1.5787
X4.0866Y-3.0
X4.0906Y-2.0659
X4.0945Y-1.7618
X4.126Y-3.0945
X4.1269Y-2.9144
X4.1496Y-3.2717
X4.1535Y-2.8106
X4.1648Y-2.1816
X4.1654Y-3.0
X4.1693Y-1.4921
X4.1969Y-2.9528
X4.2224Y-1.8307
X4.2244Y-2.0659
X4.252Y-2.5669
X4.2717Y-2.1555
X4.2815Y-2.126
X4.2913Y-0.7677
X4.2913Y-1.0138
X4.2913Y-3.2047
X4.2941Y-2.0894
X4.3425Y-2.9774
X4.3504Y-0.8268
X4.3504Y-0.9547
X4.3898Y-2.0079
X4.4094Y-3.2638
X4.439Y-0.8366
X4.4488Y-0.9449
X4.4606Y-3.0039
X4.4921Y-3.0
X4.5276Y-2.4803
X4.5276Y-3.0
X4.5565Y-2.372
X4.563Y-2.815
X4.5748Y-2.126
X4.5906Y-3.0472
X4.5958Y-2.4501
X4.6014Y-2.7411
X4.6024Y-2.815
X4.6024Y-3.3711
X4.6142Y-3.1732
X4.6257Y-2.4491
X4.6459Y-2.4231
X4.6496Y-2.7717
X4.6732Y-2.7008
X4.6732Y-3.0118
X4.6969Y-2.7756
X4.7047Y-2.4803
X4.7539Y-2.0866
X4.7559Y-2.7008
X4.7736Y-2.3533
X4.7913Y-2.7953
X4.813Y-3.0709
X4.8189Y-2.7244
X4.8228Y-2.5492
X4.8395Y-2.7505
X4.8425Y-3.0906
X4.8465Y-2.1575
X4.8612Y-3.1102
X4.8819Y-3.1299
X4.8848Y-2.6417
X4.8848Y-2.7362
X4.9026Y-3.1495
X4.9074Y-2.6063
X4.9114Y-2.4705
X4.9134Y-2.8976
X4.9242Y-3.0591
X4.9311Y-2.0669
X4.9311Y-3.3957
X4.9345Y-2.4595
X4.9409Y-3.2776
X4.9528Y-2.0394
X4.9528Y-3.0472
X4.9606Y-2.4311
X4.9685Y-2.2874
X4.9803Y-1.9921
X4.9803Y-2.4705
X4.9882Y-3.1339
X5.0098Y-2.7657
X5.0098Y-2.826
X5.0306Y-2.7264
X5.0315Y-3.252
X5.0492Y-2.2343
X5.0512Y-2.7835
X5.0512Y-3.0591
X5.0541Y-2.7364
X5.0595Y-2.8448
X5.0625Y-3.0006
X5.0709Y-2.9764
X5.0748Y-2.9065
X5.0886Y-1.8799
X5.0886Y-1.939
X5.1116Y-1.9265
X5.1142Y-3.0394
X5.1181Y-2.7953
X5.1383Y-2.7629
X5.1476Y-2.8937
X5.1575Y-2.3327
X5.1575Y-2.4606
X5.2087Y-2.8031
X5.2095Y-2.7476
X5.2264Y-2.3819
X5.2421Y-2.722
X5.2461Y-2.4409
X5.2461Y-2.5591
X5.2706Y-1.8504
X5.2717Y-2.8031
X5.2903Y-1.8898
X5.2953Y-2.4114
X5.2953Y-2.4705
X5.3051Y-2.2539
X5.3051Y-2.3031
X5.3198Y-1.939
T2
X4.3713Y-1.6402
X4.3713Y-1.719
X4.3713Y-1.7977
X4.45Y-1.6402
X4.45Y-1.719
X4.45Y-1.7977
X5.1689Y-1.5437
X5.1689Y-1.6437
T3
X2.6606Y-1.2937
X2.6606Y-1.8937
X2.7606Y-1.2937
X2.7606Y-1.8937
X2.8606Y-1.2937
X2.8606Y-1.8937
X2.9606Y-1.2937
X2.9606Y-1.8937
X3.0606Y-1.2937
X3.0606Y-1.8937
X3.1606Y-1.2937
X3.1606Y-1.3937
X3.1606Y-1.4937
X3.1606Y-1.5937
X3.2606Y-1.2937
X3.2606Y-1.8937
X3.3606Y-1.2937
X3.3606Y-1.8937
X3.4606Y-1.2937
X3.4606Y-1.8937
X3.5606Y-1.2937
X3.5606Y-1.8937
X3.6606Y-1.2937
X3.6606Y-1.8937
X3.7606Y-1.2937
X3.7606Y-1.8937
X3.8606Y-1.2937
X3.8606Y-1.8937
X3.9606Y-1.8937
X4.0606Y-1.8937
X4.1606Y-1.8937
X4.2606Y-1.8937
X4.3606Y-1.8937
X4.4606Y-1.8937
X4.5606Y-1.8937
X4.6606Y-1.8937
X4.7606Y-1.8937
X4.8606Y-1.7937
X4.8606Y-1.8937
X4.9606Y-1.2937
X4.9606Y-1.8937
T4
X2.1654Y-0.6693
X2.1654Y-3.3465
X5.1969Y-0.6693
X5.1969Y-3.3465
M30
