M48
; DRILL file {KiCad 9.0.4} date 2025-12-23T06:11:45-0500
; FORMAT={-:-/ absolute / metric / decimal}
; #@! TF.CreationDate,2025-12-23T06:11:45-05:00
; #@! TF.GenerationSoftware,Kicad,Pcbnew,9.0.4
; #@! TF.FileFunction,Plated,1,4,PTH
FMAT,2
METRIC
; #@! TA.AperFunction,Plated,PTH,ViaDrill
T1C0.300
; #@! TA.AperFunction,Plated,PTH,ViaDrill
T2C0.500
; #@! TA.AperFunction,Plated,PTH,ComponentDrill
T3C0.800
; #@! TA.AperFunction,Plated,PTH,ComponentDrill
T4C1.092
; #@! TA.AperFunction,Plated,PTH,ComponentDrill
T5C1.100
; #@! TA.AperFunction,Plated,PTH,ComponentDrill
T6C3.200
; #@! TA.AperFunction,Plated,PTH,ComponentDrill
T7C3.200
%
G90
G05
T1
X45.68Y-66.55
X45.68Y-67.6
X45.68Y-68.65
X45.68Y-69.75
X45.68Y-70.8
X45.68Y-71.85
X45.68Y-72.95
X45.68Y-74.0
X45.7Y-28.35
X46.78Y-66.55
X46.78Y-67.6
X46.78Y-68.65
X46.78Y-69.75
X46.78Y-70.8
X46.78Y-71.85
X46.78Y-72.95
X46.78Y-74.0
X46.78Y-78.25
X46.78Y-79.3
X47.03Y-76.15
X47.06Y-77.525
X47.93Y-66.55
X47.93Y-67.6
X47.93Y-68.65
X47.93Y-69.75
X47.93Y-70.8
X47.93Y-71.85
X47.93Y-72.95
X47.93Y-74.0
X47.93Y-76.15
X47.93Y-77.2
X47.93Y-78.25
X47.93Y-79.3
X48.8Y-25.3
X48.8Y-33.2
X48.98Y-66.55
X48.98Y-67.6
X48.98Y-68.65
X48.98Y-69.75
X48.98Y-70.8
X48.98Y-71.85
X48.98Y-72.95
X48.98Y-74.0
X48.98Y-76.15
X48.98Y-77.2
X48.98Y-78.25
X48.98Y-79.25
X49.2Y-45.35
X49.3Y-30.05
X49.83Y-76.194
X50.08Y-66.55
X50.08Y-67.6
X50.08Y-68.65
X50.08Y-69.75
X50.08Y-70.8
X50.08Y-71.85
X50.08Y-72.95
X50.08Y-77.2
X50.08Y-78.25
X50.13Y-79.25
X50.45Y-40.25
X50.9Y-26.9
X51.23Y-66.55
X51.23Y-67.6
X51.23Y-68.65
X51.23Y-69.75
X51.23Y-70.8
X51.23Y-71.85
X51.23Y-72.95
X51.23Y-76.15
X51.23Y-77.2
X51.23Y-78.25
X51.23Y-79.3
X52.2Y-79.38
X52.28Y-66.55
X52.28Y-67.6
X52.28Y-68.65
X52.28Y-69.75
X52.28Y-70.8
X52.28Y-71.85
X52.28Y-72.95
X52.87Y-76.2
X53.06Y-69.74
X53.08Y-71.84
X53.1Y-68.64
X53.12Y-67.46
X53.15Y-66.53
X53.3Y-79.38
X53.9Y-30.7
X53.962Y-38.05
X53.962Y-39.95
X54.45Y-79.43
X54.53Y-66.55
X54.93Y-68.0
X55.4Y-78.75
X55.63Y-66.55
X55.63Y-67.6
X55.63Y-68.65
X56.237Y-38.05
X56.237Y-39.0
X56.237Y-39.95
X56.33Y-69.92
X56.387Y-75.007
X56.64Y-68.64
X56.65Y-66.56
X56.669Y-67.62
X57.73Y-83.3
X57.73Y-84.35
X57.73Y-85.4
X57.85Y-68.65
X57.85Y-81.22
X57.85Y-82.18
X57.88Y-66.55
X57.88Y-67.6
X57.892Y-75.359
X57.905Y-70.125
X58.75Y-31.6
X58.88Y-85.35
X59.03Y-66.55
X59.03Y-67.6
X59.255Y-71.175
X59.28Y-38.36
X59.28Y-40.35
X59.33Y-73.8
X59.975Y-29.75
X60.03Y-85.35
X60.08Y-84.35
X60.1Y-53.8
X60.13Y-66.55
X60.13Y-67.6
X60.13Y-68.65
X60.58Y-76.4
X61.1Y-54.78
X61.1Y-84.38
X61.13Y-85.35
X61.28Y-66.55
X61.28Y-67.6
X61.28Y-68.65
X61.28Y-69.7
X61.568Y-24.385
X61.98Y-73.676
X62.28Y-85.35
X62.38Y-67.6
X62.38Y-68.65
X62.38Y-69.7
X62.38Y-70.8
X62.38Y-71.85
X62.65Y-54.796
X62.728Y-52.978
X62.85Y-79.0
X62.93Y-35.871
X62.93Y-42.221
X63.1Y-49.9
X63.43Y-83.25
X63.43Y-84.3
X63.43Y-85.35
X64.075Y-52.237
X64.075Y-53.187
X64.075Y-54.187
X64.075Y-55.137
X64.15Y-24.92
X64.15Y-25.88
X64.58Y-83.25
X64.58Y-84.3
X64.58Y-85.35
X64.925Y-51.83
X64.925Y-52.58
X64.925Y-54.73
X64.925Y-55.73
X64.94Y-53.721
X64.98Y-76.2
X65.191Y-76.815
X65.23Y-78.4
X65.257Y-77.619
X65.825Y-52.23
X65.825Y-53.18
X65.875Y-54.18
X65.875Y-55.23
X66.6Y-29.25
X67.5Y-50.6
X67.5Y-67.4
X67.55Y-64.45
X68.6Y-53.15
X68.705Y-56.62
X69.13Y-71.91
X69.86Y-56.02
X69.9Y-65.035
X70.0Y-65.91
X70.0Y-74.17
X70.0Y-76.5
X70.0Y-79.0
X71.7Y-35.871
X71.7Y-42.221
X71.95Y-54.8
X72.0Y-51.8
X72.0Y-53.4
X72.01Y-57.31
X72.65Y-51.0
X73.22Y-62.743
X73.7Y-65.4
X73.85Y-56.91
X73.87Y-62.65
X74.55Y-54.75
X75.2Y-36.971
X75.2Y-41.031
X75.2Y-62.5
X75.2Y-63.85
X75.2Y-65.1
X75.2Y-66.45
X76.7Y-36.991
X76.7Y-41.011
X77.25Y-55.55
X77.25Y-57.9
X82.35Y-60.239
X82.35Y-64.589
X82.7Y-54.339
X82.85Y-55.789
X83.35Y-59.239
X83.4Y-64.739
X84.25Y-60.239
X85.85Y-47.689
X86.15Y-62.839
X86.2Y-61.839
X87.4Y-61.839
X88.6Y-58.839
X88.65Y-62.089
X88.65Y-62.739
X89.75Y-61.389
X91.5Y-57.789
X91.975Y-72.314
X92.168Y-30.721
X92.5Y-75.259
X94.3Y-60.789
X96.55Y-60.539
X97.5Y-41.0
X97.75Y-22.96
X97.774Y-43.1
X98.35Y-64.1
X99.225Y-48.95
X99.85Y-49.65
X99.85Y-61.0
X100.0Y-66.0
X100.05Y-27.1
X100.4Y-41.7
X100.5Y-43.15
X100.55Y-50.1
X100.65Y-62.15
X100.65Y-68.5
X101.02Y-65.94
X101.145Y-40.055
X101.365Y-42.52
X102.415Y-35.105
X102.415Y-40.055
X102.55Y-65.35
X102.6Y-26.55
X102.725Y-61.395
X102.725Y-64.305
X102.812Y-51.395
X102.879Y-30.629
X103.6Y-52.55
X103.685Y-40.055
X103.885Y-32.52
X104.65Y-27.1
X104.825Y-42.52
X104.845Y-32.52
X104.874Y-51.95
X104.874Y-53.25
X104.874Y-53.9
X104.875Y-64.305
X104.925Y-61.415
X104.955Y-40.055
X105.25Y-47.26
X106.35Y-44.85
X106.8Y-39.54
X106.8Y-40.5
X106.812Y-52.365
X107.025Y-64.345
X107.075Y-61.495
X107.35Y-45.71
X107.99Y-35.8
X108.04Y-37.65
X108.05Y-51.6
X108.17Y-28.1
X108.24Y-31.7
X108.5Y-48.0
X108.543Y-44.175
X108.738Y-40.134
X108.812Y-55.885
X108.95Y-35.8
X109.0Y-64.42
X109.05Y-61.47
X109.34Y-48.85
X109.7Y-46.2
X109.9Y-71.1
X110.0Y-30.95
X110.352Y-50.375
X110.75Y-51.95
X110.75Y-53.25
X110.75Y-53.9
X110.75Y-54.55
X110.75Y-55.2
X110.75Y-55.85
X110.75Y-56.5
X110.75Y-57.15
X110.75Y-57.8
X110.925Y-38.8
X111.25Y-61.54
X111.25Y-64.5
X111.312Y-50.375
X111.85Y-27.14
X111.85Y-31.94
X112.15Y-30.35
X112.2Y-42.45
X112.23Y-35.2
X112.23Y-36.95
X112.425Y-38.05
X112.8Y-68.0
X112.95Y-71.05
X113.05Y-73.85
X113.212Y-36.446
X113.4Y-61.51
X113.4Y-64.45
X113.95Y-27.42
X113.95Y-31.95
X114.018Y-38.757
X114.65Y-35.75
X115.15Y-38.45
X115.55Y-45.5
X115.819Y-40.702
X115.85Y-41.675
X115.95Y-30.975
X115.95Y-32.925
X115.975Y-26.3
X115.975Y-28.25
X116.0Y-47.2
X116.521Y-59.947
X117.05Y-38.87
X117.05Y-39.83
X117.275Y-59.247
X117.729Y-42.579
X117.75Y-41.75
X117.8Y-40.5
X117.9Y-43.95
X118.5Y-37.75
X118.5Y-44.45
X119.125Y-48.0
X119.217Y-37.717
X119.3Y-42.5
X119.3Y-45.75
X119.45Y-60.55
X119.8Y-47.3
X120.05Y-43.45
X120.05Y-45.75
X120.3Y-50.03
X120.35Y-28.26
X120.35Y-32.925
X120.35Y-53.68
X121.15Y-37.27
X121.2Y-40.48
X121.2Y-43.82
X121.25Y-46.75
X122.15Y-34.07
X122.17Y-62.5
X122.2Y-37.31
X122.2Y-40.49
X122.25Y-43.79
X122.5Y-29.04
X123.13Y-62.5
X123.6Y-49.0
X124.05Y-56.5
X124.1Y-57.2
X124.15Y-47.343
X124.15Y-51.757
X124.2Y-57.9
X124.35Y-28.44
X124.6Y-49.0
X124.737Y-65.3
X126.8Y-47.15
X126.9Y-66.35
X127.8Y-47.15
T2
X59.25Y-27.845
X59.284Y-27.071
X63.33Y-27.1
X63.35Y-28.105
T3
X86.648Y-22.649
X89.1Y-34.889
X89.1Y-36.889
X89.188Y-22.649
X91.1Y-36.889
X93.1Y-34.889
X93.1Y-36.889
T4
X129.122Y-34.101
X129.122Y-36.387
X129.122Y-38.673
X129.122Y-40.959
X129.122Y-43.245
X129.122Y-45.531
X129.122Y-47.817
X129.122Y-50.103
X129.122Y-52.389
X129.122Y-54.675
X129.122Y-56.961
X129.122Y-59.247
X129.122Y-61.533
X129.122Y-63.819
X129.122Y-66.105
X131.662Y-35.244
X131.662Y-37.53
X131.662Y-39.816
X131.662Y-42.102
X131.662Y-44.388
X131.662Y-46.674
X131.662Y-48.96
X131.662Y-51.246
X131.662Y-53.532
X131.662Y-55.818
X131.662Y-58.104
X131.662Y-60.39
X131.662Y-62.676
X131.662Y-64.962
X131.662Y-67.248
X134.202Y-36.387
X134.202Y-38.673
X134.202Y-40.959
X134.202Y-43.245
X134.202Y-45.531
X134.202Y-47.817
X134.202Y-50.103
X134.202Y-52.389
X134.202Y-54.675
X134.202Y-56.961
X134.202Y-59.247
X134.202Y-61.533
X134.202Y-63.819
X134.202Y-66.105
T5
X80.298Y-21.919
X80.298Y-34.619
X80.298Y-39.699
X80.298Y-52.399
X80.298Y-54.939
X80.298Y-57.479
X80.298Y-65.099
X80.298Y-67.639
X80.298Y-75.259
X80.298Y-77.799
X82.838Y-67.639
X83.349Y-35.838
X83.349Y-38.378
X87.918Y-67.639
X95.538Y-21.919
X95.538Y-24.459
X95.538Y-26.999
X95.538Y-29.539
X95.538Y-32.079
X95.538Y-34.619
X95.538Y-37.159
X95.538Y-39.699
X95.538Y-42.239
X95.538Y-44.779
X95.538Y-47.319
X95.538Y-49.859
X95.538Y-52.399
X95.538Y-54.939
X95.538Y-57.479
X95.538Y-65.099
X95.538Y-70.179
X95.538Y-72.719
X95.538Y-75.259
X95.538Y-77.799
X95.538Y-80.339
T6
X51.0Y-18.8
X51.0Y-60.0
X132.0Y-18.8
X132.0Y-82.4
T7
X131.662Y-27.091
X131.662Y-74.131
M30
