G04 #@! TF.GenerationSoftware,KiCad,Pcbnew,9.0.4*
G04 #@! TF.CreationDate,2025-12-23T06:11:40-05:00*
G04 #@! TF.ProjectId,main_board_v2,6d61696e-5f62-46f6-9172-645f76322e6b,rev?*
G04 #@! TF.SameCoordinates,Original*
G04 #@! TF.FileFunction,Paste,Top*
G04 #@! TF.FilePolarity,Positive*
%FSLAX46Y46*%
G04 Gerber Fmt 4.6, Leading zero omitted, Abs format (unit mm)*
G04 Created by KiCad (PCBNEW 9.0.4) date 2025-12-23 06:11:40*
%MOMM*%
%LPD*%
G01*
G04 APERTURE LIST*
G04 Aperture macros list*
%AMRoundRect*
0 Rectangle with rounded corners*
0 $1 Rounding radius*
0 $2 $3 $4 $5 $6 $7 $8 $9 X,Y pos of 4 corners*
0 Add a 4 corners polygon primitive as box body*
4,1,4,$2,$3,$4,$5,$6,$7,$8,$9,$2,$3,0*
0 Add four circle primitives for the rounded corners*
1,1,$1+$1,$2,$3*
1,1,$1+$1,$4,$5*
1,1,$1+$1,$6,$7*
1,1,$1+$1,$8,$9*
0 Add four rect primitives between the rounded corners*
20,1,$1+$1,$2,$3,$4,$5,0*
20,1,$1+$1,$4,$5,$6,$7,0*
20,1,$1+$1,$6,$7,$8,$9,0*
20,1,$1+$1,$8,$9,$2,$3,0*%
G04 Aperture macros list end*
%ADD10RoundRect,0.135000X-0.185000X0.135000X-0.185000X-0.135000X0.185000X-0.135000X0.185000X0.135000X0*%
%ADD11R,1.425000X0.300000*%
%ADD12R,1.680000X1.880000*%
%ADD13RoundRect,0.140000X-0.140000X-0.170000X0.140000X-0.170000X0.140000X0.170000X-0.140000X0.170000X0*%
%ADD14R,1.100000X1.900000*%
%ADD15RoundRect,0.140000X-0.170000X0.140000X-0.170000X-0.140000X0.170000X-0.140000X0.170000X0.140000X0*%
%ADD16RoundRect,0.150000X-0.512500X-0.150000X0.512500X-0.150000X0.512500X0.150000X-0.512500X0.150000X0*%
%ADD17RoundRect,0.140000X0.170000X-0.140000X0.170000X0.140000X-0.170000X0.140000X-0.170000X-0.140000X0*%
%ADD18R,2.259800X1.874000*%
%ADD19R,1.910000X0.640000*%
%ADD20R,1.150000X0.600000*%
%ADD21RoundRect,0.135000X0.135000X0.185000X-0.135000X0.185000X-0.135000X-0.185000X0.135000X-0.185000X0*%
%ADD22RoundRect,0.147500X0.147500X0.172500X-0.147500X0.172500X-0.147500X-0.172500X0.147500X-0.172500X0*%
%ADD23RoundRect,0.140000X0.140000X0.170000X-0.140000X0.170000X-0.140000X-0.170000X0.140000X-0.170000X0*%
%ADD24RoundRect,0.135000X-0.135000X-0.185000X0.135000X-0.185000X0.135000X0.185000X-0.135000X0.185000X0*%
%ADD25R,1.600000X0.800000*%
%ADD26R,0.850000X0.200000*%
%ADD27R,0.200000X0.850000*%
%ADD28R,4.050000X4.050000*%
%ADD29RoundRect,0.250000X-0.312500X-0.625000X0.312500X-0.625000X0.312500X0.625000X-0.312500X0.625000X0*%
%ADD30RoundRect,0.135000X0.185000X-0.135000X0.185000X0.135000X-0.185000X0.135000X-0.185000X-0.135000X0*%
%ADD31RoundRect,0.218750X-0.117915X-0.315613X0.293200X-0.165979X0.117915X0.315613X-0.293200X0.165979X0*%
%ADD32R,1.400000X0.450000*%
%ADD33RoundRect,0.147500X-0.147500X-0.172500X0.147500X-0.172500X0.147500X0.172500X-0.147500X0.172500X0*%
%ADD34RoundRect,0.147500X0.172500X-0.147500X0.172500X0.147500X-0.172500X0.147500X-0.172500X-0.147500X0*%
%ADD35R,0.850000X0.750000*%
%ADD36R,2.500000X5.100000*%
%ADD37R,0.300000X0.850000*%
%ADD38R,0.850000X0.300000*%
%ADD39R,3.700000X1.200000*%
%ADD40R,1.500000X0.650000*%
%ADD41RoundRect,0.225000X-0.250000X0.225000X-0.250000X-0.225000X0.250000X-0.225000X0.250000X0.225000X0*%
%ADD42RoundRect,0.225000X0.311878X-0.125926X0.157969X0.296936X-0.311878X0.125926X-0.157969X-0.296936X0*%
%ADD43R,1.475000X0.450000*%
G04 APERTURE END LIST*
D10*
X124350000Y-39520000D03*
X124350000Y-40540000D03*
D11*
X62728000Y-52721000D03*
X62728000Y-53221000D03*
X62728000Y-53721000D03*
X62728000Y-54221000D03*
X62728000Y-54721000D03*
X67152000Y-54721000D03*
X67152000Y-54221000D03*
X67152000Y-53721000D03*
X67152000Y-53221000D03*
X67152000Y-52721000D03*
D12*
X64940000Y-53721000D03*
D13*
X111270000Y-36950000D03*
X112230000Y-36950000D03*
D14*
X61830000Y-82350000D03*
X59330000Y-82350000D03*
D15*
X69660000Y-53110000D03*
X69660000Y-54070000D03*
X54450000Y-78470000D03*
X54450000Y-79430000D03*
D16*
X122462500Y-64350000D03*
X122462500Y-66250000D03*
X124737500Y-65300000D03*
D17*
X102812000Y-52355000D03*
X102812000Y-51395000D03*
D18*
X124150000Y-51757000D03*
X124150000Y-47343000D03*
D15*
X97750000Y-22000000D03*
X97750000Y-22960000D03*
D19*
X71700000Y-43491207D03*
X71700000Y-42221207D03*
X71700000Y-40951207D03*
X71700000Y-39681207D03*
X71700000Y-38411207D03*
X71700000Y-37141207D03*
X71700000Y-35871207D03*
X71700000Y-34601207D03*
X62930000Y-34601207D03*
X62930000Y-35871207D03*
X62930000Y-37141207D03*
X62930000Y-38411207D03*
X62930000Y-39681207D03*
X62930000Y-40951207D03*
X62930000Y-42221207D03*
X62930000Y-43491207D03*
D20*
X100100000Y-26050000D03*
X100100000Y-27000000D03*
X100100000Y-27950000D03*
X102600000Y-27950000D03*
X102600000Y-27000000D03*
X102600000Y-26050000D03*
D21*
X109260000Y-31700000D03*
X108240000Y-31700000D03*
D15*
X107350000Y-44750000D03*
X107350000Y-45710000D03*
D13*
X59100000Y-84350000D03*
X60060000Y-84350000D03*
D22*
X47060000Y-77525000D03*
X46090000Y-77525000D03*
D23*
X109000000Y-37650000D03*
X108040000Y-37650000D03*
D24*
X108170000Y-28100000D03*
X109190000Y-28100000D03*
D15*
X122200000Y-39530000D03*
X122200000Y-40490000D03*
D25*
X46100000Y-82200000D03*
X46100000Y-85600000D03*
D26*
X57130000Y-73800000D03*
X57130000Y-74200000D03*
X57130000Y-74600000D03*
X57130000Y-75000000D03*
X57130000Y-75400000D03*
X57130000Y-75800000D03*
X57130000Y-76200000D03*
X57130000Y-76600000D03*
X57130000Y-77000000D03*
X57130000Y-77400000D03*
X57130000Y-77800000D03*
X57130000Y-78200000D03*
X57130000Y-78600000D03*
X57130000Y-79000000D03*
D27*
X57980000Y-79850000D03*
X58380000Y-79850000D03*
X58780000Y-79850000D03*
X59180000Y-79850000D03*
X59580000Y-79850000D03*
X59980000Y-79850000D03*
X60380000Y-79850000D03*
X60780000Y-79850000D03*
X61180000Y-79850000D03*
X61580000Y-79850000D03*
X61980000Y-79850000D03*
X62380000Y-79850000D03*
X62780000Y-79850000D03*
X63180000Y-79850000D03*
D26*
X64030000Y-79000000D03*
X64030000Y-78600000D03*
X64030000Y-78200000D03*
X64030000Y-77800000D03*
X64030000Y-77400000D03*
X64030000Y-77000000D03*
X64030000Y-76600000D03*
X64030000Y-76200000D03*
X64030000Y-75800000D03*
X64030000Y-75400000D03*
X64030000Y-75000000D03*
X64030000Y-74600000D03*
X64030000Y-74200000D03*
X64030000Y-73800000D03*
D27*
X63180000Y-72950000D03*
X62780000Y-72950000D03*
X62380000Y-72950000D03*
X61980000Y-72950000D03*
X61580000Y-72950000D03*
X61180000Y-72950000D03*
X60780000Y-72950000D03*
X60380000Y-72950000D03*
X59980000Y-72950000D03*
X59580000Y-72950000D03*
X59180000Y-72950000D03*
X58780000Y-72950000D03*
X58380000Y-72950000D03*
X57980000Y-72950000D03*
D28*
X60580000Y-76400000D03*
D29*
X101587500Y-37580000D03*
X104512500Y-37580000D03*
D17*
X56330000Y-70880000D03*
X56330000Y-69920000D03*
D15*
X122200000Y-36350000D03*
X122200000Y-37310000D03*
X61100000Y-53820000D03*
X61100000Y-54780000D03*
D23*
X62060000Y-84350000D03*
X61100000Y-84350000D03*
D30*
X61280000Y-70760000D03*
X61280000Y-69740000D03*
D31*
X51589992Y-74688682D03*
X53070008Y-74150000D03*
D13*
X110352000Y-50375000D03*
X111312000Y-50375000D03*
D23*
X54380000Y-67450000D03*
X53420000Y-67450000D03*
D32*
X120375000Y-28250000D03*
X120375000Y-27600000D03*
X120375000Y-26950000D03*
X120375000Y-26300000D03*
X115975000Y-26300000D03*
X115975000Y-26950000D03*
X115975000Y-27600000D03*
X115975000Y-28250000D03*
D33*
X52865000Y-77400000D03*
X53835000Y-77400000D03*
D34*
X46075000Y-79760000D03*
X46075000Y-78790000D03*
D15*
X122250000Y-42830000D03*
X122250000Y-43790000D03*
D13*
X111270000Y-35200000D03*
X112230000Y-35200000D03*
D10*
X124350000Y-36270000D03*
X124350000Y-37290000D03*
D17*
X104650000Y-27030000D03*
X104650000Y-26070000D03*
D23*
X54380000Y-68650000D03*
X53420000Y-68650000D03*
D17*
X113950000Y-32910000D03*
X113950000Y-31950000D03*
D10*
X105250000Y-46240000D03*
X105250000Y-47260000D03*
D15*
X57850000Y-81220000D03*
X57850000Y-82180000D03*
D35*
X57905000Y-71175000D03*
X59255000Y-71175000D03*
X59255000Y-70125000D03*
X57905000Y-70125000D03*
D24*
X67515000Y-50630000D03*
X68535000Y-50630000D03*
D23*
X110300000Y-48850000D03*
X109340000Y-48850000D03*
D13*
X68800000Y-56600000D03*
X69760000Y-56600000D03*
D15*
X67500000Y-64420000D03*
X67500000Y-65380000D03*
D30*
X122900000Y-32520000D03*
X122900000Y-31500000D03*
D36*
X105450000Y-73100000D03*
X120650000Y-73100000D03*
D21*
X123950000Y-79150000D03*
X122930000Y-79150000D03*
X123900000Y-82550000D03*
X122880000Y-82550000D03*
D30*
X122950000Y-27760000D03*
X122950000Y-26740000D03*
D15*
X53300000Y-78420000D03*
X53300000Y-79380000D03*
D23*
X54380000Y-69750000D03*
X53420000Y-69750000D03*
D15*
X52200000Y-78420000D03*
X52200000Y-79380000D03*
D23*
X110330000Y-47300000D03*
X109370000Y-47300000D03*
D17*
X46100000Y-76280000D03*
X46100000Y-75320000D03*
D15*
X117050000Y-38870000D03*
X117050000Y-39830000D03*
D37*
X114450000Y-39500000D03*
X113950000Y-39500000D03*
X113450000Y-39500000D03*
X112950000Y-39500000D03*
X112450000Y-39500000D03*
X111950000Y-39500000D03*
X111450000Y-39500000D03*
X110950000Y-39500000D03*
X110450000Y-39500000D03*
X109950000Y-39500000D03*
D38*
X109250000Y-40200000D03*
X109250000Y-40700000D03*
X109250000Y-41200000D03*
X109250000Y-41700000D03*
X109250000Y-42200000D03*
X109250000Y-42700000D03*
X109250000Y-43200000D03*
X109250000Y-43700000D03*
X109250000Y-44200000D03*
X109250000Y-44700000D03*
D37*
X109950000Y-45400000D03*
X110450000Y-45400000D03*
X110950000Y-45400000D03*
X111450000Y-45400000D03*
X111950000Y-45400000D03*
X112450000Y-45400000D03*
X112950000Y-45400000D03*
X113450000Y-45400000D03*
X113950000Y-45400000D03*
X114450000Y-45400000D03*
D38*
X115150000Y-44700000D03*
X115150000Y-44200000D03*
X115150000Y-43700000D03*
X115150000Y-43200000D03*
X115150000Y-42700000D03*
X115150000Y-42200000D03*
X115150000Y-41700000D03*
X115150000Y-41200000D03*
X115150000Y-40700000D03*
X115150000Y-40200000D03*
D28*
X112200000Y-42450000D03*
D17*
X113950000Y-28380000D03*
X113950000Y-27420000D03*
D23*
X123130000Y-62500000D03*
X122170000Y-62500000D03*
D21*
X101900000Y-30100000D03*
X100880000Y-30100000D03*
D10*
X124450000Y-42780000D03*
X124450000Y-43800000D03*
D39*
X74650000Y-53070000D03*
X74650000Y-55870000D03*
D40*
X69800000Y-62495000D03*
X69800000Y-63765000D03*
X69800000Y-65035000D03*
X69800000Y-66305000D03*
X75200000Y-66305000D03*
X75200000Y-65035000D03*
X75200000Y-63765000D03*
X75200000Y-62495000D03*
D32*
X120350000Y-32925000D03*
X120350000Y-32275000D03*
X120350000Y-31625000D03*
X120350000Y-30975000D03*
X115950000Y-30975000D03*
X115950000Y-31625000D03*
X115950000Y-32275000D03*
X115950000Y-32925000D03*
D23*
X58810000Y-68650000D03*
X57850000Y-68650000D03*
D41*
X49830000Y-74644341D03*
X49830000Y-76194341D03*
D23*
X108950000Y-35800000D03*
X107990000Y-35800000D03*
X53830000Y-76200000D03*
X52870000Y-76200000D03*
D42*
X54732566Y-73726433D03*
X54202434Y-72269909D03*
D43*
X104874000Y-51950000D03*
X104874000Y-52600000D03*
X104874000Y-53250000D03*
X104874000Y-53900000D03*
X104874000Y-54550000D03*
X104874000Y-55200000D03*
X104874000Y-55850000D03*
X104874000Y-56500000D03*
X104874000Y-57150000D03*
X104874000Y-57800000D03*
X110750000Y-57800000D03*
X110750000Y-57150000D03*
X110750000Y-56500000D03*
X110750000Y-55850000D03*
X110750000Y-55200000D03*
X110750000Y-54550000D03*
X110750000Y-53900000D03*
X110750000Y-53250000D03*
X110750000Y-52600000D03*
X110750000Y-51950000D03*
M02*
