G04 #@! TF.GenerationSoftware,KiCad,Pcbnew,9.0.5*
G04 #@! TF.CreationDate,2025-10-27T21:44:09-04:00*
G04 #@! TF.ProjectId,main_board_peripheral_v1,6d61696e-5f62-46f6-9172-645f70657269,rev?*
G04 #@! TF.SameCoordinates,Original*
G04 #@! TF.FileFunction,Legend,Top*
G04 #@! TF.FilePolarity,Positive*
%FSLAX46Y46*%
G04 Gerber Fmt 4.6, Leading zero omitted, Abs format (unit mm)*
G04 Created by KiCad (PCBNEW 9.0.5) date 2025-10-27 21:44:09*
%MOMM*%
%LPD*%
G01*
G04 APERTURE LIST*
%ADD10C,0.150000*%
%ADD11C,0.254000*%
%ADD12C,0.152400*%
%ADD13C,0.508000*%
%ADD14C,0.200000*%
%ADD15C,0.100000*%
%ADD16C,0.400000*%
%ADD17C,1.397000*%
%ADD18R,1.300000X1.300000*%
%ADD19C,1.300000*%
%ADD20C,1.381000*%
%ADD21R,1.600000X1.000000*%
G04 APERTURE END LIST*
D10*
X110058207Y-75369819D02*
X109724874Y-74893628D01*
X109486779Y-75369819D02*
X109486779Y-74369819D01*
X109486779Y-74369819D02*
X109867731Y-74369819D01*
X109867731Y-74369819D02*
X109962969Y-74417438D01*
X109962969Y-74417438D02*
X110010588Y-74465057D01*
X110010588Y-74465057D02*
X110058207Y-74560295D01*
X110058207Y-74560295D02*
X110058207Y-74703152D01*
X110058207Y-74703152D02*
X110010588Y-74798390D01*
X110010588Y-74798390D02*
X109962969Y-74846009D01*
X109962969Y-74846009D02*
X109867731Y-74893628D01*
X109867731Y-74893628D02*
X109486779Y-74893628D01*
X110391541Y-74369819D02*
X111058207Y-75369819D01*
X111058207Y-74369819D02*
X110391541Y-75369819D01*
X111201065Y-75465057D02*
X111962969Y-75465057D01*
X112201065Y-75369819D02*
X112201065Y-74369819D01*
X112201065Y-74369819D02*
X112582017Y-74369819D01*
X112582017Y-74369819D02*
X112677255Y-74417438D01*
X112677255Y-74417438D02*
X112724874Y-74465057D01*
X112724874Y-74465057D02*
X112772493Y-74560295D01*
X112772493Y-74560295D02*
X112772493Y-74703152D01*
X112772493Y-74703152D02*
X112724874Y-74798390D01*
X112724874Y-74798390D02*
X112677255Y-74846009D01*
X112677255Y-74846009D02*
X112582017Y-74893628D01*
X112582017Y-74893628D02*
X112201065Y-74893628D01*
X149661779Y-74369819D02*
X149661779Y-75179342D01*
X149661779Y-75179342D02*
X149709398Y-75274580D01*
X149709398Y-75274580D02*
X149757017Y-75322200D01*
X149757017Y-75322200D02*
X149852255Y-75369819D01*
X149852255Y-75369819D02*
X150042731Y-75369819D01*
X150042731Y-75369819D02*
X150137969Y-75322200D01*
X150137969Y-75322200D02*
X150185588Y-75274580D01*
X150185588Y-75274580D02*
X150233207Y-75179342D01*
X150233207Y-75179342D02*
X150233207Y-74369819D01*
X150661779Y-75322200D02*
X150804636Y-75369819D01*
X150804636Y-75369819D02*
X151042731Y-75369819D01*
X151042731Y-75369819D02*
X151137969Y-75322200D01*
X151137969Y-75322200D02*
X151185588Y-75274580D01*
X151185588Y-75274580D02*
X151233207Y-75179342D01*
X151233207Y-75179342D02*
X151233207Y-75084104D01*
X151233207Y-75084104D02*
X151185588Y-74988866D01*
X151185588Y-74988866D02*
X151137969Y-74941247D01*
X151137969Y-74941247D02*
X151042731Y-74893628D01*
X151042731Y-74893628D02*
X150852255Y-74846009D01*
X150852255Y-74846009D02*
X150757017Y-74798390D01*
X150757017Y-74798390D02*
X150709398Y-74750771D01*
X150709398Y-74750771D02*
X150661779Y-74655533D01*
X150661779Y-74655533D02*
X150661779Y-74560295D01*
X150661779Y-74560295D02*
X150709398Y-74465057D01*
X150709398Y-74465057D02*
X150757017Y-74417438D01*
X150757017Y-74417438D02*
X150852255Y-74369819D01*
X150852255Y-74369819D02*
X151090350Y-74369819D01*
X151090350Y-74369819D02*
X151233207Y-74417438D01*
X151995112Y-74846009D02*
X152137969Y-74893628D01*
X152137969Y-74893628D02*
X152185588Y-74941247D01*
X152185588Y-74941247D02*
X152233207Y-75036485D01*
X152233207Y-75036485D02*
X152233207Y-75179342D01*
X152233207Y-75179342D02*
X152185588Y-75274580D01*
X152185588Y-75274580D02*
X152137969Y-75322200D01*
X152137969Y-75322200D02*
X152042731Y-75369819D01*
X152042731Y-75369819D02*
X151661779Y-75369819D01*
X151661779Y-75369819D02*
X151661779Y-74369819D01*
X151661779Y-74369819D02*
X151995112Y-74369819D01*
X151995112Y-74369819D02*
X152090350Y-74417438D01*
X152090350Y-74417438D02*
X152137969Y-74465057D01*
X152137969Y-74465057D02*
X152185588Y-74560295D01*
X152185588Y-74560295D02*
X152185588Y-74655533D01*
X152185588Y-74655533D02*
X152137969Y-74750771D01*
X152137969Y-74750771D02*
X152090350Y-74798390D01*
X152090350Y-74798390D02*
X151995112Y-74846009D01*
X151995112Y-74846009D02*
X151661779Y-74846009D01*
X152423684Y-75465057D02*
X153185588Y-75465057D01*
X153899874Y-74369819D02*
X153423684Y-74369819D01*
X153423684Y-74369819D02*
X153376065Y-74846009D01*
X153376065Y-74846009D02*
X153423684Y-74798390D01*
X153423684Y-74798390D02*
X153518922Y-74750771D01*
X153518922Y-74750771D02*
X153757017Y-74750771D01*
X153757017Y-74750771D02*
X153852255Y-74798390D01*
X153852255Y-74798390D02*
X153899874Y-74846009D01*
X153899874Y-74846009D02*
X153947493Y-74941247D01*
X153947493Y-74941247D02*
X153947493Y-75179342D01*
X153947493Y-75179342D02*
X153899874Y-75274580D01*
X153899874Y-75274580D02*
X153852255Y-75322200D01*
X153852255Y-75322200D02*
X153757017Y-75369819D01*
X153757017Y-75369819D02*
X153518922Y-75369819D01*
X153518922Y-75369819D02*
X153423684Y-75322200D01*
X153423684Y-75322200D02*
X153376065Y-75274580D01*
X154233208Y-74369819D02*
X154566541Y-75369819D01*
X154566541Y-75369819D02*
X154899874Y-74369819D01*
X114593922Y-73094819D02*
X115165350Y-73094819D01*
X114879636Y-74094819D02*
X114879636Y-73094819D01*
X115403446Y-73094819D02*
X116070112Y-74094819D01*
X116070112Y-73094819D02*
X115403446Y-74094819D01*
X116212970Y-74190057D02*
X116974874Y-74190057D01*
X117212970Y-74094819D02*
X117212970Y-73094819D01*
X117212970Y-73094819D02*
X117784398Y-74094819D01*
X117784398Y-74094819D02*
X117784398Y-73094819D01*
X123189160Y-59230113D02*
X123236779Y-59182494D01*
X123236779Y-59182494D02*
X123332017Y-59134875D01*
X123332017Y-59134875D02*
X123570112Y-59134875D01*
X123570112Y-59134875D02*
X123665350Y-59182494D01*
X123665350Y-59182494D02*
X123712969Y-59230113D01*
X123712969Y-59230113D02*
X123760588Y-59325351D01*
X123760588Y-59325351D02*
X123760588Y-59420589D01*
X123760588Y-59420589D02*
X123712969Y-59563446D01*
X123712969Y-59563446D02*
X123141541Y-60134875D01*
X123141541Y-60134875D02*
X123760588Y-60134875D01*
X124141541Y-59230113D02*
X124189160Y-59182494D01*
X124189160Y-59182494D02*
X124284398Y-59134875D01*
X124284398Y-59134875D02*
X124522493Y-59134875D01*
X124522493Y-59134875D02*
X124617731Y-59182494D01*
X124617731Y-59182494D02*
X124665350Y-59230113D01*
X124665350Y-59230113D02*
X124712969Y-59325351D01*
X124712969Y-59325351D02*
X124712969Y-59420589D01*
X124712969Y-59420589D02*
X124665350Y-59563446D01*
X124665350Y-59563446D02*
X124093922Y-60134875D01*
X124093922Y-60134875D02*
X124712969Y-60134875D01*
X125046303Y-60134875D02*
X125570112Y-59468208D01*
X125046303Y-59468208D02*
X125570112Y-60134875D01*
X125808208Y-59468208D02*
X126189160Y-59468208D01*
X125951065Y-59134875D02*
X125951065Y-59992017D01*
X125951065Y-59992017D02*
X125998684Y-60087256D01*
X125998684Y-60087256D02*
X126093922Y-60134875D01*
X126093922Y-60134875D02*
X126189160Y-60134875D01*
X127284399Y-60134875D02*
X127284399Y-59134875D01*
X127284399Y-59134875D02*
X127617732Y-59849160D01*
X127617732Y-59849160D02*
X127951065Y-59134875D01*
X127951065Y-59134875D02*
X127951065Y-60134875D01*
X128855827Y-60134875D02*
X128855827Y-59611065D01*
X128855827Y-59611065D02*
X128808208Y-59515827D01*
X128808208Y-59515827D02*
X128712970Y-59468208D01*
X128712970Y-59468208D02*
X128522494Y-59468208D01*
X128522494Y-59468208D02*
X128427256Y-59515827D01*
X128855827Y-60087256D02*
X128760589Y-60134875D01*
X128760589Y-60134875D02*
X128522494Y-60134875D01*
X128522494Y-60134875D02*
X128427256Y-60087256D01*
X128427256Y-60087256D02*
X128379637Y-59992017D01*
X128379637Y-59992017D02*
X128379637Y-59896779D01*
X128379637Y-59896779D02*
X128427256Y-59801541D01*
X128427256Y-59801541D02*
X128522494Y-59753922D01*
X128522494Y-59753922D02*
X128760589Y-59753922D01*
X128760589Y-59753922D02*
X128855827Y-59706303D01*
X129332018Y-60134875D02*
X129332018Y-59468208D01*
X129332018Y-59134875D02*
X129284399Y-59182494D01*
X129284399Y-59182494D02*
X129332018Y-59230113D01*
X129332018Y-59230113D02*
X129379637Y-59182494D01*
X129379637Y-59182494D02*
X129332018Y-59134875D01*
X129332018Y-59134875D02*
X129332018Y-59230113D01*
X129808208Y-59468208D02*
X129808208Y-60134875D01*
X129808208Y-59563446D02*
X129855827Y-59515827D01*
X129855827Y-59515827D02*
X129951065Y-59468208D01*
X129951065Y-59468208D02*
X130093922Y-59468208D01*
X130093922Y-59468208D02*
X130189160Y-59515827D01*
X130189160Y-59515827D02*
X130236779Y-59611065D01*
X130236779Y-59611065D02*
X130236779Y-60134875D01*
X131474875Y-60134875D02*
X131474875Y-59134875D01*
X131474875Y-59134875D02*
X131855827Y-59134875D01*
X131855827Y-59134875D02*
X131951065Y-59182494D01*
X131951065Y-59182494D02*
X131998684Y-59230113D01*
X131998684Y-59230113D02*
X132046303Y-59325351D01*
X132046303Y-59325351D02*
X132046303Y-59468208D01*
X132046303Y-59468208D02*
X131998684Y-59563446D01*
X131998684Y-59563446D02*
X131951065Y-59611065D01*
X131951065Y-59611065D02*
X131855827Y-59658684D01*
X131855827Y-59658684D02*
X131474875Y-59658684D01*
X132855827Y-60087256D02*
X132760589Y-60134875D01*
X132760589Y-60134875D02*
X132570113Y-60134875D01*
X132570113Y-60134875D02*
X132474875Y-60087256D01*
X132474875Y-60087256D02*
X132427256Y-59992017D01*
X132427256Y-59992017D02*
X132427256Y-59611065D01*
X132427256Y-59611065D02*
X132474875Y-59515827D01*
X132474875Y-59515827D02*
X132570113Y-59468208D01*
X132570113Y-59468208D02*
X132760589Y-59468208D01*
X132760589Y-59468208D02*
X132855827Y-59515827D01*
X132855827Y-59515827D02*
X132903446Y-59611065D01*
X132903446Y-59611065D02*
X132903446Y-59706303D01*
X132903446Y-59706303D02*
X132427256Y-59801541D01*
X133332018Y-60134875D02*
X133332018Y-59468208D01*
X133332018Y-59658684D02*
X133379637Y-59563446D01*
X133379637Y-59563446D02*
X133427256Y-59515827D01*
X133427256Y-59515827D02*
X133522494Y-59468208D01*
X133522494Y-59468208D02*
X133617732Y-59468208D01*
X133951066Y-60134875D02*
X133951066Y-59468208D01*
X133951066Y-59134875D02*
X133903447Y-59182494D01*
X133903447Y-59182494D02*
X133951066Y-59230113D01*
X133951066Y-59230113D02*
X133998685Y-59182494D01*
X133998685Y-59182494D02*
X133951066Y-59134875D01*
X133951066Y-59134875D02*
X133951066Y-59230113D01*
X134427256Y-59468208D02*
X134427256Y-60468208D01*
X134427256Y-59515827D02*
X134522494Y-59468208D01*
X134522494Y-59468208D02*
X134712970Y-59468208D01*
X134712970Y-59468208D02*
X134808208Y-59515827D01*
X134808208Y-59515827D02*
X134855827Y-59563446D01*
X134855827Y-59563446D02*
X134903446Y-59658684D01*
X134903446Y-59658684D02*
X134903446Y-59944398D01*
X134903446Y-59944398D02*
X134855827Y-60039636D01*
X134855827Y-60039636D02*
X134808208Y-60087256D01*
X134808208Y-60087256D02*
X134712970Y-60134875D01*
X134712970Y-60134875D02*
X134522494Y-60134875D01*
X134522494Y-60134875D02*
X134427256Y-60087256D01*
X135332018Y-60134875D02*
X135332018Y-59134875D01*
X135760589Y-60134875D02*
X135760589Y-59611065D01*
X135760589Y-59611065D02*
X135712970Y-59515827D01*
X135712970Y-59515827D02*
X135617732Y-59468208D01*
X135617732Y-59468208D02*
X135474875Y-59468208D01*
X135474875Y-59468208D02*
X135379637Y-59515827D01*
X135379637Y-59515827D02*
X135332018Y-59563446D01*
X136617732Y-60087256D02*
X136522494Y-60134875D01*
X136522494Y-60134875D02*
X136332018Y-60134875D01*
X136332018Y-60134875D02*
X136236780Y-60087256D01*
X136236780Y-60087256D02*
X136189161Y-59992017D01*
X136189161Y-59992017D02*
X136189161Y-59611065D01*
X136189161Y-59611065D02*
X136236780Y-59515827D01*
X136236780Y-59515827D02*
X136332018Y-59468208D01*
X136332018Y-59468208D02*
X136522494Y-59468208D01*
X136522494Y-59468208D02*
X136617732Y-59515827D01*
X136617732Y-59515827D02*
X136665351Y-59611065D01*
X136665351Y-59611065D02*
X136665351Y-59706303D01*
X136665351Y-59706303D02*
X136189161Y-59801541D01*
X137093923Y-60134875D02*
X137093923Y-59468208D01*
X137093923Y-59658684D02*
X137141542Y-59563446D01*
X137141542Y-59563446D02*
X137189161Y-59515827D01*
X137189161Y-59515827D02*
X137284399Y-59468208D01*
X137284399Y-59468208D02*
X137379637Y-59468208D01*
X138141542Y-60134875D02*
X138141542Y-59611065D01*
X138141542Y-59611065D02*
X138093923Y-59515827D01*
X138093923Y-59515827D02*
X137998685Y-59468208D01*
X137998685Y-59468208D02*
X137808209Y-59468208D01*
X137808209Y-59468208D02*
X137712971Y-59515827D01*
X138141542Y-60087256D02*
X138046304Y-60134875D01*
X138046304Y-60134875D02*
X137808209Y-60134875D01*
X137808209Y-60134875D02*
X137712971Y-60087256D01*
X137712971Y-60087256D02*
X137665352Y-59992017D01*
X137665352Y-59992017D02*
X137665352Y-59896779D01*
X137665352Y-59896779D02*
X137712971Y-59801541D01*
X137712971Y-59801541D02*
X137808209Y-59753922D01*
X137808209Y-59753922D02*
X138046304Y-59753922D01*
X138046304Y-59753922D02*
X138141542Y-59706303D01*
X138760590Y-60134875D02*
X138665352Y-60087256D01*
X138665352Y-60087256D02*
X138617733Y-59992017D01*
X138617733Y-59992017D02*
X138617733Y-59134875D01*
X123189160Y-61697200D02*
X123332017Y-61744819D01*
X123332017Y-61744819D02*
X123570112Y-61744819D01*
X123570112Y-61744819D02*
X123665350Y-61697200D01*
X123665350Y-61697200D02*
X123712969Y-61649580D01*
X123712969Y-61649580D02*
X123760588Y-61554342D01*
X123760588Y-61554342D02*
X123760588Y-61459104D01*
X123760588Y-61459104D02*
X123712969Y-61363866D01*
X123712969Y-61363866D02*
X123665350Y-61316247D01*
X123665350Y-61316247D02*
X123570112Y-61268628D01*
X123570112Y-61268628D02*
X123379636Y-61221009D01*
X123379636Y-61221009D02*
X123284398Y-61173390D01*
X123284398Y-61173390D02*
X123236779Y-61125771D01*
X123236779Y-61125771D02*
X123189160Y-61030533D01*
X123189160Y-61030533D02*
X123189160Y-60935295D01*
X123189160Y-60935295D02*
X123236779Y-60840057D01*
X123236779Y-60840057D02*
X123284398Y-60792438D01*
X123284398Y-60792438D02*
X123379636Y-60744819D01*
X123379636Y-60744819D02*
X123617731Y-60744819D01*
X123617731Y-60744819D02*
X123760588Y-60792438D01*
X124046303Y-61078152D02*
X124427255Y-61078152D01*
X124189160Y-60744819D02*
X124189160Y-61601961D01*
X124189160Y-61601961D02*
X124236779Y-61697200D01*
X124236779Y-61697200D02*
X124332017Y-61744819D01*
X124332017Y-61744819D02*
X124427255Y-61744819D01*
X125141541Y-61697200D02*
X125046303Y-61744819D01*
X125046303Y-61744819D02*
X124855827Y-61744819D01*
X124855827Y-61744819D02*
X124760589Y-61697200D01*
X124760589Y-61697200D02*
X124712970Y-61601961D01*
X124712970Y-61601961D02*
X124712970Y-61221009D01*
X124712970Y-61221009D02*
X124760589Y-61125771D01*
X124760589Y-61125771D02*
X124855827Y-61078152D01*
X124855827Y-61078152D02*
X125046303Y-61078152D01*
X125046303Y-61078152D02*
X125141541Y-61125771D01*
X125141541Y-61125771D02*
X125189160Y-61221009D01*
X125189160Y-61221009D02*
X125189160Y-61316247D01*
X125189160Y-61316247D02*
X124712970Y-61411485D01*
X125617732Y-61078152D02*
X125617732Y-62078152D01*
X125617732Y-61125771D02*
X125712970Y-61078152D01*
X125712970Y-61078152D02*
X125903446Y-61078152D01*
X125903446Y-61078152D02*
X125998684Y-61125771D01*
X125998684Y-61125771D02*
X126046303Y-61173390D01*
X126046303Y-61173390D02*
X126093922Y-61268628D01*
X126093922Y-61268628D02*
X126093922Y-61554342D01*
X126093922Y-61554342D02*
X126046303Y-61649580D01*
X126046303Y-61649580D02*
X125998684Y-61697200D01*
X125998684Y-61697200D02*
X125903446Y-61744819D01*
X125903446Y-61744819D02*
X125712970Y-61744819D01*
X125712970Y-61744819D02*
X125617732Y-61697200D01*
X126522494Y-61744819D02*
X126522494Y-60744819D01*
X126951065Y-61744819D02*
X126951065Y-61221009D01*
X126951065Y-61221009D02*
X126903446Y-61125771D01*
X126903446Y-61125771D02*
X126808208Y-61078152D01*
X126808208Y-61078152D02*
X126665351Y-61078152D01*
X126665351Y-61078152D02*
X126570113Y-61125771D01*
X126570113Y-61125771D02*
X126522494Y-61173390D01*
X127808208Y-61697200D02*
X127712970Y-61744819D01*
X127712970Y-61744819D02*
X127522494Y-61744819D01*
X127522494Y-61744819D02*
X127427256Y-61697200D01*
X127427256Y-61697200D02*
X127379637Y-61601961D01*
X127379637Y-61601961D02*
X127379637Y-61221009D01*
X127379637Y-61221009D02*
X127427256Y-61125771D01*
X127427256Y-61125771D02*
X127522494Y-61078152D01*
X127522494Y-61078152D02*
X127712970Y-61078152D01*
X127712970Y-61078152D02*
X127808208Y-61125771D01*
X127808208Y-61125771D02*
X127855827Y-61221009D01*
X127855827Y-61221009D02*
X127855827Y-61316247D01*
X127855827Y-61316247D02*
X127379637Y-61411485D01*
X128284399Y-61078152D02*
X128284399Y-61744819D01*
X128284399Y-61173390D02*
X128332018Y-61125771D01*
X128332018Y-61125771D02*
X128427256Y-61078152D01*
X128427256Y-61078152D02*
X128570113Y-61078152D01*
X128570113Y-61078152D02*
X128665351Y-61125771D01*
X128665351Y-61125771D02*
X128712970Y-61221009D01*
X128712970Y-61221009D02*
X128712970Y-61744819D01*
X129855828Y-60744819D02*
X130522494Y-60744819D01*
X130522494Y-60744819D02*
X129855828Y-61744819D01*
X129855828Y-61744819D02*
X130522494Y-61744819D01*
X130903447Y-61744819D02*
X130903447Y-60744819D01*
X131332018Y-61744819D02*
X131332018Y-61221009D01*
X131332018Y-61221009D02*
X131284399Y-61125771D01*
X131284399Y-61125771D02*
X131189161Y-61078152D01*
X131189161Y-61078152D02*
X131046304Y-61078152D01*
X131046304Y-61078152D02*
X130951066Y-61125771D01*
X130951066Y-61125771D02*
X130903447Y-61173390D01*
X131951066Y-61744819D02*
X131855828Y-61697200D01*
X131855828Y-61697200D02*
X131808209Y-61649580D01*
X131808209Y-61649580D02*
X131760590Y-61554342D01*
X131760590Y-61554342D02*
X131760590Y-61268628D01*
X131760590Y-61268628D02*
X131808209Y-61173390D01*
X131808209Y-61173390D02*
X131855828Y-61125771D01*
X131855828Y-61125771D02*
X131951066Y-61078152D01*
X131951066Y-61078152D02*
X132093923Y-61078152D01*
X132093923Y-61078152D02*
X132189161Y-61125771D01*
X132189161Y-61125771D02*
X132236780Y-61173390D01*
X132236780Y-61173390D02*
X132284399Y-61268628D01*
X132284399Y-61268628D02*
X132284399Y-61554342D01*
X132284399Y-61554342D02*
X132236780Y-61649580D01*
X132236780Y-61649580D02*
X132189161Y-61697200D01*
X132189161Y-61697200D02*
X132093923Y-61744819D01*
X132093923Y-61744819D02*
X131951066Y-61744819D01*
X133141542Y-61078152D02*
X133141542Y-61744819D01*
X132712971Y-61078152D02*
X132712971Y-61601961D01*
X132712971Y-61601961D02*
X132760590Y-61697200D01*
X132760590Y-61697200D02*
X132855828Y-61744819D01*
X132855828Y-61744819D02*
X132998685Y-61744819D01*
X132998685Y-61744819D02*
X133093923Y-61697200D01*
X133093923Y-61697200D02*
X133141542Y-61649580D01*
X149636779Y-73069819D02*
X149636779Y-73879342D01*
X149636779Y-73879342D02*
X149684398Y-73974580D01*
X149684398Y-73974580D02*
X149732017Y-74022200D01*
X149732017Y-74022200D02*
X149827255Y-74069819D01*
X149827255Y-74069819D02*
X150017731Y-74069819D01*
X150017731Y-74069819D02*
X150112969Y-74022200D01*
X150112969Y-74022200D02*
X150160588Y-73974580D01*
X150160588Y-73974580D02*
X150208207Y-73879342D01*
X150208207Y-73879342D02*
X150208207Y-73069819D01*
X150636779Y-74022200D02*
X150779636Y-74069819D01*
X150779636Y-74069819D02*
X151017731Y-74069819D01*
X151017731Y-74069819D02*
X151112969Y-74022200D01*
X151112969Y-74022200D02*
X151160588Y-73974580D01*
X151160588Y-73974580D02*
X151208207Y-73879342D01*
X151208207Y-73879342D02*
X151208207Y-73784104D01*
X151208207Y-73784104D02*
X151160588Y-73688866D01*
X151160588Y-73688866D02*
X151112969Y-73641247D01*
X151112969Y-73641247D02*
X151017731Y-73593628D01*
X151017731Y-73593628D02*
X150827255Y-73546009D01*
X150827255Y-73546009D02*
X150732017Y-73498390D01*
X150732017Y-73498390D02*
X150684398Y-73450771D01*
X150684398Y-73450771D02*
X150636779Y-73355533D01*
X150636779Y-73355533D02*
X150636779Y-73260295D01*
X150636779Y-73260295D02*
X150684398Y-73165057D01*
X150684398Y-73165057D02*
X150732017Y-73117438D01*
X150732017Y-73117438D02*
X150827255Y-73069819D01*
X150827255Y-73069819D02*
X151065350Y-73069819D01*
X151065350Y-73069819D02*
X151208207Y-73117438D01*
X151970112Y-73546009D02*
X152112969Y-73593628D01*
X152112969Y-73593628D02*
X152160588Y-73641247D01*
X152160588Y-73641247D02*
X152208207Y-73736485D01*
X152208207Y-73736485D02*
X152208207Y-73879342D01*
X152208207Y-73879342D02*
X152160588Y-73974580D01*
X152160588Y-73974580D02*
X152112969Y-74022200D01*
X152112969Y-74022200D02*
X152017731Y-74069819D01*
X152017731Y-74069819D02*
X151636779Y-74069819D01*
X151636779Y-74069819D02*
X151636779Y-73069819D01*
X151636779Y-73069819D02*
X151970112Y-73069819D01*
X151970112Y-73069819D02*
X152065350Y-73117438D01*
X152065350Y-73117438D02*
X152112969Y-73165057D01*
X152112969Y-73165057D02*
X152160588Y-73260295D01*
X152160588Y-73260295D02*
X152160588Y-73355533D01*
X152160588Y-73355533D02*
X152112969Y-73450771D01*
X152112969Y-73450771D02*
X152065350Y-73498390D01*
X152065350Y-73498390D02*
X151970112Y-73546009D01*
X151970112Y-73546009D02*
X151636779Y-73546009D01*
X152398684Y-74165057D02*
X153160588Y-74165057D01*
X153398684Y-74069819D02*
X153398684Y-73069819D01*
X153398684Y-73069819D02*
X153636779Y-73069819D01*
X153636779Y-73069819D02*
X153779636Y-73117438D01*
X153779636Y-73117438D02*
X153874874Y-73212676D01*
X153874874Y-73212676D02*
X153922493Y-73307914D01*
X153922493Y-73307914D02*
X153970112Y-73498390D01*
X153970112Y-73498390D02*
X153970112Y-73641247D01*
X153970112Y-73641247D02*
X153922493Y-73831723D01*
X153922493Y-73831723D02*
X153874874Y-73926961D01*
X153874874Y-73926961D02*
X153779636Y-74022200D01*
X153779636Y-74022200D02*
X153636779Y-74069819D01*
X153636779Y-74069819D02*
X153398684Y-74069819D01*
X154160589Y-74165057D02*
X154922493Y-74165057D01*
X155160589Y-74069819D02*
X155160589Y-73069819D01*
X155160589Y-73069819D02*
X155732017Y-74069819D01*
X155732017Y-74069819D02*
X155732017Y-73069819D01*
X114618922Y-74369819D02*
X115190350Y-74369819D01*
X114904636Y-75369819D02*
X114904636Y-74369819D01*
X115428446Y-74369819D02*
X116095112Y-75369819D01*
X116095112Y-74369819D02*
X115428446Y-75369819D01*
X116237970Y-75465057D02*
X116999874Y-75465057D01*
X117237970Y-75369819D02*
X117237970Y-74369819D01*
X117237970Y-74369819D02*
X117618922Y-74369819D01*
X117618922Y-74369819D02*
X117714160Y-74417438D01*
X117714160Y-74417438D02*
X117761779Y-74465057D01*
X117761779Y-74465057D02*
X117809398Y-74560295D01*
X117809398Y-74560295D02*
X117809398Y-74703152D01*
X117809398Y-74703152D02*
X117761779Y-74798390D01*
X117761779Y-74798390D02*
X117714160Y-74846009D01*
X117714160Y-74846009D02*
X117618922Y-74893628D01*
X117618922Y-74893628D02*
X117237970Y-74893628D01*
X142136779Y-74394819D02*
X142136779Y-75204342D01*
X142136779Y-75204342D02*
X142184398Y-75299580D01*
X142184398Y-75299580D02*
X142232017Y-75347200D01*
X142232017Y-75347200D02*
X142327255Y-75394819D01*
X142327255Y-75394819D02*
X142517731Y-75394819D01*
X142517731Y-75394819D02*
X142612969Y-75347200D01*
X142612969Y-75347200D02*
X142660588Y-75299580D01*
X142660588Y-75299580D02*
X142708207Y-75204342D01*
X142708207Y-75204342D02*
X142708207Y-74394819D01*
X143136779Y-75347200D02*
X143279636Y-75394819D01*
X143279636Y-75394819D02*
X143517731Y-75394819D01*
X143517731Y-75394819D02*
X143612969Y-75347200D01*
X143612969Y-75347200D02*
X143660588Y-75299580D01*
X143660588Y-75299580D02*
X143708207Y-75204342D01*
X143708207Y-75204342D02*
X143708207Y-75109104D01*
X143708207Y-75109104D02*
X143660588Y-75013866D01*
X143660588Y-75013866D02*
X143612969Y-74966247D01*
X143612969Y-74966247D02*
X143517731Y-74918628D01*
X143517731Y-74918628D02*
X143327255Y-74871009D01*
X143327255Y-74871009D02*
X143232017Y-74823390D01*
X143232017Y-74823390D02*
X143184398Y-74775771D01*
X143184398Y-74775771D02*
X143136779Y-74680533D01*
X143136779Y-74680533D02*
X143136779Y-74585295D01*
X143136779Y-74585295D02*
X143184398Y-74490057D01*
X143184398Y-74490057D02*
X143232017Y-74442438D01*
X143232017Y-74442438D02*
X143327255Y-74394819D01*
X143327255Y-74394819D02*
X143565350Y-74394819D01*
X143565350Y-74394819D02*
X143708207Y-74442438D01*
X144470112Y-74871009D02*
X144612969Y-74918628D01*
X144612969Y-74918628D02*
X144660588Y-74966247D01*
X144660588Y-74966247D02*
X144708207Y-75061485D01*
X144708207Y-75061485D02*
X144708207Y-75204342D01*
X144708207Y-75204342D02*
X144660588Y-75299580D01*
X144660588Y-75299580D02*
X144612969Y-75347200D01*
X144612969Y-75347200D02*
X144517731Y-75394819D01*
X144517731Y-75394819D02*
X144136779Y-75394819D01*
X144136779Y-75394819D02*
X144136779Y-74394819D01*
X144136779Y-74394819D02*
X144470112Y-74394819D01*
X144470112Y-74394819D02*
X144565350Y-74442438D01*
X144565350Y-74442438D02*
X144612969Y-74490057D01*
X144612969Y-74490057D02*
X144660588Y-74585295D01*
X144660588Y-74585295D02*
X144660588Y-74680533D01*
X144660588Y-74680533D02*
X144612969Y-74775771D01*
X144612969Y-74775771D02*
X144565350Y-74823390D01*
X144565350Y-74823390D02*
X144470112Y-74871009D01*
X144470112Y-74871009D02*
X144136779Y-74871009D01*
X144898684Y-75490057D02*
X145660588Y-75490057D01*
X146422493Y-74442438D02*
X146327255Y-74394819D01*
X146327255Y-74394819D02*
X146184398Y-74394819D01*
X146184398Y-74394819D02*
X146041541Y-74442438D01*
X146041541Y-74442438D02*
X145946303Y-74537676D01*
X145946303Y-74537676D02*
X145898684Y-74632914D01*
X145898684Y-74632914D02*
X145851065Y-74823390D01*
X145851065Y-74823390D02*
X145851065Y-74966247D01*
X145851065Y-74966247D02*
X145898684Y-75156723D01*
X145898684Y-75156723D02*
X145946303Y-75251961D01*
X145946303Y-75251961D02*
X146041541Y-75347200D01*
X146041541Y-75347200D02*
X146184398Y-75394819D01*
X146184398Y-75394819D02*
X146279636Y-75394819D01*
X146279636Y-75394819D02*
X146422493Y-75347200D01*
X146422493Y-75347200D02*
X146470112Y-75299580D01*
X146470112Y-75299580D02*
X146470112Y-74966247D01*
X146470112Y-74966247D02*
X146279636Y-74966247D01*
X146898684Y-75394819D02*
X146898684Y-74394819D01*
X146898684Y-74394819D02*
X147470112Y-75394819D01*
X147470112Y-75394819D02*
X147470112Y-74394819D01*
X147946303Y-75394819D02*
X147946303Y-74394819D01*
X147946303Y-74394819D02*
X148184398Y-74394819D01*
X148184398Y-74394819D02*
X148327255Y-74442438D01*
X148327255Y-74442438D02*
X148422493Y-74537676D01*
X148422493Y-74537676D02*
X148470112Y-74632914D01*
X148470112Y-74632914D02*
X148517731Y-74823390D01*
X148517731Y-74823390D02*
X148517731Y-74966247D01*
X148517731Y-74966247D02*
X148470112Y-75156723D01*
X148470112Y-75156723D02*
X148422493Y-75251961D01*
X148422493Y-75251961D02*
X148327255Y-75347200D01*
X148327255Y-75347200D02*
X148184398Y-75394819D01*
X148184398Y-75394819D02*
X147946303Y-75394819D01*
X110058207Y-74069819D02*
X109724874Y-73593628D01*
X109486779Y-74069819D02*
X109486779Y-73069819D01*
X109486779Y-73069819D02*
X109867731Y-73069819D01*
X109867731Y-73069819D02*
X109962969Y-73117438D01*
X109962969Y-73117438D02*
X110010588Y-73165057D01*
X110010588Y-73165057D02*
X110058207Y-73260295D01*
X110058207Y-73260295D02*
X110058207Y-73403152D01*
X110058207Y-73403152D02*
X110010588Y-73498390D01*
X110010588Y-73498390D02*
X109962969Y-73546009D01*
X109962969Y-73546009D02*
X109867731Y-73593628D01*
X109867731Y-73593628D02*
X109486779Y-73593628D01*
X110391541Y-73069819D02*
X111058207Y-74069819D01*
X111058207Y-73069819D02*
X110391541Y-74069819D01*
X111201065Y-74165057D02*
X111962969Y-74165057D01*
X112201065Y-74069819D02*
X112201065Y-73069819D01*
X112201065Y-73069819D02*
X112772493Y-74069819D01*
X112772493Y-74069819D02*
X112772493Y-73069819D01*
X142136779Y-73119819D02*
X142136779Y-73929342D01*
X142136779Y-73929342D02*
X142184398Y-74024580D01*
X142184398Y-74024580D02*
X142232017Y-74072200D01*
X142232017Y-74072200D02*
X142327255Y-74119819D01*
X142327255Y-74119819D02*
X142517731Y-74119819D01*
X142517731Y-74119819D02*
X142612969Y-74072200D01*
X142612969Y-74072200D02*
X142660588Y-74024580D01*
X142660588Y-74024580D02*
X142708207Y-73929342D01*
X142708207Y-73929342D02*
X142708207Y-73119819D01*
X143136779Y-74072200D02*
X143279636Y-74119819D01*
X143279636Y-74119819D02*
X143517731Y-74119819D01*
X143517731Y-74119819D02*
X143612969Y-74072200D01*
X143612969Y-74072200D02*
X143660588Y-74024580D01*
X143660588Y-74024580D02*
X143708207Y-73929342D01*
X143708207Y-73929342D02*
X143708207Y-73834104D01*
X143708207Y-73834104D02*
X143660588Y-73738866D01*
X143660588Y-73738866D02*
X143612969Y-73691247D01*
X143612969Y-73691247D02*
X143517731Y-73643628D01*
X143517731Y-73643628D02*
X143327255Y-73596009D01*
X143327255Y-73596009D02*
X143232017Y-73548390D01*
X143232017Y-73548390D02*
X143184398Y-73500771D01*
X143184398Y-73500771D02*
X143136779Y-73405533D01*
X143136779Y-73405533D02*
X143136779Y-73310295D01*
X143136779Y-73310295D02*
X143184398Y-73215057D01*
X143184398Y-73215057D02*
X143232017Y-73167438D01*
X143232017Y-73167438D02*
X143327255Y-73119819D01*
X143327255Y-73119819D02*
X143565350Y-73119819D01*
X143565350Y-73119819D02*
X143708207Y-73167438D01*
X144470112Y-73596009D02*
X144612969Y-73643628D01*
X144612969Y-73643628D02*
X144660588Y-73691247D01*
X144660588Y-73691247D02*
X144708207Y-73786485D01*
X144708207Y-73786485D02*
X144708207Y-73929342D01*
X144708207Y-73929342D02*
X144660588Y-74024580D01*
X144660588Y-74024580D02*
X144612969Y-74072200D01*
X144612969Y-74072200D02*
X144517731Y-74119819D01*
X144517731Y-74119819D02*
X144136779Y-74119819D01*
X144136779Y-74119819D02*
X144136779Y-73119819D01*
X144136779Y-73119819D02*
X144470112Y-73119819D01*
X144470112Y-73119819D02*
X144565350Y-73167438D01*
X144565350Y-73167438D02*
X144612969Y-73215057D01*
X144612969Y-73215057D02*
X144660588Y-73310295D01*
X144660588Y-73310295D02*
X144660588Y-73405533D01*
X144660588Y-73405533D02*
X144612969Y-73500771D01*
X144612969Y-73500771D02*
X144565350Y-73548390D01*
X144565350Y-73548390D02*
X144470112Y-73596009D01*
X144470112Y-73596009D02*
X144136779Y-73596009D01*
X144898684Y-74215057D02*
X145660588Y-74215057D01*
X145898684Y-74119819D02*
X145898684Y-73119819D01*
X145898684Y-73119819D02*
X146136779Y-73119819D01*
X146136779Y-73119819D02*
X146279636Y-73167438D01*
X146279636Y-73167438D02*
X146374874Y-73262676D01*
X146374874Y-73262676D02*
X146422493Y-73357914D01*
X146422493Y-73357914D02*
X146470112Y-73548390D01*
X146470112Y-73548390D02*
X146470112Y-73691247D01*
X146470112Y-73691247D02*
X146422493Y-73881723D01*
X146422493Y-73881723D02*
X146374874Y-73976961D01*
X146374874Y-73976961D02*
X146279636Y-74072200D01*
X146279636Y-74072200D02*
X146136779Y-74119819D01*
X146136779Y-74119819D02*
X145898684Y-74119819D01*
X146660589Y-74215057D02*
X147422493Y-74215057D01*
X147660589Y-74119819D02*
X147660589Y-73119819D01*
X147660589Y-73119819D02*
X148041541Y-73119819D01*
X148041541Y-73119819D02*
X148136779Y-73167438D01*
X148136779Y-73167438D02*
X148184398Y-73215057D01*
X148184398Y-73215057D02*
X148232017Y-73310295D01*
X148232017Y-73310295D02*
X148232017Y-73453152D01*
X148232017Y-73453152D02*
X148184398Y-73548390D01*
X148184398Y-73548390D02*
X148136779Y-73596009D01*
X148136779Y-73596009D02*
X148041541Y-73643628D01*
X148041541Y-73643628D02*
X147660589Y-73643628D01*
X130816666Y-65629819D02*
X130816666Y-66344104D01*
X130816666Y-66344104D02*
X130769047Y-66486961D01*
X130769047Y-66486961D02*
X130673809Y-66582200D01*
X130673809Y-66582200D02*
X130530952Y-66629819D01*
X130530952Y-66629819D02*
X130435714Y-66629819D01*
X131197619Y-65629819D02*
X131816666Y-65629819D01*
X131816666Y-65629819D02*
X131483333Y-66010771D01*
X131483333Y-66010771D02*
X131626190Y-66010771D01*
X131626190Y-66010771D02*
X131721428Y-66058390D01*
X131721428Y-66058390D02*
X131769047Y-66106009D01*
X131769047Y-66106009D02*
X131816666Y-66201247D01*
X131816666Y-66201247D02*
X131816666Y-66439342D01*
X131816666Y-66439342D02*
X131769047Y-66534580D01*
X131769047Y-66534580D02*
X131721428Y-66582200D01*
X131721428Y-66582200D02*
X131626190Y-66629819D01*
X131626190Y-66629819D02*
X131340476Y-66629819D01*
X131340476Y-66629819D02*
X131245238Y-66582200D01*
X131245238Y-66582200D02*
X131197619Y-66534580D01*
D11*
X153726667Y-58679318D02*
X153726667Y-59586461D01*
X153726667Y-59586461D02*
X153666190Y-59767889D01*
X153666190Y-59767889D02*
X153545238Y-59888842D01*
X153545238Y-59888842D02*
X153363809Y-59949318D01*
X153363809Y-59949318D02*
X153242857Y-59949318D01*
X154996667Y-59949318D02*
X154270952Y-59949318D01*
X154633809Y-59949318D02*
X154633809Y-58679318D01*
X154633809Y-58679318D02*
X154512857Y-58860746D01*
X154512857Y-58860746D02*
X154391905Y-58981699D01*
X154391905Y-58981699D02*
X154270952Y-59042175D01*
X106251667Y-58779318D02*
X106251667Y-59686461D01*
X106251667Y-59686461D02*
X106191190Y-59867889D01*
X106191190Y-59867889D02*
X106070238Y-59988842D01*
X106070238Y-59988842D02*
X105888809Y-60049318D01*
X105888809Y-60049318D02*
X105767857Y-60049318D01*
X106795952Y-58900270D02*
X106856428Y-58839794D01*
X106856428Y-58839794D02*
X106977381Y-58779318D01*
X106977381Y-58779318D02*
X107279762Y-58779318D01*
X107279762Y-58779318D02*
X107400714Y-58839794D01*
X107400714Y-58839794D02*
X107461190Y-58900270D01*
X107461190Y-58900270D02*
X107521667Y-59021222D01*
X107521667Y-59021222D02*
X107521667Y-59142175D01*
X107521667Y-59142175D02*
X107461190Y-59323603D01*
X107461190Y-59323603D02*
X106735476Y-60049318D01*
X106735476Y-60049318D02*
X107521667Y-60049318D01*
X135684080Y-64073332D02*
X135684080Y-64496666D01*
X136349318Y-64496666D02*
X135079318Y-64496666D01*
X135079318Y-64496666D02*
X135079318Y-63891904D01*
X136349318Y-62742856D02*
X136349318Y-63468571D01*
X136349318Y-63105714D02*
X135079318Y-63105714D01*
X135079318Y-63105714D02*
X135260746Y-63226666D01*
X135260746Y-63226666D02*
X135381699Y-63347618D01*
X135381699Y-63347618D02*
X135442175Y-63468571D01*
D12*
X122997100Y-67343000D02*
X122997100Y-72647356D01*
X122997100Y-73312643D02*
X122997100Y-73820000D01*
X122997100Y-73820000D02*
X123319919Y-73820000D01*
X124840083Y-73820000D02*
X138349917Y-73820000D01*
X139870081Y-73820000D02*
X140192900Y-73820000D01*
X140192900Y-67343000D02*
X122997100Y-67343000D01*
X140192900Y-72647356D02*
X140192900Y-67343000D01*
X140192900Y-73820000D02*
X140192900Y-73312643D01*
D13*
X121346100Y-71500000D02*
G75*
G02*
X120584100Y-71500000I-381000J0D01*
G01*
X120584100Y-71500000D02*
G75*
G02*
X121346100Y-71500000I381000J0D01*
G01*
D14*
X148800000Y-60225000D02*
X148800000Y-60225000D01*
X148800000Y-72825000D02*
X148800000Y-72825000D01*
D15*
X155500000Y-67500000D02*
X155500000Y-67500000D01*
X155600000Y-67500000D02*
X155600000Y-67500000D01*
D14*
X148800000Y-60225000D02*
G75*
G02*
X148800000Y-72825000I0J-6300000D01*
G01*
X148800000Y-72825000D02*
G75*
G02*
X148800000Y-60225000I0J6300000D01*
G01*
D15*
X155500000Y-67500000D02*
G75*
G02*
X155600000Y-67500000I50000J0D01*
G01*
X155600000Y-67500000D02*
G75*
G02*
X155500000Y-67500000I-50000J0D01*
G01*
D16*
X106700000Y-67500000D02*
X106700000Y-67500000D01*
X106800000Y-67500000D02*
X106800000Y-67500000D01*
D15*
X107500000Y-66525000D02*
X107500000Y-66525000D01*
X120100000Y-66525000D02*
X120100000Y-66525000D01*
D16*
X106700000Y-67500000D02*
G75*
G02*
X106800000Y-67500000I50000J0D01*
G01*
X106800000Y-67500000D02*
G75*
G02*
X106700000Y-67500000I-50000J0D01*
G01*
D15*
X107500000Y-66525000D02*
G75*
G02*
X120100000Y-66525000I6300000J0D01*
G01*
X120100000Y-66525000D02*
G75*
G02*
X107500000Y-66525000I-6300000J0D01*
G01*
D14*
X137700000Y-63400000D02*
X137700000Y-64600000D01*
D15*
X138500000Y-61500000D02*
X138500000Y-61500000D01*
X138500000Y-61600000D02*
X138500000Y-61600000D01*
D14*
X139300000Y-63400000D02*
X139300000Y-64600000D01*
D15*
X138500000Y-61500000D02*
G75*
G02*
X138500000Y-61600000I0J-50000D01*
G01*
X138500000Y-61600000D02*
G75*
G02*
X138500000Y-61500000I0J50000D01*
G01*
%LPC*%
D17*
X125880000Y-71500000D03*
X127150000Y-68960000D03*
X128420000Y-71500000D03*
X129690000Y-68960000D03*
X130960000Y-71500000D03*
X132230000Y-68960000D03*
X133500000Y-71500000D03*
X134770000Y-68960000D03*
X136040000Y-71500000D03*
X137310000Y-68960000D03*
D18*
X150500000Y-67500000D03*
D19*
X149875000Y-65550000D03*
X147100000Y-67500000D03*
X147725000Y-65550000D03*
D20*
X112100000Y-67500000D03*
X112725000Y-65550000D03*
X115500000Y-67500000D03*
X114875000Y-65550000D03*
D21*
X138500000Y-62500000D03*
X138500000Y-65500000D03*
%LPD*%
M02*
