G04 #@! TF.GenerationSoftware,KiCad,Pcbnew,9.0.5*
G04 #@! TF.CreationDate,2025-10-27T21:44:09-04:00*
G04 #@! TF.ProjectId,main_board_peripheral_v1,6d61696e-5f62-46f6-9172-645f70657269,rev?*
G04 #@! TF.SameCoordinates,Original*
G04 #@! TF.FileFunction,Legend,Bot*
G04 #@! TF.FilePolarity,Positive*
%FSLAX46Y46*%
G04 Gerber Fmt 4.6, Leading zero omitted, Abs format (unit mm)*
G04 Created by KiCad (PCBNEW 9.0.5) date 2025-10-27 21:44:09*
%MOMM*%
%LPD*%
G01*
G04 APERTURE LIST*
%ADD10C,0.150000*%
%ADD11C,0.508000*%
%ADD12C,1.397000*%
%ADD13R,1.300000X1.300000*%
%ADD14C,1.300000*%
%ADD15C,1.381000*%
G04 APERTURE END LIST*
D10*
X148488220Y-74444819D02*
X148488220Y-75254342D01*
X148488220Y-75254342D02*
X148440601Y-75349580D01*
X148440601Y-75349580D02*
X148392982Y-75397200D01*
X148392982Y-75397200D02*
X148297744Y-75444819D01*
X148297744Y-75444819D02*
X148107268Y-75444819D01*
X148107268Y-75444819D02*
X148012030Y-75397200D01*
X148012030Y-75397200D02*
X147964411Y-75349580D01*
X147964411Y-75349580D02*
X147916792Y-75254342D01*
X147916792Y-75254342D02*
X147916792Y-74444819D01*
X147488220Y-75397200D02*
X147345363Y-75444819D01*
X147345363Y-75444819D02*
X147107268Y-75444819D01*
X147107268Y-75444819D02*
X147012030Y-75397200D01*
X147012030Y-75397200D02*
X146964411Y-75349580D01*
X146964411Y-75349580D02*
X146916792Y-75254342D01*
X146916792Y-75254342D02*
X146916792Y-75159104D01*
X146916792Y-75159104D02*
X146964411Y-75063866D01*
X146964411Y-75063866D02*
X147012030Y-75016247D01*
X147012030Y-75016247D02*
X147107268Y-74968628D01*
X147107268Y-74968628D02*
X147297744Y-74921009D01*
X147297744Y-74921009D02*
X147392982Y-74873390D01*
X147392982Y-74873390D02*
X147440601Y-74825771D01*
X147440601Y-74825771D02*
X147488220Y-74730533D01*
X147488220Y-74730533D02*
X147488220Y-74635295D01*
X147488220Y-74635295D02*
X147440601Y-74540057D01*
X147440601Y-74540057D02*
X147392982Y-74492438D01*
X147392982Y-74492438D02*
X147297744Y-74444819D01*
X147297744Y-74444819D02*
X147059649Y-74444819D01*
X147059649Y-74444819D02*
X146916792Y-74492438D01*
X146154887Y-74921009D02*
X146012030Y-74968628D01*
X146012030Y-74968628D02*
X145964411Y-75016247D01*
X145964411Y-75016247D02*
X145916792Y-75111485D01*
X145916792Y-75111485D02*
X145916792Y-75254342D01*
X145916792Y-75254342D02*
X145964411Y-75349580D01*
X145964411Y-75349580D02*
X146012030Y-75397200D01*
X146012030Y-75397200D02*
X146107268Y-75444819D01*
X146107268Y-75444819D02*
X146488220Y-75444819D01*
X146488220Y-75444819D02*
X146488220Y-74444819D01*
X146488220Y-74444819D02*
X146154887Y-74444819D01*
X146154887Y-74444819D02*
X146059649Y-74492438D01*
X146059649Y-74492438D02*
X146012030Y-74540057D01*
X146012030Y-74540057D02*
X145964411Y-74635295D01*
X145964411Y-74635295D02*
X145964411Y-74730533D01*
X145964411Y-74730533D02*
X146012030Y-74825771D01*
X146012030Y-74825771D02*
X146059649Y-74873390D01*
X146059649Y-74873390D02*
X146154887Y-74921009D01*
X146154887Y-74921009D02*
X146488220Y-74921009D01*
X145726316Y-75540057D02*
X144964411Y-75540057D01*
X144202506Y-74492438D02*
X144297744Y-74444819D01*
X144297744Y-74444819D02*
X144440601Y-74444819D01*
X144440601Y-74444819D02*
X144583458Y-74492438D01*
X144583458Y-74492438D02*
X144678696Y-74587676D01*
X144678696Y-74587676D02*
X144726315Y-74682914D01*
X144726315Y-74682914D02*
X144773934Y-74873390D01*
X144773934Y-74873390D02*
X144773934Y-75016247D01*
X144773934Y-75016247D02*
X144726315Y-75206723D01*
X144726315Y-75206723D02*
X144678696Y-75301961D01*
X144678696Y-75301961D02*
X144583458Y-75397200D01*
X144583458Y-75397200D02*
X144440601Y-75444819D01*
X144440601Y-75444819D02*
X144345363Y-75444819D01*
X144345363Y-75444819D02*
X144202506Y-75397200D01*
X144202506Y-75397200D02*
X144154887Y-75349580D01*
X144154887Y-75349580D02*
X144154887Y-75016247D01*
X144154887Y-75016247D02*
X144345363Y-75016247D01*
X143726315Y-75444819D02*
X143726315Y-74444819D01*
X143726315Y-74444819D02*
X143154887Y-75444819D01*
X143154887Y-75444819D02*
X143154887Y-74444819D01*
X142678696Y-75444819D02*
X142678696Y-74444819D01*
X142678696Y-74444819D02*
X142440601Y-74444819D01*
X142440601Y-74444819D02*
X142297744Y-74492438D01*
X142297744Y-74492438D02*
X142202506Y-74587676D01*
X142202506Y-74587676D02*
X142154887Y-74682914D01*
X142154887Y-74682914D02*
X142107268Y-74873390D01*
X142107268Y-74873390D02*
X142107268Y-75016247D01*
X142107268Y-75016247D02*
X142154887Y-75206723D01*
X142154887Y-75206723D02*
X142202506Y-75301961D01*
X142202506Y-75301961D02*
X142297744Y-75397200D01*
X142297744Y-75397200D02*
X142440601Y-75444819D01*
X142440601Y-75444819D02*
X142678696Y-75444819D01*
X139435839Y-59205113D02*
X139388220Y-59157494D01*
X139388220Y-59157494D02*
X139292982Y-59109875D01*
X139292982Y-59109875D02*
X139054887Y-59109875D01*
X139054887Y-59109875D02*
X138959649Y-59157494D01*
X138959649Y-59157494D02*
X138912030Y-59205113D01*
X138912030Y-59205113D02*
X138864411Y-59300351D01*
X138864411Y-59300351D02*
X138864411Y-59395589D01*
X138864411Y-59395589D02*
X138912030Y-59538446D01*
X138912030Y-59538446D02*
X139483458Y-60109875D01*
X139483458Y-60109875D02*
X138864411Y-60109875D01*
X138483458Y-59205113D02*
X138435839Y-59157494D01*
X138435839Y-59157494D02*
X138340601Y-59109875D01*
X138340601Y-59109875D02*
X138102506Y-59109875D01*
X138102506Y-59109875D02*
X138007268Y-59157494D01*
X138007268Y-59157494D02*
X137959649Y-59205113D01*
X137959649Y-59205113D02*
X137912030Y-59300351D01*
X137912030Y-59300351D02*
X137912030Y-59395589D01*
X137912030Y-59395589D02*
X137959649Y-59538446D01*
X137959649Y-59538446D02*
X138531077Y-60109875D01*
X138531077Y-60109875D02*
X137912030Y-60109875D01*
X137578696Y-60109875D02*
X137054887Y-59443208D01*
X137578696Y-59443208D02*
X137054887Y-60109875D01*
X136816791Y-59443208D02*
X136435839Y-59443208D01*
X136673934Y-59109875D02*
X136673934Y-59967017D01*
X136673934Y-59967017D02*
X136626315Y-60062256D01*
X136626315Y-60062256D02*
X136531077Y-60109875D01*
X136531077Y-60109875D02*
X136435839Y-60109875D01*
X135340600Y-60109875D02*
X135340600Y-59109875D01*
X135340600Y-59109875D02*
X135007267Y-59824160D01*
X135007267Y-59824160D02*
X134673934Y-59109875D01*
X134673934Y-59109875D02*
X134673934Y-60109875D01*
X133769172Y-60109875D02*
X133769172Y-59586065D01*
X133769172Y-59586065D02*
X133816791Y-59490827D01*
X133816791Y-59490827D02*
X133912029Y-59443208D01*
X133912029Y-59443208D02*
X134102505Y-59443208D01*
X134102505Y-59443208D02*
X134197743Y-59490827D01*
X133769172Y-60062256D02*
X133864410Y-60109875D01*
X133864410Y-60109875D02*
X134102505Y-60109875D01*
X134102505Y-60109875D02*
X134197743Y-60062256D01*
X134197743Y-60062256D02*
X134245362Y-59967017D01*
X134245362Y-59967017D02*
X134245362Y-59871779D01*
X134245362Y-59871779D02*
X134197743Y-59776541D01*
X134197743Y-59776541D02*
X134102505Y-59728922D01*
X134102505Y-59728922D02*
X133864410Y-59728922D01*
X133864410Y-59728922D02*
X133769172Y-59681303D01*
X133292981Y-60109875D02*
X133292981Y-59443208D01*
X133292981Y-59109875D02*
X133340600Y-59157494D01*
X133340600Y-59157494D02*
X133292981Y-59205113D01*
X133292981Y-59205113D02*
X133245362Y-59157494D01*
X133245362Y-59157494D02*
X133292981Y-59109875D01*
X133292981Y-59109875D02*
X133292981Y-59205113D01*
X132816791Y-59443208D02*
X132816791Y-60109875D01*
X132816791Y-59538446D02*
X132769172Y-59490827D01*
X132769172Y-59490827D02*
X132673934Y-59443208D01*
X132673934Y-59443208D02*
X132531077Y-59443208D01*
X132531077Y-59443208D02*
X132435839Y-59490827D01*
X132435839Y-59490827D02*
X132388220Y-59586065D01*
X132388220Y-59586065D02*
X132388220Y-60109875D01*
X131150124Y-60109875D02*
X131150124Y-59109875D01*
X131150124Y-59109875D02*
X130769172Y-59109875D01*
X130769172Y-59109875D02*
X130673934Y-59157494D01*
X130673934Y-59157494D02*
X130626315Y-59205113D01*
X130626315Y-59205113D02*
X130578696Y-59300351D01*
X130578696Y-59300351D02*
X130578696Y-59443208D01*
X130578696Y-59443208D02*
X130626315Y-59538446D01*
X130626315Y-59538446D02*
X130673934Y-59586065D01*
X130673934Y-59586065D02*
X130769172Y-59633684D01*
X130769172Y-59633684D02*
X131150124Y-59633684D01*
X129769172Y-60062256D02*
X129864410Y-60109875D01*
X129864410Y-60109875D02*
X130054886Y-60109875D01*
X130054886Y-60109875D02*
X130150124Y-60062256D01*
X130150124Y-60062256D02*
X130197743Y-59967017D01*
X130197743Y-59967017D02*
X130197743Y-59586065D01*
X130197743Y-59586065D02*
X130150124Y-59490827D01*
X130150124Y-59490827D02*
X130054886Y-59443208D01*
X130054886Y-59443208D02*
X129864410Y-59443208D01*
X129864410Y-59443208D02*
X129769172Y-59490827D01*
X129769172Y-59490827D02*
X129721553Y-59586065D01*
X129721553Y-59586065D02*
X129721553Y-59681303D01*
X129721553Y-59681303D02*
X130197743Y-59776541D01*
X129292981Y-60109875D02*
X129292981Y-59443208D01*
X129292981Y-59633684D02*
X129245362Y-59538446D01*
X129245362Y-59538446D02*
X129197743Y-59490827D01*
X129197743Y-59490827D02*
X129102505Y-59443208D01*
X129102505Y-59443208D02*
X129007267Y-59443208D01*
X128673933Y-60109875D02*
X128673933Y-59443208D01*
X128673933Y-59109875D02*
X128721552Y-59157494D01*
X128721552Y-59157494D02*
X128673933Y-59205113D01*
X128673933Y-59205113D02*
X128626314Y-59157494D01*
X128626314Y-59157494D02*
X128673933Y-59109875D01*
X128673933Y-59109875D02*
X128673933Y-59205113D01*
X128197743Y-59443208D02*
X128197743Y-60443208D01*
X128197743Y-59490827D02*
X128102505Y-59443208D01*
X128102505Y-59443208D02*
X127912029Y-59443208D01*
X127912029Y-59443208D02*
X127816791Y-59490827D01*
X127816791Y-59490827D02*
X127769172Y-59538446D01*
X127769172Y-59538446D02*
X127721553Y-59633684D01*
X127721553Y-59633684D02*
X127721553Y-59919398D01*
X127721553Y-59919398D02*
X127769172Y-60014636D01*
X127769172Y-60014636D02*
X127816791Y-60062256D01*
X127816791Y-60062256D02*
X127912029Y-60109875D01*
X127912029Y-60109875D02*
X128102505Y-60109875D01*
X128102505Y-60109875D02*
X128197743Y-60062256D01*
X127292981Y-60109875D02*
X127292981Y-59109875D01*
X126864410Y-60109875D02*
X126864410Y-59586065D01*
X126864410Y-59586065D02*
X126912029Y-59490827D01*
X126912029Y-59490827D02*
X127007267Y-59443208D01*
X127007267Y-59443208D02*
X127150124Y-59443208D01*
X127150124Y-59443208D02*
X127245362Y-59490827D01*
X127245362Y-59490827D02*
X127292981Y-59538446D01*
X126007267Y-60062256D02*
X126102505Y-60109875D01*
X126102505Y-60109875D02*
X126292981Y-60109875D01*
X126292981Y-60109875D02*
X126388219Y-60062256D01*
X126388219Y-60062256D02*
X126435838Y-59967017D01*
X126435838Y-59967017D02*
X126435838Y-59586065D01*
X126435838Y-59586065D02*
X126388219Y-59490827D01*
X126388219Y-59490827D02*
X126292981Y-59443208D01*
X126292981Y-59443208D02*
X126102505Y-59443208D01*
X126102505Y-59443208D02*
X126007267Y-59490827D01*
X126007267Y-59490827D02*
X125959648Y-59586065D01*
X125959648Y-59586065D02*
X125959648Y-59681303D01*
X125959648Y-59681303D02*
X126435838Y-59776541D01*
X125531076Y-60109875D02*
X125531076Y-59443208D01*
X125531076Y-59633684D02*
X125483457Y-59538446D01*
X125483457Y-59538446D02*
X125435838Y-59490827D01*
X125435838Y-59490827D02*
X125340600Y-59443208D01*
X125340600Y-59443208D02*
X125245362Y-59443208D01*
X124483457Y-60109875D02*
X124483457Y-59586065D01*
X124483457Y-59586065D02*
X124531076Y-59490827D01*
X124531076Y-59490827D02*
X124626314Y-59443208D01*
X124626314Y-59443208D02*
X124816790Y-59443208D01*
X124816790Y-59443208D02*
X124912028Y-59490827D01*
X124483457Y-60062256D02*
X124578695Y-60109875D01*
X124578695Y-60109875D02*
X124816790Y-60109875D01*
X124816790Y-60109875D02*
X124912028Y-60062256D01*
X124912028Y-60062256D02*
X124959647Y-59967017D01*
X124959647Y-59967017D02*
X124959647Y-59871779D01*
X124959647Y-59871779D02*
X124912028Y-59776541D01*
X124912028Y-59776541D02*
X124816790Y-59728922D01*
X124816790Y-59728922D02*
X124578695Y-59728922D01*
X124578695Y-59728922D02*
X124483457Y-59681303D01*
X123864409Y-60109875D02*
X123959647Y-60062256D01*
X123959647Y-60062256D02*
X124007266Y-59967017D01*
X124007266Y-59967017D02*
X124007266Y-59109875D01*
X139435839Y-61672200D02*
X139292982Y-61719819D01*
X139292982Y-61719819D02*
X139054887Y-61719819D01*
X139054887Y-61719819D02*
X138959649Y-61672200D01*
X138959649Y-61672200D02*
X138912030Y-61624580D01*
X138912030Y-61624580D02*
X138864411Y-61529342D01*
X138864411Y-61529342D02*
X138864411Y-61434104D01*
X138864411Y-61434104D02*
X138912030Y-61338866D01*
X138912030Y-61338866D02*
X138959649Y-61291247D01*
X138959649Y-61291247D02*
X139054887Y-61243628D01*
X139054887Y-61243628D02*
X139245363Y-61196009D01*
X139245363Y-61196009D02*
X139340601Y-61148390D01*
X139340601Y-61148390D02*
X139388220Y-61100771D01*
X139388220Y-61100771D02*
X139435839Y-61005533D01*
X139435839Y-61005533D02*
X139435839Y-60910295D01*
X139435839Y-60910295D02*
X139388220Y-60815057D01*
X139388220Y-60815057D02*
X139340601Y-60767438D01*
X139340601Y-60767438D02*
X139245363Y-60719819D01*
X139245363Y-60719819D02*
X139007268Y-60719819D01*
X139007268Y-60719819D02*
X138864411Y-60767438D01*
X138578696Y-61053152D02*
X138197744Y-61053152D01*
X138435839Y-60719819D02*
X138435839Y-61576961D01*
X138435839Y-61576961D02*
X138388220Y-61672200D01*
X138388220Y-61672200D02*
X138292982Y-61719819D01*
X138292982Y-61719819D02*
X138197744Y-61719819D01*
X137483458Y-61672200D02*
X137578696Y-61719819D01*
X137578696Y-61719819D02*
X137769172Y-61719819D01*
X137769172Y-61719819D02*
X137864410Y-61672200D01*
X137864410Y-61672200D02*
X137912029Y-61576961D01*
X137912029Y-61576961D02*
X137912029Y-61196009D01*
X137912029Y-61196009D02*
X137864410Y-61100771D01*
X137864410Y-61100771D02*
X137769172Y-61053152D01*
X137769172Y-61053152D02*
X137578696Y-61053152D01*
X137578696Y-61053152D02*
X137483458Y-61100771D01*
X137483458Y-61100771D02*
X137435839Y-61196009D01*
X137435839Y-61196009D02*
X137435839Y-61291247D01*
X137435839Y-61291247D02*
X137912029Y-61386485D01*
X137007267Y-61053152D02*
X137007267Y-62053152D01*
X137007267Y-61100771D02*
X136912029Y-61053152D01*
X136912029Y-61053152D02*
X136721553Y-61053152D01*
X136721553Y-61053152D02*
X136626315Y-61100771D01*
X136626315Y-61100771D02*
X136578696Y-61148390D01*
X136578696Y-61148390D02*
X136531077Y-61243628D01*
X136531077Y-61243628D02*
X136531077Y-61529342D01*
X136531077Y-61529342D02*
X136578696Y-61624580D01*
X136578696Y-61624580D02*
X136626315Y-61672200D01*
X136626315Y-61672200D02*
X136721553Y-61719819D01*
X136721553Y-61719819D02*
X136912029Y-61719819D01*
X136912029Y-61719819D02*
X137007267Y-61672200D01*
X136102505Y-61719819D02*
X136102505Y-60719819D01*
X135673934Y-61719819D02*
X135673934Y-61196009D01*
X135673934Y-61196009D02*
X135721553Y-61100771D01*
X135721553Y-61100771D02*
X135816791Y-61053152D01*
X135816791Y-61053152D02*
X135959648Y-61053152D01*
X135959648Y-61053152D02*
X136054886Y-61100771D01*
X136054886Y-61100771D02*
X136102505Y-61148390D01*
X134816791Y-61672200D02*
X134912029Y-61719819D01*
X134912029Y-61719819D02*
X135102505Y-61719819D01*
X135102505Y-61719819D02*
X135197743Y-61672200D01*
X135197743Y-61672200D02*
X135245362Y-61576961D01*
X135245362Y-61576961D02*
X135245362Y-61196009D01*
X135245362Y-61196009D02*
X135197743Y-61100771D01*
X135197743Y-61100771D02*
X135102505Y-61053152D01*
X135102505Y-61053152D02*
X134912029Y-61053152D01*
X134912029Y-61053152D02*
X134816791Y-61100771D01*
X134816791Y-61100771D02*
X134769172Y-61196009D01*
X134769172Y-61196009D02*
X134769172Y-61291247D01*
X134769172Y-61291247D02*
X135245362Y-61386485D01*
X134340600Y-61053152D02*
X134340600Y-61719819D01*
X134340600Y-61148390D02*
X134292981Y-61100771D01*
X134292981Y-61100771D02*
X134197743Y-61053152D01*
X134197743Y-61053152D02*
X134054886Y-61053152D01*
X134054886Y-61053152D02*
X133959648Y-61100771D01*
X133959648Y-61100771D02*
X133912029Y-61196009D01*
X133912029Y-61196009D02*
X133912029Y-61719819D01*
X132769171Y-60719819D02*
X132102505Y-60719819D01*
X132102505Y-60719819D02*
X132769171Y-61719819D01*
X132769171Y-61719819D02*
X132102505Y-61719819D01*
X131721552Y-61719819D02*
X131721552Y-60719819D01*
X131292981Y-61719819D02*
X131292981Y-61196009D01*
X131292981Y-61196009D02*
X131340600Y-61100771D01*
X131340600Y-61100771D02*
X131435838Y-61053152D01*
X131435838Y-61053152D02*
X131578695Y-61053152D01*
X131578695Y-61053152D02*
X131673933Y-61100771D01*
X131673933Y-61100771D02*
X131721552Y-61148390D01*
X130673933Y-61719819D02*
X130769171Y-61672200D01*
X130769171Y-61672200D02*
X130816790Y-61624580D01*
X130816790Y-61624580D02*
X130864409Y-61529342D01*
X130864409Y-61529342D02*
X130864409Y-61243628D01*
X130864409Y-61243628D02*
X130816790Y-61148390D01*
X130816790Y-61148390D02*
X130769171Y-61100771D01*
X130769171Y-61100771D02*
X130673933Y-61053152D01*
X130673933Y-61053152D02*
X130531076Y-61053152D01*
X130531076Y-61053152D02*
X130435838Y-61100771D01*
X130435838Y-61100771D02*
X130388219Y-61148390D01*
X130388219Y-61148390D02*
X130340600Y-61243628D01*
X130340600Y-61243628D02*
X130340600Y-61529342D01*
X130340600Y-61529342D02*
X130388219Y-61624580D01*
X130388219Y-61624580D02*
X130435838Y-61672200D01*
X130435838Y-61672200D02*
X130531076Y-61719819D01*
X130531076Y-61719819D02*
X130673933Y-61719819D01*
X129483457Y-61053152D02*
X129483457Y-61719819D01*
X129912028Y-61053152D02*
X129912028Y-61576961D01*
X129912028Y-61576961D02*
X129864409Y-61672200D01*
X129864409Y-61672200D02*
X129769171Y-61719819D01*
X129769171Y-61719819D02*
X129626314Y-61719819D01*
X129626314Y-61719819D02*
X129531076Y-61672200D01*
X129531076Y-61672200D02*
X129483457Y-61624580D01*
X112141792Y-74069819D02*
X112475125Y-73593628D01*
X112713220Y-74069819D02*
X112713220Y-73069819D01*
X112713220Y-73069819D02*
X112332268Y-73069819D01*
X112332268Y-73069819D02*
X112237030Y-73117438D01*
X112237030Y-73117438D02*
X112189411Y-73165057D01*
X112189411Y-73165057D02*
X112141792Y-73260295D01*
X112141792Y-73260295D02*
X112141792Y-73403152D01*
X112141792Y-73403152D02*
X112189411Y-73498390D01*
X112189411Y-73498390D02*
X112237030Y-73546009D01*
X112237030Y-73546009D02*
X112332268Y-73593628D01*
X112332268Y-73593628D02*
X112713220Y-73593628D01*
X111808458Y-73069819D02*
X111141792Y-74069819D01*
X111141792Y-73069819D02*
X111808458Y-74069819D01*
X110998935Y-74165057D02*
X110237030Y-74165057D01*
X109998934Y-74069819D02*
X109998934Y-73069819D01*
X109998934Y-73069819D02*
X109427506Y-74069819D01*
X109427506Y-74069819D02*
X109427506Y-73069819D01*
X155663220Y-74369819D02*
X155663220Y-75179342D01*
X155663220Y-75179342D02*
X155615601Y-75274580D01*
X155615601Y-75274580D02*
X155567982Y-75322200D01*
X155567982Y-75322200D02*
X155472744Y-75369819D01*
X155472744Y-75369819D02*
X155282268Y-75369819D01*
X155282268Y-75369819D02*
X155187030Y-75322200D01*
X155187030Y-75322200D02*
X155139411Y-75274580D01*
X155139411Y-75274580D02*
X155091792Y-75179342D01*
X155091792Y-75179342D02*
X155091792Y-74369819D01*
X154663220Y-75322200D02*
X154520363Y-75369819D01*
X154520363Y-75369819D02*
X154282268Y-75369819D01*
X154282268Y-75369819D02*
X154187030Y-75322200D01*
X154187030Y-75322200D02*
X154139411Y-75274580D01*
X154139411Y-75274580D02*
X154091792Y-75179342D01*
X154091792Y-75179342D02*
X154091792Y-75084104D01*
X154091792Y-75084104D02*
X154139411Y-74988866D01*
X154139411Y-74988866D02*
X154187030Y-74941247D01*
X154187030Y-74941247D02*
X154282268Y-74893628D01*
X154282268Y-74893628D02*
X154472744Y-74846009D01*
X154472744Y-74846009D02*
X154567982Y-74798390D01*
X154567982Y-74798390D02*
X154615601Y-74750771D01*
X154615601Y-74750771D02*
X154663220Y-74655533D01*
X154663220Y-74655533D02*
X154663220Y-74560295D01*
X154663220Y-74560295D02*
X154615601Y-74465057D01*
X154615601Y-74465057D02*
X154567982Y-74417438D01*
X154567982Y-74417438D02*
X154472744Y-74369819D01*
X154472744Y-74369819D02*
X154234649Y-74369819D01*
X154234649Y-74369819D02*
X154091792Y-74417438D01*
X153329887Y-74846009D02*
X153187030Y-74893628D01*
X153187030Y-74893628D02*
X153139411Y-74941247D01*
X153139411Y-74941247D02*
X153091792Y-75036485D01*
X153091792Y-75036485D02*
X153091792Y-75179342D01*
X153091792Y-75179342D02*
X153139411Y-75274580D01*
X153139411Y-75274580D02*
X153187030Y-75322200D01*
X153187030Y-75322200D02*
X153282268Y-75369819D01*
X153282268Y-75369819D02*
X153663220Y-75369819D01*
X153663220Y-75369819D02*
X153663220Y-74369819D01*
X153663220Y-74369819D02*
X153329887Y-74369819D01*
X153329887Y-74369819D02*
X153234649Y-74417438D01*
X153234649Y-74417438D02*
X153187030Y-74465057D01*
X153187030Y-74465057D02*
X153139411Y-74560295D01*
X153139411Y-74560295D02*
X153139411Y-74655533D01*
X153139411Y-74655533D02*
X153187030Y-74750771D01*
X153187030Y-74750771D02*
X153234649Y-74798390D01*
X153234649Y-74798390D02*
X153329887Y-74846009D01*
X153329887Y-74846009D02*
X153663220Y-74846009D01*
X152901316Y-75465057D02*
X152139411Y-75465057D01*
X151425125Y-74369819D02*
X151901315Y-74369819D01*
X151901315Y-74369819D02*
X151948934Y-74846009D01*
X151948934Y-74846009D02*
X151901315Y-74798390D01*
X151901315Y-74798390D02*
X151806077Y-74750771D01*
X151806077Y-74750771D02*
X151567982Y-74750771D01*
X151567982Y-74750771D02*
X151472744Y-74798390D01*
X151472744Y-74798390D02*
X151425125Y-74846009D01*
X151425125Y-74846009D02*
X151377506Y-74941247D01*
X151377506Y-74941247D02*
X151377506Y-75179342D01*
X151377506Y-75179342D02*
X151425125Y-75274580D01*
X151425125Y-75274580D02*
X151472744Y-75322200D01*
X151472744Y-75322200D02*
X151567982Y-75369819D01*
X151567982Y-75369819D02*
X151806077Y-75369819D01*
X151806077Y-75369819D02*
X151901315Y-75322200D01*
X151901315Y-75322200D02*
X151948934Y-75274580D01*
X151091791Y-74369819D02*
X150758458Y-75369819D01*
X150758458Y-75369819D02*
X150425125Y-74369819D01*
X155663220Y-73069819D02*
X155663220Y-73879342D01*
X155663220Y-73879342D02*
X155615601Y-73974580D01*
X155615601Y-73974580D02*
X155567982Y-74022200D01*
X155567982Y-74022200D02*
X155472744Y-74069819D01*
X155472744Y-74069819D02*
X155282268Y-74069819D01*
X155282268Y-74069819D02*
X155187030Y-74022200D01*
X155187030Y-74022200D02*
X155139411Y-73974580D01*
X155139411Y-73974580D02*
X155091792Y-73879342D01*
X155091792Y-73879342D02*
X155091792Y-73069819D01*
X154663220Y-74022200D02*
X154520363Y-74069819D01*
X154520363Y-74069819D02*
X154282268Y-74069819D01*
X154282268Y-74069819D02*
X154187030Y-74022200D01*
X154187030Y-74022200D02*
X154139411Y-73974580D01*
X154139411Y-73974580D02*
X154091792Y-73879342D01*
X154091792Y-73879342D02*
X154091792Y-73784104D01*
X154091792Y-73784104D02*
X154139411Y-73688866D01*
X154139411Y-73688866D02*
X154187030Y-73641247D01*
X154187030Y-73641247D02*
X154282268Y-73593628D01*
X154282268Y-73593628D02*
X154472744Y-73546009D01*
X154472744Y-73546009D02*
X154567982Y-73498390D01*
X154567982Y-73498390D02*
X154615601Y-73450771D01*
X154615601Y-73450771D02*
X154663220Y-73355533D01*
X154663220Y-73355533D02*
X154663220Y-73260295D01*
X154663220Y-73260295D02*
X154615601Y-73165057D01*
X154615601Y-73165057D02*
X154567982Y-73117438D01*
X154567982Y-73117438D02*
X154472744Y-73069819D01*
X154472744Y-73069819D02*
X154234649Y-73069819D01*
X154234649Y-73069819D02*
X154091792Y-73117438D01*
X153329887Y-73546009D02*
X153187030Y-73593628D01*
X153187030Y-73593628D02*
X153139411Y-73641247D01*
X153139411Y-73641247D02*
X153091792Y-73736485D01*
X153091792Y-73736485D02*
X153091792Y-73879342D01*
X153091792Y-73879342D02*
X153139411Y-73974580D01*
X153139411Y-73974580D02*
X153187030Y-74022200D01*
X153187030Y-74022200D02*
X153282268Y-74069819D01*
X153282268Y-74069819D02*
X153663220Y-74069819D01*
X153663220Y-74069819D02*
X153663220Y-73069819D01*
X153663220Y-73069819D02*
X153329887Y-73069819D01*
X153329887Y-73069819D02*
X153234649Y-73117438D01*
X153234649Y-73117438D02*
X153187030Y-73165057D01*
X153187030Y-73165057D02*
X153139411Y-73260295D01*
X153139411Y-73260295D02*
X153139411Y-73355533D01*
X153139411Y-73355533D02*
X153187030Y-73450771D01*
X153187030Y-73450771D02*
X153234649Y-73498390D01*
X153234649Y-73498390D02*
X153329887Y-73546009D01*
X153329887Y-73546009D02*
X153663220Y-73546009D01*
X152901316Y-74165057D02*
X152139411Y-74165057D01*
X151901315Y-74069819D02*
X151901315Y-73069819D01*
X151901315Y-73069819D02*
X151663220Y-73069819D01*
X151663220Y-73069819D02*
X151520363Y-73117438D01*
X151520363Y-73117438D02*
X151425125Y-73212676D01*
X151425125Y-73212676D02*
X151377506Y-73307914D01*
X151377506Y-73307914D02*
X151329887Y-73498390D01*
X151329887Y-73498390D02*
X151329887Y-73641247D01*
X151329887Y-73641247D02*
X151377506Y-73831723D01*
X151377506Y-73831723D02*
X151425125Y-73926961D01*
X151425125Y-73926961D02*
X151520363Y-74022200D01*
X151520363Y-74022200D02*
X151663220Y-74069819D01*
X151663220Y-74069819D02*
X151901315Y-74069819D01*
X151139411Y-74165057D02*
X150377506Y-74165057D01*
X150139410Y-74069819D02*
X150139410Y-73069819D01*
X150139410Y-73069819D02*
X149567982Y-74069819D01*
X149567982Y-74069819D02*
X149567982Y-73069819D01*
X117631077Y-74369819D02*
X117059649Y-74369819D01*
X117345363Y-75369819D02*
X117345363Y-74369819D01*
X116821553Y-74369819D02*
X116154887Y-75369819D01*
X116154887Y-74369819D02*
X116821553Y-75369819D01*
X116012030Y-75465057D02*
X115250125Y-75465057D01*
X115012029Y-75369819D02*
X115012029Y-74369819D01*
X115012029Y-74369819D02*
X114631077Y-74369819D01*
X114631077Y-74369819D02*
X114535839Y-74417438D01*
X114535839Y-74417438D02*
X114488220Y-74465057D01*
X114488220Y-74465057D02*
X114440601Y-74560295D01*
X114440601Y-74560295D02*
X114440601Y-74703152D01*
X114440601Y-74703152D02*
X114488220Y-74798390D01*
X114488220Y-74798390D02*
X114535839Y-74846009D01*
X114535839Y-74846009D02*
X114631077Y-74893628D01*
X114631077Y-74893628D02*
X115012029Y-74893628D01*
X112141792Y-75369819D02*
X112475125Y-74893628D01*
X112713220Y-75369819D02*
X112713220Y-74369819D01*
X112713220Y-74369819D02*
X112332268Y-74369819D01*
X112332268Y-74369819D02*
X112237030Y-74417438D01*
X112237030Y-74417438D02*
X112189411Y-74465057D01*
X112189411Y-74465057D02*
X112141792Y-74560295D01*
X112141792Y-74560295D02*
X112141792Y-74703152D01*
X112141792Y-74703152D02*
X112189411Y-74798390D01*
X112189411Y-74798390D02*
X112237030Y-74846009D01*
X112237030Y-74846009D02*
X112332268Y-74893628D01*
X112332268Y-74893628D02*
X112713220Y-74893628D01*
X111808458Y-74369819D02*
X111141792Y-75369819D01*
X111141792Y-74369819D02*
X111808458Y-75369819D01*
X110998935Y-75465057D02*
X110237030Y-75465057D01*
X109998934Y-75369819D02*
X109998934Y-74369819D01*
X109998934Y-74369819D02*
X109617982Y-74369819D01*
X109617982Y-74369819D02*
X109522744Y-74417438D01*
X109522744Y-74417438D02*
X109475125Y-74465057D01*
X109475125Y-74465057D02*
X109427506Y-74560295D01*
X109427506Y-74560295D02*
X109427506Y-74703152D01*
X109427506Y-74703152D02*
X109475125Y-74798390D01*
X109475125Y-74798390D02*
X109522744Y-74846009D01*
X109522744Y-74846009D02*
X109617982Y-74893628D01*
X109617982Y-74893628D02*
X109998934Y-74893628D01*
X148463220Y-73119819D02*
X148463220Y-73929342D01*
X148463220Y-73929342D02*
X148415601Y-74024580D01*
X148415601Y-74024580D02*
X148367982Y-74072200D01*
X148367982Y-74072200D02*
X148272744Y-74119819D01*
X148272744Y-74119819D02*
X148082268Y-74119819D01*
X148082268Y-74119819D02*
X147987030Y-74072200D01*
X147987030Y-74072200D02*
X147939411Y-74024580D01*
X147939411Y-74024580D02*
X147891792Y-73929342D01*
X147891792Y-73929342D02*
X147891792Y-73119819D01*
X147463220Y-74072200D02*
X147320363Y-74119819D01*
X147320363Y-74119819D02*
X147082268Y-74119819D01*
X147082268Y-74119819D02*
X146987030Y-74072200D01*
X146987030Y-74072200D02*
X146939411Y-74024580D01*
X146939411Y-74024580D02*
X146891792Y-73929342D01*
X146891792Y-73929342D02*
X146891792Y-73834104D01*
X146891792Y-73834104D02*
X146939411Y-73738866D01*
X146939411Y-73738866D02*
X146987030Y-73691247D01*
X146987030Y-73691247D02*
X147082268Y-73643628D01*
X147082268Y-73643628D02*
X147272744Y-73596009D01*
X147272744Y-73596009D02*
X147367982Y-73548390D01*
X147367982Y-73548390D02*
X147415601Y-73500771D01*
X147415601Y-73500771D02*
X147463220Y-73405533D01*
X147463220Y-73405533D02*
X147463220Y-73310295D01*
X147463220Y-73310295D02*
X147415601Y-73215057D01*
X147415601Y-73215057D02*
X147367982Y-73167438D01*
X147367982Y-73167438D02*
X147272744Y-73119819D01*
X147272744Y-73119819D02*
X147034649Y-73119819D01*
X147034649Y-73119819D02*
X146891792Y-73167438D01*
X146129887Y-73596009D02*
X145987030Y-73643628D01*
X145987030Y-73643628D02*
X145939411Y-73691247D01*
X145939411Y-73691247D02*
X145891792Y-73786485D01*
X145891792Y-73786485D02*
X145891792Y-73929342D01*
X145891792Y-73929342D02*
X145939411Y-74024580D01*
X145939411Y-74024580D02*
X145987030Y-74072200D01*
X145987030Y-74072200D02*
X146082268Y-74119819D01*
X146082268Y-74119819D02*
X146463220Y-74119819D01*
X146463220Y-74119819D02*
X146463220Y-73119819D01*
X146463220Y-73119819D02*
X146129887Y-73119819D01*
X146129887Y-73119819D02*
X146034649Y-73167438D01*
X146034649Y-73167438D02*
X145987030Y-73215057D01*
X145987030Y-73215057D02*
X145939411Y-73310295D01*
X145939411Y-73310295D02*
X145939411Y-73405533D01*
X145939411Y-73405533D02*
X145987030Y-73500771D01*
X145987030Y-73500771D02*
X146034649Y-73548390D01*
X146034649Y-73548390D02*
X146129887Y-73596009D01*
X146129887Y-73596009D02*
X146463220Y-73596009D01*
X145701316Y-74215057D02*
X144939411Y-74215057D01*
X144701315Y-74119819D02*
X144701315Y-73119819D01*
X144701315Y-73119819D02*
X144463220Y-73119819D01*
X144463220Y-73119819D02*
X144320363Y-73167438D01*
X144320363Y-73167438D02*
X144225125Y-73262676D01*
X144225125Y-73262676D02*
X144177506Y-73357914D01*
X144177506Y-73357914D02*
X144129887Y-73548390D01*
X144129887Y-73548390D02*
X144129887Y-73691247D01*
X144129887Y-73691247D02*
X144177506Y-73881723D01*
X144177506Y-73881723D02*
X144225125Y-73976961D01*
X144225125Y-73976961D02*
X144320363Y-74072200D01*
X144320363Y-74072200D02*
X144463220Y-74119819D01*
X144463220Y-74119819D02*
X144701315Y-74119819D01*
X143939411Y-74215057D02*
X143177506Y-74215057D01*
X142939410Y-74119819D02*
X142939410Y-73119819D01*
X142939410Y-73119819D02*
X142558458Y-73119819D01*
X142558458Y-73119819D02*
X142463220Y-73167438D01*
X142463220Y-73167438D02*
X142415601Y-73215057D01*
X142415601Y-73215057D02*
X142367982Y-73310295D01*
X142367982Y-73310295D02*
X142367982Y-73453152D01*
X142367982Y-73453152D02*
X142415601Y-73548390D01*
X142415601Y-73548390D02*
X142463220Y-73596009D01*
X142463220Y-73596009D02*
X142558458Y-73643628D01*
X142558458Y-73643628D02*
X142939410Y-73643628D01*
X117731077Y-73094819D02*
X117159649Y-73094819D01*
X117445363Y-74094819D02*
X117445363Y-73094819D01*
X116921553Y-73094819D02*
X116254887Y-74094819D01*
X116254887Y-73094819D02*
X116921553Y-74094819D01*
X116112030Y-74190057D02*
X115350125Y-74190057D01*
X115112029Y-74094819D02*
X115112029Y-73094819D01*
X115112029Y-73094819D02*
X114540601Y-74094819D01*
X114540601Y-74094819D02*
X114540601Y-73094819D01*
D11*
X121346100Y-71500000D02*
G75*
G02*
X120584100Y-71500000I-381000J0D01*
G01*
X120584100Y-71500000D02*
G75*
G02*
X121346100Y-71500000I381000J0D01*
G01*
%LPC*%
D12*
X125880000Y-71500000D03*
X127150000Y-68960000D03*
X128420000Y-71500000D03*
X129690000Y-68960000D03*
X130960000Y-71500000D03*
X132230000Y-68960000D03*
X133500000Y-71500000D03*
X134770000Y-68960000D03*
X136040000Y-71500000D03*
X137310000Y-68960000D03*
D13*
X150500000Y-67500000D03*
D14*
X149875000Y-65550000D03*
X147100000Y-67500000D03*
X147725000Y-65550000D03*
D15*
X112100000Y-67500000D03*
X112725000Y-65550000D03*
X115500000Y-67500000D03*
X114875000Y-65550000D03*
%LPD*%
M02*
