G04 #@! TF.GenerationSoftware,KiCad,Pcbnew,9.0.4*
G04 #@! TF.CreationDate,2025-10-29T22:07:03-04:00*
G04 #@! TF.ProjectId,main_board_peripheral_v1,6d61696e-5f62-46f6-9172-645f70657269,rev?*
G04 #@! TF.SameCoordinates,Original*
G04 #@! TF.FileFunction,Copper,L1,Top*
G04 #@! TF.FilePolarity,Positive*
%FSLAX46Y46*%
G04 Gerber Fmt 4.6, Leading zero omitted, Abs format (unit mm)*
G04 Created by KiCad (PCBNEW 9.0.4) date 2025-10-29 22:07:03*
%MOMM*%
%LPD*%
G01*
G04 APERTURE LIST*
G04 Aperture macros list*
%AMRoundRect*
0 Rectangle with rounded corners*
0 $1 Rounding radius*
0 $2 $3 $4 $5 $6 $7 $8 $9 X,Y pos of 4 corners*
0 Add a 4 corners polygon primitive as box body*
4,1,4,$2,$3,$4,$5,$6,$7,$8,$9,$2,$3,0*
0 Add four circle primitives for the rounded corners*
1,1,$1+$1,$2,$3*
1,1,$1+$1,$4,$5*
1,1,$1+$1,$6,$7*
1,1,$1+$1,$8,$9*
0 Add four rect primitives between the rounded corners*
20,1,$1+$1,$2,$3,$4,$5,0*
20,1,$1+$1,$4,$5,$6,$7,0*
20,1,$1+$1,$6,$7,$8,$9,0*
20,1,$1+$1,$8,$9,$2,$3,0*%
G04 Aperture macros list end*
G04 #@! TA.AperFunction,SMDPad,CuDef*
%ADD10RoundRect,0.225000X-0.525000X-0.225000X0.525000X-0.225000X0.525000X0.225000X-0.525000X0.225000X0*%
G04 #@! TD*
G04 #@! TA.AperFunction,SMDPad,CuDef*
%ADD11R,1.600000X1.000000*%
G04 #@! TD*
G04 #@! TA.AperFunction,ComponentPad*
%ADD12R,1.300000X1.300000*%
G04 #@! TD*
G04 #@! TA.AperFunction,ComponentPad*
%ADD13C,1.300000*%
G04 #@! TD*
G04 #@! TA.AperFunction,ComponentPad*
%ADD14C,1.381000*%
G04 #@! TD*
G04 #@! TA.AperFunction,ViaPad*
%ADD15C,0.600000*%
G04 #@! TD*
G04 #@! TA.AperFunction,Conductor*
%ADD16C,0.200000*%
G04 #@! TD*
G04 #@! TA.AperFunction,Conductor*
%ADD17C,0.400000*%
G04 #@! TD*
G04 APERTURE END LIST*
D10*
X125900000Y-68587500D03*
X125900000Y-70587500D03*
X125900000Y-72587500D03*
X125900000Y-74587500D03*
X125900000Y-76587500D03*
X133700000Y-69587500D03*
X133700000Y-71587500D03*
X133700000Y-73587500D03*
X133700000Y-75587500D03*
X133700000Y-77587500D03*
D11*
X126650000Y-60975000D03*
X126650000Y-63975000D03*
D12*
X113625000Y-66225000D03*
D13*
X114250000Y-64275000D03*
X117025000Y-66225000D03*
X116400000Y-64275000D03*
D14*
X117125000Y-82050000D03*
X116500000Y-80100000D03*
X113725000Y-82050000D03*
X114350000Y-80100000D03*
D15*
X124600000Y-74600000D03*
X124800000Y-66800000D03*
X123987500Y-75937500D03*
D16*
X124612500Y-74587500D02*
X124600000Y-74600000D01*
X125900000Y-74587500D02*
X124612500Y-74587500D01*
D17*
X113625000Y-66225000D02*
X111875000Y-66225000D01*
X124475000Y-58800000D02*
X126650000Y-60975000D01*
X110525000Y-62075000D02*
X113800000Y-58800000D01*
X110525000Y-64875000D02*
X110525000Y-62075000D01*
X113800000Y-58800000D02*
X124475000Y-58800000D01*
X111875000Y-66225000D02*
X110525000Y-64875000D01*
X116578554Y-69300000D02*
X123500000Y-69300000D01*
X123500000Y-69300000D02*
X124212500Y-68587500D01*
X124212500Y-68587500D02*
X125174000Y-68587500D01*
X115575000Y-65100000D02*
X115575000Y-68296446D01*
X115575000Y-68296446D02*
X116578554Y-69300000D01*
X116400000Y-64275000D02*
X115575000Y-65100000D01*
X115075000Y-68503554D02*
X116371446Y-69800000D01*
X116371446Y-69800000D02*
X123550000Y-69800000D01*
X124337500Y-70587500D02*
X125174000Y-70587500D01*
X114250000Y-64275000D02*
X115075000Y-65100000D01*
X115075000Y-65100000D02*
X115075000Y-68503554D01*
X123550000Y-69800000D02*
X124337500Y-70587500D01*
X135750000Y-79563910D02*
X135750000Y-76525000D01*
X135750000Y-76525000D02*
X134812500Y-75587500D01*
X117125000Y-82050000D02*
X117512500Y-81662500D01*
X117512500Y-81662500D02*
X133651410Y-81662500D01*
X133651410Y-81662500D02*
X135750000Y-79563910D01*
X134812500Y-75587500D02*
X134426000Y-75587500D01*
X118157221Y-81007222D02*
X118242075Y-81092075D01*
X134426000Y-77626000D02*
X134426000Y-77587500D01*
X135105545Y-78305545D02*
X134426000Y-77626000D01*
X116500000Y-80100000D02*
X117250000Y-80100000D01*
X118262500Y-81112500D02*
X119147125Y-81112500D01*
X133423590Y-81112500D02*
X135105545Y-79430545D01*
X117732959Y-80243548D02*
X118100653Y-79875851D01*
X118242075Y-81092075D02*
X118262500Y-81112500D01*
X135105545Y-79430545D02*
X135105545Y-78305545D01*
X117250000Y-80100000D02*
X117393547Y-80243547D01*
X118440065Y-79875852D02*
X118524917Y-79960704D01*
X118524917Y-80300116D02*
X118157220Y-80667810D01*
X119147125Y-81112500D02*
X133423590Y-81112500D01*
X118524917Y-79960704D02*
G75*
G02*
X118524907Y-80300106I-169717J-169696D01*
G01*
X118157220Y-80667810D02*
G75*
G03*
X118157236Y-81007206I169680J-169690D01*
G01*
X118100653Y-79875851D02*
G75*
G02*
X118440106Y-79875810I169747J-169749D01*
G01*
X117393547Y-80243547D02*
G75*
G03*
X117733005Y-80243595I169753J169747D01*
G01*
X134967405Y-73189567D02*
X135052257Y-73274419D01*
X114350000Y-81000000D02*
X114350000Y-80100000D01*
X135875157Y-71942407D02*
X135590988Y-72226577D01*
X136217105Y-73192105D02*
X136375000Y-73350000D01*
X134612500Y-71587500D02*
X134827313Y-71802313D01*
X135251575Y-72565986D02*
X134967405Y-72850156D01*
X135391669Y-73274419D02*
X135675838Y-72990249D01*
X116575000Y-83225000D02*
X114350000Y-81000000D01*
X135166725Y-71802314D02*
X135450893Y-71518143D01*
X135590988Y-72226577D02*
X135421282Y-72396283D01*
X132872212Y-83225000D02*
X116575000Y-83225000D01*
X134426000Y-71587500D02*
X134612500Y-71587500D01*
X135421281Y-72396281D02*
X135251575Y-72565986D01*
X135421282Y-72396283D02*
X135421281Y-72396281D01*
X136100102Y-73075102D02*
X136217105Y-73192105D01*
X136015250Y-72990249D02*
X136100102Y-73075102D01*
X136375000Y-73350000D02*
X136375000Y-79722212D01*
X114350000Y-80100000D02*
X114737500Y-80487500D01*
X136375000Y-79722212D02*
X132872212Y-83225000D01*
X135790305Y-71518143D02*
X135875157Y-71602995D01*
X135052257Y-73274419D02*
G75*
G03*
X135391669Y-73274419I169706J169704D01*
G01*
X134967405Y-72850156D02*
G75*
G03*
X134967366Y-73189605I169695J-169744D01*
G01*
X135675838Y-72990249D02*
G75*
G02*
X136015250Y-72990249I169706J-169704D01*
G01*
X134827313Y-71802313D02*
G75*
G03*
X135166705Y-71802295I169687J169713D01*
G01*
X135450893Y-71518143D02*
G75*
G02*
X135790305Y-71518143I169706J-169708D01*
G01*
X135875157Y-71602995D02*
G75*
G02*
X135875156Y-71942406I-169657J-169705D01*
G01*
X115550000Y-83875000D02*
X133075000Y-83875000D01*
X137000000Y-79950000D02*
X137000000Y-71725000D01*
X134862500Y-69587500D02*
X134426000Y-69587500D01*
X113725000Y-82050000D02*
X115550000Y-83875000D01*
X133075000Y-83875000D02*
X137000000Y-79950000D01*
X137000000Y-71725000D02*
X134862500Y-69587500D01*
X126650000Y-63975000D02*
X126650000Y-64950000D01*
X123987500Y-75937500D02*
X124637500Y-76587500D01*
X126650000Y-64950000D02*
X124800000Y-66800000D01*
X124637500Y-76587500D02*
X125274000Y-76587500D01*
G04 #@! TA.AperFunction,Conductor*
G36*
X116306876Y-65123639D02*
G01*
X116368787Y-65156023D01*
X116403361Y-65216739D01*
X116406116Y-65252563D01*
X116978554Y-65825000D01*
X116972339Y-65825000D01*
X116870606Y-65852259D01*
X116779394Y-65904920D01*
X116704920Y-65979394D01*
X116652259Y-66070606D01*
X116625000Y-66172339D01*
X116625000Y-66178553D01*
X116018808Y-65572361D01*
X116018297Y-65572128D01*
X116017797Y-65571350D01*
X116012491Y-65566044D01*
X116013645Y-65564889D01*
X116006514Y-65553794D01*
X115991016Y-65538475D01*
X115987215Y-65523763D01*
X115980523Y-65513350D01*
X115975500Y-65478415D01*
X115975500Y-65317254D01*
X115995185Y-65250215D01*
X116011810Y-65229582D01*
X116102267Y-65139125D01*
X116163585Y-65105643D01*
X116214135Y-65105192D01*
X116306876Y-65123639D01*
G37*
G04 #@! TD.AperFunction*
G04 #@! TA.AperFunction,Conductor*
G36*
X137717539Y-55145185D02*
G01*
X137763294Y-55197989D01*
X137774500Y-55249500D01*
X137774500Y-90800500D01*
X137754815Y-90867539D01*
X137702011Y-90913294D01*
X137650500Y-90924500D01*
X105799500Y-90924500D01*
X105732461Y-90904815D01*
X105686706Y-90852011D01*
X105675500Y-90800500D01*
X105675500Y-62022273D01*
X110124500Y-62022273D01*
X110124500Y-64822273D01*
X110124500Y-64927727D01*
X110138146Y-64978657D01*
X110151793Y-65029589D01*
X110178012Y-65075000D01*
X110204520Y-65120913D01*
X111554519Y-66470912D01*
X111554520Y-66470913D01*
X111629087Y-66545480D01*
X111720413Y-66598207D01*
X111822273Y-66625500D01*
X111927727Y-66625500D01*
X112650500Y-66625500D01*
X112717539Y-66645185D01*
X112763294Y-66697989D01*
X112774500Y-66749500D01*
X112774500Y-66894752D01*
X112786131Y-66953229D01*
X112786132Y-66953230D01*
X112830447Y-67019552D01*
X112896769Y-67063867D01*
X112896770Y-67063868D01*
X112955247Y-67075499D01*
X112955250Y-67075500D01*
X112955252Y-67075500D01*
X114294750Y-67075500D01*
X114294751Y-67075499D01*
X114309568Y-67072552D01*
X114353229Y-67063868D01*
X114353229Y-67063867D01*
X114353231Y-67063867D01*
X114419552Y-67019552D01*
X114447398Y-66977877D01*
X114501010Y-66933073D01*
X114570335Y-66924366D01*
X114633362Y-66954520D01*
X114670082Y-67013963D01*
X114674500Y-67046769D01*
X114674500Y-68556280D01*
X114701793Y-68658143D01*
X114728156Y-68703804D01*
X114754520Y-68749467D01*
X116050964Y-70045910D01*
X116050966Y-70045913D01*
X116125533Y-70120480D01*
X116155879Y-70138000D01*
X116216859Y-70173207D01*
X116318720Y-70200501D01*
X116318723Y-70200501D01*
X116431769Y-70200501D01*
X116431785Y-70200500D01*
X123332745Y-70200500D01*
X123399784Y-70220185D01*
X123420426Y-70236819D01*
X124091587Y-70907980D01*
X124182912Y-70960707D01*
X124284773Y-70988000D01*
X124390227Y-70988000D01*
X124676000Y-70988000D01*
X124743039Y-71007685D01*
X124788794Y-71060489D01*
X124800000Y-71112000D01*
X124800000Y-73587500D01*
X124825333Y-73587500D01*
X124892372Y-73607185D01*
X124938127Y-73659989D01*
X124948071Y-73729147D01*
X124919046Y-73792703D01*
X124913014Y-73799181D01*
X124802427Y-73909767D01*
X124802424Y-73909771D01*
X124713457Y-74054007D01*
X124713452Y-74054018D01*
X124660144Y-74214893D01*
X124650000Y-74314177D01*
X124650000Y-74860807D01*
X124650001Y-74860823D01*
X124660144Y-74960107D01*
X124713452Y-75120981D01*
X124713457Y-75120992D01*
X124802424Y-75265228D01*
X124802427Y-75265232D01*
X124913014Y-75375819D01*
X124946499Y-75437142D01*
X124941515Y-75506834D01*
X124899643Y-75562767D01*
X124834179Y-75587184D01*
X124825333Y-75587500D01*
X124800000Y-75587500D01*
X124800000Y-75884245D01*
X124793761Y-75905490D01*
X124792182Y-75927579D01*
X124784109Y-75938362D01*
X124780315Y-75951284D01*
X124763581Y-75965783D01*
X124750310Y-75983512D01*
X124737689Y-75988219D01*
X124727511Y-75997039D01*
X124705593Y-76000190D01*
X124684846Y-76007929D01*
X124671685Y-76005066D01*
X124658353Y-76006983D01*
X124638209Y-75997783D01*
X124616573Y-75993077D01*
X124598847Y-75979808D01*
X124594797Y-75977958D01*
X124588319Y-75971926D01*
X124511493Y-75895100D01*
X124479400Y-75839514D01*
X124453892Y-75744314D01*
X124388000Y-75630186D01*
X124294814Y-75537000D01*
X124237750Y-75504054D01*
X124180687Y-75471108D01*
X124086432Y-75445853D01*
X124053392Y-75437000D01*
X123921608Y-75437000D01*
X123794312Y-75471108D01*
X123680186Y-75537000D01*
X123680183Y-75537002D01*
X123587002Y-75630183D01*
X123587000Y-75630186D01*
X123521108Y-75744312D01*
X123487000Y-75871608D01*
X123487000Y-76003391D01*
X123521108Y-76130687D01*
X123551373Y-76183107D01*
X123587000Y-76244814D01*
X123680186Y-76338000D01*
X123794314Y-76403892D01*
X123889514Y-76429400D01*
X123945100Y-76461493D01*
X124391587Y-76907980D01*
X124482912Y-76960707D01*
X124584773Y-76988000D01*
X124676000Y-76988000D01*
X124743039Y-77007685D01*
X124788794Y-77060489D01*
X124800000Y-77112000D01*
X124800000Y-79587500D01*
X134082836Y-79587500D01*
X134149875Y-79607185D01*
X134195630Y-79659989D01*
X134205574Y-79729147D01*
X134176549Y-79792703D01*
X134170519Y-79799178D01*
X133695858Y-80273839D01*
X133294016Y-80675681D01*
X133232693Y-80709166D01*
X133206335Y-80712000D01*
X118970564Y-80712000D01*
X118903525Y-80692315D01*
X118857770Y-80639511D01*
X118847826Y-80570353D01*
X118865570Y-80522028D01*
X118876815Y-80504132D01*
X118935920Y-80410068D01*
X118983591Y-80273839D01*
X118999754Y-80130419D01*
X118983599Y-79986998D01*
X118935937Y-79850766D01*
X118859156Y-79728556D01*
X118845402Y-79714801D01*
X118845397Y-79714791D01*
X118805184Y-79674578D01*
X118805180Y-79674574D01*
X118805179Y-79674572D01*
X118770388Y-79639778D01*
X118770270Y-79639641D01*
X118759884Y-79629260D01*
X118759788Y-79629085D01*
X118718184Y-79587500D01*
X118672195Y-79541531D01*
X118672194Y-79541530D01*
X118672192Y-79541528D01*
X118549981Y-79464773D01*
X118549976Y-79464771D01*
X118481859Y-79440949D01*
X118413737Y-79417126D01*
X118270326Y-79400988D01*
X118270325Y-79400988D01*
X118270324Y-79400988D01*
X118270323Y-79400988D01*
X118243930Y-79403964D01*
X118126908Y-79417161D01*
X117990687Y-79464837D01*
X117868484Y-79541627D01*
X117868478Y-79541632D01*
X117648575Y-79761535D01*
X117629218Y-79772104D01*
X117612570Y-79786573D01*
X117599151Y-79788522D01*
X117587252Y-79795020D01*
X117565251Y-79793446D01*
X117543426Y-79796617D01*
X117526143Y-79790649D01*
X117517560Y-79790036D01*
X117509547Y-79786723D01*
X117497748Y-79781355D01*
X117495913Y-79779520D01*
X117404588Y-79726793D01*
X117339436Y-79709336D01*
X117330094Y-79705086D01*
X117311110Y-79688685D01*
X117289687Y-79675627D01*
X117278339Y-79661108D01*
X117192085Y-79532021D01*
X117192082Y-79532017D01*
X117067982Y-79407917D01*
X117067978Y-79407914D01*
X116922053Y-79310409D01*
X116922040Y-79310402D01*
X116759899Y-79243242D01*
X116759889Y-79243239D01*
X116587758Y-79209000D01*
X116587756Y-79209000D01*
X116412244Y-79209000D01*
X116412242Y-79209000D01*
X116240110Y-79243239D01*
X116240100Y-79243242D01*
X116077959Y-79310402D01*
X116077946Y-79310409D01*
X115932021Y-79407914D01*
X115932017Y-79407917D01*
X115807917Y-79532017D01*
X115807914Y-79532021D01*
X115710409Y-79677946D01*
X115710402Y-79677959D01*
X115643242Y-79840100D01*
X115643239Y-79840110D01*
X115609000Y-80012241D01*
X115609000Y-80012244D01*
X115609000Y-80187756D01*
X115609000Y-80187758D01*
X115608999Y-80187758D01*
X115643239Y-80359889D01*
X115643242Y-80359899D01*
X115710402Y-80522040D01*
X115710409Y-80522053D01*
X115807914Y-80667978D01*
X115807917Y-80667982D01*
X115932017Y-80792082D01*
X115932021Y-80792085D01*
X116077946Y-80889590D01*
X116077959Y-80889597D01*
X116237645Y-80955740D01*
X116240105Y-80956759D01*
X116240109Y-80956759D01*
X116240110Y-80956760D01*
X116412241Y-80991000D01*
X116412244Y-80991000D01*
X116587758Y-80991000D01*
X116703564Y-80967963D01*
X116759895Y-80956759D01*
X116922047Y-80889594D01*
X117067979Y-80792085D01*
X117170698Y-80689365D01*
X117232019Y-80655881D01*
X117299341Y-80660008D01*
X117419808Y-80702174D01*
X117563210Y-80718349D01*
X117563211Y-80718348D01*
X117570129Y-80719129D01*
X117569836Y-80721719D01*
X117625394Y-80738033D01*
X117671149Y-80790837D01*
X117679843Y-80830805D01*
X117681574Y-80830610D01*
X117698524Y-80980969D01*
X117698525Y-80980971D01*
X117739149Y-81097036D01*
X117740654Y-81126473D01*
X117744849Y-81155647D01*
X117742418Y-81160969D01*
X117742717Y-81166814D01*
X117728068Y-81192390D01*
X117715824Y-81219203D01*
X117710900Y-81222366D01*
X117707993Y-81227444D01*
X117681843Y-81241040D01*
X117657046Y-81256977D01*
X117648958Y-81258139D01*
X117646002Y-81259677D01*
X117622111Y-81262000D01*
X117575561Y-81262000D01*
X117528109Y-81252561D01*
X117384899Y-81193242D01*
X117384889Y-81193239D01*
X117212758Y-81159000D01*
X117212756Y-81159000D01*
X117037244Y-81159000D01*
X117037242Y-81159000D01*
X116865110Y-81193239D01*
X116865100Y-81193242D01*
X116702959Y-81260402D01*
X116702946Y-81260409D01*
X116557021Y-81357914D01*
X116557017Y-81357917D01*
X116432917Y-81482017D01*
X116432914Y-81482021D01*
X116335409Y-81627946D01*
X116335402Y-81627959D01*
X116268242Y-81790100D01*
X116268239Y-81790110D01*
X116234000Y-81962241D01*
X116234000Y-82018245D01*
X116214315Y-82085284D01*
X116161511Y-82131039D01*
X116092353Y-82140983D01*
X116028797Y-82111958D01*
X116022319Y-82105926D01*
X114933456Y-81017063D01*
X114899971Y-80955740D01*
X114904955Y-80886048D01*
X114946827Y-80830115D01*
X114959130Y-80821999D01*
X114983413Y-80807980D01*
X115057980Y-80733413D01*
X115110707Y-80642088D01*
X115138001Y-80540227D01*
X115138001Y-80540212D01*
X115138635Y-80535403D01*
X115147012Y-80504135D01*
X115206759Y-80359895D01*
X115239377Y-80195915D01*
X115241000Y-80187758D01*
X115241000Y-80012241D01*
X115206760Y-79840110D01*
X115206759Y-79840109D01*
X115206759Y-79840105D01*
X115188746Y-79796617D01*
X115139597Y-79677959D01*
X115139590Y-79677946D01*
X115042085Y-79532021D01*
X115042082Y-79532017D01*
X114917982Y-79407917D01*
X114917978Y-79407914D01*
X114772053Y-79310409D01*
X114772040Y-79310402D01*
X114609899Y-79243242D01*
X114609889Y-79243239D01*
X114437758Y-79209000D01*
X114437756Y-79209000D01*
X114262244Y-79209000D01*
X114262242Y-79209000D01*
X114090110Y-79243239D01*
X114090100Y-79243242D01*
X113927959Y-79310402D01*
X113927946Y-79310409D01*
X113782021Y-79407914D01*
X113782017Y-79407917D01*
X113657917Y-79532017D01*
X113657914Y-79532021D01*
X113560409Y-79677946D01*
X113560402Y-79677959D01*
X113493242Y-79840100D01*
X113493239Y-79840110D01*
X113459000Y-80012241D01*
X113459000Y-80012244D01*
X113459000Y-80187756D01*
X113459000Y-80187758D01*
X113458999Y-80187758D01*
X113493239Y-80359889D01*
X113493242Y-80359899D01*
X113560402Y-80522040D01*
X113560409Y-80522053D01*
X113657914Y-80667978D01*
X113657917Y-80667982D01*
X113782017Y-80792082D01*
X113782025Y-80792088D01*
X113894390Y-80867168D01*
X113899480Y-80873258D01*
X113906703Y-80876557D01*
X113921567Y-80899687D01*
X113939196Y-80920780D01*
X113941147Y-80930154D01*
X113944477Y-80935335D01*
X113949500Y-80970270D01*
X113949500Y-81035655D01*
X113929815Y-81102694D01*
X113877011Y-81148449D01*
X113818848Y-81158141D01*
X113818848Y-81159000D01*
X113813697Y-81159000D01*
X113813349Y-81159058D01*
X113812760Y-81159000D01*
X113812756Y-81159000D01*
X113637244Y-81159000D01*
X113637242Y-81159000D01*
X113465110Y-81193239D01*
X113465100Y-81193242D01*
X113302959Y-81260402D01*
X113302946Y-81260409D01*
X113157021Y-81357914D01*
X113157017Y-81357917D01*
X113032917Y-81482017D01*
X113032914Y-81482021D01*
X112935409Y-81627946D01*
X112935402Y-81627959D01*
X112868242Y-81790100D01*
X112868239Y-81790110D01*
X112834000Y-81962241D01*
X112834000Y-81962244D01*
X112834000Y-82137756D01*
X112834000Y-82137758D01*
X112833999Y-82137758D01*
X112868239Y-82309889D01*
X112868242Y-82309899D01*
X112935402Y-82472040D01*
X112935409Y-82472053D01*
X113032914Y-82617978D01*
X113032917Y-82617982D01*
X113157017Y-82742082D01*
X113157021Y-82742085D01*
X113302946Y-82839590D01*
X113302959Y-82839597D01*
X113443558Y-82897834D01*
X113465105Y-82906759D01*
X113465109Y-82906759D01*
X113465110Y-82906760D01*
X113637241Y-82941000D01*
X113637244Y-82941000D01*
X113812758Y-82941000D01*
X113914000Y-82920861D01*
X113945304Y-82914634D01*
X114014896Y-82920861D01*
X114057177Y-82948570D01*
X115229518Y-84120910D01*
X115229520Y-84120913D01*
X115304087Y-84195480D01*
X115349750Y-84221843D01*
X115395412Y-84248207D01*
X115497273Y-84275501D01*
X115497276Y-84275501D01*
X115610323Y-84275501D01*
X115610339Y-84275500D01*
X133127725Y-84275500D01*
X133127727Y-84275500D01*
X133229588Y-84248207D01*
X133320913Y-84195480D01*
X137320480Y-80195913D01*
X137373207Y-80104588D01*
X137400500Y-80002727D01*
X137400500Y-79897273D01*
X137400500Y-71672273D01*
X137373207Y-71570413D01*
X137320480Y-71479087D01*
X137245913Y-71404520D01*
X135108413Y-69267020D01*
X135062750Y-69240656D01*
X135017089Y-69214293D01*
X134915227Y-69187000D01*
X134907812Y-69186024D01*
X134843916Y-69157756D01*
X134805446Y-69099431D01*
X134800000Y-69063085D01*
X134800000Y-66587500D01*
X125878255Y-66587500D01*
X125811216Y-66567815D01*
X125765461Y-66515011D01*
X125755517Y-66445853D01*
X125784542Y-66382297D01*
X125790574Y-66375819D01*
X126378212Y-65788181D01*
X126970480Y-65195913D01*
X127023207Y-65104588D01*
X127050500Y-65002727D01*
X127050500Y-64897273D01*
X127050500Y-64799500D01*
X127070185Y-64732461D01*
X127122989Y-64686706D01*
X127174500Y-64675500D01*
X127469750Y-64675500D01*
X127469751Y-64675499D01*
X127484568Y-64672552D01*
X127528229Y-64663868D01*
X127528229Y-64663867D01*
X127528231Y-64663867D01*
X127594552Y-64619552D01*
X127638867Y-64553231D01*
X127638867Y-64553229D01*
X127638868Y-64553229D01*
X127650499Y-64494752D01*
X127650500Y-64494750D01*
X127650500Y-63455249D01*
X127650499Y-63455247D01*
X127638868Y-63396770D01*
X127638867Y-63396769D01*
X127594552Y-63330447D01*
X127528230Y-63286132D01*
X127528229Y-63286131D01*
X127469752Y-63274500D01*
X127469748Y-63274500D01*
X125830252Y-63274500D01*
X125830247Y-63274500D01*
X125771770Y-63286131D01*
X125771769Y-63286132D01*
X125705447Y-63330447D01*
X125661132Y-63396769D01*
X125661131Y-63396770D01*
X125649500Y-63455247D01*
X125649500Y-64494752D01*
X125661131Y-64553229D01*
X125661132Y-64553230D01*
X125705447Y-64619552D01*
X125771769Y-64663867D01*
X125771770Y-64663868D01*
X125830247Y-64675499D01*
X125830250Y-64675500D01*
X125830252Y-64675500D01*
X126058745Y-64675500D01*
X126125784Y-64695185D01*
X126171539Y-64747989D01*
X126181483Y-64817147D01*
X126152458Y-64880703D01*
X126146426Y-64887181D01*
X124757600Y-66276005D01*
X124702014Y-66308098D01*
X124606815Y-66333607D01*
X124606814Y-66333607D01*
X124492686Y-66399500D01*
X124492683Y-66399502D01*
X124399502Y-66492683D01*
X124399500Y-66492686D01*
X124333608Y-66606812D01*
X124299500Y-66734108D01*
X124299500Y-66865891D01*
X124333608Y-66993187D01*
X124348830Y-67019552D01*
X124399500Y-67107314D01*
X124492686Y-67200500D01*
X124606814Y-67266392D01*
X124708095Y-67293529D01*
X124767753Y-67329892D01*
X124798283Y-67392739D01*
X124800000Y-67413303D01*
X124800000Y-68063000D01*
X124780315Y-68130039D01*
X124727511Y-68175794D01*
X124676000Y-68187000D01*
X124159773Y-68187000D01*
X124057910Y-68214293D01*
X123966587Y-68267020D01*
X123966584Y-68267022D01*
X123370426Y-68863181D01*
X123309103Y-68896666D01*
X123282745Y-68899500D01*
X116795808Y-68899500D01*
X116728769Y-68879815D01*
X116708127Y-68863181D01*
X116011819Y-68166872D01*
X115978334Y-68105549D01*
X115975500Y-68079191D01*
X115975500Y-66971583D01*
X115995185Y-66904544D01*
X116015488Y-66886951D01*
X116012492Y-66883955D01*
X116625000Y-66271447D01*
X116625000Y-66277661D01*
X116652259Y-66379394D01*
X116704920Y-66470606D01*
X116779394Y-66545080D01*
X116870606Y-66597741D01*
X116972339Y-66625000D01*
X116978553Y-66625000D01*
X116406466Y-67197085D01*
X116406466Y-67197086D01*
X116422267Y-67208566D01*
X116422275Y-67208571D01*
X116583552Y-67290747D01*
X116583555Y-67290748D01*
X116755706Y-67346682D01*
X116934494Y-67375000D01*
X117115506Y-67375000D01*
X117294293Y-67346682D01*
X117466444Y-67290748D01*
X117466452Y-67290745D01*
X117627730Y-67208568D01*
X117643532Y-67197085D01*
X117643533Y-67197085D01*
X117071448Y-66625000D01*
X117077661Y-66625000D01*
X117179394Y-66597741D01*
X117270606Y-66545080D01*
X117345080Y-66470606D01*
X117397741Y-66379394D01*
X117425000Y-66277661D01*
X117425000Y-66271448D01*
X117997085Y-66843533D01*
X117997085Y-66843532D01*
X118008568Y-66827730D01*
X118090745Y-66666452D01*
X118090748Y-66666444D01*
X118146682Y-66494293D01*
X118175000Y-66315506D01*
X118175000Y-66134493D01*
X118146682Y-65955706D01*
X118090748Y-65783555D01*
X118090747Y-65783552D01*
X118008571Y-65622275D01*
X118008566Y-65622267D01*
X117997085Y-65606466D01*
X117425000Y-66178551D01*
X117425000Y-66172339D01*
X117397741Y-66070606D01*
X117345080Y-65979394D01*
X117270606Y-65904920D01*
X117179394Y-65852259D01*
X117077661Y-65825000D01*
X117071447Y-65825000D01*
X117643533Y-65252913D01*
X117627730Y-65241431D01*
X117466447Y-65159252D01*
X117466444Y-65159251D01*
X117294293Y-65103317D01*
X117115506Y-65075000D01*
X117102151Y-65075000D01*
X117035112Y-65055315D01*
X116989357Y-65002511D01*
X116979413Y-64933353D01*
X117008438Y-64869797D01*
X117014470Y-64863319D01*
X117060623Y-64817165D01*
X117060626Y-64817162D01*
X117072427Y-64799500D01*
X117153703Y-64677863D01*
X117217816Y-64523082D01*
X117250500Y-64358767D01*
X117250500Y-64191233D01*
X117217816Y-64026918D01*
X117153703Y-63872137D01*
X117122537Y-63825494D01*
X117060626Y-63732837D01*
X116942162Y-63614373D01*
X116802860Y-63521295D01*
X116648082Y-63457184D01*
X116648074Y-63457182D01*
X116483771Y-63424500D01*
X116483767Y-63424500D01*
X116316233Y-63424500D01*
X116316228Y-63424500D01*
X116151925Y-63457182D01*
X116151917Y-63457184D01*
X115997139Y-63521295D01*
X115857837Y-63614373D01*
X115739373Y-63732837D01*
X115646295Y-63872139D01*
X115582184Y-64026917D01*
X115582182Y-64026925D01*
X115549500Y-64191228D01*
X115549500Y-64358771D01*
X115569807Y-64460862D01*
X115569099Y-64468768D01*
X115571874Y-64476207D01*
X115566030Y-64503069D01*
X115563580Y-64530454D01*
X115558330Y-64538463D01*
X115557022Y-64544480D01*
X115535871Y-64572734D01*
X115412680Y-64695925D01*
X115351357Y-64729410D01*
X115281665Y-64724426D01*
X115237318Y-64695925D01*
X115114128Y-64572735D01*
X115080643Y-64511412D01*
X115080192Y-64460862D01*
X115100500Y-64358767D01*
X115100500Y-64191233D01*
X115067816Y-64026918D01*
X115003703Y-63872137D01*
X114972537Y-63825494D01*
X114910626Y-63732837D01*
X114792162Y-63614373D01*
X114652860Y-63521295D01*
X114498082Y-63457184D01*
X114498074Y-63457182D01*
X114333771Y-63424500D01*
X114333767Y-63424500D01*
X114166233Y-63424500D01*
X114166228Y-63424500D01*
X114001925Y-63457182D01*
X114001917Y-63457184D01*
X113847139Y-63521295D01*
X113707837Y-63614373D01*
X113589373Y-63732837D01*
X113496295Y-63872139D01*
X113432184Y-64026917D01*
X113432182Y-64026925D01*
X113399500Y-64191228D01*
X113399500Y-64358771D01*
X113432182Y-64523074D01*
X113432184Y-64523082D01*
X113496295Y-64677860D01*
X113589373Y-64817162D01*
X113707837Y-64935626D01*
X113800494Y-64997537D01*
X113847137Y-65028703D01*
X113847138Y-65028703D01*
X113847139Y-65028704D01*
X113849276Y-65029589D01*
X114001918Y-65092816D01*
X114156877Y-65123639D01*
X114166228Y-65125499D01*
X114166232Y-65125500D01*
X114166233Y-65125500D01*
X114333768Y-65125500D01*
X114333768Y-65125499D01*
X114435862Y-65105192D01*
X114443769Y-65105899D01*
X114451208Y-65103125D01*
X114478071Y-65108968D01*
X114505454Y-65111419D01*
X114513463Y-65116667D01*
X114519481Y-65117977D01*
X114547735Y-65139128D01*
X114638181Y-65229574D01*
X114671666Y-65290897D01*
X114674500Y-65317255D01*
X114674500Y-65403230D01*
X114654815Y-65470269D01*
X114602011Y-65516024D01*
X114532853Y-65525968D01*
X114469297Y-65496943D01*
X114447398Y-65472122D01*
X114419551Y-65430446D01*
X114353230Y-65386132D01*
X114353229Y-65386131D01*
X114294752Y-65374500D01*
X114294748Y-65374500D01*
X112955252Y-65374500D01*
X112955247Y-65374500D01*
X112896770Y-65386131D01*
X112896769Y-65386132D01*
X112830447Y-65430447D01*
X112786132Y-65496769D01*
X112786131Y-65496770D01*
X112774500Y-65555247D01*
X112774500Y-65700500D01*
X112754815Y-65767539D01*
X112702011Y-65813294D01*
X112650500Y-65824500D01*
X112092255Y-65824500D01*
X112025216Y-65804815D01*
X112004574Y-65788181D01*
X110961819Y-64745426D01*
X110928334Y-64684103D01*
X110925500Y-64657745D01*
X110925500Y-62292255D01*
X110945185Y-62225216D01*
X110961819Y-62204574D01*
X113929574Y-59236819D01*
X113990897Y-59203334D01*
X114017255Y-59200500D01*
X124257745Y-59200500D01*
X124324784Y-59220185D01*
X124345426Y-59236819D01*
X125613181Y-60504574D01*
X125646666Y-60565897D01*
X125649500Y-60592255D01*
X125649500Y-61494752D01*
X125661131Y-61553229D01*
X125661132Y-61553230D01*
X125705447Y-61619552D01*
X125771769Y-61663867D01*
X125771770Y-61663868D01*
X125830247Y-61675499D01*
X125830250Y-61675500D01*
X125830252Y-61675500D01*
X127469750Y-61675500D01*
X127469751Y-61675499D01*
X127484568Y-61672552D01*
X127528229Y-61663868D01*
X127528229Y-61663867D01*
X127528231Y-61663867D01*
X127594552Y-61619552D01*
X127638867Y-61553231D01*
X127638867Y-61553229D01*
X127638868Y-61553229D01*
X127650499Y-61494752D01*
X127650500Y-61494750D01*
X127650500Y-60455249D01*
X127650499Y-60455247D01*
X127638868Y-60396770D01*
X127638867Y-60396769D01*
X127594552Y-60330447D01*
X127528230Y-60286132D01*
X127528229Y-60286131D01*
X127469752Y-60274500D01*
X127469748Y-60274500D01*
X126567255Y-60274500D01*
X126500216Y-60254815D01*
X126479574Y-60238181D01*
X124720915Y-58479522D01*
X124720913Y-58479520D01*
X124675250Y-58453156D01*
X124629589Y-58426793D01*
X124578657Y-58413146D01*
X124527727Y-58399500D01*
X113747273Y-58399500D01*
X113645413Y-58426793D01*
X113645410Y-58426794D01*
X113554085Y-58479521D01*
X110204522Y-61829084D01*
X110204518Y-61829090D01*
X110151792Y-61920412D01*
X110151793Y-61920413D01*
X110124500Y-62022273D01*
X105675500Y-62022273D01*
X105675500Y-55249500D01*
X105695185Y-55182461D01*
X105747989Y-55136706D01*
X105799500Y-55125500D01*
X137650500Y-55125500D01*
X137717539Y-55145185D01*
G37*
G04 #@! TD.AperFunction*
M02*
