G04 #@! TF.GenerationSoftware,KiCad,Pcbnew,9.0.4*
G04 #@! TF.CreationDate,2025-10-27T14:40:34-04:00*
G04 #@! TF.ProjectId,main_board_peripheral_v1,6d61696e-5f62-46f6-9172-645f70657269,rev?*
G04 #@! TF.SameCoordinates,Original*
G04 #@! TF.FileFunction,Copper,L1,Top*
G04 #@! TF.FilePolarity,Positive*
%FSLAX46Y46*%
G04 Gerber Fmt 4.6, Leading zero omitted, Abs format (unit mm)*
G04 Created by KiCad (PCBNEW 9.0.4) date 2025-10-27 14:40:34*
%MOMM*%
%LPD*%
G01*
G04 APERTURE LIST*
G04 #@! TA.AperFunction,ComponentPad*
%ADD10C,1.397000*%
G04 #@! TD*
G04 #@! TA.AperFunction,ComponentPad*
%ADD11R,1.300000X1.300000*%
G04 #@! TD*
G04 #@! TA.AperFunction,ComponentPad*
%ADD12C,1.300000*%
G04 #@! TD*
G04 #@! TA.AperFunction,ComponentPad*
%ADD13C,1.381000*%
G04 #@! TD*
G04 #@! TA.AperFunction,SMDPad,CuDef*
%ADD14R,1.600000X1.000000*%
G04 #@! TD*
G04 #@! TA.AperFunction,Conductor*
%ADD15C,0.200000*%
G04 #@! TD*
G04 #@! TA.AperFunction,Conductor*
%ADD16C,0.400000*%
G04 #@! TD*
G04 APERTURE END LIST*
D10*
X125880000Y-71500000D03*
X127150000Y-68960000D03*
X128420000Y-71500000D03*
X129690000Y-68960000D03*
X130960000Y-71500000D03*
X132230000Y-68960000D03*
X133500000Y-71500000D03*
X134770000Y-68960000D03*
X136040000Y-71500000D03*
X137310000Y-68960000D03*
D11*
X150500000Y-67500000D03*
D12*
X149875000Y-65550000D03*
X147100000Y-67500000D03*
X147725000Y-65550000D03*
D13*
X112100000Y-67500000D03*
X112725000Y-65550000D03*
X115500000Y-67500000D03*
X114875000Y-65550000D03*
D14*
X138500000Y-62500000D03*
X138500000Y-65500000D03*
D15*
X137990000Y-68280000D02*
X137310000Y-68960000D01*
X138030000Y-68280000D02*
X137990000Y-68280000D01*
D16*
X138030000Y-68280000D02*
X137350000Y-68960000D01*
X129010000Y-68240000D02*
X129690000Y-68920000D01*
X129690000Y-68920000D02*
X129690000Y-68960000D01*
X128420000Y-71500000D02*
X128420000Y-71008094D01*
X128420000Y-71008094D02*
X128460000Y-70968094D01*
X125560000Y-71140000D02*
X125920000Y-71500000D01*
X125225000Y-71140000D02*
X125560000Y-71140000D01*
X125880000Y-71460000D02*
X125560000Y-71140000D01*
X125880000Y-71500000D02*
X125880000Y-71460000D01*
X126587500Y-69522500D02*
X127150000Y-68960000D01*
X126587500Y-69562500D02*
X126587500Y-69522500D01*
X126587500Y-69562500D02*
X127190000Y-68960000D01*
X138500000Y-67810000D02*
X138030000Y-68280000D01*
X138500000Y-65500000D02*
X138500000Y-67810000D01*
X151650000Y-63250000D02*
X149450000Y-61050000D01*
X151650000Y-66350000D02*
X151650000Y-63250000D01*
X139975000Y-61050000D02*
X138525000Y-62500000D01*
X138525000Y-62500000D02*
X138500000Y-62500000D01*
X149450000Y-61050000D02*
X139975000Y-61050000D01*
X150500000Y-67500000D02*
X151650000Y-66350000D01*
X129010000Y-65921090D02*
X126363910Y-63275000D01*
X111525000Y-65900000D02*
X112100000Y-66475000D01*
X129010000Y-68240000D02*
X129010000Y-65921090D01*
X126363910Y-63275000D02*
X113300000Y-63275000D01*
X112100000Y-66475000D02*
X112100000Y-67500000D01*
X129730000Y-68960000D02*
X129010000Y-68240000D01*
X111525000Y-65050000D02*
X111525000Y-65900000D01*
X113300000Y-63275000D02*
X111525000Y-65050000D01*
X128460000Y-66148910D02*
X126136090Y-63825000D01*
X128460000Y-69888094D02*
X128460000Y-69768094D01*
X114450000Y-63825000D02*
X112725000Y-65550000D01*
X129460000Y-70488094D02*
X129460000Y-70368094D01*
X128460000Y-69768094D02*
X128460000Y-69417308D01*
X128460000Y-69417308D02*
X128460000Y-66148910D01*
X126136090Y-63825000D02*
X114450000Y-63825000D01*
X128700000Y-70728094D02*
X129220000Y-70728094D01*
X129220000Y-70128094D02*
X128700000Y-70128094D01*
X128460000Y-71500000D02*
X128460000Y-70968094D01*
X129220000Y-70728094D02*
G75*
G03*
X129459994Y-70488094I0J239994D01*
G01*
X129460000Y-70368094D02*
G75*
G03*
X129220000Y-70128100I-240000J-6D01*
G01*
X128460000Y-70968094D02*
G75*
G02*
X128700000Y-70728100I240000J-6D01*
G01*
X128700000Y-70128094D02*
G75*
G02*
X128460006Y-69888094I0J239994D01*
G01*
X118411090Y-69275000D02*
X120276090Y-71140000D01*
X120276090Y-71140000D02*
X125225000Y-71140000D01*
X114875000Y-65550000D02*
X113300000Y-67125000D01*
X114275000Y-69275000D02*
X118411090Y-69275000D01*
D15*
X125920000Y-70920000D02*
X125920000Y-71500000D01*
D16*
X113300000Y-67125000D02*
X113300000Y-68300000D01*
X113300000Y-68300000D02*
X114275000Y-69275000D01*
X120503910Y-70590000D02*
X124160000Y-70590000D01*
X124160000Y-70590000D02*
X125000000Y-69750000D01*
X126400000Y-69750000D02*
X126587500Y-69562500D01*
X114575000Y-68725000D02*
X118638910Y-68725000D01*
X125000000Y-69750000D02*
X126400000Y-69750000D01*
X114275000Y-68425000D02*
X114575000Y-68725000D01*
X114600000Y-67500000D02*
X114275000Y-67825000D01*
X118638910Y-68725000D02*
X120503910Y-70590000D01*
X114275000Y-67825000D02*
X114275000Y-68425000D01*
X115500000Y-67500000D02*
X114600000Y-67500000D01*
G04 #@! TA.AperFunction,Conductor*
G36*
X157042539Y-57420185D02*
G01*
X157088294Y-57472989D01*
X157099500Y-57524500D01*
X157099500Y-76150500D01*
X157079815Y-76217539D01*
X157027011Y-76263294D01*
X156975500Y-76274500D01*
X104524500Y-76274500D01*
X104457461Y-76254815D01*
X104411706Y-76202011D01*
X104400500Y-76150500D01*
X104400500Y-73078552D01*
X123079400Y-73078552D01*
X123117852Y-73271858D01*
X123117855Y-73271868D01*
X123193278Y-73453957D01*
X123193279Y-73453959D01*
X123302784Y-73617844D01*
X123302787Y-73617848D01*
X123442152Y-73757213D01*
X123442156Y-73757216D01*
X123606039Y-73866720D01*
X123606040Y-73866720D01*
X123606041Y-73866721D01*
X123606043Y-73866722D01*
X123788132Y-73942145D01*
X123788137Y-73942147D01*
X123788141Y-73942147D01*
X123788142Y-73942148D01*
X123981448Y-73980600D01*
X123981451Y-73980600D01*
X124178553Y-73980600D01*
X124308606Y-73954730D01*
X124371865Y-73942147D01*
X124553963Y-73866720D01*
X124717846Y-73757216D01*
X124857217Y-73617845D01*
X124966721Y-73453962D01*
X125042148Y-73271864D01*
X125080601Y-73078552D01*
X138109398Y-73078552D01*
X138147850Y-73271858D01*
X138147853Y-73271868D01*
X138223276Y-73453957D01*
X138223277Y-73453959D01*
X138332782Y-73617844D01*
X138332785Y-73617848D01*
X138472150Y-73757213D01*
X138472154Y-73757216D01*
X138636037Y-73866720D01*
X138636038Y-73866720D01*
X138636039Y-73866721D01*
X138636041Y-73866722D01*
X138818130Y-73942145D01*
X138818135Y-73942147D01*
X138818139Y-73942147D01*
X138818140Y-73942148D01*
X139011446Y-73980600D01*
X139011449Y-73980600D01*
X139208551Y-73980600D01*
X139338604Y-73954730D01*
X139401863Y-73942147D01*
X139583961Y-73866720D01*
X139747844Y-73757216D01*
X139887215Y-73617845D01*
X139996719Y-73453962D01*
X140072146Y-73271864D01*
X140110599Y-73078550D01*
X140110599Y-72881450D01*
X140110599Y-72881447D01*
X140072147Y-72688141D01*
X140072146Y-72688140D01*
X140072146Y-72688136D01*
X140004593Y-72525048D01*
X139996721Y-72506042D01*
X139996720Y-72506040D01*
X139887215Y-72342155D01*
X139887212Y-72342151D01*
X139747847Y-72202786D01*
X139747843Y-72202783D01*
X139583958Y-72093278D01*
X139583956Y-72093277D01*
X139401867Y-72017854D01*
X139401857Y-72017851D01*
X139208551Y-71979400D01*
X139208549Y-71979400D01*
X139011449Y-71979400D01*
X139011447Y-71979400D01*
X138818140Y-72017851D01*
X138818130Y-72017854D01*
X138636041Y-72093277D01*
X138636039Y-72093278D01*
X138472154Y-72202783D01*
X138472150Y-72202786D01*
X138332785Y-72342151D01*
X138332782Y-72342155D01*
X138223277Y-72506040D01*
X138223276Y-72506042D01*
X138147853Y-72688131D01*
X138147850Y-72688141D01*
X138109399Y-72881447D01*
X138109399Y-72881450D01*
X138109399Y-73078550D01*
X138109399Y-73078552D01*
X138109398Y-73078552D01*
X125080601Y-73078552D01*
X125080601Y-73078550D01*
X125080601Y-72881450D01*
X125080601Y-72881447D01*
X125042149Y-72688141D01*
X125042148Y-72688140D01*
X125042148Y-72688136D01*
X124974595Y-72525048D01*
X124966723Y-72506042D01*
X124966722Y-72506040D01*
X124857217Y-72342155D01*
X124857214Y-72342151D01*
X124717849Y-72202786D01*
X124717845Y-72202783D01*
X124553960Y-72093278D01*
X124553958Y-72093277D01*
X124371869Y-72017854D01*
X124371859Y-72017851D01*
X124178553Y-71979400D01*
X124178551Y-71979400D01*
X123981451Y-71979400D01*
X123981449Y-71979400D01*
X123788142Y-72017851D01*
X123788132Y-72017854D01*
X123606043Y-72093277D01*
X123606041Y-72093278D01*
X123442156Y-72202783D01*
X123442152Y-72202786D01*
X123302787Y-72342151D01*
X123302784Y-72342155D01*
X123193279Y-72506040D01*
X123193278Y-72506042D01*
X123117855Y-72688131D01*
X123117852Y-72688141D01*
X123079401Y-72881447D01*
X123079401Y-72881450D01*
X123079401Y-73078550D01*
X123079401Y-73078552D01*
X123079400Y-73078552D01*
X104400500Y-73078552D01*
X104400500Y-64997273D01*
X111124500Y-64997273D01*
X111124500Y-65847273D01*
X111124500Y-65952727D01*
X111129675Y-65972040D01*
X111151793Y-66054589D01*
X111178156Y-66100250D01*
X111204520Y-66145913D01*
X111204522Y-66145915D01*
X111625699Y-66567092D01*
X111659184Y-66628415D01*
X111654200Y-66698107D01*
X111612328Y-66754040D01*
X111606910Y-66757875D01*
X111532017Y-66807917D01*
X111407917Y-66932017D01*
X111407914Y-66932021D01*
X111310409Y-67077946D01*
X111310402Y-67077959D01*
X111243242Y-67240100D01*
X111243239Y-67240110D01*
X111209000Y-67412241D01*
X111209000Y-67412244D01*
X111209000Y-67587756D01*
X111209000Y-67587758D01*
X111208999Y-67587758D01*
X111243239Y-67759889D01*
X111243242Y-67759899D01*
X111310402Y-67922040D01*
X111310409Y-67922053D01*
X111407914Y-68067978D01*
X111407917Y-68067982D01*
X111532017Y-68192082D01*
X111532021Y-68192085D01*
X111677946Y-68289590D01*
X111677959Y-68289597D01*
X111824992Y-68350499D01*
X111840105Y-68356759D01*
X111840109Y-68356759D01*
X111840110Y-68356760D01*
X112012241Y-68391000D01*
X112012244Y-68391000D01*
X112187758Y-68391000D01*
X112314453Y-68365798D01*
X112359895Y-68356759D01*
X112522047Y-68289594D01*
X112667979Y-68192085D01*
X112677211Y-68182853D01*
X112687819Y-68172246D01*
X112749142Y-68138761D01*
X112818834Y-68143745D01*
X112874767Y-68185617D01*
X112899184Y-68251081D01*
X112899500Y-68259927D01*
X112899500Y-68352727D01*
X112900581Y-68356760D01*
X112926793Y-68454589D01*
X112943525Y-68483568D01*
X112979520Y-68545913D01*
X114029087Y-69595480D01*
X114120412Y-69648207D01*
X114222273Y-69675500D01*
X114327727Y-69675500D01*
X118193835Y-69675500D01*
X118260874Y-69695185D01*
X118281516Y-69711819D01*
X120030177Y-71460480D01*
X120121502Y-71513207D01*
X120223363Y-71540500D01*
X124869679Y-71540500D01*
X124936718Y-71560185D01*
X124982473Y-71612989D01*
X124991296Y-71640309D01*
X125015546Y-71762221D01*
X125015549Y-71762233D01*
X125083312Y-71925829D01*
X125083319Y-71925842D01*
X125181700Y-72073078D01*
X125181703Y-72073082D01*
X125306917Y-72198296D01*
X125306921Y-72198299D01*
X125454157Y-72296680D01*
X125454170Y-72296687D01*
X125563931Y-72342151D01*
X125617771Y-72364452D01*
X125791451Y-72398999D01*
X125791455Y-72399000D01*
X125791456Y-72399000D01*
X125968545Y-72399000D01*
X125968546Y-72398999D01*
X126142229Y-72364452D01*
X126305836Y-72296684D01*
X126453079Y-72198299D01*
X126578299Y-72073079D01*
X126676684Y-71925836D01*
X126681501Y-71914208D01*
X126736822Y-71780650D01*
X126744452Y-71762229D01*
X126779000Y-71588544D01*
X126779000Y-71411456D01*
X126744452Y-71237771D01*
X126740020Y-71227070D01*
X126676687Y-71074170D01*
X126676680Y-71074157D01*
X126578299Y-70926921D01*
X126578296Y-70926917D01*
X126453082Y-70801703D01*
X126453078Y-70801700D01*
X126305842Y-70703319D01*
X126305829Y-70703312D01*
X126142233Y-70635549D01*
X126142221Y-70635546D01*
X125968548Y-70601000D01*
X125968544Y-70601000D01*
X125791456Y-70601000D01*
X125791451Y-70601000D01*
X125617778Y-70635546D01*
X125617766Y-70635549D01*
X125454170Y-70703312D01*
X125454157Y-70703319D01*
X125431286Y-70718602D01*
X125364609Y-70739480D01*
X125362395Y-70739500D01*
X124876255Y-70739500D01*
X124809216Y-70719815D01*
X124763461Y-70667011D01*
X124753517Y-70597853D01*
X124782542Y-70534297D01*
X124788574Y-70527819D01*
X125129574Y-70186819D01*
X125190897Y-70153334D01*
X125217255Y-70150500D01*
X126452725Y-70150500D01*
X126452727Y-70150500D01*
X126554588Y-70123207D01*
X126645913Y-70070480D01*
X126844383Y-69872008D01*
X126905704Y-69838525D01*
X126956255Y-69838074D01*
X127061453Y-69859000D01*
X127061456Y-69859000D01*
X127238545Y-69859000D01*
X127238546Y-69858999D01*
X127412229Y-69824452D01*
X127575836Y-69756684D01*
X127723079Y-69658299D01*
X127768983Y-69612395D01*
X127847819Y-69533560D01*
X127909142Y-69500075D01*
X127978834Y-69505059D01*
X128034767Y-69546931D01*
X128059184Y-69612395D01*
X128059500Y-69621241D01*
X128059500Y-69948392D01*
X128059504Y-69948457D01*
X128059504Y-69960251D01*
X128091619Y-70100968D01*
X128091620Y-70100970D01*
X128091621Y-70100974D01*
X128154238Y-70231006D01*
X128154240Y-70231009D01*
X128154241Y-70231011D01*
X128244231Y-70343858D01*
X128244232Y-70343859D01*
X128248573Y-70349302D01*
X128247170Y-70350420D01*
X128258452Y-70372766D01*
X128274272Y-70401737D01*
X128274124Y-70403803D01*
X128275059Y-70405655D01*
X128271642Y-70438499D01*
X128269288Y-70471429D01*
X128267977Y-70473739D01*
X128267831Y-70475150D01*
X128263396Y-70481816D01*
X128249927Y-70505566D01*
X128245009Y-70511711D01*
X128244238Y-70512327D01*
X128159966Y-70617997D01*
X128158799Y-70618812D01*
X128110598Y-70655087D01*
X127994167Y-70703314D01*
X127994157Y-70703319D01*
X127846921Y-70801700D01*
X127846917Y-70801703D01*
X127721703Y-70926917D01*
X127721700Y-70926921D01*
X127623319Y-71074157D01*
X127623312Y-71074170D01*
X127555549Y-71237766D01*
X127555546Y-71237778D01*
X127521000Y-71411451D01*
X127521000Y-71588548D01*
X127555546Y-71762221D01*
X127555549Y-71762233D01*
X127623312Y-71925829D01*
X127623319Y-71925842D01*
X127721700Y-72073078D01*
X127721703Y-72073082D01*
X127846917Y-72198296D01*
X127846921Y-72198299D01*
X127994157Y-72296680D01*
X127994170Y-72296687D01*
X128103931Y-72342151D01*
X128157771Y-72364452D01*
X128331451Y-72398999D01*
X128331455Y-72399000D01*
X128331456Y-72399000D01*
X128508545Y-72399000D01*
X128508546Y-72398999D01*
X128682229Y-72364452D01*
X128845836Y-72296684D01*
X128993079Y-72198299D01*
X129118299Y-72073079D01*
X129216684Y-71925836D01*
X129221501Y-71914208D01*
X129276822Y-71780650D01*
X129284452Y-71762229D01*
X129319000Y-71588544D01*
X129319000Y-71411456D01*
X129318999Y-71411451D01*
X130061000Y-71411451D01*
X130061000Y-71588548D01*
X130095546Y-71762221D01*
X130095549Y-71762233D01*
X130163312Y-71925829D01*
X130163319Y-71925842D01*
X130261700Y-72073078D01*
X130261703Y-72073082D01*
X130386917Y-72198296D01*
X130386921Y-72198299D01*
X130534157Y-72296680D01*
X130534170Y-72296687D01*
X130643931Y-72342151D01*
X130697771Y-72364452D01*
X130871451Y-72398999D01*
X130871455Y-72399000D01*
X130871456Y-72399000D01*
X131048545Y-72399000D01*
X131048546Y-72398999D01*
X131222229Y-72364452D01*
X131243565Y-72355614D01*
X131269218Y-72344989D01*
X131385829Y-72296687D01*
X131385829Y-72296686D01*
X131385836Y-72296684D01*
X131533079Y-72198299D01*
X131658299Y-72073079D01*
X131756684Y-71925836D01*
X131761501Y-71914208D01*
X131816822Y-71780650D01*
X131824452Y-71762229D01*
X131859000Y-71588544D01*
X131859000Y-71411456D01*
X131857850Y-71405676D01*
X132301500Y-71405676D01*
X132301500Y-71594323D01*
X132331011Y-71780650D01*
X132389304Y-71960061D01*
X132389305Y-71960063D01*
X132474952Y-72128153D01*
X132493189Y-72153255D01*
X132493190Y-72153255D01*
X133062352Y-71584093D01*
X133085792Y-71671571D01*
X133144311Y-71772930D01*
X133227070Y-71855689D01*
X133328429Y-71914208D01*
X133415905Y-71937647D01*
X132846743Y-72506808D01*
X132846743Y-72506809D01*
X132871844Y-72525046D01*
X133039935Y-72610694D01*
X133039938Y-72610695D01*
X133219349Y-72668988D01*
X133405677Y-72698500D01*
X133594323Y-72698500D01*
X133780650Y-72668988D01*
X133960061Y-72610695D01*
X133960064Y-72610694D01*
X134128151Y-72525048D01*
X134153255Y-72506808D01*
X134153256Y-72506808D01*
X133584095Y-71937647D01*
X133671571Y-71914208D01*
X133772930Y-71855689D01*
X133855689Y-71772930D01*
X133914208Y-71671571D01*
X133937647Y-71584094D01*
X134506808Y-72153256D01*
X134506808Y-72153255D01*
X134525048Y-72128151D01*
X134610694Y-71960064D01*
X134610695Y-71960061D01*
X134668988Y-71780650D01*
X134698500Y-71594323D01*
X134698500Y-71411451D01*
X135141000Y-71411451D01*
X135141000Y-71588548D01*
X135175546Y-71762221D01*
X135175549Y-71762233D01*
X135243312Y-71925829D01*
X135243319Y-71925842D01*
X135341700Y-72073078D01*
X135341703Y-72073082D01*
X135466917Y-72198296D01*
X135466921Y-72198299D01*
X135614157Y-72296680D01*
X135614170Y-72296687D01*
X135723931Y-72342151D01*
X135777771Y-72364452D01*
X135951451Y-72398999D01*
X135951455Y-72399000D01*
X135951456Y-72399000D01*
X136128545Y-72399000D01*
X136128546Y-72398999D01*
X136302229Y-72364452D01*
X136465836Y-72296684D01*
X136613079Y-72198299D01*
X136738299Y-72073079D01*
X136836684Y-71925836D01*
X136841501Y-71914208D01*
X136896822Y-71780650D01*
X136904452Y-71762229D01*
X136939000Y-71588544D01*
X136939000Y-71411456D01*
X136904452Y-71237771D01*
X136900020Y-71227070D01*
X136836687Y-71074170D01*
X136836680Y-71074157D01*
X136738299Y-70926921D01*
X136738296Y-70926917D01*
X136613082Y-70801703D01*
X136613078Y-70801700D01*
X136465842Y-70703319D01*
X136465829Y-70703312D01*
X136302233Y-70635549D01*
X136302221Y-70635546D01*
X136128548Y-70601000D01*
X136128544Y-70601000D01*
X135951456Y-70601000D01*
X135951451Y-70601000D01*
X135777778Y-70635546D01*
X135777766Y-70635549D01*
X135614170Y-70703312D01*
X135614157Y-70703319D01*
X135466921Y-70801700D01*
X135466917Y-70801703D01*
X135341703Y-70926917D01*
X135341700Y-70926921D01*
X135243319Y-71074157D01*
X135243312Y-71074170D01*
X135175549Y-71237766D01*
X135175546Y-71237778D01*
X135141000Y-71411451D01*
X134698500Y-71411451D01*
X134698500Y-71405676D01*
X134668988Y-71219349D01*
X134610695Y-71039938D01*
X134610694Y-71039935D01*
X134525046Y-70871844D01*
X134506809Y-70846743D01*
X134506808Y-70846743D01*
X133937647Y-71415904D01*
X133914208Y-71328429D01*
X133855689Y-71227070D01*
X133772930Y-71144311D01*
X133671571Y-71085792D01*
X133584094Y-71062352D01*
X134153255Y-70493190D01*
X134153255Y-70493189D01*
X134128153Y-70474952D01*
X133960063Y-70389305D01*
X133960061Y-70389304D01*
X133780650Y-70331011D01*
X133594323Y-70301500D01*
X133405677Y-70301500D01*
X133219349Y-70331011D01*
X133039938Y-70389304D01*
X133039936Y-70389305D01*
X132871844Y-70474953D01*
X132871839Y-70474957D01*
X132846743Y-70493188D01*
X132846743Y-70493191D01*
X133415906Y-71062352D01*
X133328429Y-71085792D01*
X133227070Y-71144311D01*
X133144311Y-71227070D01*
X133085792Y-71328429D01*
X133062352Y-71415905D01*
X132493191Y-70846743D01*
X132493188Y-70846743D01*
X132474957Y-70871839D01*
X132474953Y-70871844D01*
X132389305Y-71039936D01*
X132389304Y-71039938D01*
X132331011Y-71219349D01*
X132301500Y-71405676D01*
X131857850Y-71405676D01*
X131824452Y-71237771D01*
X131820020Y-71227070D01*
X131756687Y-71074170D01*
X131756680Y-71074157D01*
X131658299Y-70926921D01*
X131658296Y-70926917D01*
X131533082Y-70801703D01*
X131533078Y-70801700D01*
X131385842Y-70703319D01*
X131385829Y-70703312D01*
X131269215Y-70655010D01*
X131222229Y-70635548D01*
X131222221Y-70635546D01*
X131048548Y-70601000D01*
X131048544Y-70601000D01*
X130871456Y-70601000D01*
X130871451Y-70601000D01*
X130697778Y-70635546D01*
X130697766Y-70635549D01*
X130534170Y-70703312D01*
X130534157Y-70703319D01*
X130386921Y-70801700D01*
X130386917Y-70801703D01*
X130261703Y-70926917D01*
X130261700Y-70926921D01*
X130163319Y-71074157D01*
X130163312Y-71074170D01*
X130095549Y-71237766D01*
X130095546Y-71237778D01*
X130061000Y-71411451D01*
X129318999Y-71411451D01*
X129287450Y-71252843D01*
X129287378Y-71252468D01*
X129290688Y-71218057D01*
X129293764Y-71183687D01*
X129294027Y-71183347D01*
X129294069Y-71182920D01*
X129315415Y-71155815D01*
X129336627Y-71128509D01*
X129337081Y-71128303D01*
X129337298Y-71128029D01*
X129338953Y-71127457D01*
X129381560Y-71108196D01*
X129432886Y-71096482D01*
X129562928Y-71033856D01*
X129675773Y-70943862D01*
X129765764Y-70831014D01*
X129828387Y-70700970D01*
X129860502Y-70560252D01*
X129860500Y-70488084D01*
X129860500Y-70482181D01*
X129860500Y-70425670D01*
X129860501Y-70425667D01*
X129860500Y-70419454D01*
X129860506Y-70419434D01*
X129860505Y-70368084D01*
X129860506Y-70368084D01*
X129860504Y-70295917D01*
X129828384Y-70155204D01*
X129802264Y-70100968D01*
X129763292Y-70020043D01*
X129751938Y-69951102D01*
X129779660Y-69886967D01*
X129837655Y-69848001D01*
X129850799Y-69844627D01*
X129952229Y-69824452D01*
X130115836Y-69756684D01*
X130263079Y-69658299D01*
X130388299Y-69533079D01*
X130486684Y-69385836D01*
X130554452Y-69222229D01*
X130589000Y-69048544D01*
X130589000Y-68871456D01*
X130588999Y-68871453D01*
X130588999Y-68871451D01*
X131331000Y-68871451D01*
X131331000Y-69048548D01*
X131365546Y-69222221D01*
X131365549Y-69222233D01*
X131433312Y-69385829D01*
X131433319Y-69385842D01*
X131531700Y-69533078D01*
X131531703Y-69533082D01*
X131656917Y-69658296D01*
X131656921Y-69658299D01*
X131804157Y-69756680D01*
X131804170Y-69756687D01*
X131967766Y-69824450D01*
X131967771Y-69824452D01*
X132141451Y-69858999D01*
X132141455Y-69859000D01*
X132141456Y-69859000D01*
X132318545Y-69859000D01*
X132318546Y-69858999D01*
X132492229Y-69824452D01*
X132655836Y-69756684D01*
X132803079Y-69658299D01*
X132928299Y-69533079D01*
X133026684Y-69385836D01*
X133094452Y-69222229D01*
X133129000Y-69048544D01*
X133129000Y-68871456D01*
X133128999Y-68871453D01*
X133128999Y-68871451D01*
X133871000Y-68871451D01*
X133871000Y-69048548D01*
X133905546Y-69222221D01*
X133905549Y-69222233D01*
X133973312Y-69385829D01*
X133973319Y-69385842D01*
X134071700Y-69533078D01*
X134071703Y-69533082D01*
X134196917Y-69658296D01*
X134196921Y-69658299D01*
X134344157Y-69756680D01*
X134344170Y-69756687D01*
X134507766Y-69824450D01*
X134507771Y-69824452D01*
X134681451Y-69858999D01*
X134681455Y-69859000D01*
X134681456Y-69859000D01*
X134858545Y-69859000D01*
X134858546Y-69858999D01*
X135032229Y-69824452D01*
X135195836Y-69756684D01*
X135343079Y-69658299D01*
X135468299Y-69533079D01*
X135566684Y-69385836D01*
X135634452Y-69222229D01*
X135669000Y-69048544D01*
X135669000Y-68871456D01*
X135668999Y-68871453D01*
X135668999Y-68871451D01*
X136411000Y-68871451D01*
X136411000Y-69048548D01*
X136445546Y-69222221D01*
X136445549Y-69222233D01*
X136513312Y-69385829D01*
X136513319Y-69385842D01*
X136611700Y-69533078D01*
X136611703Y-69533082D01*
X136736917Y-69658296D01*
X136736921Y-69658299D01*
X136884157Y-69756680D01*
X136884170Y-69756687D01*
X137047766Y-69824450D01*
X137047771Y-69824452D01*
X137221451Y-69858999D01*
X137221455Y-69859000D01*
X137221456Y-69859000D01*
X137398545Y-69859000D01*
X137398546Y-69858999D01*
X137572229Y-69824452D01*
X137735836Y-69756684D01*
X137883079Y-69658299D01*
X138008299Y-69533079D01*
X138106684Y-69385836D01*
X138174452Y-69222229D01*
X138209000Y-69048544D01*
X138209000Y-68871456D01*
X138209000Y-68871455D01*
X138209000Y-68871453D01*
X138188074Y-68766255D01*
X138194301Y-68696663D01*
X138222007Y-68654384D01*
X138350480Y-68525913D01*
X138820480Y-68055913D01*
X138873206Y-67964588D01*
X138873207Y-67964587D01*
X138900500Y-67862727D01*
X138900500Y-67409493D01*
X145950000Y-67409493D01*
X145950000Y-67590506D01*
X145978317Y-67769293D01*
X146034251Y-67941444D01*
X146034252Y-67941447D01*
X146116431Y-68102730D01*
X146127913Y-68118532D01*
X146127913Y-68118533D01*
X146700000Y-67546446D01*
X146700000Y-67552661D01*
X146727259Y-67654394D01*
X146779920Y-67745606D01*
X146854394Y-67820080D01*
X146945606Y-67872741D01*
X147047339Y-67900000D01*
X147053553Y-67900000D01*
X146481466Y-68472085D01*
X146481466Y-68472086D01*
X146497267Y-68483566D01*
X146497275Y-68483571D01*
X146658552Y-68565747D01*
X146658555Y-68565748D01*
X146830706Y-68621682D01*
X147009494Y-68650000D01*
X147190506Y-68650000D01*
X147369293Y-68621682D01*
X147541444Y-68565748D01*
X147541452Y-68565745D01*
X147702730Y-68483568D01*
X147718532Y-68472085D01*
X147718533Y-68472085D01*
X147146448Y-67900000D01*
X147152661Y-67900000D01*
X147254394Y-67872741D01*
X147345606Y-67820080D01*
X147420080Y-67745606D01*
X147472741Y-67654394D01*
X147500000Y-67552661D01*
X147500000Y-67546448D01*
X148072085Y-68118533D01*
X148072085Y-68118532D01*
X148083568Y-68102730D01*
X148165745Y-67941452D01*
X148165748Y-67941444D01*
X148221682Y-67769293D01*
X148250000Y-67590506D01*
X148250000Y-67409493D01*
X148221682Y-67230706D01*
X148165748Y-67058555D01*
X148165747Y-67058552D01*
X148083571Y-66897275D01*
X148083566Y-66897267D01*
X148072085Y-66881466D01*
X147500000Y-67453551D01*
X147500000Y-67447339D01*
X147472741Y-67345606D01*
X147420080Y-67254394D01*
X147345606Y-67179920D01*
X147254394Y-67127259D01*
X147152661Y-67100000D01*
X147146447Y-67100000D01*
X147719290Y-66527156D01*
X147733060Y-66461608D01*
X147782112Y-66411851D01*
X147818123Y-66398639D01*
X147822170Y-66397834D01*
X147973082Y-66367816D01*
X148127863Y-66303703D01*
X148267162Y-66210626D01*
X148385626Y-66092162D01*
X148478703Y-65952863D01*
X148542816Y-65798082D01*
X148575500Y-65633767D01*
X148575500Y-65466233D01*
X148575499Y-65466228D01*
X149024500Y-65466228D01*
X149024500Y-65633771D01*
X149057182Y-65798074D01*
X149057184Y-65798082D01*
X149121295Y-65952860D01*
X149214373Y-66092162D01*
X149332837Y-66210626D01*
X149402931Y-66257461D01*
X149472137Y-66303703D01*
X149472138Y-66303703D01*
X149472139Y-66303704D01*
X149507201Y-66318227D01*
X149626918Y-66367816D01*
X149777830Y-66397834D01*
X149791228Y-66400499D01*
X149791232Y-66400500D01*
X149791233Y-66400500D01*
X149958768Y-66400500D01*
X149958769Y-66400499D01*
X150123082Y-66367816D01*
X150277863Y-66303703D01*
X150417162Y-66210626D01*
X150535626Y-66092162D01*
X150628703Y-65952863D01*
X150692816Y-65798082D01*
X150725500Y-65633767D01*
X150725500Y-65466233D01*
X150692816Y-65301918D01*
X150628703Y-65147137D01*
X150597537Y-65100494D01*
X150535626Y-65007837D01*
X150417162Y-64889373D01*
X150277860Y-64796295D01*
X150123082Y-64732184D01*
X150123074Y-64732182D01*
X149958771Y-64699500D01*
X149958767Y-64699500D01*
X149791233Y-64699500D01*
X149791228Y-64699500D01*
X149626925Y-64732182D01*
X149626917Y-64732184D01*
X149472139Y-64796295D01*
X149332837Y-64889373D01*
X149214373Y-65007837D01*
X149121295Y-65147139D01*
X149057184Y-65301917D01*
X149057182Y-65301925D01*
X149024500Y-65466228D01*
X148575499Y-65466228D01*
X148542816Y-65301918D01*
X148478703Y-65147137D01*
X148447537Y-65100494D01*
X148385626Y-65007837D01*
X148267162Y-64889373D01*
X148127860Y-64796295D01*
X147973082Y-64732184D01*
X147973074Y-64732182D01*
X147808771Y-64699500D01*
X147808767Y-64699500D01*
X147641233Y-64699500D01*
X147641228Y-64699500D01*
X147476925Y-64732182D01*
X147476917Y-64732184D01*
X147322139Y-64796295D01*
X147182837Y-64889373D01*
X147064373Y-65007837D01*
X146971295Y-65147139D01*
X146907184Y-65301917D01*
X146907182Y-65301925D01*
X146874500Y-65466228D01*
X146874500Y-65633771D01*
X146907182Y-65798074D01*
X146907184Y-65798082D01*
X146971295Y-65952860D01*
X147064373Y-66092162D01*
X147110530Y-66138319D01*
X147144015Y-66199642D01*
X147139031Y-66269334D01*
X147097159Y-66325267D01*
X147031695Y-66349684D01*
X147022849Y-66350000D01*
X147009494Y-66350000D01*
X146830706Y-66378317D01*
X146658555Y-66434251D01*
X146658547Y-66434254D01*
X146497269Y-66516432D01*
X146481466Y-66527912D01*
X146481466Y-66527913D01*
X147053554Y-67100000D01*
X147047339Y-67100000D01*
X146945606Y-67127259D01*
X146854394Y-67179920D01*
X146779920Y-67254394D01*
X146727259Y-67345606D01*
X146700000Y-67447339D01*
X146700000Y-67453553D01*
X146127912Y-66881466D01*
X146116432Y-66897269D01*
X146034254Y-67058547D01*
X146034251Y-67058555D01*
X145978317Y-67230706D01*
X145950000Y-67409493D01*
X138900500Y-67409493D01*
X138900500Y-66324500D01*
X138920185Y-66257461D01*
X138972989Y-66211706D01*
X139024500Y-66200500D01*
X139319750Y-66200500D01*
X139319751Y-66200499D01*
X139334568Y-66197552D01*
X139378229Y-66188868D01*
X139378229Y-66188867D01*
X139378231Y-66188867D01*
X139444552Y-66144552D01*
X139488867Y-66078231D01*
X139488867Y-66078229D01*
X139488868Y-66078229D01*
X139500499Y-66019752D01*
X139500500Y-66019750D01*
X139500500Y-64980249D01*
X139500499Y-64980247D01*
X139488868Y-64921770D01*
X139488867Y-64921769D01*
X139444552Y-64855447D01*
X139378230Y-64811132D01*
X139378229Y-64811131D01*
X139319752Y-64799500D01*
X139319748Y-64799500D01*
X137680252Y-64799500D01*
X137680247Y-64799500D01*
X137621770Y-64811131D01*
X137621769Y-64811132D01*
X137555447Y-64855447D01*
X137511132Y-64921769D01*
X137511131Y-64921770D01*
X137499500Y-64980247D01*
X137499500Y-66019752D01*
X137511131Y-66078229D01*
X137511132Y-66078230D01*
X137555447Y-66144552D01*
X137621769Y-66188867D01*
X137621770Y-66188868D01*
X137680247Y-66200499D01*
X137680250Y-66200500D01*
X137680252Y-66200500D01*
X137975500Y-66200500D01*
X138042539Y-66220185D01*
X138088294Y-66272989D01*
X138099500Y-66324500D01*
X138099500Y-67592745D01*
X138079815Y-67659784D01*
X138063181Y-67680426D01*
X137784087Y-67959519D01*
X137784086Y-67959520D01*
X137682342Y-68061262D01*
X137621019Y-68094746D01*
X137570471Y-68095197D01*
X137398548Y-68061000D01*
X137398544Y-68061000D01*
X137221456Y-68061000D01*
X137221451Y-68061000D01*
X137047778Y-68095546D01*
X137047766Y-68095549D01*
X136884170Y-68163312D01*
X136884157Y-68163319D01*
X136736921Y-68261700D01*
X136736917Y-68261703D01*
X136611703Y-68386917D01*
X136611700Y-68386921D01*
X136513319Y-68534157D01*
X136513312Y-68534170D01*
X136445549Y-68697766D01*
X136445546Y-68697778D01*
X136411000Y-68871451D01*
X135668999Y-68871451D01*
X135648074Y-68766255D01*
X135634452Y-68697771D01*
X135633993Y-68696663D01*
X135566687Y-68534170D01*
X135566680Y-68534157D01*
X135468299Y-68386921D01*
X135468296Y-68386917D01*
X135343082Y-68261703D01*
X135343078Y-68261700D01*
X135195842Y-68163319D01*
X135195829Y-68163312D01*
X135032233Y-68095549D01*
X135032221Y-68095546D01*
X134858548Y-68061000D01*
X134858544Y-68061000D01*
X134681456Y-68061000D01*
X134681451Y-68061000D01*
X134507778Y-68095546D01*
X134507766Y-68095549D01*
X134344170Y-68163312D01*
X134344157Y-68163319D01*
X134196921Y-68261700D01*
X134196917Y-68261703D01*
X134071703Y-68386917D01*
X134071700Y-68386921D01*
X133973319Y-68534157D01*
X133973312Y-68534170D01*
X133905549Y-68697766D01*
X133905546Y-68697778D01*
X133871000Y-68871451D01*
X133128999Y-68871451D01*
X133108074Y-68766255D01*
X133094452Y-68697771D01*
X133093993Y-68696663D01*
X133026687Y-68534170D01*
X133026680Y-68534157D01*
X132928299Y-68386921D01*
X132928296Y-68386917D01*
X132803082Y-68261703D01*
X132803078Y-68261700D01*
X132655842Y-68163319D01*
X132655829Y-68163312D01*
X132492233Y-68095549D01*
X132492221Y-68095546D01*
X132318548Y-68061000D01*
X132318544Y-68061000D01*
X132141456Y-68061000D01*
X132141451Y-68061000D01*
X131967778Y-68095546D01*
X131967766Y-68095549D01*
X131804170Y-68163312D01*
X131804157Y-68163319D01*
X131656921Y-68261700D01*
X131656917Y-68261703D01*
X131531703Y-68386917D01*
X131531700Y-68386921D01*
X131433319Y-68534157D01*
X131433312Y-68534170D01*
X131365549Y-68697766D01*
X131365546Y-68697778D01*
X131331000Y-68871451D01*
X130588999Y-68871451D01*
X130568074Y-68766255D01*
X130554452Y-68697771D01*
X130553993Y-68696663D01*
X130486687Y-68534170D01*
X130486680Y-68534157D01*
X130388299Y-68386921D01*
X130388296Y-68386917D01*
X130263082Y-68261703D01*
X130263078Y-68261700D01*
X130115842Y-68163319D01*
X130115829Y-68163312D01*
X129952233Y-68095549D01*
X129952221Y-68095546D01*
X129778548Y-68061000D01*
X129778544Y-68061000D01*
X129601456Y-68061000D01*
X129601452Y-68061000D01*
X129558691Y-68069506D01*
X129489100Y-68063279D01*
X129433922Y-68020416D01*
X129410678Y-67954526D01*
X129410500Y-67947889D01*
X129410500Y-65868365D01*
X129410500Y-65868363D01*
X129383207Y-65766503D01*
X129330480Y-65675177D01*
X129255913Y-65600610D01*
X126609823Y-62954520D01*
X126564160Y-62928156D01*
X126518499Y-62901793D01*
X126467567Y-62888146D01*
X126416637Y-62874500D01*
X113352727Y-62874500D01*
X113247273Y-62874500D01*
X113145410Y-62901793D01*
X113054087Y-62954520D01*
X113054084Y-62954522D01*
X111204522Y-64804084D01*
X111204520Y-64804087D01*
X111151791Y-64895413D01*
X111130188Y-64976045D01*
X111129061Y-64980252D01*
X111124500Y-64997273D01*
X104400500Y-64997273D01*
X104400500Y-61980247D01*
X137499500Y-61980247D01*
X137499500Y-63019752D01*
X137511131Y-63078229D01*
X137511132Y-63078230D01*
X137555447Y-63144552D01*
X137621769Y-63188867D01*
X137621770Y-63188868D01*
X137680247Y-63200499D01*
X137680250Y-63200500D01*
X137680252Y-63200500D01*
X139319750Y-63200500D01*
X139319751Y-63200499D01*
X139335981Y-63197271D01*
X139378229Y-63188868D01*
X139378229Y-63188867D01*
X139378231Y-63188867D01*
X139444552Y-63144552D01*
X139488867Y-63078231D01*
X139488867Y-63078229D01*
X139488868Y-63078229D01*
X139500499Y-63019752D01*
X139500500Y-63019750D01*
X139500500Y-62142254D01*
X139520185Y-62075215D01*
X139536819Y-62054573D01*
X140104573Y-61486819D01*
X140165896Y-61453334D01*
X140192254Y-61450500D01*
X149232745Y-61450500D01*
X149299784Y-61470185D01*
X149320426Y-61486819D01*
X151213181Y-63379574D01*
X151246666Y-63440897D01*
X151249500Y-63467255D01*
X151249500Y-66132745D01*
X151229815Y-66199784D01*
X151213181Y-66220426D01*
X150820426Y-66613181D01*
X150759103Y-66646666D01*
X150732745Y-66649500D01*
X149830247Y-66649500D01*
X149771770Y-66661131D01*
X149771769Y-66661132D01*
X149705447Y-66705447D01*
X149661132Y-66771769D01*
X149661131Y-66771770D01*
X149649500Y-66830247D01*
X149649500Y-68169752D01*
X149661131Y-68228229D01*
X149661132Y-68228230D01*
X149705447Y-68294552D01*
X149771769Y-68338867D01*
X149771770Y-68338868D01*
X149830247Y-68350499D01*
X149830250Y-68350500D01*
X149830252Y-68350500D01*
X151169750Y-68350500D01*
X151169751Y-68350499D01*
X151184568Y-68347552D01*
X151228229Y-68338868D01*
X151228229Y-68338867D01*
X151228231Y-68338867D01*
X151294552Y-68294552D01*
X151338867Y-68228231D01*
X151338867Y-68228229D01*
X151338868Y-68228229D01*
X151350499Y-68169752D01*
X151350500Y-68169750D01*
X151350500Y-67267253D01*
X151370185Y-67200214D01*
X151386815Y-67179576D01*
X151885703Y-66680687D01*
X151885708Y-66680684D01*
X151895911Y-66670480D01*
X151895913Y-66670480D01*
X151970480Y-66595913D01*
X152023207Y-66504587D01*
X152032638Y-66469390D01*
X152050501Y-66402727D01*
X152050501Y-66297273D01*
X152050500Y-66297269D01*
X152050500Y-63197273D01*
X152029906Y-63120413D01*
X152029906Y-63120412D01*
X152029906Y-63120411D01*
X152023207Y-63095412D01*
X152013286Y-63078229D01*
X151970480Y-63004087D01*
X149695913Y-60729520D01*
X149650250Y-60703156D01*
X149604589Y-60676793D01*
X149553657Y-60663146D01*
X149502727Y-60649500D01*
X149502726Y-60649500D01*
X140035339Y-60649500D01*
X140035323Y-60649499D01*
X140027727Y-60649499D01*
X139922273Y-60649499D01*
X139854366Y-60667695D01*
X139820412Y-60676793D01*
X139729084Y-60729522D01*
X138695426Y-61763181D01*
X138634103Y-61796666D01*
X138607745Y-61799500D01*
X137680247Y-61799500D01*
X137621770Y-61811131D01*
X137621769Y-61811132D01*
X137555447Y-61855447D01*
X137511132Y-61921769D01*
X137511131Y-61921770D01*
X137499500Y-61980247D01*
X104400500Y-61980247D01*
X104400500Y-57524500D01*
X104420185Y-57457461D01*
X104472989Y-57411706D01*
X104524500Y-57400500D01*
X156975500Y-57400500D01*
X157042539Y-57420185D01*
G37*
G04 #@! TD.AperFunction*
M02*
