%TF.GenerationSoftware,KiCad,Pcbnew,9.0.5*%
%TF.CreationDate,2025-10-27T21:44:14-04:00*%
%TF.ProjectId,main_board_peripheral_v1,6d61696e-5f62-46f6-9172-645f70657269,rev?*%
%TF.SameCoordinates,Original*%
%TF.FileFunction,Drillmap*%
%TF.FilePolarity,Positive*%
%FSLAX45Y45*%
G04 Gerber Fmt 4.5, Leading zero omitted, Abs format (unit mm)*
G04 Created by KiCad (PCBNEW 9.0.5) date 2025-10-27 21:44:14*
%MOMM*%
%LPD*%
G01*
G04 APERTURE LIST*
%ADD10C,0.050000*%
%ADD11C,0.200000*%
%ADD12C,0.100000*%
G04 APERTURE END LIST*
D10*
X10400000Y-5700000D02*
X15750000Y-5700000D01*
X15750000Y-7667500D01*
X10400000Y-7667500D01*
X10400000Y-5700000D01*
D11*
D12*
X14670000Y-6710000D02*
X14750000Y-6790000D01*
X14750000Y-6710000D02*
X14670000Y-6790000D01*
X14732500Y-6515000D02*
X14812500Y-6595000D01*
X14812500Y-6515000D02*
X14732500Y-6595000D01*
X14947500Y-6515000D02*
X15027500Y-6595000D01*
X15027500Y-6515000D02*
X14947500Y-6595000D01*
X15010000Y-6710000D02*
X15090000Y-6790000D01*
X15090000Y-6710000D02*
X15010000Y-6790000D01*
X11252500Y-6750000D02*
G75*
G02*
X11167500Y-6750000I-42500J0D01*
G01*
X11167500Y-6750000D02*
G75*
G02*
X11252500Y-6750000I42500J0D01*
G01*
X11315000Y-6555000D02*
G75*
G02*
X11230000Y-6555000I-42500J0D01*
G01*
X11230000Y-6555000D02*
G75*
G02*
X11315000Y-6555000I42500J0D01*
G01*
X11530000Y-6555000D02*
G75*
G02*
X11445000Y-6555000I-42500J0D01*
G01*
X11445000Y-6555000D02*
G75*
G02*
X11530000Y-6555000I42500J0D01*
G01*
X11592500Y-6750000D02*
G75*
G02*
X11507500Y-6750000I-42500J0D01*
G01*
X11507500Y-6750000D02*
G75*
G02*
X11592500Y-6750000I42500J0D01*
G01*
X12588000Y-7105550D02*
X12588000Y-7194450D01*
X12543550Y-7150000D02*
X12632450Y-7150000D01*
X12715000Y-6851550D02*
X12715000Y-6940450D01*
X12670550Y-6896000D02*
X12759450Y-6896000D01*
X12842000Y-7105550D02*
X12842000Y-7194450D01*
X12797550Y-7150000D02*
X12886450Y-7150000D01*
X12969000Y-6851550D02*
X12969000Y-6940450D01*
X12924550Y-6896000D02*
X13013450Y-6896000D01*
X13096000Y-7105550D02*
X13096000Y-7194450D01*
X13051550Y-7150000D02*
X13140450Y-7150000D01*
X13223000Y-6851550D02*
X13223000Y-6940450D01*
X13178550Y-6896000D02*
X13267450Y-6896000D01*
X13350000Y-7105550D02*
X13350000Y-7194450D01*
X13305550Y-7150000D02*
X13394450Y-7150000D01*
X13477000Y-6851550D02*
X13477000Y-6940450D01*
X13432550Y-6896000D02*
X13521450Y-6896000D01*
X13604000Y-7105550D02*
X13604000Y-7194450D01*
X13559550Y-7150000D02*
X13648450Y-7150000D01*
X13731000Y-6851550D02*
X13731000Y-6940450D01*
X13686550Y-6896000D02*
X13775450Y-6896000D01*
D11*
X10658277Y-7981484D02*
X10658277Y-7781484D01*
X10658277Y-7781484D02*
X10705896Y-7781484D01*
X10705896Y-7781484D02*
X10734467Y-7791008D01*
X10734467Y-7791008D02*
X10753515Y-7810055D01*
X10753515Y-7810055D02*
X10763039Y-7829103D01*
X10763039Y-7829103D02*
X10772563Y-7867198D01*
X10772563Y-7867198D02*
X10772563Y-7895769D01*
X10772563Y-7895769D02*
X10763039Y-7933865D01*
X10763039Y-7933865D02*
X10753515Y-7952912D01*
X10753515Y-7952912D02*
X10734467Y-7971960D01*
X10734467Y-7971960D02*
X10705896Y-7981484D01*
X10705896Y-7981484D02*
X10658277Y-7981484D01*
X10858277Y-7981484D02*
X10858277Y-7848150D01*
X10858277Y-7886246D02*
X10867801Y-7867198D01*
X10867801Y-7867198D02*
X10877324Y-7857674D01*
X10877324Y-7857674D02*
X10896372Y-7848150D01*
X10896372Y-7848150D02*
X10915420Y-7848150D01*
X10982086Y-7981484D02*
X10982086Y-7848150D01*
X10982086Y-7781484D02*
X10972563Y-7791008D01*
X10972563Y-7791008D02*
X10982086Y-7800531D01*
X10982086Y-7800531D02*
X10991610Y-7791008D01*
X10991610Y-7791008D02*
X10982086Y-7781484D01*
X10982086Y-7781484D02*
X10982086Y-7800531D01*
X11105896Y-7981484D02*
X11086848Y-7971960D01*
X11086848Y-7971960D02*
X11077324Y-7952912D01*
X11077324Y-7952912D02*
X11077324Y-7781484D01*
X11210658Y-7981484D02*
X11191610Y-7971960D01*
X11191610Y-7971960D02*
X11182086Y-7952912D01*
X11182086Y-7952912D02*
X11182086Y-7781484D01*
X11439229Y-7981484D02*
X11439229Y-7781484D01*
X11439229Y-7781484D02*
X11505896Y-7924341D01*
X11505896Y-7924341D02*
X11572562Y-7781484D01*
X11572562Y-7781484D02*
X11572562Y-7981484D01*
X11753515Y-7981484D02*
X11753515Y-7876722D01*
X11753515Y-7876722D02*
X11743991Y-7857674D01*
X11743991Y-7857674D02*
X11724943Y-7848150D01*
X11724943Y-7848150D02*
X11686848Y-7848150D01*
X11686848Y-7848150D02*
X11667801Y-7857674D01*
X11753515Y-7971960D02*
X11734467Y-7981484D01*
X11734467Y-7981484D02*
X11686848Y-7981484D01*
X11686848Y-7981484D02*
X11667801Y-7971960D01*
X11667801Y-7971960D02*
X11658277Y-7952912D01*
X11658277Y-7952912D02*
X11658277Y-7933865D01*
X11658277Y-7933865D02*
X11667801Y-7914817D01*
X11667801Y-7914817D02*
X11686848Y-7905293D01*
X11686848Y-7905293D02*
X11734467Y-7905293D01*
X11734467Y-7905293D02*
X11753515Y-7895769D01*
X11848753Y-7848150D02*
X11848753Y-8048150D01*
X11848753Y-7857674D02*
X11867801Y-7848150D01*
X11867801Y-7848150D02*
X11905896Y-7848150D01*
X11905896Y-7848150D02*
X11924943Y-7857674D01*
X11924943Y-7857674D02*
X11934467Y-7867198D01*
X11934467Y-7867198D02*
X11943991Y-7886246D01*
X11943991Y-7886246D02*
X11943991Y-7943388D01*
X11943991Y-7943388D02*
X11934467Y-7962436D01*
X11934467Y-7962436D02*
X11924943Y-7971960D01*
X11924943Y-7971960D02*
X11905896Y-7981484D01*
X11905896Y-7981484D02*
X11867801Y-7981484D01*
X11867801Y-7981484D02*
X11848753Y-7971960D01*
X12029705Y-7962436D02*
X12039229Y-7971960D01*
X12039229Y-7971960D02*
X12029705Y-7981484D01*
X12029705Y-7981484D02*
X12020182Y-7971960D01*
X12020182Y-7971960D02*
X12029705Y-7962436D01*
X12029705Y-7962436D02*
X12029705Y-7981484D01*
X12029705Y-7857674D02*
X12039229Y-7867198D01*
X12039229Y-7867198D02*
X12029705Y-7876722D01*
X12029705Y-7876722D02*
X12020182Y-7867198D01*
X12020182Y-7867198D02*
X12029705Y-7857674D01*
X12029705Y-7857674D02*
X12029705Y-7876722D01*
D12*
X10317500Y-8270000D02*
X10397500Y-8350000D01*
X10397500Y-8270000D02*
X10317500Y-8350000D01*
D11*
X10696372Y-8201484D02*
X10715420Y-8201484D01*
X10715420Y-8201484D02*
X10734467Y-8211008D01*
X10734467Y-8211008D02*
X10743991Y-8220531D01*
X10743991Y-8220531D02*
X10753515Y-8239579D01*
X10753515Y-8239579D02*
X10763039Y-8277674D01*
X10763039Y-8277674D02*
X10763039Y-8325293D01*
X10763039Y-8325293D02*
X10753515Y-8363388D01*
X10753515Y-8363388D02*
X10743991Y-8382436D01*
X10743991Y-8382436D02*
X10734467Y-8391960D01*
X10734467Y-8391960D02*
X10715420Y-8401484D01*
X10715420Y-8401484D02*
X10696372Y-8401484D01*
X10696372Y-8401484D02*
X10677324Y-8391960D01*
X10677324Y-8391960D02*
X10667801Y-8382436D01*
X10667801Y-8382436D02*
X10658277Y-8363388D01*
X10658277Y-8363388D02*
X10648753Y-8325293D01*
X10648753Y-8325293D02*
X10648753Y-8277674D01*
X10648753Y-8277674D02*
X10658277Y-8239579D01*
X10658277Y-8239579D02*
X10667801Y-8220531D01*
X10667801Y-8220531D02*
X10677324Y-8211008D01*
X10677324Y-8211008D02*
X10696372Y-8201484D01*
X10848753Y-8382436D02*
X10858277Y-8391960D01*
X10858277Y-8391960D02*
X10848753Y-8401484D01*
X10848753Y-8401484D02*
X10839229Y-8391960D01*
X10839229Y-8391960D02*
X10848753Y-8382436D01*
X10848753Y-8382436D02*
X10848753Y-8401484D01*
X10972563Y-8287198D02*
X10953515Y-8277674D01*
X10953515Y-8277674D02*
X10943991Y-8268150D01*
X10943991Y-8268150D02*
X10934467Y-8249103D01*
X10934467Y-8249103D02*
X10934467Y-8239579D01*
X10934467Y-8239579D02*
X10943991Y-8220531D01*
X10943991Y-8220531D02*
X10953515Y-8211008D01*
X10953515Y-8211008D02*
X10972563Y-8201484D01*
X10972563Y-8201484D02*
X11010658Y-8201484D01*
X11010658Y-8201484D02*
X11029705Y-8211008D01*
X11029705Y-8211008D02*
X11039229Y-8220531D01*
X11039229Y-8220531D02*
X11048753Y-8239579D01*
X11048753Y-8239579D02*
X11048753Y-8249103D01*
X11048753Y-8249103D02*
X11039229Y-8268150D01*
X11039229Y-8268150D02*
X11029705Y-8277674D01*
X11029705Y-8277674D02*
X11010658Y-8287198D01*
X11010658Y-8287198D02*
X10972563Y-8287198D01*
X10972563Y-8287198D02*
X10953515Y-8296722D01*
X10953515Y-8296722D02*
X10943991Y-8306246D01*
X10943991Y-8306246D02*
X10934467Y-8325293D01*
X10934467Y-8325293D02*
X10934467Y-8363388D01*
X10934467Y-8363388D02*
X10943991Y-8382436D01*
X10943991Y-8382436D02*
X10953515Y-8391960D01*
X10953515Y-8391960D02*
X10972563Y-8401484D01*
X10972563Y-8401484D02*
X11010658Y-8401484D01*
X11010658Y-8401484D02*
X11029705Y-8391960D01*
X11029705Y-8391960D02*
X11039229Y-8382436D01*
X11039229Y-8382436D02*
X11048753Y-8363388D01*
X11048753Y-8363388D02*
X11048753Y-8325293D01*
X11048753Y-8325293D02*
X11039229Y-8306246D01*
X11039229Y-8306246D02*
X11029705Y-8296722D01*
X11029705Y-8296722D02*
X11010658Y-8287198D01*
X11172563Y-8201484D02*
X11191610Y-8201484D01*
X11191610Y-8201484D02*
X11210658Y-8211008D01*
X11210658Y-8211008D02*
X11220182Y-8220531D01*
X11220182Y-8220531D02*
X11229705Y-8239579D01*
X11229705Y-8239579D02*
X11239229Y-8277674D01*
X11239229Y-8277674D02*
X11239229Y-8325293D01*
X11239229Y-8325293D02*
X11229705Y-8363388D01*
X11229705Y-8363388D02*
X11220182Y-8382436D01*
X11220182Y-8382436D02*
X11210658Y-8391960D01*
X11210658Y-8391960D02*
X11191610Y-8401484D01*
X11191610Y-8401484D02*
X11172563Y-8401484D01*
X11172563Y-8401484D02*
X11153515Y-8391960D01*
X11153515Y-8391960D02*
X11143991Y-8382436D01*
X11143991Y-8382436D02*
X11134467Y-8363388D01*
X11134467Y-8363388D02*
X11124944Y-8325293D01*
X11124944Y-8325293D02*
X11124944Y-8277674D01*
X11124944Y-8277674D02*
X11134467Y-8239579D01*
X11134467Y-8239579D02*
X11143991Y-8220531D01*
X11143991Y-8220531D02*
X11153515Y-8211008D01*
X11153515Y-8211008D02*
X11172563Y-8201484D01*
X11363039Y-8201484D02*
X11382086Y-8201484D01*
X11382086Y-8201484D02*
X11401134Y-8211008D01*
X11401134Y-8211008D02*
X11410658Y-8220531D01*
X11410658Y-8220531D02*
X11420182Y-8239579D01*
X11420182Y-8239579D02*
X11429705Y-8277674D01*
X11429705Y-8277674D02*
X11429705Y-8325293D01*
X11429705Y-8325293D02*
X11420182Y-8363388D01*
X11420182Y-8363388D02*
X11410658Y-8382436D01*
X11410658Y-8382436D02*
X11401134Y-8391960D01*
X11401134Y-8391960D02*
X11382086Y-8401484D01*
X11382086Y-8401484D02*
X11363039Y-8401484D01*
X11363039Y-8401484D02*
X11343991Y-8391960D01*
X11343991Y-8391960D02*
X11334467Y-8382436D01*
X11334467Y-8382436D02*
X11324943Y-8363388D01*
X11324943Y-8363388D02*
X11315420Y-8325293D01*
X11315420Y-8325293D02*
X11315420Y-8277674D01*
X11315420Y-8277674D02*
X11324943Y-8239579D01*
X11324943Y-8239579D02*
X11334467Y-8220531D01*
X11334467Y-8220531D02*
X11343991Y-8211008D01*
X11343991Y-8211008D02*
X11363039Y-8201484D01*
X11515420Y-8401484D02*
X11515420Y-8268150D01*
X11515420Y-8287198D02*
X11524943Y-8277674D01*
X11524943Y-8277674D02*
X11543991Y-8268150D01*
X11543991Y-8268150D02*
X11572563Y-8268150D01*
X11572563Y-8268150D02*
X11591610Y-8277674D01*
X11591610Y-8277674D02*
X11601134Y-8296722D01*
X11601134Y-8296722D02*
X11601134Y-8401484D01*
X11601134Y-8296722D02*
X11610658Y-8277674D01*
X11610658Y-8277674D02*
X11629705Y-8268150D01*
X11629705Y-8268150D02*
X11658277Y-8268150D01*
X11658277Y-8268150D02*
X11677324Y-8277674D01*
X11677324Y-8277674D02*
X11686848Y-8296722D01*
X11686848Y-8296722D02*
X11686848Y-8401484D01*
X11782086Y-8401484D02*
X11782086Y-8268150D01*
X11782086Y-8287198D02*
X11791610Y-8277674D01*
X11791610Y-8277674D02*
X11810658Y-8268150D01*
X11810658Y-8268150D02*
X11839229Y-8268150D01*
X11839229Y-8268150D02*
X11858277Y-8277674D01*
X11858277Y-8277674D02*
X11867801Y-8296722D01*
X11867801Y-8296722D02*
X11867801Y-8401484D01*
X11867801Y-8296722D02*
X11877324Y-8277674D01*
X11877324Y-8277674D02*
X11896372Y-8268150D01*
X11896372Y-8268150D02*
X11924943Y-8268150D01*
X11924943Y-8268150D02*
X11943991Y-8277674D01*
X11943991Y-8277674D02*
X11953515Y-8296722D01*
X11953515Y-8296722D02*
X11953515Y-8401484D01*
X12343991Y-8191960D02*
X12172563Y-8449103D01*
X12601134Y-8201484D02*
X12620182Y-8201484D01*
X12620182Y-8201484D02*
X12639229Y-8211008D01*
X12639229Y-8211008D02*
X12648753Y-8220531D01*
X12648753Y-8220531D02*
X12658277Y-8239579D01*
X12658277Y-8239579D02*
X12667801Y-8277674D01*
X12667801Y-8277674D02*
X12667801Y-8325293D01*
X12667801Y-8325293D02*
X12658277Y-8363388D01*
X12658277Y-8363388D02*
X12648753Y-8382436D01*
X12648753Y-8382436D02*
X12639229Y-8391960D01*
X12639229Y-8391960D02*
X12620182Y-8401484D01*
X12620182Y-8401484D02*
X12601134Y-8401484D01*
X12601134Y-8401484D02*
X12582086Y-8391960D01*
X12582086Y-8391960D02*
X12572563Y-8382436D01*
X12572563Y-8382436D02*
X12563039Y-8363388D01*
X12563039Y-8363388D02*
X12553515Y-8325293D01*
X12553515Y-8325293D02*
X12553515Y-8277674D01*
X12553515Y-8277674D02*
X12563039Y-8239579D01*
X12563039Y-8239579D02*
X12572563Y-8220531D01*
X12572563Y-8220531D02*
X12582086Y-8211008D01*
X12582086Y-8211008D02*
X12601134Y-8201484D01*
X12753515Y-8382436D02*
X12763039Y-8391960D01*
X12763039Y-8391960D02*
X12753515Y-8401484D01*
X12753515Y-8401484D02*
X12743991Y-8391960D01*
X12743991Y-8391960D02*
X12753515Y-8382436D01*
X12753515Y-8382436D02*
X12753515Y-8401484D01*
X12886848Y-8201484D02*
X12905896Y-8201484D01*
X12905896Y-8201484D02*
X12924944Y-8211008D01*
X12924944Y-8211008D02*
X12934467Y-8220531D01*
X12934467Y-8220531D02*
X12943991Y-8239579D01*
X12943991Y-8239579D02*
X12953515Y-8277674D01*
X12953515Y-8277674D02*
X12953515Y-8325293D01*
X12953515Y-8325293D02*
X12943991Y-8363388D01*
X12943991Y-8363388D02*
X12934467Y-8382436D01*
X12934467Y-8382436D02*
X12924944Y-8391960D01*
X12924944Y-8391960D02*
X12905896Y-8401484D01*
X12905896Y-8401484D02*
X12886848Y-8401484D01*
X12886848Y-8401484D02*
X12867801Y-8391960D01*
X12867801Y-8391960D02*
X12858277Y-8382436D01*
X12858277Y-8382436D02*
X12848753Y-8363388D01*
X12848753Y-8363388D02*
X12839229Y-8325293D01*
X12839229Y-8325293D02*
X12839229Y-8277674D01*
X12839229Y-8277674D02*
X12848753Y-8239579D01*
X12848753Y-8239579D02*
X12858277Y-8220531D01*
X12858277Y-8220531D02*
X12867801Y-8211008D01*
X12867801Y-8211008D02*
X12886848Y-8201484D01*
X13020182Y-8201484D02*
X13143991Y-8201484D01*
X13143991Y-8201484D02*
X13077325Y-8277674D01*
X13077325Y-8277674D02*
X13105896Y-8277674D01*
X13105896Y-8277674D02*
X13124944Y-8287198D01*
X13124944Y-8287198D02*
X13134467Y-8296722D01*
X13134467Y-8296722D02*
X13143991Y-8315769D01*
X13143991Y-8315769D02*
X13143991Y-8363388D01*
X13143991Y-8363388D02*
X13134467Y-8382436D01*
X13134467Y-8382436D02*
X13124944Y-8391960D01*
X13124944Y-8391960D02*
X13105896Y-8401484D01*
X13105896Y-8401484D02*
X13048753Y-8401484D01*
X13048753Y-8401484D02*
X13029706Y-8391960D01*
X13029706Y-8391960D02*
X13020182Y-8382436D01*
X13334467Y-8401484D02*
X13220182Y-8401484D01*
X13277325Y-8401484D02*
X13277325Y-8201484D01*
X13277325Y-8201484D02*
X13258277Y-8230055D01*
X13258277Y-8230055D02*
X13239229Y-8249103D01*
X13239229Y-8249103D02*
X13220182Y-8258627D01*
X13515420Y-8201484D02*
X13420182Y-8201484D01*
X13420182Y-8201484D02*
X13410658Y-8296722D01*
X13410658Y-8296722D02*
X13420182Y-8287198D01*
X13420182Y-8287198D02*
X13439229Y-8277674D01*
X13439229Y-8277674D02*
X13486848Y-8277674D01*
X13486848Y-8277674D02*
X13505896Y-8287198D01*
X13505896Y-8287198D02*
X13515420Y-8296722D01*
X13515420Y-8296722D02*
X13524944Y-8315769D01*
X13524944Y-8315769D02*
X13524944Y-8363388D01*
X13524944Y-8363388D02*
X13515420Y-8382436D01*
X13515420Y-8382436D02*
X13505896Y-8391960D01*
X13505896Y-8391960D02*
X13486848Y-8401484D01*
X13486848Y-8401484D02*
X13439229Y-8401484D01*
X13439229Y-8401484D02*
X13420182Y-8391960D01*
X13420182Y-8391960D02*
X13410658Y-8382436D01*
X13601134Y-8201484D02*
X13601134Y-8239579D01*
X13677325Y-8201484D02*
X13677325Y-8239579D01*
X13972563Y-8477674D02*
X13963039Y-8468150D01*
X13963039Y-8468150D02*
X13943991Y-8439579D01*
X13943991Y-8439579D02*
X13934468Y-8420531D01*
X13934468Y-8420531D02*
X13924944Y-8391960D01*
X13924944Y-8391960D02*
X13915420Y-8344341D01*
X13915420Y-8344341D02*
X13915420Y-8306246D01*
X13915420Y-8306246D02*
X13924944Y-8258627D01*
X13924944Y-8258627D02*
X13934468Y-8230055D01*
X13934468Y-8230055D02*
X13943991Y-8211008D01*
X13943991Y-8211008D02*
X13963039Y-8182436D01*
X13963039Y-8182436D02*
X13972563Y-8172912D01*
X14134468Y-8268150D02*
X14134468Y-8401484D01*
X14086848Y-8191960D02*
X14039229Y-8334817D01*
X14039229Y-8334817D02*
X14163039Y-8334817D01*
X14391610Y-8401484D02*
X14391610Y-8201484D01*
X14477325Y-8401484D02*
X14477325Y-8296722D01*
X14477325Y-8296722D02*
X14467801Y-8277674D01*
X14467801Y-8277674D02*
X14448753Y-8268150D01*
X14448753Y-8268150D02*
X14420182Y-8268150D01*
X14420182Y-8268150D02*
X14401134Y-8277674D01*
X14401134Y-8277674D02*
X14391610Y-8287198D01*
X14601134Y-8401484D02*
X14582087Y-8391960D01*
X14582087Y-8391960D02*
X14572563Y-8382436D01*
X14572563Y-8382436D02*
X14563039Y-8363388D01*
X14563039Y-8363388D02*
X14563039Y-8306246D01*
X14563039Y-8306246D02*
X14572563Y-8287198D01*
X14572563Y-8287198D02*
X14582087Y-8277674D01*
X14582087Y-8277674D02*
X14601134Y-8268150D01*
X14601134Y-8268150D02*
X14629706Y-8268150D01*
X14629706Y-8268150D02*
X14648753Y-8277674D01*
X14648753Y-8277674D02*
X14658277Y-8287198D01*
X14658277Y-8287198D02*
X14667801Y-8306246D01*
X14667801Y-8306246D02*
X14667801Y-8363388D01*
X14667801Y-8363388D02*
X14658277Y-8382436D01*
X14658277Y-8382436D02*
X14648753Y-8391960D01*
X14648753Y-8391960D02*
X14629706Y-8401484D01*
X14629706Y-8401484D02*
X14601134Y-8401484D01*
X14782087Y-8401484D02*
X14763039Y-8391960D01*
X14763039Y-8391960D02*
X14753515Y-8372912D01*
X14753515Y-8372912D02*
X14753515Y-8201484D01*
X14934468Y-8391960D02*
X14915420Y-8401484D01*
X14915420Y-8401484D02*
X14877325Y-8401484D01*
X14877325Y-8401484D02*
X14858277Y-8391960D01*
X14858277Y-8391960D02*
X14848753Y-8372912D01*
X14848753Y-8372912D02*
X14848753Y-8296722D01*
X14848753Y-8296722D02*
X14858277Y-8277674D01*
X14858277Y-8277674D02*
X14877325Y-8268150D01*
X14877325Y-8268150D02*
X14915420Y-8268150D01*
X14915420Y-8268150D02*
X14934468Y-8277674D01*
X14934468Y-8277674D02*
X14943991Y-8296722D01*
X14943991Y-8296722D02*
X14943991Y-8315769D01*
X14943991Y-8315769D02*
X14848753Y-8334817D01*
X15020182Y-8391960D02*
X15039230Y-8401484D01*
X15039230Y-8401484D02*
X15077325Y-8401484D01*
X15077325Y-8401484D02*
X15096372Y-8391960D01*
X15096372Y-8391960D02*
X15105896Y-8372912D01*
X15105896Y-8372912D02*
X15105896Y-8363388D01*
X15105896Y-8363388D02*
X15096372Y-8344341D01*
X15096372Y-8344341D02*
X15077325Y-8334817D01*
X15077325Y-8334817D02*
X15048753Y-8334817D01*
X15048753Y-8334817D02*
X15029706Y-8325293D01*
X15029706Y-8325293D02*
X15020182Y-8306246D01*
X15020182Y-8306246D02*
X15020182Y-8296722D01*
X15020182Y-8296722D02*
X15029706Y-8277674D01*
X15029706Y-8277674D02*
X15048753Y-8268150D01*
X15048753Y-8268150D02*
X15077325Y-8268150D01*
X15077325Y-8268150D02*
X15096372Y-8277674D01*
X15172563Y-8477674D02*
X15182087Y-8468150D01*
X15182087Y-8468150D02*
X15201134Y-8439579D01*
X15201134Y-8439579D02*
X15210658Y-8420531D01*
X15210658Y-8420531D02*
X15220182Y-8391960D01*
X15220182Y-8391960D02*
X15229706Y-8344341D01*
X15229706Y-8344341D02*
X15229706Y-8306246D01*
X15229706Y-8306246D02*
X15220182Y-8258627D01*
X15220182Y-8258627D02*
X15210658Y-8230055D01*
X15210658Y-8230055D02*
X15201134Y-8211008D01*
X15201134Y-8211008D02*
X15182087Y-8182436D01*
X15182087Y-8182436D02*
X15172563Y-8172912D01*
D12*
X10397500Y-8574000D02*
G75*
G02*
X10312500Y-8574000I-42500J0D01*
G01*
X10312500Y-8574000D02*
G75*
G02*
X10397500Y-8574000I42500J0D01*
G01*
D11*
X10696372Y-8465484D02*
X10715420Y-8465484D01*
X10715420Y-8465484D02*
X10734467Y-8475008D01*
X10734467Y-8475008D02*
X10743991Y-8484531D01*
X10743991Y-8484531D02*
X10753515Y-8503579D01*
X10753515Y-8503579D02*
X10763039Y-8541674D01*
X10763039Y-8541674D02*
X10763039Y-8589293D01*
X10763039Y-8589293D02*
X10753515Y-8627389D01*
X10753515Y-8627389D02*
X10743991Y-8646436D01*
X10743991Y-8646436D02*
X10734467Y-8655960D01*
X10734467Y-8655960D02*
X10715420Y-8665484D01*
X10715420Y-8665484D02*
X10696372Y-8665484D01*
X10696372Y-8665484D02*
X10677324Y-8655960D01*
X10677324Y-8655960D02*
X10667801Y-8646436D01*
X10667801Y-8646436D02*
X10658277Y-8627389D01*
X10658277Y-8627389D02*
X10648753Y-8589293D01*
X10648753Y-8589293D02*
X10648753Y-8541674D01*
X10648753Y-8541674D02*
X10658277Y-8503579D01*
X10658277Y-8503579D02*
X10667801Y-8484531D01*
X10667801Y-8484531D02*
X10677324Y-8475008D01*
X10677324Y-8475008D02*
X10696372Y-8465484D01*
X10848753Y-8646436D02*
X10858277Y-8655960D01*
X10858277Y-8655960D02*
X10848753Y-8665484D01*
X10848753Y-8665484D02*
X10839229Y-8655960D01*
X10839229Y-8655960D02*
X10848753Y-8646436D01*
X10848753Y-8646436D02*
X10848753Y-8665484D01*
X10972563Y-8551198D02*
X10953515Y-8541674D01*
X10953515Y-8541674D02*
X10943991Y-8532150D01*
X10943991Y-8532150D02*
X10934467Y-8513103D01*
X10934467Y-8513103D02*
X10934467Y-8503579D01*
X10934467Y-8503579D02*
X10943991Y-8484531D01*
X10943991Y-8484531D02*
X10953515Y-8475008D01*
X10953515Y-8475008D02*
X10972563Y-8465484D01*
X10972563Y-8465484D02*
X11010658Y-8465484D01*
X11010658Y-8465484D02*
X11029705Y-8475008D01*
X11029705Y-8475008D02*
X11039229Y-8484531D01*
X11039229Y-8484531D02*
X11048753Y-8503579D01*
X11048753Y-8503579D02*
X11048753Y-8513103D01*
X11048753Y-8513103D02*
X11039229Y-8532150D01*
X11039229Y-8532150D02*
X11029705Y-8541674D01*
X11029705Y-8541674D02*
X11010658Y-8551198D01*
X11010658Y-8551198D02*
X10972563Y-8551198D01*
X10972563Y-8551198D02*
X10953515Y-8560722D01*
X10953515Y-8560722D02*
X10943991Y-8570246D01*
X10943991Y-8570246D02*
X10934467Y-8589293D01*
X10934467Y-8589293D02*
X10934467Y-8627389D01*
X10934467Y-8627389D02*
X10943991Y-8646436D01*
X10943991Y-8646436D02*
X10953515Y-8655960D01*
X10953515Y-8655960D02*
X10972563Y-8665484D01*
X10972563Y-8665484D02*
X11010658Y-8665484D01*
X11010658Y-8665484D02*
X11029705Y-8655960D01*
X11029705Y-8655960D02*
X11039229Y-8646436D01*
X11039229Y-8646436D02*
X11048753Y-8627389D01*
X11048753Y-8627389D02*
X11048753Y-8589293D01*
X11048753Y-8589293D02*
X11039229Y-8570246D01*
X11039229Y-8570246D02*
X11029705Y-8560722D01*
X11029705Y-8560722D02*
X11010658Y-8551198D01*
X11229705Y-8465484D02*
X11134467Y-8465484D01*
X11134467Y-8465484D02*
X11124944Y-8560722D01*
X11124944Y-8560722D02*
X11134467Y-8551198D01*
X11134467Y-8551198D02*
X11153515Y-8541674D01*
X11153515Y-8541674D02*
X11201134Y-8541674D01*
X11201134Y-8541674D02*
X11220182Y-8551198D01*
X11220182Y-8551198D02*
X11229705Y-8560722D01*
X11229705Y-8560722D02*
X11239229Y-8579770D01*
X11239229Y-8579770D02*
X11239229Y-8627389D01*
X11239229Y-8627389D02*
X11229705Y-8646436D01*
X11229705Y-8646436D02*
X11220182Y-8655960D01*
X11220182Y-8655960D02*
X11201134Y-8665484D01*
X11201134Y-8665484D02*
X11153515Y-8665484D01*
X11153515Y-8665484D02*
X11134467Y-8655960D01*
X11134467Y-8655960D02*
X11124944Y-8646436D01*
X11363039Y-8465484D02*
X11382086Y-8465484D01*
X11382086Y-8465484D02*
X11401134Y-8475008D01*
X11401134Y-8475008D02*
X11410658Y-8484531D01*
X11410658Y-8484531D02*
X11420182Y-8503579D01*
X11420182Y-8503579D02*
X11429705Y-8541674D01*
X11429705Y-8541674D02*
X11429705Y-8589293D01*
X11429705Y-8589293D02*
X11420182Y-8627389D01*
X11420182Y-8627389D02*
X11410658Y-8646436D01*
X11410658Y-8646436D02*
X11401134Y-8655960D01*
X11401134Y-8655960D02*
X11382086Y-8665484D01*
X11382086Y-8665484D02*
X11363039Y-8665484D01*
X11363039Y-8665484D02*
X11343991Y-8655960D01*
X11343991Y-8655960D02*
X11334467Y-8646436D01*
X11334467Y-8646436D02*
X11324943Y-8627389D01*
X11324943Y-8627389D02*
X11315420Y-8589293D01*
X11315420Y-8589293D02*
X11315420Y-8541674D01*
X11315420Y-8541674D02*
X11324943Y-8503579D01*
X11324943Y-8503579D02*
X11334467Y-8484531D01*
X11334467Y-8484531D02*
X11343991Y-8475008D01*
X11343991Y-8475008D02*
X11363039Y-8465484D01*
X11515420Y-8665484D02*
X11515420Y-8532150D01*
X11515420Y-8551198D02*
X11524943Y-8541674D01*
X11524943Y-8541674D02*
X11543991Y-8532150D01*
X11543991Y-8532150D02*
X11572563Y-8532150D01*
X11572563Y-8532150D02*
X11591610Y-8541674D01*
X11591610Y-8541674D02*
X11601134Y-8560722D01*
X11601134Y-8560722D02*
X11601134Y-8665484D01*
X11601134Y-8560722D02*
X11610658Y-8541674D01*
X11610658Y-8541674D02*
X11629705Y-8532150D01*
X11629705Y-8532150D02*
X11658277Y-8532150D01*
X11658277Y-8532150D02*
X11677324Y-8541674D01*
X11677324Y-8541674D02*
X11686848Y-8560722D01*
X11686848Y-8560722D02*
X11686848Y-8665484D01*
X11782086Y-8665484D02*
X11782086Y-8532150D01*
X11782086Y-8551198D02*
X11791610Y-8541674D01*
X11791610Y-8541674D02*
X11810658Y-8532150D01*
X11810658Y-8532150D02*
X11839229Y-8532150D01*
X11839229Y-8532150D02*
X11858277Y-8541674D01*
X11858277Y-8541674D02*
X11867801Y-8560722D01*
X11867801Y-8560722D02*
X11867801Y-8665484D01*
X11867801Y-8560722D02*
X11877324Y-8541674D01*
X11877324Y-8541674D02*
X11896372Y-8532150D01*
X11896372Y-8532150D02*
X11924943Y-8532150D01*
X11924943Y-8532150D02*
X11943991Y-8541674D01*
X11943991Y-8541674D02*
X11953515Y-8560722D01*
X11953515Y-8560722D02*
X11953515Y-8665484D01*
X12343991Y-8455960D02*
X12172563Y-8713103D01*
X12601134Y-8465484D02*
X12620182Y-8465484D01*
X12620182Y-8465484D02*
X12639229Y-8475008D01*
X12639229Y-8475008D02*
X12648753Y-8484531D01*
X12648753Y-8484531D02*
X12658277Y-8503579D01*
X12658277Y-8503579D02*
X12667801Y-8541674D01*
X12667801Y-8541674D02*
X12667801Y-8589293D01*
X12667801Y-8589293D02*
X12658277Y-8627389D01*
X12658277Y-8627389D02*
X12648753Y-8646436D01*
X12648753Y-8646436D02*
X12639229Y-8655960D01*
X12639229Y-8655960D02*
X12620182Y-8665484D01*
X12620182Y-8665484D02*
X12601134Y-8665484D01*
X12601134Y-8665484D02*
X12582086Y-8655960D01*
X12582086Y-8655960D02*
X12572563Y-8646436D01*
X12572563Y-8646436D02*
X12563039Y-8627389D01*
X12563039Y-8627389D02*
X12553515Y-8589293D01*
X12553515Y-8589293D02*
X12553515Y-8541674D01*
X12553515Y-8541674D02*
X12563039Y-8503579D01*
X12563039Y-8503579D02*
X12572563Y-8484531D01*
X12572563Y-8484531D02*
X12582086Y-8475008D01*
X12582086Y-8475008D02*
X12601134Y-8465484D01*
X12753515Y-8646436D02*
X12763039Y-8655960D01*
X12763039Y-8655960D02*
X12753515Y-8665484D01*
X12753515Y-8665484D02*
X12743991Y-8655960D01*
X12743991Y-8655960D02*
X12753515Y-8646436D01*
X12753515Y-8646436D02*
X12753515Y-8665484D01*
X12886848Y-8465484D02*
X12905896Y-8465484D01*
X12905896Y-8465484D02*
X12924944Y-8475008D01*
X12924944Y-8475008D02*
X12934467Y-8484531D01*
X12934467Y-8484531D02*
X12943991Y-8503579D01*
X12943991Y-8503579D02*
X12953515Y-8541674D01*
X12953515Y-8541674D02*
X12953515Y-8589293D01*
X12953515Y-8589293D02*
X12943991Y-8627389D01*
X12943991Y-8627389D02*
X12934467Y-8646436D01*
X12934467Y-8646436D02*
X12924944Y-8655960D01*
X12924944Y-8655960D02*
X12905896Y-8665484D01*
X12905896Y-8665484D02*
X12886848Y-8665484D01*
X12886848Y-8665484D02*
X12867801Y-8655960D01*
X12867801Y-8655960D02*
X12858277Y-8646436D01*
X12858277Y-8646436D02*
X12848753Y-8627389D01*
X12848753Y-8627389D02*
X12839229Y-8589293D01*
X12839229Y-8589293D02*
X12839229Y-8541674D01*
X12839229Y-8541674D02*
X12848753Y-8503579D01*
X12848753Y-8503579D02*
X12858277Y-8484531D01*
X12858277Y-8484531D02*
X12867801Y-8475008D01*
X12867801Y-8475008D02*
X12886848Y-8465484D01*
X13020182Y-8465484D02*
X13143991Y-8465484D01*
X13143991Y-8465484D02*
X13077325Y-8541674D01*
X13077325Y-8541674D02*
X13105896Y-8541674D01*
X13105896Y-8541674D02*
X13124944Y-8551198D01*
X13124944Y-8551198D02*
X13134467Y-8560722D01*
X13134467Y-8560722D02*
X13143991Y-8579770D01*
X13143991Y-8579770D02*
X13143991Y-8627389D01*
X13143991Y-8627389D02*
X13134467Y-8646436D01*
X13134467Y-8646436D02*
X13124944Y-8655960D01*
X13124944Y-8655960D02*
X13105896Y-8665484D01*
X13105896Y-8665484D02*
X13048753Y-8665484D01*
X13048753Y-8665484D02*
X13029706Y-8655960D01*
X13029706Y-8655960D02*
X13020182Y-8646436D01*
X13210658Y-8465484D02*
X13334467Y-8465484D01*
X13334467Y-8465484D02*
X13267801Y-8541674D01*
X13267801Y-8541674D02*
X13296372Y-8541674D01*
X13296372Y-8541674D02*
X13315420Y-8551198D01*
X13315420Y-8551198D02*
X13324944Y-8560722D01*
X13324944Y-8560722D02*
X13334467Y-8579770D01*
X13334467Y-8579770D02*
X13334467Y-8627389D01*
X13334467Y-8627389D02*
X13324944Y-8646436D01*
X13324944Y-8646436D02*
X13315420Y-8655960D01*
X13315420Y-8655960D02*
X13296372Y-8665484D01*
X13296372Y-8665484D02*
X13239229Y-8665484D01*
X13239229Y-8665484D02*
X13220182Y-8655960D01*
X13220182Y-8655960D02*
X13210658Y-8646436D01*
X13515420Y-8465484D02*
X13420182Y-8465484D01*
X13420182Y-8465484D02*
X13410658Y-8560722D01*
X13410658Y-8560722D02*
X13420182Y-8551198D01*
X13420182Y-8551198D02*
X13439229Y-8541674D01*
X13439229Y-8541674D02*
X13486848Y-8541674D01*
X13486848Y-8541674D02*
X13505896Y-8551198D01*
X13505896Y-8551198D02*
X13515420Y-8560722D01*
X13515420Y-8560722D02*
X13524944Y-8579770D01*
X13524944Y-8579770D02*
X13524944Y-8627389D01*
X13524944Y-8627389D02*
X13515420Y-8646436D01*
X13515420Y-8646436D02*
X13505896Y-8655960D01*
X13505896Y-8655960D02*
X13486848Y-8665484D01*
X13486848Y-8665484D02*
X13439229Y-8665484D01*
X13439229Y-8665484D02*
X13420182Y-8655960D01*
X13420182Y-8655960D02*
X13410658Y-8646436D01*
X13601134Y-8465484D02*
X13601134Y-8503579D01*
X13677325Y-8465484D02*
X13677325Y-8503579D01*
X13972563Y-8741674D02*
X13963039Y-8732150D01*
X13963039Y-8732150D02*
X13943991Y-8703579D01*
X13943991Y-8703579D02*
X13934468Y-8684531D01*
X13934468Y-8684531D02*
X13924944Y-8655960D01*
X13924944Y-8655960D02*
X13915420Y-8608341D01*
X13915420Y-8608341D02*
X13915420Y-8570246D01*
X13915420Y-8570246D02*
X13924944Y-8522627D01*
X13924944Y-8522627D02*
X13934468Y-8494055D01*
X13934468Y-8494055D02*
X13943991Y-8475008D01*
X13943991Y-8475008D02*
X13963039Y-8446436D01*
X13963039Y-8446436D02*
X13972563Y-8436912D01*
X14134468Y-8532150D02*
X14134468Y-8665484D01*
X14086848Y-8455960D02*
X14039229Y-8598817D01*
X14039229Y-8598817D02*
X14163039Y-8598817D01*
X14391610Y-8665484D02*
X14391610Y-8465484D01*
X14477325Y-8665484D02*
X14477325Y-8560722D01*
X14477325Y-8560722D02*
X14467801Y-8541674D01*
X14467801Y-8541674D02*
X14448753Y-8532150D01*
X14448753Y-8532150D02*
X14420182Y-8532150D01*
X14420182Y-8532150D02*
X14401134Y-8541674D01*
X14401134Y-8541674D02*
X14391610Y-8551198D01*
X14601134Y-8665484D02*
X14582087Y-8655960D01*
X14582087Y-8655960D02*
X14572563Y-8646436D01*
X14572563Y-8646436D02*
X14563039Y-8627389D01*
X14563039Y-8627389D02*
X14563039Y-8570246D01*
X14563039Y-8570246D02*
X14572563Y-8551198D01*
X14572563Y-8551198D02*
X14582087Y-8541674D01*
X14582087Y-8541674D02*
X14601134Y-8532150D01*
X14601134Y-8532150D02*
X14629706Y-8532150D01*
X14629706Y-8532150D02*
X14648753Y-8541674D01*
X14648753Y-8541674D02*
X14658277Y-8551198D01*
X14658277Y-8551198D02*
X14667801Y-8570246D01*
X14667801Y-8570246D02*
X14667801Y-8627389D01*
X14667801Y-8627389D02*
X14658277Y-8646436D01*
X14658277Y-8646436D02*
X14648753Y-8655960D01*
X14648753Y-8655960D02*
X14629706Y-8665484D01*
X14629706Y-8665484D02*
X14601134Y-8665484D01*
X14782087Y-8665484D02*
X14763039Y-8655960D01*
X14763039Y-8655960D02*
X14753515Y-8636912D01*
X14753515Y-8636912D02*
X14753515Y-8465484D01*
X14934468Y-8655960D02*
X14915420Y-8665484D01*
X14915420Y-8665484D02*
X14877325Y-8665484D01*
X14877325Y-8665484D02*
X14858277Y-8655960D01*
X14858277Y-8655960D02*
X14848753Y-8636912D01*
X14848753Y-8636912D02*
X14848753Y-8560722D01*
X14848753Y-8560722D02*
X14858277Y-8541674D01*
X14858277Y-8541674D02*
X14877325Y-8532150D01*
X14877325Y-8532150D02*
X14915420Y-8532150D01*
X14915420Y-8532150D02*
X14934468Y-8541674D01*
X14934468Y-8541674D02*
X14943991Y-8560722D01*
X14943991Y-8560722D02*
X14943991Y-8579770D01*
X14943991Y-8579770D02*
X14848753Y-8598817D01*
X15020182Y-8655960D02*
X15039230Y-8665484D01*
X15039230Y-8665484D02*
X15077325Y-8665484D01*
X15077325Y-8665484D02*
X15096372Y-8655960D01*
X15096372Y-8655960D02*
X15105896Y-8636912D01*
X15105896Y-8636912D02*
X15105896Y-8627389D01*
X15105896Y-8627389D02*
X15096372Y-8608341D01*
X15096372Y-8608341D02*
X15077325Y-8598817D01*
X15077325Y-8598817D02*
X15048753Y-8598817D01*
X15048753Y-8598817D02*
X15029706Y-8589293D01*
X15029706Y-8589293D02*
X15020182Y-8570246D01*
X15020182Y-8570246D02*
X15020182Y-8560722D01*
X15020182Y-8560722D02*
X15029706Y-8541674D01*
X15029706Y-8541674D02*
X15048753Y-8532150D01*
X15048753Y-8532150D02*
X15077325Y-8532150D01*
X15077325Y-8532150D02*
X15096372Y-8541674D01*
X15172563Y-8741674D02*
X15182087Y-8732150D01*
X15182087Y-8732150D02*
X15201134Y-8703579D01*
X15201134Y-8703579D02*
X15210658Y-8684531D01*
X15210658Y-8684531D02*
X15220182Y-8655960D01*
X15220182Y-8655960D02*
X15229706Y-8608341D01*
X15229706Y-8608341D02*
X15229706Y-8570246D01*
X15229706Y-8570246D02*
X15220182Y-8522627D01*
X15220182Y-8522627D02*
X15210658Y-8494055D01*
X15210658Y-8494055D02*
X15201134Y-8475008D01*
X15201134Y-8475008D02*
X15182087Y-8446436D01*
X15182087Y-8446436D02*
X15172563Y-8436912D01*
D12*
X10353050Y-8793550D02*
X10353050Y-8882450D01*
X10308600Y-8838000D02*
X10397500Y-8838000D01*
D11*
X10696372Y-8729484D02*
X10715420Y-8729484D01*
X10715420Y-8729484D02*
X10734467Y-8739008D01*
X10734467Y-8739008D02*
X10743991Y-8748531D01*
X10743991Y-8748531D02*
X10753515Y-8767579D01*
X10753515Y-8767579D02*
X10763039Y-8805674D01*
X10763039Y-8805674D02*
X10763039Y-8853293D01*
X10763039Y-8853293D02*
X10753515Y-8891389D01*
X10753515Y-8891389D02*
X10743991Y-8910436D01*
X10743991Y-8910436D02*
X10734467Y-8919960D01*
X10734467Y-8919960D02*
X10715420Y-8929484D01*
X10715420Y-8929484D02*
X10696372Y-8929484D01*
X10696372Y-8929484D02*
X10677324Y-8919960D01*
X10677324Y-8919960D02*
X10667801Y-8910436D01*
X10667801Y-8910436D02*
X10658277Y-8891389D01*
X10658277Y-8891389D02*
X10648753Y-8853293D01*
X10648753Y-8853293D02*
X10648753Y-8805674D01*
X10648753Y-8805674D02*
X10658277Y-8767579D01*
X10658277Y-8767579D02*
X10667801Y-8748531D01*
X10667801Y-8748531D02*
X10677324Y-8739008D01*
X10677324Y-8739008D02*
X10696372Y-8729484D01*
X10848753Y-8910436D02*
X10858277Y-8919960D01*
X10858277Y-8919960D02*
X10848753Y-8929484D01*
X10848753Y-8929484D02*
X10839229Y-8919960D01*
X10839229Y-8919960D02*
X10848753Y-8910436D01*
X10848753Y-8910436D02*
X10848753Y-8929484D01*
X10972563Y-8815198D02*
X10953515Y-8805674D01*
X10953515Y-8805674D02*
X10943991Y-8796150D01*
X10943991Y-8796150D02*
X10934467Y-8777103D01*
X10934467Y-8777103D02*
X10934467Y-8767579D01*
X10934467Y-8767579D02*
X10943991Y-8748531D01*
X10943991Y-8748531D02*
X10953515Y-8739008D01*
X10953515Y-8739008D02*
X10972563Y-8729484D01*
X10972563Y-8729484D02*
X11010658Y-8729484D01*
X11010658Y-8729484D02*
X11029705Y-8739008D01*
X11029705Y-8739008D02*
X11039229Y-8748531D01*
X11039229Y-8748531D02*
X11048753Y-8767579D01*
X11048753Y-8767579D02*
X11048753Y-8777103D01*
X11048753Y-8777103D02*
X11039229Y-8796150D01*
X11039229Y-8796150D02*
X11029705Y-8805674D01*
X11029705Y-8805674D02*
X11010658Y-8815198D01*
X11010658Y-8815198D02*
X10972563Y-8815198D01*
X10972563Y-8815198D02*
X10953515Y-8824722D01*
X10953515Y-8824722D02*
X10943991Y-8834246D01*
X10943991Y-8834246D02*
X10934467Y-8853293D01*
X10934467Y-8853293D02*
X10934467Y-8891389D01*
X10934467Y-8891389D02*
X10943991Y-8910436D01*
X10943991Y-8910436D02*
X10953515Y-8919960D01*
X10953515Y-8919960D02*
X10972563Y-8929484D01*
X10972563Y-8929484D02*
X11010658Y-8929484D01*
X11010658Y-8929484D02*
X11029705Y-8919960D01*
X11029705Y-8919960D02*
X11039229Y-8910436D01*
X11039229Y-8910436D02*
X11048753Y-8891389D01*
X11048753Y-8891389D02*
X11048753Y-8853293D01*
X11048753Y-8853293D02*
X11039229Y-8834246D01*
X11039229Y-8834246D02*
X11029705Y-8824722D01*
X11029705Y-8824722D02*
X11010658Y-8815198D01*
X11163039Y-8815198D02*
X11143991Y-8805674D01*
X11143991Y-8805674D02*
X11134467Y-8796150D01*
X11134467Y-8796150D02*
X11124944Y-8777103D01*
X11124944Y-8777103D02*
X11124944Y-8767579D01*
X11124944Y-8767579D02*
X11134467Y-8748531D01*
X11134467Y-8748531D02*
X11143991Y-8739008D01*
X11143991Y-8739008D02*
X11163039Y-8729484D01*
X11163039Y-8729484D02*
X11201134Y-8729484D01*
X11201134Y-8729484D02*
X11220182Y-8739008D01*
X11220182Y-8739008D02*
X11229705Y-8748531D01*
X11229705Y-8748531D02*
X11239229Y-8767579D01*
X11239229Y-8767579D02*
X11239229Y-8777103D01*
X11239229Y-8777103D02*
X11229705Y-8796150D01*
X11229705Y-8796150D02*
X11220182Y-8805674D01*
X11220182Y-8805674D02*
X11201134Y-8815198D01*
X11201134Y-8815198D02*
X11163039Y-8815198D01*
X11163039Y-8815198D02*
X11143991Y-8824722D01*
X11143991Y-8824722D02*
X11134467Y-8834246D01*
X11134467Y-8834246D02*
X11124944Y-8853293D01*
X11124944Y-8853293D02*
X11124944Y-8891389D01*
X11124944Y-8891389D02*
X11134467Y-8910436D01*
X11134467Y-8910436D02*
X11143991Y-8919960D01*
X11143991Y-8919960D02*
X11163039Y-8929484D01*
X11163039Y-8929484D02*
X11201134Y-8929484D01*
X11201134Y-8929484D02*
X11220182Y-8919960D01*
X11220182Y-8919960D02*
X11229705Y-8910436D01*
X11229705Y-8910436D02*
X11239229Y-8891389D01*
X11239229Y-8891389D02*
X11239229Y-8853293D01*
X11239229Y-8853293D02*
X11229705Y-8834246D01*
X11229705Y-8834246D02*
X11220182Y-8824722D01*
X11220182Y-8824722D02*
X11201134Y-8815198D01*
X11334467Y-8929484D02*
X11372562Y-8929484D01*
X11372562Y-8929484D02*
X11391610Y-8919960D01*
X11391610Y-8919960D02*
X11401134Y-8910436D01*
X11401134Y-8910436D02*
X11420182Y-8881865D01*
X11420182Y-8881865D02*
X11429705Y-8843770D01*
X11429705Y-8843770D02*
X11429705Y-8767579D01*
X11429705Y-8767579D02*
X11420182Y-8748531D01*
X11420182Y-8748531D02*
X11410658Y-8739008D01*
X11410658Y-8739008D02*
X11391610Y-8729484D01*
X11391610Y-8729484D02*
X11353515Y-8729484D01*
X11353515Y-8729484D02*
X11334467Y-8739008D01*
X11334467Y-8739008D02*
X11324943Y-8748531D01*
X11324943Y-8748531D02*
X11315420Y-8767579D01*
X11315420Y-8767579D02*
X11315420Y-8815198D01*
X11315420Y-8815198D02*
X11324943Y-8834246D01*
X11324943Y-8834246D02*
X11334467Y-8843770D01*
X11334467Y-8843770D02*
X11353515Y-8853293D01*
X11353515Y-8853293D02*
X11391610Y-8853293D01*
X11391610Y-8853293D02*
X11410658Y-8843770D01*
X11410658Y-8843770D02*
X11420182Y-8834246D01*
X11420182Y-8834246D02*
X11429705Y-8815198D01*
X11515420Y-8929484D02*
X11515420Y-8796150D01*
X11515420Y-8815198D02*
X11524943Y-8805674D01*
X11524943Y-8805674D02*
X11543991Y-8796150D01*
X11543991Y-8796150D02*
X11572563Y-8796150D01*
X11572563Y-8796150D02*
X11591610Y-8805674D01*
X11591610Y-8805674D02*
X11601134Y-8824722D01*
X11601134Y-8824722D02*
X11601134Y-8929484D01*
X11601134Y-8824722D02*
X11610658Y-8805674D01*
X11610658Y-8805674D02*
X11629705Y-8796150D01*
X11629705Y-8796150D02*
X11658277Y-8796150D01*
X11658277Y-8796150D02*
X11677324Y-8805674D01*
X11677324Y-8805674D02*
X11686848Y-8824722D01*
X11686848Y-8824722D02*
X11686848Y-8929484D01*
X11782086Y-8929484D02*
X11782086Y-8796150D01*
X11782086Y-8815198D02*
X11791610Y-8805674D01*
X11791610Y-8805674D02*
X11810658Y-8796150D01*
X11810658Y-8796150D02*
X11839229Y-8796150D01*
X11839229Y-8796150D02*
X11858277Y-8805674D01*
X11858277Y-8805674D02*
X11867801Y-8824722D01*
X11867801Y-8824722D02*
X11867801Y-8929484D01*
X11867801Y-8824722D02*
X11877324Y-8805674D01*
X11877324Y-8805674D02*
X11896372Y-8796150D01*
X11896372Y-8796150D02*
X11924943Y-8796150D01*
X11924943Y-8796150D02*
X11943991Y-8805674D01*
X11943991Y-8805674D02*
X11953515Y-8824722D01*
X11953515Y-8824722D02*
X11953515Y-8929484D01*
X12343991Y-8719960D02*
X12172563Y-8977103D01*
X12601134Y-8729484D02*
X12620182Y-8729484D01*
X12620182Y-8729484D02*
X12639229Y-8739008D01*
X12639229Y-8739008D02*
X12648753Y-8748531D01*
X12648753Y-8748531D02*
X12658277Y-8767579D01*
X12658277Y-8767579D02*
X12667801Y-8805674D01*
X12667801Y-8805674D02*
X12667801Y-8853293D01*
X12667801Y-8853293D02*
X12658277Y-8891389D01*
X12658277Y-8891389D02*
X12648753Y-8910436D01*
X12648753Y-8910436D02*
X12639229Y-8919960D01*
X12639229Y-8919960D02*
X12620182Y-8929484D01*
X12620182Y-8929484D02*
X12601134Y-8929484D01*
X12601134Y-8929484D02*
X12582086Y-8919960D01*
X12582086Y-8919960D02*
X12572563Y-8910436D01*
X12572563Y-8910436D02*
X12563039Y-8891389D01*
X12563039Y-8891389D02*
X12553515Y-8853293D01*
X12553515Y-8853293D02*
X12553515Y-8805674D01*
X12553515Y-8805674D02*
X12563039Y-8767579D01*
X12563039Y-8767579D02*
X12572563Y-8748531D01*
X12572563Y-8748531D02*
X12582086Y-8739008D01*
X12582086Y-8739008D02*
X12601134Y-8729484D01*
X12753515Y-8910436D02*
X12763039Y-8919960D01*
X12763039Y-8919960D02*
X12753515Y-8929484D01*
X12753515Y-8929484D02*
X12743991Y-8919960D01*
X12743991Y-8919960D02*
X12753515Y-8910436D01*
X12753515Y-8910436D02*
X12753515Y-8929484D01*
X12886848Y-8729484D02*
X12905896Y-8729484D01*
X12905896Y-8729484D02*
X12924944Y-8739008D01*
X12924944Y-8739008D02*
X12934467Y-8748531D01*
X12934467Y-8748531D02*
X12943991Y-8767579D01*
X12943991Y-8767579D02*
X12953515Y-8805674D01*
X12953515Y-8805674D02*
X12953515Y-8853293D01*
X12953515Y-8853293D02*
X12943991Y-8891389D01*
X12943991Y-8891389D02*
X12934467Y-8910436D01*
X12934467Y-8910436D02*
X12924944Y-8919960D01*
X12924944Y-8919960D02*
X12905896Y-8929484D01*
X12905896Y-8929484D02*
X12886848Y-8929484D01*
X12886848Y-8929484D02*
X12867801Y-8919960D01*
X12867801Y-8919960D02*
X12858277Y-8910436D01*
X12858277Y-8910436D02*
X12848753Y-8891389D01*
X12848753Y-8891389D02*
X12839229Y-8853293D01*
X12839229Y-8853293D02*
X12839229Y-8805674D01*
X12839229Y-8805674D02*
X12848753Y-8767579D01*
X12848753Y-8767579D02*
X12858277Y-8748531D01*
X12858277Y-8748531D02*
X12867801Y-8739008D01*
X12867801Y-8739008D02*
X12886848Y-8729484D01*
X13020182Y-8729484D02*
X13143991Y-8729484D01*
X13143991Y-8729484D02*
X13077325Y-8805674D01*
X13077325Y-8805674D02*
X13105896Y-8805674D01*
X13105896Y-8805674D02*
X13124944Y-8815198D01*
X13124944Y-8815198D02*
X13134467Y-8824722D01*
X13134467Y-8824722D02*
X13143991Y-8843770D01*
X13143991Y-8843770D02*
X13143991Y-8891389D01*
X13143991Y-8891389D02*
X13134467Y-8910436D01*
X13134467Y-8910436D02*
X13124944Y-8919960D01*
X13124944Y-8919960D02*
X13105896Y-8929484D01*
X13105896Y-8929484D02*
X13048753Y-8929484D01*
X13048753Y-8929484D02*
X13029706Y-8919960D01*
X13029706Y-8919960D02*
X13020182Y-8910436D01*
X13324944Y-8729484D02*
X13229706Y-8729484D01*
X13229706Y-8729484D02*
X13220182Y-8824722D01*
X13220182Y-8824722D02*
X13229706Y-8815198D01*
X13229706Y-8815198D02*
X13248753Y-8805674D01*
X13248753Y-8805674D02*
X13296372Y-8805674D01*
X13296372Y-8805674D02*
X13315420Y-8815198D01*
X13315420Y-8815198D02*
X13324944Y-8824722D01*
X13324944Y-8824722D02*
X13334467Y-8843770D01*
X13334467Y-8843770D02*
X13334467Y-8891389D01*
X13334467Y-8891389D02*
X13324944Y-8910436D01*
X13324944Y-8910436D02*
X13315420Y-8919960D01*
X13315420Y-8919960D02*
X13296372Y-8929484D01*
X13296372Y-8929484D02*
X13248753Y-8929484D01*
X13248753Y-8929484D02*
X13229706Y-8919960D01*
X13229706Y-8919960D02*
X13220182Y-8910436D01*
X13458277Y-8729484D02*
X13477325Y-8729484D01*
X13477325Y-8729484D02*
X13496372Y-8739008D01*
X13496372Y-8739008D02*
X13505896Y-8748531D01*
X13505896Y-8748531D02*
X13515420Y-8767579D01*
X13515420Y-8767579D02*
X13524944Y-8805674D01*
X13524944Y-8805674D02*
X13524944Y-8853293D01*
X13524944Y-8853293D02*
X13515420Y-8891389D01*
X13515420Y-8891389D02*
X13505896Y-8910436D01*
X13505896Y-8910436D02*
X13496372Y-8919960D01*
X13496372Y-8919960D02*
X13477325Y-8929484D01*
X13477325Y-8929484D02*
X13458277Y-8929484D01*
X13458277Y-8929484D02*
X13439229Y-8919960D01*
X13439229Y-8919960D02*
X13429706Y-8910436D01*
X13429706Y-8910436D02*
X13420182Y-8891389D01*
X13420182Y-8891389D02*
X13410658Y-8853293D01*
X13410658Y-8853293D02*
X13410658Y-8805674D01*
X13410658Y-8805674D02*
X13420182Y-8767579D01*
X13420182Y-8767579D02*
X13429706Y-8748531D01*
X13429706Y-8748531D02*
X13439229Y-8739008D01*
X13439229Y-8739008D02*
X13458277Y-8729484D01*
X13601134Y-8729484D02*
X13601134Y-8767579D01*
X13677325Y-8729484D02*
X13677325Y-8767579D01*
X13972563Y-9005674D02*
X13963039Y-8996150D01*
X13963039Y-8996150D02*
X13943991Y-8967579D01*
X13943991Y-8967579D02*
X13934468Y-8948531D01*
X13934468Y-8948531D02*
X13924944Y-8919960D01*
X13924944Y-8919960D02*
X13915420Y-8872341D01*
X13915420Y-8872341D02*
X13915420Y-8834246D01*
X13915420Y-8834246D02*
X13924944Y-8786627D01*
X13924944Y-8786627D02*
X13934468Y-8758055D01*
X13934468Y-8758055D02*
X13943991Y-8739008D01*
X13943991Y-8739008D02*
X13963039Y-8710436D01*
X13963039Y-8710436D02*
X13972563Y-8700912D01*
X14153515Y-8929484D02*
X14039229Y-8929484D01*
X14096372Y-8929484D02*
X14096372Y-8729484D01*
X14096372Y-8729484D02*
X14077325Y-8758055D01*
X14077325Y-8758055D02*
X14058277Y-8777103D01*
X14058277Y-8777103D02*
X14039229Y-8786627D01*
X14277325Y-8729484D02*
X14296372Y-8729484D01*
X14296372Y-8729484D02*
X14315420Y-8739008D01*
X14315420Y-8739008D02*
X14324944Y-8748531D01*
X14324944Y-8748531D02*
X14334468Y-8767579D01*
X14334468Y-8767579D02*
X14343991Y-8805674D01*
X14343991Y-8805674D02*
X14343991Y-8853293D01*
X14343991Y-8853293D02*
X14334468Y-8891389D01*
X14334468Y-8891389D02*
X14324944Y-8910436D01*
X14324944Y-8910436D02*
X14315420Y-8919960D01*
X14315420Y-8919960D02*
X14296372Y-8929484D01*
X14296372Y-8929484D02*
X14277325Y-8929484D01*
X14277325Y-8929484D02*
X14258277Y-8919960D01*
X14258277Y-8919960D02*
X14248753Y-8910436D01*
X14248753Y-8910436D02*
X14239229Y-8891389D01*
X14239229Y-8891389D02*
X14229706Y-8853293D01*
X14229706Y-8853293D02*
X14229706Y-8805674D01*
X14229706Y-8805674D02*
X14239229Y-8767579D01*
X14239229Y-8767579D02*
X14248753Y-8748531D01*
X14248753Y-8748531D02*
X14258277Y-8739008D01*
X14258277Y-8739008D02*
X14277325Y-8729484D01*
X14582087Y-8929484D02*
X14582087Y-8729484D01*
X14667801Y-8929484D02*
X14667801Y-8824722D01*
X14667801Y-8824722D02*
X14658277Y-8805674D01*
X14658277Y-8805674D02*
X14639230Y-8796150D01*
X14639230Y-8796150D02*
X14610658Y-8796150D01*
X14610658Y-8796150D02*
X14591610Y-8805674D01*
X14591610Y-8805674D02*
X14582087Y-8815198D01*
X14791610Y-8929484D02*
X14772563Y-8919960D01*
X14772563Y-8919960D02*
X14763039Y-8910436D01*
X14763039Y-8910436D02*
X14753515Y-8891389D01*
X14753515Y-8891389D02*
X14753515Y-8834246D01*
X14753515Y-8834246D02*
X14763039Y-8815198D01*
X14763039Y-8815198D02*
X14772563Y-8805674D01*
X14772563Y-8805674D02*
X14791610Y-8796150D01*
X14791610Y-8796150D02*
X14820182Y-8796150D01*
X14820182Y-8796150D02*
X14839230Y-8805674D01*
X14839230Y-8805674D02*
X14848753Y-8815198D01*
X14848753Y-8815198D02*
X14858277Y-8834246D01*
X14858277Y-8834246D02*
X14858277Y-8891389D01*
X14858277Y-8891389D02*
X14848753Y-8910436D01*
X14848753Y-8910436D02*
X14839230Y-8919960D01*
X14839230Y-8919960D02*
X14820182Y-8929484D01*
X14820182Y-8929484D02*
X14791610Y-8929484D01*
X14972563Y-8929484D02*
X14953515Y-8919960D01*
X14953515Y-8919960D02*
X14943991Y-8900912D01*
X14943991Y-8900912D02*
X14943991Y-8729484D01*
X15124944Y-8919960D02*
X15105896Y-8929484D01*
X15105896Y-8929484D02*
X15067801Y-8929484D01*
X15067801Y-8929484D02*
X15048753Y-8919960D01*
X15048753Y-8919960D02*
X15039230Y-8900912D01*
X15039230Y-8900912D02*
X15039230Y-8824722D01*
X15039230Y-8824722D02*
X15048753Y-8805674D01*
X15048753Y-8805674D02*
X15067801Y-8796150D01*
X15067801Y-8796150D02*
X15105896Y-8796150D01*
X15105896Y-8796150D02*
X15124944Y-8805674D01*
X15124944Y-8805674D02*
X15134468Y-8824722D01*
X15134468Y-8824722D02*
X15134468Y-8843770D01*
X15134468Y-8843770D02*
X15039230Y-8862817D01*
X15210658Y-8919960D02*
X15229706Y-8929484D01*
X15229706Y-8929484D02*
X15267801Y-8929484D01*
X15267801Y-8929484D02*
X15286849Y-8919960D01*
X15286849Y-8919960D02*
X15296372Y-8900912D01*
X15296372Y-8900912D02*
X15296372Y-8891389D01*
X15296372Y-8891389D02*
X15286849Y-8872341D01*
X15286849Y-8872341D02*
X15267801Y-8862817D01*
X15267801Y-8862817D02*
X15239230Y-8862817D01*
X15239230Y-8862817D02*
X15220182Y-8853293D01*
X15220182Y-8853293D02*
X15210658Y-8834246D01*
X15210658Y-8834246D02*
X15210658Y-8824722D01*
X15210658Y-8824722D02*
X15220182Y-8805674D01*
X15220182Y-8805674D02*
X15239230Y-8796150D01*
X15239230Y-8796150D02*
X15267801Y-8796150D01*
X15267801Y-8796150D02*
X15286849Y-8805674D01*
X15363039Y-9005674D02*
X15372563Y-8996150D01*
X15372563Y-8996150D02*
X15391611Y-8967579D01*
X15391611Y-8967579D02*
X15401134Y-8948531D01*
X15401134Y-8948531D02*
X15410658Y-8919960D01*
X15410658Y-8919960D02*
X15420182Y-8872341D01*
X15420182Y-8872341D02*
X15420182Y-8834246D01*
X15420182Y-8834246D02*
X15410658Y-8786627D01*
X15410658Y-8786627D02*
X15401134Y-8758055D01*
X15401134Y-8758055D02*
X15391611Y-8739008D01*
X15391611Y-8739008D02*
X15372563Y-8710436D01*
X15372563Y-8710436D02*
X15363039Y-8700912D01*
M02*
