G04 #@! TF.GenerationSoftware,KiCad,Pcbnew,9.0.4*
G04 #@! TF.CreationDate,2025-12-22T00:48:49-05:00*
G04 #@! TF.ProjectId,AD5626BRMZ-kent,41443536-3236-4425-924d-5a2d6b656e74,rev?*
G04 #@! TF.SameCoordinates,Original*
G04 #@! TF.FileFunction,Copper,L1,Top*
G04 #@! TF.FilePolarity,Positive*
%FSLAX46Y46*%
G04 Gerber Fmt 4.6, Leading zero omitted, Abs format (unit mm)*
G04 Created by KiCad (PCBNEW 9.0.4) date 2025-12-22 00:48:49*
%MOMM*%
%LPD*%
G01*
G04 APERTURE LIST*
G04 Aperture macros list*
%AMRoundRect*
0 Rectangle with rounded corners*
0 $1 Rounding radius*
0 $2 $3 $4 $5 $6 $7 $8 $9 X,Y pos of 4 corners*
0 Add a 4 corners polygon primitive as box body*
4,1,4,$2,$3,$4,$5,$6,$7,$8,$9,$2,$3,0*
0 Add four circle primitives for the rounded corners*
1,1,$1+$1,$2,$3*
1,1,$1+$1,$4,$5*
1,1,$1+$1,$6,$7*
1,1,$1+$1,$8,$9*
0 Add four rect primitives between the rounded corners*
20,1,$1+$1,$2,$3,$4,$5,0*
20,1,$1+$1,$4,$5,$6,$7,0*
20,1,$1+$1,$6,$7,$8,$9,0*
20,1,$1+$1,$8,$9,$2,$3,0*%
G04 Aperture macros list end*
G04 #@! TA.AperFunction,SMDPad,CuDef*
%ADD10RoundRect,0.140000X0.170000X-0.140000X0.170000X0.140000X-0.170000X0.140000X-0.170000X-0.140000X0*%
G04 #@! TD*
G04 #@! TA.AperFunction,ComponentPad*
%ADD11R,1.700000X1.700000*%
G04 #@! TD*
G04 #@! TA.AperFunction,ComponentPad*
%ADD12C,1.700000*%
G04 #@! TD*
G04 #@! TA.AperFunction,SMDPad,CuDef*
%ADD13RoundRect,0.225000X0.250000X-0.225000X0.250000X0.225000X-0.250000X0.225000X-0.250000X-0.225000X0*%
G04 #@! TD*
G04 #@! TA.AperFunction,SMDPad,CuDef*
%ADD14R,1.524000X0.431800*%
G04 #@! TD*
G04 #@! TA.AperFunction,ViaPad*
%ADD15C,0.450000*%
G04 #@! TD*
G04 #@! TA.AperFunction,Conductor*
%ADD16C,0.200000*%
G04 #@! TD*
G04 APERTURE END LIST*
D10*
X136000000Y-93230000D03*
X136000000Y-92270000D03*
D11*
X132080000Y-99060000D03*
D12*
X132080000Y-96520000D03*
X132080000Y-93980000D03*
X132080000Y-91440000D03*
D13*
X134620000Y-92990000D03*
X134620000Y-91440000D03*
D14*
X137578300Y-93325001D03*
X137578300Y-93974999D03*
X137578300Y-94625001D03*
X137578300Y-95274999D03*
X141921700Y-95274999D03*
X141921700Y-94625001D03*
X141921700Y-93974999D03*
X141921700Y-93325001D03*
D11*
X144780000Y-91440000D03*
D12*
X144780000Y-93980000D03*
X144780000Y-96520000D03*
X144780000Y-99060000D03*
D15*
X138000000Y-98000000D03*
X143500000Y-94000000D03*
X134500000Y-90500000D03*
X142000000Y-98000000D03*
X137500000Y-91400000D03*
X140000000Y-98000000D03*
X136000000Y-91750000D03*
X140000000Y-91400000D03*
D16*
X136000000Y-92520000D02*
X136000000Y-91750000D01*
X141921700Y-95274999D02*
X142500000Y-95853299D01*
X142500000Y-95853299D02*
X142500000Y-96780000D01*
X142500000Y-96780000D02*
X144780000Y-99060000D01*
X142894999Y-93325001D02*
X144780000Y-91440000D01*
X141921700Y-93325001D02*
X142894999Y-93325001D01*
X141921700Y-94625001D02*
X142885001Y-94625001D01*
X142885001Y-94625001D02*
X144780000Y-96520000D01*
X132080000Y-96520000D02*
X133974999Y-94625001D01*
X133974999Y-94625001D02*
X137228300Y-94625001D01*
X132080000Y-93980000D02*
X137223299Y-93980000D01*
X137223299Y-93980000D02*
X137228300Y-93974999D01*
X132080000Y-98620000D02*
X135425001Y-95274999D01*
X132080000Y-99060000D02*
X132080000Y-98620000D01*
X135425001Y-95274999D02*
X137578300Y-95274999D01*
X132080000Y-91440000D02*
X133630000Y-92990000D01*
X136750000Y-93315000D02*
X137568299Y-93315000D01*
X134620000Y-92990000D02*
X134945000Y-93315000D01*
X134945000Y-93315000D02*
X135700000Y-93315000D01*
X133630000Y-92990000D02*
X134620000Y-92990000D01*
X135700000Y-93315000D02*
X136750000Y-93315000D01*
X137218299Y-93315000D02*
X137228300Y-93325001D01*
X137568299Y-93315000D02*
X137578300Y-93325001D01*
X136750000Y-93315000D02*
X137218299Y-93315000D01*
X134500000Y-91000000D02*
X134620000Y-91120000D01*
X134620000Y-91120000D02*
X134620000Y-91440000D01*
X141921700Y-93974999D02*
X143474999Y-93974999D01*
X143474999Y-93974999D02*
X143500000Y-94000000D01*
X134500000Y-90500000D02*
X134500000Y-91000000D01*
G04 #@! TA.AperFunction,Conductor*
G36*
X146006922Y-89701279D02*
G01*
X146119518Y-89713966D01*
X146146583Y-89720143D01*
X146246927Y-89755255D01*
X146271941Y-89767301D01*
X146361955Y-89823860D01*
X146383662Y-89841172D01*
X146458827Y-89916337D01*
X146476140Y-89938046D01*
X146532697Y-90028056D01*
X146544745Y-90053074D01*
X146579855Y-90153414D01*
X146586033Y-90180484D01*
X146598720Y-90293077D01*
X146599500Y-90306961D01*
X146599500Y-100293038D01*
X146598720Y-100306921D01*
X146598720Y-100306922D01*
X146586033Y-100419515D01*
X146579855Y-100446585D01*
X146544745Y-100546925D01*
X146532697Y-100571943D01*
X146476140Y-100661953D01*
X146458827Y-100683662D01*
X146383662Y-100758827D01*
X146361953Y-100776140D01*
X146271943Y-100832697D01*
X146246925Y-100844745D01*
X146146585Y-100879855D01*
X146119516Y-100886033D01*
X146034855Y-100895572D01*
X146006921Y-100898720D01*
X145993039Y-100899500D01*
X130906961Y-100899500D01*
X130893077Y-100898720D01*
X130780484Y-100886033D01*
X130753414Y-100879855D01*
X130653074Y-100844745D01*
X130628056Y-100832697D01*
X130538046Y-100776140D01*
X130516337Y-100758827D01*
X130441172Y-100683662D01*
X130423859Y-100661953D01*
X130367302Y-100571943D01*
X130355254Y-100546925D01*
X130320144Y-100446585D01*
X130313966Y-100419514D01*
X130312950Y-100410500D01*
X130301280Y-100306921D01*
X130300500Y-100293038D01*
X130300500Y-91333713D01*
X130729500Y-91333713D01*
X130729500Y-91546286D01*
X130759328Y-91734616D01*
X130762754Y-91756243D01*
X130822871Y-91941264D01*
X130828444Y-91958414D01*
X130924951Y-92147820D01*
X131049890Y-92319786D01*
X131200213Y-92470109D01*
X131372182Y-92595050D01*
X131380946Y-92599516D01*
X131431742Y-92647491D01*
X131448536Y-92715312D01*
X131425998Y-92781447D01*
X131380946Y-92820484D01*
X131372182Y-92824949D01*
X131200213Y-92949890D01*
X131049890Y-93100213D01*
X130924951Y-93272179D01*
X130828444Y-93461585D01*
X130762753Y-93663760D01*
X130729500Y-93873713D01*
X130729500Y-94086286D01*
X130762735Y-94296127D01*
X130762754Y-94296243D01*
X130783869Y-94361229D01*
X130828444Y-94498414D01*
X130924951Y-94687820D01*
X131049890Y-94859786D01*
X131200213Y-95010109D01*
X131372182Y-95135050D01*
X131380946Y-95139516D01*
X131431742Y-95187491D01*
X131448536Y-95255312D01*
X131425998Y-95321447D01*
X131380946Y-95360484D01*
X131372182Y-95364949D01*
X131200213Y-95489890D01*
X131049890Y-95640213D01*
X130924951Y-95812179D01*
X130828444Y-96001585D01*
X130762753Y-96203760D01*
X130750255Y-96282669D01*
X130729500Y-96413713D01*
X130729500Y-96626287D01*
X130762754Y-96836243D01*
X130819791Y-97011785D01*
X130828444Y-97038414D01*
X130924951Y-97227820D01*
X131049890Y-97399786D01*
X131163430Y-97513326D01*
X131196915Y-97574649D01*
X131191931Y-97644341D01*
X131150059Y-97700274D01*
X131119083Y-97717189D01*
X130987669Y-97766203D01*
X130987664Y-97766206D01*
X130872455Y-97852452D01*
X130872452Y-97852455D01*
X130786206Y-97967664D01*
X130786202Y-97967671D01*
X130735908Y-98102517D01*
X130729501Y-98162116D01*
X130729500Y-98162135D01*
X130729500Y-99957870D01*
X130729501Y-99957876D01*
X130735908Y-100017483D01*
X130786202Y-100152328D01*
X130786206Y-100152335D01*
X130872452Y-100267544D01*
X130872455Y-100267547D01*
X130987664Y-100353793D01*
X130987671Y-100353797D01*
X131122517Y-100404091D01*
X131122516Y-100404091D01*
X131129444Y-100404835D01*
X131182127Y-100410500D01*
X132977872Y-100410499D01*
X133037483Y-100404091D01*
X133172331Y-100353796D01*
X133287546Y-100267546D01*
X133373796Y-100152331D01*
X133424091Y-100017483D01*
X133430500Y-99957873D01*
X133430499Y-98170097D01*
X133450184Y-98103059D01*
X133466818Y-98082417D01*
X135637418Y-95911818D01*
X135698741Y-95878333D01*
X135725099Y-95875499D01*
X136453621Y-95875499D01*
X136520660Y-95895184D01*
X136527932Y-95900232D01*
X136573968Y-95934694D01*
X136573971Y-95934696D01*
X136708817Y-95984990D01*
X136708816Y-95984990D01*
X136715744Y-95985734D01*
X136768427Y-95991399D01*
X138388172Y-95991398D01*
X138447783Y-95984990D01*
X138582631Y-95934695D01*
X138697846Y-95848445D01*
X138784096Y-95733230D01*
X138834391Y-95598382D01*
X138840800Y-95538772D01*
X138840799Y-95011227D01*
X138840798Y-95011225D01*
X138840798Y-95011211D01*
X138835642Y-94963256D01*
X138835642Y-94936744D01*
X138840799Y-94888781D01*
X138840800Y-94888774D01*
X138840799Y-94361229D01*
X138835641Y-94313246D01*
X138835641Y-94286746D01*
X138840800Y-94238772D01*
X138840799Y-93711227D01*
X138840798Y-93711225D01*
X138840798Y-93711211D01*
X138835642Y-93663256D01*
X138835642Y-93636744D01*
X138840799Y-93588781D01*
X138840800Y-93588774D01*
X138840799Y-93061229D01*
X138840799Y-93061228D01*
X140659200Y-93061228D01*
X140659200Y-93061235D01*
X140659200Y-93061236D01*
X140659200Y-93588771D01*
X140659201Y-93588778D01*
X140662732Y-93621632D01*
X140662733Y-93621636D01*
X140665609Y-93648384D01*
X140715904Y-93783232D01*
X140744525Y-93821464D01*
X140744526Y-93821467D01*
X140803833Y-93900690D01*
X140828250Y-93966154D01*
X140813399Y-94034427D01*
X140803833Y-94049311D01*
X140735039Y-94141209D01*
X140679106Y-94183081D01*
X140664967Y-94185631D01*
X140659700Y-94190899D01*
X140659700Y-94238727D01*
X140664610Y-94284397D01*
X140664610Y-94310905D01*
X140659200Y-94361231D01*
X140659200Y-94888771D01*
X140659201Y-94888775D01*
X140664358Y-94936745D01*
X140664358Y-94963251D01*
X140659200Y-95011226D01*
X140659200Y-95011228D01*
X140659200Y-95011232D01*
X140659200Y-95538769D01*
X140659201Y-95538775D01*
X140665608Y-95598382D01*
X140715902Y-95733227D01*
X140715906Y-95733234D01*
X140802152Y-95848443D01*
X140802155Y-95848446D01*
X140917364Y-95934692D01*
X140917371Y-95934696D01*
X140962318Y-95951460D01*
X141052217Y-95984990D01*
X141111827Y-95991399D01*
X141737502Y-95991398D01*
X141766948Y-96000044D01*
X141796929Y-96006566D01*
X141801942Y-96010318D01*
X141804541Y-96011082D01*
X141825183Y-96027717D01*
X141863181Y-96065715D01*
X141896666Y-96127038D01*
X141899500Y-96153396D01*
X141899500Y-96693330D01*
X141899499Y-96693348D01*
X141899499Y-96859054D01*
X141899498Y-96859054D01*
X141940423Y-97011785D01*
X141969358Y-97061900D01*
X141969359Y-97061904D01*
X141969360Y-97061904D01*
X142019479Y-97148714D01*
X142019481Y-97148717D01*
X142138349Y-97267585D01*
X142138355Y-97267590D01*
X143446241Y-98575476D01*
X143479726Y-98636799D01*
X143476492Y-98701473D01*
X143462753Y-98743757D01*
X143429500Y-98953713D01*
X143429500Y-99166286D01*
X143462753Y-99376239D01*
X143528444Y-99578414D01*
X143624951Y-99767820D01*
X143749890Y-99939786D01*
X143900213Y-100090109D01*
X144072179Y-100215048D01*
X144072181Y-100215049D01*
X144072184Y-100215051D01*
X144261588Y-100311557D01*
X144463757Y-100377246D01*
X144673713Y-100410500D01*
X144673714Y-100410500D01*
X144886286Y-100410500D01*
X144886287Y-100410500D01*
X145096243Y-100377246D01*
X145298412Y-100311557D01*
X145487816Y-100215051D01*
X145574138Y-100152335D01*
X145659786Y-100090109D01*
X145659788Y-100090106D01*
X145659792Y-100090104D01*
X145810104Y-99939792D01*
X145810106Y-99939788D01*
X145810109Y-99939786D01*
X145935048Y-99767820D01*
X145935047Y-99767820D01*
X145935051Y-99767816D01*
X146031557Y-99578412D01*
X146097246Y-99376243D01*
X146130500Y-99166287D01*
X146130500Y-98953713D01*
X146097246Y-98743757D01*
X146031557Y-98541588D01*
X145935051Y-98352184D01*
X145935049Y-98352181D01*
X145935048Y-98352179D01*
X145810109Y-98180213D01*
X145659786Y-98029890D01*
X145487820Y-97904951D01*
X145487115Y-97904591D01*
X145479054Y-97900485D01*
X145428259Y-97852512D01*
X145411463Y-97784692D01*
X145433999Y-97718556D01*
X145479054Y-97679515D01*
X145487816Y-97675051D01*
X145530085Y-97644341D01*
X145659786Y-97550109D01*
X145659788Y-97550106D01*
X145659792Y-97550104D01*
X145810104Y-97399792D01*
X145810106Y-97399788D01*
X145810109Y-97399786D01*
X145935048Y-97227820D01*
X145935047Y-97227820D01*
X145935051Y-97227816D01*
X146031557Y-97038412D01*
X146097246Y-96836243D01*
X146130500Y-96626287D01*
X146130500Y-96413713D01*
X146097246Y-96203757D01*
X146031557Y-96001588D01*
X145935051Y-95812184D01*
X145935049Y-95812181D01*
X145935048Y-95812179D01*
X145810109Y-95640213D01*
X145659786Y-95489890D01*
X145487817Y-95364949D01*
X145478504Y-95360204D01*
X145427707Y-95312230D01*
X145410912Y-95244409D01*
X145433449Y-95178274D01*
X145478507Y-95139232D01*
X145487555Y-95134622D01*
X145541716Y-95095270D01*
X145541717Y-95095270D01*
X144909409Y-94462962D01*
X144972993Y-94445925D01*
X145087007Y-94380099D01*
X145180099Y-94287007D01*
X145245925Y-94172993D01*
X145262962Y-94109408D01*
X145895270Y-94741717D01*
X145895270Y-94741716D01*
X145934622Y-94687554D01*
X146031095Y-94498217D01*
X146096757Y-94296130D01*
X146096757Y-94296127D01*
X146130000Y-94086246D01*
X146130000Y-93873753D01*
X146096757Y-93663872D01*
X146096757Y-93663869D01*
X146031095Y-93461782D01*
X145934624Y-93272449D01*
X145895270Y-93218282D01*
X145895269Y-93218282D01*
X145262962Y-93850590D01*
X145245925Y-93787007D01*
X145180099Y-93672993D01*
X145087007Y-93579901D01*
X144972993Y-93514075D01*
X144909407Y-93497036D01*
X145579627Y-92826818D01*
X145640950Y-92793333D01*
X145667308Y-92790499D01*
X145677871Y-92790499D01*
X145677872Y-92790499D01*
X145737483Y-92784091D01*
X145872331Y-92733796D01*
X145987546Y-92647546D01*
X146073796Y-92532331D01*
X146124091Y-92397483D01*
X146130500Y-92337873D01*
X146130499Y-90542128D01*
X146124091Y-90482517D01*
X146073796Y-90347669D01*
X146073795Y-90347668D01*
X146073793Y-90347664D01*
X145987547Y-90232455D01*
X145987544Y-90232452D01*
X145872335Y-90146206D01*
X145872328Y-90146202D01*
X145737482Y-90095908D01*
X145737483Y-90095908D01*
X145677883Y-90089501D01*
X145677881Y-90089500D01*
X145677873Y-90089500D01*
X145677864Y-90089500D01*
X143882129Y-90089500D01*
X143882123Y-90089501D01*
X143822516Y-90095908D01*
X143687671Y-90146202D01*
X143687664Y-90146206D01*
X143572455Y-90232452D01*
X143572452Y-90232455D01*
X143486206Y-90347664D01*
X143486202Y-90347671D01*
X143435908Y-90482517D01*
X143429501Y-90542116D01*
X143429501Y-90542123D01*
X143429500Y-90542135D01*
X143429500Y-91889902D01*
X143409815Y-91956941D01*
X143393181Y-91977583D01*
X142798481Y-92572282D01*
X142737158Y-92605767D01*
X142710800Y-92608601D01*
X141111829Y-92608601D01*
X141111823Y-92608602D01*
X141052216Y-92615009D01*
X140917371Y-92665303D01*
X140917364Y-92665307D01*
X140802155Y-92751553D01*
X140802152Y-92751556D01*
X140715906Y-92866765D01*
X140715902Y-92866772D01*
X140665610Y-93001614D01*
X140665609Y-93001618D01*
X140659200Y-93061228D01*
X138840799Y-93061228D01*
X138834391Y-93001618D01*
X138784096Y-92866770D01*
X138784095Y-92866769D01*
X138784093Y-92866765D01*
X138697847Y-92751556D01*
X138697844Y-92751553D01*
X138582635Y-92665307D01*
X138582628Y-92665303D01*
X138447782Y-92615009D01*
X138447783Y-92615009D01*
X138388183Y-92608602D01*
X138388181Y-92608601D01*
X138388173Y-92608601D01*
X138388165Y-92608601D01*
X136932988Y-92608601D01*
X136865949Y-92588916D01*
X136833827Y-92559053D01*
X136804505Y-92520000D01*
X136498352Y-92520000D01*
X136435233Y-92502732D01*
X136426395Y-92497506D01*
X136426393Y-92497505D01*
X136426389Y-92497503D01*
X136270997Y-92452357D01*
X136270991Y-92452356D01*
X136234697Y-92449500D01*
X136234690Y-92449500D01*
X136124000Y-92449500D01*
X136056961Y-92429815D01*
X136011206Y-92377011D01*
X136000000Y-92325500D01*
X136000000Y-92270000D01*
X135874000Y-92270000D01*
X135806961Y-92250315D01*
X135761206Y-92197511D01*
X135750000Y-92146000D01*
X135750000Y-92020000D01*
X136250000Y-92020000D01*
X136804504Y-92020000D01*
X136762031Y-91873804D01*
X136679721Y-91734625D01*
X136679714Y-91734616D01*
X136565383Y-91620285D01*
X136565374Y-91620278D01*
X136426195Y-91537968D01*
X136426190Y-91537966D01*
X136270918Y-91492855D01*
X136270912Y-91492854D01*
X136250000Y-91491209D01*
X136250000Y-92020000D01*
X135750000Y-92020000D01*
X135750000Y-91491210D01*
X135749999Y-91491209D01*
X135729087Y-91492854D01*
X135725000Y-91494042D01*
X135725000Y-91566000D01*
X135705315Y-91633039D01*
X135652511Y-91678794D01*
X135601000Y-91690000D01*
X134744000Y-91690000D01*
X134676961Y-91670315D01*
X134631206Y-91617511D01*
X134620000Y-91566000D01*
X134620000Y-91440000D01*
X134494000Y-91440000D01*
X134426961Y-91420315D01*
X134381206Y-91367511D01*
X134370000Y-91316000D01*
X134370000Y-91190000D01*
X134870000Y-91190000D01*
X135594999Y-91190000D01*
X135594999Y-91166692D01*
X135594998Y-91166677D01*
X135584855Y-91067392D01*
X135531547Y-90906518D01*
X135531542Y-90906507D01*
X135442575Y-90762271D01*
X135442572Y-90762267D01*
X135322732Y-90642427D01*
X135322728Y-90642424D01*
X135178492Y-90553457D01*
X135178481Y-90553452D01*
X135017606Y-90500144D01*
X134918322Y-90490000D01*
X134870000Y-90490000D01*
X134870000Y-91190000D01*
X134370000Y-91190000D01*
X134370000Y-90490000D01*
X134369999Y-90489999D01*
X134321693Y-90490000D01*
X134321675Y-90490001D01*
X134222392Y-90500144D01*
X134061518Y-90553452D01*
X134061507Y-90553457D01*
X133917271Y-90642424D01*
X133917267Y-90642427D01*
X133797427Y-90762267D01*
X133797424Y-90762271D01*
X133708457Y-90906507D01*
X133708452Y-90906518D01*
X133655144Y-91067392D01*
X133647333Y-91143839D01*
X133620936Y-91208531D01*
X133563754Y-91248681D01*
X133493943Y-91251543D01*
X133433667Y-91216208D01*
X133402063Y-91153895D01*
X133401517Y-91150724D01*
X133397246Y-91123757D01*
X133331557Y-90921588D01*
X133235051Y-90732184D01*
X133235049Y-90732181D01*
X133235048Y-90732179D01*
X133110109Y-90560213D01*
X132959786Y-90409890D01*
X132787820Y-90284951D01*
X132598414Y-90188444D01*
X132598413Y-90188443D01*
X132598412Y-90188443D01*
X132396243Y-90122754D01*
X132396241Y-90122753D01*
X132396240Y-90122753D01*
X132234957Y-90097208D01*
X132186287Y-90089500D01*
X131973713Y-90089500D01*
X131925042Y-90097208D01*
X131763760Y-90122753D01*
X131561585Y-90188444D01*
X131372179Y-90284951D01*
X131200213Y-90409890D01*
X131049890Y-90560213D01*
X130924951Y-90732179D01*
X130828444Y-90921585D01*
X130762753Y-91123760D01*
X130729500Y-91333713D01*
X130300500Y-91333713D01*
X130300500Y-90306961D01*
X130301280Y-90293078D01*
X130306441Y-90247273D01*
X130313966Y-90180481D01*
X130320142Y-90153418D01*
X130355256Y-90053068D01*
X130367299Y-90028062D01*
X130423863Y-89938040D01*
X130441168Y-89916341D01*
X130516341Y-89841168D01*
X130538040Y-89823863D01*
X130628062Y-89767299D01*
X130653068Y-89755256D01*
X130753418Y-89720142D01*
X130780481Y-89713966D01*
X130877769Y-89703004D01*
X130893078Y-89701280D01*
X130906961Y-89700500D01*
X130957583Y-89700500D01*
X145942417Y-89700500D01*
X145993039Y-89700500D01*
X146006922Y-89701279D01*
G37*
G04 #@! TD.AperFunction*
M02*
