G04 #@! TF.GenerationSoftware,KiCad,Pcbnew,9.0.4*
G04 #@! TF.CreationDate,2025-12-22T00:48:49-05:00*
G04 #@! TF.ProjectId,AD5626BRMZ-kent,41443536-3236-4425-924d-5a2d6b656e74,rev?*
G04 #@! TF.SameCoordinates,Original*
G04 #@! TF.FileFunction,Copper,L2,Bot*
G04 #@! TF.FilePolarity,Positive*
%FSLAX46Y46*%
G04 Gerber Fmt 4.6, Leading zero omitted, Abs format (unit mm)*
G04 Created by KiCad (PCBNEW 9.0.4) date 2025-12-22 00:48:49*
%MOMM*%
%LPD*%
G01*
G04 APERTURE LIST*
G04 #@! TA.AperFunction,ComponentPad*
%ADD10R,1.700000X1.700000*%
G04 #@! TD*
G04 #@! TA.AperFunction,ComponentPad*
%ADD11C,1.700000*%
G04 #@! TD*
G04 #@! TA.AperFunction,ViaPad*
%ADD12C,0.450000*%
G04 #@! TD*
G04 APERTURE END LIST*
D10*
X132080000Y-99060000D03*
D11*
X132080000Y-96520000D03*
X132080000Y-93980000D03*
X132080000Y-91440000D03*
D10*
X144780000Y-91440000D03*
D11*
X144780000Y-93980000D03*
X144780000Y-96520000D03*
X144780000Y-99060000D03*
D12*
X138000000Y-98000000D03*
X143500000Y-94000000D03*
X134500000Y-90500000D03*
X142000000Y-98000000D03*
X137500000Y-91400000D03*
X140000000Y-98000000D03*
X136000000Y-91750000D03*
X140000000Y-91400000D03*
G04 #@! TA.AperFunction,Conductor*
G36*
X146006922Y-89701279D02*
G01*
X146119518Y-89713966D01*
X146146583Y-89720143D01*
X146246927Y-89755255D01*
X146271941Y-89767301D01*
X146361955Y-89823860D01*
X146383662Y-89841172D01*
X146458827Y-89916337D01*
X146476140Y-89938046D01*
X146532697Y-90028056D01*
X146544745Y-90053074D01*
X146579855Y-90153414D01*
X146586033Y-90180484D01*
X146598720Y-90293077D01*
X146599500Y-90306961D01*
X146599500Y-100293038D01*
X146598720Y-100306921D01*
X146598720Y-100306922D01*
X146586033Y-100419515D01*
X146579855Y-100446585D01*
X146544745Y-100546925D01*
X146532697Y-100571943D01*
X146476140Y-100661953D01*
X146458827Y-100683662D01*
X146383662Y-100758827D01*
X146361953Y-100776140D01*
X146271943Y-100832697D01*
X146246925Y-100844745D01*
X146146585Y-100879855D01*
X146119516Y-100886033D01*
X146034855Y-100895572D01*
X146006921Y-100898720D01*
X145993039Y-100899500D01*
X130906961Y-100899500D01*
X130893077Y-100898720D01*
X130780484Y-100886033D01*
X130753414Y-100879855D01*
X130653074Y-100844745D01*
X130628056Y-100832697D01*
X130538046Y-100776140D01*
X130516337Y-100758827D01*
X130441172Y-100683662D01*
X130423859Y-100661953D01*
X130367302Y-100571943D01*
X130355254Y-100546925D01*
X130320144Y-100446585D01*
X130313966Y-100419514D01*
X130312950Y-100410500D01*
X130301280Y-100306921D01*
X130300500Y-100293038D01*
X130300500Y-91333713D01*
X130729500Y-91333713D01*
X130729500Y-91546286D01*
X130762753Y-91756239D01*
X130828444Y-91958414D01*
X130924951Y-92147820D01*
X131049890Y-92319786D01*
X131200213Y-92470109D01*
X131372182Y-92595050D01*
X131380946Y-92599516D01*
X131431742Y-92647491D01*
X131448536Y-92715312D01*
X131425998Y-92781447D01*
X131380946Y-92820484D01*
X131372182Y-92824949D01*
X131200213Y-92949890D01*
X131049890Y-93100213D01*
X130924951Y-93272179D01*
X130828444Y-93461585D01*
X130762753Y-93663760D01*
X130729500Y-93873713D01*
X130729500Y-94086286D01*
X130762753Y-94296239D01*
X130828444Y-94498414D01*
X130924951Y-94687820D01*
X131049890Y-94859786D01*
X131200213Y-95010109D01*
X131372182Y-95135050D01*
X131380946Y-95139516D01*
X131431742Y-95187491D01*
X131448536Y-95255312D01*
X131425998Y-95321447D01*
X131380946Y-95360484D01*
X131372182Y-95364949D01*
X131200213Y-95489890D01*
X131049890Y-95640213D01*
X130924951Y-95812179D01*
X130828444Y-96001585D01*
X130762753Y-96203760D01*
X130729500Y-96413713D01*
X130729500Y-96626286D01*
X130762753Y-96836239D01*
X130828444Y-97038414D01*
X130924951Y-97227820D01*
X131049890Y-97399786D01*
X131163430Y-97513326D01*
X131196915Y-97574649D01*
X131191931Y-97644341D01*
X131150059Y-97700274D01*
X131119083Y-97717189D01*
X130987669Y-97766203D01*
X130987664Y-97766206D01*
X130872455Y-97852452D01*
X130872452Y-97852455D01*
X130786206Y-97967664D01*
X130786202Y-97967671D01*
X130735908Y-98102517D01*
X130729501Y-98162116D01*
X130729501Y-98162123D01*
X130729500Y-98162135D01*
X130729500Y-99957870D01*
X130729501Y-99957876D01*
X130735908Y-100017483D01*
X130786202Y-100152328D01*
X130786206Y-100152335D01*
X130872452Y-100267544D01*
X130872455Y-100267547D01*
X130987664Y-100353793D01*
X130987671Y-100353797D01*
X131122517Y-100404091D01*
X131122516Y-100404091D01*
X131129444Y-100404835D01*
X131182127Y-100410500D01*
X132977872Y-100410499D01*
X133037483Y-100404091D01*
X133172331Y-100353796D01*
X133287546Y-100267546D01*
X133373796Y-100152331D01*
X133424091Y-100017483D01*
X133430500Y-99957873D01*
X133430499Y-98162128D01*
X133424091Y-98102517D01*
X133373796Y-97967669D01*
X133373795Y-97967668D01*
X133373793Y-97967664D01*
X133287547Y-97852455D01*
X133287544Y-97852452D01*
X133172335Y-97766206D01*
X133172328Y-97766202D01*
X133040917Y-97717189D01*
X132984983Y-97675318D01*
X132960566Y-97609853D01*
X132975418Y-97541580D01*
X132996563Y-97513332D01*
X133110104Y-97399792D01*
X133235051Y-97227816D01*
X133331557Y-97038412D01*
X133397246Y-96836243D01*
X133430500Y-96626287D01*
X133430500Y-96413713D01*
X133397246Y-96203757D01*
X133331557Y-96001588D01*
X133235051Y-95812184D01*
X133235049Y-95812181D01*
X133235048Y-95812179D01*
X133110109Y-95640213D01*
X132959786Y-95489890D01*
X132787820Y-95364951D01*
X132787115Y-95364591D01*
X132779054Y-95360485D01*
X132728259Y-95312512D01*
X132711463Y-95244692D01*
X132733999Y-95178556D01*
X132779054Y-95139515D01*
X132787816Y-95135051D01*
X132842572Y-95095269D01*
X132959786Y-95010109D01*
X132959788Y-95010106D01*
X132959792Y-95010104D01*
X133110104Y-94859792D01*
X133110106Y-94859788D01*
X133110109Y-94859786D01*
X133235048Y-94687820D01*
X133235047Y-94687820D01*
X133235051Y-94687816D01*
X133331557Y-94498412D01*
X133397246Y-94296243D01*
X133430500Y-94086287D01*
X133430500Y-93873713D01*
X133397246Y-93663757D01*
X133331557Y-93461588D01*
X133235051Y-93272184D01*
X133235049Y-93272181D01*
X133235048Y-93272179D01*
X133110109Y-93100213D01*
X132959786Y-92949890D01*
X132787820Y-92824951D01*
X132787115Y-92824591D01*
X132779054Y-92820485D01*
X132728259Y-92772512D01*
X132711463Y-92704692D01*
X132733999Y-92638556D01*
X132779054Y-92599515D01*
X132787816Y-92595051D01*
X132874138Y-92532335D01*
X132959786Y-92470109D01*
X132959788Y-92470106D01*
X132959792Y-92470104D01*
X133110104Y-92319792D01*
X133110106Y-92319788D01*
X133110109Y-92319786D01*
X133235048Y-92147820D01*
X133235047Y-92147820D01*
X133235051Y-92147816D01*
X133331557Y-91958412D01*
X133397246Y-91756243D01*
X133430500Y-91546287D01*
X133430500Y-91333713D01*
X133397246Y-91123757D01*
X133331557Y-90921588D01*
X133235051Y-90732184D01*
X133110104Y-90560208D01*
X133092031Y-90542135D01*
X143429500Y-90542135D01*
X143429500Y-92337870D01*
X143429501Y-92337876D01*
X143435908Y-92397483D01*
X143486202Y-92532328D01*
X143486206Y-92532335D01*
X143572452Y-92647544D01*
X143572455Y-92647547D01*
X143687664Y-92733793D01*
X143687671Y-92733797D01*
X143732618Y-92750561D01*
X143822517Y-92784091D01*
X143882127Y-92790500D01*
X143892685Y-92790499D01*
X143959723Y-92810179D01*
X143980372Y-92826818D01*
X144650591Y-93497037D01*
X144587007Y-93514075D01*
X144472993Y-93579901D01*
X144379901Y-93672993D01*
X144314075Y-93787007D01*
X144297037Y-93850591D01*
X143664728Y-93218282D01*
X143664727Y-93218282D01*
X143625380Y-93272439D01*
X143528904Y-93461782D01*
X143463242Y-93663869D01*
X143463242Y-93663872D01*
X143430000Y-93873753D01*
X143430000Y-94086246D01*
X143463242Y-94296127D01*
X143463242Y-94296130D01*
X143528904Y-94498217D01*
X143625375Y-94687550D01*
X143664728Y-94741716D01*
X144297037Y-94109408D01*
X144314075Y-94172993D01*
X144379901Y-94287007D01*
X144472993Y-94380099D01*
X144587007Y-94445925D01*
X144650590Y-94462962D01*
X144018282Y-95095269D01*
X144018282Y-95095270D01*
X144072452Y-95134626D01*
X144072451Y-95134626D01*
X144081495Y-95139234D01*
X144132292Y-95187208D01*
X144149087Y-95255029D01*
X144126550Y-95321164D01*
X144081499Y-95360202D01*
X144072182Y-95364949D01*
X143900213Y-95489890D01*
X143749890Y-95640213D01*
X143624951Y-95812179D01*
X143528444Y-96001585D01*
X143462753Y-96203760D01*
X143429500Y-96413713D01*
X143429500Y-96626286D01*
X143462753Y-96836239D01*
X143528444Y-97038414D01*
X143624951Y-97227820D01*
X143749890Y-97399786D01*
X143900213Y-97550109D01*
X144072182Y-97675050D01*
X144080946Y-97679516D01*
X144131742Y-97727491D01*
X144148536Y-97795312D01*
X144125998Y-97861447D01*
X144080946Y-97900484D01*
X144072182Y-97904949D01*
X143900213Y-98029890D01*
X143749890Y-98180213D01*
X143624951Y-98352179D01*
X143528444Y-98541585D01*
X143462753Y-98743760D01*
X143429500Y-98953713D01*
X143429500Y-99166286D01*
X143462753Y-99376239D01*
X143528444Y-99578414D01*
X143624951Y-99767820D01*
X143749890Y-99939786D01*
X143900213Y-100090109D01*
X144072179Y-100215048D01*
X144072181Y-100215049D01*
X144072184Y-100215051D01*
X144261588Y-100311557D01*
X144463757Y-100377246D01*
X144673713Y-100410500D01*
X144673714Y-100410500D01*
X144886286Y-100410500D01*
X144886287Y-100410500D01*
X145096243Y-100377246D01*
X145298412Y-100311557D01*
X145487816Y-100215051D01*
X145574138Y-100152335D01*
X145659786Y-100090109D01*
X145659788Y-100090106D01*
X145659792Y-100090104D01*
X145810104Y-99939792D01*
X145810106Y-99939788D01*
X145810109Y-99939786D01*
X145935048Y-99767820D01*
X145935047Y-99767820D01*
X145935051Y-99767816D01*
X146031557Y-99578412D01*
X146097246Y-99376243D01*
X146130500Y-99166287D01*
X146130500Y-98953713D01*
X146097246Y-98743757D01*
X146031557Y-98541588D01*
X145935051Y-98352184D01*
X145935049Y-98352181D01*
X145935048Y-98352179D01*
X145810109Y-98180213D01*
X145659786Y-98029890D01*
X145487820Y-97904951D01*
X145487115Y-97904591D01*
X145479054Y-97900485D01*
X145428259Y-97852512D01*
X145411463Y-97784692D01*
X145433999Y-97718556D01*
X145479054Y-97679515D01*
X145487816Y-97675051D01*
X145577554Y-97609853D01*
X145659786Y-97550109D01*
X145659788Y-97550106D01*
X145659792Y-97550104D01*
X145810104Y-97399792D01*
X145810106Y-97399788D01*
X145810109Y-97399786D01*
X145935048Y-97227820D01*
X145935047Y-97227820D01*
X145935051Y-97227816D01*
X146031557Y-97038412D01*
X146097246Y-96836243D01*
X146130500Y-96626287D01*
X146130500Y-96413713D01*
X146097246Y-96203757D01*
X146031557Y-96001588D01*
X145935051Y-95812184D01*
X145935049Y-95812181D01*
X145935048Y-95812179D01*
X145810109Y-95640213D01*
X145659786Y-95489890D01*
X145487817Y-95364949D01*
X145478504Y-95360204D01*
X145427707Y-95312230D01*
X145410912Y-95244409D01*
X145433449Y-95178274D01*
X145478507Y-95139232D01*
X145487555Y-95134622D01*
X145541716Y-95095270D01*
X145541717Y-95095270D01*
X144909408Y-94462962D01*
X144972993Y-94445925D01*
X145087007Y-94380099D01*
X145180099Y-94287007D01*
X145245925Y-94172993D01*
X145262962Y-94109408D01*
X145895270Y-94741717D01*
X145895270Y-94741716D01*
X145934622Y-94687554D01*
X146031095Y-94498217D01*
X146096757Y-94296130D01*
X146096757Y-94296127D01*
X146130000Y-94086246D01*
X146130000Y-93873753D01*
X146096757Y-93663872D01*
X146096757Y-93663869D01*
X146031095Y-93461782D01*
X145934624Y-93272449D01*
X145895270Y-93218282D01*
X145895269Y-93218282D01*
X145262962Y-93850590D01*
X145245925Y-93787007D01*
X145180099Y-93672993D01*
X145087007Y-93579901D01*
X144972993Y-93514075D01*
X144909409Y-93497037D01*
X145579627Y-92826818D01*
X145640950Y-92793333D01*
X145667307Y-92790499D01*
X145677872Y-92790499D01*
X145737483Y-92784091D01*
X145872331Y-92733796D01*
X145987546Y-92647546D01*
X146073796Y-92532331D01*
X146124091Y-92397483D01*
X146130500Y-92337873D01*
X146130499Y-90542128D01*
X146124091Y-90482517D01*
X146073796Y-90347669D01*
X146073795Y-90347668D01*
X146073793Y-90347664D01*
X145987547Y-90232455D01*
X145987544Y-90232452D01*
X145872335Y-90146206D01*
X145872328Y-90146202D01*
X145737482Y-90095908D01*
X145737483Y-90095908D01*
X145677883Y-90089501D01*
X145677881Y-90089500D01*
X145677873Y-90089500D01*
X145677864Y-90089500D01*
X143882129Y-90089500D01*
X143882123Y-90089501D01*
X143822516Y-90095908D01*
X143687671Y-90146202D01*
X143687664Y-90146206D01*
X143572455Y-90232452D01*
X143572452Y-90232455D01*
X143486206Y-90347664D01*
X143486202Y-90347671D01*
X143435908Y-90482517D01*
X143429501Y-90542116D01*
X143429501Y-90542123D01*
X143429500Y-90542135D01*
X133092031Y-90542135D01*
X132959792Y-90409896D01*
X132959786Y-90409890D01*
X132787820Y-90284951D01*
X132598414Y-90188444D01*
X132598413Y-90188443D01*
X132598412Y-90188443D01*
X132396243Y-90122754D01*
X132396241Y-90122753D01*
X132396240Y-90122753D01*
X132234957Y-90097208D01*
X132186287Y-90089500D01*
X131973713Y-90089500D01*
X131925042Y-90097208D01*
X131763760Y-90122753D01*
X131561585Y-90188444D01*
X131372179Y-90284951D01*
X131200213Y-90409890D01*
X131049890Y-90560213D01*
X130924951Y-90732179D01*
X130828444Y-90921585D01*
X130762753Y-91123760D01*
X130729500Y-91333713D01*
X130300500Y-91333713D01*
X130300500Y-90306961D01*
X130301280Y-90293078D01*
X130306441Y-90247273D01*
X130313966Y-90180481D01*
X130320142Y-90153418D01*
X130355256Y-90053068D01*
X130367299Y-90028062D01*
X130423863Y-89938040D01*
X130441168Y-89916341D01*
X130516341Y-89841168D01*
X130538040Y-89823863D01*
X130628062Y-89767299D01*
X130653068Y-89755256D01*
X130753418Y-89720142D01*
X130780481Y-89713966D01*
X130877769Y-89703004D01*
X130893078Y-89701280D01*
X130906961Y-89700500D01*
X130957583Y-89700500D01*
X145942417Y-89700500D01*
X145993039Y-89700500D01*
X146006922Y-89701279D01*
G37*
G04 #@! TD.AperFunction*
M02*
