%TF.GenerationSoftware,KiCad,Pcbnew,9.0.4*%
%TF.CreationDate,2025-12-18T17:49:21-05:00*%
%TF.ProjectId,AD5626BRMZ-kent,41443536-3236-4425-924d-5a2d6b656e74,rev?*%
%TF.SameCoordinates,Original*%
%TF.FileFunction,Drillmap*%
%TF.FilePolarity,Positive*%
%FSLAX45Y45*%
G04 Gerber Fmt 4.5, Leading zero omitted, Abs format (unit mm)*
G04 Created by KiCad (PCBNEW 9.0.4) date 2025-12-18 17:49:21*
%MOMM*%
%LPD*%
G01*
G04 APERTURE LIST*
%ADD10C,0.050000*%
%ADD11C,0.200000*%
G04 APERTURE END LIST*
D10*
X14700000Y-10030000D02*
G75*
G02*
X14600000Y-10130000I-100000J0D01*
G01*
X12990000Y-10030000D02*
X12990000Y-9030000D01*
X13090000Y-8930000D02*
X14600000Y-8930000D01*
X12990000Y-9030000D02*
G75*
G02*
X13090000Y-8930000I100000J0D01*
G01*
X14700000Y-9030000D02*
X14700000Y-10030000D01*
X14600000Y-8930000D02*
G75*
G02*
X14700000Y-9030000I0J-100000D01*
G01*
X13090000Y-10130000D02*
G75*
G02*
X12990000Y-10030000I0J100000D01*
G01*
X14600000Y-10130000D02*
X13090000Y-10130000D01*
D11*
X13248277Y-10443984D02*
X13248277Y-10243984D01*
X13248277Y-10243984D02*
X13295896Y-10243984D01*
X13295896Y-10243984D02*
X13324467Y-10253508D01*
X13324467Y-10253508D02*
X13343515Y-10272555D01*
X13343515Y-10272555D02*
X13353039Y-10291603D01*
X13353039Y-10291603D02*
X13362562Y-10329698D01*
X13362562Y-10329698D02*
X13362562Y-10358270D01*
X13362562Y-10358270D02*
X13353039Y-10396365D01*
X13353039Y-10396365D02*
X13343515Y-10415412D01*
X13343515Y-10415412D02*
X13324467Y-10434460D01*
X13324467Y-10434460D02*
X13295896Y-10443984D01*
X13295896Y-10443984D02*
X13248277Y-10443984D01*
X13448277Y-10443984D02*
X13448277Y-10310650D01*
X13448277Y-10348746D02*
X13457801Y-10329698D01*
X13457801Y-10329698D02*
X13467324Y-10320174D01*
X13467324Y-10320174D02*
X13486372Y-10310650D01*
X13486372Y-10310650D02*
X13505420Y-10310650D01*
X13572086Y-10443984D02*
X13572086Y-10310650D01*
X13572086Y-10243984D02*
X13562562Y-10253508D01*
X13562562Y-10253508D02*
X13572086Y-10263031D01*
X13572086Y-10263031D02*
X13581610Y-10253508D01*
X13581610Y-10253508D02*
X13572086Y-10243984D01*
X13572086Y-10243984D02*
X13572086Y-10263031D01*
X13695896Y-10443984D02*
X13676848Y-10434460D01*
X13676848Y-10434460D02*
X13667324Y-10415412D01*
X13667324Y-10415412D02*
X13667324Y-10243984D01*
X13800658Y-10443984D02*
X13781610Y-10434460D01*
X13781610Y-10434460D02*
X13772086Y-10415412D01*
X13772086Y-10415412D02*
X13772086Y-10243984D01*
X14029229Y-10443984D02*
X14029229Y-10243984D01*
X14029229Y-10243984D02*
X14095896Y-10386841D01*
X14095896Y-10386841D02*
X14162562Y-10243984D01*
X14162562Y-10243984D02*
X14162562Y-10443984D01*
X14343515Y-10443984D02*
X14343515Y-10339222D01*
X14343515Y-10339222D02*
X14333991Y-10320174D01*
X14333991Y-10320174D02*
X14314943Y-10310650D01*
X14314943Y-10310650D02*
X14276848Y-10310650D01*
X14276848Y-10310650D02*
X14257801Y-10320174D01*
X14343515Y-10434460D02*
X14324467Y-10443984D01*
X14324467Y-10443984D02*
X14276848Y-10443984D01*
X14276848Y-10443984D02*
X14257801Y-10434460D01*
X14257801Y-10434460D02*
X14248277Y-10415412D01*
X14248277Y-10415412D02*
X14248277Y-10396365D01*
X14248277Y-10396365D02*
X14257801Y-10377317D01*
X14257801Y-10377317D02*
X14276848Y-10367793D01*
X14276848Y-10367793D02*
X14324467Y-10367793D01*
X14324467Y-10367793D02*
X14343515Y-10358270D01*
X14438753Y-10310650D02*
X14438753Y-10510650D01*
X14438753Y-10320174D02*
X14457801Y-10310650D01*
X14457801Y-10310650D02*
X14495896Y-10310650D01*
X14495896Y-10310650D02*
X14514943Y-10320174D01*
X14514943Y-10320174D02*
X14524467Y-10329698D01*
X14524467Y-10329698D02*
X14533991Y-10348746D01*
X14533991Y-10348746D02*
X14533991Y-10405889D01*
X14533991Y-10405889D02*
X14524467Y-10424936D01*
X14524467Y-10424936D02*
X14514943Y-10434460D01*
X14514943Y-10434460D02*
X14495896Y-10443984D01*
X14495896Y-10443984D02*
X14457801Y-10443984D01*
X14457801Y-10443984D02*
X14438753Y-10434460D01*
X14619705Y-10424936D02*
X14629229Y-10434460D01*
X14629229Y-10434460D02*
X14619705Y-10443984D01*
X14619705Y-10443984D02*
X14610182Y-10434460D01*
X14610182Y-10434460D02*
X14619705Y-10424936D01*
X14619705Y-10424936D02*
X14619705Y-10443984D01*
X14619705Y-10320174D02*
X14629229Y-10329698D01*
X14629229Y-10329698D02*
X14619705Y-10339222D01*
X14619705Y-10339222D02*
X14610182Y-10329698D01*
X14610182Y-10329698D02*
X14619705Y-10320174D01*
X14619705Y-10320174D02*
X14619705Y-10339222D01*
M02*
