G04 #@! TF.GenerationSoftware,KiCad,Pcbnew,9.0.4*
G04 #@! TF.CreationDate,2025-12-18T17:49:01-05:00*
G04 #@! TF.ProjectId,AD5626BRMZ-kent,41443536-3236-4425-924d-5a2d6b656e74,rev?*
G04 #@! TF.SameCoordinates,Original*
G04 #@! TF.FileFunction,Copper,L1,Top*
G04 #@! TF.FilePolarity,Positive*
%FSLAX46Y46*%
G04 Gerber Fmt 4.6, Leading zero omitted, Abs format (unit mm)*
G04 Created by KiCad (PCBNEW 9.0.4) date 2025-12-18 17:49:01*
%MOMM*%
%LPD*%
G01*
G04 APERTURE LIST*
G04 Aperture macros list*
%AMRoundRect*
0 Rectangle with rounded corners*
0 $1 Rounding radius*
0 $2 $3 $4 $5 $6 $7 $8 $9 X,Y pos of 4 corners*
0 Add a 4 corners polygon primitive as box body*
4,1,4,$2,$3,$4,$5,$6,$7,$8,$9,$2,$3,0*
0 Add four circle primitives for the rounded corners*
1,1,$1+$1,$2,$3*
1,1,$1+$1,$4,$5*
1,1,$1+$1,$6,$7*
1,1,$1+$1,$8,$9*
0 Add four rect primitives between the rounded corners*
20,1,$1+$1,$2,$3,$4,$5,0*
20,1,$1+$1,$4,$5,$6,$7,0*
20,1,$1+$1,$6,$7,$8,$9,0*
20,1,$1+$1,$8,$9,$2,$3,0*%
G04 Aperture macros list end*
G04 #@! TA.AperFunction,ComponentPad*
%ADD10R,1.700000X1.700000*%
G04 #@! TD*
G04 #@! TA.AperFunction,ComponentPad*
%ADD11C,1.700000*%
G04 #@! TD*
G04 #@! TA.AperFunction,SMDPad,CuDef*
%ADD12RoundRect,0.225000X0.250000X-0.225000X0.250000X0.225000X-0.250000X0.225000X-0.250000X-0.225000X0*%
G04 #@! TD*
G04 #@! TA.AperFunction,SMDPad,CuDef*
%ADD13R,1.524000X0.431800*%
G04 #@! TD*
G04 #@! TA.AperFunction,SMDPad,CuDef*
%ADD14RoundRect,0.100000X0.100000X-0.130000X0.100000X0.130000X-0.100000X0.130000X-0.100000X-0.130000X0*%
G04 #@! TD*
G04 #@! TA.AperFunction,ViaPad*
%ADD15C,0.600000*%
G04 #@! TD*
G04 #@! TA.AperFunction,Conductor*
%ADD16C,0.200000*%
G04 #@! TD*
G04 APERTURE END LIST*
D10*
X132080000Y-99060000D03*
D11*
X132080000Y-96520000D03*
X132080000Y-93980000D03*
X132080000Y-91440000D03*
D12*
X134620000Y-92990000D03*
X134620000Y-91440000D03*
D13*
X137228300Y-93325001D03*
X137228300Y-93974999D03*
X137228300Y-94625001D03*
X137228300Y-95274999D03*
X141571700Y-95274999D03*
X141571700Y-94625001D03*
X141571700Y-93974999D03*
X141571700Y-93325001D03*
D14*
X135700000Y-93315000D03*
X135700000Y-92675000D03*
D10*
X144780000Y-91440000D03*
D11*
X144780000Y-93980000D03*
X144780000Y-96520000D03*
X144780000Y-99060000D03*
D15*
X135600000Y-92000000D03*
D16*
X144780000Y-99060000D02*
X141571700Y-95851700D01*
X141571700Y-95851700D02*
X141571700Y-95274999D01*
X141571700Y-93325001D02*
X142894999Y-93325001D01*
X142894999Y-93325001D02*
X144780000Y-91440000D01*
X141571700Y-94625001D02*
X142885001Y-94625001D01*
X142885001Y-94625001D02*
X144780000Y-96520000D01*
X132080000Y-96520000D02*
X133974999Y-94625001D01*
X133974999Y-94625001D02*
X137228300Y-94625001D01*
X132080000Y-93980000D02*
X137223299Y-93980000D01*
X137223299Y-93980000D02*
X137228300Y-93974999D01*
X132080000Y-99060000D02*
X132080000Y-98620000D01*
X132080000Y-98620000D02*
X135425001Y-95274999D01*
X135425001Y-95274999D02*
X137228300Y-95274999D01*
X132080000Y-91440000D02*
X133630000Y-92990000D01*
X134620000Y-92990000D02*
X134945000Y-93315000D01*
X134945000Y-93315000D02*
X135700000Y-93315000D01*
X133630000Y-92990000D02*
X134620000Y-92990000D01*
X135700000Y-93315000D02*
X137218299Y-93315000D01*
X137218299Y-93315000D02*
X137228300Y-93325001D01*
X135700000Y-92100000D02*
X135600000Y-92000000D01*
X134620000Y-91440000D02*
X135040000Y-91440000D01*
X135700000Y-92675000D02*
X135700000Y-92100000D01*
X135040000Y-91440000D02*
X135600000Y-92000000D01*
X141576701Y-93980000D02*
X141571700Y-93974999D01*
X144780000Y-93980000D02*
X141576701Y-93980000D01*
M02*
