%TF.GenerationSoftware,KiCad,Pcbnew,9.0.4*%
%TF.CreationDate,2025-12-20T00:07:55-05:00*%
%TF.ProjectId,thermistor circuit,74686572-6d69-4737-946f-722063697263,rev?*%
%TF.SameCoordinates,Original*%
%TF.FileFunction,Drillmap*%
%TF.FilePolarity,Positive*%
%FSLAX45Y45*%
G04 Gerber Fmt 4.5, Leading zero omitted, Abs format (unit mm)*
G04 Created by KiCad (PCBNEW 9.0.4) date 2025-12-20 00:07:55*
%MOMM*%
%LPD*%
G01*
G04 APERTURE LIST*
%ADD10C,0.050000*%
%ADD11C,0.200000*%
%ADD12C,0.100000*%
G04 APERTURE END LIST*
D10*
X17425000Y-7550000D02*
X20525000Y-7550000D01*
X20525000Y-9150000D01*
X17425000Y-9150000D01*
X17425000Y-7550000D01*
D11*
D12*
X17935000Y-7785000D02*
X17965000Y-7815000D01*
X17965000Y-7785000D02*
X17935000Y-7815000D01*
X17935000Y-8835000D02*
X17965000Y-8865000D01*
X17965000Y-8835000D02*
X17935000Y-8865000D01*
X18385000Y-7785000D02*
X18415000Y-7815000D01*
X18415000Y-7785000D02*
X18385000Y-7815000D01*
X18385000Y-8835000D02*
X18415000Y-8865000D01*
X18415000Y-8835000D02*
X18385000Y-8865000D01*
X18485000Y-8435000D02*
X18515000Y-8465000D01*
X18515000Y-8435000D02*
X18485000Y-8465000D01*
X18500000Y-8250000D02*
X18530000Y-8280000D01*
X18530000Y-8250000D02*
X18500000Y-8280000D01*
X18785000Y-7785000D02*
X18815000Y-7815000D01*
X18815000Y-7785000D02*
X18785000Y-7815000D01*
X18785000Y-8835000D02*
X18815000Y-8865000D01*
X18815000Y-8835000D02*
X18785000Y-8865000D01*
X19135000Y-7785000D02*
X19165000Y-7815000D01*
X19165000Y-7785000D02*
X19135000Y-7815000D01*
X19135000Y-8835000D02*
X19165000Y-8865000D01*
X19165000Y-8835000D02*
X19135000Y-8865000D01*
X19510000Y-8410000D02*
X19540000Y-8440000D01*
X19540000Y-8410000D02*
X19510000Y-8440000D01*
X19535000Y-8185000D02*
X19565000Y-8215000D01*
X19565000Y-8185000D02*
X19535000Y-8215000D01*
X19535000Y-8635000D02*
X19565000Y-8665000D01*
X19565000Y-8635000D02*
X19535000Y-8665000D01*
X19635000Y-7785000D02*
X19665000Y-7815000D01*
X19665000Y-7785000D02*
X19635000Y-7815000D01*
X19635000Y-8835000D02*
X19665000Y-8865000D01*
X19665000Y-8835000D02*
X19635000Y-8865000D01*
X19735000Y-8235000D02*
X19765000Y-8265000D01*
X19765000Y-8235000D02*
X19735000Y-8265000D01*
X20235000Y-7785000D02*
X20265000Y-7815000D01*
X20265000Y-7785000D02*
X20235000Y-7815000D01*
X20235000Y-8835000D02*
X20265000Y-8865000D01*
X20265000Y-8835000D02*
X20235000Y-8865000D01*
X19922500Y-7975000D02*
G75*
G02*
X19827500Y-7975000I-47500J0D01*
G01*
X19827500Y-7975000D02*
G75*
G02*
X19922500Y-7975000I47500J0D01*
G01*
X19922500Y-8225000D02*
G75*
G02*
X19827500Y-8225000I-47500J0D01*
G01*
X19827500Y-8225000D02*
G75*
G02*
X19922500Y-8225000I47500J0D01*
G01*
X19922500Y-8475000D02*
G75*
G02*
X19827500Y-8475000I-47500J0D01*
G01*
X19827500Y-8475000D02*
G75*
G02*
X19922500Y-8475000I47500J0D01*
G01*
X19922500Y-8725000D02*
G75*
G02*
X19827500Y-8725000I-47500J0D01*
G01*
X19827500Y-8725000D02*
G75*
G02*
X19922500Y-8725000I47500J0D01*
G01*
X18100000Y-8275000D02*
X18100000Y-8375000D01*
X18050000Y-8325000D02*
X18150000Y-8325000D01*
X18100000Y-8525000D02*
X18100000Y-8625000D01*
X18050000Y-8575000D02*
X18150000Y-8575000D01*
D11*
X17683277Y-9463984D02*
X17683277Y-9263984D01*
X17683277Y-9263984D02*
X17730896Y-9263984D01*
X17730896Y-9263984D02*
X17759467Y-9273508D01*
X17759467Y-9273508D02*
X17778515Y-9292555D01*
X17778515Y-9292555D02*
X17788039Y-9311603D01*
X17788039Y-9311603D02*
X17797563Y-9349698D01*
X17797563Y-9349698D02*
X17797563Y-9378270D01*
X17797563Y-9378270D02*
X17788039Y-9416365D01*
X17788039Y-9416365D02*
X17778515Y-9435412D01*
X17778515Y-9435412D02*
X17759467Y-9454460D01*
X17759467Y-9454460D02*
X17730896Y-9463984D01*
X17730896Y-9463984D02*
X17683277Y-9463984D01*
X17883277Y-9463984D02*
X17883277Y-9330650D01*
X17883277Y-9368746D02*
X17892801Y-9349698D01*
X17892801Y-9349698D02*
X17902324Y-9340174D01*
X17902324Y-9340174D02*
X17921372Y-9330650D01*
X17921372Y-9330650D02*
X17940420Y-9330650D01*
X18007086Y-9463984D02*
X18007086Y-9330650D01*
X18007086Y-9263984D02*
X17997563Y-9273508D01*
X17997563Y-9273508D02*
X18007086Y-9283031D01*
X18007086Y-9283031D02*
X18016610Y-9273508D01*
X18016610Y-9273508D02*
X18007086Y-9263984D01*
X18007086Y-9263984D02*
X18007086Y-9283031D01*
X18130896Y-9463984D02*
X18111848Y-9454460D01*
X18111848Y-9454460D02*
X18102324Y-9435412D01*
X18102324Y-9435412D02*
X18102324Y-9263984D01*
X18235658Y-9463984D02*
X18216610Y-9454460D01*
X18216610Y-9454460D02*
X18207086Y-9435412D01*
X18207086Y-9435412D02*
X18207086Y-9263984D01*
X18464229Y-9463984D02*
X18464229Y-9263984D01*
X18464229Y-9263984D02*
X18530896Y-9406841D01*
X18530896Y-9406841D02*
X18597563Y-9263984D01*
X18597563Y-9263984D02*
X18597563Y-9463984D01*
X18778515Y-9463984D02*
X18778515Y-9359222D01*
X18778515Y-9359222D02*
X18768991Y-9340174D01*
X18768991Y-9340174D02*
X18749944Y-9330650D01*
X18749944Y-9330650D02*
X18711848Y-9330650D01*
X18711848Y-9330650D02*
X18692801Y-9340174D01*
X18778515Y-9454460D02*
X18759467Y-9463984D01*
X18759467Y-9463984D02*
X18711848Y-9463984D01*
X18711848Y-9463984D02*
X18692801Y-9454460D01*
X18692801Y-9454460D02*
X18683277Y-9435412D01*
X18683277Y-9435412D02*
X18683277Y-9416365D01*
X18683277Y-9416365D02*
X18692801Y-9397317D01*
X18692801Y-9397317D02*
X18711848Y-9387793D01*
X18711848Y-9387793D02*
X18759467Y-9387793D01*
X18759467Y-9387793D02*
X18778515Y-9378270D01*
X18873753Y-9330650D02*
X18873753Y-9530650D01*
X18873753Y-9340174D02*
X18892801Y-9330650D01*
X18892801Y-9330650D02*
X18930896Y-9330650D01*
X18930896Y-9330650D02*
X18949944Y-9340174D01*
X18949944Y-9340174D02*
X18959467Y-9349698D01*
X18959467Y-9349698D02*
X18968991Y-9368746D01*
X18968991Y-9368746D02*
X18968991Y-9425889D01*
X18968991Y-9425889D02*
X18959467Y-9444936D01*
X18959467Y-9444936D02*
X18949944Y-9454460D01*
X18949944Y-9454460D02*
X18930896Y-9463984D01*
X18930896Y-9463984D02*
X18892801Y-9463984D01*
X18892801Y-9463984D02*
X18873753Y-9454460D01*
X19054705Y-9444936D02*
X19064229Y-9454460D01*
X19064229Y-9454460D02*
X19054705Y-9463984D01*
X19054705Y-9463984D02*
X19045182Y-9454460D01*
X19045182Y-9454460D02*
X19054705Y-9444936D01*
X19054705Y-9444936D02*
X19054705Y-9463984D01*
X19054705Y-9340174D02*
X19064229Y-9349698D01*
X19064229Y-9349698D02*
X19054705Y-9359222D01*
X19054705Y-9359222D02*
X19045182Y-9349698D01*
X19045182Y-9349698D02*
X19054705Y-9340174D01*
X19054705Y-9340174D02*
X19054705Y-9359222D01*
D12*
X17392500Y-9777500D02*
X17422500Y-9807500D01*
X17422500Y-9777500D02*
X17392500Y-9807500D01*
D11*
X17721372Y-9683984D02*
X17740420Y-9683984D01*
X17740420Y-9683984D02*
X17759467Y-9693508D01*
X17759467Y-9693508D02*
X17768991Y-9703031D01*
X17768991Y-9703031D02*
X17778515Y-9722079D01*
X17778515Y-9722079D02*
X17788039Y-9760174D01*
X17788039Y-9760174D02*
X17788039Y-9807793D01*
X17788039Y-9807793D02*
X17778515Y-9845889D01*
X17778515Y-9845889D02*
X17768991Y-9864936D01*
X17768991Y-9864936D02*
X17759467Y-9874460D01*
X17759467Y-9874460D02*
X17740420Y-9883984D01*
X17740420Y-9883984D02*
X17721372Y-9883984D01*
X17721372Y-9883984D02*
X17702324Y-9874460D01*
X17702324Y-9874460D02*
X17692801Y-9864936D01*
X17692801Y-9864936D02*
X17683277Y-9845889D01*
X17683277Y-9845889D02*
X17673753Y-9807793D01*
X17673753Y-9807793D02*
X17673753Y-9760174D01*
X17673753Y-9760174D02*
X17683277Y-9722079D01*
X17683277Y-9722079D02*
X17692801Y-9703031D01*
X17692801Y-9703031D02*
X17702324Y-9693508D01*
X17702324Y-9693508D02*
X17721372Y-9683984D01*
X17873753Y-9864936D02*
X17883277Y-9874460D01*
X17883277Y-9874460D02*
X17873753Y-9883984D01*
X17873753Y-9883984D02*
X17864229Y-9874460D01*
X17864229Y-9874460D02*
X17873753Y-9864936D01*
X17873753Y-9864936D02*
X17873753Y-9883984D01*
X17949944Y-9683984D02*
X18073753Y-9683984D01*
X18073753Y-9683984D02*
X18007086Y-9760174D01*
X18007086Y-9760174D02*
X18035658Y-9760174D01*
X18035658Y-9760174D02*
X18054705Y-9769698D01*
X18054705Y-9769698D02*
X18064229Y-9779222D01*
X18064229Y-9779222D02*
X18073753Y-9798270D01*
X18073753Y-9798270D02*
X18073753Y-9845889D01*
X18073753Y-9845889D02*
X18064229Y-9864936D01*
X18064229Y-9864936D02*
X18054705Y-9874460D01*
X18054705Y-9874460D02*
X18035658Y-9883984D01*
X18035658Y-9883984D02*
X17978515Y-9883984D01*
X17978515Y-9883984D02*
X17959467Y-9874460D01*
X17959467Y-9874460D02*
X17949944Y-9864936D01*
X18197563Y-9683984D02*
X18216610Y-9683984D01*
X18216610Y-9683984D02*
X18235658Y-9693508D01*
X18235658Y-9693508D02*
X18245182Y-9703031D01*
X18245182Y-9703031D02*
X18254705Y-9722079D01*
X18254705Y-9722079D02*
X18264229Y-9760174D01*
X18264229Y-9760174D02*
X18264229Y-9807793D01*
X18264229Y-9807793D02*
X18254705Y-9845889D01*
X18254705Y-9845889D02*
X18245182Y-9864936D01*
X18245182Y-9864936D02*
X18235658Y-9874460D01*
X18235658Y-9874460D02*
X18216610Y-9883984D01*
X18216610Y-9883984D02*
X18197563Y-9883984D01*
X18197563Y-9883984D02*
X18178515Y-9874460D01*
X18178515Y-9874460D02*
X18168991Y-9864936D01*
X18168991Y-9864936D02*
X18159467Y-9845889D01*
X18159467Y-9845889D02*
X18149944Y-9807793D01*
X18149944Y-9807793D02*
X18149944Y-9760174D01*
X18149944Y-9760174D02*
X18159467Y-9722079D01*
X18159467Y-9722079D02*
X18168991Y-9703031D01*
X18168991Y-9703031D02*
X18178515Y-9693508D01*
X18178515Y-9693508D02*
X18197563Y-9683984D01*
X18388039Y-9683984D02*
X18407086Y-9683984D01*
X18407086Y-9683984D02*
X18426134Y-9693508D01*
X18426134Y-9693508D02*
X18435658Y-9703031D01*
X18435658Y-9703031D02*
X18445182Y-9722079D01*
X18445182Y-9722079D02*
X18454705Y-9760174D01*
X18454705Y-9760174D02*
X18454705Y-9807793D01*
X18454705Y-9807793D02*
X18445182Y-9845889D01*
X18445182Y-9845889D02*
X18435658Y-9864936D01*
X18435658Y-9864936D02*
X18426134Y-9874460D01*
X18426134Y-9874460D02*
X18407086Y-9883984D01*
X18407086Y-9883984D02*
X18388039Y-9883984D01*
X18388039Y-9883984D02*
X18368991Y-9874460D01*
X18368991Y-9874460D02*
X18359467Y-9864936D01*
X18359467Y-9864936D02*
X18349944Y-9845889D01*
X18349944Y-9845889D02*
X18340420Y-9807793D01*
X18340420Y-9807793D02*
X18340420Y-9760174D01*
X18340420Y-9760174D02*
X18349944Y-9722079D01*
X18349944Y-9722079D02*
X18359467Y-9703031D01*
X18359467Y-9703031D02*
X18368991Y-9693508D01*
X18368991Y-9693508D02*
X18388039Y-9683984D01*
X18540420Y-9883984D02*
X18540420Y-9750650D01*
X18540420Y-9769698D02*
X18549944Y-9760174D01*
X18549944Y-9760174D02*
X18568991Y-9750650D01*
X18568991Y-9750650D02*
X18597563Y-9750650D01*
X18597563Y-9750650D02*
X18616610Y-9760174D01*
X18616610Y-9760174D02*
X18626134Y-9779222D01*
X18626134Y-9779222D02*
X18626134Y-9883984D01*
X18626134Y-9779222D02*
X18635658Y-9760174D01*
X18635658Y-9760174D02*
X18654705Y-9750650D01*
X18654705Y-9750650D02*
X18683277Y-9750650D01*
X18683277Y-9750650D02*
X18702325Y-9760174D01*
X18702325Y-9760174D02*
X18711848Y-9779222D01*
X18711848Y-9779222D02*
X18711848Y-9883984D01*
X18807086Y-9883984D02*
X18807086Y-9750650D01*
X18807086Y-9769698D02*
X18816610Y-9760174D01*
X18816610Y-9760174D02*
X18835658Y-9750650D01*
X18835658Y-9750650D02*
X18864229Y-9750650D01*
X18864229Y-9750650D02*
X18883277Y-9760174D01*
X18883277Y-9760174D02*
X18892801Y-9779222D01*
X18892801Y-9779222D02*
X18892801Y-9883984D01*
X18892801Y-9779222D02*
X18902325Y-9760174D01*
X18902325Y-9760174D02*
X18921372Y-9750650D01*
X18921372Y-9750650D02*
X18949944Y-9750650D01*
X18949944Y-9750650D02*
X18968991Y-9760174D01*
X18968991Y-9760174D02*
X18978515Y-9779222D01*
X18978515Y-9779222D02*
X18978515Y-9883984D01*
X19368991Y-9674460D02*
X19197563Y-9931603D01*
X19626134Y-9683984D02*
X19645182Y-9683984D01*
X19645182Y-9683984D02*
X19664229Y-9693508D01*
X19664229Y-9693508D02*
X19673753Y-9703031D01*
X19673753Y-9703031D02*
X19683277Y-9722079D01*
X19683277Y-9722079D02*
X19692801Y-9760174D01*
X19692801Y-9760174D02*
X19692801Y-9807793D01*
X19692801Y-9807793D02*
X19683277Y-9845889D01*
X19683277Y-9845889D02*
X19673753Y-9864936D01*
X19673753Y-9864936D02*
X19664229Y-9874460D01*
X19664229Y-9874460D02*
X19645182Y-9883984D01*
X19645182Y-9883984D02*
X19626134Y-9883984D01*
X19626134Y-9883984D02*
X19607087Y-9874460D01*
X19607087Y-9874460D02*
X19597563Y-9864936D01*
X19597563Y-9864936D02*
X19588039Y-9845889D01*
X19588039Y-9845889D02*
X19578515Y-9807793D01*
X19578515Y-9807793D02*
X19578515Y-9760174D01*
X19578515Y-9760174D02*
X19588039Y-9722079D01*
X19588039Y-9722079D02*
X19597563Y-9703031D01*
X19597563Y-9703031D02*
X19607087Y-9693508D01*
X19607087Y-9693508D02*
X19626134Y-9683984D01*
X19778515Y-9864936D02*
X19788039Y-9874460D01*
X19788039Y-9874460D02*
X19778515Y-9883984D01*
X19778515Y-9883984D02*
X19768991Y-9874460D01*
X19768991Y-9874460D02*
X19778515Y-9864936D01*
X19778515Y-9864936D02*
X19778515Y-9883984D01*
X19911848Y-9683984D02*
X19930896Y-9683984D01*
X19930896Y-9683984D02*
X19949944Y-9693508D01*
X19949944Y-9693508D02*
X19959468Y-9703031D01*
X19959468Y-9703031D02*
X19968991Y-9722079D01*
X19968991Y-9722079D02*
X19978515Y-9760174D01*
X19978515Y-9760174D02*
X19978515Y-9807793D01*
X19978515Y-9807793D02*
X19968991Y-9845889D01*
X19968991Y-9845889D02*
X19959468Y-9864936D01*
X19959468Y-9864936D02*
X19949944Y-9874460D01*
X19949944Y-9874460D02*
X19930896Y-9883984D01*
X19930896Y-9883984D02*
X19911848Y-9883984D01*
X19911848Y-9883984D02*
X19892801Y-9874460D01*
X19892801Y-9874460D02*
X19883277Y-9864936D01*
X19883277Y-9864936D02*
X19873753Y-9845889D01*
X19873753Y-9845889D02*
X19864229Y-9807793D01*
X19864229Y-9807793D02*
X19864229Y-9760174D01*
X19864229Y-9760174D02*
X19873753Y-9722079D01*
X19873753Y-9722079D02*
X19883277Y-9703031D01*
X19883277Y-9703031D02*
X19892801Y-9693508D01*
X19892801Y-9693508D02*
X19911848Y-9683984D01*
X20168991Y-9883984D02*
X20054706Y-9883984D01*
X20111848Y-9883984D02*
X20111848Y-9683984D01*
X20111848Y-9683984D02*
X20092801Y-9712555D01*
X20092801Y-9712555D02*
X20073753Y-9731603D01*
X20073753Y-9731603D02*
X20054706Y-9741127D01*
X20359468Y-9883984D02*
X20245182Y-9883984D01*
X20302325Y-9883984D02*
X20302325Y-9683984D01*
X20302325Y-9683984D02*
X20283277Y-9712555D01*
X20283277Y-9712555D02*
X20264229Y-9731603D01*
X20264229Y-9731603D02*
X20245182Y-9741127D01*
X20473753Y-9769698D02*
X20454706Y-9760174D01*
X20454706Y-9760174D02*
X20445182Y-9750650D01*
X20445182Y-9750650D02*
X20435658Y-9731603D01*
X20435658Y-9731603D02*
X20435658Y-9722079D01*
X20435658Y-9722079D02*
X20445182Y-9703031D01*
X20445182Y-9703031D02*
X20454706Y-9693508D01*
X20454706Y-9693508D02*
X20473753Y-9683984D01*
X20473753Y-9683984D02*
X20511849Y-9683984D01*
X20511849Y-9683984D02*
X20530896Y-9693508D01*
X20530896Y-9693508D02*
X20540420Y-9703031D01*
X20540420Y-9703031D02*
X20549944Y-9722079D01*
X20549944Y-9722079D02*
X20549944Y-9731603D01*
X20549944Y-9731603D02*
X20540420Y-9750650D01*
X20540420Y-9750650D02*
X20530896Y-9760174D01*
X20530896Y-9760174D02*
X20511849Y-9769698D01*
X20511849Y-9769698D02*
X20473753Y-9769698D01*
X20473753Y-9769698D02*
X20454706Y-9779222D01*
X20454706Y-9779222D02*
X20445182Y-9788746D01*
X20445182Y-9788746D02*
X20435658Y-9807793D01*
X20435658Y-9807793D02*
X20435658Y-9845889D01*
X20435658Y-9845889D02*
X20445182Y-9864936D01*
X20445182Y-9864936D02*
X20454706Y-9874460D01*
X20454706Y-9874460D02*
X20473753Y-9883984D01*
X20473753Y-9883984D02*
X20511849Y-9883984D01*
X20511849Y-9883984D02*
X20530896Y-9874460D01*
X20530896Y-9874460D02*
X20540420Y-9864936D01*
X20540420Y-9864936D02*
X20549944Y-9845889D01*
X20549944Y-9845889D02*
X20549944Y-9807793D01*
X20549944Y-9807793D02*
X20540420Y-9788746D01*
X20540420Y-9788746D02*
X20530896Y-9779222D01*
X20530896Y-9779222D02*
X20511849Y-9769698D01*
X20626134Y-9683984D02*
X20626134Y-9722079D01*
X20702325Y-9683984D02*
X20702325Y-9722079D01*
X20997563Y-9960174D02*
X20988039Y-9950650D01*
X20988039Y-9950650D02*
X20968991Y-9922079D01*
X20968991Y-9922079D02*
X20959468Y-9903031D01*
X20959468Y-9903031D02*
X20949944Y-9874460D01*
X20949944Y-9874460D02*
X20940420Y-9826841D01*
X20940420Y-9826841D02*
X20940420Y-9788746D01*
X20940420Y-9788746D02*
X20949944Y-9741127D01*
X20949944Y-9741127D02*
X20959468Y-9712555D01*
X20959468Y-9712555D02*
X20968991Y-9693508D01*
X20968991Y-9693508D02*
X20988039Y-9664936D01*
X20988039Y-9664936D02*
X20997563Y-9655412D01*
X21178515Y-9883984D02*
X21064230Y-9883984D01*
X21121372Y-9883984D02*
X21121372Y-9683984D01*
X21121372Y-9683984D02*
X21102325Y-9712555D01*
X21102325Y-9712555D02*
X21083277Y-9731603D01*
X21083277Y-9731603D02*
X21064230Y-9741127D01*
X21292801Y-9769698D02*
X21273753Y-9760174D01*
X21273753Y-9760174D02*
X21264230Y-9750650D01*
X21264230Y-9750650D02*
X21254706Y-9731603D01*
X21254706Y-9731603D02*
X21254706Y-9722079D01*
X21254706Y-9722079D02*
X21264230Y-9703031D01*
X21264230Y-9703031D02*
X21273753Y-9693508D01*
X21273753Y-9693508D02*
X21292801Y-9683984D01*
X21292801Y-9683984D02*
X21330896Y-9683984D01*
X21330896Y-9683984D02*
X21349944Y-9693508D01*
X21349944Y-9693508D02*
X21359468Y-9703031D01*
X21359468Y-9703031D02*
X21368991Y-9722079D01*
X21368991Y-9722079D02*
X21368991Y-9731603D01*
X21368991Y-9731603D02*
X21359468Y-9750650D01*
X21359468Y-9750650D02*
X21349944Y-9760174D01*
X21349944Y-9760174D02*
X21330896Y-9769698D01*
X21330896Y-9769698D02*
X21292801Y-9769698D01*
X21292801Y-9769698D02*
X21273753Y-9779222D01*
X21273753Y-9779222D02*
X21264230Y-9788746D01*
X21264230Y-9788746D02*
X21254706Y-9807793D01*
X21254706Y-9807793D02*
X21254706Y-9845889D01*
X21254706Y-9845889D02*
X21264230Y-9864936D01*
X21264230Y-9864936D02*
X21273753Y-9874460D01*
X21273753Y-9874460D02*
X21292801Y-9883984D01*
X21292801Y-9883984D02*
X21330896Y-9883984D01*
X21330896Y-9883984D02*
X21349944Y-9874460D01*
X21349944Y-9874460D02*
X21359468Y-9864936D01*
X21359468Y-9864936D02*
X21368991Y-9845889D01*
X21368991Y-9845889D02*
X21368991Y-9807793D01*
X21368991Y-9807793D02*
X21359468Y-9788746D01*
X21359468Y-9788746D02*
X21349944Y-9779222D01*
X21349944Y-9779222D02*
X21330896Y-9769698D01*
X21607087Y-9883984D02*
X21607087Y-9683984D01*
X21692801Y-9883984D02*
X21692801Y-9779222D01*
X21692801Y-9779222D02*
X21683277Y-9760174D01*
X21683277Y-9760174D02*
X21664230Y-9750650D01*
X21664230Y-9750650D02*
X21635658Y-9750650D01*
X21635658Y-9750650D02*
X21616611Y-9760174D01*
X21616611Y-9760174D02*
X21607087Y-9769698D01*
X21816611Y-9883984D02*
X21797563Y-9874460D01*
X21797563Y-9874460D02*
X21788039Y-9864936D01*
X21788039Y-9864936D02*
X21778515Y-9845889D01*
X21778515Y-9845889D02*
X21778515Y-9788746D01*
X21778515Y-9788746D02*
X21788039Y-9769698D01*
X21788039Y-9769698D02*
X21797563Y-9760174D01*
X21797563Y-9760174D02*
X21816611Y-9750650D01*
X21816611Y-9750650D02*
X21845182Y-9750650D01*
X21845182Y-9750650D02*
X21864230Y-9760174D01*
X21864230Y-9760174D02*
X21873753Y-9769698D01*
X21873753Y-9769698D02*
X21883277Y-9788746D01*
X21883277Y-9788746D02*
X21883277Y-9845889D01*
X21883277Y-9845889D02*
X21873753Y-9864936D01*
X21873753Y-9864936D02*
X21864230Y-9874460D01*
X21864230Y-9874460D02*
X21845182Y-9883984D01*
X21845182Y-9883984D02*
X21816611Y-9883984D01*
X21997563Y-9883984D02*
X21978515Y-9874460D01*
X21978515Y-9874460D02*
X21968992Y-9855412D01*
X21968992Y-9855412D02*
X21968992Y-9683984D01*
X22149944Y-9874460D02*
X22130896Y-9883984D01*
X22130896Y-9883984D02*
X22092801Y-9883984D01*
X22092801Y-9883984D02*
X22073753Y-9874460D01*
X22073753Y-9874460D02*
X22064230Y-9855412D01*
X22064230Y-9855412D02*
X22064230Y-9779222D01*
X22064230Y-9779222D02*
X22073753Y-9760174D01*
X22073753Y-9760174D02*
X22092801Y-9750650D01*
X22092801Y-9750650D02*
X22130896Y-9750650D01*
X22130896Y-9750650D02*
X22149944Y-9760174D01*
X22149944Y-9760174D02*
X22159468Y-9779222D01*
X22159468Y-9779222D02*
X22159468Y-9798270D01*
X22159468Y-9798270D02*
X22064230Y-9817317D01*
X22235658Y-9874460D02*
X22254706Y-9883984D01*
X22254706Y-9883984D02*
X22292801Y-9883984D01*
X22292801Y-9883984D02*
X22311849Y-9874460D01*
X22311849Y-9874460D02*
X22321373Y-9855412D01*
X22321373Y-9855412D02*
X22321373Y-9845889D01*
X22321373Y-9845889D02*
X22311849Y-9826841D01*
X22311849Y-9826841D02*
X22292801Y-9817317D01*
X22292801Y-9817317D02*
X22264230Y-9817317D01*
X22264230Y-9817317D02*
X22245182Y-9807793D01*
X22245182Y-9807793D02*
X22235658Y-9788746D01*
X22235658Y-9788746D02*
X22235658Y-9779222D01*
X22235658Y-9779222D02*
X22245182Y-9760174D01*
X22245182Y-9760174D02*
X22264230Y-9750650D01*
X22264230Y-9750650D02*
X22292801Y-9750650D01*
X22292801Y-9750650D02*
X22311849Y-9760174D01*
X22388039Y-9960174D02*
X22397563Y-9950650D01*
X22397563Y-9950650D02*
X22416611Y-9922079D01*
X22416611Y-9922079D02*
X22426134Y-9903031D01*
X22426134Y-9903031D02*
X22435658Y-9874460D01*
X22435658Y-9874460D02*
X22445182Y-9826841D01*
X22445182Y-9826841D02*
X22445182Y-9788746D01*
X22445182Y-9788746D02*
X22435658Y-9741127D01*
X22435658Y-9741127D02*
X22426134Y-9712555D01*
X22426134Y-9712555D02*
X22416611Y-9693508D01*
X22416611Y-9693508D02*
X22397563Y-9664936D01*
X22397563Y-9664936D02*
X22388039Y-9655412D01*
D12*
X17422500Y-10056500D02*
G75*
G02*
X17327500Y-10056500I-47500J0D01*
G01*
X17327500Y-10056500D02*
G75*
G02*
X17422500Y-10056500I47500J0D01*
G01*
D11*
X17721372Y-9947984D02*
X17740420Y-9947984D01*
X17740420Y-9947984D02*
X17759467Y-9957508D01*
X17759467Y-9957508D02*
X17768991Y-9967031D01*
X17768991Y-9967031D02*
X17778515Y-9986079D01*
X17778515Y-9986079D02*
X17788039Y-10024174D01*
X17788039Y-10024174D02*
X17788039Y-10071793D01*
X17788039Y-10071793D02*
X17778515Y-10109889D01*
X17778515Y-10109889D02*
X17768991Y-10128936D01*
X17768991Y-10128936D02*
X17759467Y-10138460D01*
X17759467Y-10138460D02*
X17740420Y-10147984D01*
X17740420Y-10147984D02*
X17721372Y-10147984D01*
X17721372Y-10147984D02*
X17702324Y-10138460D01*
X17702324Y-10138460D02*
X17692801Y-10128936D01*
X17692801Y-10128936D02*
X17683277Y-10109889D01*
X17683277Y-10109889D02*
X17673753Y-10071793D01*
X17673753Y-10071793D02*
X17673753Y-10024174D01*
X17673753Y-10024174D02*
X17683277Y-9986079D01*
X17683277Y-9986079D02*
X17692801Y-9967031D01*
X17692801Y-9967031D02*
X17702324Y-9957508D01*
X17702324Y-9957508D02*
X17721372Y-9947984D01*
X17873753Y-10128936D02*
X17883277Y-10138460D01*
X17883277Y-10138460D02*
X17873753Y-10147984D01*
X17873753Y-10147984D02*
X17864229Y-10138460D01*
X17864229Y-10138460D02*
X17873753Y-10128936D01*
X17873753Y-10128936D02*
X17873753Y-10147984D01*
X17978515Y-10147984D02*
X18016610Y-10147984D01*
X18016610Y-10147984D02*
X18035658Y-10138460D01*
X18035658Y-10138460D02*
X18045182Y-10128936D01*
X18045182Y-10128936D02*
X18064229Y-10100365D01*
X18064229Y-10100365D02*
X18073753Y-10062270D01*
X18073753Y-10062270D02*
X18073753Y-9986079D01*
X18073753Y-9986079D02*
X18064229Y-9967031D01*
X18064229Y-9967031D02*
X18054705Y-9957508D01*
X18054705Y-9957508D02*
X18035658Y-9947984D01*
X18035658Y-9947984D02*
X17997563Y-9947984D01*
X17997563Y-9947984D02*
X17978515Y-9957508D01*
X17978515Y-9957508D02*
X17968991Y-9967031D01*
X17968991Y-9967031D02*
X17959467Y-9986079D01*
X17959467Y-9986079D02*
X17959467Y-10033698D01*
X17959467Y-10033698D02*
X17968991Y-10052746D01*
X17968991Y-10052746D02*
X17978515Y-10062270D01*
X17978515Y-10062270D02*
X17997563Y-10071793D01*
X17997563Y-10071793D02*
X18035658Y-10071793D01*
X18035658Y-10071793D02*
X18054705Y-10062270D01*
X18054705Y-10062270D02*
X18064229Y-10052746D01*
X18064229Y-10052746D02*
X18073753Y-10033698D01*
X18254705Y-9947984D02*
X18159467Y-9947984D01*
X18159467Y-9947984D02*
X18149944Y-10043222D01*
X18149944Y-10043222D02*
X18159467Y-10033698D01*
X18159467Y-10033698D02*
X18178515Y-10024174D01*
X18178515Y-10024174D02*
X18226134Y-10024174D01*
X18226134Y-10024174D02*
X18245182Y-10033698D01*
X18245182Y-10033698D02*
X18254705Y-10043222D01*
X18254705Y-10043222D02*
X18264229Y-10062270D01*
X18264229Y-10062270D02*
X18264229Y-10109889D01*
X18264229Y-10109889D02*
X18254705Y-10128936D01*
X18254705Y-10128936D02*
X18245182Y-10138460D01*
X18245182Y-10138460D02*
X18226134Y-10147984D01*
X18226134Y-10147984D02*
X18178515Y-10147984D01*
X18178515Y-10147984D02*
X18159467Y-10138460D01*
X18159467Y-10138460D02*
X18149944Y-10128936D01*
X18388039Y-9947984D02*
X18407086Y-9947984D01*
X18407086Y-9947984D02*
X18426134Y-9957508D01*
X18426134Y-9957508D02*
X18435658Y-9967031D01*
X18435658Y-9967031D02*
X18445182Y-9986079D01*
X18445182Y-9986079D02*
X18454705Y-10024174D01*
X18454705Y-10024174D02*
X18454705Y-10071793D01*
X18454705Y-10071793D02*
X18445182Y-10109889D01*
X18445182Y-10109889D02*
X18435658Y-10128936D01*
X18435658Y-10128936D02*
X18426134Y-10138460D01*
X18426134Y-10138460D02*
X18407086Y-10147984D01*
X18407086Y-10147984D02*
X18388039Y-10147984D01*
X18388039Y-10147984D02*
X18368991Y-10138460D01*
X18368991Y-10138460D02*
X18359467Y-10128936D01*
X18359467Y-10128936D02*
X18349944Y-10109889D01*
X18349944Y-10109889D02*
X18340420Y-10071793D01*
X18340420Y-10071793D02*
X18340420Y-10024174D01*
X18340420Y-10024174D02*
X18349944Y-9986079D01*
X18349944Y-9986079D02*
X18359467Y-9967031D01*
X18359467Y-9967031D02*
X18368991Y-9957508D01*
X18368991Y-9957508D02*
X18388039Y-9947984D01*
X18540420Y-10147984D02*
X18540420Y-10014650D01*
X18540420Y-10033698D02*
X18549944Y-10024174D01*
X18549944Y-10024174D02*
X18568991Y-10014650D01*
X18568991Y-10014650D02*
X18597563Y-10014650D01*
X18597563Y-10014650D02*
X18616610Y-10024174D01*
X18616610Y-10024174D02*
X18626134Y-10043222D01*
X18626134Y-10043222D02*
X18626134Y-10147984D01*
X18626134Y-10043222D02*
X18635658Y-10024174D01*
X18635658Y-10024174D02*
X18654705Y-10014650D01*
X18654705Y-10014650D02*
X18683277Y-10014650D01*
X18683277Y-10014650D02*
X18702325Y-10024174D01*
X18702325Y-10024174D02*
X18711848Y-10043222D01*
X18711848Y-10043222D02*
X18711848Y-10147984D01*
X18807086Y-10147984D02*
X18807086Y-10014650D01*
X18807086Y-10033698D02*
X18816610Y-10024174D01*
X18816610Y-10024174D02*
X18835658Y-10014650D01*
X18835658Y-10014650D02*
X18864229Y-10014650D01*
X18864229Y-10014650D02*
X18883277Y-10024174D01*
X18883277Y-10024174D02*
X18892801Y-10043222D01*
X18892801Y-10043222D02*
X18892801Y-10147984D01*
X18892801Y-10043222D02*
X18902325Y-10024174D01*
X18902325Y-10024174D02*
X18921372Y-10014650D01*
X18921372Y-10014650D02*
X18949944Y-10014650D01*
X18949944Y-10014650D02*
X18968991Y-10024174D01*
X18968991Y-10024174D02*
X18978515Y-10043222D01*
X18978515Y-10043222D02*
X18978515Y-10147984D01*
X19368991Y-9938460D02*
X19197563Y-10195603D01*
X19626134Y-9947984D02*
X19645182Y-9947984D01*
X19645182Y-9947984D02*
X19664229Y-9957508D01*
X19664229Y-9957508D02*
X19673753Y-9967031D01*
X19673753Y-9967031D02*
X19683277Y-9986079D01*
X19683277Y-9986079D02*
X19692801Y-10024174D01*
X19692801Y-10024174D02*
X19692801Y-10071793D01*
X19692801Y-10071793D02*
X19683277Y-10109889D01*
X19683277Y-10109889D02*
X19673753Y-10128936D01*
X19673753Y-10128936D02*
X19664229Y-10138460D01*
X19664229Y-10138460D02*
X19645182Y-10147984D01*
X19645182Y-10147984D02*
X19626134Y-10147984D01*
X19626134Y-10147984D02*
X19607087Y-10138460D01*
X19607087Y-10138460D02*
X19597563Y-10128936D01*
X19597563Y-10128936D02*
X19588039Y-10109889D01*
X19588039Y-10109889D02*
X19578515Y-10071793D01*
X19578515Y-10071793D02*
X19578515Y-10024174D01*
X19578515Y-10024174D02*
X19588039Y-9986079D01*
X19588039Y-9986079D02*
X19597563Y-9967031D01*
X19597563Y-9967031D02*
X19607087Y-9957508D01*
X19607087Y-9957508D02*
X19626134Y-9947984D01*
X19778515Y-10128936D02*
X19788039Y-10138460D01*
X19788039Y-10138460D02*
X19778515Y-10147984D01*
X19778515Y-10147984D02*
X19768991Y-10138460D01*
X19768991Y-10138460D02*
X19778515Y-10128936D01*
X19778515Y-10128936D02*
X19778515Y-10147984D01*
X19911848Y-9947984D02*
X19930896Y-9947984D01*
X19930896Y-9947984D02*
X19949944Y-9957508D01*
X19949944Y-9957508D02*
X19959468Y-9967031D01*
X19959468Y-9967031D02*
X19968991Y-9986079D01*
X19968991Y-9986079D02*
X19978515Y-10024174D01*
X19978515Y-10024174D02*
X19978515Y-10071793D01*
X19978515Y-10071793D02*
X19968991Y-10109889D01*
X19968991Y-10109889D02*
X19959468Y-10128936D01*
X19959468Y-10128936D02*
X19949944Y-10138460D01*
X19949944Y-10138460D02*
X19930896Y-10147984D01*
X19930896Y-10147984D02*
X19911848Y-10147984D01*
X19911848Y-10147984D02*
X19892801Y-10138460D01*
X19892801Y-10138460D02*
X19883277Y-10128936D01*
X19883277Y-10128936D02*
X19873753Y-10109889D01*
X19873753Y-10109889D02*
X19864229Y-10071793D01*
X19864229Y-10071793D02*
X19864229Y-10024174D01*
X19864229Y-10024174D02*
X19873753Y-9986079D01*
X19873753Y-9986079D02*
X19883277Y-9967031D01*
X19883277Y-9967031D02*
X19892801Y-9957508D01*
X19892801Y-9957508D02*
X19911848Y-9947984D01*
X20045182Y-9947984D02*
X20168991Y-9947984D01*
X20168991Y-9947984D02*
X20102325Y-10024174D01*
X20102325Y-10024174D02*
X20130896Y-10024174D01*
X20130896Y-10024174D02*
X20149944Y-10033698D01*
X20149944Y-10033698D02*
X20159468Y-10043222D01*
X20159468Y-10043222D02*
X20168991Y-10062270D01*
X20168991Y-10062270D02*
X20168991Y-10109889D01*
X20168991Y-10109889D02*
X20159468Y-10128936D01*
X20159468Y-10128936D02*
X20149944Y-10138460D01*
X20149944Y-10138460D02*
X20130896Y-10147984D01*
X20130896Y-10147984D02*
X20073753Y-10147984D01*
X20073753Y-10147984D02*
X20054706Y-10138460D01*
X20054706Y-10138460D02*
X20045182Y-10128936D01*
X20235658Y-9947984D02*
X20368991Y-9947984D01*
X20368991Y-9947984D02*
X20283277Y-10147984D01*
X20530896Y-10014650D02*
X20530896Y-10147984D01*
X20483277Y-9938460D02*
X20435658Y-10081317D01*
X20435658Y-10081317D02*
X20559468Y-10081317D01*
X20626134Y-9947984D02*
X20626134Y-9986079D01*
X20702325Y-9947984D02*
X20702325Y-9986079D01*
X20997563Y-10224174D02*
X20988039Y-10214650D01*
X20988039Y-10214650D02*
X20968991Y-10186079D01*
X20968991Y-10186079D02*
X20959468Y-10167031D01*
X20959468Y-10167031D02*
X20949944Y-10138460D01*
X20949944Y-10138460D02*
X20940420Y-10090841D01*
X20940420Y-10090841D02*
X20940420Y-10052746D01*
X20940420Y-10052746D02*
X20949944Y-10005127D01*
X20949944Y-10005127D02*
X20959468Y-9976555D01*
X20959468Y-9976555D02*
X20968991Y-9957508D01*
X20968991Y-9957508D02*
X20988039Y-9928936D01*
X20988039Y-9928936D02*
X20997563Y-9919412D01*
X21159468Y-10014650D02*
X21159468Y-10147984D01*
X21111849Y-9938460D02*
X21064230Y-10081317D01*
X21064230Y-10081317D02*
X21188039Y-10081317D01*
X21416611Y-10147984D02*
X21416611Y-9947984D01*
X21502325Y-10147984D02*
X21502325Y-10043222D01*
X21502325Y-10043222D02*
X21492801Y-10024174D01*
X21492801Y-10024174D02*
X21473753Y-10014650D01*
X21473753Y-10014650D02*
X21445182Y-10014650D01*
X21445182Y-10014650D02*
X21426134Y-10024174D01*
X21426134Y-10024174D02*
X21416611Y-10033698D01*
X21626134Y-10147984D02*
X21607087Y-10138460D01*
X21607087Y-10138460D02*
X21597563Y-10128936D01*
X21597563Y-10128936D02*
X21588039Y-10109889D01*
X21588039Y-10109889D02*
X21588039Y-10052746D01*
X21588039Y-10052746D02*
X21597563Y-10033698D01*
X21597563Y-10033698D02*
X21607087Y-10024174D01*
X21607087Y-10024174D02*
X21626134Y-10014650D01*
X21626134Y-10014650D02*
X21654706Y-10014650D01*
X21654706Y-10014650D02*
X21673753Y-10024174D01*
X21673753Y-10024174D02*
X21683277Y-10033698D01*
X21683277Y-10033698D02*
X21692801Y-10052746D01*
X21692801Y-10052746D02*
X21692801Y-10109889D01*
X21692801Y-10109889D02*
X21683277Y-10128936D01*
X21683277Y-10128936D02*
X21673753Y-10138460D01*
X21673753Y-10138460D02*
X21654706Y-10147984D01*
X21654706Y-10147984D02*
X21626134Y-10147984D01*
X21807087Y-10147984D02*
X21788039Y-10138460D01*
X21788039Y-10138460D02*
X21778515Y-10119412D01*
X21778515Y-10119412D02*
X21778515Y-9947984D01*
X21959468Y-10138460D02*
X21940420Y-10147984D01*
X21940420Y-10147984D02*
X21902325Y-10147984D01*
X21902325Y-10147984D02*
X21883277Y-10138460D01*
X21883277Y-10138460D02*
X21873753Y-10119412D01*
X21873753Y-10119412D02*
X21873753Y-10043222D01*
X21873753Y-10043222D02*
X21883277Y-10024174D01*
X21883277Y-10024174D02*
X21902325Y-10014650D01*
X21902325Y-10014650D02*
X21940420Y-10014650D01*
X21940420Y-10014650D02*
X21959468Y-10024174D01*
X21959468Y-10024174D02*
X21968992Y-10043222D01*
X21968992Y-10043222D02*
X21968992Y-10062270D01*
X21968992Y-10062270D02*
X21873753Y-10081317D01*
X22045182Y-10138460D02*
X22064230Y-10147984D01*
X22064230Y-10147984D02*
X22102325Y-10147984D01*
X22102325Y-10147984D02*
X22121373Y-10138460D01*
X22121373Y-10138460D02*
X22130896Y-10119412D01*
X22130896Y-10119412D02*
X22130896Y-10109889D01*
X22130896Y-10109889D02*
X22121373Y-10090841D01*
X22121373Y-10090841D02*
X22102325Y-10081317D01*
X22102325Y-10081317D02*
X22073753Y-10081317D01*
X22073753Y-10081317D02*
X22054706Y-10071793D01*
X22054706Y-10071793D02*
X22045182Y-10052746D01*
X22045182Y-10052746D02*
X22045182Y-10043222D01*
X22045182Y-10043222D02*
X22054706Y-10024174D01*
X22054706Y-10024174D02*
X22073753Y-10014650D01*
X22073753Y-10014650D02*
X22102325Y-10014650D01*
X22102325Y-10014650D02*
X22121373Y-10024174D01*
X22197563Y-10224174D02*
X22207087Y-10214650D01*
X22207087Y-10214650D02*
X22226134Y-10186079D01*
X22226134Y-10186079D02*
X22235658Y-10167031D01*
X22235658Y-10167031D02*
X22245182Y-10138460D01*
X22245182Y-10138460D02*
X22254706Y-10090841D01*
X22254706Y-10090841D02*
X22254706Y-10052746D01*
X22254706Y-10052746D02*
X22245182Y-10005127D01*
X22245182Y-10005127D02*
X22235658Y-9976555D01*
X22235658Y-9976555D02*
X22226134Y-9957508D01*
X22226134Y-9957508D02*
X22207087Y-9928936D01*
X22207087Y-9928936D02*
X22197563Y-9919412D01*
D12*
X17372500Y-10270500D02*
X17372500Y-10370500D01*
X17322500Y-10320500D02*
X17422500Y-10320500D01*
D11*
X17788039Y-10411984D02*
X17673753Y-10411984D01*
X17730896Y-10411984D02*
X17730896Y-10211984D01*
X17730896Y-10211984D02*
X17711848Y-10240555D01*
X17711848Y-10240555D02*
X17692801Y-10259603D01*
X17692801Y-10259603D02*
X17673753Y-10269127D01*
X17873753Y-10392936D02*
X17883277Y-10402460D01*
X17883277Y-10402460D02*
X17873753Y-10411984D01*
X17873753Y-10411984D02*
X17864229Y-10402460D01*
X17864229Y-10402460D02*
X17873753Y-10392936D01*
X17873753Y-10392936D02*
X17873753Y-10411984D01*
X18007086Y-10211984D02*
X18026134Y-10211984D01*
X18026134Y-10211984D02*
X18045182Y-10221508D01*
X18045182Y-10221508D02*
X18054705Y-10231031D01*
X18054705Y-10231031D02*
X18064229Y-10250079D01*
X18064229Y-10250079D02*
X18073753Y-10288174D01*
X18073753Y-10288174D02*
X18073753Y-10335793D01*
X18073753Y-10335793D02*
X18064229Y-10373889D01*
X18064229Y-10373889D02*
X18054705Y-10392936D01*
X18054705Y-10392936D02*
X18045182Y-10402460D01*
X18045182Y-10402460D02*
X18026134Y-10411984D01*
X18026134Y-10411984D02*
X18007086Y-10411984D01*
X18007086Y-10411984D02*
X17988039Y-10402460D01*
X17988039Y-10402460D02*
X17978515Y-10392936D01*
X17978515Y-10392936D02*
X17968991Y-10373889D01*
X17968991Y-10373889D02*
X17959467Y-10335793D01*
X17959467Y-10335793D02*
X17959467Y-10288174D01*
X17959467Y-10288174D02*
X17968991Y-10250079D01*
X17968991Y-10250079D02*
X17978515Y-10231031D01*
X17978515Y-10231031D02*
X17988039Y-10221508D01*
X17988039Y-10221508D02*
X18007086Y-10211984D01*
X18197563Y-10211984D02*
X18216610Y-10211984D01*
X18216610Y-10211984D02*
X18235658Y-10221508D01*
X18235658Y-10221508D02*
X18245182Y-10231031D01*
X18245182Y-10231031D02*
X18254705Y-10250079D01*
X18254705Y-10250079D02*
X18264229Y-10288174D01*
X18264229Y-10288174D02*
X18264229Y-10335793D01*
X18264229Y-10335793D02*
X18254705Y-10373889D01*
X18254705Y-10373889D02*
X18245182Y-10392936D01*
X18245182Y-10392936D02*
X18235658Y-10402460D01*
X18235658Y-10402460D02*
X18216610Y-10411984D01*
X18216610Y-10411984D02*
X18197563Y-10411984D01*
X18197563Y-10411984D02*
X18178515Y-10402460D01*
X18178515Y-10402460D02*
X18168991Y-10392936D01*
X18168991Y-10392936D02*
X18159467Y-10373889D01*
X18159467Y-10373889D02*
X18149944Y-10335793D01*
X18149944Y-10335793D02*
X18149944Y-10288174D01*
X18149944Y-10288174D02*
X18159467Y-10250079D01*
X18159467Y-10250079D02*
X18168991Y-10231031D01*
X18168991Y-10231031D02*
X18178515Y-10221508D01*
X18178515Y-10221508D02*
X18197563Y-10211984D01*
X18388039Y-10211984D02*
X18407086Y-10211984D01*
X18407086Y-10211984D02*
X18426134Y-10221508D01*
X18426134Y-10221508D02*
X18435658Y-10231031D01*
X18435658Y-10231031D02*
X18445182Y-10250079D01*
X18445182Y-10250079D02*
X18454705Y-10288174D01*
X18454705Y-10288174D02*
X18454705Y-10335793D01*
X18454705Y-10335793D02*
X18445182Y-10373889D01*
X18445182Y-10373889D02*
X18435658Y-10392936D01*
X18435658Y-10392936D02*
X18426134Y-10402460D01*
X18426134Y-10402460D02*
X18407086Y-10411984D01*
X18407086Y-10411984D02*
X18388039Y-10411984D01*
X18388039Y-10411984D02*
X18368991Y-10402460D01*
X18368991Y-10402460D02*
X18359467Y-10392936D01*
X18359467Y-10392936D02*
X18349944Y-10373889D01*
X18349944Y-10373889D02*
X18340420Y-10335793D01*
X18340420Y-10335793D02*
X18340420Y-10288174D01*
X18340420Y-10288174D02*
X18349944Y-10250079D01*
X18349944Y-10250079D02*
X18359467Y-10231031D01*
X18359467Y-10231031D02*
X18368991Y-10221508D01*
X18368991Y-10221508D02*
X18388039Y-10211984D01*
X18540420Y-10411984D02*
X18540420Y-10278650D01*
X18540420Y-10297698D02*
X18549944Y-10288174D01*
X18549944Y-10288174D02*
X18568991Y-10278650D01*
X18568991Y-10278650D02*
X18597563Y-10278650D01*
X18597563Y-10278650D02*
X18616610Y-10288174D01*
X18616610Y-10288174D02*
X18626134Y-10307222D01*
X18626134Y-10307222D02*
X18626134Y-10411984D01*
X18626134Y-10307222D02*
X18635658Y-10288174D01*
X18635658Y-10288174D02*
X18654705Y-10278650D01*
X18654705Y-10278650D02*
X18683277Y-10278650D01*
X18683277Y-10278650D02*
X18702325Y-10288174D01*
X18702325Y-10288174D02*
X18711848Y-10307222D01*
X18711848Y-10307222D02*
X18711848Y-10411984D01*
X18807086Y-10411984D02*
X18807086Y-10278650D01*
X18807086Y-10297698D02*
X18816610Y-10288174D01*
X18816610Y-10288174D02*
X18835658Y-10278650D01*
X18835658Y-10278650D02*
X18864229Y-10278650D01*
X18864229Y-10278650D02*
X18883277Y-10288174D01*
X18883277Y-10288174D02*
X18892801Y-10307222D01*
X18892801Y-10307222D02*
X18892801Y-10411984D01*
X18892801Y-10307222D02*
X18902325Y-10288174D01*
X18902325Y-10288174D02*
X18921372Y-10278650D01*
X18921372Y-10278650D02*
X18949944Y-10278650D01*
X18949944Y-10278650D02*
X18968991Y-10288174D01*
X18968991Y-10288174D02*
X18978515Y-10307222D01*
X18978515Y-10307222D02*
X18978515Y-10411984D01*
X19368991Y-10202460D02*
X19197563Y-10459603D01*
X19626134Y-10211984D02*
X19645182Y-10211984D01*
X19645182Y-10211984D02*
X19664229Y-10221508D01*
X19664229Y-10221508D02*
X19673753Y-10231031D01*
X19673753Y-10231031D02*
X19683277Y-10250079D01*
X19683277Y-10250079D02*
X19692801Y-10288174D01*
X19692801Y-10288174D02*
X19692801Y-10335793D01*
X19692801Y-10335793D02*
X19683277Y-10373889D01*
X19683277Y-10373889D02*
X19673753Y-10392936D01*
X19673753Y-10392936D02*
X19664229Y-10402460D01*
X19664229Y-10402460D02*
X19645182Y-10411984D01*
X19645182Y-10411984D02*
X19626134Y-10411984D01*
X19626134Y-10411984D02*
X19607087Y-10402460D01*
X19607087Y-10402460D02*
X19597563Y-10392936D01*
X19597563Y-10392936D02*
X19588039Y-10373889D01*
X19588039Y-10373889D02*
X19578515Y-10335793D01*
X19578515Y-10335793D02*
X19578515Y-10288174D01*
X19578515Y-10288174D02*
X19588039Y-10250079D01*
X19588039Y-10250079D02*
X19597563Y-10231031D01*
X19597563Y-10231031D02*
X19607087Y-10221508D01*
X19607087Y-10221508D02*
X19626134Y-10211984D01*
X19778515Y-10392936D02*
X19788039Y-10402460D01*
X19788039Y-10402460D02*
X19778515Y-10411984D01*
X19778515Y-10411984D02*
X19768991Y-10402460D01*
X19768991Y-10402460D02*
X19778515Y-10392936D01*
X19778515Y-10392936D02*
X19778515Y-10411984D01*
X19911848Y-10211984D02*
X19930896Y-10211984D01*
X19930896Y-10211984D02*
X19949944Y-10221508D01*
X19949944Y-10221508D02*
X19959468Y-10231031D01*
X19959468Y-10231031D02*
X19968991Y-10250079D01*
X19968991Y-10250079D02*
X19978515Y-10288174D01*
X19978515Y-10288174D02*
X19978515Y-10335793D01*
X19978515Y-10335793D02*
X19968991Y-10373889D01*
X19968991Y-10373889D02*
X19959468Y-10392936D01*
X19959468Y-10392936D02*
X19949944Y-10402460D01*
X19949944Y-10402460D02*
X19930896Y-10411984D01*
X19930896Y-10411984D02*
X19911848Y-10411984D01*
X19911848Y-10411984D02*
X19892801Y-10402460D01*
X19892801Y-10402460D02*
X19883277Y-10392936D01*
X19883277Y-10392936D02*
X19873753Y-10373889D01*
X19873753Y-10373889D02*
X19864229Y-10335793D01*
X19864229Y-10335793D02*
X19864229Y-10288174D01*
X19864229Y-10288174D02*
X19873753Y-10250079D01*
X19873753Y-10250079D02*
X19883277Y-10231031D01*
X19883277Y-10231031D02*
X19892801Y-10221508D01*
X19892801Y-10221508D02*
X19911848Y-10211984D01*
X20045182Y-10211984D02*
X20168991Y-10211984D01*
X20168991Y-10211984D02*
X20102325Y-10288174D01*
X20102325Y-10288174D02*
X20130896Y-10288174D01*
X20130896Y-10288174D02*
X20149944Y-10297698D01*
X20149944Y-10297698D02*
X20159468Y-10307222D01*
X20159468Y-10307222D02*
X20168991Y-10326270D01*
X20168991Y-10326270D02*
X20168991Y-10373889D01*
X20168991Y-10373889D02*
X20159468Y-10392936D01*
X20159468Y-10392936D02*
X20149944Y-10402460D01*
X20149944Y-10402460D02*
X20130896Y-10411984D01*
X20130896Y-10411984D02*
X20073753Y-10411984D01*
X20073753Y-10411984D02*
X20054706Y-10402460D01*
X20054706Y-10402460D02*
X20045182Y-10392936D01*
X20264229Y-10411984D02*
X20302325Y-10411984D01*
X20302325Y-10411984D02*
X20321372Y-10402460D01*
X20321372Y-10402460D02*
X20330896Y-10392936D01*
X20330896Y-10392936D02*
X20349944Y-10364365D01*
X20349944Y-10364365D02*
X20359468Y-10326270D01*
X20359468Y-10326270D02*
X20359468Y-10250079D01*
X20359468Y-10250079D02*
X20349944Y-10231031D01*
X20349944Y-10231031D02*
X20340420Y-10221508D01*
X20340420Y-10221508D02*
X20321372Y-10211984D01*
X20321372Y-10211984D02*
X20283277Y-10211984D01*
X20283277Y-10211984D02*
X20264229Y-10221508D01*
X20264229Y-10221508D02*
X20254706Y-10231031D01*
X20254706Y-10231031D02*
X20245182Y-10250079D01*
X20245182Y-10250079D02*
X20245182Y-10297698D01*
X20245182Y-10297698D02*
X20254706Y-10316746D01*
X20254706Y-10316746D02*
X20264229Y-10326270D01*
X20264229Y-10326270D02*
X20283277Y-10335793D01*
X20283277Y-10335793D02*
X20321372Y-10335793D01*
X20321372Y-10335793D02*
X20340420Y-10326270D01*
X20340420Y-10326270D02*
X20349944Y-10316746D01*
X20349944Y-10316746D02*
X20359468Y-10297698D01*
X20530896Y-10278650D02*
X20530896Y-10411984D01*
X20483277Y-10202460D02*
X20435658Y-10345317D01*
X20435658Y-10345317D02*
X20559468Y-10345317D01*
X20626134Y-10211984D02*
X20626134Y-10250079D01*
X20702325Y-10211984D02*
X20702325Y-10250079D01*
X20997563Y-10488174D02*
X20988039Y-10478650D01*
X20988039Y-10478650D02*
X20968991Y-10450079D01*
X20968991Y-10450079D02*
X20959468Y-10431031D01*
X20959468Y-10431031D02*
X20949944Y-10402460D01*
X20949944Y-10402460D02*
X20940420Y-10354841D01*
X20940420Y-10354841D02*
X20940420Y-10316746D01*
X20940420Y-10316746D02*
X20949944Y-10269127D01*
X20949944Y-10269127D02*
X20959468Y-10240555D01*
X20959468Y-10240555D02*
X20968991Y-10221508D01*
X20968991Y-10221508D02*
X20988039Y-10192936D01*
X20988039Y-10192936D02*
X20997563Y-10183412D01*
X21064230Y-10231031D02*
X21073753Y-10221508D01*
X21073753Y-10221508D02*
X21092801Y-10211984D01*
X21092801Y-10211984D02*
X21140420Y-10211984D01*
X21140420Y-10211984D02*
X21159468Y-10221508D01*
X21159468Y-10221508D02*
X21168991Y-10231031D01*
X21168991Y-10231031D02*
X21178515Y-10250079D01*
X21178515Y-10250079D02*
X21178515Y-10269127D01*
X21178515Y-10269127D02*
X21168991Y-10297698D01*
X21168991Y-10297698D02*
X21054706Y-10411984D01*
X21054706Y-10411984D02*
X21178515Y-10411984D01*
X21416611Y-10411984D02*
X21416611Y-10211984D01*
X21502325Y-10411984D02*
X21502325Y-10307222D01*
X21502325Y-10307222D02*
X21492801Y-10288174D01*
X21492801Y-10288174D02*
X21473753Y-10278650D01*
X21473753Y-10278650D02*
X21445182Y-10278650D01*
X21445182Y-10278650D02*
X21426134Y-10288174D01*
X21426134Y-10288174D02*
X21416611Y-10297698D01*
X21626134Y-10411984D02*
X21607087Y-10402460D01*
X21607087Y-10402460D02*
X21597563Y-10392936D01*
X21597563Y-10392936D02*
X21588039Y-10373889D01*
X21588039Y-10373889D02*
X21588039Y-10316746D01*
X21588039Y-10316746D02*
X21597563Y-10297698D01*
X21597563Y-10297698D02*
X21607087Y-10288174D01*
X21607087Y-10288174D02*
X21626134Y-10278650D01*
X21626134Y-10278650D02*
X21654706Y-10278650D01*
X21654706Y-10278650D02*
X21673753Y-10288174D01*
X21673753Y-10288174D02*
X21683277Y-10297698D01*
X21683277Y-10297698D02*
X21692801Y-10316746D01*
X21692801Y-10316746D02*
X21692801Y-10373889D01*
X21692801Y-10373889D02*
X21683277Y-10392936D01*
X21683277Y-10392936D02*
X21673753Y-10402460D01*
X21673753Y-10402460D02*
X21654706Y-10411984D01*
X21654706Y-10411984D02*
X21626134Y-10411984D01*
X21807087Y-10411984D02*
X21788039Y-10402460D01*
X21788039Y-10402460D02*
X21778515Y-10383412D01*
X21778515Y-10383412D02*
X21778515Y-10211984D01*
X21959468Y-10402460D02*
X21940420Y-10411984D01*
X21940420Y-10411984D02*
X21902325Y-10411984D01*
X21902325Y-10411984D02*
X21883277Y-10402460D01*
X21883277Y-10402460D02*
X21873753Y-10383412D01*
X21873753Y-10383412D02*
X21873753Y-10307222D01*
X21873753Y-10307222D02*
X21883277Y-10288174D01*
X21883277Y-10288174D02*
X21902325Y-10278650D01*
X21902325Y-10278650D02*
X21940420Y-10278650D01*
X21940420Y-10278650D02*
X21959468Y-10288174D01*
X21959468Y-10288174D02*
X21968992Y-10307222D01*
X21968992Y-10307222D02*
X21968992Y-10326270D01*
X21968992Y-10326270D02*
X21873753Y-10345317D01*
X22045182Y-10402460D02*
X22064230Y-10411984D01*
X22064230Y-10411984D02*
X22102325Y-10411984D01*
X22102325Y-10411984D02*
X22121373Y-10402460D01*
X22121373Y-10402460D02*
X22130896Y-10383412D01*
X22130896Y-10383412D02*
X22130896Y-10373889D01*
X22130896Y-10373889D02*
X22121373Y-10354841D01*
X22121373Y-10354841D02*
X22102325Y-10345317D01*
X22102325Y-10345317D02*
X22073753Y-10345317D01*
X22073753Y-10345317D02*
X22054706Y-10335793D01*
X22054706Y-10335793D02*
X22045182Y-10316746D01*
X22045182Y-10316746D02*
X22045182Y-10307222D01*
X22045182Y-10307222D02*
X22054706Y-10288174D01*
X22054706Y-10288174D02*
X22073753Y-10278650D01*
X22073753Y-10278650D02*
X22102325Y-10278650D01*
X22102325Y-10278650D02*
X22121373Y-10288174D01*
X22197563Y-10488174D02*
X22207087Y-10478650D01*
X22207087Y-10478650D02*
X22226134Y-10450079D01*
X22226134Y-10450079D02*
X22235658Y-10431031D01*
X22235658Y-10431031D02*
X22245182Y-10402460D01*
X22245182Y-10402460D02*
X22254706Y-10354841D01*
X22254706Y-10354841D02*
X22254706Y-10316746D01*
X22254706Y-10316746D02*
X22245182Y-10269127D01*
X22245182Y-10269127D02*
X22235658Y-10240555D01*
X22235658Y-10240555D02*
X22226134Y-10221508D01*
X22226134Y-10221508D02*
X22207087Y-10192936D01*
X22207087Y-10192936D02*
X22197563Y-10183412D01*
M02*
