G04 #@! TF.GenerationSoftware,KiCad,Pcbnew,9.0.4*
G04 #@! TF.CreationDate,2025-11-13T19:39:22-05:00*
G04 #@! TF.ProjectId,thermistor circuit,74686572-6d69-4737-946f-722063697263,rev?*
G04 #@! TF.SameCoordinates,Original*
G04 #@! TF.FileFunction,Copper,L1,Top*
G04 #@! TF.FilePolarity,Positive*
%FSLAX46Y46*%
G04 Gerber Fmt 4.6, Leading zero omitted, Abs format (unit mm)*
G04 Created by KiCad (PCBNEW 9.0.4) date 2025-11-13 19:39:22*
%MOMM*%
%LPD*%
G01*
G04 APERTURE LIST*
G04 Aperture macros list*
%AMRoundRect*
0 Rectangle with rounded corners*
0 $1 Rounding radius*
0 $2 $3 $4 $5 $6 $7 $8 $9 X,Y pos of 4 corners*
0 Add a 4 corners polygon primitive as box body*
4,1,4,$2,$3,$4,$5,$6,$7,$8,$9,$2,$3,0*
0 Add four circle primitives for the rounded corners*
1,1,$1+$1,$2,$3*
1,1,$1+$1,$4,$5*
1,1,$1+$1,$6,$7*
1,1,$1+$1,$8,$9*
0 Add four rect primitives between the rounded corners*
20,1,$1+$1,$2,$3,$4,$5,0*
20,1,$1+$1,$4,$5,$6,$7,0*
20,1,$1+$1,$6,$7,$8,$9,0*
20,1,$1+$1,$8,$9,$2,$3,0*%
G04 Aperture macros list end*
G04 #@! TA.AperFunction,ComponentPad*
%ADD10RoundRect,0.250000X0.725000X-0.600000X0.725000X0.600000X-0.725000X0.600000X-0.725000X-0.600000X0*%
G04 #@! TD*
G04 #@! TA.AperFunction,ComponentPad*
%ADD11O,1.950000X1.700000*%
G04 #@! TD*
G04 #@! TA.AperFunction,ComponentPad*
%ADD12RoundRect,0.250000X-0.750000X0.600000X-0.750000X-0.600000X0.750000X-0.600000X0.750000X0.600000X0*%
G04 #@! TD*
G04 #@! TA.AperFunction,ComponentPad*
%ADD13O,2.000000X1.700000*%
G04 #@! TD*
G04 #@! TA.AperFunction,SMDPad,CuDef*
%ADD14RoundRect,0.200000X-0.200000X-0.275000X0.200000X-0.275000X0.200000X0.275000X-0.200000X0.275000X0*%
G04 #@! TD*
G04 #@! TA.AperFunction,SMDPad,CuDef*
%ADD15RoundRect,0.200000X0.275000X-0.200000X0.275000X0.200000X-0.275000X0.200000X-0.275000X-0.200000X0*%
G04 #@! TD*
G04 #@! TA.AperFunction,SMDPad,CuDef*
%ADD16RoundRect,0.125000X-0.687500X-0.125000X0.687500X-0.125000X0.687500X0.125000X-0.687500X0.125000X0*%
G04 #@! TD*
G04 #@! TA.AperFunction,SMDPad,CuDef*
%ADD17RoundRect,0.200000X0.200000X0.275000X-0.200000X0.275000X-0.200000X-0.275000X0.200000X-0.275000X0*%
G04 #@! TD*
G04 #@! TA.AperFunction,SMDPad,CuDef*
%ADD18RoundRect,0.140000X-0.140000X-0.170000X0.140000X-0.170000X0.140000X0.170000X-0.140000X0.170000X0*%
G04 #@! TD*
G04 #@! TA.AperFunction,ViaPad*
%ADD19C,0.600000*%
G04 #@! TD*
G04 #@! TA.AperFunction,Conductor*
%ADD20C,0.200000*%
G04 #@! TD*
G04 APERTURE END LIST*
D10*
X198750000Y-87250000D03*
D11*
X198750000Y-84750000D03*
X198750000Y-82250000D03*
X198750000Y-79750000D03*
D12*
X181000000Y-83250000D03*
D13*
X181000000Y-85750000D03*
D14*
X192788840Y-86400000D03*
X194438840Y-86400000D03*
D15*
X191363840Y-80300000D03*
X191363840Y-78650000D03*
D16*
X186501340Y-82000000D03*
X186501340Y-82650000D03*
X186501340Y-83300000D03*
X186501340Y-83950000D03*
X190726340Y-83950000D03*
X190726340Y-83300000D03*
X190726340Y-82650000D03*
X190726340Y-82000000D03*
D17*
X194438840Y-84650000D03*
X192788840Y-84650000D03*
X189363840Y-85650000D03*
X187713840Y-85650000D03*
D15*
X193363840Y-80225000D03*
X193363840Y-78575000D03*
D14*
X187788840Y-80150000D03*
X189438840Y-80150000D03*
D18*
X193133840Y-81900000D03*
X194093840Y-81900000D03*
D19*
X197750000Y-86250000D03*
X197500000Y-82500000D03*
X195250000Y-84250000D03*
X194750000Y-81800000D03*
X184750000Y-84150000D03*
X190500000Y-78800000D03*
X184750000Y-79750000D03*
X184750000Y-82663880D03*
D20*
X198750000Y-87250000D02*
X197750000Y-86250000D01*
X198500000Y-82500000D02*
X197500000Y-82500000D01*
X198750000Y-82250000D02*
X198500000Y-82500000D01*
X194850000Y-84650000D02*
X195250000Y-84250000D01*
X194438840Y-84650000D02*
X194850000Y-84650000D01*
X198750000Y-84750000D02*
X197300000Y-83300000D01*
X197300000Y-83300000D02*
X190726340Y-83300000D01*
X198750000Y-87250000D02*
X195288840Y-87250000D01*
X195288840Y-87250000D02*
X194438840Y-86400000D01*
X193363840Y-80225000D02*
X198275000Y-80225000D01*
X198275000Y-80225000D02*
X198750000Y-79750000D01*
X184750000Y-84150000D02*
X183150000Y-85750000D01*
X183150000Y-85750000D02*
X181000000Y-85750000D01*
X186501340Y-83300000D02*
X181050000Y-83300000D01*
X181050000Y-83300000D02*
X181000000Y-83250000D01*
X189438840Y-80150000D02*
X189438840Y-80712500D01*
X189438840Y-80712500D02*
X190726340Y-82000000D01*
X187788840Y-80712500D02*
X186501340Y-82000000D01*
X187788840Y-80150000D02*
X187788840Y-80712500D01*
X187713840Y-85650000D02*
X187713840Y-83700001D01*
X187713840Y-83700001D02*
X187313839Y-83300000D01*
X187313839Y-83300000D02*
X186501340Y-83300000D01*
X193363840Y-80225000D02*
X193363840Y-81670000D01*
X193363840Y-81670000D02*
X193133840Y-81900000D01*
X189913841Y-82650000D02*
X190726340Y-82650000D01*
X189363840Y-83200001D02*
X189913841Y-82650000D01*
X189363840Y-85650000D02*
X189363840Y-83200001D01*
X190726340Y-82650000D02*
X192383840Y-82650000D01*
X192383840Y-82650000D02*
X193133840Y-81900000D01*
X184750000Y-84150000D02*
X185150000Y-84150000D01*
X185150000Y-84150000D02*
X185350000Y-83950000D01*
X185250000Y-82800000D02*
X185400000Y-82650000D01*
X184750000Y-79750000D02*
X184750000Y-82663880D01*
X194093840Y-81900000D02*
X194650000Y-81900000D01*
X185400000Y-82650000D02*
X186501340Y-82650000D01*
X184750000Y-82663880D02*
X184886120Y-82800000D01*
X191363840Y-78650000D02*
X190650000Y-78650000D01*
X185350000Y-83950000D02*
X186501340Y-83950000D01*
X184886120Y-82800000D02*
X185250000Y-82800000D01*
X194650000Y-81900000D02*
X194750000Y-81800000D01*
X190650000Y-78650000D02*
X190500000Y-78800000D01*
X190776340Y-83900000D02*
X190726340Y-83950000D01*
X192088840Y-83950000D02*
X192788840Y-84650000D01*
X190726340Y-83950000D02*
X192088840Y-83950000D01*
X192788840Y-84650000D02*
X192788840Y-86400000D01*
X193613840Y-78575000D02*
X193338840Y-78575000D01*
X193338840Y-78575000D02*
X191613840Y-80300000D01*
M02*
