G04 #@! TF.GenerationSoftware,KiCad,Pcbnew,9.0.4*
G04 #@! TF.CreationDate,2025-11-13T19:39:22-05:00*
G04 #@! TF.ProjectId,thermistor circuit,74686572-6d69-4737-946f-722063697263,rev?*
G04 #@! TF.SameCoordinates,Original*
G04 #@! TF.FileFunction,Copper,L2,Bot*
G04 #@! TF.FilePolarity,Positive*
%FSLAX46Y46*%
G04 Gerber Fmt 4.6, Leading zero omitted, Abs format (unit mm)*
G04 Created by KiCad (PCBNEW 9.0.4) date 2025-11-13 19:39:22*
%MOMM*%
%LPD*%
G01*
G04 APERTURE LIST*
G04 Aperture macros list*
%AMRoundRect*
0 Rectangle with rounded corners*
0 $1 Rounding radius*
0 $2 $3 $4 $5 $6 $7 $8 $9 X,Y pos of 4 corners*
0 Add a 4 corners polygon primitive as box body*
4,1,4,$2,$3,$4,$5,$6,$7,$8,$9,$2,$3,0*
0 Add four circle primitives for the rounded corners*
1,1,$1+$1,$2,$3*
1,1,$1+$1,$4,$5*
1,1,$1+$1,$6,$7*
1,1,$1+$1,$8,$9*
0 Add four rect primitives between the rounded corners*
20,1,$1+$1,$2,$3,$4,$5,0*
20,1,$1+$1,$4,$5,$6,$7,0*
20,1,$1+$1,$6,$7,$8,$9,0*
20,1,$1+$1,$8,$9,$2,$3,0*%
G04 Aperture macros list end*
G04 #@! TA.AperFunction,ComponentPad*
%ADD10RoundRect,0.250000X0.725000X-0.600000X0.725000X0.600000X-0.725000X0.600000X-0.725000X-0.600000X0*%
G04 #@! TD*
G04 #@! TA.AperFunction,ComponentPad*
%ADD11O,1.950000X1.700000*%
G04 #@! TD*
G04 #@! TA.AperFunction,ComponentPad*
%ADD12RoundRect,0.250000X-0.750000X0.600000X-0.750000X-0.600000X0.750000X-0.600000X0.750000X0.600000X0*%
G04 #@! TD*
G04 #@! TA.AperFunction,ComponentPad*
%ADD13O,2.000000X1.700000*%
G04 #@! TD*
G04 #@! TA.AperFunction,ViaPad*
%ADD14C,0.600000*%
G04 #@! TD*
G04 #@! TA.AperFunction,Conductor*
%ADD15C,0.200000*%
G04 #@! TD*
G04 APERTURE END LIST*
D10*
X198750000Y-87250000D03*
D11*
X198750000Y-84750000D03*
X198750000Y-82250000D03*
X198750000Y-79750000D03*
D12*
X181000000Y-83250000D03*
D13*
X181000000Y-85750000D03*
D14*
X197750000Y-86250000D03*
X197500000Y-82500000D03*
X195250000Y-84250000D03*
X194750000Y-81800000D03*
X184750000Y-84150000D03*
X190500000Y-78800000D03*
X184750000Y-79750000D03*
X184750000Y-82663880D03*
D15*
X194750000Y-81800000D02*
X194649000Y-81901000D01*
X194649000Y-81901000D02*
X194649000Y-84498943D01*
X194649000Y-84498943D02*
X196400057Y-86250000D01*
X196400057Y-86250000D02*
X197750000Y-86250000D01*
X197500000Y-82500000D02*
X195750000Y-84250000D01*
X195750000Y-84250000D02*
X195250000Y-84250000D01*
X184750000Y-79750000D02*
X184800000Y-79800000D01*
X189500000Y-79800000D02*
X190500000Y-78800000D01*
X194750000Y-81800000D02*
X194750000Y-81550000D01*
X184800000Y-79800000D02*
X189500000Y-79800000D01*
X184750000Y-82663880D02*
X184750000Y-84150000D01*
G04 #@! TA.AperFunction,Conductor*
G36*
X204792539Y-75920185D02*
G01*
X204838294Y-75972989D01*
X204849500Y-76024500D01*
X204849500Y-90975500D01*
X204829815Y-91042539D01*
X204777011Y-91088294D01*
X204725500Y-91099500D01*
X174774500Y-91099500D01*
X174707461Y-91079815D01*
X174661706Y-91027011D01*
X174650500Y-90975500D01*
X174650500Y-81571153D01*
X178199500Y-81571153D01*
X178199500Y-81728846D01*
X178230261Y-81883489D01*
X178230264Y-81883501D01*
X178290602Y-82029172D01*
X178290609Y-82029185D01*
X178378210Y-82160288D01*
X178378213Y-82160292D01*
X178489707Y-82271786D01*
X178489711Y-82271789D01*
X178620814Y-82359390D01*
X178620827Y-82359397D01*
X178766498Y-82419735D01*
X178766503Y-82419737D01*
X178921153Y-82450499D01*
X178921156Y-82450500D01*
X178921158Y-82450500D01*
X179078844Y-82450500D01*
X179078845Y-82450499D01*
X179233497Y-82419737D01*
X179338560Y-82376218D01*
X179408027Y-82368750D01*
X179470507Y-82400025D01*
X179506159Y-82460114D01*
X179509369Y-82503382D01*
X179499500Y-82599981D01*
X179499500Y-83900001D01*
X179499501Y-83900018D01*
X179510000Y-84002796D01*
X179510001Y-84002799D01*
X179550846Y-84126060D01*
X179565186Y-84169334D01*
X179657288Y-84318656D01*
X179781344Y-84442712D01*
X179847467Y-84483497D01*
X179936558Y-84538448D01*
X179983283Y-84590396D01*
X179994506Y-84659358D01*
X179966663Y-84723441D01*
X179959144Y-84731668D01*
X179820271Y-84870541D01*
X179695379Y-85042442D01*
X179598904Y-85231782D01*
X179533242Y-85433870D01*
X179533242Y-85433873D01*
X179522769Y-85500000D01*
X180566988Y-85500000D01*
X180534075Y-85557007D01*
X180500000Y-85684174D01*
X180500000Y-85815826D01*
X180534075Y-85942993D01*
X180566988Y-86000000D01*
X179522769Y-86000000D01*
X179533242Y-86066126D01*
X179533242Y-86066129D01*
X179598904Y-86268217D01*
X179695379Y-86457557D01*
X179820272Y-86629459D01*
X179820276Y-86629464D01*
X179970535Y-86779723D01*
X179970540Y-86779727D01*
X180142442Y-86904620D01*
X180331782Y-87001095D01*
X180533870Y-87066757D01*
X180743754Y-87100000D01*
X180750000Y-87100000D01*
X180750000Y-86183012D01*
X180807007Y-86215925D01*
X180934174Y-86250000D01*
X181065826Y-86250000D01*
X181192993Y-86215925D01*
X181250000Y-86183012D01*
X181250000Y-87100000D01*
X181256246Y-87100000D01*
X181466127Y-87066757D01*
X181466130Y-87066757D01*
X181668217Y-87001095D01*
X181857557Y-86904620D01*
X182029459Y-86779727D01*
X182029464Y-86779723D01*
X182179723Y-86629464D01*
X182179727Y-86629459D01*
X182304620Y-86457557D01*
X182401095Y-86268217D01*
X182466757Y-86066129D01*
X182466757Y-86066126D01*
X182477231Y-86000000D01*
X181433012Y-86000000D01*
X181465925Y-85942993D01*
X181500000Y-85815826D01*
X181500000Y-85684174D01*
X181465925Y-85557007D01*
X181433012Y-85500000D01*
X182477231Y-85500000D01*
X182466757Y-85433873D01*
X182466757Y-85433870D01*
X182401095Y-85231782D01*
X182304620Y-85042442D01*
X182179727Y-84870540D01*
X182179723Y-84870535D01*
X182040856Y-84731668D01*
X182007371Y-84670345D01*
X182012355Y-84600653D01*
X182054227Y-84544720D01*
X182063441Y-84538448D01*
X182069331Y-84534814D01*
X182069334Y-84534814D01*
X182218656Y-84442712D01*
X182342712Y-84318656D01*
X182433692Y-84171153D01*
X194449500Y-84171153D01*
X194449500Y-84328846D01*
X194480261Y-84483489D01*
X194480264Y-84483501D01*
X194540602Y-84629172D01*
X194540609Y-84629185D01*
X194628210Y-84760288D01*
X194628213Y-84760292D01*
X194739707Y-84871786D01*
X194739711Y-84871789D01*
X194870814Y-84959390D01*
X194870827Y-84959397D01*
X195016498Y-85019735D01*
X195016503Y-85019737D01*
X195171153Y-85050499D01*
X195171156Y-85050500D01*
X195171158Y-85050500D01*
X195328844Y-85050500D01*
X195328845Y-85050499D01*
X195483497Y-85019737D01*
X195629179Y-84959394D01*
X195760289Y-84871789D01*
X195760288Y-84871789D01*
X195760873Y-84871399D01*
X195821124Y-84852532D01*
X195820997Y-84851562D01*
X195826568Y-84850828D01*
X195827550Y-84850521D01*
X195829002Y-84850507D01*
X195829054Y-84850501D01*
X195829057Y-84850501D01*
X195981785Y-84809577D01*
X196031904Y-84780639D01*
X196118716Y-84730520D01*
X196230520Y-84618716D01*
X196230520Y-84618714D01*
X196240728Y-84608507D01*
X196240729Y-84608504D01*
X197514664Y-83334571D01*
X197531257Y-83325510D01*
X197544868Y-83312378D01*
X197574363Y-83301973D01*
X197575985Y-83301088D01*
X197578152Y-83300637D01*
X197578841Y-83300500D01*
X197578842Y-83300500D01*
X197678292Y-83280718D01*
X197747883Y-83286945D01*
X197775368Y-83302017D01*
X197909793Y-83399682D01*
X197952459Y-83455012D01*
X197958438Y-83524625D01*
X197925833Y-83586420D01*
X197909793Y-83600318D01*
X197745214Y-83719890D01*
X197745209Y-83719894D01*
X197594890Y-83870213D01*
X197469951Y-84042179D01*
X197373444Y-84231585D01*
X197307753Y-84433760D01*
X197282945Y-84590396D01*
X197274500Y-84643713D01*
X197274500Y-84856287D01*
X197276758Y-84870541D01*
X197307753Y-85066239D01*
X197373444Y-85268414D01*
X197469951Y-85457820D01*
X197594890Y-85629786D01*
X197734068Y-85768964D01*
X197767553Y-85830287D01*
X197762569Y-85899979D01*
X197720697Y-85955912D01*
X197711484Y-85962183D01*
X197556659Y-86057680D01*
X197556655Y-86057683D01*
X197432684Y-86181654D01*
X197340643Y-86330875D01*
X197340641Y-86330880D01*
X197285494Y-86497302D01*
X197285493Y-86497309D01*
X197275000Y-86600013D01*
X197275000Y-87000000D01*
X198345854Y-87000000D01*
X198307370Y-87066657D01*
X198275000Y-87187465D01*
X198275000Y-87312535D01*
X198307370Y-87433343D01*
X198345854Y-87500000D01*
X197275001Y-87500000D01*
X197275001Y-87899986D01*
X197285494Y-88002697D01*
X197340641Y-88169119D01*
X197340643Y-88169124D01*
X197432684Y-88318345D01*
X197556654Y-88442315D01*
X197705875Y-88534356D01*
X197705880Y-88534358D01*
X197872302Y-88589505D01*
X197872309Y-88589506D01*
X197975019Y-88599999D01*
X198499999Y-88599999D01*
X198500000Y-88599998D01*
X198500000Y-87654145D01*
X198566657Y-87692630D01*
X198687465Y-87725000D01*
X198812535Y-87725000D01*
X198933343Y-87692630D01*
X199000000Y-87654145D01*
X199000000Y-88599999D01*
X199524972Y-88599999D01*
X199524986Y-88599998D01*
X199627697Y-88589505D01*
X199794120Y-88534358D01*
X199795540Y-88533696D01*
X199796608Y-88533533D01*
X199800977Y-88532086D01*
X199801224Y-88532832D01*
X199864617Y-88523200D01*
X199928403Y-88551716D01*
X199966645Y-88610191D01*
X199969568Y-88670266D01*
X199949500Y-88771153D01*
X199949500Y-88928846D01*
X199980261Y-89083489D01*
X199980264Y-89083501D01*
X200040602Y-89229172D01*
X200040609Y-89229185D01*
X200128210Y-89360288D01*
X200128213Y-89360292D01*
X200239707Y-89471786D01*
X200239711Y-89471789D01*
X200370814Y-89559390D01*
X200370827Y-89559397D01*
X200516498Y-89619735D01*
X200516503Y-89619737D01*
X200671153Y-89650499D01*
X200671156Y-89650500D01*
X200671158Y-89650500D01*
X200828844Y-89650500D01*
X200828845Y-89650499D01*
X200983497Y-89619737D01*
X201129179Y-89559394D01*
X201260289Y-89471789D01*
X201371789Y-89360289D01*
X201459394Y-89229179D01*
X201519737Y-89083497D01*
X201550500Y-88928842D01*
X201550500Y-88771158D01*
X201550500Y-88771155D01*
X201550499Y-88771153D01*
X201519738Y-88616510D01*
X201519737Y-88616503D01*
X201512901Y-88599999D01*
X201459397Y-88470827D01*
X201459390Y-88470814D01*
X201371789Y-88339711D01*
X201371786Y-88339707D01*
X201260292Y-88228213D01*
X201260288Y-88228210D01*
X201129185Y-88140609D01*
X201129172Y-88140602D01*
X200983501Y-88080264D01*
X200983489Y-88080261D01*
X200828845Y-88049500D01*
X200828842Y-88049500D01*
X200671158Y-88049500D01*
X200671155Y-88049500D01*
X200516510Y-88080261D01*
X200516503Y-88080263D01*
X200384809Y-88134811D01*
X200315340Y-88142279D01*
X200252861Y-88111003D01*
X200217209Y-88050914D01*
X200214000Y-88007646D01*
X200224999Y-87899986D01*
X200225000Y-87899973D01*
X200225000Y-87500000D01*
X199154146Y-87500000D01*
X199192630Y-87433343D01*
X199225000Y-87312535D01*
X199225000Y-87187465D01*
X199192630Y-87066657D01*
X199154146Y-87000000D01*
X200224999Y-87000000D01*
X200224999Y-86600028D01*
X200224998Y-86600013D01*
X200214505Y-86497302D01*
X200159358Y-86330880D01*
X200159356Y-86330875D01*
X200067315Y-86181654D01*
X199943345Y-86057684D01*
X199788515Y-85962184D01*
X199741791Y-85910236D01*
X199730568Y-85841273D01*
X199758412Y-85777191D01*
X199765909Y-85768986D01*
X199905104Y-85629792D01*
X200030051Y-85457816D01*
X200126557Y-85268412D01*
X200192246Y-85066243D01*
X200225500Y-84856287D01*
X200225500Y-84643713D01*
X200192246Y-84433757D01*
X200126557Y-84231588D01*
X200030051Y-84042184D01*
X200030049Y-84042181D01*
X200030048Y-84042179D01*
X199905109Y-83870213D01*
X199754792Y-83719896D01*
X199754784Y-83719890D01*
X199590204Y-83600316D01*
X199547540Y-83544989D01*
X199541561Y-83475376D01*
X199574166Y-83413580D01*
X199590199Y-83399686D01*
X199754792Y-83280104D01*
X199905104Y-83129792D01*
X199905106Y-83129788D01*
X199905109Y-83129786D01*
X200030048Y-82957820D01*
X200030047Y-82957820D01*
X200030051Y-82957816D01*
X200126557Y-82768412D01*
X200192246Y-82566243D01*
X200225500Y-82356287D01*
X200225500Y-82143713D01*
X200192246Y-81933757D01*
X200126557Y-81731588D01*
X200030051Y-81542184D01*
X200030049Y-81542181D01*
X200030048Y-81542179D01*
X199905109Y-81370213D01*
X199754792Y-81219896D01*
X199754784Y-81219890D01*
X199590204Y-81100316D01*
X199547540Y-81044989D01*
X199541561Y-80975376D01*
X199574166Y-80913580D01*
X199590199Y-80899686D01*
X199754792Y-80780104D01*
X199905104Y-80629792D01*
X199905106Y-80629788D01*
X199905109Y-80629786D01*
X200030048Y-80457820D01*
X200030047Y-80457820D01*
X200030051Y-80457816D01*
X200126557Y-80268412D01*
X200192246Y-80066243D01*
X200225500Y-79856287D01*
X200225500Y-79643713D01*
X200192246Y-79433757D01*
X200126557Y-79231588D01*
X200030051Y-79042184D01*
X200030049Y-79042181D01*
X200030048Y-79042179D01*
X199905109Y-78870213D01*
X199754786Y-78719890D01*
X199582820Y-78594951D01*
X199393414Y-78498444D01*
X199393413Y-78498443D01*
X199393412Y-78498443D01*
X199191243Y-78432754D01*
X199191241Y-78432753D01*
X199191240Y-78432753D01*
X199029957Y-78407208D01*
X198981287Y-78399500D01*
X198518713Y-78399500D01*
X198470042Y-78407208D01*
X198308760Y-78432753D01*
X198106585Y-78498444D01*
X197917179Y-78594951D01*
X197745213Y-78719890D01*
X197594890Y-78870213D01*
X197469951Y-79042179D01*
X197373444Y-79231585D01*
X197307753Y-79433760D01*
X197274500Y-79643713D01*
X197274500Y-79856286D01*
X197307753Y-80066239D01*
X197373444Y-80268414D01*
X197469951Y-80457820D01*
X197594890Y-80629786D01*
X197745209Y-80780105D01*
X197745214Y-80780109D01*
X197909793Y-80899682D01*
X197952459Y-80955011D01*
X197958438Y-81024625D01*
X197925833Y-81086420D01*
X197909793Y-81100318D01*
X197745214Y-81219890D01*
X197745209Y-81219894D01*
X197594890Y-81370213D01*
X197469949Y-81542182D01*
X197413558Y-81652854D01*
X197365583Y-81703649D01*
X197327267Y-81718175D01*
X197266507Y-81730261D01*
X197266498Y-81730264D01*
X197120827Y-81790602D01*
X197120814Y-81790609D01*
X196989711Y-81878210D01*
X196989707Y-81878213D01*
X196878213Y-81989707D01*
X196878210Y-81989711D01*
X196790609Y-82120814D01*
X196790602Y-82120827D01*
X196730264Y-82266498D01*
X196730261Y-82266508D01*
X196699362Y-82421848D01*
X196666977Y-82483759D01*
X196665426Y-82485337D01*
X195674315Y-83476448D01*
X195612992Y-83509933D01*
X195543300Y-83504949D01*
X195539182Y-83503328D01*
X195483501Y-83480264D01*
X195483489Y-83480261D01*
X195328845Y-83449500D01*
X195328842Y-83449500D01*
X195171158Y-83449500D01*
X195171155Y-83449500D01*
X195016510Y-83480261D01*
X195016498Y-83480264D01*
X194870827Y-83540602D01*
X194870814Y-83540609D01*
X194739711Y-83628210D01*
X194739707Y-83628213D01*
X194628213Y-83739707D01*
X194628210Y-83739711D01*
X194540609Y-83870814D01*
X194540602Y-83870827D01*
X194480264Y-84016498D01*
X194480261Y-84016510D01*
X194449500Y-84171153D01*
X182433692Y-84171153D01*
X182434814Y-84169334D01*
X182489999Y-84002797D01*
X182500500Y-83900009D01*
X182500499Y-82599992D01*
X182489999Y-82497203D01*
X182434814Y-82330666D01*
X182342712Y-82181344D01*
X182218656Y-82057288D01*
X182069334Y-81965186D01*
X181902797Y-81910001D01*
X181902795Y-81910000D01*
X181800010Y-81899500D01*
X180199998Y-81899500D01*
X180199981Y-81899501D01*
X180097203Y-81910000D01*
X180097200Y-81910001D01*
X179943158Y-81961046D01*
X179873329Y-81963448D01*
X179813288Y-81927716D01*
X179782095Y-81865195D01*
X179782537Y-81819148D01*
X179800500Y-81728844D01*
X179800500Y-81571155D01*
X179800499Y-81571153D01*
X179769738Y-81416510D01*
X179769737Y-81416503D01*
X179750561Y-81370208D01*
X179709397Y-81270827D01*
X179709390Y-81270814D01*
X179621789Y-81139711D01*
X179621786Y-81139707D01*
X179510292Y-81028213D01*
X179510288Y-81028210D01*
X179379185Y-80940609D01*
X179379172Y-80940602D01*
X179233501Y-80880264D01*
X179233489Y-80880261D01*
X179078845Y-80849500D01*
X179078842Y-80849500D01*
X178921158Y-80849500D01*
X178921155Y-80849500D01*
X178766510Y-80880261D01*
X178766498Y-80880264D01*
X178620827Y-80940602D01*
X178620814Y-80940609D01*
X178489711Y-81028210D01*
X178489707Y-81028213D01*
X178378213Y-81139707D01*
X178378210Y-81139711D01*
X178290609Y-81270814D01*
X178290602Y-81270827D01*
X178230264Y-81416498D01*
X178230261Y-81416510D01*
X178199500Y-81571153D01*
X174650500Y-81571153D01*
X174650500Y-76024500D01*
X174670185Y-75957461D01*
X174722989Y-75911706D01*
X174774500Y-75900500D01*
X204725500Y-75900500D01*
X204792539Y-75920185D01*
G37*
G04 #@! TD.AperFunction*
M02*
