G04 #@! TF.GenerationSoftware,KiCad,Pcbnew,9.0.4*
G04 #@! TF.CreationDate,2025-12-20T00:07:52-05:00*
G04 #@! TF.ProjectId,thermistor circuit,74686572-6d69-4737-946f-722063697263,rev?*
G04 #@! TF.SameCoordinates,Original*
G04 #@! TF.FileFunction,Copper,L1,Top*
G04 #@! TF.FilePolarity,Positive*
%FSLAX46Y46*%
G04 Gerber Fmt 4.6, Leading zero omitted, Abs format (unit mm)*
G04 Created by KiCad (PCBNEW 9.0.4) date 2025-12-20 00:07:52*
%MOMM*%
%LPD*%
G01*
G04 APERTURE LIST*
G04 Aperture macros list*
%AMRoundRect*
0 Rectangle with rounded corners*
0 $1 Rounding radius*
0 $2 $3 $4 $5 $6 $7 $8 $9 X,Y pos of 4 corners*
0 Add a 4 corners polygon primitive as box body*
4,1,4,$2,$3,$4,$5,$6,$7,$8,$9,$2,$3,0*
0 Add four circle primitives for the rounded corners*
1,1,$1+$1,$2,$3*
1,1,$1+$1,$4,$5*
1,1,$1+$1,$6,$7*
1,1,$1+$1,$8,$9*
0 Add four rect primitives between the rounded corners*
20,1,$1+$1,$2,$3,$4,$5,0*
20,1,$1+$1,$4,$5,$6,$7,0*
20,1,$1+$1,$6,$7,$8,$9,0*
20,1,$1+$1,$8,$9,$2,$3,0*%
G04 Aperture macros list end*
G04 #@! TA.AperFunction,SMDPad,CuDef*
%ADD10RoundRect,0.200000X-0.200000X-0.275000X0.200000X-0.275000X0.200000X0.275000X-0.200000X0.275000X0*%
G04 #@! TD*
G04 #@! TA.AperFunction,SMDPad,CuDef*
%ADD11RoundRect,0.125000X-0.687500X-0.125000X0.687500X-0.125000X0.687500X0.125000X-0.687500X0.125000X0*%
G04 #@! TD*
G04 #@! TA.AperFunction,SMDPad,CuDef*
%ADD12RoundRect,0.200000X0.275000X-0.200000X0.275000X0.200000X-0.275000X0.200000X-0.275000X-0.200000X0*%
G04 #@! TD*
G04 #@! TA.AperFunction,SMDPad,CuDef*
%ADD13RoundRect,0.200000X0.200000X0.275000X-0.200000X0.275000X-0.200000X-0.275000X0.200000X-0.275000X0*%
G04 #@! TD*
G04 #@! TA.AperFunction,SMDPad,CuDef*
%ADD14RoundRect,0.140000X-0.140000X-0.170000X0.140000X-0.170000X0.140000X0.170000X-0.140000X0.170000X0*%
G04 #@! TD*
G04 #@! TA.AperFunction,ComponentPad*
%ADD15RoundRect,0.250000X-0.750000X0.600000X-0.750000X-0.600000X0.750000X-0.600000X0.750000X0.600000X0*%
G04 #@! TD*
G04 #@! TA.AperFunction,ComponentPad*
%ADD16O,2.000000X1.700000*%
G04 #@! TD*
G04 #@! TA.AperFunction,ComponentPad*
%ADD17RoundRect,0.250000X0.725000X-0.600000X0.725000X0.600000X-0.725000X0.600000X-0.725000X-0.600000X0*%
G04 #@! TD*
G04 #@! TA.AperFunction,ComponentPad*
%ADD18O,1.950000X1.700000*%
G04 #@! TD*
G04 #@! TA.AperFunction,ViaPad*
%ADD19C,0.600000*%
G04 #@! TD*
G04 #@! TA.AperFunction,ViaPad*
%ADD20C,0.450000*%
G04 #@! TD*
G04 #@! TA.AperFunction,Conductor*
%ADD21C,0.200000*%
G04 #@! TD*
G04 APERTURE END LIST*
D10*
X189438840Y-80150000D03*
X187788840Y-80150000D03*
D11*
X190726340Y-82000000D03*
X190726340Y-82650000D03*
X190726340Y-83300000D03*
X190726340Y-83950000D03*
X186501340Y-83950000D03*
X186501340Y-83300000D03*
X186501340Y-82650000D03*
X186501340Y-82000000D03*
D10*
X192788840Y-86400000D03*
X194438840Y-86400000D03*
D12*
X191363840Y-80300000D03*
X191363840Y-78650000D03*
D13*
X194438840Y-84650000D03*
X192788840Y-84650000D03*
X189363840Y-85650000D03*
X187713840Y-85650000D03*
D12*
X193363840Y-80225000D03*
X193363840Y-78575000D03*
D14*
X193133840Y-81900000D03*
X194093840Y-81900000D03*
D15*
X181000000Y-83250000D03*
D16*
X181000000Y-85750000D03*
D17*
X198750000Y-87250000D03*
D18*
X198750000Y-84750000D03*
X198750000Y-82250000D03*
X198750000Y-79750000D03*
D19*
X195500000Y-82000000D03*
D20*
X196500000Y-88500000D03*
D19*
X195250000Y-84250000D03*
X197500000Y-82500000D03*
D20*
X188000000Y-88500000D03*
X191500000Y-78000000D03*
X202500000Y-88500000D03*
X191500000Y-88500000D03*
X179500000Y-78000000D03*
X195500000Y-86500000D03*
X185150000Y-82650000D03*
X185000000Y-84500000D03*
X179500000Y-88500000D03*
X184000000Y-78000000D03*
X188000000Y-78000000D03*
X184000000Y-88500000D03*
X202500000Y-78000000D03*
X196500000Y-78000000D03*
D21*
X195400000Y-81900000D02*
X195500000Y-82000000D01*
X194093840Y-81900000D02*
X195400000Y-81900000D01*
X189438840Y-80712500D02*
X190726340Y-82000000D01*
X189438840Y-80150000D02*
X189438840Y-80712500D01*
X187788840Y-80712500D02*
X186501340Y-82000000D01*
X187788840Y-80150000D02*
X187788840Y-80712500D01*
X194438840Y-84650000D02*
X194850000Y-84650000D01*
X198750000Y-82250000D02*
X198500000Y-82500000D01*
X198500000Y-82500000D02*
X197500000Y-82500000D01*
X194850000Y-84650000D02*
X195250000Y-84250000D01*
X186501340Y-83300000D02*
X181050000Y-83300000D01*
X187713840Y-85650000D02*
X187713840Y-83700001D01*
X181050000Y-83300000D02*
X181000000Y-83250000D01*
X187713840Y-83700001D02*
X187313839Y-83300000D01*
X187313839Y-83300000D02*
X186501340Y-83300000D01*
X198275000Y-80225000D02*
X198750000Y-79750000D01*
X193363840Y-80225000D02*
X193363840Y-81670000D01*
X193363840Y-81670000D02*
X193133840Y-81900000D01*
X189913841Y-82650000D02*
X190726340Y-82650000D01*
X189363840Y-83200001D02*
X189913841Y-82650000D01*
X193363840Y-80225000D02*
X198275000Y-80225000D01*
X189363840Y-85650000D02*
X189363840Y-83200001D01*
X190726340Y-82650000D02*
X192383840Y-82650000D01*
X192383840Y-82650000D02*
X193133840Y-81900000D01*
X197300000Y-83300000D02*
X190726340Y-83300000D01*
X198750000Y-84750000D02*
X197300000Y-83300000D01*
X194438840Y-86400000D02*
X195400000Y-86400000D01*
X191363840Y-78136160D02*
X191500000Y-78000000D01*
X191363840Y-78650000D02*
X191363840Y-78136160D01*
X186501340Y-82650000D02*
X185150000Y-82650000D01*
X185550000Y-83950000D02*
X185000000Y-84500000D01*
X186501340Y-83950000D02*
X185550000Y-83950000D01*
X195400000Y-86400000D02*
X195500000Y-86500000D01*
X190776340Y-83900000D02*
X190726340Y-83950000D01*
X192088840Y-83950000D02*
X192788840Y-84650000D01*
X190726340Y-83950000D02*
X192088840Y-83950000D01*
X192788840Y-84650000D02*
X192788840Y-86400000D01*
X193613840Y-78575000D02*
X193338840Y-78575000D01*
X193338840Y-78575000D02*
X191613840Y-80300000D01*
G04 #@! TA.AperFunction,Conductor*
G36*
X197834440Y-80845185D02*
G01*
X197840273Y-80849172D01*
X197909795Y-80899682D01*
X197952459Y-80955010D01*
X197958438Y-81024623D01*
X197925833Y-81086419D01*
X197909793Y-81100317D01*
X197745214Y-81219890D01*
X197745209Y-81219894D01*
X197594890Y-81370213D01*
X197469949Y-81542182D01*
X197413558Y-81652854D01*
X197365583Y-81703649D01*
X197327267Y-81718175D01*
X197266507Y-81730261D01*
X197266498Y-81730264D01*
X197120827Y-81790602D01*
X197120814Y-81790609D01*
X196989711Y-81878210D01*
X196989707Y-81878213D01*
X196878213Y-81989707D01*
X196878210Y-81989711D01*
X196790609Y-82120814D01*
X196790602Y-82120827D01*
X196730264Y-82266498D01*
X196730261Y-82266510D01*
X196699500Y-82421153D01*
X196699500Y-82575500D01*
X196679815Y-82642539D01*
X196627011Y-82688294D01*
X196575500Y-82699500D01*
X194808800Y-82699500D01*
X194741761Y-82679815D01*
X194696006Y-82627011D01*
X194686062Y-82557853D01*
X194715087Y-82494297D01*
X194721119Y-82487819D01*
X194743554Y-82465383D01*
X194743561Y-82465374D01*
X194825871Y-82326195D01*
X194825873Y-82326190D01*
X194870984Y-82170918D01*
X194870985Y-82170912D01*
X194872630Y-82150000D01*
X194217840Y-82150000D01*
X194150801Y-82130315D01*
X194105046Y-82077511D01*
X194093840Y-82026000D01*
X194093840Y-81774000D01*
X194113525Y-81706961D01*
X194166329Y-81661206D01*
X194217840Y-81650000D01*
X194872630Y-81650000D01*
X194870985Y-81629089D01*
X194825871Y-81473804D01*
X194743561Y-81334625D01*
X194743554Y-81334616D01*
X194629223Y-81220285D01*
X194629214Y-81220278D01*
X194490036Y-81137969D01*
X194334749Y-81092854D01*
X194298484Y-81090000D01*
X194263860Y-81090000D01*
X194242614Y-81083761D01*
X194220526Y-81082182D01*
X194209742Y-81074109D01*
X194196821Y-81070315D01*
X194182321Y-81053581D01*
X194164593Y-81040310D01*
X194159885Y-81027689D01*
X194151066Y-81017511D01*
X194147914Y-80995593D01*
X194140176Y-80974846D01*
X194143038Y-80961685D01*
X194141122Y-80948353D01*
X194150321Y-80928209D01*
X194155028Y-80906573D01*
X194168296Y-80888847D01*
X194170147Y-80884797D01*
X194176179Y-80878319D01*
X194192679Y-80861819D01*
X194254002Y-80828334D01*
X194280360Y-80825500D01*
X197767401Y-80825500D01*
X197834440Y-80845185D01*
G37*
G04 #@! TD.AperFunction*
G04 #@! TA.AperFunction,Conductor*
G36*
X204792539Y-75920185D02*
G01*
X204838294Y-75972989D01*
X204849500Y-76024500D01*
X204849500Y-90975500D01*
X204829815Y-91042539D01*
X204777011Y-91088294D01*
X204725500Y-91099500D01*
X174774500Y-91099500D01*
X174707461Y-91079815D01*
X174661706Y-91027011D01*
X174650500Y-90975500D01*
X174650500Y-81571153D01*
X178199500Y-81571153D01*
X178199500Y-81728846D01*
X178230261Y-81883489D01*
X178230264Y-81883501D01*
X178290602Y-82029172D01*
X178290609Y-82029185D01*
X178378210Y-82160288D01*
X178378213Y-82160292D01*
X178489707Y-82271786D01*
X178489711Y-82271789D01*
X178620814Y-82359390D01*
X178620827Y-82359397D01*
X178766498Y-82419735D01*
X178766503Y-82419737D01*
X178921153Y-82450499D01*
X178921156Y-82450500D01*
X178921158Y-82450500D01*
X179078844Y-82450500D01*
X179078845Y-82450499D01*
X179233497Y-82419737D01*
X179339086Y-82376000D01*
X179408553Y-82368532D01*
X179471033Y-82399807D01*
X179506685Y-82459896D01*
X179509895Y-82503165D01*
X179500000Y-82600013D01*
X179500000Y-83000000D01*
X180283703Y-83000000D01*
X180350742Y-83019685D01*
X180396497Y-83072489D01*
X180406441Y-83141647D01*
X180403478Y-83156091D01*
X180399499Y-83170938D01*
X180399499Y-83329061D01*
X180403478Y-83343909D01*
X180401814Y-83413758D01*
X180362651Y-83471620D01*
X180298422Y-83499123D01*
X180283703Y-83500000D01*
X179500001Y-83500000D01*
X179500001Y-83899986D01*
X179510494Y-84002697D01*
X179565641Y-84169119D01*
X179565643Y-84169124D01*
X179657684Y-84318345D01*
X179781654Y-84442315D01*
X179936484Y-84537815D01*
X179983208Y-84589763D01*
X179994431Y-84658726D01*
X179966587Y-84722808D01*
X179959069Y-84731035D01*
X179819889Y-84870215D01*
X179694951Y-85042179D01*
X179598444Y-85231585D01*
X179532753Y-85433760D01*
X179499500Y-85643713D01*
X179499500Y-85856286D01*
X179531397Y-86057680D01*
X179532754Y-86066243D01*
X179580960Y-86214606D01*
X179598444Y-86268414D01*
X179694951Y-86457820D01*
X179819890Y-86629786D01*
X179970213Y-86780109D01*
X180142179Y-86905048D01*
X180142181Y-86905049D01*
X180142184Y-86905051D01*
X180331588Y-87001557D01*
X180533757Y-87067246D01*
X180743713Y-87100500D01*
X180743714Y-87100500D01*
X181256286Y-87100500D01*
X181256287Y-87100500D01*
X181466243Y-87067246D01*
X181668412Y-87001557D01*
X181857816Y-86905051D01*
X181906191Y-86869905D01*
X182029786Y-86780109D01*
X182029788Y-86780106D01*
X182029792Y-86780104D01*
X182180104Y-86629792D01*
X182180106Y-86629788D01*
X182180109Y-86629786D01*
X182305048Y-86457820D01*
X182305047Y-86457820D01*
X182305051Y-86457816D01*
X182401557Y-86268412D01*
X182467246Y-86066243D01*
X182500500Y-85856287D01*
X182500500Y-85643713D01*
X182467246Y-85433757D01*
X182401557Y-85231588D01*
X182305051Y-85042184D01*
X182305049Y-85042181D01*
X182305048Y-85042179D01*
X182180109Y-84870213D01*
X182040931Y-84731035D01*
X182007446Y-84669712D01*
X182012430Y-84600020D01*
X182054302Y-84544087D01*
X182063516Y-84537815D01*
X182218343Y-84442317D01*
X182342315Y-84318345D01*
X182434356Y-84169124D01*
X182434358Y-84169119D01*
X182489507Y-84002689D01*
X182490397Y-83998537D01*
X182523682Y-83937105D01*
X182584895Y-83903420D01*
X182611648Y-83900500D01*
X185355739Y-83900500D01*
X185371749Y-83904904D01*
X185386583Y-83904397D01*
X185407951Y-83914865D01*
X185419170Y-83917952D01*
X185426662Y-83922412D01*
X185427420Y-83923170D01*
X185505449Y-83969316D01*
X185505677Y-83969452D01*
X185529319Y-83994920D01*
X185553051Y-84020337D01*
X185553084Y-84020521D01*
X185553212Y-84020659D01*
X185559343Y-84054934D01*
X185565554Y-84089079D01*
X185565482Y-84089251D01*
X185565516Y-84089437D01*
X185552183Y-84121489D01*
X185538909Y-84153668D01*
X185538753Y-84153775D01*
X185538682Y-84153949D01*
X185510103Y-84173728D01*
X185481573Y-84193598D01*
X185481341Y-84193635D01*
X185481231Y-84193712D01*
X185480777Y-84193727D01*
X185442246Y-84200000D01*
X185199314Y-84200000D01*
X185235683Y-84325185D01*
X185235685Y-84325191D01*
X185316066Y-84461108D01*
X185316072Y-84461116D01*
X185427723Y-84572767D01*
X185427731Y-84572773D01*
X185563651Y-84653155D01*
X185563654Y-84653156D01*
X185715286Y-84697210D01*
X185715292Y-84697211D01*
X185750721Y-84699999D01*
X185750734Y-84700000D01*
X186251340Y-84700000D01*
X186251340Y-84174499D01*
X186271025Y-84107460D01*
X186323829Y-84061705D01*
X186375337Y-84050499D01*
X186627341Y-84050499D01*
X186694379Y-84070184D01*
X186740134Y-84122988D01*
X186751340Y-84174499D01*
X186751340Y-84700000D01*
X186898820Y-84700000D01*
X186965859Y-84719685D01*
X187011614Y-84772489D01*
X187021558Y-84841647D01*
X186992533Y-84905203D01*
X186986501Y-84911681D01*
X186958371Y-84939810D01*
X186958370Y-84939811D01*
X186870362Y-85085393D01*
X186819753Y-85247807D01*
X186813340Y-85318386D01*
X186813340Y-85981613D01*
X186819753Y-86052192D01*
X186819753Y-86052194D01*
X186819754Y-86052196D01*
X186870362Y-86214606D01*
X186940652Y-86330880D01*
X186958370Y-86360188D01*
X187078651Y-86480469D01*
X187078653Y-86480470D01*
X187078655Y-86480472D01*
X187224234Y-86568478D01*
X187386644Y-86619086D01*
X187457224Y-86625500D01*
X187457227Y-86625500D01*
X187970453Y-86625500D01*
X187970456Y-86625500D01*
X188041036Y-86619086D01*
X188203446Y-86568478D01*
X188349025Y-86480472D01*
X188372536Y-86456961D01*
X188451159Y-86378339D01*
X188512482Y-86344854D01*
X188582174Y-86349838D01*
X188626521Y-86378339D01*
X188728651Y-86480469D01*
X188728653Y-86480470D01*
X188728655Y-86480472D01*
X188874234Y-86568478D01*
X189036644Y-86619086D01*
X189107224Y-86625500D01*
X189107227Y-86625500D01*
X189620453Y-86625500D01*
X189620456Y-86625500D01*
X189691036Y-86619086D01*
X189853446Y-86568478D01*
X189999025Y-86480472D01*
X190119312Y-86360185D01*
X190207318Y-86214606D01*
X190257926Y-86052196D01*
X190264340Y-85981616D01*
X190264340Y-85318384D01*
X190257926Y-85247804D01*
X190207318Y-85085394D01*
X190119312Y-84939815D01*
X190119310Y-84939813D01*
X190119309Y-84939811D01*
X190091678Y-84912180D01*
X190058193Y-84850857D01*
X190063177Y-84781165D01*
X190105049Y-84725232D01*
X190170513Y-84700815D01*
X190179334Y-84700499D01*
X191477002Y-84700499D01*
X191512467Y-84697709D01*
X191664230Y-84653618D01*
X191701218Y-84631742D01*
X191768942Y-84614559D01*
X191835204Y-84636718D01*
X191878968Y-84691184D01*
X191888340Y-84738474D01*
X191888340Y-84981613D01*
X191894753Y-85052192D01*
X191894753Y-85052194D01*
X191894754Y-85052196D01*
X191945362Y-85214606D01*
X192033368Y-85360185D01*
X192110502Y-85437319D01*
X192143986Y-85498640D01*
X192139002Y-85568332D01*
X192110502Y-85612680D01*
X192033369Y-85689813D01*
X191945362Y-85835393D01*
X191894753Y-85997807D01*
X191889811Y-86052192D01*
X191888444Y-86067246D01*
X191888340Y-86068386D01*
X191888340Y-86731613D01*
X191894753Y-86802192D01*
X191894753Y-86802194D01*
X191894754Y-86802196D01*
X191945362Y-86964606D01*
X192026898Y-87099483D01*
X192033370Y-87110188D01*
X192153651Y-87230469D01*
X192153653Y-87230470D01*
X192153655Y-87230472D01*
X192299234Y-87318478D01*
X192461644Y-87369086D01*
X192532224Y-87375500D01*
X192532227Y-87375500D01*
X193045453Y-87375500D01*
X193045456Y-87375500D01*
X193116036Y-87369086D01*
X193278446Y-87318478D01*
X193424025Y-87230472D01*
X193526513Y-87127983D01*
X193587834Y-87094499D01*
X193657525Y-87099483D01*
X193701874Y-87127984D01*
X193803962Y-87230072D01*
X193949444Y-87318019D01*
X193949443Y-87318019D01*
X194111734Y-87368590D01*
X194111733Y-87368590D01*
X194182248Y-87374998D01*
X194182266Y-87374999D01*
X194688840Y-87374999D01*
X194695421Y-87374999D01*
X194765942Y-87368591D01*
X194765947Y-87368590D01*
X194888977Y-87330253D01*
X194928236Y-87318018D01*
X195073717Y-87230072D01*
X195193912Y-87109877D01*
X195281859Y-86964395D01*
X195332430Y-86802106D01*
X195338840Y-86731572D01*
X195338840Y-86650000D01*
X194688840Y-86650000D01*
X194688840Y-87374999D01*
X194182266Y-87374999D01*
X194188839Y-87374998D01*
X194188840Y-87374998D01*
X194188840Y-86524000D01*
X194208525Y-86456961D01*
X194261329Y-86411206D01*
X194312840Y-86400000D01*
X194438840Y-86400000D01*
X194438840Y-86274000D01*
X194458525Y-86206961D01*
X194511329Y-86161206D01*
X194562840Y-86150000D01*
X195338839Y-86150000D01*
X195338839Y-86068417D01*
X195332431Y-85997897D01*
X195332430Y-85997892D01*
X195281858Y-85835603D01*
X195193912Y-85690122D01*
X195116824Y-85613034D01*
X195083339Y-85551711D01*
X195088323Y-85482019D01*
X195116823Y-85437673D01*
X195194312Y-85360185D01*
X195282318Y-85214606D01*
X195311838Y-85119869D01*
X195350573Y-85061725D01*
X195406028Y-85035146D01*
X195483497Y-85019737D01*
X195629179Y-84959394D01*
X195760289Y-84871789D01*
X195871789Y-84760289D01*
X195959394Y-84629179D01*
X196019737Y-84483497D01*
X196050500Y-84328842D01*
X196050500Y-84171158D01*
X196050500Y-84171155D01*
X196026140Y-84048692D01*
X196032367Y-83979100D01*
X196075230Y-83923923D01*
X196141120Y-83900678D01*
X196147757Y-83900500D01*
X196999903Y-83900500D01*
X197066942Y-83920185D01*
X197087584Y-83936819D01*
X197321897Y-84171132D01*
X197355382Y-84232455D01*
X197352147Y-84297129D01*
X197341842Y-84328846D01*
X197307753Y-84433760D01*
X197274500Y-84643713D01*
X197274500Y-84856286D01*
X197305528Y-85052192D01*
X197307754Y-85066243D01*
X197355960Y-85214606D01*
X197373444Y-85268414D01*
X197469951Y-85457820D01*
X197594890Y-85629786D01*
X197734068Y-85768964D01*
X197767553Y-85830287D01*
X197762569Y-85899979D01*
X197720697Y-85955912D01*
X197711484Y-85962183D01*
X197556659Y-86057680D01*
X197556655Y-86057683D01*
X197432684Y-86181654D01*
X197340643Y-86330875D01*
X197340641Y-86330880D01*
X197285494Y-86497302D01*
X197285493Y-86497309D01*
X197275000Y-86600013D01*
X197275000Y-87000000D01*
X198345854Y-87000000D01*
X198307370Y-87066657D01*
X198275000Y-87187465D01*
X198275000Y-87312535D01*
X198307370Y-87433343D01*
X198345854Y-87500000D01*
X197275001Y-87500000D01*
X197275001Y-87899986D01*
X197285494Y-88002697D01*
X197340641Y-88169119D01*
X197340643Y-88169124D01*
X197432684Y-88318345D01*
X197556654Y-88442315D01*
X197705875Y-88534356D01*
X197705880Y-88534358D01*
X197872302Y-88589505D01*
X197872309Y-88589506D01*
X197975019Y-88599999D01*
X198499999Y-88599999D01*
X198500000Y-88599998D01*
X198500000Y-87654145D01*
X198566657Y-87692630D01*
X198687465Y-87725000D01*
X198812535Y-87725000D01*
X198933343Y-87692630D01*
X199000000Y-87654145D01*
X199000000Y-88599999D01*
X199524972Y-88599999D01*
X199524986Y-88599998D01*
X199627697Y-88589505D01*
X199794120Y-88534358D01*
X199795540Y-88533696D01*
X199796608Y-88533533D01*
X199800977Y-88532086D01*
X199801224Y-88532832D01*
X199864617Y-88523200D01*
X199928403Y-88551716D01*
X199966645Y-88610191D01*
X199969568Y-88670266D01*
X199949500Y-88771153D01*
X199949500Y-88928846D01*
X199980261Y-89083489D01*
X199980264Y-89083501D01*
X200040602Y-89229172D01*
X200040609Y-89229185D01*
X200128210Y-89360288D01*
X200128213Y-89360292D01*
X200239707Y-89471786D01*
X200239711Y-89471789D01*
X200370814Y-89559390D01*
X200370827Y-89559397D01*
X200516498Y-89619735D01*
X200516503Y-89619737D01*
X200671153Y-89650499D01*
X200671156Y-89650500D01*
X200671158Y-89650500D01*
X200828844Y-89650500D01*
X200828845Y-89650499D01*
X200983497Y-89619737D01*
X201129179Y-89559394D01*
X201260289Y-89471789D01*
X201371789Y-89360289D01*
X201459394Y-89229179D01*
X201519737Y-89083497D01*
X201550500Y-88928842D01*
X201550500Y-88771158D01*
X201550500Y-88771155D01*
X201550499Y-88771153D01*
X201519738Y-88616510D01*
X201519737Y-88616503D01*
X201512901Y-88599999D01*
X201459397Y-88470827D01*
X201459390Y-88470814D01*
X201371789Y-88339711D01*
X201371786Y-88339707D01*
X201260292Y-88228213D01*
X201260288Y-88228210D01*
X201129185Y-88140609D01*
X201129172Y-88140602D01*
X200983501Y-88080264D01*
X200983489Y-88080261D01*
X200828845Y-88049500D01*
X200828842Y-88049500D01*
X200671158Y-88049500D01*
X200671155Y-88049500D01*
X200516510Y-88080261D01*
X200516503Y-88080263D01*
X200384809Y-88134811D01*
X200315340Y-88142279D01*
X200252861Y-88111003D01*
X200217209Y-88050914D01*
X200214000Y-88007646D01*
X200224999Y-87899986D01*
X200225000Y-87899973D01*
X200225000Y-87500000D01*
X199154146Y-87500000D01*
X199192630Y-87433343D01*
X199225000Y-87312535D01*
X199225000Y-87187465D01*
X199192630Y-87066657D01*
X199154146Y-87000000D01*
X200224999Y-87000000D01*
X200224999Y-86600028D01*
X200224998Y-86600013D01*
X200214505Y-86497302D01*
X200159358Y-86330880D01*
X200159356Y-86330875D01*
X200067315Y-86181654D01*
X199943345Y-86057684D01*
X199788515Y-85962184D01*
X199741791Y-85910236D01*
X199730568Y-85841273D01*
X199758412Y-85777191D01*
X199765909Y-85768986D01*
X199905104Y-85629792D01*
X200030051Y-85457816D01*
X200126557Y-85268412D01*
X200192246Y-85066243D01*
X200225500Y-84856287D01*
X200225500Y-84643713D01*
X200192246Y-84433757D01*
X200126557Y-84231588D01*
X200030051Y-84042184D01*
X200030049Y-84042181D01*
X200030048Y-84042179D01*
X199905109Y-83870213D01*
X199754792Y-83719896D01*
X199684348Y-83668716D01*
X199590204Y-83600316D01*
X199547540Y-83544989D01*
X199541561Y-83475376D01*
X199574166Y-83413580D01*
X199590199Y-83399686D01*
X199754792Y-83280104D01*
X199905104Y-83129792D01*
X199905106Y-83129788D01*
X199905109Y-83129786D01*
X200030048Y-82957820D01*
X200030047Y-82957820D01*
X200030051Y-82957816D01*
X200126557Y-82768412D01*
X200192246Y-82566243D01*
X200225500Y-82356287D01*
X200225500Y-82143713D01*
X200192246Y-81933757D01*
X200126557Y-81731588D01*
X200030051Y-81542184D01*
X200030049Y-81542181D01*
X200030048Y-81542179D01*
X199905109Y-81370213D01*
X199754792Y-81219896D01*
X199754771Y-81219881D01*
X199590204Y-81100316D01*
X199547540Y-81044989D01*
X199541561Y-80975376D01*
X199574166Y-80913580D01*
X199590199Y-80899686D01*
X199754792Y-80780104D01*
X199905104Y-80629792D01*
X199905106Y-80629788D01*
X199905109Y-80629786D01*
X200030048Y-80457820D01*
X200030047Y-80457820D01*
X200030051Y-80457816D01*
X200126557Y-80268412D01*
X200192246Y-80066243D01*
X200225500Y-79856287D01*
X200225500Y-79643713D01*
X200192246Y-79433757D01*
X200126557Y-79231588D01*
X200030051Y-79042184D01*
X200030049Y-79042181D01*
X200030048Y-79042179D01*
X199905109Y-78870213D01*
X199754786Y-78719890D01*
X199582820Y-78594951D01*
X199393414Y-78498444D01*
X199393413Y-78498443D01*
X199393412Y-78498443D01*
X199191243Y-78432754D01*
X199191241Y-78432753D01*
X199191240Y-78432753D01*
X199029957Y-78407208D01*
X198981287Y-78399500D01*
X198518713Y-78399500D01*
X198470042Y-78407208D01*
X198308760Y-78432753D01*
X198106585Y-78498444D01*
X197917179Y-78594951D01*
X197745213Y-78719890D01*
X197594890Y-78870213D01*
X197469951Y-79042179D01*
X197373444Y-79231585D01*
X197307753Y-79433760D01*
X197294110Y-79519898D01*
X197264180Y-79583033D01*
X197204869Y-79619964D01*
X197171637Y-79624500D01*
X194280360Y-79624500D01*
X194250919Y-79615855D01*
X194220933Y-79609332D01*
X194215917Y-79605577D01*
X194213321Y-79604815D01*
X194192679Y-79588181D01*
X194092179Y-79487681D01*
X194058694Y-79426358D01*
X194063678Y-79356666D01*
X194092179Y-79312319D01*
X194194308Y-79210189D01*
X194194309Y-79210188D01*
X194194312Y-79210185D01*
X194282318Y-79064606D01*
X194332926Y-78902196D01*
X194339340Y-78831616D01*
X194339340Y-78318384D01*
X194332926Y-78247804D01*
X194282318Y-78085394D01*
X194194312Y-77939815D01*
X194194310Y-77939813D01*
X194194309Y-77939811D01*
X194074028Y-77819530D01*
X193959010Y-77749999D01*
X193928446Y-77731522D01*
X193766036Y-77680914D01*
X193766034Y-77680913D01*
X193766032Y-77680913D01*
X193716618Y-77676423D01*
X193695456Y-77674500D01*
X193032224Y-77674500D01*
X193012985Y-77676248D01*
X192961647Y-77680913D01*
X192799233Y-77731522D01*
X192653651Y-77819530D01*
X192533371Y-77939810D01*
X192533368Y-77939814D01*
X192446993Y-78082694D01*
X192395465Y-78129881D01*
X192326606Y-78141719D01*
X192262277Y-78114450D01*
X192234760Y-78082693D01*
X192193912Y-78015122D01*
X192073717Y-77894927D01*
X191928235Y-77806980D01*
X191928236Y-77806980D01*
X191765945Y-77756409D01*
X191765946Y-77756409D01*
X191695412Y-77750000D01*
X191613840Y-77750000D01*
X191613840Y-78526000D01*
X191594155Y-78593039D01*
X191541351Y-78638794D01*
X191489840Y-78650000D01*
X191363840Y-78650000D01*
X191363840Y-78776000D01*
X191344155Y-78843039D01*
X191291351Y-78888794D01*
X191239840Y-78900000D01*
X190388841Y-78900000D01*
X190388841Y-78906582D01*
X190395248Y-78977102D01*
X190395249Y-78977107D01*
X190445821Y-79139396D01*
X190533767Y-79284877D01*
X190635855Y-79386965D01*
X190639114Y-79392934D01*
X190644703Y-79396812D01*
X190655646Y-79423210D01*
X190669340Y-79448288D01*
X190668854Y-79455071D01*
X190671460Y-79461356D01*
X190666394Y-79489479D01*
X190664356Y-79517980D01*
X190659985Y-79525056D01*
X190659074Y-79530119D01*
X190643631Y-79551539D01*
X190638953Y-79559116D01*
X190637426Y-79560756D01*
X190533368Y-79664815D01*
X190519956Y-79687000D01*
X190511237Y-79696371D01*
X190491754Y-79707937D01*
X190475042Y-79723241D01*
X190462285Y-79725433D01*
X190451158Y-79732040D01*
X190428512Y-79731237D01*
X190406182Y-79735076D01*
X190394268Y-79730025D01*
X190381332Y-79729567D01*
X190362712Y-79716647D01*
X190341854Y-79707804D01*
X190334561Y-79697112D01*
X190323929Y-79689735D01*
X190315251Y-79668803D01*
X190302483Y-79650084D01*
X190302103Y-79648889D01*
X190282318Y-79585394D01*
X190194312Y-79439815D01*
X190194310Y-79439813D01*
X190194309Y-79439811D01*
X190074028Y-79319530D01*
X190016705Y-79284877D01*
X189928446Y-79231522D01*
X189766036Y-79180914D01*
X189766034Y-79180913D01*
X189766032Y-79180913D01*
X189716618Y-79176423D01*
X189695456Y-79174500D01*
X189182224Y-79174500D01*
X189162985Y-79176248D01*
X189111647Y-79180913D01*
X188949233Y-79231522D01*
X188803651Y-79319530D01*
X188803650Y-79319531D01*
X188701521Y-79421661D01*
X188640198Y-79455146D01*
X188570506Y-79450162D01*
X188526159Y-79421661D01*
X188424028Y-79319530D01*
X188366705Y-79284877D01*
X188278446Y-79231522D01*
X188116036Y-79180914D01*
X188116034Y-79180913D01*
X188116032Y-79180913D01*
X188066618Y-79176423D01*
X188045456Y-79174500D01*
X187532224Y-79174500D01*
X187512985Y-79176248D01*
X187461647Y-79180913D01*
X187299233Y-79231522D01*
X187153651Y-79319530D01*
X187033370Y-79439811D01*
X186945362Y-79585393D01*
X186894753Y-79747807D01*
X186888340Y-79818386D01*
X186888340Y-80481613D01*
X186894754Y-80552196D01*
X186894754Y-80552198D01*
X186921193Y-80637045D01*
X186922343Y-80706905D01*
X186890488Y-80761615D01*
X186438922Y-81213181D01*
X186377599Y-81246666D01*
X186351241Y-81249500D01*
X185750689Y-81249500D01*
X185750664Y-81249501D01*
X185715212Y-81252291D01*
X185563454Y-81296380D01*
X185563449Y-81296382D01*
X185427423Y-81376827D01*
X185427414Y-81376834D01*
X185315674Y-81488574D01*
X185315667Y-81488583D01*
X185235222Y-81624609D01*
X185235220Y-81624614D01*
X185191132Y-81776366D01*
X185191130Y-81776379D01*
X185188340Y-81811829D01*
X185188340Y-82188150D01*
X185188341Y-82188175D01*
X185191130Y-82223624D01*
X185208496Y-82283401D01*
X185208498Y-82283406D01*
X185235222Y-82375390D01*
X185289536Y-82467230D01*
X185289537Y-82467232D01*
X185316237Y-82512379D01*
X185333420Y-82580103D01*
X185311260Y-82646365D01*
X185256794Y-82690129D01*
X185209505Y-82699500D01*
X182622139Y-82699500D01*
X182555100Y-82679815D01*
X182509345Y-82627011D01*
X182498781Y-82588101D01*
X182489505Y-82497303D01*
X182434358Y-82330880D01*
X182434356Y-82330875D01*
X182342315Y-82181654D01*
X182218345Y-82057684D01*
X182069124Y-81965643D01*
X182069119Y-81965641D01*
X181902697Y-81910494D01*
X181902690Y-81910493D01*
X181799986Y-81900000D01*
X181250000Y-81900000D01*
X181250000Y-82533703D01*
X181230315Y-82600742D01*
X181177511Y-82646497D01*
X181108353Y-82656441D01*
X181093909Y-82653478D01*
X181079061Y-82649499D01*
X181079057Y-82649499D01*
X180920943Y-82649499D01*
X180920938Y-82649499D01*
X180906091Y-82653478D01*
X180836242Y-82651814D01*
X180778380Y-82612651D01*
X180750877Y-82548422D01*
X180750000Y-82533703D01*
X180750000Y-81900000D01*
X180200028Y-81900000D01*
X180200012Y-81900001D01*
X180097302Y-81910494D01*
X179943046Y-81961610D01*
X179873218Y-81964012D01*
X179813176Y-81928280D01*
X179781983Y-81865760D01*
X179782425Y-81819712D01*
X179800500Y-81728844D01*
X179800500Y-81571155D01*
X179800499Y-81571153D01*
X179794422Y-81540602D01*
X179769737Y-81416503D01*
X179750561Y-81370208D01*
X179709397Y-81270827D01*
X179709390Y-81270814D01*
X179621789Y-81139711D01*
X179621786Y-81139707D01*
X179510292Y-81028213D01*
X179510288Y-81028210D01*
X179379185Y-80940609D01*
X179379172Y-80940602D01*
X179233501Y-80880264D01*
X179233489Y-80880261D01*
X179078845Y-80849500D01*
X179078842Y-80849500D01*
X178921158Y-80849500D01*
X178921155Y-80849500D01*
X178766510Y-80880261D01*
X178766498Y-80880264D01*
X178620827Y-80940602D01*
X178620814Y-80940609D01*
X178489711Y-81028210D01*
X178489707Y-81028213D01*
X178378213Y-81139707D01*
X178378210Y-81139711D01*
X178290609Y-81270814D01*
X178290602Y-81270827D01*
X178230264Y-81416498D01*
X178230261Y-81416510D01*
X178199500Y-81571153D01*
X174650500Y-81571153D01*
X174650500Y-78393427D01*
X190388840Y-78393427D01*
X190388840Y-78400000D01*
X191113840Y-78400000D01*
X191113840Y-77750000D01*
X191113839Y-77749999D01*
X191032257Y-77750000D01*
X190961737Y-77756408D01*
X190961732Y-77756409D01*
X190799443Y-77806981D01*
X190653962Y-77894927D01*
X190533767Y-78015122D01*
X190445820Y-78160604D01*
X190395249Y-78322893D01*
X190388840Y-78393427D01*
X174650500Y-78393427D01*
X174650500Y-76024500D01*
X174670185Y-75957461D01*
X174722989Y-75911706D01*
X174774500Y-75900500D01*
X204725500Y-75900500D01*
X204792539Y-75920185D01*
G37*
G04 #@! TD.AperFunction*
M02*
