M48
; DRILL file {KiCad 9.0.4} date 2025-12-20T00:07:55-0500
; FORMAT={-:-/ absolute / metric / decimal}
; #@! TF.CreationDate,2025-12-20T00:07:55-05:00
; #@! TF.GenerationSoftware,Kicad,Pcbnew,9.0.4
; #@! TF.FileFunction,Plated,1,2,PTH
FMAT,2
METRIC
; #@! TA.AperFunction,Plated,PTH,ViaDrill
T1C0.300
; #@! TA.AperFunction,Plated,PTH,ComponentDrill
T2C0.950
; #@! TA.AperFunction,Plated,PTH,ComponentDrill
T3C1.000
%
G90
G05
T1
X179.5Y-78.0
X179.5Y-88.5
X184.0Y-78.0
X184.0Y-88.5
X185.0Y-84.5
X185.15Y-82.65
X188.0Y-78.0
X188.0Y-88.5
X191.5Y-78.0
X191.5Y-88.5
X195.25Y-84.25
X195.5Y-82.0
X195.5Y-86.5
X196.5Y-78.0
X196.5Y-88.5
X197.5Y-82.5
X202.5Y-78.0
X202.5Y-88.5
T2
X198.75Y-79.75
X198.75Y-82.25
X198.75Y-84.75
X198.75Y-87.25
T3
X181.0Y-83.25
X181.0Y-85.75
M30
