G04 #@! TF.GenerationSoftware,KiCad,Pcbnew,9.0.4*
G04 #@! TF.CreationDate,2025-11-13T19:39:22-05:00*
G04 #@! TF.ProjectId,thermistor circuit,74686572-6d69-4737-946f-722063697263,rev?*
G04 #@! TF.SameCoordinates,Original*
G04 #@! TF.FileFunction,Legend,Top*
G04 #@! TF.FilePolarity,Positive*
%FSLAX46Y46*%
G04 Gerber Fmt 4.6, Leading zero omitted, Abs format (unit mm)*
G04 Created by KiCad (PCBNEW 9.0.4) date 2025-11-13 19:39:22*
%MOMM*%
%LPD*%
G01*
G04 APERTURE LIST*
G04 Aperture macros list*
%AMRoundRect*
0 Rectangle with rounded corners*
0 $1 Rounding radius*
0 $2 $3 $4 $5 $6 $7 $8 $9 X,Y pos of 4 corners*
0 Add a 4 corners polygon primitive as box body*
4,1,4,$2,$3,$4,$5,$6,$7,$8,$9,$2,$3,0*
0 Add four circle primitives for the rounded corners*
1,1,$1+$1,$2,$3*
1,1,$1+$1,$4,$5*
1,1,$1+$1,$6,$7*
1,1,$1+$1,$8,$9*
0 Add four rect primitives between the rounded corners*
20,1,$1+$1,$2,$3,$4,$5,0*
20,1,$1+$1,$4,$5,$6,$7,0*
20,1,$1+$1,$6,$7,$8,$9,0*
20,1,$1+$1,$8,$9,$2,$3,0*%
G04 Aperture macros list end*
%ADD10C,0.158750*%
%ADD11C,0.150000*%
%ADD12C,0.120000*%
%ADD13C,0.000000*%
%ADD14C,1.200000*%
%ADD15RoundRect,0.250000X0.725000X-0.600000X0.725000X0.600000X-0.725000X0.600000X-0.725000X-0.600000X0*%
%ADD16O,1.950000X1.700000*%
%ADD17RoundRect,0.250000X-0.750000X0.600000X-0.750000X-0.600000X0.750000X-0.600000X0.750000X0.600000X0*%
%ADD18O,2.000000X1.700000*%
%ADD19RoundRect,0.200000X-0.200000X-0.275000X0.200000X-0.275000X0.200000X0.275000X-0.200000X0.275000X0*%
%ADD20RoundRect,0.200000X0.275000X-0.200000X0.275000X0.200000X-0.275000X0.200000X-0.275000X-0.200000X0*%
%ADD21RoundRect,0.125000X-0.687500X-0.125000X0.687500X-0.125000X0.687500X0.125000X-0.687500X0.125000X0*%
%ADD22RoundRect,0.200000X0.200000X0.275000X-0.200000X0.275000X-0.200000X-0.275000X0.200000X-0.275000X0*%
%ADD23RoundRect,0.140000X-0.140000X-0.170000X0.140000X-0.170000X0.140000X0.170000X-0.140000X0.170000X0*%
G04 APERTURE END LIST*
D10*
X175271429Y-89180223D02*
X175331905Y-89119747D01*
X175331905Y-89119747D02*
X175452858Y-89059271D01*
X175452858Y-89059271D02*
X175755239Y-89059271D01*
X175755239Y-89059271D02*
X175876191Y-89119747D01*
X175876191Y-89119747D02*
X175936667Y-89180223D01*
X175936667Y-89180223D02*
X175997144Y-89301175D01*
X175997144Y-89301175D02*
X175997144Y-89422128D01*
X175997144Y-89422128D02*
X175936667Y-89603556D01*
X175936667Y-89603556D02*
X175210953Y-90329271D01*
X175210953Y-90329271D02*
X175997144Y-90329271D01*
X176480953Y-89180223D02*
X176541429Y-89119747D01*
X176541429Y-89119747D02*
X176662382Y-89059271D01*
X176662382Y-89059271D02*
X176964763Y-89059271D01*
X176964763Y-89059271D02*
X177085715Y-89119747D01*
X177085715Y-89119747D02*
X177146191Y-89180223D01*
X177146191Y-89180223D02*
X177206668Y-89301175D01*
X177206668Y-89301175D02*
X177206668Y-89422128D01*
X177206668Y-89422128D02*
X177146191Y-89603556D01*
X177146191Y-89603556D02*
X176420477Y-90329271D01*
X176420477Y-90329271D02*
X177206668Y-90329271D01*
X177630001Y-89059271D02*
X178476668Y-90329271D01*
X178476668Y-89059271D02*
X177630001Y-90329271D01*
X178779049Y-89059271D02*
X179504763Y-89059271D01*
X179141906Y-90329271D02*
X179141906Y-89059271D01*
X180714287Y-89059271D02*
X181440001Y-89059271D01*
X181077144Y-90329271D02*
X181077144Y-89059271D01*
X181863334Y-90329271D02*
X181863334Y-89059271D01*
X182407620Y-90329271D02*
X182407620Y-89664033D01*
X182407620Y-89664033D02*
X182347144Y-89543080D01*
X182347144Y-89543080D02*
X182226192Y-89482604D01*
X182226192Y-89482604D02*
X182044763Y-89482604D01*
X182044763Y-89482604D02*
X181923811Y-89543080D01*
X181923811Y-89543080D02*
X181863334Y-89603556D01*
X183496192Y-90268795D02*
X183375240Y-90329271D01*
X183375240Y-90329271D02*
X183133335Y-90329271D01*
X183133335Y-90329271D02*
X183012382Y-90268795D01*
X183012382Y-90268795D02*
X182951906Y-90147842D01*
X182951906Y-90147842D02*
X182951906Y-89664033D01*
X182951906Y-89664033D02*
X183012382Y-89543080D01*
X183012382Y-89543080D02*
X183133335Y-89482604D01*
X183133335Y-89482604D02*
X183375240Y-89482604D01*
X183375240Y-89482604D02*
X183496192Y-89543080D01*
X183496192Y-89543080D02*
X183556668Y-89664033D01*
X183556668Y-89664033D02*
X183556668Y-89784985D01*
X183556668Y-89784985D02*
X182951906Y-89905937D01*
X184100953Y-90329271D02*
X184100953Y-89482604D01*
X184100953Y-89724509D02*
X184161430Y-89603556D01*
X184161430Y-89603556D02*
X184221906Y-89543080D01*
X184221906Y-89543080D02*
X184342858Y-89482604D01*
X184342858Y-89482604D02*
X184463811Y-89482604D01*
X184887143Y-90329271D02*
X184887143Y-89482604D01*
X184887143Y-89603556D02*
X184947620Y-89543080D01*
X184947620Y-89543080D02*
X185068572Y-89482604D01*
X185068572Y-89482604D02*
X185250001Y-89482604D01*
X185250001Y-89482604D02*
X185370953Y-89543080D01*
X185370953Y-89543080D02*
X185431429Y-89664033D01*
X185431429Y-89664033D02*
X185431429Y-90329271D01*
X185431429Y-89664033D02*
X185491905Y-89543080D01*
X185491905Y-89543080D02*
X185612858Y-89482604D01*
X185612858Y-89482604D02*
X185794286Y-89482604D01*
X185794286Y-89482604D02*
X185915239Y-89543080D01*
X185915239Y-89543080D02*
X185975715Y-89664033D01*
X185975715Y-89664033D02*
X185975715Y-90329271D01*
X186580476Y-90329271D02*
X186580476Y-89482604D01*
X186580476Y-89059271D02*
X186520000Y-89119747D01*
X186520000Y-89119747D02*
X186580476Y-89180223D01*
X186580476Y-89180223D02*
X186640953Y-89119747D01*
X186640953Y-89119747D02*
X186580476Y-89059271D01*
X186580476Y-89059271D02*
X186580476Y-89180223D01*
X187124762Y-90268795D02*
X187245715Y-90329271D01*
X187245715Y-90329271D02*
X187487619Y-90329271D01*
X187487619Y-90329271D02*
X187608572Y-90268795D01*
X187608572Y-90268795D02*
X187669048Y-90147842D01*
X187669048Y-90147842D02*
X187669048Y-90087366D01*
X187669048Y-90087366D02*
X187608572Y-89966414D01*
X187608572Y-89966414D02*
X187487619Y-89905937D01*
X187487619Y-89905937D02*
X187306191Y-89905937D01*
X187306191Y-89905937D02*
X187185238Y-89845461D01*
X187185238Y-89845461D02*
X187124762Y-89724509D01*
X187124762Y-89724509D02*
X187124762Y-89664033D01*
X187124762Y-89664033D02*
X187185238Y-89543080D01*
X187185238Y-89543080D02*
X187306191Y-89482604D01*
X187306191Y-89482604D02*
X187487619Y-89482604D01*
X187487619Y-89482604D02*
X187608572Y-89543080D01*
X188031905Y-89482604D02*
X188515714Y-89482604D01*
X188213333Y-89059271D02*
X188213333Y-90147842D01*
X188213333Y-90147842D02*
X188273810Y-90268795D01*
X188273810Y-90268795D02*
X188394762Y-90329271D01*
X188394762Y-90329271D02*
X188515714Y-90329271D01*
X189120476Y-90329271D02*
X188999524Y-90268795D01*
X188999524Y-90268795D02*
X188939047Y-90208318D01*
X188939047Y-90208318D02*
X188878571Y-90087366D01*
X188878571Y-90087366D02*
X188878571Y-89724509D01*
X188878571Y-89724509D02*
X188939047Y-89603556D01*
X188939047Y-89603556D02*
X188999524Y-89543080D01*
X188999524Y-89543080D02*
X189120476Y-89482604D01*
X189120476Y-89482604D02*
X189301905Y-89482604D01*
X189301905Y-89482604D02*
X189422857Y-89543080D01*
X189422857Y-89543080D02*
X189483333Y-89603556D01*
X189483333Y-89603556D02*
X189543809Y-89724509D01*
X189543809Y-89724509D02*
X189543809Y-90087366D01*
X189543809Y-90087366D02*
X189483333Y-90208318D01*
X189483333Y-90208318D02*
X189422857Y-90268795D01*
X189422857Y-90268795D02*
X189301905Y-90329271D01*
X189301905Y-90329271D02*
X189120476Y-90329271D01*
X190088095Y-90329271D02*
X190088095Y-89482604D01*
X190088095Y-89724509D02*
X190148572Y-89603556D01*
X190148572Y-89603556D02*
X190209048Y-89543080D01*
X190209048Y-89543080D02*
X190330000Y-89482604D01*
X190330000Y-89482604D02*
X190450953Y-89482604D01*
X191781428Y-89966414D02*
X192386190Y-89966414D01*
X191660476Y-90329271D02*
X192083809Y-89059271D01*
X192083809Y-89059271D02*
X192507143Y-90329271D01*
X192930475Y-90329271D02*
X192930475Y-89482604D01*
X192930475Y-89603556D02*
X192990952Y-89543080D01*
X192990952Y-89543080D02*
X193111904Y-89482604D01*
X193111904Y-89482604D02*
X193293333Y-89482604D01*
X193293333Y-89482604D02*
X193414285Y-89543080D01*
X193414285Y-89543080D02*
X193474761Y-89664033D01*
X193474761Y-89664033D02*
X193474761Y-90329271D01*
X193474761Y-89664033D02*
X193535237Y-89543080D01*
X193535237Y-89543080D02*
X193656190Y-89482604D01*
X193656190Y-89482604D02*
X193837618Y-89482604D01*
X193837618Y-89482604D02*
X193958571Y-89543080D01*
X193958571Y-89543080D02*
X194019047Y-89664033D01*
X194019047Y-89664033D02*
X194019047Y-90329271D01*
X194623808Y-89482604D02*
X194623808Y-90752604D01*
X194623808Y-89543080D02*
X194744761Y-89482604D01*
X194744761Y-89482604D02*
X194986666Y-89482604D01*
X194986666Y-89482604D02*
X195107618Y-89543080D01*
X195107618Y-89543080D02*
X195168094Y-89603556D01*
X195168094Y-89603556D02*
X195228570Y-89724509D01*
X195228570Y-89724509D02*
X195228570Y-90087366D01*
X195228570Y-90087366D02*
X195168094Y-90208318D01*
X195168094Y-90208318D02*
X195107618Y-90268795D01*
X195107618Y-90268795D02*
X194986666Y-90329271D01*
X194986666Y-90329271D02*
X194744761Y-90329271D01*
X194744761Y-90329271D02*
X194623808Y-90268795D01*
D11*
X203416666Y-76954819D02*
X203416666Y-77669104D01*
X203416666Y-77669104D02*
X203369047Y-77811961D01*
X203369047Y-77811961D02*
X203273809Y-77907200D01*
X203273809Y-77907200D02*
X203130952Y-77954819D01*
X203130952Y-77954819D02*
X203035714Y-77954819D01*
X204416666Y-77954819D02*
X203845238Y-77954819D01*
X204130952Y-77954819D02*
X204130952Y-76954819D01*
X204130952Y-76954819D02*
X204035714Y-77097676D01*
X204035714Y-77097676D02*
X203940476Y-77192914D01*
X203940476Y-77192914D02*
X203845238Y-77240533D01*
X182666666Y-78704819D02*
X182666666Y-79419104D01*
X182666666Y-79419104D02*
X182619047Y-79561961D01*
X182619047Y-79561961D02*
X182523809Y-79657200D01*
X182523809Y-79657200D02*
X182380952Y-79704819D01*
X182380952Y-79704819D02*
X182285714Y-79704819D01*
X183095238Y-78800057D02*
X183142857Y-78752438D01*
X183142857Y-78752438D02*
X183238095Y-78704819D01*
X183238095Y-78704819D02*
X183476190Y-78704819D01*
X183476190Y-78704819D02*
X183571428Y-78752438D01*
X183571428Y-78752438D02*
X183619047Y-78800057D01*
X183619047Y-78800057D02*
X183666666Y-78895295D01*
X183666666Y-78895295D02*
X183666666Y-78990533D01*
X183666666Y-78990533D02*
X183619047Y-79133390D01*
X183619047Y-79133390D02*
X183047619Y-79704819D01*
X183047619Y-79704819D02*
X183666666Y-79704819D01*
X193447173Y-88604819D02*
X193113840Y-88128628D01*
X192875745Y-88604819D02*
X192875745Y-87604819D01*
X192875745Y-87604819D02*
X193256697Y-87604819D01*
X193256697Y-87604819D02*
X193351935Y-87652438D01*
X193351935Y-87652438D02*
X193399554Y-87700057D01*
X193399554Y-87700057D02*
X193447173Y-87795295D01*
X193447173Y-87795295D02*
X193447173Y-87938152D01*
X193447173Y-87938152D02*
X193399554Y-88033390D01*
X193399554Y-88033390D02*
X193351935Y-88081009D01*
X193351935Y-88081009D02*
X193256697Y-88128628D01*
X193256697Y-88128628D02*
X192875745Y-88128628D01*
X193780507Y-87604819D02*
X194399554Y-87604819D01*
X194399554Y-87604819D02*
X194066221Y-87985771D01*
X194066221Y-87985771D02*
X194209078Y-87985771D01*
X194209078Y-87985771D02*
X194304316Y-88033390D01*
X194304316Y-88033390D02*
X194351935Y-88081009D01*
X194351935Y-88081009D02*
X194399554Y-88176247D01*
X194399554Y-88176247D02*
X194399554Y-88414342D01*
X194399554Y-88414342D02*
X194351935Y-88509580D01*
X194351935Y-88509580D02*
X194304316Y-88557200D01*
X194304316Y-88557200D02*
X194209078Y-88604819D01*
X194209078Y-88604819D02*
X193923364Y-88604819D01*
X193923364Y-88604819D02*
X193828126Y-88557200D01*
X193828126Y-88557200D02*
X193780507Y-88509580D01*
X190833333Y-77604819D02*
X190500000Y-77128628D01*
X190261905Y-77604819D02*
X190261905Y-76604819D01*
X190261905Y-76604819D02*
X190642857Y-76604819D01*
X190642857Y-76604819D02*
X190738095Y-76652438D01*
X190738095Y-76652438D02*
X190785714Y-76700057D01*
X190785714Y-76700057D02*
X190833333Y-76795295D01*
X190833333Y-76795295D02*
X190833333Y-76938152D01*
X190833333Y-76938152D02*
X190785714Y-77033390D01*
X190785714Y-77033390D02*
X190738095Y-77081009D01*
X190738095Y-77081009D02*
X190642857Y-77128628D01*
X190642857Y-77128628D02*
X190261905Y-77128628D01*
X191690476Y-76604819D02*
X191500000Y-76604819D01*
X191500000Y-76604819D02*
X191404762Y-76652438D01*
X191404762Y-76652438D02*
X191357143Y-76700057D01*
X191357143Y-76700057D02*
X191261905Y-76842914D01*
X191261905Y-76842914D02*
X191214286Y-77033390D01*
X191214286Y-77033390D02*
X191214286Y-77414342D01*
X191214286Y-77414342D02*
X191261905Y-77509580D01*
X191261905Y-77509580D02*
X191309524Y-77557200D01*
X191309524Y-77557200D02*
X191404762Y-77604819D01*
X191404762Y-77604819D02*
X191595238Y-77604819D01*
X191595238Y-77604819D02*
X191690476Y-77557200D01*
X191690476Y-77557200D02*
X191738095Y-77509580D01*
X191738095Y-77509580D02*
X191785714Y-77414342D01*
X191785714Y-77414342D02*
X191785714Y-77176247D01*
X191785714Y-77176247D02*
X191738095Y-77081009D01*
X191738095Y-77081009D02*
X191690476Y-77033390D01*
X191690476Y-77033390D02*
X191595238Y-76985771D01*
X191595238Y-76985771D02*
X191404762Y-76985771D01*
X191404762Y-76985771D02*
X191309524Y-77033390D01*
X191309524Y-77033390D02*
X191261905Y-77081009D01*
X191261905Y-77081009D02*
X191214286Y-77176247D01*
X185238095Y-79754819D02*
X185238095Y-80564342D01*
X185238095Y-80564342D02*
X185285714Y-80659580D01*
X185285714Y-80659580D02*
X185333333Y-80707200D01*
X185333333Y-80707200D02*
X185428571Y-80754819D01*
X185428571Y-80754819D02*
X185619047Y-80754819D01*
X185619047Y-80754819D02*
X185714285Y-80707200D01*
X185714285Y-80707200D02*
X185761904Y-80659580D01*
X185761904Y-80659580D02*
X185809523Y-80564342D01*
X185809523Y-80564342D02*
X185809523Y-79754819D01*
X186809523Y-80754819D02*
X186238095Y-80754819D01*
X186523809Y-80754819D02*
X186523809Y-79754819D01*
X186523809Y-79754819D02*
X186428571Y-79897676D01*
X186428571Y-79897676D02*
X186333333Y-79992914D01*
X186333333Y-79992914D02*
X186238095Y-80040533D01*
X193447173Y-83604819D02*
X193113840Y-83128628D01*
X192875745Y-83604819D02*
X192875745Y-82604819D01*
X192875745Y-82604819D02*
X193256697Y-82604819D01*
X193256697Y-82604819D02*
X193351935Y-82652438D01*
X193351935Y-82652438D02*
X193399554Y-82700057D01*
X193399554Y-82700057D02*
X193447173Y-82795295D01*
X193447173Y-82795295D02*
X193447173Y-82938152D01*
X193447173Y-82938152D02*
X193399554Y-83033390D01*
X193399554Y-83033390D02*
X193351935Y-83081009D01*
X193351935Y-83081009D02*
X193256697Y-83128628D01*
X193256697Y-83128628D02*
X192875745Y-83128628D01*
X193828126Y-82700057D02*
X193875745Y-82652438D01*
X193875745Y-82652438D02*
X193970983Y-82604819D01*
X193970983Y-82604819D02*
X194209078Y-82604819D01*
X194209078Y-82604819D02*
X194304316Y-82652438D01*
X194304316Y-82652438D02*
X194351935Y-82700057D01*
X194351935Y-82700057D02*
X194399554Y-82795295D01*
X194399554Y-82795295D02*
X194399554Y-82890533D01*
X194399554Y-82890533D02*
X194351935Y-83033390D01*
X194351935Y-83033390D02*
X193780507Y-83604819D01*
X193780507Y-83604819D02*
X194399554Y-83604819D01*
X188372173Y-87854819D02*
X188038840Y-87378628D01*
X187800745Y-87854819D02*
X187800745Y-86854819D01*
X187800745Y-86854819D02*
X188181697Y-86854819D01*
X188181697Y-86854819D02*
X188276935Y-86902438D01*
X188276935Y-86902438D02*
X188324554Y-86950057D01*
X188324554Y-86950057D02*
X188372173Y-87045295D01*
X188372173Y-87045295D02*
X188372173Y-87188152D01*
X188372173Y-87188152D02*
X188324554Y-87283390D01*
X188324554Y-87283390D02*
X188276935Y-87331009D01*
X188276935Y-87331009D02*
X188181697Y-87378628D01*
X188181697Y-87378628D02*
X187800745Y-87378628D01*
X189229316Y-87188152D02*
X189229316Y-87854819D01*
X188991221Y-86807200D02*
X188753126Y-87521485D01*
X188753126Y-87521485D02*
X189372173Y-87521485D01*
X193583333Y-77604819D02*
X193250000Y-77128628D01*
X193011905Y-77604819D02*
X193011905Y-76604819D01*
X193011905Y-76604819D02*
X193392857Y-76604819D01*
X193392857Y-76604819D02*
X193488095Y-76652438D01*
X193488095Y-76652438D02*
X193535714Y-76700057D01*
X193535714Y-76700057D02*
X193583333Y-76795295D01*
X193583333Y-76795295D02*
X193583333Y-76938152D01*
X193583333Y-76938152D02*
X193535714Y-77033390D01*
X193535714Y-77033390D02*
X193488095Y-77081009D01*
X193488095Y-77081009D02*
X193392857Y-77128628D01*
X193392857Y-77128628D02*
X193011905Y-77128628D01*
X194488095Y-76604819D02*
X194011905Y-76604819D01*
X194011905Y-76604819D02*
X193964286Y-77081009D01*
X193964286Y-77081009D02*
X194011905Y-77033390D01*
X194011905Y-77033390D02*
X194107143Y-76985771D01*
X194107143Y-76985771D02*
X194345238Y-76985771D01*
X194345238Y-76985771D02*
X194440476Y-77033390D01*
X194440476Y-77033390D02*
X194488095Y-77081009D01*
X194488095Y-77081009D02*
X194535714Y-77176247D01*
X194535714Y-77176247D02*
X194535714Y-77414342D01*
X194535714Y-77414342D02*
X194488095Y-77509580D01*
X194488095Y-77509580D02*
X194440476Y-77557200D01*
X194440476Y-77557200D02*
X194345238Y-77604819D01*
X194345238Y-77604819D02*
X194107143Y-77604819D01*
X194107143Y-77604819D02*
X194011905Y-77557200D01*
X194011905Y-77557200D02*
X193964286Y-77509580D01*
X188447173Y-79174819D02*
X188113840Y-78698628D01*
X187875745Y-79174819D02*
X187875745Y-78174819D01*
X187875745Y-78174819D02*
X188256697Y-78174819D01*
X188256697Y-78174819D02*
X188351935Y-78222438D01*
X188351935Y-78222438D02*
X188399554Y-78270057D01*
X188399554Y-78270057D02*
X188447173Y-78365295D01*
X188447173Y-78365295D02*
X188447173Y-78508152D01*
X188447173Y-78508152D02*
X188399554Y-78603390D01*
X188399554Y-78603390D02*
X188351935Y-78651009D01*
X188351935Y-78651009D02*
X188256697Y-78698628D01*
X188256697Y-78698628D02*
X187875745Y-78698628D01*
X189399554Y-79174819D02*
X188828126Y-79174819D01*
X189113840Y-79174819D02*
X189113840Y-78174819D01*
X189113840Y-78174819D02*
X189018602Y-78317676D01*
X189018602Y-78317676D02*
X188923364Y-78412914D01*
X188923364Y-78412914D02*
X188828126Y-78460533D01*
X194697173Y-81259580D02*
X194649554Y-81307200D01*
X194649554Y-81307200D02*
X194506697Y-81354819D01*
X194506697Y-81354819D02*
X194411459Y-81354819D01*
X194411459Y-81354819D02*
X194268602Y-81307200D01*
X194268602Y-81307200D02*
X194173364Y-81211961D01*
X194173364Y-81211961D02*
X194125745Y-81116723D01*
X194125745Y-81116723D02*
X194078126Y-80926247D01*
X194078126Y-80926247D02*
X194078126Y-80783390D01*
X194078126Y-80783390D02*
X194125745Y-80592914D01*
X194125745Y-80592914D02*
X194173364Y-80497676D01*
X194173364Y-80497676D02*
X194268602Y-80402438D01*
X194268602Y-80402438D02*
X194411459Y-80354819D01*
X194411459Y-80354819D02*
X194506697Y-80354819D01*
X194506697Y-80354819D02*
X194649554Y-80402438D01*
X194649554Y-80402438D02*
X194697173Y-80450057D01*
X195649554Y-81354819D02*
X195078126Y-81354819D01*
X195363840Y-81354819D02*
X195363840Y-80354819D01*
X195363840Y-80354819D02*
X195268602Y-80497676D01*
X195268602Y-80497676D02*
X195173364Y-80592914D01*
X195173364Y-80592914D02*
X195078126Y-80640533D01*
D12*
X196000000Y-90100000D02*
X197250000Y-90100000D01*
X196290000Y-89810000D02*
X202260000Y-89810000D01*
X202260000Y-89810000D02*
X202260000Y-77190000D01*
X196300000Y-89800000D02*
X197050000Y-89800000D01*
X197050000Y-89800000D02*
X197050000Y-88000000D01*
X198550000Y-89800000D02*
X198550000Y-89050000D01*
X198550000Y-89050000D02*
X199890000Y-89050000D01*
X196000000Y-88850000D02*
X196000000Y-90100000D01*
X196300000Y-88000000D02*
X196300000Y-89800000D01*
X197050000Y-88000000D02*
X196300000Y-88000000D01*
X196300000Y-86500000D02*
X197050000Y-86500000D01*
X197050000Y-86500000D02*
X197050000Y-80500000D01*
X201500000Y-83500000D02*
X201500000Y-87990000D01*
X196300000Y-80500000D02*
X196300000Y-86500000D01*
X197050000Y-80500000D02*
X196300000Y-80500000D01*
X196300000Y-79000000D02*
X197050000Y-79000000D01*
X197050000Y-79000000D02*
X197050000Y-77200000D01*
X198550000Y-77950000D02*
X201500000Y-77950000D01*
X201500000Y-77950000D02*
X201500000Y-83500000D01*
X196300000Y-77200000D02*
X196300000Y-79000000D01*
X197050000Y-77200000D02*
X196300000Y-77200000D01*
X198550000Y-77200000D02*
X198550000Y-77950000D01*
X196290000Y-77190000D02*
X196290000Y-89810000D01*
X202260000Y-77190000D02*
X196290000Y-77190000D01*
X183750000Y-80400000D02*
X182500000Y-80400000D01*
X183460000Y-80690000D02*
X177490000Y-80690000D01*
X177490000Y-80690000D02*
X177490000Y-88310000D01*
X183450000Y-80700000D02*
X182700000Y-80700000D01*
X182700000Y-80700000D02*
X182700000Y-82500000D01*
X181200000Y-80700000D02*
X181200000Y-81450000D01*
X181200000Y-81450000D02*
X179860000Y-81450000D01*
X183750000Y-81650000D02*
X183750000Y-80400000D01*
X183450000Y-82500000D02*
X183450000Y-80700000D01*
X182700000Y-82500000D02*
X183450000Y-82500000D01*
X183450000Y-84000000D02*
X182700000Y-84000000D01*
X182700000Y-84000000D02*
X182700000Y-85000000D01*
X178250000Y-84500000D02*
X178250000Y-82510000D01*
X183450000Y-85000000D02*
X183450000Y-84000000D01*
X182700000Y-85000000D02*
X183450000Y-85000000D01*
X183450000Y-86500000D02*
X182700000Y-86500000D01*
X182700000Y-86500000D02*
X182700000Y-88300000D01*
X181200000Y-87550000D02*
X178250000Y-87550000D01*
X178250000Y-87550000D02*
X178250000Y-84500000D01*
X183450000Y-88300000D02*
X183450000Y-86500000D01*
X182700000Y-88300000D02*
X183450000Y-88300000D01*
X181200000Y-88300000D02*
X181200000Y-87550000D01*
X183460000Y-88310000D02*
X183460000Y-80690000D01*
X177490000Y-88310000D02*
X183460000Y-88310000D01*
D13*
G36*
X176887444Y-77526710D02*
G01*
X176916161Y-77527401D01*
X176945180Y-77528202D01*
X176975241Y-77529140D01*
X177007089Y-77530239D01*
X177041466Y-77531523D01*
X177079115Y-77533018D01*
X177091221Y-77533514D01*
X177125715Y-77534935D01*
X177125715Y-77799303D01*
X177125702Y-77832385D01*
X177125666Y-77864269D01*
X177125607Y-77894703D01*
X177125527Y-77923432D01*
X177125428Y-77950204D01*
X177125311Y-77974764D01*
X177125177Y-77996860D01*
X177125029Y-78016237D01*
X177124868Y-78032644D01*
X177124694Y-78045825D01*
X177124511Y-78055527D01*
X177124319Y-78061498D01*
X177124123Y-78063485D01*
X177122154Y-78062310D01*
X177116913Y-78058959D01*
X177108658Y-78053602D01*
X177097651Y-78046410D01*
X177084152Y-78037555D01*
X177068420Y-78027206D01*
X177050716Y-78015536D01*
X177031300Y-78002716D01*
X177010432Y-77988916D01*
X176988373Y-77974307D01*
X176972351Y-77963685D01*
X176822171Y-77864071D01*
X176822171Y-77694663D01*
X176822171Y-77525254D01*
X176887444Y-77526710D01*
G37*
G36*
X176034314Y-78214529D02*
G01*
X176056185Y-78216603D01*
X176075530Y-78221124D01*
X176093195Y-78228470D01*
X176110027Y-78239021D01*
X176126870Y-78253155D01*
X176132372Y-78258469D01*
X176148725Y-78277221D01*
X176161064Y-78297124D01*
X176169526Y-78318509D01*
X176174248Y-78341704D01*
X176175425Y-78362221D01*
X176174674Y-78380142D01*
X176172160Y-78395966D01*
X176167490Y-78411353D01*
X176160271Y-78427967D01*
X176159566Y-78429411D01*
X176147651Y-78449022D01*
X176132334Y-78466829D01*
X176114274Y-78482260D01*
X176094131Y-78494743D01*
X176074778Y-78502980D01*
X176058681Y-78507077D01*
X176040478Y-78509506D01*
X176021661Y-78510209D01*
X176003719Y-78509128D01*
X175988726Y-78506362D01*
X175965551Y-78498025D01*
X175944425Y-78486263D01*
X175925651Y-78471465D01*
X175909529Y-78454021D01*
X175896363Y-78434319D01*
X175886452Y-78412749D01*
X175880099Y-78389700D01*
X175877604Y-78365563D01*
X175877578Y-78362829D01*
X175879604Y-78337647D01*
X175885552Y-78313813D01*
X175895228Y-78291640D01*
X175908436Y-78271441D01*
X175924982Y-78253529D01*
X175944672Y-78238218D01*
X175960815Y-78228914D01*
X175977414Y-78221685D01*
X175993870Y-78217027D01*
X176011458Y-78214690D01*
X176031453Y-78214423D01*
X176034314Y-78214529D01*
G37*
G36*
X176382971Y-78398060D02*
G01*
X176399726Y-78400108D01*
X176412494Y-78403371D01*
X176426405Y-78410318D01*
X176439185Y-78420564D01*
X176449956Y-78433181D01*
X176457841Y-78447241D01*
X176460231Y-78453849D01*
X176462870Y-78466716D01*
X176463215Y-78480434D01*
X176461173Y-78495513D01*
X176456649Y-78512464D01*
X176449551Y-78531797D01*
X176443200Y-78546576D01*
X176433763Y-78566065D01*
X176422946Y-78585887D01*
X176411175Y-78605426D01*
X176398873Y-78624065D01*
X176386466Y-78641186D01*
X176374380Y-78656172D01*
X176363039Y-78668404D01*
X176353632Y-78676693D01*
X176339758Y-78685028D01*
X176324067Y-78690716D01*
X176307814Y-78693449D01*
X176292254Y-78692919D01*
X176289475Y-78692423D01*
X176272845Y-78686863D01*
X176257406Y-78677242D01*
X176243165Y-78663565D01*
X176230127Y-78645839D01*
X176225988Y-78638922D01*
X176211738Y-78611095D01*
X176201192Y-78584306D01*
X176194322Y-78558701D01*
X176191101Y-78534425D01*
X176191503Y-78511626D01*
X176195499Y-78490447D01*
X176203064Y-78471035D01*
X176214170Y-78453535D01*
X176228789Y-78438094D01*
X176246895Y-78424856D01*
X176267801Y-78414244D01*
X176284238Y-78408495D01*
X176302978Y-78403877D01*
X176323122Y-78400456D01*
X176343769Y-78398301D01*
X176364019Y-78397480D01*
X176382971Y-78398060D01*
G37*
G36*
X176053975Y-78573466D02*
G01*
X176074771Y-78580885D01*
X176092554Y-78590794D01*
X176107773Y-78602329D01*
X176123204Y-78616833D01*
X176138207Y-78633473D01*
X176152137Y-78651418D01*
X176164353Y-78669835D01*
X176174211Y-78687890D01*
X176181068Y-78704750D01*
X176181448Y-78705961D01*
X176184983Y-78724055D01*
X176184527Y-78741524D01*
X176180327Y-78757957D01*
X176172632Y-78772941D01*
X176161691Y-78786065D01*
X176147752Y-78796916D01*
X176131064Y-78805084D01*
X176119537Y-78808597D01*
X176105980Y-78811225D01*
X176089215Y-78813459D01*
X176070268Y-78815245D01*
X176050163Y-78816524D01*
X176029925Y-78817241D01*
X176010579Y-78817341D01*
X175993148Y-78816766D01*
X175983712Y-78816042D01*
X175972514Y-78814679D01*
X175959975Y-78812745D01*
X175947333Y-78810472D01*
X175935825Y-78808089D01*
X175926687Y-78805827D01*
X175923427Y-78804824D01*
X175906728Y-78797087D01*
X175892598Y-78786480D01*
X175881341Y-78773498D01*
X175873258Y-78758635D01*
X175868651Y-78742387D01*
X175867822Y-78725246D01*
X175869045Y-78715831D01*
X175873126Y-78701897D01*
X175880075Y-78686155D01*
X175889378Y-78669357D01*
X175900521Y-78652253D01*
X175912989Y-78635593D01*
X175926267Y-78620128D01*
X175939841Y-78606609D01*
X175949471Y-78598529D01*
X175969765Y-78585265D01*
X175990566Y-78576116D01*
X176011669Y-78571092D01*
X176032873Y-78570205D01*
X176053975Y-78573466D01*
G37*
G36*
X176326773Y-78034332D02*
G01*
X176341094Y-78039399D01*
X176352785Y-78046835D01*
X176365382Y-78057848D01*
X176378560Y-78071961D01*
X176391995Y-78088697D01*
X176405362Y-78107579D01*
X176418336Y-78128132D01*
X176430594Y-78149878D01*
X176441810Y-78172341D01*
X176451660Y-78195044D01*
X176457310Y-78210083D01*
X176462905Y-78230902D01*
X176464617Y-78250306D01*
X176462459Y-78268195D01*
X176456445Y-78284466D01*
X176446588Y-78299018D01*
X176445414Y-78300349D01*
X176433875Y-78310571D01*
X176419777Y-78319052D01*
X176404724Y-78324883D01*
X176400184Y-78325995D01*
X176390973Y-78327235D01*
X176378717Y-78327915D01*
X176364576Y-78328049D01*
X176349713Y-78327651D01*
X176335288Y-78326734D01*
X176322463Y-78325313D01*
X176320763Y-78325059D01*
X176305954Y-78322110D01*
X176290114Y-78317856D01*
X176274623Y-78312745D01*
X176260859Y-78307224D01*
X176251900Y-78302745D01*
X176233259Y-78289912D01*
X176218097Y-78274777D01*
X176206446Y-78257504D01*
X176198336Y-78238261D01*
X176193798Y-78217214D01*
X176192862Y-78194529D01*
X176195560Y-78170372D01*
X176201921Y-78144910D01*
X176211977Y-78118308D01*
X176216165Y-78109195D01*
X176227201Y-78088015D01*
X176238212Y-78070721D01*
X176249495Y-78056975D01*
X176261346Y-78046438D01*
X176274062Y-78038775D01*
X176280353Y-78036096D01*
X176294878Y-78032595D01*
X176310858Y-78032035D01*
X176326773Y-78034332D01*
G37*
G36*
X175712191Y-78399102D02*
G01*
X175732175Y-78401397D01*
X175759698Y-78406857D01*
X175783808Y-78414589D01*
X175804734Y-78424695D01*
X175822709Y-78437277D01*
X175830894Y-78444759D01*
X175844860Y-78461545D01*
X175855020Y-78480144D01*
X175861368Y-78500489D01*
X175863904Y-78522512D01*
X175862624Y-78546149D01*
X175857526Y-78571333D01*
X175848607Y-78597997D01*
X175838107Y-78621599D01*
X175826565Y-78642918D01*
X175814846Y-78660225D01*
X175802741Y-78673740D01*
X175790045Y-78683686D01*
X175776551Y-78690283D01*
X175772984Y-78691449D01*
X175761060Y-78693749D01*
X175747760Y-78694377D01*
X175735061Y-78693322D01*
X175727929Y-78691686D01*
X175716338Y-78687059D01*
X175705274Y-78680470D01*
X175694196Y-78671466D01*
X175682561Y-78659596D01*
X175669828Y-78644408D01*
X175667134Y-78640974D01*
X175645179Y-78609920D01*
X175625258Y-78576098D01*
X175608074Y-78540766D01*
X175600405Y-78522082D01*
X175596676Y-78512035D01*
X175594293Y-78504284D01*
X175592951Y-78497223D01*
X175592348Y-78489247D01*
X175592177Y-78478751D01*
X175592177Y-78478676D01*
X175592238Y-78468237D01*
X175592672Y-78460777D01*
X175593690Y-78455047D01*
X175595503Y-78449796D01*
X175597931Y-78444561D01*
X175604379Y-78434325D01*
X175613230Y-78424078D01*
X175623281Y-78415003D01*
X175633329Y-78408279D01*
X175636436Y-78406779D01*
X175651312Y-78402090D01*
X175669354Y-78399222D01*
X175689875Y-78398213D01*
X175712191Y-78399102D01*
G37*
G36*
X176054678Y-77909328D02*
G01*
X176077343Y-77911023D01*
X176098429Y-77913715D01*
X176117222Y-77917406D01*
X176133010Y-77922094D01*
X176140424Y-77925229D01*
X176155029Y-77934630D01*
X176167408Y-77947210D01*
X176176771Y-77962163D01*
X176176881Y-77962394D01*
X176182542Y-77977693D01*
X176184717Y-77992828D01*
X176183367Y-78008420D01*
X176178454Y-78025094D01*
X176172096Y-78039304D01*
X176157890Y-78064423D01*
X176141741Y-78087459D01*
X176124105Y-78107893D01*
X176105439Y-78125204D01*
X176086196Y-78138874D01*
X176083478Y-78140469D01*
X176066888Y-78148065D01*
X176048547Y-78153232D01*
X176029823Y-78155716D01*
X176012083Y-78155260D01*
X176007798Y-78154628D01*
X175987493Y-78148971D01*
X175967385Y-78139367D01*
X175947785Y-78126099D01*
X175929004Y-78109454D01*
X175911354Y-78089715D01*
X175895147Y-78067168D01*
X175880693Y-78042099D01*
X175877203Y-78035084D01*
X175872977Y-78026101D01*
X175870301Y-78019401D01*
X175868823Y-78013481D01*
X175868194Y-78006838D01*
X175868062Y-77997967D01*
X175868065Y-77995915D01*
X175868257Y-77985606D01*
X175868958Y-77978073D01*
X175870426Y-77971862D01*
X175872916Y-77965521D01*
X175873771Y-77963655D01*
X175881839Y-77950549D01*
X175892893Y-77938465D01*
X175905679Y-77928671D01*
X175911648Y-77925356D01*
X175925419Y-77920080D01*
X175942598Y-77915799D01*
X175962473Y-77912513D01*
X175984331Y-77910223D01*
X176007459Y-77908928D01*
X176031146Y-77908630D01*
X176054678Y-77909328D01*
G37*
G36*
X175755905Y-78033131D02*
G01*
X175763032Y-78033675D01*
X175768865Y-78034969D01*
X175774878Y-78037310D01*
X175780337Y-78039902D01*
X175795410Y-78049437D01*
X175804710Y-78058092D01*
X175815488Y-78071709D01*
X175826207Y-78088531D01*
X175836341Y-78107552D01*
X175845366Y-78127769D01*
X175852758Y-78148176D01*
X175854185Y-78152837D01*
X175857329Y-78166694D01*
X175859369Y-78182428D01*
X175860248Y-78198678D01*
X175859908Y-78214085D01*
X175858294Y-78227289D01*
X175857468Y-78230944D01*
X175849974Y-78251697D01*
X175838983Y-78270087D01*
X175824543Y-78286077D01*
X175806703Y-78299630D01*
X175785512Y-78310713D01*
X175761018Y-78319288D01*
X175733271Y-78325319D01*
X175727929Y-78326133D01*
X175719026Y-78327037D01*
X175707706Y-78327650D01*
X175695020Y-78327973D01*
X175682020Y-78328006D01*
X175669755Y-78327751D01*
X175659277Y-78327208D01*
X175651636Y-78326381D01*
X175649912Y-78326044D01*
X175634292Y-78320356D01*
X175619717Y-78311246D01*
X175607140Y-78299485D01*
X175597514Y-78285842D01*
X175595656Y-78282177D01*
X175592393Y-78273988D01*
X175590436Y-78265550D01*
X175589414Y-78255105D01*
X175589259Y-78251919D01*
X175589050Y-78243316D01*
X175589405Y-78236291D01*
X175590558Y-78229455D01*
X175592742Y-78221419D01*
X175596135Y-78210953D01*
X175604150Y-78189586D01*
X175613871Y-78167845D01*
X175624966Y-78146220D01*
X175637101Y-78125201D01*
X175649942Y-78105277D01*
X175663157Y-78086938D01*
X175676410Y-78070673D01*
X175689370Y-78056974D01*
X175701702Y-78046328D01*
X175713071Y-78039227D01*
X175719786Y-78036251D01*
X175725725Y-78034419D01*
X175732346Y-78033456D01*
X175741107Y-78033089D01*
X175746009Y-78033045D01*
X175755905Y-78033131D01*
G37*
G36*
X177597777Y-76739550D02*
G01*
X177602492Y-76742801D01*
X177609662Y-76747949D01*
X177618825Y-76754659D01*
X177629519Y-76762596D01*
X177638875Y-76769611D01*
X177681115Y-76801417D01*
X177770928Y-77034542D01*
X177782482Y-77064553D01*
X177793590Y-77093451D01*
X177804159Y-77120992D01*
X177814097Y-77146931D01*
X177823311Y-77171025D01*
X177831706Y-77193028D01*
X177839191Y-77212696D01*
X177845673Y-77229785D01*
X177851057Y-77244051D01*
X177855252Y-77255249D01*
X177858164Y-77263135D01*
X177859701Y-77267465D01*
X177859922Y-77268256D01*
X177857593Y-77268212D01*
X177852129Y-77267572D01*
X177844576Y-77266466D01*
X177842120Y-77266072D01*
X177809532Y-77261051D01*
X177773081Y-77255981D01*
X177733145Y-77250891D01*
X177690106Y-77245812D01*
X177644343Y-77240771D01*
X177596237Y-77235799D01*
X177546168Y-77230923D01*
X177494518Y-77226175D01*
X177441664Y-77221582D01*
X177387990Y-77217174D01*
X177333873Y-77212980D01*
X177279696Y-77209029D01*
X177225837Y-77205351D01*
X177172678Y-77201974D01*
X177120599Y-77198928D01*
X177069980Y-77196243D01*
X177021202Y-77193947D01*
X176974644Y-77192069D01*
X176930687Y-77190638D01*
X176889711Y-77189685D01*
X176852098Y-77189238D01*
X176840790Y-77189206D01*
X176827949Y-77189125D01*
X176818304Y-77188813D01*
X176810809Y-77188152D01*
X176804416Y-77187024D01*
X176798077Y-77185310D01*
X176793716Y-77183903D01*
X176785516Y-77181355D01*
X176778351Y-77179479D01*
X176773593Y-77178627D01*
X176773152Y-77178609D01*
X176769904Y-77178203D01*
X176769521Y-77177488D01*
X176772161Y-77176292D01*
X176778341Y-77174171D01*
X176787497Y-77171289D01*
X176799067Y-77167807D01*
X176812485Y-77163886D01*
X176827190Y-77159689D01*
X176842617Y-77155377D01*
X176858202Y-77151113D01*
X176873383Y-77147058D01*
X176887596Y-77143373D01*
X176893281Y-77141941D01*
X176964480Y-77125622D01*
X177037286Y-77111722D01*
X177111219Y-77100266D01*
X177185801Y-77091276D01*
X177260553Y-77084777D01*
X177334996Y-77080791D01*
X177408650Y-77079343D01*
X177481037Y-77080457D01*
X177551678Y-77084155D01*
X177620094Y-77090462D01*
X177685806Y-77099401D01*
X177701643Y-77102030D01*
X177724612Y-77105988D01*
X177723461Y-77101539D01*
X177722596Y-77098923D01*
X177720415Y-77092607D01*
X177717021Y-77082883D01*
X177712516Y-77070043D01*
X177707005Y-77054377D01*
X177700589Y-77036179D01*
X177693371Y-77015738D01*
X177685454Y-76993348D01*
X177676941Y-76969299D01*
X177667935Y-76943883D01*
X177658816Y-76918173D01*
X177649471Y-76891812D01*
X177640555Y-76866606D01*
X177632167Y-76842839D01*
X177624406Y-76820794D01*
X177617372Y-76800755D01*
X177611163Y-76783006D01*
X177605880Y-76767830D01*
X177601620Y-76755510D01*
X177598484Y-76746331D01*
X177596570Y-76740577D01*
X177595978Y-76738529D01*
X177597777Y-76739550D01*
G37*
G36*
X175898630Y-76740146D02*
G01*
X175896787Y-76745809D01*
X175893725Y-76754906D01*
X175889538Y-76767158D01*
X175884325Y-76782284D01*
X175878183Y-76800006D01*
X175871208Y-76820044D01*
X175863497Y-76842118D01*
X175855147Y-76865949D01*
X175846255Y-76891257D01*
X175836918Y-76917763D01*
X175835857Y-76920769D01*
X175826457Y-76947429D01*
X175817468Y-76972946D01*
X175808991Y-76997038D01*
X175801125Y-77019423D01*
X175793967Y-77039818D01*
X175787618Y-77057941D01*
X175782175Y-77073510D01*
X175777738Y-77086242D01*
X175774406Y-77095857D01*
X175772278Y-77102070D01*
X175771451Y-77104600D01*
X175771444Y-77104639D01*
X175773391Y-77104827D01*
X175778666Y-77104339D01*
X175786426Y-77103275D01*
X175794263Y-77102004D01*
X175858148Y-77092560D01*
X175924907Y-77085675D01*
X175994050Y-77081326D01*
X176065086Y-77079488D01*
X176137524Y-77080140D01*
X176210875Y-77083257D01*
X176284648Y-77088815D01*
X176358352Y-77096792D01*
X176431497Y-77107163D01*
X176503593Y-77119906D01*
X176574150Y-77134996D01*
X176596908Y-77140461D01*
X176611773Y-77144231D01*
X176628387Y-77148612D01*
X176645897Y-77153365D01*
X176663447Y-77158248D01*
X176680184Y-77163022D01*
X176695253Y-77167447D01*
X176707801Y-77171282D01*
X176715968Y-77173941D01*
X176727573Y-77177908D01*
X176717367Y-77179303D01*
X176708758Y-77181141D01*
X176699809Y-77184014D01*
X176697532Y-77184947D01*
X176693129Y-77186643D01*
X176688325Y-77187827D01*
X176682270Y-77188588D01*
X176674113Y-77189012D01*
X176663003Y-77189186D01*
X176655802Y-77189206D01*
X176617711Y-77189499D01*
X176575832Y-77190336D01*
X176530581Y-77191689D01*
X176482374Y-77193532D01*
X176431631Y-77195838D01*
X176378767Y-77198578D01*
X176324201Y-77201726D01*
X176268349Y-77205253D01*
X176211629Y-77209134D01*
X176154458Y-77213339D01*
X176097254Y-77217843D01*
X176040433Y-77222618D01*
X175984413Y-77227635D01*
X175929611Y-77232869D01*
X175876445Y-77238291D01*
X175829818Y-77243368D01*
X175810567Y-77245576D01*
X175790115Y-77247998D01*
X175769019Y-77250563D01*
X175747841Y-77253196D01*
X175727139Y-77255827D01*
X175707471Y-77258383D01*
X175689398Y-77260791D01*
X175673478Y-77262979D01*
X175660271Y-77264874D01*
X175650335Y-77266404D01*
X175645675Y-77267211D01*
X175639857Y-77267986D01*
X175636214Y-77267854D01*
X175635593Y-77267372D01*
X175636336Y-77265219D01*
X175638488Y-77259415D01*
X175641933Y-77250261D01*
X175646556Y-77238061D01*
X175652240Y-77223114D01*
X175658870Y-77205723D01*
X175666330Y-77186189D01*
X175674504Y-77164814D01*
X175683276Y-77141900D01*
X175692531Y-77117747D01*
X175702152Y-77092657D01*
X175712024Y-77066932D01*
X175722030Y-77040874D01*
X175732056Y-77014784D01*
X175741985Y-76988963D01*
X175751701Y-76963714D01*
X175761089Y-76939337D01*
X175770032Y-76916135D01*
X175778415Y-76894408D01*
X175786123Y-76874459D01*
X175793038Y-76856588D01*
X175799046Y-76841099D01*
X175804031Y-76828291D01*
X175807876Y-76818466D01*
X175810466Y-76811927D01*
X175811615Y-76809128D01*
X175813397Y-76805942D01*
X175816270Y-76802363D01*
X175820648Y-76798026D01*
X175826946Y-76792567D01*
X175835576Y-76785621D01*
X175846954Y-76776824D01*
X175856698Y-76769427D01*
X175868188Y-76760780D01*
X175878541Y-76753052D01*
X175887284Y-76746591D01*
X175893944Y-76741744D01*
X175898046Y-76738861D01*
X175899155Y-76738196D01*
X175898630Y-76740146D01*
G37*
G36*
X178044156Y-77634230D02*
G01*
X178051419Y-77635372D01*
X178062599Y-77637247D01*
X178077569Y-77639835D01*
X178096200Y-77643112D01*
X178118365Y-77647056D01*
X178143936Y-77651646D01*
X178152031Y-77653106D01*
X178170487Y-77656480D01*
X178189915Y-77660109D01*
X178209869Y-77663904D01*
X178229906Y-77667775D01*
X178249581Y-77671632D01*
X178268449Y-77675387D01*
X178286065Y-77678949D01*
X178301985Y-77682228D01*
X178315764Y-77685136D01*
X178326958Y-77687583D01*
X178335121Y-77689478D01*
X178339809Y-77690733D01*
X178340755Y-77691127D01*
X178341225Y-77693682D01*
X178340884Y-77699759D01*
X178339716Y-77709455D01*
X178337706Y-77722868D01*
X178334840Y-77740094D01*
X178331103Y-77761231D01*
X178326480Y-77786375D01*
X178324709Y-77795823D01*
X178299978Y-77916513D01*
X178271600Y-78035114D01*
X178239584Y-78151605D01*
X178203940Y-78265964D01*
X178164674Y-78378171D01*
X178121795Y-78488205D01*
X178075313Y-78596042D01*
X178025235Y-78701663D01*
X177971569Y-78805046D01*
X177914325Y-78906169D01*
X177853510Y-79005011D01*
X177841692Y-79023317D01*
X177794525Y-79093569D01*
X177744761Y-79163394D01*
X177692897Y-79232167D01*
X177639430Y-79299266D01*
X177584857Y-79364068D01*
X177529677Y-79425950D01*
X177474386Y-79484289D01*
X177470202Y-79488552D01*
X177431544Y-79527834D01*
X177431463Y-79252046D01*
X177431459Y-79218242D01*
X177431469Y-79185627D01*
X177431492Y-79154449D01*
X177431527Y-79124958D01*
X177431572Y-79097402D01*
X177431629Y-79072028D01*
X177431694Y-79049086D01*
X177431769Y-79028824D01*
X177431852Y-79011489D01*
X177431942Y-78997332D01*
X177432039Y-78986599D01*
X177432143Y-78979539D01*
X177432251Y-78976401D01*
X177432280Y-78976259D01*
X177434143Y-78977402D01*
X177439285Y-78980718D01*
X177447445Y-78986036D01*
X177458365Y-78993187D01*
X177471786Y-79002000D01*
X177487450Y-79012305D01*
X177505097Y-79023932D01*
X177524469Y-79036711D01*
X177545308Y-79050471D01*
X177567354Y-79065042D01*
X177583521Y-79075735D01*
X177733863Y-79175212D01*
X177734924Y-78822825D01*
X177735986Y-78470438D01*
X177886149Y-78569839D01*
X177908881Y-78584878D01*
X177930593Y-78599226D01*
X177951024Y-78612712D01*
X177969916Y-78625166D01*
X177987009Y-78636418D01*
X178002044Y-78646297D01*
X178014763Y-78654632D01*
X178024905Y-78661254D01*
X178032211Y-78665992D01*
X178036423Y-78668675D01*
X178037390Y-78669240D01*
X178037487Y-78667152D01*
X178037582Y-78661012D01*
X178037673Y-78650999D01*
X178037762Y-78637295D01*
X178037847Y-78620082D01*
X178037929Y-78599541D01*
X178038006Y-78575852D01*
X178038078Y-78549198D01*
X178038146Y-78519759D01*
X178038208Y-78487718D01*
X178038264Y-78453254D01*
X178038315Y-78416550D01*
X178038359Y-78377786D01*
X178038396Y-78337145D01*
X178038425Y-78294807D01*
X178038447Y-78250954D01*
X178038462Y-78205766D01*
X178038467Y-78159426D01*
X178038468Y-78151542D01*
X178038472Y-78093129D01*
X178038487Y-78038835D01*
X178038513Y-77988545D01*
X178038549Y-77942142D01*
X178038598Y-77899512D01*
X178038658Y-77860539D01*
X178038731Y-77825106D01*
X178038818Y-77793100D01*
X178038919Y-77764403D01*
X178039034Y-77738901D01*
X178039163Y-77716477D01*
X178039309Y-77697017D01*
X178039471Y-77680404D01*
X178039649Y-77666523D01*
X178039844Y-77655259D01*
X178040058Y-77646495D01*
X178040289Y-77640116D01*
X178040540Y-77636007D01*
X178040810Y-77634052D01*
X178040939Y-77633844D01*
X178044156Y-77634230D01*
G37*
G36*
X177437578Y-77555741D02*
G01*
X177445671Y-77556424D01*
X177457093Y-77557504D01*
X177471400Y-77558929D01*
X177488146Y-77560652D01*
X177506889Y-77562623D01*
X177527185Y-77564793D01*
X177548588Y-77567112D01*
X177570656Y-77569532D01*
X177592944Y-77572003D01*
X177615009Y-77574476D01*
X177636406Y-77576901D01*
X177656691Y-77579230D01*
X177675420Y-77581413D01*
X177692149Y-77583401D01*
X177706435Y-77585145D01*
X177717833Y-77586596D01*
X177725899Y-77587704D01*
X177730148Y-77588411D01*
X177734924Y-77589460D01*
X177734924Y-78028775D01*
X177734919Y-78071583D01*
X177734904Y-78113253D01*
X177734880Y-78153589D01*
X177734847Y-78192393D01*
X177734805Y-78229469D01*
X177734755Y-78264620D01*
X177734698Y-78297649D01*
X177734634Y-78328360D01*
X177734564Y-78356554D01*
X177734487Y-78382037D01*
X177734405Y-78404611D01*
X177734318Y-78424078D01*
X177734226Y-78440244D01*
X177734131Y-78452909D01*
X177734031Y-78461879D01*
X177733929Y-78466955D01*
X177733852Y-78468089D01*
X177731964Y-78466942D01*
X177726805Y-78463614D01*
X177718634Y-78458276D01*
X177707710Y-78451100D01*
X177694292Y-78442256D01*
X177678639Y-78431917D01*
X177661011Y-78420252D01*
X177641667Y-78407434D01*
X177620865Y-78393632D01*
X177598865Y-78379019D01*
X177583152Y-78368573D01*
X177560478Y-78353500D01*
X177538824Y-78339122D01*
X177518448Y-78325608D01*
X177499610Y-78313130D01*
X177482569Y-78301860D01*
X177467584Y-78291968D01*
X177454915Y-78283625D01*
X177444820Y-78277003D01*
X177437559Y-78272272D01*
X177433391Y-78269605D01*
X177432453Y-78269056D01*
X177432337Y-78271137D01*
X177432224Y-78277232D01*
X177432115Y-78287122D01*
X177432011Y-78300587D01*
X177431912Y-78317407D01*
X177431820Y-78337361D01*
X177431735Y-78360230D01*
X177431657Y-78385793D01*
X177431587Y-78413831D01*
X177431527Y-78444123D01*
X177431476Y-78476451D01*
X177431435Y-78510592D01*
X177431405Y-78546328D01*
X177431387Y-78583439D01*
X177431381Y-78620540D01*
X177431369Y-78666378D01*
X177431334Y-78709500D01*
X177431276Y-78749788D01*
X177431196Y-78787122D01*
X177431095Y-78821384D01*
X177430974Y-78852456D01*
X177430832Y-78880219D01*
X177430672Y-78904554D01*
X177430492Y-78925343D01*
X177430295Y-78942467D01*
X177430081Y-78955808D01*
X177429850Y-78965246D01*
X177429603Y-78970664D01*
X177429393Y-78972024D01*
X177427364Y-78970878D01*
X177422063Y-78967554D01*
X177413751Y-78962223D01*
X177402689Y-78955055D01*
X177389139Y-78946221D01*
X177373360Y-78935892D01*
X177355613Y-78924239D01*
X177336160Y-78911431D01*
X177315262Y-78897640D01*
X177293179Y-78883037D01*
X177277091Y-78872379D01*
X177126776Y-78772735D01*
X177125715Y-79283672D01*
X177124653Y-79794608D01*
X177087506Y-79821611D01*
X177052996Y-79846221D01*
X177016729Y-79871201D01*
X176979594Y-79895974D01*
X176942480Y-79919959D01*
X176906274Y-79942579D01*
X176871866Y-79963255D01*
X176854628Y-79973247D01*
X176844457Y-79979020D01*
X176835608Y-79983971D01*
X176828719Y-79987748D01*
X176824428Y-79989999D01*
X176823319Y-79990480D01*
X176823230Y-79988388D01*
X176823144Y-79982217D01*
X176823059Y-79972121D01*
X176822977Y-79958254D01*
X176822898Y-79940772D01*
X176822821Y-79919830D01*
X176822747Y-79895583D01*
X176822677Y-79868185D01*
X176822610Y-79837791D01*
X176822546Y-79804556D01*
X176822487Y-79768635D01*
X176822432Y-79730184D01*
X176822382Y-79689356D01*
X176822336Y-79646307D01*
X176822296Y-79601191D01*
X176822260Y-79554164D01*
X176822230Y-79505380D01*
X176822206Y-79454994D01*
X176822188Y-79403162D01*
X176822177Y-79350037D01*
X176822172Y-79295775D01*
X176822171Y-79281160D01*
X176822174Y-79226622D01*
X176822182Y-79173179D01*
X176822195Y-79120988D01*
X176822213Y-79070202D01*
X176822235Y-79020977D01*
X176822262Y-78973467D01*
X176822293Y-78927827D01*
X176822328Y-78884213D01*
X176822367Y-78842778D01*
X176822410Y-78803679D01*
X176822456Y-78767070D01*
X176822505Y-78733105D01*
X176822557Y-78701940D01*
X176822613Y-78673729D01*
X176822670Y-78648628D01*
X176822731Y-78626791D01*
X176822793Y-78608373D01*
X176822858Y-78593529D01*
X176822924Y-78582414D01*
X176822992Y-78575183D01*
X176823062Y-78571990D01*
X176823081Y-78571840D01*
X176824945Y-78572985D01*
X176830086Y-78576304D01*
X176838244Y-78581627D01*
X176849161Y-78588785D01*
X176862579Y-78597607D01*
X176878238Y-78607922D01*
X176895880Y-78619561D01*
X176915247Y-78632352D01*
X176936079Y-78646126D01*
X176958119Y-78660712D01*
X176974322Y-78671444D01*
X177124653Y-78771047D01*
X177125715Y-78418537D01*
X177126776Y-78066026D01*
X177278548Y-78166482D01*
X177430319Y-78266938D01*
X177430856Y-77911220D01*
X177430928Y-77870766D01*
X177431019Y-77831856D01*
X177431127Y-77794687D01*
X177431252Y-77759453D01*
X177431391Y-77726352D01*
X177431544Y-77695577D01*
X177431709Y-77667326D01*
X177431885Y-77641794D01*
X177432071Y-77619177D01*
X177432265Y-77599669D01*
X177432465Y-77583468D01*
X177432672Y-77570769D01*
X177432883Y-77561768D01*
X177433096Y-77556660D01*
X177433256Y-77555502D01*
X177437578Y-77555741D01*
G37*
G36*
X176792922Y-76488218D02*
G01*
X176825229Y-76488322D01*
X176856413Y-76488483D01*
X176885986Y-76488703D01*
X176913459Y-76488980D01*
X176938346Y-76489315D01*
X176960157Y-76489708D01*
X176978405Y-76490158D01*
X176984556Y-76490353D01*
X177119399Y-76495980D01*
X177251180Y-76503545D01*
X177380649Y-76513122D01*
X177508557Y-76524783D01*
X177635653Y-76538602D01*
X177762687Y-76554651D01*
X177890408Y-76573003D01*
X177979032Y-76586998D01*
X178005046Y-76591325D01*
X178032289Y-76595988D01*
X178060404Y-76600918D01*
X178089033Y-76606046D01*
X178117819Y-76611302D01*
X178146403Y-76616615D01*
X178174428Y-76621918D01*
X178201537Y-76627139D01*
X178227371Y-76632210D01*
X178251572Y-76637060D01*
X178273783Y-76641620D01*
X178293646Y-76645821D01*
X178310804Y-76649592D01*
X178324898Y-76652865D01*
X178335570Y-76655569D01*
X178342464Y-76657634D01*
X178343072Y-76657856D01*
X178355234Y-76664235D01*
X178367116Y-76673668D01*
X178377623Y-76685051D01*
X178385659Y-76697281D01*
X178388475Y-76703549D01*
X178393293Y-76716542D01*
X178392344Y-76962927D01*
X178392173Y-77001879D01*
X178391969Y-77038817D01*
X178391734Y-77073524D01*
X178391472Y-77105783D01*
X178391185Y-77135378D01*
X178390876Y-77162090D01*
X178390546Y-77185703D01*
X178390198Y-77206001D01*
X178389836Y-77222766D01*
X178389462Y-77235781D01*
X178389078Y-77244830D01*
X178388986Y-77246365D01*
X178386704Y-77280998D01*
X178384605Y-77311858D01*
X178382654Y-77339399D01*
X178380817Y-77364078D01*
X178379061Y-77386351D01*
X178377352Y-77406672D01*
X178375872Y-77423166D01*
X178374654Y-77436028D01*
X178373249Y-77450332D01*
X178371721Y-77465497D01*
X178370131Y-77480945D01*
X178368542Y-77496095D01*
X178367014Y-77510368D01*
X178365609Y-77523183D01*
X178364391Y-77533961D01*
X178363420Y-77542123D01*
X178362759Y-77547087D01*
X178362503Y-77548365D01*
X178360424Y-77548027D01*
X178354702Y-77546940D01*
X178345852Y-77545205D01*
X178334389Y-77542924D01*
X178320829Y-77540199D01*
X178305686Y-77537133D01*
X178300619Y-77536102D01*
X178158340Y-77508663D01*
X178013264Y-77483697D01*
X177866109Y-77461295D01*
X177717588Y-77441551D01*
X177568418Y-77424557D01*
X177419314Y-77410406D01*
X177270992Y-77399189D01*
X177214867Y-77395709D01*
X177173843Y-77393381D01*
X177135496Y-77391341D01*
X177099213Y-77389572D01*
X177064381Y-77388057D01*
X177030384Y-77386779D01*
X176996611Y-77385723D01*
X176962446Y-77384870D01*
X176927275Y-77384205D01*
X176890485Y-77383711D01*
X176851463Y-77383370D01*
X176809593Y-77383167D01*
X176764262Y-77383084D01*
X176751062Y-77383081D01*
X176710477Y-77383112D01*
X176673554Y-77383213D01*
X176639708Y-77383399D01*
X176608355Y-77383680D01*
X176578911Y-77384070D01*
X176550793Y-77384581D01*
X176523417Y-77385227D01*
X176496199Y-77386019D01*
X176468554Y-77386971D01*
X176439900Y-77388096D01*
X176409651Y-77389405D01*
X176377225Y-77390912D01*
X176365795Y-77391462D01*
X176187554Y-77402153D01*
X176009361Y-77416921D01*
X175831555Y-77435727D01*
X175654474Y-77458533D01*
X175478456Y-77485298D01*
X175335233Y-77510159D01*
X175320011Y-77512978D01*
X175303019Y-77516171D01*
X175284751Y-77519641D01*
X175265701Y-77523292D01*
X175246363Y-77527027D01*
X175227230Y-77530749D01*
X175208796Y-77534361D01*
X175191555Y-77537767D01*
X175176002Y-77540870D01*
X175162629Y-77543572D01*
X175151930Y-77545778D01*
X175144400Y-77547390D01*
X175140532Y-77548312D01*
X175140477Y-77548328D01*
X175137325Y-77548071D01*
X175136721Y-77546646D01*
X175136413Y-77543205D01*
X175135651Y-77536985D01*
X175134707Y-77530093D01*
X175133700Y-77522258D01*
X175132394Y-77510876D01*
X175130855Y-77496621D01*
X175129150Y-77480164D01*
X175127345Y-77462180D01*
X175125507Y-77443340D01*
X175123701Y-77424318D01*
X175121994Y-77405785D01*
X175120452Y-77388415D01*
X175119141Y-77372881D01*
X175118758Y-77368114D01*
X175116745Y-77340717D01*
X175527336Y-77340717D01*
X175529255Y-77347624D01*
X175534203Y-77353184D01*
X175540970Y-77356220D01*
X175543570Y-77356469D01*
X175547087Y-77356102D01*
X175554094Y-77355075D01*
X175563907Y-77353500D01*
X175575842Y-77351487D01*
X175589215Y-77349148D01*
X175594759Y-77348156D01*
X175696206Y-77331084D01*
X175801355Y-77315742D01*
X175910026Y-77302152D01*
X176022037Y-77290332D01*
X176137209Y-77280301D01*
X176255360Y-77272079D01*
X176357304Y-77266559D01*
X176479075Y-77261702D01*
X176600742Y-77258626D01*
X176721998Y-77257316D01*
X176842540Y-77257755D01*
X176962060Y-77259928D01*
X177080255Y-77263820D01*
X177196818Y-77269412D01*
X177311445Y-77276691D01*
X177423830Y-77285640D01*
X177533667Y-77296243D01*
X177640652Y-77308484D01*
X177744479Y-77322346D01*
X177844843Y-77337815D01*
X177899016Y-77347102D01*
X177913710Y-77349679D01*
X177927250Y-77351986D01*
X177939002Y-77353918D01*
X177948332Y-77355374D01*
X177954607Y-77356252D01*
X177956956Y-77356469D01*
X177962923Y-77354634D01*
X177968399Y-77350065D01*
X177971992Y-77344167D01*
X177972664Y-77340615D01*
X177971799Y-77337996D01*
X177969281Y-77331785D01*
X177965227Y-77322240D01*
X177959755Y-77309618D01*
X177952980Y-77294176D01*
X177945019Y-77276172D01*
X177935991Y-77255864D01*
X177926011Y-77233509D01*
X177915196Y-77209365D01*
X177903664Y-77183688D01*
X177891531Y-77156737D01*
X177878914Y-77128768D01*
X177865929Y-77100040D01*
X177852694Y-77070810D01*
X177839326Y-77041335D01*
X177825941Y-77011873D01*
X177812657Y-76982681D01*
X177799590Y-76954017D01*
X177786857Y-76926138D01*
X177774574Y-76899302D01*
X177762860Y-76873766D01*
X177751830Y-76849787D01*
X177741601Y-76827624D01*
X177732291Y-76807533D01*
X177724017Y-76789773D01*
X177716894Y-76774599D01*
X177711040Y-76762271D01*
X177706573Y-76753046D01*
X177703607Y-76747180D01*
X177702300Y-76744965D01*
X177697384Y-76741633D01*
X177689616Y-76739002D01*
X177681429Y-76737312D01*
X177673325Y-76735749D01*
X177666674Y-76734174D01*
X177662753Y-76732896D01*
X177662486Y-76732753D01*
X177660069Y-76731005D01*
X177654792Y-76727019D01*
X177647140Y-76721167D01*
X177637596Y-76713820D01*
X177626645Y-76705348D01*
X177616861Y-76697750D01*
X177605046Y-76688602D01*
X177594169Y-76680256D01*
X177584729Y-76673090D01*
X177577223Y-76667480D01*
X177572150Y-76663803D01*
X177570162Y-76662496D01*
X177565140Y-76660789D01*
X177556406Y-76658776D01*
X177544476Y-76656533D01*
X177529865Y-76654139D01*
X177513089Y-76651672D01*
X177494663Y-76649210D01*
X177475103Y-76646830D01*
X177454925Y-76644610D01*
X177445178Y-76643625D01*
X177432079Y-76642610D01*
X177415380Y-76641740D01*
X177395726Y-76641019D01*
X177373759Y-76640449D01*
X177350125Y-76640032D01*
X177325465Y-76639771D01*
X177300424Y-76639670D01*
X177275646Y-76639730D01*
X177251774Y-76639954D01*
X177229452Y-76640346D01*
X177209323Y-76640908D01*
X177192031Y-76641642D01*
X177178782Y-76642504D01*
X177120334Y-76647906D01*
X177065425Y-76654252D01*
X177013432Y-76661640D01*
X176963735Y-76670165D01*
X176915711Y-76679926D01*
X176870993Y-76690450D01*
X176854107Y-76694833D01*
X176836250Y-76699719D01*
X176818256Y-76704858D01*
X176800965Y-76710001D01*
X176785213Y-76714899D01*
X176771836Y-76719302D01*
X176761673Y-76722960D01*
X176760981Y-76723230D01*
X176750465Y-76727364D01*
X176718923Y-76716826D01*
X176666563Y-76700740D01*
X176610684Y-76686254D01*
X176551733Y-76673452D01*
X176490157Y-76662420D01*
X176426400Y-76653243D01*
X176360910Y-76646006D01*
X176337139Y-76643904D01*
X176318855Y-76642633D01*
X176297313Y-76641535D01*
X176273327Y-76640622D01*
X176247709Y-76639905D01*
X176221269Y-76639396D01*
X176194820Y-76639107D01*
X176169174Y-76639048D01*
X176145143Y-76639232D01*
X176123539Y-76639670D01*
X176105174Y-76640372D01*
X176101521Y-76640571D01*
X176073033Y-76642509D01*
X176044393Y-76644987D01*
X176016568Y-76647897D01*
X175990527Y-76651135D01*
X175967236Y-76654594D01*
X175956054Y-76656532D01*
X175929160Y-76661489D01*
X175884796Y-76696025D01*
X175872678Y-76705400D01*
X175861416Y-76714004D01*
X175851514Y-76721460D01*
X175843476Y-76727391D01*
X175837807Y-76731421D01*
X175835125Y-76733121D01*
X175829970Y-76734858D01*
X175822643Y-76736477D01*
X175818143Y-76737176D01*
X175807025Y-76739487D01*
X175798991Y-76743543D01*
X175793013Y-76750027D01*
X175789601Y-76756172D01*
X175788152Y-76759312D01*
X175785055Y-76766086D01*
X175780412Y-76776271D01*
X175774324Y-76789642D01*
X175766893Y-76805977D01*
X175758220Y-76825051D01*
X175748407Y-76846640D01*
X175737557Y-76870520D01*
X175725770Y-76896469D01*
X175713149Y-76924261D01*
X175699795Y-76953673D01*
X175685810Y-76984482D01*
X175671295Y-77016463D01*
X175656352Y-77049392D01*
X175655958Y-77050261D01*
X175635612Y-77095150D01*
X175617043Y-77136213D01*
X175600243Y-77173470D01*
X175585205Y-77206937D01*
X175571920Y-77236633D01*
X175560382Y-77262574D01*
X175550581Y-77284778D01*
X175542511Y-77303264D01*
X175536164Y-77318048D01*
X175531531Y-77329148D01*
X175528605Y-77336582D01*
X175527379Y-77340367D01*
X175527336Y-77340717D01*
X175116745Y-77340717D01*
X175115913Y-77329395D01*
X175113422Y-77289516D01*
X175111278Y-77248149D01*
X175109472Y-77204970D01*
X175107994Y-77159651D01*
X175106836Y-77111866D01*
X175105989Y-77061291D01*
X175105445Y-77007597D01*
X175105195Y-76950460D01*
X175105230Y-76889552D01*
X175105322Y-76864180D01*
X175105984Y-76713846D01*
X175112722Y-76699658D01*
X175117765Y-76690683D01*
X175124067Y-76681695D01*
X175129277Y-76675678D01*
X175133682Y-76671479D01*
X175138132Y-76667806D01*
X175143026Y-76664532D01*
X175148760Y-76661532D01*
X175155732Y-76658678D01*
X175164339Y-76655847D01*
X175174978Y-76652910D01*
X175188047Y-76649744D01*
X175203943Y-76646221D01*
X175223063Y-76642216D01*
X175245805Y-76637603D01*
X175255633Y-76635633D01*
X175392804Y-76609385D01*
X175528275Y-76585870D01*
X175662701Y-76565014D01*
X175796735Y-76546742D01*
X175931033Y-76530977D01*
X176066249Y-76517644D01*
X176203036Y-76506669D01*
X176342050Y-76497974D01*
X176483945Y-76491486D01*
X176515444Y-76490353D01*
X176532142Y-76489880D01*
X176552596Y-76489464D01*
X176576320Y-76489106D01*
X176602824Y-76488806D01*
X176631621Y-76488564D01*
X176662224Y-76488379D01*
X176694143Y-76488252D01*
X176726891Y-76488183D01*
X176759980Y-76488171D01*
X176792922Y-76488218D01*
G37*
G36*
X176677829Y-78757873D02*
G01*
X176677826Y-78829932D01*
X176677818Y-78900932D01*
X176677804Y-78970755D01*
X176677786Y-79039285D01*
X176677762Y-79106405D01*
X176677733Y-79171995D01*
X176677700Y-79235940D01*
X176677662Y-79298121D01*
X176677619Y-79358421D01*
X176677573Y-79416723D01*
X176677522Y-79472909D01*
X176677467Y-79526861D01*
X176677409Y-79578463D01*
X176677347Y-79627596D01*
X176677282Y-79674143D01*
X176677213Y-79717986D01*
X176677141Y-79759009D01*
X176677066Y-79797093D01*
X176676989Y-79832122D01*
X176676908Y-79863977D01*
X176676825Y-79892541D01*
X176676740Y-79917697D01*
X176676653Y-79939327D01*
X176676563Y-79957314D01*
X176676472Y-79971540D01*
X176676379Y-79981887D01*
X176676284Y-79988239D01*
X176676188Y-79990478D01*
X176676185Y-79990480D01*
X176673891Y-79989472D01*
X176668561Y-79986677D01*
X176660824Y-79982441D01*
X176651313Y-79977107D01*
X176642752Y-79972226D01*
X176563997Y-79924922D01*
X176485471Y-79873640D01*
X176407484Y-79818638D01*
X176330348Y-79760172D01*
X176254375Y-79698498D01*
X176179878Y-79633874D01*
X176107166Y-79566556D01*
X176036552Y-79496801D01*
X175968349Y-79424865D01*
X175939888Y-79393381D01*
X175865468Y-79306666D01*
X175794345Y-79217308D01*
X175726550Y-79125368D01*
X175662115Y-79030908D01*
X175601069Y-78933987D01*
X175543444Y-78834668D01*
X175489270Y-78733010D01*
X175438577Y-78629075D01*
X175391397Y-78522925D01*
X175347760Y-78414619D01*
X175337581Y-78386570D01*
X175484775Y-78386570D01*
X175485360Y-78394973D01*
X175485944Y-78403375D01*
X175502925Y-78408444D01*
X175510705Y-78410790D01*
X175516676Y-78412636D01*
X175519877Y-78413682D01*
X175520165Y-78413805D01*
X175520583Y-78415869D01*
X175521342Y-78420759D01*
X175521751Y-78423624D01*
X175523077Y-78433153D01*
X175507164Y-78442669D01*
X175500036Y-78447074D01*
X175494558Y-78450730D01*
X175491566Y-78453067D01*
X175491250Y-78453520D01*
X175491629Y-78456356D01*
X175492533Y-78461253D01*
X175493360Y-78464343D01*
X175494927Y-78466458D01*
X175498100Y-78468034D01*
X175503744Y-78469507D01*
X175512387Y-78471248D01*
X175530959Y-78474846D01*
X175533083Y-78484103D01*
X175535206Y-78493359D01*
X175522407Y-78503486D01*
X175516022Y-78508508D01*
X175510840Y-78512529D01*
X175507835Y-78514793D01*
X175507611Y-78514949D01*
X175506810Y-78517852D01*
X175507992Y-78523472D01*
X175508060Y-78523681D01*
X175510507Y-78531076D01*
X175529267Y-78532540D01*
X175548028Y-78534004D01*
X175551490Y-78542797D01*
X175554953Y-78551590D01*
X175542206Y-78564419D01*
X175535282Y-78571719D01*
X175531266Y-78577055D01*
X175529831Y-78581204D01*
X175530651Y-78584944D01*
X175532402Y-78587751D01*
X175534333Y-78589684D01*
X175537263Y-78590820D01*
X175542137Y-78591306D01*
X175549902Y-78591291D01*
X175554294Y-78591168D01*
X175573242Y-78590570D01*
X175577041Y-78598972D01*
X175580839Y-78607374D01*
X175570008Y-78621122D01*
X175564109Y-78628879D01*
X175560745Y-78634329D01*
X175559656Y-78638355D01*
X175560585Y-78641840D01*
X175562938Y-78645251D01*
X175564998Y-78647542D01*
X175567283Y-78648695D01*
X175570876Y-78648803D01*
X175576856Y-78647961D01*
X175582526Y-78646951D01*
X175591930Y-78645261D01*
X175598109Y-78644428D01*
X175602026Y-78644617D01*
X175604645Y-78645994D01*
X175606929Y-78648724D01*
X175608801Y-78651466D01*
X175614002Y-78659101D01*
X175604632Y-78674496D01*
X175600357Y-78681741D01*
X175597106Y-78687678D01*
X175595398Y-78691335D01*
X175595262Y-78691900D01*
X175596673Y-78694633D01*
X175600073Y-78698419D01*
X175600140Y-78698482D01*
X175605019Y-78703053D01*
X175621898Y-78697824D01*
X175629805Y-78695417D01*
X175636083Y-78693587D01*
X175639692Y-78692633D01*
X175640117Y-78692562D01*
X175642107Y-78694073D01*
X175645520Y-78697905D01*
X175647005Y-78699786D01*
X175652553Y-78707042D01*
X175644775Y-78724259D01*
X175636996Y-78741475D01*
X175642384Y-78746850D01*
X175647773Y-78752225D01*
X175665279Y-78744547D01*
X175682786Y-78736869D01*
X175690056Y-78742400D01*
X175694770Y-78746652D01*
X175696310Y-78750241D01*
X175695997Y-78752521D01*
X175694697Y-78756843D01*
X175692589Y-78763692D01*
X175690222Y-78771286D01*
X175685777Y-78785461D01*
X175690933Y-78789742D01*
X175694981Y-78792759D01*
X175697589Y-78794092D01*
X175697620Y-78794094D01*
X175700021Y-78793114D01*
X175705129Y-78790437D01*
X175712022Y-78786555D01*
X175715231Y-78784682D01*
X175731311Y-78775199D01*
X175738615Y-78779917D01*
X175742305Y-78782371D01*
X175744549Y-78784591D01*
X175745498Y-78787518D01*
X175745301Y-78792092D01*
X175744108Y-78799250D01*
X175742790Y-78806146D01*
X175741255Y-78814419D01*
X175740608Y-78819575D01*
X175740932Y-78822653D01*
X175742309Y-78824693D01*
X175744382Y-78826400D01*
X175748805Y-78829129D01*
X175751855Y-78830113D01*
X175754696Y-78828897D01*
X175759833Y-78825629D01*
X175766284Y-78820946D01*
X175768059Y-78819573D01*
X175774674Y-78814623D01*
X175780207Y-78810911D01*
X175783686Y-78809076D01*
X175784137Y-78808986D01*
X175787611Y-78809984D01*
X175792619Y-78812413D01*
X175793107Y-78812692D01*
X175799505Y-78816397D01*
X175798519Y-78835744D01*
X175797533Y-78855091D01*
X175804123Y-78858300D01*
X175810714Y-78861508D01*
X175824865Y-78847654D01*
X175839015Y-78833801D01*
X175847153Y-78837027D01*
X175855290Y-78840254D01*
X175857413Y-78859882D01*
X175858567Y-78869369D01*
X175859716Y-78875462D01*
X175861109Y-78878992D01*
X175862996Y-78880793D01*
X175863781Y-78881153D01*
X175868505Y-78882493D01*
X175872448Y-78882001D01*
X175876474Y-78879186D01*
X175881449Y-78873554D01*
X175884815Y-78869195D01*
X175889867Y-78862650D01*
X175894048Y-78857493D01*
X175896634Y-78854610D01*
X175896971Y-78854332D01*
X175899954Y-78854161D01*
X175905250Y-78855053D01*
X175907020Y-78855494D01*
X175915332Y-78857727D01*
X175918740Y-78876054D01*
X175920349Y-78884332D01*
X175921748Y-78890862D01*
X175922719Y-78894646D01*
X175922950Y-78895180D01*
X175925386Y-78896001D01*
X175930269Y-78896943D01*
X175930913Y-78897041D01*
X175934380Y-78897380D01*
X175937050Y-78896748D01*
X175939640Y-78894493D01*
X175942867Y-78889964D01*
X175947448Y-78882510D01*
X175948087Y-78881448D01*
X175958099Y-78864793D01*
X175967010Y-78866004D01*
X175975920Y-78867214D01*
X175981470Y-78885202D01*
X175984183Y-78893827D01*
X175986391Y-78899303D01*
X175988909Y-78902507D01*
X175992551Y-78904313D01*
X175998133Y-78905599D01*
X176000943Y-78906135D01*
X176002333Y-78904453D01*
X176004981Y-78899730D01*
X176008436Y-78892804D01*
X176010495Y-78888407D01*
X176018737Y-78870429D01*
X176028289Y-78870434D01*
X176037841Y-78870439D01*
X176045270Y-78887542D01*
X176048713Y-78895269D01*
X176051586Y-78901352D01*
X176053442Y-78904861D01*
X176053813Y-78905345D01*
X176056446Y-78905436D01*
X176061384Y-78904725D01*
X176061990Y-78904605D01*
X176065535Y-78903636D01*
X176068049Y-78901877D01*
X176070126Y-78898442D01*
X176072364Y-78892444D01*
X176074346Y-78886248D01*
X176076934Y-78878328D01*
X176079193Y-78872046D01*
X176080741Y-78868441D01*
X176081028Y-78868019D01*
X176083873Y-78866868D01*
X176089111Y-78865710D01*
X176090306Y-78865517D01*
X176098195Y-78864327D01*
X176108054Y-78880592D01*
X176112501Y-78887886D01*
X176116082Y-78893676D01*
X176118258Y-78897099D01*
X176118640Y-78897641D01*
X176120990Y-78897814D01*
X176125803Y-78897214D01*
X176126640Y-78897063D01*
X176133915Y-78895702D01*
X176137648Y-78876529D01*
X176139576Y-78867276D01*
X176141241Y-78861345D01*
X176143007Y-78857869D01*
X176145239Y-78855981D01*
X176146531Y-78855404D01*
X176151895Y-78853857D01*
X176156329Y-78854160D01*
X176160697Y-78856769D01*
X176165862Y-78862140D01*
X176170727Y-78868190D01*
X176176689Y-78875670D01*
X176180977Y-78880224D01*
X176184427Y-78882341D01*
X176187872Y-78882510D01*
X176192150Y-78881221D01*
X176192658Y-78881029D01*
X176196569Y-78878591D01*
X176198006Y-78874337D01*
X176198103Y-78871812D01*
X176198330Y-78865708D01*
X176198915Y-78857530D01*
X176199467Y-78851639D01*
X176200328Y-78844473D01*
X176201492Y-78840354D01*
X176203686Y-78838115D01*
X176207637Y-78836589D01*
X176209123Y-78836140D01*
X176217414Y-78833663D01*
X176230634Y-78846733D01*
X176237550Y-78853413D01*
X176242411Y-78857440D01*
X176246094Y-78859227D01*
X176249478Y-78859182D01*
X176253439Y-78857715D01*
X176253793Y-78857555D01*
X176256061Y-78856311D01*
X176257458Y-78854500D01*
X176258141Y-78851251D01*
X176258269Y-78845690D01*
X176257999Y-78836945D01*
X176257912Y-78834764D01*
X176257085Y-78814221D01*
X176264633Y-78810630D01*
X176272182Y-78807040D01*
X176286993Y-78818600D01*
X176293941Y-78823783D01*
X176299847Y-78827752D01*
X176303781Y-78829900D01*
X176304613Y-78830113D01*
X176308268Y-78828842D01*
X176312029Y-78826407D01*
X176314325Y-78824353D01*
X176315481Y-78822073D01*
X176315590Y-78818490D01*
X176314746Y-78812525D01*
X176313733Y-78806869D01*
X176311915Y-78796504D01*
X176311037Y-78789452D01*
X176311212Y-78784869D01*
X176312553Y-78781915D01*
X176315174Y-78779747D01*
X176317573Y-78778384D01*
X176324542Y-78774641D01*
X176340661Y-78784403D01*
X176348082Y-78788767D01*
X176354198Y-78792125D01*
X176358063Y-78793966D01*
X176358795Y-78794165D01*
X176361526Y-78792756D01*
X176365339Y-78789355D01*
X176365466Y-78789221D01*
X176370122Y-78784277D01*
X176364415Y-78765918D01*
X176358709Y-78747559D01*
X176363684Y-78742277D01*
X176367813Y-78738672D01*
X176371166Y-78737009D01*
X176371369Y-78736996D01*
X176374432Y-78737807D01*
X176380308Y-78739974D01*
X176387944Y-78743099D01*
X176391442Y-78744610D01*
X176408805Y-78752225D01*
X176414056Y-78746986D01*
X176419308Y-78741748D01*
X176410802Y-78722631D01*
X176402295Y-78703514D01*
X176408423Y-78697658D01*
X176414550Y-78691802D01*
X176432914Y-78697481D01*
X176442545Y-78700274D01*
X176449094Y-78701486D01*
X176453463Y-78701006D01*
X176456551Y-78698722D01*
X176459258Y-78694525D01*
X176459423Y-78694219D01*
X176460032Y-78691458D01*
X176459035Y-78687527D01*
X176456131Y-78681632D01*
X176451878Y-78674384D01*
X176447525Y-78666947D01*
X176444202Y-78660722D01*
X176442423Y-78656699D01*
X176442259Y-78655931D01*
X176443499Y-78652516D01*
X176446235Y-78648261D01*
X176448351Y-78645753D01*
X176450582Y-78644404D01*
X176453990Y-78644083D01*
X176459638Y-78644663D01*
X176466884Y-78645751D01*
X176475290Y-78647110D01*
X176482376Y-78648363D01*
X176486833Y-78649275D01*
X176487289Y-78649394D01*
X176490583Y-78648780D01*
X176493745Y-78644575D01*
X176494502Y-78643071D01*
X176498030Y-78635691D01*
X176487457Y-78622293D01*
X176481287Y-78614420D01*
X176477392Y-78609056D01*
X176475436Y-78605369D01*
X176475084Y-78602528D01*
X176476000Y-78599702D01*
X176477291Y-78597143D01*
X176480703Y-78590561D01*
X176500280Y-78591129D01*
X176509148Y-78591231D01*
X176516478Y-78591029D01*
X176521182Y-78590564D01*
X176522192Y-78590258D01*
X176524413Y-78587280D01*
X176525950Y-78583158D01*
X176526275Y-78580113D01*
X176525266Y-78576990D01*
X176522421Y-78572999D01*
X176517234Y-78567349D01*
X176513289Y-78563338D01*
X176499203Y-78549179D01*
X176502350Y-78541666D01*
X176505497Y-78534152D01*
X176525777Y-78532636D01*
X176546056Y-78531119D01*
X176548474Y-78523812D01*
X176549872Y-78518900D01*
X176550234Y-78516120D01*
X176550149Y-78515952D01*
X176538895Y-78507271D01*
X176529877Y-78499701D01*
X176523450Y-78493573D01*
X176519965Y-78489215D01*
X176519467Y-78487393D01*
X176521070Y-78481787D01*
X176522729Y-78478110D01*
X176525337Y-78475754D01*
X176529788Y-78474110D01*
X176536975Y-78472569D01*
X176542858Y-78471463D01*
X176562802Y-78467716D01*
X176564201Y-78460276D01*
X176564957Y-78455217D01*
X176565011Y-78452378D01*
X176564933Y-78452228D01*
X176562940Y-78450936D01*
X176558164Y-78447985D01*
X176551458Y-78443901D01*
X176547815Y-78441699D01*
X176540024Y-78436914D01*
X176535186Y-78433506D01*
X176532598Y-78430697D01*
X176531559Y-78427712D01*
X176531364Y-78423774D01*
X176531364Y-78423529D01*
X176531364Y-78415282D01*
X176550999Y-78409205D01*
X176570634Y-78403128D01*
X176571187Y-78394849D01*
X176571741Y-78386570D01*
X176554206Y-78378720D01*
X176545914Y-78374943D01*
X176540728Y-78372195D01*
X176537876Y-78369787D01*
X176536586Y-78367028D01*
X176536085Y-78363227D01*
X176536026Y-78362466D01*
X176535381Y-78354062D01*
X176553670Y-78345512D01*
X176571960Y-78336963D01*
X176571297Y-78329030D01*
X176570634Y-78321097D01*
X176553572Y-78315721D01*
X176543843Y-78312579D01*
X176537470Y-78310153D01*
X176533745Y-78307936D01*
X176531958Y-78305422D01*
X176531402Y-78302106D01*
X176531364Y-78299852D01*
X176531392Y-78297327D01*
X176531799Y-78295240D01*
X176533067Y-78293189D01*
X176535682Y-78290776D01*
X176540127Y-78287601D01*
X176546886Y-78283265D01*
X176556442Y-78277367D01*
X176564731Y-78272295D01*
X176564732Y-78270253D01*
X176564142Y-78265571D01*
X176563951Y-78264358D01*
X176562707Y-78256707D01*
X176542811Y-78252969D01*
X176532962Y-78250940D01*
X176526638Y-78249134D01*
X176523144Y-78247302D01*
X176521833Y-78245381D01*
X176520273Y-78239837D01*
X176519636Y-78237577D01*
X176519978Y-78234862D01*
X176522663Y-78231209D01*
X176528139Y-78226108D01*
X176533964Y-78221333D01*
X176540727Y-78215960D01*
X176546091Y-78211716D01*
X176549300Y-78209199D01*
X176549869Y-78208769D01*
X176549612Y-78206796D01*
X176548397Y-78202243D01*
X176547974Y-78200838D01*
X176545618Y-78193181D01*
X176525534Y-78191679D01*
X176505451Y-78190177D01*
X176502327Y-78182719D01*
X176499203Y-78175262D01*
X176513580Y-78160810D01*
X176527957Y-78146358D01*
X176524590Y-78139314D01*
X176521222Y-78132269D01*
X176501002Y-78133152D01*
X176480782Y-78134034D01*
X176477417Y-78127542D01*
X176475155Y-78122933D01*
X176474069Y-78120233D01*
X176474052Y-78120105D01*
X176475264Y-78118126D01*
X176478512Y-78113611D01*
X176483213Y-78107358D01*
X176485913Y-78103847D01*
X176497775Y-78088533D01*
X176493873Y-78081300D01*
X176490509Y-78076401D01*
X176487185Y-78074926D01*
X176485726Y-78075121D01*
X176481572Y-78075981D01*
X176474682Y-78077240D01*
X176466515Y-78078633D01*
X176466146Y-78078694D01*
X176458206Y-78079925D01*
X176453303Y-78080287D01*
X176450288Y-78079630D01*
X176448015Y-78077804D01*
X176446582Y-78076147D01*
X176443555Y-78071809D01*
X176442282Y-78068610D01*
X176443274Y-78065774D01*
X176445984Y-78060309D01*
X176449910Y-78053199D01*
X176451772Y-78050008D01*
X176461332Y-78033878D01*
X176456679Y-78027601D01*
X176453433Y-78023510D01*
X176451340Y-78021401D01*
X176451144Y-78021324D01*
X176448859Y-78021912D01*
X176443495Y-78023486D01*
X176436025Y-78025757D01*
X176432324Y-78026903D01*
X176414385Y-78032482D01*
X176408208Y-78026579D01*
X176404550Y-78022531D01*
X176402937Y-78019611D01*
X176402997Y-78019117D01*
X176404222Y-78016576D01*
X176406660Y-78011132D01*
X176409868Y-78003784D01*
X176411235Y-78000611D01*
X176418507Y-77983664D01*
X176412847Y-77978261D01*
X176407187Y-77972859D01*
X176390382Y-77980152D01*
X176382476Y-77983467D01*
X176375932Y-77985993D01*
X176371812Y-77987332D01*
X176371117Y-77987446D01*
X176368097Y-77986023D01*
X176364063Y-77982561D01*
X176363718Y-77982201D01*
X176358779Y-77976957D01*
X176363649Y-77960498D01*
X176366025Y-77952534D01*
X176367988Y-77946074D01*
X176369192Y-77942252D01*
X176369337Y-77941833D01*
X176368329Y-77939282D01*
X176364804Y-77935725D01*
X176363659Y-77934836D01*
X176357163Y-77930045D01*
X176340852Y-77939923D01*
X176324542Y-77949800D01*
X176317573Y-77946057D01*
X176314057Y-77943937D01*
X176311909Y-77941565D01*
X176311010Y-77938088D01*
X176311238Y-77932654D01*
X176312472Y-77924409D01*
X176313596Y-77918029D01*
X176316363Y-77902606D01*
X176310503Y-77898443D01*
X176306126Y-77895613D01*
X176303313Y-77894294D01*
X176303182Y-77894281D01*
X176300959Y-77895499D01*
X176296257Y-77898754D01*
X176289920Y-77903451D01*
X176286861Y-77905799D01*
X176272001Y-77917316D01*
X176264654Y-77913821D01*
X176257308Y-77910326D01*
X176257715Y-77890187D01*
X176258122Y-77870047D01*
X176251131Y-77867202D01*
X176244140Y-77864356D01*
X176230777Y-77877568D01*
X176217414Y-77890779D01*
X176209123Y-77888301D01*
X176204563Y-77886766D01*
X176201960Y-77884838D01*
X176200586Y-77881350D01*
X176199715Y-77875136D01*
X176199467Y-77872803D01*
X176198719Y-77864544D01*
X176198223Y-77856943D01*
X176198103Y-77853037D01*
X176197573Y-77848416D01*
X176195179Y-77845779D01*
X176190230Y-77843882D01*
X176184938Y-77842733D01*
X176181577Y-77842876D01*
X176181208Y-77843155D01*
X176175865Y-77850428D01*
X176169932Y-77857632D01*
X176164143Y-77863974D01*
X176159230Y-77868662D01*
X176155925Y-77870904D01*
X176155475Y-77870990D01*
X176149279Y-77870416D01*
X176144922Y-77868215D01*
X176141813Y-77863667D01*
X176139365Y-77856054D01*
X176137939Y-77849568D01*
X176136148Y-77841384D01*
X176134451Y-77834868D01*
X176133136Y-77831086D01*
X176132824Y-77830610D01*
X176129765Y-77829251D01*
X176124780Y-77828005D01*
X176121612Y-77827647D01*
X176119055Y-77828374D01*
X176116417Y-77830830D01*
X176113007Y-77835655D01*
X176108164Y-77843445D01*
X176103344Y-77851244D01*
X176099988Y-77856066D01*
X176097356Y-77858551D01*
X176094702Y-77859339D01*
X176091285Y-77859069D01*
X176090212Y-77858909D01*
X176084734Y-77857810D01*
X176081282Y-77856617D01*
X176081008Y-77856422D01*
X176079784Y-77853910D01*
X176077761Y-77848372D01*
X176075311Y-77840852D01*
X176074489Y-77838171D01*
X176069379Y-77821232D01*
X176061039Y-77820649D01*
X176052700Y-77820066D01*
X176044900Y-77837059D01*
X176037100Y-77854051D01*
X176027863Y-77854051D01*
X176018626Y-77854051D01*
X176011252Y-77837054D01*
X176003878Y-77820057D01*
X175995472Y-77820645D01*
X175987066Y-77821232D01*
X175981346Y-77839230D01*
X175975626Y-77857227D01*
X175966402Y-77857843D01*
X175961422Y-77858027D01*
X175958090Y-77857236D01*
X175955314Y-77854698D01*
X175952001Y-77849636D01*
X175949966Y-77846198D01*
X175944770Y-77837595D01*
X175940935Y-77832102D01*
X175937799Y-77829105D01*
X175934702Y-77827990D01*
X175930983Y-77828143D01*
X175930590Y-77828199D01*
X175926564Y-77829189D01*
X175923710Y-77831290D01*
X175921603Y-77835288D01*
X175919818Y-77841969D01*
X175918060Y-77851356D01*
X175916612Y-77859241D01*
X175915246Y-77863968D01*
X175913354Y-77866555D01*
X175910327Y-77868024D01*
X175907643Y-77868812D01*
X175902290Y-77870213D01*
X175898904Y-77870947D01*
X175898588Y-77870978D01*
X175896903Y-77869467D01*
X175893359Y-77865531D01*
X175888713Y-77860077D01*
X175883723Y-77854013D01*
X175879146Y-77848248D01*
X175875740Y-77843690D01*
X175875369Y-77843155D01*
X175872804Y-77842622D01*
X175867909Y-77843433D01*
X175866614Y-77843800D01*
X175859007Y-77846129D01*
X175857148Y-77865163D01*
X175855290Y-77884196D01*
X175847156Y-77887417D01*
X175839021Y-77890638D01*
X175825450Y-77877221D01*
X175811879Y-77863804D01*
X175804795Y-77867174D01*
X175797710Y-77870544D01*
X175798549Y-77889294D01*
X175799388Y-77908044D01*
X175792673Y-77911750D01*
X175787628Y-77914224D01*
X175784065Y-77915432D01*
X175783779Y-77915455D01*
X175781205Y-77914214D01*
X175776285Y-77910913D01*
X175769946Y-77906188D01*
X175767917Y-77904596D01*
X175754236Y-77893736D01*
X175746920Y-77897666D01*
X175742294Y-77900162D01*
X175739765Y-77901548D01*
X175739604Y-77901644D01*
X175739972Y-77903583D01*
X175740949Y-77908692D01*
X175742346Y-77915981D01*
X175742788Y-77918288D01*
X175744541Y-77927419D01*
X175745454Y-77933357D01*
X175745373Y-77937087D01*
X175744143Y-77939597D01*
X175741610Y-77941871D01*
X175738760Y-77944018D01*
X175731548Y-77949505D01*
X175715481Y-77939775D01*
X175699415Y-77930045D01*
X175692976Y-77934794D01*
X175688836Y-77937915D01*
X175686642Y-77939701D01*
X175686537Y-77939830D01*
X175687102Y-77941840D01*
X175688610Y-77946966D01*
X175690785Y-77954269D01*
X175691844Y-77957802D01*
X175694222Y-77965790D01*
X175696049Y-77972043D01*
X175697046Y-77975604D01*
X175697150Y-77976066D01*
X175695633Y-77977574D01*
X175691820Y-77980679D01*
X175689962Y-77982113D01*
X175682773Y-77987582D01*
X175666082Y-77980229D01*
X175649390Y-77972877D01*
X175643702Y-77978298D01*
X175641082Y-77980860D01*
X175639616Y-77983094D01*
X175639413Y-77985855D01*
X175640582Y-77989997D01*
X175643232Y-77996377D01*
X175647103Y-78005026D01*
X175652620Y-78017312D01*
X175647038Y-78024611D01*
X175643557Y-78029047D01*
X175641349Y-78031636D01*
X175641022Y-78031911D01*
X175638938Y-78031347D01*
X175633740Y-78029840D01*
X175626381Y-78027667D01*
X175622857Y-78026617D01*
X175614855Y-78024245D01*
X175608597Y-78022423D01*
X175605041Y-78021428D01*
X175604584Y-78021324D01*
X175603134Y-78022861D01*
X175600239Y-78026660D01*
X175599499Y-78027687D01*
X175594957Y-78034050D01*
X175604479Y-78049695D01*
X175614002Y-78065340D01*
X175608801Y-78072975D01*
X175605233Y-78077639D01*
X175602413Y-78080340D01*
X175601740Y-78080610D01*
X175598896Y-78080235D01*
X175593035Y-78079241D01*
X175585304Y-78077826D01*
X175583448Y-78077474D01*
X175575137Y-78075969D01*
X175569970Y-78075373D01*
X175566937Y-78075714D01*
X175565030Y-78077020D01*
X175564214Y-78078003D01*
X175561224Y-78082635D01*
X175560332Y-78086797D01*
X175561759Y-78091459D01*
X175565726Y-78097589D01*
X175569907Y-78102990D01*
X175580947Y-78116829D01*
X175577061Y-78125425D01*
X175573175Y-78134021D01*
X175554277Y-78133120D01*
X175535379Y-78132219D01*
X175532001Y-78139286D01*
X175528623Y-78146352D01*
X175541788Y-78159602D01*
X175554953Y-78172852D01*
X175551517Y-78181577D01*
X175548081Y-78190302D01*
X175529310Y-78191784D01*
X175510540Y-78193266D01*
X175508077Y-78200711D01*
X175506823Y-78206417D01*
X175507542Y-78209442D01*
X175507611Y-78209492D01*
X175510148Y-78211382D01*
X175515028Y-78215157D01*
X175521277Y-78220062D01*
X175522407Y-78220955D01*
X175535206Y-78231082D01*
X175533075Y-78240369D01*
X175530945Y-78249656D01*
X175512870Y-78253001D01*
X175504687Y-78254562D01*
X175498304Y-78255868D01*
X175494711Y-78256713D01*
X175494273Y-78256878D01*
X175493581Y-78259098D01*
X175492555Y-78263863D01*
X175492373Y-78264821D01*
X175491842Y-78268430D01*
X175492288Y-78271115D01*
X175494360Y-78273621D01*
X175498709Y-78276694D01*
X175505983Y-78281078D01*
X175507139Y-78281760D01*
X175523284Y-78291289D01*
X175521907Y-78299758D01*
X175520720Y-78305470D01*
X175519464Y-78309228D01*
X175519157Y-78309702D01*
X175516600Y-78310993D01*
X175511063Y-78313087D01*
X175503634Y-78315576D01*
X175501864Y-78316134D01*
X175485944Y-78321091D01*
X175485429Y-78329481D01*
X175484914Y-78337871D01*
X175501879Y-78345718D01*
X175518845Y-78353566D01*
X175518845Y-78362288D01*
X175518845Y-78371010D01*
X175501810Y-78378790D01*
X175484775Y-78386570D01*
X175337581Y-78386570D01*
X175307696Y-78304220D01*
X175271236Y-78191787D01*
X175238410Y-78077382D01*
X175209250Y-77961067D01*
X175199632Y-77918631D01*
X175195950Y-77901623D01*
X175192045Y-77883049D01*
X175187996Y-77863332D01*
X175183883Y-77842896D01*
X175179786Y-77822164D01*
X175175785Y-77801560D01*
X175171958Y-77781507D01*
X175168386Y-77762428D01*
X175165149Y-77744747D01*
X175162326Y-77728888D01*
X175159996Y-77715273D01*
X175158240Y-77704327D01*
X175157138Y-77696472D01*
X175156768Y-77692132D01*
X175156881Y-77691414D01*
X175159336Y-77690609D01*
X175165567Y-77689113D01*
X175175174Y-77687003D01*
X175187757Y-77684358D01*
X175202919Y-77681256D01*
X175220260Y-77677773D01*
X175239379Y-77673989D01*
X175259879Y-77669982D01*
X175281359Y-77665828D01*
X175303421Y-77661607D01*
X175325665Y-77657395D01*
X175347693Y-77653272D01*
X175369104Y-77649314D01*
X175389500Y-77645600D01*
X175408481Y-77642208D01*
X175413773Y-77641276D01*
X175550956Y-77618461D01*
X175687543Y-77598259D01*
X175824090Y-77580617D01*
X175961153Y-77565482D01*
X176099289Y-77552802D01*
X176239054Y-77542522D01*
X176381003Y-77534590D01*
X176525694Y-77528952D01*
X176611495Y-77526704D01*
X176677829Y-77525267D01*
X176677829Y-78757873D01*
G37*
D12*
X193376582Y-85877500D02*
X193851098Y-85877500D01*
X193376582Y-86922500D02*
X193851098Y-86922500D01*
X190841340Y-79712258D02*
X190841340Y-79237742D01*
X191886340Y-79712258D02*
X191886340Y-79237742D01*
X188613840Y-81365000D02*
X187113840Y-81365000D01*
X188613840Y-81365000D02*
X190113840Y-81365000D01*
X188613840Y-84585000D02*
X187113840Y-84585000D01*
X188613840Y-84585000D02*
X190113840Y-84585000D01*
X186401340Y-81490000D02*
X186161340Y-81160000D01*
X186641340Y-81160000D01*
X186401340Y-81490000D01*
G36*
X186401340Y-81490000D02*
G01*
X186161340Y-81160000D01*
X186641340Y-81160000D01*
X186401340Y-81490000D01*
G37*
X193851098Y-84127500D02*
X193376582Y-84127500D01*
X193851098Y-85172500D02*
X193376582Y-85172500D01*
X188776098Y-85127500D02*
X188301582Y-85127500D01*
X188776098Y-86172500D02*
X188301582Y-86172500D01*
X192841340Y-79637258D02*
X192841340Y-79162742D01*
X193886340Y-79637258D02*
X193886340Y-79162742D01*
X188376582Y-79627500D02*
X188851098Y-79627500D01*
X188376582Y-80672500D02*
X188851098Y-80672500D01*
X193506004Y-81540000D02*
X193721676Y-81540000D01*
X193506004Y-82260000D02*
X193721676Y-82260000D01*
%LPC*%
D14*
X200750000Y-88850000D03*
D15*
X198750000Y-87250000D03*
D16*
X198750000Y-84750000D03*
X198750000Y-82250000D03*
X198750000Y-79750000D03*
D14*
X179000000Y-81650000D03*
D17*
X181000000Y-83250000D03*
D18*
X181000000Y-85750000D03*
D19*
X192788840Y-86400000D03*
X194438840Y-86400000D03*
D20*
X191363840Y-80300000D03*
X191363840Y-78650000D03*
D21*
X186501340Y-82000000D03*
X186501340Y-82650000D03*
X186501340Y-83300000D03*
X186501340Y-83950000D03*
X190726340Y-83950000D03*
X190726340Y-83300000D03*
X190726340Y-82650000D03*
X190726340Y-82000000D03*
D22*
X194438840Y-84650000D03*
X192788840Y-84650000D03*
X189363840Y-85650000D03*
X187713840Y-85650000D03*
D20*
X193363840Y-80225000D03*
X193363840Y-78575000D03*
D19*
X187788840Y-80150000D03*
X189438840Y-80150000D03*
D23*
X193133840Y-81900000D03*
X194093840Y-81900000D03*
%LPD*%
M02*
