M48
; DRILL file {KiCad 9.0.4} date 2026-03-13T05:19:23-0400
; FORMAT={-:-/ absolute / inch / decimal}
; #@! TF.CreationDate,2026-03-13T05:19:23-04:00
; #@! TF.GenerationSoftware,Kicad,Pcbnew,9.0.4
; #@! TF.FileFunction,Plated,1,4,PTH
FMAT,2
INCH
; #@! TA.AperFunction,Plated,PTH,ViaDrill
T1C0.0118
; #@! TA.AperFunction,Plated,PTH,ComponentDrill
T2C0.0472
%
G90
G05
T1
X3.9Y-3.5
X3.9134Y-3.2087
X4.1402Y-3.4303
X4.1457Y-3.2638
X4.1949Y-3.3024
X4.2012Y-3.363
X4.2016Y-3.4681
X4.3406Y-3.3661
X4.4085Y-3.4163
X4.4303Y-3.1799
X4.452Y-3.1819
X4.4905Y-3.3764
X4.5039Y-3.1811
X4.5086Y-3.3945
X4.511Y-3.299
X4.5276Y-3.4764
X4.529Y-3.281
X4.5433Y-3.1799
X4.5669Y-3.18
X4.6087Y-3.1768
X4.623Y-3.1289
X4.6335Y-3.1787
X4.6547Y-3.4102
X4.6772Y-3.3199
X4.7146Y-3.3661
X4.7165Y-3.2441
X4.8386Y-3.2776
X4.8839Y-3.3258
X4.9547Y-3.1683
X4.9675Y-3.3278
X5.1378Y-3.2451
T2
X4.0571Y-3.6112
X4.0571Y-3.6959
X4.1339Y-3.5866
X4.1339Y-3.7205
X4.9035Y-3.6112
X4.9035Y-3.6959
X4.9803Y-3.5866
X4.9803Y-3.7205
M30
