G04 #@! TF.GenerationSoftware,KiCad,Pcbnew,9.0.4*
G04 #@! TF.CreationDate,2025-11-13T19:43:41-05:00*
G04 #@! TF.ProjectId,TC_shuwen,54435f73-6875-4776-956e-2e6b69636164,rev?*
G04 #@! TF.SameCoordinates,Original*
G04 #@! TF.FileFunction,Copper,L1,Top*
G04 #@! TF.FilePolarity,Positive*
%FSLAX46Y46*%
G04 Gerber Fmt 4.6, Leading zero omitted, Abs format (unit mm)*
G04 Created by KiCad (PCBNEW 9.0.4) date 2025-11-13 19:43:41*
%MOMM*%
%LPD*%
G01*
G04 APERTURE LIST*
G04 Aperture macros list*
%AMRoundRect*
0 Rectangle with rounded corners*
0 $1 Rounding radius*
0 $2 $3 $4 $5 $6 $7 $8 $9 X,Y pos of 4 corners*
0 Add a 4 corners polygon primitive as box body*
4,1,4,$2,$3,$4,$5,$6,$7,$8,$9,$2,$3,0*
0 Add four circle primitives for the rounded corners*
1,1,$1+$1,$2,$3*
1,1,$1+$1,$4,$5*
1,1,$1+$1,$6,$7*
1,1,$1+$1,$8,$9*
0 Add four rect primitives between the rounded corners*
20,1,$1+$1,$2,$3,$4,$5,0*
20,1,$1+$1,$4,$5,$6,$7,0*
20,1,$1+$1,$6,$7,$8,$9,0*
20,1,$1+$1,$8,$9,$2,$3,0*%
G04 Aperture macros list end*
G04 #@! TA.AperFunction,SMDPad,CuDef*
%ADD10RoundRect,0.135000X-0.135000X-0.185000X0.135000X-0.185000X0.135000X0.185000X-0.135000X0.185000X0*%
G04 #@! TD*
G04 #@! TA.AperFunction,ComponentPad*
%ADD11RoundRect,0.250000X0.725000X-0.600000X0.725000X0.600000X-0.725000X0.600000X-0.725000X-0.600000X0*%
G04 #@! TD*
G04 #@! TA.AperFunction,ComponentPad*
%ADD12O,1.950000X1.700000*%
G04 #@! TD*
G04 #@! TA.AperFunction,SMDPad,CuDef*
%ADD13RoundRect,0.135000X0.135000X0.185000X-0.135000X0.185000X-0.135000X-0.185000X0.135000X-0.185000X0*%
G04 #@! TD*
G04 #@! TA.AperFunction,ComponentPad*
%ADD14RoundRect,0.250000X-0.750000X0.600000X-0.750000X-0.600000X0.750000X-0.600000X0.750000X0.600000X0*%
G04 #@! TD*
G04 #@! TA.AperFunction,ComponentPad*
%ADD15O,2.000000X1.700000*%
G04 #@! TD*
G04 #@! TA.AperFunction,SMDPad,CuDef*
%ADD16RoundRect,0.140000X-0.170000X0.140000X-0.170000X-0.140000X0.170000X-0.140000X0.170000X0.140000X0*%
G04 #@! TD*
G04 #@! TA.AperFunction,SMDPad,CuDef*
%ADD17RoundRect,0.125000X-0.687500X-0.125000X0.687500X-0.125000X0.687500X0.125000X-0.687500X0.125000X0*%
G04 #@! TD*
G04 #@! TA.AperFunction,ViaPad*
%ADD18C,0.600000*%
G04 #@! TD*
G04 #@! TA.AperFunction,Conductor*
%ADD19C,0.200000*%
G04 #@! TD*
G04 APERTURE END LIST*
D10*
X129303000Y-82335600D03*
X130323000Y-82335600D03*
X135803000Y-81835600D03*
X136823000Y-81835600D03*
D11*
X142500000Y-82750000D03*
D12*
X142500000Y-80250000D03*
X142500000Y-77750000D03*
X142500000Y-75250000D03*
D13*
X136349400Y-80607600D03*
X135329400Y-80607600D03*
D10*
X132230600Y-75324400D03*
X133250600Y-75324400D03*
D14*
X123750000Y-78000000D03*
D15*
X123750000Y-80500000D03*
D13*
X130323000Y-80835600D03*
X129303000Y-80835600D03*
D16*
X136601400Y-76899200D03*
X136601400Y-77859200D03*
D17*
X130547600Y-76950000D03*
X130547600Y-77600000D03*
X130547600Y-78250000D03*
X130547600Y-78900000D03*
X134772600Y-78900000D03*
X134772600Y-78250000D03*
X134772600Y-77600000D03*
X134772600Y-76950000D03*
D18*
X139813000Y-80335600D03*
X136313000Y-78835600D03*
X139813000Y-82335600D03*
X131313000Y-82335600D03*
X130313000Y-79835600D03*
X136813000Y-75835600D03*
X137813000Y-81335600D03*
D19*
X139207000Y-77750000D02*
X136349400Y-80607600D01*
X142500000Y-77750000D02*
X139207000Y-77750000D01*
X139210600Y-75250000D02*
X136601400Y-77859200D01*
X133558600Y-77600000D02*
X130323000Y-80835600D01*
X136838150Y-77600000D02*
X133558600Y-77600000D01*
X142500000Y-75250000D02*
X139210600Y-75250000D01*
X134772600Y-78250000D02*
X135727400Y-78250000D01*
X139898600Y-80250000D02*
X139813000Y-80335600D01*
X135727400Y-78250000D02*
X136313000Y-78835600D01*
X142500000Y-80250000D02*
X139898600Y-80250000D01*
X136601400Y-76899200D02*
X136601400Y-76047200D01*
X130323000Y-82335600D02*
X131313000Y-82335600D01*
X130547600Y-79601000D02*
X130313000Y-79835600D01*
X140227400Y-82750000D02*
X139813000Y-82335600D01*
X136601400Y-76047200D02*
X136813000Y-75835600D01*
X142500000Y-82750000D02*
X140227400Y-82750000D01*
X136823000Y-81835600D02*
X137313000Y-81835600D01*
X130547600Y-78900000D02*
X130547600Y-79601000D01*
X137313000Y-81835600D02*
X137813000Y-81335600D01*
X129735101Y-78250000D02*
X130547600Y-78250000D01*
X128967400Y-80500000D02*
X129303000Y-80835600D01*
X129303000Y-80835600D02*
X129303000Y-82335600D01*
X128967400Y-80500000D02*
X128967400Y-79017701D01*
X123750000Y-80500000D02*
X128967400Y-80500000D01*
X128967400Y-79017701D02*
X129735101Y-78250000D01*
X123750000Y-78000000D02*
X124150000Y-77600000D01*
X124150000Y-77600000D02*
X130547600Y-77600000D01*
X135329400Y-80607600D02*
X135329400Y-81362000D01*
X135329400Y-81362000D02*
X135803000Y-81835600D01*
X134772600Y-78900000D02*
X134772600Y-80050800D01*
X134772600Y-80050800D02*
X135329400Y-80607600D01*
X132173200Y-75324400D02*
X130547600Y-76950000D01*
X132230600Y-75324400D02*
X132173200Y-75324400D01*
X133250600Y-75428000D02*
X134772600Y-76950000D01*
X133250600Y-75324400D02*
X133250600Y-75428000D01*
M02*
