G04 #@! TF.GenerationSoftware,KiCad,Pcbnew,9.0.4*
G04 #@! TF.CreationDate,2025-12-21T16:37:14-05:00*
G04 #@! TF.ProjectId,TC_shuwen,54435f73-6875-4776-956e-2e6b69636164,rev?*
G04 #@! TF.SameCoordinates,Original*
G04 #@! TF.FileFunction,Legend,Top*
G04 #@! TF.FilePolarity,Positive*
%FSLAX46Y46*%
G04 Gerber Fmt 4.6, Leading zero omitted, Abs format (unit mm)*
G04 Created by KiCad (PCBNEW 9.0.4) date 2025-12-21 16:37:14*
%MOMM*%
%LPD*%
G01*
G04 APERTURE LIST*
G04 Aperture macros list*
%AMRoundRect*
0 Rectangle with rounded corners*
0 $1 Rounding radius*
0 $2 $3 $4 $5 $6 $7 $8 $9 X,Y pos of 4 corners*
0 Add a 4 corners polygon primitive as box body*
4,1,4,$2,$3,$4,$5,$6,$7,$8,$9,$2,$3,0*
0 Add four circle primitives for the rounded corners*
1,1,$1+$1,$2,$3*
1,1,$1+$1,$4,$5*
1,1,$1+$1,$6,$7*
1,1,$1+$1,$8,$9*
0 Add four rect primitives between the rounded corners*
20,1,$1+$1,$2,$3,$4,$5,0*
20,1,$1+$1,$4,$5,$6,$7,0*
20,1,$1+$1,$6,$7,$8,$9,0*
20,1,$1+$1,$8,$9,$2,$3,0*%
G04 Aperture macros list end*
%ADD10C,0.200000*%
%ADD11C,0.140000*%
%ADD12C,0.215000*%
%ADD13C,0.150000*%
%ADD14C,0.120000*%
%ADD15C,0.000000*%
%ADD16RoundRect,0.135000X-0.135000X-0.185000X0.135000X-0.185000X0.135000X0.185000X-0.135000X0.185000X0*%
%ADD17C,1.200000*%
%ADD18RoundRect,0.250000X0.725000X-0.600000X0.725000X0.600000X-0.725000X0.600000X-0.725000X-0.600000X0*%
%ADD19O,1.950000X1.700000*%
%ADD20RoundRect,0.135000X0.135000X0.185000X-0.135000X0.185000X-0.135000X-0.185000X0.135000X-0.185000X0*%
%ADD21RoundRect,0.250000X-0.750000X0.600000X-0.750000X-0.600000X0.750000X-0.600000X0.750000X0.600000X0*%
%ADD22O,2.000000X1.700000*%
%ADD23RoundRect,0.140000X-0.170000X0.140000X-0.170000X-0.140000X0.170000X-0.140000X0.170000X0.140000X0*%
%ADD24RoundRect,0.125000X-0.687500X-0.125000X0.687500X-0.125000X0.687500X0.125000X-0.687500X0.125000X0*%
G04 APERTURE END LIST*
D10*
X135869673Y-87343409D02*
X136203006Y-87343409D01*
X136345863Y-87867219D02*
X135869673Y-87867219D01*
X135869673Y-87867219D02*
X135869673Y-86867219D01*
X135869673Y-86867219D02*
X136345863Y-86867219D01*
X136774435Y-87867219D02*
X136774435Y-87200552D01*
X136774435Y-87295790D02*
X136822054Y-87248171D01*
X136822054Y-87248171D02*
X136917292Y-87200552D01*
X136917292Y-87200552D02*
X137060149Y-87200552D01*
X137060149Y-87200552D02*
X137155387Y-87248171D01*
X137155387Y-87248171D02*
X137203006Y-87343409D01*
X137203006Y-87343409D02*
X137203006Y-87867219D01*
X137203006Y-87343409D02*
X137250625Y-87248171D01*
X137250625Y-87248171D02*
X137345863Y-87200552D01*
X137345863Y-87200552D02*
X137488720Y-87200552D01*
X137488720Y-87200552D02*
X137583959Y-87248171D01*
X137583959Y-87248171D02*
X137631578Y-87343409D01*
X137631578Y-87343409D02*
X137631578Y-87867219D01*
X138107768Y-87867219D02*
X138107768Y-87200552D01*
X138107768Y-87295790D02*
X138155387Y-87248171D01*
X138155387Y-87248171D02*
X138250625Y-87200552D01*
X138250625Y-87200552D02*
X138393482Y-87200552D01*
X138393482Y-87200552D02*
X138488720Y-87248171D01*
X138488720Y-87248171D02*
X138536339Y-87343409D01*
X138536339Y-87343409D02*
X138536339Y-87867219D01*
X138536339Y-87343409D02*
X138583958Y-87248171D01*
X138583958Y-87248171D02*
X138679196Y-87200552D01*
X138679196Y-87200552D02*
X138822053Y-87200552D01*
X138822053Y-87200552D02*
X138917292Y-87248171D01*
X138917292Y-87248171D02*
X138964911Y-87343409D01*
X138964911Y-87343409D02*
X138964911Y-87867219D01*
X139869672Y-87867219D02*
X139869672Y-87343409D01*
X139869672Y-87343409D02*
X139822053Y-87248171D01*
X139822053Y-87248171D02*
X139726815Y-87200552D01*
X139726815Y-87200552D02*
X139536339Y-87200552D01*
X139536339Y-87200552D02*
X139441101Y-87248171D01*
X139869672Y-87819600D02*
X139774434Y-87867219D01*
X139774434Y-87867219D02*
X139536339Y-87867219D01*
X139536339Y-87867219D02*
X139441101Y-87819600D01*
X139441101Y-87819600D02*
X139393482Y-87724361D01*
X139393482Y-87724361D02*
X139393482Y-87629123D01*
X139393482Y-87629123D02*
X139441101Y-87533885D01*
X139441101Y-87533885D02*
X139536339Y-87486266D01*
X139536339Y-87486266D02*
X139774434Y-87486266D01*
X139774434Y-87486266D02*
X139869672Y-87438647D01*
X141298244Y-86867219D02*
X141488720Y-86867219D01*
X141488720Y-86867219D02*
X141583958Y-86914838D01*
X141583958Y-86914838D02*
X141679196Y-87010076D01*
X141679196Y-87010076D02*
X141726815Y-87200552D01*
X141726815Y-87200552D02*
X141726815Y-87533885D01*
X141726815Y-87533885D02*
X141679196Y-87724361D01*
X141679196Y-87724361D02*
X141583958Y-87819600D01*
X141583958Y-87819600D02*
X141488720Y-87867219D01*
X141488720Y-87867219D02*
X141298244Y-87867219D01*
X141298244Y-87867219D02*
X141203006Y-87819600D01*
X141203006Y-87819600D02*
X141107768Y-87724361D01*
X141107768Y-87724361D02*
X141060149Y-87533885D01*
X141060149Y-87533885D02*
X141060149Y-87200552D01*
X141060149Y-87200552D02*
X141107768Y-87010076D01*
X141107768Y-87010076D02*
X141203006Y-86914838D01*
X141203006Y-86914838D02*
X141298244Y-86867219D01*
X142583958Y-87200552D02*
X142583958Y-87867219D01*
X142155387Y-87200552D02*
X142155387Y-87724361D01*
X142155387Y-87724361D02*
X142203006Y-87819600D01*
X142203006Y-87819600D02*
X142298244Y-87867219D01*
X142298244Y-87867219D02*
X142441101Y-87867219D01*
X142441101Y-87867219D02*
X142536339Y-87819600D01*
X142536339Y-87819600D02*
X142583958Y-87771980D01*
X142964911Y-87200552D02*
X143203006Y-87867219D01*
X143441101Y-87200552D02*
X143203006Y-87867219D01*
X143203006Y-87867219D02*
X143107768Y-88105314D01*
X143107768Y-88105314D02*
X143060149Y-88152933D01*
X143060149Y-88152933D02*
X142964911Y-88200552D01*
X144250625Y-87867219D02*
X144250625Y-87343409D01*
X144250625Y-87343409D02*
X144203006Y-87248171D01*
X144203006Y-87248171D02*
X144107768Y-87200552D01*
X144107768Y-87200552D02*
X143917292Y-87200552D01*
X143917292Y-87200552D02*
X143822054Y-87248171D01*
X144250625Y-87819600D02*
X144155387Y-87867219D01*
X144155387Y-87867219D02*
X143917292Y-87867219D01*
X143917292Y-87867219D02*
X143822054Y-87819600D01*
X143822054Y-87819600D02*
X143774435Y-87724361D01*
X143774435Y-87724361D02*
X143774435Y-87629123D01*
X143774435Y-87629123D02*
X143822054Y-87533885D01*
X143822054Y-87533885D02*
X143917292Y-87486266D01*
X143917292Y-87486266D02*
X144155387Y-87486266D01*
X144155387Y-87486266D02*
X144250625Y-87438647D01*
X144726816Y-87200552D02*
X144726816Y-87867219D01*
X144726816Y-87295790D02*
X144774435Y-87248171D01*
X144774435Y-87248171D02*
X144869673Y-87200552D01*
X144869673Y-87200552D02*
X145012530Y-87200552D01*
X145012530Y-87200552D02*
X145107768Y-87248171D01*
X145107768Y-87248171D02*
X145155387Y-87343409D01*
X145155387Y-87343409D02*
X145155387Y-87867219D01*
X146060149Y-87200552D02*
X146060149Y-88010076D01*
X146060149Y-88010076D02*
X146012530Y-88105314D01*
X146012530Y-88105314D02*
X145964911Y-88152933D01*
X145964911Y-88152933D02*
X145869673Y-88200552D01*
X145869673Y-88200552D02*
X145726816Y-88200552D01*
X145726816Y-88200552D02*
X145631578Y-88152933D01*
X146060149Y-87819600D02*
X145964911Y-87867219D01*
X145964911Y-87867219D02*
X145774435Y-87867219D01*
X145774435Y-87867219D02*
X145679197Y-87819600D01*
X145679197Y-87819600D02*
X145631578Y-87771980D01*
X145631578Y-87771980D02*
X145583959Y-87676742D01*
X145583959Y-87676742D02*
X145583959Y-87391028D01*
X145583959Y-87391028D02*
X145631578Y-87295790D01*
X145631578Y-87295790D02*
X145679197Y-87248171D01*
X145679197Y-87248171D02*
X145774435Y-87200552D01*
X145774435Y-87200552D02*
X145964911Y-87200552D01*
X145964911Y-87200552D02*
X146060149Y-87248171D01*
X119869673Y-87867219D02*
X119869673Y-86867219D01*
X120441101Y-87867219D02*
X120012530Y-87295790D01*
X120441101Y-86867219D02*
X119869673Y-87438647D01*
X121250625Y-87819600D02*
X121155387Y-87867219D01*
X121155387Y-87867219D02*
X120964911Y-87867219D01*
X120964911Y-87867219D02*
X120869673Y-87819600D01*
X120869673Y-87819600D02*
X120822054Y-87724361D01*
X120822054Y-87724361D02*
X120822054Y-87343409D01*
X120822054Y-87343409D02*
X120869673Y-87248171D01*
X120869673Y-87248171D02*
X120964911Y-87200552D01*
X120964911Y-87200552D02*
X121155387Y-87200552D01*
X121155387Y-87200552D02*
X121250625Y-87248171D01*
X121250625Y-87248171D02*
X121298244Y-87343409D01*
X121298244Y-87343409D02*
X121298244Y-87438647D01*
X121298244Y-87438647D02*
X120822054Y-87533885D01*
X121726816Y-87200552D02*
X121726816Y-87867219D01*
X121726816Y-87295790D02*
X121774435Y-87248171D01*
X121774435Y-87248171D02*
X121869673Y-87200552D01*
X121869673Y-87200552D02*
X122012530Y-87200552D01*
X122012530Y-87200552D02*
X122107768Y-87248171D01*
X122107768Y-87248171D02*
X122155387Y-87343409D01*
X122155387Y-87343409D02*
X122155387Y-87867219D01*
X122488721Y-87200552D02*
X122869673Y-87200552D01*
X122631578Y-86867219D02*
X122631578Y-87724361D01*
X122631578Y-87724361D02*
X122679197Y-87819600D01*
X122679197Y-87819600D02*
X122774435Y-87867219D01*
X122774435Y-87867219D02*
X122869673Y-87867219D01*
X123869674Y-86867219D02*
X124536340Y-86867219D01*
X124536340Y-86867219D02*
X123869674Y-87867219D01*
X123869674Y-87867219D02*
X124536340Y-87867219D01*
X124917293Y-87867219D02*
X124917293Y-86867219D01*
X125345864Y-87867219D02*
X125345864Y-87343409D01*
X125345864Y-87343409D02*
X125298245Y-87248171D01*
X125298245Y-87248171D02*
X125203007Y-87200552D01*
X125203007Y-87200552D02*
X125060150Y-87200552D01*
X125060150Y-87200552D02*
X124964912Y-87248171D01*
X124964912Y-87248171D02*
X124917293Y-87295790D01*
X126250626Y-87867219D02*
X126250626Y-87343409D01*
X126250626Y-87343409D02*
X126203007Y-87248171D01*
X126203007Y-87248171D02*
X126107769Y-87200552D01*
X126107769Y-87200552D02*
X125917293Y-87200552D01*
X125917293Y-87200552D02*
X125822055Y-87248171D01*
X126250626Y-87819600D02*
X126155388Y-87867219D01*
X126155388Y-87867219D02*
X125917293Y-87867219D01*
X125917293Y-87867219D02*
X125822055Y-87819600D01*
X125822055Y-87819600D02*
X125774436Y-87724361D01*
X125774436Y-87724361D02*
X125774436Y-87629123D01*
X125774436Y-87629123D02*
X125822055Y-87533885D01*
X125822055Y-87533885D02*
X125917293Y-87486266D01*
X125917293Y-87486266D02*
X126155388Y-87486266D01*
X126155388Y-87486266D02*
X126250626Y-87438647D01*
X126726817Y-87200552D02*
X126726817Y-87867219D01*
X126726817Y-87295790D02*
X126774436Y-87248171D01*
X126774436Y-87248171D02*
X126869674Y-87200552D01*
X126869674Y-87200552D02*
X127012531Y-87200552D01*
X127012531Y-87200552D02*
X127107769Y-87248171D01*
X127107769Y-87248171D02*
X127155388Y-87343409D01*
X127155388Y-87343409D02*
X127155388Y-87867219D01*
X128060150Y-87200552D02*
X128060150Y-88010076D01*
X128060150Y-88010076D02*
X128012531Y-88105314D01*
X128012531Y-88105314D02*
X127964912Y-88152933D01*
X127964912Y-88152933D02*
X127869674Y-88200552D01*
X127869674Y-88200552D02*
X127726817Y-88200552D01*
X127726817Y-88200552D02*
X127631579Y-88152933D01*
X128060150Y-87819600D02*
X127964912Y-87867219D01*
X127964912Y-87867219D02*
X127774436Y-87867219D01*
X127774436Y-87867219D02*
X127679198Y-87819600D01*
X127679198Y-87819600D02*
X127631579Y-87771980D01*
X127631579Y-87771980D02*
X127583960Y-87676742D01*
X127583960Y-87676742D02*
X127583960Y-87391028D01*
X127583960Y-87391028D02*
X127631579Y-87295790D01*
X127631579Y-87295790D02*
X127679198Y-87248171D01*
X127679198Y-87248171D02*
X127774436Y-87200552D01*
X127774436Y-87200552D02*
X127964912Y-87200552D01*
X127964912Y-87200552D02*
X128060150Y-87248171D01*
D11*
X142625438Y-85740386D02*
X142558771Y-85707053D01*
X142558771Y-85707053D02*
X142458771Y-85707053D01*
X142458771Y-85707053D02*
X142358771Y-85740386D01*
X142358771Y-85740386D02*
X142292105Y-85807053D01*
X142292105Y-85807053D02*
X142258771Y-85873720D01*
X142258771Y-85873720D02*
X142225438Y-86007053D01*
X142225438Y-86007053D02*
X142225438Y-86107053D01*
X142225438Y-86107053D02*
X142258771Y-86240386D01*
X142258771Y-86240386D02*
X142292105Y-86307053D01*
X142292105Y-86307053D02*
X142358771Y-86373720D01*
X142358771Y-86373720D02*
X142458771Y-86407053D01*
X142458771Y-86407053D02*
X142525438Y-86407053D01*
X142525438Y-86407053D02*
X142625438Y-86373720D01*
X142625438Y-86373720D02*
X142658771Y-86340386D01*
X142658771Y-86340386D02*
X142658771Y-86107053D01*
X142658771Y-86107053D02*
X142525438Y-86107053D01*
X142958771Y-86040386D02*
X143492105Y-86040386D01*
X143492105Y-86240386D02*
X142958771Y-86240386D01*
X143758772Y-85707053D02*
X144225438Y-85707053D01*
X144225438Y-85707053D02*
X143925438Y-86407053D01*
X144425439Y-85707053D02*
X144858772Y-85707053D01*
X144858772Y-85707053D02*
X144625439Y-85973720D01*
X144625439Y-85973720D02*
X144725439Y-85973720D01*
X144725439Y-85973720D02*
X144792105Y-86007053D01*
X144792105Y-86007053D02*
X144825439Y-86040386D01*
X144825439Y-86040386D02*
X144858772Y-86107053D01*
X144858772Y-86107053D02*
X144858772Y-86273720D01*
X144858772Y-86273720D02*
X144825439Y-86340386D01*
X144825439Y-86340386D02*
X144792105Y-86373720D01*
X144792105Y-86373720D02*
X144725439Y-86407053D01*
X144725439Y-86407053D02*
X144525439Y-86407053D01*
X144525439Y-86407053D02*
X144458772Y-86373720D01*
X144458772Y-86373720D02*
X144425439Y-86340386D01*
X145525439Y-86407053D02*
X145125439Y-86407053D01*
X145325439Y-86407053D02*
X145325439Y-85707053D01*
X145325439Y-85707053D02*
X145258772Y-85807053D01*
X145258772Y-85807053D02*
X145192106Y-85873720D01*
X145192106Y-85873720D02*
X145125439Y-85907053D01*
X145758773Y-86407053D02*
X146125439Y-85940386D01*
X145758773Y-85940386D02*
X146125439Y-86407053D01*
D12*
X124712875Y-70482685D02*
X124855732Y-70530304D01*
X124855732Y-70530304D02*
X124903351Y-70577923D01*
X124903351Y-70577923D02*
X124950970Y-70673161D01*
X124950970Y-70673161D02*
X124950970Y-70816018D01*
X124950970Y-70816018D02*
X124903351Y-70911256D01*
X124903351Y-70911256D02*
X124855732Y-70958876D01*
X124855732Y-70958876D02*
X124760494Y-71006495D01*
X124760494Y-71006495D02*
X124379542Y-71006495D01*
X124379542Y-71006495D02*
X124379542Y-70006495D01*
X124379542Y-70006495D02*
X124712875Y-70006495D01*
X124712875Y-70006495D02*
X124808113Y-70054114D01*
X124808113Y-70054114D02*
X124855732Y-70101733D01*
X124855732Y-70101733D02*
X124903351Y-70196971D01*
X124903351Y-70196971D02*
X124903351Y-70292209D01*
X124903351Y-70292209D02*
X124855732Y-70387447D01*
X124855732Y-70387447D02*
X124808113Y-70435066D01*
X124808113Y-70435066D02*
X124712875Y-70482685D01*
X124712875Y-70482685D02*
X124379542Y-70482685D01*
X125522399Y-71006495D02*
X125427161Y-70958876D01*
X125427161Y-70958876D02*
X125379542Y-70863637D01*
X125379542Y-70863637D02*
X125379542Y-70006495D01*
X126331923Y-70339828D02*
X126331923Y-71006495D01*
X125903352Y-70339828D02*
X125903352Y-70863637D01*
X125903352Y-70863637D02*
X125950971Y-70958876D01*
X125950971Y-70958876D02*
X126046209Y-71006495D01*
X126046209Y-71006495D02*
X126189066Y-71006495D01*
X126189066Y-71006495D02*
X126284304Y-70958876D01*
X126284304Y-70958876D02*
X126331923Y-70911256D01*
X127189066Y-70958876D02*
X127093828Y-71006495D01*
X127093828Y-71006495D02*
X126903352Y-71006495D01*
X126903352Y-71006495D02*
X126808114Y-70958876D01*
X126808114Y-70958876D02*
X126760495Y-70863637D01*
X126760495Y-70863637D02*
X126760495Y-70482685D01*
X126760495Y-70482685D02*
X126808114Y-70387447D01*
X126808114Y-70387447D02*
X126903352Y-70339828D01*
X126903352Y-70339828D02*
X127093828Y-70339828D01*
X127093828Y-70339828D02*
X127189066Y-70387447D01*
X127189066Y-70387447D02*
X127236685Y-70482685D01*
X127236685Y-70482685D02*
X127236685Y-70577923D01*
X127236685Y-70577923D02*
X126760495Y-70673161D01*
X128712876Y-70006495D02*
X128712876Y-70720780D01*
X128712876Y-70720780D02*
X128665257Y-70863637D01*
X128665257Y-70863637D02*
X128570019Y-70958876D01*
X128570019Y-70958876D02*
X128427162Y-71006495D01*
X128427162Y-71006495D02*
X128331924Y-71006495D01*
X129617638Y-71006495D02*
X129617638Y-70482685D01*
X129617638Y-70482685D02*
X129570019Y-70387447D01*
X129570019Y-70387447D02*
X129474781Y-70339828D01*
X129474781Y-70339828D02*
X129284305Y-70339828D01*
X129284305Y-70339828D02*
X129189067Y-70387447D01*
X129617638Y-70958876D02*
X129522400Y-71006495D01*
X129522400Y-71006495D02*
X129284305Y-71006495D01*
X129284305Y-71006495D02*
X129189067Y-70958876D01*
X129189067Y-70958876D02*
X129141448Y-70863637D01*
X129141448Y-70863637D02*
X129141448Y-70768399D01*
X129141448Y-70768399D02*
X129189067Y-70673161D01*
X129189067Y-70673161D02*
X129284305Y-70625542D01*
X129284305Y-70625542D02*
X129522400Y-70625542D01*
X129522400Y-70625542D02*
X129617638Y-70577923D01*
X129998591Y-70339828D02*
X130236686Y-71006495D01*
X130474781Y-70339828D02*
X130236686Y-71006495D01*
X130236686Y-71006495D02*
X130141448Y-71244590D01*
X130141448Y-71244590D02*
X130093829Y-71292209D01*
X130093829Y-71292209D02*
X129998591Y-71339828D01*
X132189067Y-71006495D02*
X131855734Y-70530304D01*
X131617639Y-71006495D02*
X131617639Y-70006495D01*
X131617639Y-70006495D02*
X131998591Y-70006495D01*
X131998591Y-70006495D02*
X132093829Y-70054114D01*
X132093829Y-70054114D02*
X132141448Y-70101733D01*
X132141448Y-70101733D02*
X132189067Y-70196971D01*
X132189067Y-70196971D02*
X132189067Y-70339828D01*
X132189067Y-70339828D02*
X132141448Y-70435066D01*
X132141448Y-70435066D02*
X132093829Y-70482685D01*
X132093829Y-70482685D02*
X131998591Y-70530304D01*
X131998591Y-70530304D02*
X131617639Y-70530304D01*
X133046210Y-71006495D02*
X133046210Y-70482685D01*
X133046210Y-70482685D02*
X132998591Y-70387447D01*
X132998591Y-70387447D02*
X132903353Y-70339828D01*
X132903353Y-70339828D02*
X132712877Y-70339828D01*
X132712877Y-70339828D02*
X132617639Y-70387447D01*
X133046210Y-70958876D02*
X132950972Y-71006495D01*
X132950972Y-71006495D02*
X132712877Y-71006495D01*
X132712877Y-71006495D02*
X132617639Y-70958876D01*
X132617639Y-70958876D02*
X132570020Y-70863637D01*
X132570020Y-70863637D02*
X132570020Y-70768399D01*
X132570020Y-70768399D02*
X132617639Y-70673161D01*
X132617639Y-70673161D02*
X132712877Y-70625542D01*
X132712877Y-70625542D02*
X132950972Y-70625542D01*
X132950972Y-70625542D02*
X133046210Y-70577923D01*
X133950972Y-70958876D02*
X133855734Y-71006495D01*
X133855734Y-71006495D02*
X133665258Y-71006495D01*
X133665258Y-71006495D02*
X133570020Y-70958876D01*
X133570020Y-70958876D02*
X133522401Y-70911256D01*
X133522401Y-70911256D02*
X133474782Y-70816018D01*
X133474782Y-70816018D02*
X133474782Y-70530304D01*
X133474782Y-70530304D02*
X133522401Y-70435066D01*
X133522401Y-70435066D02*
X133570020Y-70387447D01*
X133570020Y-70387447D02*
X133665258Y-70339828D01*
X133665258Y-70339828D02*
X133855734Y-70339828D01*
X133855734Y-70339828D02*
X133950972Y-70387447D01*
X134379544Y-71006495D02*
X134379544Y-70339828D01*
X134379544Y-70006495D02*
X134331925Y-70054114D01*
X134331925Y-70054114D02*
X134379544Y-70101733D01*
X134379544Y-70101733D02*
X134427163Y-70054114D01*
X134427163Y-70054114D02*
X134379544Y-70006495D01*
X134379544Y-70006495D02*
X134379544Y-70101733D01*
X134855734Y-70339828D02*
X134855734Y-71006495D01*
X134855734Y-70435066D02*
X134903353Y-70387447D01*
X134903353Y-70387447D02*
X134998591Y-70339828D01*
X134998591Y-70339828D02*
X135141448Y-70339828D01*
X135141448Y-70339828D02*
X135236686Y-70387447D01*
X135236686Y-70387447D02*
X135284305Y-70482685D01*
X135284305Y-70482685D02*
X135284305Y-71006495D01*
X136189067Y-70339828D02*
X136189067Y-71149352D01*
X136189067Y-71149352D02*
X136141448Y-71244590D01*
X136141448Y-71244590D02*
X136093829Y-71292209D01*
X136093829Y-71292209D02*
X135998591Y-71339828D01*
X135998591Y-71339828D02*
X135855734Y-71339828D01*
X135855734Y-71339828D02*
X135760496Y-71292209D01*
X136189067Y-70958876D02*
X136093829Y-71006495D01*
X136093829Y-71006495D02*
X135903353Y-71006495D01*
X135903353Y-71006495D02*
X135808115Y-70958876D01*
X135808115Y-70958876D02*
X135760496Y-70911256D01*
X135760496Y-70911256D02*
X135712877Y-70816018D01*
X135712877Y-70816018D02*
X135712877Y-70530304D01*
X135712877Y-70530304D02*
X135760496Y-70435066D01*
X135760496Y-70435066D02*
X135808115Y-70387447D01*
X135808115Y-70387447D02*
X135903353Y-70339828D01*
X135903353Y-70339828D02*
X136093829Y-70339828D01*
X136093829Y-70339828D02*
X136189067Y-70387447D01*
X138046210Y-70530304D02*
X137998591Y-70482685D01*
X137998591Y-70482685D02*
X137903353Y-70435066D01*
X137903353Y-70435066D02*
X137808115Y-70435066D01*
X137808115Y-70435066D02*
X137712877Y-70482685D01*
X137712877Y-70482685D02*
X137665258Y-70530304D01*
X137665258Y-70530304D02*
X137617639Y-70625542D01*
X137617639Y-70625542D02*
X137617639Y-70720780D01*
X137617639Y-70720780D02*
X137665258Y-70816018D01*
X137665258Y-70816018D02*
X137712877Y-70863637D01*
X137712877Y-70863637D02*
X137808115Y-70911256D01*
X137808115Y-70911256D02*
X137903353Y-70911256D01*
X137903353Y-70911256D02*
X137998591Y-70863637D01*
X137998591Y-70863637D02*
X138046210Y-70816018D01*
X138046210Y-70435066D02*
X138046210Y-70816018D01*
X138046210Y-70816018D02*
X138093829Y-70863637D01*
X138093829Y-70863637D02*
X138141448Y-70863637D01*
X138141448Y-70863637D02*
X138236687Y-70816018D01*
X138236687Y-70816018D02*
X138284306Y-70720780D01*
X138284306Y-70720780D02*
X138284306Y-70482685D01*
X138284306Y-70482685D02*
X138189068Y-70339828D01*
X138189068Y-70339828D02*
X138046210Y-70244590D01*
X138046210Y-70244590D02*
X137855734Y-70196971D01*
X137855734Y-70196971D02*
X137665258Y-70244590D01*
X137665258Y-70244590D02*
X137522401Y-70339828D01*
X137522401Y-70339828D02*
X137427163Y-70482685D01*
X137427163Y-70482685D02*
X137379544Y-70673161D01*
X137379544Y-70673161D02*
X137427163Y-70863637D01*
X137427163Y-70863637D02*
X137522401Y-71006495D01*
X137522401Y-71006495D02*
X137665258Y-71101733D01*
X137665258Y-71101733D02*
X137855734Y-71149352D01*
X137855734Y-71149352D02*
X138046210Y-71101733D01*
X138046210Y-71101733D02*
X138189068Y-71006495D01*
X139760496Y-70006495D02*
X139760496Y-70720780D01*
X139760496Y-70720780D02*
X139712877Y-70863637D01*
X139712877Y-70863637D02*
X139617639Y-70958876D01*
X139617639Y-70958876D02*
X139474782Y-71006495D01*
X139474782Y-71006495D02*
X139379544Y-71006495D01*
X140236687Y-71006495D02*
X140236687Y-70006495D01*
X140236687Y-70482685D02*
X140808115Y-70482685D01*
X140808115Y-71006495D02*
X140808115Y-70006495D01*
X141284306Y-70006495D02*
X141284306Y-70816018D01*
X141284306Y-70816018D02*
X141331925Y-70911256D01*
X141331925Y-70911256D02*
X141379544Y-70958876D01*
X141379544Y-70958876D02*
X141474782Y-71006495D01*
X141474782Y-71006495D02*
X141665258Y-71006495D01*
X141665258Y-71006495D02*
X141760496Y-70958876D01*
X141760496Y-70958876D02*
X141808115Y-70911256D01*
X141808115Y-70911256D02*
X141855734Y-70816018D01*
X141855734Y-70816018D02*
X141855734Y-70006495D01*
X124331923Y-71711677D02*
X124379542Y-71664058D01*
X124379542Y-71664058D02*
X124474780Y-71616439D01*
X124474780Y-71616439D02*
X124712875Y-71616439D01*
X124712875Y-71616439D02*
X124808113Y-71664058D01*
X124808113Y-71664058D02*
X124855732Y-71711677D01*
X124855732Y-71711677D02*
X124903351Y-71806915D01*
X124903351Y-71806915D02*
X124903351Y-71902153D01*
X124903351Y-71902153D02*
X124855732Y-72045010D01*
X124855732Y-72045010D02*
X124284304Y-72616439D01*
X124284304Y-72616439D02*
X124903351Y-72616439D01*
X125284304Y-71711677D02*
X125331923Y-71664058D01*
X125331923Y-71664058D02*
X125427161Y-71616439D01*
X125427161Y-71616439D02*
X125665256Y-71616439D01*
X125665256Y-71616439D02*
X125760494Y-71664058D01*
X125760494Y-71664058D02*
X125808113Y-71711677D01*
X125808113Y-71711677D02*
X125855732Y-71806915D01*
X125855732Y-71806915D02*
X125855732Y-71902153D01*
X125855732Y-71902153D02*
X125808113Y-72045010D01*
X125808113Y-72045010D02*
X125236685Y-72616439D01*
X125236685Y-72616439D02*
X125855732Y-72616439D01*
X126189066Y-71616439D02*
X126855732Y-72616439D01*
X126855732Y-71616439D02*
X126189066Y-72616439D01*
X127093828Y-71616439D02*
X127665256Y-71616439D01*
X127379542Y-72616439D02*
X127379542Y-71616439D01*
X128617638Y-71616439D02*
X129189066Y-71616439D01*
X128903352Y-72616439D02*
X128903352Y-71616439D01*
X130093828Y-72521200D02*
X130046209Y-72568820D01*
X130046209Y-72568820D02*
X129903352Y-72616439D01*
X129903352Y-72616439D02*
X129808114Y-72616439D01*
X129808114Y-72616439D02*
X129665257Y-72568820D01*
X129665257Y-72568820D02*
X129570019Y-72473581D01*
X129570019Y-72473581D02*
X129522400Y-72378343D01*
X129522400Y-72378343D02*
X129474781Y-72187867D01*
X129474781Y-72187867D02*
X129474781Y-72045010D01*
X129474781Y-72045010D02*
X129522400Y-71854534D01*
X129522400Y-71854534D02*
X129570019Y-71759296D01*
X129570019Y-71759296D02*
X129665257Y-71664058D01*
X129665257Y-71664058D02*
X129808114Y-71616439D01*
X129808114Y-71616439D02*
X129903352Y-71616439D01*
X129903352Y-71616439D02*
X130046209Y-71664058D01*
X130046209Y-71664058D02*
X130093828Y-71711677D01*
X131236686Y-72330724D02*
X131712876Y-72330724D01*
X131141448Y-72616439D02*
X131474781Y-71616439D01*
X131474781Y-71616439D02*
X131808114Y-72616439D01*
X132141448Y-72616439D02*
X132141448Y-71949772D01*
X132141448Y-72045010D02*
X132189067Y-71997391D01*
X132189067Y-71997391D02*
X132284305Y-71949772D01*
X132284305Y-71949772D02*
X132427162Y-71949772D01*
X132427162Y-71949772D02*
X132522400Y-71997391D01*
X132522400Y-71997391D02*
X132570019Y-72092629D01*
X132570019Y-72092629D02*
X132570019Y-72616439D01*
X132570019Y-72092629D02*
X132617638Y-71997391D01*
X132617638Y-71997391D02*
X132712876Y-71949772D01*
X132712876Y-71949772D02*
X132855733Y-71949772D01*
X132855733Y-71949772D02*
X132950972Y-71997391D01*
X132950972Y-71997391D02*
X132998591Y-72092629D01*
X132998591Y-72092629D02*
X132998591Y-72616439D01*
X133474781Y-71949772D02*
X133474781Y-72949772D01*
X133474781Y-71997391D02*
X133570019Y-71949772D01*
X133570019Y-71949772D02*
X133760495Y-71949772D01*
X133760495Y-71949772D02*
X133855733Y-71997391D01*
X133855733Y-71997391D02*
X133903352Y-72045010D01*
X133903352Y-72045010D02*
X133950971Y-72140248D01*
X133950971Y-72140248D02*
X133950971Y-72425962D01*
X133950971Y-72425962D02*
X133903352Y-72521200D01*
X133903352Y-72521200D02*
X133855733Y-72568820D01*
X133855733Y-72568820D02*
X133760495Y-72616439D01*
X133760495Y-72616439D02*
X133570019Y-72616439D01*
X133570019Y-72616439D02*
X133474781Y-72568820D01*
X134522400Y-72616439D02*
X134427162Y-72568820D01*
X134427162Y-72568820D02*
X134379543Y-72473581D01*
X134379543Y-72473581D02*
X134379543Y-71616439D01*
X134903353Y-72616439D02*
X134903353Y-71949772D01*
X134903353Y-71616439D02*
X134855734Y-71664058D01*
X134855734Y-71664058D02*
X134903353Y-71711677D01*
X134903353Y-71711677D02*
X134950972Y-71664058D01*
X134950972Y-71664058D02*
X134903353Y-71616439D01*
X134903353Y-71616439D02*
X134903353Y-71711677D01*
X135236686Y-71949772D02*
X135617638Y-71949772D01*
X135379543Y-72616439D02*
X135379543Y-71759296D01*
X135379543Y-71759296D02*
X135427162Y-71664058D01*
X135427162Y-71664058D02*
X135522400Y-71616439D01*
X135522400Y-71616439D02*
X135617638Y-71616439D01*
X135950972Y-72616439D02*
X135950972Y-71949772D01*
X135950972Y-71616439D02*
X135903353Y-71664058D01*
X135903353Y-71664058D02*
X135950972Y-71711677D01*
X135950972Y-71711677D02*
X135998591Y-71664058D01*
X135998591Y-71664058D02*
X135950972Y-71616439D01*
X135950972Y-71616439D02*
X135950972Y-71711677D01*
X136808114Y-72568820D02*
X136712876Y-72616439D01*
X136712876Y-72616439D02*
X136522400Y-72616439D01*
X136522400Y-72616439D02*
X136427162Y-72568820D01*
X136427162Y-72568820D02*
X136379543Y-72473581D01*
X136379543Y-72473581D02*
X136379543Y-72092629D01*
X136379543Y-72092629D02*
X136427162Y-71997391D01*
X136427162Y-71997391D02*
X136522400Y-71949772D01*
X136522400Y-71949772D02*
X136712876Y-71949772D01*
X136712876Y-71949772D02*
X136808114Y-71997391D01*
X136808114Y-71997391D02*
X136855733Y-72092629D01*
X136855733Y-72092629D02*
X136855733Y-72187867D01*
X136855733Y-72187867D02*
X136379543Y-72283105D01*
X137284305Y-72616439D02*
X137284305Y-71949772D01*
X137284305Y-72140248D02*
X137331924Y-72045010D01*
X137331924Y-72045010D02*
X137379543Y-71997391D01*
X137379543Y-71997391D02*
X137474781Y-71949772D01*
X137474781Y-71949772D02*
X137570019Y-71949772D01*
X137665258Y-72711677D02*
X138427162Y-72711677D01*
X138617639Y-72568820D02*
X138760496Y-72616439D01*
X138760496Y-72616439D02*
X138998591Y-72616439D01*
X138998591Y-72616439D02*
X139093829Y-72568820D01*
X139093829Y-72568820D02*
X139141448Y-72521200D01*
X139141448Y-72521200D02*
X139189067Y-72425962D01*
X139189067Y-72425962D02*
X139189067Y-72330724D01*
X139189067Y-72330724D02*
X139141448Y-72235486D01*
X139141448Y-72235486D02*
X139093829Y-72187867D01*
X139093829Y-72187867D02*
X138998591Y-72140248D01*
X138998591Y-72140248D02*
X138808115Y-72092629D01*
X138808115Y-72092629D02*
X138712877Y-72045010D01*
X138712877Y-72045010D02*
X138665258Y-71997391D01*
X138665258Y-71997391D02*
X138617639Y-71902153D01*
X138617639Y-71902153D02*
X138617639Y-71806915D01*
X138617639Y-71806915D02*
X138665258Y-71711677D01*
X138665258Y-71711677D02*
X138712877Y-71664058D01*
X138712877Y-71664058D02*
X138808115Y-71616439D01*
X138808115Y-71616439D02*
X139046210Y-71616439D01*
X139046210Y-71616439D02*
X139189067Y-71664058D01*
X139522401Y-71616439D02*
X140189067Y-71616439D01*
X140189067Y-71616439D02*
X139522401Y-72616439D01*
X139522401Y-72616439D02*
X140189067Y-72616439D01*
D10*
X119822054Y-86319600D02*
X119964911Y-86367219D01*
X119964911Y-86367219D02*
X120203006Y-86367219D01*
X120203006Y-86367219D02*
X120298244Y-86319600D01*
X120298244Y-86319600D02*
X120345863Y-86271980D01*
X120345863Y-86271980D02*
X120393482Y-86176742D01*
X120393482Y-86176742D02*
X120393482Y-86081504D01*
X120393482Y-86081504D02*
X120345863Y-85986266D01*
X120345863Y-85986266D02*
X120298244Y-85938647D01*
X120298244Y-85938647D02*
X120203006Y-85891028D01*
X120203006Y-85891028D02*
X120012530Y-85843409D01*
X120012530Y-85843409D02*
X119917292Y-85795790D01*
X119917292Y-85795790D02*
X119869673Y-85748171D01*
X119869673Y-85748171D02*
X119822054Y-85652933D01*
X119822054Y-85652933D02*
X119822054Y-85557695D01*
X119822054Y-85557695D02*
X119869673Y-85462457D01*
X119869673Y-85462457D02*
X119917292Y-85414838D01*
X119917292Y-85414838D02*
X120012530Y-85367219D01*
X120012530Y-85367219D02*
X120250625Y-85367219D01*
X120250625Y-85367219D02*
X120393482Y-85414838D01*
X120822054Y-86367219D02*
X120822054Y-85367219D01*
X121250625Y-86367219D02*
X121250625Y-85843409D01*
X121250625Y-85843409D02*
X121203006Y-85748171D01*
X121203006Y-85748171D02*
X121107768Y-85700552D01*
X121107768Y-85700552D02*
X120964911Y-85700552D01*
X120964911Y-85700552D02*
X120869673Y-85748171D01*
X120869673Y-85748171D02*
X120822054Y-85795790D01*
X122155387Y-85700552D02*
X122155387Y-86367219D01*
X121726816Y-85700552D02*
X121726816Y-86224361D01*
X121726816Y-86224361D02*
X121774435Y-86319600D01*
X121774435Y-86319600D02*
X121869673Y-86367219D01*
X121869673Y-86367219D02*
X122012530Y-86367219D01*
X122012530Y-86367219D02*
X122107768Y-86319600D01*
X122107768Y-86319600D02*
X122155387Y-86271980D01*
X122536340Y-85700552D02*
X122726816Y-86367219D01*
X122726816Y-86367219D02*
X122917292Y-85891028D01*
X122917292Y-85891028D02*
X123107768Y-86367219D01*
X123107768Y-86367219D02*
X123298244Y-85700552D01*
X124060149Y-86319600D02*
X123964911Y-86367219D01*
X123964911Y-86367219D02*
X123774435Y-86367219D01*
X123774435Y-86367219D02*
X123679197Y-86319600D01*
X123679197Y-86319600D02*
X123631578Y-86224361D01*
X123631578Y-86224361D02*
X123631578Y-85843409D01*
X123631578Y-85843409D02*
X123679197Y-85748171D01*
X123679197Y-85748171D02*
X123774435Y-85700552D01*
X123774435Y-85700552D02*
X123964911Y-85700552D01*
X123964911Y-85700552D02*
X124060149Y-85748171D01*
X124060149Y-85748171D02*
X124107768Y-85843409D01*
X124107768Y-85843409D02*
X124107768Y-85938647D01*
X124107768Y-85938647D02*
X123631578Y-86033885D01*
X124536340Y-85700552D02*
X124536340Y-86367219D01*
X124536340Y-85795790D02*
X124583959Y-85748171D01*
X124583959Y-85748171D02*
X124679197Y-85700552D01*
X124679197Y-85700552D02*
X124822054Y-85700552D01*
X124822054Y-85700552D02*
X124917292Y-85748171D01*
X124917292Y-85748171D02*
X124964911Y-85843409D01*
X124964911Y-85843409D02*
X124964911Y-86367219D01*
X126107769Y-85367219D02*
X126774435Y-85367219D01*
X126774435Y-85367219D02*
X126107769Y-86367219D01*
X126107769Y-86367219D02*
X126774435Y-86367219D01*
X127155388Y-86367219D02*
X127155388Y-85367219D01*
X127583959Y-86367219D02*
X127583959Y-85843409D01*
X127583959Y-85843409D02*
X127536340Y-85748171D01*
X127536340Y-85748171D02*
X127441102Y-85700552D01*
X127441102Y-85700552D02*
X127298245Y-85700552D01*
X127298245Y-85700552D02*
X127203007Y-85748171D01*
X127203007Y-85748171D02*
X127155388Y-85795790D01*
X128441102Y-86319600D02*
X128345864Y-86367219D01*
X128345864Y-86367219D02*
X128155388Y-86367219D01*
X128155388Y-86367219D02*
X128060150Y-86319600D01*
X128060150Y-86319600D02*
X128012531Y-86224361D01*
X128012531Y-86224361D02*
X128012531Y-85843409D01*
X128012531Y-85843409D02*
X128060150Y-85748171D01*
X128060150Y-85748171D02*
X128155388Y-85700552D01*
X128155388Y-85700552D02*
X128345864Y-85700552D01*
X128345864Y-85700552D02*
X128441102Y-85748171D01*
X128441102Y-85748171D02*
X128488721Y-85843409D01*
X128488721Y-85843409D02*
X128488721Y-85938647D01*
X128488721Y-85938647D02*
X128012531Y-86033885D01*
X128917293Y-85700552D02*
X128917293Y-86367219D01*
X128917293Y-85795790D02*
X128964912Y-85748171D01*
X128964912Y-85748171D02*
X129060150Y-85700552D01*
X129060150Y-85700552D02*
X129203007Y-85700552D01*
X129203007Y-85700552D02*
X129298245Y-85748171D01*
X129298245Y-85748171D02*
X129345864Y-85843409D01*
X129345864Y-85843409D02*
X129345864Y-86367219D01*
X130250626Y-85700552D02*
X130250626Y-86510076D01*
X130250626Y-86510076D02*
X130203007Y-86605314D01*
X130203007Y-86605314D02*
X130155388Y-86652933D01*
X130155388Y-86652933D02*
X130060150Y-86700552D01*
X130060150Y-86700552D02*
X129917293Y-86700552D01*
X129917293Y-86700552D02*
X129822055Y-86652933D01*
X130250626Y-86319600D02*
X130155388Y-86367219D01*
X130155388Y-86367219D02*
X129964912Y-86367219D01*
X129964912Y-86367219D02*
X129869674Y-86319600D01*
X129869674Y-86319600D02*
X129822055Y-86271980D01*
X129822055Y-86271980D02*
X129774436Y-86176742D01*
X129774436Y-86176742D02*
X129774436Y-85891028D01*
X129774436Y-85891028D02*
X129822055Y-85795790D01*
X129822055Y-85795790D02*
X129869674Y-85748171D01*
X129869674Y-85748171D02*
X129964912Y-85700552D01*
X129964912Y-85700552D02*
X130155388Y-85700552D01*
X130155388Y-85700552D02*
X130250626Y-85748171D01*
D13*
X129148333Y-83958819D02*
X128815000Y-83482628D01*
X128576905Y-83958819D02*
X128576905Y-82958819D01*
X128576905Y-82958819D02*
X128957857Y-82958819D01*
X128957857Y-82958819D02*
X129053095Y-83006438D01*
X129053095Y-83006438D02*
X129100714Y-83054057D01*
X129100714Y-83054057D02*
X129148333Y-83149295D01*
X129148333Y-83149295D02*
X129148333Y-83292152D01*
X129148333Y-83292152D02*
X129100714Y-83387390D01*
X129100714Y-83387390D02*
X129053095Y-83435009D01*
X129053095Y-83435009D02*
X128957857Y-83482628D01*
X128957857Y-83482628D02*
X128576905Y-83482628D01*
X129529286Y-83054057D02*
X129576905Y-83006438D01*
X129576905Y-83006438D02*
X129672143Y-82958819D01*
X129672143Y-82958819D02*
X129910238Y-82958819D01*
X129910238Y-82958819D02*
X130005476Y-83006438D01*
X130005476Y-83006438D02*
X130053095Y-83054057D01*
X130053095Y-83054057D02*
X130100714Y-83149295D01*
X130100714Y-83149295D02*
X130100714Y-83244533D01*
X130100714Y-83244533D02*
X130053095Y-83387390D01*
X130053095Y-83387390D02*
X129481667Y-83958819D01*
X129481667Y-83958819D02*
X130100714Y-83958819D01*
X135597533Y-83458819D02*
X135264200Y-82982628D01*
X135026105Y-83458819D02*
X135026105Y-82458819D01*
X135026105Y-82458819D02*
X135407057Y-82458819D01*
X135407057Y-82458819D02*
X135502295Y-82506438D01*
X135502295Y-82506438D02*
X135549914Y-82554057D01*
X135549914Y-82554057D02*
X135597533Y-82649295D01*
X135597533Y-82649295D02*
X135597533Y-82792152D01*
X135597533Y-82792152D02*
X135549914Y-82887390D01*
X135549914Y-82887390D02*
X135502295Y-82935009D01*
X135502295Y-82935009D02*
X135407057Y-82982628D01*
X135407057Y-82982628D02*
X135026105Y-82982628D01*
X136454676Y-82792152D02*
X136454676Y-83458819D01*
X136216581Y-82411200D02*
X135978486Y-83125485D01*
X135978486Y-83125485D02*
X136597533Y-83125485D01*
X137904819Y-79333333D02*
X138619104Y-79333333D01*
X138619104Y-79333333D02*
X138761961Y-79380952D01*
X138761961Y-79380952D02*
X138857200Y-79476190D01*
X138857200Y-79476190D02*
X138904819Y-79619047D01*
X138904819Y-79619047D02*
X138904819Y-79714285D01*
X138904819Y-78333333D02*
X138904819Y-78904761D01*
X138904819Y-78619047D02*
X137904819Y-78619047D01*
X137904819Y-78619047D02*
X138047676Y-78714285D01*
X138047676Y-78714285D02*
X138142914Y-78809523D01*
X138142914Y-78809523D02*
X138190533Y-78904761D01*
X133646333Y-82290419D02*
X133313000Y-81814228D01*
X133074905Y-82290419D02*
X133074905Y-81290419D01*
X133074905Y-81290419D02*
X133455857Y-81290419D01*
X133455857Y-81290419D02*
X133551095Y-81338038D01*
X133551095Y-81338038D02*
X133598714Y-81385657D01*
X133598714Y-81385657D02*
X133646333Y-81480895D01*
X133646333Y-81480895D02*
X133646333Y-81623752D01*
X133646333Y-81623752D02*
X133598714Y-81718990D01*
X133598714Y-81718990D02*
X133551095Y-81766609D01*
X133551095Y-81766609D02*
X133455857Y-81814228D01*
X133455857Y-81814228D02*
X133074905Y-81814228D01*
X133979667Y-81290419D02*
X134598714Y-81290419D01*
X134598714Y-81290419D02*
X134265381Y-81671371D01*
X134265381Y-81671371D02*
X134408238Y-81671371D01*
X134408238Y-81671371D02*
X134503476Y-81718990D01*
X134503476Y-81718990D02*
X134551095Y-81766609D01*
X134551095Y-81766609D02*
X134598714Y-81861847D01*
X134598714Y-81861847D02*
X134598714Y-82099942D01*
X134598714Y-82099942D02*
X134551095Y-82195180D01*
X134551095Y-82195180D02*
X134503476Y-82242800D01*
X134503476Y-82242800D02*
X134408238Y-82290419D01*
X134408238Y-82290419D02*
X134122524Y-82290419D01*
X134122524Y-82290419D02*
X134027286Y-82242800D01*
X134027286Y-82242800D02*
X133979667Y-82195180D01*
X132050123Y-74609219D02*
X131716790Y-74133028D01*
X131478695Y-74609219D02*
X131478695Y-73609219D01*
X131478695Y-73609219D02*
X131859647Y-73609219D01*
X131859647Y-73609219D02*
X131954885Y-73656838D01*
X131954885Y-73656838D02*
X132002504Y-73704457D01*
X132002504Y-73704457D02*
X132050123Y-73799695D01*
X132050123Y-73799695D02*
X132050123Y-73942552D01*
X132050123Y-73942552D02*
X132002504Y-74037790D01*
X132002504Y-74037790D02*
X131954885Y-74085409D01*
X131954885Y-74085409D02*
X131859647Y-74133028D01*
X131859647Y-74133028D02*
X131478695Y-74133028D01*
X133002504Y-73656838D02*
X132907266Y-73609219D01*
X132907266Y-73609219D02*
X132764409Y-73609219D01*
X132764409Y-73609219D02*
X132621552Y-73656838D01*
X132621552Y-73656838D02*
X132526314Y-73752076D01*
X132526314Y-73752076D02*
X132478695Y-73847314D01*
X132478695Y-73847314D02*
X132431076Y-74037790D01*
X132431076Y-74037790D02*
X132431076Y-74180647D01*
X132431076Y-74180647D02*
X132478695Y-74371123D01*
X132478695Y-74371123D02*
X132526314Y-74466361D01*
X132526314Y-74466361D02*
X132621552Y-74561600D01*
X132621552Y-74561600D02*
X132764409Y-74609219D01*
X132764409Y-74609219D02*
X132859647Y-74609219D01*
X132859647Y-74609219D02*
X133002504Y-74561600D01*
X133002504Y-74561600D02*
X133050123Y-74513980D01*
X133050123Y-74513980D02*
X133050123Y-74180647D01*
X133050123Y-74180647D02*
X132859647Y-74180647D01*
X127504819Y-79583333D02*
X128219104Y-79583333D01*
X128219104Y-79583333D02*
X128361961Y-79630952D01*
X128361961Y-79630952D02*
X128457200Y-79726190D01*
X128457200Y-79726190D02*
X128504819Y-79869047D01*
X128504819Y-79869047D02*
X128504819Y-79964285D01*
X127600057Y-79154761D02*
X127552438Y-79107142D01*
X127552438Y-79107142D02*
X127504819Y-79011904D01*
X127504819Y-79011904D02*
X127504819Y-78773809D01*
X127504819Y-78773809D02*
X127552438Y-78678571D01*
X127552438Y-78678571D02*
X127600057Y-78630952D01*
X127600057Y-78630952D02*
X127695295Y-78583333D01*
X127695295Y-78583333D02*
X127790533Y-78583333D01*
X127790533Y-78583333D02*
X127933390Y-78630952D01*
X127933390Y-78630952D02*
X128504819Y-79202380D01*
X128504819Y-79202380D02*
X128504819Y-78583333D01*
X131146333Y-81790419D02*
X130813000Y-81314228D01*
X130574905Y-81790419D02*
X130574905Y-80790419D01*
X130574905Y-80790419D02*
X130955857Y-80790419D01*
X130955857Y-80790419D02*
X131051095Y-80838038D01*
X131051095Y-80838038D02*
X131098714Y-80885657D01*
X131098714Y-80885657D02*
X131146333Y-80980895D01*
X131146333Y-80980895D02*
X131146333Y-81123752D01*
X131146333Y-81123752D02*
X131098714Y-81218990D01*
X131098714Y-81218990D02*
X131051095Y-81266609D01*
X131051095Y-81266609D02*
X130955857Y-81314228D01*
X130955857Y-81314228D02*
X130574905Y-81314228D01*
X132098714Y-81790419D02*
X131527286Y-81790419D01*
X131813000Y-81790419D02*
X131813000Y-80790419D01*
X131813000Y-80790419D02*
X131717762Y-80933276D01*
X131717762Y-80933276D02*
X131622524Y-81028514D01*
X131622524Y-81028514D02*
X131527286Y-81076133D01*
X135609580Y-75916666D02*
X135657200Y-75964285D01*
X135657200Y-75964285D02*
X135704819Y-76107142D01*
X135704819Y-76107142D02*
X135704819Y-76202380D01*
X135704819Y-76202380D02*
X135657200Y-76345237D01*
X135657200Y-76345237D02*
X135561961Y-76440475D01*
X135561961Y-76440475D02*
X135466723Y-76488094D01*
X135466723Y-76488094D02*
X135276247Y-76535713D01*
X135276247Y-76535713D02*
X135133390Y-76535713D01*
X135133390Y-76535713D02*
X134942914Y-76488094D01*
X134942914Y-76488094D02*
X134847676Y-76440475D01*
X134847676Y-76440475D02*
X134752438Y-76345237D01*
X134752438Y-76345237D02*
X134704819Y-76202380D01*
X134704819Y-76202380D02*
X134704819Y-76107142D01*
X134704819Y-76107142D02*
X134752438Y-75964285D01*
X134752438Y-75964285D02*
X134800057Y-75916666D01*
X135704819Y-74964285D02*
X135704819Y-75535713D01*
X135704819Y-75249999D02*
X134704819Y-75249999D01*
X134704819Y-75249999D02*
X134847676Y-75345237D01*
X134847676Y-75345237D02*
X134942914Y-75440475D01*
X134942914Y-75440475D02*
X134990533Y-75535713D01*
X132551095Y-79859219D02*
X132551095Y-80668742D01*
X132551095Y-80668742D02*
X132598714Y-80763980D01*
X132598714Y-80763980D02*
X132646333Y-80811600D01*
X132646333Y-80811600D02*
X132741571Y-80859219D01*
X132741571Y-80859219D02*
X132932047Y-80859219D01*
X132932047Y-80859219D02*
X133027285Y-80811600D01*
X133027285Y-80811600D02*
X133074904Y-80763980D01*
X133074904Y-80763980D02*
X133122523Y-80668742D01*
X133122523Y-80668742D02*
X133122523Y-79859219D01*
X134122523Y-80859219D02*
X133551095Y-80859219D01*
X133836809Y-80859219D02*
X133836809Y-79859219D01*
X133836809Y-79859219D02*
X133741571Y-80002076D01*
X133741571Y-80002076D02*
X133646333Y-80097314D01*
X133646333Y-80097314D02*
X133551095Y-80144933D01*
D14*
X129159359Y-81955600D02*
X129466641Y-81955600D01*
X129159359Y-82715600D02*
X129466641Y-82715600D01*
X135659359Y-81455600D02*
X135966641Y-81455600D01*
X135659359Y-82215600D02*
X135966641Y-82215600D01*
X139250000Y-84350000D02*
X139250000Y-85600000D01*
X139250000Y-85600000D02*
X140500000Y-85600000D01*
X139540000Y-72690000D02*
X139540000Y-85310000D01*
X139540000Y-85310000D02*
X145510000Y-85310000D01*
X139550000Y-72700000D02*
X139550000Y-74500000D01*
X139550000Y-74500000D02*
X140300000Y-74500000D01*
X139550000Y-76000000D02*
X139550000Y-82000000D01*
X139550000Y-82000000D02*
X140300000Y-82000000D01*
X139550000Y-83500000D02*
X139550000Y-85300000D01*
X139550000Y-85300000D02*
X140300000Y-85300000D01*
X140300000Y-72700000D02*
X139550000Y-72700000D01*
X140300000Y-74500000D02*
X140300000Y-72700000D01*
X140300000Y-76000000D02*
X139550000Y-76000000D01*
X140300000Y-82000000D02*
X140300000Y-76000000D01*
X140300000Y-83500000D02*
X139550000Y-83500000D01*
X140300000Y-85300000D02*
X140300000Y-83500000D01*
X141800000Y-72700000D02*
X141800000Y-73450000D01*
X141800000Y-73450000D02*
X144750000Y-73450000D01*
X141800000Y-84550000D02*
X143140000Y-84550000D01*
X141800000Y-85300000D02*
X141800000Y-84550000D01*
X144750000Y-73450000D02*
X144750000Y-79000000D01*
X144750000Y-79000000D02*
X144750000Y-83490000D01*
X145510000Y-72690000D02*
X139540000Y-72690000D01*
X145510000Y-85310000D02*
X145510000Y-72690000D01*
X135493041Y-80227600D02*
X135185759Y-80227600D01*
X135493041Y-80987600D02*
X135185759Y-80987600D01*
X132086959Y-74944400D02*
X132394241Y-74944400D01*
X132086959Y-75704400D02*
X132394241Y-75704400D01*
X120990000Y-75440000D02*
X120990000Y-83060000D01*
X120990000Y-83060000D02*
X126960000Y-83060000D01*
X121750000Y-79250000D02*
X121750000Y-77260000D01*
X121750000Y-82300000D02*
X121750000Y-79250000D01*
X124700000Y-75450000D02*
X124700000Y-76200000D01*
X124700000Y-76200000D02*
X123360000Y-76200000D01*
X124700000Y-82300000D02*
X121750000Y-82300000D01*
X124700000Y-83050000D02*
X124700000Y-82300000D01*
X126200000Y-75450000D02*
X126200000Y-77250000D01*
X126200000Y-77250000D02*
X126950000Y-77250000D01*
X126200000Y-78750000D02*
X126200000Y-79750000D01*
X126200000Y-79750000D02*
X126950000Y-79750000D01*
X126200000Y-81250000D02*
X126200000Y-83050000D01*
X126200000Y-83050000D02*
X126950000Y-83050000D01*
X126950000Y-75450000D02*
X126200000Y-75450000D01*
X126950000Y-77250000D02*
X126950000Y-75450000D01*
X126950000Y-78750000D02*
X126200000Y-78750000D01*
X126950000Y-79750000D02*
X126950000Y-78750000D01*
X126950000Y-81250000D02*
X126200000Y-81250000D01*
X126950000Y-83050000D02*
X126950000Y-81250000D01*
X126960000Y-75440000D02*
X120990000Y-75440000D01*
X126960000Y-83060000D02*
X126960000Y-75440000D01*
X127250000Y-75150000D02*
X126000000Y-75150000D01*
X127250000Y-76400000D02*
X127250000Y-75150000D01*
X129466641Y-80455600D02*
X129159359Y-80455600D01*
X129466641Y-81215600D02*
X129159359Y-81215600D01*
X135741400Y-77271364D02*
X135741400Y-77487036D01*
X136461400Y-77271364D02*
X136461400Y-77487036D01*
X132160100Y-76315000D02*
X130660100Y-76315000D01*
X132160100Y-76315000D02*
X133660100Y-76315000D01*
X132160100Y-79535000D02*
X130660100Y-79535000D01*
X132160100Y-79535000D02*
X133660100Y-79535000D01*
X129947600Y-76440000D02*
X129707600Y-76110000D01*
X130187600Y-76110000D01*
X129947600Y-76440000D01*
G36*
X129947600Y-76440000D02*
G01*
X129707600Y-76110000D01*
X130187600Y-76110000D01*
X129947600Y-76440000D01*
G37*
D15*
G36*
X121637444Y-70776710D02*
G01*
X121666161Y-70777401D01*
X121695180Y-70778202D01*
X121725241Y-70779140D01*
X121757089Y-70780239D01*
X121791466Y-70781523D01*
X121829115Y-70783018D01*
X121841221Y-70783514D01*
X121875715Y-70784935D01*
X121875715Y-71049303D01*
X121875702Y-71082385D01*
X121875666Y-71114269D01*
X121875607Y-71144703D01*
X121875527Y-71173432D01*
X121875428Y-71200204D01*
X121875311Y-71224764D01*
X121875177Y-71246860D01*
X121875029Y-71266237D01*
X121874868Y-71282644D01*
X121874694Y-71295825D01*
X121874511Y-71305527D01*
X121874319Y-71311498D01*
X121874123Y-71313485D01*
X121872154Y-71312310D01*
X121866913Y-71308959D01*
X121858658Y-71303602D01*
X121847651Y-71296410D01*
X121834152Y-71287555D01*
X121818420Y-71277206D01*
X121800716Y-71265536D01*
X121781300Y-71252716D01*
X121760432Y-71238916D01*
X121738373Y-71224307D01*
X121722351Y-71213685D01*
X121572171Y-71114071D01*
X121572171Y-70944663D01*
X121572171Y-70775254D01*
X121637444Y-70776710D01*
G37*
G36*
X120784314Y-71464529D02*
G01*
X120806185Y-71466603D01*
X120825530Y-71471124D01*
X120843195Y-71478470D01*
X120860027Y-71489021D01*
X120876870Y-71503155D01*
X120882372Y-71508469D01*
X120898725Y-71527221D01*
X120911064Y-71547124D01*
X120919526Y-71568509D01*
X120924248Y-71591704D01*
X120925425Y-71612221D01*
X120924674Y-71630142D01*
X120922160Y-71645966D01*
X120917490Y-71661353D01*
X120910271Y-71677967D01*
X120909566Y-71679411D01*
X120897651Y-71699022D01*
X120882334Y-71716829D01*
X120864274Y-71732260D01*
X120844131Y-71744743D01*
X120824778Y-71752980D01*
X120808681Y-71757077D01*
X120790478Y-71759506D01*
X120771661Y-71760209D01*
X120753719Y-71759128D01*
X120738726Y-71756362D01*
X120715551Y-71748025D01*
X120694425Y-71736263D01*
X120675651Y-71721465D01*
X120659529Y-71704021D01*
X120646363Y-71684319D01*
X120636452Y-71662749D01*
X120630099Y-71639700D01*
X120627604Y-71615563D01*
X120627578Y-71612829D01*
X120629604Y-71587647D01*
X120635552Y-71563813D01*
X120645228Y-71541640D01*
X120658436Y-71521441D01*
X120674982Y-71503529D01*
X120694672Y-71488218D01*
X120710815Y-71478914D01*
X120727414Y-71471685D01*
X120743870Y-71467027D01*
X120761458Y-71464690D01*
X120781453Y-71464423D01*
X120784314Y-71464529D01*
G37*
G36*
X121132971Y-71648060D02*
G01*
X121149726Y-71650108D01*
X121162494Y-71653371D01*
X121176405Y-71660318D01*
X121189185Y-71670564D01*
X121199956Y-71683181D01*
X121207841Y-71697241D01*
X121210231Y-71703849D01*
X121212870Y-71716716D01*
X121213215Y-71730434D01*
X121211173Y-71745513D01*
X121206649Y-71762464D01*
X121199551Y-71781797D01*
X121193200Y-71796576D01*
X121183763Y-71816065D01*
X121172946Y-71835887D01*
X121161175Y-71855426D01*
X121148873Y-71874065D01*
X121136466Y-71891186D01*
X121124380Y-71906172D01*
X121113039Y-71918404D01*
X121103632Y-71926693D01*
X121089758Y-71935028D01*
X121074067Y-71940716D01*
X121057814Y-71943449D01*
X121042254Y-71942919D01*
X121039475Y-71942423D01*
X121022845Y-71936863D01*
X121007406Y-71927242D01*
X120993165Y-71913565D01*
X120980127Y-71895839D01*
X120975988Y-71888922D01*
X120961738Y-71861095D01*
X120951192Y-71834306D01*
X120944322Y-71808701D01*
X120941101Y-71784425D01*
X120941503Y-71761626D01*
X120945499Y-71740447D01*
X120953064Y-71721035D01*
X120964170Y-71703535D01*
X120978789Y-71688094D01*
X120996895Y-71674856D01*
X121017801Y-71664244D01*
X121034238Y-71658495D01*
X121052978Y-71653877D01*
X121073122Y-71650456D01*
X121093769Y-71648301D01*
X121114019Y-71647480D01*
X121132971Y-71648060D01*
G37*
G36*
X120803975Y-71823466D02*
G01*
X120824771Y-71830885D01*
X120842554Y-71840794D01*
X120857773Y-71852329D01*
X120873204Y-71866833D01*
X120888207Y-71883473D01*
X120902137Y-71901418D01*
X120914353Y-71919835D01*
X120924211Y-71937890D01*
X120931068Y-71954750D01*
X120931448Y-71955961D01*
X120934983Y-71974055D01*
X120934527Y-71991524D01*
X120930327Y-72007957D01*
X120922632Y-72022941D01*
X120911691Y-72036065D01*
X120897752Y-72046916D01*
X120881064Y-72055084D01*
X120869537Y-72058597D01*
X120855980Y-72061225D01*
X120839215Y-72063459D01*
X120820268Y-72065245D01*
X120800163Y-72066524D01*
X120779925Y-72067241D01*
X120760579Y-72067341D01*
X120743148Y-72066766D01*
X120733712Y-72066042D01*
X120722514Y-72064679D01*
X120709975Y-72062745D01*
X120697333Y-72060472D01*
X120685825Y-72058089D01*
X120676687Y-72055827D01*
X120673427Y-72054824D01*
X120656728Y-72047087D01*
X120642598Y-72036480D01*
X120631341Y-72023498D01*
X120623258Y-72008635D01*
X120618651Y-71992387D01*
X120617822Y-71975246D01*
X120619045Y-71965831D01*
X120623126Y-71951897D01*
X120630075Y-71936155D01*
X120639378Y-71919357D01*
X120650521Y-71902253D01*
X120662989Y-71885593D01*
X120676267Y-71870128D01*
X120689841Y-71856609D01*
X120699471Y-71848529D01*
X120719765Y-71835265D01*
X120740566Y-71826116D01*
X120761669Y-71821092D01*
X120782873Y-71820205D01*
X120803975Y-71823466D01*
G37*
G36*
X121076773Y-71284332D02*
G01*
X121091094Y-71289399D01*
X121102785Y-71296835D01*
X121115382Y-71307848D01*
X121128560Y-71321961D01*
X121141995Y-71338697D01*
X121155362Y-71357579D01*
X121168336Y-71378132D01*
X121180594Y-71399878D01*
X121191810Y-71422341D01*
X121201660Y-71445044D01*
X121207310Y-71460083D01*
X121212905Y-71480902D01*
X121214617Y-71500306D01*
X121212459Y-71518195D01*
X121206445Y-71534466D01*
X121196588Y-71549018D01*
X121195414Y-71550349D01*
X121183875Y-71560571D01*
X121169777Y-71569052D01*
X121154724Y-71574883D01*
X121150184Y-71575995D01*
X121140973Y-71577235D01*
X121128717Y-71577915D01*
X121114576Y-71578049D01*
X121099713Y-71577651D01*
X121085288Y-71576734D01*
X121072463Y-71575313D01*
X121070763Y-71575059D01*
X121055954Y-71572110D01*
X121040114Y-71567856D01*
X121024623Y-71562745D01*
X121010859Y-71557224D01*
X121001900Y-71552745D01*
X120983259Y-71539912D01*
X120968097Y-71524777D01*
X120956446Y-71507504D01*
X120948336Y-71488261D01*
X120943798Y-71467214D01*
X120942862Y-71444529D01*
X120945560Y-71420372D01*
X120951921Y-71394910D01*
X120961977Y-71368308D01*
X120966165Y-71359195D01*
X120977201Y-71338015D01*
X120988212Y-71320721D01*
X120999495Y-71306975D01*
X121011346Y-71296438D01*
X121024062Y-71288775D01*
X121030353Y-71286096D01*
X121044878Y-71282595D01*
X121060858Y-71282035D01*
X121076773Y-71284332D01*
G37*
G36*
X120462191Y-71649102D02*
G01*
X120482175Y-71651397D01*
X120509698Y-71656857D01*
X120533808Y-71664589D01*
X120554734Y-71674695D01*
X120572709Y-71687277D01*
X120580894Y-71694759D01*
X120594860Y-71711545D01*
X120605020Y-71730144D01*
X120611368Y-71750489D01*
X120613904Y-71772512D01*
X120612624Y-71796149D01*
X120607526Y-71821333D01*
X120598607Y-71847997D01*
X120588107Y-71871599D01*
X120576565Y-71892918D01*
X120564846Y-71910225D01*
X120552741Y-71923740D01*
X120540045Y-71933686D01*
X120526551Y-71940283D01*
X120522984Y-71941449D01*
X120511060Y-71943749D01*
X120497760Y-71944377D01*
X120485061Y-71943322D01*
X120477929Y-71941686D01*
X120466338Y-71937059D01*
X120455274Y-71930470D01*
X120444196Y-71921466D01*
X120432561Y-71909596D01*
X120419828Y-71894408D01*
X120417134Y-71890974D01*
X120395179Y-71859920D01*
X120375258Y-71826098D01*
X120358074Y-71790766D01*
X120350405Y-71772082D01*
X120346676Y-71762035D01*
X120344293Y-71754284D01*
X120342951Y-71747223D01*
X120342348Y-71739247D01*
X120342177Y-71728751D01*
X120342177Y-71728676D01*
X120342238Y-71718237D01*
X120342672Y-71710777D01*
X120343690Y-71705047D01*
X120345503Y-71699796D01*
X120347931Y-71694561D01*
X120354379Y-71684325D01*
X120363230Y-71674078D01*
X120373281Y-71665003D01*
X120383329Y-71658279D01*
X120386436Y-71656779D01*
X120401312Y-71652090D01*
X120419354Y-71649222D01*
X120439875Y-71648213D01*
X120462191Y-71649102D01*
G37*
G36*
X120804678Y-71159328D02*
G01*
X120827343Y-71161023D01*
X120848429Y-71163715D01*
X120867222Y-71167406D01*
X120883010Y-71172094D01*
X120890424Y-71175229D01*
X120905029Y-71184630D01*
X120917408Y-71197210D01*
X120926771Y-71212163D01*
X120926881Y-71212394D01*
X120932542Y-71227693D01*
X120934717Y-71242828D01*
X120933367Y-71258420D01*
X120928454Y-71275094D01*
X120922096Y-71289304D01*
X120907890Y-71314423D01*
X120891741Y-71337459D01*
X120874105Y-71357893D01*
X120855439Y-71375204D01*
X120836196Y-71388874D01*
X120833478Y-71390469D01*
X120816888Y-71398065D01*
X120798547Y-71403232D01*
X120779823Y-71405716D01*
X120762083Y-71405260D01*
X120757798Y-71404628D01*
X120737493Y-71398971D01*
X120717385Y-71389367D01*
X120697785Y-71376099D01*
X120679004Y-71359454D01*
X120661354Y-71339715D01*
X120645147Y-71317168D01*
X120630693Y-71292099D01*
X120627203Y-71285084D01*
X120622977Y-71276101D01*
X120620301Y-71269401D01*
X120618823Y-71263481D01*
X120618194Y-71256838D01*
X120618062Y-71247967D01*
X120618065Y-71245915D01*
X120618257Y-71235606D01*
X120618958Y-71228073D01*
X120620426Y-71221862D01*
X120622916Y-71215521D01*
X120623771Y-71213655D01*
X120631839Y-71200549D01*
X120642893Y-71188465D01*
X120655679Y-71178671D01*
X120661648Y-71175356D01*
X120675419Y-71170080D01*
X120692598Y-71165799D01*
X120712473Y-71162513D01*
X120734331Y-71160223D01*
X120757459Y-71158928D01*
X120781146Y-71158630D01*
X120804678Y-71159328D01*
G37*
G36*
X120505905Y-71283131D02*
G01*
X120513032Y-71283675D01*
X120518865Y-71284969D01*
X120524878Y-71287310D01*
X120530337Y-71289902D01*
X120545410Y-71299437D01*
X120554710Y-71308092D01*
X120565488Y-71321709D01*
X120576207Y-71338531D01*
X120586341Y-71357552D01*
X120595366Y-71377769D01*
X120602758Y-71398176D01*
X120604185Y-71402837D01*
X120607329Y-71416694D01*
X120609369Y-71432428D01*
X120610248Y-71448678D01*
X120609908Y-71464085D01*
X120608294Y-71477289D01*
X120607468Y-71480944D01*
X120599974Y-71501697D01*
X120588983Y-71520087D01*
X120574543Y-71536077D01*
X120556703Y-71549630D01*
X120535512Y-71560713D01*
X120511018Y-71569288D01*
X120483271Y-71575319D01*
X120477929Y-71576133D01*
X120469026Y-71577037D01*
X120457706Y-71577650D01*
X120445020Y-71577973D01*
X120432020Y-71578006D01*
X120419755Y-71577751D01*
X120409277Y-71577208D01*
X120401636Y-71576381D01*
X120399912Y-71576044D01*
X120384292Y-71570356D01*
X120369717Y-71561246D01*
X120357140Y-71549485D01*
X120347514Y-71535842D01*
X120345656Y-71532177D01*
X120342393Y-71523988D01*
X120340436Y-71515550D01*
X120339414Y-71505105D01*
X120339259Y-71501919D01*
X120339050Y-71493316D01*
X120339405Y-71486291D01*
X120340558Y-71479455D01*
X120342742Y-71471419D01*
X120346135Y-71460953D01*
X120354150Y-71439586D01*
X120363871Y-71417845D01*
X120374966Y-71396220D01*
X120387101Y-71375201D01*
X120399942Y-71355277D01*
X120413157Y-71336938D01*
X120426410Y-71320673D01*
X120439370Y-71306974D01*
X120451702Y-71296328D01*
X120463071Y-71289227D01*
X120469786Y-71286251D01*
X120475725Y-71284419D01*
X120482346Y-71283456D01*
X120491107Y-71283089D01*
X120496009Y-71283045D01*
X120505905Y-71283131D01*
G37*
G36*
X122347777Y-69989550D02*
G01*
X122352492Y-69992801D01*
X122359662Y-69997949D01*
X122368825Y-70004659D01*
X122379519Y-70012596D01*
X122388875Y-70019611D01*
X122431115Y-70051417D01*
X122520928Y-70284542D01*
X122532482Y-70314553D01*
X122543590Y-70343451D01*
X122554159Y-70370992D01*
X122564097Y-70396931D01*
X122573311Y-70421025D01*
X122581706Y-70443028D01*
X122589191Y-70462696D01*
X122595673Y-70479785D01*
X122601057Y-70494051D01*
X122605252Y-70505249D01*
X122608164Y-70513135D01*
X122609701Y-70517465D01*
X122609922Y-70518256D01*
X122607593Y-70518212D01*
X122602129Y-70517572D01*
X122594576Y-70516466D01*
X122592120Y-70516072D01*
X122559532Y-70511051D01*
X122523081Y-70505981D01*
X122483145Y-70500891D01*
X122440106Y-70495812D01*
X122394343Y-70490771D01*
X122346237Y-70485799D01*
X122296168Y-70480923D01*
X122244518Y-70476175D01*
X122191664Y-70471582D01*
X122137990Y-70467174D01*
X122083873Y-70462980D01*
X122029696Y-70459029D01*
X121975837Y-70455351D01*
X121922678Y-70451974D01*
X121870599Y-70448928D01*
X121819980Y-70446243D01*
X121771202Y-70443947D01*
X121724644Y-70442069D01*
X121680687Y-70440638D01*
X121639711Y-70439685D01*
X121602098Y-70439238D01*
X121590790Y-70439206D01*
X121577949Y-70439125D01*
X121568304Y-70438813D01*
X121560809Y-70438152D01*
X121554416Y-70437024D01*
X121548077Y-70435310D01*
X121543716Y-70433903D01*
X121535516Y-70431355D01*
X121528351Y-70429479D01*
X121523593Y-70428627D01*
X121523152Y-70428609D01*
X121519904Y-70428203D01*
X121519521Y-70427488D01*
X121522161Y-70426292D01*
X121528341Y-70424171D01*
X121537497Y-70421289D01*
X121549067Y-70417807D01*
X121562485Y-70413886D01*
X121577190Y-70409689D01*
X121592617Y-70405377D01*
X121608202Y-70401113D01*
X121623383Y-70397058D01*
X121637596Y-70393373D01*
X121643281Y-70391941D01*
X121714480Y-70375622D01*
X121787286Y-70361722D01*
X121861219Y-70350266D01*
X121935801Y-70341276D01*
X122010553Y-70334777D01*
X122084996Y-70330791D01*
X122158650Y-70329343D01*
X122231037Y-70330457D01*
X122301678Y-70334155D01*
X122370094Y-70340462D01*
X122435806Y-70349401D01*
X122451643Y-70352030D01*
X122474612Y-70355988D01*
X122473461Y-70351539D01*
X122472596Y-70348923D01*
X122470415Y-70342607D01*
X122467021Y-70332883D01*
X122462516Y-70320043D01*
X122457005Y-70304377D01*
X122450589Y-70286179D01*
X122443371Y-70265738D01*
X122435454Y-70243348D01*
X122426941Y-70219299D01*
X122417935Y-70193883D01*
X122408816Y-70168173D01*
X122399471Y-70141812D01*
X122390555Y-70116606D01*
X122382167Y-70092839D01*
X122374406Y-70070794D01*
X122367372Y-70050755D01*
X122361163Y-70033006D01*
X122355880Y-70017830D01*
X122351620Y-70005510D01*
X122348484Y-69996331D01*
X122346570Y-69990577D01*
X122345978Y-69988529D01*
X122347777Y-69989550D01*
G37*
G36*
X120648630Y-69990146D02*
G01*
X120646787Y-69995809D01*
X120643725Y-70004906D01*
X120639538Y-70017158D01*
X120634325Y-70032284D01*
X120628183Y-70050006D01*
X120621208Y-70070044D01*
X120613497Y-70092118D01*
X120605147Y-70115949D01*
X120596255Y-70141257D01*
X120586918Y-70167763D01*
X120585857Y-70170769D01*
X120576457Y-70197429D01*
X120567468Y-70222946D01*
X120558991Y-70247038D01*
X120551125Y-70269423D01*
X120543967Y-70289818D01*
X120537618Y-70307941D01*
X120532175Y-70323510D01*
X120527738Y-70336242D01*
X120524406Y-70345857D01*
X120522278Y-70352070D01*
X120521451Y-70354600D01*
X120521444Y-70354639D01*
X120523391Y-70354827D01*
X120528666Y-70354339D01*
X120536426Y-70353275D01*
X120544263Y-70352004D01*
X120608148Y-70342560D01*
X120674907Y-70335675D01*
X120744050Y-70331326D01*
X120815086Y-70329488D01*
X120887524Y-70330140D01*
X120960875Y-70333257D01*
X121034648Y-70338815D01*
X121108352Y-70346792D01*
X121181497Y-70357163D01*
X121253593Y-70369906D01*
X121324150Y-70384996D01*
X121346908Y-70390461D01*
X121361773Y-70394231D01*
X121378387Y-70398612D01*
X121395897Y-70403365D01*
X121413447Y-70408248D01*
X121430184Y-70413022D01*
X121445253Y-70417447D01*
X121457801Y-70421282D01*
X121465968Y-70423941D01*
X121477573Y-70427908D01*
X121467367Y-70429303D01*
X121458758Y-70431141D01*
X121449809Y-70434014D01*
X121447532Y-70434947D01*
X121443129Y-70436643D01*
X121438325Y-70437827D01*
X121432270Y-70438588D01*
X121424113Y-70439012D01*
X121413003Y-70439186D01*
X121405802Y-70439206D01*
X121367711Y-70439499D01*
X121325832Y-70440336D01*
X121280581Y-70441689D01*
X121232374Y-70443532D01*
X121181631Y-70445838D01*
X121128767Y-70448578D01*
X121074201Y-70451726D01*
X121018349Y-70455253D01*
X120961629Y-70459134D01*
X120904458Y-70463339D01*
X120847254Y-70467843D01*
X120790433Y-70472618D01*
X120734413Y-70477635D01*
X120679611Y-70482869D01*
X120626445Y-70488291D01*
X120579818Y-70493368D01*
X120560567Y-70495576D01*
X120540115Y-70497998D01*
X120519019Y-70500563D01*
X120497841Y-70503196D01*
X120477139Y-70505827D01*
X120457471Y-70508383D01*
X120439398Y-70510791D01*
X120423478Y-70512979D01*
X120410271Y-70514874D01*
X120400335Y-70516404D01*
X120395675Y-70517211D01*
X120389857Y-70517986D01*
X120386214Y-70517854D01*
X120385593Y-70517372D01*
X120386336Y-70515219D01*
X120388488Y-70509415D01*
X120391933Y-70500261D01*
X120396556Y-70488061D01*
X120402240Y-70473114D01*
X120408870Y-70455723D01*
X120416330Y-70436189D01*
X120424504Y-70414814D01*
X120433276Y-70391900D01*
X120442531Y-70367747D01*
X120452152Y-70342657D01*
X120462024Y-70316932D01*
X120472030Y-70290874D01*
X120482056Y-70264784D01*
X120491985Y-70238963D01*
X120501701Y-70213714D01*
X120511089Y-70189337D01*
X120520032Y-70166135D01*
X120528415Y-70144408D01*
X120536123Y-70124459D01*
X120543038Y-70106588D01*
X120549046Y-70091099D01*
X120554031Y-70078291D01*
X120557876Y-70068466D01*
X120560466Y-70061927D01*
X120561615Y-70059128D01*
X120563397Y-70055942D01*
X120566270Y-70052363D01*
X120570648Y-70048026D01*
X120576946Y-70042567D01*
X120585576Y-70035621D01*
X120596954Y-70026824D01*
X120606698Y-70019427D01*
X120618188Y-70010780D01*
X120628541Y-70003052D01*
X120637284Y-69996591D01*
X120643944Y-69991744D01*
X120648046Y-69988861D01*
X120649155Y-69988196D01*
X120648630Y-69990146D01*
G37*
G36*
X122794156Y-70884230D02*
G01*
X122801419Y-70885372D01*
X122812599Y-70887247D01*
X122827569Y-70889835D01*
X122846200Y-70893112D01*
X122868365Y-70897056D01*
X122893936Y-70901646D01*
X122902031Y-70903106D01*
X122920487Y-70906480D01*
X122939915Y-70910109D01*
X122959869Y-70913904D01*
X122979906Y-70917775D01*
X122999581Y-70921632D01*
X123018449Y-70925387D01*
X123036065Y-70928949D01*
X123051985Y-70932228D01*
X123065764Y-70935136D01*
X123076958Y-70937583D01*
X123085121Y-70939478D01*
X123089809Y-70940733D01*
X123090755Y-70941127D01*
X123091225Y-70943682D01*
X123090884Y-70949759D01*
X123089716Y-70959455D01*
X123087706Y-70972868D01*
X123084840Y-70990094D01*
X123081103Y-71011231D01*
X123076480Y-71036375D01*
X123074709Y-71045823D01*
X123049978Y-71166513D01*
X123021600Y-71285114D01*
X122989584Y-71401605D01*
X122953940Y-71515964D01*
X122914674Y-71628171D01*
X122871795Y-71738205D01*
X122825313Y-71846042D01*
X122775235Y-71951663D01*
X122721569Y-72055046D01*
X122664325Y-72156169D01*
X122603510Y-72255011D01*
X122591692Y-72273317D01*
X122544525Y-72343569D01*
X122494761Y-72413394D01*
X122442897Y-72482167D01*
X122389430Y-72549266D01*
X122334857Y-72614068D01*
X122279677Y-72675950D01*
X122224386Y-72734289D01*
X122220202Y-72738552D01*
X122181544Y-72777834D01*
X122181463Y-72502046D01*
X122181459Y-72468242D01*
X122181469Y-72435627D01*
X122181492Y-72404449D01*
X122181527Y-72374958D01*
X122181572Y-72347402D01*
X122181629Y-72322028D01*
X122181694Y-72299086D01*
X122181769Y-72278824D01*
X122181852Y-72261489D01*
X122181942Y-72247332D01*
X122182039Y-72236599D01*
X122182143Y-72229539D01*
X122182251Y-72226401D01*
X122182280Y-72226259D01*
X122184143Y-72227402D01*
X122189285Y-72230718D01*
X122197445Y-72236036D01*
X122208365Y-72243187D01*
X122221786Y-72252000D01*
X122237450Y-72262305D01*
X122255097Y-72273932D01*
X122274469Y-72286711D01*
X122295308Y-72300471D01*
X122317354Y-72315042D01*
X122333521Y-72325735D01*
X122483863Y-72425212D01*
X122484924Y-72072825D01*
X122485986Y-71720438D01*
X122636149Y-71819839D01*
X122658881Y-71834878D01*
X122680593Y-71849226D01*
X122701024Y-71862712D01*
X122719916Y-71875166D01*
X122737009Y-71886418D01*
X122752044Y-71896297D01*
X122764763Y-71904632D01*
X122774905Y-71911254D01*
X122782211Y-71915992D01*
X122786423Y-71918675D01*
X122787390Y-71919240D01*
X122787487Y-71917152D01*
X122787582Y-71911012D01*
X122787673Y-71900999D01*
X122787762Y-71887295D01*
X122787847Y-71870082D01*
X122787929Y-71849541D01*
X122788006Y-71825852D01*
X122788078Y-71799198D01*
X122788146Y-71769759D01*
X122788208Y-71737718D01*
X122788264Y-71703254D01*
X122788315Y-71666550D01*
X122788359Y-71627786D01*
X122788396Y-71587145D01*
X122788425Y-71544807D01*
X122788447Y-71500954D01*
X122788462Y-71455766D01*
X122788467Y-71409426D01*
X122788468Y-71401542D01*
X122788472Y-71343129D01*
X122788487Y-71288835D01*
X122788513Y-71238545D01*
X122788549Y-71192142D01*
X122788598Y-71149512D01*
X122788658Y-71110539D01*
X122788731Y-71075106D01*
X122788818Y-71043100D01*
X122788919Y-71014403D01*
X122789034Y-70988901D01*
X122789163Y-70966477D01*
X122789309Y-70947017D01*
X122789471Y-70930404D01*
X122789649Y-70916523D01*
X122789844Y-70905259D01*
X122790058Y-70896495D01*
X122790289Y-70890116D01*
X122790540Y-70886007D01*
X122790810Y-70884052D01*
X122790939Y-70883844D01*
X122794156Y-70884230D01*
G37*
G36*
X122187578Y-70805741D02*
G01*
X122195671Y-70806424D01*
X122207093Y-70807504D01*
X122221400Y-70808929D01*
X122238146Y-70810652D01*
X122256889Y-70812623D01*
X122277185Y-70814793D01*
X122298588Y-70817112D01*
X122320656Y-70819532D01*
X122342944Y-70822003D01*
X122365009Y-70824476D01*
X122386406Y-70826901D01*
X122406691Y-70829230D01*
X122425420Y-70831413D01*
X122442149Y-70833401D01*
X122456435Y-70835145D01*
X122467833Y-70836596D01*
X122475899Y-70837704D01*
X122480148Y-70838411D01*
X122484924Y-70839460D01*
X122484924Y-71278775D01*
X122484919Y-71321583D01*
X122484904Y-71363253D01*
X122484880Y-71403589D01*
X122484847Y-71442393D01*
X122484805Y-71479469D01*
X122484755Y-71514620D01*
X122484698Y-71547649D01*
X122484634Y-71578360D01*
X122484564Y-71606554D01*
X122484487Y-71632037D01*
X122484405Y-71654611D01*
X122484318Y-71674078D01*
X122484226Y-71690244D01*
X122484131Y-71702909D01*
X122484031Y-71711879D01*
X122483929Y-71716955D01*
X122483852Y-71718089D01*
X122481964Y-71716942D01*
X122476805Y-71713614D01*
X122468634Y-71708276D01*
X122457710Y-71701100D01*
X122444292Y-71692256D01*
X122428639Y-71681917D01*
X122411011Y-71670252D01*
X122391667Y-71657434D01*
X122370865Y-71643632D01*
X122348865Y-71629019D01*
X122333152Y-71618573D01*
X122310478Y-71603500D01*
X122288824Y-71589122D01*
X122268448Y-71575608D01*
X122249610Y-71563130D01*
X122232569Y-71551860D01*
X122217584Y-71541968D01*
X122204915Y-71533625D01*
X122194820Y-71527003D01*
X122187559Y-71522272D01*
X122183391Y-71519605D01*
X122182453Y-71519056D01*
X122182337Y-71521137D01*
X122182224Y-71527232D01*
X122182115Y-71537122D01*
X122182011Y-71550587D01*
X122181912Y-71567407D01*
X122181820Y-71587361D01*
X122181735Y-71610230D01*
X122181657Y-71635793D01*
X122181587Y-71663831D01*
X122181527Y-71694123D01*
X122181476Y-71726451D01*
X122181435Y-71760592D01*
X122181405Y-71796328D01*
X122181387Y-71833439D01*
X122181381Y-71870540D01*
X122181369Y-71916378D01*
X122181334Y-71959500D01*
X122181276Y-71999788D01*
X122181196Y-72037122D01*
X122181095Y-72071384D01*
X122180974Y-72102456D01*
X122180832Y-72130219D01*
X122180672Y-72154554D01*
X122180492Y-72175343D01*
X122180295Y-72192467D01*
X122180081Y-72205808D01*
X122179850Y-72215246D01*
X122179603Y-72220664D01*
X122179393Y-72222024D01*
X122177364Y-72220878D01*
X122172063Y-72217554D01*
X122163751Y-72212223D01*
X122152689Y-72205055D01*
X122139139Y-72196221D01*
X122123360Y-72185892D01*
X122105613Y-72174239D01*
X122086160Y-72161431D01*
X122065262Y-72147640D01*
X122043179Y-72133037D01*
X122027091Y-72122379D01*
X121876776Y-72022735D01*
X121875715Y-72533672D01*
X121874653Y-73044608D01*
X121837506Y-73071611D01*
X121802996Y-73096221D01*
X121766729Y-73121201D01*
X121729594Y-73145974D01*
X121692480Y-73169959D01*
X121656274Y-73192579D01*
X121621866Y-73213255D01*
X121604628Y-73223247D01*
X121594457Y-73229020D01*
X121585608Y-73233971D01*
X121578719Y-73237748D01*
X121574428Y-73239999D01*
X121573319Y-73240480D01*
X121573230Y-73238388D01*
X121573144Y-73232217D01*
X121573059Y-73222121D01*
X121572977Y-73208254D01*
X121572898Y-73190772D01*
X121572821Y-73169830D01*
X121572747Y-73145583D01*
X121572677Y-73118185D01*
X121572610Y-73087791D01*
X121572546Y-73054556D01*
X121572487Y-73018635D01*
X121572432Y-72980184D01*
X121572382Y-72939356D01*
X121572336Y-72896307D01*
X121572296Y-72851191D01*
X121572260Y-72804164D01*
X121572230Y-72755380D01*
X121572206Y-72704994D01*
X121572188Y-72653162D01*
X121572177Y-72600037D01*
X121572172Y-72545775D01*
X121572171Y-72531160D01*
X121572174Y-72476622D01*
X121572182Y-72423179D01*
X121572195Y-72370988D01*
X121572213Y-72320202D01*
X121572235Y-72270977D01*
X121572262Y-72223467D01*
X121572293Y-72177827D01*
X121572328Y-72134213D01*
X121572367Y-72092778D01*
X121572410Y-72053679D01*
X121572456Y-72017070D01*
X121572505Y-71983105D01*
X121572557Y-71951940D01*
X121572613Y-71923729D01*
X121572670Y-71898628D01*
X121572731Y-71876791D01*
X121572793Y-71858373D01*
X121572858Y-71843529D01*
X121572924Y-71832414D01*
X121572992Y-71825183D01*
X121573062Y-71821990D01*
X121573081Y-71821840D01*
X121574945Y-71822985D01*
X121580086Y-71826304D01*
X121588244Y-71831627D01*
X121599161Y-71838785D01*
X121612579Y-71847607D01*
X121628238Y-71857922D01*
X121645880Y-71869561D01*
X121665247Y-71882352D01*
X121686079Y-71896126D01*
X121708119Y-71910712D01*
X121724322Y-71921444D01*
X121874653Y-72021047D01*
X121875715Y-71668537D01*
X121876776Y-71316026D01*
X122028548Y-71416482D01*
X122180319Y-71516938D01*
X122180856Y-71161220D01*
X122180928Y-71120766D01*
X122181019Y-71081856D01*
X122181127Y-71044687D01*
X122181252Y-71009453D01*
X122181391Y-70976352D01*
X122181544Y-70945577D01*
X122181709Y-70917326D01*
X122181885Y-70891794D01*
X122182071Y-70869177D01*
X122182265Y-70849669D01*
X122182465Y-70833468D01*
X122182672Y-70820769D01*
X122182883Y-70811768D01*
X122183096Y-70806660D01*
X122183256Y-70805502D01*
X122187578Y-70805741D01*
G37*
G36*
X121542922Y-69738218D02*
G01*
X121575229Y-69738322D01*
X121606413Y-69738483D01*
X121635986Y-69738703D01*
X121663459Y-69738980D01*
X121688346Y-69739315D01*
X121710157Y-69739708D01*
X121728405Y-69740158D01*
X121734556Y-69740353D01*
X121869399Y-69745980D01*
X122001180Y-69753545D01*
X122130649Y-69763122D01*
X122258557Y-69774783D01*
X122385653Y-69788602D01*
X122512687Y-69804651D01*
X122640408Y-69823003D01*
X122729032Y-69836998D01*
X122755046Y-69841325D01*
X122782289Y-69845988D01*
X122810404Y-69850918D01*
X122839033Y-69856046D01*
X122867819Y-69861302D01*
X122896403Y-69866615D01*
X122924428Y-69871918D01*
X122951537Y-69877139D01*
X122977371Y-69882210D01*
X123001572Y-69887060D01*
X123023783Y-69891620D01*
X123043646Y-69895821D01*
X123060804Y-69899592D01*
X123074898Y-69902865D01*
X123085570Y-69905569D01*
X123092464Y-69907634D01*
X123093072Y-69907856D01*
X123105234Y-69914235D01*
X123117116Y-69923668D01*
X123127623Y-69935051D01*
X123135659Y-69947281D01*
X123138475Y-69953549D01*
X123143293Y-69966542D01*
X123142344Y-70212927D01*
X123142173Y-70251879D01*
X123141969Y-70288817D01*
X123141734Y-70323524D01*
X123141472Y-70355783D01*
X123141185Y-70385378D01*
X123140876Y-70412090D01*
X123140546Y-70435703D01*
X123140198Y-70456001D01*
X123139836Y-70472766D01*
X123139462Y-70485781D01*
X123139078Y-70494830D01*
X123138986Y-70496365D01*
X123136704Y-70530998D01*
X123134605Y-70561858D01*
X123132654Y-70589399D01*
X123130817Y-70614078D01*
X123129061Y-70636351D01*
X123127352Y-70656672D01*
X123125872Y-70673166D01*
X123124654Y-70686028D01*
X123123249Y-70700332D01*
X123121721Y-70715497D01*
X123120131Y-70730945D01*
X123118542Y-70746095D01*
X123117014Y-70760368D01*
X123115609Y-70773183D01*
X123114391Y-70783961D01*
X123113420Y-70792123D01*
X123112759Y-70797087D01*
X123112503Y-70798365D01*
X123110424Y-70798027D01*
X123104702Y-70796940D01*
X123095852Y-70795205D01*
X123084389Y-70792924D01*
X123070829Y-70790199D01*
X123055686Y-70787133D01*
X123050619Y-70786102D01*
X122908340Y-70758663D01*
X122763264Y-70733697D01*
X122616109Y-70711295D01*
X122467588Y-70691551D01*
X122318418Y-70674557D01*
X122169314Y-70660406D01*
X122020992Y-70649189D01*
X121964867Y-70645709D01*
X121923843Y-70643381D01*
X121885496Y-70641341D01*
X121849213Y-70639572D01*
X121814381Y-70638057D01*
X121780384Y-70636779D01*
X121746611Y-70635723D01*
X121712446Y-70634870D01*
X121677275Y-70634205D01*
X121640485Y-70633711D01*
X121601463Y-70633370D01*
X121559593Y-70633167D01*
X121514262Y-70633084D01*
X121501062Y-70633081D01*
X121460477Y-70633112D01*
X121423554Y-70633213D01*
X121389708Y-70633399D01*
X121358355Y-70633680D01*
X121328911Y-70634070D01*
X121300793Y-70634581D01*
X121273417Y-70635227D01*
X121246199Y-70636019D01*
X121218554Y-70636971D01*
X121189900Y-70638096D01*
X121159651Y-70639405D01*
X121127225Y-70640912D01*
X121115795Y-70641462D01*
X120937554Y-70652153D01*
X120759361Y-70666921D01*
X120581555Y-70685727D01*
X120404474Y-70708533D01*
X120228456Y-70735298D01*
X120085233Y-70760159D01*
X120070011Y-70762978D01*
X120053019Y-70766171D01*
X120034751Y-70769641D01*
X120015701Y-70773292D01*
X119996363Y-70777027D01*
X119977230Y-70780749D01*
X119958796Y-70784361D01*
X119941555Y-70787767D01*
X119926002Y-70790870D01*
X119912629Y-70793572D01*
X119901930Y-70795778D01*
X119894400Y-70797390D01*
X119890532Y-70798312D01*
X119890477Y-70798328D01*
X119887325Y-70798071D01*
X119886721Y-70796646D01*
X119886413Y-70793205D01*
X119885651Y-70786985D01*
X119884707Y-70780093D01*
X119883700Y-70772258D01*
X119882394Y-70760876D01*
X119880855Y-70746621D01*
X119879150Y-70730164D01*
X119877345Y-70712180D01*
X119875507Y-70693340D01*
X119873701Y-70674318D01*
X119871994Y-70655785D01*
X119870452Y-70638415D01*
X119869141Y-70622881D01*
X119868758Y-70618114D01*
X119866745Y-70590717D01*
X120277336Y-70590717D01*
X120279255Y-70597624D01*
X120284203Y-70603184D01*
X120290970Y-70606220D01*
X120293570Y-70606469D01*
X120297087Y-70606102D01*
X120304094Y-70605075D01*
X120313907Y-70603500D01*
X120325842Y-70601487D01*
X120339215Y-70599148D01*
X120344759Y-70598156D01*
X120446206Y-70581084D01*
X120551355Y-70565742D01*
X120660026Y-70552152D01*
X120772037Y-70540332D01*
X120887209Y-70530301D01*
X121005360Y-70522079D01*
X121107304Y-70516559D01*
X121229075Y-70511702D01*
X121350742Y-70508626D01*
X121471998Y-70507316D01*
X121592540Y-70507755D01*
X121712060Y-70509928D01*
X121830255Y-70513820D01*
X121946818Y-70519412D01*
X122061445Y-70526691D01*
X122173830Y-70535640D01*
X122283667Y-70546243D01*
X122390652Y-70558484D01*
X122494479Y-70572346D01*
X122594843Y-70587815D01*
X122649016Y-70597102D01*
X122663710Y-70599679D01*
X122677250Y-70601986D01*
X122689002Y-70603918D01*
X122698332Y-70605374D01*
X122704607Y-70606252D01*
X122706956Y-70606469D01*
X122712923Y-70604634D01*
X122718399Y-70600065D01*
X122721992Y-70594167D01*
X122722664Y-70590615D01*
X122721799Y-70587996D01*
X122719281Y-70581785D01*
X122715227Y-70572240D01*
X122709755Y-70559618D01*
X122702980Y-70544176D01*
X122695019Y-70526172D01*
X122685991Y-70505864D01*
X122676011Y-70483509D01*
X122665196Y-70459365D01*
X122653664Y-70433688D01*
X122641531Y-70406737D01*
X122628914Y-70378768D01*
X122615929Y-70350040D01*
X122602694Y-70320810D01*
X122589326Y-70291335D01*
X122575941Y-70261873D01*
X122562657Y-70232681D01*
X122549590Y-70204017D01*
X122536857Y-70176138D01*
X122524574Y-70149302D01*
X122512860Y-70123766D01*
X122501830Y-70099787D01*
X122491601Y-70077624D01*
X122482291Y-70057533D01*
X122474017Y-70039773D01*
X122466894Y-70024599D01*
X122461040Y-70012271D01*
X122456573Y-70003046D01*
X122453607Y-69997180D01*
X122452300Y-69994965D01*
X122447384Y-69991633D01*
X122439616Y-69989002D01*
X122431429Y-69987312D01*
X122423325Y-69985749D01*
X122416674Y-69984174D01*
X122412753Y-69982896D01*
X122412486Y-69982753D01*
X122410069Y-69981005D01*
X122404792Y-69977019D01*
X122397140Y-69971167D01*
X122387596Y-69963820D01*
X122376645Y-69955348D01*
X122366861Y-69947750D01*
X122355046Y-69938602D01*
X122344169Y-69930256D01*
X122334729Y-69923090D01*
X122327223Y-69917480D01*
X122322150Y-69913803D01*
X122320162Y-69912496D01*
X122315140Y-69910789D01*
X122306406Y-69908776D01*
X122294476Y-69906533D01*
X122279865Y-69904139D01*
X122263089Y-69901672D01*
X122244663Y-69899210D01*
X122225103Y-69896830D01*
X122204925Y-69894610D01*
X122195178Y-69893625D01*
X122182079Y-69892610D01*
X122165380Y-69891740D01*
X122145726Y-69891019D01*
X122123759Y-69890449D01*
X122100125Y-69890032D01*
X122075465Y-69889771D01*
X122050424Y-69889670D01*
X122025646Y-69889730D01*
X122001774Y-69889954D01*
X121979452Y-69890346D01*
X121959323Y-69890908D01*
X121942031Y-69891642D01*
X121928782Y-69892504D01*
X121870334Y-69897906D01*
X121815425Y-69904252D01*
X121763432Y-69911640D01*
X121713735Y-69920165D01*
X121665711Y-69929926D01*
X121620993Y-69940450D01*
X121604107Y-69944833D01*
X121586250Y-69949719D01*
X121568256Y-69954858D01*
X121550965Y-69960001D01*
X121535213Y-69964899D01*
X121521836Y-69969302D01*
X121511673Y-69972960D01*
X121510981Y-69973230D01*
X121500465Y-69977364D01*
X121468923Y-69966826D01*
X121416563Y-69950740D01*
X121360684Y-69936254D01*
X121301733Y-69923452D01*
X121240157Y-69912420D01*
X121176400Y-69903243D01*
X121110910Y-69896006D01*
X121087139Y-69893904D01*
X121068855Y-69892633D01*
X121047313Y-69891535D01*
X121023327Y-69890622D01*
X120997709Y-69889905D01*
X120971269Y-69889396D01*
X120944820Y-69889107D01*
X120919174Y-69889048D01*
X120895143Y-69889232D01*
X120873539Y-69889670D01*
X120855174Y-69890372D01*
X120851521Y-69890571D01*
X120823033Y-69892509D01*
X120794393Y-69894987D01*
X120766568Y-69897897D01*
X120740527Y-69901135D01*
X120717236Y-69904594D01*
X120706054Y-69906532D01*
X120679160Y-69911489D01*
X120634796Y-69946025D01*
X120622678Y-69955400D01*
X120611416Y-69964004D01*
X120601514Y-69971460D01*
X120593476Y-69977391D01*
X120587807Y-69981421D01*
X120585125Y-69983121D01*
X120579970Y-69984858D01*
X120572643Y-69986477D01*
X120568143Y-69987176D01*
X120557025Y-69989487D01*
X120548991Y-69993543D01*
X120543013Y-70000027D01*
X120539601Y-70006172D01*
X120538152Y-70009312D01*
X120535055Y-70016086D01*
X120530412Y-70026271D01*
X120524324Y-70039642D01*
X120516893Y-70055977D01*
X120508220Y-70075051D01*
X120498407Y-70096640D01*
X120487557Y-70120520D01*
X120475770Y-70146469D01*
X120463149Y-70174261D01*
X120449795Y-70203673D01*
X120435810Y-70234482D01*
X120421295Y-70266463D01*
X120406352Y-70299392D01*
X120405958Y-70300261D01*
X120385612Y-70345150D01*
X120367043Y-70386213D01*
X120350243Y-70423470D01*
X120335205Y-70456937D01*
X120321920Y-70486633D01*
X120310382Y-70512574D01*
X120300581Y-70534778D01*
X120292511Y-70553264D01*
X120286164Y-70568048D01*
X120281531Y-70579148D01*
X120278605Y-70586582D01*
X120277379Y-70590367D01*
X120277336Y-70590717D01*
X119866745Y-70590717D01*
X119865913Y-70579395D01*
X119863422Y-70539516D01*
X119861278Y-70498149D01*
X119859472Y-70454970D01*
X119857994Y-70409651D01*
X119856836Y-70361866D01*
X119855989Y-70311291D01*
X119855445Y-70257597D01*
X119855195Y-70200460D01*
X119855230Y-70139552D01*
X119855322Y-70114180D01*
X119855984Y-69963846D01*
X119862722Y-69949658D01*
X119867765Y-69940683D01*
X119874067Y-69931695D01*
X119879277Y-69925678D01*
X119883682Y-69921479D01*
X119888132Y-69917806D01*
X119893026Y-69914532D01*
X119898760Y-69911532D01*
X119905732Y-69908678D01*
X119914339Y-69905847D01*
X119924978Y-69902910D01*
X119938047Y-69899744D01*
X119953943Y-69896221D01*
X119973063Y-69892216D01*
X119995805Y-69887603D01*
X120005633Y-69885633D01*
X120142804Y-69859385D01*
X120278275Y-69835870D01*
X120412701Y-69815014D01*
X120546735Y-69796742D01*
X120681033Y-69780977D01*
X120816249Y-69767644D01*
X120953036Y-69756669D01*
X121092050Y-69747974D01*
X121233945Y-69741486D01*
X121265444Y-69740353D01*
X121282142Y-69739880D01*
X121302596Y-69739464D01*
X121326320Y-69739106D01*
X121352824Y-69738806D01*
X121381621Y-69738564D01*
X121412224Y-69738379D01*
X121444143Y-69738252D01*
X121476891Y-69738183D01*
X121509980Y-69738171D01*
X121542922Y-69738218D01*
G37*
G36*
X121427829Y-72007873D02*
G01*
X121427826Y-72079932D01*
X121427818Y-72150932D01*
X121427804Y-72220755D01*
X121427786Y-72289285D01*
X121427762Y-72356405D01*
X121427733Y-72421995D01*
X121427700Y-72485940D01*
X121427662Y-72548121D01*
X121427619Y-72608421D01*
X121427573Y-72666723D01*
X121427522Y-72722909D01*
X121427467Y-72776861D01*
X121427409Y-72828463D01*
X121427347Y-72877596D01*
X121427282Y-72924143D01*
X121427213Y-72967986D01*
X121427141Y-73009009D01*
X121427066Y-73047093D01*
X121426989Y-73082122D01*
X121426908Y-73113977D01*
X121426825Y-73142541D01*
X121426740Y-73167697D01*
X121426653Y-73189327D01*
X121426563Y-73207314D01*
X121426472Y-73221540D01*
X121426379Y-73231887D01*
X121426284Y-73238239D01*
X121426188Y-73240478D01*
X121426185Y-73240480D01*
X121423891Y-73239472D01*
X121418561Y-73236677D01*
X121410824Y-73232441D01*
X121401313Y-73227107D01*
X121392752Y-73222226D01*
X121313997Y-73174922D01*
X121235471Y-73123640D01*
X121157484Y-73068638D01*
X121080348Y-73010172D01*
X121004375Y-72948498D01*
X120929878Y-72883874D01*
X120857166Y-72816556D01*
X120786552Y-72746801D01*
X120718349Y-72674865D01*
X120689888Y-72643381D01*
X120615468Y-72556666D01*
X120544345Y-72467308D01*
X120476550Y-72375368D01*
X120412115Y-72280908D01*
X120351069Y-72183987D01*
X120293444Y-72084668D01*
X120239270Y-71983010D01*
X120188577Y-71879075D01*
X120141397Y-71772925D01*
X120097760Y-71664619D01*
X120087581Y-71636570D01*
X120234775Y-71636570D01*
X120235360Y-71644973D01*
X120235944Y-71653375D01*
X120252925Y-71658444D01*
X120260705Y-71660790D01*
X120266676Y-71662636D01*
X120269877Y-71663682D01*
X120270165Y-71663805D01*
X120270583Y-71665869D01*
X120271342Y-71670759D01*
X120271751Y-71673624D01*
X120273077Y-71683153D01*
X120257164Y-71692669D01*
X120250036Y-71697074D01*
X120244558Y-71700730D01*
X120241566Y-71703067D01*
X120241250Y-71703520D01*
X120241629Y-71706356D01*
X120242533Y-71711253D01*
X120243360Y-71714343D01*
X120244927Y-71716458D01*
X120248100Y-71718034D01*
X120253744Y-71719507D01*
X120262387Y-71721248D01*
X120280959Y-71724846D01*
X120283083Y-71734103D01*
X120285206Y-71743359D01*
X120272407Y-71753486D01*
X120266022Y-71758508D01*
X120260840Y-71762529D01*
X120257835Y-71764793D01*
X120257611Y-71764949D01*
X120256810Y-71767852D01*
X120257992Y-71773472D01*
X120258060Y-71773681D01*
X120260507Y-71781076D01*
X120279267Y-71782540D01*
X120298028Y-71784004D01*
X120301490Y-71792797D01*
X120304953Y-71801590D01*
X120292206Y-71814419D01*
X120285282Y-71821719D01*
X120281266Y-71827055D01*
X120279831Y-71831204D01*
X120280651Y-71834944D01*
X120282402Y-71837751D01*
X120284333Y-71839684D01*
X120287263Y-71840820D01*
X120292137Y-71841306D01*
X120299902Y-71841291D01*
X120304294Y-71841168D01*
X120323242Y-71840570D01*
X120327041Y-71848972D01*
X120330839Y-71857374D01*
X120320008Y-71871122D01*
X120314109Y-71878879D01*
X120310745Y-71884329D01*
X120309656Y-71888355D01*
X120310585Y-71891840D01*
X120312938Y-71895251D01*
X120314998Y-71897542D01*
X120317283Y-71898695D01*
X120320876Y-71898803D01*
X120326856Y-71897961D01*
X120332526Y-71896951D01*
X120341930Y-71895261D01*
X120348109Y-71894428D01*
X120352026Y-71894617D01*
X120354645Y-71895994D01*
X120356929Y-71898724D01*
X120358801Y-71901466D01*
X120364002Y-71909101D01*
X120354632Y-71924496D01*
X120350357Y-71931741D01*
X120347106Y-71937678D01*
X120345398Y-71941335D01*
X120345262Y-71941900D01*
X120346673Y-71944633D01*
X120350073Y-71948419D01*
X120350140Y-71948482D01*
X120355019Y-71953053D01*
X120371898Y-71947824D01*
X120379805Y-71945417D01*
X120386083Y-71943587D01*
X120389692Y-71942633D01*
X120390117Y-71942562D01*
X120392107Y-71944073D01*
X120395520Y-71947905D01*
X120397005Y-71949786D01*
X120402553Y-71957042D01*
X120394775Y-71974259D01*
X120386996Y-71991475D01*
X120392384Y-71996850D01*
X120397773Y-72002225D01*
X120415279Y-71994547D01*
X120432786Y-71986869D01*
X120440056Y-71992400D01*
X120444770Y-71996652D01*
X120446310Y-72000241D01*
X120445997Y-72002521D01*
X120444697Y-72006843D01*
X120442589Y-72013692D01*
X120440222Y-72021286D01*
X120435777Y-72035461D01*
X120440933Y-72039742D01*
X120444981Y-72042759D01*
X120447589Y-72044092D01*
X120447620Y-72044094D01*
X120450021Y-72043114D01*
X120455129Y-72040437D01*
X120462022Y-72036555D01*
X120465231Y-72034682D01*
X120481311Y-72025199D01*
X120488615Y-72029917D01*
X120492305Y-72032371D01*
X120494549Y-72034591D01*
X120495498Y-72037518D01*
X120495301Y-72042092D01*
X120494108Y-72049250D01*
X120492790Y-72056146D01*
X120491255Y-72064419D01*
X120490608Y-72069575D01*
X120490932Y-72072653D01*
X120492309Y-72074693D01*
X120494382Y-72076400D01*
X120498805Y-72079129D01*
X120501855Y-72080113D01*
X120504696Y-72078897D01*
X120509833Y-72075629D01*
X120516284Y-72070946D01*
X120518059Y-72069573D01*
X120524674Y-72064623D01*
X120530207Y-72060911D01*
X120533686Y-72059076D01*
X120534137Y-72058986D01*
X120537611Y-72059984D01*
X120542619Y-72062413D01*
X120543107Y-72062692D01*
X120549505Y-72066397D01*
X120548519Y-72085744D01*
X120547533Y-72105091D01*
X120554123Y-72108300D01*
X120560714Y-72111508D01*
X120574865Y-72097654D01*
X120589015Y-72083801D01*
X120597153Y-72087027D01*
X120605290Y-72090254D01*
X120607413Y-72109882D01*
X120608567Y-72119369D01*
X120609716Y-72125462D01*
X120611109Y-72128992D01*
X120612996Y-72130793D01*
X120613781Y-72131153D01*
X120618505Y-72132493D01*
X120622448Y-72132001D01*
X120626474Y-72129186D01*
X120631449Y-72123554D01*
X120634815Y-72119195D01*
X120639867Y-72112650D01*
X120644048Y-72107493D01*
X120646634Y-72104610D01*
X120646971Y-72104332D01*
X120649954Y-72104161D01*
X120655250Y-72105053D01*
X120657020Y-72105494D01*
X120665332Y-72107727D01*
X120668740Y-72126054D01*
X120670349Y-72134332D01*
X120671748Y-72140862D01*
X120672719Y-72144646D01*
X120672950Y-72145180D01*
X120675386Y-72146001D01*
X120680269Y-72146943D01*
X120680913Y-72147041D01*
X120684380Y-72147380D01*
X120687050Y-72146748D01*
X120689640Y-72144493D01*
X120692867Y-72139964D01*
X120697448Y-72132510D01*
X120698087Y-72131448D01*
X120708099Y-72114793D01*
X120717010Y-72116004D01*
X120725920Y-72117214D01*
X120731470Y-72135202D01*
X120734183Y-72143827D01*
X120736391Y-72149303D01*
X120738909Y-72152507D01*
X120742551Y-72154313D01*
X120748133Y-72155599D01*
X120750943Y-72156135D01*
X120752333Y-72154453D01*
X120754981Y-72149730D01*
X120758436Y-72142804D01*
X120760495Y-72138407D01*
X120768737Y-72120429D01*
X120778289Y-72120434D01*
X120787841Y-72120439D01*
X120795270Y-72137542D01*
X120798713Y-72145269D01*
X120801586Y-72151352D01*
X120803442Y-72154861D01*
X120803813Y-72155345D01*
X120806446Y-72155436D01*
X120811384Y-72154725D01*
X120811990Y-72154605D01*
X120815535Y-72153636D01*
X120818049Y-72151877D01*
X120820126Y-72148442D01*
X120822364Y-72142444D01*
X120824346Y-72136248D01*
X120826934Y-72128328D01*
X120829193Y-72122046D01*
X120830741Y-72118441D01*
X120831028Y-72118019D01*
X120833873Y-72116868D01*
X120839111Y-72115710D01*
X120840306Y-72115517D01*
X120848195Y-72114327D01*
X120858054Y-72130592D01*
X120862501Y-72137886D01*
X120866082Y-72143676D01*
X120868258Y-72147099D01*
X120868640Y-72147641D01*
X120870990Y-72147814D01*
X120875803Y-72147214D01*
X120876640Y-72147063D01*
X120883915Y-72145702D01*
X120887648Y-72126529D01*
X120889576Y-72117276D01*
X120891241Y-72111345D01*
X120893007Y-72107869D01*
X120895239Y-72105981D01*
X120896531Y-72105404D01*
X120901895Y-72103857D01*
X120906329Y-72104160D01*
X120910697Y-72106769D01*
X120915862Y-72112140D01*
X120920727Y-72118190D01*
X120926689Y-72125670D01*
X120930977Y-72130224D01*
X120934427Y-72132341D01*
X120937872Y-72132510D01*
X120942150Y-72131221D01*
X120942658Y-72131029D01*
X120946569Y-72128591D01*
X120948006Y-72124337D01*
X120948103Y-72121812D01*
X120948330Y-72115708D01*
X120948915Y-72107530D01*
X120949467Y-72101639D01*
X120950328Y-72094473D01*
X120951492Y-72090354D01*
X120953686Y-72088115D01*
X120957637Y-72086589D01*
X120959123Y-72086140D01*
X120967414Y-72083663D01*
X120980634Y-72096733D01*
X120987550Y-72103413D01*
X120992411Y-72107440D01*
X120996094Y-72109227D01*
X120999478Y-72109182D01*
X121003439Y-72107715D01*
X121003793Y-72107555D01*
X121006061Y-72106311D01*
X121007458Y-72104500D01*
X121008141Y-72101251D01*
X121008269Y-72095690D01*
X121007999Y-72086945D01*
X121007912Y-72084764D01*
X121007085Y-72064221D01*
X121014633Y-72060630D01*
X121022182Y-72057040D01*
X121036993Y-72068600D01*
X121043941Y-72073783D01*
X121049847Y-72077752D01*
X121053781Y-72079900D01*
X121054613Y-72080113D01*
X121058268Y-72078842D01*
X121062029Y-72076407D01*
X121064325Y-72074353D01*
X121065481Y-72072073D01*
X121065590Y-72068490D01*
X121064746Y-72062525D01*
X121063733Y-72056869D01*
X121061915Y-72046504D01*
X121061037Y-72039452D01*
X121061212Y-72034869D01*
X121062553Y-72031915D01*
X121065174Y-72029747D01*
X121067573Y-72028384D01*
X121074542Y-72024641D01*
X121090661Y-72034403D01*
X121098082Y-72038767D01*
X121104198Y-72042125D01*
X121108063Y-72043966D01*
X121108795Y-72044165D01*
X121111526Y-72042756D01*
X121115339Y-72039355D01*
X121115466Y-72039221D01*
X121120122Y-72034277D01*
X121114415Y-72015918D01*
X121108709Y-71997559D01*
X121113684Y-71992277D01*
X121117813Y-71988672D01*
X121121166Y-71987009D01*
X121121369Y-71986996D01*
X121124432Y-71987807D01*
X121130308Y-71989974D01*
X121137944Y-71993099D01*
X121141442Y-71994610D01*
X121158805Y-72002225D01*
X121164056Y-71996986D01*
X121169308Y-71991748D01*
X121160802Y-71972631D01*
X121152295Y-71953514D01*
X121158423Y-71947658D01*
X121164550Y-71941802D01*
X121182914Y-71947481D01*
X121192545Y-71950274D01*
X121199094Y-71951486D01*
X121203463Y-71951006D01*
X121206551Y-71948722D01*
X121209258Y-71944525D01*
X121209423Y-71944219D01*
X121210032Y-71941458D01*
X121209035Y-71937527D01*
X121206131Y-71931632D01*
X121201878Y-71924384D01*
X121197525Y-71916947D01*
X121194202Y-71910722D01*
X121192423Y-71906699D01*
X121192259Y-71905931D01*
X121193499Y-71902516D01*
X121196235Y-71898261D01*
X121198351Y-71895753D01*
X121200582Y-71894404D01*
X121203990Y-71894083D01*
X121209638Y-71894663D01*
X121216884Y-71895751D01*
X121225290Y-71897110D01*
X121232376Y-71898363D01*
X121236833Y-71899275D01*
X121237289Y-71899394D01*
X121240583Y-71898780D01*
X121243745Y-71894575D01*
X121244502Y-71893071D01*
X121248030Y-71885691D01*
X121237457Y-71872293D01*
X121231287Y-71864420D01*
X121227392Y-71859056D01*
X121225436Y-71855369D01*
X121225084Y-71852528D01*
X121226000Y-71849702D01*
X121227291Y-71847143D01*
X121230703Y-71840561D01*
X121250280Y-71841129D01*
X121259148Y-71841231D01*
X121266478Y-71841029D01*
X121271182Y-71840564D01*
X121272192Y-71840258D01*
X121274413Y-71837280D01*
X121275950Y-71833158D01*
X121276275Y-71830113D01*
X121275266Y-71826990D01*
X121272421Y-71822999D01*
X121267234Y-71817349D01*
X121263289Y-71813338D01*
X121249203Y-71799179D01*
X121252350Y-71791666D01*
X121255497Y-71784152D01*
X121275777Y-71782636D01*
X121296056Y-71781119D01*
X121298474Y-71773812D01*
X121299872Y-71768900D01*
X121300234Y-71766120D01*
X121300149Y-71765952D01*
X121288895Y-71757271D01*
X121279877Y-71749701D01*
X121273450Y-71743573D01*
X121269965Y-71739215D01*
X121269467Y-71737393D01*
X121271070Y-71731787D01*
X121272729Y-71728110D01*
X121275337Y-71725754D01*
X121279788Y-71724110D01*
X121286975Y-71722569D01*
X121292858Y-71721463D01*
X121312802Y-71717716D01*
X121314201Y-71710276D01*
X121314957Y-71705217D01*
X121315011Y-71702378D01*
X121314933Y-71702228D01*
X121312940Y-71700936D01*
X121308164Y-71697985D01*
X121301458Y-71693901D01*
X121297815Y-71691699D01*
X121290024Y-71686914D01*
X121285186Y-71683506D01*
X121282598Y-71680697D01*
X121281559Y-71677712D01*
X121281364Y-71673774D01*
X121281364Y-71673529D01*
X121281364Y-71665282D01*
X121300999Y-71659205D01*
X121320634Y-71653128D01*
X121321187Y-71644849D01*
X121321741Y-71636570D01*
X121304206Y-71628720D01*
X121295914Y-71624943D01*
X121290728Y-71622195D01*
X121287876Y-71619787D01*
X121286586Y-71617028D01*
X121286085Y-71613227D01*
X121286026Y-71612466D01*
X121285381Y-71604062D01*
X121303670Y-71595512D01*
X121321960Y-71586963D01*
X121321297Y-71579030D01*
X121320634Y-71571097D01*
X121303572Y-71565721D01*
X121293843Y-71562579D01*
X121287470Y-71560153D01*
X121283745Y-71557936D01*
X121281958Y-71555422D01*
X121281402Y-71552106D01*
X121281364Y-71549852D01*
X121281392Y-71547327D01*
X121281799Y-71545240D01*
X121283067Y-71543189D01*
X121285682Y-71540776D01*
X121290127Y-71537601D01*
X121296886Y-71533265D01*
X121306442Y-71527367D01*
X121314731Y-71522295D01*
X121314732Y-71520253D01*
X121314142Y-71515571D01*
X121313951Y-71514358D01*
X121312707Y-71506707D01*
X121292811Y-71502969D01*
X121282962Y-71500940D01*
X121276638Y-71499134D01*
X121273144Y-71497302D01*
X121271833Y-71495381D01*
X121270273Y-71489837D01*
X121269636Y-71487577D01*
X121269978Y-71484862D01*
X121272663Y-71481209D01*
X121278139Y-71476108D01*
X121283964Y-71471333D01*
X121290727Y-71465960D01*
X121296091Y-71461716D01*
X121299300Y-71459199D01*
X121299869Y-71458769D01*
X121299612Y-71456796D01*
X121298397Y-71452243D01*
X121297974Y-71450838D01*
X121295618Y-71443181D01*
X121275534Y-71441679D01*
X121255451Y-71440177D01*
X121252327Y-71432719D01*
X121249203Y-71425262D01*
X121263580Y-71410810D01*
X121277957Y-71396358D01*
X121274590Y-71389314D01*
X121271222Y-71382269D01*
X121251002Y-71383152D01*
X121230782Y-71384034D01*
X121227417Y-71377542D01*
X121225155Y-71372933D01*
X121224069Y-71370233D01*
X121224052Y-71370105D01*
X121225264Y-71368126D01*
X121228512Y-71363611D01*
X121233213Y-71357358D01*
X121235913Y-71353847D01*
X121247775Y-71338533D01*
X121243873Y-71331300D01*
X121240509Y-71326401D01*
X121237185Y-71324926D01*
X121235726Y-71325121D01*
X121231572Y-71325981D01*
X121224682Y-71327240D01*
X121216515Y-71328633D01*
X121216146Y-71328694D01*
X121208206Y-71329925D01*
X121203303Y-71330287D01*
X121200288Y-71329630D01*
X121198015Y-71327804D01*
X121196582Y-71326147D01*
X121193555Y-71321809D01*
X121192282Y-71318610D01*
X121193274Y-71315774D01*
X121195984Y-71310309D01*
X121199910Y-71303199D01*
X121201772Y-71300008D01*
X121211332Y-71283878D01*
X121206679Y-71277601D01*
X121203433Y-71273510D01*
X121201340Y-71271401D01*
X121201144Y-71271324D01*
X121198859Y-71271912D01*
X121193495Y-71273486D01*
X121186025Y-71275757D01*
X121182324Y-71276903D01*
X121164385Y-71282482D01*
X121158208Y-71276579D01*
X121154550Y-71272531D01*
X121152937Y-71269611D01*
X121152997Y-71269117D01*
X121154222Y-71266576D01*
X121156660Y-71261132D01*
X121159868Y-71253784D01*
X121161235Y-71250611D01*
X121168507Y-71233664D01*
X121162847Y-71228261D01*
X121157187Y-71222859D01*
X121140382Y-71230152D01*
X121132476Y-71233467D01*
X121125932Y-71235993D01*
X121121812Y-71237332D01*
X121121117Y-71237446D01*
X121118097Y-71236023D01*
X121114063Y-71232561D01*
X121113718Y-71232201D01*
X121108779Y-71226957D01*
X121113649Y-71210498D01*
X121116025Y-71202534D01*
X121117988Y-71196074D01*
X121119192Y-71192252D01*
X121119337Y-71191833D01*
X121118329Y-71189282D01*
X121114804Y-71185725D01*
X121113659Y-71184836D01*
X121107163Y-71180045D01*
X121090852Y-71189923D01*
X121074542Y-71199800D01*
X121067573Y-71196057D01*
X121064057Y-71193937D01*
X121061909Y-71191565D01*
X121061010Y-71188088D01*
X121061238Y-71182654D01*
X121062472Y-71174409D01*
X121063596Y-71168029D01*
X121066363Y-71152606D01*
X121060503Y-71148443D01*
X121056126Y-71145613D01*
X121053313Y-71144294D01*
X121053182Y-71144281D01*
X121050959Y-71145499D01*
X121046257Y-71148754D01*
X121039920Y-71153451D01*
X121036861Y-71155799D01*
X121022001Y-71167316D01*
X121014654Y-71163821D01*
X121007308Y-71160326D01*
X121007715Y-71140187D01*
X121008122Y-71120047D01*
X121001131Y-71117202D01*
X120994140Y-71114356D01*
X120980777Y-71127568D01*
X120967414Y-71140779D01*
X120959123Y-71138301D01*
X120954563Y-71136766D01*
X120951960Y-71134838D01*
X120950586Y-71131350D01*
X120949715Y-71125136D01*
X120949467Y-71122803D01*
X120948719Y-71114544D01*
X120948223Y-71106943D01*
X120948103Y-71103037D01*
X120947573Y-71098416D01*
X120945179Y-71095779D01*
X120940230Y-71093882D01*
X120934938Y-71092733D01*
X120931577Y-71092876D01*
X120931208Y-71093155D01*
X120925865Y-71100428D01*
X120919932Y-71107632D01*
X120914143Y-71113974D01*
X120909230Y-71118662D01*
X120905925Y-71120904D01*
X120905475Y-71120990D01*
X120899279Y-71120416D01*
X120894922Y-71118215D01*
X120891813Y-71113667D01*
X120889365Y-71106054D01*
X120887939Y-71099568D01*
X120886148Y-71091384D01*
X120884451Y-71084868D01*
X120883136Y-71081086D01*
X120882824Y-71080610D01*
X120879765Y-71079251D01*
X120874780Y-71078005D01*
X120871612Y-71077647D01*
X120869055Y-71078374D01*
X120866417Y-71080830D01*
X120863007Y-71085655D01*
X120858164Y-71093445D01*
X120853344Y-71101244D01*
X120849988Y-71106066D01*
X120847356Y-71108551D01*
X120844702Y-71109339D01*
X120841285Y-71109069D01*
X120840212Y-71108909D01*
X120834734Y-71107810D01*
X120831282Y-71106617D01*
X120831008Y-71106422D01*
X120829784Y-71103910D01*
X120827761Y-71098372D01*
X120825311Y-71090852D01*
X120824489Y-71088171D01*
X120819379Y-71071232D01*
X120811039Y-71070649D01*
X120802700Y-71070066D01*
X120794900Y-71087059D01*
X120787100Y-71104051D01*
X120777863Y-71104051D01*
X120768626Y-71104051D01*
X120761252Y-71087054D01*
X120753878Y-71070057D01*
X120745472Y-71070645D01*
X120737066Y-71071232D01*
X120731346Y-71089230D01*
X120725626Y-71107227D01*
X120716402Y-71107843D01*
X120711422Y-71108027D01*
X120708090Y-71107236D01*
X120705314Y-71104698D01*
X120702001Y-71099636D01*
X120699966Y-71096198D01*
X120694770Y-71087595D01*
X120690935Y-71082102D01*
X120687799Y-71079105D01*
X120684702Y-71077990D01*
X120680983Y-71078143D01*
X120680590Y-71078199D01*
X120676564Y-71079189D01*
X120673710Y-71081290D01*
X120671603Y-71085288D01*
X120669818Y-71091969D01*
X120668060Y-71101356D01*
X120666612Y-71109241D01*
X120665246Y-71113968D01*
X120663354Y-71116555D01*
X120660327Y-71118024D01*
X120657643Y-71118812D01*
X120652290Y-71120213D01*
X120648904Y-71120947D01*
X120648588Y-71120978D01*
X120646903Y-71119467D01*
X120643359Y-71115531D01*
X120638713Y-71110077D01*
X120633723Y-71104013D01*
X120629146Y-71098248D01*
X120625740Y-71093690D01*
X120625369Y-71093155D01*
X120622804Y-71092622D01*
X120617909Y-71093433D01*
X120616614Y-71093800D01*
X120609007Y-71096129D01*
X120607148Y-71115163D01*
X120605290Y-71134196D01*
X120597156Y-71137417D01*
X120589021Y-71140638D01*
X120575450Y-71127221D01*
X120561879Y-71113804D01*
X120554795Y-71117174D01*
X120547710Y-71120544D01*
X120548549Y-71139294D01*
X120549388Y-71158044D01*
X120542673Y-71161750D01*
X120537628Y-71164224D01*
X120534065Y-71165432D01*
X120533779Y-71165455D01*
X120531205Y-71164214D01*
X120526285Y-71160913D01*
X120519946Y-71156188D01*
X120517917Y-71154596D01*
X120504236Y-71143736D01*
X120496920Y-71147666D01*
X120492294Y-71150162D01*
X120489765Y-71151548D01*
X120489604Y-71151644D01*
X120489972Y-71153583D01*
X120490949Y-71158692D01*
X120492346Y-71165981D01*
X120492788Y-71168288D01*
X120494541Y-71177419D01*
X120495454Y-71183357D01*
X120495373Y-71187087D01*
X120494143Y-71189597D01*
X120491610Y-71191871D01*
X120488760Y-71194018D01*
X120481548Y-71199505D01*
X120465481Y-71189775D01*
X120449415Y-71180045D01*
X120442976Y-71184794D01*
X120438836Y-71187915D01*
X120436642Y-71189701D01*
X120436537Y-71189830D01*
X120437102Y-71191840D01*
X120438610Y-71196966D01*
X120440785Y-71204269D01*
X120441844Y-71207802D01*
X120444222Y-71215790D01*
X120446049Y-71222043D01*
X120447046Y-71225604D01*
X120447150Y-71226066D01*
X120445633Y-71227574D01*
X120441820Y-71230679D01*
X120439962Y-71232113D01*
X120432773Y-71237582D01*
X120416082Y-71230229D01*
X120399390Y-71222877D01*
X120393702Y-71228298D01*
X120391082Y-71230860D01*
X120389616Y-71233094D01*
X120389413Y-71235855D01*
X120390582Y-71239997D01*
X120393232Y-71246377D01*
X120397103Y-71255026D01*
X120402620Y-71267312D01*
X120397038Y-71274611D01*
X120393557Y-71279047D01*
X120391349Y-71281636D01*
X120391022Y-71281911D01*
X120388938Y-71281347D01*
X120383740Y-71279840D01*
X120376381Y-71277667D01*
X120372857Y-71276617D01*
X120364855Y-71274245D01*
X120358597Y-71272423D01*
X120355041Y-71271428D01*
X120354584Y-71271324D01*
X120353134Y-71272861D01*
X120350239Y-71276660D01*
X120349499Y-71277687D01*
X120344957Y-71284050D01*
X120354479Y-71299695D01*
X120364002Y-71315340D01*
X120358801Y-71322975D01*
X120355233Y-71327639D01*
X120352413Y-71330340D01*
X120351740Y-71330610D01*
X120348896Y-71330235D01*
X120343035Y-71329241D01*
X120335304Y-71327826D01*
X120333448Y-71327474D01*
X120325137Y-71325969D01*
X120319970Y-71325373D01*
X120316937Y-71325714D01*
X120315030Y-71327020D01*
X120314214Y-71328003D01*
X120311224Y-71332635D01*
X120310332Y-71336797D01*
X120311759Y-71341459D01*
X120315726Y-71347589D01*
X120319907Y-71352990D01*
X120330947Y-71366829D01*
X120327061Y-71375425D01*
X120323175Y-71384021D01*
X120304277Y-71383120D01*
X120285379Y-71382219D01*
X120282001Y-71389286D01*
X120278623Y-71396352D01*
X120291788Y-71409602D01*
X120304953Y-71422852D01*
X120301517Y-71431577D01*
X120298081Y-71440302D01*
X120279310Y-71441784D01*
X120260540Y-71443266D01*
X120258077Y-71450711D01*
X120256823Y-71456417D01*
X120257542Y-71459442D01*
X120257611Y-71459492D01*
X120260148Y-71461382D01*
X120265028Y-71465157D01*
X120271277Y-71470062D01*
X120272407Y-71470955D01*
X120285206Y-71481082D01*
X120283075Y-71490369D01*
X120280945Y-71499656D01*
X120262870Y-71503001D01*
X120254687Y-71504562D01*
X120248304Y-71505868D01*
X120244711Y-71506713D01*
X120244273Y-71506878D01*
X120243581Y-71509098D01*
X120242555Y-71513863D01*
X120242373Y-71514821D01*
X120241842Y-71518430D01*
X120242288Y-71521115D01*
X120244360Y-71523621D01*
X120248709Y-71526694D01*
X120255983Y-71531078D01*
X120257139Y-71531760D01*
X120273284Y-71541289D01*
X120271907Y-71549758D01*
X120270720Y-71555470D01*
X120269464Y-71559228D01*
X120269157Y-71559702D01*
X120266600Y-71560993D01*
X120261063Y-71563087D01*
X120253634Y-71565576D01*
X120251864Y-71566134D01*
X120235944Y-71571091D01*
X120235429Y-71579481D01*
X120234914Y-71587871D01*
X120251879Y-71595718D01*
X120268845Y-71603566D01*
X120268845Y-71612288D01*
X120268845Y-71621010D01*
X120251810Y-71628790D01*
X120234775Y-71636570D01*
X120087581Y-71636570D01*
X120057696Y-71554220D01*
X120021236Y-71441787D01*
X119988410Y-71327382D01*
X119959250Y-71211067D01*
X119949632Y-71168631D01*
X119945950Y-71151623D01*
X119942045Y-71133049D01*
X119937996Y-71113332D01*
X119933883Y-71092896D01*
X119929786Y-71072164D01*
X119925785Y-71051560D01*
X119921958Y-71031507D01*
X119918386Y-71012428D01*
X119915149Y-70994747D01*
X119912326Y-70978888D01*
X119909996Y-70965273D01*
X119908240Y-70954327D01*
X119907138Y-70946472D01*
X119906768Y-70942132D01*
X119906881Y-70941414D01*
X119909336Y-70940609D01*
X119915567Y-70939113D01*
X119925174Y-70937003D01*
X119937757Y-70934358D01*
X119952919Y-70931256D01*
X119970260Y-70927773D01*
X119989379Y-70923989D01*
X120009879Y-70919982D01*
X120031359Y-70915828D01*
X120053421Y-70911607D01*
X120075665Y-70907395D01*
X120097693Y-70903272D01*
X120119104Y-70899314D01*
X120139500Y-70895600D01*
X120158481Y-70892208D01*
X120163773Y-70891276D01*
X120300956Y-70868461D01*
X120437543Y-70848259D01*
X120574090Y-70830617D01*
X120711153Y-70815482D01*
X120849289Y-70802802D01*
X120989054Y-70792522D01*
X121131003Y-70784590D01*
X121275694Y-70778952D01*
X121361495Y-70776704D01*
X121427829Y-70775267D01*
X121427829Y-72007873D01*
G37*
%LPC*%
D16*
X128803000Y-82335600D03*
X129823000Y-82335600D03*
X135303000Y-81835600D03*
X136323000Y-81835600D03*
D17*
X144000000Y-84350000D03*
D18*
X142000000Y-82750000D03*
D19*
X142000000Y-80250000D03*
X142000000Y-77750000D03*
X142000000Y-75250000D03*
D20*
X135849400Y-80607600D03*
X134829400Y-80607600D03*
D16*
X131730600Y-75324400D03*
X132750600Y-75324400D03*
D17*
X122500000Y-76400000D03*
D21*
X124500000Y-78000000D03*
D22*
X124500000Y-80500000D03*
D20*
X129823000Y-80835600D03*
X128803000Y-80835600D03*
D23*
X136101400Y-76899200D03*
X136101400Y-77859200D03*
D24*
X130047600Y-76950000D03*
X130047600Y-77600000D03*
X130047600Y-78250000D03*
X130047600Y-78900000D03*
X134272600Y-78900000D03*
X134272600Y-78250000D03*
X134272600Y-77600000D03*
X134272600Y-76950000D03*
%LPD*%
M02*
