%TF.GenerationSoftware,KiCad,Pcbnew,9.0.4*%
%TF.CreationDate,2025-11-13T19:53:48-05:00*%
%TF.ProjectId,TC_shuwen,54435f73-6875-4776-956e-2e6b69636164,rev?*%
%TF.SameCoordinates,Original*%
%TF.FileFunction,Drillmap*%
%TF.FilePolarity,Positive*%
%FSLAX45Y45*%
G04 Gerber Fmt 4.5, Leading zero omitted, Abs format (unit mm)*
G04 Created by KiCad (PCBNEW 9.0.4) date 2025-11-13 19:53:48*
%MOMM*%
%LPD*%
G01*
G04 APERTURE LIST*
%ADD10C,0.050000*%
%ADD11C,0.200000*%
%ADD12C,0.100000*%
G04 APERTURE END LIST*
D10*
X11409680Y-7142480D02*
X11409680Y-6832600D01*
X11430000Y-6832600D02*
X15031720Y-6832600D01*
X15031720Y-6832600D02*
X15031720Y-8895080D01*
X11409680Y-8895080D02*
X11409680Y-7142480D01*
X11409680Y-6832600D02*
X11430000Y-6832600D01*
X15031720Y-8895080D02*
X11409680Y-8895080D01*
D11*
D12*
X13016300Y-7968560D02*
X13046300Y-7998560D01*
X13046300Y-7968560D02*
X13016300Y-7998560D01*
X13116300Y-8218560D02*
X13146300Y-8248560D01*
X13146300Y-8218560D02*
X13116300Y-8248560D01*
X13616300Y-7868560D02*
X13646300Y-7898560D01*
X13646300Y-7868560D02*
X13616300Y-7898560D01*
X13666300Y-7568560D02*
X13696300Y-7598560D01*
X13696300Y-7568560D02*
X13666300Y-7598560D01*
X13766300Y-8118560D02*
X13796300Y-8148560D01*
X13796300Y-8118560D02*
X13766300Y-8148560D01*
X13966300Y-8018560D02*
X13996300Y-8048560D01*
X13996300Y-8018560D02*
X13966300Y-8048560D01*
X13966300Y-8218560D02*
X13996300Y-8248560D01*
X13996300Y-8218560D02*
X13966300Y-8248560D01*
X14297500Y-7525000D02*
G75*
G02*
X14202500Y-7525000I-47500J0D01*
G01*
X14202500Y-7525000D02*
G75*
G02*
X14297500Y-7525000I47500J0D01*
G01*
X14297500Y-7775000D02*
G75*
G02*
X14202500Y-7775000I-47500J0D01*
G01*
X14202500Y-7775000D02*
G75*
G02*
X14297500Y-7775000I47500J0D01*
G01*
X14297500Y-8025000D02*
G75*
G02*
X14202500Y-8025000I-47500J0D01*
G01*
X14202500Y-8025000D02*
G75*
G02*
X14297500Y-8025000I47500J0D01*
G01*
X14297500Y-8275000D02*
G75*
G02*
X14202500Y-8275000I-47500J0D01*
G01*
X14202500Y-8275000D02*
G75*
G02*
X14297500Y-8275000I47500J0D01*
G01*
X12375000Y-7750000D02*
X12375000Y-7850000D01*
X12325000Y-7800000D02*
X12425000Y-7800000D01*
X12375000Y-8000000D02*
X12375000Y-8100000D01*
X12325000Y-8050000D02*
X12425000Y-8050000D01*
D11*
X11667957Y-9209064D02*
X11667957Y-9009064D01*
X11667957Y-9009064D02*
X11715576Y-9009064D01*
X11715576Y-9009064D02*
X11744147Y-9018588D01*
X11744147Y-9018588D02*
X11763195Y-9037635D01*
X11763195Y-9037635D02*
X11772719Y-9056683D01*
X11772719Y-9056683D02*
X11782242Y-9094778D01*
X11782242Y-9094778D02*
X11782242Y-9123350D01*
X11782242Y-9123350D02*
X11772719Y-9161445D01*
X11772719Y-9161445D02*
X11763195Y-9180492D01*
X11763195Y-9180492D02*
X11744147Y-9199540D01*
X11744147Y-9199540D02*
X11715576Y-9209064D01*
X11715576Y-9209064D02*
X11667957Y-9209064D01*
X11867957Y-9209064D02*
X11867957Y-9075730D01*
X11867957Y-9113826D02*
X11877481Y-9094778D01*
X11877481Y-9094778D02*
X11887004Y-9085254D01*
X11887004Y-9085254D02*
X11906052Y-9075730D01*
X11906052Y-9075730D02*
X11925100Y-9075730D01*
X11991766Y-9209064D02*
X11991766Y-9075730D01*
X11991766Y-9009064D02*
X11982242Y-9018588D01*
X11982242Y-9018588D02*
X11991766Y-9028111D01*
X11991766Y-9028111D02*
X12001290Y-9018588D01*
X12001290Y-9018588D02*
X11991766Y-9009064D01*
X11991766Y-9009064D02*
X11991766Y-9028111D01*
X12115576Y-9209064D02*
X12096528Y-9199540D01*
X12096528Y-9199540D02*
X12087004Y-9180492D01*
X12087004Y-9180492D02*
X12087004Y-9009064D01*
X12220338Y-9209064D02*
X12201290Y-9199540D01*
X12201290Y-9199540D02*
X12191766Y-9180492D01*
X12191766Y-9180492D02*
X12191766Y-9009064D01*
X12448909Y-9209064D02*
X12448909Y-9009064D01*
X12448909Y-9009064D02*
X12515576Y-9151921D01*
X12515576Y-9151921D02*
X12582242Y-9009064D01*
X12582242Y-9009064D02*
X12582242Y-9209064D01*
X12763195Y-9209064D02*
X12763195Y-9104302D01*
X12763195Y-9104302D02*
X12753671Y-9085254D01*
X12753671Y-9085254D02*
X12734623Y-9075730D01*
X12734623Y-9075730D02*
X12696528Y-9075730D01*
X12696528Y-9075730D02*
X12677481Y-9085254D01*
X12763195Y-9199540D02*
X12744147Y-9209064D01*
X12744147Y-9209064D02*
X12696528Y-9209064D01*
X12696528Y-9209064D02*
X12677481Y-9199540D01*
X12677481Y-9199540D02*
X12667957Y-9180492D01*
X12667957Y-9180492D02*
X12667957Y-9161445D01*
X12667957Y-9161445D02*
X12677481Y-9142397D01*
X12677481Y-9142397D02*
X12696528Y-9132873D01*
X12696528Y-9132873D02*
X12744147Y-9132873D01*
X12744147Y-9132873D02*
X12763195Y-9123350D01*
X12858433Y-9075730D02*
X12858433Y-9275730D01*
X12858433Y-9085254D02*
X12877481Y-9075730D01*
X12877481Y-9075730D02*
X12915576Y-9075730D01*
X12915576Y-9075730D02*
X12934623Y-9085254D01*
X12934623Y-9085254D02*
X12944147Y-9094778D01*
X12944147Y-9094778D02*
X12953671Y-9113826D01*
X12953671Y-9113826D02*
X12953671Y-9170969D01*
X12953671Y-9170969D02*
X12944147Y-9190016D01*
X12944147Y-9190016D02*
X12934623Y-9199540D01*
X12934623Y-9199540D02*
X12915576Y-9209064D01*
X12915576Y-9209064D02*
X12877481Y-9209064D01*
X12877481Y-9209064D02*
X12858433Y-9199540D01*
X13039385Y-9190016D02*
X13048909Y-9199540D01*
X13048909Y-9199540D02*
X13039385Y-9209064D01*
X13039385Y-9209064D02*
X13029862Y-9199540D01*
X13029862Y-9199540D02*
X13039385Y-9190016D01*
X13039385Y-9190016D02*
X13039385Y-9209064D01*
X13039385Y-9085254D02*
X13048909Y-9094778D01*
X13048909Y-9094778D02*
X13039385Y-9104302D01*
X13039385Y-9104302D02*
X13029862Y-9094778D01*
X13029862Y-9094778D02*
X13039385Y-9085254D01*
X13039385Y-9085254D02*
X13039385Y-9104302D01*
D12*
X11377180Y-9522580D02*
X11407180Y-9552580D01*
X11407180Y-9522580D02*
X11377180Y-9552580D01*
D11*
X11706052Y-9429064D02*
X11725100Y-9429064D01*
X11725100Y-9429064D02*
X11744147Y-9438588D01*
X11744147Y-9438588D02*
X11753671Y-9448111D01*
X11753671Y-9448111D02*
X11763195Y-9467159D01*
X11763195Y-9467159D02*
X11772719Y-9505254D01*
X11772719Y-9505254D02*
X11772719Y-9552873D01*
X11772719Y-9552873D02*
X11763195Y-9590969D01*
X11763195Y-9590969D02*
X11753671Y-9610016D01*
X11753671Y-9610016D02*
X11744147Y-9619540D01*
X11744147Y-9619540D02*
X11725100Y-9629064D01*
X11725100Y-9629064D02*
X11706052Y-9629064D01*
X11706052Y-9629064D02*
X11687004Y-9619540D01*
X11687004Y-9619540D02*
X11677481Y-9610016D01*
X11677481Y-9610016D02*
X11667957Y-9590969D01*
X11667957Y-9590969D02*
X11658433Y-9552873D01*
X11658433Y-9552873D02*
X11658433Y-9505254D01*
X11658433Y-9505254D02*
X11667957Y-9467159D01*
X11667957Y-9467159D02*
X11677481Y-9448111D01*
X11677481Y-9448111D02*
X11687004Y-9438588D01*
X11687004Y-9438588D02*
X11706052Y-9429064D01*
X11858433Y-9610016D02*
X11867957Y-9619540D01*
X11867957Y-9619540D02*
X11858433Y-9629064D01*
X11858433Y-9629064D02*
X11848909Y-9619540D01*
X11848909Y-9619540D02*
X11858433Y-9610016D01*
X11858433Y-9610016D02*
X11858433Y-9629064D01*
X11934623Y-9429064D02*
X12058433Y-9429064D01*
X12058433Y-9429064D02*
X11991766Y-9505254D01*
X11991766Y-9505254D02*
X12020338Y-9505254D01*
X12020338Y-9505254D02*
X12039385Y-9514778D01*
X12039385Y-9514778D02*
X12048909Y-9524302D01*
X12048909Y-9524302D02*
X12058433Y-9543350D01*
X12058433Y-9543350D02*
X12058433Y-9590969D01*
X12058433Y-9590969D02*
X12048909Y-9610016D01*
X12048909Y-9610016D02*
X12039385Y-9619540D01*
X12039385Y-9619540D02*
X12020338Y-9629064D01*
X12020338Y-9629064D02*
X11963195Y-9629064D01*
X11963195Y-9629064D02*
X11944147Y-9619540D01*
X11944147Y-9619540D02*
X11934623Y-9610016D01*
X12182242Y-9429064D02*
X12201290Y-9429064D01*
X12201290Y-9429064D02*
X12220338Y-9438588D01*
X12220338Y-9438588D02*
X12229862Y-9448111D01*
X12229862Y-9448111D02*
X12239385Y-9467159D01*
X12239385Y-9467159D02*
X12248909Y-9505254D01*
X12248909Y-9505254D02*
X12248909Y-9552873D01*
X12248909Y-9552873D02*
X12239385Y-9590969D01*
X12239385Y-9590969D02*
X12229862Y-9610016D01*
X12229862Y-9610016D02*
X12220338Y-9619540D01*
X12220338Y-9619540D02*
X12201290Y-9629064D01*
X12201290Y-9629064D02*
X12182242Y-9629064D01*
X12182242Y-9629064D02*
X12163195Y-9619540D01*
X12163195Y-9619540D02*
X12153671Y-9610016D01*
X12153671Y-9610016D02*
X12144147Y-9590969D01*
X12144147Y-9590969D02*
X12134623Y-9552873D01*
X12134623Y-9552873D02*
X12134623Y-9505254D01*
X12134623Y-9505254D02*
X12144147Y-9467159D01*
X12144147Y-9467159D02*
X12153671Y-9448111D01*
X12153671Y-9448111D02*
X12163195Y-9438588D01*
X12163195Y-9438588D02*
X12182242Y-9429064D01*
X12372719Y-9429064D02*
X12391766Y-9429064D01*
X12391766Y-9429064D02*
X12410814Y-9438588D01*
X12410814Y-9438588D02*
X12420338Y-9448111D01*
X12420338Y-9448111D02*
X12429862Y-9467159D01*
X12429862Y-9467159D02*
X12439385Y-9505254D01*
X12439385Y-9505254D02*
X12439385Y-9552873D01*
X12439385Y-9552873D02*
X12429862Y-9590969D01*
X12429862Y-9590969D02*
X12420338Y-9610016D01*
X12420338Y-9610016D02*
X12410814Y-9619540D01*
X12410814Y-9619540D02*
X12391766Y-9629064D01*
X12391766Y-9629064D02*
X12372719Y-9629064D01*
X12372719Y-9629064D02*
X12353671Y-9619540D01*
X12353671Y-9619540D02*
X12344147Y-9610016D01*
X12344147Y-9610016D02*
X12334623Y-9590969D01*
X12334623Y-9590969D02*
X12325100Y-9552873D01*
X12325100Y-9552873D02*
X12325100Y-9505254D01*
X12325100Y-9505254D02*
X12334623Y-9467159D01*
X12334623Y-9467159D02*
X12344147Y-9448111D01*
X12344147Y-9448111D02*
X12353671Y-9438588D01*
X12353671Y-9438588D02*
X12372719Y-9429064D01*
X12525100Y-9629064D02*
X12525100Y-9495730D01*
X12525100Y-9514778D02*
X12534623Y-9505254D01*
X12534623Y-9505254D02*
X12553671Y-9495730D01*
X12553671Y-9495730D02*
X12582243Y-9495730D01*
X12582243Y-9495730D02*
X12601290Y-9505254D01*
X12601290Y-9505254D02*
X12610814Y-9524302D01*
X12610814Y-9524302D02*
X12610814Y-9629064D01*
X12610814Y-9524302D02*
X12620338Y-9505254D01*
X12620338Y-9505254D02*
X12639385Y-9495730D01*
X12639385Y-9495730D02*
X12667957Y-9495730D01*
X12667957Y-9495730D02*
X12687004Y-9505254D01*
X12687004Y-9505254D02*
X12696528Y-9524302D01*
X12696528Y-9524302D02*
X12696528Y-9629064D01*
X12791766Y-9629064D02*
X12791766Y-9495730D01*
X12791766Y-9514778D02*
X12801290Y-9505254D01*
X12801290Y-9505254D02*
X12820338Y-9495730D01*
X12820338Y-9495730D02*
X12848909Y-9495730D01*
X12848909Y-9495730D02*
X12867957Y-9505254D01*
X12867957Y-9505254D02*
X12877481Y-9524302D01*
X12877481Y-9524302D02*
X12877481Y-9629064D01*
X12877481Y-9524302D02*
X12887004Y-9505254D01*
X12887004Y-9505254D02*
X12906052Y-9495730D01*
X12906052Y-9495730D02*
X12934623Y-9495730D01*
X12934623Y-9495730D02*
X12953671Y-9505254D01*
X12953671Y-9505254D02*
X12963195Y-9524302D01*
X12963195Y-9524302D02*
X12963195Y-9629064D01*
X13353671Y-9419540D02*
X13182243Y-9676683D01*
X13610814Y-9429064D02*
X13629862Y-9429064D01*
X13629862Y-9429064D02*
X13648909Y-9438588D01*
X13648909Y-9438588D02*
X13658433Y-9448111D01*
X13658433Y-9448111D02*
X13667957Y-9467159D01*
X13667957Y-9467159D02*
X13677481Y-9505254D01*
X13677481Y-9505254D02*
X13677481Y-9552873D01*
X13677481Y-9552873D02*
X13667957Y-9590969D01*
X13667957Y-9590969D02*
X13658433Y-9610016D01*
X13658433Y-9610016D02*
X13648909Y-9619540D01*
X13648909Y-9619540D02*
X13629862Y-9629064D01*
X13629862Y-9629064D02*
X13610814Y-9629064D01*
X13610814Y-9629064D02*
X13591766Y-9619540D01*
X13591766Y-9619540D02*
X13582243Y-9610016D01*
X13582243Y-9610016D02*
X13572719Y-9590969D01*
X13572719Y-9590969D02*
X13563195Y-9552873D01*
X13563195Y-9552873D02*
X13563195Y-9505254D01*
X13563195Y-9505254D02*
X13572719Y-9467159D01*
X13572719Y-9467159D02*
X13582243Y-9448111D01*
X13582243Y-9448111D02*
X13591766Y-9438588D01*
X13591766Y-9438588D02*
X13610814Y-9429064D01*
X13763195Y-9610016D02*
X13772719Y-9619540D01*
X13772719Y-9619540D02*
X13763195Y-9629064D01*
X13763195Y-9629064D02*
X13753671Y-9619540D01*
X13753671Y-9619540D02*
X13763195Y-9610016D01*
X13763195Y-9610016D02*
X13763195Y-9629064D01*
X13896528Y-9429064D02*
X13915576Y-9429064D01*
X13915576Y-9429064D02*
X13934624Y-9438588D01*
X13934624Y-9438588D02*
X13944147Y-9448111D01*
X13944147Y-9448111D02*
X13953671Y-9467159D01*
X13953671Y-9467159D02*
X13963195Y-9505254D01*
X13963195Y-9505254D02*
X13963195Y-9552873D01*
X13963195Y-9552873D02*
X13953671Y-9590969D01*
X13953671Y-9590969D02*
X13944147Y-9610016D01*
X13944147Y-9610016D02*
X13934624Y-9619540D01*
X13934624Y-9619540D02*
X13915576Y-9629064D01*
X13915576Y-9629064D02*
X13896528Y-9629064D01*
X13896528Y-9629064D02*
X13877481Y-9619540D01*
X13877481Y-9619540D02*
X13867957Y-9610016D01*
X13867957Y-9610016D02*
X13858433Y-9590969D01*
X13858433Y-9590969D02*
X13848909Y-9552873D01*
X13848909Y-9552873D02*
X13848909Y-9505254D01*
X13848909Y-9505254D02*
X13858433Y-9467159D01*
X13858433Y-9467159D02*
X13867957Y-9448111D01*
X13867957Y-9448111D02*
X13877481Y-9438588D01*
X13877481Y-9438588D02*
X13896528Y-9429064D01*
X14153671Y-9629064D02*
X14039386Y-9629064D01*
X14096528Y-9629064D02*
X14096528Y-9429064D01*
X14096528Y-9429064D02*
X14077481Y-9457635D01*
X14077481Y-9457635D02*
X14058433Y-9476683D01*
X14058433Y-9476683D02*
X14039386Y-9486207D01*
X14344147Y-9629064D02*
X14229862Y-9629064D01*
X14287005Y-9629064D02*
X14287005Y-9429064D01*
X14287005Y-9429064D02*
X14267957Y-9457635D01*
X14267957Y-9457635D02*
X14248909Y-9476683D01*
X14248909Y-9476683D02*
X14229862Y-9486207D01*
X14458433Y-9514778D02*
X14439386Y-9505254D01*
X14439386Y-9505254D02*
X14429862Y-9495730D01*
X14429862Y-9495730D02*
X14420338Y-9476683D01*
X14420338Y-9476683D02*
X14420338Y-9467159D01*
X14420338Y-9467159D02*
X14429862Y-9448111D01*
X14429862Y-9448111D02*
X14439386Y-9438588D01*
X14439386Y-9438588D02*
X14458433Y-9429064D01*
X14458433Y-9429064D02*
X14496528Y-9429064D01*
X14496528Y-9429064D02*
X14515576Y-9438588D01*
X14515576Y-9438588D02*
X14525100Y-9448111D01*
X14525100Y-9448111D02*
X14534624Y-9467159D01*
X14534624Y-9467159D02*
X14534624Y-9476683D01*
X14534624Y-9476683D02*
X14525100Y-9495730D01*
X14525100Y-9495730D02*
X14515576Y-9505254D01*
X14515576Y-9505254D02*
X14496528Y-9514778D01*
X14496528Y-9514778D02*
X14458433Y-9514778D01*
X14458433Y-9514778D02*
X14439386Y-9524302D01*
X14439386Y-9524302D02*
X14429862Y-9533826D01*
X14429862Y-9533826D02*
X14420338Y-9552873D01*
X14420338Y-9552873D02*
X14420338Y-9590969D01*
X14420338Y-9590969D02*
X14429862Y-9610016D01*
X14429862Y-9610016D02*
X14439386Y-9619540D01*
X14439386Y-9619540D02*
X14458433Y-9629064D01*
X14458433Y-9629064D02*
X14496528Y-9629064D01*
X14496528Y-9629064D02*
X14515576Y-9619540D01*
X14515576Y-9619540D02*
X14525100Y-9610016D01*
X14525100Y-9610016D02*
X14534624Y-9590969D01*
X14534624Y-9590969D02*
X14534624Y-9552873D01*
X14534624Y-9552873D02*
X14525100Y-9533826D01*
X14525100Y-9533826D02*
X14515576Y-9524302D01*
X14515576Y-9524302D02*
X14496528Y-9514778D01*
X14610814Y-9429064D02*
X14610814Y-9467159D01*
X14687005Y-9429064D02*
X14687005Y-9467159D01*
X14982243Y-9705254D02*
X14972719Y-9695730D01*
X14972719Y-9695730D02*
X14953671Y-9667159D01*
X14953671Y-9667159D02*
X14944148Y-9648111D01*
X14944148Y-9648111D02*
X14934624Y-9619540D01*
X14934624Y-9619540D02*
X14925100Y-9571921D01*
X14925100Y-9571921D02*
X14925100Y-9533826D01*
X14925100Y-9533826D02*
X14934624Y-9486207D01*
X14934624Y-9486207D02*
X14944148Y-9457635D01*
X14944148Y-9457635D02*
X14953671Y-9438588D01*
X14953671Y-9438588D02*
X14972719Y-9410016D01*
X14972719Y-9410016D02*
X14982243Y-9400492D01*
X15039386Y-9429064D02*
X15172719Y-9429064D01*
X15172719Y-9429064D02*
X15087005Y-9629064D01*
X15401290Y-9629064D02*
X15401290Y-9429064D01*
X15487005Y-9629064D02*
X15487005Y-9524302D01*
X15487005Y-9524302D02*
X15477481Y-9505254D01*
X15477481Y-9505254D02*
X15458433Y-9495730D01*
X15458433Y-9495730D02*
X15429862Y-9495730D01*
X15429862Y-9495730D02*
X15410814Y-9505254D01*
X15410814Y-9505254D02*
X15401290Y-9514778D01*
X15610814Y-9629064D02*
X15591767Y-9619540D01*
X15591767Y-9619540D02*
X15582243Y-9610016D01*
X15582243Y-9610016D02*
X15572719Y-9590969D01*
X15572719Y-9590969D02*
X15572719Y-9533826D01*
X15572719Y-9533826D02*
X15582243Y-9514778D01*
X15582243Y-9514778D02*
X15591767Y-9505254D01*
X15591767Y-9505254D02*
X15610814Y-9495730D01*
X15610814Y-9495730D02*
X15639386Y-9495730D01*
X15639386Y-9495730D02*
X15658433Y-9505254D01*
X15658433Y-9505254D02*
X15667957Y-9514778D01*
X15667957Y-9514778D02*
X15677481Y-9533826D01*
X15677481Y-9533826D02*
X15677481Y-9590969D01*
X15677481Y-9590969D02*
X15667957Y-9610016D01*
X15667957Y-9610016D02*
X15658433Y-9619540D01*
X15658433Y-9619540D02*
X15639386Y-9629064D01*
X15639386Y-9629064D02*
X15610814Y-9629064D01*
X15791767Y-9629064D02*
X15772719Y-9619540D01*
X15772719Y-9619540D02*
X15763195Y-9600492D01*
X15763195Y-9600492D02*
X15763195Y-9429064D01*
X15944148Y-9619540D02*
X15925100Y-9629064D01*
X15925100Y-9629064D02*
X15887005Y-9629064D01*
X15887005Y-9629064D02*
X15867957Y-9619540D01*
X15867957Y-9619540D02*
X15858433Y-9600492D01*
X15858433Y-9600492D02*
X15858433Y-9524302D01*
X15858433Y-9524302D02*
X15867957Y-9505254D01*
X15867957Y-9505254D02*
X15887005Y-9495730D01*
X15887005Y-9495730D02*
X15925100Y-9495730D01*
X15925100Y-9495730D02*
X15944148Y-9505254D01*
X15944148Y-9505254D02*
X15953671Y-9524302D01*
X15953671Y-9524302D02*
X15953671Y-9543350D01*
X15953671Y-9543350D02*
X15858433Y-9562397D01*
X16029862Y-9619540D02*
X16048910Y-9629064D01*
X16048910Y-9629064D02*
X16087005Y-9629064D01*
X16087005Y-9629064D02*
X16106052Y-9619540D01*
X16106052Y-9619540D02*
X16115576Y-9600492D01*
X16115576Y-9600492D02*
X16115576Y-9590969D01*
X16115576Y-9590969D02*
X16106052Y-9571921D01*
X16106052Y-9571921D02*
X16087005Y-9562397D01*
X16087005Y-9562397D02*
X16058433Y-9562397D01*
X16058433Y-9562397D02*
X16039386Y-9552873D01*
X16039386Y-9552873D02*
X16029862Y-9533826D01*
X16029862Y-9533826D02*
X16029862Y-9524302D01*
X16029862Y-9524302D02*
X16039386Y-9505254D01*
X16039386Y-9505254D02*
X16058433Y-9495730D01*
X16058433Y-9495730D02*
X16087005Y-9495730D01*
X16087005Y-9495730D02*
X16106052Y-9505254D01*
X16182243Y-9705254D02*
X16191767Y-9695730D01*
X16191767Y-9695730D02*
X16210814Y-9667159D01*
X16210814Y-9667159D02*
X16220338Y-9648111D01*
X16220338Y-9648111D02*
X16229862Y-9619540D01*
X16229862Y-9619540D02*
X16239386Y-9571921D01*
X16239386Y-9571921D02*
X16239386Y-9533826D01*
X16239386Y-9533826D02*
X16229862Y-9486207D01*
X16229862Y-9486207D02*
X16220338Y-9457635D01*
X16220338Y-9457635D02*
X16210814Y-9438588D01*
X16210814Y-9438588D02*
X16191767Y-9410016D01*
X16191767Y-9410016D02*
X16182243Y-9400492D01*
D12*
X11407180Y-9801580D02*
G75*
G02*
X11312180Y-9801580I-47500J0D01*
G01*
X11312180Y-9801580D02*
G75*
G02*
X11407180Y-9801580I47500J0D01*
G01*
D11*
X11706052Y-9693064D02*
X11725100Y-9693064D01*
X11725100Y-9693064D02*
X11744147Y-9702588D01*
X11744147Y-9702588D02*
X11753671Y-9712111D01*
X11753671Y-9712111D02*
X11763195Y-9731159D01*
X11763195Y-9731159D02*
X11772719Y-9769254D01*
X11772719Y-9769254D02*
X11772719Y-9816873D01*
X11772719Y-9816873D02*
X11763195Y-9854969D01*
X11763195Y-9854969D02*
X11753671Y-9874016D01*
X11753671Y-9874016D02*
X11744147Y-9883540D01*
X11744147Y-9883540D02*
X11725100Y-9893064D01*
X11725100Y-9893064D02*
X11706052Y-9893064D01*
X11706052Y-9893064D02*
X11687004Y-9883540D01*
X11687004Y-9883540D02*
X11677481Y-9874016D01*
X11677481Y-9874016D02*
X11667957Y-9854969D01*
X11667957Y-9854969D02*
X11658433Y-9816873D01*
X11658433Y-9816873D02*
X11658433Y-9769254D01*
X11658433Y-9769254D02*
X11667957Y-9731159D01*
X11667957Y-9731159D02*
X11677481Y-9712111D01*
X11677481Y-9712111D02*
X11687004Y-9702588D01*
X11687004Y-9702588D02*
X11706052Y-9693064D01*
X11858433Y-9874016D02*
X11867957Y-9883540D01*
X11867957Y-9883540D02*
X11858433Y-9893064D01*
X11858433Y-9893064D02*
X11848909Y-9883540D01*
X11848909Y-9883540D02*
X11858433Y-9874016D01*
X11858433Y-9874016D02*
X11858433Y-9893064D01*
X11963195Y-9893064D02*
X12001290Y-9893064D01*
X12001290Y-9893064D02*
X12020338Y-9883540D01*
X12020338Y-9883540D02*
X12029862Y-9874016D01*
X12029862Y-9874016D02*
X12048909Y-9845445D01*
X12048909Y-9845445D02*
X12058433Y-9807350D01*
X12058433Y-9807350D02*
X12058433Y-9731159D01*
X12058433Y-9731159D02*
X12048909Y-9712111D01*
X12048909Y-9712111D02*
X12039385Y-9702588D01*
X12039385Y-9702588D02*
X12020338Y-9693064D01*
X12020338Y-9693064D02*
X11982242Y-9693064D01*
X11982242Y-9693064D02*
X11963195Y-9702588D01*
X11963195Y-9702588D02*
X11953671Y-9712111D01*
X11953671Y-9712111D02*
X11944147Y-9731159D01*
X11944147Y-9731159D02*
X11944147Y-9778778D01*
X11944147Y-9778778D02*
X11953671Y-9797826D01*
X11953671Y-9797826D02*
X11963195Y-9807350D01*
X11963195Y-9807350D02*
X11982242Y-9816873D01*
X11982242Y-9816873D02*
X12020338Y-9816873D01*
X12020338Y-9816873D02*
X12039385Y-9807350D01*
X12039385Y-9807350D02*
X12048909Y-9797826D01*
X12048909Y-9797826D02*
X12058433Y-9778778D01*
X12239385Y-9693064D02*
X12144147Y-9693064D01*
X12144147Y-9693064D02*
X12134623Y-9788302D01*
X12134623Y-9788302D02*
X12144147Y-9778778D01*
X12144147Y-9778778D02*
X12163195Y-9769254D01*
X12163195Y-9769254D02*
X12210814Y-9769254D01*
X12210814Y-9769254D02*
X12229862Y-9778778D01*
X12229862Y-9778778D02*
X12239385Y-9788302D01*
X12239385Y-9788302D02*
X12248909Y-9807350D01*
X12248909Y-9807350D02*
X12248909Y-9854969D01*
X12248909Y-9854969D02*
X12239385Y-9874016D01*
X12239385Y-9874016D02*
X12229862Y-9883540D01*
X12229862Y-9883540D02*
X12210814Y-9893064D01*
X12210814Y-9893064D02*
X12163195Y-9893064D01*
X12163195Y-9893064D02*
X12144147Y-9883540D01*
X12144147Y-9883540D02*
X12134623Y-9874016D01*
X12372719Y-9693064D02*
X12391766Y-9693064D01*
X12391766Y-9693064D02*
X12410814Y-9702588D01*
X12410814Y-9702588D02*
X12420338Y-9712111D01*
X12420338Y-9712111D02*
X12429862Y-9731159D01*
X12429862Y-9731159D02*
X12439385Y-9769254D01*
X12439385Y-9769254D02*
X12439385Y-9816873D01*
X12439385Y-9816873D02*
X12429862Y-9854969D01*
X12429862Y-9854969D02*
X12420338Y-9874016D01*
X12420338Y-9874016D02*
X12410814Y-9883540D01*
X12410814Y-9883540D02*
X12391766Y-9893064D01*
X12391766Y-9893064D02*
X12372719Y-9893064D01*
X12372719Y-9893064D02*
X12353671Y-9883540D01*
X12353671Y-9883540D02*
X12344147Y-9874016D01*
X12344147Y-9874016D02*
X12334623Y-9854969D01*
X12334623Y-9854969D02*
X12325100Y-9816873D01*
X12325100Y-9816873D02*
X12325100Y-9769254D01*
X12325100Y-9769254D02*
X12334623Y-9731159D01*
X12334623Y-9731159D02*
X12344147Y-9712111D01*
X12344147Y-9712111D02*
X12353671Y-9702588D01*
X12353671Y-9702588D02*
X12372719Y-9693064D01*
X12525100Y-9893064D02*
X12525100Y-9759730D01*
X12525100Y-9778778D02*
X12534623Y-9769254D01*
X12534623Y-9769254D02*
X12553671Y-9759730D01*
X12553671Y-9759730D02*
X12582243Y-9759730D01*
X12582243Y-9759730D02*
X12601290Y-9769254D01*
X12601290Y-9769254D02*
X12610814Y-9788302D01*
X12610814Y-9788302D02*
X12610814Y-9893064D01*
X12610814Y-9788302D02*
X12620338Y-9769254D01*
X12620338Y-9769254D02*
X12639385Y-9759730D01*
X12639385Y-9759730D02*
X12667957Y-9759730D01*
X12667957Y-9759730D02*
X12687004Y-9769254D01*
X12687004Y-9769254D02*
X12696528Y-9788302D01*
X12696528Y-9788302D02*
X12696528Y-9893064D01*
X12791766Y-9893064D02*
X12791766Y-9759730D01*
X12791766Y-9778778D02*
X12801290Y-9769254D01*
X12801290Y-9769254D02*
X12820338Y-9759730D01*
X12820338Y-9759730D02*
X12848909Y-9759730D01*
X12848909Y-9759730D02*
X12867957Y-9769254D01*
X12867957Y-9769254D02*
X12877481Y-9788302D01*
X12877481Y-9788302D02*
X12877481Y-9893064D01*
X12877481Y-9788302D02*
X12887004Y-9769254D01*
X12887004Y-9769254D02*
X12906052Y-9759730D01*
X12906052Y-9759730D02*
X12934623Y-9759730D01*
X12934623Y-9759730D02*
X12953671Y-9769254D01*
X12953671Y-9769254D02*
X12963195Y-9788302D01*
X12963195Y-9788302D02*
X12963195Y-9893064D01*
X13353671Y-9683540D02*
X13182243Y-9940683D01*
X13610814Y-9693064D02*
X13629862Y-9693064D01*
X13629862Y-9693064D02*
X13648909Y-9702588D01*
X13648909Y-9702588D02*
X13658433Y-9712111D01*
X13658433Y-9712111D02*
X13667957Y-9731159D01*
X13667957Y-9731159D02*
X13677481Y-9769254D01*
X13677481Y-9769254D02*
X13677481Y-9816873D01*
X13677481Y-9816873D02*
X13667957Y-9854969D01*
X13667957Y-9854969D02*
X13658433Y-9874016D01*
X13658433Y-9874016D02*
X13648909Y-9883540D01*
X13648909Y-9883540D02*
X13629862Y-9893064D01*
X13629862Y-9893064D02*
X13610814Y-9893064D01*
X13610814Y-9893064D02*
X13591766Y-9883540D01*
X13591766Y-9883540D02*
X13582243Y-9874016D01*
X13582243Y-9874016D02*
X13572719Y-9854969D01*
X13572719Y-9854969D02*
X13563195Y-9816873D01*
X13563195Y-9816873D02*
X13563195Y-9769254D01*
X13563195Y-9769254D02*
X13572719Y-9731159D01*
X13572719Y-9731159D02*
X13582243Y-9712111D01*
X13582243Y-9712111D02*
X13591766Y-9702588D01*
X13591766Y-9702588D02*
X13610814Y-9693064D01*
X13763195Y-9874016D02*
X13772719Y-9883540D01*
X13772719Y-9883540D02*
X13763195Y-9893064D01*
X13763195Y-9893064D02*
X13753671Y-9883540D01*
X13753671Y-9883540D02*
X13763195Y-9874016D01*
X13763195Y-9874016D02*
X13763195Y-9893064D01*
X13896528Y-9693064D02*
X13915576Y-9693064D01*
X13915576Y-9693064D02*
X13934624Y-9702588D01*
X13934624Y-9702588D02*
X13944147Y-9712111D01*
X13944147Y-9712111D02*
X13953671Y-9731159D01*
X13953671Y-9731159D02*
X13963195Y-9769254D01*
X13963195Y-9769254D02*
X13963195Y-9816873D01*
X13963195Y-9816873D02*
X13953671Y-9854969D01*
X13953671Y-9854969D02*
X13944147Y-9874016D01*
X13944147Y-9874016D02*
X13934624Y-9883540D01*
X13934624Y-9883540D02*
X13915576Y-9893064D01*
X13915576Y-9893064D02*
X13896528Y-9893064D01*
X13896528Y-9893064D02*
X13877481Y-9883540D01*
X13877481Y-9883540D02*
X13867957Y-9874016D01*
X13867957Y-9874016D02*
X13858433Y-9854969D01*
X13858433Y-9854969D02*
X13848909Y-9816873D01*
X13848909Y-9816873D02*
X13848909Y-9769254D01*
X13848909Y-9769254D02*
X13858433Y-9731159D01*
X13858433Y-9731159D02*
X13867957Y-9712111D01*
X13867957Y-9712111D02*
X13877481Y-9702588D01*
X13877481Y-9702588D02*
X13896528Y-9693064D01*
X14029862Y-9693064D02*
X14153671Y-9693064D01*
X14153671Y-9693064D02*
X14087005Y-9769254D01*
X14087005Y-9769254D02*
X14115576Y-9769254D01*
X14115576Y-9769254D02*
X14134624Y-9778778D01*
X14134624Y-9778778D02*
X14144147Y-9788302D01*
X14144147Y-9788302D02*
X14153671Y-9807350D01*
X14153671Y-9807350D02*
X14153671Y-9854969D01*
X14153671Y-9854969D02*
X14144147Y-9874016D01*
X14144147Y-9874016D02*
X14134624Y-9883540D01*
X14134624Y-9883540D02*
X14115576Y-9893064D01*
X14115576Y-9893064D02*
X14058433Y-9893064D01*
X14058433Y-9893064D02*
X14039386Y-9883540D01*
X14039386Y-9883540D02*
X14029862Y-9874016D01*
X14220338Y-9693064D02*
X14353671Y-9693064D01*
X14353671Y-9693064D02*
X14267957Y-9893064D01*
X14515576Y-9759730D02*
X14515576Y-9893064D01*
X14467957Y-9683540D02*
X14420338Y-9826397D01*
X14420338Y-9826397D02*
X14544147Y-9826397D01*
X14610814Y-9693064D02*
X14610814Y-9731159D01*
X14687005Y-9693064D02*
X14687005Y-9731159D01*
X14982243Y-9969254D02*
X14972719Y-9959730D01*
X14972719Y-9959730D02*
X14953671Y-9931159D01*
X14953671Y-9931159D02*
X14944148Y-9912111D01*
X14944148Y-9912111D02*
X14934624Y-9883540D01*
X14934624Y-9883540D02*
X14925100Y-9835921D01*
X14925100Y-9835921D02*
X14925100Y-9797826D01*
X14925100Y-9797826D02*
X14934624Y-9750207D01*
X14934624Y-9750207D02*
X14944148Y-9721635D01*
X14944148Y-9721635D02*
X14953671Y-9702588D01*
X14953671Y-9702588D02*
X14972719Y-9674016D01*
X14972719Y-9674016D02*
X14982243Y-9664492D01*
X15144148Y-9759730D02*
X15144148Y-9893064D01*
X15096528Y-9683540D02*
X15048909Y-9826397D01*
X15048909Y-9826397D02*
X15172719Y-9826397D01*
X15401290Y-9893064D02*
X15401290Y-9693064D01*
X15487005Y-9893064D02*
X15487005Y-9788302D01*
X15487005Y-9788302D02*
X15477481Y-9769254D01*
X15477481Y-9769254D02*
X15458433Y-9759730D01*
X15458433Y-9759730D02*
X15429862Y-9759730D01*
X15429862Y-9759730D02*
X15410814Y-9769254D01*
X15410814Y-9769254D02*
X15401290Y-9778778D01*
X15610814Y-9893064D02*
X15591767Y-9883540D01*
X15591767Y-9883540D02*
X15582243Y-9874016D01*
X15582243Y-9874016D02*
X15572719Y-9854969D01*
X15572719Y-9854969D02*
X15572719Y-9797826D01*
X15572719Y-9797826D02*
X15582243Y-9778778D01*
X15582243Y-9778778D02*
X15591767Y-9769254D01*
X15591767Y-9769254D02*
X15610814Y-9759730D01*
X15610814Y-9759730D02*
X15639386Y-9759730D01*
X15639386Y-9759730D02*
X15658433Y-9769254D01*
X15658433Y-9769254D02*
X15667957Y-9778778D01*
X15667957Y-9778778D02*
X15677481Y-9797826D01*
X15677481Y-9797826D02*
X15677481Y-9854969D01*
X15677481Y-9854969D02*
X15667957Y-9874016D01*
X15667957Y-9874016D02*
X15658433Y-9883540D01*
X15658433Y-9883540D02*
X15639386Y-9893064D01*
X15639386Y-9893064D02*
X15610814Y-9893064D01*
X15791767Y-9893064D02*
X15772719Y-9883540D01*
X15772719Y-9883540D02*
X15763195Y-9864492D01*
X15763195Y-9864492D02*
X15763195Y-9693064D01*
X15944148Y-9883540D02*
X15925100Y-9893064D01*
X15925100Y-9893064D02*
X15887005Y-9893064D01*
X15887005Y-9893064D02*
X15867957Y-9883540D01*
X15867957Y-9883540D02*
X15858433Y-9864492D01*
X15858433Y-9864492D02*
X15858433Y-9788302D01*
X15858433Y-9788302D02*
X15867957Y-9769254D01*
X15867957Y-9769254D02*
X15887005Y-9759730D01*
X15887005Y-9759730D02*
X15925100Y-9759730D01*
X15925100Y-9759730D02*
X15944148Y-9769254D01*
X15944148Y-9769254D02*
X15953671Y-9788302D01*
X15953671Y-9788302D02*
X15953671Y-9807350D01*
X15953671Y-9807350D02*
X15858433Y-9826397D01*
X16029862Y-9883540D02*
X16048910Y-9893064D01*
X16048910Y-9893064D02*
X16087005Y-9893064D01*
X16087005Y-9893064D02*
X16106052Y-9883540D01*
X16106052Y-9883540D02*
X16115576Y-9864492D01*
X16115576Y-9864492D02*
X16115576Y-9854969D01*
X16115576Y-9854969D02*
X16106052Y-9835921D01*
X16106052Y-9835921D02*
X16087005Y-9826397D01*
X16087005Y-9826397D02*
X16058433Y-9826397D01*
X16058433Y-9826397D02*
X16039386Y-9816873D01*
X16039386Y-9816873D02*
X16029862Y-9797826D01*
X16029862Y-9797826D02*
X16029862Y-9788302D01*
X16029862Y-9788302D02*
X16039386Y-9769254D01*
X16039386Y-9769254D02*
X16058433Y-9759730D01*
X16058433Y-9759730D02*
X16087005Y-9759730D01*
X16087005Y-9759730D02*
X16106052Y-9769254D01*
X16182243Y-9969254D02*
X16191767Y-9959730D01*
X16191767Y-9959730D02*
X16210814Y-9931159D01*
X16210814Y-9931159D02*
X16220338Y-9912111D01*
X16220338Y-9912111D02*
X16229862Y-9883540D01*
X16229862Y-9883540D02*
X16239386Y-9835921D01*
X16239386Y-9835921D02*
X16239386Y-9797826D01*
X16239386Y-9797826D02*
X16229862Y-9750207D01*
X16229862Y-9750207D02*
X16220338Y-9721635D01*
X16220338Y-9721635D02*
X16210814Y-9702588D01*
X16210814Y-9702588D02*
X16191767Y-9674016D01*
X16191767Y-9674016D02*
X16182243Y-9664492D01*
D12*
X11357180Y-10015580D02*
X11357180Y-10115580D01*
X11307180Y-10065580D02*
X11407180Y-10065580D01*
D11*
X11772719Y-10157064D02*
X11658433Y-10157064D01*
X11715576Y-10157064D02*
X11715576Y-9957064D01*
X11715576Y-9957064D02*
X11696528Y-9985635D01*
X11696528Y-9985635D02*
X11677481Y-10004683D01*
X11677481Y-10004683D02*
X11658433Y-10014207D01*
X11858433Y-10138016D02*
X11867957Y-10147540D01*
X11867957Y-10147540D02*
X11858433Y-10157064D01*
X11858433Y-10157064D02*
X11848909Y-10147540D01*
X11848909Y-10147540D02*
X11858433Y-10138016D01*
X11858433Y-10138016D02*
X11858433Y-10157064D01*
X11991766Y-9957064D02*
X12010814Y-9957064D01*
X12010814Y-9957064D02*
X12029862Y-9966588D01*
X12029862Y-9966588D02*
X12039385Y-9976111D01*
X12039385Y-9976111D02*
X12048909Y-9995159D01*
X12048909Y-9995159D02*
X12058433Y-10033254D01*
X12058433Y-10033254D02*
X12058433Y-10080873D01*
X12058433Y-10080873D02*
X12048909Y-10118969D01*
X12048909Y-10118969D02*
X12039385Y-10138016D01*
X12039385Y-10138016D02*
X12029862Y-10147540D01*
X12029862Y-10147540D02*
X12010814Y-10157064D01*
X12010814Y-10157064D02*
X11991766Y-10157064D01*
X11991766Y-10157064D02*
X11972719Y-10147540D01*
X11972719Y-10147540D02*
X11963195Y-10138016D01*
X11963195Y-10138016D02*
X11953671Y-10118969D01*
X11953671Y-10118969D02*
X11944147Y-10080873D01*
X11944147Y-10080873D02*
X11944147Y-10033254D01*
X11944147Y-10033254D02*
X11953671Y-9995159D01*
X11953671Y-9995159D02*
X11963195Y-9976111D01*
X11963195Y-9976111D02*
X11972719Y-9966588D01*
X11972719Y-9966588D02*
X11991766Y-9957064D01*
X12182242Y-9957064D02*
X12201290Y-9957064D01*
X12201290Y-9957064D02*
X12220338Y-9966588D01*
X12220338Y-9966588D02*
X12229862Y-9976111D01*
X12229862Y-9976111D02*
X12239385Y-9995159D01*
X12239385Y-9995159D02*
X12248909Y-10033254D01*
X12248909Y-10033254D02*
X12248909Y-10080873D01*
X12248909Y-10080873D02*
X12239385Y-10118969D01*
X12239385Y-10118969D02*
X12229862Y-10138016D01*
X12229862Y-10138016D02*
X12220338Y-10147540D01*
X12220338Y-10147540D02*
X12201290Y-10157064D01*
X12201290Y-10157064D02*
X12182242Y-10157064D01*
X12182242Y-10157064D02*
X12163195Y-10147540D01*
X12163195Y-10147540D02*
X12153671Y-10138016D01*
X12153671Y-10138016D02*
X12144147Y-10118969D01*
X12144147Y-10118969D02*
X12134623Y-10080873D01*
X12134623Y-10080873D02*
X12134623Y-10033254D01*
X12134623Y-10033254D02*
X12144147Y-9995159D01*
X12144147Y-9995159D02*
X12153671Y-9976111D01*
X12153671Y-9976111D02*
X12163195Y-9966588D01*
X12163195Y-9966588D02*
X12182242Y-9957064D01*
X12372719Y-9957064D02*
X12391766Y-9957064D01*
X12391766Y-9957064D02*
X12410814Y-9966588D01*
X12410814Y-9966588D02*
X12420338Y-9976111D01*
X12420338Y-9976111D02*
X12429862Y-9995159D01*
X12429862Y-9995159D02*
X12439385Y-10033254D01*
X12439385Y-10033254D02*
X12439385Y-10080873D01*
X12439385Y-10080873D02*
X12429862Y-10118969D01*
X12429862Y-10118969D02*
X12420338Y-10138016D01*
X12420338Y-10138016D02*
X12410814Y-10147540D01*
X12410814Y-10147540D02*
X12391766Y-10157064D01*
X12391766Y-10157064D02*
X12372719Y-10157064D01*
X12372719Y-10157064D02*
X12353671Y-10147540D01*
X12353671Y-10147540D02*
X12344147Y-10138016D01*
X12344147Y-10138016D02*
X12334623Y-10118969D01*
X12334623Y-10118969D02*
X12325100Y-10080873D01*
X12325100Y-10080873D02*
X12325100Y-10033254D01*
X12325100Y-10033254D02*
X12334623Y-9995159D01*
X12334623Y-9995159D02*
X12344147Y-9976111D01*
X12344147Y-9976111D02*
X12353671Y-9966588D01*
X12353671Y-9966588D02*
X12372719Y-9957064D01*
X12525100Y-10157064D02*
X12525100Y-10023730D01*
X12525100Y-10042778D02*
X12534623Y-10033254D01*
X12534623Y-10033254D02*
X12553671Y-10023730D01*
X12553671Y-10023730D02*
X12582243Y-10023730D01*
X12582243Y-10023730D02*
X12601290Y-10033254D01*
X12601290Y-10033254D02*
X12610814Y-10052302D01*
X12610814Y-10052302D02*
X12610814Y-10157064D01*
X12610814Y-10052302D02*
X12620338Y-10033254D01*
X12620338Y-10033254D02*
X12639385Y-10023730D01*
X12639385Y-10023730D02*
X12667957Y-10023730D01*
X12667957Y-10023730D02*
X12687004Y-10033254D01*
X12687004Y-10033254D02*
X12696528Y-10052302D01*
X12696528Y-10052302D02*
X12696528Y-10157064D01*
X12791766Y-10157064D02*
X12791766Y-10023730D01*
X12791766Y-10042778D02*
X12801290Y-10033254D01*
X12801290Y-10033254D02*
X12820338Y-10023730D01*
X12820338Y-10023730D02*
X12848909Y-10023730D01*
X12848909Y-10023730D02*
X12867957Y-10033254D01*
X12867957Y-10033254D02*
X12877481Y-10052302D01*
X12877481Y-10052302D02*
X12877481Y-10157064D01*
X12877481Y-10052302D02*
X12887004Y-10033254D01*
X12887004Y-10033254D02*
X12906052Y-10023730D01*
X12906052Y-10023730D02*
X12934623Y-10023730D01*
X12934623Y-10023730D02*
X12953671Y-10033254D01*
X12953671Y-10033254D02*
X12963195Y-10052302D01*
X12963195Y-10052302D02*
X12963195Y-10157064D01*
X13353671Y-9947540D02*
X13182243Y-10204683D01*
X13610814Y-9957064D02*
X13629862Y-9957064D01*
X13629862Y-9957064D02*
X13648909Y-9966588D01*
X13648909Y-9966588D02*
X13658433Y-9976111D01*
X13658433Y-9976111D02*
X13667957Y-9995159D01*
X13667957Y-9995159D02*
X13677481Y-10033254D01*
X13677481Y-10033254D02*
X13677481Y-10080873D01*
X13677481Y-10080873D02*
X13667957Y-10118969D01*
X13667957Y-10118969D02*
X13658433Y-10138016D01*
X13658433Y-10138016D02*
X13648909Y-10147540D01*
X13648909Y-10147540D02*
X13629862Y-10157064D01*
X13629862Y-10157064D02*
X13610814Y-10157064D01*
X13610814Y-10157064D02*
X13591766Y-10147540D01*
X13591766Y-10147540D02*
X13582243Y-10138016D01*
X13582243Y-10138016D02*
X13572719Y-10118969D01*
X13572719Y-10118969D02*
X13563195Y-10080873D01*
X13563195Y-10080873D02*
X13563195Y-10033254D01*
X13563195Y-10033254D02*
X13572719Y-9995159D01*
X13572719Y-9995159D02*
X13582243Y-9976111D01*
X13582243Y-9976111D02*
X13591766Y-9966588D01*
X13591766Y-9966588D02*
X13610814Y-9957064D01*
X13763195Y-10138016D02*
X13772719Y-10147540D01*
X13772719Y-10147540D02*
X13763195Y-10157064D01*
X13763195Y-10157064D02*
X13753671Y-10147540D01*
X13753671Y-10147540D02*
X13763195Y-10138016D01*
X13763195Y-10138016D02*
X13763195Y-10157064D01*
X13896528Y-9957064D02*
X13915576Y-9957064D01*
X13915576Y-9957064D02*
X13934624Y-9966588D01*
X13934624Y-9966588D02*
X13944147Y-9976111D01*
X13944147Y-9976111D02*
X13953671Y-9995159D01*
X13953671Y-9995159D02*
X13963195Y-10033254D01*
X13963195Y-10033254D02*
X13963195Y-10080873D01*
X13963195Y-10080873D02*
X13953671Y-10118969D01*
X13953671Y-10118969D02*
X13944147Y-10138016D01*
X13944147Y-10138016D02*
X13934624Y-10147540D01*
X13934624Y-10147540D02*
X13915576Y-10157064D01*
X13915576Y-10157064D02*
X13896528Y-10157064D01*
X13896528Y-10157064D02*
X13877481Y-10147540D01*
X13877481Y-10147540D02*
X13867957Y-10138016D01*
X13867957Y-10138016D02*
X13858433Y-10118969D01*
X13858433Y-10118969D02*
X13848909Y-10080873D01*
X13848909Y-10080873D02*
X13848909Y-10033254D01*
X13848909Y-10033254D02*
X13858433Y-9995159D01*
X13858433Y-9995159D02*
X13867957Y-9976111D01*
X13867957Y-9976111D02*
X13877481Y-9966588D01*
X13877481Y-9966588D02*
X13896528Y-9957064D01*
X14029862Y-9957064D02*
X14153671Y-9957064D01*
X14153671Y-9957064D02*
X14087005Y-10033254D01*
X14087005Y-10033254D02*
X14115576Y-10033254D01*
X14115576Y-10033254D02*
X14134624Y-10042778D01*
X14134624Y-10042778D02*
X14144147Y-10052302D01*
X14144147Y-10052302D02*
X14153671Y-10071350D01*
X14153671Y-10071350D02*
X14153671Y-10118969D01*
X14153671Y-10118969D02*
X14144147Y-10138016D01*
X14144147Y-10138016D02*
X14134624Y-10147540D01*
X14134624Y-10147540D02*
X14115576Y-10157064D01*
X14115576Y-10157064D02*
X14058433Y-10157064D01*
X14058433Y-10157064D02*
X14039386Y-10147540D01*
X14039386Y-10147540D02*
X14029862Y-10138016D01*
X14248909Y-10157064D02*
X14287005Y-10157064D01*
X14287005Y-10157064D02*
X14306052Y-10147540D01*
X14306052Y-10147540D02*
X14315576Y-10138016D01*
X14315576Y-10138016D02*
X14334624Y-10109445D01*
X14334624Y-10109445D02*
X14344147Y-10071350D01*
X14344147Y-10071350D02*
X14344147Y-9995159D01*
X14344147Y-9995159D02*
X14334624Y-9976111D01*
X14334624Y-9976111D02*
X14325100Y-9966588D01*
X14325100Y-9966588D02*
X14306052Y-9957064D01*
X14306052Y-9957064D02*
X14267957Y-9957064D01*
X14267957Y-9957064D02*
X14248909Y-9966588D01*
X14248909Y-9966588D02*
X14239386Y-9976111D01*
X14239386Y-9976111D02*
X14229862Y-9995159D01*
X14229862Y-9995159D02*
X14229862Y-10042778D01*
X14229862Y-10042778D02*
X14239386Y-10061826D01*
X14239386Y-10061826D02*
X14248909Y-10071350D01*
X14248909Y-10071350D02*
X14267957Y-10080873D01*
X14267957Y-10080873D02*
X14306052Y-10080873D01*
X14306052Y-10080873D02*
X14325100Y-10071350D01*
X14325100Y-10071350D02*
X14334624Y-10061826D01*
X14334624Y-10061826D02*
X14344147Y-10042778D01*
X14515576Y-10023730D02*
X14515576Y-10157064D01*
X14467957Y-9947540D02*
X14420338Y-10090397D01*
X14420338Y-10090397D02*
X14544147Y-10090397D01*
X14610814Y-9957064D02*
X14610814Y-9995159D01*
X14687005Y-9957064D02*
X14687005Y-9995159D01*
X14982243Y-10233254D02*
X14972719Y-10223730D01*
X14972719Y-10223730D02*
X14953671Y-10195159D01*
X14953671Y-10195159D02*
X14944148Y-10176111D01*
X14944148Y-10176111D02*
X14934624Y-10147540D01*
X14934624Y-10147540D02*
X14925100Y-10099921D01*
X14925100Y-10099921D02*
X14925100Y-10061826D01*
X14925100Y-10061826D02*
X14934624Y-10014207D01*
X14934624Y-10014207D02*
X14944148Y-9985635D01*
X14944148Y-9985635D02*
X14953671Y-9966588D01*
X14953671Y-9966588D02*
X14972719Y-9938016D01*
X14972719Y-9938016D02*
X14982243Y-9928492D01*
X15048909Y-9976111D02*
X15058433Y-9966588D01*
X15058433Y-9966588D02*
X15077481Y-9957064D01*
X15077481Y-9957064D02*
X15125100Y-9957064D01*
X15125100Y-9957064D02*
X15144148Y-9966588D01*
X15144148Y-9966588D02*
X15153671Y-9976111D01*
X15153671Y-9976111D02*
X15163195Y-9995159D01*
X15163195Y-9995159D02*
X15163195Y-10014207D01*
X15163195Y-10014207D02*
X15153671Y-10042778D01*
X15153671Y-10042778D02*
X15039386Y-10157064D01*
X15039386Y-10157064D02*
X15163195Y-10157064D01*
X15401290Y-10157064D02*
X15401290Y-9957064D01*
X15487005Y-10157064D02*
X15487005Y-10052302D01*
X15487005Y-10052302D02*
X15477481Y-10033254D01*
X15477481Y-10033254D02*
X15458433Y-10023730D01*
X15458433Y-10023730D02*
X15429862Y-10023730D01*
X15429862Y-10023730D02*
X15410814Y-10033254D01*
X15410814Y-10033254D02*
X15401290Y-10042778D01*
X15610814Y-10157064D02*
X15591767Y-10147540D01*
X15591767Y-10147540D02*
X15582243Y-10138016D01*
X15582243Y-10138016D02*
X15572719Y-10118969D01*
X15572719Y-10118969D02*
X15572719Y-10061826D01*
X15572719Y-10061826D02*
X15582243Y-10042778D01*
X15582243Y-10042778D02*
X15591767Y-10033254D01*
X15591767Y-10033254D02*
X15610814Y-10023730D01*
X15610814Y-10023730D02*
X15639386Y-10023730D01*
X15639386Y-10023730D02*
X15658433Y-10033254D01*
X15658433Y-10033254D02*
X15667957Y-10042778D01*
X15667957Y-10042778D02*
X15677481Y-10061826D01*
X15677481Y-10061826D02*
X15677481Y-10118969D01*
X15677481Y-10118969D02*
X15667957Y-10138016D01*
X15667957Y-10138016D02*
X15658433Y-10147540D01*
X15658433Y-10147540D02*
X15639386Y-10157064D01*
X15639386Y-10157064D02*
X15610814Y-10157064D01*
X15791767Y-10157064D02*
X15772719Y-10147540D01*
X15772719Y-10147540D02*
X15763195Y-10128492D01*
X15763195Y-10128492D02*
X15763195Y-9957064D01*
X15944148Y-10147540D02*
X15925100Y-10157064D01*
X15925100Y-10157064D02*
X15887005Y-10157064D01*
X15887005Y-10157064D02*
X15867957Y-10147540D01*
X15867957Y-10147540D02*
X15858433Y-10128492D01*
X15858433Y-10128492D02*
X15858433Y-10052302D01*
X15858433Y-10052302D02*
X15867957Y-10033254D01*
X15867957Y-10033254D02*
X15887005Y-10023730D01*
X15887005Y-10023730D02*
X15925100Y-10023730D01*
X15925100Y-10023730D02*
X15944148Y-10033254D01*
X15944148Y-10033254D02*
X15953671Y-10052302D01*
X15953671Y-10052302D02*
X15953671Y-10071350D01*
X15953671Y-10071350D02*
X15858433Y-10090397D01*
X16029862Y-10147540D02*
X16048910Y-10157064D01*
X16048910Y-10157064D02*
X16087005Y-10157064D01*
X16087005Y-10157064D02*
X16106052Y-10147540D01*
X16106052Y-10147540D02*
X16115576Y-10128492D01*
X16115576Y-10128492D02*
X16115576Y-10118969D01*
X16115576Y-10118969D02*
X16106052Y-10099921D01*
X16106052Y-10099921D02*
X16087005Y-10090397D01*
X16087005Y-10090397D02*
X16058433Y-10090397D01*
X16058433Y-10090397D02*
X16039386Y-10080873D01*
X16039386Y-10080873D02*
X16029862Y-10061826D01*
X16029862Y-10061826D02*
X16029862Y-10052302D01*
X16029862Y-10052302D02*
X16039386Y-10033254D01*
X16039386Y-10033254D02*
X16058433Y-10023730D01*
X16058433Y-10023730D02*
X16087005Y-10023730D01*
X16087005Y-10023730D02*
X16106052Y-10033254D01*
X16182243Y-10233254D02*
X16191767Y-10223730D01*
X16191767Y-10223730D02*
X16210814Y-10195159D01*
X16210814Y-10195159D02*
X16220338Y-10176111D01*
X16220338Y-10176111D02*
X16229862Y-10147540D01*
X16229862Y-10147540D02*
X16239386Y-10099921D01*
X16239386Y-10099921D02*
X16239386Y-10061826D01*
X16239386Y-10061826D02*
X16229862Y-10014207D01*
X16229862Y-10014207D02*
X16220338Y-9985635D01*
X16220338Y-9985635D02*
X16210814Y-9966588D01*
X16210814Y-9966588D02*
X16191767Y-9938016D01*
X16191767Y-9938016D02*
X16182243Y-9928492D01*
M02*
