%TF.GenerationSoftware,KiCad,Pcbnew,9.0.4*%
%TF.CreationDate,2025-12-21T16:37:19-05:00*%
%TF.ProjectId,TC_shuwen,54435f73-6875-4776-956e-2e6b69636164,rev?*%
%TF.SameCoordinates,Original*%
%TF.FileFunction,Drillmap*%
%TF.FilePolarity,Positive*%
%FSLAX45Y45*%
G04 Gerber Fmt 4.5, Leading zero omitted, Abs format (unit mm)*
G04 Created by KiCad (PCBNEW 9.0.4) date 2025-12-21 16:37:19*
%MOMM*%
%LPD*%
G01*
G04 APERTURE LIST*
%ADD10C,0.050000*%
%ADD11C,0.200000*%
%ADD12C,0.120000*%
G04 APERTURE END LIST*
D10*
X11900000Y-8900000D02*
X11900000Y-6900000D01*
X14700000Y-8900000D02*
X14700000Y-6900000D01*
X14700000Y-6900000D02*
X11900000Y-6900000D01*
X14700000Y-8900000D02*
X11900000Y-8900000D01*
D11*
D12*
X12190000Y-7580000D02*
X12310000Y-7700000D01*
X12310000Y-7580000D02*
X12190000Y-7700000D01*
X14340000Y-8375000D02*
X14460000Y-8495000D01*
X14460000Y-8375000D02*
X14340000Y-8495000D01*
D11*
X12158277Y-9213984D02*
X12158277Y-9013984D01*
X12158277Y-9013984D02*
X12205896Y-9013984D01*
X12205896Y-9013984D02*
X12234467Y-9023508D01*
X12234467Y-9023508D02*
X12253515Y-9042555D01*
X12253515Y-9042555D02*
X12263039Y-9061603D01*
X12263039Y-9061603D02*
X12272562Y-9099698D01*
X12272562Y-9099698D02*
X12272562Y-9128270D01*
X12272562Y-9128270D02*
X12263039Y-9166365D01*
X12263039Y-9166365D02*
X12253515Y-9185412D01*
X12253515Y-9185412D02*
X12234467Y-9204460D01*
X12234467Y-9204460D02*
X12205896Y-9213984D01*
X12205896Y-9213984D02*
X12158277Y-9213984D01*
X12358277Y-9213984D02*
X12358277Y-9080650D01*
X12358277Y-9118746D02*
X12367801Y-9099698D01*
X12367801Y-9099698D02*
X12377324Y-9090174D01*
X12377324Y-9090174D02*
X12396372Y-9080650D01*
X12396372Y-9080650D02*
X12415420Y-9080650D01*
X12482086Y-9213984D02*
X12482086Y-9080650D01*
X12482086Y-9013984D02*
X12472562Y-9023508D01*
X12472562Y-9023508D02*
X12482086Y-9033031D01*
X12482086Y-9033031D02*
X12491610Y-9023508D01*
X12491610Y-9023508D02*
X12482086Y-9013984D01*
X12482086Y-9013984D02*
X12482086Y-9033031D01*
X12605896Y-9213984D02*
X12586848Y-9204460D01*
X12586848Y-9204460D02*
X12577324Y-9185412D01*
X12577324Y-9185412D02*
X12577324Y-9013984D01*
X12710658Y-9213984D02*
X12691610Y-9204460D01*
X12691610Y-9204460D02*
X12682086Y-9185412D01*
X12682086Y-9185412D02*
X12682086Y-9013984D01*
X12939229Y-9213984D02*
X12939229Y-9013984D01*
X12939229Y-9013984D02*
X13005896Y-9156841D01*
X13005896Y-9156841D02*
X13072562Y-9013984D01*
X13072562Y-9013984D02*
X13072562Y-9213984D01*
X13253515Y-9213984D02*
X13253515Y-9109222D01*
X13253515Y-9109222D02*
X13243991Y-9090174D01*
X13243991Y-9090174D02*
X13224943Y-9080650D01*
X13224943Y-9080650D02*
X13186848Y-9080650D01*
X13186848Y-9080650D02*
X13167801Y-9090174D01*
X13253515Y-9204460D02*
X13234467Y-9213984D01*
X13234467Y-9213984D02*
X13186848Y-9213984D01*
X13186848Y-9213984D02*
X13167801Y-9204460D01*
X13167801Y-9204460D02*
X13158277Y-9185412D01*
X13158277Y-9185412D02*
X13158277Y-9166365D01*
X13158277Y-9166365D02*
X13167801Y-9147317D01*
X13167801Y-9147317D02*
X13186848Y-9137793D01*
X13186848Y-9137793D02*
X13234467Y-9137793D01*
X13234467Y-9137793D02*
X13253515Y-9128270D01*
X13348753Y-9080650D02*
X13348753Y-9280650D01*
X13348753Y-9090174D02*
X13367801Y-9080650D01*
X13367801Y-9080650D02*
X13405896Y-9080650D01*
X13405896Y-9080650D02*
X13424943Y-9090174D01*
X13424943Y-9090174D02*
X13434467Y-9099698D01*
X13434467Y-9099698D02*
X13443991Y-9118746D01*
X13443991Y-9118746D02*
X13443991Y-9175889D01*
X13443991Y-9175889D02*
X13434467Y-9194936D01*
X13434467Y-9194936D02*
X13424943Y-9204460D01*
X13424943Y-9204460D02*
X13405896Y-9213984D01*
X13405896Y-9213984D02*
X13367801Y-9213984D01*
X13367801Y-9213984D02*
X13348753Y-9204460D01*
X13529705Y-9194936D02*
X13539229Y-9204460D01*
X13539229Y-9204460D02*
X13529705Y-9213984D01*
X13529705Y-9213984D02*
X13520182Y-9204460D01*
X13520182Y-9204460D02*
X13529705Y-9194936D01*
X13529705Y-9194936D02*
X13529705Y-9213984D01*
X13529705Y-9090174D02*
X13539229Y-9099698D01*
X13539229Y-9099698D02*
X13529705Y-9109222D01*
X13529705Y-9109222D02*
X13520182Y-9099698D01*
X13520182Y-9099698D02*
X13529705Y-9090174D01*
X13529705Y-9090174D02*
X13529705Y-9109222D01*
D12*
X11777500Y-9482500D02*
X11897500Y-9602500D01*
X11897500Y-9482500D02*
X11777500Y-9602500D01*
D11*
X12263039Y-9633984D02*
X12148753Y-9633984D01*
X12205896Y-9633984D02*
X12205896Y-9433984D01*
X12205896Y-9433984D02*
X12186848Y-9462555D01*
X12186848Y-9462555D02*
X12167801Y-9481603D01*
X12167801Y-9481603D02*
X12148753Y-9491127D01*
X12348753Y-9614936D02*
X12358277Y-9624460D01*
X12358277Y-9624460D02*
X12348753Y-9633984D01*
X12348753Y-9633984D02*
X12339229Y-9624460D01*
X12339229Y-9624460D02*
X12348753Y-9614936D01*
X12348753Y-9614936D02*
X12348753Y-9633984D01*
X12434467Y-9453031D02*
X12443991Y-9443508D01*
X12443991Y-9443508D02*
X12463039Y-9433984D01*
X12463039Y-9433984D02*
X12510658Y-9433984D01*
X12510658Y-9433984D02*
X12529705Y-9443508D01*
X12529705Y-9443508D02*
X12539229Y-9453031D01*
X12539229Y-9453031D02*
X12548753Y-9472079D01*
X12548753Y-9472079D02*
X12548753Y-9491127D01*
X12548753Y-9491127D02*
X12539229Y-9519698D01*
X12539229Y-9519698D02*
X12424943Y-9633984D01*
X12424943Y-9633984D02*
X12548753Y-9633984D01*
X12672562Y-9433984D02*
X12691610Y-9433984D01*
X12691610Y-9433984D02*
X12710658Y-9443508D01*
X12710658Y-9443508D02*
X12720182Y-9453031D01*
X12720182Y-9453031D02*
X12729705Y-9472079D01*
X12729705Y-9472079D02*
X12739229Y-9510174D01*
X12739229Y-9510174D02*
X12739229Y-9557793D01*
X12739229Y-9557793D02*
X12729705Y-9595889D01*
X12729705Y-9595889D02*
X12720182Y-9614936D01*
X12720182Y-9614936D02*
X12710658Y-9624460D01*
X12710658Y-9624460D02*
X12691610Y-9633984D01*
X12691610Y-9633984D02*
X12672562Y-9633984D01*
X12672562Y-9633984D02*
X12653515Y-9624460D01*
X12653515Y-9624460D02*
X12643991Y-9614936D01*
X12643991Y-9614936D02*
X12634467Y-9595889D01*
X12634467Y-9595889D02*
X12624943Y-9557793D01*
X12624943Y-9557793D02*
X12624943Y-9510174D01*
X12624943Y-9510174D02*
X12634467Y-9472079D01*
X12634467Y-9472079D02*
X12643991Y-9453031D01*
X12643991Y-9453031D02*
X12653515Y-9443508D01*
X12653515Y-9443508D02*
X12672562Y-9433984D01*
X12863039Y-9433984D02*
X12882086Y-9433984D01*
X12882086Y-9433984D02*
X12901134Y-9443508D01*
X12901134Y-9443508D02*
X12910658Y-9453031D01*
X12910658Y-9453031D02*
X12920182Y-9472079D01*
X12920182Y-9472079D02*
X12929705Y-9510174D01*
X12929705Y-9510174D02*
X12929705Y-9557793D01*
X12929705Y-9557793D02*
X12920182Y-9595889D01*
X12920182Y-9595889D02*
X12910658Y-9614936D01*
X12910658Y-9614936D02*
X12901134Y-9624460D01*
X12901134Y-9624460D02*
X12882086Y-9633984D01*
X12882086Y-9633984D02*
X12863039Y-9633984D01*
X12863039Y-9633984D02*
X12843991Y-9624460D01*
X12843991Y-9624460D02*
X12834467Y-9614936D01*
X12834467Y-9614936D02*
X12824943Y-9595889D01*
X12824943Y-9595889D02*
X12815420Y-9557793D01*
X12815420Y-9557793D02*
X12815420Y-9510174D01*
X12815420Y-9510174D02*
X12824943Y-9472079D01*
X12824943Y-9472079D02*
X12834467Y-9453031D01*
X12834467Y-9453031D02*
X12843991Y-9443508D01*
X12843991Y-9443508D02*
X12863039Y-9433984D01*
X13015420Y-9633984D02*
X13015420Y-9500650D01*
X13015420Y-9519698D02*
X13024943Y-9510174D01*
X13024943Y-9510174D02*
X13043991Y-9500650D01*
X13043991Y-9500650D02*
X13072563Y-9500650D01*
X13072563Y-9500650D02*
X13091610Y-9510174D01*
X13091610Y-9510174D02*
X13101134Y-9529222D01*
X13101134Y-9529222D02*
X13101134Y-9633984D01*
X13101134Y-9529222D02*
X13110658Y-9510174D01*
X13110658Y-9510174D02*
X13129705Y-9500650D01*
X13129705Y-9500650D02*
X13158277Y-9500650D01*
X13158277Y-9500650D02*
X13177324Y-9510174D01*
X13177324Y-9510174D02*
X13186848Y-9529222D01*
X13186848Y-9529222D02*
X13186848Y-9633984D01*
X13282086Y-9633984D02*
X13282086Y-9500650D01*
X13282086Y-9519698D02*
X13291610Y-9510174D01*
X13291610Y-9510174D02*
X13310658Y-9500650D01*
X13310658Y-9500650D02*
X13339229Y-9500650D01*
X13339229Y-9500650D02*
X13358277Y-9510174D01*
X13358277Y-9510174D02*
X13367801Y-9529222D01*
X13367801Y-9529222D02*
X13367801Y-9633984D01*
X13367801Y-9529222D02*
X13377324Y-9510174D01*
X13377324Y-9510174D02*
X13396372Y-9500650D01*
X13396372Y-9500650D02*
X13424943Y-9500650D01*
X13424943Y-9500650D02*
X13443991Y-9510174D01*
X13443991Y-9510174D02*
X13453515Y-9529222D01*
X13453515Y-9529222D02*
X13453515Y-9633984D01*
X13843991Y-9424460D02*
X13672563Y-9681603D01*
X14101134Y-9433984D02*
X14120182Y-9433984D01*
X14120182Y-9433984D02*
X14139229Y-9443508D01*
X14139229Y-9443508D02*
X14148753Y-9453031D01*
X14148753Y-9453031D02*
X14158277Y-9472079D01*
X14158277Y-9472079D02*
X14167801Y-9510174D01*
X14167801Y-9510174D02*
X14167801Y-9557793D01*
X14167801Y-9557793D02*
X14158277Y-9595889D01*
X14158277Y-9595889D02*
X14148753Y-9614936D01*
X14148753Y-9614936D02*
X14139229Y-9624460D01*
X14139229Y-9624460D02*
X14120182Y-9633984D01*
X14120182Y-9633984D02*
X14101134Y-9633984D01*
X14101134Y-9633984D02*
X14082086Y-9624460D01*
X14082086Y-9624460D02*
X14072563Y-9614936D01*
X14072563Y-9614936D02*
X14063039Y-9595889D01*
X14063039Y-9595889D02*
X14053515Y-9557793D01*
X14053515Y-9557793D02*
X14053515Y-9510174D01*
X14053515Y-9510174D02*
X14063039Y-9472079D01*
X14063039Y-9472079D02*
X14072563Y-9453031D01*
X14072563Y-9453031D02*
X14082086Y-9443508D01*
X14082086Y-9443508D02*
X14101134Y-9433984D01*
X14253515Y-9614936D02*
X14263039Y-9624460D01*
X14263039Y-9624460D02*
X14253515Y-9633984D01*
X14253515Y-9633984D02*
X14243991Y-9624460D01*
X14243991Y-9624460D02*
X14253515Y-9614936D01*
X14253515Y-9614936D02*
X14253515Y-9633984D01*
X14386848Y-9433984D02*
X14405896Y-9433984D01*
X14405896Y-9433984D02*
X14424944Y-9443508D01*
X14424944Y-9443508D02*
X14434467Y-9453031D01*
X14434467Y-9453031D02*
X14443991Y-9472079D01*
X14443991Y-9472079D02*
X14453515Y-9510174D01*
X14453515Y-9510174D02*
X14453515Y-9557793D01*
X14453515Y-9557793D02*
X14443991Y-9595889D01*
X14443991Y-9595889D02*
X14434467Y-9614936D01*
X14434467Y-9614936D02*
X14424944Y-9624460D01*
X14424944Y-9624460D02*
X14405896Y-9633984D01*
X14405896Y-9633984D02*
X14386848Y-9633984D01*
X14386848Y-9633984D02*
X14367801Y-9624460D01*
X14367801Y-9624460D02*
X14358277Y-9614936D01*
X14358277Y-9614936D02*
X14348753Y-9595889D01*
X14348753Y-9595889D02*
X14339229Y-9557793D01*
X14339229Y-9557793D02*
X14339229Y-9510174D01*
X14339229Y-9510174D02*
X14348753Y-9472079D01*
X14348753Y-9472079D02*
X14358277Y-9453031D01*
X14358277Y-9453031D02*
X14367801Y-9443508D01*
X14367801Y-9443508D02*
X14386848Y-9433984D01*
X14624944Y-9500650D02*
X14624944Y-9633984D01*
X14577325Y-9424460D02*
X14529706Y-9567317D01*
X14529706Y-9567317D02*
X14653515Y-9567317D01*
X14710658Y-9433984D02*
X14843991Y-9433984D01*
X14843991Y-9433984D02*
X14758277Y-9633984D01*
X14910658Y-9453031D02*
X14920182Y-9443508D01*
X14920182Y-9443508D02*
X14939229Y-9433984D01*
X14939229Y-9433984D02*
X14986848Y-9433984D01*
X14986848Y-9433984D02*
X15005896Y-9443508D01*
X15005896Y-9443508D02*
X15015420Y-9453031D01*
X15015420Y-9453031D02*
X15024944Y-9472079D01*
X15024944Y-9472079D02*
X15024944Y-9491127D01*
X15024944Y-9491127D02*
X15015420Y-9519698D01*
X15015420Y-9519698D02*
X14901134Y-9633984D01*
X14901134Y-9633984D02*
X15024944Y-9633984D01*
X15101134Y-9433984D02*
X15101134Y-9472079D01*
X15177325Y-9433984D02*
X15177325Y-9472079D01*
X15472563Y-9710174D02*
X15463039Y-9700650D01*
X15463039Y-9700650D02*
X15443991Y-9672079D01*
X15443991Y-9672079D02*
X15434468Y-9653031D01*
X15434468Y-9653031D02*
X15424944Y-9624460D01*
X15424944Y-9624460D02*
X15415420Y-9576841D01*
X15415420Y-9576841D02*
X15415420Y-9538746D01*
X15415420Y-9538746D02*
X15424944Y-9491127D01*
X15424944Y-9491127D02*
X15434468Y-9462555D01*
X15434468Y-9462555D02*
X15443991Y-9443508D01*
X15443991Y-9443508D02*
X15463039Y-9414936D01*
X15463039Y-9414936D02*
X15472563Y-9405412D01*
X15539229Y-9453031D02*
X15548753Y-9443508D01*
X15548753Y-9443508D02*
X15567801Y-9433984D01*
X15567801Y-9433984D02*
X15615420Y-9433984D01*
X15615420Y-9433984D02*
X15634468Y-9443508D01*
X15634468Y-9443508D02*
X15643991Y-9453031D01*
X15643991Y-9453031D02*
X15653515Y-9472079D01*
X15653515Y-9472079D02*
X15653515Y-9491127D01*
X15653515Y-9491127D02*
X15643991Y-9519698D01*
X15643991Y-9519698D02*
X15529706Y-9633984D01*
X15529706Y-9633984D02*
X15653515Y-9633984D01*
X15891610Y-9633984D02*
X15891610Y-9433984D01*
X15977325Y-9633984D02*
X15977325Y-9529222D01*
X15977325Y-9529222D02*
X15967801Y-9510174D01*
X15967801Y-9510174D02*
X15948753Y-9500650D01*
X15948753Y-9500650D02*
X15920182Y-9500650D01*
X15920182Y-9500650D02*
X15901134Y-9510174D01*
X15901134Y-9510174D02*
X15891610Y-9519698D01*
X16101134Y-9633984D02*
X16082087Y-9624460D01*
X16082087Y-9624460D02*
X16072563Y-9614936D01*
X16072563Y-9614936D02*
X16063039Y-9595889D01*
X16063039Y-9595889D02*
X16063039Y-9538746D01*
X16063039Y-9538746D02*
X16072563Y-9519698D01*
X16072563Y-9519698D02*
X16082087Y-9510174D01*
X16082087Y-9510174D02*
X16101134Y-9500650D01*
X16101134Y-9500650D02*
X16129706Y-9500650D01*
X16129706Y-9500650D02*
X16148753Y-9510174D01*
X16148753Y-9510174D02*
X16158277Y-9519698D01*
X16158277Y-9519698D02*
X16167801Y-9538746D01*
X16167801Y-9538746D02*
X16167801Y-9595889D01*
X16167801Y-9595889D02*
X16158277Y-9614936D01*
X16158277Y-9614936D02*
X16148753Y-9624460D01*
X16148753Y-9624460D02*
X16129706Y-9633984D01*
X16129706Y-9633984D02*
X16101134Y-9633984D01*
X16282087Y-9633984D02*
X16263039Y-9624460D01*
X16263039Y-9624460D02*
X16253515Y-9605412D01*
X16253515Y-9605412D02*
X16253515Y-9433984D01*
X16434468Y-9624460D02*
X16415420Y-9633984D01*
X16415420Y-9633984D02*
X16377325Y-9633984D01*
X16377325Y-9633984D02*
X16358277Y-9624460D01*
X16358277Y-9624460D02*
X16348753Y-9605412D01*
X16348753Y-9605412D02*
X16348753Y-9529222D01*
X16348753Y-9529222D02*
X16358277Y-9510174D01*
X16358277Y-9510174D02*
X16377325Y-9500650D01*
X16377325Y-9500650D02*
X16415420Y-9500650D01*
X16415420Y-9500650D02*
X16434468Y-9510174D01*
X16434468Y-9510174D02*
X16443991Y-9529222D01*
X16443991Y-9529222D02*
X16443991Y-9548270D01*
X16443991Y-9548270D02*
X16348753Y-9567317D01*
X16520182Y-9624460D02*
X16539230Y-9633984D01*
X16539230Y-9633984D02*
X16577325Y-9633984D01*
X16577325Y-9633984D02*
X16596372Y-9624460D01*
X16596372Y-9624460D02*
X16605896Y-9605412D01*
X16605896Y-9605412D02*
X16605896Y-9595889D01*
X16605896Y-9595889D02*
X16596372Y-9576841D01*
X16596372Y-9576841D02*
X16577325Y-9567317D01*
X16577325Y-9567317D02*
X16548753Y-9567317D01*
X16548753Y-9567317D02*
X16529706Y-9557793D01*
X16529706Y-9557793D02*
X16520182Y-9538746D01*
X16520182Y-9538746D02*
X16520182Y-9529222D01*
X16520182Y-9529222D02*
X16529706Y-9510174D01*
X16529706Y-9510174D02*
X16548753Y-9500650D01*
X16548753Y-9500650D02*
X16577325Y-9500650D01*
X16577325Y-9500650D02*
X16596372Y-9510174D01*
X16672563Y-9710174D02*
X16682087Y-9700650D01*
X16682087Y-9700650D02*
X16701134Y-9672079D01*
X16701134Y-9672079D02*
X16710658Y-9653031D01*
X16710658Y-9653031D02*
X16720182Y-9624460D01*
X16720182Y-9624460D02*
X16729706Y-9576841D01*
X16729706Y-9576841D02*
X16729706Y-9538746D01*
X16729706Y-9538746D02*
X16720182Y-9491127D01*
X16720182Y-9491127D02*
X16710658Y-9462555D01*
X16710658Y-9462555D02*
X16701134Y-9443508D01*
X16701134Y-9443508D02*
X16682087Y-9414936D01*
X16682087Y-9414936D02*
X16672563Y-9405412D01*
X17034468Y-9710174D02*
X17024944Y-9700650D01*
X17024944Y-9700650D02*
X17005896Y-9672079D01*
X17005896Y-9672079D02*
X16996373Y-9653031D01*
X16996373Y-9653031D02*
X16986849Y-9624460D01*
X16986849Y-9624460D02*
X16977325Y-9576841D01*
X16977325Y-9576841D02*
X16977325Y-9538746D01*
X16977325Y-9538746D02*
X16986849Y-9491127D01*
X16986849Y-9491127D02*
X16996373Y-9462555D01*
X16996373Y-9462555D02*
X17005896Y-9443508D01*
X17005896Y-9443508D02*
X17024944Y-9414936D01*
X17024944Y-9414936D02*
X17034468Y-9405412D01*
X17110658Y-9500650D02*
X17110658Y-9633984D01*
X17110658Y-9519698D02*
X17120182Y-9510174D01*
X17120182Y-9510174D02*
X17139230Y-9500650D01*
X17139230Y-9500650D02*
X17167801Y-9500650D01*
X17167801Y-9500650D02*
X17186849Y-9510174D01*
X17186849Y-9510174D02*
X17196373Y-9529222D01*
X17196373Y-9529222D02*
X17196373Y-9633984D01*
X17320182Y-9633984D02*
X17301134Y-9624460D01*
X17301134Y-9624460D02*
X17291611Y-9614936D01*
X17291611Y-9614936D02*
X17282087Y-9595889D01*
X17282087Y-9595889D02*
X17282087Y-9538746D01*
X17282087Y-9538746D02*
X17291611Y-9519698D01*
X17291611Y-9519698D02*
X17301134Y-9510174D01*
X17301134Y-9510174D02*
X17320182Y-9500650D01*
X17320182Y-9500650D02*
X17348754Y-9500650D01*
X17348754Y-9500650D02*
X17367801Y-9510174D01*
X17367801Y-9510174D02*
X17377325Y-9519698D01*
X17377325Y-9519698D02*
X17386849Y-9538746D01*
X17386849Y-9538746D02*
X17386849Y-9595889D01*
X17386849Y-9595889D02*
X17377325Y-9614936D01*
X17377325Y-9614936D02*
X17367801Y-9624460D01*
X17367801Y-9624460D02*
X17348754Y-9633984D01*
X17348754Y-9633984D02*
X17320182Y-9633984D01*
X17443992Y-9500650D02*
X17520182Y-9500650D01*
X17472563Y-9433984D02*
X17472563Y-9605412D01*
X17472563Y-9605412D02*
X17482087Y-9624460D01*
X17482087Y-9624460D02*
X17501134Y-9633984D01*
X17501134Y-9633984D02*
X17520182Y-9633984D01*
X17739230Y-9500650D02*
X17739230Y-9700650D01*
X17739230Y-9510174D02*
X17758277Y-9500650D01*
X17758277Y-9500650D02*
X17796373Y-9500650D01*
X17796373Y-9500650D02*
X17815420Y-9510174D01*
X17815420Y-9510174D02*
X17824944Y-9519698D01*
X17824944Y-9519698D02*
X17834468Y-9538746D01*
X17834468Y-9538746D02*
X17834468Y-9595889D01*
X17834468Y-9595889D02*
X17824944Y-9614936D01*
X17824944Y-9614936D02*
X17815420Y-9624460D01*
X17815420Y-9624460D02*
X17796373Y-9633984D01*
X17796373Y-9633984D02*
X17758277Y-9633984D01*
X17758277Y-9633984D02*
X17739230Y-9624460D01*
X17948754Y-9633984D02*
X17929706Y-9624460D01*
X17929706Y-9624460D02*
X17920182Y-9605412D01*
X17920182Y-9605412D02*
X17920182Y-9433984D01*
X18110658Y-9633984D02*
X18110658Y-9529222D01*
X18110658Y-9529222D02*
X18101135Y-9510174D01*
X18101135Y-9510174D02*
X18082087Y-9500650D01*
X18082087Y-9500650D02*
X18043992Y-9500650D01*
X18043992Y-9500650D02*
X18024944Y-9510174D01*
X18110658Y-9624460D02*
X18091611Y-9633984D01*
X18091611Y-9633984D02*
X18043992Y-9633984D01*
X18043992Y-9633984D02*
X18024944Y-9624460D01*
X18024944Y-9624460D02*
X18015420Y-9605412D01*
X18015420Y-9605412D02*
X18015420Y-9586365D01*
X18015420Y-9586365D02*
X18024944Y-9567317D01*
X18024944Y-9567317D02*
X18043992Y-9557793D01*
X18043992Y-9557793D02*
X18091611Y-9557793D01*
X18091611Y-9557793D02*
X18110658Y-9548270D01*
X18177325Y-9500650D02*
X18253515Y-9500650D01*
X18205896Y-9433984D02*
X18205896Y-9605412D01*
X18205896Y-9605412D02*
X18215420Y-9624460D01*
X18215420Y-9624460D02*
X18234468Y-9633984D01*
X18234468Y-9633984D02*
X18253515Y-9633984D01*
X18396373Y-9624460D02*
X18377325Y-9633984D01*
X18377325Y-9633984D02*
X18339230Y-9633984D01*
X18339230Y-9633984D02*
X18320182Y-9624460D01*
X18320182Y-9624460D02*
X18310658Y-9605412D01*
X18310658Y-9605412D02*
X18310658Y-9529222D01*
X18310658Y-9529222D02*
X18320182Y-9510174D01*
X18320182Y-9510174D02*
X18339230Y-9500650D01*
X18339230Y-9500650D02*
X18377325Y-9500650D01*
X18377325Y-9500650D02*
X18396373Y-9510174D01*
X18396373Y-9510174D02*
X18405896Y-9529222D01*
X18405896Y-9529222D02*
X18405896Y-9548270D01*
X18405896Y-9548270D02*
X18310658Y-9567317D01*
X18577325Y-9633984D02*
X18577325Y-9433984D01*
X18577325Y-9624460D02*
X18558277Y-9633984D01*
X18558277Y-9633984D02*
X18520182Y-9633984D01*
X18520182Y-9633984D02*
X18501135Y-9624460D01*
X18501135Y-9624460D02*
X18491611Y-9614936D01*
X18491611Y-9614936D02*
X18482087Y-9595889D01*
X18482087Y-9595889D02*
X18482087Y-9538746D01*
X18482087Y-9538746D02*
X18491611Y-9519698D01*
X18491611Y-9519698D02*
X18501135Y-9510174D01*
X18501135Y-9510174D02*
X18520182Y-9500650D01*
X18520182Y-9500650D02*
X18558277Y-9500650D01*
X18558277Y-9500650D02*
X18577325Y-9510174D01*
X18653516Y-9710174D02*
X18663039Y-9700650D01*
X18663039Y-9700650D02*
X18682087Y-9672079D01*
X18682087Y-9672079D02*
X18691611Y-9653031D01*
X18691611Y-9653031D02*
X18701135Y-9624460D01*
X18701135Y-9624460D02*
X18710658Y-9576841D01*
X18710658Y-9576841D02*
X18710658Y-9538746D01*
X18710658Y-9538746D02*
X18701135Y-9491127D01*
X18701135Y-9491127D02*
X18691611Y-9462555D01*
X18691611Y-9462555D02*
X18682087Y-9443508D01*
X18682087Y-9443508D02*
X18663039Y-9414936D01*
X18663039Y-9414936D02*
X18653516Y-9405412D01*
M02*
