%TF.GenerationSoftware,KiCad,Pcbnew,9.0.4*%
%TF.CreationDate,2025-11-06T19:48:34-05:00*%
%TF.ProjectId,TC_shuwen,54435f73-6875-4776-956e-2e6b69636164,rev?*%
%TF.SameCoordinates,Original*%
%TF.FileFunction,Drillmap*%
%TF.FilePolarity,Positive*%
%FSLAX45Y45*%
G04 Gerber Fmt 4.5, Leading zero omitted, Abs format (unit mm)*
G04 Created by KiCad (PCBNEW 9.0.4) date 2025-11-06 19:48:34*
%MOMM*%
%LPD*%
G01*
G04 APERTURE LIST*
%ADD10C,0.050000*%
%ADD11C,0.200000*%
G04 APERTURE END LIST*
D10*
X11409680Y-7142480D02*
X11409680Y-6832600D01*
X11430000Y-6832600D02*
X15031720Y-6832600D01*
X15031720Y-6832600D02*
X15031720Y-8895080D01*
X11409680Y-8895080D02*
X11409680Y-7142480D01*
X11409680Y-6832600D02*
X11430000Y-6832600D01*
X15031720Y-8895080D02*
X11409680Y-8895080D01*
D11*
X11667957Y-9209064D02*
X11667957Y-9009064D01*
X11667957Y-9009064D02*
X11715576Y-9009064D01*
X11715576Y-9009064D02*
X11744147Y-9018588D01*
X11744147Y-9018588D02*
X11763195Y-9037635D01*
X11763195Y-9037635D02*
X11772719Y-9056683D01*
X11772719Y-9056683D02*
X11782242Y-9094778D01*
X11782242Y-9094778D02*
X11782242Y-9123350D01*
X11782242Y-9123350D02*
X11772719Y-9161445D01*
X11772719Y-9161445D02*
X11763195Y-9180492D01*
X11763195Y-9180492D02*
X11744147Y-9199540D01*
X11744147Y-9199540D02*
X11715576Y-9209064D01*
X11715576Y-9209064D02*
X11667957Y-9209064D01*
X11867957Y-9209064D02*
X11867957Y-9075730D01*
X11867957Y-9113826D02*
X11877481Y-9094778D01*
X11877481Y-9094778D02*
X11887004Y-9085254D01*
X11887004Y-9085254D02*
X11906052Y-9075730D01*
X11906052Y-9075730D02*
X11925100Y-9075730D01*
X11991766Y-9209064D02*
X11991766Y-9075730D01*
X11991766Y-9009064D02*
X11982242Y-9018588D01*
X11982242Y-9018588D02*
X11991766Y-9028111D01*
X11991766Y-9028111D02*
X12001290Y-9018588D01*
X12001290Y-9018588D02*
X11991766Y-9009064D01*
X11991766Y-9009064D02*
X11991766Y-9028111D01*
X12115576Y-9209064D02*
X12096528Y-9199540D01*
X12096528Y-9199540D02*
X12087004Y-9180492D01*
X12087004Y-9180492D02*
X12087004Y-9009064D01*
X12220338Y-9209064D02*
X12201290Y-9199540D01*
X12201290Y-9199540D02*
X12191766Y-9180492D01*
X12191766Y-9180492D02*
X12191766Y-9009064D01*
X12448909Y-9209064D02*
X12448909Y-9009064D01*
X12448909Y-9009064D02*
X12515576Y-9151921D01*
X12515576Y-9151921D02*
X12582242Y-9009064D01*
X12582242Y-9009064D02*
X12582242Y-9209064D01*
X12763195Y-9209064D02*
X12763195Y-9104302D01*
X12763195Y-9104302D02*
X12753671Y-9085254D01*
X12753671Y-9085254D02*
X12734623Y-9075730D01*
X12734623Y-9075730D02*
X12696528Y-9075730D01*
X12696528Y-9075730D02*
X12677481Y-9085254D01*
X12763195Y-9199540D02*
X12744147Y-9209064D01*
X12744147Y-9209064D02*
X12696528Y-9209064D01*
X12696528Y-9209064D02*
X12677481Y-9199540D01*
X12677481Y-9199540D02*
X12667957Y-9180492D01*
X12667957Y-9180492D02*
X12667957Y-9161445D01*
X12667957Y-9161445D02*
X12677481Y-9142397D01*
X12677481Y-9142397D02*
X12696528Y-9132873D01*
X12696528Y-9132873D02*
X12744147Y-9132873D01*
X12744147Y-9132873D02*
X12763195Y-9123350D01*
X12858433Y-9075730D02*
X12858433Y-9275730D01*
X12858433Y-9085254D02*
X12877481Y-9075730D01*
X12877481Y-9075730D02*
X12915576Y-9075730D01*
X12915576Y-9075730D02*
X12934623Y-9085254D01*
X12934623Y-9085254D02*
X12944147Y-9094778D01*
X12944147Y-9094778D02*
X12953671Y-9113826D01*
X12953671Y-9113826D02*
X12953671Y-9170969D01*
X12953671Y-9170969D02*
X12944147Y-9190016D01*
X12944147Y-9190016D02*
X12934623Y-9199540D01*
X12934623Y-9199540D02*
X12915576Y-9209064D01*
X12915576Y-9209064D02*
X12877481Y-9209064D01*
X12877481Y-9209064D02*
X12858433Y-9199540D01*
X13039385Y-9190016D02*
X13048909Y-9199540D01*
X13048909Y-9199540D02*
X13039385Y-9209064D01*
X13039385Y-9209064D02*
X13029862Y-9199540D01*
X13029862Y-9199540D02*
X13039385Y-9190016D01*
X13039385Y-9190016D02*
X13039385Y-9209064D01*
X13039385Y-9085254D02*
X13048909Y-9094778D01*
X13048909Y-9094778D02*
X13039385Y-9104302D01*
X13039385Y-9104302D02*
X13029862Y-9094778D01*
X13029862Y-9094778D02*
X13039385Y-9085254D01*
X13039385Y-9085254D02*
X13039385Y-9104302D01*
M02*
