G04 #@! TF.GenerationSoftware,KiCad,Pcbnew,9.0.4*
G04 #@! TF.CreationDate,2025-11-06T19:48:09-05:00*
G04 #@! TF.ProjectId,TC_shuwen,54435f73-6875-4776-956e-2e6b69636164,rev?*
G04 #@! TF.SameCoordinates,Original*
G04 #@! TF.FileFunction,Copper,L2,Bot*
G04 #@! TF.FilePolarity,Positive*
%FSLAX46Y46*%
G04 Gerber Fmt 4.6, Leading zero omitted, Abs format (unit mm)*
G04 Created by KiCad (PCBNEW 9.0.4) date 2025-11-06 19:48:09*
%MOMM*%
%LPD*%
G01*
G04 APERTURE LIST*
G04 #@! TA.AperFunction,ViaPad*
%ADD10C,0.600000*%
G04 #@! TD*
G04 #@! TA.AperFunction,Conductor*
%ADD11C,0.200000*%
G04 #@! TD*
G04 APERTURE END LIST*
D10*
X139813000Y-80335600D03*
X136313000Y-78835600D03*
X139813000Y-82335600D03*
X131313000Y-82335600D03*
X130313000Y-79835600D03*
X136813000Y-75835600D03*
X137813000Y-81335600D03*
D11*
X139813000Y-80335600D02*
X137813000Y-80335600D01*
X137813000Y-80335600D02*
X136313000Y-78835600D01*
G04 #@! TA.AperFunction,Conductor*
G36*
X149859739Y-68746185D02*
G01*
X149905494Y-68798989D01*
X149916700Y-68850500D01*
X149916700Y-88426300D01*
X149897015Y-88493339D01*
X149844211Y-88539094D01*
X149792700Y-88550300D01*
X114621300Y-88550300D01*
X114554261Y-88530615D01*
X114508506Y-88477811D01*
X114497300Y-88426300D01*
X114497300Y-78756753D01*
X135512500Y-78756753D01*
X135512500Y-78914446D01*
X135543261Y-79069089D01*
X135543264Y-79069101D01*
X135603602Y-79214772D01*
X135603609Y-79214785D01*
X135691210Y-79345888D01*
X135691213Y-79345892D01*
X135802707Y-79457386D01*
X135802711Y-79457389D01*
X135933814Y-79544990D01*
X135933827Y-79544997D01*
X136079498Y-79605335D01*
X136079503Y-79605337D01*
X136144147Y-79618195D01*
X136234849Y-79636238D01*
X136296760Y-79668623D01*
X136298339Y-79670174D01*
X137328139Y-80699974D01*
X137328149Y-80699985D01*
X137332479Y-80704315D01*
X137332480Y-80704316D01*
X137444284Y-80816120D01*
X137444286Y-80816121D01*
X137444290Y-80816124D01*
X137581209Y-80895173D01*
X137581216Y-80895177D01*
X137693019Y-80925134D01*
X137733942Y-80936100D01*
X137733943Y-80936100D01*
X139233234Y-80936100D01*
X139300273Y-80955785D01*
X139302125Y-80956998D01*
X139433814Y-81044990D01*
X139433827Y-81044997D01*
X139579498Y-81105335D01*
X139579503Y-81105337D01*
X139734153Y-81136099D01*
X139734156Y-81136100D01*
X139734158Y-81136100D01*
X139891844Y-81136100D01*
X139891845Y-81136099D01*
X140046497Y-81105337D01*
X140192179Y-81044994D01*
X140323289Y-80957389D01*
X140434789Y-80845889D01*
X140522394Y-80714779D01*
X140582737Y-80569097D01*
X140613500Y-80414442D01*
X140613500Y-80256758D01*
X140613500Y-80256755D01*
X140613499Y-80256753D01*
X140582738Y-80102110D01*
X140582737Y-80102103D01*
X140582735Y-80102098D01*
X140522397Y-79956427D01*
X140522390Y-79956414D01*
X140434789Y-79825311D01*
X140434786Y-79825307D01*
X140323292Y-79713813D01*
X140323288Y-79713810D01*
X140192185Y-79626209D01*
X140192172Y-79626202D01*
X140046501Y-79565864D01*
X140046489Y-79565861D01*
X139891845Y-79535100D01*
X139891842Y-79535100D01*
X139734158Y-79535100D01*
X139734155Y-79535100D01*
X139579510Y-79565861D01*
X139579498Y-79565864D01*
X139433827Y-79626202D01*
X139433814Y-79626209D01*
X139302125Y-79714202D01*
X139235447Y-79735080D01*
X139233234Y-79735100D01*
X138113097Y-79735100D01*
X138046058Y-79715415D01*
X138025416Y-79698781D01*
X137147574Y-78820939D01*
X137114089Y-78759616D01*
X137113638Y-78757449D01*
X137082738Y-78602110D01*
X137082737Y-78602103D01*
X137082735Y-78602098D01*
X137022397Y-78456427D01*
X137022390Y-78456414D01*
X136934789Y-78325311D01*
X136934786Y-78325307D01*
X136823292Y-78213813D01*
X136823288Y-78213810D01*
X136692185Y-78126209D01*
X136692172Y-78126202D01*
X136546501Y-78065864D01*
X136546489Y-78065861D01*
X136391845Y-78035100D01*
X136391842Y-78035100D01*
X136234158Y-78035100D01*
X136234155Y-78035100D01*
X136079510Y-78065861D01*
X136079498Y-78065864D01*
X135933827Y-78126202D01*
X135933814Y-78126209D01*
X135802711Y-78213810D01*
X135802707Y-78213813D01*
X135691213Y-78325307D01*
X135691210Y-78325311D01*
X135603609Y-78456414D01*
X135603602Y-78456427D01*
X135543264Y-78602098D01*
X135543261Y-78602110D01*
X135512500Y-78756753D01*
X114497300Y-78756753D01*
X114497300Y-68850500D01*
X114516985Y-68783461D01*
X114569789Y-68737706D01*
X114621300Y-68726500D01*
X149792700Y-68726500D01*
X149859739Y-68746185D01*
G37*
G04 #@! TD.AperFunction*
M02*
