%TF.GenerationSoftware,KiCad,Pcbnew,9.0.4*%
%TF.CreationDate,2025-12-18T17:15:54-05:00*%
%TF.ProjectId,TC_shuwen,54435f73-6875-4776-956e-2e6b69636164,rev?*%
%TF.SameCoordinates,Original*%
%TF.FileFunction,Drillmap*%
%TF.FilePolarity,Positive*%
%FSLAX45Y45*%
G04 Gerber Fmt 4.5, Leading zero omitted, Abs format (unit mm)*
G04 Created by KiCad (PCBNEW 9.0.4) date 2025-12-18 17:15:54*
%MOMM*%
%LPD*%
G01*
G04 APERTURE LIST*
%ADD10C,0.050000*%
%ADD11C,0.200000*%
%ADD12C,0.100000*%
G04 APERTURE END LIST*
D10*
X15000000Y-8900000D02*
X15000000Y-6900000D01*
X15000000Y-6900000D02*
X11400000Y-6900000D01*
X11400000Y-8900000D02*
X11400000Y-6900000D01*
X15000000Y-8900000D02*
X11400000Y-8900000D01*
D11*
D12*
X13016300Y-7968560D02*
X13046300Y-7998560D01*
X13046300Y-7968560D02*
X13016300Y-7998560D01*
X13116300Y-8218560D02*
X13146300Y-8248560D01*
X13146300Y-8218560D02*
X13116300Y-8248560D01*
X13616300Y-7868560D02*
X13646300Y-7898560D01*
X13646300Y-7868560D02*
X13616300Y-7898560D01*
X13666300Y-7568560D02*
X13696300Y-7598560D01*
X13696300Y-7568560D02*
X13666300Y-7598560D01*
X13766300Y-8118560D02*
X13796300Y-8148560D01*
X13796300Y-8118560D02*
X13766300Y-8148560D01*
X13966300Y-8018560D02*
X13996300Y-8048560D01*
X13996300Y-8018560D02*
X13966300Y-8048560D01*
X13966300Y-8218560D02*
X13996300Y-8248560D01*
X13996300Y-8218560D02*
X13966300Y-8248560D01*
X14297500Y-7525000D02*
G75*
G02*
X14202500Y-7525000I-47500J0D01*
G01*
X14202500Y-7525000D02*
G75*
G02*
X14297500Y-7525000I47500J0D01*
G01*
X14297500Y-7775000D02*
G75*
G02*
X14202500Y-7775000I-47500J0D01*
G01*
X14202500Y-7775000D02*
G75*
G02*
X14297500Y-7775000I47500J0D01*
G01*
X14297500Y-8025000D02*
G75*
G02*
X14202500Y-8025000I-47500J0D01*
G01*
X14202500Y-8025000D02*
G75*
G02*
X14297500Y-8025000I47500J0D01*
G01*
X14297500Y-8275000D02*
G75*
G02*
X14202500Y-8275000I-47500J0D01*
G01*
X14202500Y-8275000D02*
G75*
G02*
X14297500Y-8275000I47500J0D01*
G01*
X12375000Y-7750000D02*
X12375000Y-7850000D01*
X12325000Y-7800000D02*
X12425000Y-7800000D01*
X12375000Y-8000000D02*
X12375000Y-8100000D01*
X12325000Y-8050000D02*
X12425000Y-8050000D01*
D11*
X11658277Y-9213984D02*
X11658277Y-9013984D01*
X11658277Y-9013984D02*
X11705896Y-9013984D01*
X11705896Y-9013984D02*
X11734467Y-9023508D01*
X11734467Y-9023508D02*
X11753515Y-9042555D01*
X11753515Y-9042555D02*
X11763039Y-9061603D01*
X11763039Y-9061603D02*
X11772562Y-9099698D01*
X11772562Y-9099698D02*
X11772562Y-9128270D01*
X11772562Y-9128270D02*
X11763039Y-9166365D01*
X11763039Y-9166365D02*
X11753515Y-9185412D01*
X11753515Y-9185412D02*
X11734467Y-9204460D01*
X11734467Y-9204460D02*
X11705896Y-9213984D01*
X11705896Y-9213984D02*
X11658277Y-9213984D01*
X11858277Y-9213984D02*
X11858277Y-9080650D01*
X11858277Y-9118746D02*
X11867801Y-9099698D01*
X11867801Y-9099698D02*
X11877324Y-9090174D01*
X11877324Y-9090174D02*
X11896372Y-9080650D01*
X11896372Y-9080650D02*
X11915420Y-9080650D01*
X11982086Y-9213984D02*
X11982086Y-9080650D01*
X11982086Y-9013984D02*
X11972562Y-9023508D01*
X11972562Y-9023508D02*
X11982086Y-9033031D01*
X11982086Y-9033031D02*
X11991610Y-9023508D01*
X11991610Y-9023508D02*
X11982086Y-9013984D01*
X11982086Y-9013984D02*
X11982086Y-9033031D01*
X12105896Y-9213984D02*
X12086848Y-9204460D01*
X12086848Y-9204460D02*
X12077324Y-9185412D01*
X12077324Y-9185412D02*
X12077324Y-9013984D01*
X12210658Y-9213984D02*
X12191610Y-9204460D01*
X12191610Y-9204460D02*
X12182086Y-9185412D01*
X12182086Y-9185412D02*
X12182086Y-9013984D01*
X12439229Y-9213984D02*
X12439229Y-9013984D01*
X12439229Y-9013984D02*
X12505896Y-9156841D01*
X12505896Y-9156841D02*
X12572562Y-9013984D01*
X12572562Y-9013984D02*
X12572562Y-9213984D01*
X12753515Y-9213984D02*
X12753515Y-9109222D01*
X12753515Y-9109222D02*
X12743991Y-9090174D01*
X12743991Y-9090174D02*
X12724943Y-9080650D01*
X12724943Y-9080650D02*
X12686848Y-9080650D01*
X12686848Y-9080650D02*
X12667801Y-9090174D01*
X12753515Y-9204460D02*
X12734467Y-9213984D01*
X12734467Y-9213984D02*
X12686848Y-9213984D01*
X12686848Y-9213984D02*
X12667801Y-9204460D01*
X12667801Y-9204460D02*
X12658277Y-9185412D01*
X12658277Y-9185412D02*
X12658277Y-9166365D01*
X12658277Y-9166365D02*
X12667801Y-9147317D01*
X12667801Y-9147317D02*
X12686848Y-9137793D01*
X12686848Y-9137793D02*
X12734467Y-9137793D01*
X12734467Y-9137793D02*
X12753515Y-9128270D01*
X12848753Y-9080650D02*
X12848753Y-9280650D01*
X12848753Y-9090174D02*
X12867801Y-9080650D01*
X12867801Y-9080650D02*
X12905896Y-9080650D01*
X12905896Y-9080650D02*
X12924943Y-9090174D01*
X12924943Y-9090174D02*
X12934467Y-9099698D01*
X12934467Y-9099698D02*
X12943991Y-9118746D01*
X12943991Y-9118746D02*
X12943991Y-9175889D01*
X12943991Y-9175889D02*
X12934467Y-9194936D01*
X12934467Y-9194936D02*
X12924943Y-9204460D01*
X12924943Y-9204460D02*
X12905896Y-9213984D01*
X12905896Y-9213984D02*
X12867801Y-9213984D01*
X12867801Y-9213984D02*
X12848753Y-9204460D01*
X13029705Y-9194936D02*
X13039229Y-9204460D01*
X13039229Y-9204460D02*
X13029705Y-9213984D01*
X13029705Y-9213984D02*
X13020182Y-9204460D01*
X13020182Y-9204460D02*
X13029705Y-9194936D01*
X13029705Y-9194936D02*
X13029705Y-9213984D01*
X13029705Y-9090174D02*
X13039229Y-9099698D01*
X13039229Y-9099698D02*
X13029705Y-9109222D01*
X13029705Y-9109222D02*
X13020182Y-9099698D01*
X13020182Y-9099698D02*
X13029705Y-9090174D01*
X13029705Y-9090174D02*
X13029705Y-9109222D01*
D12*
X11367500Y-9527500D02*
X11397500Y-9557500D01*
X11397500Y-9527500D02*
X11367500Y-9557500D01*
D11*
X11696372Y-9433984D02*
X11715420Y-9433984D01*
X11715420Y-9433984D02*
X11734467Y-9443508D01*
X11734467Y-9443508D02*
X11743991Y-9453031D01*
X11743991Y-9453031D02*
X11753515Y-9472079D01*
X11753515Y-9472079D02*
X11763039Y-9510174D01*
X11763039Y-9510174D02*
X11763039Y-9557793D01*
X11763039Y-9557793D02*
X11753515Y-9595889D01*
X11753515Y-9595889D02*
X11743991Y-9614936D01*
X11743991Y-9614936D02*
X11734467Y-9624460D01*
X11734467Y-9624460D02*
X11715420Y-9633984D01*
X11715420Y-9633984D02*
X11696372Y-9633984D01*
X11696372Y-9633984D02*
X11677324Y-9624460D01*
X11677324Y-9624460D02*
X11667801Y-9614936D01*
X11667801Y-9614936D02*
X11658277Y-9595889D01*
X11658277Y-9595889D02*
X11648753Y-9557793D01*
X11648753Y-9557793D02*
X11648753Y-9510174D01*
X11648753Y-9510174D02*
X11658277Y-9472079D01*
X11658277Y-9472079D02*
X11667801Y-9453031D01*
X11667801Y-9453031D02*
X11677324Y-9443508D01*
X11677324Y-9443508D02*
X11696372Y-9433984D01*
X11848753Y-9614936D02*
X11858277Y-9624460D01*
X11858277Y-9624460D02*
X11848753Y-9633984D01*
X11848753Y-9633984D02*
X11839229Y-9624460D01*
X11839229Y-9624460D02*
X11848753Y-9614936D01*
X11848753Y-9614936D02*
X11848753Y-9633984D01*
X11924943Y-9433984D02*
X12048753Y-9433984D01*
X12048753Y-9433984D02*
X11982086Y-9510174D01*
X11982086Y-9510174D02*
X12010658Y-9510174D01*
X12010658Y-9510174D02*
X12029705Y-9519698D01*
X12029705Y-9519698D02*
X12039229Y-9529222D01*
X12039229Y-9529222D02*
X12048753Y-9548270D01*
X12048753Y-9548270D02*
X12048753Y-9595889D01*
X12048753Y-9595889D02*
X12039229Y-9614936D01*
X12039229Y-9614936D02*
X12029705Y-9624460D01*
X12029705Y-9624460D02*
X12010658Y-9633984D01*
X12010658Y-9633984D02*
X11953515Y-9633984D01*
X11953515Y-9633984D02*
X11934467Y-9624460D01*
X11934467Y-9624460D02*
X11924943Y-9614936D01*
X12172562Y-9433984D02*
X12191610Y-9433984D01*
X12191610Y-9433984D02*
X12210658Y-9443508D01*
X12210658Y-9443508D02*
X12220182Y-9453031D01*
X12220182Y-9453031D02*
X12229705Y-9472079D01*
X12229705Y-9472079D02*
X12239229Y-9510174D01*
X12239229Y-9510174D02*
X12239229Y-9557793D01*
X12239229Y-9557793D02*
X12229705Y-9595889D01*
X12229705Y-9595889D02*
X12220182Y-9614936D01*
X12220182Y-9614936D02*
X12210658Y-9624460D01*
X12210658Y-9624460D02*
X12191610Y-9633984D01*
X12191610Y-9633984D02*
X12172562Y-9633984D01*
X12172562Y-9633984D02*
X12153515Y-9624460D01*
X12153515Y-9624460D02*
X12143991Y-9614936D01*
X12143991Y-9614936D02*
X12134467Y-9595889D01*
X12134467Y-9595889D02*
X12124943Y-9557793D01*
X12124943Y-9557793D02*
X12124943Y-9510174D01*
X12124943Y-9510174D02*
X12134467Y-9472079D01*
X12134467Y-9472079D02*
X12143991Y-9453031D01*
X12143991Y-9453031D02*
X12153515Y-9443508D01*
X12153515Y-9443508D02*
X12172562Y-9433984D01*
X12363039Y-9433984D02*
X12382086Y-9433984D01*
X12382086Y-9433984D02*
X12401134Y-9443508D01*
X12401134Y-9443508D02*
X12410658Y-9453031D01*
X12410658Y-9453031D02*
X12420182Y-9472079D01*
X12420182Y-9472079D02*
X12429705Y-9510174D01*
X12429705Y-9510174D02*
X12429705Y-9557793D01*
X12429705Y-9557793D02*
X12420182Y-9595889D01*
X12420182Y-9595889D02*
X12410658Y-9614936D01*
X12410658Y-9614936D02*
X12401134Y-9624460D01*
X12401134Y-9624460D02*
X12382086Y-9633984D01*
X12382086Y-9633984D02*
X12363039Y-9633984D01*
X12363039Y-9633984D02*
X12343991Y-9624460D01*
X12343991Y-9624460D02*
X12334467Y-9614936D01*
X12334467Y-9614936D02*
X12324943Y-9595889D01*
X12324943Y-9595889D02*
X12315420Y-9557793D01*
X12315420Y-9557793D02*
X12315420Y-9510174D01*
X12315420Y-9510174D02*
X12324943Y-9472079D01*
X12324943Y-9472079D02*
X12334467Y-9453031D01*
X12334467Y-9453031D02*
X12343991Y-9443508D01*
X12343991Y-9443508D02*
X12363039Y-9433984D01*
X12515420Y-9633984D02*
X12515420Y-9500650D01*
X12515420Y-9519698D02*
X12524943Y-9510174D01*
X12524943Y-9510174D02*
X12543991Y-9500650D01*
X12543991Y-9500650D02*
X12572563Y-9500650D01*
X12572563Y-9500650D02*
X12591610Y-9510174D01*
X12591610Y-9510174D02*
X12601134Y-9529222D01*
X12601134Y-9529222D02*
X12601134Y-9633984D01*
X12601134Y-9529222D02*
X12610658Y-9510174D01*
X12610658Y-9510174D02*
X12629705Y-9500650D01*
X12629705Y-9500650D02*
X12658277Y-9500650D01*
X12658277Y-9500650D02*
X12677324Y-9510174D01*
X12677324Y-9510174D02*
X12686848Y-9529222D01*
X12686848Y-9529222D02*
X12686848Y-9633984D01*
X12782086Y-9633984D02*
X12782086Y-9500650D01*
X12782086Y-9519698D02*
X12791610Y-9510174D01*
X12791610Y-9510174D02*
X12810658Y-9500650D01*
X12810658Y-9500650D02*
X12839229Y-9500650D01*
X12839229Y-9500650D02*
X12858277Y-9510174D01*
X12858277Y-9510174D02*
X12867801Y-9529222D01*
X12867801Y-9529222D02*
X12867801Y-9633984D01*
X12867801Y-9529222D02*
X12877324Y-9510174D01*
X12877324Y-9510174D02*
X12896372Y-9500650D01*
X12896372Y-9500650D02*
X12924943Y-9500650D01*
X12924943Y-9500650D02*
X12943991Y-9510174D01*
X12943991Y-9510174D02*
X12953515Y-9529222D01*
X12953515Y-9529222D02*
X12953515Y-9633984D01*
X13343991Y-9424460D02*
X13172563Y-9681603D01*
X13601134Y-9433984D02*
X13620182Y-9433984D01*
X13620182Y-9433984D02*
X13639229Y-9443508D01*
X13639229Y-9443508D02*
X13648753Y-9453031D01*
X13648753Y-9453031D02*
X13658277Y-9472079D01*
X13658277Y-9472079D02*
X13667801Y-9510174D01*
X13667801Y-9510174D02*
X13667801Y-9557793D01*
X13667801Y-9557793D02*
X13658277Y-9595889D01*
X13658277Y-9595889D02*
X13648753Y-9614936D01*
X13648753Y-9614936D02*
X13639229Y-9624460D01*
X13639229Y-9624460D02*
X13620182Y-9633984D01*
X13620182Y-9633984D02*
X13601134Y-9633984D01*
X13601134Y-9633984D02*
X13582086Y-9624460D01*
X13582086Y-9624460D02*
X13572563Y-9614936D01*
X13572563Y-9614936D02*
X13563039Y-9595889D01*
X13563039Y-9595889D02*
X13553515Y-9557793D01*
X13553515Y-9557793D02*
X13553515Y-9510174D01*
X13553515Y-9510174D02*
X13563039Y-9472079D01*
X13563039Y-9472079D02*
X13572563Y-9453031D01*
X13572563Y-9453031D02*
X13582086Y-9443508D01*
X13582086Y-9443508D02*
X13601134Y-9433984D01*
X13753515Y-9614936D02*
X13763039Y-9624460D01*
X13763039Y-9624460D02*
X13753515Y-9633984D01*
X13753515Y-9633984D02*
X13743991Y-9624460D01*
X13743991Y-9624460D02*
X13753515Y-9614936D01*
X13753515Y-9614936D02*
X13753515Y-9633984D01*
X13886848Y-9433984D02*
X13905896Y-9433984D01*
X13905896Y-9433984D02*
X13924944Y-9443508D01*
X13924944Y-9443508D02*
X13934467Y-9453031D01*
X13934467Y-9453031D02*
X13943991Y-9472079D01*
X13943991Y-9472079D02*
X13953515Y-9510174D01*
X13953515Y-9510174D02*
X13953515Y-9557793D01*
X13953515Y-9557793D02*
X13943991Y-9595889D01*
X13943991Y-9595889D02*
X13934467Y-9614936D01*
X13934467Y-9614936D02*
X13924944Y-9624460D01*
X13924944Y-9624460D02*
X13905896Y-9633984D01*
X13905896Y-9633984D02*
X13886848Y-9633984D01*
X13886848Y-9633984D02*
X13867801Y-9624460D01*
X13867801Y-9624460D02*
X13858277Y-9614936D01*
X13858277Y-9614936D02*
X13848753Y-9595889D01*
X13848753Y-9595889D02*
X13839229Y-9557793D01*
X13839229Y-9557793D02*
X13839229Y-9510174D01*
X13839229Y-9510174D02*
X13848753Y-9472079D01*
X13848753Y-9472079D02*
X13858277Y-9453031D01*
X13858277Y-9453031D02*
X13867801Y-9443508D01*
X13867801Y-9443508D02*
X13886848Y-9433984D01*
X14143991Y-9633984D02*
X14029706Y-9633984D01*
X14086848Y-9633984D02*
X14086848Y-9433984D01*
X14086848Y-9433984D02*
X14067801Y-9462555D01*
X14067801Y-9462555D02*
X14048753Y-9481603D01*
X14048753Y-9481603D02*
X14029706Y-9491127D01*
X14334467Y-9633984D02*
X14220182Y-9633984D01*
X14277325Y-9633984D02*
X14277325Y-9433984D01*
X14277325Y-9433984D02*
X14258277Y-9462555D01*
X14258277Y-9462555D02*
X14239229Y-9481603D01*
X14239229Y-9481603D02*
X14220182Y-9491127D01*
X14448753Y-9519698D02*
X14429706Y-9510174D01*
X14429706Y-9510174D02*
X14420182Y-9500650D01*
X14420182Y-9500650D02*
X14410658Y-9481603D01*
X14410658Y-9481603D02*
X14410658Y-9472079D01*
X14410658Y-9472079D02*
X14420182Y-9453031D01*
X14420182Y-9453031D02*
X14429706Y-9443508D01*
X14429706Y-9443508D02*
X14448753Y-9433984D01*
X14448753Y-9433984D02*
X14486848Y-9433984D01*
X14486848Y-9433984D02*
X14505896Y-9443508D01*
X14505896Y-9443508D02*
X14515420Y-9453031D01*
X14515420Y-9453031D02*
X14524944Y-9472079D01*
X14524944Y-9472079D02*
X14524944Y-9481603D01*
X14524944Y-9481603D02*
X14515420Y-9500650D01*
X14515420Y-9500650D02*
X14505896Y-9510174D01*
X14505896Y-9510174D02*
X14486848Y-9519698D01*
X14486848Y-9519698D02*
X14448753Y-9519698D01*
X14448753Y-9519698D02*
X14429706Y-9529222D01*
X14429706Y-9529222D02*
X14420182Y-9538746D01*
X14420182Y-9538746D02*
X14410658Y-9557793D01*
X14410658Y-9557793D02*
X14410658Y-9595889D01*
X14410658Y-9595889D02*
X14420182Y-9614936D01*
X14420182Y-9614936D02*
X14429706Y-9624460D01*
X14429706Y-9624460D02*
X14448753Y-9633984D01*
X14448753Y-9633984D02*
X14486848Y-9633984D01*
X14486848Y-9633984D02*
X14505896Y-9624460D01*
X14505896Y-9624460D02*
X14515420Y-9614936D01*
X14515420Y-9614936D02*
X14524944Y-9595889D01*
X14524944Y-9595889D02*
X14524944Y-9557793D01*
X14524944Y-9557793D02*
X14515420Y-9538746D01*
X14515420Y-9538746D02*
X14505896Y-9529222D01*
X14505896Y-9529222D02*
X14486848Y-9519698D01*
X14601134Y-9433984D02*
X14601134Y-9472079D01*
X14677325Y-9433984D02*
X14677325Y-9472079D01*
X14972563Y-9710174D02*
X14963039Y-9700650D01*
X14963039Y-9700650D02*
X14943991Y-9672079D01*
X14943991Y-9672079D02*
X14934468Y-9653031D01*
X14934468Y-9653031D02*
X14924944Y-9624460D01*
X14924944Y-9624460D02*
X14915420Y-9576841D01*
X14915420Y-9576841D02*
X14915420Y-9538746D01*
X14915420Y-9538746D02*
X14924944Y-9491127D01*
X14924944Y-9491127D02*
X14934468Y-9462555D01*
X14934468Y-9462555D02*
X14943991Y-9443508D01*
X14943991Y-9443508D02*
X14963039Y-9414936D01*
X14963039Y-9414936D02*
X14972563Y-9405412D01*
X15029706Y-9433984D02*
X15163039Y-9433984D01*
X15163039Y-9433984D02*
X15077325Y-9633984D01*
X15391610Y-9633984D02*
X15391610Y-9433984D01*
X15477325Y-9633984D02*
X15477325Y-9529222D01*
X15477325Y-9529222D02*
X15467801Y-9510174D01*
X15467801Y-9510174D02*
X15448753Y-9500650D01*
X15448753Y-9500650D02*
X15420182Y-9500650D01*
X15420182Y-9500650D02*
X15401134Y-9510174D01*
X15401134Y-9510174D02*
X15391610Y-9519698D01*
X15601134Y-9633984D02*
X15582087Y-9624460D01*
X15582087Y-9624460D02*
X15572563Y-9614936D01*
X15572563Y-9614936D02*
X15563039Y-9595889D01*
X15563039Y-9595889D02*
X15563039Y-9538746D01*
X15563039Y-9538746D02*
X15572563Y-9519698D01*
X15572563Y-9519698D02*
X15582087Y-9510174D01*
X15582087Y-9510174D02*
X15601134Y-9500650D01*
X15601134Y-9500650D02*
X15629706Y-9500650D01*
X15629706Y-9500650D02*
X15648753Y-9510174D01*
X15648753Y-9510174D02*
X15658277Y-9519698D01*
X15658277Y-9519698D02*
X15667801Y-9538746D01*
X15667801Y-9538746D02*
X15667801Y-9595889D01*
X15667801Y-9595889D02*
X15658277Y-9614936D01*
X15658277Y-9614936D02*
X15648753Y-9624460D01*
X15648753Y-9624460D02*
X15629706Y-9633984D01*
X15629706Y-9633984D02*
X15601134Y-9633984D01*
X15782087Y-9633984D02*
X15763039Y-9624460D01*
X15763039Y-9624460D02*
X15753515Y-9605412D01*
X15753515Y-9605412D02*
X15753515Y-9433984D01*
X15934468Y-9624460D02*
X15915420Y-9633984D01*
X15915420Y-9633984D02*
X15877325Y-9633984D01*
X15877325Y-9633984D02*
X15858277Y-9624460D01*
X15858277Y-9624460D02*
X15848753Y-9605412D01*
X15848753Y-9605412D02*
X15848753Y-9529222D01*
X15848753Y-9529222D02*
X15858277Y-9510174D01*
X15858277Y-9510174D02*
X15877325Y-9500650D01*
X15877325Y-9500650D02*
X15915420Y-9500650D01*
X15915420Y-9500650D02*
X15934468Y-9510174D01*
X15934468Y-9510174D02*
X15943991Y-9529222D01*
X15943991Y-9529222D02*
X15943991Y-9548270D01*
X15943991Y-9548270D02*
X15848753Y-9567317D01*
X16020182Y-9624460D02*
X16039230Y-9633984D01*
X16039230Y-9633984D02*
X16077325Y-9633984D01*
X16077325Y-9633984D02*
X16096372Y-9624460D01*
X16096372Y-9624460D02*
X16105896Y-9605412D01*
X16105896Y-9605412D02*
X16105896Y-9595889D01*
X16105896Y-9595889D02*
X16096372Y-9576841D01*
X16096372Y-9576841D02*
X16077325Y-9567317D01*
X16077325Y-9567317D02*
X16048753Y-9567317D01*
X16048753Y-9567317D02*
X16029706Y-9557793D01*
X16029706Y-9557793D02*
X16020182Y-9538746D01*
X16020182Y-9538746D02*
X16020182Y-9529222D01*
X16020182Y-9529222D02*
X16029706Y-9510174D01*
X16029706Y-9510174D02*
X16048753Y-9500650D01*
X16048753Y-9500650D02*
X16077325Y-9500650D01*
X16077325Y-9500650D02*
X16096372Y-9510174D01*
X16172563Y-9710174D02*
X16182087Y-9700650D01*
X16182087Y-9700650D02*
X16201134Y-9672079D01*
X16201134Y-9672079D02*
X16210658Y-9653031D01*
X16210658Y-9653031D02*
X16220182Y-9624460D01*
X16220182Y-9624460D02*
X16229706Y-9576841D01*
X16229706Y-9576841D02*
X16229706Y-9538746D01*
X16229706Y-9538746D02*
X16220182Y-9491127D01*
X16220182Y-9491127D02*
X16210658Y-9462555D01*
X16210658Y-9462555D02*
X16201134Y-9443508D01*
X16201134Y-9443508D02*
X16182087Y-9414936D01*
X16182087Y-9414936D02*
X16172563Y-9405412D01*
D12*
X11397500Y-9806500D02*
G75*
G02*
X11302500Y-9806500I-47500J0D01*
G01*
X11302500Y-9806500D02*
G75*
G02*
X11397500Y-9806500I47500J0D01*
G01*
D11*
X11696372Y-9697984D02*
X11715420Y-9697984D01*
X11715420Y-9697984D02*
X11734467Y-9707508D01*
X11734467Y-9707508D02*
X11743991Y-9717031D01*
X11743991Y-9717031D02*
X11753515Y-9736079D01*
X11753515Y-9736079D02*
X11763039Y-9774174D01*
X11763039Y-9774174D02*
X11763039Y-9821793D01*
X11763039Y-9821793D02*
X11753515Y-9859889D01*
X11753515Y-9859889D02*
X11743991Y-9878936D01*
X11743991Y-9878936D02*
X11734467Y-9888460D01*
X11734467Y-9888460D02*
X11715420Y-9897984D01*
X11715420Y-9897984D02*
X11696372Y-9897984D01*
X11696372Y-9897984D02*
X11677324Y-9888460D01*
X11677324Y-9888460D02*
X11667801Y-9878936D01*
X11667801Y-9878936D02*
X11658277Y-9859889D01*
X11658277Y-9859889D02*
X11648753Y-9821793D01*
X11648753Y-9821793D02*
X11648753Y-9774174D01*
X11648753Y-9774174D02*
X11658277Y-9736079D01*
X11658277Y-9736079D02*
X11667801Y-9717031D01*
X11667801Y-9717031D02*
X11677324Y-9707508D01*
X11677324Y-9707508D02*
X11696372Y-9697984D01*
X11848753Y-9878936D02*
X11858277Y-9888460D01*
X11858277Y-9888460D02*
X11848753Y-9897984D01*
X11848753Y-9897984D02*
X11839229Y-9888460D01*
X11839229Y-9888460D02*
X11848753Y-9878936D01*
X11848753Y-9878936D02*
X11848753Y-9897984D01*
X11953515Y-9897984D02*
X11991610Y-9897984D01*
X11991610Y-9897984D02*
X12010658Y-9888460D01*
X12010658Y-9888460D02*
X12020182Y-9878936D01*
X12020182Y-9878936D02*
X12039229Y-9850365D01*
X12039229Y-9850365D02*
X12048753Y-9812270D01*
X12048753Y-9812270D02*
X12048753Y-9736079D01*
X12048753Y-9736079D02*
X12039229Y-9717031D01*
X12039229Y-9717031D02*
X12029705Y-9707508D01*
X12029705Y-9707508D02*
X12010658Y-9697984D01*
X12010658Y-9697984D02*
X11972562Y-9697984D01*
X11972562Y-9697984D02*
X11953515Y-9707508D01*
X11953515Y-9707508D02*
X11943991Y-9717031D01*
X11943991Y-9717031D02*
X11934467Y-9736079D01*
X11934467Y-9736079D02*
X11934467Y-9783698D01*
X11934467Y-9783698D02*
X11943991Y-9802746D01*
X11943991Y-9802746D02*
X11953515Y-9812270D01*
X11953515Y-9812270D02*
X11972562Y-9821793D01*
X11972562Y-9821793D02*
X12010658Y-9821793D01*
X12010658Y-9821793D02*
X12029705Y-9812270D01*
X12029705Y-9812270D02*
X12039229Y-9802746D01*
X12039229Y-9802746D02*
X12048753Y-9783698D01*
X12229705Y-9697984D02*
X12134467Y-9697984D01*
X12134467Y-9697984D02*
X12124943Y-9793222D01*
X12124943Y-9793222D02*
X12134467Y-9783698D01*
X12134467Y-9783698D02*
X12153515Y-9774174D01*
X12153515Y-9774174D02*
X12201134Y-9774174D01*
X12201134Y-9774174D02*
X12220182Y-9783698D01*
X12220182Y-9783698D02*
X12229705Y-9793222D01*
X12229705Y-9793222D02*
X12239229Y-9812270D01*
X12239229Y-9812270D02*
X12239229Y-9859889D01*
X12239229Y-9859889D02*
X12229705Y-9878936D01*
X12229705Y-9878936D02*
X12220182Y-9888460D01*
X12220182Y-9888460D02*
X12201134Y-9897984D01*
X12201134Y-9897984D02*
X12153515Y-9897984D01*
X12153515Y-9897984D02*
X12134467Y-9888460D01*
X12134467Y-9888460D02*
X12124943Y-9878936D01*
X12363039Y-9697984D02*
X12382086Y-9697984D01*
X12382086Y-9697984D02*
X12401134Y-9707508D01*
X12401134Y-9707508D02*
X12410658Y-9717031D01*
X12410658Y-9717031D02*
X12420182Y-9736079D01*
X12420182Y-9736079D02*
X12429705Y-9774174D01*
X12429705Y-9774174D02*
X12429705Y-9821793D01*
X12429705Y-9821793D02*
X12420182Y-9859889D01*
X12420182Y-9859889D02*
X12410658Y-9878936D01*
X12410658Y-9878936D02*
X12401134Y-9888460D01*
X12401134Y-9888460D02*
X12382086Y-9897984D01*
X12382086Y-9897984D02*
X12363039Y-9897984D01*
X12363039Y-9897984D02*
X12343991Y-9888460D01*
X12343991Y-9888460D02*
X12334467Y-9878936D01*
X12334467Y-9878936D02*
X12324943Y-9859889D01*
X12324943Y-9859889D02*
X12315420Y-9821793D01*
X12315420Y-9821793D02*
X12315420Y-9774174D01*
X12315420Y-9774174D02*
X12324943Y-9736079D01*
X12324943Y-9736079D02*
X12334467Y-9717031D01*
X12334467Y-9717031D02*
X12343991Y-9707508D01*
X12343991Y-9707508D02*
X12363039Y-9697984D01*
X12515420Y-9897984D02*
X12515420Y-9764650D01*
X12515420Y-9783698D02*
X12524943Y-9774174D01*
X12524943Y-9774174D02*
X12543991Y-9764650D01*
X12543991Y-9764650D02*
X12572563Y-9764650D01*
X12572563Y-9764650D02*
X12591610Y-9774174D01*
X12591610Y-9774174D02*
X12601134Y-9793222D01*
X12601134Y-9793222D02*
X12601134Y-9897984D01*
X12601134Y-9793222D02*
X12610658Y-9774174D01*
X12610658Y-9774174D02*
X12629705Y-9764650D01*
X12629705Y-9764650D02*
X12658277Y-9764650D01*
X12658277Y-9764650D02*
X12677324Y-9774174D01*
X12677324Y-9774174D02*
X12686848Y-9793222D01*
X12686848Y-9793222D02*
X12686848Y-9897984D01*
X12782086Y-9897984D02*
X12782086Y-9764650D01*
X12782086Y-9783698D02*
X12791610Y-9774174D01*
X12791610Y-9774174D02*
X12810658Y-9764650D01*
X12810658Y-9764650D02*
X12839229Y-9764650D01*
X12839229Y-9764650D02*
X12858277Y-9774174D01*
X12858277Y-9774174D02*
X12867801Y-9793222D01*
X12867801Y-9793222D02*
X12867801Y-9897984D01*
X12867801Y-9793222D02*
X12877324Y-9774174D01*
X12877324Y-9774174D02*
X12896372Y-9764650D01*
X12896372Y-9764650D02*
X12924943Y-9764650D01*
X12924943Y-9764650D02*
X12943991Y-9774174D01*
X12943991Y-9774174D02*
X12953515Y-9793222D01*
X12953515Y-9793222D02*
X12953515Y-9897984D01*
X13343991Y-9688460D02*
X13172563Y-9945603D01*
X13601134Y-9697984D02*
X13620182Y-9697984D01*
X13620182Y-9697984D02*
X13639229Y-9707508D01*
X13639229Y-9707508D02*
X13648753Y-9717031D01*
X13648753Y-9717031D02*
X13658277Y-9736079D01*
X13658277Y-9736079D02*
X13667801Y-9774174D01*
X13667801Y-9774174D02*
X13667801Y-9821793D01*
X13667801Y-9821793D02*
X13658277Y-9859889D01*
X13658277Y-9859889D02*
X13648753Y-9878936D01*
X13648753Y-9878936D02*
X13639229Y-9888460D01*
X13639229Y-9888460D02*
X13620182Y-9897984D01*
X13620182Y-9897984D02*
X13601134Y-9897984D01*
X13601134Y-9897984D02*
X13582086Y-9888460D01*
X13582086Y-9888460D02*
X13572563Y-9878936D01*
X13572563Y-9878936D02*
X13563039Y-9859889D01*
X13563039Y-9859889D02*
X13553515Y-9821793D01*
X13553515Y-9821793D02*
X13553515Y-9774174D01*
X13553515Y-9774174D02*
X13563039Y-9736079D01*
X13563039Y-9736079D02*
X13572563Y-9717031D01*
X13572563Y-9717031D02*
X13582086Y-9707508D01*
X13582086Y-9707508D02*
X13601134Y-9697984D01*
X13753515Y-9878936D02*
X13763039Y-9888460D01*
X13763039Y-9888460D02*
X13753515Y-9897984D01*
X13753515Y-9897984D02*
X13743991Y-9888460D01*
X13743991Y-9888460D02*
X13753515Y-9878936D01*
X13753515Y-9878936D02*
X13753515Y-9897984D01*
X13886848Y-9697984D02*
X13905896Y-9697984D01*
X13905896Y-9697984D02*
X13924944Y-9707508D01*
X13924944Y-9707508D02*
X13934467Y-9717031D01*
X13934467Y-9717031D02*
X13943991Y-9736079D01*
X13943991Y-9736079D02*
X13953515Y-9774174D01*
X13953515Y-9774174D02*
X13953515Y-9821793D01*
X13953515Y-9821793D02*
X13943991Y-9859889D01*
X13943991Y-9859889D02*
X13934467Y-9878936D01*
X13934467Y-9878936D02*
X13924944Y-9888460D01*
X13924944Y-9888460D02*
X13905896Y-9897984D01*
X13905896Y-9897984D02*
X13886848Y-9897984D01*
X13886848Y-9897984D02*
X13867801Y-9888460D01*
X13867801Y-9888460D02*
X13858277Y-9878936D01*
X13858277Y-9878936D02*
X13848753Y-9859889D01*
X13848753Y-9859889D02*
X13839229Y-9821793D01*
X13839229Y-9821793D02*
X13839229Y-9774174D01*
X13839229Y-9774174D02*
X13848753Y-9736079D01*
X13848753Y-9736079D02*
X13858277Y-9717031D01*
X13858277Y-9717031D02*
X13867801Y-9707508D01*
X13867801Y-9707508D02*
X13886848Y-9697984D01*
X14020182Y-9697984D02*
X14143991Y-9697984D01*
X14143991Y-9697984D02*
X14077325Y-9774174D01*
X14077325Y-9774174D02*
X14105896Y-9774174D01*
X14105896Y-9774174D02*
X14124944Y-9783698D01*
X14124944Y-9783698D02*
X14134467Y-9793222D01*
X14134467Y-9793222D02*
X14143991Y-9812270D01*
X14143991Y-9812270D02*
X14143991Y-9859889D01*
X14143991Y-9859889D02*
X14134467Y-9878936D01*
X14134467Y-9878936D02*
X14124944Y-9888460D01*
X14124944Y-9888460D02*
X14105896Y-9897984D01*
X14105896Y-9897984D02*
X14048753Y-9897984D01*
X14048753Y-9897984D02*
X14029706Y-9888460D01*
X14029706Y-9888460D02*
X14020182Y-9878936D01*
X14210658Y-9697984D02*
X14343991Y-9697984D01*
X14343991Y-9697984D02*
X14258277Y-9897984D01*
X14505896Y-9764650D02*
X14505896Y-9897984D01*
X14458277Y-9688460D02*
X14410658Y-9831317D01*
X14410658Y-9831317D02*
X14534467Y-9831317D01*
X14601134Y-9697984D02*
X14601134Y-9736079D01*
X14677325Y-9697984D02*
X14677325Y-9736079D01*
X14972563Y-9974174D02*
X14963039Y-9964650D01*
X14963039Y-9964650D02*
X14943991Y-9936079D01*
X14943991Y-9936079D02*
X14934468Y-9917031D01*
X14934468Y-9917031D02*
X14924944Y-9888460D01*
X14924944Y-9888460D02*
X14915420Y-9840841D01*
X14915420Y-9840841D02*
X14915420Y-9802746D01*
X14915420Y-9802746D02*
X14924944Y-9755127D01*
X14924944Y-9755127D02*
X14934468Y-9726555D01*
X14934468Y-9726555D02*
X14943991Y-9707508D01*
X14943991Y-9707508D02*
X14963039Y-9678936D01*
X14963039Y-9678936D02*
X14972563Y-9669412D01*
X15134468Y-9764650D02*
X15134468Y-9897984D01*
X15086848Y-9688460D02*
X15039229Y-9831317D01*
X15039229Y-9831317D02*
X15163039Y-9831317D01*
X15391610Y-9897984D02*
X15391610Y-9697984D01*
X15477325Y-9897984D02*
X15477325Y-9793222D01*
X15477325Y-9793222D02*
X15467801Y-9774174D01*
X15467801Y-9774174D02*
X15448753Y-9764650D01*
X15448753Y-9764650D02*
X15420182Y-9764650D01*
X15420182Y-9764650D02*
X15401134Y-9774174D01*
X15401134Y-9774174D02*
X15391610Y-9783698D01*
X15601134Y-9897984D02*
X15582087Y-9888460D01*
X15582087Y-9888460D02*
X15572563Y-9878936D01*
X15572563Y-9878936D02*
X15563039Y-9859889D01*
X15563039Y-9859889D02*
X15563039Y-9802746D01*
X15563039Y-9802746D02*
X15572563Y-9783698D01*
X15572563Y-9783698D02*
X15582087Y-9774174D01*
X15582087Y-9774174D02*
X15601134Y-9764650D01*
X15601134Y-9764650D02*
X15629706Y-9764650D01*
X15629706Y-9764650D02*
X15648753Y-9774174D01*
X15648753Y-9774174D02*
X15658277Y-9783698D01*
X15658277Y-9783698D02*
X15667801Y-9802746D01*
X15667801Y-9802746D02*
X15667801Y-9859889D01*
X15667801Y-9859889D02*
X15658277Y-9878936D01*
X15658277Y-9878936D02*
X15648753Y-9888460D01*
X15648753Y-9888460D02*
X15629706Y-9897984D01*
X15629706Y-9897984D02*
X15601134Y-9897984D01*
X15782087Y-9897984D02*
X15763039Y-9888460D01*
X15763039Y-9888460D02*
X15753515Y-9869412D01*
X15753515Y-9869412D02*
X15753515Y-9697984D01*
X15934468Y-9888460D02*
X15915420Y-9897984D01*
X15915420Y-9897984D02*
X15877325Y-9897984D01*
X15877325Y-9897984D02*
X15858277Y-9888460D01*
X15858277Y-9888460D02*
X15848753Y-9869412D01*
X15848753Y-9869412D02*
X15848753Y-9793222D01*
X15848753Y-9793222D02*
X15858277Y-9774174D01*
X15858277Y-9774174D02*
X15877325Y-9764650D01*
X15877325Y-9764650D02*
X15915420Y-9764650D01*
X15915420Y-9764650D02*
X15934468Y-9774174D01*
X15934468Y-9774174D02*
X15943991Y-9793222D01*
X15943991Y-9793222D02*
X15943991Y-9812270D01*
X15943991Y-9812270D02*
X15848753Y-9831317D01*
X16020182Y-9888460D02*
X16039230Y-9897984D01*
X16039230Y-9897984D02*
X16077325Y-9897984D01*
X16077325Y-9897984D02*
X16096372Y-9888460D01*
X16096372Y-9888460D02*
X16105896Y-9869412D01*
X16105896Y-9869412D02*
X16105896Y-9859889D01*
X16105896Y-9859889D02*
X16096372Y-9840841D01*
X16096372Y-9840841D02*
X16077325Y-9831317D01*
X16077325Y-9831317D02*
X16048753Y-9831317D01*
X16048753Y-9831317D02*
X16029706Y-9821793D01*
X16029706Y-9821793D02*
X16020182Y-9802746D01*
X16020182Y-9802746D02*
X16020182Y-9793222D01*
X16020182Y-9793222D02*
X16029706Y-9774174D01*
X16029706Y-9774174D02*
X16048753Y-9764650D01*
X16048753Y-9764650D02*
X16077325Y-9764650D01*
X16077325Y-9764650D02*
X16096372Y-9774174D01*
X16172563Y-9974174D02*
X16182087Y-9964650D01*
X16182087Y-9964650D02*
X16201134Y-9936079D01*
X16201134Y-9936079D02*
X16210658Y-9917031D01*
X16210658Y-9917031D02*
X16220182Y-9888460D01*
X16220182Y-9888460D02*
X16229706Y-9840841D01*
X16229706Y-9840841D02*
X16229706Y-9802746D01*
X16229706Y-9802746D02*
X16220182Y-9755127D01*
X16220182Y-9755127D02*
X16210658Y-9726555D01*
X16210658Y-9726555D02*
X16201134Y-9707508D01*
X16201134Y-9707508D02*
X16182087Y-9678936D01*
X16182087Y-9678936D02*
X16172563Y-9669412D01*
D12*
X11347500Y-10020500D02*
X11347500Y-10120500D01*
X11297500Y-10070500D02*
X11397500Y-10070500D01*
D11*
X11763039Y-10161984D02*
X11648753Y-10161984D01*
X11705896Y-10161984D02*
X11705896Y-9961984D01*
X11705896Y-9961984D02*
X11686848Y-9990555D01*
X11686848Y-9990555D02*
X11667801Y-10009603D01*
X11667801Y-10009603D02*
X11648753Y-10019127D01*
X11848753Y-10142936D02*
X11858277Y-10152460D01*
X11858277Y-10152460D02*
X11848753Y-10161984D01*
X11848753Y-10161984D02*
X11839229Y-10152460D01*
X11839229Y-10152460D02*
X11848753Y-10142936D01*
X11848753Y-10142936D02*
X11848753Y-10161984D01*
X11982086Y-9961984D02*
X12001134Y-9961984D01*
X12001134Y-9961984D02*
X12020182Y-9971508D01*
X12020182Y-9971508D02*
X12029705Y-9981031D01*
X12029705Y-9981031D02*
X12039229Y-10000079D01*
X12039229Y-10000079D02*
X12048753Y-10038174D01*
X12048753Y-10038174D02*
X12048753Y-10085793D01*
X12048753Y-10085793D02*
X12039229Y-10123889D01*
X12039229Y-10123889D02*
X12029705Y-10142936D01*
X12029705Y-10142936D02*
X12020182Y-10152460D01*
X12020182Y-10152460D02*
X12001134Y-10161984D01*
X12001134Y-10161984D02*
X11982086Y-10161984D01*
X11982086Y-10161984D02*
X11963039Y-10152460D01*
X11963039Y-10152460D02*
X11953515Y-10142936D01*
X11953515Y-10142936D02*
X11943991Y-10123889D01*
X11943991Y-10123889D02*
X11934467Y-10085793D01*
X11934467Y-10085793D02*
X11934467Y-10038174D01*
X11934467Y-10038174D02*
X11943991Y-10000079D01*
X11943991Y-10000079D02*
X11953515Y-9981031D01*
X11953515Y-9981031D02*
X11963039Y-9971508D01*
X11963039Y-9971508D02*
X11982086Y-9961984D01*
X12172562Y-9961984D02*
X12191610Y-9961984D01*
X12191610Y-9961984D02*
X12210658Y-9971508D01*
X12210658Y-9971508D02*
X12220182Y-9981031D01*
X12220182Y-9981031D02*
X12229705Y-10000079D01*
X12229705Y-10000079D02*
X12239229Y-10038174D01*
X12239229Y-10038174D02*
X12239229Y-10085793D01*
X12239229Y-10085793D02*
X12229705Y-10123889D01*
X12229705Y-10123889D02*
X12220182Y-10142936D01*
X12220182Y-10142936D02*
X12210658Y-10152460D01*
X12210658Y-10152460D02*
X12191610Y-10161984D01*
X12191610Y-10161984D02*
X12172562Y-10161984D01*
X12172562Y-10161984D02*
X12153515Y-10152460D01*
X12153515Y-10152460D02*
X12143991Y-10142936D01*
X12143991Y-10142936D02*
X12134467Y-10123889D01*
X12134467Y-10123889D02*
X12124943Y-10085793D01*
X12124943Y-10085793D02*
X12124943Y-10038174D01*
X12124943Y-10038174D02*
X12134467Y-10000079D01*
X12134467Y-10000079D02*
X12143991Y-9981031D01*
X12143991Y-9981031D02*
X12153515Y-9971508D01*
X12153515Y-9971508D02*
X12172562Y-9961984D01*
X12363039Y-9961984D02*
X12382086Y-9961984D01*
X12382086Y-9961984D02*
X12401134Y-9971508D01*
X12401134Y-9971508D02*
X12410658Y-9981031D01*
X12410658Y-9981031D02*
X12420182Y-10000079D01*
X12420182Y-10000079D02*
X12429705Y-10038174D01*
X12429705Y-10038174D02*
X12429705Y-10085793D01*
X12429705Y-10085793D02*
X12420182Y-10123889D01*
X12420182Y-10123889D02*
X12410658Y-10142936D01*
X12410658Y-10142936D02*
X12401134Y-10152460D01*
X12401134Y-10152460D02*
X12382086Y-10161984D01*
X12382086Y-10161984D02*
X12363039Y-10161984D01*
X12363039Y-10161984D02*
X12343991Y-10152460D01*
X12343991Y-10152460D02*
X12334467Y-10142936D01*
X12334467Y-10142936D02*
X12324943Y-10123889D01*
X12324943Y-10123889D02*
X12315420Y-10085793D01*
X12315420Y-10085793D02*
X12315420Y-10038174D01*
X12315420Y-10038174D02*
X12324943Y-10000079D01*
X12324943Y-10000079D02*
X12334467Y-9981031D01*
X12334467Y-9981031D02*
X12343991Y-9971508D01*
X12343991Y-9971508D02*
X12363039Y-9961984D01*
X12515420Y-10161984D02*
X12515420Y-10028650D01*
X12515420Y-10047698D02*
X12524943Y-10038174D01*
X12524943Y-10038174D02*
X12543991Y-10028650D01*
X12543991Y-10028650D02*
X12572563Y-10028650D01*
X12572563Y-10028650D02*
X12591610Y-10038174D01*
X12591610Y-10038174D02*
X12601134Y-10057222D01*
X12601134Y-10057222D02*
X12601134Y-10161984D01*
X12601134Y-10057222D02*
X12610658Y-10038174D01*
X12610658Y-10038174D02*
X12629705Y-10028650D01*
X12629705Y-10028650D02*
X12658277Y-10028650D01*
X12658277Y-10028650D02*
X12677324Y-10038174D01*
X12677324Y-10038174D02*
X12686848Y-10057222D01*
X12686848Y-10057222D02*
X12686848Y-10161984D01*
X12782086Y-10161984D02*
X12782086Y-10028650D01*
X12782086Y-10047698D02*
X12791610Y-10038174D01*
X12791610Y-10038174D02*
X12810658Y-10028650D01*
X12810658Y-10028650D02*
X12839229Y-10028650D01*
X12839229Y-10028650D02*
X12858277Y-10038174D01*
X12858277Y-10038174D02*
X12867801Y-10057222D01*
X12867801Y-10057222D02*
X12867801Y-10161984D01*
X12867801Y-10057222D02*
X12877324Y-10038174D01*
X12877324Y-10038174D02*
X12896372Y-10028650D01*
X12896372Y-10028650D02*
X12924943Y-10028650D01*
X12924943Y-10028650D02*
X12943991Y-10038174D01*
X12943991Y-10038174D02*
X12953515Y-10057222D01*
X12953515Y-10057222D02*
X12953515Y-10161984D01*
X13343991Y-9952460D02*
X13172563Y-10209603D01*
X13601134Y-9961984D02*
X13620182Y-9961984D01*
X13620182Y-9961984D02*
X13639229Y-9971508D01*
X13639229Y-9971508D02*
X13648753Y-9981031D01*
X13648753Y-9981031D02*
X13658277Y-10000079D01*
X13658277Y-10000079D02*
X13667801Y-10038174D01*
X13667801Y-10038174D02*
X13667801Y-10085793D01*
X13667801Y-10085793D02*
X13658277Y-10123889D01*
X13658277Y-10123889D02*
X13648753Y-10142936D01*
X13648753Y-10142936D02*
X13639229Y-10152460D01*
X13639229Y-10152460D02*
X13620182Y-10161984D01*
X13620182Y-10161984D02*
X13601134Y-10161984D01*
X13601134Y-10161984D02*
X13582086Y-10152460D01*
X13582086Y-10152460D02*
X13572563Y-10142936D01*
X13572563Y-10142936D02*
X13563039Y-10123889D01*
X13563039Y-10123889D02*
X13553515Y-10085793D01*
X13553515Y-10085793D02*
X13553515Y-10038174D01*
X13553515Y-10038174D02*
X13563039Y-10000079D01*
X13563039Y-10000079D02*
X13572563Y-9981031D01*
X13572563Y-9981031D02*
X13582086Y-9971508D01*
X13582086Y-9971508D02*
X13601134Y-9961984D01*
X13753515Y-10142936D02*
X13763039Y-10152460D01*
X13763039Y-10152460D02*
X13753515Y-10161984D01*
X13753515Y-10161984D02*
X13743991Y-10152460D01*
X13743991Y-10152460D02*
X13753515Y-10142936D01*
X13753515Y-10142936D02*
X13753515Y-10161984D01*
X13886848Y-9961984D02*
X13905896Y-9961984D01*
X13905896Y-9961984D02*
X13924944Y-9971508D01*
X13924944Y-9971508D02*
X13934467Y-9981031D01*
X13934467Y-9981031D02*
X13943991Y-10000079D01*
X13943991Y-10000079D02*
X13953515Y-10038174D01*
X13953515Y-10038174D02*
X13953515Y-10085793D01*
X13953515Y-10085793D02*
X13943991Y-10123889D01*
X13943991Y-10123889D02*
X13934467Y-10142936D01*
X13934467Y-10142936D02*
X13924944Y-10152460D01*
X13924944Y-10152460D02*
X13905896Y-10161984D01*
X13905896Y-10161984D02*
X13886848Y-10161984D01*
X13886848Y-10161984D02*
X13867801Y-10152460D01*
X13867801Y-10152460D02*
X13858277Y-10142936D01*
X13858277Y-10142936D02*
X13848753Y-10123889D01*
X13848753Y-10123889D02*
X13839229Y-10085793D01*
X13839229Y-10085793D02*
X13839229Y-10038174D01*
X13839229Y-10038174D02*
X13848753Y-10000079D01*
X13848753Y-10000079D02*
X13858277Y-9981031D01*
X13858277Y-9981031D02*
X13867801Y-9971508D01*
X13867801Y-9971508D02*
X13886848Y-9961984D01*
X14020182Y-9961984D02*
X14143991Y-9961984D01*
X14143991Y-9961984D02*
X14077325Y-10038174D01*
X14077325Y-10038174D02*
X14105896Y-10038174D01*
X14105896Y-10038174D02*
X14124944Y-10047698D01*
X14124944Y-10047698D02*
X14134467Y-10057222D01*
X14134467Y-10057222D02*
X14143991Y-10076270D01*
X14143991Y-10076270D02*
X14143991Y-10123889D01*
X14143991Y-10123889D02*
X14134467Y-10142936D01*
X14134467Y-10142936D02*
X14124944Y-10152460D01*
X14124944Y-10152460D02*
X14105896Y-10161984D01*
X14105896Y-10161984D02*
X14048753Y-10161984D01*
X14048753Y-10161984D02*
X14029706Y-10152460D01*
X14029706Y-10152460D02*
X14020182Y-10142936D01*
X14239229Y-10161984D02*
X14277325Y-10161984D01*
X14277325Y-10161984D02*
X14296372Y-10152460D01*
X14296372Y-10152460D02*
X14305896Y-10142936D01*
X14305896Y-10142936D02*
X14324944Y-10114365D01*
X14324944Y-10114365D02*
X14334467Y-10076270D01*
X14334467Y-10076270D02*
X14334467Y-10000079D01*
X14334467Y-10000079D02*
X14324944Y-9981031D01*
X14324944Y-9981031D02*
X14315420Y-9971508D01*
X14315420Y-9971508D02*
X14296372Y-9961984D01*
X14296372Y-9961984D02*
X14258277Y-9961984D01*
X14258277Y-9961984D02*
X14239229Y-9971508D01*
X14239229Y-9971508D02*
X14229706Y-9981031D01*
X14229706Y-9981031D02*
X14220182Y-10000079D01*
X14220182Y-10000079D02*
X14220182Y-10047698D01*
X14220182Y-10047698D02*
X14229706Y-10066746D01*
X14229706Y-10066746D02*
X14239229Y-10076270D01*
X14239229Y-10076270D02*
X14258277Y-10085793D01*
X14258277Y-10085793D02*
X14296372Y-10085793D01*
X14296372Y-10085793D02*
X14315420Y-10076270D01*
X14315420Y-10076270D02*
X14324944Y-10066746D01*
X14324944Y-10066746D02*
X14334467Y-10047698D01*
X14505896Y-10028650D02*
X14505896Y-10161984D01*
X14458277Y-9952460D02*
X14410658Y-10095317D01*
X14410658Y-10095317D02*
X14534467Y-10095317D01*
X14601134Y-9961984D02*
X14601134Y-10000079D01*
X14677325Y-9961984D02*
X14677325Y-10000079D01*
X14972563Y-10238174D02*
X14963039Y-10228650D01*
X14963039Y-10228650D02*
X14943991Y-10200079D01*
X14943991Y-10200079D02*
X14934468Y-10181031D01*
X14934468Y-10181031D02*
X14924944Y-10152460D01*
X14924944Y-10152460D02*
X14915420Y-10104841D01*
X14915420Y-10104841D02*
X14915420Y-10066746D01*
X14915420Y-10066746D02*
X14924944Y-10019127D01*
X14924944Y-10019127D02*
X14934468Y-9990555D01*
X14934468Y-9990555D02*
X14943991Y-9971508D01*
X14943991Y-9971508D02*
X14963039Y-9942936D01*
X14963039Y-9942936D02*
X14972563Y-9933412D01*
X15039229Y-9981031D02*
X15048753Y-9971508D01*
X15048753Y-9971508D02*
X15067801Y-9961984D01*
X15067801Y-9961984D02*
X15115420Y-9961984D01*
X15115420Y-9961984D02*
X15134468Y-9971508D01*
X15134468Y-9971508D02*
X15143991Y-9981031D01*
X15143991Y-9981031D02*
X15153515Y-10000079D01*
X15153515Y-10000079D02*
X15153515Y-10019127D01*
X15153515Y-10019127D02*
X15143991Y-10047698D01*
X15143991Y-10047698D02*
X15029706Y-10161984D01*
X15029706Y-10161984D02*
X15153515Y-10161984D01*
X15391610Y-10161984D02*
X15391610Y-9961984D01*
X15477325Y-10161984D02*
X15477325Y-10057222D01*
X15477325Y-10057222D02*
X15467801Y-10038174D01*
X15467801Y-10038174D02*
X15448753Y-10028650D01*
X15448753Y-10028650D02*
X15420182Y-10028650D01*
X15420182Y-10028650D02*
X15401134Y-10038174D01*
X15401134Y-10038174D02*
X15391610Y-10047698D01*
X15601134Y-10161984D02*
X15582087Y-10152460D01*
X15582087Y-10152460D02*
X15572563Y-10142936D01*
X15572563Y-10142936D02*
X15563039Y-10123889D01*
X15563039Y-10123889D02*
X15563039Y-10066746D01*
X15563039Y-10066746D02*
X15572563Y-10047698D01*
X15572563Y-10047698D02*
X15582087Y-10038174D01*
X15582087Y-10038174D02*
X15601134Y-10028650D01*
X15601134Y-10028650D02*
X15629706Y-10028650D01*
X15629706Y-10028650D02*
X15648753Y-10038174D01*
X15648753Y-10038174D02*
X15658277Y-10047698D01*
X15658277Y-10047698D02*
X15667801Y-10066746D01*
X15667801Y-10066746D02*
X15667801Y-10123889D01*
X15667801Y-10123889D02*
X15658277Y-10142936D01*
X15658277Y-10142936D02*
X15648753Y-10152460D01*
X15648753Y-10152460D02*
X15629706Y-10161984D01*
X15629706Y-10161984D02*
X15601134Y-10161984D01*
X15782087Y-10161984D02*
X15763039Y-10152460D01*
X15763039Y-10152460D02*
X15753515Y-10133412D01*
X15753515Y-10133412D02*
X15753515Y-9961984D01*
X15934468Y-10152460D02*
X15915420Y-10161984D01*
X15915420Y-10161984D02*
X15877325Y-10161984D01*
X15877325Y-10161984D02*
X15858277Y-10152460D01*
X15858277Y-10152460D02*
X15848753Y-10133412D01*
X15848753Y-10133412D02*
X15848753Y-10057222D01*
X15848753Y-10057222D02*
X15858277Y-10038174D01*
X15858277Y-10038174D02*
X15877325Y-10028650D01*
X15877325Y-10028650D02*
X15915420Y-10028650D01*
X15915420Y-10028650D02*
X15934468Y-10038174D01*
X15934468Y-10038174D02*
X15943991Y-10057222D01*
X15943991Y-10057222D02*
X15943991Y-10076270D01*
X15943991Y-10076270D02*
X15848753Y-10095317D01*
X16020182Y-10152460D02*
X16039230Y-10161984D01*
X16039230Y-10161984D02*
X16077325Y-10161984D01*
X16077325Y-10161984D02*
X16096372Y-10152460D01*
X16096372Y-10152460D02*
X16105896Y-10133412D01*
X16105896Y-10133412D02*
X16105896Y-10123889D01*
X16105896Y-10123889D02*
X16096372Y-10104841D01*
X16096372Y-10104841D02*
X16077325Y-10095317D01*
X16077325Y-10095317D02*
X16048753Y-10095317D01*
X16048753Y-10095317D02*
X16029706Y-10085793D01*
X16029706Y-10085793D02*
X16020182Y-10066746D01*
X16020182Y-10066746D02*
X16020182Y-10057222D01*
X16020182Y-10057222D02*
X16029706Y-10038174D01*
X16029706Y-10038174D02*
X16048753Y-10028650D01*
X16048753Y-10028650D02*
X16077325Y-10028650D01*
X16077325Y-10028650D02*
X16096372Y-10038174D01*
X16172563Y-10238174D02*
X16182087Y-10228650D01*
X16182087Y-10228650D02*
X16201134Y-10200079D01*
X16201134Y-10200079D02*
X16210658Y-10181031D01*
X16210658Y-10181031D02*
X16220182Y-10152460D01*
X16220182Y-10152460D02*
X16229706Y-10104841D01*
X16229706Y-10104841D02*
X16229706Y-10066746D01*
X16229706Y-10066746D02*
X16220182Y-10019127D01*
X16220182Y-10019127D02*
X16210658Y-9990555D01*
X16210658Y-9990555D02*
X16201134Y-9971508D01*
X16201134Y-9971508D02*
X16182087Y-9942936D01*
X16182087Y-9942936D02*
X16172563Y-9933412D01*
M02*
