G04 #@! TF.GenerationSoftware,KiCad,Pcbnew,9.0.4*
G04 #@! TF.CreationDate,2025-12-21T16:37:14-05:00*
G04 #@! TF.ProjectId,TC_shuwen,54435f73-6875-4776-956e-2e6b69636164,rev?*
G04 #@! TF.SameCoordinates,Original*
G04 #@! TF.FileFunction,Legend,Bot*
G04 #@! TF.FilePolarity,Positive*
%FSLAX46Y46*%
G04 Gerber Fmt 4.6, Leading zero omitted, Abs format (unit mm)*
G04 Created by KiCad (PCBNEW 9.0.4) date 2025-12-21 16:37:14*
%MOMM*%
%LPD*%
G01*
G04 APERTURE LIST*
G04 Aperture macros list*
%AMRoundRect*
0 Rectangle with rounded corners*
0 $1 Rounding radius*
0 $2 $3 $4 $5 $6 $7 $8 $9 X,Y pos of 4 corners*
0 Add a 4 corners polygon primitive as box body*
4,1,4,$2,$3,$4,$5,$6,$7,$8,$9,$2,$3,0*
0 Add four circle primitives for the rounded corners*
1,1,$1+$1,$2,$3*
1,1,$1+$1,$4,$5*
1,1,$1+$1,$6,$7*
1,1,$1+$1,$8,$9*
0 Add four rect primitives between the rounded corners*
20,1,$1+$1,$2,$3,$4,$5,0*
20,1,$1+$1,$4,$5,$6,$7,0*
20,1,$1+$1,$6,$7,$8,$9,0*
20,1,$1+$1,$8,$9,$2,$3,0*%
G04 Aperture macros list end*
%ADD10C,0.200000*%
%ADD11C,0.160000*%
%ADD12C,0.140000*%
%ADD13C,0.215000*%
%ADD14C,0.000000*%
%ADD15C,1.200000*%
%ADD16RoundRect,0.250000X0.725000X-0.600000X0.725000X0.600000X-0.725000X0.600000X-0.725000X-0.600000X0*%
%ADD17O,1.950000X1.700000*%
%ADD18RoundRect,0.250000X-0.750000X0.600000X-0.750000X-0.600000X0.750000X-0.600000X0.750000X0.600000X0*%
%ADD19O,2.000000X1.700000*%
G04 APERTURE END LIST*
D10*
X130177945Y-85819600D02*
X130035088Y-85867219D01*
X130035088Y-85867219D02*
X129796993Y-85867219D01*
X129796993Y-85867219D02*
X129701755Y-85819600D01*
X129701755Y-85819600D02*
X129654136Y-85771980D01*
X129654136Y-85771980D02*
X129606517Y-85676742D01*
X129606517Y-85676742D02*
X129606517Y-85581504D01*
X129606517Y-85581504D02*
X129654136Y-85486266D01*
X129654136Y-85486266D02*
X129701755Y-85438647D01*
X129701755Y-85438647D02*
X129796993Y-85391028D01*
X129796993Y-85391028D02*
X129987469Y-85343409D01*
X129987469Y-85343409D02*
X130082707Y-85295790D01*
X130082707Y-85295790D02*
X130130326Y-85248171D01*
X130130326Y-85248171D02*
X130177945Y-85152933D01*
X130177945Y-85152933D02*
X130177945Y-85057695D01*
X130177945Y-85057695D02*
X130130326Y-84962457D01*
X130130326Y-84962457D02*
X130082707Y-84914838D01*
X130082707Y-84914838D02*
X129987469Y-84867219D01*
X129987469Y-84867219D02*
X129749374Y-84867219D01*
X129749374Y-84867219D02*
X129606517Y-84914838D01*
X129177945Y-85867219D02*
X129177945Y-84867219D01*
X128749374Y-85867219D02*
X128749374Y-85343409D01*
X128749374Y-85343409D02*
X128796993Y-85248171D01*
X128796993Y-85248171D02*
X128892231Y-85200552D01*
X128892231Y-85200552D02*
X129035088Y-85200552D01*
X129035088Y-85200552D02*
X129130326Y-85248171D01*
X129130326Y-85248171D02*
X129177945Y-85295790D01*
X127844612Y-85200552D02*
X127844612Y-85867219D01*
X128273183Y-85200552D02*
X128273183Y-85724361D01*
X128273183Y-85724361D02*
X128225564Y-85819600D01*
X128225564Y-85819600D02*
X128130326Y-85867219D01*
X128130326Y-85867219D02*
X127987469Y-85867219D01*
X127987469Y-85867219D02*
X127892231Y-85819600D01*
X127892231Y-85819600D02*
X127844612Y-85771980D01*
X127463659Y-85200552D02*
X127273183Y-85867219D01*
X127273183Y-85867219D02*
X127082707Y-85391028D01*
X127082707Y-85391028D02*
X126892231Y-85867219D01*
X126892231Y-85867219D02*
X126701755Y-85200552D01*
X125939850Y-85819600D02*
X126035088Y-85867219D01*
X126035088Y-85867219D02*
X126225564Y-85867219D01*
X126225564Y-85867219D02*
X126320802Y-85819600D01*
X126320802Y-85819600D02*
X126368421Y-85724361D01*
X126368421Y-85724361D02*
X126368421Y-85343409D01*
X126368421Y-85343409D02*
X126320802Y-85248171D01*
X126320802Y-85248171D02*
X126225564Y-85200552D01*
X126225564Y-85200552D02*
X126035088Y-85200552D01*
X126035088Y-85200552D02*
X125939850Y-85248171D01*
X125939850Y-85248171D02*
X125892231Y-85343409D01*
X125892231Y-85343409D02*
X125892231Y-85438647D01*
X125892231Y-85438647D02*
X126368421Y-85533885D01*
X125463659Y-85200552D02*
X125463659Y-85867219D01*
X125463659Y-85295790D02*
X125416040Y-85248171D01*
X125416040Y-85248171D02*
X125320802Y-85200552D01*
X125320802Y-85200552D02*
X125177945Y-85200552D01*
X125177945Y-85200552D02*
X125082707Y-85248171D01*
X125082707Y-85248171D02*
X125035088Y-85343409D01*
X125035088Y-85343409D02*
X125035088Y-85867219D01*
X123892230Y-84867219D02*
X123225564Y-84867219D01*
X123225564Y-84867219D02*
X123892230Y-85867219D01*
X123892230Y-85867219D02*
X123225564Y-85867219D01*
X122844611Y-85867219D02*
X122844611Y-84867219D01*
X122416040Y-85867219D02*
X122416040Y-85343409D01*
X122416040Y-85343409D02*
X122463659Y-85248171D01*
X122463659Y-85248171D02*
X122558897Y-85200552D01*
X122558897Y-85200552D02*
X122701754Y-85200552D01*
X122701754Y-85200552D02*
X122796992Y-85248171D01*
X122796992Y-85248171D02*
X122844611Y-85295790D01*
X121558897Y-85819600D02*
X121654135Y-85867219D01*
X121654135Y-85867219D02*
X121844611Y-85867219D01*
X121844611Y-85867219D02*
X121939849Y-85819600D01*
X121939849Y-85819600D02*
X121987468Y-85724361D01*
X121987468Y-85724361D02*
X121987468Y-85343409D01*
X121987468Y-85343409D02*
X121939849Y-85248171D01*
X121939849Y-85248171D02*
X121844611Y-85200552D01*
X121844611Y-85200552D02*
X121654135Y-85200552D01*
X121654135Y-85200552D02*
X121558897Y-85248171D01*
X121558897Y-85248171D02*
X121511278Y-85343409D01*
X121511278Y-85343409D02*
X121511278Y-85438647D01*
X121511278Y-85438647D02*
X121987468Y-85533885D01*
X121082706Y-85200552D02*
X121082706Y-85867219D01*
X121082706Y-85295790D02*
X121035087Y-85248171D01*
X121035087Y-85248171D02*
X120939849Y-85200552D01*
X120939849Y-85200552D02*
X120796992Y-85200552D01*
X120796992Y-85200552D02*
X120701754Y-85248171D01*
X120701754Y-85248171D02*
X120654135Y-85343409D01*
X120654135Y-85343409D02*
X120654135Y-85867219D01*
X119749373Y-85200552D02*
X119749373Y-86010076D01*
X119749373Y-86010076D02*
X119796992Y-86105314D01*
X119796992Y-86105314D02*
X119844611Y-86152933D01*
X119844611Y-86152933D02*
X119939849Y-86200552D01*
X119939849Y-86200552D02*
X120082706Y-86200552D01*
X120082706Y-86200552D02*
X120177944Y-86152933D01*
X119749373Y-85819600D02*
X119844611Y-85867219D01*
X119844611Y-85867219D02*
X120035087Y-85867219D01*
X120035087Y-85867219D02*
X120130325Y-85819600D01*
X120130325Y-85819600D02*
X120177944Y-85771980D01*
X120177944Y-85771980D02*
X120225563Y-85676742D01*
X120225563Y-85676742D02*
X120225563Y-85391028D01*
X120225563Y-85391028D02*
X120177944Y-85295790D01*
X120177944Y-85295790D02*
X120130325Y-85248171D01*
X120130325Y-85248171D02*
X120035087Y-85200552D01*
X120035087Y-85200552D02*
X119844611Y-85200552D01*
X119844611Y-85200552D02*
X119749373Y-85248171D01*
X145630326Y-86843409D02*
X145296993Y-86843409D01*
X145154136Y-87367219D02*
X145630326Y-87367219D01*
X145630326Y-87367219D02*
X145630326Y-86367219D01*
X145630326Y-86367219D02*
X145154136Y-86367219D01*
X144725564Y-87367219D02*
X144725564Y-86700552D01*
X144725564Y-86795790D02*
X144677945Y-86748171D01*
X144677945Y-86748171D02*
X144582707Y-86700552D01*
X144582707Y-86700552D02*
X144439850Y-86700552D01*
X144439850Y-86700552D02*
X144344612Y-86748171D01*
X144344612Y-86748171D02*
X144296993Y-86843409D01*
X144296993Y-86843409D02*
X144296993Y-87367219D01*
X144296993Y-86843409D02*
X144249374Y-86748171D01*
X144249374Y-86748171D02*
X144154136Y-86700552D01*
X144154136Y-86700552D02*
X144011279Y-86700552D01*
X144011279Y-86700552D02*
X143916040Y-86748171D01*
X143916040Y-86748171D02*
X143868421Y-86843409D01*
X143868421Y-86843409D02*
X143868421Y-87367219D01*
X143392231Y-87367219D02*
X143392231Y-86700552D01*
X143392231Y-86795790D02*
X143344612Y-86748171D01*
X143344612Y-86748171D02*
X143249374Y-86700552D01*
X143249374Y-86700552D02*
X143106517Y-86700552D01*
X143106517Y-86700552D02*
X143011279Y-86748171D01*
X143011279Y-86748171D02*
X142963660Y-86843409D01*
X142963660Y-86843409D02*
X142963660Y-87367219D01*
X142963660Y-86843409D02*
X142916041Y-86748171D01*
X142916041Y-86748171D02*
X142820803Y-86700552D01*
X142820803Y-86700552D02*
X142677946Y-86700552D01*
X142677946Y-86700552D02*
X142582707Y-86748171D01*
X142582707Y-86748171D02*
X142535088Y-86843409D01*
X142535088Y-86843409D02*
X142535088Y-87367219D01*
X141630327Y-87367219D02*
X141630327Y-86843409D01*
X141630327Y-86843409D02*
X141677946Y-86748171D01*
X141677946Y-86748171D02*
X141773184Y-86700552D01*
X141773184Y-86700552D02*
X141963660Y-86700552D01*
X141963660Y-86700552D02*
X142058898Y-86748171D01*
X141630327Y-87319600D02*
X141725565Y-87367219D01*
X141725565Y-87367219D02*
X141963660Y-87367219D01*
X141963660Y-87367219D02*
X142058898Y-87319600D01*
X142058898Y-87319600D02*
X142106517Y-87224361D01*
X142106517Y-87224361D02*
X142106517Y-87129123D01*
X142106517Y-87129123D02*
X142058898Y-87033885D01*
X142058898Y-87033885D02*
X141963660Y-86986266D01*
X141963660Y-86986266D02*
X141725565Y-86986266D01*
X141725565Y-86986266D02*
X141630327Y-86938647D01*
X140201755Y-86367219D02*
X140011279Y-86367219D01*
X140011279Y-86367219D02*
X139916041Y-86414838D01*
X139916041Y-86414838D02*
X139820803Y-86510076D01*
X139820803Y-86510076D02*
X139773184Y-86700552D01*
X139773184Y-86700552D02*
X139773184Y-87033885D01*
X139773184Y-87033885D02*
X139820803Y-87224361D01*
X139820803Y-87224361D02*
X139916041Y-87319600D01*
X139916041Y-87319600D02*
X140011279Y-87367219D01*
X140011279Y-87367219D02*
X140201755Y-87367219D01*
X140201755Y-87367219D02*
X140296993Y-87319600D01*
X140296993Y-87319600D02*
X140392231Y-87224361D01*
X140392231Y-87224361D02*
X140439850Y-87033885D01*
X140439850Y-87033885D02*
X140439850Y-86700552D01*
X140439850Y-86700552D02*
X140392231Y-86510076D01*
X140392231Y-86510076D02*
X140296993Y-86414838D01*
X140296993Y-86414838D02*
X140201755Y-86367219D01*
X138916041Y-86700552D02*
X138916041Y-87367219D01*
X139344612Y-86700552D02*
X139344612Y-87224361D01*
X139344612Y-87224361D02*
X139296993Y-87319600D01*
X139296993Y-87319600D02*
X139201755Y-87367219D01*
X139201755Y-87367219D02*
X139058898Y-87367219D01*
X139058898Y-87367219D02*
X138963660Y-87319600D01*
X138963660Y-87319600D02*
X138916041Y-87271980D01*
X138535088Y-86700552D02*
X138296993Y-87367219D01*
X138058898Y-86700552D02*
X138296993Y-87367219D01*
X138296993Y-87367219D02*
X138392231Y-87605314D01*
X138392231Y-87605314D02*
X138439850Y-87652933D01*
X138439850Y-87652933D02*
X138535088Y-87700552D01*
X137249374Y-87367219D02*
X137249374Y-86843409D01*
X137249374Y-86843409D02*
X137296993Y-86748171D01*
X137296993Y-86748171D02*
X137392231Y-86700552D01*
X137392231Y-86700552D02*
X137582707Y-86700552D01*
X137582707Y-86700552D02*
X137677945Y-86748171D01*
X137249374Y-87319600D02*
X137344612Y-87367219D01*
X137344612Y-87367219D02*
X137582707Y-87367219D01*
X137582707Y-87367219D02*
X137677945Y-87319600D01*
X137677945Y-87319600D02*
X137725564Y-87224361D01*
X137725564Y-87224361D02*
X137725564Y-87129123D01*
X137725564Y-87129123D02*
X137677945Y-87033885D01*
X137677945Y-87033885D02*
X137582707Y-86986266D01*
X137582707Y-86986266D02*
X137344612Y-86986266D01*
X137344612Y-86986266D02*
X137249374Y-86938647D01*
X136773183Y-86700552D02*
X136773183Y-87367219D01*
X136773183Y-86795790D02*
X136725564Y-86748171D01*
X136725564Y-86748171D02*
X136630326Y-86700552D01*
X136630326Y-86700552D02*
X136487469Y-86700552D01*
X136487469Y-86700552D02*
X136392231Y-86748171D01*
X136392231Y-86748171D02*
X136344612Y-86843409D01*
X136344612Y-86843409D02*
X136344612Y-87367219D01*
X135439850Y-86700552D02*
X135439850Y-87510076D01*
X135439850Y-87510076D02*
X135487469Y-87605314D01*
X135487469Y-87605314D02*
X135535088Y-87652933D01*
X135535088Y-87652933D02*
X135630326Y-87700552D01*
X135630326Y-87700552D02*
X135773183Y-87700552D01*
X135773183Y-87700552D02*
X135868421Y-87652933D01*
X135439850Y-87319600D02*
X135535088Y-87367219D01*
X135535088Y-87367219D02*
X135725564Y-87367219D01*
X135725564Y-87367219D02*
X135820802Y-87319600D01*
X135820802Y-87319600D02*
X135868421Y-87271980D01*
X135868421Y-87271980D02*
X135916040Y-87176742D01*
X135916040Y-87176742D02*
X135916040Y-86891028D01*
X135916040Y-86891028D02*
X135868421Y-86795790D01*
X135868421Y-86795790D02*
X135820802Y-86748171D01*
X135820802Y-86748171D02*
X135725564Y-86700552D01*
X135725564Y-86700552D02*
X135535088Y-86700552D01*
X135535088Y-86700552D02*
X135439850Y-86748171D01*
D11*
X139285213Y-82131870D02*
X139361403Y-82093775D01*
X139361403Y-82093775D02*
X139475689Y-82093775D01*
X139475689Y-82093775D02*
X139589975Y-82131870D01*
X139589975Y-82131870D02*
X139666165Y-82208060D01*
X139666165Y-82208060D02*
X139704260Y-82284251D01*
X139704260Y-82284251D02*
X139742356Y-82436632D01*
X139742356Y-82436632D02*
X139742356Y-82550918D01*
X139742356Y-82550918D02*
X139704260Y-82703299D01*
X139704260Y-82703299D02*
X139666165Y-82779489D01*
X139666165Y-82779489D02*
X139589975Y-82855680D01*
X139589975Y-82855680D02*
X139475689Y-82893775D01*
X139475689Y-82893775D02*
X139399498Y-82893775D01*
X139399498Y-82893775D02*
X139285213Y-82855680D01*
X139285213Y-82855680D02*
X139247117Y-82817584D01*
X139247117Y-82817584D02*
X139247117Y-82550918D01*
X139247117Y-82550918D02*
X139399498Y-82550918D01*
X138904260Y-82893775D02*
X138904260Y-82093775D01*
X138904260Y-82093775D02*
X138447117Y-82893775D01*
X138447117Y-82893775D02*
X138447117Y-82093775D01*
X138066165Y-82893775D02*
X138066165Y-82093775D01*
X138066165Y-82093775D02*
X137875689Y-82093775D01*
X137875689Y-82093775D02*
X137761403Y-82131870D01*
X137761403Y-82131870D02*
X137685213Y-82208060D01*
X137685213Y-82208060D02*
X137647118Y-82284251D01*
X137647118Y-82284251D02*
X137609022Y-82436632D01*
X137609022Y-82436632D02*
X137609022Y-82550918D01*
X137609022Y-82550918D02*
X137647118Y-82703299D01*
X137647118Y-82703299D02*
X137685213Y-82779489D01*
X137685213Y-82779489D02*
X137761403Y-82855680D01*
X137761403Y-82855680D02*
X137875689Y-82893775D01*
X137875689Y-82893775D02*
X138066165Y-82893775D01*
X139823308Y-77093775D02*
X140204260Y-77093775D01*
X140204260Y-77093775D02*
X140242356Y-77474727D01*
X140242356Y-77474727D02*
X140204260Y-77436632D01*
X140204260Y-77436632D02*
X140128070Y-77398537D01*
X140128070Y-77398537D02*
X139937594Y-77398537D01*
X139937594Y-77398537D02*
X139861403Y-77436632D01*
X139861403Y-77436632D02*
X139823308Y-77474727D01*
X139823308Y-77474727D02*
X139785213Y-77550918D01*
X139785213Y-77550918D02*
X139785213Y-77741394D01*
X139785213Y-77741394D02*
X139823308Y-77817584D01*
X139823308Y-77817584D02*
X139861403Y-77855680D01*
X139861403Y-77855680D02*
X139937594Y-77893775D01*
X139937594Y-77893775D02*
X140128070Y-77893775D01*
X140128070Y-77893775D02*
X140204260Y-77855680D01*
X140204260Y-77855680D02*
X140242356Y-77817584D01*
X139518546Y-77360441D02*
X139328070Y-77893775D01*
X139328070Y-77893775D02*
X139137593Y-77360441D01*
X139023308Y-77969965D02*
X138413784Y-77969965D01*
X138223307Y-77893775D02*
X138223307Y-77360441D01*
X138223307Y-77512822D02*
X138185212Y-77436632D01*
X138185212Y-77436632D02*
X138147117Y-77398537D01*
X138147117Y-77398537D02*
X138070926Y-77360441D01*
X138070926Y-77360441D02*
X137994736Y-77360441D01*
X137423307Y-77855680D02*
X137499498Y-77893775D01*
X137499498Y-77893775D02*
X137651879Y-77893775D01*
X137651879Y-77893775D02*
X137728069Y-77855680D01*
X137728069Y-77855680D02*
X137766165Y-77779489D01*
X137766165Y-77779489D02*
X137766165Y-77474727D01*
X137766165Y-77474727D02*
X137728069Y-77398537D01*
X137728069Y-77398537D02*
X137651879Y-77360441D01*
X137651879Y-77360441D02*
X137499498Y-77360441D01*
X137499498Y-77360441D02*
X137423307Y-77398537D01*
X137423307Y-77398537D02*
X137385212Y-77474727D01*
X137385212Y-77474727D02*
X137385212Y-77550918D01*
X137385212Y-77550918D02*
X137766165Y-77627108D01*
X137156641Y-77360441D02*
X136851879Y-77360441D01*
X137042355Y-77893775D02*
X137042355Y-77208060D01*
X137042355Y-77208060D02*
X137004260Y-77131870D01*
X137004260Y-77131870D02*
X136928070Y-77093775D01*
X136928070Y-77093775D02*
X136851879Y-77093775D01*
X139823308Y-75093775D02*
X140204260Y-75093775D01*
X140204260Y-75093775D02*
X140242356Y-75474727D01*
X140242356Y-75474727D02*
X140204260Y-75436632D01*
X140204260Y-75436632D02*
X140128070Y-75398537D01*
X140128070Y-75398537D02*
X139937594Y-75398537D01*
X139937594Y-75398537D02*
X139861403Y-75436632D01*
X139861403Y-75436632D02*
X139823308Y-75474727D01*
X139823308Y-75474727D02*
X139785213Y-75550918D01*
X139785213Y-75550918D02*
X139785213Y-75741394D01*
X139785213Y-75741394D02*
X139823308Y-75817584D01*
X139823308Y-75817584D02*
X139861403Y-75855680D01*
X139861403Y-75855680D02*
X139937594Y-75893775D01*
X139937594Y-75893775D02*
X140128070Y-75893775D01*
X140128070Y-75893775D02*
X140204260Y-75855680D01*
X140204260Y-75855680D02*
X140242356Y-75817584D01*
X139518546Y-75360441D02*
X139328070Y-75893775D01*
X139328070Y-75893775D02*
X139137593Y-75360441D01*
X139023308Y-75969965D02*
X138413784Y-75969965D01*
X138223307Y-75893775D02*
X138223307Y-75093775D01*
X138223307Y-75398537D02*
X138147117Y-75360441D01*
X138147117Y-75360441D02*
X137994736Y-75360441D01*
X137994736Y-75360441D02*
X137918545Y-75398537D01*
X137918545Y-75398537D02*
X137880450Y-75436632D01*
X137880450Y-75436632D02*
X137842355Y-75512822D01*
X137842355Y-75512822D02*
X137842355Y-75741394D01*
X137842355Y-75741394D02*
X137880450Y-75817584D01*
X137880450Y-75817584D02*
X137918545Y-75855680D01*
X137918545Y-75855680D02*
X137994736Y-75893775D01*
X137994736Y-75893775D02*
X138147117Y-75893775D01*
X138147117Y-75893775D02*
X138223307Y-75855680D01*
X137156640Y-75360441D02*
X137156640Y-75893775D01*
X137499497Y-75360441D02*
X137499497Y-75779489D01*
X137499497Y-75779489D02*
X137461402Y-75855680D01*
X137461402Y-75855680D02*
X137385212Y-75893775D01*
X137385212Y-75893775D02*
X137270926Y-75893775D01*
X137270926Y-75893775D02*
X137194735Y-75855680D01*
X137194735Y-75855680D02*
X137156640Y-75817584D01*
X136432830Y-75855680D02*
X136509021Y-75893775D01*
X136509021Y-75893775D02*
X136661402Y-75893775D01*
X136661402Y-75893775D02*
X136737592Y-75855680D01*
X136737592Y-75855680D02*
X136775687Y-75817584D01*
X136775687Y-75817584D02*
X136813783Y-75741394D01*
X136813783Y-75741394D02*
X136813783Y-75512822D01*
X136813783Y-75512822D02*
X136775687Y-75436632D01*
X136775687Y-75436632D02*
X136737592Y-75398537D01*
X136737592Y-75398537D02*
X136661402Y-75360441D01*
X136661402Y-75360441D02*
X136509021Y-75360441D01*
X136509021Y-75360441D02*
X136432830Y-75398537D01*
X136089973Y-75893775D02*
X136089973Y-75093775D01*
X136013783Y-75589013D02*
X135785211Y-75893775D01*
X135785211Y-75360441D02*
X136089973Y-75665203D01*
X140318546Y-79593775D02*
X139861403Y-79593775D01*
X140089975Y-80393775D02*
X140089975Y-79593775D01*
X139137593Y-80317584D02*
X139175689Y-80355680D01*
X139175689Y-80355680D02*
X139289974Y-80393775D01*
X139289974Y-80393775D02*
X139366165Y-80393775D01*
X139366165Y-80393775D02*
X139480451Y-80355680D01*
X139480451Y-80355680D02*
X139556641Y-80279489D01*
X139556641Y-80279489D02*
X139594736Y-80203299D01*
X139594736Y-80203299D02*
X139632832Y-80050918D01*
X139632832Y-80050918D02*
X139632832Y-79936632D01*
X139632832Y-79936632D02*
X139594736Y-79784251D01*
X139594736Y-79784251D02*
X139556641Y-79708060D01*
X139556641Y-79708060D02*
X139480451Y-79631870D01*
X139480451Y-79631870D02*
X139366165Y-79593775D01*
X139366165Y-79593775D02*
X139289974Y-79593775D01*
X139289974Y-79593775D02*
X139175689Y-79631870D01*
X139175689Y-79631870D02*
X139137593Y-79669965D01*
X138985213Y-80469965D02*
X138375689Y-80469965D01*
X137842355Y-80393775D02*
X137842355Y-79974727D01*
X137842355Y-79974727D02*
X137880450Y-79898537D01*
X137880450Y-79898537D02*
X137956641Y-79860441D01*
X137956641Y-79860441D02*
X138109022Y-79860441D01*
X138109022Y-79860441D02*
X138185212Y-79898537D01*
X137842355Y-80355680D02*
X137918546Y-80393775D01*
X137918546Y-80393775D02*
X138109022Y-80393775D01*
X138109022Y-80393775D02*
X138185212Y-80355680D01*
X138185212Y-80355680D02*
X138223308Y-80279489D01*
X138223308Y-80279489D02*
X138223308Y-80203299D01*
X138223308Y-80203299D02*
X138185212Y-80127108D01*
X138185212Y-80127108D02*
X138109022Y-80089013D01*
X138109022Y-80089013D02*
X137918546Y-80089013D01*
X137918546Y-80089013D02*
X137842355Y-80050918D01*
X137461402Y-80393775D02*
X137461402Y-79860441D01*
X137461402Y-79936632D02*
X137423307Y-79898537D01*
X137423307Y-79898537D02*
X137347117Y-79860441D01*
X137347117Y-79860441D02*
X137232831Y-79860441D01*
X137232831Y-79860441D02*
X137156640Y-79898537D01*
X137156640Y-79898537D02*
X137118545Y-79974727D01*
X137118545Y-79974727D02*
X137118545Y-80393775D01*
X137118545Y-79974727D02*
X137080450Y-79898537D01*
X137080450Y-79898537D02*
X137004259Y-79860441D01*
X137004259Y-79860441D02*
X136889974Y-79860441D01*
X136889974Y-79860441D02*
X136813783Y-79898537D01*
X136813783Y-79898537D02*
X136775688Y-79974727D01*
X136775688Y-79974727D02*
X136775688Y-80393775D01*
X136394735Y-79860441D02*
X136394735Y-80660441D01*
X136394735Y-79898537D02*
X136318545Y-79860441D01*
X136318545Y-79860441D02*
X136166164Y-79860441D01*
X136166164Y-79860441D02*
X136089973Y-79898537D01*
X136089973Y-79898537D02*
X136051878Y-79936632D01*
X136051878Y-79936632D02*
X136013783Y-80012822D01*
X136013783Y-80012822D02*
X136013783Y-80241394D01*
X136013783Y-80241394D02*
X136051878Y-80317584D01*
X136051878Y-80317584D02*
X136089973Y-80355680D01*
X136089973Y-80355680D02*
X136166164Y-80393775D01*
X136166164Y-80393775D02*
X136318545Y-80393775D01*
X136318545Y-80393775D02*
X136394735Y-80355680D01*
X135861402Y-80469965D02*
X135251878Y-80469965D01*
X134947116Y-80393775D02*
X135023306Y-80355680D01*
X135023306Y-80355680D02*
X135061401Y-80317584D01*
X135061401Y-80317584D02*
X135099497Y-80241394D01*
X135099497Y-80241394D02*
X135099497Y-80012822D01*
X135099497Y-80012822D02*
X135061401Y-79936632D01*
X135061401Y-79936632D02*
X135023306Y-79898537D01*
X135023306Y-79898537D02*
X134947116Y-79860441D01*
X134947116Y-79860441D02*
X134832830Y-79860441D01*
X134832830Y-79860441D02*
X134756639Y-79898537D01*
X134756639Y-79898537D02*
X134718544Y-79936632D01*
X134718544Y-79936632D02*
X134680449Y-80012822D01*
X134680449Y-80012822D02*
X134680449Y-80241394D01*
X134680449Y-80241394D02*
X134718544Y-80317584D01*
X134718544Y-80317584D02*
X134756639Y-80355680D01*
X134756639Y-80355680D02*
X134832830Y-80393775D01*
X134832830Y-80393775D02*
X134947116Y-80393775D01*
X133994734Y-79860441D02*
X133994734Y-80393775D01*
X134337591Y-79860441D02*
X134337591Y-80279489D01*
X134337591Y-80279489D02*
X134299496Y-80355680D01*
X134299496Y-80355680D02*
X134223306Y-80393775D01*
X134223306Y-80393775D02*
X134109020Y-80393775D01*
X134109020Y-80393775D02*
X134032829Y-80355680D01*
X134032829Y-80355680D02*
X133994734Y-80317584D01*
X133728067Y-79860441D02*
X133423305Y-79860441D01*
X133613781Y-79593775D02*
X133613781Y-80279489D01*
X133613781Y-80279489D02*
X133575686Y-80355680D01*
X133575686Y-80355680D02*
X133499496Y-80393775D01*
X133499496Y-80393775D02*
X133423305Y-80393775D01*
D12*
X142374561Y-85240386D02*
X142441228Y-85207053D01*
X142441228Y-85207053D02*
X142541228Y-85207053D01*
X142541228Y-85207053D02*
X142641228Y-85240386D01*
X142641228Y-85240386D02*
X142707895Y-85307053D01*
X142707895Y-85307053D02*
X142741228Y-85373720D01*
X142741228Y-85373720D02*
X142774561Y-85507053D01*
X142774561Y-85507053D02*
X142774561Y-85607053D01*
X142774561Y-85607053D02*
X142741228Y-85740386D01*
X142741228Y-85740386D02*
X142707895Y-85807053D01*
X142707895Y-85807053D02*
X142641228Y-85873720D01*
X142641228Y-85873720D02*
X142541228Y-85907053D01*
X142541228Y-85907053D02*
X142474561Y-85907053D01*
X142474561Y-85907053D02*
X142374561Y-85873720D01*
X142374561Y-85873720D02*
X142341228Y-85840386D01*
X142341228Y-85840386D02*
X142341228Y-85607053D01*
X142341228Y-85607053D02*
X142474561Y-85607053D01*
X142041228Y-85540386D02*
X141507895Y-85540386D01*
X141507895Y-85740386D02*
X142041228Y-85740386D01*
X141241228Y-85207053D02*
X140774561Y-85207053D01*
X140774561Y-85207053D02*
X141074561Y-85907053D01*
X140574561Y-85207053D02*
X140141227Y-85207053D01*
X140141227Y-85207053D02*
X140374561Y-85473720D01*
X140374561Y-85473720D02*
X140274561Y-85473720D01*
X140274561Y-85473720D02*
X140207894Y-85507053D01*
X140207894Y-85507053D02*
X140174561Y-85540386D01*
X140174561Y-85540386D02*
X140141227Y-85607053D01*
X140141227Y-85607053D02*
X140141227Y-85773720D01*
X140141227Y-85773720D02*
X140174561Y-85840386D01*
X140174561Y-85840386D02*
X140207894Y-85873720D01*
X140207894Y-85873720D02*
X140274561Y-85907053D01*
X140274561Y-85907053D02*
X140474561Y-85907053D01*
X140474561Y-85907053D02*
X140541227Y-85873720D01*
X140541227Y-85873720D02*
X140574561Y-85840386D01*
X139474560Y-85907053D02*
X139874560Y-85907053D01*
X139674560Y-85907053D02*
X139674560Y-85207053D01*
X139674560Y-85207053D02*
X139741227Y-85307053D01*
X139741227Y-85307053D02*
X139807894Y-85373720D01*
X139807894Y-85373720D02*
X139874560Y-85407053D01*
X139241227Y-85907053D02*
X138874560Y-85440386D01*
X139241227Y-85440386D02*
X138874560Y-85907053D01*
D11*
X128818546Y-80093775D02*
X128361403Y-80093775D01*
X128589975Y-80893775D02*
X128589975Y-80093775D01*
X127637593Y-80817584D02*
X127675689Y-80855680D01*
X127675689Y-80855680D02*
X127789974Y-80893775D01*
X127789974Y-80893775D02*
X127866165Y-80893775D01*
X127866165Y-80893775D02*
X127980451Y-80855680D01*
X127980451Y-80855680D02*
X128056641Y-80779489D01*
X128056641Y-80779489D02*
X128094736Y-80703299D01*
X128094736Y-80703299D02*
X128132832Y-80550918D01*
X128132832Y-80550918D02*
X128132832Y-80436632D01*
X128132832Y-80436632D02*
X128094736Y-80284251D01*
X128094736Y-80284251D02*
X128056641Y-80208060D01*
X128056641Y-80208060D02*
X127980451Y-80131870D01*
X127980451Y-80131870D02*
X127866165Y-80093775D01*
X127866165Y-80093775D02*
X127789974Y-80093775D01*
X127789974Y-80093775D02*
X127675689Y-80131870D01*
X127675689Y-80131870D02*
X127637593Y-80169965D01*
X127294736Y-80589013D02*
X126685213Y-80589013D01*
X126989974Y-80893775D02*
X126989974Y-80284251D01*
D10*
X130130326Y-87367219D02*
X130130326Y-86367219D01*
X129558898Y-87367219D02*
X129987469Y-86795790D01*
X129558898Y-86367219D02*
X130130326Y-86938647D01*
X128749374Y-87319600D02*
X128844612Y-87367219D01*
X128844612Y-87367219D02*
X129035088Y-87367219D01*
X129035088Y-87367219D02*
X129130326Y-87319600D01*
X129130326Y-87319600D02*
X129177945Y-87224361D01*
X129177945Y-87224361D02*
X129177945Y-86843409D01*
X129177945Y-86843409D02*
X129130326Y-86748171D01*
X129130326Y-86748171D02*
X129035088Y-86700552D01*
X129035088Y-86700552D02*
X128844612Y-86700552D01*
X128844612Y-86700552D02*
X128749374Y-86748171D01*
X128749374Y-86748171D02*
X128701755Y-86843409D01*
X128701755Y-86843409D02*
X128701755Y-86938647D01*
X128701755Y-86938647D02*
X129177945Y-87033885D01*
X128273183Y-86700552D02*
X128273183Y-87367219D01*
X128273183Y-86795790D02*
X128225564Y-86748171D01*
X128225564Y-86748171D02*
X128130326Y-86700552D01*
X128130326Y-86700552D02*
X127987469Y-86700552D01*
X127987469Y-86700552D02*
X127892231Y-86748171D01*
X127892231Y-86748171D02*
X127844612Y-86843409D01*
X127844612Y-86843409D02*
X127844612Y-87367219D01*
X127511278Y-86700552D02*
X127130326Y-86700552D01*
X127368421Y-86367219D02*
X127368421Y-87224361D01*
X127368421Y-87224361D02*
X127320802Y-87319600D01*
X127320802Y-87319600D02*
X127225564Y-87367219D01*
X127225564Y-87367219D02*
X127130326Y-87367219D01*
X126130325Y-86367219D02*
X125463659Y-86367219D01*
X125463659Y-86367219D02*
X126130325Y-87367219D01*
X126130325Y-87367219D02*
X125463659Y-87367219D01*
X125082706Y-87367219D02*
X125082706Y-86367219D01*
X124654135Y-87367219D02*
X124654135Y-86843409D01*
X124654135Y-86843409D02*
X124701754Y-86748171D01*
X124701754Y-86748171D02*
X124796992Y-86700552D01*
X124796992Y-86700552D02*
X124939849Y-86700552D01*
X124939849Y-86700552D02*
X125035087Y-86748171D01*
X125035087Y-86748171D02*
X125082706Y-86795790D01*
X123749373Y-87367219D02*
X123749373Y-86843409D01*
X123749373Y-86843409D02*
X123796992Y-86748171D01*
X123796992Y-86748171D02*
X123892230Y-86700552D01*
X123892230Y-86700552D02*
X124082706Y-86700552D01*
X124082706Y-86700552D02*
X124177944Y-86748171D01*
X123749373Y-87319600D02*
X123844611Y-87367219D01*
X123844611Y-87367219D02*
X124082706Y-87367219D01*
X124082706Y-87367219D02*
X124177944Y-87319600D01*
X124177944Y-87319600D02*
X124225563Y-87224361D01*
X124225563Y-87224361D02*
X124225563Y-87129123D01*
X124225563Y-87129123D02*
X124177944Y-87033885D01*
X124177944Y-87033885D02*
X124082706Y-86986266D01*
X124082706Y-86986266D02*
X123844611Y-86986266D01*
X123844611Y-86986266D02*
X123749373Y-86938647D01*
X123273182Y-86700552D02*
X123273182Y-87367219D01*
X123273182Y-86795790D02*
X123225563Y-86748171D01*
X123225563Y-86748171D02*
X123130325Y-86700552D01*
X123130325Y-86700552D02*
X122987468Y-86700552D01*
X122987468Y-86700552D02*
X122892230Y-86748171D01*
X122892230Y-86748171D02*
X122844611Y-86843409D01*
X122844611Y-86843409D02*
X122844611Y-87367219D01*
X121939849Y-86700552D02*
X121939849Y-87510076D01*
X121939849Y-87510076D02*
X121987468Y-87605314D01*
X121987468Y-87605314D02*
X122035087Y-87652933D01*
X122035087Y-87652933D02*
X122130325Y-87700552D01*
X122130325Y-87700552D02*
X122273182Y-87700552D01*
X122273182Y-87700552D02*
X122368420Y-87652933D01*
X121939849Y-87319600D02*
X122035087Y-87367219D01*
X122035087Y-87367219D02*
X122225563Y-87367219D01*
X122225563Y-87367219D02*
X122320801Y-87319600D01*
X122320801Y-87319600D02*
X122368420Y-87271980D01*
X122368420Y-87271980D02*
X122416039Y-87176742D01*
X122416039Y-87176742D02*
X122416039Y-86891028D01*
X122416039Y-86891028D02*
X122368420Y-86795790D01*
X122368420Y-86795790D02*
X122320801Y-86748171D01*
X122320801Y-86748171D02*
X122225563Y-86700552D01*
X122225563Y-86700552D02*
X122035087Y-86700552D01*
X122035087Y-86700552D02*
X121939849Y-86748171D01*
D11*
X128818546Y-77593775D02*
X128361403Y-77593775D01*
X128589975Y-78393775D02*
X128589975Y-77593775D01*
X127637593Y-78317584D02*
X127675689Y-78355680D01*
X127675689Y-78355680D02*
X127789974Y-78393775D01*
X127789974Y-78393775D02*
X127866165Y-78393775D01*
X127866165Y-78393775D02*
X127980451Y-78355680D01*
X127980451Y-78355680D02*
X128056641Y-78279489D01*
X128056641Y-78279489D02*
X128094736Y-78203299D01*
X128094736Y-78203299D02*
X128132832Y-78050918D01*
X128132832Y-78050918D02*
X128132832Y-77936632D01*
X128132832Y-77936632D02*
X128094736Y-77784251D01*
X128094736Y-77784251D02*
X128056641Y-77708060D01*
X128056641Y-77708060D02*
X127980451Y-77631870D01*
X127980451Y-77631870D02*
X127866165Y-77593775D01*
X127866165Y-77593775D02*
X127789974Y-77593775D01*
X127789974Y-77593775D02*
X127675689Y-77631870D01*
X127675689Y-77631870D02*
X127637593Y-77669965D01*
X127294736Y-78089013D02*
X126685213Y-78089013D01*
D13*
X140287124Y-70622741D02*
X140144267Y-70670360D01*
X140144267Y-70670360D02*
X140096648Y-70717979D01*
X140096648Y-70717979D02*
X140049029Y-70813217D01*
X140049029Y-70813217D02*
X140049029Y-70956074D01*
X140049029Y-70956074D02*
X140096648Y-71051312D01*
X140096648Y-71051312D02*
X140144267Y-71098932D01*
X140144267Y-71098932D02*
X140239505Y-71146551D01*
X140239505Y-71146551D02*
X140620457Y-71146551D01*
X140620457Y-71146551D02*
X140620457Y-70146551D01*
X140620457Y-70146551D02*
X140287124Y-70146551D01*
X140287124Y-70146551D02*
X140191886Y-70194170D01*
X140191886Y-70194170D02*
X140144267Y-70241789D01*
X140144267Y-70241789D02*
X140096648Y-70337027D01*
X140096648Y-70337027D02*
X140096648Y-70432265D01*
X140096648Y-70432265D02*
X140144267Y-70527503D01*
X140144267Y-70527503D02*
X140191886Y-70575122D01*
X140191886Y-70575122D02*
X140287124Y-70622741D01*
X140287124Y-70622741D02*
X140620457Y-70622741D01*
X139477600Y-71146551D02*
X139572838Y-71098932D01*
X139572838Y-71098932D02*
X139620457Y-71003693D01*
X139620457Y-71003693D02*
X139620457Y-70146551D01*
X138668076Y-70479884D02*
X138668076Y-71146551D01*
X139096647Y-70479884D02*
X139096647Y-71003693D01*
X139096647Y-71003693D02*
X139049028Y-71098932D01*
X139049028Y-71098932D02*
X138953790Y-71146551D01*
X138953790Y-71146551D02*
X138810933Y-71146551D01*
X138810933Y-71146551D02*
X138715695Y-71098932D01*
X138715695Y-71098932D02*
X138668076Y-71051312D01*
X137810933Y-71098932D02*
X137906171Y-71146551D01*
X137906171Y-71146551D02*
X138096647Y-71146551D01*
X138096647Y-71146551D02*
X138191885Y-71098932D01*
X138191885Y-71098932D02*
X138239504Y-71003693D01*
X138239504Y-71003693D02*
X138239504Y-70622741D01*
X138239504Y-70622741D02*
X138191885Y-70527503D01*
X138191885Y-70527503D02*
X138096647Y-70479884D01*
X138096647Y-70479884D02*
X137906171Y-70479884D01*
X137906171Y-70479884D02*
X137810933Y-70527503D01*
X137810933Y-70527503D02*
X137763314Y-70622741D01*
X137763314Y-70622741D02*
X137763314Y-70717979D01*
X137763314Y-70717979D02*
X138239504Y-70813217D01*
X136287123Y-70146551D02*
X136287123Y-70860836D01*
X136287123Y-70860836D02*
X136334742Y-71003693D01*
X136334742Y-71003693D02*
X136429980Y-71098932D01*
X136429980Y-71098932D02*
X136572837Y-71146551D01*
X136572837Y-71146551D02*
X136668075Y-71146551D01*
X135382361Y-71146551D02*
X135382361Y-70622741D01*
X135382361Y-70622741D02*
X135429980Y-70527503D01*
X135429980Y-70527503D02*
X135525218Y-70479884D01*
X135525218Y-70479884D02*
X135715694Y-70479884D01*
X135715694Y-70479884D02*
X135810932Y-70527503D01*
X135382361Y-71098932D02*
X135477599Y-71146551D01*
X135477599Y-71146551D02*
X135715694Y-71146551D01*
X135715694Y-71146551D02*
X135810932Y-71098932D01*
X135810932Y-71098932D02*
X135858551Y-71003693D01*
X135858551Y-71003693D02*
X135858551Y-70908455D01*
X135858551Y-70908455D02*
X135810932Y-70813217D01*
X135810932Y-70813217D02*
X135715694Y-70765598D01*
X135715694Y-70765598D02*
X135477599Y-70765598D01*
X135477599Y-70765598D02*
X135382361Y-70717979D01*
X135001408Y-70479884D02*
X134763313Y-71146551D01*
X134525218Y-70479884D02*
X134763313Y-71146551D01*
X134763313Y-71146551D02*
X134858551Y-71384646D01*
X134858551Y-71384646D02*
X134906170Y-71432265D01*
X134906170Y-71432265D02*
X135001408Y-71479884D01*
X132810932Y-71146551D02*
X133144265Y-70670360D01*
X133382360Y-71146551D02*
X133382360Y-70146551D01*
X133382360Y-70146551D02*
X133001408Y-70146551D01*
X133001408Y-70146551D02*
X132906170Y-70194170D01*
X132906170Y-70194170D02*
X132858551Y-70241789D01*
X132858551Y-70241789D02*
X132810932Y-70337027D01*
X132810932Y-70337027D02*
X132810932Y-70479884D01*
X132810932Y-70479884D02*
X132858551Y-70575122D01*
X132858551Y-70575122D02*
X132906170Y-70622741D01*
X132906170Y-70622741D02*
X133001408Y-70670360D01*
X133001408Y-70670360D02*
X133382360Y-70670360D01*
X131953789Y-71146551D02*
X131953789Y-70622741D01*
X131953789Y-70622741D02*
X132001408Y-70527503D01*
X132001408Y-70527503D02*
X132096646Y-70479884D01*
X132096646Y-70479884D02*
X132287122Y-70479884D01*
X132287122Y-70479884D02*
X132382360Y-70527503D01*
X131953789Y-71098932D02*
X132049027Y-71146551D01*
X132049027Y-71146551D02*
X132287122Y-71146551D01*
X132287122Y-71146551D02*
X132382360Y-71098932D01*
X132382360Y-71098932D02*
X132429979Y-71003693D01*
X132429979Y-71003693D02*
X132429979Y-70908455D01*
X132429979Y-70908455D02*
X132382360Y-70813217D01*
X132382360Y-70813217D02*
X132287122Y-70765598D01*
X132287122Y-70765598D02*
X132049027Y-70765598D01*
X132049027Y-70765598D02*
X131953789Y-70717979D01*
X131049027Y-71098932D02*
X131144265Y-71146551D01*
X131144265Y-71146551D02*
X131334741Y-71146551D01*
X131334741Y-71146551D02*
X131429979Y-71098932D01*
X131429979Y-71098932D02*
X131477598Y-71051312D01*
X131477598Y-71051312D02*
X131525217Y-70956074D01*
X131525217Y-70956074D02*
X131525217Y-70670360D01*
X131525217Y-70670360D02*
X131477598Y-70575122D01*
X131477598Y-70575122D02*
X131429979Y-70527503D01*
X131429979Y-70527503D02*
X131334741Y-70479884D01*
X131334741Y-70479884D02*
X131144265Y-70479884D01*
X131144265Y-70479884D02*
X131049027Y-70527503D01*
X130620455Y-71146551D02*
X130620455Y-70479884D01*
X130620455Y-70146551D02*
X130668074Y-70194170D01*
X130668074Y-70194170D02*
X130620455Y-70241789D01*
X130620455Y-70241789D02*
X130572836Y-70194170D01*
X130572836Y-70194170D02*
X130620455Y-70146551D01*
X130620455Y-70146551D02*
X130620455Y-70241789D01*
X130144265Y-70479884D02*
X130144265Y-71146551D01*
X130144265Y-70575122D02*
X130096646Y-70527503D01*
X130096646Y-70527503D02*
X130001408Y-70479884D01*
X130001408Y-70479884D02*
X129858551Y-70479884D01*
X129858551Y-70479884D02*
X129763313Y-70527503D01*
X129763313Y-70527503D02*
X129715694Y-70622741D01*
X129715694Y-70622741D02*
X129715694Y-71146551D01*
X128810932Y-70479884D02*
X128810932Y-71289408D01*
X128810932Y-71289408D02*
X128858551Y-71384646D01*
X128858551Y-71384646D02*
X128906170Y-71432265D01*
X128906170Y-71432265D02*
X129001408Y-71479884D01*
X129001408Y-71479884D02*
X129144265Y-71479884D01*
X129144265Y-71479884D02*
X129239503Y-71432265D01*
X128810932Y-71098932D02*
X128906170Y-71146551D01*
X128906170Y-71146551D02*
X129096646Y-71146551D01*
X129096646Y-71146551D02*
X129191884Y-71098932D01*
X129191884Y-71098932D02*
X129239503Y-71051312D01*
X129239503Y-71051312D02*
X129287122Y-70956074D01*
X129287122Y-70956074D02*
X129287122Y-70670360D01*
X129287122Y-70670360D02*
X129239503Y-70575122D01*
X129239503Y-70575122D02*
X129191884Y-70527503D01*
X129191884Y-70527503D02*
X129096646Y-70479884D01*
X129096646Y-70479884D02*
X128906170Y-70479884D01*
X128906170Y-70479884D02*
X128810932Y-70527503D01*
X126953789Y-70670360D02*
X127001408Y-70622741D01*
X127001408Y-70622741D02*
X127096646Y-70575122D01*
X127096646Y-70575122D02*
X127191884Y-70575122D01*
X127191884Y-70575122D02*
X127287122Y-70622741D01*
X127287122Y-70622741D02*
X127334741Y-70670360D01*
X127334741Y-70670360D02*
X127382360Y-70765598D01*
X127382360Y-70765598D02*
X127382360Y-70860836D01*
X127382360Y-70860836D02*
X127334741Y-70956074D01*
X127334741Y-70956074D02*
X127287122Y-71003693D01*
X127287122Y-71003693D02*
X127191884Y-71051312D01*
X127191884Y-71051312D02*
X127096646Y-71051312D01*
X127096646Y-71051312D02*
X127001408Y-71003693D01*
X127001408Y-71003693D02*
X126953789Y-70956074D01*
X126953789Y-70575122D02*
X126953789Y-70956074D01*
X126953789Y-70956074D02*
X126906170Y-71003693D01*
X126906170Y-71003693D02*
X126858551Y-71003693D01*
X126858551Y-71003693D02*
X126763312Y-70956074D01*
X126763312Y-70956074D02*
X126715693Y-70860836D01*
X126715693Y-70860836D02*
X126715693Y-70622741D01*
X126715693Y-70622741D02*
X126810932Y-70479884D01*
X126810932Y-70479884D02*
X126953789Y-70384646D01*
X126953789Y-70384646D02*
X127144265Y-70337027D01*
X127144265Y-70337027D02*
X127334741Y-70384646D01*
X127334741Y-70384646D02*
X127477598Y-70479884D01*
X127477598Y-70479884D02*
X127572836Y-70622741D01*
X127572836Y-70622741D02*
X127620455Y-70813217D01*
X127620455Y-70813217D02*
X127572836Y-71003693D01*
X127572836Y-71003693D02*
X127477598Y-71146551D01*
X127477598Y-71146551D02*
X127334741Y-71241789D01*
X127334741Y-71241789D02*
X127144265Y-71289408D01*
X127144265Y-71289408D02*
X126953789Y-71241789D01*
X126953789Y-71241789D02*
X126810932Y-71146551D01*
X125239503Y-70146551D02*
X125239503Y-70860836D01*
X125239503Y-70860836D02*
X125287122Y-71003693D01*
X125287122Y-71003693D02*
X125382360Y-71098932D01*
X125382360Y-71098932D02*
X125525217Y-71146551D01*
X125525217Y-71146551D02*
X125620455Y-71146551D01*
X124763312Y-71146551D02*
X124763312Y-70146551D01*
X124763312Y-70622741D02*
X124191884Y-70622741D01*
X124191884Y-71146551D02*
X124191884Y-70146551D01*
X123715693Y-70146551D02*
X123715693Y-70956074D01*
X123715693Y-70956074D02*
X123668074Y-71051312D01*
X123668074Y-71051312D02*
X123620455Y-71098932D01*
X123620455Y-71098932D02*
X123525217Y-71146551D01*
X123525217Y-71146551D02*
X123334741Y-71146551D01*
X123334741Y-71146551D02*
X123239503Y-71098932D01*
X123239503Y-71098932D02*
X123191884Y-71051312D01*
X123191884Y-71051312D02*
X123144265Y-70956074D01*
X123144265Y-70956074D02*
X123144265Y-70146551D01*
X140668076Y-71851733D02*
X140620457Y-71804114D01*
X140620457Y-71804114D02*
X140525219Y-71756495D01*
X140525219Y-71756495D02*
X140287124Y-71756495D01*
X140287124Y-71756495D02*
X140191886Y-71804114D01*
X140191886Y-71804114D02*
X140144267Y-71851733D01*
X140144267Y-71851733D02*
X140096648Y-71946971D01*
X140096648Y-71946971D02*
X140096648Y-72042209D01*
X140096648Y-72042209D02*
X140144267Y-72185066D01*
X140144267Y-72185066D02*
X140715695Y-72756495D01*
X140715695Y-72756495D02*
X140096648Y-72756495D01*
X139715695Y-71851733D02*
X139668076Y-71804114D01*
X139668076Y-71804114D02*
X139572838Y-71756495D01*
X139572838Y-71756495D02*
X139334743Y-71756495D01*
X139334743Y-71756495D02*
X139239505Y-71804114D01*
X139239505Y-71804114D02*
X139191886Y-71851733D01*
X139191886Y-71851733D02*
X139144267Y-71946971D01*
X139144267Y-71946971D02*
X139144267Y-72042209D01*
X139144267Y-72042209D02*
X139191886Y-72185066D01*
X139191886Y-72185066D02*
X139763314Y-72756495D01*
X139763314Y-72756495D02*
X139144267Y-72756495D01*
X138810933Y-71756495D02*
X138144267Y-72756495D01*
X138144267Y-71756495D02*
X138810933Y-72756495D01*
X137906171Y-71756495D02*
X137334743Y-71756495D01*
X137620457Y-72756495D02*
X137620457Y-71756495D01*
X140763314Y-73366439D02*
X140191886Y-73366439D01*
X140477600Y-74366439D02*
X140477600Y-73366439D01*
X139287124Y-74271200D02*
X139334743Y-74318820D01*
X139334743Y-74318820D02*
X139477600Y-74366439D01*
X139477600Y-74366439D02*
X139572838Y-74366439D01*
X139572838Y-74366439D02*
X139715695Y-74318820D01*
X139715695Y-74318820D02*
X139810933Y-74223581D01*
X139810933Y-74223581D02*
X139858552Y-74128343D01*
X139858552Y-74128343D02*
X139906171Y-73937867D01*
X139906171Y-73937867D02*
X139906171Y-73795010D01*
X139906171Y-73795010D02*
X139858552Y-73604534D01*
X139858552Y-73604534D02*
X139810933Y-73509296D01*
X139810933Y-73509296D02*
X139715695Y-73414058D01*
X139715695Y-73414058D02*
X139572838Y-73366439D01*
X139572838Y-73366439D02*
X139477600Y-73366439D01*
X139477600Y-73366439D02*
X139334743Y-73414058D01*
X139334743Y-73414058D02*
X139287124Y-73461677D01*
X138144266Y-74080724D02*
X137668076Y-74080724D01*
X138239504Y-74366439D02*
X137906171Y-73366439D01*
X137906171Y-73366439D02*
X137572838Y-74366439D01*
X137239504Y-74366439D02*
X137239504Y-73699772D01*
X137239504Y-73795010D02*
X137191885Y-73747391D01*
X137191885Y-73747391D02*
X137096647Y-73699772D01*
X137096647Y-73699772D02*
X136953790Y-73699772D01*
X136953790Y-73699772D02*
X136858552Y-73747391D01*
X136858552Y-73747391D02*
X136810933Y-73842629D01*
X136810933Y-73842629D02*
X136810933Y-74366439D01*
X136810933Y-73842629D02*
X136763314Y-73747391D01*
X136763314Y-73747391D02*
X136668076Y-73699772D01*
X136668076Y-73699772D02*
X136525219Y-73699772D01*
X136525219Y-73699772D02*
X136429980Y-73747391D01*
X136429980Y-73747391D02*
X136382361Y-73842629D01*
X136382361Y-73842629D02*
X136382361Y-74366439D01*
X135906171Y-73699772D02*
X135906171Y-74699772D01*
X135906171Y-73747391D02*
X135810933Y-73699772D01*
X135810933Y-73699772D02*
X135620457Y-73699772D01*
X135620457Y-73699772D02*
X135525219Y-73747391D01*
X135525219Y-73747391D02*
X135477600Y-73795010D01*
X135477600Y-73795010D02*
X135429981Y-73890248D01*
X135429981Y-73890248D02*
X135429981Y-74175962D01*
X135429981Y-74175962D02*
X135477600Y-74271200D01*
X135477600Y-74271200D02*
X135525219Y-74318820D01*
X135525219Y-74318820D02*
X135620457Y-74366439D01*
X135620457Y-74366439D02*
X135810933Y-74366439D01*
X135810933Y-74366439D02*
X135906171Y-74318820D01*
X134858552Y-74366439D02*
X134953790Y-74318820D01*
X134953790Y-74318820D02*
X135001409Y-74223581D01*
X135001409Y-74223581D02*
X135001409Y-73366439D01*
X134477599Y-74366439D02*
X134477599Y-73699772D01*
X134477599Y-73366439D02*
X134525218Y-73414058D01*
X134525218Y-73414058D02*
X134477599Y-73461677D01*
X134477599Y-73461677D02*
X134429980Y-73414058D01*
X134429980Y-73414058D02*
X134477599Y-73366439D01*
X134477599Y-73366439D02*
X134477599Y-73461677D01*
X134144266Y-73699772D02*
X133763314Y-73699772D01*
X134001409Y-74366439D02*
X134001409Y-73509296D01*
X134001409Y-73509296D02*
X133953790Y-73414058D01*
X133953790Y-73414058D02*
X133858552Y-73366439D01*
X133858552Y-73366439D02*
X133763314Y-73366439D01*
X133429980Y-74366439D02*
X133429980Y-73699772D01*
X133429980Y-73366439D02*
X133477599Y-73414058D01*
X133477599Y-73414058D02*
X133429980Y-73461677D01*
X133429980Y-73461677D02*
X133382361Y-73414058D01*
X133382361Y-73414058D02*
X133429980Y-73366439D01*
X133429980Y-73366439D02*
X133429980Y-73461677D01*
X132572838Y-74318820D02*
X132668076Y-74366439D01*
X132668076Y-74366439D02*
X132858552Y-74366439D01*
X132858552Y-74366439D02*
X132953790Y-74318820D01*
X132953790Y-74318820D02*
X133001409Y-74223581D01*
X133001409Y-74223581D02*
X133001409Y-73842629D01*
X133001409Y-73842629D02*
X132953790Y-73747391D01*
X132953790Y-73747391D02*
X132858552Y-73699772D01*
X132858552Y-73699772D02*
X132668076Y-73699772D01*
X132668076Y-73699772D02*
X132572838Y-73747391D01*
X132572838Y-73747391D02*
X132525219Y-73842629D01*
X132525219Y-73842629D02*
X132525219Y-73937867D01*
X132525219Y-73937867D02*
X133001409Y-74033105D01*
X132096647Y-74366439D02*
X132096647Y-73699772D01*
X132096647Y-73890248D02*
X132049028Y-73795010D01*
X132049028Y-73795010D02*
X132001409Y-73747391D01*
X132001409Y-73747391D02*
X131906171Y-73699772D01*
X131906171Y-73699772D02*
X131810933Y-73699772D01*
X131715695Y-74461677D02*
X130953790Y-74461677D01*
X130763313Y-74318820D02*
X130620456Y-74366439D01*
X130620456Y-74366439D02*
X130382361Y-74366439D01*
X130382361Y-74366439D02*
X130287123Y-74318820D01*
X130287123Y-74318820D02*
X130239504Y-74271200D01*
X130239504Y-74271200D02*
X130191885Y-74175962D01*
X130191885Y-74175962D02*
X130191885Y-74080724D01*
X130191885Y-74080724D02*
X130239504Y-73985486D01*
X130239504Y-73985486D02*
X130287123Y-73937867D01*
X130287123Y-73937867D02*
X130382361Y-73890248D01*
X130382361Y-73890248D02*
X130572837Y-73842629D01*
X130572837Y-73842629D02*
X130668075Y-73795010D01*
X130668075Y-73795010D02*
X130715694Y-73747391D01*
X130715694Y-73747391D02*
X130763313Y-73652153D01*
X130763313Y-73652153D02*
X130763313Y-73556915D01*
X130763313Y-73556915D02*
X130715694Y-73461677D01*
X130715694Y-73461677D02*
X130668075Y-73414058D01*
X130668075Y-73414058D02*
X130572837Y-73366439D01*
X130572837Y-73366439D02*
X130334742Y-73366439D01*
X130334742Y-73366439D02*
X130191885Y-73414058D01*
X129858551Y-73366439D02*
X129191885Y-73366439D01*
X129191885Y-73366439D02*
X129858551Y-74366439D01*
X129858551Y-74366439D02*
X129191885Y-74366439D01*
D14*
G36*
X144427829Y-70944663D02*
G01*
X144427829Y-71114071D01*
X144277649Y-71213685D01*
X144261627Y-71224307D01*
X144239568Y-71238916D01*
X144218700Y-71252716D01*
X144199284Y-71265536D01*
X144181580Y-71277206D01*
X144165848Y-71287555D01*
X144152349Y-71296410D01*
X144141342Y-71303602D01*
X144133087Y-71308959D01*
X144127846Y-71312310D01*
X144125877Y-71313485D01*
X144125681Y-71311498D01*
X144125489Y-71305527D01*
X144125306Y-71295825D01*
X144125132Y-71282644D01*
X144124971Y-71266237D01*
X144124823Y-71246860D01*
X144124689Y-71224764D01*
X144124572Y-71200204D01*
X144124473Y-71173432D01*
X144124393Y-71144703D01*
X144124334Y-71114269D01*
X144124298Y-71082385D01*
X144124285Y-71049303D01*
X144124285Y-70784935D01*
X144158779Y-70783514D01*
X144170885Y-70783018D01*
X144208534Y-70781523D01*
X144242911Y-70780239D01*
X144274759Y-70779140D01*
X144304820Y-70778202D01*
X144333839Y-70777401D01*
X144362556Y-70776710D01*
X144427829Y-70775254D01*
X144427829Y-70944663D01*
G37*
G36*
X145238542Y-71464690D02*
G01*
X145256130Y-71467027D01*
X145272586Y-71471685D01*
X145289185Y-71478914D01*
X145305328Y-71488218D01*
X145325018Y-71503529D01*
X145341564Y-71521441D01*
X145354772Y-71541640D01*
X145364448Y-71563813D01*
X145370396Y-71587647D01*
X145372422Y-71612829D01*
X145372396Y-71615563D01*
X145369901Y-71639700D01*
X145363548Y-71662749D01*
X145353637Y-71684319D01*
X145340471Y-71704021D01*
X145324349Y-71721465D01*
X145305575Y-71736263D01*
X145284449Y-71748025D01*
X145261274Y-71756362D01*
X145246281Y-71759128D01*
X145228339Y-71760209D01*
X145209522Y-71759506D01*
X145191319Y-71757077D01*
X145175222Y-71752980D01*
X145155869Y-71744743D01*
X145135726Y-71732260D01*
X145117666Y-71716829D01*
X145102349Y-71699022D01*
X145090434Y-71679411D01*
X145089729Y-71677967D01*
X145082510Y-71661353D01*
X145077840Y-71645966D01*
X145075326Y-71630142D01*
X145074575Y-71612221D01*
X145075752Y-71591704D01*
X145080474Y-71568509D01*
X145088936Y-71547124D01*
X145101275Y-71527221D01*
X145117628Y-71508469D01*
X145123130Y-71503155D01*
X145139973Y-71489021D01*
X145156805Y-71478470D01*
X145174470Y-71471124D01*
X145193815Y-71466603D01*
X145215686Y-71464529D01*
X145218547Y-71464423D01*
X145238542Y-71464690D01*
G37*
G36*
X144906231Y-71648301D02*
G01*
X144926878Y-71650456D01*
X144947022Y-71653877D01*
X144965762Y-71658495D01*
X144982199Y-71664244D01*
X145003105Y-71674856D01*
X145021211Y-71688094D01*
X145035830Y-71703535D01*
X145046936Y-71721035D01*
X145054501Y-71740447D01*
X145058497Y-71761626D01*
X145058899Y-71784425D01*
X145055678Y-71808701D01*
X145048808Y-71834306D01*
X145038262Y-71861095D01*
X145024012Y-71888922D01*
X145019873Y-71895839D01*
X145006835Y-71913565D01*
X144992594Y-71927242D01*
X144977155Y-71936863D01*
X144960525Y-71942423D01*
X144957746Y-71942919D01*
X144942186Y-71943449D01*
X144925933Y-71940716D01*
X144910242Y-71935028D01*
X144896368Y-71926693D01*
X144886961Y-71918404D01*
X144875620Y-71906172D01*
X144863534Y-71891186D01*
X144851127Y-71874065D01*
X144838825Y-71855426D01*
X144827054Y-71835887D01*
X144816237Y-71816065D01*
X144806800Y-71796576D01*
X144800449Y-71781797D01*
X144793351Y-71762464D01*
X144788827Y-71745513D01*
X144786785Y-71730434D01*
X144787130Y-71716716D01*
X144789769Y-71703849D01*
X144792159Y-71697241D01*
X144800044Y-71683181D01*
X144810815Y-71670564D01*
X144823595Y-71660318D01*
X144837506Y-71653371D01*
X144850274Y-71650108D01*
X144867029Y-71648060D01*
X144885981Y-71647480D01*
X144906231Y-71648301D01*
G37*
G36*
X144955122Y-71282595D02*
G01*
X144969647Y-71286096D01*
X144975938Y-71288775D01*
X144988654Y-71296438D01*
X145000505Y-71306975D01*
X145011788Y-71320721D01*
X145022799Y-71338015D01*
X145033835Y-71359195D01*
X145038023Y-71368308D01*
X145048079Y-71394910D01*
X145054440Y-71420372D01*
X145057138Y-71444529D01*
X145056202Y-71467214D01*
X145051664Y-71488261D01*
X145043554Y-71507504D01*
X145031903Y-71524777D01*
X145016741Y-71539912D01*
X144998100Y-71552745D01*
X144989141Y-71557224D01*
X144975377Y-71562745D01*
X144959886Y-71567856D01*
X144944046Y-71572110D01*
X144929237Y-71575059D01*
X144927537Y-71575313D01*
X144914712Y-71576734D01*
X144900287Y-71577651D01*
X144885424Y-71578049D01*
X144871283Y-71577915D01*
X144859027Y-71577235D01*
X144849816Y-71575995D01*
X144845276Y-71574883D01*
X144830223Y-71569052D01*
X144816125Y-71560571D01*
X144804586Y-71550349D01*
X144803412Y-71549018D01*
X144793555Y-71534466D01*
X144787541Y-71518195D01*
X144785383Y-71500306D01*
X144787095Y-71480902D01*
X144792690Y-71460083D01*
X144798340Y-71445044D01*
X144808190Y-71422341D01*
X144819406Y-71399878D01*
X144831664Y-71378132D01*
X144844638Y-71357579D01*
X144858005Y-71338697D01*
X144871440Y-71321961D01*
X144884618Y-71307848D01*
X144897215Y-71296835D01*
X144908906Y-71289399D01*
X144923227Y-71284332D01*
X144939142Y-71282035D01*
X144955122Y-71282595D01*
G37*
G36*
X145238331Y-71821092D02*
G01*
X145259434Y-71826116D01*
X145280235Y-71835265D01*
X145300529Y-71848529D01*
X145310159Y-71856609D01*
X145323733Y-71870128D01*
X145337011Y-71885593D01*
X145349479Y-71902253D01*
X145360622Y-71919357D01*
X145369925Y-71936155D01*
X145376874Y-71951897D01*
X145380955Y-71965831D01*
X145382178Y-71975246D01*
X145381349Y-71992387D01*
X145376742Y-72008635D01*
X145368659Y-72023498D01*
X145357402Y-72036480D01*
X145343272Y-72047087D01*
X145326573Y-72054824D01*
X145323313Y-72055827D01*
X145314175Y-72058089D01*
X145302667Y-72060472D01*
X145290025Y-72062745D01*
X145277486Y-72064679D01*
X145266288Y-72066042D01*
X145256852Y-72066766D01*
X145239421Y-72067341D01*
X145220075Y-72067241D01*
X145199837Y-72066524D01*
X145179732Y-72065245D01*
X145160785Y-72063459D01*
X145144020Y-72061225D01*
X145130463Y-72058597D01*
X145118936Y-72055084D01*
X145102248Y-72046916D01*
X145088309Y-72036065D01*
X145077368Y-72022941D01*
X145069673Y-72007957D01*
X145065473Y-71991524D01*
X145065017Y-71974055D01*
X145068552Y-71955961D01*
X145068932Y-71954750D01*
X145075789Y-71937890D01*
X145085647Y-71919835D01*
X145097863Y-71901418D01*
X145111793Y-71883473D01*
X145126796Y-71866833D01*
X145142227Y-71852329D01*
X145157446Y-71840794D01*
X145175229Y-71830885D01*
X145196025Y-71823466D01*
X145217127Y-71820205D01*
X145238331Y-71821092D01*
G37*
G36*
X145580646Y-71649222D02*
G01*
X145598688Y-71652090D01*
X145613564Y-71656779D01*
X145616671Y-71658279D01*
X145626719Y-71665003D01*
X145636770Y-71674078D01*
X145645621Y-71684325D01*
X145652069Y-71694561D01*
X145654497Y-71699796D01*
X145656310Y-71705047D01*
X145657328Y-71710777D01*
X145657762Y-71718237D01*
X145657823Y-71728676D01*
X145657823Y-71728751D01*
X145657652Y-71739247D01*
X145657049Y-71747223D01*
X145655707Y-71754284D01*
X145653324Y-71762035D01*
X145649595Y-71772082D01*
X145641926Y-71790766D01*
X145624742Y-71826098D01*
X145604821Y-71859920D01*
X145582866Y-71890974D01*
X145580172Y-71894408D01*
X145567439Y-71909596D01*
X145555804Y-71921466D01*
X145544726Y-71930470D01*
X145533662Y-71937059D01*
X145522071Y-71941686D01*
X145514939Y-71943322D01*
X145502240Y-71944377D01*
X145488940Y-71943749D01*
X145477016Y-71941449D01*
X145473449Y-71940283D01*
X145459955Y-71933686D01*
X145447259Y-71923740D01*
X145435154Y-71910225D01*
X145423435Y-71892918D01*
X145411893Y-71871599D01*
X145401393Y-71847997D01*
X145392474Y-71821333D01*
X145387376Y-71796149D01*
X145386096Y-71772512D01*
X145388632Y-71750489D01*
X145394980Y-71730144D01*
X145405140Y-71711545D01*
X145419106Y-71694759D01*
X145427291Y-71687277D01*
X145445266Y-71674695D01*
X145466192Y-71664589D01*
X145490302Y-71656857D01*
X145517825Y-71651397D01*
X145537809Y-71649102D01*
X145560125Y-71648213D01*
X145580646Y-71649222D01*
G37*
G36*
X145242541Y-71158928D02*
G01*
X145265669Y-71160223D01*
X145287527Y-71162513D01*
X145307402Y-71165799D01*
X145324581Y-71170080D01*
X145338352Y-71175356D01*
X145344321Y-71178671D01*
X145357107Y-71188465D01*
X145368161Y-71200549D01*
X145376229Y-71213655D01*
X145377084Y-71215521D01*
X145379574Y-71221862D01*
X145381042Y-71228073D01*
X145381743Y-71235606D01*
X145381935Y-71245915D01*
X145381938Y-71247967D01*
X145381806Y-71256838D01*
X145381177Y-71263481D01*
X145379699Y-71269401D01*
X145377023Y-71276101D01*
X145372797Y-71285084D01*
X145369307Y-71292099D01*
X145354853Y-71317168D01*
X145338646Y-71339715D01*
X145320996Y-71359454D01*
X145302215Y-71376099D01*
X145282615Y-71389367D01*
X145262507Y-71398971D01*
X145242202Y-71404628D01*
X145237917Y-71405260D01*
X145220177Y-71405716D01*
X145201453Y-71403232D01*
X145183112Y-71398065D01*
X145166522Y-71390469D01*
X145163804Y-71388874D01*
X145144561Y-71375204D01*
X145125895Y-71357893D01*
X145108259Y-71337459D01*
X145092110Y-71314423D01*
X145077904Y-71289304D01*
X145071546Y-71275094D01*
X145066633Y-71258420D01*
X145065283Y-71242828D01*
X145067458Y-71227693D01*
X145073119Y-71212394D01*
X145073229Y-71212163D01*
X145082592Y-71197210D01*
X145094971Y-71184630D01*
X145109576Y-71175229D01*
X145116990Y-71172094D01*
X145132778Y-71167406D01*
X145151571Y-71163715D01*
X145172657Y-71161023D01*
X145195322Y-71159328D01*
X145218854Y-71158630D01*
X145242541Y-71158928D01*
G37*
G36*
X145508893Y-71283089D02*
G01*
X145517654Y-71283456D01*
X145524275Y-71284419D01*
X145530214Y-71286251D01*
X145536929Y-71289227D01*
X145548298Y-71296328D01*
X145560630Y-71306974D01*
X145573590Y-71320673D01*
X145586843Y-71336938D01*
X145600058Y-71355277D01*
X145612899Y-71375201D01*
X145625034Y-71396220D01*
X145636129Y-71417845D01*
X145645850Y-71439586D01*
X145653865Y-71460953D01*
X145657258Y-71471419D01*
X145659442Y-71479455D01*
X145660595Y-71486291D01*
X145660950Y-71493316D01*
X145660741Y-71501919D01*
X145660586Y-71505105D01*
X145659564Y-71515550D01*
X145657607Y-71523988D01*
X145654344Y-71532177D01*
X145652486Y-71535842D01*
X145642860Y-71549485D01*
X145630283Y-71561246D01*
X145615708Y-71570356D01*
X145600088Y-71576044D01*
X145598364Y-71576381D01*
X145590723Y-71577208D01*
X145580245Y-71577751D01*
X145567980Y-71578006D01*
X145554980Y-71577973D01*
X145542294Y-71577650D01*
X145530974Y-71577037D01*
X145522071Y-71576133D01*
X145516729Y-71575319D01*
X145488982Y-71569288D01*
X145464488Y-71560713D01*
X145443297Y-71549630D01*
X145425457Y-71536077D01*
X145411017Y-71520087D01*
X145400026Y-71501697D01*
X145392532Y-71480944D01*
X145391706Y-71477289D01*
X145390092Y-71464085D01*
X145389752Y-71448678D01*
X145390631Y-71432428D01*
X145392671Y-71416694D01*
X145395815Y-71402837D01*
X145397242Y-71398176D01*
X145404634Y-71377769D01*
X145413659Y-71357552D01*
X145423793Y-71338531D01*
X145434512Y-71321709D01*
X145445290Y-71308092D01*
X145454590Y-71299437D01*
X145469663Y-71289902D01*
X145475122Y-71287310D01*
X145481135Y-71284969D01*
X145486968Y-71283675D01*
X145494095Y-71283131D01*
X145503991Y-71283045D01*
X145508893Y-71283089D01*
G37*
G36*
X143653430Y-69990577D02*
G01*
X143651516Y-69996331D01*
X143648380Y-70005510D01*
X143644120Y-70017830D01*
X143638837Y-70033006D01*
X143632628Y-70050755D01*
X143625594Y-70070794D01*
X143617833Y-70092839D01*
X143609445Y-70116606D01*
X143600529Y-70141812D01*
X143591184Y-70168173D01*
X143582065Y-70193883D01*
X143573059Y-70219299D01*
X143564546Y-70243348D01*
X143556629Y-70265738D01*
X143549411Y-70286179D01*
X143542995Y-70304377D01*
X143537484Y-70320043D01*
X143532979Y-70332883D01*
X143529585Y-70342607D01*
X143527404Y-70348923D01*
X143526539Y-70351539D01*
X143525388Y-70355988D01*
X143548357Y-70352030D01*
X143564194Y-70349401D01*
X143629906Y-70340462D01*
X143698322Y-70334155D01*
X143768963Y-70330457D01*
X143841350Y-70329343D01*
X143915004Y-70330791D01*
X143989447Y-70334777D01*
X144064199Y-70341276D01*
X144138781Y-70350266D01*
X144212714Y-70361722D01*
X144285520Y-70375622D01*
X144356719Y-70391941D01*
X144362404Y-70393373D01*
X144376617Y-70397058D01*
X144391798Y-70401113D01*
X144407383Y-70405377D01*
X144422810Y-70409689D01*
X144437515Y-70413886D01*
X144450933Y-70417807D01*
X144462503Y-70421289D01*
X144471659Y-70424171D01*
X144477839Y-70426292D01*
X144480479Y-70427488D01*
X144480096Y-70428203D01*
X144476848Y-70428609D01*
X144476407Y-70428627D01*
X144471649Y-70429479D01*
X144464484Y-70431355D01*
X144456284Y-70433903D01*
X144451923Y-70435310D01*
X144445584Y-70437024D01*
X144439191Y-70438152D01*
X144431696Y-70438813D01*
X144422051Y-70439125D01*
X144409210Y-70439206D01*
X144397902Y-70439238D01*
X144360289Y-70439685D01*
X144319313Y-70440638D01*
X144275356Y-70442069D01*
X144228798Y-70443947D01*
X144180020Y-70446243D01*
X144129401Y-70448928D01*
X144077322Y-70451974D01*
X144024163Y-70455351D01*
X143970304Y-70459029D01*
X143916127Y-70462980D01*
X143862010Y-70467174D01*
X143808336Y-70471582D01*
X143755482Y-70476175D01*
X143703832Y-70480923D01*
X143653763Y-70485799D01*
X143605657Y-70490771D01*
X143559894Y-70495812D01*
X143516855Y-70500891D01*
X143476919Y-70505981D01*
X143440468Y-70511051D01*
X143407880Y-70516072D01*
X143405424Y-70516466D01*
X143397871Y-70517572D01*
X143392407Y-70518212D01*
X143390078Y-70518256D01*
X143390299Y-70517465D01*
X143391836Y-70513135D01*
X143394748Y-70505249D01*
X143398943Y-70494051D01*
X143404327Y-70479785D01*
X143410809Y-70462696D01*
X143418294Y-70443028D01*
X143426689Y-70421025D01*
X143435903Y-70396931D01*
X143445841Y-70370992D01*
X143456410Y-70343451D01*
X143467518Y-70314553D01*
X143479072Y-70284542D01*
X143568885Y-70051417D01*
X143611125Y-70019611D01*
X143620481Y-70012596D01*
X143631175Y-70004659D01*
X143640338Y-69997949D01*
X143647508Y-69992801D01*
X143652223Y-69989550D01*
X143654022Y-69988529D01*
X143653430Y-69990577D01*
G37*
G36*
X145351954Y-69988861D02*
G01*
X145356056Y-69991744D01*
X145362716Y-69996591D01*
X145371459Y-70003052D01*
X145381812Y-70010780D01*
X145393302Y-70019427D01*
X145403046Y-70026824D01*
X145414424Y-70035621D01*
X145423054Y-70042567D01*
X145429352Y-70048026D01*
X145433730Y-70052363D01*
X145436603Y-70055942D01*
X145438385Y-70059128D01*
X145439534Y-70061927D01*
X145442124Y-70068466D01*
X145445969Y-70078291D01*
X145450954Y-70091099D01*
X145456962Y-70106588D01*
X145463877Y-70124459D01*
X145471585Y-70144408D01*
X145479968Y-70166135D01*
X145488911Y-70189337D01*
X145498299Y-70213714D01*
X145508015Y-70238963D01*
X145517944Y-70264784D01*
X145527970Y-70290874D01*
X145537976Y-70316932D01*
X145547848Y-70342657D01*
X145557469Y-70367747D01*
X145566724Y-70391900D01*
X145575496Y-70414814D01*
X145583670Y-70436189D01*
X145591130Y-70455723D01*
X145597760Y-70473114D01*
X145603444Y-70488061D01*
X145608067Y-70500261D01*
X145611512Y-70509415D01*
X145613664Y-70515219D01*
X145614407Y-70517372D01*
X145613786Y-70517854D01*
X145610143Y-70517986D01*
X145604325Y-70517211D01*
X145599665Y-70516404D01*
X145589729Y-70514874D01*
X145576522Y-70512979D01*
X145560602Y-70510791D01*
X145542529Y-70508383D01*
X145522861Y-70505827D01*
X145502159Y-70503196D01*
X145480981Y-70500563D01*
X145459885Y-70497998D01*
X145439433Y-70495576D01*
X145420182Y-70493368D01*
X145373555Y-70488291D01*
X145320389Y-70482869D01*
X145265587Y-70477635D01*
X145209567Y-70472618D01*
X145152746Y-70467843D01*
X145095542Y-70463339D01*
X145038371Y-70459134D01*
X144981651Y-70455253D01*
X144925799Y-70451726D01*
X144871233Y-70448578D01*
X144818369Y-70445838D01*
X144767626Y-70443532D01*
X144719419Y-70441689D01*
X144674168Y-70440336D01*
X144632289Y-70439499D01*
X144594198Y-70439206D01*
X144586997Y-70439186D01*
X144575887Y-70439012D01*
X144567730Y-70438588D01*
X144561675Y-70437827D01*
X144556871Y-70436643D01*
X144552468Y-70434947D01*
X144550191Y-70434014D01*
X144541242Y-70431141D01*
X144532633Y-70429303D01*
X144522427Y-70427908D01*
X144534032Y-70423941D01*
X144542199Y-70421282D01*
X144554747Y-70417447D01*
X144569816Y-70413022D01*
X144586553Y-70408248D01*
X144604103Y-70403365D01*
X144621613Y-70398612D01*
X144638227Y-70394231D01*
X144653092Y-70390461D01*
X144675850Y-70384996D01*
X144746407Y-70369906D01*
X144818503Y-70357163D01*
X144891648Y-70346792D01*
X144965352Y-70338815D01*
X145039125Y-70333257D01*
X145112476Y-70330140D01*
X145184914Y-70329488D01*
X145255950Y-70331326D01*
X145325093Y-70335675D01*
X145391852Y-70342560D01*
X145455737Y-70352004D01*
X145463574Y-70353275D01*
X145471334Y-70354339D01*
X145476609Y-70354827D01*
X145478556Y-70354639D01*
X145478549Y-70354600D01*
X145477722Y-70352070D01*
X145475594Y-70345857D01*
X145472262Y-70336242D01*
X145467825Y-70323510D01*
X145462382Y-70307941D01*
X145456033Y-70289818D01*
X145448875Y-70269423D01*
X145441009Y-70247038D01*
X145432532Y-70222946D01*
X145423543Y-70197429D01*
X145414143Y-70170769D01*
X145413082Y-70167763D01*
X145403745Y-70141257D01*
X145394853Y-70115949D01*
X145386503Y-70092118D01*
X145378792Y-70070044D01*
X145371817Y-70050006D01*
X145365675Y-70032284D01*
X145360462Y-70017158D01*
X145356275Y-70004906D01*
X145353213Y-69995809D01*
X145351370Y-69990146D01*
X145350845Y-69988196D01*
X145351954Y-69988861D01*
G37*
G36*
X143209190Y-70884052D02*
G01*
X143209460Y-70886007D01*
X143209711Y-70890116D01*
X143209942Y-70896495D01*
X143210156Y-70905259D01*
X143210351Y-70916523D01*
X143210529Y-70930404D01*
X143210691Y-70947017D01*
X143210837Y-70966477D01*
X143210966Y-70988901D01*
X143211081Y-71014403D01*
X143211182Y-71043100D01*
X143211269Y-71075106D01*
X143211342Y-71110539D01*
X143211402Y-71149512D01*
X143211451Y-71192142D01*
X143211487Y-71238545D01*
X143211513Y-71288835D01*
X143211528Y-71343129D01*
X143211532Y-71401542D01*
X143211533Y-71409426D01*
X143211538Y-71455766D01*
X143211553Y-71500954D01*
X143211575Y-71544807D01*
X143211604Y-71587145D01*
X143211641Y-71627786D01*
X143211685Y-71666550D01*
X143211736Y-71703254D01*
X143211792Y-71737718D01*
X143211854Y-71769759D01*
X143211922Y-71799198D01*
X143211994Y-71825852D01*
X143212071Y-71849541D01*
X143212153Y-71870082D01*
X143212238Y-71887295D01*
X143212327Y-71900999D01*
X143212418Y-71911012D01*
X143212513Y-71917152D01*
X143212610Y-71919240D01*
X143213577Y-71918675D01*
X143217789Y-71915992D01*
X143225095Y-71911254D01*
X143235237Y-71904632D01*
X143247956Y-71896297D01*
X143262991Y-71886418D01*
X143280084Y-71875166D01*
X143298976Y-71862712D01*
X143319407Y-71849226D01*
X143341119Y-71834878D01*
X143363851Y-71819839D01*
X143514014Y-71720438D01*
X143515076Y-72072825D01*
X143516137Y-72425212D01*
X143666479Y-72325735D01*
X143682646Y-72315042D01*
X143704692Y-72300471D01*
X143725531Y-72286711D01*
X143744903Y-72273932D01*
X143762550Y-72262305D01*
X143778214Y-72252000D01*
X143791635Y-72243187D01*
X143802555Y-72236036D01*
X143810715Y-72230718D01*
X143815857Y-72227402D01*
X143817720Y-72226259D01*
X143817749Y-72226401D01*
X143817857Y-72229539D01*
X143817961Y-72236599D01*
X143818058Y-72247332D01*
X143818148Y-72261489D01*
X143818231Y-72278824D01*
X143818306Y-72299086D01*
X143818371Y-72322028D01*
X143818428Y-72347402D01*
X143818473Y-72374958D01*
X143818508Y-72404449D01*
X143818531Y-72435627D01*
X143818541Y-72468242D01*
X143818537Y-72502046D01*
X143818456Y-72777834D01*
X143779798Y-72738552D01*
X143775614Y-72734289D01*
X143720323Y-72675950D01*
X143665143Y-72614068D01*
X143610570Y-72549266D01*
X143557103Y-72482167D01*
X143505239Y-72413394D01*
X143455475Y-72343569D01*
X143408308Y-72273317D01*
X143396490Y-72255011D01*
X143335675Y-72156169D01*
X143278431Y-72055046D01*
X143224765Y-71951663D01*
X143174687Y-71846042D01*
X143128205Y-71738205D01*
X143085326Y-71628171D01*
X143046060Y-71515964D01*
X143010416Y-71401605D01*
X142978400Y-71285114D01*
X142950022Y-71166513D01*
X142925291Y-71045823D01*
X142923520Y-71036375D01*
X142918897Y-71011231D01*
X142915160Y-70990094D01*
X142912294Y-70972868D01*
X142910284Y-70959455D01*
X142909116Y-70949759D01*
X142908775Y-70943682D01*
X142909245Y-70941127D01*
X142910191Y-70940733D01*
X142914879Y-70939478D01*
X142923042Y-70937583D01*
X142934236Y-70935136D01*
X142948015Y-70932228D01*
X142963935Y-70928949D01*
X142981551Y-70925387D01*
X143000419Y-70921632D01*
X143020094Y-70917775D01*
X143040131Y-70913904D01*
X143060085Y-70910109D01*
X143079513Y-70906480D01*
X143097969Y-70903106D01*
X143106064Y-70901646D01*
X143131635Y-70897056D01*
X143153800Y-70893112D01*
X143172431Y-70889835D01*
X143187401Y-70887247D01*
X143198581Y-70885372D01*
X143205844Y-70884230D01*
X143209061Y-70883844D01*
X143209190Y-70884052D01*
G37*
G36*
X143816904Y-70806660D02*
G01*
X143817117Y-70811768D01*
X143817328Y-70820769D01*
X143817535Y-70833468D01*
X143817735Y-70849669D01*
X143817929Y-70869177D01*
X143818115Y-70891794D01*
X143818291Y-70917326D01*
X143818456Y-70945577D01*
X143818609Y-70976352D01*
X143818748Y-71009453D01*
X143818873Y-71044687D01*
X143818981Y-71081856D01*
X143819072Y-71120766D01*
X143819144Y-71161220D01*
X143819681Y-71516938D01*
X143971452Y-71416482D01*
X144123224Y-71316026D01*
X144124285Y-71668537D01*
X144125347Y-72021047D01*
X144275678Y-71921444D01*
X144291881Y-71910712D01*
X144313921Y-71896126D01*
X144334753Y-71882352D01*
X144354120Y-71869561D01*
X144371762Y-71857922D01*
X144387421Y-71847607D01*
X144400839Y-71838785D01*
X144411756Y-71831627D01*
X144419914Y-71826304D01*
X144425055Y-71822985D01*
X144426919Y-71821840D01*
X144426938Y-71821990D01*
X144427008Y-71825183D01*
X144427076Y-71832414D01*
X144427142Y-71843529D01*
X144427207Y-71858373D01*
X144427269Y-71876791D01*
X144427330Y-71898628D01*
X144427387Y-71923729D01*
X144427443Y-71951940D01*
X144427495Y-71983105D01*
X144427544Y-72017070D01*
X144427590Y-72053679D01*
X144427633Y-72092778D01*
X144427672Y-72134213D01*
X144427707Y-72177827D01*
X144427738Y-72223467D01*
X144427765Y-72270977D01*
X144427787Y-72320202D01*
X144427805Y-72370988D01*
X144427818Y-72423179D01*
X144427826Y-72476622D01*
X144427829Y-72531160D01*
X144427828Y-72545775D01*
X144427823Y-72600037D01*
X144427812Y-72653162D01*
X144427794Y-72704994D01*
X144427770Y-72755380D01*
X144427740Y-72804164D01*
X144427704Y-72851191D01*
X144427664Y-72896307D01*
X144427618Y-72939356D01*
X144427568Y-72980184D01*
X144427513Y-73018635D01*
X144427454Y-73054556D01*
X144427390Y-73087791D01*
X144427323Y-73118185D01*
X144427253Y-73145583D01*
X144427179Y-73169830D01*
X144427102Y-73190772D01*
X144427023Y-73208254D01*
X144426941Y-73222121D01*
X144426856Y-73232217D01*
X144426770Y-73238388D01*
X144426681Y-73240480D01*
X144425572Y-73239999D01*
X144421281Y-73237748D01*
X144414392Y-73233971D01*
X144405543Y-73229020D01*
X144395372Y-73223247D01*
X144378134Y-73213255D01*
X144343726Y-73192579D01*
X144307520Y-73169959D01*
X144270406Y-73145974D01*
X144233271Y-73121201D01*
X144197004Y-73096221D01*
X144162494Y-73071611D01*
X144125347Y-73044608D01*
X144124285Y-72533672D01*
X144123224Y-72022735D01*
X143972909Y-72122379D01*
X143956821Y-72133037D01*
X143934738Y-72147640D01*
X143913840Y-72161431D01*
X143894387Y-72174239D01*
X143876640Y-72185892D01*
X143860861Y-72196221D01*
X143847311Y-72205055D01*
X143836249Y-72212223D01*
X143827937Y-72217554D01*
X143822636Y-72220878D01*
X143820607Y-72222024D01*
X143820397Y-72220664D01*
X143820150Y-72215246D01*
X143819919Y-72205808D01*
X143819705Y-72192467D01*
X143819508Y-72175343D01*
X143819328Y-72154554D01*
X143819168Y-72130219D01*
X143819026Y-72102456D01*
X143818905Y-72071384D01*
X143818804Y-72037122D01*
X143818724Y-71999788D01*
X143818666Y-71959500D01*
X143818631Y-71916378D01*
X143818619Y-71870540D01*
X143818613Y-71833439D01*
X143818595Y-71796328D01*
X143818565Y-71760592D01*
X143818524Y-71726451D01*
X143818473Y-71694123D01*
X143818413Y-71663831D01*
X143818343Y-71635793D01*
X143818265Y-71610230D01*
X143818180Y-71587361D01*
X143818088Y-71567407D01*
X143817989Y-71550587D01*
X143817885Y-71537122D01*
X143817776Y-71527232D01*
X143817663Y-71521137D01*
X143817547Y-71519056D01*
X143816609Y-71519605D01*
X143812441Y-71522272D01*
X143805180Y-71527003D01*
X143795085Y-71533625D01*
X143782416Y-71541968D01*
X143767431Y-71551860D01*
X143750390Y-71563130D01*
X143731552Y-71575608D01*
X143711176Y-71589122D01*
X143689522Y-71603500D01*
X143666848Y-71618573D01*
X143651135Y-71629019D01*
X143629135Y-71643632D01*
X143608333Y-71657434D01*
X143588989Y-71670252D01*
X143571361Y-71681917D01*
X143555708Y-71692256D01*
X143542290Y-71701100D01*
X143531366Y-71708276D01*
X143523195Y-71713614D01*
X143518036Y-71716942D01*
X143516148Y-71718089D01*
X143516071Y-71716955D01*
X143515969Y-71711879D01*
X143515869Y-71702909D01*
X143515774Y-71690244D01*
X143515682Y-71674078D01*
X143515595Y-71654611D01*
X143515513Y-71632037D01*
X143515436Y-71606554D01*
X143515366Y-71578360D01*
X143515302Y-71547649D01*
X143515245Y-71514620D01*
X143515195Y-71479469D01*
X143515153Y-71442393D01*
X143515120Y-71403589D01*
X143515096Y-71363253D01*
X143515081Y-71321583D01*
X143515076Y-71278775D01*
X143515076Y-70839460D01*
X143519852Y-70838411D01*
X143524101Y-70837704D01*
X143532167Y-70836596D01*
X143543565Y-70835145D01*
X143557851Y-70833401D01*
X143574580Y-70831413D01*
X143593309Y-70829230D01*
X143613594Y-70826901D01*
X143634991Y-70824476D01*
X143657056Y-70822003D01*
X143679344Y-70819532D01*
X143701412Y-70817112D01*
X143722815Y-70814793D01*
X143743111Y-70812623D01*
X143761854Y-70810652D01*
X143778600Y-70808929D01*
X143792907Y-70807504D01*
X143804329Y-70806424D01*
X143812422Y-70805741D01*
X143816744Y-70805502D01*
X143816904Y-70806660D01*
G37*
G36*
X146131242Y-70618114D02*
G01*
X146130859Y-70622881D01*
X146129548Y-70638415D01*
X146128006Y-70655785D01*
X146126299Y-70674318D01*
X146124493Y-70693340D01*
X146122655Y-70712180D01*
X146120850Y-70730164D01*
X146119145Y-70746621D01*
X146117606Y-70760876D01*
X146116300Y-70772258D01*
X146115293Y-70780093D01*
X146114349Y-70786985D01*
X146113587Y-70793205D01*
X146113279Y-70796646D01*
X146112675Y-70798071D01*
X146109523Y-70798328D01*
X146109468Y-70798312D01*
X146105600Y-70797390D01*
X146098070Y-70795778D01*
X146087371Y-70793572D01*
X146073998Y-70790870D01*
X146058445Y-70787767D01*
X146041204Y-70784361D01*
X146022770Y-70780749D01*
X146003637Y-70777027D01*
X145984299Y-70773292D01*
X145965249Y-70769641D01*
X145946981Y-70766171D01*
X145929989Y-70762978D01*
X145914767Y-70760159D01*
X145771544Y-70735298D01*
X145595526Y-70708533D01*
X145418445Y-70685727D01*
X145240639Y-70666921D01*
X145062446Y-70652153D01*
X144884205Y-70641462D01*
X144872775Y-70640912D01*
X144840349Y-70639405D01*
X144810100Y-70638096D01*
X144781446Y-70636971D01*
X144753801Y-70636019D01*
X144726583Y-70635227D01*
X144699207Y-70634581D01*
X144671089Y-70634070D01*
X144641645Y-70633680D01*
X144610292Y-70633399D01*
X144576446Y-70633213D01*
X144539523Y-70633112D01*
X144498938Y-70633081D01*
X144485738Y-70633084D01*
X144440407Y-70633167D01*
X144398537Y-70633370D01*
X144359515Y-70633711D01*
X144322725Y-70634205D01*
X144287554Y-70634870D01*
X144253389Y-70635723D01*
X144219616Y-70636779D01*
X144185619Y-70638057D01*
X144150787Y-70639572D01*
X144114504Y-70641341D01*
X144076157Y-70643381D01*
X144035133Y-70645709D01*
X143979008Y-70649189D01*
X143830686Y-70660406D01*
X143681582Y-70674557D01*
X143532412Y-70691551D01*
X143383891Y-70711295D01*
X143236736Y-70733697D01*
X143091660Y-70758663D01*
X142949381Y-70786102D01*
X142944314Y-70787133D01*
X142929171Y-70790199D01*
X142915611Y-70792924D01*
X142904148Y-70795205D01*
X142895298Y-70796940D01*
X142889576Y-70798027D01*
X142887497Y-70798365D01*
X142887241Y-70797087D01*
X142886580Y-70792123D01*
X142885609Y-70783961D01*
X142884391Y-70773183D01*
X142882986Y-70760368D01*
X142881458Y-70746095D01*
X142879869Y-70730945D01*
X142878279Y-70715497D01*
X142876751Y-70700332D01*
X142875346Y-70686028D01*
X142874128Y-70673166D01*
X142872648Y-70656672D01*
X142870939Y-70636351D01*
X142869183Y-70614078D01*
X142867437Y-70590615D01*
X143277336Y-70590615D01*
X143278008Y-70594167D01*
X143281601Y-70600065D01*
X143287077Y-70604634D01*
X143293044Y-70606469D01*
X143295393Y-70606252D01*
X143301668Y-70605374D01*
X143310998Y-70603918D01*
X143322750Y-70601986D01*
X143336290Y-70599679D01*
X143350984Y-70597102D01*
X143405157Y-70587815D01*
X143505521Y-70572346D01*
X143609348Y-70558484D01*
X143716333Y-70546243D01*
X143826170Y-70535640D01*
X143938555Y-70526691D01*
X144053182Y-70519412D01*
X144169745Y-70513820D01*
X144287940Y-70509928D01*
X144407460Y-70507755D01*
X144528002Y-70507316D01*
X144649258Y-70508626D01*
X144770925Y-70511702D01*
X144892696Y-70516559D01*
X144994640Y-70522079D01*
X145112791Y-70530301D01*
X145227963Y-70540332D01*
X145339974Y-70552152D01*
X145448645Y-70565742D01*
X145553794Y-70581084D01*
X145655241Y-70598156D01*
X145660785Y-70599148D01*
X145674158Y-70601487D01*
X145686093Y-70603500D01*
X145695906Y-70605075D01*
X145702913Y-70606102D01*
X145706430Y-70606469D01*
X145709030Y-70606220D01*
X145715797Y-70603184D01*
X145720745Y-70597624D01*
X145722664Y-70590717D01*
X145722621Y-70590367D01*
X145721395Y-70586582D01*
X145718469Y-70579148D01*
X145713836Y-70568048D01*
X145707489Y-70553264D01*
X145699419Y-70534778D01*
X145689618Y-70512574D01*
X145678080Y-70486633D01*
X145664795Y-70456937D01*
X145649757Y-70423470D01*
X145632957Y-70386213D01*
X145614388Y-70345150D01*
X145594042Y-70300261D01*
X145593648Y-70299392D01*
X145578705Y-70266463D01*
X145564190Y-70234482D01*
X145550205Y-70203673D01*
X145536851Y-70174261D01*
X145524230Y-70146469D01*
X145512443Y-70120520D01*
X145501593Y-70096640D01*
X145491780Y-70075051D01*
X145483107Y-70055977D01*
X145475676Y-70039642D01*
X145469588Y-70026271D01*
X145464945Y-70016086D01*
X145461848Y-70009312D01*
X145460399Y-70006172D01*
X145456987Y-70000027D01*
X145451009Y-69993543D01*
X145442975Y-69989487D01*
X145431857Y-69987176D01*
X145427357Y-69986477D01*
X145420030Y-69984858D01*
X145414875Y-69983121D01*
X145412193Y-69981421D01*
X145406524Y-69977391D01*
X145398486Y-69971460D01*
X145388584Y-69964004D01*
X145377322Y-69955400D01*
X145365204Y-69946025D01*
X145320840Y-69911489D01*
X145293946Y-69906532D01*
X145282764Y-69904594D01*
X145259473Y-69901135D01*
X145233432Y-69897897D01*
X145205607Y-69894987D01*
X145176967Y-69892509D01*
X145148479Y-69890571D01*
X145144826Y-69890372D01*
X145126461Y-69889670D01*
X145104857Y-69889232D01*
X145080826Y-69889048D01*
X145055180Y-69889107D01*
X145028731Y-69889396D01*
X145002291Y-69889905D01*
X144976673Y-69890622D01*
X144952687Y-69891535D01*
X144931145Y-69892633D01*
X144912861Y-69893904D01*
X144889090Y-69896006D01*
X144823600Y-69903243D01*
X144759843Y-69912420D01*
X144698267Y-69923452D01*
X144639316Y-69936254D01*
X144583437Y-69950740D01*
X144531077Y-69966826D01*
X144499535Y-69977364D01*
X144489019Y-69973230D01*
X144488327Y-69972960D01*
X144478164Y-69969302D01*
X144464787Y-69964899D01*
X144449035Y-69960001D01*
X144431744Y-69954858D01*
X144413750Y-69949719D01*
X144395893Y-69944833D01*
X144379007Y-69940450D01*
X144334289Y-69929926D01*
X144286265Y-69920165D01*
X144236568Y-69911640D01*
X144184575Y-69904252D01*
X144129666Y-69897906D01*
X144071218Y-69892504D01*
X144057969Y-69891642D01*
X144040677Y-69890908D01*
X144020548Y-69890346D01*
X143998226Y-69889954D01*
X143974354Y-69889730D01*
X143949576Y-69889670D01*
X143924535Y-69889771D01*
X143899875Y-69890032D01*
X143876241Y-69890449D01*
X143854274Y-69891019D01*
X143834620Y-69891740D01*
X143817921Y-69892610D01*
X143804822Y-69893625D01*
X143795075Y-69894610D01*
X143774897Y-69896830D01*
X143755337Y-69899210D01*
X143736911Y-69901672D01*
X143720135Y-69904139D01*
X143705524Y-69906533D01*
X143693594Y-69908776D01*
X143684860Y-69910789D01*
X143679838Y-69912496D01*
X143677850Y-69913803D01*
X143672777Y-69917480D01*
X143665271Y-69923090D01*
X143655831Y-69930256D01*
X143644954Y-69938602D01*
X143633139Y-69947750D01*
X143623355Y-69955348D01*
X143612404Y-69963820D01*
X143602860Y-69971167D01*
X143595208Y-69977019D01*
X143589931Y-69981005D01*
X143587514Y-69982753D01*
X143587247Y-69982896D01*
X143583326Y-69984174D01*
X143576675Y-69985749D01*
X143568571Y-69987312D01*
X143560384Y-69989002D01*
X143552616Y-69991633D01*
X143547700Y-69994965D01*
X143546393Y-69997180D01*
X143543427Y-70003046D01*
X143538960Y-70012271D01*
X143533106Y-70024599D01*
X143525983Y-70039773D01*
X143517709Y-70057533D01*
X143508399Y-70077624D01*
X143498170Y-70099787D01*
X143487140Y-70123766D01*
X143475426Y-70149302D01*
X143463143Y-70176138D01*
X143450410Y-70204017D01*
X143437343Y-70232681D01*
X143424059Y-70261873D01*
X143410674Y-70291335D01*
X143397306Y-70320810D01*
X143384071Y-70350040D01*
X143371086Y-70378768D01*
X143358469Y-70406737D01*
X143346336Y-70433688D01*
X143334804Y-70459365D01*
X143323989Y-70483509D01*
X143314009Y-70505864D01*
X143304981Y-70526172D01*
X143297020Y-70544176D01*
X143290245Y-70559618D01*
X143284773Y-70572240D01*
X143280719Y-70581785D01*
X143278201Y-70587996D01*
X143277336Y-70590615D01*
X142867437Y-70590615D01*
X142867346Y-70589399D01*
X142865395Y-70561858D01*
X142863296Y-70530998D01*
X142861014Y-70496365D01*
X142860922Y-70494830D01*
X142860538Y-70485781D01*
X142860164Y-70472766D01*
X142859802Y-70456001D01*
X142859454Y-70435703D01*
X142859124Y-70412090D01*
X142858815Y-70385378D01*
X142858528Y-70355783D01*
X142858266Y-70323524D01*
X142858031Y-70288817D01*
X142857827Y-70251879D01*
X142857656Y-70212927D01*
X142856707Y-69966542D01*
X142861525Y-69953549D01*
X142864341Y-69947281D01*
X142872377Y-69935051D01*
X142882884Y-69923668D01*
X142894766Y-69914235D01*
X142906928Y-69907856D01*
X142907536Y-69907634D01*
X142914430Y-69905569D01*
X142925102Y-69902865D01*
X142939196Y-69899592D01*
X142956354Y-69895821D01*
X142976217Y-69891620D01*
X142998428Y-69887060D01*
X143022629Y-69882210D01*
X143048463Y-69877139D01*
X143075572Y-69871918D01*
X143103597Y-69866615D01*
X143132181Y-69861302D01*
X143160967Y-69856046D01*
X143189596Y-69850918D01*
X143217711Y-69845988D01*
X143244954Y-69841325D01*
X143270968Y-69836998D01*
X143359592Y-69823003D01*
X143487313Y-69804651D01*
X143614347Y-69788602D01*
X143741443Y-69774783D01*
X143869351Y-69763122D01*
X143998820Y-69753545D01*
X144130601Y-69745980D01*
X144265444Y-69740353D01*
X144271595Y-69740158D01*
X144289843Y-69739708D01*
X144311654Y-69739315D01*
X144336541Y-69738980D01*
X144364014Y-69738703D01*
X144393587Y-69738483D01*
X144424771Y-69738322D01*
X144457078Y-69738218D01*
X144490020Y-69738171D01*
X144523109Y-69738183D01*
X144555857Y-69738252D01*
X144587776Y-69738379D01*
X144618379Y-69738564D01*
X144647176Y-69738806D01*
X144673680Y-69739106D01*
X144697404Y-69739464D01*
X144717858Y-69739880D01*
X144734556Y-69740353D01*
X144766055Y-69741486D01*
X144907950Y-69747974D01*
X145046964Y-69756669D01*
X145183751Y-69767644D01*
X145318967Y-69780977D01*
X145453265Y-69796742D01*
X145587299Y-69815014D01*
X145721725Y-69835870D01*
X145857196Y-69859385D01*
X145994367Y-69885633D01*
X146004195Y-69887603D01*
X146026937Y-69892216D01*
X146046057Y-69896221D01*
X146061953Y-69899744D01*
X146075022Y-69902910D01*
X146085661Y-69905847D01*
X146094268Y-69908678D01*
X146101240Y-69911532D01*
X146106974Y-69914532D01*
X146111868Y-69917806D01*
X146116318Y-69921479D01*
X146120723Y-69925678D01*
X146125933Y-69931695D01*
X146132235Y-69940683D01*
X146137278Y-69949658D01*
X146144016Y-69963846D01*
X146144678Y-70114180D01*
X146144770Y-70139552D01*
X146144805Y-70200460D01*
X146144555Y-70257597D01*
X146144011Y-70311291D01*
X146143164Y-70361866D01*
X146142006Y-70409651D01*
X146140528Y-70454970D01*
X146138722Y-70498149D01*
X146136578Y-70539516D01*
X146134087Y-70579395D01*
X146133255Y-70590717D01*
X146131242Y-70618114D01*
G37*
G36*
X145902240Y-71664619D02*
G01*
X145858603Y-71772925D01*
X145811423Y-71879075D01*
X145760730Y-71983010D01*
X145706556Y-72084668D01*
X145648931Y-72183987D01*
X145587885Y-72280908D01*
X145523450Y-72375368D01*
X145455655Y-72467308D01*
X145384532Y-72556666D01*
X145310112Y-72643381D01*
X145281651Y-72674865D01*
X145213448Y-72746801D01*
X145142834Y-72816556D01*
X145070122Y-72883874D01*
X144995625Y-72948498D01*
X144919652Y-73010172D01*
X144842516Y-73068638D01*
X144764529Y-73123640D01*
X144686003Y-73174922D01*
X144607248Y-73222226D01*
X144598687Y-73227107D01*
X144589176Y-73232441D01*
X144581439Y-73236677D01*
X144576109Y-73239472D01*
X144573815Y-73240480D01*
X144573812Y-73240478D01*
X144573716Y-73238239D01*
X144573621Y-73231887D01*
X144573528Y-73221540D01*
X144573437Y-73207314D01*
X144573347Y-73189327D01*
X144573260Y-73167697D01*
X144573175Y-73142541D01*
X144573092Y-73113977D01*
X144573011Y-73082122D01*
X144572934Y-73047093D01*
X144572859Y-73009009D01*
X144572787Y-72967986D01*
X144572718Y-72924143D01*
X144572653Y-72877596D01*
X144572591Y-72828463D01*
X144572533Y-72776861D01*
X144572478Y-72722909D01*
X144572427Y-72666723D01*
X144572381Y-72608421D01*
X144572338Y-72548121D01*
X144572300Y-72485940D01*
X144572267Y-72421995D01*
X144572238Y-72356405D01*
X144572214Y-72289285D01*
X144572196Y-72220755D01*
X144572182Y-72150932D01*
X144572174Y-72079932D01*
X144572171Y-72007873D01*
X144572171Y-71586963D01*
X144678040Y-71586963D01*
X144696330Y-71595512D01*
X144714619Y-71604062D01*
X144713974Y-71612466D01*
X144713915Y-71613227D01*
X144713414Y-71617028D01*
X144712124Y-71619787D01*
X144709272Y-71622195D01*
X144704086Y-71624943D01*
X144695794Y-71628720D01*
X144678259Y-71636570D01*
X144678813Y-71644849D01*
X144679366Y-71653128D01*
X144699001Y-71659205D01*
X144718636Y-71665282D01*
X144718636Y-71673529D01*
X144718636Y-71673774D01*
X144718441Y-71677712D01*
X144717402Y-71680697D01*
X144714814Y-71683506D01*
X144709976Y-71686914D01*
X144702185Y-71691699D01*
X144698542Y-71693901D01*
X144691836Y-71697985D01*
X144687060Y-71700936D01*
X144685067Y-71702228D01*
X144684989Y-71702378D01*
X144685043Y-71705217D01*
X144685799Y-71710276D01*
X144687198Y-71717716D01*
X144707142Y-71721463D01*
X144713025Y-71722569D01*
X144720212Y-71724110D01*
X144724663Y-71725754D01*
X144727271Y-71728110D01*
X144728930Y-71731787D01*
X144730533Y-71737393D01*
X144730035Y-71739215D01*
X144726550Y-71743573D01*
X144720123Y-71749701D01*
X144711105Y-71757271D01*
X144699851Y-71765952D01*
X144699766Y-71766120D01*
X144700128Y-71768900D01*
X144701526Y-71773812D01*
X144703944Y-71781119D01*
X144724223Y-71782636D01*
X144744503Y-71784152D01*
X144747650Y-71791666D01*
X144750797Y-71799179D01*
X144736711Y-71813338D01*
X144732766Y-71817349D01*
X144727579Y-71822999D01*
X144724734Y-71826990D01*
X144723725Y-71830113D01*
X144724050Y-71833158D01*
X144725587Y-71837280D01*
X144727808Y-71840258D01*
X144728818Y-71840564D01*
X144733522Y-71841029D01*
X144740852Y-71841231D01*
X144749720Y-71841129D01*
X144769297Y-71840561D01*
X144772709Y-71847143D01*
X144774000Y-71849702D01*
X144774916Y-71852528D01*
X144774564Y-71855369D01*
X144772608Y-71859056D01*
X144768713Y-71864420D01*
X144762543Y-71872293D01*
X144751970Y-71885691D01*
X144755498Y-71893071D01*
X144756255Y-71894575D01*
X144759417Y-71898780D01*
X144762711Y-71899394D01*
X144763167Y-71899275D01*
X144767624Y-71898363D01*
X144774710Y-71897110D01*
X144783116Y-71895751D01*
X144790362Y-71894663D01*
X144796010Y-71894083D01*
X144799418Y-71894404D01*
X144801649Y-71895753D01*
X144803765Y-71898261D01*
X144806501Y-71902516D01*
X144807741Y-71905931D01*
X144807577Y-71906699D01*
X144805798Y-71910722D01*
X144802475Y-71916947D01*
X144798122Y-71924384D01*
X144793869Y-71931632D01*
X144790965Y-71937527D01*
X144789968Y-71941458D01*
X144790577Y-71944219D01*
X144790742Y-71944525D01*
X144793449Y-71948722D01*
X144796537Y-71951006D01*
X144800906Y-71951486D01*
X144807455Y-71950274D01*
X144817086Y-71947481D01*
X144835450Y-71941802D01*
X144841577Y-71947658D01*
X144847705Y-71953514D01*
X144839198Y-71972631D01*
X144830692Y-71991748D01*
X144835944Y-71996986D01*
X144841195Y-72002225D01*
X144858558Y-71994610D01*
X144862056Y-71993099D01*
X144869692Y-71989974D01*
X144875568Y-71987807D01*
X144878631Y-71986996D01*
X144878834Y-71987009D01*
X144882187Y-71988672D01*
X144886316Y-71992277D01*
X144891291Y-71997559D01*
X144885585Y-72015918D01*
X144879878Y-72034277D01*
X144884534Y-72039221D01*
X144884661Y-72039355D01*
X144888474Y-72042756D01*
X144891205Y-72044165D01*
X144891937Y-72043966D01*
X144895802Y-72042125D01*
X144901918Y-72038767D01*
X144909339Y-72034403D01*
X144925458Y-72024641D01*
X144932427Y-72028384D01*
X144934826Y-72029747D01*
X144937447Y-72031915D01*
X144938788Y-72034869D01*
X144938963Y-72039452D01*
X144938085Y-72046504D01*
X144936267Y-72056869D01*
X144935254Y-72062525D01*
X144934410Y-72068490D01*
X144934519Y-72072073D01*
X144935675Y-72074353D01*
X144937971Y-72076407D01*
X144941732Y-72078842D01*
X144945387Y-72080113D01*
X144946219Y-72079900D01*
X144950153Y-72077752D01*
X144956059Y-72073783D01*
X144963007Y-72068600D01*
X144977818Y-72057040D01*
X144985367Y-72060630D01*
X144992915Y-72064221D01*
X144992088Y-72084764D01*
X144992001Y-72086945D01*
X144991731Y-72095690D01*
X144991859Y-72101251D01*
X144992542Y-72104500D01*
X144993939Y-72106311D01*
X144996207Y-72107555D01*
X144996561Y-72107715D01*
X145000522Y-72109182D01*
X145003906Y-72109227D01*
X145007589Y-72107440D01*
X145012450Y-72103413D01*
X145019366Y-72096733D01*
X145032586Y-72083663D01*
X145040877Y-72086140D01*
X145042363Y-72086589D01*
X145046314Y-72088115D01*
X145048508Y-72090354D01*
X145049672Y-72094473D01*
X145050533Y-72101639D01*
X145051085Y-72107530D01*
X145051670Y-72115708D01*
X145051897Y-72121812D01*
X145051994Y-72124337D01*
X145053431Y-72128591D01*
X145057342Y-72131029D01*
X145057850Y-72131221D01*
X145062128Y-72132510D01*
X145065573Y-72132341D01*
X145069023Y-72130224D01*
X145073311Y-72125670D01*
X145079273Y-72118190D01*
X145084138Y-72112140D01*
X145089303Y-72106769D01*
X145093671Y-72104160D01*
X145098105Y-72103857D01*
X145103469Y-72105404D01*
X145104761Y-72105981D01*
X145106993Y-72107869D01*
X145108759Y-72111345D01*
X145110424Y-72117276D01*
X145112352Y-72126529D01*
X145116085Y-72145702D01*
X145123360Y-72147063D01*
X145124197Y-72147214D01*
X145129010Y-72147814D01*
X145131360Y-72147641D01*
X145131742Y-72147099D01*
X145133918Y-72143676D01*
X145137499Y-72137886D01*
X145141946Y-72130592D01*
X145151805Y-72114327D01*
X145159694Y-72115517D01*
X145160889Y-72115710D01*
X145166127Y-72116868D01*
X145168972Y-72118019D01*
X145169259Y-72118441D01*
X145170807Y-72122046D01*
X145173066Y-72128328D01*
X145175654Y-72136248D01*
X145177636Y-72142444D01*
X145179874Y-72148442D01*
X145181951Y-72151877D01*
X145184465Y-72153636D01*
X145188010Y-72154605D01*
X145188616Y-72154725D01*
X145193554Y-72155436D01*
X145196187Y-72155345D01*
X145196558Y-72154861D01*
X145198414Y-72151352D01*
X145201287Y-72145269D01*
X145204730Y-72137542D01*
X145212159Y-72120439D01*
X145221711Y-72120434D01*
X145231263Y-72120429D01*
X145239505Y-72138407D01*
X145241564Y-72142804D01*
X145245019Y-72149730D01*
X145247667Y-72154453D01*
X145249057Y-72156135D01*
X145251867Y-72155599D01*
X145257449Y-72154313D01*
X145261091Y-72152507D01*
X145263609Y-72149303D01*
X145265817Y-72143827D01*
X145268530Y-72135202D01*
X145274080Y-72117214D01*
X145282990Y-72116004D01*
X145291901Y-72114793D01*
X145301913Y-72131448D01*
X145302552Y-72132510D01*
X145307133Y-72139964D01*
X145310360Y-72144493D01*
X145312950Y-72146748D01*
X145315620Y-72147380D01*
X145319087Y-72147041D01*
X145319731Y-72146943D01*
X145324614Y-72146001D01*
X145327050Y-72145180D01*
X145327281Y-72144646D01*
X145328252Y-72140862D01*
X145329651Y-72134332D01*
X145331260Y-72126054D01*
X145334668Y-72107727D01*
X145342980Y-72105494D01*
X145344750Y-72105053D01*
X145350046Y-72104161D01*
X145353029Y-72104332D01*
X145353366Y-72104610D01*
X145355952Y-72107493D01*
X145360133Y-72112650D01*
X145365185Y-72119195D01*
X145368551Y-72123554D01*
X145373526Y-72129186D01*
X145377552Y-72132001D01*
X145381495Y-72132493D01*
X145386219Y-72131153D01*
X145387004Y-72130793D01*
X145388891Y-72128992D01*
X145390284Y-72125462D01*
X145391433Y-72119369D01*
X145392587Y-72109882D01*
X145394710Y-72090254D01*
X145402847Y-72087027D01*
X145410985Y-72083801D01*
X145425135Y-72097654D01*
X145439286Y-72111508D01*
X145445877Y-72108300D01*
X145452467Y-72105091D01*
X145451481Y-72085744D01*
X145450495Y-72066397D01*
X145456893Y-72062692D01*
X145457381Y-72062413D01*
X145462389Y-72059984D01*
X145465863Y-72058986D01*
X145466314Y-72059076D01*
X145469793Y-72060911D01*
X145475326Y-72064623D01*
X145481941Y-72069573D01*
X145483716Y-72070946D01*
X145490167Y-72075629D01*
X145495304Y-72078897D01*
X145498145Y-72080113D01*
X145501195Y-72079129D01*
X145505618Y-72076400D01*
X145507691Y-72074693D01*
X145509068Y-72072653D01*
X145509392Y-72069575D01*
X145508745Y-72064419D01*
X145507210Y-72056146D01*
X145505892Y-72049250D01*
X145504699Y-72042092D01*
X145504502Y-72037518D01*
X145505451Y-72034591D01*
X145507695Y-72032371D01*
X145511385Y-72029917D01*
X145518689Y-72025199D01*
X145534769Y-72034682D01*
X145537978Y-72036555D01*
X145544871Y-72040437D01*
X145549979Y-72043114D01*
X145552380Y-72044094D01*
X145552411Y-72044092D01*
X145555019Y-72042759D01*
X145559067Y-72039742D01*
X145564223Y-72035461D01*
X145559778Y-72021286D01*
X145557411Y-72013692D01*
X145555303Y-72006843D01*
X145554003Y-72002521D01*
X145553690Y-72000241D01*
X145555230Y-71996652D01*
X145559944Y-71992400D01*
X145567214Y-71986869D01*
X145584721Y-71994547D01*
X145602227Y-72002225D01*
X145607616Y-71996850D01*
X145613004Y-71991475D01*
X145605225Y-71974259D01*
X145597447Y-71957042D01*
X145602995Y-71949786D01*
X145604480Y-71947905D01*
X145607893Y-71944073D01*
X145609883Y-71942562D01*
X145610308Y-71942633D01*
X145613917Y-71943587D01*
X145620195Y-71945417D01*
X145628102Y-71947824D01*
X145644981Y-71953053D01*
X145649860Y-71948482D01*
X145649927Y-71948419D01*
X145653327Y-71944633D01*
X145654738Y-71941900D01*
X145654602Y-71941335D01*
X145652894Y-71937678D01*
X145649643Y-71931741D01*
X145645368Y-71924496D01*
X145635998Y-71909101D01*
X145641199Y-71901466D01*
X145643071Y-71898724D01*
X145645355Y-71895994D01*
X145647974Y-71894617D01*
X145651891Y-71894428D01*
X145658070Y-71895261D01*
X145667474Y-71896951D01*
X145673144Y-71897961D01*
X145679124Y-71898803D01*
X145682717Y-71898695D01*
X145685002Y-71897542D01*
X145687062Y-71895251D01*
X145689415Y-71891840D01*
X145690344Y-71888355D01*
X145689255Y-71884329D01*
X145685891Y-71878879D01*
X145679992Y-71871122D01*
X145669161Y-71857374D01*
X145672959Y-71848972D01*
X145676758Y-71840570D01*
X145695706Y-71841168D01*
X145700098Y-71841291D01*
X145707863Y-71841306D01*
X145712737Y-71840820D01*
X145715667Y-71839684D01*
X145717598Y-71837751D01*
X145719349Y-71834944D01*
X145720169Y-71831204D01*
X145718734Y-71827055D01*
X145714718Y-71821719D01*
X145707794Y-71814419D01*
X145695047Y-71801590D01*
X145698510Y-71792797D01*
X145701972Y-71784004D01*
X145720733Y-71782540D01*
X145739493Y-71781076D01*
X145741940Y-71773681D01*
X145742008Y-71773472D01*
X145743190Y-71767852D01*
X145742389Y-71764949D01*
X145742165Y-71764793D01*
X145739160Y-71762529D01*
X145733978Y-71758508D01*
X145727593Y-71753486D01*
X145714794Y-71743359D01*
X145716917Y-71734103D01*
X145719041Y-71724846D01*
X145737613Y-71721248D01*
X145746256Y-71719507D01*
X145751900Y-71718034D01*
X145755073Y-71716458D01*
X145756640Y-71714343D01*
X145757467Y-71711253D01*
X145758371Y-71706356D01*
X145758750Y-71703520D01*
X145758434Y-71703067D01*
X145755442Y-71700730D01*
X145749964Y-71697074D01*
X145742836Y-71692669D01*
X145726923Y-71683153D01*
X145728249Y-71673624D01*
X145728658Y-71670759D01*
X145729417Y-71665869D01*
X145729835Y-71663805D01*
X145730123Y-71663682D01*
X145733324Y-71662636D01*
X145739295Y-71660790D01*
X145747075Y-71658444D01*
X145764056Y-71653375D01*
X145764640Y-71644973D01*
X145765225Y-71636570D01*
X145748190Y-71628790D01*
X145731155Y-71621010D01*
X145731155Y-71612288D01*
X145731155Y-71603566D01*
X145748121Y-71595718D01*
X145765086Y-71587871D01*
X145764571Y-71579481D01*
X145764056Y-71571091D01*
X145748136Y-71566134D01*
X145746366Y-71565576D01*
X145738937Y-71563087D01*
X145733400Y-71560993D01*
X145730843Y-71559702D01*
X145730536Y-71559228D01*
X145729280Y-71555470D01*
X145728093Y-71549758D01*
X145726716Y-71541289D01*
X145742861Y-71531760D01*
X145744017Y-71531078D01*
X145751291Y-71526694D01*
X145755640Y-71523621D01*
X145757712Y-71521115D01*
X145758158Y-71518430D01*
X145757627Y-71514821D01*
X145757445Y-71513863D01*
X145756419Y-71509098D01*
X145755727Y-71506878D01*
X145755289Y-71506713D01*
X145751696Y-71505868D01*
X145745313Y-71504562D01*
X145737130Y-71503001D01*
X145719055Y-71499656D01*
X145716925Y-71490369D01*
X145714794Y-71481082D01*
X145727593Y-71470955D01*
X145728723Y-71470062D01*
X145734972Y-71465157D01*
X145739852Y-71461382D01*
X145742389Y-71459492D01*
X145742458Y-71459442D01*
X145743177Y-71456417D01*
X145741923Y-71450711D01*
X145739460Y-71443266D01*
X145720690Y-71441784D01*
X145701919Y-71440302D01*
X145698483Y-71431577D01*
X145695047Y-71422852D01*
X145708212Y-71409602D01*
X145721377Y-71396352D01*
X145717999Y-71389286D01*
X145714621Y-71382219D01*
X145695723Y-71383120D01*
X145676825Y-71384021D01*
X145672939Y-71375425D01*
X145669053Y-71366829D01*
X145680093Y-71352990D01*
X145684274Y-71347589D01*
X145688241Y-71341459D01*
X145689668Y-71336797D01*
X145688776Y-71332635D01*
X145685786Y-71328003D01*
X145684970Y-71327020D01*
X145683063Y-71325714D01*
X145680030Y-71325373D01*
X145674863Y-71325969D01*
X145666552Y-71327474D01*
X145664696Y-71327826D01*
X145656965Y-71329241D01*
X145651104Y-71330235D01*
X145648260Y-71330610D01*
X145647587Y-71330340D01*
X145644767Y-71327639D01*
X145641199Y-71322975D01*
X145635998Y-71315340D01*
X145645521Y-71299695D01*
X145655043Y-71284050D01*
X145650501Y-71277687D01*
X145649761Y-71276660D01*
X145646866Y-71272861D01*
X145645416Y-71271324D01*
X145644959Y-71271428D01*
X145641403Y-71272423D01*
X145635145Y-71274245D01*
X145627143Y-71276617D01*
X145623619Y-71277667D01*
X145616260Y-71279840D01*
X145611062Y-71281347D01*
X145608978Y-71281911D01*
X145608651Y-71281636D01*
X145606443Y-71279047D01*
X145602962Y-71274611D01*
X145597380Y-71267312D01*
X145602897Y-71255026D01*
X145606768Y-71246377D01*
X145609418Y-71239997D01*
X145610587Y-71235855D01*
X145610384Y-71233094D01*
X145608918Y-71230860D01*
X145606298Y-71228298D01*
X145600610Y-71222877D01*
X145583918Y-71230229D01*
X145567227Y-71237582D01*
X145560038Y-71232113D01*
X145558180Y-71230679D01*
X145554367Y-71227574D01*
X145552850Y-71226066D01*
X145552954Y-71225604D01*
X145553951Y-71222043D01*
X145555778Y-71215790D01*
X145558156Y-71207802D01*
X145559215Y-71204269D01*
X145561390Y-71196966D01*
X145562898Y-71191840D01*
X145563463Y-71189830D01*
X145563358Y-71189701D01*
X145561164Y-71187915D01*
X145557024Y-71184794D01*
X145550585Y-71180045D01*
X145534519Y-71189775D01*
X145518452Y-71199505D01*
X145511240Y-71194018D01*
X145508390Y-71191871D01*
X145505857Y-71189597D01*
X145504627Y-71187087D01*
X145504546Y-71183357D01*
X145505459Y-71177419D01*
X145507212Y-71168288D01*
X145507654Y-71165981D01*
X145509051Y-71158692D01*
X145510028Y-71153583D01*
X145510396Y-71151644D01*
X145510235Y-71151548D01*
X145507706Y-71150162D01*
X145503080Y-71147666D01*
X145495764Y-71143736D01*
X145482083Y-71154596D01*
X145480054Y-71156188D01*
X145473715Y-71160913D01*
X145468795Y-71164214D01*
X145466221Y-71165455D01*
X145465935Y-71165432D01*
X145462372Y-71164224D01*
X145457327Y-71161750D01*
X145450612Y-71158044D01*
X145451451Y-71139294D01*
X145452290Y-71120544D01*
X145445205Y-71117174D01*
X145438121Y-71113804D01*
X145424550Y-71127221D01*
X145410979Y-71140638D01*
X145402844Y-71137417D01*
X145394710Y-71134196D01*
X145392852Y-71115163D01*
X145390993Y-71096129D01*
X145383386Y-71093800D01*
X145382091Y-71093433D01*
X145377196Y-71092622D01*
X145374631Y-71093155D01*
X145374260Y-71093690D01*
X145370854Y-71098248D01*
X145366277Y-71104013D01*
X145361287Y-71110077D01*
X145356641Y-71115531D01*
X145353097Y-71119467D01*
X145351412Y-71120978D01*
X145351096Y-71120947D01*
X145347710Y-71120213D01*
X145342357Y-71118812D01*
X145339673Y-71118024D01*
X145336646Y-71116555D01*
X145334754Y-71113968D01*
X145333388Y-71109241D01*
X145331940Y-71101356D01*
X145330182Y-71091969D01*
X145328397Y-71085288D01*
X145326290Y-71081290D01*
X145323436Y-71079189D01*
X145319410Y-71078199D01*
X145319017Y-71078143D01*
X145315298Y-71077990D01*
X145312201Y-71079105D01*
X145309065Y-71082102D01*
X145305230Y-71087595D01*
X145300034Y-71096198D01*
X145297999Y-71099636D01*
X145294686Y-71104698D01*
X145291910Y-71107236D01*
X145288578Y-71108027D01*
X145283598Y-71107843D01*
X145274374Y-71107227D01*
X145268654Y-71089230D01*
X145262934Y-71071232D01*
X145254528Y-71070645D01*
X145246122Y-71070057D01*
X145238748Y-71087054D01*
X145231374Y-71104051D01*
X145222137Y-71104051D01*
X145212900Y-71104051D01*
X145205100Y-71087059D01*
X145197300Y-71070066D01*
X145188961Y-71070649D01*
X145180621Y-71071232D01*
X145175511Y-71088171D01*
X145174689Y-71090852D01*
X145172239Y-71098372D01*
X145170216Y-71103910D01*
X145168992Y-71106422D01*
X145168718Y-71106617D01*
X145165266Y-71107810D01*
X145159788Y-71108909D01*
X145158715Y-71109069D01*
X145155298Y-71109339D01*
X145152644Y-71108551D01*
X145150012Y-71106066D01*
X145146656Y-71101244D01*
X145141836Y-71093445D01*
X145136993Y-71085655D01*
X145133583Y-71080830D01*
X145130945Y-71078374D01*
X145128388Y-71077647D01*
X145125220Y-71078005D01*
X145120235Y-71079251D01*
X145117176Y-71080610D01*
X145116864Y-71081086D01*
X145115549Y-71084868D01*
X145113852Y-71091384D01*
X145112061Y-71099568D01*
X145110635Y-71106054D01*
X145108187Y-71113667D01*
X145105078Y-71118215D01*
X145100721Y-71120416D01*
X145094525Y-71120990D01*
X145094075Y-71120904D01*
X145090770Y-71118662D01*
X145085857Y-71113974D01*
X145080068Y-71107632D01*
X145074135Y-71100428D01*
X145068792Y-71093155D01*
X145068423Y-71092876D01*
X145065062Y-71092733D01*
X145059770Y-71093882D01*
X145054821Y-71095779D01*
X145052427Y-71098416D01*
X145051897Y-71103037D01*
X145051777Y-71106943D01*
X145051281Y-71114544D01*
X145050533Y-71122803D01*
X145050285Y-71125136D01*
X145049414Y-71131350D01*
X145048040Y-71134838D01*
X145045437Y-71136766D01*
X145040877Y-71138301D01*
X145032586Y-71140779D01*
X145019223Y-71127568D01*
X145005860Y-71114356D01*
X144998869Y-71117202D01*
X144991878Y-71120047D01*
X144992285Y-71140187D01*
X144992692Y-71160326D01*
X144985346Y-71163821D01*
X144977999Y-71167316D01*
X144963139Y-71155799D01*
X144960080Y-71153451D01*
X144953743Y-71148754D01*
X144949041Y-71145499D01*
X144946818Y-71144281D01*
X144946687Y-71144294D01*
X144943874Y-71145613D01*
X144939497Y-71148443D01*
X144933637Y-71152606D01*
X144936404Y-71168029D01*
X144937528Y-71174409D01*
X144938762Y-71182654D01*
X144938990Y-71188088D01*
X144938091Y-71191565D01*
X144935943Y-71193937D01*
X144932427Y-71196057D01*
X144925458Y-71199800D01*
X144909148Y-71189923D01*
X144892837Y-71180045D01*
X144886341Y-71184836D01*
X144885196Y-71185725D01*
X144881671Y-71189282D01*
X144880663Y-71191833D01*
X144880808Y-71192252D01*
X144882012Y-71196074D01*
X144883975Y-71202534D01*
X144886351Y-71210498D01*
X144891221Y-71226957D01*
X144886282Y-71232201D01*
X144885937Y-71232561D01*
X144881903Y-71236023D01*
X144878883Y-71237446D01*
X144878188Y-71237332D01*
X144874068Y-71235993D01*
X144867524Y-71233467D01*
X144859618Y-71230152D01*
X144842813Y-71222859D01*
X144837153Y-71228261D01*
X144831493Y-71233664D01*
X144838765Y-71250611D01*
X144840132Y-71253784D01*
X144843340Y-71261132D01*
X144845778Y-71266576D01*
X144847003Y-71269117D01*
X144847063Y-71269611D01*
X144845450Y-71272531D01*
X144841792Y-71276579D01*
X144835615Y-71282482D01*
X144817676Y-71276903D01*
X144813975Y-71275757D01*
X144806505Y-71273486D01*
X144801141Y-71271912D01*
X144798856Y-71271324D01*
X144798660Y-71271401D01*
X144796567Y-71273510D01*
X144793321Y-71277601D01*
X144788668Y-71283878D01*
X144798228Y-71300008D01*
X144800090Y-71303199D01*
X144804016Y-71310309D01*
X144806726Y-71315774D01*
X144807718Y-71318610D01*
X144806445Y-71321809D01*
X144803418Y-71326147D01*
X144801985Y-71327804D01*
X144799712Y-71329630D01*
X144796697Y-71330287D01*
X144791794Y-71329925D01*
X144783854Y-71328694D01*
X144783485Y-71328633D01*
X144775318Y-71327240D01*
X144768428Y-71325981D01*
X144764274Y-71325121D01*
X144762815Y-71324926D01*
X144759491Y-71326401D01*
X144756127Y-71331300D01*
X144752225Y-71338533D01*
X144764087Y-71353847D01*
X144766787Y-71357358D01*
X144771488Y-71363611D01*
X144774736Y-71368126D01*
X144775948Y-71370105D01*
X144775931Y-71370233D01*
X144774845Y-71372933D01*
X144772583Y-71377542D01*
X144769218Y-71384034D01*
X144748998Y-71383152D01*
X144728778Y-71382269D01*
X144725410Y-71389314D01*
X144722043Y-71396358D01*
X144736420Y-71410810D01*
X144750797Y-71425262D01*
X144747673Y-71432719D01*
X144744549Y-71440177D01*
X144724466Y-71441679D01*
X144704382Y-71443181D01*
X144702026Y-71450838D01*
X144701603Y-71452243D01*
X144700388Y-71456796D01*
X144700131Y-71458769D01*
X144700700Y-71459199D01*
X144703909Y-71461716D01*
X144709273Y-71465960D01*
X144716036Y-71471333D01*
X144721861Y-71476108D01*
X144727337Y-71481209D01*
X144730022Y-71484862D01*
X144730364Y-71487577D01*
X144729727Y-71489837D01*
X144728167Y-71495381D01*
X144726856Y-71497302D01*
X144723362Y-71499134D01*
X144717038Y-71500940D01*
X144707189Y-71502969D01*
X144687293Y-71506707D01*
X144686049Y-71514358D01*
X144685858Y-71515571D01*
X144685268Y-71520253D01*
X144685269Y-71522295D01*
X144693558Y-71527367D01*
X144703114Y-71533265D01*
X144709873Y-71537601D01*
X144714318Y-71540776D01*
X144716933Y-71543189D01*
X144718201Y-71545240D01*
X144718608Y-71547327D01*
X144718636Y-71549852D01*
X144718598Y-71552106D01*
X144718042Y-71555422D01*
X144716255Y-71557936D01*
X144712530Y-71560153D01*
X144706157Y-71562579D01*
X144696428Y-71565721D01*
X144679366Y-71571097D01*
X144678703Y-71579030D01*
X144678040Y-71586963D01*
X144572171Y-71586963D01*
X144572171Y-70775267D01*
X144638505Y-70776704D01*
X144724306Y-70778952D01*
X144868997Y-70784590D01*
X145010946Y-70792522D01*
X145150711Y-70802802D01*
X145288847Y-70815482D01*
X145425910Y-70830617D01*
X145562457Y-70848259D01*
X145699044Y-70868461D01*
X145836227Y-70891276D01*
X145841519Y-70892208D01*
X145860500Y-70895600D01*
X145880896Y-70899314D01*
X145902307Y-70903272D01*
X145924335Y-70907395D01*
X145946579Y-70911607D01*
X145968641Y-70915828D01*
X145990121Y-70919982D01*
X146010621Y-70923989D01*
X146029740Y-70927773D01*
X146047081Y-70931256D01*
X146062243Y-70934358D01*
X146074826Y-70937003D01*
X146084433Y-70939113D01*
X146090664Y-70940609D01*
X146093119Y-70941414D01*
X146093232Y-70942132D01*
X146092862Y-70946472D01*
X146091760Y-70954327D01*
X146090004Y-70965273D01*
X146087674Y-70978888D01*
X146084851Y-70994747D01*
X146081614Y-71012428D01*
X146078042Y-71031507D01*
X146074215Y-71051560D01*
X146070214Y-71072164D01*
X146066117Y-71092896D01*
X146062004Y-71113332D01*
X146057955Y-71133049D01*
X146054050Y-71151623D01*
X146050368Y-71168631D01*
X146040750Y-71211067D01*
X146011590Y-71327382D01*
X145978764Y-71441787D01*
X145942304Y-71554220D01*
X145912419Y-71636570D01*
X145902240Y-71664619D01*
G37*
%LPC*%
D15*
X144000000Y-84350000D03*
D16*
X142000000Y-82750000D03*
D17*
X142000000Y-80250000D03*
X142000000Y-77750000D03*
X142000000Y-75250000D03*
D15*
X122500000Y-76400000D03*
D18*
X124500000Y-78000000D03*
D19*
X124500000Y-80500000D03*
%LPD*%
M02*
