%TF.GenerationSoftware,KiCad,Pcbnew,9.0.4*%
%TF.CreationDate,2026-04-12T07:52:34-04:00*%
%TF.ProjectId,WSG_3.0,5753475f-332e-4302-9e6b-696361645f70,rev?*%
%TF.SameCoordinates,Original*%
%TF.FileFunction,Copper,L4,Bot*%
%TF.FilePolarity,Positive*%
%FSLAX46Y46*%
G04 Gerber Fmt 4.6, Leading zero omitted, Abs format (unit mm)*
G04 Created by KiCad (PCBNEW 9.0.4) date 2026-04-12 07:52:34*
%MOMM*%
%LPD*%
G01*
G04 APERTURE LIST*
G04 Aperture macros list*
%AMRoundRect*
0 Rectangle with rounded corners*
0 $1 Rounding radius*
0 $2 $3 $4 $5 $6 $7 $8 $9 X,Y pos of 4 corners*
0 Add a 4 corners polygon primitive as box body*
4,1,4,$2,$3,$4,$5,$6,$7,$8,$9,$2,$3,0*
0 Add four circle primitives for the rounded corners*
1,1,$1+$1,$2,$3*
1,1,$1+$1,$4,$5*
1,1,$1+$1,$6,$7*
1,1,$1+$1,$8,$9*
0 Add four rect primitives between the rounded corners*
20,1,$1+$1,$2,$3,$4,$5,0*
20,1,$1+$1,$4,$5,$6,$7,0*
20,1,$1+$1,$6,$7,$8,$9,0*
20,1,$1+$1,$8,$9,$2,$3,0*%
G04 Aperture macros list end*
%TA.AperFunction,ComponentPad*%
%ADD10R,1.350000X1.350000*%
%TD*%
%TA.AperFunction,ComponentPad*%
%ADD11C,1.350000*%
%TD*%
%TA.AperFunction,ComponentPad*%
%ADD12R,1.308000X1.308000*%
%TD*%
%TA.AperFunction,ComponentPad*%
%ADD13C,1.308000*%
%TD*%
%TA.AperFunction,SMDPad,CuDef*%
%ADD14RoundRect,0.135000X-0.135000X-0.185000X0.135000X-0.185000X0.135000X0.185000X-0.135000X0.185000X0*%
%TD*%
%TA.AperFunction,SMDPad,CuDef*%
%ADD15RoundRect,0.140000X-0.170000X0.140000X-0.170000X-0.140000X0.170000X-0.140000X0.170000X0.140000X0*%
%TD*%
%TA.AperFunction,SMDPad,CuDef*%
%ADD16RoundRect,0.225000X-0.250000X0.225000X-0.250000X-0.225000X0.250000X-0.225000X0.250000X0.225000X0*%
%TD*%
%TA.AperFunction,SMDPad,CuDef*%
%ADD17RoundRect,0.135000X0.185000X-0.135000X0.185000X0.135000X-0.185000X0.135000X-0.185000X-0.135000X0*%
%TD*%
%TA.AperFunction,SMDPad,CuDef*%
%ADD18RoundRect,0.147500X-0.147500X-0.172500X0.147500X-0.172500X0.147500X0.172500X-0.147500X0.172500X0*%
%TD*%
%TA.AperFunction,SMDPad,CuDef*%
%ADD19R,1.320800X0.508000*%
%TD*%
%TA.AperFunction,SMDPad,CuDef*%
%ADD20RoundRect,0.140000X0.170000X-0.140000X0.170000X0.140000X-0.170000X0.140000X-0.170000X-0.140000X0*%
%TD*%
%TA.AperFunction,SMDPad,CuDef*%
%ADD21RoundRect,0.135000X0.135000X0.185000X-0.135000X0.185000X-0.135000X-0.185000X0.135000X-0.185000X0*%
%TD*%
%TA.AperFunction,SMDPad,CuDef*%
%ADD22R,1.200000X0.650001*%
%TD*%
%TA.AperFunction,SMDPad,CuDef*%
%ADD23R,1.000000X1.000000*%
%TD*%
%TA.AperFunction,SMDPad,CuDef*%
%ADD24R,0.650000X1.700000*%
%TD*%
%TA.AperFunction,SMDPad,CuDef*%
%ADD25R,1.500000X0.650000*%
%TD*%
%TA.AperFunction,SMDPad,CuDef*%
%ADD26RoundRect,0.135000X-0.185000X0.135000X-0.185000X-0.135000X0.185000X-0.135000X0.185000X0.135000X0*%
%TD*%
%TA.AperFunction,SMDPad,CuDef*%
%ADD27R,1.473200X0.355600*%
%TD*%
%TA.AperFunction,SMDPad,CuDef*%
%ADD28R,0.450000X0.950000*%
%TD*%
%TA.AperFunction,SMDPad,CuDef*%
%ADD29R,4.350000X3.450000*%
%TD*%
%TA.AperFunction,ViaPad*%
%ADD30C,0.450000*%
%TD*%
%TA.AperFunction,ViaPad*%
%ADD31C,0.600000*%
%TD*%
%TA.AperFunction,ViaPad*%
%ADD32C,0.800000*%
%TD*%
%TA.AperFunction,ViaPad*%
%ADD33C,0.440000*%
%TD*%
%TA.AperFunction,Conductor*%
%ADD34C,0.500000*%
%TD*%
%TA.AperFunction,Conductor*%
%ADD35C,0.200000*%
%TD*%
%TA.AperFunction,Conductor*%
%ADD36C,0.340000*%
%TD*%
%TA.AperFunction,Conductor*%
%ADD37C,0.160000*%
%TD*%
%TA.AperFunction,Conductor*%
%ADD38C,0.600000*%
%TD*%
%TA.AperFunction,Conductor*%
%ADD39C,0.400000*%
%TD*%
G04 APERTURE END LIST*
D10*
%TO.P,J3,1,Pin_1*%
%TO.N,GND*%
X103320000Y-82510000D03*
D11*
%TO.P,J3,2,Pin_2*%
%TO.N,3.7V_BAT-*%
X101320000Y-82510000D03*
%TO.P,J3,3,Pin_3*%
%TO.N,GND*%
X103320000Y-84510000D03*
%TO.P,J3,4,Pin_4*%
%TO.N,3V3_Ref*%
X101320000Y-84510000D03*
%TO.P,J3,5,Pin_5*%
%TO.N,SG3+*%
X103320000Y-86510000D03*
%TO.P,J3,6,Pin_6*%
%TO.N,3V3_Ref*%
X101320000Y-86510000D03*
%TO.P,J3,7,Pin_7*%
%TO.N,SG2+*%
X103320000Y-88510000D03*
%TO.P,J3,8,Pin_8*%
%TO.N,3V3_Ref*%
X101320000Y-88510000D03*
%TO.P,J3,9,Pin_9*%
%TO.N,SG1+*%
X103320000Y-90510000D03*
%TO.P,J3,10,Pin_10*%
%TO.N,3V3_Ref*%
X101320000Y-90510000D03*
%TD*%
D12*
%TO.P,J4,1,Pin_1*%
%TO.N,3.7V_BAT-*%
X100060000Y-94807500D03*
D13*
%TO.P,J4,2,Pin_2*%
%TO.N,3.7V_BAT+*%
X102060000Y-94807500D03*
%TD*%
D14*
%TO.P,R25,1*%
%TO.N,3V3*%
X121840000Y-84190000D03*
%TO.P,R25,2*%
%TO.N,Net-(IC8-ADJ)*%
X122860000Y-84190000D03*
%TD*%
D15*
%TO.P,C30,1*%
%TO.N,GND*%
X120910000Y-86310000D03*
%TO.P,C30,2*%
%TO.N,3V3*%
X120910000Y-87270000D03*
%TD*%
D16*
%TO.P,C2,1*%
%TO.N,5v_USB_EXT*%
X121000000Y-96085001D03*
%TO.P,C2,2*%
%TO.N,GND*%
X121000000Y-97635001D03*
%TD*%
D17*
%TO.P,R4,1*%
%TO.N,Net-(D1-A)*%
X128500000Y-99510000D03*
%TO.P,R4,2*%
%TO.N,3.7V_BAT+*%
X128500000Y-98490000D03*
%TD*%
D18*
%TO.P,D1,1,K*%
%TO.N,Net-(D1-K)*%
X127515000Y-100860001D03*
%TO.P,D1,2,A*%
%TO.N,Net-(D1-A)*%
X128485000Y-100860001D03*
%TD*%
D19*
%TO.P,IC3,1,VIN*%
%TO.N,switch_out*%
X114425400Y-84669999D03*
%TO.P,IC3,2,GND*%
%TO.N,GND*%
X114425400Y-85620000D03*
%TO.P,IC3,3,EN*%
%TO.N,switch_out*%
X114425400Y-86570001D03*
%TO.P,IC3,4,NC*%
%TO.N,unconnected-(IC3-NC-Pad4)*%
X111834600Y-86570001D03*
%TO.P,IC3,5,VOUT*%
%TO.N,3V3_Ref*%
X111834600Y-84669999D03*
%TD*%
D20*
%TO.P,C7,1*%
%TO.N,GND*%
X119380000Y-85090000D03*
%TO.P,C7,2*%
%TO.N,5v_USB_EXT*%
X119380000Y-84130000D03*
%TD*%
D21*
%TO.P,R29,1*%
%TO.N,Net-(U2-ILIM)*%
X113600000Y-80330000D03*
%TO.P,R29,2*%
%TO.N,GND*%
X112580000Y-80330000D03*
%TD*%
%TO.P,R30,1*%
%TO.N,5v_USB_EXT*%
X113020000Y-81500000D03*
%TO.P,R30,2*%
%TO.N,GND*%
X112000000Y-81500000D03*
%TD*%
D15*
%TO.P,C28,1*%
%TO.N,3V3_Ref*%
X110400000Y-84710000D03*
%TO.P,C28,2*%
%TO.N,GND*%
X110400000Y-85670000D03*
%TD*%
D22*
%TO.P,U1,1,TS*%
%TO.N,Net-(U1-TS)*%
X126475001Y-96910000D03*
%TO.P,U1,2,OUT*%
%TO.N,3.7V_BAT+*%
X126475001Y-97860001D03*
%TO.P,U1,3,CHG_N*%
%TO.N,Net-(D1-K)*%
X126475001Y-98809999D03*
%TO.P,U1,4,ISET*%
%TO.N,Net-(U1-ISET)*%
X123525002Y-98809999D03*
%TO.P,U1,5,VSS*%
%TO.N,GND*%
X123525002Y-97860001D03*
%TO.P,U1,6,IN*%
%TO.N,5v_USB_EXT*%
X123525002Y-96910000D03*
%TD*%
D21*
%TO.P,R3,1*%
%TO.N,Net-(U1-ISET)*%
X121510000Y-99360001D03*
%TO.P,R3,2*%
%TO.N,GND*%
X120490000Y-99360001D03*
%TD*%
D23*
%TO.P,TP6,1,1*%
%TO.N,5.5V_BOOST*%
X118630000Y-90840000D03*
%TD*%
D20*
%TO.P,C29,1*%
%TO.N,switch_out*%
X116200000Y-84960000D03*
%TO.P,C29,2*%
%TO.N,GND*%
X116200000Y-84000000D03*
%TD*%
D23*
%TO.P,TP4,1,1*%
%TO.N,GPIO46*%
X128460000Y-91530000D03*
%TD*%
D24*
%TO.P,IC5,1,CS#*%
%TO.N,CS_NOR_FLASH*%
X132815000Y-84220000D03*
%TO.P,IC5,2,SO_(IO1)*%
%TO.N,MISO_NOR_FLASH*%
X134085000Y-84220000D03*
%TO.P,IC5,3,WP#_(IO2)*%
%TO.N,SPIWP*%
X135355000Y-84220000D03*
%TO.P,IC5,4,VSS*%
%TO.N,GND*%
X136625000Y-84220000D03*
%TO.P,IC5,5,SI_(IO0)*%
%TO.N,MOSI_NOR_FLASH*%
X136625000Y-91420000D03*
%TO.P,IC5,6,SCLK*%
%TO.N,SCLK_NOR_FLASH*%
X135355000Y-91420000D03*
%TO.P,IC5,7,HOLD#_(IO3)*%
%TO.N,SPIHD*%
X134085000Y-91420000D03*
%TO.P,IC5,8,VCC*%
%TO.N,3V3*%
X132815000Y-91420000D03*
%TD*%
D17*
%TO.P,R45,1*%
%TO.N,Net-(IC8-ADJ)*%
X124500000Y-84010000D03*
%TO.P,R45,2*%
%TO.N,GND*%
X124500000Y-82990000D03*
%TD*%
D25*
%TO.P,IC8,1,EN*%
%TO.N,switch_out*%
X122470000Y-89415000D03*
%TO.P,IC8,2,VIN*%
X122470000Y-88145000D03*
%TO.P,IC8,3,VOUT*%
%TO.N,3V3*%
X122470000Y-86875000D03*
%TO.P,IC8,4,ADJ*%
%TO.N,Net-(IC8-ADJ)*%
X122470000Y-85605000D03*
%TO.P,IC8,5,GND_1*%
%TO.N,GND*%
X127870000Y-85605000D03*
%TO.P,IC8,6,GND_2*%
X127870000Y-86875000D03*
%TO.P,IC8,7,GND_3*%
X127870000Y-88145000D03*
%TO.P,IC8,8,GND_4*%
X127870000Y-89415000D03*
%TD*%
D23*
%TO.P,GPIO21,1,1*%
%TO.N,GPIO21*%
X126760000Y-80710000D03*
%TD*%
D14*
%TO.P,R7,1*%
%TO.N,Net-(U1-TS)*%
X129990000Y-98000000D03*
%TO.P,R7,2*%
%TO.N,GND*%
X131010000Y-98000000D03*
%TD*%
D26*
%TO.P,R31,1*%
%TO.N,Net-(U2-OUT)*%
X120750000Y-84000000D03*
%TO.P,R31,2*%
%TO.N,switch_out*%
X120750000Y-85020000D03*
%TD*%
D15*
%TO.P,C26,1*%
%TO.N,GND*%
X130550000Y-92170000D03*
%TO.P,C26,2*%
%TO.N,3V3*%
X130550000Y-93130000D03*
%TD*%
D14*
%TO.P,R6,1*%
%TO.N,3V3*%
X111780000Y-99660000D03*
%TO.P,R6,2*%
%TO.N,CS_NAND_FLASH*%
X112800000Y-99660000D03*
%TD*%
D27*
%TO.P,U2,1,STAT*%
%TO.N,Net-(U2-STAT)*%
X115079000Y-82474999D03*
%TO.P,U2,2,D0*%
%TO.N,GND*%
X115079000Y-81825001D03*
%TO.P,U2,3,D1*%
%TO.N,5v_USB_EXT*%
X115079000Y-81174999D03*
%TO.P,U2,4,ILIM*%
%TO.N,Net-(U2-ILIM)*%
X115079000Y-80525001D03*
%TO.P,U2,5,GND*%
%TO.N,GND*%
X120921000Y-80525001D03*
%TO.P,U2,6,IN2*%
%TO.N,5.5V_BOOST*%
X120921000Y-81174999D03*
%TO.P,U2,7,OUT*%
%TO.N,Net-(U2-OUT)*%
X120921000Y-81825001D03*
%TO.P,U2,8,IN1*%
%TO.N,5v_USB_EXT*%
X120921000Y-82474999D03*
%TD*%
D28*
%TO.P,IC1,1,~{CS}*%
%TO.N,CS_NAND_FLASH*%
X113130000Y-97160000D03*
%TO.P,IC1,2,DO_(IO1_)*%
%TO.N,MISO_ADC*%
X111860000Y-97160000D03*
%TO.P,IC1,3,~{WP_(IO2_)}*%
%TO.N,3V3*%
X110590000Y-97160000D03*
%TO.P,IC1,4,GND*%
%TO.N,GND*%
X109320000Y-97160000D03*
%TO.P,IC1,5,DI_(IO0_)*%
%TO.N,MOSI_ADC*%
X109320000Y-89360000D03*
%TO.P,IC1,6,CLK*%
%TO.N,SCLK_ADC*%
X110590000Y-89360000D03*
%TO.P,IC1,7,~{HOLD_(IO3_)}*%
%TO.N,3V3*%
X111860000Y-89360000D03*
%TO.P,IC1,8,VCC*%
X113130000Y-89360000D03*
D29*
%TO.P,IC1,9,EP*%
%TO.N,GND*%
X111225000Y-93260000D03*
%TD*%
D17*
%TO.P,R27,1*%
%TO.N,Net-(U2-OUT)*%
X122670000Y-81140000D03*
%TO.P,R27,2*%
%TO.N,Net-(U2-STAT)*%
X122670000Y-80120000D03*
%TD*%
D30*
%TO.N,3V3_Ref*%
X104520000Y-93900000D03*
X112440000Y-87690000D03*
X115270000Y-94380000D03*
X106250000Y-89880000D03*
X119270000Y-95290000D03*
X114340000Y-90470000D03*
X115260000Y-94950000D03*
X109770000Y-84770000D03*
X106750000Y-94554999D03*
X120280000Y-95010000D03*
X102040000Y-89420000D03*
X124050000Y-90000000D03*
X111730000Y-85350000D03*
X117849294Y-93163129D03*
X120520000Y-88670000D03*
%TO.N,5.5V_BOOST*%
X119365496Y-82311832D03*
D31*
X117420000Y-84190000D03*
D30*
X119350000Y-97720000D03*
X118620000Y-84830000D03*
D31*
X122690000Y-94930000D03*
D30*
X121750000Y-81160000D03*
%TO.N,3V3*%
X136750000Y-89820000D03*
D31*
X131140329Y-91497000D03*
D30*
X112450000Y-89730000D03*
X134670000Y-88010000D03*
X110980000Y-99730000D03*
X132100000Y-84100000D03*
D31*
X110700000Y-80580000D03*
D30*
X131290000Y-95790000D03*
D32*
X132070000Y-99250000D03*
X132010000Y-96830000D03*
D30*
X127630000Y-93660000D03*
X110740000Y-98460000D03*
X111810000Y-98670000D03*
X125320000Y-84480000D03*
X131270000Y-84980000D03*
X107395000Y-80020000D03*
D31*
X124500000Y-81000000D03*
D30*
%TO.N,CS_NAND_FLASH*%
X113520000Y-99270000D03*
X113590000Y-98020000D03*
X125790000Y-92370000D03*
%TO.N,DAC_BIAS_REF*%
X117650000Y-88509999D03*
X115290000Y-92250000D03*
X116150000Y-96290000D03*
X115165565Y-88205339D03*
D31*
%TO.N,EN*%
X130020000Y-80770000D03*
X137112752Y-87070000D03*
%TO.N,GPIO0*%
X137800000Y-87240000D03*
X130610000Y-80280000D03*
%TO.N,5v_USB_EXT*%
X138460000Y-89140000D03*
X120310000Y-89460000D03*
X121730000Y-95780000D03*
X124190000Y-97050000D03*
D30*
%TO.N,Net-(J1-CC1)*%
X137800000Y-82910000D03*
X140575000Y-86075000D03*
D31*
%TO.N,3.7V_BAT+*%
X126500000Y-97670000D03*
D30*
%TO.N,LDAC_DAC*%
X125290000Y-91180000D03*
X122190000Y-90920000D03*
%TO.N,SCLK_ADC*%
X123090000Y-92440000D03*
X131520000Y-87340000D03*
X124450000Y-88770000D03*
%TO.N,MISO_ADC*%
X133240000Y-87480000D03*
X121740000Y-95010000D03*
X123100000Y-93890000D03*
%TO.N,MOSI_ADC*%
X124280055Y-91444470D03*
X124240000Y-87410000D03*
X123520000Y-93260000D03*
X133350000Y-86800000D03*
%TO.N,CS_ADC*%
X124070000Y-92800000D03*
X122460000Y-91870000D03*
%TO.N,CS_DAC*%
X124800000Y-91690000D03*
X122990000Y-90960000D03*
D33*
%TO.N,GND*%
X134500000Y-99000000D03*
D30*
X113810000Y-81910000D03*
X125950000Y-94500000D03*
X140150000Y-96650000D03*
X141600000Y-94000000D03*
X111540000Y-91400000D03*
X112040000Y-80390000D03*
X144000000Y-94000000D03*
X118160000Y-96790000D03*
X142600000Y-94200000D03*
X115500000Y-83710000D03*
X133570000Y-94910000D03*
X129275002Y-95165001D03*
X117650000Y-92321999D03*
X141850000Y-96000000D03*
X136570000Y-81680000D03*
D33*
X142500000Y-101000000D03*
D30*
X119760000Y-80960000D03*
X117340000Y-90710000D03*
X138000000Y-93000000D03*
X124080000Y-95260000D03*
X119270000Y-85600000D03*
X141500000Y-99253897D03*
X128245001Y-96534999D03*
D33*
X142000000Y-97000000D03*
D30*
X117360000Y-93680000D03*
D31*
X104230000Y-84210000D03*
D30*
X136280000Y-83720000D03*
X113230000Y-95350000D03*
X120000000Y-97000000D03*
X137800000Y-97453897D03*
X130570000Y-83310000D03*
D33*
X145000000Y-98000000D03*
D30*
X105940000Y-95660291D03*
X136500000Y-100253897D03*
X135750000Y-96850000D03*
X141000000Y-98253897D03*
X127310000Y-86850000D03*
X120880000Y-85770000D03*
X106370000Y-92100000D03*
X132230000Y-82740000D03*
X137750000Y-96700000D03*
X132680000Y-96100000D03*
X133500000Y-98500000D03*
D33*
X135000000Y-97500000D03*
D30*
X109620000Y-98580000D03*
X123120000Y-83480000D03*
X137000000Y-101253897D03*
X125330000Y-82320000D03*
X110000000Y-82000000D03*
X130060000Y-89050000D03*
X137400000Y-91490000D03*
X130210000Y-91590000D03*
D31*
X120260000Y-97750000D03*
D30*
X136190000Y-80310000D03*
X124000000Y-82500000D03*
D31*
X108935000Y-82190000D03*
D30*
X137400000Y-94200000D03*
D33*
X144000000Y-101000000D03*
D30*
X142000000Y-81000000D03*
X136390000Y-89090000D03*
X106170000Y-93430000D03*
X130890000Y-97220000D03*
D33*
X133500000Y-100000000D03*
D30*
X130440000Y-88270000D03*
X136610000Y-88190000D03*
X124680000Y-96560000D03*
X140200000Y-97453897D03*
D31*
X104450000Y-82390000D03*
D30*
X116970000Y-85830000D03*
X130580000Y-84220000D03*
X140400000Y-93950000D03*
X141000000Y-101253897D03*
X139350000Y-94000000D03*
X126250000Y-95500000D03*
X138450000Y-94250000D03*
X129310000Y-89420000D03*
X111820000Y-95250000D03*
D31*
X119780000Y-99280000D03*
D30*
X144780000Y-93980000D03*
X107530000Y-98610000D03*
X131050000Y-94990000D03*
X106820000Y-86380000D03*
D33*
X144000000Y-99000000D03*
X136000000Y-98500000D03*
D30*
X127870000Y-88145000D03*
X111000000Y-84000000D03*
X124680000Y-95290000D03*
X136250000Y-94100000D03*
D33*
X143000000Y-100000000D03*
D30*
X117260000Y-89660000D03*
X138000000Y-101253897D03*
D33*
X134500000Y-101000000D03*
D30*
X115250000Y-93640000D03*
X123324213Y-90492101D03*
X111170000Y-87590000D03*
X125290000Y-97360000D03*
D31*
X107165000Y-82522000D03*
D30*
X130650000Y-89310000D03*
X136500000Y-99253897D03*
X138510000Y-89990000D03*
X116360000Y-85870000D03*
X139000000Y-101253897D03*
D33*
X145000000Y-100000000D03*
D30*
X140800000Y-96050000D03*
X138660000Y-82960000D03*
X117420000Y-94870000D03*
D33*
X135500000Y-100000000D03*
D30*
X141500000Y-100253897D03*
X133010000Y-94900000D03*
X128210000Y-94270000D03*
X119460000Y-93230000D03*
X135700000Y-93450000D03*
D31*
X112180000Y-83010000D03*
D33*
X136250000Y-92650000D03*
D30*
X140000000Y-101253897D03*
D33*
X142754686Y-98004277D03*
D30*
X117230000Y-99060000D03*
X107060000Y-89280000D03*
X137150000Y-98153897D03*
X124013587Y-95831154D03*
X119310000Y-89600000D03*
X115239453Y-89409392D03*
D33*
X133000000Y-101000000D03*
D30*
X134050000Y-95600000D03*
D31*
X126820000Y-94570000D03*
D33*
X142700000Y-95000000D03*
D30*
X136850000Y-96300000D03*
X116032800Y-98958400D03*
X123320000Y-82930000D03*
D33*
X143500000Y-97000000D03*
D30*
%TO.N,GPIO46*%
X129430000Y-91630000D03*
%TO.N,MISO_NOR_FLASH*%
X126290000Y-87080000D03*
%TO.N,SPIHD*%
X126520000Y-90430000D03*
%TO.N,CS_NOR_FLASH*%
X124440000Y-86640000D03*
%TO.N,SPIWP*%
X124370000Y-85930000D03*
%TO.N,MOSI_NOR_FLASH*%
X126290000Y-89590000D03*
%TO.N,SCLK_NOR_FLASH*%
X124740000Y-89420000D03*
%TO.N,GPIO21*%
X127730000Y-81360000D03*
X130926513Y-83761138D03*
X125830000Y-85970000D03*
%TO.N,Net-(U2-STAT)*%
X117905000Y-81855000D03*
X116510000Y-82460000D03*
D31*
%TO.N,switch_out*%
X116939974Y-85180692D03*
X118710000Y-86220000D03*
%TD*%
D34*
%TO.N,3.7V_BAT-*%
X99240000Y-84120000D02*
X100850000Y-82510000D01*
X99240000Y-93987500D02*
X99240000Y-84120000D01*
X100060000Y-94807500D02*
X99240000Y-93987500D01*
X100850000Y-82510000D02*
X101320000Y-82510000D01*
D35*
%TO.N,3V3_Ref*%
X102040000Y-89420000D02*
X102130000Y-89510000D01*
X104520000Y-93900000D02*
X105160000Y-94540000D01*
X105880000Y-89510000D02*
X106250000Y-89880000D01*
X109830000Y-84710000D02*
X109770000Y-84770000D01*
X106735001Y-94540000D02*
X106750000Y-94554999D01*
X111834600Y-85245400D02*
X111730000Y-85350000D01*
X111834600Y-84669999D02*
X110440001Y-84669999D01*
X110440001Y-84669999D02*
X110400000Y-84710000D01*
X105160000Y-94540000D02*
X106735001Y-94540000D01*
X102130000Y-89510000D02*
X105880000Y-89510000D01*
X111834600Y-84669999D02*
X111834600Y-85245400D01*
X110400000Y-84710000D02*
X109830000Y-84710000D01*
D36*
%TO.N,5.5V_BOOST*%
X118630000Y-88740000D02*
X118630000Y-90840000D01*
D35*
X121735001Y-81174999D02*
X121750000Y-81160000D01*
X120921000Y-81174999D02*
X120362200Y-81174999D01*
D36*
X117510000Y-84280000D02*
X117510000Y-87620000D01*
X117420000Y-84190000D02*
X117510000Y-84280000D01*
D35*
X120362200Y-81174999D02*
X119365496Y-82171703D01*
D36*
X117510000Y-87620000D02*
X118630000Y-88740000D01*
D35*
X119365496Y-82171703D02*
X119365496Y-82311832D01*
X120921000Y-81174999D02*
X121735001Y-81174999D01*
%TO.N,3V3*%
X120910000Y-87270000D02*
X122075000Y-87270000D01*
X130740000Y-93320000D02*
X131620000Y-93320000D01*
X130550000Y-93130000D02*
X130740000Y-93130000D01*
D37*
X111270000Y-99730000D02*
X111340000Y-99660000D01*
D35*
X131140329Y-92729671D02*
X131140329Y-91497000D01*
X130740000Y-93130000D02*
X131140329Y-92729671D01*
D37*
X112820000Y-89360000D02*
X112450000Y-89730000D01*
X111340000Y-99660000D02*
X111780000Y-99660000D01*
D38*
X132300000Y-97120000D02*
X132300000Y-99020000D01*
D37*
X111970000Y-89250000D02*
X111860000Y-89360000D01*
X112450000Y-89730000D02*
X111970000Y-89250000D01*
X122017800Y-86697800D02*
X122017800Y-86924999D01*
X122555001Y-86924999D02*
X124980000Y-84500000D01*
X125300000Y-84500000D02*
X125320000Y-84480000D01*
X121470000Y-86150000D02*
X122017800Y-86697800D01*
X110590000Y-97160000D02*
X110590000Y-98310000D01*
D35*
X131620000Y-93320000D02*
X132815000Y-92125000D01*
D37*
X110980000Y-99730000D02*
X111270000Y-99730000D01*
X121470000Y-84560000D02*
X121470000Y-86150000D01*
D35*
X132815000Y-92125000D02*
X132815000Y-91420000D01*
D37*
X113130000Y-89360000D02*
X112820000Y-89360000D01*
D35*
X130550000Y-93130000D02*
X130740000Y-93320000D01*
D38*
X132010000Y-96830000D02*
X132300000Y-97120000D01*
D37*
X113130000Y-89360000D02*
X113130000Y-89760000D01*
X124980000Y-84500000D02*
X125300000Y-84500000D01*
D38*
X132300000Y-99020000D02*
X132070000Y-99250000D01*
D35*
X122075000Y-87270000D02*
X122470000Y-86875000D01*
D37*
X122017800Y-86924999D02*
X122555001Y-86924999D01*
X110590000Y-98310000D02*
X110740000Y-98460000D01*
X121840000Y-84190000D02*
X121470000Y-84560000D01*
%TO.N,CS_NAND_FLASH*%
X113130000Y-97160000D02*
X113130000Y-97560000D01*
D35*
X125790000Y-92370000D02*
X125779110Y-92370000D01*
D37*
X113520000Y-99270000D02*
X113520000Y-99320000D01*
X123758110Y-94391000D02*
X119559473Y-94391000D01*
X123759110Y-94390000D02*
X123758110Y-94391000D01*
X113130000Y-97560000D02*
X113590000Y-98020000D01*
X113520000Y-99320000D02*
X113180000Y-99660000D01*
X113471000Y-97501000D02*
X113130000Y-97160000D01*
X119559473Y-94391000D02*
X116449473Y-97501000D01*
X116449473Y-97501000D02*
X113471000Y-97501000D01*
X125779110Y-92370000D02*
X123759110Y-94390000D01*
X113180000Y-99660000D02*
X112800000Y-99660000D01*
%TO.N,DAC_BIAS_REF*%
X116760001Y-88509999D02*
X115302800Y-89967200D01*
X116250000Y-96190000D02*
X116250000Y-89550000D01*
X115390904Y-87979999D02*
X115165565Y-88205339D01*
X117650000Y-88407199D02*
X117222800Y-87979999D01*
X115290000Y-92021525D02*
X115290000Y-92250000D01*
X116250000Y-89550000D02*
X117290001Y-88509999D01*
X117222800Y-87979999D02*
X115390904Y-87979999D01*
X117290001Y-88509999D02*
X117650000Y-88509999D01*
X115302800Y-89967200D02*
X115302800Y-92008725D01*
X117650000Y-88509999D02*
X117650000Y-88407199D01*
X117650000Y-88509999D02*
X116760001Y-88509999D01*
X115302800Y-92008725D02*
X115290000Y-92021525D01*
X116150000Y-96290000D02*
X116250000Y-96190000D01*
%TO.N,Net-(IC8-ADJ)*%
X123682799Y-84010000D02*
X123502799Y-84190000D01*
X122860000Y-84190000D02*
X122442800Y-84607200D01*
X123502799Y-84190000D02*
X122860000Y-84190000D01*
X122442800Y-84607200D02*
X122442800Y-85654999D01*
X124500000Y-84010000D02*
X123682799Y-84010000D01*
X123760000Y-83990000D02*
X124480000Y-83990000D01*
X124480000Y-83990000D02*
X124500000Y-84010000D01*
%TO.N,EN*%
X137020000Y-87070000D02*
X137112752Y-87070000D01*
X130020000Y-80770000D02*
X134681363Y-80770000D01*
X137599000Y-83687637D02*
X137599000Y-86491000D01*
X137599000Y-86491000D02*
X137020000Y-87070000D01*
X134681363Y-80770000D02*
X137599000Y-83687637D01*
%TO.N,GPIO0*%
X130610000Y-80280000D02*
X134560473Y-80280000D01*
X137860000Y-83579527D02*
X137860000Y-87180000D01*
X134560473Y-80280000D02*
X137860000Y-83579527D01*
X137860000Y-87180000D02*
X137800000Y-87240000D01*
D39*
%TO.N,5v_USB_EXT*%
X115079000Y-81174999D02*
X113345001Y-81174999D01*
X118250000Y-84160000D02*
X118000000Y-84410000D01*
X121824999Y-96910000D02*
X121000000Y-96085001D01*
X119670000Y-83270000D02*
X120125999Y-83270000D01*
X118270000Y-83270000D02*
X118250000Y-83290000D01*
X121730000Y-95780000D02*
X121424999Y-96085001D01*
X120125999Y-83270000D02*
X120921000Y-82474999D01*
X118000000Y-87429232D02*
X119930768Y-89360000D01*
X113345001Y-81174999D02*
X113020000Y-81500000D01*
X118270000Y-83270000D02*
X119670000Y-83270000D01*
X123525002Y-96910000D02*
X121824999Y-96910000D01*
X121424999Y-96085001D02*
X121000000Y-96085001D01*
D35*
X119270000Y-84130000D02*
X119380000Y-84020000D01*
X119380000Y-83560000D02*
X119670000Y-83270000D01*
X119380000Y-84020000D02*
X119380000Y-83560000D01*
D39*
X118250000Y-83290000D02*
X118250000Y-84160000D01*
D35*
X123665002Y-97050000D02*
X123525002Y-96910000D01*
D39*
X115079000Y-81174999D02*
X116174999Y-81174999D01*
D35*
X124190000Y-97050000D02*
X123665002Y-97050000D01*
D39*
X118019000Y-86785650D02*
X118019000Y-87242114D01*
X118000000Y-87261114D02*
X118000000Y-87429232D01*
X118019000Y-87242114D02*
X118000000Y-87261114D01*
X118000000Y-84410000D02*
X118000000Y-86766650D01*
X119930768Y-89360000D02*
X120210000Y-89360000D01*
X118000000Y-86766650D02*
X118019000Y-86785650D01*
X116174999Y-81174999D02*
X118270000Y-83270000D01*
D35*
X120210000Y-89360000D02*
X120310000Y-89460000D01*
D37*
%TO.N,Net-(J1-CC1)*%
X137800000Y-82910000D02*
X137800000Y-83010000D01*
X137800000Y-83010000D02*
X140575000Y-85785000D01*
X140575000Y-85785000D02*
X140575000Y-86075000D01*
D36*
%TO.N,3.7V_BAT+*%
X127870001Y-97860001D02*
X128500000Y-98490000D01*
X126500000Y-97670000D02*
X126690001Y-97860001D01*
X126690001Y-97860001D02*
X127870001Y-97860001D01*
D37*
%TO.N,LDAC_DAC*%
X122340473Y-90920000D02*
X122811473Y-91391000D01*
X124860000Y-92300000D02*
X125280000Y-91880000D01*
X125280000Y-91190000D02*
X125290000Y-91180000D01*
X123161000Y-91391000D02*
X124070000Y-92300000D01*
X124070000Y-92300000D02*
X124860000Y-92300000D01*
X122811473Y-91391000D02*
X123161000Y-91391000D01*
X122190000Y-90920000D02*
X122340473Y-90920000D01*
X125280000Y-91880000D02*
X125280000Y-91190000D01*
%TO.N,SCLK_ADC*%
X121891000Y-93869000D02*
X122600000Y-93160000D01*
X129130000Y-88810000D02*
X126870000Y-88810000D01*
X110590000Y-89360000D02*
X110590000Y-90070000D01*
X122600000Y-93160000D02*
X122890000Y-93160000D01*
X111090000Y-90570000D02*
X113480000Y-90570000D01*
X116233253Y-96979000D02*
X119343253Y-93869000D01*
X123090000Y-92960000D02*
X123090000Y-92440000D01*
X115209000Y-96979000D02*
X116233253Y-96979000D01*
X122890000Y-93160000D02*
X123090000Y-92960000D01*
X114620000Y-91710000D02*
X114620000Y-96390000D01*
X114620000Y-96390000D02*
X115209000Y-96979000D01*
X124490000Y-88810000D02*
X124450000Y-88770000D01*
X113480000Y-90570000D02*
X114620000Y-91710000D01*
X130600000Y-87340000D02*
X129130000Y-88810000D01*
X119343253Y-93869000D02*
X121891000Y-93869000D01*
X126870000Y-88810000D02*
X124490000Y-88810000D01*
X131520000Y-87340000D02*
X130600000Y-87340000D01*
X110590000Y-90070000D02*
X111090000Y-90570000D01*
%TO.N,MISO_ADC*%
X133240000Y-87330000D02*
X132819000Y-86909000D01*
X113151000Y-98451000D02*
X117448527Y-98451000D01*
X129273000Y-86909000D02*
X128652000Y-87530000D01*
X125721000Y-91808110D02*
X123639110Y-93890000D01*
X120889527Y-95010000D02*
X121740000Y-95010000D01*
X125721000Y-90671000D02*
X125721000Y-91808110D01*
X124511000Y-89851000D02*
X124901000Y-89851000D01*
X123890000Y-89230000D02*
X124511000Y-89851000D01*
X124330000Y-87950000D02*
X123890000Y-88390000D01*
X126818637Y-87530000D02*
X126398637Y-87950000D01*
X132819000Y-86909000D02*
X129273000Y-86909000D01*
X117448527Y-98451000D02*
X120889527Y-95010000D01*
X128652000Y-87530000D02*
X126818637Y-87530000D01*
X126398637Y-87950000D02*
X124330000Y-87950000D01*
X124901000Y-89851000D02*
X125721000Y-90671000D01*
X123890000Y-88390000D02*
X123890000Y-89230000D01*
X123639110Y-93890000D02*
X123100000Y-93890000D01*
X133240000Y-87480000D02*
X133240000Y-87330000D01*
X111860000Y-97160000D02*
X113151000Y-98451000D01*
%TO.N,MOSI_ADC*%
X114272000Y-91841527D02*
X113399473Y-90969000D01*
X133110000Y-86560000D02*
X129260000Y-86560000D01*
X129260000Y-86560000D02*
X128950000Y-86250000D01*
X124340000Y-87410000D02*
X124240000Y-87410000D01*
X123620000Y-90178361D02*
X123620000Y-88030000D01*
X110929000Y-90969000D02*
X109320000Y-89360000D01*
X122690000Y-93450000D02*
X122010000Y-94130000D01*
X113399473Y-90969000D02*
X110929000Y-90969000D01*
X126750000Y-86558000D02*
X126750000Y-87229527D01*
X127058000Y-86250000D02*
X126750000Y-86558000D01*
X133350000Y-86800000D02*
X133110000Y-86560000D01*
X114272000Y-96422000D02*
X114272000Y-91841527D01*
X124280055Y-91444470D02*
X123993580Y-91444470D01*
X123755213Y-91206103D02*
X123755213Y-90313574D01*
X123993580Y-91444470D02*
X123755213Y-91206103D01*
X123330000Y-93450000D02*
X122690000Y-93450000D01*
X128950000Y-86250000D02*
X127058000Y-86250000D01*
X123620000Y-88030000D02*
X124240000Y-87410000D01*
X115090000Y-97240000D02*
X114272000Y-96422000D01*
X126750000Y-87229527D02*
X126290527Y-87689000D01*
X123520000Y-93260000D02*
X123330000Y-93450000D01*
X119451363Y-94130000D02*
X116341363Y-97240000D01*
X116341363Y-97240000D02*
X115090000Y-97240000D01*
X123755213Y-90313574D02*
X123620000Y-90178361D01*
X126290527Y-87689000D02*
X124619000Y-87689000D01*
X122010000Y-94130000D02*
X119451363Y-94130000D01*
X124619000Y-87689000D02*
X124340000Y-87410000D01*
%TO.N,CS_ADC*%
X124050000Y-92820000D02*
X124070000Y-92800000D01*
X122630000Y-91700000D02*
X123060000Y-91700000D01*
X123060000Y-91700000D02*
X124050000Y-92690000D01*
X124050000Y-92690000D02*
X124050000Y-92820000D01*
X122460000Y-91870000D02*
X122630000Y-91700000D01*
%TO.N,CS_DAC*%
X123047481Y-91017481D02*
X123197481Y-91017481D01*
X124590000Y-91900000D02*
X124800000Y-91690000D01*
X122990000Y-90960000D02*
X123047481Y-91017481D01*
X124080000Y-91900000D02*
X124590000Y-91900000D01*
X123197481Y-91017481D02*
X124080000Y-91900000D01*
D35*
%TO.N,GND*%
X111540000Y-92945000D02*
X111225000Y-93260000D01*
X116360000Y-85870000D02*
X116130000Y-85640000D01*
X110400000Y-86820000D02*
X111170000Y-87590000D01*
X119760000Y-80740000D02*
X119974999Y-80525001D01*
X124000000Y-82500000D02*
X124010000Y-82500000D01*
X110500000Y-81500000D02*
X110000000Y-82000000D01*
D39*
X121225000Y-97860001D02*
X123525002Y-97860001D01*
D35*
X120910000Y-86310000D02*
X120910000Y-85800000D01*
X119760000Y-80960000D02*
X119760000Y-80740000D01*
D37*
X127717801Y-85530000D02*
X127842800Y-85654999D01*
X127508440Y-85530000D02*
X127717801Y-85530000D01*
D35*
X130550000Y-91930000D02*
X130210000Y-91590000D01*
X110400000Y-85670000D02*
X110400000Y-86820000D01*
X115079000Y-81825001D02*
X113894999Y-81825001D01*
X131010000Y-97340000D02*
X131010000Y-98000000D01*
D37*
X127384999Y-86924999D02*
X127842800Y-86924999D01*
D35*
X130550000Y-92170000D02*
X130550000Y-91930000D01*
X112000000Y-81500000D02*
X110500000Y-81500000D01*
X128631390Y-89420000D02*
X128626390Y-89415000D01*
D39*
X120260000Y-97750000D02*
X120410000Y-97600000D01*
D37*
X119780000Y-99280000D02*
X120409999Y-99280000D01*
X136280000Y-83720000D02*
X136575000Y-84015000D01*
X120409999Y-99280000D02*
X120490000Y-99360001D01*
D35*
X119270000Y-85600000D02*
X119270000Y-85200000D01*
X114445400Y-85640000D02*
X114425400Y-85620000D01*
X113230000Y-95265000D02*
X111225000Y-93260000D01*
X109320000Y-98280000D02*
X109320000Y-97160000D01*
X109620000Y-98580000D02*
X109320000Y-98280000D01*
X127870000Y-85605000D02*
X129195000Y-85605000D01*
D39*
X120964999Y-97600000D02*
X121225000Y-97860001D01*
X120964999Y-97600000D02*
X121112500Y-97747501D01*
D35*
X111820000Y-93855000D02*
X111225000Y-93260000D01*
X130890000Y-97220000D02*
X131010000Y-97340000D01*
X119974999Y-80525001D02*
X120921000Y-80525001D01*
X128626390Y-89415000D02*
X127870000Y-89415000D01*
X111540000Y-91400000D02*
X111540000Y-92945000D01*
X113894999Y-81825001D02*
X113810000Y-81910000D01*
X116200000Y-84000000D02*
X115790000Y-84000000D01*
D37*
X127310000Y-86850000D02*
X127384999Y-86924999D01*
D35*
X112580000Y-80330000D02*
X112100000Y-80330000D01*
X120910000Y-85800000D02*
X120880000Y-85770000D01*
D37*
X136575000Y-84015000D02*
X136575000Y-84860000D01*
D35*
X111820000Y-95250000D02*
X111820000Y-93855000D01*
X124010000Y-82500000D02*
X124500000Y-82990000D01*
X112100000Y-80330000D02*
X112040000Y-80390000D01*
X115790000Y-84000000D02*
X115500000Y-83710000D01*
X116130000Y-85640000D02*
X114445400Y-85640000D01*
X129195000Y-85605000D02*
X130580000Y-84220000D01*
X113230000Y-95350000D02*
X113230000Y-95265000D01*
X129310000Y-89420000D02*
X128631390Y-89420000D01*
D39*
X120410000Y-97600000D02*
X120964999Y-97600000D01*
D35*
X119270000Y-85200000D02*
X119380000Y-85090000D01*
%TO.N,GPIO46*%
X129430000Y-91630000D02*
X129330000Y-91530000D01*
X129330000Y-91530000D02*
X128960000Y-91530000D01*
X128960000Y-91530000D02*
X128900000Y-91590000D01*
%TO.N,Net-(D1-K)*%
X127000000Y-100860001D02*
X126475001Y-100335002D01*
X126475001Y-100335002D02*
X126475001Y-98809999D01*
X127515000Y-100860001D02*
X127000000Y-100860001D01*
%TO.N,Net-(D1-A)*%
X128500000Y-100845001D02*
X128485000Y-100860001D01*
X128500000Y-99510000D02*
X128500000Y-100845001D01*
%TO.N,Net-(U1-ISET)*%
X123525002Y-98809999D02*
X122060002Y-98809999D01*
X122060002Y-98809999D02*
X121510000Y-99360001D01*
%TO.N,Net-(U1-TS)*%
X127410000Y-96910000D02*
X128000000Y-97500000D01*
X129490000Y-97500000D02*
X129990000Y-98000000D01*
X128000000Y-97500000D02*
X129490000Y-97500000D01*
X126475001Y-96910000D02*
X127410000Y-96910000D01*
D37*
%TO.N,MISO_NOR_FLASH*%
X125250000Y-85938220D02*
X128937220Y-82251000D01*
X132400000Y-85450000D02*
X133550000Y-85450000D01*
X133550000Y-85450000D02*
X134135000Y-84865000D01*
X128937220Y-82251000D02*
X130971000Y-82251000D01*
X125990000Y-87080000D02*
X125250000Y-86340000D01*
X134135000Y-84270000D02*
X134085000Y-84220000D01*
X125250000Y-86340000D02*
X125250000Y-85938220D01*
X130971000Y-82251000D02*
X131360000Y-82640000D01*
X134135000Y-84865000D02*
X134135000Y-84270000D01*
X126290000Y-87080000D02*
X125990000Y-87080000D01*
X131360000Y-84410000D02*
X132400000Y-85450000D01*
X131360000Y-82640000D02*
X131360000Y-84410000D01*
%TO.N,SPIHD*%
X134085000Y-90675000D02*
X134085000Y-90955000D01*
X134085000Y-93255000D02*
X134085000Y-91420000D01*
X133400000Y-93940000D02*
X134085000Y-93255000D01*
X126520000Y-90430000D02*
X126590000Y-90500000D01*
X129249110Y-93940000D02*
X133400000Y-93940000D01*
X126590000Y-90500000D02*
X126590000Y-91280890D01*
X126590000Y-91280890D02*
X129249110Y-93940000D01*
%TO.N,CS_NOR_FLASH*%
X124660000Y-86640000D02*
X124989000Y-86311000D01*
X124989000Y-86311000D02*
X124989000Y-85830110D01*
X124989000Y-85830110D02*
X128829110Y-81990000D01*
X124440000Y-86640000D02*
X124660000Y-86640000D01*
X128829110Y-81990000D02*
X132110000Y-81990000D01*
X132810000Y-84215000D02*
X132815000Y-84220000D01*
X132810000Y-82690000D02*
X132810000Y-84215000D01*
X132110000Y-81990000D02*
X132810000Y-82690000D01*
%TO.N,SPIWP*%
X124370000Y-85930000D02*
X124520000Y-85930000D01*
X124520000Y-85930000D02*
X128721000Y-81729000D01*
X135355000Y-83385000D02*
X135355000Y-84220000D01*
X128721000Y-81729000D02*
X133699000Y-81729000D01*
X133699000Y-81729000D02*
X135355000Y-83385000D01*
%TO.N,MOSI_NOR_FLASH*%
X136050000Y-89950000D02*
X136675000Y-90575000D01*
X126410000Y-89610000D02*
X126750000Y-89950000D01*
X126290000Y-89590000D02*
X126310000Y-89610000D01*
X126310000Y-89610000D02*
X126410000Y-89610000D01*
X126750000Y-89950000D02*
X136050000Y-89950000D01*
X136675000Y-90575000D02*
X136675000Y-92095000D01*
%TO.N,SCLK_NOR_FLASH*%
X126329000Y-90848527D02*
X126329000Y-91389000D01*
X124870000Y-89389527D02*
X126329000Y-90848527D01*
X124740000Y-89420000D02*
X124770473Y-89389527D01*
X130130000Y-94230000D02*
X134080000Y-94230000D01*
X134080000Y-94230000D02*
X135355000Y-92955000D01*
X130101000Y-94201000D02*
X130130000Y-94230000D01*
X126329000Y-91389000D02*
X129141000Y-94201000D01*
X129141000Y-94201000D02*
X130101000Y-94201000D01*
X135355000Y-92955000D02*
X135355000Y-91420000D01*
X124770473Y-89389527D02*
X124870000Y-89389527D01*
D35*
%TO.N,GPIO21*%
X127730000Y-81360000D02*
X127410000Y-81360000D01*
X125830000Y-85970000D02*
X128038862Y-83761138D01*
X125830000Y-85970000D02*
X125890000Y-85970000D01*
X128038862Y-83761138D02*
X130926513Y-83761138D01*
X127410000Y-81360000D02*
X126760000Y-80710000D01*
%TO.N,Net-(U2-STAT)*%
X117905000Y-81855000D02*
X119870000Y-79890000D01*
X115093999Y-82460000D02*
X115079000Y-82474999D01*
X119870000Y-79890000D02*
X122440000Y-79890000D01*
X116510000Y-82460000D02*
X115093999Y-82460000D01*
X122440000Y-79890000D02*
X122670000Y-80120000D01*
D36*
%TO.N,switch_out*%
X120135000Y-85635000D02*
X120030000Y-85740000D01*
X120030000Y-85740000D02*
X120030000Y-87310000D01*
X113330000Y-84990000D02*
X113650001Y-84669999D01*
X113330000Y-84990000D02*
X113330000Y-85280000D01*
X113650001Y-84669999D02*
X114425400Y-84669999D01*
X122470000Y-88145000D02*
X122470000Y-89415000D01*
X122442800Y-89464999D02*
X122442800Y-89369999D01*
X122187801Y-89210000D02*
X122442800Y-89464999D01*
X118870000Y-86380000D02*
X119390000Y-86380000D01*
X118710000Y-86220000D02*
X118870000Y-86380000D01*
X113330000Y-85280000D02*
X113310000Y-85300000D01*
X120030000Y-87310000D02*
X120865000Y-88145000D01*
X119390000Y-86380000D02*
X120135000Y-85635000D01*
X116769282Y-85010000D02*
X116250000Y-85010000D01*
X113310000Y-85300000D02*
X113310000Y-86010000D01*
X116939974Y-85180692D02*
X116769282Y-85010000D01*
X113870001Y-86570001D02*
X114425400Y-86570001D01*
X114619999Y-86570001D02*
X114650000Y-86540000D01*
X122442800Y-89464999D02*
X121959399Y-89464999D01*
X113310000Y-86010000D02*
X113640000Y-86340000D01*
X115369999Y-84669999D02*
X115660000Y-84960000D01*
X114425400Y-84669999D02*
X115369999Y-84669999D01*
X120865000Y-88145000D02*
X122470000Y-88145000D01*
X113640000Y-86340000D02*
X113870001Y-86570001D01*
X116250000Y-85010000D02*
X116200000Y-84960000D01*
X115660000Y-84960000D02*
X116200000Y-84960000D01*
X120750000Y-85020000D02*
X120135000Y-85635000D01*
X114465401Y-84710000D02*
X114425400Y-84669999D01*
X114425400Y-86570001D02*
X114619999Y-86570001D01*
D35*
%TO.N,Net-(U2-ILIM)*%
X113795001Y-80525001D02*
X113600000Y-80330000D01*
X115079000Y-80525001D02*
X113795001Y-80525001D01*
%TO.N,Net-(U2-OUT)*%
X122070000Y-82950000D02*
X122070000Y-82040000D01*
X121855001Y-81825001D02*
X120921000Y-81825001D01*
X120750000Y-84000000D02*
X121020000Y-84000000D01*
X121910000Y-81820000D02*
X120926001Y-81820000D01*
X122590000Y-81140000D02*
X121910000Y-81820000D01*
X122670000Y-81140000D02*
X122590000Y-81140000D01*
X122070000Y-82040000D02*
X121855001Y-81825001D01*
X121020000Y-84000000D02*
X122070000Y-82950000D01*
X120926001Y-81820000D02*
X120921000Y-81825001D01*
%TD*%
M02*
