%TF.GenerationSoftware,KiCad,Pcbnew,9.0.5*%
%TF.CreationDate,2025-11-01T16:07:27-04:00*%
%TF.ProjectId,main_board_v1,6d61696e-5f62-46f6-9172-645f76312e6b,rev?*%
%TF.SameCoordinates,Original*%
%TF.FileFunction,Drillmap*%
%TF.FilePolarity,Positive*%
%FSLAX45Y45*%
G04 Gerber Fmt 4.5, Leading zero omitted, Abs format (unit mm)*
G04 Created by KiCad (PCBNEW 9.0.5) date 2025-11-01 16:07:27*
%MOMM*%
%LPD*%
G01*
G04 APERTURE LIST*
%ADD10C,0.050000*%
%ADD11C,0.010000*%
%ADD12C,0.200000*%
%ADD13C,0.100000*%
%ADD14C,0.109220*%
%ADD15C,0.110000*%
%ADD16C,0.320040*%
G04 APERTURE END LIST*
D10*
X13690000Y-8600000D02*
X4250000Y-8600000D01*
X13790000Y-8500000D02*
X13789995Y-2167995D01*
X13690000Y-2067995D02*
G75*
G02*
X13790005Y-2167995I0J-100005D01*
G01*
X4150000Y-4450012D02*
X4150000Y-2167995D01*
X13790000Y-8500000D02*
G75*
G02*
X13690000Y-8600000I-100000J0D01*
G01*
X4150000Y-5970000D02*
X4150000Y-8500000D01*
X13690000Y-2067995D02*
X4250000Y-2067995D01*
X4150000Y-2167995D02*
G75*
G02*
X4250000Y-2067990I100000J5D01*
G01*
X4250000Y-8600000D02*
G75*
G02*
X4150000Y-8500000I0J100000D01*
G01*
D11*
X4150000Y-4690000D02*
X4175000Y-4665000D01*
X4150000Y-5730000D02*
X4150000Y-4690000D01*
X4150000Y-5730000D02*
X4175000Y-5755000D01*
X4175000Y-4665000D02*
X4620000Y-4665000D01*
X4250000Y-4550000D02*
X4150000Y-4450000D01*
X4250000Y-5870000D02*
X4150000Y-5970000D01*
X4620000Y-4550000D02*
X4250000Y-4550000D01*
X4620000Y-4665000D02*
X4620000Y-4550000D01*
X4620000Y-5755000D02*
X4175000Y-5755000D01*
X4620000Y-5755000D02*
X4620000Y-5870000D01*
X4620000Y-5870000D02*
X4250000Y-5870000D01*
D12*
D13*
X4240000Y-6840000D02*
X4260000Y-6860000D01*
X4260000Y-6840000D02*
X4240000Y-6860000D01*
X4240000Y-7190000D02*
X4260000Y-7210000D01*
X4260000Y-7190000D02*
X4240000Y-7210000D01*
X4340000Y-6640000D02*
X4360000Y-6660000D01*
X4360000Y-6640000D02*
X4340000Y-6660000D01*
X4340000Y-6990000D02*
X4360000Y-7010000D01*
X4360000Y-6990000D02*
X4340000Y-7010000D01*
X4490000Y-6840000D02*
X4510000Y-6860000D01*
X4510000Y-6840000D02*
X4490000Y-6860000D01*
X4490000Y-7190000D02*
X4510000Y-7210000D01*
X4510000Y-7190000D02*
X4490000Y-7210000D01*
X4490000Y-7615000D02*
X4510000Y-7635000D01*
X4510000Y-7615000D02*
X4490000Y-7635000D01*
X4490000Y-7665000D02*
X4510000Y-7685000D01*
X4510000Y-7665000D02*
X4490000Y-7685000D01*
X4490000Y-7715000D02*
X4510000Y-7735000D01*
X4510000Y-7715000D02*
X4490000Y-7735000D01*
X4540000Y-7840000D02*
X4560000Y-7860000D01*
X4560000Y-7840000D02*
X4540000Y-7860000D01*
X4565000Y-7515000D02*
X4585000Y-7535000D01*
X4585000Y-7515000D02*
X4565000Y-7535000D01*
X4640000Y-6640000D02*
X4660000Y-6660000D01*
X4660000Y-6640000D02*
X4640000Y-6660000D01*
X4640000Y-6990000D02*
X4660000Y-7010000D01*
X4660000Y-6990000D02*
X4640000Y-7010000D01*
X4665000Y-7590000D02*
X4685000Y-7610000D01*
X4685000Y-7590000D02*
X4665000Y-7610000D01*
X4690000Y-7640000D02*
X4710000Y-7660000D01*
X4710000Y-7640000D02*
X4690000Y-7660000D01*
X4740000Y-7540000D02*
X4760000Y-7560000D01*
X4760000Y-7540000D02*
X4740000Y-7560000D01*
X4780000Y-5330000D02*
X4800000Y-5350000D01*
X4800000Y-5330000D02*
X4780000Y-5350000D01*
X4790000Y-6840000D02*
X4810000Y-6860000D01*
X4810000Y-6840000D02*
X4790000Y-6860000D01*
X4790000Y-7190000D02*
X4810000Y-7210000D01*
X4810000Y-7190000D02*
X4790000Y-7210000D01*
X4790000Y-7840000D02*
X4810000Y-7860000D01*
X4810000Y-7840000D02*
X4790000Y-7860000D01*
X4855000Y-7645000D02*
X4875000Y-7665000D01*
X4875000Y-7645000D02*
X4855000Y-7665000D01*
X4890000Y-6990000D02*
X4910000Y-7010000D01*
X4910000Y-6990000D02*
X4890000Y-7010000D01*
X4935000Y-6665000D02*
X4955000Y-6685000D01*
X4955000Y-6665000D02*
X4935000Y-6685000D01*
X4935000Y-6885000D02*
X4955000Y-6905000D01*
X4955000Y-6885000D02*
X4935000Y-6905000D01*
X4950000Y-6795000D02*
X4970000Y-6815000D01*
X4970000Y-6795000D02*
X4950000Y-6815000D01*
X4990000Y-7190000D02*
X5010000Y-7210000D01*
X5010000Y-7190000D02*
X4990000Y-7210000D01*
X5040000Y-7140000D02*
X5060000Y-7160000D01*
X5060000Y-7140000D02*
X5040000Y-7160000D01*
X5150000Y-7087234D02*
X5170000Y-7107234D01*
X5170000Y-7087234D02*
X5150000Y-7107234D01*
X5185000Y-6855000D02*
X5205000Y-6875000D01*
X5205000Y-6855000D02*
X5185000Y-6875000D01*
X5210000Y-6725000D02*
X5230000Y-6745000D01*
X5230000Y-6725000D02*
X5210000Y-6745000D01*
X5290000Y-7670000D02*
X5310000Y-7690000D01*
X5310000Y-7670000D02*
X5290000Y-7690000D01*
X5290000Y-7840000D02*
X5310000Y-7860000D01*
X5310000Y-7840000D02*
X5290000Y-7860000D01*
X5309923Y-6793931D02*
X5329923Y-6813931D01*
X5329923Y-6793931D02*
X5309923Y-6813931D01*
X5310000Y-4915000D02*
X5330000Y-4935000D01*
X5330000Y-4915000D02*
X5310000Y-4935000D01*
X5320000Y-5235000D02*
X5340000Y-5255000D01*
X5340000Y-5235000D02*
X5320000Y-5255000D01*
X5325000Y-7080000D02*
X5345000Y-7100000D01*
X5345000Y-7080000D02*
X5325000Y-7100000D01*
X5340000Y-6840000D02*
X5360000Y-6860000D01*
X5360000Y-6840000D02*
X5340000Y-6860000D01*
X5390000Y-6740000D02*
X5410000Y-6760000D01*
X5410000Y-6740000D02*
X5390000Y-6760000D01*
X5390000Y-6790000D02*
X5410000Y-6810000D01*
X5410000Y-6790000D02*
X5390000Y-6810000D01*
X5390000Y-7115000D02*
X5410000Y-7135000D01*
X5410000Y-7115000D02*
X5390000Y-7135000D01*
X5410000Y-5375000D02*
X5430000Y-5395000D01*
X5430000Y-5375000D02*
X5410000Y-5395000D01*
X5470000Y-6695000D02*
X5490000Y-6715000D01*
X5490000Y-6695000D02*
X5470000Y-6715000D01*
X5540000Y-4890000D02*
X5560000Y-4910000D01*
X5560000Y-4890000D02*
X5540000Y-4910000D01*
X5540000Y-5515000D02*
X5560000Y-5535000D01*
X5560000Y-5515000D02*
X5540000Y-5535000D01*
X5590000Y-6690000D02*
X5610000Y-6710000D01*
X5610000Y-6690000D02*
X5590000Y-6710000D01*
X5590000Y-7040000D02*
X5610000Y-7060000D01*
X5610000Y-7040000D02*
X5590000Y-7060000D01*
X5690000Y-6240000D02*
X5710000Y-6260000D01*
X5710000Y-6240000D02*
X5690000Y-6260000D01*
X5690000Y-8265000D02*
X5710000Y-8285000D01*
X5710000Y-8265000D02*
X5690000Y-8285000D01*
X5699500Y-6630500D02*
X5719500Y-6650500D01*
X5719500Y-6630500D02*
X5699500Y-6650500D01*
X5703500Y-6376500D02*
X5723500Y-6396500D01*
X5723500Y-6376500D02*
X5703500Y-6396500D01*
X5703500Y-6503500D02*
X5723500Y-6523500D01*
X5723500Y-6503500D02*
X5703500Y-6523500D01*
X5705000Y-6870000D02*
X5725000Y-6890000D01*
X5725000Y-6870000D02*
X5705000Y-6890000D01*
X5738000Y-7540000D02*
X5758000Y-7560000D01*
X5758000Y-7540000D02*
X5738000Y-7560000D01*
X5738000Y-8290000D02*
X5758000Y-8310000D01*
X5758000Y-8290000D02*
X5738000Y-8310000D01*
X5738000Y-8390000D02*
X5758000Y-8410000D01*
X5758000Y-8390000D02*
X5738000Y-8410000D01*
X5740000Y-8490000D02*
X5760000Y-8510000D01*
X5760000Y-8490000D02*
X5740000Y-8510000D01*
X5790000Y-6890000D02*
X5810000Y-6910000D01*
X5810000Y-6890000D02*
X5790000Y-6910000D01*
X5790000Y-8270000D02*
X5810000Y-8290000D01*
X5810000Y-8270000D02*
X5790000Y-8290000D01*
X5840000Y-6990000D02*
X5860000Y-7010000D01*
X5860000Y-6990000D02*
X5840000Y-7010000D01*
X5940000Y-8490000D02*
X5960000Y-8510000D01*
X5960000Y-8490000D02*
X5940000Y-8510000D01*
X5990000Y-7040000D02*
X6010000Y-7060000D01*
X6010000Y-7040000D02*
X5990000Y-7060000D01*
X6040000Y-8240000D02*
X6060000Y-8260000D01*
X6060000Y-8240000D02*
X6040000Y-8260000D01*
X6190000Y-7840000D02*
X6210000Y-7860000D01*
X6210000Y-7840000D02*
X6190000Y-7860000D01*
X6190000Y-8090000D02*
X6210000Y-8110000D01*
X6210000Y-8090000D02*
X6190000Y-8110000D01*
X6190000Y-8390000D02*
X6210000Y-8410000D01*
X6210000Y-8390000D02*
X6190000Y-8410000D01*
X6240000Y-7590000D02*
X6260000Y-7610000D01*
X6260000Y-7590000D02*
X6240000Y-7610000D01*
X6290000Y-6790000D02*
X6310000Y-6810000D01*
X6310000Y-6790000D02*
X6290000Y-6810000D01*
X6290000Y-6990000D02*
X6310000Y-7010000D01*
X6310000Y-6990000D02*
X6290000Y-7010000D01*
X6290000Y-7190000D02*
X6310000Y-7210000D01*
X6310000Y-7190000D02*
X6290000Y-7210000D01*
X6290000Y-7390000D02*
X6310000Y-7410000D01*
X6310000Y-7390000D02*
X6290000Y-7410000D01*
X6290000Y-8240000D02*
X6310000Y-8260000D01*
X6310000Y-8240000D02*
X6290000Y-8260000D01*
X6340000Y-7940000D02*
X6360000Y-7960000D01*
X6360000Y-7940000D02*
X6340000Y-7960000D01*
X6340000Y-8490000D02*
X6360000Y-8510000D01*
X6360000Y-8490000D02*
X6340000Y-8510000D01*
X6565000Y-6813500D02*
X6585000Y-6833500D01*
X6585000Y-6813500D02*
X6565000Y-6833500D01*
X6640000Y-4890000D02*
X6660000Y-4910000D01*
X6660000Y-4890000D02*
X6640000Y-4910000D01*
X6640000Y-5490000D02*
X6660000Y-5510000D01*
X6660000Y-5490000D02*
X6640000Y-5510000D01*
X6670000Y-2795000D02*
X6690000Y-2815000D01*
X6690000Y-2795000D02*
X6670000Y-2815000D01*
X6770000Y-2795000D02*
X6790000Y-2815000D01*
X6790000Y-2795000D02*
X6770000Y-2815000D01*
X6800000Y-5335000D02*
X6820000Y-5355000D01*
X6820000Y-5335000D02*
X6800000Y-5355000D01*
X6840000Y-4750000D02*
X6860000Y-4770000D01*
X6860000Y-4750000D02*
X6840000Y-4770000D01*
X6875000Y-7527500D02*
X6895000Y-7547500D01*
X6895000Y-7527500D02*
X6875000Y-7547500D01*
X7296185Y-5890480D02*
X7316185Y-5910480D01*
X7316185Y-5890480D02*
X7296185Y-5910480D01*
X7415200Y-7090495D02*
X7435200Y-7110495D01*
X7435200Y-7090495D02*
X7415200Y-7110495D01*
X7440000Y-4740000D02*
X7460000Y-4760000D01*
X7460000Y-4740000D02*
X7440000Y-4760000D01*
X7545200Y-5575495D02*
X7565200Y-5595495D01*
X7565200Y-5575495D02*
X7545200Y-5595495D01*
X7670200Y-7490495D02*
X7690200Y-7510495D01*
X7690200Y-7490495D02*
X7670200Y-7510495D01*
X7845200Y-7155495D02*
X7865200Y-7175495D01*
X7865200Y-7155495D02*
X7845200Y-7175495D01*
X7848244Y-5331756D02*
X7868244Y-5351756D01*
X7868244Y-5331756D02*
X7848244Y-5351756D01*
X7850200Y-5495495D02*
X7870200Y-5515495D01*
X7870200Y-5495495D02*
X7850200Y-5515495D01*
X7965200Y-7415495D02*
X7985200Y-7435495D01*
X7985200Y-7415495D02*
X7965200Y-7435495D01*
X8105200Y-7320495D02*
X8125200Y-7340495D01*
X8125200Y-7320495D02*
X8105200Y-7340495D01*
X8235200Y-6235495D02*
X8255200Y-6255495D01*
X8255200Y-6235495D02*
X8235200Y-6255495D01*
X8255200Y-6170495D02*
X8275200Y-6190495D01*
X8275200Y-6170495D02*
X8255200Y-6190495D01*
X8365200Y-7250495D02*
X8385200Y-7270495D01*
X8385200Y-7250495D02*
X8365200Y-7270495D01*
X8385200Y-6290495D02*
X8405200Y-6310495D01*
X8405200Y-6290495D02*
X8385200Y-6310495D01*
X8400200Y-6035495D02*
X8420200Y-6055495D01*
X8420200Y-6035495D02*
X8400200Y-6055495D01*
X8440200Y-5835495D02*
X8460200Y-5855495D01*
X8460200Y-5835495D02*
X8440200Y-5855495D01*
X8465200Y-4815495D02*
X8485200Y-4835495D01*
X8485200Y-4815495D02*
X8465200Y-4835495D01*
X8465200Y-4915495D02*
X8485200Y-4935495D01*
X8485200Y-4915495D02*
X8465200Y-4935495D01*
X8480000Y-4985495D02*
X8500000Y-5005495D01*
X8500000Y-4985495D02*
X8480000Y-5005495D01*
X8490000Y-4540000D02*
X8510000Y-4560000D01*
X8510000Y-4540000D02*
X8490000Y-4560000D01*
X8640000Y-4240000D02*
X8660000Y-4260000D01*
X8660000Y-4240000D02*
X8640000Y-4260000D01*
X8830200Y-5065495D02*
X8850200Y-5085495D01*
X8850200Y-5065495D02*
X8830200Y-5085495D01*
X8853276Y-4203276D02*
X8873276Y-4223276D01*
X8873276Y-4203276D02*
X8853276Y-4223276D01*
X8860200Y-5375495D02*
X8880200Y-5395495D01*
X8880200Y-5375495D02*
X8860200Y-5395495D01*
X8900200Y-5705495D02*
X8920200Y-5725495D01*
X8920200Y-5705495D02*
X8900200Y-5725495D01*
X8910200Y-6475495D02*
X8930200Y-6495495D01*
X8930200Y-6475495D02*
X8910200Y-6495495D01*
X8915000Y-3165000D02*
X8935000Y-3185000D01*
X8935000Y-3165000D02*
X8915000Y-3185000D01*
X8933027Y-5792668D02*
X8953027Y-5812668D01*
X8953027Y-5792668D02*
X8933027Y-5812668D01*
X8960000Y-4700000D02*
X8980000Y-4720000D01*
X8980000Y-4700000D02*
X8960000Y-4720000D01*
X8990000Y-4135495D02*
X9010000Y-4155495D01*
X9010000Y-4135495D02*
X8990000Y-4155495D01*
X9000000Y-7370000D02*
X9020000Y-7390000D01*
X9020000Y-7370000D02*
X9000000Y-7390000D01*
X9110200Y-2605495D02*
X9130200Y-2625495D01*
X9130200Y-2605495D02*
X9110200Y-2625495D01*
X9160000Y-4105000D02*
X9180000Y-4125000D01*
X9180000Y-4105000D02*
X9160000Y-4125000D01*
X9180300Y-4845395D02*
X9200300Y-4865395D01*
X9200300Y-4845395D02*
X9180300Y-4865395D01*
X9190000Y-4185000D02*
X9210000Y-4205000D01*
X9210000Y-4185000D02*
X9190000Y-4205000D01*
X9210000Y-7015000D02*
X9230000Y-7035000D01*
X9230000Y-7015000D02*
X9210000Y-7035000D01*
X9215000Y-5820000D02*
X9235000Y-5840000D01*
X9235000Y-5820000D02*
X9215000Y-5840000D01*
X9275000Y-5295000D02*
X9295000Y-5315000D01*
X9295000Y-5295000D02*
X9275000Y-5315000D01*
X9300000Y-4645000D02*
X9320000Y-4665000D01*
X9320000Y-4645000D02*
X9300000Y-4665000D01*
X9310000Y-5020000D02*
X9330000Y-5040000D01*
X9330000Y-5020000D02*
X9310000Y-5040000D01*
X9310000Y-5655000D02*
X9330000Y-5675000D01*
X9330000Y-5655000D02*
X9310000Y-5675000D01*
X9320000Y-6000000D02*
X9340000Y-6020000D01*
X9340000Y-6000000D02*
X9320000Y-6020000D01*
X9330000Y-7645000D02*
X9350000Y-7665000D01*
X9350000Y-7645000D02*
X9330000Y-7665000D01*
X9340000Y-5200000D02*
X9360000Y-5220000D01*
X9360000Y-5200000D02*
X9340000Y-5220000D01*
X9395200Y-6675495D02*
X9415200Y-6695495D01*
X9415200Y-6675495D02*
X9395200Y-6695495D01*
X9435200Y-4308495D02*
X9455200Y-4328495D01*
X9455200Y-4308495D02*
X9435200Y-4328495D01*
X9505000Y-4530000D02*
X9525000Y-4550000D01*
X9525000Y-4530000D02*
X9505000Y-4550000D01*
X9505000Y-6285000D02*
X9525000Y-6305000D01*
X9525000Y-6285000D02*
X9505000Y-6305000D01*
X9515000Y-3340000D02*
X9535000Y-3360000D01*
X9535000Y-3340000D02*
X9515000Y-3360000D01*
X9560000Y-7770000D02*
X9580000Y-7790000D01*
X9580000Y-7770000D02*
X9560000Y-7790000D01*
X9585200Y-2375495D02*
X9605200Y-2395495D01*
X9605200Y-2375495D02*
X9585200Y-2395495D01*
X9650000Y-5149631D02*
X9670000Y-5169631D01*
X9670000Y-5149631D02*
X9650000Y-5169631D01*
X9675200Y-6610495D02*
X9695200Y-6630495D01*
X9695200Y-6610495D02*
X9675200Y-6630495D01*
X9715000Y-5880000D02*
X9735000Y-5900000D01*
X9735000Y-5880000D02*
X9715000Y-5900000D01*
X9755200Y-4100495D02*
X9775200Y-4120495D01*
X9775200Y-4100495D02*
X9755200Y-4120495D01*
X9810200Y-4145495D02*
X9830200Y-4165495D01*
X9830200Y-4145495D02*
X9810200Y-4165495D01*
X9815000Y-2515000D02*
X9835000Y-2535000D01*
X9835000Y-2515000D02*
X9815000Y-2535000D01*
X9915000Y-2665000D02*
X9935000Y-2685000D01*
X9935000Y-2665000D02*
X9915000Y-2685000D01*
X9920200Y-4960495D02*
X9940200Y-4980495D01*
X9940200Y-4960495D02*
X9920200Y-4980495D01*
X9980200Y-3685495D02*
X10000200Y-3705495D01*
X10000200Y-3685495D02*
X9980200Y-3705495D01*
X10005200Y-3920495D02*
X10025200Y-3940495D01*
X10025200Y-3920495D02*
X10005200Y-3940495D01*
X10005224Y-4180471D02*
X10025224Y-4200472D01*
X10025224Y-4180471D02*
X10005224Y-4200472D01*
X10010000Y-6040000D02*
X10030000Y-6060000D01*
X10030000Y-6040000D02*
X10010000Y-6060000D01*
X10120200Y-3490495D02*
X10140200Y-3510495D01*
X10140200Y-3490495D02*
X10120200Y-3510495D01*
X10135200Y-4370495D02*
X10155200Y-4390495D01*
X10155200Y-4370495D02*
X10135200Y-4390495D01*
X10150200Y-4505495D02*
X10170200Y-4525495D01*
X10170200Y-4505495D02*
X10150200Y-4525495D01*
X10150200Y-6590495D02*
X10170200Y-6610495D01*
X10170200Y-6590495D02*
X10150200Y-6610495D01*
X10161200Y-4064495D02*
X10181200Y-4084495D01*
X10181200Y-4064495D02*
X10161200Y-4084495D01*
X10177700Y-5597995D02*
X10197700Y-5617995D01*
X10197700Y-5597995D02*
X10177700Y-5617995D01*
X10185200Y-3430495D02*
X10205200Y-3450495D01*
X10205200Y-3430495D02*
X10185200Y-3450495D01*
X10210200Y-5485495D02*
X10230200Y-5505495D01*
X10230200Y-5485495D02*
X10210200Y-5505495D01*
X10210200Y-6975495D02*
X10230200Y-6995495D01*
X10230200Y-6975495D02*
X10210200Y-6995495D01*
X10275200Y-6845495D02*
X10295200Y-6865495D01*
X10295200Y-6845495D02*
X10275200Y-6865495D01*
X10350334Y-6109728D02*
X10370334Y-6129728D01*
X10370334Y-6109728D02*
X10350334Y-6129728D01*
X10375000Y-7935000D02*
X10395000Y-7955000D01*
X10395000Y-7935000D02*
X10375000Y-7955000D01*
X10390000Y-3620495D02*
X10410000Y-3640495D01*
X10410000Y-3620495D02*
X10390000Y-3640495D01*
X10398950Y-5759245D02*
X10418950Y-5779245D01*
X10418950Y-5759245D02*
X10398950Y-5779245D01*
X10455000Y-5395000D02*
X10475000Y-5415000D01*
X10475000Y-5395000D02*
X10455000Y-5415000D01*
X10475200Y-6940495D02*
X10495200Y-6960495D01*
X10495200Y-6940495D02*
X10475200Y-6960495D01*
X10500200Y-4430495D02*
X10520200Y-4450495D01*
X10520200Y-4430495D02*
X10500200Y-4450495D01*
X10520200Y-3560495D02*
X10540200Y-3580495D01*
X10540200Y-3560495D02*
X10520200Y-3580495D01*
X10618867Y-3634656D02*
X10638867Y-3654656D01*
X10638867Y-3634656D02*
X10618867Y-3654656D01*
X10620200Y-4485495D02*
X10640200Y-4505495D01*
X10640200Y-4485495D02*
X10620200Y-4505495D01*
X10635200Y-7360495D02*
X10655200Y-7380495D01*
X10655200Y-7360495D02*
X10635200Y-7380495D01*
X10679672Y-6249966D02*
X10699672Y-6269966D01*
X10699672Y-6249966D02*
X10679672Y-6269966D01*
X10680200Y-4495495D02*
X10700200Y-4515495D01*
X10700200Y-4495495D02*
X10680200Y-4515495D01*
X10685200Y-6055495D02*
X10705200Y-6075495D01*
X10705200Y-6055495D02*
X10685200Y-6075495D01*
X10689676Y-6350100D02*
X10709676Y-6370100D01*
X10709676Y-6350100D02*
X10689676Y-6370100D01*
X10709200Y-4977495D02*
X10729200Y-4997495D01*
X10729200Y-4977495D02*
X10709200Y-4997495D01*
X10710200Y-3615495D02*
X10730200Y-3635495D01*
X10730200Y-3615495D02*
X10710200Y-3635495D01*
X10740200Y-7595495D02*
X10760200Y-7615495D01*
X10760200Y-7595495D02*
X10740200Y-7615495D01*
X10763689Y-4443596D02*
X10783689Y-4463596D01*
X10783689Y-4443596D02*
X10763689Y-4463596D01*
X10818298Y-4461598D02*
X10838298Y-4481598D01*
X10838298Y-4461598D02*
X10818298Y-4481598D01*
X10895200Y-4550495D02*
X10915200Y-4570495D01*
X10915200Y-4550495D02*
X10895200Y-4570495D01*
X10940000Y-7140000D02*
X10960000Y-7160000D01*
X10960000Y-7140000D02*
X10940000Y-7160000D01*
X10945200Y-7625495D02*
X10965200Y-7645495D01*
X10965200Y-7625495D02*
X10945200Y-7645495D01*
X10960000Y-4445000D02*
X10980000Y-4465000D01*
X10980000Y-4445000D02*
X10960000Y-4465000D01*
X11000200Y-6910495D02*
X11020200Y-6930495D01*
X11020200Y-6910495D02*
X11000200Y-6930495D01*
X11022538Y-6467361D02*
X11042538Y-6487361D01*
X11042538Y-6467361D02*
X11022538Y-6487361D01*
X11040200Y-3455495D02*
X11060200Y-3475495D01*
X11060200Y-3455495D02*
X11040200Y-3475495D01*
X11045200Y-7355495D02*
X11065200Y-7375495D01*
X11065200Y-7355495D02*
X11045200Y-7375495D01*
X11069700Y-5519995D02*
X11089700Y-5539995D01*
X11089700Y-5519995D02*
X11069700Y-5539995D01*
X11140729Y-6649966D02*
X11160729Y-6669966D01*
X11160729Y-6649966D02*
X11140729Y-6669966D01*
X11175200Y-5589995D02*
X11195200Y-5609995D01*
X11195200Y-5589995D02*
X11175200Y-5609995D01*
X11225200Y-4445495D02*
X11245200Y-4465495D01*
X11245200Y-4445495D02*
X11225200Y-4465495D01*
X11245200Y-5745495D02*
X11265200Y-5765495D01*
X11265200Y-5745495D02*
X11245200Y-5765495D01*
X11335200Y-5885495D02*
X11355200Y-5905495D01*
X11355200Y-5885495D02*
X11335200Y-5905495D01*
X11430200Y-7340495D02*
X11450200Y-7360495D01*
X11450200Y-7340495D02*
X11430200Y-7360495D01*
X11445200Y-3825495D02*
X11465200Y-3845495D01*
X11465200Y-3825495D02*
X11445200Y-3845495D01*
X11460200Y-4235595D02*
X11480200Y-4255595D01*
X11480200Y-4235595D02*
X11460200Y-4255595D01*
X11460200Y-6255495D02*
X11480200Y-6275495D01*
X11480200Y-6255495D02*
X11460200Y-6275495D01*
X11470200Y-4040495D02*
X11490200Y-4060495D01*
X11490200Y-4040495D02*
X11470200Y-4060495D01*
X11570200Y-5420495D02*
X11590200Y-5440495D01*
X11590200Y-5420495D02*
X11570200Y-5440495D01*
X11590660Y-3427154D02*
X11610660Y-3447154D01*
X11610660Y-3427154D02*
X11590660Y-3447154D01*
X11595200Y-3855495D02*
X11615200Y-3875495D01*
X11615200Y-3855495D02*
X11595200Y-3875495D01*
X11640200Y-4065495D02*
X11660200Y-4085495D01*
X11660200Y-4065495D02*
X11640200Y-4085495D01*
X11695200Y-5415495D02*
X11715200Y-5435495D01*
X11715200Y-5415495D02*
X11695200Y-5435495D01*
X11750200Y-4235495D02*
X11770200Y-4255495D01*
X11770200Y-4235495D02*
X11750200Y-4255495D01*
X11845200Y-7190495D02*
X11865200Y-7210495D01*
X11865200Y-7190495D02*
X11845200Y-7210495D01*
X11860200Y-5875495D02*
X11880200Y-5895495D01*
X11880200Y-5875495D02*
X11860200Y-5895495D01*
X11870521Y-5340321D02*
X11890521Y-5360321D01*
X11890521Y-5340321D02*
X11870521Y-5360321D01*
X11875200Y-7570495D02*
X11895200Y-7590495D01*
X11895200Y-7570495D02*
X11875200Y-7590495D01*
X11879962Y-5260881D02*
X11899962Y-5280881D01*
X11899962Y-5260881D02*
X11879962Y-5280881D01*
X11880198Y-5100881D02*
X11900198Y-5120881D01*
X11900198Y-5100881D02*
X11880198Y-5120881D01*
X11880200Y-4940495D02*
X11900200Y-4960495D01*
X11900200Y-4940495D02*
X11880200Y-4960495D01*
X11880200Y-5020495D02*
X11900200Y-5040495D01*
X11900200Y-5020495D02*
X11880200Y-5040495D01*
X11880231Y-5180881D02*
X11900231Y-5200881D01*
X11900231Y-5180881D02*
X11880231Y-5200881D01*
X11905200Y-3825495D02*
X11925200Y-3845495D01*
X11925200Y-3825495D02*
X11905200Y-3845495D01*
X11920126Y-3615421D02*
X11940126Y-3635421D01*
X11940126Y-3615421D02*
X11920126Y-3635421D01*
X11935200Y-4765495D02*
X11955200Y-4785495D01*
X11955200Y-4765495D02*
X11935200Y-4785495D01*
X11941658Y-4871710D02*
X11961658Y-4891710D01*
X11961658Y-4871710D02*
X11941658Y-4891710D01*
X11955200Y-6260495D02*
X11975200Y-6280495D01*
X11975200Y-6260495D02*
X11955200Y-6280495D01*
X11960124Y-4050571D02*
X11980124Y-4070571D01*
X11980124Y-4050571D02*
X11960124Y-4070571D01*
X12015200Y-3850495D02*
X12035200Y-3870495D01*
X12035200Y-3850495D02*
X12015200Y-3870495D01*
X12065200Y-5465495D02*
X12085200Y-5485495D01*
X12085200Y-5465495D02*
X12065200Y-5485495D01*
X12093589Y-6313884D02*
X12113589Y-6333884D01*
X12113589Y-6313884D02*
X12093589Y-6333884D01*
X12100200Y-3477495D02*
X12120200Y-3497495D01*
X12120200Y-3477495D02*
X12100200Y-3497495D01*
X12117700Y-6617995D02*
X12137700Y-6637995D01*
X12137700Y-6617995D02*
X12117700Y-6637995D01*
X12120000Y-6705000D02*
X12140000Y-6725000D01*
X12140000Y-6705000D02*
X12120000Y-6725000D01*
X12120200Y-6149245D02*
X12140200Y-6169245D01*
X12140200Y-6149245D02*
X12120200Y-6169245D01*
X12129471Y-4875700D02*
X12149471Y-4895700D01*
X12149471Y-4875700D02*
X12129471Y-4895700D01*
X12135200Y-4740495D02*
X12155200Y-4760495D01*
X12155200Y-4740495D02*
X12135200Y-4760495D01*
X12135200Y-4955495D02*
X12155200Y-4975495D01*
X12155200Y-4955495D02*
X12135200Y-4975495D01*
X12137523Y-5043319D02*
X12157523Y-5063319D01*
X12157523Y-5043319D02*
X12137523Y-5063319D01*
X12165200Y-5245495D02*
X12185200Y-5265495D01*
X12185200Y-5245495D02*
X12165200Y-5265495D01*
X12185200Y-5665495D02*
X12205200Y-5685495D01*
X12205200Y-5665495D02*
X12185200Y-5685495D01*
X12185200Y-5790495D02*
X12205200Y-5810495D01*
X12205200Y-5790495D02*
X12185200Y-5810495D01*
X12190200Y-5950495D02*
X12210200Y-5970495D01*
X12210200Y-5950495D02*
X12190200Y-5970495D01*
X12200200Y-6030495D02*
X12220200Y-6050495D01*
X12220200Y-6030495D02*
X12200200Y-6050495D01*
X12290200Y-3805495D02*
X12310200Y-3825495D01*
X12310200Y-3805495D02*
X12290200Y-3825495D01*
X12330200Y-4215495D02*
X12350200Y-4235495D01*
X12350200Y-4215495D02*
X12330200Y-4235495D01*
X12335200Y-3945395D02*
X12355200Y-3965395D01*
X12355200Y-3945395D02*
X12335200Y-3965395D01*
X12375200Y-3550495D02*
X12395200Y-3570495D01*
X12395200Y-3550495D02*
X12375200Y-3570495D01*
X12455200Y-3865495D02*
X12475200Y-3885495D01*
X12475200Y-3865495D02*
X12455200Y-3885495D01*
X12490000Y-7940000D02*
X12510000Y-7960000D01*
X12510000Y-7940000D02*
X12490000Y-7960000D01*
X12605000Y-8295000D02*
X12625000Y-8315000D01*
X12625000Y-8295000D02*
X12605000Y-8315000D01*
X12705000Y-8065000D02*
X12725000Y-8085000D01*
X12725000Y-8065000D02*
X12705000Y-8085000D01*
X12740200Y-6060495D02*
X12760200Y-6080495D01*
X12760200Y-6060495D02*
X12740200Y-6080495D01*
X12810000Y-8215000D02*
X12830000Y-8235000D01*
X12830000Y-8215000D02*
X12810000Y-8235000D01*
X13025200Y-5912903D02*
X13045200Y-5932903D01*
X13045200Y-5912903D02*
X13025200Y-5932903D01*
X5001250Y-5130000D02*
G75*
G02*
X4971250Y-5130000I-15000J0D01*
G01*
X4971250Y-5130000D02*
G75*
G02*
X5001250Y-5130000I15000J0D01*
G01*
X5001250Y-5320000D02*
G75*
G02*
X4971250Y-5320000I-15000J0D01*
G01*
X4971250Y-5320000D02*
G75*
G02*
X5001250Y-5320000I15000J0D01*
G01*
X5160000Y-6635000D02*
G75*
G02*
X5130000Y-6635000I-15000J0D01*
G01*
X5130000Y-6635000D02*
G75*
G02*
X5160000Y-6635000I15000J0D01*
G01*
X5228750Y-5130000D02*
G75*
G02*
X5198750Y-5130000I-15000J0D01*
G01*
X5198750Y-5130000D02*
G75*
G02*
X5228750Y-5130000I15000J0D01*
G01*
X5228750Y-5320000D02*
G75*
G02*
X5198750Y-5320000I-15000J0D01*
G01*
X5198750Y-5320000D02*
G75*
G02*
X5228750Y-5320000I15000J0D01*
G01*
X5245000Y-7785000D02*
G75*
G02*
X5215000Y-7785000I-15000J0D01*
G01*
X5215000Y-7785000D02*
G75*
G02*
X5245000Y-7785000I15000J0D01*
G01*
X5465000Y-6850000D02*
G75*
G02*
X5435000Y-6850000I-15000J0D01*
G01*
X5435000Y-6850000D02*
G75*
G02*
X5465000Y-6850000I15000J0D01*
G01*
X5758000Y-6805000D02*
G75*
G02*
X5728000Y-6805000I-15000J0D01*
G01*
X5728000Y-6805000D02*
G75*
G02*
X5758000Y-6805000I15000J0D01*
G01*
X6608500Y-6417000D02*
G75*
G02*
X6578500Y-6417000I-15000J0D01*
G01*
X6578500Y-6417000D02*
G75*
G02*
X6608500Y-6417000I15000J0D01*
G01*
X9035000Y-2310000D02*
G75*
G02*
X9005000Y-2310000I-15000J0D01*
G01*
X9005000Y-2310000D02*
G75*
G02*
X9035000Y-2310000I15000J0D01*
G01*
X9065000Y-6012500D02*
G75*
G02*
X9035000Y-6012500I-15000J0D01*
G01*
X9035000Y-6012500D02*
G75*
G02*
X9065000Y-6012500I15000J0D01*
G01*
X9070000Y-6800000D02*
G75*
G02*
X9040000Y-6800000I-15000J0D01*
G01*
X9040000Y-6800000D02*
G75*
G02*
X9070000Y-6800000I15000J0D01*
G01*
X9105000Y-6295000D02*
G75*
G02*
X9075000Y-6295000I-15000J0D01*
G01*
X9075000Y-6295000D02*
G75*
G02*
X9105000Y-6295000I15000J0D01*
G01*
X9290000Y-3350000D02*
G75*
G02*
X9260000Y-3350000I-15000J0D01*
G01*
X9260000Y-3350000D02*
G75*
G02*
X9290000Y-3350000I15000J0D01*
G01*
X9405000Y-3000000D02*
G75*
G02*
X9375000Y-3000000I-15000J0D01*
G01*
X9375000Y-3000000D02*
G75*
G02*
X9405000Y-3000000I15000J0D01*
G01*
X9415000Y-6575000D02*
G75*
G02*
X9385000Y-6575000I-15000J0D01*
G01*
X9385000Y-6575000D02*
G75*
G02*
X9415000Y-6575000I15000J0D01*
G01*
X9465000Y-3950000D02*
G75*
G02*
X9435000Y-3950000I-15000J0D01*
G01*
X9435000Y-3950000D02*
G75*
G02*
X9465000Y-3950000I15000J0D01*
G01*
X9555000Y-5635000D02*
G75*
G02*
X9525000Y-5635000I-15000J0D01*
G01*
X9525000Y-5635000D02*
G75*
G02*
X9555000Y-5635000I15000J0D01*
G01*
X9575200Y-6785495D02*
G75*
G02*
X9545200Y-6785495I-15000J0D01*
G01*
X9545200Y-6785495D02*
G75*
G02*
X9575200Y-6785495I15000J0D01*
G01*
X9620000Y-4657130D02*
G75*
G02*
X9590000Y-4657130I-15000J0D01*
G01*
X9590000Y-4657130D02*
G75*
G02*
X9620000Y-4657130I15000J0D01*
G01*
X9630000Y-5040000D02*
G75*
G02*
X9600000Y-5040000I-15000J0D01*
G01*
X9600000Y-5040000D02*
G75*
G02*
X9630000Y-5040000I15000J0D01*
G01*
X9665000Y-2600000D02*
G75*
G02*
X9635000Y-2600000I-15000J0D01*
G01*
X9635000Y-2600000D02*
G75*
G02*
X9665000Y-2600000I15000J0D01*
G01*
X9670000Y-7075000D02*
G75*
G02*
X9640000Y-7075000I-15000J0D01*
G01*
X9640000Y-7075000D02*
G75*
G02*
X9670000Y-7075000I15000J0D01*
G01*
X9887427Y-6237573D02*
G75*
G02*
X9857427Y-6237573I-15000J0D01*
G01*
X9857427Y-6237573D02*
G75*
G02*
X9887427Y-6237573I15000J0D01*
G01*
X9926650Y-5212962D02*
G75*
G02*
X9896650Y-5212962I-15000J0D01*
G01*
X9896650Y-5212962D02*
G75*
G02*
X9926650Y-5212962I15000J0D01*
G01*
X10100000Y-4867701D02*
G75*
G02*
X10070000Y-4867701I-15000J0D01*
G01*
X10070000Y-4867701D02*
G75*
G02*
X10100000Y-4867701I15000J0D01*
G01*
X10265000Y-3800000D02*
G75*
G02*
X10235000Y-3800000I-15000J0D01*
G01*
X10235000Y-3800000D02*
G75*
G02*
X10265000Y-3800000I15000J0D01*
G01*
X10305200Y-5330495D02*
G75*
G02*
X10275200Y-5330495I-15000J0D01*
G01*
X10275200Y-5330495D02*
G75*
G02*
X10305200Y-5330495I15000J0D01*
G01*
X10470200Y-4365595D02*
G75*
G02*
X10440200Y-4365595I-15000J0D01*
G01*
X10440200Y-4365595D02*
G75*
G02*
X10470200Y-4365595I15000J0D01*
G01*
X10494056Y-5310495D02*
G75*
G02*
X10464056Y-5310495I-15000J0D01*
G01*
X10464056Y-5310495D02*
G75*
G02*
X10494056Y-5310495I15000J0D01*
G01*
X10577624Y-6142919D02*
G75*
G02*
X10547624Y-6142919I-15000J0D01*
G01*
X10547624Y-6142919D02*
G75*
G02*
X10577624Y-6142919I15000J0D01*
G01*
X10900200Y-6525495D02*
G75*
G02*
X10870200Y-6525495I-15000J0D01*
G01*
X10870200Y-6525495D02*
G75*
G02*
X10900200Y-6525495I15000J0D01*
G01*
X10960200Y-4862495D02*
G75*
G02*
X10930200Y-4862495I-15000J0D01*
G01*
X10930200Y-4862495D02*
G75*
G02*
X10960200Y-4862495I15000J0D01*
G01*
X11076514Y-3386299D02*
G75*
G02*
X11046514Y-3386299I-15000J0D01*
G01*
X11046514Y-3386299D02*
G75*
G02*
X11076514Y-3386299I15000J0D01*
G01*
X11115200Y-7165495D02*
G75*
G02*
X11085200Y-7165495I-15000J0D01*
G01*
X11085200Y-7165495D02*
G75*
G02*
X11115200Y-7165495I15000J0D01*
G01*
X11175200Y-4575495D02*
G75*
G02*
X11145200Y-4575495I-15000J0D01*
G01*
X11145200Y-4575495D02*
G75*
G02*
X11175200Y-4575495I15000J0D01*
G01*
X11970200Y-5510495D02*
G75*
G02*
X11940200Y-5510495I-15000J0D01*
G01*
X11940200Y-5510495D02*
G75*
G02*
X11970200Y-5510495I15000J0D01*
G01*
X5075000Y-7030000D02*
X5075000Y-7070000D01*
X5055000Y-7050000D02*
X5095000Y-7050000D01*
X6133500Y-6580000D02*
X6133500Y-6620000D01*
X6113500Y-6600000D02*
X6153500Y-6600000D01*
X6700000Y-6380000D02*
X6700000Y-6420000D01*
X6680000Y-6400000D02*
X6720000Y-6400000D01*
X7366185Y-6030000D02*
X7366185Y-6070000D01*
X7346185Y-6050000D02*
X7386185Y-6050000D01*
X10555200Y-7515495D02*
X10555200Y-7555495D01*
X10535200Y-7535495D02*
X10575200Y-7535495D01*
X11865200Y-6495495D02*
X11865200Y-6535495D01*
X11845200Y-6515495D02*
X11885200Y-6515495D01*
X6907692Y-5110785D02*
X6907692Y-5076843D01*
X6873751Y-5076843D01*
X6873751Y-5110785D01*
X6907692Y-5110785D01*
X6989256Y-5178486D02*
X6989256Y-5144544D01*
X6955314Y-5144544D01*
X6955314Y-5178486D01*
X6989256Y-5178486D01*
X6125000Y-6925000D02*
X6150000Y-6900000D01*
X6125000Y-6875000D01*
X6100000Y-6900000D01*
X6125000Y-6925000D01*
X6500000Y-6325000D02*
X6525000Y-6300000D01*
X6500000Y-6275000D01*
X6475000Y-6300000D01*
X6500000Y-6325000D01*
X11425200Y-7565495D02*
X11450200Y-7540495D01*
X11425200Y-7515495D01*
X11400200Y-7540495D01*
X11425200Y-7565495D01*
X4963056Y-5676944D02*
X5023056Y-5736944D01*
X5023056Y-5676944D02*
X4963056Y-5736944D01*
X5023056Y-5706944D02*
G75*
G02*
X4963056Y-5706944I-30000J0D01*
G01*
X4963056Y-5706944D02*
G75*
G02*
X5023056Y-5706944I30000J0D01*
G01*
X5070000Y-4170000D02*
X5130000Y-4230000D01*
X5130000Y-4170000D02*
X5070000Y-4230000D01*
X5130000Y-4200000D02*
G75*
G02*
X5070000Y-4200000I-30000J0D01*
G01*
X5070000Y-4200000D02*
G75*
G02*
X5130000Y-4200000I30000J0D01*
G01*
X5970000Y-2845000D02*
X6030000Y-2905000D01*
X6030000Y-2845000D02*
X5970000Y-2905000D01*
X6030000Y-2875000D02*
G75*
G02*
X5970000Y-2875000I-30000J0D01*
G01*
X5970000Y-2875000D02*
G75*
G02*
X6030000Y-2875000I30000J0D01*
G01*
X6905200Y-5820495D02*
X6965200Y-5880495D01*
X6965200Y-5820495D02*
X6905200Y-5880495D01*
X6965200Y-5850495D02*
G75*
G02*
X6905200Y-5850495I-30000J0D01*
G01*
X6905200Y-5850495D02*
G75*
G02*
X6965200Y-5850495I30000J0D01*
G01*
X12050200Y-7540495D02*
X12110200Y-7600495D01*
X12110200Y-7540495D02*
X12050200Y-7600495D01*
X12110200Y-7570495D02*
G75*
G02*
X12050200Y-7570495I-30000J0D01*
G01*
X12050200Y-7570495D02*
G75*
G02*
X12110200Y-7570495I30000J0D01*
G01*
X12720000Y-6920000D02*
X12780000Y-6980000D01*
X12780000Y-6920000D02*
X12720000Y-6980000D01*
X12780000Y-6950000D02*
G75*
G02*
X12720000Y-6950000I-30000J0D01*
G01*
X12720000Y-6950000D02*
G75*
G02*
X12780000Y-6950000I30000J0D01*
G01*
X7771200Y-2379495D02*
X7851200Y-2459495D01*
X7851200Y-2379495D02*
X7771200Y-2459495D01*
X7811200Y-2379495D02*
X7811200Y-2459495D01*
X7771200Y-2419495D02*
X7851200Y-2419495D01*
X8016360Y-3603495D02*
X8096360Y-3683495D01*
X8096360Y-3603495D02*
X8016360Y-3683495D01*
X8056360Y-3603495D02*
X8056360Y-3683495D01*
X8016360Y-3643495D02*
X8096360Y-3643495D01*
X8016360Y-3803495D02*
X8096360Y-3883495D01*
X8096360Y-3803495D02*
X8016360Y-3883495D01*
X8056360Y-3803495D02*
X8056360Y-3883495D01*
X8016360Y-3843495D02*
X8096360Y-3843495D01*
X8025200Y-2379495D02*
X8105200Y-2459495D01*
X8105200Y-2379495D02*
X8025200Y-2459495D01*
X8065200Y-2379495D02*
X8065200Y-2459495D01*
X8025200Y-2419495D02*
X8105200Y-2419495D01*
X8216360Y-3603495D02*
X8296360Y-3683495D01*
X8296360Y-3603495D02*
X8216360Y-3683495D01*
X8256360Y-3603495D02*
X8256360Y-3683495D01*
X8216360Y-3643495D02*
X8296360Y-3643495D01*
X8216360Y-3803495D02*
X8296360Y-3883495D01*
X8296360Y-3803495D02*
X8216360Y-3883495D01*
X8256360Y-3803495D02*
X8256360Y-3883495D01*
X8216360Y-3843495D02*
X8296360Y-3843495D01*
X8416360Y-3603495D02*
X8496360Y-3683495D01*
X8496360Y-3603495D02*
X8416360Y-3683495D01*
X8456360Y-3603495D02*
X8456360Y-3683495D01*
X8416360Y-3643495D02*
X8496360Y-3643495D01*
X8416360Y-3803495D02*
X8496360Y-3883495D01*
X8496360Y-3803495D02*
X8416360Y-3883495D01*
X8456360Y-3803495D02*
X8456360Y-3883495D01*
X8416360Y-3843495D02*
X8496360Y-3843495D01*
D14*
X12847590Y-3150485D02*
X12956810Y-3259705D01*
X12956810Y-3150485D02*
X12847590Y-3259705D01*
X12940815Y-3243710D02*
X12940815Y-3166479D01*
X12863584Y-3166479D01*
X12863584Y-3243710D01*
X12940815Y-3243710D01*
X12847590Y-3379085D02*
X12956810Y-3488305D01*
X12956810Y-3379085D02*
X12847590Y-3488305D01*
X12940815Y-3472310D02*
X12940815Y-3395079D01*
X12863584Y-3395079D01*
X12863584Y-3472310D01*
X12940815Y-3472310D01*
X12847590Y-3607685D02*
X12956810Y-3716905D01*
X12956810Y-3607685D02*
X12847590Y-3716905D01*
X12940815Y-3700910D02*
X12940815Y-3623679D01*
X12863584Y-3623679D01*
X12863584Y-3700910D01*
X12940815Y-3700910D01*
X12847590Y-3836285D02*
X12956810Y-3945505D01*
X12956810Y-3836285D02*
X12847590Y-3945505D01*
X12940815Y-3929510D02*
X12940815Y-3852279D01*
X12863584Y-3852279D01*
X12863584Y-3929510D01*
X12940815Y-3929510D01*
X12847590Y-4064885D02*
X12956810Y-4174105D01*
X12956810Y-4064885D02*
X12847590Y-4174105D01*
X12940815Y-4158110D02*
X12940815Y-4080879D01*
X12863584Y-4080879D01*
X12863584Y-4158110D01*
X12940815Y-4158110D01*
X12847590Y-4293485D02*
X12956810Y-4402705D01*
X12956810Y-4293485D02*
X12847590Y-4402705D01*
X12940815Y-4386711D02*
X12940815Y-4309480D01*
X12863584Y-4309480D01*
X12863584Y-4386711D01*
X12940815Y-4386711D01*
X12847590Y-4522085D02*
X12956810Y-4631305D01*
X12956810Y-4522085D02*
X12847590Y-4631305D01*
X12940815Y-4615311D02*
X12940815Y-4538080D01*
X12863584Y-4538080D01*
X12863584Y-4615311D01*
X12940815Y-4615311D01*
X12847590Y-4750685D02*
X12956810Y-4859905D01*
X12956810Y-4750685D02*
X12847590Y-4859905D01*
X12940815Y-4843911D02*
X12940815Y-4766680D01*
X12863584Y-4766680D01*
X12863584Y-4843911D01*
X12940815Y-4843911D01*
X12847590Y-4979285D02*
X12956810Y-5088505D01*
X12956810Y-4979285D02*
X12847590Y-5088505D01*
X12940815Y-5072511D02*
X12940815Y-4995280D01*
X12863584Y-4995280D01*
X12863584Y-5072511D01*
X12940815Y-5072511D01*
X12847590Y-5207885D02*
X12956810Y-5317105D01*
X12956810Y-5207885D02*
X12847590Y-5317105D01*
X12940815Y-5301111D02*
X12940815Y-5223880D01*
X12863584Y-5223880D01*
X12863584Y-5301111D01*
X12940815Y-5301111D01*
X12847590Y-5436485D02*
X12956810Y-5545705D01*
X12956810Y-5436485D02*
X12847590Y-5545705D01*
X12940815Y-5529711D02*
X12940815Y-5452480D01*
X12863584Y-5452480D01*
X12863584Y-5529711D01*
X12940815Y-5529711D01*
X12847590Y-5665085D02*
X12956810Y-5774305D01*
X12956810Y-5665085D02*
X12847590Y-5774305D01*
X12940815Y-5758310D02*
X12940815Y-5681079D01*
X12863584Y-5681079D01*
X12863584Y-5758310D01*
X12940815Y-5758310D01*
X12847590Y-5893685D02*
X12956810Y-6002905D01*
X12956810Y-5893685D02*
X12847590Y-6002905D01*
X12940815Y-5986910D02*
X12940815Y-5909679D01*
X12863584Y-5909679D01*
X12863584Y-5986910D01*
X12940815Y-5986910D01*
X12847590Y-6122285D02*
X12956810Y-6231505D01*
X12956810Y-6122285D02*
X12847590Y-6231505D01*
X12940815Y-6215510D02*
X12940815Y-6138279D01*
X12863584Y-6138279D01*
X12863584Y-6215510D01*
X12940815Y-6215510D01*
X12847590Y-6350885D02*
X12956810Y-6460105D01*
X12956810Y-6350885D02*
X12847590Y-6460105D01*
X12940815Y-6444110D02*
X12940815Y-6366879D01*
X12863584Y-6366879D01*
X12863584Y-6444110D01*
X12940815Y-6444110D01*
X13101590Y-3264785D02*
X13210810Y-3374005D01*
X13210810Y-3264785D02*
X13101590Y-3374005D01*
X13194815Y-3358010D02*
X13194815Y-3280779D01*
X13117584Y-3280779D01*
X13117584Y-3358010D01*
X13194815Y-3358010D01*
X13101590Y-3493385D02*
X13210810Y-3602605D01*
X13210810Y-3493385D02*
X13101590Y-3602605D01*
X13194815Y-3586610D02*
X13194815Y-3509379D01*
X13117584Y-3509379D01*
X13117584Y-3586610D01*
X13194815Y-3586610D01*
X13101590Y-3721985D02*
X13210810Y-3831205D01*
X13210810Y-3721985D02*
X13101590Y-3831205D01*
X13194815Y-3815210D02*
X13194815Y-3737979D01*
X13117584Y-3737979D01*
X13117584Y-3815210D01*
X13194815Y-3815210D01*
X13101590Y-3950585D02*
X13210810Y-4059805D01*
X13210810Y-3950585D02*
X13101590Y-4059805D01*
X13194815Y-4043810D02*
X13194815Y-3966579D01*
X13117584Y-3966579D01*
X13117584Y-4043810D01*
X13194815Y-4043810D01*
X13101590Y-4179185D02*
X13210810Y-4288405D01*
X13210810Y-4179185D02*
X13101590Y-4288405D01*
X13194815Y-4272411D02*
X13194815Y-4195180D01*
X13117584Y-4195180D01*
X13117584Y-4272411D01*
X13194815Y-4272411D01*
X13101590Y-4407785D02*
X13210810Y-4517005D01*
X13210810Y-4407785D02*
X13101590Y-4517005D01*
X13194815Y-4501011D02*
X13194815Y-4423780D01*
X13117584Y-4423780D01*
X13117584Y-4501011D01*
X13194815Y-4501011D01*
X13101590Y-4636385D02*
X13210810Y-4745605D01*
X13210810Y-4636385D02*
X13101590Y-4745605D01*
X13194815Y-4729611D02*
X13194815Y-4652380D01*
X13117584Y-4652380D01*
X13117584Y-4729611D01*
X13194815Y-4729611D01*
X13101590Y-4864985D02*
X13210810Y-4974205D01*
X13210810Y-4864985D02*
X13101590Y-4974205D01*
X13194815Y-4958211D02*
X13194815Y-4880980D01*
X13117584Y-4880980D01*
X13117584Y-4958211D01*
X13194815Y-4958211D01*
X13101590Y-5093585D02*
X13210810Y-5202805D01*
X13210810Y-5093585D02*
X13101590Y-5202805D01*
X13194815Y-5186811D02*
X13194815Y-5109580D01*
X13117584Y-5109580D01*
X13117584Y-5186811D01*
X13194815Y-5186811D01*
X13101590Y-5322185D02*
X13210810Y-5431405D01*
X13210810Y-5322185D02*
X13101590Y-5431405D01*
X13194815Y-5415411D02*
X13194815Y-5338180D01*
X13117584Y-5338180D01*
X13117584Y-5415411D01*
X13194815Y-5415411D01*
X13101590Y-5550785D02*
X13210810Y-5660005D01*
X13210810Y-5550785D02*
X13101590Y-5660005D01*
X13194815Y-5644010D02*
X13194815Y-5566780D01*
X13117584Y-5566780D01*
X13117584Y-5644010D01*
X13194815Y-5644010D01*
X13101590Y-5779385D02*
X13210810Y-5888605D01*
X13210810Y-5779385D02*
X13101590Y-5888605D01*
X13194815Y-5872610D02*
X13194815Y-5795379D01*
X13117584Y-5795379D01*
X13117584Y-5872610D01*
X13194815Y-5872610D01*
X13101590Y-6007985D02*
X13210810Y-6117205D01*
X13210810Y-6007985D02*
X13101590Y-6117205D01*
X13194815Y-6101210D02*
X13194815Y-6023979D01*
X13117584Y-6023979D01*
X13117584Y-6101210D01*
X13194815Y-6101210D01*
X13101590Y-6236585D02*
X13210810Y-6345805D01*
X13210810Y-6236585D02*
X13101590Y-6345805D01*
X13194815Y-6329810D02*
X13194815Y-6252579D01*
X13117584Y-6252579D01*
X13117584Y-6329810D01*
X13194815Y-6329810D01*
X13101590Y-6465185D02*
X13210810Y-6574405D01*
X13210810Y-6465185D02*
X13101590Y-6574405D01*
X13194815Y-6558410D02*
X13194815Y-6481179D01*
X13117584Y-6481179D01*
X13117584Y-6558410D01*
X13194815Y-6558410D01*
X13355590Y-3379085D02*
X13464810Y-3488305D01*
X13464810Y-3379085D02*
X13355590Y-3488305D01*
X13448815Y-3472310D02*
X13448815Y-3395079D01*
X13371584Y-3395079D01*
X13371584Y-3472310D01*
X13448815Y-3472310D01*
X13355590Y-3607685D02*
X13464810Y-3716905D01*
X13464810Y-3607685D02*
X13355590Y-3716905D01*
X13448815Y-3700910D02*
X13448815Y-3623679D01*
X13371584Y-3623679D01*
X13371584Y-3700910D01*
X13448815Y-3700910D01*
X13355590Y-3836285D02*
X13464810Y-3945505D01*
X13464810Y-3836285D02*
X13355590Y-3945505D01*
X13448815Y-3929510D02*
X13448815Y-3852279D01*
X13371584Y-3852279D01*
X13371584Y-3929510D01*
X13448815Y-3929510D01*
X13355590Y-4064885D02*
X13464810Y-4174105D01*
X13464810Y-4064885D02*
X13355590Y-4174105D01*
X13448815Y-4158110D02*
X13448815Y-4080879D01*
X13371584Y-4080879D01*
X13371584Y-4158110D01*
X13448815Y-4158110D01*
X13355590Y-4293485D02*
X13464810Y-4402705D01*
X13464810Y-4293485D02*
X13355590Y-4402705D01*
X13448815Y-4386711D02*
X13448815Y-4309480D01*
X13371584Y-4309480D01*
X13371584Y-4386711D01*
X13448815Y-4386711D01*
X13355590Y-4522085D02*
X13464810Y-4631305D01*
X13464810Y-4522085D02*
X13355590Y-4631305D01*
X13448815Y-4615311D02*
X13448815Y-4538080D01*
X13371584Y-4538080D01*
X13371584Y-4615311D01*
X13448815Y-4615311D01*
X13355590Y-4750685D02*
X13464810Y-4859905D01*
X13464810Y-4750685D02*
X13355590Y-4859905D01*
X13448815Y-4843911D02*
X13448815Y-4766680D01*
X13371584Y-4766680D01*
X13371584Y-4843911D01*
X13448815Y-4843911D01*
X13355590Y-4979285D02*
X13464810Y-5088505D01*
X13464810Y-4979285D02*
X13355590Y-5088505D01*
X13448815Y-5072511D02*
X13448815Y-4995280D01*
X13371584Y-4995280D01*
X13371584Y-5072511D01*
X13448815Y-5072511D01*
X13355590Y-5207885D02*
X13464810Y-5317105D01*
X13464810Y-5207885D02*
X13355590Y-5317105D01*
X13448815Y-5301111D02*
X13448815Y-5223880D01*
X13371584Y-5223880D01*
X13371584Y-5301111D01*
X13448815Y-5301111D01*
X13355590Y-5436485D02*
X13464810Y-5545705D01*
X13464810Y-5436485D02*
X13355590Y-5545705D01*
X13448815Y-5529711D02*
X13448815Y-5452480D01*
X13371584Y-5452480D01*
X13371584Y-5529711D01*
X13448815Y-5529711D01*
X13355590Y-5665085D02*
X13464810Y-5774305D01*
X13464810Y-5665085D02*
X13355590Y-5774305D01*
X13448815Y-5758310D02*
X13448815Y-5681079D01*
X13371584Y-5681079D01*
X13371584Y-5758310D01*
X13448815Y-5758310D01*
X13355590Y-5893685D02*
X13464810Y-6002905D01*
X13464810Y-5893685D02*
X13355590Y-6002905D01*
X13448815Y-5986910D02*
X13448815Y-5909679D01*
X13371584Y-5909679D01*
X13371584Y-5986910D01*
X13448815Y-5986910D01*
X13355590Y-6122285D02*
X13464810Y-6231505D01*
X13464810Y-6122285D02*
X13355590Y-6231505D01*
X13448815Y-6215510D02*
X13448815Y-6138279D01*
X13371584Y-6138279D01*
X13371584Y-6215510D01*
X13448815Y-6215510D01*
X13355590Y-6350885D02*
X13464810Y-6460105D01*
X13464810Y-6350885D02*
X13355590Y-6460105D01*
X13448815Y-6444110D02*
X13448815Y-6366879D01*
X13371584Y-6366879D01*
X13371584Y-6444110D01*
X13448815Y-6444110D01*
D15*
X7121200Y-2291495D02*
X7231200Y-2401495D01*
X7231200Y-2291495D02*
X7121200Y-2401495D01*
X7176200Y-2401495D02*
X7231200Y-2346495D01*
X7176200Y-2291495D01*
X7121200Y-2346495D01*
X7176200Y-2401495D01*
X7121200Y-2545495D02*
X7231200Y-2655495D01*
X7231200Y-2545495D02*
X7121200Y-2655495D01*
X7176200Y-2655495D02*
X7231200Y-2600495D01*
X7176200Y-2545495D01*
X7121200Y-2600495D01*
X7176200Y-2655495D01*
X7121200Y-3815495D02*
X7231200Y-3925495D01*
X7231200Y-3815495D02*
X7121200Y-3925495D01*
X7176200Y-3925495D02*
X7231200Y-3870495D01*
X7176200Y-3815495D01*
X7121200Y-3870495D01*
X7176200Y-3925495D01*
X7121200Y-4069495D02*
X7231200Y-4179495D01*
X7231200Y-4069495D02*
X7121200Y-4179495D01*
X7176200Y-4179495D02*
X7231200Y-4124495D01*
X7176200Y-4069495D01*
X7121200Y-4124495D01*
X7176200Y-4179495D01*
X7121200Y-4323495D02*
X7231200Y-4433495D01*
X7231200Y-4323495D02*
X7121200Y-4433495D01*
X7176200Y-4433495D02*
X7231200Y-4378495D01*
X7176200Y-4323495D01*
X7121200Y-4378495D01*
X7176200Y-4433495D01*
X7121200Y-5339495D02*
X7231200Y-5449495D01*
X7231200Y-5339495D02*
X7121200Y-5449495D01*
X7176200Y-5449495D02*
X7231200Y-5394495D01*
X7176200Y-5339495D01*
X7121200Y-5394495D01*
X7176200Y-5449495D01*
X7121200Y-5593495D02*
X7231200Y-5703495D01*
X7231200Y-5593495D02*
X7121200Y-5703495D01*
X7176200Y-5703495D02*
X7231200Y-5648495D01*
X7176200Y-5593495D01*
X7121200Y-5648495D01*
X7176200Y-5703495D01*
X7121200Y-5847495D02*
X7231200Y-5957495D01*
X7231200Y-5847495D02*
X7121200Y-5957495D01*
X7176200Y-5957495D02*
X7231200Y-5902495D01*
X7176200Y-5847495D01*
X7121200Y-5902495D01*
X7176200Y-5957495D01*
X7121200Y-6101495D02*
X7231200Y-6211495D01*
X7231200Y-6101495D02*
X7121200Y-6211495D01*
X7176200Y-6211495D02*
X7231200Y-6156495D01*
X7176200Y-6101495D01*
X7121200Y-6156495D01*
X7176200Y-6211495D01*
X7121200Y-6355495D02*
X7231200Y-6465495D01*
X7231200Y-6355495D02*
X7121200Y-6465495D01*
X7176200Y-6465495D02*
X7231200Y-6410495D01*
X7176200Y-6355495D01*
X7121200Y-6410495D01*
X7176200Y-6465495D01*
X7121200Y-6609495D02*
X7231200Y-6719495D01*
X7231200Y-6609495D02*
X7121200Y-6719495D01*
X7176200Y-6719495D02*
X7231200Y-6664495D01*
X7176200Y-6609495D01*
X7121200Y-6664495D01*
X7176200Y-6719495D01*
X7121200Y-6863495D02*
X7231200Y-6973495D01*
X7231200Y-6863495D02*
X7121200Y-6973495D01*
X7176200Y-6973495D02*
X7231200Y-6918495D01*
X7176200Y-6863495D01*
X7121200Y-6918495D01*
X7176200Y-6973495D01*
X7121200Y-7117495D02*
X7231200Y-7227495D01*
X7231200Y-7117495D02*
X7121200Y-7227495D01*
X7176200Y-7227495D02*
X7231200Y-7172495D01*
X7176200Y-7117495D01*
X7121200Y-7172495D01*
X7176200Y-7227495D01*
X7121200Y-7371495D02*
X7231200Y-7481495D01*
X7231200Y-7371495D02*
X7121200Y-7481495D01*
X7176200Y-7481495D02*
X7231200Y-7426495D01*
X7176200Y-7371495D01*
X7121200Y-7426495D01*
X7176200Y-7481495D01*
X7121200Y-7625495D02*
X7231200Y-7735495D01*
X7231200Y-7625495D02*
X7121200Y-7735495D01*
X7176200Y-7735495D02*
X7231200Y-7680495D01*
X7176200Y-7625495D01*
X7121200Y-7680495D01*
X7176200Y-7735495D01*
X7121200Y-7879495D02*
X7231200Y-7989495D01*
X7231200Y-7879495D02*
X7121200Y-7989495D01*
X7176200Y-7989495D02*
X7231200Y-7934495D01*
X7176200Y-7879495D01*
X7121200Y-7934495D01*
X7176200Y-7989495D01*
X7121200Y-8133495D02*
X7231200Y-8243495D01*
X7231200Y-8133495D02*
X7121200Y-8243495D01*
X7176200Y-8243495D02*
X7231200Y-8188495D01*
X7176200Y-8133495D01*
X7121200Y-8188495D01*
X7176200Y-8243495D01*
X7375200Y-6863495D02*
X7485200Y-6973495D01*
X7485200Y-6863495D02*
X7375200Y-6973495D01*
X7430200Y-6973495D02*
X7485200Y-6918495D01*
X7430200Y-6863495D01*
X7375200Y-6918495D01*
X7430200Y-6973495D01*
X7426280Y-3683415D02*
X7536280Y-3793415D01*
X7536280Y-3683415D02*
X7426280Y-3793415D01*
X7481280Y-3793415D02*
X7536280Y-3738415D01*
X7481280Y-3683415D01*
X7426280Y-3738415D01*
X7481280Y-3793415D01*
X7426280Y-3937415D02*
X7536280Y-4047415D01*
X7536280Y-3937415D02*
X7426280Y-4047415D01*
X7481280Y-4047415D02*
X7536280Y-3992415D01*
X7481280Y-3937415D01*
X7426280Y-3992415D01*
X7481280Y-4047415D01*
X7629200Y-6863495D02*
X7739200Y-6973495D01*
X7739200Y-6863495D02*
X7629200Y-6973495D01*
X7684200Y-6973495D02*
X7739200Y-6918495D01*
X7684200Y-6863495D01*
X7629200Y-6918495D01*
X7684200Y-6973495D01*
X7883200Y-6863495D02*
X7993200Y-6973495D01*
X7993200Y-6863495D02*
X7883200Y-6973495D01*
X7938200Y-6973495D02*
X7993200Y-6918495D01*
X7938200Y-6863495D01*
X7883200Y-6918495D01*
X7938200Y-6973495D01*
X8391200Y-2545495D02*
X8501200Y-2655495D01*
X8501200Y-2545495D02*
X8391200Y-2655495D01*
X8446200Y-2655495D02*
X8501200Y-2600495D01*
X8446200Y-2545495D01*
X8391200Y-2600495D01*
X8446200Y-2655495D01*
X8645200Y-2291495D02*
X8755200Y-2401495D01*
X8755200Y-2291495D02*
X8645200Y-2401495D01*
X8700200Y-2401495D02*
X8755200Y-2346495D01*
X8700200Y-2291495D01*
X8645200Y-2346495D01*
X8700200Y-2401495D01*
X8645200Y-2545495D02*
X8755200Y-2655495D01*
X8755200Y-2545495D02*
X8645200Y-2655495D01*
X8700200Y-2655495D02*
X8755200Y-2600495D01*
X8700200Y-2545495D01*
X8645200Y-2600495D01*
X8700200Y-2655495D01*
X8645200Y-2799495D02*
X8755200Y-2909495D01*
X8755200Y-2799495D02*
X8645200Y-2909495D01*
X8700200Y-2909495D02*
X8755200Y-2854495D01*
X8700200Y-2799495D01*
X8645200Y-2854495D01*
X8700200Y-2909495D01*
X8645200Y-3053495D02*
X8755200Y-3163495D01*
X8755200Y-3053495D02*
X8645200Y-3163495D01*
X8700200Y-3163495D02*
X8755200Y-3108495D01*
X8700200Y-3053495D01*
X8645200Y-3108495D01*
X8700200Y-3163495D01*
X8645200Y-3307495D02*
X8755200Y-3417495D01*
X8755200Y-3307495D02*
X8645200Y-3417495D01*
X8700200Y-3417495D02*
X8755200Y-3362495D01*
X8700200Y-3307495D01*
X8645200Y-3362495D01*
X8700200Y-3417495D01*
X8645200Y-3561495D02*
X8755200Y-3671495D01*
X8755200Y-3561495D02*
X8645200Y-3671495D01*
X8700200Y-3671495D02*
X8755200Y-3616495D01*
X8700200Y-3561495D01*
X8645200Y-3616495D01*
X8700200Y-3671495D01*
X8645200Y-3815495D02*
X8755200Y-3925495D01*
X8755200Y-3815495D02*
X8645200Y-3925495D01*
X8700200Y-3925495D02*
X8755200Y-3870495D01*
X8700200Y-3815495D01*
X8645200Y-3870495D01*
X8700200Y-3925495D01*
X8645200Y-4069495D02*
X8755200Y-4179495D01*
X8755200Y-4069495D02*
X8645200Y-4179495D01*
X8700200Y-4179495D02*
X8755200Y-4124495D01*
X8700200Y-4069495D01*
X8645200Y-4124495D01*
X8700200Y-4179495D01*
X8645200Y-4323495D02*
X8755200Y-4433495D01*
X8755200Y-4323495D02*
X8645200Y-4433495D01*
X8700200Y-4433495D02*
X8755200Y-4378495D01*
X8700200Y-4323495D01*
X8645200Y-4378495D01*
X8700200Y-4433495D01*
X8645200Y-4577495D02*
X8755200Y-4687495D01*
X8755200Y-4577495D02*
X8645200Y-4687495D01*
X8700200Y-4687495D02*
X8755200Y-4632495D01*
X8700200Y-4577495D01*
X8645200Y-4632495D01*
X8700200Y-4687495D01*
X8645200Y-4831495D02*
X8755200Y-4941495D01*
X8755200Y-4831495D02*
X8645200Y-4941495D01*
X8700200Y-4941495D02*
X8755200Y-4886495D01*
X8700200Y-4831495D01*
X8645200Y-4886495D01*
X8700200Y-4941495D01*
X8645200Y-5085495D02*
X8755200Y-5195495D01*
X8755200Y-5085495D02*
X8645200Y-5195495D01*
X8700200Y-5195495D02*
X8755200Y-5140495D01*
X8700200Y-5085495D01*
X8645200Y-5140495D01*
X8700200Y-5195495D01*
X8645200Y-5339495D02*
X8755200Y-5449495D01*
X8755200Y-5339495D02*
X8645200Y-5449495D01*
X8700200Y-5449495D02*
X8755200Y-5394495D01*
X8700200Y-5339495D01*
X8645200Y-5394495D01*
X8700200Y-5449495D01*
X8645200Y-5593495D02*
X8755200Y-5703495D01*
X8755200Y-5593495D02*
X8645200Y-5703495D01*
X8700200Y-5703495D02*
X8755200Y-5648495D01*
X8700200Y-5593495D01*
X8645200Y-5648495D01*
X8700200Y-5703495D01*
X8645200Y-5847495D02*
X8755200Y-5957495D01*
X8755200Y-5847495D02*
X8645200Y-5957495D01*
X8700200Y-5957495D02*
X8755200Y-5902495D01*
X8700200Y-5847495D01*
X8645200Y-5902495D01*
X8700200Y-5957495D01*
X8645200Y-6101495D02*
X8755200Y-6211495D01*
X8755200Y-6101495D02*
X8645200Y-6211495D01*
X8700200Y-6211495D02*
X8755200Y-6156495D01*
X8700200Y-6101495D01*
X8645200Y-6156495D01*
X8700200Y-6211495D01*
X8645200Y-6355495D02*
X8755200Y-6465495D01*
X8755200Y-6355495D02*
X8645200Y-6465495D01*
X8700200Y-6465495D02*
X8755200Y-6410495D01*
X8700200Y-6355495D01*
X8645200Y-6410495D01*
X8700200Y-6465495D01*
X8645200Y-6609495D02*
X8755200Y-6719495D01*
X8755200Y-6609495D02*
X8645200Y-6719495D01*
X8700200Y-6719495D02*
X8755200Y-6664495D01*
X8700200Y-6609495D01*
X8645200Y-6664495D01*
X8700200Y-6719495D01*
X8645200Y-7117495D02*
X8755200Y-7227495D01*
X8755200Y-7117495D02*
X8645200Y-7227495D01*
X8700200Y-7227495D02*
X8755200Y-7172495D01*
X8700200Y-7117495D01*
X8645200Y-7172495D01*
X8700200Y-7227495D01*
X8645200Y-7371495D02*
X8755200Y-7481495D01*
X8755200Y-7371495D02*
X8645200Y-7481495D01*
X8700200Y-7481495D02*
X8755200Y-7426495D01*
X8700200Y-7371495D01*
X8645200Y-7426495D01*
X8700200Y-7481495D01*
X8645200Y-7625495D02*
X8755200Y-7735495D01*
X8755200Y-7625495D02*
X8645200Y-7735495D01*
X8700200Y-7735495D02*
X8755200Y-7680495D01*
X8700200Y-7625495D01*
X8645200Y-7680495D01*
X8700200Y-7735495D01*
X8645200Y-7879495D02*
X8755200Y-7989495D01*
X8755200Y-7879495D02*
X8645200Y-7989495D01*
X8700200Y-7989495D02*
X8755200Y-7934495D01*
X8700200Y-7879495D01*
X8645200Y-7934495D01*
X8700200Y-7989495D01*
X8645200Y-8133495D02*
X8755200Y-8243495D01*
X8755200Y-8133495D02*
X8645200Y-8243495D01*
X8700200Y-8243495D02*
X8755200Y-8188495D01*
X8700200Y-8133495D01*
X8645200Y-8188495D01*
X8700200Y-8243495D01*
D16*
X13156200Y-2344075D02*
X13156200Y-2664115D01*
X12996180Y-2504095D02*
X13316220Y-2504095D01*
X13316220Y-2504095D02*
G75*
G02*
X12996180Y-2504095I-160020J0D01*
G01*
X12996180Y-2504095D02*
G75*
G02*
X13316220Y-2504095I160020J0D01*
G01*
X13156200Y-7048075D02*
X13156200Y-7368115D01*
X12996180Y-7208095D02*
X13316220Y-7208095D01*
X13316220Y-7208095D02*
G75*
G02*
X12996180Y-7208095I-160020J0D01*
G01*
X12996180Y-7208095D02*
G75*
G02*
X13316220Y-7208095I160020J0D01*
G01*
D12*
X4408277Y-8913984D02*
X4408277Y-8713984D01*
X4408277Y-8713984D02*
X4455896Y-8713984D01*
X4455896Y-8713984D02*
X4484467Y-8723508D01*
X4484467Y-8723508D02*
X4503515Y-8742555D01*
X4503515Y-8742555D02*
X4513039Y-8761603D01*
X4513039Y-8761603D02*
X4522563Y-8799698D01*
X4522563Y-8799698D02*
X4522563Y-8828270D01*
X4522563Y-8828270D02*
X4513039Y-8866365D01*
X4513039Y-8866365D02*
X4503515Y-8885412D01*
X4503515Y-8885412D02*
X4484467Y-8904460D01*
X4484467Y-8904460D02*
X4455896Y-8913984D01*
X4455896Y-8913984D02*
X4408277Y-8913984D01*
X4608277Y-8913984D02*
X4608277Y-8780650D01*
X4608277Y-8818746D02*
X4617801Y-8799698D01*
X4617801Y-8799698D02*
X4627324Y-8790174D01*
X4627324Y-8790174D02*
X4646372Y-8780650D01*
X4646372Y-8780650D02*
X4665420Y-8780650D01*
X4732086Y-8913984D02*
X4732086Y-8780650D01*
X4732086Y-8713984D02*
X4722563Y-8723508D01*
X4722563Y-8723508D02*
X4732086Y-8733031D01*
X4732086Y-8733031D02*
X4741610Y-8723508D01*
X4741610Y-8723508D02*
X4732086Y-8713984D01*
X4732086Y-8713984D02*
X4732086Y-8733031D01*
X4855896Y-8913984D02*
X4836848Y-8904460D01*
X4836848Y-8904460D02*
X4827324Y-8885412D01*
X4827324Y-8885412D02*
X4827324Y-8713984D01*
X4960658Y-8913984D02*
X4941610Y-8904460D01*
X4941610Y-8904460D02*
X4932086Y-8885412D01*
X4932086Y-8885412D02*
X4932086Y-8713984D01*
X5189229Y-8913984D02*
X5189229Y-8713984D01*
X5189229Y-8713984D02*
X5255896Y-8856841D01*
X5255896Y-8856841D02*
X5322563Y-8713984D01*
X5322563Y-8713984D02*
X5322563Y-8913984D01*
X5503515Y-8913984D02*
X5503515Y-8809222D01*
X5503515Y-8809222D02*
X5493991Y-8790174D01*
X5493991Y-8790174D02*
X5474944Y-8780650D01*
X5474944Y-8780650D02*
X5436848Y-8780650D01*
X5436848Y-8780650D02*
X5417801Y-8790174D01*
X5503515Y-8904460D02*
X5484467Y-8913984D01*
X5484467Y-8913984D02*
X5436848Y-8913984D01*
X5436848Y-8913984D02*
X5417801Y-8904460D01*
X5417801Y-8904460D02*
X5408277Y-8885412D01*
X5408277Y-8885412D02*
X5408277Y-8866365D01*
X5408277Y-8866365D02*
X5417801Y-8847317D01*
X5417801Y-8847317D02*
X5436848Y-8837793D01*
X5436848Y-8837793D02*
X5484467Y-8837793D01*
X5484467Y-8837793D02*
X5503515Y-8828270D01*
X5598753Y-8780650D02*
X5598753Y-8980650D01*
X5598753Y-8790174D02*
X5617801Y-8780650D01*
X5617801Y-8780650D02*
X5655896Y-8780650D01*
X5655896Y-8780650D02*
X5674943Y-8790174D01*
X5674943Y-8790174D02*
X5684467Y-8799698D01*
X5684467Y-8799698D02*
X5693991Y-8818746D01*
X5693991Y-8818746D02*
X5693991Y-8875889D01*
X5693991Y-8875889D02*
X5684467Y-8894936D01*
X5684467Y-8894936D02*
X5674943Y-8904460D01*
X5674943Y-8904460D02*
X5655896Y-8913984D01*
X5655896Y-8913984D02*
X5617801Y-8913984D01*
X5617801Y-8913984D02*
X5598753Y-8904460D01*
X5779705Y-8894936D02*
X5789229Y-8904460D01*
X5789229Y-8904460D02*
X5779705Y-8913984D01*
X5779705Y-8913984D02*
X5770182Y-8904460D01*
X5770182Y-8904460D02*
X5779705Y-8894936D01*
X5779705Y-8894936D02*
X5779705Y-8913984D01*
X5779705Y-8790174D02*
X5789229Y-8799698D01*
X5789229Y-8799698D02*
X5779705Y-8809222D01*
X5779705Y-8809222D02*
X5770182Y-8799698D01*
X5770182Y-8799698D02*
X5779705Y-8790174D01*
X5779705Y-8790174D02*
X5779705Y-8809222D01*
D13*
X4127500Y-9232500D02*
X4147500Y-9252500D01*
X4147500Y-9232500D02*
X4127500Y-9252500D01*
D12*
X4446372Y-9133984D02*
X4465420Y-9133984D01*
X4465420Y-9133984D02*
X4484467Y-9143508D01*
X4484467Y-9143508D02*
X4493991Y-9153031D01*
X4493991Y-9153031D02*
X4503515Y-9172079D01*
X4503515Y-9172079D02*
X4513039Y-9210174D01*
X4513039Y-9210174D02*
X4513039Y-9257793D01*
X4513039Y-9257793D02*
X4503515Y-9295889D01*
X4503515Y-9295889D02*
X4493991Y-9314936D01*
X4493991Y-9314936D02*
X4484467Y-9324460D01*
X4484467Y-9324460D02*
X4465420Y-9333984D01*
X4465420Y-9333984D02*
X4446372Y-9333984D01*
X4446372Y-9333984D02*
X4427324Y-9324460D01*
X4427324Y-9324460D02*
X4417801Y-9314936D01*
X4417801Y-9314936D02*
X4408277Y-9295889D01*
X4408277Y-9295889D02*
X4398753Y-9257793D01*
X4398753Y-9257793D02*
X4398753Y-9210174D01*
X4398753Y-9210174D02*
X4408277Y-9172079D01*
X4408277Y-9172079D02*
X4417801Y-9153031D01*
X4417801Y-9153031D02*
X4427324Y-9143508D01*
X4427324Y-9143508D02*
X4446372Y-9133984D01*
X4598753Y-9314936D02*
X4608277Y-9324460D01*
X4608277Y-9324460D02*
X4598753Y-9333984D01*
X4598753Y-9333984D02*
X4589229Y-9324460D01*
X4589229Y-9324460D02*
X4598753Y-9314936D01*
X4598753Y-9314936D02*
X4598753Y-9333984D01*
X4684467Y-9153031D02*
X4693991Y-9143508D01*
X4693991Y-9143508D02*
X4713039Y-9133984D01*
X4713039Y-9133984D02*
X4760658Y-9133984D01*
X4760658Y-9133984D02*
X4779705Y-9143508D01*
X4779705Y-9143508D02*
X4789229Y-9153031D01*
X4789229Y-9153031D02*
X4798753Y-9172079D01*
X4798753Y-9172079D02*
X4798753Y-9191127D01*
X4798753Y-9191127D02*
X4789229Y-9219698D01*
X4789229Y-9219698D02*
X4674944Y-9333984D01*
X4674944Y-9333984D02*
X4798753Y-9333984D01*
X4922563Y-9133984D02*
X4941610Y-9133984D01*
X4941610Y-9133984D02*
X4960658Y-9143508D01*
X4960658Y-9143508D02*
X4970182Y-9153031D01*
X4970182Y-9153031D02*
X4979705Y-9172079D01*
X4979705Y-9172079D02*
X4989229Y-9210174D01*
X4989229Y-9210174D02*
X4989229Y-9257793D01*
X4989229Y-9257793D02*
X4979705Y-9295889D01*
X4979705Y-9295889D02*
X4970182Y-9314936D01*
X4970182Y-9314936D02*
X4960658Y-9324460D01*
X4960658Y-9324460D02*
X4941610Y-9333984D01*
X4941610Y-9333984D02*
X4922563Y-9333984D01*
X4922563Y-9333984D02*
X4903515Y-9324460D01*
X4903515Y-9324460D02*
X4893991Y-9314936D01*
X4893991Y-9314936D02*
X4884467Y-9295889D01*
X4884467Y-9295889D02*
X4874944Y-9257793D01*
X4874944Y-9257793D02*
X4874944Y-9210174D01*
X4874944Y-9210174D02*
X4884467Y-9172079D01*
X4884467Y-9172079D02*
X4893991Y-9153031D01*
X4893991Y-9153031D02*
X4903515Y-9143508D01*
X4903515Y-9143508D02*
X4922563Y-9133984D01*
X5113039Y-9133984D02*
X5132086Y-9133984D01*
X5132086Y-9133984D02*
X5151134Y-9143508D01*
X5151134Y-9143508D02*
X5160658Y-9153031D01*
X5160658Y-9153031D02*
X5170182Y-9172079D01*
X5170182Y-9172079D02*
X5179705Y-9210174D01*
X5179705Y-9210174D02*
X5179705Y-9257793D01*
X5179705Y-9257793D02*
X5170182Y-9295889D01*
X5170182Y-9295889D02*
X5160658Y-9314936D01*
X5160658Y-9314936D02*
X5151134Y-9324460D01*
X5151134Y-9324460D02*
X5132086Y-9333984D01*
X5132086Y-9333984D02*
X5113039Y-9333984D01*
X5113039Y-9333984D02*
X5093991Y-9324460D01*
X5093991Y-9324460D02*
X5084467Y-9314936D01*
X5084467Y-9314936D02*
X5074944Y-9295889D01*
X5074944Y-9295889D02*
X5065420Y-9257793D01*
X5065420Y-9257793D02*
X5065420Y-9210174D01*
X5065420Y-9210174D02*
X5074944Y-9172079D01*
X5074944Y-9172079D02*
X5084467Y-9153031D01*
X5084467Y-9153031D02*
X5093991Y-9143508D01*
X5093991Y-9143508D02*
X5113039Y-9133984D01*
X5265420Y-9333984D02*
X5265420Y-9200650D01*
X5265420Y-9219698D02*
X5274944Y-9210174D01*
X5274944Y-9210174D02*
X5293991Y-9200650D01*
X5293991Y-9200650D02*
X5322563Y-9200650D01*
X5322563Y-9200650D02*
X5341610Y-9210174D01*
X5341610Y-9210174D02*
X5351134Y-9229222D01*
X5351134Y-9229222D02*
X5351134Y-9333984D01*
X5351134Y-9229222D02*
X5360658Y-9210174D01*
X5360658Y-9210174D02*
X5379705Y-9200650D01*
X5379705Y-9200650D02*
X5408277Y-9200650D01*
X5408277Y-9200650D02*
X5427325Y-9210174D01*
X5427325Y-9210174D02*
X5436848Y-9229222D01*
X5436848Y-9229222D02*
X5436848Y-9333984D01*
X5532086Y-9333984D02*
X5532086Y-9200650D01*
X5532086Y-9219698D02*
X5541610Y-9210174D01*
X5541610Y-9210174D02*
X5560658Y-9200650D01*
X5560658Y-9200650D02*
X5589229Y-9200650D01*
X5589229Y-9200650D02*
X5608277Y-9210174D01*
X5608277Y-9210174D02*
X5617801Y-9229222D01*
X5617801Y-9229222D02*
X5617801Y-9333984D01*
X5617801Y-9229222D02*
X5627324Y-9210174D01*
X5627324Y-9210174D02*
X5646372Y-9200650D01*
X5646372Y-9200650D02*
X5674943Y-9200650D01*
X5674943Y-9200650D02*
X5693991Y-9210174D01*
X5693991Y-9210174D02*
X5703515Y-9229222D01*
X5703515Y-9229222D02*
X5703515Y-9333984D01*
X6093991Y-9124460D02*
X5922563Y-9381603D01*
X6351134Y-9133984D02*
X6370182Y-9133984D01*
X6370182Y-9133984D02*
X6389229Y-9143508D01*
X6389229Y-9143508D02*
X6398753Y-9153031D01*
X6398753Y-9153031D02*
X6408277Y-9172079D01*
X6408277Y-9172079D02*
X6417801Y-9210174D01*
X6417801Y-9210174D02*
X6417801Y-9257793D01*
X6417801Y-9257793D02*
X6408277Y-9295889D01*
X6408277Y-9295889D02*
X6398753Y-9314936D01*
X6398753Y-9314936D02*
X6389229Y-9324460D01*
X6389229Y-9324460D02*
X6370182Y-9333984D01*
X6370182Y-9333984D02*
X6351134Y-9333984D01*
X6351134Y-9333984D02*
X6332086Y-9324460D01*
X6332086Y-9324460D02*
X6322563Y-9314936D01*
X6322563Y-9314936D02*
X6313039Y-9295889D01*
X6313039Y-9295889D02*
X6303515Y-9257793D01*
X6303515Y-9257793D02*
X6303515Y-9210174D01*
X6303515Y-9210174D02*
X6313039Y-9172079D01*
X6313039Y-9172079D02*
X6322563Y-9153031D01*
X6322563Y-9153031D02*
X6332086Y-9143508D01*
X6332086Y-9143508D02*
X6351134Y-9133984D01*
X6503515Y-9314936D02*
X6513039Y-9324460D01*
X6513039Y-9324460D02*
X6503515Y-9333984D01*
X6503515Y-9333984D02*
X6493991Y-9324460D01*
X6493991Y-9324460D02*
X6503515Y-9314936D01*
X6503515Y-9314936D02*
X6503515Y-9333984D01*
X6636848Y-9133984D02*
X6655896Y-9133984D01*
X6655896Y-9133984D02*
X6674944Y-9143508D01*
X6674944Y-9143508D02*
X6684467Y-9153031D01*
X6684467Y-9153031D02*
X6693991Y-9172079D01*
X6693991Y-9172079D02*
X6703515Y-9210174D01*
X6703515Y-9210174D02*
X6703515Y-9257793D01*
X6703515Y-9257793D02*
X6693991Y-9295889D01*
X6693991Y-9295889D02*
X6684467Y-9314936D01*
X6684467Y-9314936D02*
X6674944Y-9324460D01*
X6674944Y-9324460D02*
X6655896Y-9333984D01*
X6655896Y-9333984D02*
X6636848Y-9333984D01*
X6636848Y-9333984D02*
X6617801Y-9324460D01*
X6617801Y-9324460D02*
X6608277Y-9314936D01*
X6608277Y-9314936D02*
X6598753Y-9295889D01*
X6598753Y-9295889D02*
X6589229Y-9257793D01*
X6589229Y-9257793D02*
X6589229Y-9210174D01*
X6589229Y-9210174D02*
X6598753Y-9172079D01*
X6598753Y-9172079D02*
X6608277Y-9153031D01*
X6608277Y-9153031D02*
X6617801Y-9143508D01*
X6617801Y-9143508D02*
X6636848Y-9133984D01*
X6827325Y-9133984D02*
X6846372Y-9133984D01*
X6846372Y-9133984D02*
X6865420Y-9143508D01*
X6865420Y-9143508D02*
X6874944Y-9153031D01*
X6874944Y-9153031D02*
X6884467Y-9172079D01*
X6884467Y-9172079D02*
X6893991Y-9210174D01*
X6893991Y-9210174D02*
X6893991Y-9257793D01*
X6893991Y-9257793D02*
X6884467Y-9295889D01*
X6884467Y-9295889D02*
X6874944Y-9314936D01*
X6874944Y-9314936D02*
X6865420Y-9324460D01*
X6865420Y-9324460D02*
X6846372Y-9333984D01*
X6846372Y-9333984D02*
X6827325Y-9333984D01*
X6827325Y-9333984D02*
X6808277Y-9324460D01*
X6808277Y-9324460D02*
X6798753Y-9314936D01*
X6798753Y-9314936D02*
X6789229Y-9295889D01*
X6789229Y-9295889D02*
X6779706Y-9257793D01*
X6779706Y-9257793D02*
X6779706Y-9210174D01*
X6779706Y-9210174D02*
X6789229Y-9172079D01*
X6789229Y-9172079D02*
X6798753Y-9153031D01*
X6798753Y-9153031D02*
X6808277Y-9143508D01*
X6808277Y-9143508D02*
X6827325Y-9133984D01*
X6960658Y-9133984D02*
X7093991Y-9133984D01*
X7093991Y-9133984D02*
X7008277Y-9333984D01*
X7179706Y-9333984D02*
X7217801Y-9333984D01*
X7217801Y-9333984D02*
X7236848Y-9324460D01*
X7236848Y-9324460D02*
X7246372Y-9314936D01*
X7246372Y-9314936D02*
X7265420Y-9286365D01*
X7265420Y-9286365D02*
X7274944Y-9248270D01*
X7274944Y-9248270D02*
X7274944Y-9172079D01*
X7274944Y-9172079D02*
X7265420Y-9153031D01*
X7265420Y-9153031D02*
X7255896Y-9143508D01*
X7255896Y-9143508D02*
X7236848Y-9133984D01*
X7236848Y-9133984D02*
X7198753Y-9133984D01*
X7198753Y-9133984D02*
X7179706Y-9143508D01*
X7179706Y-9143508D02*
X7170182Y-9153031D01*
X7170182Y-9153031D02*
X7160658Y-9172079D01*
X7160658Y-9172079D02*
X7160658Y-9219698D01*
X7160658Y-9219698D02*
X7170182Y-9238746D01*
X7170182Y-9238746D02*
X7179706Y-9248270D01*
X7179706Y-9248270D02*
X7198753Y-9257793D01*
X7198753Y-9257793D02*
X7236848Y-9257793D01*
X7236848Y-9257793D02*
X7255896Y-9248270D01*
X7255896Y-9248270D02*
X7265420Y-9238746D01*
X7265420Y-9238746D02*
X7274944Y-9219698D01*
X7351134Y-9133984D02*
X7351134Y-9172079D01*
X7427325Y-9133984D02*
X7427325Y-9172079D01*
X7722563Y-9410174D02*
X7713039Y-9400650D01*
X7713039Y-9400650D02*
X7693991Y-9372079D01*
X7693991Y-9372079D02*
X7684468Y-9353031D01*
X7684468Y-9353031D02*
X7674944Y-9324460D01*
X7674944Y-9324460D02*
X7665420Y-9276841D01*
X7665420Y-9276841D02*
X7665420Y-9238746D01*
X7665420Y-9238746D02*
X7674944Y-9191127D01*
X7674944Y-9191127D02*
X7684468Y-9162555D01*
X7684468Y-9162555D02*
X7693991Y-9143508D01*
X7693991Y-9143508D02*
X7713039Y-9114936D01*
X7713039Y-9114936D02*
X7722563Y-9105412D01*
X7789229Y-9153031D02*
X7798753Y-9143508D01*
X7798753Y-9143508D02*
X7817801Y-9133984D01*
X7817801Y-9133984D02*
X7865420Y-9133984D01*
X7865420Y-9133984D02*
X7884468Y-9143508D01*
X7884468Y-9143508D02*
X7893991Y-9153031D01*
X7893991Y-9153031D02*
X7903515Y-9172079D01*
X7903515Y-9172079D02*
X7903515Y-9191127D01*
X7903515Y-9191127D02*
X7893991Y-9219698D01*
X7893991Y-9219698D02*
X7779706Y-9333984D01*
X7779706Y-9333984D02*
X7903515Y-9333984D01*
X8074944Y-9200650D02*
X8074944Y-9333984D01*
X8027325Y-9124460D02*
X7979706Y-9267317D01*
X7979706Y-9267317D02*
X8103515Y-9267317D01*
X8284468Y-9333984D02*
X8170182Y-9333984D01*
X8227325Y-9333984D02*
X8227325Y-9133984D01*
X8227325Y-9133984D02*
X8208277Y-9162555D01*
X8208277Y-9162555D02*
X8189229Y-9181603D01*
X8189229Y-9181603D02*
X8170182Y-9191127D01*
X8522563Y-9333984D02*
X8522563Y-9133984D01*
X8608277Y-9333984D02*
X8608277Y-9229222D01*
X8608277Y-9229222D02*
X8598753Y-9210174D01*
X8598753Y-9210174D02*
X8579706Y-9200650D01*
X8579706Y-9200650D02*
X8551134Y-9200650D01*
X8551134Y-9200650D02*
X8532087Y-9210174D01*
X8532087Y-9210174D02*
X8522563Y-9219698D01*
X8732087Y-9333984D02*
X8713039Y-9324460D01*
X8713039Y-9324460D02*
X8703515Y-9314936D01*
X8703515Y-9314936D02*
X8693992Y-9295889D01*
X8693992Y-9295889D02*
X8693992Y-9238746D01*
X8693992Y-9238746D02*
X8703515Y-9219698D01*
X8703515Y-9219698D02*
X8713039Y-9210174D01*
X8713039Y-9210174D02*
X8732087Y-9200650D01*
X8732087Y-9200650D02*
X8760658Y-9200650D01*
X8760658Y-9200650D02*
X8779706Y-9210174D01*
X8779706Y-9210174D02*
X8789230Y-9219698D01*
X8789230Y-9219698D02*
X8798753Y-9238746D01*
X8798753Y-9238746D02*
X8798753Y-9295889D01*
X8798753Y-9295889D02*
X8789230Y-9314936D01*
X8789230Y-9314936D02*
X8779706Y-9324460D01*
X8779706Y-9324460D02*
X8760658Y-9333984D01*
X8760658Y-9333984D02*
X8732087Y-9333984D01*
X8913039Y-9333984D02*
X8893992Y-9324460D01*
X8893992Y-9324460D02*
X8884468Y-9305412D01*
X8884468Y-9305412D02*
X8884468Y-9133984D01*
X9065420Y-9324460D02*
X9046373Y-9333984D01*
X9046373Y-9333984D02*
X9008277Y-9333984D01*
X9008277Y-9333984D02*
X8989230Y-9324460D01*
X8989230Y-9324460D02*
X8979706Y-9305412D01*
X8979706Y-9305412D02*
X8979706Y-9229222D01*
X8979706Y-9229222D02*
X8989230Y-9210174D01*
X8989230Y-9210174D02*
X9008277Y-9200650D01*
X9008277Y-9200650D02*
X9046373Y-9200650D01*
X9046373Y-9200650D02*
X9065420Y-9210174D01*
X9065420Y-9210174D02*
X9074944Y-9229222D01*
X9074944Y-9229222D02*
X9074944Y-9248270D01*
X9074944Y-9248270D02*
X8979706Y-9267317D01*
X9151134Y-9324460D02*
X9170182Y-9333984D01*
X9170182Y-9333984D02*
X9208277Y-9333984D01*
X9208277Y-9333984D02*
X9227325Y-9324460D01*
X9227325Y-9324460D02*
X9236849Y-9305412D01*
X9236849Y-9305412D02*
X9236849Y-9295889D01*
X9236849Y-9295889D02*
X9227325Y-9276841D01*
X9227325Y-9276841D02*
X9208277Y-9267317D01*
X9208277Y-9267317D02*
X9179706Y-9267317D01*
X9179706Y-9267317D02*
X9160658Y-9257793D01*
X9160658Y-9257793D02*
X9151134Y-9238746D01*
X9151134Y-9238746D02*
X9151134Y-9229222D01*
X9151134Y-9229222D02*
X9160658Y-9210174D01*
X9160658Y-9210174D02*
X9179706Y-9200650D01*
X9179706Y-9200650D02*
X9208277Y-9200650D01*
X9208277Y-9200650D02*
X9227325Y-9210174D01*
X9303515Y-9410174D02*
X9313039Y-9400650D01*
X9313039Y-9400650D02*
X9332087Y-9372079D01*
X9332087Y-9372079D02*
X9341611Y-9353031D01*
X9341611Y-9353031D02*
X9351134Y-9324460D01*
X9351134Y-9324460D02*
X9360658Y-9276841D01*
X9360658Y-9276841D02*
X9360658Y-9238746D01*
X9360658Y-9238746D02*
X9351134Y-9191127D01*
X9351134Y-9191127D02*
X9341611Y-9162555D01*
X9341611Y-9162555D02*
X9332087Y-9143508D01*
X9332087Y-9143508D02*
X9313039Y-9114936D01*
X9313039Y-9114936D02*
X9303515Y-9105412D01*
D13*
X4147500Y-9506500D02*
G75*
G02*
X4117500Y-9506500I-15000J0D01*
G01*
X4117500Y-9506500D02*
G75*
G02*
X4147500Y-9506500I15000J0D01*
G01*
D12*
X4446372Y-9397984D02*
X4465420Y-9397984D01*
X4465420Y-9397984D02*
X4484467Y-9407508D01*
X4484467Y-9407508D02*
X4493991Y-9417031D01*
X4493991Y-9417031D02*
X4503515Y-9436079D01*
X4503515Y-9436079D02*
X4513039Y-9474174D01*
X4513039Y-9474174D02*
X4513039Y-9521793D01*
X4513039Y-9521793D02*
X4503515Y-9559889D01*
X4503515Y-9559889D02*
X4493991Y-9578936D01*
X4493991Y-9578936D02*
X4484467Y-9588460D01*
X4484467Y-9588460D02*
X4465420Y-9597984D01*
X4465420Y-9597984D02*
X4446372Y-9597984D01*
X4446372Y-9597984D02*
X4427324Y-9588460D01*
X4427324Y-9588460D02*
X4417801Y-9578936D01*
X4417801Y-9578936D02*
X4408277Y-9559889D01*
X4408277Y-9559889D02*
X4398753Y-9521793D01*
X4398753Y-9521793D02*
X4398753Y-9474174D01*
X4398753Y-9474174D02*
X4408277Y-9436079D01*
X4408277Y-9436079D02*
X4417801Y-9417031D01*
X4417801Y-9417031D02*
X4427324Y-9407508D01*
X4427324Y-9407508D02*
X4446372Y-9397984D01*
X4598753Y-9578936D02*
X4608277Y-9588460D01*
X4608277Y-9588460D02*
X4598753Y-9597984D01*
X4598753Y-9597984D02*
X4589229Y-9588460D01*
X4589229Y-9588460D02*
X4598753Y-9578936D01*
X4598753Y-9578936D02*
X4598753Y-9597984D01*
X4674944Y-9397984D02*
X4798753Y-9397984D01*
X4798753Y-9397984D02*
X4732086Y-9474174D01*
X4732086Y-9474174D02*
X4760658Y-9474174D01*
X4760658Y-9474174D02*
X4779705Y-9483698D01*
X4779705Y-9483698D02*
X4789229Y-9493222D01*
X4789229Y-9493222D02*
X4798753Y-9512270D01*
X4798753Y-9512270D02*
X4798753Y-9559889D01*
X4798753Y-9559889D02*
X4789229Y-9578936D01*
X4789229Y-9578936D02*
X4779705Y-9588460D01*
X4779705Y-9588460D02*
X4760658Y-9597984D01*
X4760658Y-9597984D02*
X4703515Y-9597984D01*
X4703515Y-9597984D02*
X4684467Y-9588460D01*
X4684467Y-9588460D02*
X4674944Y-9578936D01*
X4922563Y-9397984D02*
X4941610Y-9397984D01*
X4941610Y-9397984D02*
X4960658Y-9407508D01*
X4960658Y-9407508D02*
X4970182Y-9417031D01*
X4970182Y-9417031D02*
X4979705Y-9436079D01*
X4979705Y-9436079D02*
X4989229Y-9474174D01*
X4989229Y-9474174D02*
X4989229Y-9521793D01*
X4989229Y-9521793D02*
X4979705Y-9559889D01*
X4979705Y-9559889D02*
X4970182Y-9578936D01*
X4970182Y-9578936D02*
X4960658Y-9588460D01*
X4960658Y-9588460D02*
X4941610Y-9597984D01*
X4941610Y-9597984D02*
X4922563Y-9597984D01*
X4922563Y-9597984D02*
X4903515Y-9588460D01*
X4903515Y-9588460D02*
X4893991Y-9578936D01*
X4893991Y-9578936D02*
X4884467Y-9559889D01*
X4884467Y-9559889D02*
X4874944Y-9521793D01*
X4874944Y-9521793D02*
X4874944Y-9474174D01*
X4874944Y-9474174D02*
X4884467Y-9436079D01*
X4884467Y-9436079D02*
X4893991Y-9417031D01*
X4893991Y-9417031D02*
X4903515Y-9407508D01*
X4903515Y-9407508D02*
X4922563Y-9397984D01*
X5113039Y-9397984D02*
X5132086Y-9397984D01*
X5132086Y-9397984D02*
X5151134Y-9407508D01*
X5151134Y-9407508D02*
X5160658Y-9417031D01*
X5160658Y-9417031D02*
X5170182Y-9436079D01*
X5170182Y-9436079D02*
X5179705Y-9474174D01*
X5179705Y-9474174D02*
X5179705Y-9521793D01*
X5179705Y-9521793D02*
X5170182Y-9559889D01*
X5170182Y-9559889D02*
X5160658Y-9578936D01*
X5160658Y-9578936D02*
X5151134Y-9588460D01*
X5151134Y-9588460D02*
X5132086Y-9597984D01*
X5132086Y-9597984D02*
X5113039Y-9597984D01*
X5113039Y-9597984D02*
X5093991Y-9588460D01*
X5093991Y-9588460D02*
X5084467Y-9578936D01*
X5084467Y-9578936D02*
X5074944Y-9559889D01*
X5074944Y-9559889D02*
X5065420Y-9521793D01*
X5065420Y-9521793D02*
X5065420Y-9474174D01*
X5065420Y-9474174D02*
X5074944Y-9436079D01*
X5074944Y-9436079D02*
X5084467Y-9417031D01*
X5084467Y-9417031D02*
X5093991Y-9407508D01*
X5093991Y-9407508D02*
X5113039Y-9397984D01*
X5265420Y-9597984D02*
X5265420Y-9464650D01*
X5265420Y-9483698D02*
X5274944Y-9474174D01*
X5274944Y-9474174D02*
X5293991Y-9464650D01*
X5293991Y-9464650D02*
X5322563Y-9464650D01*
X5322563Y-9464650D02*
X5341610Y-9474174D01*
X5341610Y-9474174D02*
X5351134Y-9493222D01*
X5351134Y-9493222D02*
X5351134Y-9597984D01*
X5351134Y-9493222D02*
X5360658Y-9474174D01*
X5360658Y-9474174D02*
X5379705Y-9464650D01*
X5379705Y-9464650D02*
X5408277Y-9464650D01*
X5408277Y-9464650D02*
X5427325Y-9474174D01*
X5427325Y-9474174D02*
X5436848Y-9493222D01*
X5436848Y-9493222D02*
X5436848Y-9597984D01*
X5532086Y-9597984D02*
X5532086Y-9464650D01*
X5532086Y-9483698D02*
X5541610Y-9474174D01*
X5541610Y-9474174D02*
X5560658Y-9464650D01*
X5560658Y-9464650D02*
X5589229Y-9464650D01*
X5589229Y-9464650D02*
X5608277Y-9474174D01*
X5608277Y-9474174D02*
X5617801Y-9493222D01*
X5617801Y-9493222D02*
X5617801Y-9597984D01*
X5617801Y-9493222D02*
X5627324Y-9474174D01*
X5627324Y-9474174D02*
X5646372Y-9464650D01*
X5646372Y-9464650D02*
X5674943Y-9464650D01*
X5674943Y-9464650D02*
X5693991Y-9474174D01*
X5693991Y-9474174D02*
X5703515Y-9493222D01*
X5703515Y-9493222D02*
X5703515Y-9597984D01*
X6093991Y-9388460D02*
X5922563Y-9645603D01*
X6351134Y-9397984D02*
X6370182Y-9397984D01*
X6370182Y-9397984D02*
X6389229Y-9407508D01*
X6389229Y-9407508D02*
X6398753Y-9417031D01*
X6398753Y-9417031D02*
X6408277Y-9436079D01*
X6408277Y-9436079D02*
X6417801Y-9474174D01*
X6417801Y-9474174D02*
X6417801Y-9521793D01*
X6417801Y-9521793D02*
X6408277Y-9559889D01*
X6408277Y-9559889D02*
X6398753Y-9578936D01*
X6398753Y-9578936D02*
X6389229Y-9588460D01*
X6389229Y-9588460D02*
X6370182Y-9597984D01*
X6370182Y-9597984D02*
X6351134Y-9597984D01*
X6351134Y-9597984D02*
X6332086Y-9588460D01*
X6332086Y-9588460D02*
X6322563Y-9578936D01*
X6322563Y-9578936D02*
X6313039Y-9559889D01*
X6313039Y-9559889D02*
X6303515Y-9521793D01*
X6303515Y-9521793D02*
X6303515Y-9474174D01*
X6303515Y-9474174D02*
X6313039Y-9436079D01*
X6313039Y-9436079D02*
X6322563Y-9417031D01*
X6322563Y-9417031D02*
X6332086Y-9407508D01*
X6332086Y-9407508D02*
X6351134Y-9397984D01*
X6503515Y-9578936D02*
X6513039Y-9588460D01*
X6513039Y-9588460D02*
X6503515Y-9597984D01*
X6503515Y-9597984D02*
X6493991Y-9588460D01*
X6493991Y-9588460D02*
X6503515Y-9578936D01*
X6503515Y-9578936D02*
X6503515Y-9597984D01*
X6636848Y-9397984D02*
X6655896Y-9397984D01*
X6655896Y-9397984D02*
X6674944Y-9407508D01*
X6674944Y-9407508D02*
X6684467Y-9417031D01*
X6684467Y-9417031D02*
X6693991Y-9436079D01*
X6693991Y-9436079D02*
X6703515Y-9474174D01*
X6703515Y-9474174D02*
X6703515Y-9521793D01*
X6703515Y-9521793D02*
X6693991Y-9559889D01*
X6693991Y-9559889D02*
X6684467Y-9578936D01*
X6684467Y-9578936D02*
X6674944Y-9588460D01*
X6674944Y-9588460D02*
X6655896Y-9597984D01*
X6655896Y-9597984D02*
X6636848Y-9597984D01*
X6636848Y-9597984D02*
X6617801Y-9588460D01*
X6617801Y-9588460D02*
X6608277Y-9578936D01*
X6608277Y-9578936D02*
X6598753Y-9559889D01*
X6598753Y-9559889D02*
X6589229Y-9521793D01*
X6589229Y-9521793D02*
X6589229Y-9474174D01*
X6589229Y-9474174D02*
X6598753Y-9436079D01*
X6598753Y-9436079D02*
X6608277Y-9417031D01*
X6608277Y-9417031D02*
X6617801Y-9407508D01*
X6617801Y-9407508D02*
X6636848Y-9397984D01*
X6893991Y-9597984D02*
X6779706Y-9597984D01*
X6836848Y-9597984D02*
X6836848Y-9397984D01*
X6836848Y-9397984D02*
X6817801Y-9426555D01*
X6817801Y-9426555D02*
X6798753Y-9445603D01*
X6798753Y-9445603D02*
X6779706Y-9455127D01*
X7084467Y-9597984D02*
X6970182Y-9597984D01*
X7027325Y-9597984D02*
X7027325Y-9397984D01*
X7027325Y-9397984D02*
X7008277Y-9426555D01*
X7008277Y-9426555D02*
X6989229Y-9445603D01*
X6989229Y-9445603D02*
X6970182Y-9455127D01*
X7198753Y-9483698D02*
X7179706Y-9474174D01*
X7179706Y-9474174D02*
X7170182Y-9464650D01*
X7170182Y-9464650D02*
X7160658Y-9445603D01*
X7160658Y-9445603D02*
X7160658Y-9436079D01*
X7160658Y-9436079D02*
X7170182Y-9417031D01*
X7170182Y-9417031D02*
X7179706Y-9407508D01*
X7179706Y-9407508D02*
X7198753Y-9397984D01*
X7198753Y-9397984D02*
X7236848Y-9397984D01*
X7236848Y-9397984D02*
X7255896Y-9407508D01*
X7255896Y-9407508D02*
X7265420Y-9417031D01*
X7265420Y-9417031D02*
X7274944Y-9436079D01*
X7274944Y-9436079D02*
X7274944Y-9445603D01*
X7274944Y-9445603D02*
X7265420Y-9464650D01*
X7265420Y-9464650D02*
X7255896Y-9474174D01*
X7255896Y-9474174D02*
X7236848Y-9483698D01*
X7236848Y-9483698D02*
X7198753Y-9483698D01*
X7198753Y-9483698D02*
X7179706Y-9493222D01*
X7179706Y-9493222D02*
X7170182Y-9502746D01*
X7170182Y-9502746D02*
X7160658Y-9521793D01*
X7160658Y-9521793D02*
X7160658Y-9559889D01*
X7160658Y-9559889D02*
X7170182Y-9578936D01*
X7170182Y-9578936D02*
X7179706Y-9588460D01*
X7179706Y-9588460D02*
X7198753Y-9597984D01*
X7198753Y-9597984D02*
X7236848Y-9597984D01*
X7236848Y-9597984D02*
X7255896Y-9588460D01*
X7255896Y-9588460D02*
X7265420Y-9578936D01*
X7265420Y-9578936D02*
X7274944Y-9559889D01*
X7274944Y-9559889D02*
X7274944Y-9521793D01*
X7274944Y-9521793D02*
X7265420Y-9502746D01*
X7265420Y-9502746D02*
X7255896Y-9493222D01*
X7255896Y-9493222D02*
X7236848Y-9483698D01*
X7351134Y-9397984D02*
X7351134Y-9436079D01*
X7427325Y-9397984D02*
X7427325Y-9436079D01*
X7722563Y-9674174D02*
X7713039Y-9664650D01*
X7713039Y-9664650D02*
X7693991Y-9636079D01*
X7693991Y-9636079D02*
X7684468Y-9617031D01*
X7684468Y-9617031D02*
X7674944Y-9588460D01*
X7674944Y-9588460D02*
X7665420Y-9540841D01*
X7665420Y-9540841D02*
X7665420Y-9502746D01*
X7665420Y-9502746D02*
X7674944Y-9455127D01*
X7674944Y-9455127D02*
X7684468Y-9426555D01*
X7684468Y-9426555D02*
X7693991Y-9407508D01*
X7693991Y-9407508D02*
X7713039Y-9378936D01*
X7713039Y-9378936D02*
X7722563Y-9369412D01*
X7779706Y-9397984D02*
X7903515Y-9397984D01*
X7903515Y-9397984D02*
X7836848Y-9474174D01*
X7836848Y-9474174D02*
X7865420Y-9474174D01*
X7865420Y-9474174D02*
X7884468Y-9483698D01*
X7884468Y-9483698D02*
X7893991Y-9493222D01*
X7893991Y-9493222D02*
X7903515Y-9512270D01*
X7903515Y-9512270D02*
X7903515Y-9559889D01*
X7903515Y-9559889D02*
X7893991Y-9578936D01*
X7893991Y-9578936D02*
X7884468Y-9588460D01*
X7884468Y-9588460D02*
X7865420Y-9597984D01*
X7865420Y-9597984D02*
X7808277Y-9597984D01*
X7808277Y-9597984D02*
X7789229Y-9588460D01*
X7789229Y-9588460D02*
X7779706Y-9578936D01*
X7970182Y-9397984D02*
X8103515Y-9397984D01*
X8103515Y-9397984D02*
X8017801Y-9597984D01*
X8332087Y-9597984D02*
X8332087Y-9397984D01*
X8417801Y-9597984D02*
X8417801Y-9493222D01*
X8417801Y-9493222D02*
X8408277Y-9474174D01*
X8408277Y-9474174D02*
X8389230Y-9464650D01*
X8389230Y-9464650D02*
X8360658Y-9464650D01*
X8360658Y-9464650D02*
X8341610Y-9474174D01*
X8341610Y-9474174D02*
X8332087Y-9483698D01*
X8541611Y-9597984D02*
X8522563Y-9588460D01*
X8522563Y-9588460D02*
X8513039Y-9578936D01*
X8513039Y-9578936D02*
X8503515Y-9559889D01*
X8503515Y-9559889D02*
X8503515Y-9502746D01*
X8503515Y-9502746D02*
X8513039Y-9483698D01*
X8513039Y-9483698D02*
X8522563Y-9474174D01*
X8522563Y-9474174D02*
X8541611Y-9464650D01*
X8541611Y-9464650D02*
X8570182Y-9464650D01*
X8570182Y-9464650D02*
X8589230Y-9474174D01*
X8589230Y-9474174D02*
X8598753Y-9483698D01*
X8598753Y-9483698D02*
X8608277Y-9502746D01*
X8608277Y-9502746D02*
X8608277Y-9559889D01*
X8608277Y-9559889D02*
X8598753Y-9578936D01*
X8598753Y-9578936D02*
X8589230Y-9588460D01*
X8589230Y-9588460D02*
X8570182Y-9597984D01*
X8570182Y-9597984D02*
X8541611Y-9597984D01*
X8722563Y-9597984D02*
X8703515Y-9588460D01*
X8703515Y-9588460D02*
X8693992Y-9569412D01*
X8693992Y-9569412D02*
X8693992Y-9397984D01*
X8874944Y-9588460D02*
X8855896Y-9597984D01*
X8855896Y-9597984D02*
X8817801Y-9597984D01*
X8817801Y-9597984D02*
X8798753Y-9588460D01*
X8798753Y-9588460D02*
X8789230Y-9569412D01*
X8789230Y-9569412D02*
X8789230Y-9493222D01*
X8789230Y-9493222D02*
X8798753Y-9474174D01*
X8798753Y-9474174D02*
X8817801Y-9464650D01*
X8817801Y-9464650D02*
X8855896Y-9464650D01*
X8855896Y-9464650D02*
X8874944Y-9474174D01*
X8874944Y-9474174D02*
X8884468Y-9493222D01*
X8884468Y-9493222D02*
X8884468Y-9512270D01*
X8884468Y-9512270D02*
X8789230Y-9531317D01*
X8960658Y-9588460D02*
X8979706Y-9597984D01*
X8979706Y-9597984D02*
X9017801Y-9597984D01*
X9017801Y-9597984D02*
X9036849Y-9588460D01*
X9036849Y-9588460D02*
X9046373Y-9569412D01*
X9046373Y-9569412D02*
X9046373Y-9559889D01*
X9046373Y-9559889D02*
X9036849Y-9540841D01*
X9036849Y-9540841D02*
X9017801Y-9531317D01*
X9017801Y-9531317D02*
X8989230Y-9531317D01*
X8989230Y-9531317D02*
X8970182Y-9521793D01*
X8970182Y-9521793D02*
X8960658Y-9502746D01*
X8960658Y-9502746D02*
X8960658Y-9493222D01*
X8960658Y-9493222D02*
X8970182Y-9474174D01*
X8970182Y-9474174D02*
X8989230Y-9464650D01*
X8989230Y-9464650D02*
X9017801Y-9464650D01*
X9017801Y-9464650D02*
X9036849Y-9474174D01*
X9113039Y-9674174D02*
X9122563Y-9664650D01*
X9122563Y-9664650D02*
X9141611Y-9636079D01*
X9141611Y-9636079D02*
X9151134Y-9617031D01*
X9151134Y-9617031D02*
X9160658Y-9588460D01*
X9160658Y-9588460D02*
X9170182Y-9540841D01*
X9170182Y-9540841D02*
X9170182Y-9502746D01*
X9170182Y-9502746D02*
X9160658Y-9455127D01*
X9160658Y-9455127D02*
X9151134Y-9426555D01*
X9151134Y-9426555D02*
X9141611Y-9407508D01*
X9141611Y-9407508D02*
X9122563Y-9378936D01*
X9122563Y-9378936D02*
X9113039Y-9369412D01*
D13*
X4127500Y-9750500D02*
X4127500Y-9790500D01*
X4107500Y-9770500D02*
X4147500Y-9770500D01*
D12*
X4446372Y-9661984D02*
X4465420Y-9661984D01*
X4465420Y-9661984D02*
X4484467Y-9671508D01*
X4484467Y-9671508D02*
X4493991Y-9681031D01*
X4493991Y-9681031D02*
X4503515Y-9700079D01*
X4503515Y-9700079D02*
X4513039Y-9738174D01*
X4513039Y-9738174D02*
X4513039Y-9785793D01*
X4513039Y-9785793D02*
X4503515Y-9823889D01*
X4503515Y-9823889D02*
X4493991Y-9842936D01*
X4493991Y-9842936D02*
X4484467Y-9852460D01*
X4484467Y-9852460D02*
X4465420Y-9861984D01*
X4465420Y-9861984D02*
X4446372Y-9861984D01*
X4446372Y-9861984D02*
X4427324Y-9852460D01*
X4427324Y-9852460D02*
X4417801Y-9842936D01*
X4417801Y-9842936D02*
X4408277Y-9823889D01*
X4408277Y-9823889D02*
X4398753Y-9785793D01*
X4398753Y-9785793D02*
X4398753Y-9738174D01*
X4398753Y-9738174D02*
X4408277Y-9700079D01*
X4408277Y-9700079D02*
X4417801Y-9681031D01*
X4417801Y-9681031D02*
X4427324Y-9671508D01*
X4427324Y-9671508D02*
X4446372Y-9661984D01*
X4598753Y-9842936D02*
X4608277Y-9852460D01*
X4608277Y-9852460D02*
X4598753Y-9861984D01*
X4598753Y-9861984D02*
X4589229Y-9852460D01*
X4589229Y-9852460D02*
X4598753Y-9842936D01*
X4598753Y-9842936D02*
X4598753Y-9861984D01*
X4779705Y-9728650D02*
X4779705Y-9861984D01*
X4732086Y-9652460D02*
X4684467Y-9795317D01*
X4684467Y-9795317D02*
X4808277Y-9795317D01*
X4922563Y-9661984D02*
X4941610Y-9661984D01*
X4941610Y-9661984D02*
X4960658Y-9671508D01*
X4960658Y-9671508D02*
X4970182Y-9681031D01*
X4970182Y-9681031D02*
X4979705Y-9700079D01*
X4979705Y-9700079D02*
X4989229Y-9738174D01*
X4989229Y-9738174D02*
X4989229Y-9785793D01*
X4989229Y-9785793D02*
X4979705Y-9823889D01*
X4979705Y-9823889D02*
X4970182Y-9842936D01*
X4970182Y-9842936D02*
X4960658Y-9852460D01*
X4960658Y-9852460D02*
X4941610Y-9861984D01*
X4941610Y-9861984D02*
X4922563Y-9861984D01*
X4922563Y-9861984D02*
X4903515Y-9852460D01*
X4903515Y-9852460D02*
X4893991Y-9842936D01*
X4893991Y-9842936D02*
X4884467Y-9823889D01*
X4884467Y-9823889D02*
X4874944Y-9785793D01*
X4874944Y-9785793D02*
X4874944Y-9738174D01*
X4874944Y-9738174D02*
X4884467Y-9700079D01*
X4884467Y-9700079D02*
X4893991Y-9681031D01*
X4893991Y-9681031D02*
X4903515Y-9671508D01*
X4903515Y-9671508D02*
X4922563Y-9661984D01*
X5113039Y-9661984D02*
X5132086Y-9661984D01*
X5132086Y-9661984D02*
X5151134Y-9671508D01*
X5151134Y-9671508D02*
X5160658Y-9681031D01*
X5160658Y-9681031D02*
X5170182Y-9700079D01*
X5170182Y-9700079D02*
X5179705Y-9738174D01*
X5179705Y-9738174D02*
X5179705Y-9785793D01*
X5179705Y-9785793D02*
X5170182Y-9823889D01*
X5170182Y-9823889D02*
X5160658Y-9842936D01*
X5160658Y-9842936D02*
X5151134Y-9852460D01*
X5151134Y-9852460D02*
X5132086Y-9861984D01*
X5132086Y-9861984D02*
X5113039Y-9861984D01*
X5113039Y-9861984D02*
X5093991Y-9852460D01*
X5093991Y-9852460D02*
X5084467Y-9842936D01*
X5084467Y-9842936D02*
X5074944Y-9823889D01*
X5074944Y-9823889D02*
X5065420Y-9785793D01*
X5065420Y-9785793D02*
X5065420Y-9738174D01*
X5065420Y-9738174D02*
X5074944Y-9700079D01*
X5074944Y-9700079D02*
X5084467Y-9681031D01*
X5084467Y-9681031D02*
X5093991Y-9671508D01*
X5093991Y-9671508D02*
X5113039Y-9661984D01*
X5265420Y-9861984D02*
X5265420Y-9728650D01*
X5265420Y-9747698D02*
X5274944Y-9738174D01*
X5274944Y-9738174D02*
X5293991Y-9728650D01*
X5293991Y-9728650D02*
X5322563Y-9728650D01*
X5322563Y-9728650D02*
X5341610Y-9738174D01*
X5341610Y-9738174D02*
X5351134Y-9757222D01*
X5351134Y-9757222D02*
X5351134Y-9861984D01*
X5351134Y-9757222D02*
X5360658Y-9738174D01*
X5360658Y-9738174D02*
X5379705Y-9728650D01*
X5379705Y-9728650D02*
X5408277Y-9728650D01*
X5408277Y-9728650D02*
X5427325Y-9738174D01*
X5427325Y-9738174D02*
X5436848Y-9757222D01*
X5436848Y-9757222D02*
X5436848Y-9861984D01*
X5532086Y-9861984D02*
X5532086Y-9728650D01*
X5532086Y-9747698D02*
X5541610Y-9738174D01*
X5541610Y-9738174D02*
X5560658Y-9728650D01*
X5560658Y-9728650D02*
X5589229Y-9728650D01*
X5589229Y-9728650D02*
X5608277Y-9738174D01*
X5608277Y-9738174D02*
X5617801Y-9757222D01*
X5617801Y-9757222D02*
X5617801Y-9861984D01*
X5617801Y-9757222D02*
X5627324Y-9738174D01*
X5627324Y-9738174D02*
X5646372Y-9728650D01*
X5646372Y-9728650D02*
X5674943Y-9728650D01*
X5674943Y-9728650D02*
X5693991Y-9738174D01*
X5693991Y-9738174D02*
X5703515Y-9757222D01*
X5703515Y-9757222D02*
X5703515Y-9861984D01*
X6093991Y-9652460D02*
X5922563Y-9909603D01*
X6351134Y-9661984D02*
X6370182Y-9661984D01*
X6370182Y-9661984D02*
X6389229Y-9671508D01*
X6389229Y-9671508D02*
X6398753Y-9681031D01*
X6398753Y-9681031D02*
X6408277Y-9700079D01*
X6408277Y-9700079D02*
X6417801Y-9738174D01*
X6417801Y-9738174D02*
X6417801Y-9785793D01*
X6417801Y-9785793D02*
X6408277Y-9823889D01*
X6408277Y-9823889D02*
X6398753Y-9842936D01*
X6398753Y-9842936D02*
X6389229Y-9852460D01*
X6389229Y-9852460D02*
X6370182Y-9861984D01*
X6370182Y-9861984D02*
X6351134Y-9861984D01*
X6351134Y-9861984D02*
X6332086Y-9852460D01*
X6332086Y-9852460D02*
X6322563Y-9842936D01*
X6322563Y-9842936D02*
X6313039Y-9823889D01*
X6313039Y-9823889D02*
X6303515Y-9785793D01*
X6303515Y-9785793D02*
X6303515Y-9738174D01*
X6303515Y-9738174D02*
X6313039Y-9700079D01*
X6313039Y-9700079D02*
X6322563Y-9681031D01*
X6322563Y-9681031D02*
X6332086Y-9671508D01*
X6332086Y-9671508D02*
X6351134Y-9661984D01*
X6503515Y-9842936D02*
X6513039Y-9852460D01*
X6513039Y-9852460D02*
X6503515Y-9861984D01*
X6503515Y-9861984D02*
X6493991Y-9852460D01*
X6493991Y-9852460D02*
X6503515Y-9842936D01*
X6503515Y-9842936D02*
X6503515Y-9861984D01*
X6636848Y-9661984D02*
X6655896Y-9661984D01*
X6655896Y-9661984D02*
X6674944Y-9671508D01*
X6674944Y-9671508D02*
X6684467Y-9681031D01*
X6684467Y-9681031D02*
X6693991Y-9700079D01*
X6693991Y-9700079D02*
X6703515Y-9738174D01*
X6703515Y-9738174D02*
X6703515Y-9785793D01*
X6703515Y-9785793D02*
X6693991Y-9823889D01*
X6693991Y-9823889D02*
X6684467Y-9842936D01*
X6684467Y-9842936D02*
X6674944Y-9852460D01*
X6674944Y-9852460D02*
X6655896Y-9861984D01*
X6655896Y-9861984D02*
X6636848Y-9861984D01*
X6636848Y-9861984D02*
X6617801Y-9852460D01*
X6617801Y-9852460D02*
X6608277Y-9842936D01*
X6608277Y-9842936D02*
X6598753Y-9823889D01*
X6598753Y-9823889D02*
X6589229Y-9785793D01*
X6589229Y-9785793D02*
X6589229Y-9738174D01*
X6589229Y-9738174D02*
X6598753Y-9700079D01*
X6598753Y-9700079D02*
X6608277Y-9681031D01*
X6608277Y-9681031D02*
X6617801Y-9671508D01*
X6617801Y-9671508D02*
X6636848Y-9661984D01*
X6893991Y-9861984D02*
X6779706Y-9861984D01*
X6836848Y-9861984D02*
X6836848Y-9661984D01*
X6836848Y-9661984D02*
X6817801Y-9690555D01*
X6817801Y-9690555D02*
X6798753Y-9709603D01*
X6798753Y-9709603D02*
X6779706Y-9719127D01*
X7074944Y-9661984D02*
X6979706Y-9661984D01*
X6979706Y-9661984D02*
X6970182Y-9757222D01*
X6970182Y-9757222D02*
X6979706Y-9747698D01*
X6979706Y-9747698D02*
X6998753Y-9738174D01*
X6998753Y-9738174D02*
X7046372Y-9738174D01*
X7046372Y-9738174D02*
X7065420Y-9747698D01*
X7065420Y-9747698D02*
X7074944Y-9757222D01*
X7074944Y-9757222D02*
X7084467Y-9776270D01*
X7084467Y-9776270D02*
X7084467Y-9823889D01*
X7084467Y-9823889D02*
X7074944Y-9842936D01*
X7074944Y-9842936D02*
X7065420Y-9852460D01*
X7065420Y-9852460D02*
X7046372Y-9861984D01*
X7046372Y-9861984D02*
X6998753Y-9861984D01*
X6998753Y-9861984D02*
X6979706Y-9852460D01*
X6979706Y-9852460D02*
X6970182Y-9842936D01*
X7151134Y-9661984D02*
X7284467Y-9661984D01*
X7284467Y-9661984D02*
X7198753Y-9861984D01*
X7351134Y-9661984D02*
X7351134Y-9700079D01*
X7427325Y-9661984D02*
X7427325Y-9700079D01*
X7722563Y-9938174D02*
X7713039Y-9928650D01*
X7713039Y-9928650D02*
X7693991Y-9900079D01*
X7693991Y-9900079D02*
X7684468Y-9881031D01*
X7684468Y-9881031D02*
X7674944Y-9852460D01*
X7674944Y-9852460D02*
X7665420Y-9804841D01*
X7665420Y-9804841D02*
X7665420Y-9766746D01*
X7665420Y-9766746D02*
X7674944Y-9719127D01*
X7674944Y-9719127D02*
X7684468Y-9690555D01*
X7684468Y-9690555D02*
X7693991Y-9671508D01*
X7693991Y-9671508D02*
X7713039Y-9642936D01*
X7713039Y-9642936D02*
X7722563Y-9633412D01*
X7884468Y-9661984D02*
X7846372Y-9661984D01*
X7846372Y-9661984D02*
X7827325Y-9671508D01*
X7827325Y-9671508D02*
X7817801Y-9681031D01*
X7817801Y-9681031D02*
X7798753Y-9709603D01*
X7798753Y-9709603D02*
X7789229Y-9747698D01*
X7789229Y-9747698D02*
X7789229Y-9823889D01*
X7789229Y-9823889D02*
X7798753Y-9842936D01*
X7798753Y-9842936D02*
X7808277Y-9852460D01*
X7808277Y-9852460D02*
X7827325Y-9861984D01*
X7827325Y-9861984D02*
X7865420Y-9861984D01*
X7865420Y-9861984D02*
X7884468Y-9852460D01*
X7884468Y-9852460D02*
X7893991Y-9842936D01*
X7893991Y-9842936D02*
X7903515Y-9823889D01*
X7903515Y-9823889D02*
X7903515Y-9776270D01*
X7903515Y-9776270D02*
X7893991Y-9757222D01*
X7893991Y-9757222D02*
X7884468Y-9747698D01*
X7884468Y-9747698D02*
X7865420Y-9738174D01*
X7865420Y-9738174D02*
X7827325Y-9738174D01*
X7827325Y-9738174D02*
X7808277Y-9747698D01*
X7808277Y-9747698D02*
X7798753Y-9757222D01*
X7798753Y-9757222D02*
X7789229Y-9776270D01*
X8141610Y-9861984D02*
X8141610Y-9661984D01*
X8227325Y-9861984D02*
X8227325Y-9757222D01*
X8227325Y-9757222D02*
X8217801Y-9738174D01*
X8217801Y-9738174D02*
X8198753Y-9728650D01*
X8198753Y-9728650D02*
X8170182Y-9728650D01*
X8170182Y-9728650D02*
X8151134Y-9738174D01*
X8151134Y-9738174D02*
X8141610Y-9747698D01*
X8351134Y-9861984D02*
X8332087Y-9852460D01*
X8332087Y-9852460D02*
X8322563Y-9842936D01*
X8322563Y-9842936D02*
X8313039Y-9823889D01*
X8313039Y-9823889D02*
X8313039Y-9766746D01*
X8313039Y-9766746D02*
X8322563Y-9747698D01*
X8322563Y-9747698D02*
X8332087Y-9738174D01*
X8332087Y-9738174D02*
X8351134Y-9728650D01*
X8351134Y-9728650D02*
X8379706Y-9728650D01*
X8379706Y-9728650D02*
X8398753Y-9738174D01*
X8398753Y-9738174D02*
X8408277Y-9747698D01*
X8408277Y-9747698D02*
X8417801Y-9766746D01*
X8417801Y-9766746D02*
X8417801Y-9823889D01*
X8417801Y-9823889D02*
X8408277Y-9842936D01*
X8408277Y-9842936D02*
X8398753Y-9852460D01*
X8398753Y-9852460D02*
X8379706Y-9861984D01*
X8379706Y-9861984D02*
X8351134Y-9861984D01*
X8532087Y-9861984D02*
X8513039Y-9852460D01*
X8513039Y-9852460D02*
X8503515Y-9833412D01*
X8503515Y-9833412D02*
X8503515Y-9661984D01*
X8684468Y-9852460D02*
X8665420Y-9861984D01*
X8665420Y-9861984D02*
X8627325Y-9861984D01*
X8627325Y-9861984D02*
X8608277Y-9852460D01*
X8608277Y-9852460D02*
X8598753Y-9833412D01*
X8598753Y-9833412D02*
X8598753Y-9757222D01*
X8598753Y-9757222D02*
X8608277Y-9738174D01*
X8608277Y-9738174D02*
X8627325Y-9728650D01*
X8627325Y-9728650D02*
X8665420Y-9728650D01*
X8665420Y-9728650D02*
X8684468Y-9738174D01*
X8684468Y-9738174D02*
X8693992Y-9757222D01*
X8693992Y-9757222D02*
X8693992Y-9776270D01*
X8693992Y-9776270D02*
X8598753Y-9795317D01*
X8770182Y-9852460D02*
X8789230Y-9861984D01*
X8789230Y-9861984D02*
X8827325Y-9861984D01*
X8827325Y-9861984D02*
X8846373Y-9852460D01*
X8846373Y-9852460D02*
X8855896Y-9833412D01*
X8855896Y-9833412D02*
X8855896Y-9823889D01*
X8855896Y-9823889D02*
X8846373Y-9804841D01*
X8846373Y-9804841D02*
X8827325Y-9795317D01*
X8827325Y-9795317D02*
X8798753Y-9795317D01*
X8798753Y-9795317D02*
X8779706Y-9785793D01*
X8779706Y-9785793D02*
X8770182Y-9766746D01*
X8770182Y-9766746D02*
X8770182Y-9757222D01*
X8770182Y-9757222D02*
X8779706Y-9738174D01*
X8779706Y-9738174D02*
X8798753Y-9728650D01*
X8798753Y-9728650D02*
X8827325Y-9728650D01*
X8827325Y-9728650D02*
X8846373Y-9738174D01*
X8922563Y-9938174D02*
X8932087Y-9928650D01*
X8932087Y-9928650D02*
X8951134Y-9900079D01*
X8951134Y-9900079D02*
X8960658Y-9881031D01*
X8960658Y-9881031D02*
X8970182Y-9852460D01*
X8970182Y-9852460D02*
X8979706Y-9804841D01*
X8979706Y-9804841D02*
X8979706Y-9766746D01*
X8979706Y-9766746D02*
X8970182Y-9719127D01*
X8970182Y-9719127D02*
X8960658Y-9690555D01*
X8960658Y-9690555D02*
X8951134Y-9671508D01*
X8951134Y-9671508D02*
X8932087Y-9642936D01*
X8932087Y-9642936D02*
X8922563Y-9633412D01*
D13*
X4140471Y-10051471D02*
X4140471Y-10017529D01*
X4106529Y-10017529D01*
X4106529Y-10051471D01*
X4140471Y-10051471D01*
D12*
X4446372Y-9925984D02*
X4465420Y-9925984D01*
X4465420Y-9925984D02*
X4484467Y-9935508D01*
X4484467Y-9935508D02*
X4493991Y-9945031D01*
X4493991Y-9945031D02*
X4503515Y-9964079D01*
X4503515Y-9964079D02*
X4513039Y-10002174D01*
X4513039Y-10002174D02*
X4513039Y-10049793D01*
X4513039Y-10049793D02*
X4503515Y-10087889D01*
X4503515Y-10087889D02*
X4493991Y-10106936D01*
X4493991Y-10106936D02*
X4484467Y-10116460D01*
X4484467Y-10116460D02*
X4465420Y-10125984D01*
X4465420Y-10125984D02*
X4446372Y-10125984D01*
X4446372Y-10125984D02*
X4427324Y-10116460D01*
X4427324Y-10116460D02*
X4417801Y-10106936D01*
X4417801Y-10106936D02*
X4408277Y-10087889D01*
X4408277Y-10087889D02*
X4398753Y-10049793D01*
X4398753Y-10049793D02*
X4398753Y-10002174D01*
X4398753Y-10002174D02*
X4408277Y-9964079D01*
X4408277Y-9964079D02*
X4417801Y-9945031D01*
X4417801Y-9945031D02*
X4427324Y-9935508D01*
X4427324Y-9935508D02*
X4446372Y-9925984D01*
X4598753Y-10106936D02*
X4608277Y-10116460D01*
X4608277Y-10116460D02*
X4598753Y-10125984D01*
X4598753Y-10125984D02*
X4589229Y-10116460D01*
X4589229Y-10116460D02*
X4598753Y-10106936D01*
X4598753Y-10106936D02*
X4598753Y-10125984D01*
X4779705Y-9992650D02*
X4779705Y-10125984D01*
X4732086Y-9916460D02*
X4684467Y-10059317D01*
X4684467Y-10059317D02*
X4808277Y-10059317D01*
X4913039Y-10011698D02*
X4893991Y-10002174D01*
X4893991Y-10002174D02*
X4884467Y-9992650D01*
X4884467Y-9992650D02*
X4874944Y-9973603D01*
X4874944Y-9973603D02*
X4874944Y-9964079D01*
X4874944Y-9964079D02*
X4884467Y-9945031D01*
X4884467Y-9945031D02*
X4893991Y-9935508D01*
X4893991Y-9935508D02*
X4913039Y-9925984D01*
X4913039Y-9925984D02*
X4951134Y-9925984D01*
X4951134Y-9925984D02*
X4970182Y-9935508D01*
X4970182Y-9935508D02*
X4979705Y-9945031D01*
X4979705Y-9945031D02*
X4989229Y-9964079D01*
X4989229Y-9964079D02*
X4989229Y-9973603D01*
X4989229Y-9973603D02*
X4979705Y-9992650D01*
X4979705Y-9992650D02*
X4970182Y-10002174D01*
X4970182Y-10002174D02*
X4951134Y-10011698D01*
X4951134Y-10011698D02*
X4913039Y-10011698D01*
X4913039Y-10011698D02*
X4893991Y-10021222D01*
X4893991Y-10021222D02*
X4884467Y-10030746D01*
X4884467Y-10030746D02*
X4874944Y-10049793D01*
X4874944Y-10049793D02*
X4874944Y-10087889D01*
X4874944Y-10087889D02*
X4884467Y-10106936D01*
X4884467Y-10106936D02*
X4893991Y-10116460D01*
X4893991Y-10116460D02*
X4913039Y-10125984D01*
X4913039Y-10125984D02*
X4951134Y-10125984D01*
X4951134Y-10125984D02*
X4970182Y-10116460D01*
X4970182Y-10116460D02*
X4979705Y-10106936D01*
X4979705Y-10106936D02*
X4989229Y-10087889D01*
X4989229Y-10087889D02*
X4989229Y-10049793D01*
X4989229Y-10049793D02*
X4979705Y-10030746D01*
X4979705Y-10030746D02*
X4970182Y-10021222D01*
X4970182Y-10021222D02*
X4951134Y-10011698D01*
X5113039Y-9925984D02*
X5132086Y-9925984D01*
X5132086Y-9925984D02*
X5151134Y-9935508D01*
X5151134Y-9935508D02*
X5160658Y-9945031D01*
X5160658Y-9945031D02*
X5170182Y-9964079D01*
X5170182Y-9964079D02*
X5179705Y-10002174D01*
X5179705Y-10002174D02*
X5179705Y-10049793D01*
X5179705Y-10049793D02*
X5170182Y-10087889D01*
X5170182Y-10087889D02*
X5160658Y-10106936D01*
X5160658Y-10106936D02*
X5151134Y-10116460D01*
X5151134Y-10116460D02*
X5132086Y-10125984D01*
X5132086Y-10125984D02*
X5113039Y-10125984D01*
X5113039Y-10125984D02*
X5093991Y-10116460D01*
X5093991Y-10116460D02*
X5084467Y-10106936D01*
X5084467Y-10106936D02*
X5074944Y-10087889D01*
X5074944Y-10087889D02*
X5065420Y-10049793D01*
X5065420Y-10049793D02*
X5065420Y-10002174D01*
X5065420Y-10002174D02*
X5074944Y-9964079D01*
X5074944Y-9964079D02*
X5084467Y-9945031D01*
X5084467Y-9945031D02*
X5093991Y-9935508D01*
X5093991Y-9935508D02*
X5113039Y-9925984D01*
X5265420Y-10125984D02*
X5265420Y-9992650D01*
X5265420Y-10011698D02*
X5274944Y-10002174D01*
X5274944Y-10002174D02*
X5293991Y-9992650D01*
X5293991Y-9992650D02*
X5322563Y-9992650D01*
X5322563Y-9992650D02*
X5341610Y-10002174D01*
X5341610Y-10002174D02*
X5351134Y-10021222D01*
X5351134Y-10021222D02*
X5351134Y-10125984D01*
X5351134Y-10021222D02*
X5360658Y-10002174D01*
X5360658Y-10002174D02*
X5379705Y-9992650D01*
X5379705Y-9992650D02*
X5408277Y-9992650D01*
X5408277Y-9992650D02*
X5427325Y-10002174D01*
X5427325Y-10002174D02*
X5436848Y-10021222D01*
X5436848Y-10021222D02*
X5436848Y-10125984D01*
X5532086Y-10125984D02*
X5532086Y-9992650D01*
X5532086Y-10011698D02*
X5541610Y-10002174D01*
X5541610Y-10002174D02*
X5560658Y-9992650D01*
X5560658Y-9992650D02*
X5589229Y-9992650D01*
X5589229Y-9992650D02*
X5608277Y-10002174D01*
X5608277Y-10002174D02*
X5617801Y-10021222D01*
X5617801Y-10021222D02*
X5617801Y-10125984D01*
X5617801Y-10021222D02*
X5627324Y-10002174D01*
X5627324Y-10002174D02*
X5646372Y-9992650D01*
X5646372Y-9992650D02*
X5674943Y-9992650D01*
X5674943Y-9992650D02*
X5693991Y-10002174D01*
X5693991Y-10002174D02*
X5703515Y-10021222D01*
X5703515Y-10021222D02*
X5703515Y-10125984D01*
X6093991Y-9916460D02*
X5922563Y-10173603D01*
X6351134Y-9925984D02*
X6370182Y-9925984D01*
X6370182Y-9925984D02*
X6389229Y-9935508D01*
X6389229Y-9935508D02*
X6398753Y-9945031D01*
X6398753Y-9945031D02*
X6408277Y-9964079D01*
X6408277Y-9964079D02*
X6417801Y-10002174D01*
X6417801Y-10002174D02*
X6417801Y-10049793D01*
X6417801Y-10049793D02*
X6408277Y-10087889D01*
X6408277Y-10087889D02*
X6398753Y-10106936D01*
X6398753Y-10106936D02*
X6389229Y-10116460D01*
X6389229Y-10116460D02*
X6370182Y-10125984D01*
X6370182Y-10125984D02*
X6351134Y-10125984D01*
X6351134Y-10125984D02*
X6332086Y-10116460D01*
X6332086Y-10116460D02*
X6322563Y-10106936D01*
X6322563Y-10106936D02*
X6313039Y-10087889D01*
X6313039Y-10087889D02*
X6303515Y-10049793D01*
X6303515Y-10049793D02*
X6303515Y-10002174D01*
X6303515Y-10002174D02*
X6313039Y-9964079D01*
X6313039Y-9964079D02*
X6322563Y-9945031D01*
X6322563Y-9945031D02*
X6332086Y-9935508D01*
X6332086Y-9935508D02*
X6351134Y-9925984D01*
X6503515Y-10106936D02*
X6513039Y-10116460D01*
X6513039Y-10116460D02*
X6503515Y-10125984D01*
X6503515Y-10125984D02*
X6493991Y-10116460D01*
X6493991Y-10116460D02*
X6503515Y-10106936D01*
X6503515Y-10106936D02*
X6503515Y-10125984D01*
X6636848Y-9925984D02*
X6655896Y-9925984D01*
X6655896Y-9925984D02*
X6674944Y-9935508D01*
X6674944Y-9935508D02*
X6684467Y-9945031D01*
X6684467Y-9945031D02*
X6693991Y-9964079D01*
X6693991Y-9964079D02*
X6703515Y-10002174D01*
X6703515Y-10002174D02*
X6703515Y-10049793D01*
X6703515Y-10049793D02*
X6693991Y-10087889D01*
X6693991Y-10087889D02*
X6684467Y-10106936D01*
X6684467Y-10106936D02*
X6674944Y-10116460D01*
X6674944Y-10116460D02*
X6655896Y-10125984D01*
X6655896Y-10125984D02*
X6636848Y-10125984D01*
X6636848Y-10125984D02*
X6617801Y-10116460D01*
X6617801Y-10116460D02*
X6608277Y-10106936D01*
X6608277Y-10106936D02*
X6598753Y-10087889D01*
X6598753Y-10087889D02*
X6589229Y-10049793D01*
X6589229Y-10049793D02*
X6589229Y-10002174D01*
X6589229Y-10002174D02*
X6598753Y-9964079D01*
X6598753Y-9964079D02*
X6608277Y-9945031D01*
X6608277Y-9945031D02*
X6617801Y-9935508D01*
X6617801Y-9935508D02*
X6636848Y-9925984D01*
X6893991Y-10125984D02*
X6779706Y-10125984D01*
X6836848Y-10125984D02*
X6836848Y-9925984D01*
X6836848Y-9925984D02*
X6817801Y-9954555D01*
X6817801Y-9954555D02*
X6798753Y-9973603D01*
X6798753Y-9973603D02*
X6779706Y-9983127D01*
X7008277Y-10011698D02*
X6989229Y-10002174D01*
X6989229Y-10002174D02*
X6979706Y-9992650D01*
X6979706Y-9992650D02*
X6970182Y-9973603D01*
X6970182Y-9973603D02*
X6970182Y-9964079D01*
X6970182Y-9964079D02*
X6979706Y-9945031D01*
X6979706Y-9945031D02*
X6989229Y-9935508D01*
X6989229Y-9935508D02*
X7008277Y-9925984D01*
X7008277Y-9925984D02*
X7046372Y-9925984D01*
X7046372Y-9925984D02*
X7065420Y-9935508D01*
X7065420Y-9935508D02*
X7074944Y-9945031D01*
X7074944Y-9945031D02*
X7084467Y-9964079D01*
X7084467Y-9964079D02*
X7084467Y-9973603D01*
X7084467Y-9973603D02*
X7074944Y-9992650D01*
X7074944Y-9992650D02*
X7065420Y-10002174D01*
X7065420Y-10002174D02*
X7046372Y-10011698D01*
X7046372Y-10011698D02*
X7008277Y-10011698D01*
X7008277Y-10011698D02*
X6989229Y-10021222D01*
X6989229Y-10021222D02*
X6979706Y-10030746D01*
X6979706Y-10030746D02*
X6970182Y-10049793D01*
X6970182Y-10049793D02*
X6970182Y-10087889D01*
X6970182Y-10087889D02*
X6979706Y-10106936D01*
X6979706Y-10106936D02*
X6989229Y-10116460D01*
X6989229Y-10116460D02*
X7008277Y-10125984D01*
X7008277Y-10125984D02*
X7046372Y-10125984D01*
X7046372Y-10125984D02*
X7065420Y-10116460D01*
X7065420Y-10116460D02*
X7074944Y-10106936D01*
X7074944Y-10106936D02*
X7084467Y-10087889D01*
X7084467Y-10087889D02*
X7084467Y-10049793D01*
X7084467Y-10049793D02*
X7074944Y-10030746D01*
X7074944Y-10030746D02*
X7065420Y-10021222D01*
X7065420Y-10021222D02*
X7046372Y-10011698D01*
X7179706Y-10125984D02*
X7217801Y-10125984D01*
X7217801Y-10125984D02*
X7236848Y-10116460D01*
X7236848Y-10116460D02*
X7246372Y-10106936D01*
X7246372Y-10106936D02*
X7265420Y-10078365D01*
X7265420Y-10078365D02*
X7274944Y-10040270D01*
X7274944Y-10040270D02*
X7274944Y-9964079D01*
X7274944Y-9964079D02*
X7265420Y-9945031D01*
X7265420Y-9945031D02*
X7255896Y-9935508D01*
X7255896Y-9935508D02*
X7236848Y-9925984D01*
X7236848Y-9925984D02*
X7198753Y-9925984D01*
X7198753Y-9925984D02*
X7179706Y-9935508D01*
X7179706Y-9935508D02*
X7170182Y-9945031D01*
X7170182Y-9945031D02*
X7160658Y-9964079D01*
X7160658Y-9964079D02*
X7160658Y-10011698D01*
X7160658Y-10011698D02*
X7170182Y-10030746D01*
X7170182Y-10030746D02*
X7179706Y-10040270D01*
X7179706Y-10040270D02*
X7198753Y-10049793D01*
X7198753Y-10049793D02*
X7236848Y-10049793D01*
X7236848Y-10049793D02*
X7255896Y-10040270D01*
X7255896Y-10040270D02*
X7265420Y-10030746D01*
X7265420Y-10030746D02*
X7274944Y-10011698D01*
X7351134Y-9925984D02*
X7351134Y-9964079D01*
X7427325Y-9925984D02*
X7427325Y-9964079D01*
X7722563Y-10202174D02*
X7713039Y-10192650D01*
X7713039Y-10192650D02*
X7693991Y-10164079D01*
X7693991Y-10164079D02*
X7684468Y-10145031D01*
X7684468Y-10145031D02*
X7674944Y-10116460D01*
X7674944Y-10116460D02*
X7665420Y-10068841D01*
X7665420Y-10068841D02*
X7665420Y-10030746D01*
X7665420Y-10030746D02*
X7674944Y-9983127D01*
X7674944Y-9983127D02*
X7684468Y-9954555D01*
X7684468Y-9954555D02*
X7693991Y-9935508D01*
X7693991Y-9935508D02*
X7713039Y-9906936D01*
X7713039Y-9906936D02*
X7722563Y-9897412D01*
X7789229Y-9945031D02*
X7798753Y-9935508D01*
X7798753Y-9935508D02*
X7817801Y-9925984D01*
X7817801Y-9925984D02*
X7865420Y-9925984D01*
X7865420Y-9925984D02*
X7884468Y-9935508D01*
X7884468Y-9935508D02*
X7893991Y-9945031D01*
X7893991Y-9945031D02*
X7903515Y-9964079D01*
X7903515Y-9964079D02*
X7903515Y-9983127D01*
X7903515Y-9983127D02*
X7893991Y-10011698D01*
X7893991Y-10011698D02*
X7779706Y-10125984D01*
X7779706Y-10125984D02*
X7903515Y-10125984D01*
X8141610Y-10125984D02*
X8141610Y-9925984D01*
X8227325Y-10125984D02*
X8227325Y-10021222D01*
X8227325Y-10021222D02*
X8217801Y-10002174D01*
X8217801Y-10002174D02*
X8198753Y-9992650D01*
X8198753Y-9992650D02*
X8170182Y-9992650D01*
X8170182Y-9992650D02*
X8151134Y-10002174D01*
X8151134Y-10002174D02*
X8141610Y-10011698D01*
X8351134Y-10125984D02*
X8332087Y-10116460D01*
X8332087Y-10116460D02*
X8322563Y-10106936D01*
X8322563Y-10106936D02*
X8313039Y-10087889D01*
X8313039Y-10087889D02*
X8313039Y-10030746D01*
X8313039Y-10030746D02*
X8322563Y-10011698D01*
X8322563Y-10011698D02*
X8332087Y-10002174D01*
X8332087Y-10002174D02*
X8351134Y-9992650D01*
X8351134Y-9992650D02*
X8379706Y-9992650D01*
X8379706Y-9992650D02*
X8398753Y-10002174D01*
X8398753Y-10002174D02*
X8408277Y-10011698D01*
X8408277Y-10011698D02*
X8417801Y-10030746D01*
X8417801Y-10030746D02*
X8417801Y-10087889D01*
X8417801Y-10087889D02*
X8408277Y-10106936D01*
X8408277Y-10106936D02*
X8398753Y-10116460D01*
X8398753Y-10116460D02*
X8379706Y-10125984D01*
X8379706Y-10125984D02*
X8351134Y-10125984D01*
X8532087Y-10125984D02*
X8513039Y-10116460D01*
X8513039Y-10116460D02*
X8503515Y-10097412D01*
X8503515Y-10097412D02*
X8503515Y-9925984D01*
X8684468Y-10116460D02*
X8665420Y-10125984D01*
X8665420Y-10125984D02*
X8627325Y-10125984D01*
X8627325Y-10125984D02*
X8608277Y-10116460D01*
X8608277Y-10116460D02*
X8598753Y-10097412D01*
X8598753Y-10097412D02*
X8598753Y-10021222D01*
X8598753Y-10021222D02*
X8608277Y-10002174D01*
X8608277Y-10002174D02*
X8627325Y-9992650D01*
X8627325Y-9992650D02*
X8665420Y-9992650D01*
X8665420Y-9992650D02*
X8684468Y-10002174D01*
X8684468Y-10002174D02*
X8693992Y-10021222D01*
X8693992Y-10021222D02*
X8693992Y-10040270D01*
X8693992Y-10040270D02*
X8598753Y-10059317D01*
X8770182Y-10116460D02*
X8789230Y-10125984D01*
X8789230Y-10125984D02*
X8827325Y-10125984D01*
X8827325Y-10125984D02*
X8846373Y-10116460D01*
X8846373Y-10116460D02*
X8855896Y-10097412D01*
X8855896Y-10097412D02*
X8855896Y-10087889D01*
X8855896Y-10087889D02*
X8846373Y-10068841D01*
X8846373Y-10068841D02*
X8827325Y-10059317D01*
X8827325Y-10059317D02*
X8798753Y-10059317D01*
X8798753Y-10059317D02*
X8779706Y-10049793D01*
X8779706Y-10049793D02*
X8770182Y-10030746D01*
X8770182Y-10030746D02*
X8770182Y-10021222D01*
X8770182Y-10021222D02*
X8779706Y-10002174D01*
X8779706Y-10002174D02*
X8798753Y-9992650D01*
X8798753Y-9992650D02*
X8827325Y-9992650D01*
X8827325Y-9992650D02*
X8846373Y-10002174D01*
X8922563Y-10202174D02*
X8932087Y-10192650D01*
X8932087Y-10192650D02*
X8951134Y-10164079D01*
X8951134Y-10164079D02*
X8960658Y-10145031D01*
X8960658Y-10145031D02*
X8970182Y-10116460D01*
X8970182Y-10116460D02*
X8979706Y-10068841D01*
X8979706Y-10068841D02*
X8979706Y-10030746D01*
X8979706Y-10030746D02*
X8970182Y-9983127D01*
X8970182Y-9983127D02*
X8960658Y-9954555D01*
X8960658Y-9954555D02*
X8951134Y-9935508D01*
X8951134Y-9935508D02*
X8932087Y-9906936D01*
X8932087Y-9906936D02*
X8922563Y-9897412D01*
D13*
X4122500Y-10323500D02*
X4147500Y-10298500D01*
X4122500Y-10273500D01*
X4097500Y-10298500D01*
X4122500Y-10323500D01*
D12*
X4446372Y-10189984D02*
X4465420Y-10189984D01*
X4465420Y-10189984D02*
X4484467Y-10199508D01*
X4484467Y-10199508D02*
X4493991Y-10209031D01*
X4493991Y-10209031D02*
X4503515Y-10228079D01*
X4503515Y-10228079D02*
X4513039Y-10266174D01*
X4513039Y-10266174D02*
X4513039Y-10313793D01*
X4513039Y-10313793D02*
X4503515Y-10351889D01*
X4503515Y-10351889D02*
X4493991Y-10370936D01*
X4493991Y-10370936D02*
X4484467Y-10380460D01*
X4484467Y-10380460D02*
X4465420Y-10389984D01*
X4465420Y-10389984D02*
X4446372Y-10389984D01*
X4446372Y-10389984D02*
X4427324Y-10380460D01*
X4427324Y-10380460D02*
X4417801Y-10370936D01*
X4417801Y-10370936D02*
X4408277Y-10351889D01*
X4408277Y-10351889D02*
X4398753Y-10313793D01*
X4398753Y-10313793D02*
X4398753Y-10266174D01*
X4398753Y-10266174D02*
X4408277Y-10228079D01*
X4408277Y-10228079D02*
X4417801Y-10209031D01*
X4417801Y-10209031D02*
X4427324Y-10199508D01*
X4427324Y-10199508D02*
X4446372Y-10189984D01*
X4598753Y-10370936D02*
X4608277Y-10380460D01*
X4608277Y-10380460D02*
X4598753Y-10389984D01*
X4598753Y-10389984D02*
X4589229Y-10380460D01*
X4589229Y-10380460D02*
X4598753Y-10370936D01*
X4598753Y-10370936D02*
X4598753Y-10389984D01*
X4789229Y-10189984D02*
X4693991Y-10189984D01*
X4693991Y-10189984D02*
X4684467Y-10285222D01*
X4684467Y-10285222D02*
X4693991Y-10275698D01*
X4693991Y-10275698D02*
X4713039Y-10266174D01*
X4713039Y-10266174D02*
X4760658Y-10266174D01*
X4760658Y-10266174D02*
X4779705Y-10275698D01*
X4779705Y-10275698D02*
X4789229Y-10285222D01*
X4789229Y-10285222D02*
X4798753Y-10304270D01*
X4798753Y-10304270D02*
X4798753Y-10351889D01*
X4798753Y-10351889D02*
X4789229Y-10370936D01*
X4789229Y-10370936D02*
X4779705Y-10380460D01*
X4779705Y-10380460D02*
X4760658Y-10389984D01*
X4760658Y-10389984D02*
X4713039Y-10389984D01*
X4713039Y-10389984D02*
X4693991Y-10380460D01*
X4693991Y-10380460D02*
X4684467Y-10370936D01*
X4922563Y-10189984D02*
X4941610Y-10189984D01*
X4941610Y-10189984D02*
X4960658Y-10199508D01*
X4960658Y-10199508D02*
X4970182Y-10209031D01*
X4970182Y-10209031D02*
X4979705Y-10228079D01*
X4979705Y-10228079D02*
X4989229Y-10266174D01*
X4989229Y-10266174D02*
X4989229Y-10313793D01*
X4989229Y-10313793D02*
X4979705Y-10351889D01*
X4979705Y-10351889D02*
X4970182Y-10370936D01*
X4970182Y-10370936D02*
X4960658Y-10380460D01*
X4960658Y-10380460D02*
X4941610Y-10389984D01*
X4941610Y-10389984D02*
X4922563Y-10389984D01*
X4922563Y-10389984D02*
X4903515Y-10380460D01*
X4903515Y-10380460D02*
X4893991Y-10370936D01*
X4893991Y-10370936D02*
X4884467Y-10351889D01*
X4884467Y-10351889D02*
X4874944Y-10313793D01*
X4874944Y-10313793D02*
X4874944Y-10266174D01*
X4874944Y-10266174D02*
X4884467Y-10228079D01*
X4884467Y-10228079D02*
X4893991Y-10209031D01*
X4893991Y-10209031D02*
X4903515Y-10199508D01*
X4903515Y-10199508D02*
X4922563Y-10189984D01*
X5113039Y-10189984D02*
X5132086Y-10189984D01*
X5132086Y-10189984D02*
X5151134Y-10199508D01*
X5151134Y-10199508D02*
X5160658Y-10209031D01*
X5160658Y-10209031D02*
X5170182Y-10228079D01*
X5170182Y-10228079D02*
X5179705Y-10266174D01*
X5179705Y-10266174D02*
X5179705Y-10313793D01*
X5179705Y-10313793D02*
X5170182Y-10351889D01*
X5170182Y-10351889D02*
X5160658Y-10370936D01*
X5160658Y-10370936D02*
X5151134Y-10380460D01*
X5151134Y-10380460D02*
X5132086Y-10389984D01*
X5132086Y-10389984D02*
X5113039Y-10389984D01*
X5113039Y-10389984D02*
X5093991Y-10380460D01*
X5093991Y-10380460D02*
X5084467Y-10370936D01*
X5084467Y-10370936D02*
X5074944Y-10351889D01*
X5074944Y-10351889D02*
X5065420Y-10313793D01*
X5065420Y-10313793D02*
X5065420Y-10266174D01*
X5065420Y-10266174D02*
X5074944Y-10228079D01*
X5074944Y-10228079D02*
X5084467Y-10209031D01*
X5084467Y-10209031D02*
X5093991Y-10199508D01*
X5093991Y-10199508D02*
X5113039Y-10189984D01*
X5265420Y-10389984D02*
X5265420Y-10256650D01*
X5265420Y-10275698D02*
X5274944Y-10266174D01*
X5274944Y-10266174D02*
X5293991Y-10256650D01*
X5293991Y-10256650D02*
X5322563Y-10256650D01*
X5322563Y-10256650D02*
X5341610Y-10266174D01*
X5341610Y-10266174D02*
X5351134Y-10285222D01*
X5351134Y-10285222D02*
X5351134Y-10389984D01*
X5351134Y-10285222D02*
X5360658Y-10266174D01*
X5360658Y-10266174D02*
X5379705Y-10256650D01*
X5379705Y-10256650D02*
X5408277Y-10256650D01*
X5408277Y-10256650D02*
X5427325Y-10266174D01*
X5427325Y-10266174D02*
X5436848Y-10285222D01*
X5436848Y-10285222D02*
X5436848Y-10389984D01*
X5532086Y-10389984D02*
X5532086Y-10256650D01*
X5532086Y-10275698D02*
X5541610Y-10266174D01*
X5541610Y-10266174D02*
X5560658Y-10256650D01*
X5560658Y-10256650D02*
X5589229Y-10256650D01*
X5589229Y-10256650D02*
X5608277Y-10266174D01*
X5608277Y-10266174D02*
X5617801Y-10285222D01*
X5617801Y-10285222D02*
X5617801Y-10389984D01*
X5617801Y-10285222D02*
X5627324Y-10266174D01*
X5627324Y-10266174D02*
X5646372Y-10256650D01*
X5646372Y-10256650D02*
X5674943Y-10256650D01*
X5674943Y-10256650D02*
X5693991Y-10266174D01*
X5693991Y-10266174D02*
X5703515Y-10285222D01*
X5703515Y-10285222D02*
X5703515Y-10389984D01*
X6093991Y-10180460D02*
X5922563Y-10437603D01*
X6351134Y-10189984D02*
X6370182Y-10189984D01*
X6370182Y-10189984D02*
X6389229Y-10199508D01*
X6389229Y-10199508D02*
X6398753Y-10209031D01*
X6398753Y-10209031D02*
X6408277Y-10228079D01*
X6408277Y-10228079D02*
X6417801Y-10266174D01*
X6417801Y-10266174D02*
X6417801Y-10313793D01*
X6417801Y-10313793D02*
X6408277Y-10351889D01*
X6408277Y-10351889D02*
X6398753Y-10370936D01*
X6398753Y-10370936D02*
X6389229Y-10380460D01*
X6389229Y-10380460D02*
X6370182Y-10389984D01*
X6370182Y-10389984D02*
X6351134Y-10389984D01*
X6351134Y-10389984D02*
X6332086Y-10380460D01*
X6332086Y-10380460D02*
X6322563Y-10370936D01*
X6322563Y-10370936D02*
X6313039Y-10351889D01*
X6313039Y-10351889D02*
X6303515Y-10313793D01*
X6303515Y-10313793D02*
X6303515Y-10266174D01*
X6303515Y-10266174D02*
X6313039Y-10228079D01*
X6313039Y-10228079D02*
X6322563Y-10209031D01*
X6322563Y-10209031D02*
X6332086Y-10199508D01*
X6332086Y-10199508D02*
X6351134Y-10189984D01*
X6503515Y-10370936D02*
X6513039Y-10380460D01*
X6513039Y-10380460D02*
X6503515Y-10389984D01*
X6503515Y-10389984D02*
X6493991Y-10380460D01*
X6493991Y-10380460D02*
X6503515Y-10370936D01*
X6503515Y-10370936D02*
X6503515Y-10389984D01*
X6636848Y-10189984D02*
X6655896Y-10189984D01*
X6655896Y-10189984D02*
X6674944Y-10199508D01*
X6674944Y-10199508D02*
X6684467Y-10209031D01*
X6684467Y-10209031D02*
X6693991Y-10228079D01*
X6693991Y-10228079D02*
X6703515Y-10266174D01*
X6703515Y-10266174D02*
X6703515Y-10313793D01*
X6703515Y-10313793D02*
X6693991Y-10351889D01*
X6693991Y-10351889D02*
X6684467Y-10370936D01*
X6684467Y-10370936D02*
X6674944Y-10380460D01*
X6674944Y-10380460D02*
X6655896Y-10389984D01*
X6655896Y-10389984D02*
X6636848Y-10389984D01*
X6636848Y-10389984D02*
X6617801Y-10380460D01*
X6617801Y-10380460D02*
X6608277Y-10370936D01*
X6608277Y-10370936D02*
X6598753Y-10351889D01*
X6598753Y-10351889D02*
X6589229Y-10313793D01*
X6589229Y-10313793D02*
X6589229Y-10266174D01*
X6589229Y-10266174D02*
X6598753Y-10228079D01*
X6598753Y-10228079D02*
X6608277Y-10209031D01*
X6608277Y-10209031D02*
X6617801Y-10199508D01*
X6617801Y-10199508D02*
X6636848Y-10189984D01*
X6893991Y-10389984D02*
X6779706Y-10389984D01*
X6836848Y-10389984D02*
X6836848Y-10189984D01*
X6836848Y-10189984D02*
X6817801Y-10218555D01*
X6817801Y-10218555D02*
X6798753Y-10237603D01*
X6798753Y-10237603D02*
X6779706Y-10247127D01*
X6989229Y-10389984D02*
X7027325Y-10389984D01*
X7027325Y-10389984D02*
X7046372Y-10380460D01*
X7046372Y-10380460D02*
X7055896Y-10370936D01*
X7055896Y-10370936D02*
X7074944Y-10342365D01*
X7074944Y-10342365D02*
X7084467Y-10304270D01*
X7084467Y-10304270D02*
X7084467Y-10228079D01*
X7084467Y-10228079D02*
X7074944Y-10209031D01*
X7074944Y-10209031D02*
X7065420Y-10199508D01*
X7065420Y-10199508D02*
X7046372Y-10189984D01*
X7046372Y-10189984D02*
X7008277Y-10189984D01*
X7008277Y-10189984D02*
X6989229Y-10199508D01*
X6989229Y-10199508D02*
X6979706Y-10209031D01*
X6979706Y-10209031D02*
X6970182Y-10228079D01*
X6970182Y-10228079D02*
X6970182Y-10275698D01*
X6970182Y-10275698D02*
X6979706Y-10294746D01*
X6979706Y-10294746D02*
X6989229Y-10304270D01*
X6989229Y-10304270D02*
X7008277Y-10313793D01*
X7008277Y-10313793D02*
X7046372Y-10313793D01*
X7046372Y-10313793D02*
X7065420Y-10304270D01*
X7065420Y-10304270D02*
X7074944Y-10294746D01*
X7074944Y-10294746D02*
X7084467Y-10275698D01*
X7151134Y-10189984D02*
X7284467Y-10189984D01*
X7284467Y-10189984D02*
X7198753Y-10389984D01*
X7351134Y-10189984D02*
X7351134Y-10228079D01*
X7427325Y-10189984D02*
X7427325Y-10228079D01*
X7722563Y-10466174D02*
X7713039Y-10456650D01*
X7713039Y-10456650D02*
X7693991Y-10428079D01*
X7693991Y-10428079D02*
X7684468Y-10409031D01*
X7684468Y-10409031D02*
X7674944Y-10380460D01*
X7674944Y-10380460D02*
X7665420Y-10332841D01*
X7665420Y-10332841D02*
X7665420Y-10294746D01*
X7665420Y-10294746D02*
X7674944Y-10247127D01*
X7674944Y-10247127D02*
X7684468Y-10218555D01*
X7684468Y-10218555D02*
X7693991Y-10199508D01*
X7693991Y-10199508D02*
X7713039Y-10170936D01*
X7713039Y-10170936D02*
X7722563Y-10161412D01*
X7779706Y-10189984D02*
X7903515Y-10189984D01*
X7903515Y-10189984D02*
X7836848Y-10266174D01*
X7836848Y-10266174D02*
X7865420Y-10266174D01*
X7865420Y-10266174D02*
X7884468Y-10275698D01*
X7884468Y-10275698D02*
X7893991Y-10285222D01*
X7893991Y-10285222D02*
X7903515Y-10304270D01*
X7903515Y-10304270D02*
X7903515Y-10351889D01*
X7903515Y-10351889D02*
X7893991Y-10370936D01*
X7893991Y-10370936D02*
X7884468Y-10380460D01*
X7884468Y-10380460D02*
X7865420Y-10389984D01*
X7865420Y-10389984D02*
X7808277Y-10389984D01*
X7808277Y-10389984D02*
X7789229Y-10380460D01*
X7789229Y-10380460D02*
X7779706Y-10370936D01*
X8141610Y-10389984D02*
X8141610Y-10189984D01*
X8227325Y-10389984D02*
X8227325Y-10285222D01*
X8227325Y-10285222D02*
X8217801Y-10266174D01*
X8217801Y-10266174D02*
X8198753Y-10256650D01*
X8198753Y-10256650D02*
X8170182Y-10256650D01*
X8170182Y-10256650D02*
X8151134Y-10266174D01*
X8151134Y-10266174D02*
X8141610Y-10275698D01*
X8351134Y-10389984D02*
X8332087Y-10380460D01*
X8332087Y-10380460D02*
X8322563Y-10370936D01*
X8322563Y-10370936D02*
X8313039Y-10351889D01*
X8313039Y-10351889D02*
X8313039Y-10294746D01*
X8313039Y-10294746D02*
X8322563Y-10275698D01*
X8322563Y-10275698D02*
X8332087Y-10266174D01*
X8332087Y-10266174D02*
X8351134Y-10256650D01*
X8351134Y-10256650D02*
X8379706Y-10256650D01*
X8379706Y-10256650D02*
X8398753Y-10266174D01*
X8398753Y-10266174D02*
X8408277Y-10275698D01*
X8408277Y-10275698D02*
X8417801Y-10294746D01*
X8417801Y-10294746D02*
X8417801Y-10351889D01*
X8417801Y-10351889D02*
X8408277Y-10370936D01*
X8408277Y-10370936D02*
X8398753Y-10380460D01*
X8398753Y-10380460D02*
X8379706Y-10389984D01*
X8379706Y-10389984D02*
X8351134Y-10389984D01*
X8532087Y-10389984D02*
X8513039Y-10380460D01*
X8513039Y-10380460D02*
X8503515Y-10361412D01*
X8503515Y-10361412D02*
X8503515Y-10189984D01*
X8684468Y-10380460D02*
X8665420Y-10389984D01*
X8665420Y-10389984D02*
X8627325Y-10389984D01*
X8627325Y-10389984D02*
X8608277Y-10380460D01*
X8608277Y-10380460D02*
X8598753Y-10361412D01*
X8598753Y-10361412D02*
X8598753Y-10285222D01*
X8598753Y-10285222D02*
X8608277Y-10266174D01*
X8608277Y-10266174D02*
X8627325Y-10256650D01*
X8627325Y-10256650D02*
X8665420Y-10256650D01*
X8665420Y-10256650D02*
X8684468Y-10266174D01*
X8684468Y-10266174D02*
X8693992Y-10285222D01*
X8693992Y-10285222D02*
X8693992Y-10304270D01*
X8693992Y-10304270D02*
X8598753Y-10323317D01*
X8770182Y-10380460D02*
X8789230Y-10389984D01*
X8789230Y-10389984D02*
X8827325Y-10389984D01*
X8827325Y-10389984D02*
X8846373Y-10380460D01*
X8846373Y-10380460D02*
X8855896Y-10361412D01*
X8855896Y-10361412D02*
X8855896Y-10351889D01*
X8855896Y-10351889D02*
X8846373Y-10332841D01*
X8846373Y-10332841D02*
X8827325Y-10323317D01*
X8827325Y-10323317D02*
X8798753Y-10323317D01*
X8798753Y-10323317D02*
X8779706Y-10313793D01*
X8779706Y-10313793D02*
X8770182Y-10294746D01*
X8770182Y-10294746D02*
X8770182Y-10285222D01*
X8770182Y-10285222D02*
X8779706Y-10266174D01*
X8779706Y-10266174D02*
X8798753Y-10256650D01*
X8798753Y-10256650D02*
X8827325Y-10256650D01*
X8827325Y-10256650D02*
X8846373Y-10266174D01*
X8922563Y-10466174D02*
X8932087Y-10456650D01*
X8932087Y-10456650D02*
X8951134Y-10428079D01*
X8951134Y-10428079D02*
X8960658Y-10409031D01*
X8960658Y-10409031D02*
X8970182Y-10380460D01*
X8970182Y-10380460D02*
X8979706Y-10332841D01*
X8979706Y-10332841D02*
X8979706Y-10294746D01*
X8979706Y-10294746D02*
X8970182Y-10247127D01*
X8970182Y-10247127D02*
X8960658Y-10218555D01*
X8960658Y-10218555D02*
X8951134Y-10199508D01*
X8951134Y-10199508D02*
X8932087Y-10170936D01*
X8932087Y-10170936D02*
X8922563Y-10161412D01*
D13*
X4087500Y-10532500D02*
X4147500Y-10592500D01*
X4147500Y-10532500D02*
X4087500Y-10592500D01*
X4147500Y-10562500D02*
G75*
G02*
X4087500Y-10562500I-30000J0D01*
G01*
X4087500Y-10562500D02*
G75*
G02*
X4147500Y-10562500I30000J0D01*
G01*
D12*
X4446372Y-10453984D02*
X4465420Y-10453984D01*
X4465420Y-10453984D02*
X4484467Y-10463508D01*
X4484467Y-10463508D02*
X4493991Y-10473031D01*
X4493991Y-10473031D02*
X4503515Y-10492079D01*
X4503515Y-10492079D02*
X4513039Y-10530174D01*
X4513039Y-10530174D02*
X4513039Y-10577793D01*
X4513039Y-10577793D02*
X4503515Y-10615889D01*
X4503515Y-10615889D02*
X4493991Y-10634936D01*
X4493991Y-10634936D02*
X4484467Y-10644460D01*
X4484467Y-10644460D02*
X4465420Y-10653984D01*
X4465420Y-10653984D02*
X4446372Y-10653984D01*
X4446372Y-10653984D02*
X4427324Y-10644460D01*
X4427324Y-10644460D02*
X4417801Y-10634936D01*
X4417801Y-10634936D02*
X4408277Y-10615889D01*
X4408277Y-10615889D02*
X4398753Y-10577793D01*
X4398753Y-10577793D02*
X4398753Y-10530174D01*
X4398753Y-10530174D02*
X4408277Y-10492079D01*
X4408277Y-10492079D02*
X4417801Y-10473031D01*
X4417801Y-10473031D02*
X4427324Y-10463508D01*
X4427324Y-10463508D02*
X4446372Y-10453984D01*
X4598753Y-10634936D02*
X4608277Y-10644460D01*
X4608277Y-10644460D02*
X4598753Y-10653984D01*
X4598753Y-10653984D02*
X4589229Y-10644460D01*
X4589229Y-10644460D02*
X4598753Y-10634936D01*
X4598753Y-10634936D02*
X4598753Y-10653984D01*
X4779705Y-10453984D02*
X4741610Y-10453984D01*
X4741610Y-10453984D02*
X4722563Y-10463508D01*
X4722563Y-10463508D02*
X4713039Y-10473031D01*
X4713039Y-10473031D02*
X4693991Y-10501603D01*
X4693991Y-10501603D02*
X4684467Y-10539698D01*
X4684467Y-10539698D02*
X4684467Y-10615889D01*
X4684467Y-10615889D02*
X4693991Y-10634936D01*
X4693991Y-10634936D02*
X4703515Y-10644460D01*
X4703515Y-10644460D02*
X4722563Y-10653984D01*
X4722563Y-10653984D02*
X4760658Y-10653984D01*
X4760658Y-10653984D02*
X4779705Y-10644460D01*
X4779705Y-10644460D02*
X4789229Y-10634936D01*
X4789229Y-10634936D02*
X4798753Y-10615889D01*
X4798753Y-10615889D02*
X4798753Y-10568270D01*
X4798753Y-10568270D02*
X4789229Y-10549222D01*
X4789229Y-10549222D02*
X4779705Y-10539698D01*
X4779705Y-10539698D02*
X4760658Y-10530174D01*
X4760658Y-10530174D02*
X4722563Y-10530174D01*
X4722563Y-10530174D02*
X4703515Y-10539698D01*
X4703515Y-10539698D02*
X4693991Y-10549222D01*
X4693991Y-10549222D02*
X4684467Y-10568270D01*
X4922563Y-10453984D02*
X4941610Y-10453984D01*
X4941610Y-10453984D02*
X4960658Y-10463508D01*
X4960658Y-10463508D02*
X4970182Y-10473031D01*
X4970182Y-10473031D02*
X4979705Y-10492079D01*
X4979705Y-10492079D02*
X4989229Y-10530174D01*
X4989229Y-10530174D02*
X4989229Y-10577793D01*
X4989229Y-10577793D02*
X4979705Y-10615889D01*
X4979705Y-10615889D02*
X4970182Y-10634936D01*
X4970182Y-10634936D02*
X4960658Y-10644460D01*
X4960658Y-10644460D02*
X4941610Y-10653984D01*
X4941610Y-10653984D02*
X4922563Y-10653984D01*
X4922563Y-10653984D02*
X4903515Y-10644460D01*
X4903515Y-10644460D02*
X4893991Y-10634936D01*
X4893991Y-10634936D02*
X4884467Y-10615889D01*
X4884467Y-10615889D02*
X4874944Y-10577793D01*
X4874944Y-10577793D02*
X4874944Y-10530174D01*
X4874944Y-10530174D02*
X4884467Y-10492079D01*
X4884467Y-10492079D02*
X4893991Y-10473031D01*
X4893991Y-10473031D02*
X4903515Y-10463508D01*
X4903515Y-10463508D02*
X4922563Y-10453984D01*
X5113039Y-10453984D02*
X5132086Y-10453984D01*
X5132086Y-10453984D02*
X5151134Y-10463508D01*
X5151134Y-10463508D02*
X5160658Y-10473031D01*
X5160658Y-10473031D02*
X5170182Y-10492079D01*
X5170182Y-10492079D02*
X5179705Y-10530174D01*
X5179705Y-10530174D02*
X5179705Y-10577793D01*
X5179705Y-10577793D02*
X5170182Y-10615889D01*
X5170182Y-10615889D02*
X5160658Y-10634936D01*
X5160658Y-10634936D02*
X5151134Y-10644460D01*
X5151134Y-10644460D02*
X5132086Y-10653984D01*
X5132086Y-10653984D02*
X5113039Y-10653984D01*
X5113039Y-10653984D02*
X5093991Y-10644460D01*
X5093991Y-10644460D02*
X5084467Y-10634936D01*
X5084467Y-10634936D02*
X5074944Y-10615889D01*
X5074944Y-10615889D02*
X5065420Y-10577793D01*
X5065420Y-10577793D02*
X5065420Y-10530174D01*
X5065420Y-10530174D02*
X5074944Y-10492079D01*
X5074944Y-10492079D02*
X5084467Y-10473031D01*
X5084467Y-10473031D02*
X5093991Y-10463508D01*
X5093991Y-10463508D02*
X5113039Y-10453984D01*
X5265420Y-10653984D02*
X5265420Y-10520650D01*
X5265420Y-10539698D02*
X5274944Y-10530174D01*
X5274944Y-10530174D02*
X5293991Y-10520650D01*
X5293991Y-10520650D02*
X5322563Y-10520650D01*
X5322563Y-10520650D02*
X5341610Y-10530174D01*
X5341610Y-10530174D02*
X5351134Y-10549222D01*
X5351134Y-10549222D02*
X5351134Y-10653984D01*
X5351134Y-10549222D02*
X5360658Y-10530174D01*
X5360658Y-10530174D02*
X5379705Y-10520650D01*
X5379705Y-10520650D02*
X5408277Y-10520650D01*
X5408277Y-10520650D02*
X5427325Y-10530174D01*
X5427325Y-10530174D02*
X5436848Y-10549222D01*
X5436848Y-10549222D02*
X5436848Y-10653984D01*
X5532086Y-10653984D02*
X5532086Y-10520650D01*
X5532086Y-10539698D02*
X5541610Y-10530174D01*
X5541610Y-10530174D02*
X5560658Y-10520650D01*
X5560658Y-10520650D02*
X5589229Y-10520650D01*
X5589229Y-10520650D02*
X5608277Y-10530174D01*
X5608277Y-10530174D02*
X5617801Y-10549222D01*
X5617801Y-10549222D02*
X5617801Y-10653984D01*
X5617801Y-10549222D02*
X5627324Y-10530174D01*
X5627324Y-10530174D02*
X5646372Y-10520650D01*
X5646372Y-10520650D02*
X5674943Y-10520650D01*
X5674943Y-10520650D02*
X5693991Y-10530174D01*
X5693991Y-10530174D02*
X5703515Y-10549222D01*
X5703515Y-10549222D02*
X5703515Y-10653984D01*
X6093991Y-10444460D02*
X5922563Y-10701603D01*
X6351134Y-10453984D02*
X6370182Y-10453984D01*
X6370182Y-10453984D02*
X6389229Y-10463508D01*
X6389229Y-10463508D02*
X6398753Y-10473031D01*
X6398753Y-10473031D02*
X6408277Y-10492079D01*
X6408277Y-10492079D02*
X6417801Y-10530174D01*
X6417801Y-10530174D02*
X6417801Y-10577793D01*
X6417801Y-10577793D02*
X6408277Y-10615889D01*
X6408277Y-10615889D02*
X6398753Y-10634936D01*
X6398753Y-10634936D02*
X6389229Y-10644460D01*
X6389229Y-10644460D02*
X6370182Y-10653984D01*
X6370182Y-10653984D02*
X6351134Y-10653984D01*
X6351134Y-10653984D02*
X6332086Y-10644460D01*
X6332086Y-10644460D02*
X6322563Y-10634936D01*
X6322563Y-10634936D02*
X6313039Y-10615889D01*
X6313039Y-10615889D02*
X6303515Y-10577793D01*
X6303515Y-10577793D02*
X6303515Y-10530174D01*
X6303515Y-10530174D02*
X6313039Y-10492079D01*
X6313039Y-10492079D02*
X6322563Y-10473031D01*
X6322563Y-10473031D02*
X6332086Y-10463508D01*
X6332086Y-10463508D02*
X6351134Y-10453984D01*
X6503515Y-10634936D02*
X6513039Y-10644460D01*
X6513039Y-10644460D02*
X6503515Y-10653984D01*
X6503515Y-10653984D02*
X6493991Y-10644460D01*
X6493991Y-10644460D02*
X6503515Y-10634936D01*
X6503515Y-10634936D02*
X6503515Y-10653984D01*
X6636848Y-10453984D02*
X6655896Y-10453984D01*
X6655896Y-10453984D02*
X6674944Y-10463508D01*
X6674944Y-10463508D02*
X6684467Y-10473031D01*
X6684467Y-10473031D02*
X6693991Y-10492079D01*
X6693991Y-10492079D02*
X6703515Y-10530174D01*
X6703515Y-10530174D02*
X6703515Y-10577793D01*
X6703515Y-10577793D02*
X6693991Y-10615889D01*
X6693991Y-10615889D02*
X6684467Y-10634936D01*
X6684467Y-10634936D02*
X6674944Y-10644460D01*
X6674944Y-10644460D02*
X6655896Y-10653984D01*
X6655896Y-10653984D02*
X6636848Y-10653984D01*
X6636848Y-10653984D02*
X6617801Y-10644460D01*
X6617801Y-10644460D02*
X6608277Y-10634936D01*
X6608277Y-10634936D02*
X6598753Y-10615889D01*
X6598753Y-10615889D02*
X6589229Y-10577793D01*
X6589229Y-10577793D02*
X6589229Y-10530174D01*
X6589229Y-10530174D02*
X6598753Y-10492079D01*
X6598753Y-10492079D02*
X6608277Y-10473031D01*
X6608277Y-10473031D02*
X6617801Y-10463508D01*
X6617801Y-10463508D02*
X6636848Y-10453984D01*
X6779706Y-10473031D02*
X6789229Y-10463508D01*
X6789229Y-10463508D02*
X6808277Y-10453984D01*
X6808277Y-10453984D02*
X6855896Y-10453984D01*
X6855896Y-10453984D02*
X6874944Y-10463508D01*
X6874944Y-10463508D02*
X6884467Y-10473031D01*
X6884467Y-10473031D02*
X6893991Y-10492079D01*
X6893991Y-10492079D02*
X6893991Y-10511127D01*
X6893991Y-10511127D02*
X6884467Y-10539698D01*
X6884467Y-10539698D02*
X6770182Y-10653984D01*
X6770182Y-10653984D02*
X6893991Y-10653984D01*
X6960658Y-10453984D02*
X7084467Y-10453984D01*
X7084467Y-10453984D02*
X7017801Y-10530174D01*
X7017801Y-10530174D02*
X7046372Y-10530174D01*
X7046372Y-10530174D02*
X7065420Y-10539698D01*
X7065420Y-10539698D02*
X7074944Y-10549222D01*
X7074944Y-10549222D02*
X7084467Y-10568270D01*
X7084467Y-10568270D02*
X7084467Y-10615889D01*
X7084467Y-10615889D02*
X7074944Y-10634936D01*
X7074944Y-10634936D02*
X7065420Y-10644460D01*
X7065420Y-10644460D02*
X7046372Y-10653984D01*
X7046372Y-10653984D02*
X6989229Y-10653984D01*
X6989229Y-10653984D02*
X6970182Y-10644460D01*
X6970182Y-10644460D02*
X6960658Y-10634936D01*
X7255896Y-10453984D02*
X7217801Y-10453984D01*
X7217801Y-10453984D02*
X7198753Y-10463508D01*
X7198753Y-10463508D02*
X7189229Y-10473031D01*
X7189229Y-10473031D02*
X7170182Y-10501603D01*
X7170182Y-10501603D02*
X7160658Y-10539698D01*
X7160658Y-10539698D02*
X7160658Y-10615889D01*
X7160658Y-10615889D02*
X7170182Y-10634936D01*
X7170182Y-10634936D02*
X7179706Y-10644460D01*
X7179706Y-10644460D02*
X7198753Y-10653984D01*
X7198753Y-10653984D02*
X7236848Y-10653984D01*
X7236848Y-10653984D02*
X7255896Y-10644460D01*
X7255896Y-10644460D02*
X7265420Y-10634936D01*
X7265420Y-10634936D02*
X7274944Y-10615889D01*
X7274944Y-10615889D02*
X7274944Y-10568270D01*
X7274944Y-10568270D02*
X7265420Y-10549222D01*
X7265420Y-10549222D02*
X7255896Y-10539698D01*
X7255896Y-10539698D02*
X7236848Y-10530174D01*
X7236848Y-10530174D02*
X7198753Y-10530174D01*
X7198753Y-10530174D02*
X7179706Y-10539698D01*
X7179706Y-10539698D02*
X7170182Y-10549222D01*
X7170182Y-10549222D02*
X7160658Y-10568270D01*
X7351134Y-10453984D02*
X7351134Y-10492079D01*
X7427325Y-10453984D02*
X7427325Y-10492079D01*
X7722563Y-10730174D02*
X7713039Y-10720650D01*
X7713039Y-10720650D02*
X7693991Y-10692079D01*
X7693991Y-10692079D02*
X7684468Y-10673031D01*
X7684468Y-10673031D02*
X7674944Y-10644460D01*
X7674944Y-10644460D02*
X7665420Y-10596841D01*
X7665420Y-10596841D02*
X7665420Y-10558746D01*
X7665420Y-10558746D02*
X7674944Y-10511127D01*
X7674944Y-10511127D02*
X7684468Y-10482555D01*
X7684468Y-10482555D02*
X7693991Y-10463508D01*
X7693991Y-10463508D02*
X7713039Y-10434936D01*
X7713039Y-10434936D02*
X7722563Y-10425412D01*
X7884468Y-10453984D02*
X7846372Y-10453984D01*
X7846372Y-10453984D02*
X7827325Y-10463508D01*
X7827325Y-10463508D02*
X7817801Y-10473031D01*
X7817801Y-10473031D02*
X7798753Y-10501603D01*
X7798753Y-10501603D02*
X7789229Y-10539698D01*
X7789229Y-10539698D02*
X7789229Y-10615889D01*
X7789229Y-10615889D02*
X7798753Y-10634936D01*
X7798753Y-10634936D02*
X7808277Y-10644460D01*
X7808277Y-10644460D02*
X7827325Y-10653984D01*
X7827325Y-10653984D02*
X7865420Y-10653984D01*
X7865420Y-10653984D02*
X7884468Y-10644460D01*
X7884468Y-10644460D02*
X7893991Y-10634936D01*
X7893991Y-10634936D02*
X7903515Y-10615889D01*
X7903515Y-10615889D02*
X7903515Y-10568270D01*
X7903515Y-10568270D02*
X7893991Y-10549222D01*
X7893991Y-10549222D02*
X7884468Y-10539698D01*
X7884468Y-10539698D02*
X7865420Y-10530174D01*
X7865420Y-10530174D02*
X7827325Y-10530174D01*
X7827325Y-10530174D02*
X7808277Y-10539698D01*
X7808277Y-10539698D02*
X7798753Y-10549222D01*
X7798753Y-10549222D02*
X7789229Y-10568270D01*
X8141610Y-10653984D02*
X8141610Y-10453984D01*
X8227325Y-10653984D02*
X8227325Y-10549222D01*
X8227325Y-10549222D02*
X8217801Y-10530174D01*
X8217801Y-10530174D02*
X8198753Y-10520650D01*
X8198753Y-10520650D02*
X8170182Y-10520650D01*
X8170182Y-10520650D02*
X8151134Y-10530174D01*
X8151134Y-10530174D02*
X8141610Y-10539698D01*
X8351134Y-10653984D02*
X8332087Y-10644460D01*
X8332087Y-10644460D02*
X8322563Y-10634936D01*
X8322563Y-10634936D02*
X8313039Y-10615889D01*
X8313039Y-10615889D02*
X8313039Y-10558746D01*
X8313039Y-10558746D02*
X8322563Y-10539698D01*
X8322563Y-10539698D02*
X8332087Y-10530174D01*
X8332087Y-10530174D02*
X8351134Y-10520650D01*
X8351134Y-10520650D02*
X8379706Y-10520650D01*
X8379706Y-10520650D02*
X8398753Y-10530174D01*
X8398753Y-10530174D02*
X8408277Y-10539698D01*
X8408277Y-10539698D02*
X8417801Y-10558746D01*
X8417801Y-10558746D02*
X8417801Y-10615889D01*
X8417801Y-10615889D02*
X8408277Y-10634936D01*
X8408277Y-10634936D02*
X8398753Y-10644460D01*
X8398753Y-10644460D02*
X8379706Y-10653984D01*
X8379706Y-10653984D02*
X8351134Y-10653984D01*
X8532087Y-10653984D02*
X8513039Y-10644460D01*
X8513039Y-10644460D02*
X8503515Y-10625412D01*
X8503515Y-10625412D02*
X8503515Y-10453984D01*
X8684468Y-10644460D02*
X8665420Y-10653984D01*
X8665420Y-10653984D02*
X8627325Y-10653984D01*
X8627325Y-10653984D02*
X8608277Y-10644460D01*
X8608277Y-10644460D02*
X8598753Y-10625412D01*
X8598753Y-10625412D02*
X8598753Y-10549222D01*
X8598753Y-10549222D02*
X8608277Y-10530174D01*
X8608277Y-10530174D02*
X8627325Y-10520650D01*
X8627325Y-10520650D02*
X8665420Y-10520650D01*
X8665420Y-10520650D02*
X8684468Y-10530174D01*
X8684468Y-10530174D02*
X8693992Y-10549222D01*
X8693992Y-10549222D02*
X8693992Y-10568270D01*
X8693992Y-10568270D02*
X8598753Y-10587317D01*
X8770182Y-10644460D02*
X8789230Y-10653984D01*
X8789230Y-10653984D02*
X8827325Y-10653984D01*
X8827325Y-10653984D02*
X8846373Y-10644460D01*
X8846373Y-10644460D02*
X8855896Y-10625412D01*
X8855896Y-10625412D02*
X8855896Y-10615889D01*
X8855896Y-10615889D02*
X8846373Y-10596841D01*
X8846373Y-10596841D02*
X8827325Y-10587317D01*
X8827325Y-10587317D02*
X8798753Y-10587317D01*
X8798753Y-10587317D02*
X8779706Y-10577793D01*
X8779706Y-10577793D02*
X8770182Y-10558746D01*
X8770182Y-10558746D02*
X8770182Y-10549222D01*
X8770182Y-10549222D02*
X8779706Y-10530174D01*
X8779706Y-10530174D02*
X8798753Y-10520650D01*
X8798753Y-10520650D02*
X8827325Y-10520650D01*
X8827325Y-10520650D02*
X8846373Y-10530174D01*
X8922563Y-10730174D02*
X8932087Y-10720650D01*
X8932087Y-10720650D02*
X8951134Y-10692079D01*
X8951134Y-10692079D02*
X8960658Y-10673031D01*
X8960658Y-10673031D02*
X8970182Y-10644460D01*
X8970182Y-10644460D02*
X8979706Y-10596841D01*
X8979706Y-10596841D02*
X8979706Y-10558746D01*
X8979706Y-10558746D02*
X8970182Y-10511127D01*
X8970182Y-10511127D02*
X8960658Y-10482555D01*
X8960658Y-10482555D02*
X8951134Y-10463508D01*
X8951134Y-10463508D02*
X8932087Y-10434936D01*
X8932087Y-10434936D02*
X8922563Y-10425412D01*
D13*
X4067500Y-10786500D02*
X4147500Y-10866500D01*
X4147500Y-10786500D02*
X4067500Y-10866500D01*
X4107500Y-10786500D02*
X4107500Y-10866500D01*
X4067500Y-10826500D02*
X4147500Y-10826500D01*
D12*
X4446372Y-10717984D02*
X4465420Y-10717984D01*
X4465420Y-10717984D02*
X4484467Y-10727508D01*
X4484467Y-10727508D02*
X4493991Y-10737031D01*
X4493991Y-10737031D02*
X4503515Y-10756079D01*
X4503515Y-10756079D02*
X4513039Y-10794174D01*
X4513039Y-10794174D02*
X4513039Y-10841793D01*
X4513039Y-10841793D02*
X4503515Y-10879889D01*
X4503515Y-10879889D02*
X4493991Y-10898936D01*
X4493991Y-10898936D02*
X4484467Y-10908460D01*
X4484467Y-10908460D02*
X4465420Y-10917984D01*
X4465420Y-10917984D02*
X4446372Y-10917984D01*
X4446372Y-10917984D02*
X4427324Y-10908460D01*
X4427324Y-10908460D02*
X4417801Y-10898936D01*
X4417801Y-10898936D02*
X4408277Y-10879889D01*
X4408277Y-10879889D02*
X4398753Y-10841793D01*
X4398753Y-10841793D02*
X4398753Y-10794174D01*
X4398753Y-10794174D02*
X4408277Y-10756079D01*
X4408277Y-10756079D02*
X4417801Y-10737031D01*
X4417801Y-10737031D02*
X4427324Y-10727508D01*
X4427324Y-10727508D02*
X4446372Y-10717984D01*
X4598753Y-10898936D02*
X4608277Y-10908460D01*
X4608277Y-10908460D02*
X4598753Y-10917984D01*
X4598753Y-10917984D02*
X4589229Y-10908460D01*
X4589229Y-10908460D02*
X4598753Y-10898936D01*
X4598753Y-10898936D02*
X4598753Y-10917984D01*
X4722563Y-10803698D02*
X4703515Y-10794174D01*
X4703515Y-10794174D02*
X4693991Y-10784650D01*
X4693991Y-10784650D02*
X4684467Y-10765603D01*
X4684467Y-10765603D02*
X4684467Y-10756079D01*
X4684467Y-10756079D02*
X4693991Y-10737031D01*
X4693991Y-10737031D02*
X4703515Y-10727508D01*
X4703515Y-10727508D02*
X4722563Y-10717984D01*
X4722563Y-10717984D02*
X4760658Y-10717984D01*
X4760658Y-10717984D02*
X4779705Y-10727508D01*
X4779705Y-10727508D02*
X4789229Y-10737031D01*
X4789229Y-10737031D02*
X4798753Y-10756079D01*
X4798753Y-10756079D02*
X4798753Y-10765603D01*
X4798753Y-10765603D02*
X4789229Y-10784650D01*
X4789229Y-10784650D02*
X4779705Y-10794174D01*
X4779705Y-10794174D02*
X4760658Y-10803698D01*
X4760658Y-10803698D02*
X4722563Y-10803698D01*
X4722563Y-10803698D02*
X4703515Y-10813222D01*
X4703515Y-10813222D02*
X4693991Y-10822746D01*
X4693991Y-10822746D02*
X4684467Y-10841793D01*
X4684467Y-10841793D02*
X4684467Y-10879889D01*
X4684467Y-10879889D02*
X4693991Y-10898936D01*
X4693991Y-10898936D02*
X4703515Y-10908460D01*
X4703515Y-10908460D02*
X4722563Y-10917984D01*
X4722563Y-10917984D02*
X4760658Y-10917984D01*
X4760658Y-10917984D02*
X4779705Y-10908460D01*
X4779705Y-10908460D02*
X4789229Y-10898936D01*
X4789229Y-10898936D02*
X4798753Y-10879889D01*
X4798753Y-10879889D02*
X4798753Y-10841793D01*
X4798753Y-10841793D02*
X4789229Y-10822746D01*
X4789229Y-10822746D02*
X4779705Y-10813222D01*
X4779705Y-10813222D02*
X4760658Y-10803698D01*
X4922563Y-10717984D02*
X4941610Y-10717984D01*
X4941610Y-10717984D02*
X4960658Y-10727508D01*
X4960658Y-10727508D02*
X4970182Y-10737031D01*
X4970182Y-10737031D02*
X4979705Y-10756079D01*
X4979705Y-10756079D02*
X4989229Y-10794174D01*
X4989229Y-10794174D02*
X4989229Y-10841793D01*
X4989229Y-10841793D02*
X4979705Y-10879889D01*
X4979705Y-10879889D02*
X4970182Y-10898936D01*
X4970182Y-10898936D02*
X4960658Y-10908460D01*
X4960658Y-10908460D02*
X4941610Y-10917984D01*
X4941610Y-10917984D02*
X4922563Y-10917984D01*
X4922563Y-10917984D02*
X4903515Y-10908460D01*
X4903515Y-10908460D02*
X4893991Y-10898936D01*
X4893991Y-10898936D02*
X4884467Y-10879889D01*
X4884467Y-10879889D02*
X4874944Y-10841793D01*
X4874944Y-10841793D02*
X4874944Y-10794174D01*
X4874944Y-10794174D02*
X4884467Y-10756079D01*
X4884467Y-10756079D02*
X4893991Y-10737031D01*
X4893991Y-10737031D02*
X4903515Y-10727508D01*
X4903515Y-10727508D02*
X4922563Y-10717984D01*
X5113039Y-10717984D02*
X5132086Y-10717984D01*
X5132086Y-10717984D02*
X5151134Y-10727508D01*
X5151134Y-10727508D02*
X5160658Y-10737031D01*
X5160658Y-10737031D02*
X5170182Y-10756079D01*
X5170182Y-10756079D02*
X5179705Y-10794174D01*
X5179705Y-10794174D02*
X5179705Y-10841793D01*
X5179705Y-10841793D02*
X5170182Y-10879889D01*
X5170182Y-10879889D02*
X5160658Y-10898936D01*
X5160658Y-10898936D02*
X5151134Y-10908460D01*
X5151134Y-10908460D02*
X5132086Y-10917984D01*
X5132086Y-10917984D02*
X5113039Y-10917984D01*
X5113039Y-10917984D02*
X5093991Y-10908460D01*
X5093991Y-10908460D02*
X5084467Y-10898936D01*
X5084467Y-10898936D02*
X5074944Y-10879889D01*
X5074944Y-10879889D02*
X5065420Y-10841793D01*
X5065420Y-10841793D02*
X5065420Y-10794174D01*
X5065420Y-10794174D02*
X5074944Y-10756079D01*
X5074944Y-10756079D02*
X5084467Y-10737031D01*
X5084467Y-10737031D02*
X5093991Y-10727508D01*
X5093991Y-10727508D02*
X5113039Y-10717984D01*
X5265420Y-10917984D02*
X5265420Y-10784650D01*
X5265420Y-10803698D02*
X5274944Y-10794174D01*
X5274944Y-10794174D02*
X5293991Y-10784650D01*
X5293991Y-10784650D02*
X5322563Y-10784650D01*
X5322563Y-10784650D02*
X5341610Y-10794174D01*
X5341610Y-10794174D02*
X5351134Y-10813222D01*
X5351134Y-10813222D02*
X5351134Y-10917984D01*
X5351134Y-10813222D02*
X5360658Y-10794174D01*
X5360658Y-10794174D02*
X5379705Y-10784650D01*
X5379705Y-10784650D02*
X5408277Y-10784650D01*
X5408277Y-10784650D02*
X5427325Y-10794174D01*
X5427325Y-10794174D02*
X5436848Y-10813222D01*
X5436848Y-10813222D02*
X5436848Y-10917984D01*
X5532086Y-10917984D02*
X5532086Y-10784650D01*
X5532086Y-10803698D02*
X5541610Y-10794174D01*
X5541610Y-10794174D02*
X5560658Y-10784650D01*
X5560658Y-10784650D02*
X5589229Y-10784650D01*
X5589229Y-10784650D02*
X5608277Y-10794174D01*
X5608277Y-10794174D02*
X5617801Y-10813222D01*
X5617801Y-10813222D02*
X5617801Y-10917984D01*
X5617801Y-10813222D02*
X5627324Y-10794174D01*
X5627324Y-10794174D02*
X5646372Y-10784650D01*
X5646372Y-10784650D02*
X5674943Y-10784650D01*
X5674943Y-10784650D02*
X5693991Y-10794174D01*
X5693991Y-10794174D02*
X5703515Y-10813222D01*
X5703515Y-10813222D02*
X5703515Y-10917984D01*
X6093991Y-10708460D02*
X5922563Y-10965603D01*
X6351134Y-10717984D02*
X6370182Y-10717984D01*
X6370182Y-10717984D02*
X6389229Y-10727508D01*
X6389229Y-10727508D02*
X6398753Y-10737031D01*
X6398753Y-10737031D02*
X6408277Y-10756079D01*
X6408277Y-10756079D02*
X6417801Y-10794174D01*
X6417801Y-10794174D02*
X6417801Y-10841793D01*
X6417801Y-10841793D02*
X6408277Y-10879889D01*
X6408277Y-10879889D02*
X6398753Y-10898936D01*
X6398753Y-10898936D02*
X6389229Y-10908460D01*
X6389229Y-10908460D02*
X6370182Y-10917984D01*
X6370182Y-10917984D02*
X6351134Y-10917984D01*
X6351134Y-10917984D02*
X6332086Y-10908460D01*
X6332086Y-10908460D02*
X6322563Y-10898936D01*
X6322563Y-10898936D02*
X6313039Y-10879889D01*
X6313039Y-10879889D02*
X6303515Y-10841793D01*
X6303515Y-10841793D02*
X6303515Y-10794174D01*
X6303515Y-10794174D02*
X6313039Y-10756079D01*
X6313039Y-10756079D02*
X6322563Y-10737031D01*
X6322563Y-10737031D02*
X6332086Y-10727508D01*
X6332086Y-10727508D02*
X6351134Y-10717984D01*
X6503515Y-10898936D02*
X6513039Y-10908460D01*
X6513039Y-10908460D02*
X6503515Y-10917984D01*
X6503515Y-10917984D02*
X6493991Y-10908460D01*
X6493991Y-10908460D02*
X6503515Y-10898936D01*
X6503515Y-10898936D02*
X6503515Y-10917984D01*
X6636848Y-10717984D02*
X6655896Y-10717984D01*
X6655896Y-10717984D02*
X6674944Y-10727508D01*
X6674944Y-10727508D02*
X6684467Y-10737031D01*
X6684467Y-10737031D02*
X6693991Y-10756079D01*
X6693991Y-10756079D02*
X6703515Y-10794174D01*
X6703515Y-10794174D02*
X6703515Y-10841793D01*
X6703515Y-10841793D02*
X6693991Y-10879889D01*
X6693991Y-10879889D02*
X6684467Y-10898936D01*
X6684467Y-10898936D02*
X6674944Y-10908460D01*
X6674944Y-10908460D02*
X6655896Y-10917984D01*
X6655896Y-10917984D02*
X6636848Y-10917984D01*
X6636848Y-10917984D02*
X6617801Y-10908460D01*
X6617801Y-10908460D02*
X6608277Y-10898936D01*
X6608277Y-10898936D02*
X6598753Y-10879889D01*
X6598753Y-10879889D02*
X6589229Y-10841793D01*
X6589229Y-10841793D02*
X6589229Y-10794174D01*
X6589229Y-10794174D02*
X6598753Y-10756079D01*
X6598753Y-10756079D02*
X6608277Y-10737031D01*
X6608277Y-10737031D02*
X6617801Y-10727508D01*
X6617801Y-10727508D02*
X6636848Y-10717984D01*
X6770182Y-10717984D02*
X6893991Y-10717984D01*
X6893991Y-10717984D02*
X6827325Y-10794174D01*
X6827325Y-10794174D02*
X6855896Y-10794174D01*
X6855896Y-10794174D02*
X6874944Y-10803698D01*
X6874944Y-10803698D02*
X6884467Y-10813222D01*
X6884467Y-10813222D02*
X6893991Y-10832270D01*
X6893991Y-10832270D02*
X6893991Y-10879889D01*
X6893991Y-10879889D02*
X6884467Y-10898936D01*
X6884467Y-10898936D02*
X6874944Y-10908460D01*
X6874944Y-10908460D02*
X6855896Y-10917984D01*
X6855896Y-10917984D02*
X6798753Y-10917984D01*
X6798753Y-10917984D02*
X6779706Y-10908460D01*
X6779706Y-10908460D02*
X6770182Y-10898936D01*
X7084467Y-10917984D02*
X6970182Y-10917984D01*
X7027325Y-10917984D02*
X7027325Y-10717984D01*
X7027325Y-10717984D02*
X7008277Y-10746555D01*
X7008277Y-10746555D02*
X6989229Y-10765603D01*
X6989229Y-10765603D02*
X6970182Y-10775127D01*
X7265420Y-10717984D02*
X7170182Y-10717984D01*
X7170182Y-10717984D02*
X7160658Y-10813222D01*
X7160658Y-10813222D02*
X7170182Y-10803698D01*
X7170182Y-10803698D02*
X7189229Y-10794174D01*
X7189229Y-10794174D02*
X7236848Y-10794174D01*
X7236848Y-10794174D02*
X7255896Y-10803698D01*
X7255896Y-10803698D02*
X7265420Y-10813222D01*
X7265420Y-10813222D02*
X7274944Y-10832270D01*
X7274944Y-10832270D02*
X7274944Y-10879889D01*
X7274944Y-10879889D02*
X7265420Y-10898936D01*
X7265420Y-10898936D02*
X7255896Y-10908460D01*
X7255896Y-10908460D02*
X7236848Y-10917984D01*
X7236848Y-10917984D02*
X7189229Y-10917984D01*
X7189229Y-10917984D02*
X7170182Y-10908460D01*
X7170182Y-10908460D02*
X7160658Y-10898936D01*
X7351134Y-10717984D02*
X7351134Y-10756079D01*
X7427325Y-10717984D02*
X7427325Y-10756079D01*
X7722563Y-10994174D02*
X7713039Y-10984650D01*
X7713039Y-10984650D02*
X7693991Y-10956079D01*
X7693991Y-10956079D02*
X7684468Y-10937031D01*
X7684468Y-10937031D02*
X7674944Y-10908460D01*
X7674944Y-10908460D02*
X7665420Y-10860841D01*
X7665420Y-10860841D02*
X7665420Y-10822746D01*
X7665420Y-10822746D02*
X7674944Y-10775127D01*
X7674944Y-10775127D02*
X7684468Y-10746555D01*
X7684468Y-10746555D02*
X7693991Y-10727508D01*
X7693991Y-10727508D02*
X7713039Y-10698936D01*
X7713039Y-10698936D02*
X7722563Y-10689412D01*
X7827325Y-10803698D02*
X7808277Y-10794174D01*
X7808277Y-10794174D02*
X7798753Y-10784650D01*
X7798753Y-10784650D02*
X7789229Y-10765603D01*
X7789229Y-10765603D02*
X7789229Y-10756079D01*
X7789229Y-10756079D02*
X7798753Y-10737031D01*
X7798753Y-10737031D02*
X7808277Y-10727508D01*
X7808277Y-10727508D02*
X7827325Y-10717984D01*
X7827325Y-10717984D02*
X7865420Y-10717984D01*
X7865420Y-10717984D02*
X7884468Y-10727508D01*
X7884468Y-10727508D02*
X7893991Y-10737031D01*
X7893991Y-10737031D02*
X7903515Y-10756079D01*
X7903515Y-10756079D02*
X7903515Y-10765603D01*
X7903515Y-10765603D02*
X7893991Y-10784650D01*
X7893991Y-10784650D02*
X7884468Y-10794174D01*
X7884468Y-10794174D02*
X7865420Y-10803698D01*
X7865420Y-10803698D02*
X7827325Y-10803698D01*
X7827325Y-10803698D02*
X7808277Y-10813222D01*
X7808277Y-10813222D02*
X7798753Y-10822746D01*
X7798753Y-10822746D02*
X7789229Y-10841793D01*
X7789229Y-10841793D02*
X7789229Y-10879889D01*
X7789229Y-10879889D02*
X7798753Y-10898936D01*
X7798753Y-10898936D02*
X7808277Y-10908460D01*
X7808277Y-10908460D02*
X7827325Y-10917984D01*
X7827325Y-10917984D02*
X7865420Y-10917984D01*
X7865420Y-10917984D02*
X7884468Y-10908460D01*
X7884468Y-10908460D02*
X7893991Y-10898936D01*
X7893991Y-10898936D02*
X7903515Y-10879889D01*
X7903515Y-10879889D02*
X7903515Y-10841793D01*
X7903515Y-10841793D02*
X7893991Y-10822746D01*
X7893991Y-10822746D02*
X7884468Y-10813222D01*
X7884468Y-10813222D02*
X7865420Y-10803698D01*
X8141610Y-10917984D02*
X8141610Y-10717984D01*
X8227325Y-10917984D02*
X8227325Y-10813222D01*
X8227325Y-10813222D02*
X8217801Y-10794174D01*
X8217801Y-10794174D02*
X8198753Y-10784650D01*
X8198753Y-10784650D02*
X8170182Y-10784650D01*
X8170182Y-10784650D02*
X8151134Y-10794174D01*
X8151134Y-10794174D02*
X8141610Y-10803698D01*
X8351134Y-10917984D02*
X8332087Y-10908460D01*
X8332087Y-10908460D02*
X8322563Y-10898936D01*
X8322563Y-10898936D02*
X8313039Y-10879889D01*
X8313039Y-10879889D02*
X8313039Y-10822746D01*
X8313039Y-10822746D02*
X8322563Y-10803698D01*
X8322563Y-10803698D02*
X8332087Y-10794174D01*
X8332087Y-10794174D02*
X8351134Y-10784650D01*
X8351134Y-10784650D02*
X8379706Y-10784650D01*
X8379706Y-10784650D02*
X8398753Y-10794174D01*
X8398753Y-10794174D02*
X8408277Y-10803698D01*
X8408277Y-10803698D02*
X8417801Y-10822746D01*
X8417801Y-10822746D02*
X8417801Y-10879889D01*
X8417801Y-10879889D02*
X8408277Y-10898936D01*
X8408277Y-10898936D02*
X8398753Y-10908460D01*
X8398753Y-10908460D02*
X8379706Y-10917984D01*
X8379706Y-10917984D02*
X8351134Y-10917984D01*
X8532087Y-10917984D02*
X8513039Y-10908460D01*
X8513039Y-10908460D02*
X8503515Y-10889412D01*
X8503515Y-10889412D02*
X8503515Y-10717984D01*
X8684468Y-10908460D02*
X8665420Y-10917984D01*
X8665420Y-10917984D02*
X8627325Y-10917984D01*
X8627325Y-10917984D02*
X8608277Y-10908460D01*
X8608277Y-10908460D02*
X8598753Y-10889412D01*
X8598753Y-10889412D02*
X8598753Y-10813222D01*
X8598753Y-10813222D02*
X8608277Y-10794174D01*
X8608277Y-10794174D02*
X8627325Y-10784650D01*
X8627325Y-10784650D02*
X8665420Y-10784650D01*
X8665420Y-10784650D02*
X8684468Y-10794174D01*
X8684468Y-10794174D02*
X8693992Y-10813222D01*
X8693992Y-10813222D02*
X8693992Y-10832270D01*
X8693992Y-10832270D02*
X8598753Y-10851317D01*
X8770182Y-10908460D02*
X8789230Y-10917984D01*
X8789230Y-10917984D02*
X8827325Y-10917984D01*
X8827325Y-10917984D02*
X8846373Y-10908460D01*
X8846373Y-10908460D02*
X8855896Y-10889412D01*
X8855896Y-10889412D02*
X8855896Y-10879889D01*
X8855896Y-10879889D02*
X8846373Y-10860841D01*
X8846373Y-10860841D02*
X8827325Y-10851317D01*
X8827325Y-10851317D02*
X8798753Y-10851317D01*
X8798753Y-10851317D02*
X8779706Y-10841793D01*
X8779706Y-10841793D02*
X8770182Y-10822746D01*
X8770182Y-10822746D02*
X8770182Y-10813222D01*
X8770182Y-10813222D02*
X8779706Y-10794174D01*
X8779706Y-10794174D02*
X8798753Y-10784650D01*
X8798753Y-10784650D02*
X8827325Y-10784650D01*
X8827325Y-10784650D02*
X8846373Y-10794174D01*
X8922563Y-10994174D02*
X8932087Y-10984650D01*
X8932087Y-10984650D02*
X8951134Y-10956079D01*
X8951134Y-10956079D02*
X8960658Y-10937031D01*
X8960658Y-10937031D02*
X8970182Y-10908460D01*
X8970182Y-10908460D02*
X8979706Y-10860841D01*
X8979706Y-10860841D02*
X8979706Y-10822746D01*
X8979706Y-10822746D02*
X8970182Y-10775127D01*
X8970182Y-10775127D02*
X8960658Y-10746555D01*
X8960658Y-10746555D02*
X8951134Y-10727508D01*
X8951134Y-10727508D02*
X8932087Y-10698936D01*
X8932087Y-10698936D02*
X8922563Y-10689412D01*
D14*
X4038280Y-11035890D02*
X4147500Y-11145110D01*
X4147500Y-11035890D02*
X4038280Y-11145110D01*
X4131505Y-11129116D02*
X4131505Y-11051885D01*
X4054274Y-11051885D01*
X4054274Y-11129116D01*
X4131505Y-11129116D01*
D12*
X4513039Y-11181984D02*
X4398753Y-11181984D01*
X4455896Y-11181984D02*
X4455896Y-10981984D01*
X4455896Y-10981984D02*
X4436848Y-11010555D01*
X4436848Y-11010555D02*
X4417801Y-11029603D01*
X4417801Y-11029603D02*
X4398753Y-11039127D01*
X4598753Y-11162936D02*
X4608277Y-11172460D01*
X4608277Y-11172460D02*
X4598753Y-11181984D01*
X4598753Y-11181984D02*
X4589229Y-11172460D01*
X4589229Y-11172460D02*
X4598753Y-11162936D01*
X4598753Y-11162936D02*
X4598753Y-11181984D01*
X4732086Y-10981984D02*
X4751134Y-10981984D01*
X4751134Y-10981984D02*
X4770182Y-10991508D01*
X4770182Y-10991508D02*
X4779705Y-11001031D01*
X4779705Y-11001031D02*
X4789229Y-11020079D01*
X4789229Y-11020079D02*
X4798753Y-11058174D01*
X4798753Y-11058174D02*
X4798753Y-11105793D01*
X4798753Y-11105793D02*
X4789229Y-11143889D01*
X4789229Y-11143889D02*
X4779705Y-11162936D01*
X4779705Y-11162936D02*
X4770182Y-11172460D01*
X4770182Y-11172460D02*
X4751134Y-11181984D01*
X4751134Y-11181984D02*
X4732086Y-11181984D01*
X4732086Y-11181984D02*
X4713039Y-11172460D01*
X4713039Y-11172460D02*
X4703515Y-11162936D01*
X4703515Y-11162936D02*
X4693991Y-11143889D01*
X4693991Y-11143889D02*
X4684467Y-11105793D01*
X4684467Y-11105793D02*
X4684467Y-11058174D01*
X4684467Y-11058174D02*
X4693991Y-11020079D01*
X4693991Y-11020079D02*
X4703515Y-11001031D01*
X4703515Y-11001031D02*
X4713039Y-10991508D01*
X4713039Y-10991508D02*
X4732086Y-10981984D01*
X4893991Y-11181984D02*
X4932086Y-11181984D01*
X4932086Y-11181984D02*
X4951134Y-11172460D01*
X4951134Y-11172460D02*
X4960658Y-11162936D01*
X4960658Y-11162936D02*
X4979705Y-11134365D01*
X4979705Y-11134365D02*
X4989229Y-11096270D01*
X4989229Y-11096270D02*
X4989229Y-11020079D01*
X4989229Y-11020079D02*
X4979705Y-11001031D01*
X4979705Y-11001031D02*
X4970182Y-10991508D01*
X4970182Y-10991508D02*
X4951134Y-10981984D01*
X4951134Y-10981984D02*
X4913039Y-10981984D01*
X4913039Y-10981984D02*
X4893991Y-10991508D01*
X4893991Y-10991508D02*
X4884467Y-11001031D01*
X4884467Y-11001031D02*
X4874944Y-11020079D01*
X4874944Y-11020079D02*
X4874944Y-11067698D01*
X4874944Y-11067698D02*
X4884467Y-11086746D01*
X4884467Y-11086746D02*
X4893991Y-11096270D01*
X4893991Y-11096270D02*
X4913039Y-11105793D01*
X4913039Y-11105793D02*
X4951134Y-11105793D01*
X4951134Y-11105793D02*
X4970182Y-11096270D01*
X4970182Y-11096270D02*
X4979705Y-11086746D01*
X4979705Y-11086746D02*
X4989229Y-11067698D01*
X5065420Y-11001031D02*
X5074944Y-10991508D01*
X5074944Y-10991508D02*
X5093991Y-10981984D01*
X5093991Y-10981984D02*
X5141610Y-10981984D01*
X5141610Y-10981984D02*
X5160658Y-10991508D01*
X5160658Y-10991508D02*
X5170182Y-11001031D01*
X5170182Y-11001031D02*
X5179705Y-11020079D01*
X5179705Y-11020079D02*
X5179705Y-11039127D01*
X5179705Y-11039127D02*
X5170182Y-11067698D01*
X5170182Y-11067698D02*
X5055896Y-11181984D01*
X5055896Y-11181984D02*
X5179705Y-11181984D01*
X5265420Y-11181984D02*
X5265420Y-11048650D01*
X5265420Y-11067698D02*
X5274944Y-11058174D01*
X5274944Y-11058174D02*
X5293991Y-11048650D01*
X5293991Y-11048650D02*
X5322563Y-11048650D01*
X5322563Y-11048650D02*
X5341610Y-11058174D01*
X5341610Y-11058174D02*
X5351134Y-11077222D01*
X5351134Y-11077222D02*
X5351134Y-11181984D01*
X5351134Y-11077222D02*
X5360658Y-11058174D01*
X5360658Y-11058174D02*
X5379705Y-11048650D01*
X5379705Y-11048650D02*
X5408277Y-11048650D01*
X5408277Y-11048650D02*
X5427325Y-11058174D01*
X5427325Y-11058174D02*
X5436848Y-11077222D01*
X5436848Y-11077222D02*
X5436848Y-11181984D01*
X5532086Y-11181984D02*
X5532086Y-11048650D01*
X5532086Y-11067698D02*
X5541610Y-11058174D01*
X5541610Y-11058174D02*
X5560658Y-11048650D01*
X5560658Y-11048650D02*
X5589229Y-11048650D01*
X5589229Y-11048650D02*
X5608277Y-11058174D01*
X5608277Y-11058174D02*
X5617801Y-11077222D01*
X5617801Y-11077222D02*
X5617801Y-11181984D01*
X5617801Y-11077222D02*
X5627324Y-11058174D01*
X5627324Y-11058174D02*
X5646372Y-11048650D01*
X5646372Y-11048650D02*
X5674943Y-11048650D01*
X5674943Y-11048650D02*
X5693991Y-11058174D01*
X5693991Y-11058174D02*
X5703515Y-11077222D01*
X5703515Y-11077222D02*
X5703515Y-11181984D01*
X6093991Y-10972460D02*
X5922563Y-11229603D01*
X6351134Y-10981984D02*
X6370182Y-10981984D01*
X6370182Y-10981984D02*
X6389229Y-10991508D01*
X6389229Y-10991508D02*
X6398753Y-11001031D01*
X6398753Y-11001031D02*
X6408277Y-11020079D01*
X6408277Y-11020079D02*
X6417801Y-11058174D01*
X6417801Y-11058174D02*
X6417801Y-11105793D01*
X6417801Y-11105793D02*
X6408277Y-11143889D01*
X6408277Y-11143889D02*
X6398753Y-11162936D01*
X6398753Y-11162936D02*
X6389229Y-11172460D01*
X6389229Y-11172460D02*
X6370182Y-11181984D01*
X6370182Y-11181984D02*
X6351134Y-11181984D01*
X6351134Y-11181984D02*
X6332086Y-11172460D01*
X6332086Y-11172460D02*
X6322563Y-11162936D01*
X6322563Y-11162936D02*
X6313039Y-11143889D01*
X6313039Y-11143889D02*
X6303515Y-11105793D01*
X6303515Y-11105793D02*
X6303515Y-11058174D01*
X6303515Y-11058174D02*
X6313039Y-11020079D01*
X6313039Y-11020079D02*
X6322563Y-11001031D01*
X6322563Y-11001031D02*
X6332086Y-10991508D01*
X6332086Y-10991508D02*
X6351134Y-10981984D01*
X6503515Y-11162936D02*
X6513039Y-11172460D01*
X6513039Y-11172460D02*
X6503515Y-11181984D01*
X6503515Y-11181984D02*
X6493991Y-11172460D01*
X6493991Y-11172460D02*
X6503515Y-11162936D01*
X6503515Y-11162936D02*
X6503515Y-11181984D01*
X6636848Y-10981984D02*
X6655896Y-10981984D01*
X6655896Y-10981984D02*
X6674944Y-10991508D01*
X6674944Y-10991508D02*
X6684467Y-11001031D01*
X6684467Y-11001031D02*
X6693991Y-11020079D01*
X6693991Y-11020079D02*
X6703515Y-11058174D01*
X6703515Y-11058174D02*
X6703515Y-11105793D01*
X6703515Y-11105793D02*
X6693991Y-11143889D01*
X6693991Y-11143889D02*
X6684467Y-11162936D01*
X6684467Y-11162936D02*
X6674944Y-11172460D01*
X6674944Y-11172460D02*
X6655896Y-11181984D01*
X6655896Y-11181984D02*
X6636848Y-11181984D01*
X6636848Y-11181984D02*
X6617801Y-11172460D01*
X6617801Y-11172460D02*
X6608277Y-11162936D01*
X6608277Y-11162936D02*
X6598753Y-11143889D01*
X6598753Y-11143889D02*
X6589229Y-11105793D01*
X6589229Y-11105793D02*
X6589229Y-11058174D01*
X6589229Y-11058174D02*
X6598753Y-11020079D01*
X6598753Y-11020079D02*
X6608277Y-11001031D01*
X6608277Y-11001031D02*
X6617801Y-10991508D01*
X6617801Y-10991508D02*
X6636848Y-10981984D01*
X6874944Y-11048650D02*
X6874944Y-11181984D01*
X6827325Y-10972460D02*
X6779706Y-11115317D01*
X6779706Y-11115317D02*
X6903515Y-11115317D01*
X6960658Y-10981984D02*
X7084467Y-10981984D01*
X7084467Y-10981984D02*
X7017801Y-11058174D01*
X7017801Y-11058174D02*
X7046372Y-11058174D01*
X7046372Y-11058174D02*
X7065420Y-11067698D01*
X7065420Y-11067698D02*
X7074944Y-11077222D01*
X7074944Y-11077222D02*
X7084467Y-11096270D01*
X7084467Y-11096270D02*
X7084467Y-11143889D01*
X7084467Y-11143889D02*
X7074944Y-11162936D01*
X7074944Y-11162936D02*
X7065420Y-11172460D01*
X7065420Y-11172460D02*
X7046372Y-11181984D01*
X7046372Y-11181984D02*
X6989229Y-11181984D01*
X6989229Y-11181984D02*
X6970182Y-11172460D01*
X6970182Y-11172460D02*
X6960658Y-11162936D01*
X7208277Y-10981984D02*
X7227325Y-10981984D01*
X7227325Y-10981984D02*
X7246372Y-10991508D01*
X7246372Y-10991508D02*
X7255896Y-11001031D01*
X7255896Y-11001031D02*
X7265420Y-11020079D01*
X7265420Y-11020079D02*
X7274944Y-11058174D01*
X7274944Y-11058174D02*
X7274944Y-11105793D01*
X7274944Y-11105793D02*
X7265420Y-11143889D01*
X7265420Y-11143889D02*
X7255896Y-11162936D01*
X7255896Y-11162936D02*
X7246372Y-11172460D01*
X7246372Y-11172460D02*
X7227325Y-11181984D01*
X7227325Y-11181984D02*
X7208277Y-11181984D01*
X7208277Y-11181984D02*
X7189229Y-11172460D01*
X7189229Y-11172460D02*
X7179706Y-11162936D01*
X7179706Y-11162936D02*
X7170182Y-11143889D01*
X7170182Y-11143889D02*
X7160658Y-11105793D01*
X7160658Y-11105793D02*
X7160658Y-11058174D01*
X7160658Y-11058174D02*
X7170182Y-11020079D01*
X7170182Y-11020079D02*
X7179706Y-11001031D01*
X7179706Y-11001031D02*
X7189229Y-10991508D01*
X7189229Y-10991508D02*
X7208277Y-10981984D01*
X7351134Y-10981984D02*
X7351134Y-11020079D01*
X7427325Y-10981984D02*
X7427325Y-11020079D01*
X7722563Y-11258174D02*
X7713039Y-11248650D01*
X7713039Y-11248650D02*
X7693991Y-11220079D01*
X7693991Y-11220079D02*
X7684468Y-11201031D01*
X7684468Y-11201031D02*
X7674944Y-11172460D01*
X7674944Y-11172460D02*
X7665420Y-11124841D01*
X7665420Y-11124841D02*
X7665420Y-11086746D01*
X7665420Y-11086746D02*
X7674944Y-11039127D01*
X7674944Y-11039127D02*
X7684468Y-11010555D01*
X7684468Y-11010555D02*
X7693991Y-10991508D01*
X7693991Y-10991508D02*
X7713039Y-10962936D01*
X7713039Y-10962936D02*
X7722563Y-10953412D01*
X7884468Y-11048650D02*
X7884468Y-11181984D01*
X7836848Y-10972460D02*
X7789229Y-11115317D01*
X7789229Y-11115317D02*
X7913039Y-11115317D01*
X8074944Y-11048650D02*
X8074944Y-11181984D01*
X8027325Y-10972460D02*
X7979706Y-11115317D01*
X7979706Y-11115317D02*
X8103515Y-11115317D01*
X8332087Y-11181984D02*
X8332087Y-10981984D01*
X8417801Y-11181984D02*
X8417801Y-11077222D01*
X8417801Y-11077222D02*
X8408277Y-11058174D01*
X8408277Y-11058174D02*
X8389230Y-11048650D01*
X8389230Y-11048650D02*
X8360658Y-11048650D01*
X8360658Y-11048650D02*
X8341610Y-11058174D01*
X8341610Y-11058174D02*
X8332087Y-11067698D01*
X8541611Y-11181984D02*
X8522563Y-11172460D01*
X8522563Y-11172460D02*
X8513039Y-11162936D01*
X8513039Y-11162936D02*
X8503515Y-11143889D01*
X8503515Y-11143889D02*
X8503515Y-11086746D01*
X8503515Y-11086746D02*
X8513039Y-11067698D01*
X8513039Y-11067698D02*
X8522563Y-11058174D01*
X8522563Y-11058174D02*
X8541611Y-11048650D01*
X8541611Y-11048650D02*
X8570182Y-11048650D01*
X8570182Y-11048650D02*
X8589230Y-11058174D01*
X8589230Y-11058174D02*
X8598753Y-11067698D01*
X8598753Y-11067698D02*
X8608277Y-11086746D01*
X8608277Y-11086746D02*
X8608277Y-11143889D01*
X8608277Y-11143889D02*
X8598753Y-11162936D01*
X8598753Y-11162936D02*
X8589230Y-11172460D01*
X8589230Y-11172460D02*
X8570182Y-11181984D01*
X8570182Y-11181984D02*
X8541611Y-11181984D01*
X8722563Y-11181984D02*
X8703515Y-11172460D01*
X8703515Y-11172460D02*
X8693992Y-11153412D01*
X8693992Y-11153412D02*
X8693992Y-10981984D01*
X8874944Y-11172460D02*
X8855896Y-11181984D01*
X8855896Y-11181984D02*
X8817801Y-11181984D01*
X8817801Y-11181984D02*
X8798753Y-11172460D01*
X8798753Y-11172460D02*
X8789230Y-11153412D01*
X8789230Y-11153412D02*
X8789230Y-11077222D01*
X8789230Y-11077222D02*
X8798753Y-11058174D01*
X8798753Y-11058174D02*
X8817801Y-11048650D01*
X8817801Y-11048650D02*
X8855896Y-11048650D01*
X8855896Y-11048650D02*
X8874944Y-11058174D01*
X8874944Y-11058174D02*
X8884468Y-11077222D01*
X8884468Y-11077222D02*
X8884468Y-11096270D01*
X8884468Y-11096270D02*
X8789230Y-11115317D01*
X8960658Y-11172460D02*
X8979706Y-11181984D01*
X8979706Y-11181984D02*
X9017801Y-11181984D01*
X9017801Y-11181984D02*
X9036849Y-11172460D01*
X9036849Y-11172460D02*
X9046373Y-11153412D01*
X9046373Y-11153412D02*
X9046373Y-11143889D01*
X9046373Y-11143889D02*
X9036849Y-11124841D01*
X9036849Y-11124841D02*
X9017801Y-11115317D01*
X9017801Y-11115317D02*
X8989230Y-11115317D01*
X8989230Y-11115317D02*
X8970182Y-11105793D01*
X8970182Y-11105793D02*
X8960658Y-11086746D01*
X8960658Y-11086746D02*
X8960658Y-11077222D01*
X8960658Y-11077222D02*
X8970182Y-11058174D01*
X8970182Y-11058174D02*
X8989230Y-11048650D01*
X8989230Y-11048650D02*
X9017801Y-11048650D01*
X9017801Y-11048650D02*
X9036849Y-11058174D01*
X9113039Y-11258174D02*
X9122563Y-11248650D01*
X9122563Y-11248650D02*
X9141611Y-11220079D01*
X9141611Y-11220079D02*
X9151134Y-11201031D01*
X9151134Y-11201031D02*
X9160658Y-11172460D01*
X9160658Y-11172460D02*
X9170182Y-11124841D01*
X9170182Y-11124841D02*
X9170182Y-11086746D01*
X9170182Y-11086746D02*
X9160658Y-11039127D01*
X9160658Y-11039127D02*
X9151134Y-11010555D01*
X9151134Y-11010555D02*
X9141611Y-10991508D01*
X9141611Y-10991508D02*
X9122563Y-10962936D01*
X9122563Y-10962936D02*
X9113039Y-10953412D01*
D15*
X4037500Y-11299500D02*
X4147500Y-11409500D01*
X4147500Y-11299500D02*
X4037500Y-11409500D01*
X4092500Y-11409500D02*
X4147500Y-11354500D01*
X4092500Y-11299500D01*
X4037500Y-11354500D01*
X4092500Y-11409500D01*
D12*
X4513039Y-11445984D02*
X4398753Y-11445984D01*
X4455896Y-11445984D02*
X4455896Y-11245984D01*
X4455896Y-11245984D02*
X4436848Y-11274555D01*
X4436848Y-11274555D02*
X4417801Y-11293603D01*
X4417801Y-11293603D02*
X4398753Y-11303127D01*
X4598753Y-11426936D02*
X4608277Y-11436460D01*
X4608277Y-11436460D02*
X4598753Y-11445984D01*
X4598753Y-11445984D02*
X4589229Y-11436460D01*
X4589229Y-11436460D02*
X4598753Y-11426936D01*
X4598753Y-11426936D02*
X4598753Y-11445984D01*
X4798753Y-11445984D02*
X4684467Y-11445984D01*
X4741610Y-11445984D02*
X4741610Y-11245984D01*
X4741610Y-11245984D02*
X4722563Y-11274555D01*
X4722563Y-11274555D02*
X4703515Y-11293603D01*
X4703515Y-11293603D02*
X4684467Y-11303127D01*
X4922563Y-11245984D02*
X4941610Y-11245984D01*
X4941610Y-11245984D02*
X4960658Y-11255508D01*
X4960658Y-11255508D02*
X4970182Y-11265031D01*
X4970182Y-11265031D02*
X4979705Y-11284079D01*
X4979705Y-11284079D02*
X4989229Y-11322174D01*
X4989229Y-11322174D02*
X4989229Y-11369793D01*
X4989229Y-11369793D02*
X4979705Y-11407888D01*
X4979705Y-11407888D02*
X4970182Y-11426936D01*
X4970182Y-11426936D02*
X4960658Y-11436460D01*
X4960658Y-11436460D02*
X4941610Y-11445984D01*
X4941610Y-11445984D02*
X4922563Y-11445984D01*
X4922563Y-11445984D02*
X4903515Y-11436460D01*
X4903515Y-11436460D02*
X4893991Y-11426936D01*
X4893991Y-11426936D02*
X4884467Y-11407888D01*
X4884467Y-11407888D02*
X4874944Y-11369793D01*
X4874944Y-11369793D02*
X4874944Y-11322174D01*
X4874944Y-11322174D02*
X4884467Y-11284079D01*
X4884467Y-11284079D02*
X4893991Y-11265031D01*
X4893991Y-11265031D02*
X4903515Y-11255508D01*
X4903515Y-11255508D02*
X4922563Y-11245984D01*
X5113039Y-11245984D02*
X5132086Y-11245984D01*
X5132086Y-11245984D02*
X5151134Y-11255508D01*
X5151134Y-11255508D02*
X5160658Y-11265031D01*
X5160658Y-11265031D02*
X5170182Y-11284079D01*
X5170182Y-11284079D02*
X5179705Y-11322174D01*
X5179705Y-11322174D02*
X5179705Y-11369793D01*
X5179705Y-11369793D02*
X5170182Y-11407888D01*
X5170182Y-11407888D02*
X5160658Y-11426936D01*
X5160658Y-11426936D02*
X5151134Y-11436460D01*
X5151134Y-11436460D02*
X5132086Y-11445984D01*
X5132086Y-11445984D02*
X5113039Y-11445984D01*
X5113039Y-11445984D02*
X5093991Y-11436460D01*
X5093991Y-11436460D02*
X5084467Y-11426936D01*
X5084467Y-11426936D02*
X5074944Y-11407888D01*
X5074944Y-11407888D02*
X5065420Y-11369793D01*
X5065420Y-11369793D02*
X5065420Y-11322174D01*
X5065420Y-11322174D02*
X5074944Y-11284079D01*
X5074944Y-11284079D02*
X5084467Y-11265031D01*
X5084467Y-11265031D02*
X5093991Y-11255508D01*
X5093991Y-11255508D02*
X5113039Y-11245984D01*
X5265420Y-11445984D02*
X5265420Y-11312650D01*
X5265420Y-11331698D02*
X5274944Y-11322174D01*
X5274944Y-11322174D02*
X5293991Y-11312650D01*
X5293991Y-11312650D02*
X5322563Y-11312650D01*
X5322563Y-11312650D02*
X5341610Y-11322174D01*
X5341610Y-11322174D02*
X5351134Y-11341222D01*
X5351134Y-11341222D02*
X5351134Y-11445984D01*
X5351134Y-11341222D02*
X5360658Y-11322174D01*
X5360658Y-11322174D02*
X5379705Y-11312650D01*
X5379705Y-11312650D02*
X5408277Y-11312650D01*
X5408277Y-11312650D02*
X5427325Y-11322174D01*
X5427325Y-11322174D02*
X5436848Y-11341222D01*
X5436848Y-11341222D02*
X5436848Y-11445984D01*
X5532086Y-11445984D02*
X5532086Y-11312650D01*
X5532086Y-11331698D02*
X5541610Y-11322174D01*
X5541610Y-11322174D02*
X5560658Y-11312650D01*
X5560658Y-11312650D02*
X5589229Y-11312650D01*
X5589229Y-11312650D02*
X5608277Y-11322174D01*
X5608277Y-11322174D02*
X5617801Y-11341222D01*
X5617801Y-11341222D02*
X5617801Y-11445984D01*
X5617801Y-11341222D02*
X5627324Y-11322174D01*
X5627324Y-11322174D02*
X5646372Y-11312650D01*
X5646372Y-11312650D02*
X5674943Y-11312650D01*
X5674943Y-11312650D02*
X5693991Y-11322174D01*
X5693991Y-11322174D02*
X5703515Y-11341222D01*
X5703515Y-11341222D02*
X5703515Y-11445984D01*
X6093991Y-11236460D02*
X5922563Y-11493603D01*
X6351134Y-11245984D02*
X6370182Y-11245984D01*
X6370182Y-11245984D02*
X6389229Y-11255508D01*
X6389229Y-11255508D02*
X6398753Y-11265031D01*
X6398753Y-11265031D02*
X6408277Y-11284079D01*
X6408277Y-11284079D02*
X6417801Y-11322174D01*
X6417801Y-11322174D02*
X6417801Y-11369793D01*
X6417801Y-11369793D02*
X6408277Y-11407888D01*
X6408277Y-11407888D02*
X6398753Y-11426936D01*
X6398753Y-11426936D02*
X6389229Y-11436460D01*
X6389229Y-11436460D02*
X6370182Y-11445984D01*
X6370182Y-11445984D02*
X6351134Y-11445984D01*
X6351134Y-11445984D02*
X6332086Y-11436460D01*
X6332086Y-11436460D02*
X6322563Y-11426936D01*
X6322563Y-11426936D02*
X6313039Y-11407888D01*
X6313039Y-11407888D02*
X6303515Y-11369793D01*
X6303515Y-11369793D02*
X6303515Y-11322174D01*
X6303515Y-11322174D02*
X6313039Y-11284079D01*
X6313039Y-11284079D02*
X6322563Y-11265031D01*
X6322563Y-11265031D02*
X6332086Y-11255508D01*
X6332086Y-11255508D02*
X6351134Y-11245984D01*
X6503515Y-11426936D02*
X6513039Y-11436460D01*
X6513039Y-11436460D02*
X6503515Y-11445984D01*
X6503515Y-11445984D02*
X6493991Y-11436460D01*
X6493991Y-11436460D02*
X6503515Y-11426936D01*
X6503515Y-11426936D02*
X6503515Y-11445984D01*
X6636848Y-11245984D02*
X6655896Y-11245984D01*
X6655896Y-11245984D02*
X6674944Y-11255508D01*
X6674944Y-11255508D02*
X6684467Y-11265031D01*
X6684467Y-11265031D02*
X6693991Y-11284079D01*
X6693991Y-11284079D02*
X6703515Y-11322174D01*
X6703515Y-11322174D02*
X6703515Y-11369793D01*
X6703515Y-11369793D02*
X6693991Y-11407888D01*
X6693991Y-11407888D02*
X6684467Y-11426936D01*
X6684467Y-11426936D02*
X6674944Y-11436460D01*
X6674944Y-11436460D02*
X6655896Y-11445984D01*
X6655896Y-11445984D02*
X6636848Y-11445984D01*
X6636848Y-11445984D02*
X6617801Y-11436460D01*
X6617801Y-11436460D02*
X6608277Y-11426936D01*
X6608277Y-11426936D02*
X6598753Y-11407888D01*
X6598753Y-11407888D02*
X6589229Y-11369793D01*
X6589229Y-11369793D02*
X6589229Y-11322174D01*
X6589229Y-11322174D02*
X6598753Y-11284079D01*
X6598753Y-11284079D02*
X6608277Y-11265031D01*
X6608277Y-11265031D02*
X6617801Y-11255508D01*
X6617801Y-11255508D02*
X6636848Y-11245984D01*
X6874944Y-11312650D02*
X6874944Y-11445984D01*
X6827325Y-11236460D02*
X6779706Y-11379317D01*
X6779706Y-11379317D02*
X6903515Y-11379317D01*
X6960658Y-11245984D02*
X7084467Y-11245984D01*
X7084467Y-11245984D02*
X7017801Y-11322174D01*
X7017801Y-11322174D02*
X7046372Y-11322174D01*
X7046372Y-11322174D02*
X7065420Y-11331698D01*
X7065420Y-11331698D02*
X7074944Y-11341222D01*
X7074944Y-11341222D02*
X7084467Y-11360269D01*
X7084467Y-11360269D02*
X7084467Y-11407888D01*
X7084467Y-11407888D02*
X7074944Y-11426936D01*
X7074944Y-11426936D02*
X7065420Y-11436460D01*
X7065420Y-11436460D02*
X7046372Y-11445984D01*
X7046372Y-11445984D02*
X6989229Y-11445984D01*
X6989229Y-11445984D02*
X6970182Y-11436460D01*
X6970182Y-11436460D02*
X6960658Y-11426936D01*
X7151134Y-11245984D02*
X7274944Y-11245984D01*
X7274944Y-11245984D02*
X7208277Y-11322174D01*
X7208277Y-11322174D02*
X7236848Y-11322174D01*
X7236848Y-11322174D02*
X7255896Y-11331698D01*
X7255896Y-11331698D02*
X7265420Y-11341222D01*
X7265420Y-11341222D02*
X7274944Y-11360269D01*
X7274944Y-11360269D02*
X7274944Y-11407888D01*
X7274944Y-11407888D02*
X7265420Y-11426936D01*
X7265420Y-11426936D02*
X7255896Y-11436460D01*
X7255896Y-11436460D02*
X7236848Y-11445984D01*
X7236848Y-11445984D02*
X7179706Y-11445984D01*
X7179706Y-11445984D02*
X7160658Y-11436460D01*
X7160658Y-11436460D02*
X7151134Y-11426936D01*
X7351134Y-11245984D02*
X7351134Y-11284079D01*
X7427325Y-11245984D02*
X7427325Y-11284079D01*
X7722563Y-11522174D02*
X7713039Y-11512650D01*
X7713039Y-11512650D02*
X7693991Y-11484079D01*
X7693991Y-11484079D02*
X7684468Y-11465031D01*
X7684468Y-11465031D02*
X7674944Y-11436460D01*
X7674944Y-11436460D02*
X7665420Y-11388841D01*
X7665420Y-11388841D02*
X7665420Y-11350746D01*
X7665420Y-11350746D02*
X7674944Y-11303127D01*
X7674944Y-11303127D02*
X7684468Y-11274555D01*
X7684468Y-11274555D02*
X7693991Y-11255508D01*
X7693991Y-11255508D02*
X7713039Y-11226936D01*
X7713039Y-11226936D02*
X7722563Y-11217412D01*
X7884468Y-11312650D02*
X7884468Y-11445984D01*
X7836848Y-11236460D02*
X7789229Y-11379317D01*
X7789229Y-11379317D02*
X7913039Y-11379317D01*
X8074944Y-11245984D02*
X8036848Y-11245984D01*
X8036848Y-11245984D02*
X8017801Y-11255508D01*
X8017801Y-11255508D02*
X8008277Y-11265031D01*
X8008277Y-11265031D02*
X7989229Y-11293603D01*
X7989229Y-11293603D02*
X7979706Y-11331698D01*
X7979706Y-11331698D02*
X7979706Y-11407888D01*
X7979706Y-11407888D02*
X7989229Y-11426936D01*
X7989229Y-11426936D02*
X7998753Y-11436460D01*
X7998753Y-11436460D02*
X8017801Y-11445984D01*
X8017801Y-11445984D02*
X8055896Y-11445984D01*
X8055896Y-11445984D02*
X8074944Y-11436460D01*
X8074944Y-11436460D02*
X8084468Y-11426936D01*
X8084468Y-11426936D02*
X8093991Y-11407888D01*
X8093991Y-11407888D02*
X8093991Y-11360269D01*
X8093991Y-11360269D02*
X8084468Y-11341222D01*
X8084468Y-11341222D02*
X8074944Y-11331698D01*
X8074944Y-11331698D02*
X8055896Y-11322174D01*
X8055896Y-11322174D02*
X8017801Y-11322174D01*
X8017801Y-11322174D02*
X7998753Y-11331698D01*
X7998753Y-11331698D02*
X7989229Y-11341222D01*
X7989229Y-11341222D02*
X7979706Y-11360269D01*
X8332087Y-11445984D02*
X8332087Y-11245984D01*
X8417801Y-11445984D02*
X8417801Y-11341222D01*
X8417801Y-11341222D02*
X8408277Y-11322174D01*
X8408277Y-11322174D02*
X8389230Y-11312650D01*
X8389230Y-11312650D02*
X8360658Y-11312650D01*
X8360658Y-11312650D02*
X8341610Y-11322174D01*
X8341610Y-11322174D02*
X8332087Y-11331698D01*
X8541611Y-11445984D02*
X8522563Y-11436460D01*
X8522563Y-11436460D02*
X8513039Y-11426936D01*
X8513039Y-11426936D02*
X8503515Y-11407888D01*
X8503515Y-11407888D02*
X8503515Y-11350746D01*
X8503515Y-11350746D02*
X8513039Y-11331698D01*
X8513039Y-11331698D02*
X8522563Y-11322174D01*
X8522563Y-11322174D02*
X8541611Y-11312650D01*
X8541611Y-11312650D02*
X8570182Y-11312650D01*
X8570182Y-11312650D02*
X8589230Y-11322174D01*
X8589230Y-11322174D02*
X8598753Y-11331698D01*
X8598753Y-11331698D02*
X8608277Y-11350746D01*
X8608277Y-11350746D02*
X8608277Y-11407888D01*
X8608277Y-11407888D02*
X8598753Y-11426936D01*
X8598753Y-11426936D02*
X8589230Y-11436460D01*
X8589230Y-11436460D02*
X8570182Y-11445984D01*
X8570182Y-11445984D02*
X8541611Y-11445984D01*
X8722563Y-11445984D02*
X8703515Y-11436460D01*
X8703515Y-11436460D02*
X8693992Y-11417412D01*
X8693992Y-11417412D02*
X8693992Y-11245984D01*
X8874944Y-11436460D02*
X8855896Y-11445984D01*
X8855896Y-11445984D02*
X8817801Y-11445984D01*
X8817801Y-11445984D02*
X8798753Y-11436460D01*
X8798753Y-11436460D02*
X8789230Y-11417412D01*
X8789230Y-11417412D02*
X8789230Y-11341222D01*
X8789230Y-11341222D02*
X8798753Y-11322174D01*
X8798753Y-11322174D02*
X8817801Y-11312650D01*
X8817801Y-11312650D02*
X8855896Y-11312650D01*
X8855896Y-11312650D02*
X8874944Y-11322174D01*
X8874944Y-11322174D02*
X8884468Y-11341222D01*
X8884468Y-11341222D02*
X8884468Y-11360269D01*
X8884468Y-11360269D02*
X8789230Y-11379317D01*
X8960658Y-11436460D02*
X8979706Y-11445984D01*
X8979706Y-11445984D02*
X9017801Y-11445984D01*
X9017801Y-11445984D02*
X9036849Y-11436460D01*
X9036849Y-11436460D02*
X9046373Y-11417412D01*
X9046373Y-11417412D02*
X9046373Y-11407888D01*
X9046373Y-11407888D02*
X9036849Y-11388841D01*
X9036849Y-11388841D02*
X9017801Y-11379317D01*
X9017801Y-11379317D02*
X8989230Y-11379317D01*
X8989230Y-11379317D02*
X8970182Y-11369793D01*
X8970182Y-11369793D02*
X8960658Y-11350746D01*
X8960658Y-11350746D02*
X8960658Y-11341222D01*
X8960658Y-11341222D02*
X8970182Y-11322174D01*
X8970182Y-11322174D02*
X8989230Y-11312650D01*
X8989230Y-11312650D02*
X9017801Y-11312650D01*
X9017801Y-11312650D02*
X9036849Y-11322174D01*
X9113039Y-11522174D02*
X9122563Y-11512650D01*
X9122563Y-11512650D02*
X9141611Y-11484079D01*
X9141611Y-11484079D02*
X9151134Y-11465031D01*
X9151134Y-11465031D02*
X9160658Y-11436460D01*
X9160658Y-11436460D02*
X9170182Y-11388841D01*
X9170182Y-11388841D02*
X9170182Y-11350746D01*
X9170182Y-11350746D02*
X9160658Y-11303127D01*
X9160658Y-11303127D02*
X9151134Y-11274555D01*
X9151134Y-11274555D02*
X9141611Y-11255508D01*
X9141611Y-11255508D02*
X9122563Y-11226936D01*
X9122563Y-11226936D02*
X9113039Y-11217412D01*
X4047500Y-11518500D02*
X4047500Y-11718500D01*
X3947500Y-11618500D02*
X4147500Y-11618500D01*
X4147500Y-11618500D02*
G75*
G02*
X3947500Y-11618500I-100000J0D01*
G01*
X3947500Y-11618500D02*
G75*
G02*
X4147500Y-11618500I100000J0D01*
G01*
X4389229Y-11509984D02*
X4513039Y-11509984D01*
X4513039Y-11509984D02*
X4446372Y-11586174D01*
X4446372Y-11586174D02*
X4474944Y-11586174D01*
X4474944Y-11586174D02*
X4493991Y-11595698D01*
X4493991Y-11595698D02*
X4503515Y-11605222D01*
X4503515Y-11605222D02*
X4513039Y-11624269D01*
X4513039Y-11624269D02*
X4513039Y-11671888D01*
X4513039Y-11671888D02*
X4503515Y-11690936D01*
X4503515Y-11690936D02*
X4493991Y-11700460D01*
X4493991Y-11700460D02*
X4474944Y-11709984D01*
X4474944Y-11709984D02*
X4417801Y-11709984D01*
X4417801Y-11709984D02*
X4398753Y-11700460D01*
X4398753Y-11700460D02*
X4389229Y-11690936D01*
X4598753Y-11690936D02*
X4608277Y-11700460D01*
X4608277Y-11700460D02*
X4598753Y-11709984D01*
X4598753Y-11709984D02*
X4589229Y-11700460D01*
X4589229Y-11700460D02*
X4598753Y-11690936D01*
X4598753Y-11690936D02*
X4598753Y-11709984D01*
X4684467Y-11529031D02*
X4693991Y-11519508D01*
X4693991Y-11519508D02*
X4713039Y-11509984D01*
X4713039Y-11509984D02*
X4760658Y-11509984D01*
X4760658Y-11509984D02*
X4779705Y-11519508D01*
X4779705Y-11519508D02*
X4789229Y-11529031D01*
X4789229Y-11529031D02*
X4798753Y-11548079D01*
X4798753Y-11548079D02*
X4798753Y-11567127D01*
X4798753Y-11567127D02*
X4789229Y-11595698D01*
X4789229Y-11595698D02*
X4674944Y-11709984D01*
X4674944Y-11709984D02*
X4798753Y-11709984D01*
X4922563Y-11509984D02*
X4941610Y-11509984D01*
X4941610Y-11509984D02*
X4960658Y-11519508D01*
X4960658Y-11519508D02*
X4970182Y-11529031D01*
X4970182Y-11529031D02*
X4979705Y-11548079D01*
X4979705Y-11548079D02*
X4989229Y-11586174D01*
X4989229Y-11586174D02*
X4989229Y-11633793D01*
X4989229Y-11633793D02*
X4979705Y-11671888D01*
X4979705Y-11671888D02*
X4970182Y-11690936D01*
X4970182Y-11690936D02*
X4960658Y-11700460D01*
X4960658Y-11700460D02*
X4941610Y-11709984D01*
X4941610Y-11709984D02*
X4922563Y-11709984D01*
X4922563Y-11709984D02*
X4903515Y-11700460D01*
X4903515Y-11700460D02*
X4893991Y-11690936D01*
X4893991Y-11690936D02*
X4884467Y-11671888D01*
X4884467Y-11671888D02*
X4874944Y-11633793D01*
X4874944Y-11633793D02*
X4874944Y-11586174D01*
X4874944Y-11586174D02*
X4884467Y-11548079D01*
X4884467Y-11548079D02*
X4893991Y-11529031D01*
X4893991Y-11529031D02*
X4903515Y-11519508D01*
X4903515Y-11519508D02*
X4922563Y-11509984D01*
X5113039Y-11509984D02*
X5132086Y-11509984D01*
X5132086Y-11509984D02*
X5151134Y-11519508D01*
X5151134Y-11519508D02*
X5160658Y-11529031D01*
X5160658Y-11529031D02*
X5170182Y-11548079D01*
X5170182Y-11548079D02*
X5179705Y-11586174D01*
X5179705Y-11586174D02*
X5179705Y-11633793D01*
X5179705Y-11633793D02*
X5170182Y-11671888D01*
X5170182Y-11671888D02*
X5160658Y-11690936D01*
X5160658Y-11690936D02*
X5151134Y-11700460D01*
X5151134Y-11700460D02*
X5132086Y-11709984D01*
X5132086Y-11709984D02*
X5113039Y-11709984D01*
X5113039Y-11709984D02*
X5093991Y-11700460D01*
X5093991Y-11700460D02*
X5084467Y-11690936D01*
X5084467Y-11690936D02*
X5074944Y-11671888D01*
X5074944Y-11671888D02*
X5065420Y-11633793D01*
X5065420Y-11633793D02*
X5065420Y-11586174D01*
X5065420Y-11586174D02*
X5074944Y-11548079D01*
X5074944Y-11548079D02*
X5084467Y-11529031D01*
X5084467Y-11529031D02*
X5093991Y-11519508D01*
X5093991Y-11519508D02*
X5113039Y-11509984D01*
X5265420Y-11709984D02*
X5265420Y-11576650D01*
X5265420Y-11595698D02*
X5274944Y-11586174D01*
X5274944Y-11586174D02*
X5293991Y-11576650D01*
X5293991Y-11576650D02*
X5322563Y-11576650D01*
X5322563Y-11576650D02*
X5341610Y-11586174D01*
X5341610Y-11586174D02*
X5351134Y-11605222D01*
X5351134Y-11605222D02*
X5351134Y-11709984D01*
X5351134Y-11605222D02*
X5360658Y-11586174D01*
X5360658Y-11586174D02*
X5379705Y-11576650D01*
X5379705Y-11576650D02*
X5408277Y-11576650D01*
X5408277Y-11576650D02*
X5427325Y-11586174D01*
X5427325Y-11586174D02*
X5436848Y-11605222D01*
X5436848Y-11605222D02*
X5436848Y-11709984D01*
X5532086Y-11709984D02*
X5532086Y-11576650D01*
X5532086Y-11595698D02*
X5541610Y-11586174D01*
X5541610Y-11586174D02*
X5560658Y-11576650D01*
X5560658Y-11576650D02*
X5589229Y-11576650D01*
X5589229Y-11576650D02*
X5608277Y-11586174D01*
X5608277Y-11586174D02*
X5617801Y-11605222D01*
X5617801Y-11605222D02*
X5617801Y-11709984D01*
X5617801Y-11605222D02*
X5627324Y-11586174D01*
X5627324Y-11586174D02*
X5646372Y-11576650D01*
X5646372Y-11576650D02*
X5674943Y-11576650D01*
X5674943Y-11576650D02*
X5693991Y-11586174D01*
X5693991Y-11586174D02*
X5703515Y-11605222D01*
X5703515Y-11605222D02*
X5703515Y-11709984D01*
X6093991Y-11500460D02*
X5922563Y-11757603D01*
X6351134Y-11509984D02*
X6370182Y-11509984D01*
X6370182Y-11509984D02*
X6389229Y-11519508D01*
X6389229Y-11519508D02*
X6398753Y-11529031D01*
X6398753Y-11529031D02*
X6408277Y-11548079D01*
X6408277Y-11548079D02*
X6417801Y-11586174D01*
X6417801Y-11586174D02*
X6417801Y-11633793D01*
X6417801Y-11633793D02*
X6408277Y-11671888D01*
X6408277Y-11671888D02*
X6398753Y-11690936D01*
X6398753Y-11690936D02*
X6389229Y-11700460D01*
X6389229Y-11700460D02*
X6370182Y-11709984D01*
X6370182Y-11709984D02*
X6351134Y-11709984D01*
X6351134Y-11709984D02*
X6332086Y-11700460D01*
X6332086Y-11700460D02*
X6322563Y-11690936D01*
X6322563Y-11690936D02*
X6313039Y-11671888D01*
X6313039Y-11671888D02*
X6303515Y-11633793D01*
X6303515Y-11633793D02*
X6303515Y-11586174D01*
X6303515Y-11586174D02*
X6313039Y-11548079D01*
X6313039Y-11548079D02*
X6322563Y-11529031D01*
X6322563Y-11529031D02*
X6332086Y-11519508D01*
X6332086Y-11519508D02*
X6351134Y-11509984D01*
X6503515Y-11690936D02*
X6513039Y-11700460D01*
X6513039Y-11700460D02*
X6503515Y-11709984D01*
X6503515Y-11709984D02*
X6493991Y-11700460D01*
X6493991Y-11700460D02*
X6503515Y-11690936D01*
X6503515Y-11690936D02*
X6503515Y-11709984D01*
X6703515Y-11709984D02*
X6589229Y-11709984D01*
X6646372Y-11709984D02*
X6646372Y-11509984D01*
X6646372Y-11509984D02*
X6627325Y-11538555D01*
X6627325Y-11538555D02*
X6608277Y-11557603D01*
X6608277Y-11557603D02*
X6589229Y-11567127D01*
X6779706Y-11529031D02*
X6789229Y-11519508D01*
X6789229Y-11519508D02*
X6808277Y-11509984D01*
X6808277Y-11509984D02*
X6855896Y-11509984D01*
X6855896Y-11509984D02*
X6874944Y-11519508D01*
X6874944Y-11519508D02*
X6884467Y-11529031D01*
X6884467Y-11529031D02*
X6893991Y-11548079D01*
X6893991Y-11548079D02*
X6893991Y-11567127D01*
X6893991Y-11567127D02*
X6884467Y-11595698D01*
X6884467Y-11595698D02*
X6770182Y-11709984D01*
X6770182Y-11709984D02*
X6893991Y-11709984D01*
X7065420Y-11509984D02*
X7027325Y-11509984D01*
X7027325Y-11509984D02*
X7008277Y-11519508D01*
X7008277Y-11519508D02*
X6998753Y-11529031D01*
X6998753Y-11529031D02*
X6979706Y-11557603D01*
X6979706Y-11557603D02*
X6970182Y-11595698D01*
X6970182Y-11595698D02*
X6970182Y-11671888D01*
X6970182Y-11671888D02*
X6979706Y-11690936D01*
X6979706Y-11690936D02*
X6989229Y-11700460D01*
X6989229Y-11700460D02*
X7008277Y-11709984D01*
X7008277Y-11709984D02*
X7046372Y-11709984D01*
X7046372Y-11709984D02*
X7065420Y-11700460D01*
X7065420Y-11700460D02*
X7074944Y-11690936D01*
X7074944Y-11690936D02*
X7084467Y-11671888D01*
X7084467Y-11671888D02*
X7084467Y-11624269D01*
X7084467Y-11624269D02*
X7074944Y-11605222D01*
X7074944Y-11605222D02*
X7065420Y-11595698D01*
X7065420Y-11595698D02*
X7046372Y-11586174D01*
X7046372Y-11586174D02*
X7008277Y-11586174D01*
X7008277Y-11586174D02*
X6989229Y-11595698D01*
X6989229Y-11595698D02*
X6979706Y-11605222D01*
X6979706Y-11605222D02*
X6970182Y-11624269D01*
X7208277Y-11509984D02*
X7227325Y-11509984D01*
X7227325Y-11509984D02*
X7246372Y-11519508D01*
X7246372Y-11519508D02*
X7255896Y-11529031D01*
X7255896Y-11529031D02*
X7265420Y-11548079D01*
X7265420Y-11548079D02*
X7274944Y-11586174D01*
X7274944Y-11586174D02*
X7274944Y-11633793D01*
X7274944Y-11633793D02*
X7265420Y-11671888D01*
X7265420Y-11671888D02*
X7255896Y-11690936D01*
X7255896Y-11690936D02*
X7246372Y-11700460D01*
X7246372Y-11700460D02*
X7227325Y-11709984D01*
X7227325Y-11709984D02*
X7208277Y-11709984D01*
X7208277Y-11709984D02*
X7189229Y-11700460D01*
X7189229Y-11700460D02*
X7179706Y-11690936D01*
X7179706Y-11690936D02*
X7170182Y-11671888D01*
X7170182Y-11671888D02*
X7160658Y-11633793D01*
X7160658Y-11633793D02*
X7160658Y-11586174D01*
X7160658Y-11586174D02*
X7170182Y-11548079D01*
X7170182Y-11548079D02*
X7179706Y-11529031D01*
X7179706Y-11529031D02*
X7189229Y-11519508D01*
X7189229Y-11519508D02*
X7208277Y-11509984D01*
X7351134Y-11509984D02*
X7351134Y-11548079D01*
X7427325Y-11509984D02*
X7427325Y-11548079D01*
X7722563Y-11786174D02*
X7713039Y-11776650D01*
X7713039Y-11776650D02*
X7693991Y-11748079D01*
X7693991Y-11748079D02*
X7684468Y-11729031D01*
X7684468Y-11729031D02*
X7674944Y-11700460D01*
X7674944Y-11700460D02*
X7665420Y-11652841D01*
X7665420Y-11652841D02*
X7665420Y-11614746D01*
X7665420Y-11614746D02*
X7674944Y-11567127D01*
X7674944Y-11567127D02*
X7684468Y-11538555D01*
X7684468Y-11538555D02*
X7693991Y-11519508D01*
X7693991Y-11519508D02*
X7713039Y-11490936D01*
X7713039Y-11490936D02*
X7722563Y-11481412D01*
X7789229Y-11529031D02*
X7798753Y-11519508D01*
X7798753Y-11519508D02*
X7817801Y-11509984D01*
X7817801Y-11509984D02*
X7865420Y-11509984D01*
X7865420Y-11509984D02*
X7884468Y-11519508D01*
X7884468Y-11519508D02*
X7893991Y-11529031D01*
X7893991Y-11529031D02*
X7903515Y-11548079D01*
X7903515Y-11548079D02*
X7903515Y-11567127D01*
X7903515Y-11567127D02*
X7893991Y-11595698D01*
X7893991Y-11595698D02*
X7779706Y-11709984D01*
X7779706Y-11709984D02*
X7903515Y-11709984D01*
X8141610Y-11709984D02*
X8141610Y-11509984D01*
X8227325Y-11709984D02*
X8227325Y-11605222D01*
X8227325Y-11605222D02*
X8217801Y-11586174D01*
X8217801Y-11586174D02*
X8198753Y-11576650D01*
X8198753Y-11576650D02*
X8170182Y-11576650D01*
X8170182Y-11576650D02*
X8151134Y-11586174D01*
X8151134Y-11586174D02*
X8141610Y-11595698D01*
X8351134Y-11709984D02*
X8332087Y-11700460D01*
X8332087Y-11700460D02*
X8322563Y-11690936D01*
X8322563Y-11690936D02*
X8313039Y-11671888D01*
X8313039Y-11671888D02*
X8313039Y-11614746D01*
X8313039Y-11614746D02*
X8322563Y-11595698D01*
X8322563Y-11595698D02*
X8332087Y-11586174D01*
X8332087Y-11586174D02*
X8351134Y-11576650D01*
X8351134Y-11576650D02*
X8379706Y-11576650D01*
X8379706Y-11576650D02*
X8398753Y-11586174D01*
X8398753Y-11586174D02*
X8408277Y-11595698D01*
X8408277Y-11595698D02*
X8417801Y-11614746D01*
X8417801Y-11614746D02*
X8417801Y-11671888D01*
X8417801Y-11671888D02*
X8408277Y-11690936D01*
X8408277Y-11690936D02*
X8398753Y-11700460D01*
X8398753Y-11700460D02*
X8379706Y-11709984D01*
X8379706Y-11709984D02*
X8351134Y-11709984D01*
X8532087Y-11709984D02*
X8513039Y-11700460D01*
X8513039Y-11700460D02*
X8503515Y-11681412D01*
X8503515Y-11681412D02*
X8503515Y-11509984D01*
X8684468Y-11700460D02*
X8665420Y-11709984D01*
X8665420Y-11709984D02*
X8627325Y-11709984D01*
X8627325Y-11709984D02*
X8608277Y-11700460D01*
X8608277Y-11700460D02*
X8598753Y-11681412D01*
X8598753Y-11681412D02*
X8598753Y-11605222D01*
X8598753Y-11605222D02*
X8608277Y-11586174D01*
X8608277Y-11586174D02*
X8627325Y-11576650D01*
X8627325Y-11576650D02*
X8665420Y-11576650D01*
X8665420Y-11576650D02*
X8684468Y-11586174D01*
X8684468Y-11586174D02*
X8693992Y-11605222D01*
X8693992Y-11605222D02*
X8693992Y-11624269D01*
X8693992Y-11624269D02*
X8598753Y-11643317D01*
X8770182Y-11700460D02*
X8789230Y-11709984D01*
X8789230Y-11709984D02*
X8827325Y-11709984D01*
X8827325Y-11709984D02*
X8846373Y-11700460D01*
X8846373Y-11700460D02*
X8855896Y-11681412D01*
X8855896Y-11681412D02*
X8855896Y-11671888D01*
X8855896Y-11671888D02*
X8846373Y-11652841D01*
X8846373Y-11652841D02*
X8827325Y-11643317D01*
X8827325Y-11643317D02*
X8798753Y-11643317D01*
X8798753Y-11643317D02*
X8779706Y-11633793D01*
X8779706Y-11633793D02*
X8770182Y-11614746D01*
X8770182Y-11614746D02*
X8770182Y-11605222D01*
X8770182Y-11605222D02*
X8779706Y-11586174D01*
X8779706Y-11586174D02*
X8798753Y-11576650D01*
X8798753Y-11576650D02*
X8827325Y-11576650D01*
X8827325Y-11576650D02*
X8846373Y-11586174D01*
X8922563Y-11786174D02*
X8932087Y-11776650D01*
X8932087Y-11776650D02*
X8951134Y-11748079D01*
X8951134Y-11748079D02*
X8960658Y-11729031D01*
X8960658Y-11729031D02*
X8970182Y-11700460D01*
X8970182Y-11700460D02*
X8979706Y-11652841D01*
X8979706Y-11652841D02*
X8979706Y-11614746D01*
X8979706Y-11614746D02*
X8970182Y-11567127D01*
X8970182Y-11567127D02*
X8960658Y-11538555D01*
X8960658Y-11538555D02*
X8951134Y-11519508D01*
X8951134Y-11519508D02*
X8932087Y-11490936D01*
X8932087Y-11490936D02*
X8922563Y-11481412D01*
M02*
