G04 #@! TF.GenerationSoftware,KiCad,Pcbnew,9.0.4*
G04 #@! TF.CreationDate,2025-11-03T17:15:11-05:00*
G04 #@! TF.ProjectId,main_board_v1,6d61696e-5f62-46f6-9172-645f76312e6b,rev?*
G04 #@! TF.SameCoordinates,Original*
G04 #@! TF.FileFunction,Copper,L1,Top*
G04 #@! TF.FilePolarity,Positive*
%FSLAX46Y46*%
G04 Gerber Fmt 4.6, Leading zero omitted, Abs format (unit mm)*
G04 Created by KiCad (PCBNEW 9.0.4) date 2025-11-03 17:15:11*
%MOMM*%
%LPD*%
G01*
G04 APERTURE LIST*
G04 Aperture macros list*
%AMRoundRect*
0 Rectangle with rounded corners*
0 $1 Rounding radius*
0 $2 $3 $4 $5 $6 $7 $8 $9 X,Y pos of 4 corners*
0 Add a 4 corners polygon primitive as box body*
4,1,4,$2,$3,$4,$5,$6,$7,$8,$9,$2,$3,0*
0 Add four circle primitives for the rounded corners*
1,1,$1+$1,$2,$3*
1,1,$1+$1,$4,$5*
1,1,$1+$1,$6,$7*
1,1,$1+$1,$8,$9*
0 Add four rect primitives between the rounded corners*
20,1,$1+$1,$2,$3,$4,$5,0*
20,1,$1+$1,$4,$5,$6,$7,0*
20,1,$1+$1,$6,$7,$8,$9,0*
20,1,$1+$1,$8,$9,$2,$3,0*%
G04 Aperture macros list end*
G04 #@! TA.AperFunction,EtchedComponent*
%ADD10C,0.000000*%
G04 #@! TD*
G04 #@! TA.AperFunction,SMDPad,CuDef*
%ADD11RoundRect,0.150000X-0.512500X-0.150000X0.512500X-0.150000X0.512500X0.150000X-0.512500X0.150000X0*%
G04 #@! TD*
G04 #@! TA.AperFunction,SMDPad,CuDef*
%ADD12RoundRect,0.147500X0.147500X0.172500X-0.147500X0.172500X-0.147500X-0.172500X0.147500X-0.172500X0*%
G04 #@! TD*
G04 #@! TA.AperFunction,SMDPad,CuDef*
%ADD13RoundRect,0.135000X-0.135000X-0.185000X0.135000X-0.185000X0.135000X0.185000X-0.135000X0.185000X0*%
G04 #@! TD*
G04 #@! TA.AperFunction,SMDPad,CuDef*
%ADD14RoundRect,0.140000X-0.170000X0.140000X-0.170000X-0.140000X0.170000X-0.140000X0.170000X0.140000X0*%
G04 #@! TD*
G04 #@! TA.AperFunction,SMDPad,CuDef*
%ADD15RoundRect,0.135000X-0.185000X0.135000X-0.185000X-0.135000X0.185000X-0.135000X0.185000X0.135000X0*%
G04 #@! TD*
G04 #@! TA.AperFunction,SMDPad,CuDef*
%ADD16RoundRect,0.135000X0.185000X-0.135000X0.185000X0.135000X-0.185000X0.135000X-0.185000X-0.135000X0*%
G04 #@! TD*
G04 #@! TA.AperFunction,SMDPad,CuDef*
%ADD17RoundRect,0.147500X0.172500X-0.147500X0.172500X0.147500X-0.172500X0.147500X-0.172500X-0.147500X0*%
G04 #@! TD*
G04 #@! TA.AperFunction,SMDPad,CuDef*
%ADD18RoundRect,0.140000X0.170000X-0.140000X0.170000X0.140000X-0.170000X0.140000X-0.170000X-0.140000X0*%
G04 #@! TD*
G04 #@! TA.AperFunction,SMDPad,CuDef*
%ADD19R,1.000000X1.000000*%
G04 #@! TD*
G04 #@! TA.AperFunction,SMDPad,CuDef*
%ADD20RoundRect,0.147500X-0.172500X0.147500X-0.172500X-0.147500X0.172500X-0.147500X0.172500X0.147500X0*%
G04 #@! TD*
G04 #@! TA.AperFunction,SMDPad,CuDef*
%ADD21R,5.200000X1.250000*%
G04 #@! TD*
G04 #@! TA.AperFunction,ComponentPad*
%ADD22R,1.600000X1.600000*%
G04 #@! TD*
G04 #@! TA.AperFunction,ComponentPad*
%ADD23C,1.600000*%
G04 #@! TD*
G04 #@! TA.AperFunction,ComponentPad*
%ADD24R,1.300000X1.300000*%
G04 #@! TD*
G04 #@! TA.AperFunction,ComponentPad*
%ADD25C,1.300000*%
G04 #@! TD*
G04 #@! TA.AperFunction,SMDPad,CuDef*
%ADD26R,1.473200X0.355600*%
G04 #@! TD*
G04 #@! TA.AperFunction,SMDPad,CuDef*
%ADD27RoundRect,0.218750X-0.117915X-0.315613X0.293200X-0.165979X0.117915X0.315613X-0.293200X0.165979X0*%
G04 #@! TD*
G04 #@! TA.AperFunction,SMDPad,CuDef*
%ADD28RoundRect,0.140000X0.140000X0.170000X-0.140000X0.170000X-0.140000X-0.170000X0.140000X-0.170000X0*%
G04 #@! TD*
G04 #@! TA.AperFunction,SMDPad,CuDef*
%ADD29R,1.400000X0.450000*%
G04 #@! TD*
G04 #@! TA.AperFunction,SMDPad,CuDef*
%ADD30RoundRect,0.051250X-0.733750X-0.153750X0.733750X-0.153750X0.733750X0.153750X-0.733750X0.153750X0*%
G04 #@! TD*
G04 #@! TA.AperFunction,SMDPad,CuDef*
%ADD31R,0.850000X0.200000*%
G04 #@! TD*
G04 #@! TA.AperFunction,SMDPad,CuDef*
%ADD32R,0.200000X0.850000*%
G04 #@! TD*
G04 #@! TA.AperFunction,SMDPad,CuDef*
%ADD33R,4.050000X4.050000*%
G04 #@! TD*
G04 #@! TA.AperFunction,SMDPad,CuDef*
%ADD34RoundRect,0.135000X0.135000X0.185000X-0.135000X0.185000X-0.135000X-0.185000X0.135000X-0.185000X0*%
G04 #@! TD*
G04 #@! TA.AperFunction,SMDPad,CuDef*
%ADD35R,1.600000X0.800000*%
G04 #@! TD*
G04 #@! TA.AperFunction,SMDPad,CuDef*
%ADD36C,0.500000*%
G04 #@! TD*
G04 #@! TA.AperFunction,SMDPad,CuDef*
%ADD37R,1.150000X0.600000*%
G04 #@! TD*
G04 #@! TA.AperFunction,SMDPad,CuDef*
%ADD38R,1.100000X1.900000*%
G04 #@! TD*
G04 #@! TA.AperFunction,SMDPad,CuDef*
%ADD39R,2.500000X5.100000*%
G04 #@! TD*
G04 #@! TA.AperFunction,SMDPad,CuDef*
%ADD40C,10.200000*%
G04 #@! TD*
G04 #@! TA.AperFunction,SMDPad,CuDef*
%ADD41R,0.850000X0.300000*%
G04 #@! TD*
G04 #@! TA.AperFunction,SMDPad,CuDef*
%ADD42R,0.300000X0.850000*%
G04 #@! TD*
G04 #@! TA.AperFunction,SMDPad,CuDef*
%ADD43R,0.850000X0.750000*%
G04 #@! TD*
G04 #@! TA.AperFunction,SMDPad,CuDef*
%ADD44RoundRect,0.140000X-0.140000X-0.170000X0.140000X-0.170000X0.140000X0.170000X-0.140000X0.170000X0*%
G04 #@! TD*
G04 #@! TA.AperFunction,SMDPad,CuDef*
%ADD45RoundRect,0.225000X-0.250000X0.225000X-0.250000X-0.225000X0.250000X-0.225000X0.250000X0.225000X0*%
G04 #@! TD*
G04 #@! TA.AperFunction,SMDPad,CuDef*
%ADD46R,2.259800X1.874000*%
G04 #@! TD*
G04 #@! TA.AperFunction,ComponentPad*
%ADD47C,1.638000*%
G04 #@! TD*
G04 #@! TA.AperFunction,ComponentPad*
%ADD48C,4.801000*%
G04 #@! TD*
G04 #@! TA.AperFunction,SMDPad,CuDef*
%ADD49R,0.700000X0.300000*%
G04 #@! TD*
G04 #@! TA.AperFunction,SMDPad,CuDef*
%ADD50R,1.000000X1.700000*%
G04 #@! TD*
G04 #@! TA.AperFunction,SMDPad,CuDef*
%ADD51R,1.910000X0.640000*%
G04 #@! TD*
G04 #@! TA.AperFunction,SMDPad,CuDef*
%ADD52RoundRect,0.225000X0.311878X-0.125926X0.157969X0.296936X-0.311878X0.125926X-0.157969X-0.296936X0*%
G04 #@! TD*
G04 #@! TA.AperFunction,SMDPad,CuDef*
%ADD53R,1.475000X0.450000*%
G04 #@! TD*
G04 #@! TA.AperFunction,SMDPad,CuDef*
%ADD54RoundRect,0.147500X-0.147500X-0.172500X0.147500X-0.172500X0.147500X0.172500X-0.147500X0.172500X0*%
G04 #@! TD*
G04 #@! TA.AperFunction,ViaPad*
%ADD55C,0.500000*%
G04 #@! TD*
G04 #@! TA.AperFunction,ViaPad*
%ADD56C,0.900000*%
G04 #@! TD*
G04 #@! TA.AperFunction,ViaPad*
%ADD57C,0.600000*%
G04 #@! TD*
G04 #@! TA.AperFunction,ViaPad*
%ADD58C,0.700000*%
G04 #@! TD*
G04 #@! TA.AperFunction,ViaPad*
%ADD59C,0.800000*%
G04 #@! TD*
G04 #@! TA.AperFunction,ViaPad*
%ADD60C,0.960000*%
G04 #@! TD*
G04 #@! TA.AperFunction,Conductor*
%ADD61C,0.200000*%
G04 #@! TD*
G04 #@! TA.AperFunction,Conductor*
%ADD62C,0.600000*%
G04 #@! TD*
G04 #@! TA.AperFunction,Conductor*
%ADD63C,0.300000*%
G04 #@! TD*
G04 #@! TA.AperFunction,Conductor*
%ADD64C,0.500000*%
G04 #@! TD*
G04 #@! TA.AperFunction,Conductor*
%ADD65C,0.160000*%
G04 #@! TD*
G04 #@! TA.AperFunction,Conductor*
%ADD66C,0.400000*%
G04 #@! TD*
G04 #@! TA.AperFunction,Conductor*
%ADD67C,0.480000*%
G04 #@! TD*
G04 #@! TA.AperFunction,Conductor*
%ADD68C,0.320000*%
G04 #@! TD*
G04 APERTURE END LIST*
D10*
G04 #@! TA.AperFunction,EtchedComponent*
G36*
X127650000Y-82750000D02*
G01*
X126150000Y-82750000D01*
X126150000Y-81250000D01*
X127650000Y-81250000D01*
X127650000Y-82750000D01*
G37*
G04 #@! TD.AperFunction*
G04 #@! TA.AperFunction,EtchedComponent*
G36*
X67800000Y-28300000D02*
G01*
X66800000Y-28300000D01*
X66800000Y-27800000D01*
X67800000Y-27800000D01*
X67800000Y-28300000D01*
G37*
G04 #@! TD.AperFunction*
D11*
X116464500Y-74104950D03*
X116464500Y-76004950D03*
X118739500Y-75054950D03*
D12*
X43960000Y-76625000D03*
X42990000Y-76625000D03*
D13*
X119242000Y-37354950D03*
X120262000Y-37354950D03*
D14*
X100752000Y-36294950D03*
X100752000Y-37254950D03*
D15*
X91050000Y-52890000D03*
X91050000Y-53910000D03*
X113702000Y-65644950D03*
X113702000Y-66664950D03*
D16*
X97020000Y-50400000D03*
X97020000Y-49380000D03*
D17*
X42975000Y-78860000D03*
X42975000Y-77890000D03*
D18*
X121452000Y-64934950D03*
X121452000Y-63974950D03*
D14*
X104702000Y-67624950D03*
X104702000Y-68584950D03*
D19*
X49500000Y-59500000D03*
D20*
X111952000Y-73619950D03*
X111952000Y-74589950D03*
D21*
X44500000Y-47700000D03*
X44500000Y-49600000D03*
X44500000Y-51600000D03*
X44500000Y-53600000D03*
X44500000Y-55600000D03*
D15*
X57980000Y-69635050D03*
X57980000Y-70655050D03*
D14*
X101092000Y-68224950D03*
X101092000Y-69184950D03*
D13*
X119242000Y-39504950D03*
X120262000Y-39504950D03*
D22*
X71762000Y-23464950D03*
D23*
X71762000Y-26004950D03*
X71762000Y-38704950D03*
X71762000Y-41244950D03*
X71762000Y-43784950D03*
X71762000Y-53944950D03*
X71762000Y-56484950D03*
X71762000Y-59024950D03*
X71762000Y-61564950D03*
X71762000Y-64104950D03*
X71762000Y-66644950D03*
X71762000Y-69184950D03*
X71762000Y-71724950D03*
X71762000Y-74264950D03*
X71762000Y-76804950D03*
X71762000Y-79344950D03*
X71762000Y-81884950D03*
X87002000Y-81884950D03*
X87002000Y-79344950D03*
X87002000Y-76804950D03*
X87002000Y-74264950D03*
X87002000Y-71724950D03*
X87002000Y-66644950D03*
X87002000Y-64104950D03*
X87002000Y-61564950D03*
X87002000Y-59024950D03*
X87002000Y-56484950D03*
X87002000Y-53944950D03*
X87002000Y-51404950D03*
X87002000Y-48864950D03*
X87002000Y-46324950D03*
X87002000Y-43784950D03*
X87002000Y-41244950D03*
X87002000Y-38704950D03*
X87002000Y-36164950D03*
X87002000Y-33624950D03*
X87002000Y-31084950D03*
X87002000Y-28544950D03*
X87002000Y-26004950D03*
X87002000Y-23464950D03*
X84462000Y-26004950D03*
X74302000Y-69184950D03*
X76842000Y-69184950D03*
X79382000Y-69184950D03*
X74812800Y-37384150D03*
X74812800Y-39924150D03*
D24*
X84563600Y-36434950D03*
D25*
X82563600Y-36434950D03*
X80563600Y-36434950D03*
X80563600Y-38434950D03*
X82563600Y-38434950D03*
X84563600Y-38434950D03*
X80652000Y-24194950D03*
X78112000Y-24194950D03*
D16*
X104892000Y-48624950D03*
X104892000Y-47604950D03*
D26*
X102493700Y-59529951D03*
X102493700Y-60179949D03*
X102493700Y-60829951D03*
X102493700Y-61479949D03*
X102493700Y-62129948D03*
X102493700Y-62779949D03*
X102493700Y-63429948D03*
X102493700Y-64079949D03*
X108132500Y-64079949D03*
X108132500Y-63429951D03*
X108132500Y-62779949D03*
X108132500Y-62129951D03*
X108132500Y-61479952D03*
X108132500Y-60829951D03*
X108132500Y-60179952D03*
X108132500Y-59529951D03*
D11*
X106164500Y-67554950D03*
X106164500Y-68504950D03*
X106164500Y-69454950D03*
X108439500Y-69454950D03*
X108439500Y-67554950D03*
D14*
X102402000Y-42664950D03*
X102402000Y-43624950D03*
D19*
X109450000Y-78204950D03*
D14*
X118152000Y-34774950D03*
X118152000Y-35734950D03*
D27*
X48489992Y-73788682D03*
X49970008Y-73250000D03*
D28*
X55710000Y-67750000D03*
X54750000Y-67750000D03*
D18*
X43000000Y-75380000D03*
X43000000Y-74420000D03*
D16*
X96650000Y-56320000D03*
X96650000Y-55300000D03*
D14*
X110050000Y-62920000D03*
X110050000Y-63880000D03*
D29*
X115352000Y-56254950D03*
X115352000Y-56904950D03*
X115352000Y-57554950D03*
X115352000Y-58204950D03*
X119752000Y-58204950D03*
X119752000Y-57554950D03*
X119752000Y-56904950D03*
X119752000Y-56254950D03*
D14*
X112702000Y-42124950D03*
X112702000Y-43084950D03*
D30*
X92802000Y-66904950D03*
X92802000Y-67554950D03*
X92802000Y-68204950D03*
X92802000Y-68854950D03*
X98542000Y-68854950D03*
X98542000Y-68204950D03*
X98542000Y-67554950D03*
X98542000Y-66904950D03*
D14*
X111702000Y-42124950D03*
X111702000Y-43084950D03*
D16*
X94500000Y-47250000D03*
X94500000Y-46230000D03*
D14*
X100092000Y-68224950D03*
X100092000Y-69184950D03*
D31*
X54030000Y-72900000D03*
X54030000Y-73300000D03*
X54030000Y-73700000D03*
X54030000Y-74100000D03*
X54030000Y-74500000D03*
X54030000Y-74900000D03*
X54030000Y-75300000D03*
X54030000Y-75700000D03*
X54030000Y-76100000D03*
X54030000Y-76500000D03*
X54030000Y-76900000D03*
X54030000Y-77300000D03*
X54030000Y-77700000D03*
X54030000Y-78100000D03*
D32*
X54880000Y-78950000D03*
X55280000Y-78950000D03*
X55680000Y-78950000D03*
X56080000Y-78950000D03*
X56480000Y-78950000D03*
X56880000Y-78950000D03*
X57280000Y-78950000D03*
X57680000Y-78950000D03*
X58080000Y-78950000D03*
X58480000Y-78950000D03*
X58880000Y-78950000D03*
X59280000Y-78950000D03*
X59680000Y-78950000D03*
X60080000Y-78950000D03*
D31*
X60930000Y-78100000D03*
X60930000Y-77700000D03*
X60930000Y-77300000D03*
X60930000Y-76900000D03*
X60930000Y-76500000D03*
X60930000Y-76100000D03*
X60930000Y-75700000D03*
X60930000Y-75300000D03*
X60930000Y-74900000D03*
X60930000Y-74500000D03*
X60930000Y-74100000D03*
X60930000Y-73700000D03*
X60930000Y-73300000D03*
X60930000Y-72900000D03*
D32*
X60080000Y-72050000D03*
X59680000Y-72050000D03*
X59280000Y-72050000D03*
X58880000Y-72050000D03*
X58480000Y-72050000D03*
X58080000Y-72050000D03*
X57680000Y-72050000D03*
X57280000Y-72050000D03*
X56880000Y-72050000D03*
X56480000Y-72050000D03*
X56080000Y-72050000D03*
X55680000Y-72050000D03*
X55280000Y-72050000D03*
X54880000Y-72050000D03*
D33*
X57480000Y-75500000D03*
D16*
X96650000Y-63460000D03*
X96650000Y-62440000D03*
D15*
X97200000Y-52890000D03*
X97200000Y-53910000D03*
X94200000Y-55300000D03*
X94200000Y-56320000D03*
X101652000Y-48494950D03*
X101652000Y-49514950D03*
D34*
X99402000Y-36374950D03*
X98382000Y-36374950D03*
D19*
X116550000Y-77900000D03*
D16*
X91350000Y-50460000D03*
X91350000Y-49440000D03*
D14*
X121252000Y-55974950D03*
X121252000Y-56934950D03*
X50200000Y-77520000D03*
X50200000Y-78480000D03*
X51350000Y-77570000D03*
X51350000Y-78530000D03*
D16*
X94150000Y-53910000D03*
X94150000Y-52890000D03*
D18*
X98842000Y-51474950D03*
X98842000Y-50514950D03*
D19*
X111500000Y-69250000D03*
D16*
X106242000Y-48624950D03*
X106242000Y-47604950D03*
D14*
X106402000Y-74454950D03*
X106402000Y-75414950D03*
D18*
X110952000Y-76784950D03*
X110952000Y-75824950D03*
D35*
X43000000Y-81300000D03*
X43000000Y-84700000D03*
D36*
X127400000Y-81500000D03*
X127400000Y-82500000D03*
X126400000Y-81500000D03*
X126400000Y-82500000D03*
D37*
X92202000Y-24854950D03*
X92202000Y-25804950D03*
X92202000Y-26754950D03*
X94702000Y-26754950D03*
X94702000Y-25804950D03*
X94702000Y-24854950D03*
D16*
X91850000Y-63410000D03*
X91850000Y-62390000D03*
X52500000Y-76110000D03*
X52500000Y-75090000D03*
D13*
X115012000Y-37454950D03*
X116032000Y-37454950D03*
X115072000Y-41654950D03*
X116092000Y-41654950D03*
D14*
X54750000Y-80320000D03*
X54750000Y-81280000D03*
D18*
X103402000Y-41704950D03*
X103402000Y-40744950D03*
D14*
X118102000Y-39474950D03*
X118102000Y-40434950D03*
X100752000Y-38344950D03*
X100752000Y-39304950D03*
D13*
X114852000Y-60304950D03*
X115872000Y-60304950D03*
D16*
X91650000Y-56270000D03*
X91650000Y-55250000D03*
D36*
X66800000Y-28050000D03*
X67800000Y-28050000D03*
D14*
X113892000Y-41614950D03*
X113892000Y-42574950D03*
D16*
X108842000Y-51384950D03*
X108842000Y-50364950D03*
D15*
X91650000Y-59740000D03*
X91650000Y-60760000D03*
X94400000Y-49440000D03*
X94400000Y-50460000D03*
D38*
X58730000Y-81450000D03*
X56230000Y-81450000D03*
D14*
X100752000Y-40394950D03*
X100752000Y-41354950D03*
D15*
X96950000Y-46261300D03*
X96950000Y-47281300D03*
D34*
X99402000Y-38324950D03*
X98382000Y-38324950D03*
D13*
X119502000Y-61754950D03*
X120522000Y-61754950D03*
D14*
X118102000Y-37324950D03*
X118102000Y-38284950D03*
D15*
X92300000Y-46340000D03*
X92300000Y-47360000D03*
D34*
X99452000Y-40374950D03*
X98432000Y-40374950D03*
D14*
X109902000Y-67474950D03*
X109902000Y-68434950D03*
D18*
X53230000Y-69980000D03*
X53230000Y-69020000D03*
D13*
X108752000Y-35254950D03*
X109772000Y-35254950D03*
X119142000Y-34804950D03*
X120162000Y-34804950D03*
D34*
X109762000Y-34154950D03*
X108742000Y-34154950D03*
D29*
X115602000Y-64979950D03*
X115602000Y-65629950D03*
X115602000Y-66279950D03*
X115602000Y-66929950D03*
X120002000Y-66929950D03*
X120002000Y-66279950D03*
X120002000Y-65629950D03*
X120002000Y-64979950D03*
D39*
X63350000Y-32750000D03*
X48150000Y-32750000D03*
D40*
X55750000Y-32750000D03*
D41*
X104602000Y-38154950D03*
X104602000Y-38654950D03*
X104602000Y-39154950D03*
X104602000Y-39654950D03*
X104602000Y-40154950D03*
X104602000Y-40654950D03*
X104602000Y-41154950D03*
X104602000Y-41654950D03*
X104602000Y-42154950D03*
X104602000Y-42654950D03*
D42*
X105302000Y-43354950D03*
X105802000Y-43354950D03*
X106302000Y-43354950D03*
X106802000Y-43354950D03*
X107302000Y-43354950D03*
X107802000Y-43354950D03*
X108302000Y-43354950D03*
X108802000Y-43354950D03*
X109302000Y-43354950D03*
X109802000Y-43354950D03*
D41*
X110502000Y-42654950D03*
X110502000Y-42154950D03*
X110502000Y-41654950D03*
X110502000Y-41154950D03*
X110502000Y-40654950D03*
X110502000Y-40154950D03*
X110502000Y-39654950D03*
X110502000Y-39154950D03*
X110502000Y-38654950D03*
X110502000Y-38154950D03*
D42*
X109802000Y-37454950D03*
X109302000Y-37454950D03*
X108802000Y-37454950D03*
X108302000Y-37454950D03*
X107802000Y-37454950D03*
X107302000Y-37454950D03*
X106802000Y-37454950D03*
X106302000Y-37454950D03*
X105802000Y-37454950D03*
X105302000Y-37454950D03*
D33*
X107552000Y-40404950D03*
D19*
X94500000Y-70750000D03*
D28*
X50880000Y-68200000D03*
X49920000Y-68200000D03*
D43*
X54805000Y-70275000D03*
X56155000Y-70275000D03*
X56155000Y-69225000D03*
X54805000Y-69225000D03*
D44*
X56000000Y-83450000D03*
X56960000Y-83450000D03*
D28*
X58960000Y-83450000D03*
X58000000Y-83450000D03*
D13*
X117152000Y-61754950D03*
X118172000Y-61754950D03*
D45*
X46730000Y-73744341D03*
X46730000Y-75294341D03*
D16*
X94250000Y-63460000D03*
X94250000Y-62440000D03*
D46*
X124002000Y-74470700D03*
X124002000Y-70056700D03*
D18*
X107742000Y-51504950D03*
X107742000Y-50544950D03*
D28*
X50730000Y-75300000D03*
X49770000Y-75300000D03*
D14*
X89150000Y-22970000D03*
X89150000Y-23930000D03*
D15*
X90476000Y-24544950D03*
X90476000Y-25564950D03*
D47*
X129022000Y-64054950D03*
X129022000Y-61768950D03*
X129022000Y-59482950D03*
X129022000Y-57196950D03*
X129022000Y-54910950D03*
X129022000Y-52624950D03*
X129022000Y-50338950D03*
X129022000Y-48052950D03*
X129022000Y-45766950D03*
X129022000Y-43480950D03*
X129022000Y-41194950D03*
X129022000Y-38908950D03*
X129022000Y-36622950D03*
X129022000Y-34336950D03*
X129022000Y-32050950D03*
X131562000Y-65197950D03*
X131562000Y-62911950D03*
X131562000Y-60625950D03*
X131562000Y-58339950D03*
X131562000Y-56053950D03*
X131562000Y-53767950D03*
X131562000Y-51481950D03*
X131562000Y-49195950D03*
X131562000Y-46909950D03*
X131562000Y-44623950D03*
X131562000Y-42337950D03*
X131562000Y-40051950D03*
X131562000Y-37765950D03*
X131562000Y-35479950D03*
X131562000Y-33193950D03*
X134102000Y-64054950D03*
X134102000Y-61768950D03*
X134102000Y-59482950D03*
X134102000Y-57196950D03*
X134102000Y-54910950D03*
X134102000Y-52624950D03*
X134102000Y-50338950D03*
X134102000Y-48052950D03*
X134102000Y-45766950D03*
X134102000Y-43480950D03*
X134102000Y-41194950D03*
X134102000Y-38908950D03*
X134102000Y-36622950D03*
X134102000Y-34336950D03*
D48*
X131562000Y-72080950D03*
X131562000Y-25040950D03*
D15*
X102752000Y-48494950D03*
X102752000Y-49514950D03*
X97100000Y-59790000D03*
X97100000Y-60810000D03*
D14*
X103402000Y-42644950D03*
X103402000Y-43604950D03*
X113922000Y-39524950D03*
X113922000Y-40484950D03*
D49*
X107652000Y-74117450D03*
X107652000Y-74617450D03*
X107652000Y-75117450D03*
X107652000Y-75617450D03*
X109752000Y-75617450D03*
X109752000Y-75117450D03*
X109752000Y-74617450D03*
X109752000Y-74117450D03*
D50*
X108702000Y-74867450D03*
D14*
X114952000Y-73724950D03*
X114952000Y-74684950D03*
D13*
X117142000Y-60304950D03*
X118162000Y-60304950D03*
X109942000Y-45554950D03*
X110962000Y-45554950D03*
X114042000Y-33834950D03*
X115062000Y-33834950D03*
D14*
X96076000Y-24574950D03*
X96076000Y-25534950D03*
X49100000Y-77520000D03*
X49100000Y-78480000D03*
D18*
X102402000Y-41704950D03*
X102402000Y-40744950D03*
D13*
X115062000Y-39554950D03*
X116082000Y-39554950D03*
D51*
X65385000Y-56445000D03*
X65385000Y-55175000D03*
X65385000Y-53905000D03*
X65385000Y-52635000D03*
X65385000Y-51365000D03*
X65385000Y-50095000D03*
X65385000Y-48825000D03*
X65385000Y-47555000D03*
X56615000Y-47555000D03*
X56615000Y-48825000D03*
X56615000Y-50095000D03*
X56615000Y-51365000D03*
X56615000Y-52635000D03*
X56615000Y-53905000D03*
X56615000Y-55175000D03*
X56615000Y-56445000D03*
D13*
X108852000Y-72804950D03*
X109872000Y-72804950D03*
D52*
X51632566Y-72826433D03*
X51102434Y-71369909D03*
D15*
X90977000Y-68844950D03*
X90977000Y-69864950D03*
D14*
X113932000Y-37404950D03*
X113932000Y-38364950D03*
X99932500Y-61149949D03*
X99932500Y-62109949D03*
D28*
X50880000Y-67000000D03*
X49920000Y-67000000D03*
D53*
X100354000Y-50749950D03*
X100354000Y-51399950D03*
X100354000Y-52049950D03*
X100354000Y-52699950D03*
X100354000Y-53349950D03*
X100354000Y-53999950D03*
X100354000Y-54649950D03*
X100354000Y-55299950D03*
X100354000Y-55949950D03*
X100354000Y-56599950D03*
X106230000Y-56599950D03*
X106230000Y-55949950D03*
X106230000Y-55299950D03*
X106230000Y-54649950D03*
X106230000Y-53999950D03*
X106230000Y-53349950D03*
X106230000Y-52699950D03*
X106230000Y-52049950D03*
X106230000Y-51399950D03*
X106230000Y-50749950D03*
D16*
X94250000Y-60910000D03*
X94250000Y-59890000D03*
D15*
X113502000Y-56694950D03*
X113502000Y-57714950D03*
D28*
X50880000Y-69300000D03*
X49920000Y-69300000D03*
D54*
X49765000Y-76500000D03*
X50735000Y-76500000D03*
D44*
X110572000Y-44554950D03*
X111532000Y-44554950D03*
D14*
X113052000Y-33804950D03*
X113052000Y-34764950D03*
D18*
X100092000Y-66934950D03*
X100092000Y-65974950D03*
D28*
X105582000Y-36254950D03*
X104622000Y-36254950D03*
D13*
X114832000Y-61774950D03*
X115852000Y-61774950D03*
D14*
X102092000Y-68224950D03*
X102092000Y-69184950D03*
D34*
X93060000Y-65550000D03*
X92040000Y-65550000D03*
D13*
X119492000Y-60304950D03*
X120512000Y-60304950D03*
D14*
X100932500Y-61149949D03*
X100932500Y-62109949D03*
D55*
X110502000Y-34654950D03*
X95952000Y-23854950D03*
X121138525Y-63661475D03*
X114702000Y-42455950D03*
X121300000Y-67150000D03*
X105302000Y-35704950D03*
D56*
X60000000Y-28750000D03*
D55*
X100152235Y-41904715D03*
X100252000Y-37254950D03*
X122102000Y-60404950D03*
X119152000Y-38354950D03*
X118400000Y-62250000D03*
X120250000Y-62400000D03*
X107502000Y-76054950D03*
X119701236Y-40605714D03*
X99000000Y-32000000D03*
X99000000Y-28500000D03*
X89250000Y-31750000D03*
X98250000Y-25250000D03*
X101712000Y-40744950D03*
X121952000Y-57050000D03*
X118702000Y-58854950D03*
X100152000Y-39304950D03*
X91202000Y-26154950D03*
X127150000Y-80750000D03*
X99250000Y-26750000D03*
X113750000Y-34764950D03*
X101452000Y-43804950D03*
X105102000Y-44404950D03*
X109552000Y-76354950D03*
X119301265Y-36254215D03*
D57*
X66800000Y-28050000D03*
D55*
X114802000Y-40504950D03*
X113250000Y-39000000D03*
X58200000Y-67900000D03*
X52300000Y-77850000D03*
X51450000Y-66350000D03*
X102500000Y-38000000D03*
D58*
X61250000Y-69000000D03*
D59*
X67000000Y-64000000D03*
X61335000Y-66000000D03*
X68928475Y-58928475D03*
D55*
X121752000Y-52554950D03*
X111328475Y-66778475D03*
X114702000Y-62654950D03*
X107252000Y-36356423D03*
X102852000Y-68554950D03*
X109500000Y-71500000D03*
D57*
X111002000Y-71654950D03*
X90550000Y-68000000D03*
D59*
X52430563Y-59569437D03*
D57*
X96500000Y-26000000D03*
X119552000Y-55104950D03*
D59*
X118652000Y-65154950D03*
D57*
X109452000Y-48624950D03*
X98724265Y-62375735D03*
X110615137Y-33862988D03*
X90200000Y-23100000D03*
X104552000Y-43655950D03*
X96550000Y-70750000D03*
X95602000Y-67854950D03*
X94000000Y-65750000D03*
D58*
X65000000Y-63000000D03*
D55*
X104000000Y-36304950D03*
X110223613Y-64773613D03*
D57*
X96150000Y-50400000D03*
X100850000Y-48677007D03*
X93900000Y-30000000D03*
X99116500Y-52129621D03*
X108852000Y-65254950D03*
X96050000Y-46571300D03*
X111602000Y-45754950D03*
X94500000Y-39500000D03*
X102902000Y-53304950D03*
X104790557Y-53104950D03*
X90900000Y-62950000D03*
D55*
X96450000Y-52950000D03*
D57*
X105626236Y-61429186D03*
X90500000Y-60125000D03*
X95400000Y-56350000D03*
X66550000Y-48800000D03*
X65385000Y-55175000D03*
D59*
X114252000Y-75404950D03*
D57*
X105552000Y-75354950D03*
D59*
X120802000Y-75704950D03*
X127500000Y-69500000D03*
D60*
X68907213Y-50938139D03*
X69722850Y-51615148D03*
D55*
X120752000Y-54754950D03*
X121302000Y-61592450D03*
X101952000Y-34404950D03*
X101800000Y-45154950D03*
X121277000Y-66279950D03*
X103800000Y-61500000D03*
X106896715Y-62599665D03*
X107600000Y-45650000D03*
X107200000Y-60829951D03*
D57*
X84752000Y-48254950D03*
D55*
X106953843Y-45380768D03*
X88632760Y-42132760D03*
X82652000Y-61804950D03*
X91500000Y-42000000D03*
X104152000Y-57589500D03*
X106545360Y-36448310D03*
X94350000Y-43184950D03*
D57*
X78312500Y-53312500D03*
D55*
X109052000Y-45604950D03*
X73061846Y-59004797D03*
D57*
X84800000Y-45550000D03*
D55*
X87750000Y-42500000D03*
X97702000Y-40350000D03*
X101302000Y-35004950D03*
D57*
X84752000Y-49254950D03*
X78602000Y-55054950D03*
D55*
X89350000Y-41250000D03*
X82698525Y-62701475D03*
X93300000Y-40850000D03*
D57*
X75552000Y-55854950D03*
D55*
X83952000Y-63004950D03*
X106382453Y-44632453D03*
X121952000Y-58004950D03*
X112552000Y-57554950D03*
X115802000Y-54304950D03*
X117052000Y-54254950D03*
X127500000Y-60750000D03*
X113452000Y-58954950D03*
X119516579Y-48817099D03*
X121750000Y-47504950D03*
X119452000Y-47754950D03*
X118805206Y-53503214D03*
X84102000Y-60454950D03*
X101877000Y-56079950D03*
X89430265Y-58026685D03*
X117749525Y-42602475D03*
X117150000Y-41000000D03*
X110797000Y-55299950D03*
X118902311Y-51908810D03*
X92250000Y-58300000D03*
D57*
X73661846Y-60500000D03*
D59*
X51000000Y-42000000D03*
D55*
X97250000Y-58900000D03*
X118899616Y-52708805D03*
X111852000Y-55999950D03*
D57*
X52137500Y-53200000D03*
D55*
X104650000Y-54050000D03*
X122000000Y-49654950D03*
X96250000Y-52000000D03*
X118902000Y-50304950D03*
X123402000Y-42254950D03*
X123852000Y-35604950D03*
D57*
X49862500Y-53200000D03*
D55*
X98202000Y-41554950D03*
X93100000Y-46550000D03*
X118902000Y-49504947D03*
X123000000Y-48857001D03*
D57*
X49862500Y-51300000D03*
D55*
X116052000Y-38654950D03*
D57*
X52137500Y-51300000D03*
D55*
X92850000Y-53050000D03*
X118901981Y-51108808D03*
X121475235Y-50533185D03*
D57*
X55500000Y-55250000D03*
X56615000Y-48825000D03*
D55*
X87673525Y-52826475D03*
X89102000Y-57154950D03*
X84502000Y-58454950D03*
X102202000Y-54954947D03*
X130352000Y-59229030D03*
X122002000Y-59604950D03*
X104493633Y-65943450D03*
X74500000Y-47500000D03*
X89200000Y-65411563D03*
X122750000Y-38000000D03*
X120252000Y-38604950D03*
X124652000Y-38754950D03*
X123452000Y-39553950D03*
X121863525Y-35636475D03*
D57*
X76802000Y-75004950D03*
D55*
X64500000Y-75000000D03*
D57*
X83752000Y-72604950D03*
D55*
X89700000Y-47100000D03*
X88402000Y-50754950D03*
X92000000Y-48553950D03*
D57*
X84452005Y-50403475D03*
D55*
X108282981Y-45050000D03*
X118552000Y-72004950D03*
X110552000Y-73654950D03*
X114402000Y-73504950D03*
X118852000Y-75804950D03*
X92200000Y-70250000D03*
X104852000Y-69504950D03*
X106452000Y-73704950D03*
X125000000Y-79500000D03*
X94052000Y-66854950D03*
X110102000Y-69204950D03*
X96852000Y-66204950D03*
X102202000Y-69854950D03*
X48000000Y-78500000D03*
X43850000Y-74700000D03*
X57135000Y-63865000D03*
X55200000Y-83650000D03*
X55050000Y-84700000D03*
X58000000Y-82850000D03*
X62000000Y-78500000D03*
X48150000Y-72800000D03*
X57095000Y-66405000D03*
X42200000Y-74450000D03*
X45900000Y-72200000D03*
X49600000Y-68050000D03*
X57500000Y-85000000D03*
X60900000Y-81100000D03*
X44500000Y-75250000D03*
X47400000Y-72150000D03*
X63000000Y-72000000D03*
X57000000Y-62500000D03*
D57*
X92750000Y-33500000D03*
D55*
X62050000Y-83650000D03*
X56000000Y-67000000D03*
X42200000Y-79050000D03*
X93300000Y-60100000D03*
X98850000Y-49950000D03*
X52200000Y-69650000D03*
X95150000Y-62950000D03*
X60700000Y-84450000D03*
X63000000Y-68000000D03*
X48350000Y-75700000D03*
X48000000Y-68500000D03*
X48650000Y-76550000D03*
X106900000Y-63450000D03*
X53000000Y-78500000D03*
X42200000Y-76750000D03*
X65935000Y-64170000D03*
X63350000Y-82800000D03*
X57150000Y-68800000D03*
X43050000Y-72450000D03*
X53000000Y-76800000D03*
D57*
X68500000Y-47600000D03*
D55*
X49360000Y-72400000D03*
X42500000Y-68500000D03*
X45200000Y-71000000D03*
X45750000Y-75250000D03*
X45500000Y-78500000D03*
X57480000Y-84000000D03*
X60100000Y-83550000D03*
X43950000Y-73000000D03*
X42700000Y-71000000D03*
X65750000Y-68235000D03*
X63200000Y-81200000D03*
X56150000Y-84500000D03*
X126150000Y-83050000D03*
X54000000Y-67500000D03*
X46750000Y-76000000D03*
X54000000Y-71250000D03*
X48200000Y-71000000D03*
X54500000Y-68500000D03*
X53350000Y-70900000D03*
X43800000Y-79050000D03*
X43800000Y-77900000D03*
X107308525Y-49991475D03*
X44350000Y-78450000D03*
X63500000Y-85000000D03*
X50000000Y-74300000D03*
X45250000Y-74550000D03*
X59500000Y-85000000D03*
X60000000Y-70500000D03*
X60950000Y-82800000D03*
X45000000Y-76250000D03*
X93200000Y-50300000D03*
X53500000Y-68500000D03*
X52200000Y-67350000D03*
X57135000Y-65135000D03*
X42850000Y-73500000D03*
X48500000Y-74850000D03*
X43850000Y-75850000D03*
X56750000Y-67800000D03*
X54800000Y-67050000D03*
X95250000Y-33500000D03*
X94450000Y-45650000D03*
X55000000Y-82500000D03*
X51950000Y-68650000D03*
X47500000Y-75500000D03*
X100400000Y-60800000D03*
X49000000Y-70000000D03*
X44650000Y-72300000D03*
X59950000Y-81850000D03*
X43500000Y-66500000D03*
X63500000Y-79500000D03*
X47900000Y-53400000D03*
X48500000Y-71950000D03*
D57*
X67950000Y-53075000D03*
X67800000Y-28050000D03*
D55*
X56000000Y-70500000D03*
X62000000Y-81900000D03*
X59150000Y-70750000D03*
X57480000Y-83000000D03*
X51684741Y-71157894D03*
X58650000Y-84150000D03*
D57*
X53300000Y-52450000D03*
D55*
X53199230Y-68039314D03*
X54000000Y-68000000D03*
X45000000Y-68500000D03*
X49550000Y-71650000D03*
X62050000Y-85150000D03*
X94771913Y-52771913D03*
D57*
X53000000Y-49500000D03*
D55*
X45350000Y-73000000D03*
X42200000Y-77900000D03*
X93200000Y-56350000D03*
X112352000Y-44554950D03*
X49450000Y-66750000D03*
X57480000Y-75500000D03*
X42200000Y-75600000D03*
X53300000Y-67000000D03*
X56950000Y-82850000D03*
X60000000Y-80450000D03*
X49450000Y-68950000D03*
D57*
X53957990Y-54082990D03*
D55*
X46500000Y-70000000D03*
X45000000Y-77250000D03*
X58000000Y-69000000D03*
X59050000Y-69750000D03*
X63000000Y-70000000D03*
X50500000Y-71600000D03*
X46500000Y-66500000D03*
X43500000Y-70000000D03*
X109700000Y-44550000D03*
X63000000Y-74000000D03*
X61950000Y-80400000D03*
X46700000Y-72750000D03*
X55400000Y-66400000D03*
X50750000Y-70500000D03*
X128200000Y-82250000D03*
D61*
X103402000Y-43604950D02*
X102422000Y-43604950D01*
X120512000Y-60304950D02*
X121352000Y-60304950D01*
X104602000Y-38654950D02*
X105802000Y-38654950D01*
X121772000Y-56934950D02*
X121252000Y-56934950D01*
X89150000Y-23930000D02*
X89150000Y-24100000D01*
X110744500Y-75617450D02*
X110952000Y-75824950D01*
X119500473Y-40404950D02*
X119701236Y-40605714D01*
X119352000Y-58204950D02*
X118702000Y-58854950D01*
X113750000Y-34764950D02*
X113052000Y-34764950D01*
X113250000Y-39000000D02*
X113296950Y-39000000D01*
X100352000Y-41754950D02*
X100302000Y-41754950D01*
X105302000Y-44204950D02*
X105102000Y-44404950D01*
X113296950Y-39000000D02*
X113932000Y-38364950D01*
X105351000Y-43305950D02*
X105351000Y-42605950D01*
X120522000Y-61834950D02*
X120522000Y-61754950D01*
X105582000Y-35984950D02*
X105302000Y-35704950D01*
X127400000Y-81000000D02*
X127150000Y-80750000D01*
X105582000Y-36254950D02*
X105802000Y-36474950D01*
X118102000Y-38284950D02*
X119082000Y-38284950D01*
X105802000Y-38654950D02*
X107552000Y-40404950D01*
X96076000Y-24574950D02*
X96076000Y-23978950D01*
X109752000Y-75617450D02*
X109752000Y-76154950D01*
X118832000Y-35734950D02*
X119002000Y-35904950D01*
X107652000Y-75904950D02*
X107502000Y-76054950D01*
X113922000Y-40484950D02*
X114782000Y-40484950D01*
X100752000Y-39304950D02*
X100152000Y-39304950D01*
X120947050Y-67150000D02*
X120727000Y-66929950D01*
X105802000Y-36474950D02*
X105802000Y-37454950D01*
D62*
X59750000Y-28750000D02*
X55750000Y-32750000D01*
D61*
X100302000Y-41754950D02*
X100152235Y-41904715D01*
X113892000Y-42574950D02*
X114722000Y-42574950D01*
X91652000Y-25804950D02*
X91202000Y-26254950D01*
X121452000Y-60404950D02*
X122102000Y-60404950D01*
X91202000Y-26254950D02*
X91202000Y-26154950D01*
X97574950Y-24574950D02*
X98250000Y-25250000D01*
X114782000Y-40484950D02*
X114802000Y-40504950D01*
X107552000Y-40404950D02*
X106302000Y-41654950D01*
X107652000Y-75617450D02*
X107652000Y-75904950D01*
X100252000Y-37254950D02*
X100752000Y-37254950D01*
X118162000Y-60304950D02*
X118162000Y-59744950D01*
X119002000Y-35904950D02*
X119301265Y-36204215D01*
X109752000Y-75617450D02*
X110744500Y-75617450D01*
X118172000Y-62022000D02*
X118400000Y-62250000D01*
X120522000Y-61754950D02*
X120522000Y-62128000D01*
X119301265Y-36204215D02*
X119301265Y-36254215D01*
X127400000Y-81500000D02*
X127400000Y-81000000D01*
X118102000Y-40434950D02*
X119022000Y-40434950D01*
X118162000Y-59744950D02*
X118452000Y-59454950D01*
X102422000Y-43604950D02*
X102402000Y-43624950D01*
X105302000Y-43354950D02*
X105351000Y-43305950D01*
X121138525Y-63661475D02*
X121452000Y-63974950D01*
X114702000Y-42554950D02*
X114702000Y-42455950D01*
X121887050Y-57050000D02*
X121772000Y-56934950D01*
X119052000Y-40404950D02*
X119500473Y-40404950D01*
X103402000Y-40744950D02*
X102402000Y-40744950D01*
X105351000Y-42605950D02*
X107552000Y-40404950D01*
X118172000Y-61754950D02*
X118172000Y-62022000D01*
X101632000Y-43624950D02*
X101452000Y-43804950D01*
X56000000Y-32750000D02*
X55750000Y-32750000D01*
X114722000Y-42574950D02*
X114702000Y-42554950D01*
X100752000Y-41354950D02*
X100352000Y-41754950D01*
X106302000Y-41654950D02*
X104602000Y-41654950D01*
X121952000Y-57050000D02*
X121887050Y-57050000D01*
X119082000Y-38284950D02*
X119152000Y-38354950D01*
X109902000Y-35254950D02*
X110502000Y-34654950D01*
X121402000Y-60354950D02*
X121452000Y-60404950D01*
X118702000Y-59204950D02*
X118702000Y-58854950D01*
X109772000Y-35254950D02*
X109902000Y-35254950D01*
X101702000Y-40754950D02*
X101712000Y-40744950D01*
X118452000Y-59454950D02*
X118702000Y-59204950D01*
X88902000Y-24104950D02*
X87002000Y-26004950D01*
X119022000Y-40434950D02*
X119052000Y-40404950D01*
X119752000Y-58204950D02*
X119352000Y-58204950D01*
X121352000Y-60304950D02*
X121402000Y-60354950D01*
X121300000Y-67150000D02*
X120947050Y-67150000D01*
X96076000Y-24574950D02*
X97574950Y-24574950D01*
D62*
X60000000Y-28750000D02*
X59750000Y-28750000D01*
D61*
X120727000Y-66929950D02*
X120002000Y-66929950D01*
X118152000Y-35734950D02*
X118832000Y-35734950D01*
X105302000Y-43354950D02*
X105302000Y-44204950D01*
X96076000Y-23978950D02*
X95952000Y-23854950D01*
X109752000Y-76154950D02*
X109552000Y-76354950D01*
X102402000Y-40744950D02*
X101712000Y-40744950D01*
X120522000Y-62128000D02*
X120250000Y-62400000D01*
X102402000Y-43624950D02*
X101632000Y-43624950D01*
X105582000Y-36254950D02*
X105582000Y-35984950D01*
X92202000Y-25804950D02*
X91652000Y-25804950D01*
D63*
X50880000Y-69300000D02*
X50880000Y-68200000D01*
X60054000Y-77596000D02*
X60054000Y-73122000D01*
X51350000Y-77570000D02*
X52020000Y-77570000D01*
D61*
X59650000Y-78000000D02*
X59750000Y-78100000D01*
D63*
X57480000Y-78000000D02*
X59650000Y-78000000D01*
D61*
X102654950Y-38154950D02*
X102500000Y-38000000D01*
X68928475Y-58928475D02*
X68702000Y-59154950D01*
D63*
X53341479Y-72050000D02*
X52251000Y-70959521D01*
D61*
X56650000Y-79800000D02*
X55270000Y-79800000D01*
D63*
X50880000Y-67000000D02*
X50880000Y-66920000D01*
X49765000Y-76500000D02*
X49765000Y-76855000D01*
X55124000Y-72050000D02*
X53341479Y-72050000D01*
D61*
X104602000Y-38154950D02*
X102654950Y-38154950D01*
D63*
X52020000Y-77570000D02*
X52300000Y-77850000D01*
X55124000Y-72931000D02*
X55124000Y-72050000D01*
D61*
X68702000Y-62500000D02*
X67202000Y-64000000D01*
X58880000Y-72050000D02*
X58880000Y-72600000D01*
D63*
X50880000Y-68200000D02*
X50880000Y-67000000D01*
X51350000Y-77570000D02*
X50250000Y-77570000D01*
D61*
X56880000Y-78950000D02*
X56880000Y-79570000D01*
D63*
X55193000Y-73000000D02*
X58480000Y-73000000D01*
D61*
X55270000Y-79800000D02*
X54750000Y-80320000D01*
D63*
X52251000Y-70959521D02*
X52251000Y-70671000D01*
X49765000Y-76855000D02*
X49100000Y-77520000D01*
X50200000Y-77520000D02*
X49100000Y-77520000D01*
D61*
X56880000Y-79570000D02*
X56650000Y-79800000D01*
X56880000Y-78950000D02*
X56880000Y-78100000D01*
X56880000Y-78100000D02*
X56980000Y-78000000D01*
D63*
X50880000Y-66920000D02*
X51450000Y-66350000D01*
D61*
X58880000Y-72600000D02*
X58480000Y-73000000D01*
X56980000Y-78000000D02*
X57480000Y-78000000D01*
D63*
X59932000Y-73000000D02*
X58480000Y-73000000D01*
D61*
X50250000Y-77570000D02*
X50200000Y-77520000D01*
X67202000Y-64000000D02*
X67000000Y-64000000D01*
D63*
X52251000Y-70671000D02*
X50880000Y-69300000D01*
D61*
X68702000Y-59154950D02*
X68702000Y-62500000D01*
X59750000Y-78100000D02*
X60930000Y-78100000D01*
D63*
X60054000Y-73122000D02*
X59932000Y-73000000D01*
X59650000Y-78000000D02*
X60054000Y-77596000D01*
D61*
X115070943Y-60925950D02*
X118481340Y-60925950D01*
X122075943Y-58730950D02*
X122553000Y-58253893D01*
X107302000Y-36406423D02*
X107302000Y-37454950D01*
X110632000Y-67474950D02*
X109902000Y-67474950D01*
X109902000Y-67474950D02*
X108632000Y-67474950D01*
X111328475Y-66778475D02*
X111328475Y-67121525D01*
X114852000Y-61754950D02*
X114832000Y-61774950D01*
X108632000Y-67474950D02*
X108552000Y-67554950D01*
X111500000Y-68342950D02*
X110632000Y-67474950D01*
X120125660Y-58730950D02*
X122075943Y-58730950D01*
X107252000Y-36356423D02*
X107302000Y-36406423D01*
X109902000Y-67254950D02*
X109902000Y-67474950D01*
X111328475Y-67121525D02*
X110975050Y-67474950D01*
X118481340Y-60925950D02*
X118921000Y-60486290D01*
X110975050Y-67474950D02*
X110632000Y-67474950D01*
X118921000Y-59935610D02*
X120125660Y-58730950D01*
X114852000Y-60707007D02*
X115070943Y-60925950D01*
X122553000Y-53455950D02*
X121752000Y-52654950D01*
X111500000Y-69250000D02*
X111500000Y-68342950D01*
X118921000Y-60486290D02*
X118921000Y-59935610D01*
X121752000Y-52654950D02*
X121752000Y-52554950D01*
X114702000Y-61904950D02*
X114832000Y-61774950D01*
X114702000Y-62654950D02*
X114702000Y-61904950D01*
X122553000Y-58253893D02*
X122553000Y-53455950D01*
X114852000Y-60304950D02*
X114852000Y-61754950D01*
X102522000Y-68224950D02*
X102852000Y-68554950D01*
X101092000Y-68224950D02*
X100092000Y-68224950D01*
D63*
X111202000Y-71654950D02*
X112802000Y-73254950D01*
D61*
X102092000Y-68224950D02*
X102522000Y-68224950D01*
D63*
X109872000Y-71872000D02*
X109500000Y-71500000D01*
D61*
X110364500Y-75054950D02*
X110302000Y-75117450D01*
D63*
X111002000Y-71654950D02*
X111202000Y-71654950D01*
X110302000Y-75117450D02*
X109752000Y-75117450D01*
X111172000Y-76784950D02*
X110952000Y-76784950D01*
D64*
X111952000Y-76004950D02*
X111952000Y-74589950D01*
D63*
X111952000Y-74589950D02*
X111487000Y-75054950D01*
D61*
X98562000Y-68224950D02*
X98542000Y-68204950D01*
D63*
X109872000Y-72434950D02*
X109872000Y-72804950D01*
D64*
X112317000Y-74589950D02*
X111952000Y-74589950D01*
D61*
X102092000Y-68224950D02*
X101092000Y-68224950D01*
D64*
X109532000Y-78204950D02*
X110952000Y-76784950D01*
D63*
X111487000Y-75054950D02*
X110364500Y-75054950D01*
X112802000Y-74104950D02*
X112317000Y-74589950D01*
X109872000Y-72434950D02*
X109872000Y-71872000D01*
X112802000Y-73254950D02*
X112802000Y-74104950D01*
D61*
X100092000Y-68224950D02*
X98562000Y-68224950D01*
X109450000Y-78204950D02*
X109532000Y-78204950D01*
D64*
X111952000Y-76004950D02*
X111172000Y-76784950D01*
D65*
X52361126Y-59500000D02*
X52430563Y-59569437D01*
D61*
X98572000Y-66934950D02*
X98542000Y-66904950D01*
D63*
X98542000Y-66904950D02*
X95202000Y-66904950D01*
D62*
X52430563Y-59569437D02*
X48461126Y-55600000D01*
D65*
X49500000Y-59500000D02*
X52361126Y-59500000D01*
D63*
X95202000Y-66904950D02*
X93902000Y-68204950D01*
X90550000Y-68000000D02*
X90700000Y-68000000D01*
X90904950Y-68204950D02*
X92802000Y-68204950D01*
X100092000Y-66934950D02*
X98572000Y-66934950D01*
D62*
X48461126Y-55600000D02*
X44500000Y-55600000D01*
D63*
X93902000Y-68204950D02*
X92802000Y-68204950D01*
X90700000Y-68000000D02*
X90904950Y-68204950D01*
X94502000Y-25604950D02*
X94702000Y-25804950D01*
X98493000Y-67505950D02*
X95951000Y-67505950D01*
X89150000Y-22970000D02*
X89970000Y-22970000D01*
D61*
X109762000Y-34154950D02*
X109962000Y-33954950D01*
D63*
X103402000Y-42644950D02*
X102422000Y-42644950D01*
D61*
X102422000Y-42644950D02*
X102402000Y-42664950D01*
D63*
X106242000Y-48624950D02*
X104892000Y-48624950D01*
D61*
X96096000Y-25554950D02*
X96076000Y-25534950D01*
D63*
X109452000Y-48624950D02*
X106242000Y-48624950D01*
X98990051Y-62109949D02*
X98724265Y-62375735D01*
D61*
X104592000Y-42644950D02*
X104602000Y-42654950D01*
D63*
X119552000Y-56054950D02*
X119752000Y-56254950D01*
X109452000Y-48624950D02*
X109802000Y-48974950D01*
X89120000Y-23000000D02*
X89150000Y-22970000D01*
X94702000Y-25804950D02*
X95806000Y-25804950D01*
X104552000Y-43655950D02*
X104802000Y-43405950D01*
D61*
X90100000Y-23100000D02*
X90200000Y-23100000D01*
X110602000Y-33954950D02*
X110602000Y-33876125D01*
D63*
X109802000Y-50424950D02*
X108842000Y-51384950D01*
D61*
X89970000Y-22970000D02*
X90100000Y-23100000D01*
D63*
X94502000Y-25054950D02*
X94502000Y-25604950D01*
D61*
X102473701Y-62109949D02*
X102493700Y-62129948D01*
X110602000Y-33876125D02*
X110615137Y-33862988D01*
X119837000Y-56339950D02*
X119752000Y-56254950D01*
D63*
X93360000Y-65600000D02*
X93850000Y-65600000D01*
D61*
X107862000Y-51384950D02*
X107742000Y-51504950D01*
D63*
X87002000Y-23464950D02*
X87462000Y-23004950D01*
X100932500Y-62109949D02*
X102473701Y-62109949D01*
X94700000Y-70750000D02*
X96550000Y-70750000D01*
X95951000Y-67505950D02*
X95602000Y-67854950D01*
X100932500Y-62109949D02*
X99932500Y-62109949D01*
X99927501Y-62272499D02*
X99927501Y-62104950D01*
D66*
X121492000Y-64914950D02*
X120067000Y-64914950D01*
D63*
X104802000Y-42854950D02*
X104602000Y-42654950D01*
X120972000Y-56254950D02*
X121252000Y-55974950D01*
D66*
X120002000Y-64979950D02*
X118827000Y-64979950D01*
D63*
X95806000Y-25804950D02*
X96076000Y-25534950D01*
D61*
X120067000Y-64914950D02*
X120002000Y-64979950D01*
D63*
X108842000Y-51384950D02*
X107862000Y-51384950D01*
X99932500Y-62109949D02*
X98990051Y-62109949D01*
D61*
X109962000Y-33954950D02*
X110602000Y-33954950D01*
D63*
X103402000Y-42644950D02*
X104592000Y-42644950D01*
D66*
X118827000Y-64979950D02*
X118652000Y-65154950D01*
D63*
X96500000Y-26000000D02*
X96096000Y-25596000D01*
X96096000Y-25596000D02*
X96096000Y-25554950D01*
X109802000Y-48974950D02*
X109802000Y-50424950D01*
X104802000Y-43405950D02*
X104802000Y-42854950D01*
X87462000Y-23004950D02*
X88872000Y-23004950D01*
D61*
X98542000Y-67554950D02*
X98493000Y-67505950D01*
D63*
X93060000Y-65550000D02*
X93310000Y-65550000D01*
X93850000Y-65600000D02*
X94000000Y-65750000D01*
X93310000Y-65550000D02*
X93360000Y-65600000D01*
D61*
X104602000Y-42654950D02*
X104602000Y-42154950D01*
D63*
X99932500Y-62109949D02*
X99927501Y-62104950D01*
X94702000Y-24854950D02*
X94502000Y-25054950D01*
X119552000Y-55104950D02*
X119552000Y-56054950D01*
X119752000Y-56254950D02*
X120972000Y-56254950D01*
D61*
X104602000Y-41154950D02*
X103952000Y-41154950D01*
X102402000Y-41704950D02*
X103402000Y-41704950D01*
X103952000Y-41154950D02*
X103402000Y-41704950D01*
X110502000Y-42154950D02*
X111672000Y-42154950D01*
X112702000Y-42124950D02*
X111702000Y-42124950D01*
X111672000Y-42154950D02*
X111702000Y-42124950D01*
X117502000Y-74956950D02*
X116452000Y-76006950D01*
X110223613Y-64773613D02*
X110370663Y-64773613D01*
X104622000Y-36774950D02*
X105302000Y-37454950D01*
X104000000Y-36304950D02*
X104572000Y-36304950D01*
X104622000Y-36254950D02*
X104622000Y-36774950D01*
X116464500Y-76004950D02*
X116464500Y-77814500D01*
X116464500Y-77814500D02*
X116550000Y-77900000D01*
X104572000Y-36304950D02*
X104622000Y-36254950D01*
X110370663Y-64773613D02*
X117502000Y-71904950D01*
X117502000Y-71904950D02*
X117502000Y-74956950D01*
D63*
X98842000Y-51474950D02*
X98842000Y-51994950D01*
X93900000Y-38900000D02*
X94500000Y-39500000D01*
X100850000Y-48600000D02*
X100850000Y-48677007D01*
X108132500Y-59529951D02*
X109069100Y-59529951D01*
X110962000Y-45554950D02*
X111402000Y-45554950D01*
X91360000Y-63410000D02*
X90900000Y-62950000D01*
D61*
X98952000Y-52104950D02*
X98976671Y-52129621D01*
D63*
X108852000Y-65554950D02*
X108852000Y-65254950D01*
X110572000Y-44124950D02*
X110572000Y-44554950D01*
X104502000Y-53304950D02*
X104702000Y-53104950D01*
X110572000Y-44554950D02*
X110572000Y-45164950D01*
X109802000Y-43354950D02*
X110572000Y-44124950D01*
X98842000Y-51994950D02*
X98952000Y-52104950D01*
X105626236Y-61180714D02*
X105626236Y-61429186D01*
D61*
X106102000Y-69404950D02*
X106052000Y-69454950D01*
D63*
X109752000Y-60212851D02*
X109752000Y-62097049D01*
X101652000Y-48494950D02*
X102752000Y-48494950D01*
X107252000Y-68854950D02*
X106652000Y-69454950D01*
D61*
X98976671Y-52129621D02*
X99116500Y-52129621D01*
D63*
X91850000Y-63410000D02*
X91360000Y-63410000D01*
D61*
X104702000Y-53104950D02*
X104790557Y-53104950D01*
D63*
X107252000Y-67954950D02*
X107252000Y-68854950D01*
D61*
X109682500Y-62779949D02*
X109732500Y-62829949D01*
D63*
X106052000Y-67554950D02*
X106852000Y-67554950D01*
D61*
X110922000Y-45554950D02*
X110962000Y-45554950D01*
D63*
X106652000Y-69454950D02*
X106052000Y-69454950D01*
X109069100Y-59529951D02*
X109752000Y-60212851D01*
X104702000Y-67624950D02*
X105982000Y-67624950D01*
X93900000Y-30000000D02*
X93900000Y-38900000D01*
X102902000Y-53304950D02*
X104502000Y-53304950D01*
X111402000Y-45554950D02*
X111602000Y-45754950D01*
X96640000Y-46571300D02*
X96950000Y-46261300D01*
X90925000Y-60125000D02*
X91310000Y-59740000D01*
X95940000Y-56350000D02*
X95970000Y-56320000D01*
X95970000Y-56320000D02*
X96650000Y-56320000D01*
D61*
X104582000Y-67504950D02*
X104702000Y-67624950D01*
X98842000Y-51474950D02*
X100279000Y-51474950D01*
X109069100Y-62779949D02*
X108132500Y-62779949D01*
D63*
X96050000Y-46571300D02*
X96640000Y-46571300D01*
X106852000Y-67554950D02*
X108852000Y-65554950D01*
X106852000Y-67554950D02*
X107252000Y-67954950D01*
X110572000Y-45164950D02*
X110962000Y-45554950D01*
X105982000Y-67624950D02*
X106052000Y-67554950D01*
X108132500Y-62779949D02*
X109682500Y-62779949D01*
X91310000Y-59740000D02*
X91850000Y-59740000D01*
X95400000Y-56350000D02*
X95940000Y-56350000D01*
X96150000Y-50400000D02*
X97020000Y-50400000D01*
X101652000Y-48494950D02*
X100955050Y-48494950D01*
D61*
X96510000Y-52890000D02*
X96450000Y-52950000D01*
X97200000Y-52890000D02*
X96510000Y-52890000D01*
D63*
X109752000Y-62097049D02*
X109069100Y-62779949D01*
D61*
X100279000Y-51474950D02*
X100354000Y-51399950D01*
D63*
X100955050Y-48494950D02*
X100850000Y-48600000D01*
X90500000Y-60125000D02*
X90925000Y-60125000D01*
X107276999Y-59529951D02*
X105626236Y-61180714D01*
X108132500Y-59529951D02*
X107276999Y-59529951D01*
D61*
X101702000Y-38704950D02*
X102152000Y-39154950D01*
X99402000Y-36374950D02*
X100672000Y-36374950D01*
X102152000Y-39154950D02*
X104602000Y-39154950D01*
X100752000Y-36294950D02*
X101702000Y-37244950D01*
X100672000Y-36374950D02*
X100752000Y-36294950D01*
X101702000Y-37244950D02*
X101702000Y-38704950D01*
X66550000Y-48800000D02*
X66350000Y-48800000D01*
X66325000Y-48825000D02*
X65385000Y-48825000D01*
X66350000Y-48800000D02*
X66325000Y-48825000D01*
X102062000Y-39654950D02*
X104602000Y-39654950D01*
X99402000Y-38324950D02*
X100732000Y-38324950D01*
X100752000Y-38344950D02*
X102062000Y-39654950D01*
X100732000Y-38324950D02*
X100752000Y-38344950D01*
X102228100Y-40055950D02*
X103876000Y-40055950D01*
X104553000Y-40105950D02*
X104602000Y-40154950D01*
X103876000Y-40055950D02*
X103876000Y-40105950D01*
X101744900Y-39904950D02*
X101895900Y-40055950D01*
X103876000Y-40105950D02*
X104553000Y-40105950D01*
X101242000Y-39904950D02*
X101744900Y-39904950D01*
X100752000Y-40394950D02*
X101242000Y-39904950D01*
X99452000Y-40374950D02*
X100732000Y-40374950D01*
X101895900Y-40055950D02*
X102153000Y-40055950D01*
X102153000Y-40055950D02*
X102228100Y-40055950D01*
X100732000Y-40374950D02*
X100752000Y-40394950D01*
X111179000Y-40154950D02*
X112229000Y-41204950D01*
X111179000Y-40154950D02*
X110502000Y-40154950D01*
X115072000Y-41654950D02*
X113932000Y-41654950D01*
X113892000Y-41614950D02*
X113482000Y-41204950D01*
X113932000Y-41654950D02*
X113892000Y-41614950D01*
X112229000Y-41204950D02*
X113482000Y-41204950D01*
X115062000Y-39554950D02*
X113952000Y-39554950D01*
X111352000Y-39654950D02*
X110502000Y-39654950D01*
X113952000Y-39554950D02*
X113922000Y-39524950D01*
X112952000Y-40454950D02*
X112152000Y-40454950D01*
X113882000Y-39524950D02*
X112952000Y-40454950D01*
X113922000Y-39524950D02*
X113882000Y-39524950D01*
X112152000Y-40454950D02*
X111352000Y-39654950D01*
D66*
X106402000Y-75414950D02*
X105612000Y-75414950D01*
D62*
X122036250Y-74470700D02*
X120802000Y-75704950D01*
X124002000Y-74470700D02*
X122036250Y-74470700D01*
D64*
X115872000Y-74682950D02*
X116452000Y-74102950D01*
X114252000Y-74854950D02*
X114424000Y-74682950D01*
D63*
X107652000Y-75117450D02*
X107652000Y-74617450D01*
D64*
X114424000Y-74682950D02*
X115872000Y-74682950D01*
D63*
X105612000Y-75414950D02*
X105552000Y-75354950D01*
X106699500Y-75117450D02*
X107652000Y-75117450D01*
D64*
X114252000Y-75404950D02*
X114252000Y-74854950D01*
D63*
X106402000Y-75414950D02*
X106699500Y-75117450D01*
D62*
X127500000Y-69500000D02*
X126060450Y-69500000D01*
X126060450Y-69500000D02*
X125503750Y-70056700D01*
X125503750Y-70056700D02*
X124002000Y-70056700D01*
D67*
X67549271Y-54250000D02*
X68250000Y-54250000D01*
X68901850Y-51275078D02*
X68907213Y-51269715D01*
X68766187Y-53733812D02*
X68942943Y-53557057D01*
X68901850Y-51955218D02*
X68901850Y-51275078D01*
X65385000Y-53905000D02*
X65730000Y-54250000D01*
X66733271Y-53300000D02*
X66869271Y-53300000D01*
X68907213Y-51269715D02*
X68907213Y-50938139D01*
X67141271Y-53572000D02*
X67141271Y-53978000D01*
X65730000Y-54250000D02*
X66189271Y-54250000D01*
X68942943Y-53557057D02*
X68942943Y-52496311D01*
X68250000Y-54250000D02*
X68766187Y-53733812D01*
X68942943Y-51996311D02*
X68901850Y-51955218D01*
X66461271Y-53978000D02*
X66461271Y-53572000D01*
X68942943Y-52496311D02*
X68942943Y-51996311D01*
X67413271Y-54250000D02*
X67549271Y-54250000D01*
X66461271Y-53572000D02*
G75*
G02*
X66733271Y-53299971I272029J0D01*
G01*
X66869271Y-53300000D02*
G75*
G02*
X67141300Y-53572000I29J-272000D01*
G01*
X67141271Y-53978000D02*
G75*
G03*
X67413271Y-54250029I272029J0D01*
G01*
X66189271Y-54250000D02*
G75*
G03*
X66461300Y-53978000I29J272000D01*
G01*
X79983600Y-37014950D02*
X80563600Y-36434950D01*
X79983600Y-39256436D02*
X79572600Y-38845436D01*
X65385000Y-47555000D02*
X66817501Y-47555000D01*
X79572600Y-38024464D02*
X79983600Y-37613464D01*
X66817501Y-47555000D02*
X67797501Y-48535000D01*
X67797501Y-48535000D02*
X74554878Y-48535000D01*
X79983600Y-37613464D02*
X79983600Y-37014950D01*
X79983600Y-43106278D02*
X79983600Y-39256436D01*
X74554878Y-48535000D02*
X79983600Y-43106278D01*
X79572600Y-38845436D02*
X79572600Y-38024464D01*
X69523943Y-53976057D02*
X68500000Y-55000000D01*
X67517243Y-55000000D02*
X66581243Y-55936000D01*
X66581243Y-55936000D02*
X65894000Y-55936000D01*
X65894000Y-55936000D02*
X65385000Y-56445000D01*
X69722850Y-51615148D02*
X69523943Y-51814055D01*
X68500000Y-55000000D02*
X67517243Y-55000000D01*
X69523943Y-51814055D02*
X69523943Y-53976057D01*
X74795122Y-49115000D02*
X80563600Y-43346522D01*
X80563600Y-43346522D02*
X80563600Y-38434950D01*
X67797501Y-49115000D02*
X74795122Y-49115000D01*
X66817501Y-50095000D02*
X67797501Y-49115000D01*
X65385000Y-50095000D02*
X66817501Y-50095000D01*
D61*
X121694550Y-65629950D02*
X120002000Y-65629950D01*
X121502000Y-61792450D02*
X121502000Y-63054950D01*
X122063000Y-63615950D02*
X122063000Y-65261500D01*
X101800000Y-45154950D02*
X105813500Y-45154950D01*
X105813500Y-45157294D02*
X107061156Y-46404950D01*
X107061156Y-46404950D02*
X119902000Y-46404950D01*
X121302000Y-61592450D02*
X121502000Y-61792450D01*
X119902000Y-46404950D02*
X120752000Y-47254950D01*
X105813500Y-45154950D02*
X105813500Y-45157294D01*
X121502000Y-63054950D02*
X122063000Y-63615950D01*
X106902000Y-34404950D02*
X108302000Y-35804950D01*
X101952000Y-34404950D02*
X106902000Y-34404950D01*
X120752000Y-47254950D02*
X120752000Y-54754950D01*
X122063000Y-65261500D02*
X121694550Y-65629950D01*
X108302000Y-35804950D02*
X108302000Y-37454950D01*
X114087000Y-66279950D02*
X115602000Y-66279950D01*
X113702000Y-66664950D02*
X114087000Y-66279950D01*
X113702000Y-65644950D02*
X115587000Y-65644950D01*
X115587000Y-65644950D02*
X115602000Y-65629950D01*
X103800000Y-61393939D02*
X103236012Y-60829951D01*
X120002000Y-66279950D02*
X121277000Y-66279950D01*
X103800000Y-61500000D02*
X103800000Y-61393939D01*
X121302000Y-66304950D02*
X121277000Y-66279950D01*
X103236012Y-60829951D02*
X102493700Y-60829951D01*
X111746799Y-65318644D02*
X111746799Y-65074528D01*
X111386799Y-64834528D02*
X111122422Y-64834528D01*
X112346799Y-65074528D02*
X112346799Y-65318644D01*
X110992000Y-63364950D02*
X111386120Y-63364950D01*
X113977000Y-64979950D02*
X113831578Y-64834528D01*
X112346799Y-64200408D02*
X112346799Y-64594528D01*
X112946799Y-64594528D02*
X112946799Y-64200408D01*
X116840653Y-62405709D02*
X116854761Y-62419817D01*
X117152000Y-61754950D02*
X116840653Y-62066297D01*
X110744500Y-63612450D02*
X110752000Y-63604950D01*
X112706799Y-63960408D02*
X112586799Y-63960408D01*
X110752000Y-62524950D02*
X110752000Y-62404950D01*
X113831578Y-64834528D02*
X113186799Y-64834528D01*
X116430496Y-62844083D02*
X116416389Y-62829976D01*
X110752000Y-62404950D02*
X110752000Y-60804950D01*
X114454950Y-63204950D02*
X115702000Y-63204950D01*
X115602000Y-64979950D02*
X113977000Y-64979950D01*
X116076979Y-62829975D02*
X115992124Y-62914827D01*
X110752000Y-60804950D02*
X110803684Y-60753266D01*
X116854760Y-62759229D02*
X116769908Y-62844082D01*
X112106799Y-65558644D02*
X111986799Y-65558644D01*
X112852000Y-60054950D02*
X113702000Y-60904950D01*
X111502000Y-60054950D02*
X112852000Y-60054950D01*
X110744500Y-64456606D02*
X110744500Y-63612450D01*
X115852000Y-61774950D02*
X117132000Y-61774950D01*
X117132000Y-61774950D02*
X117152000Y-61754950D01*
X117152000Y-61754950D02*
X117402000Y-62004950D01*
X111122422Y-64834528D02*
X110744500Y-64456606D01*
X115992124Y-62914827D02*
X115945400Y-62961550D01*
X115702000Y-63204950D02*
X115945400Y-62961550D01*
X110803684Y-60753266D02*
X111502000Y-60054950D01*
X111626120Y-63124950D02*
X111626120Y-63004950D01*
X112346799Y-64594528D02*
X112346799Y-65074528D01*
X113702000Y-62452000D02*
X114454950Y-63204950D01*
X111386120Y-62764950D02*
X110992000Y-62764950D01*
X111506799Y-64834528D02*
X111386799Y-64834528D01*
X113702000Y-60904950D02*
X113702000Y-62452000D01*
X111386120Y-63364950D02*
G75*
G03*
X111626050Y-63124950I-20J239950D01*
G01*
X110752000Y-63604950D02*
G75*
G02*
X110992000Y-63364900I240000J50D01*
G01*
X116854761Y-62419817D02*
G75*
G02*
X116854738Y-62759206I-169661J-169683D01*
G01*
X111626120Y-63004950D02*
G75*
G03*
X111386120Y-62764880I-240020J50D01*
G01*
X116840653Y-62066297D02*
G75*
G03*
X116840656Y-62405706I169747J-169703D01*
G01*
X112946799Y-64200408D02*
G75*
G03*
X112706799Y-63960401I-239999J8D01*
G01*
X116769908Y-62844082D02*
G75*
G02*
X116430494Y-62844085I-169708J169682D01*
G01*
X111746799Y-65074528D02*
G75*
G03*
X111506799Y-64834501I-239999J28D01*
G01*
X111986799Y-65558644D02*
G75*
G02*
X111746756Y-65318644I1J240044D01*
G01*
X110992000Y-62764950D02*
G75*
G02*
X110752050Y-62524950I0J239950D01*
G01*
X112346799Y-65318644D02*
G75*
G02*
X112106799Y-65558599I-239999J44D01*
G01*
X113186799Y-64834528D02*
G75*
G02*
X112946772Y-64594528I1J240028D01*
G01*
X112586799Y-63960408D02*
G75*
G03*
X112346808Y-64200408I1J-239992D01*
G01*
X116416389Y-62829976D02*
G75*
G03*
X116076995Y-62829991I-169689J-169724D01*
G01*
X124245741Y-62611209D02*
X124342952Y-62513998D01*
X129462920Y-58339950D02*
X131562000Y-56240870D01*
X123317784Y-63539170D02*
X123232929Y-63624022D01*
X123669195Y-63551172D02*
X123657194Y-63539171D01*
X131562000Y-56240870D02*
X131562000Y-56053950D01*
X124245741Y-62611209D02*
X124081458Y-62775492D01*
X124081458Y-63114904D02*
X124093460Y-63126906D01*
X117177000Y-66929950D02*
X115602000Y-66929950D01*
X123102000Y-63754950D02*
X123102000Y-64692271D01*
X123102000Y-66769950D02*
X121867000Y-68004950D01*
X123102000Y-64692271D02*
X123102000Y-66769950D01*
X118252000Y-68004950D02*
X117177000Y-66929950D01*
X124093459Y-63466318D02*
X124008607Y-63551171D01*
X123232929Y-63624022D02*
X123102000Y-63754950D01*
X128517000Y-58339950D02*
X129462920Y-58339950D01*
X124342952Y-62513998D02*
X128517000Y-58339950D01*
X131562000Y-55867030D02*
X131562000Y-56053950D01*
X121867000Y-68004950D02*
X118252000Y-68004950D01*
X124093460Y-63126906D02*
G75*
G02*
X124093448Y-63466306I-169660J-169694D01*
G01*
X124081458Y-62775492D02*
G75*
G03*
X124081456Y-63114906I169742J-169708D01*
G01*
X123657194Y-63539171D02*
G75*
G03*
X123317795Y-63539181I-169694J-169729D01*
G01*
X124008607Y-63551171D02*
G75*
G02*
X123669194Y-63551173I-169707J169671D01*
G01*
X107060550Y-62313500D02*
X106896715Y-62477335D01*
X108132500Y-62129951D02*
X107244099Y-62129951D01*
X106896715Y-62477335D02*
X106896715Y-62599665D01*
X107802000Y-44031950D02*
X107794481Y-44039469D01*
X107794481Y-44039469D02*
X107794481Y-44554950D01*
X107600000Y-44749431D02*
X107600000Y-45650000D01*
X107802000Y-44031950D02*
X107802000Y-43354950D01*
X107794481Y-44554950D02*
X107600000Y-44749431D01*
X107244099Y-62129951D02*
X107060550Y-62313500D01*
X107302000Y-44280005D02*
X106953843Y-44628162D01*
X74792000Y-53944950D02*
X82652000Y-61804950D01*
X88765520Y-42000000D02*
X88632760Y-42132760D01*
X107302000Y-43354950D02*
X107302000Y-44280005D01*
X107200000Y-60829951D02*
X108132500Y-60829951D01*
X71762000Y-53944950D02*
X74792000Y-53944950D01*
X91500000Y-42000000D02*
X88765520Y-42000000D01*
X84752000Y-48254950D02*
X79062000Y-53944950D01*
X79062000Y-53944950D02*
X71762000Y-53944950D01*
X106953843Y-44628162D02*
X106953843Y-45380768D01*
X104089500Y-57652000D02*
X104089500Y-58267450D01*
X106802000Y-36704950D02*
X106802000Y-37454950D01*
X104152000Y-57589500D02*
X104089500Y-57652000D01*
X104089500Y-58267450D02*
X102826999Y-59529951D01*
X102826999Y-59529951D02*
X102493700Y-59529951D01*
X106545360Y-36448310D02*
X106802000Y-36704950D01*
X108802000Y-43354950D02*
X108802000Y-44458475D01*
X84800000Y-45550000D02*
X84800000Y-47200000D01*
X108802000Y-44458475D02*
X109898475Y-45554950D01*
X89250000Y-43050000D02*
X88883950Y-42683950D01*
X89387500Y-43184950D02*
X89252550Y-43050000D01*
X109892000Y-45604950D02*
X109942000Y-45554950D01*
X89252550Y-43050000D02*
X89250000Y-43050000D01*
X109898475Y-45554950D02*
X109942000Y-45554950D01*
X78875000Y-53125000D02*
X78500000Y-53125000D01*
X73061846Y-75505104D02*
X71762000Y-76804950D01*
X109052000Y-45604950D02*
X109892000Y-45604950D01*
X73061846Y-59004797D02*
X73061846Y-75505104D01*
X88883950Y-42683950D02*
X87933950Y-42683950D01*
X94350000Y-43184950D02*
X89387500Y-43184950D01*
X78500000Y-53125000D02*
X78312500Y-53312500D01*
X87933950Y-42683950D02*
X87750000Y-42500000D01*
X84800000Y-47200000D02*
X78875000Y-53125000D01*
X120202000Y-47654950D02*
X119353000Y-46805950D01*
X107802000Y-35872050D02*
X107802000Y-37454950D01*
X106744056Y-46654950D02*
X106660156Y-46571050D01*
X97652000Y-41904950D02*
X97652000Y-41104950D01*
X102201943Y-35004950D02*
X106934900Y-35004950D01*
X119752000Y-56904950D02*
X118852000Y-56904950D01*
X106660156Y-46571050D02*
X105844056Y-45754950D01*
X105844056Y-45754950D02*
X101502000Y-45754950D01*
X119353000Y-46805950D02*
X107227256Y-46805950D01*
X97652000Y-40400000D02*
X97702000Y-40350000D01*
X97652000Y-41104950D02*
X97652000Y-40400000D01*
X106895056Y-46805950D02*
X106744056Y-46654950D01*
X101502000Y-45754950D02*
X97652000Y-41904950D01*
X102200943Y-35005950D02*
X102201943Y-35004950D01*
X101702057Y-35004950D02*
X101703057Y-35005950D01*
X101302000Y-35004950D02*
X101702057Y-35004950D01*
X101703057Y-35005950D02*
X102200943Y-35005950D01*
X118751000Y-56803950D02*
X118751000Y-54405950D01*
X118852000Y-56904950D02*
X118751000Y-56803950D01*
X118751000Y-54405950D02*
X120202000Y-52954950D01*
X120202000Y-52954950D02*
X120202000Y-47654950D01*
X106934900Y-35004950D02*
X107802000Y-35872050D01*
X107227256Y-46805950D02*
X106895056Y-46805950D01*
X74352000Y-56484950D02*
X71762000Y-56484950D01*
X78952000Y-55054950D02*
X78602000Y-55054950D01*
X84027000Y-62929950D02*
X83952000Y-63004950D01*
X93300000Y-40850000D02*
X89750000Y-40850000D01*
X102223649Y-64350000D02*
X89097050Y-64350000D01*
X88527000Y-63779950D02*
X87677000Y-62929950D01*
X106382453Y-44632453D02*
X106802000Y-44212905D01*
X84752000Y-49254950D02*
X78952000Y-55054950D01*
X75552000Y-55854950D02*
X74922000Y-56484950D01*
X87677000Y-62929950D02*
X84027000Y-62929950D01*
X89750000Y-40850000D02*
X89350000Y-41250000D01*
X74922000Y-56484950D02*
X74352000Y-56484950D01*
X106802000Y-44212905D02*
X106802000Y-43354950D01*
X102493700Y-64079949D02*
X102223649Y-64350000D01*
X76482000Y-56484950D02*
X74352000Y-56484950D01*
X82698525Y-62701475D02*
X76482000Y-56484950D01*
X89097050Y-64350000D02*
X88527000Y-63779950D01*
D68*
X42975000Y-81275000D02*
X43000000Y-81300000D01*
X42975000Y-78860000D02*
X42975000Y-81275000D01*
D61*
X113662000Y-57554950D02*
X115352000Y-57554950D01*
X113502000Y-57714950D02*
X113662000Y-57554950D01*
X104277002Y-63429948D02*
X104277002Y-61829948D01*
X119752000Y-57554950D02*
X121502000Y-57554950D01*
X102493700Y-63429948D02*
X104277002Y-63429948D01*
X108552000Y-57554950D02*
X112552000Y-57554950D01*
X104277002Y-61829948D02*
X108552000Y-57554950D01*
X121502000Y-57554950D02*
X121952000Y-58004950D01*
X117142000Y-60144950D02*
X117002000Y-60004950D01*
X115352000Y-56254950D02*
X115352000Y-54754950D01*
X117002000Y-60004950D02*
X116172000Y-60004950D01*
X116996263Y-57042242D02*
X117142000Y-57042242D01*
X116850526Y-56493716D02*
X116850526Y-56896505D01*
X117504171Y-57642242D02*
X117382000Y-57642242D01*
X115352000Y-54754950D02*
X115802000Y-54304950D01*
X117142000Y-57882242D02*
X117142000Y-58002242D01*
X116172000Y-60004950D02*
X115872000Y-60304950D01*
X117744171Y-57282242D02*
X117744171Y-57402242D01*
X117142000Y-58002242D02*
X117142000Y-59951846D01*
X117142000Y-57042242D02*
X117382000Y-57042242D01*
X117142000Y-54344950D02*
X117142000Y-56202242D01*
X117142000Y-59951846D02*
X117142000Y-60304950D01*
X117382000Y-57042242D02*
X117504171Y-57042242D01*
X117052000Y-54254950D02*
X117142000Y-54344950D01*
X117142000Y-60304950D02*
X117142000Y-60144950D01*
X116996263Y-56347979D02*
G75*
G03*
X116850579Y-56493716I37J-145721D01*
G01*
X117744171Y-57402242D02*
G75*
G02*
X117504171Y-57642171I-239971J42D01*
G01*
X117504171Y-57042242D02*
G75*
G02*
X117744158Y-57282242I29J-239958D01*
G01*
X117142000Y-56202242D02*
G75*
G02*
X116996263Y-56347900I-145700J42D01*
G01*
X117382000Y-57642242D02*
G75*
G03*
X117142042Y-57882242I0J-239958D01*
G01*
X116850526Y-56896505D02*
G75*
G03*
X116996263Y-57042274I145774J5D01*
G01*
X127500000Y-60706950D02*
X127581000Y-60625950D01*
X127581000Y-60625950D02*
X131562000Y-60625950D01*
X113452000Y-58954950D02*
X114202000Y-58204950D01*
X114202000Y-58204950D02*
X115352000Y-58204950D01*
X127500000Y-60750000D02*
X127500000Y-60706950D01*
X113712000Y-56904950D02*
X115352000Y-56904950D01*
X113502000Y-56694950D02*
X113712000Y-56904950D01*
X90476000Y-25564950D02*
X91186000Y-24854950D01*
X91186000Y-24854950D02*
X92202000Y-24854950D01*
X88505050Y-28544950D02*
X87002000Y-28544950D01*
X92202000Y-26754950D02*
X90295050Y-26754950D01*
X90295050Y-26754950D02*
X88505050Y-28544950D01*
D63*
X96802000Y-26754950D02*
X94702000Y-26754950D01*
X93452000Y-24704950D02*
X92702000Y-23954950D01*
X97556950Y-26000000D02*
X96802000Y-26754950D01*
X94175000Y-26754950D02*
X94702000Y-26754950D01*
X93452000Y-26031950D02*
X94175000Y-26754950D01*
X136002000Y-46152950D02*
X136002000Y-32104950D01*
X90476000Y-24544950D02*
X91066000Y-23954950D01*
X93452000Y-26031950D02*
X93452000Y-24704950D01*
X132902000Y-29004950D02*
X130402000Y-29004950D01*
X127397050Y-26000000D02*
X97556950Y-26000000D01*
X136002000Y-32104950D02*
X132902000Y-29004950D01*
X92702000Y-23954950D02*
X91066000Y-23954950D01*
X134102000Y-48052950D02*
X136002000Y-46152950D01*
X130402000Y-29004950D02*
X127397050Y-26000000D01*
D61*
X107751000Y-49273950D02*
X106943057Y-49273950D01*
X106943057Y-49273950D02*
X106230000Y-49987007D01*
X106230000Y-50749950D02*
X106230000Y-51399950D01*
X108842000Y-50364950D02*
X107751000Y-49273950D01*
X106230000Y-49987007D02*
X106230000Y-50749950D01*
X99450000Y-45100000D02*
X100200000Y-45850000D01*
X101652000Y-49514950D02*
X102252000Y-50114950D01*
X100200000Y-45850000D02*
X100200000Y-48900000D01*
X100814950Y-49514950D02*
X101652000Y-49514950D01*
X87002000Y-41244950D02*
X85901000Y-42345950D01*
X102252000Y-51066450D02*
X101268500Y-52049950D01*
X85901000Y-42345950D02*
X85901000Y-44241000D01*
X85901000Y-44241000D02*
X86760000Y-45100000D01*
X102252000Y-50114950D02*
X102252000Y-51066450D01*
X86760000Y-45100000D02*
X99450000Y-45100000D01*
X100200000Y-48900000D02*
X100814950Y-49514950D01*
X101268500Y-52049950D02*
X100354000Y-52049950D01*
X106242000Y-47604950D02*
X105671000Y-47033950D01*
X109604900Y-52252050D02*
X109370000Y-52486950D01*
X119516579Y-48817099D02*
X118506430Y-47806950D01*
X109370000Y-52486950D02*
X109157000Y-52699950D01*
X109157000Y-52699950D02*
X106230000Y-52699950D01*
X103841000Y-47715610D02*
X103841000Y-51225450D01*
X114067100Y-47806950D02*
X113291851Y-48582199D01*
X103841000Y-51225450D02*
X105315500Y-52699950D01*
X105315500Y-52699950D02*
X106230000Y-52699950D01*
X113056951Y-48817099D02*
X113039851Y-48817099D01*
X104522660Y-47033950D02*
X103841000Y-47715610D01*
X105671000Y-47033950D02*
X104522660Y-47033950D01*
X113291851Y-48582199D02*
X113056951Y-48817099D01*
X118506430Y-47806950D02*
X114067100Y-47806950D01*
X112804951Y-49051999D02*
X109604900Y-52252050D01*
X113039851Y-48817099D02*
X112804951Y-49051999D01*
X101291500Y-52699950D02*
X102752000Y-51239450D01*
X101353340Y-46155950D02*
X101335900Y-46155950D01*
X102752000Y-49514950D02*
X103373000Y-48893950D01*
X101291500Y-52699950D02*
X100354000Y-52699950D01*
X103373000Y-48893950D02*
X103373000Y-48175610D01*
X102752000Y-51239450D02*
X102752000Y-49514950D01*
X87567050Y-44350000D02*
X87002000Y-43784950D01*
X103373000Y-48175610D02*
X101353340Y-46155950D01*
X101335900Y-46155950D02*
X99529950Y-44350000D01*
X99529950Y-44350000D02*
X87567050Y-44350000D01*
X125002000Y-47504950D02*
X126740000Y-45766950D01*
X121750000Y-47504950D02*
X125002000Y-47504950D01*
X106266000Y-52085950D02*
X106230000Y-52049950D01*
X118753000Y-47405950D02*
X113901000Y-47405950D01*
X104892000Y-47604950D02*
X104242000Y-48254950D01*
X109203900Y-52085950D02*
X106266000Y-52085950D01*
X112890851Y-48416099D02*
X112873751Y-48416099D01*
X105292500Y-52049950D02*
X106230000Y-52049950D01*
X112873751Y-48416099D02*
X109203900Y-52085950D01*
X104242000Y-48254950D02*
X104242000Y-50999450D01*
X126740000Y-45766950D02*
X129022000Y-45766950D01*
X119452000Y-47754950D02*
X119102000Y-47754950D01*
X104242000Y-50999450D02*
X105292500Y-52049950D01*
X119102000Y-47754950D02*
X118753000Y-47405950D01*
X113901000Y-47405950D02*
X112890851Y-48416099D01*
X118805206Y-53503214D02*
X115303736Y-53503214D01*
X96650000Y-63460000D02*
X103510050Y-56599950D01*
X115303736Y-53503214D02*
X112207000Y-56599950D01*
X112207000Y-56599950D02*
X106230000Y-56599950D01*
X103510050Y-56599950D02*
X106230000Y-56599950D01*
X96960000Y-62440000D02*
X98401000Y-60999000D01*
X98401000Y-60999000D02*
X98401000Y-57555550D01*
X96459000Y-62249000D02*
X94441000Y-62249000D01*
X99356600Y-56599950D02*
X100354000Y-56599950D01*
X91850000Y-62390000D02*
X94200000Y-62390000D01*
X101157000Y-56599950D02*
X100354000Y-56599950D01*
X94200000Y-62390000D02*
X94250000Y-62440000D01*
X101677000Y-56079950D02*
X101157000Y-56599950D01*
X96700000Y-62440000D02*
X96960000Y-62440000D01*
X94441000Y-62249000D02*
X94250000Y-62440000D01*
X89352000Y-58232000D02*
X87129050Y-60454950D01*
X89352000Y-58104950D02*
X89352000Y-58232000D01*
X101877000Y-56079950D02*
X101677000Y-56079950D01*
X100199000Y-56754950D02*
X100354000Y-56599950D01*
X89430265Y-58026685D02*
X89352000Y-58104950D01*
X98401000Y-57555550D02*
X99356600Y-56599950D01*
X96650000Y-62440000D02*
X96459000Y-62249000D01*
X87129050Y-60454950D02*
X84102000Y-60454950D01*
X116747050Y-41000000D02*
X116082000Y-40334950D01*
X119727000Y-44579950D02*
X127923000Y-44579950D01*
X117150000Y-41000000D02*
X116747050Y-41000000D01*
X116082000Y-40334950D02*
X116082000Y-39554950D01*
X127923000Y-44579950D02*
X129022000Y-43480950D01*
X117749525Y-42602475D02*
X119727000Y-44579950D01*
X92150000Y-58300000D02*
X92250000Y-58300000D01*
X110002000Y-55299950D02*
X106230000Y-55299950D01*
X118902311Y-51908810D02*
X118706171Y-52104950D01*
X118706171Y-52104950D02*
X113302000Y-52104950D01*
X110002000Y-55299950D02*
X110797000Y-55299950D01*
X91650000Y-56270000D02*
X91650000Y-57800000D01*
X113302000Y-52104950D02*
X110107000Y-55299950D01*
X110802000Y-55304950D02*
X110797000Y-55299950D01*
X91650000Y-57800000D02*
X92150000Y-58300000D01*
X110107000Y-55299950D02*
X110002000Y-55299950D01*
X116092000Y-41654950D02*
X126337000Y-41654950D01*
X126797000Y-41194950D02*
X129022000Y-41194950D01*
X126337000Y-41654950D02*
X126797000Y-41194950D01*
D62*
X61250000Y-38750000D02*
X51000000Y-38750000D01*
D66*
X74302000Y-61140154D02*
X73661846Y-60500000D01*
D62*
X63350000Y-32750000D02*
X63350000Y-36650000D01*
X63350000Y-36650000D02*
X61250000Y-38750000D01*
D63*
X63350000Y-32750000D02*
X63350000Y-32858879D01*
D66*
X74302000Y-69184950D02*
X74302000Y-61140154D01*
D62*
X48150000Y-35900000D02*
X51000000Y-38750000D01*
X48150000Y-32750000D02*
X48150000Y-35900000D01*
X51000000Y-42000000D02*
X51000000Y-38750000D01*
D61*
X97100000Y-59790000D02*
X97100000Y-59050000D01*
X111057000Y-55949950D02*
X106230000Y-55949950D01*
X97100000Y-59050000D02*
X97250000Y-58900000D01*
X111797000Y-55949950D02*
X111852000Y-56004950D01*
X114298145Y-52708805D02*
X111057000Y-55949950D01*
X118899616Y-52708805D02*
X114298145Y-52708805D01*
X111852000Y-56004950D02*
X111852000Y-55999950D01*
X111057000Y-55949950D02*
X111797000Y-55949950D01*
D67*
X54202499Y-54885000D02*
X55182499Y-53905000D01*
X52367744Y-54885000D02*
X52137500Y-54654756D01*
X54202499Y-54885000D02*
X52367744Y-54885000D01*
X55182499Y-53905000D02*
X56615000Y-53905000D01*
X52137500Y-54654756D02*
X52137500Y-53200000D01*
D61*
X113137151Y-49853999D02*
X110406900Y-52584250D01*
X110406900Y-52584250D02*
X110172000Y-52819150D01*
X110172000Y-52819150D02*
X109959000Y-53032150D01*
X113403300Y-49604950D02*
X113389151Y-49619099D01*
X106230000Y-53999950D02*
X104700050Y-53999950D01*
X118301000Y-49753890D02*
X118301000Y-49703950D01*
X109702200Y-53288950D02*
X109489200Y-53501950D01*
X109240200Y-53750950D02*
X108991200Y-53999950D01*
X109489200Y-53501950D02*
X109475100Y-53516050D01*
X109959000Y-53032150D02*
X109937100Y-53054050D01*
X125177000Y-49654950D02*
X125861000Y-50338950D01*
X118902000Y-50304950D02*
X118702997Y-50105947D01*
X118653057Y-50105947D02*
X118301000Y-49753890D01*
X118202000Y-49604950D02*
X113403300Y-49604950D01*
X118301000Y-49703950D02*
X118202000Y-49604950D01*
X109937100Y-53054050D02*
X109724100Y-53267050D01*
X96250000Y-52000000D02*
X92890000Y-52000000D01*
X125861000Y-50338950D02*
X129022000Y-50338950D01*
X113372051Y-49619099D02*
X113137151Y-49853999D01*
X108991200Y-53999950D02*
X106230000Y-53999950D01*
X109475100Y-53516050D02*
X109240200Y-53750950D01*
X92890000Y-52000000D02*
X91350000Y-50460000D01*
X104700050Y-53999950D02*
X104650000Y-54050000D01*
X118702997Y-50105947D02*
X118653057Y-50105947D01*
X122000000Y-49654950D02*
X125177000Y-49654950D01*
X109724100Y-53267050D02*
X109702200Y-53288950D01*
X113389151Y-49619099D02*
X113372051Y-49619099D01*
X122082000Y-33834950D02*
X123702000Y-35454950D01*
X123402000Y-42254950D02*
X124900000Y-42254950D01*
X115062000Y-33834950D02*
X122082000Y-33834950D01*
X124900000Y-42254950D02*
X125006000Y-42360950D01*
X129485920Y-42360950D02*
X131562000Y-44437030D01*
X131562000Y-44437030D02*
X131562000Y-44623950D01*
X125006000Y-42360950D02*
X129485920Y-42360950D01*
X123702000Y-35454950D02*
X123852000Y-35604950D01*
D67*
X52127500Y-55465000D02*
X49862500Y-53200000D01*
X55182499Y-56445000D02*
X54202499Y-55465000D01*
X56615000Y-56445000D02*
X55182499Y-56445000D01*
X54202499Y-55465000D02*
X52127500Y-55465000D01*
D61*
X128534080Y-30954950D02*
X102861660Y-30954950D01*
X130442000Y-31544950D02*
X129852000Y-30954950D01*
X98302000Y-38404950D02*
X98382000Y-38324950D01*
X129509920Y-30954950D02*
X129485920Y-30930950D01*
X102861660Y-30954950D02*
X97811000Y-36005610D01*
X97811000Y-37753950D02*
X98382000Y-38324950D01*
X97811000Y-36005610D02*
X97811000Y-37753950D01*
X129485920Y-30930950D02*
X128558080Y-30930950D01*
X129022000Y-36622950D02*
X130442000Y-35202950D01*
X129852000Y-30954950D02*
X129509920Y-30954950D01*
X128558080Y-30930950D02*
X128534080Y-30954950D01*
X130442000Y-35202950D02*
X130442000Y-31544950D01*
D65*
X68950000Y-75550000D02*
X69000000Y-75500000D01*
X67000000Y-75550000D02*
X68950000Y-75550000D01*
X69000000Y-75500000D02*
X69000000Y-69406950D01*
X60930000Y-76100000D02*
X66450000Y-76100000D01*
X69000000Y-69406950D02*
X71762000Y-66644950D01*
X66450000Y-76100000D02*
X67000000Y-75550000D01*
D61*
X98202000Y-41554950D02*
X98202000Y-40604950D01*
X98202000Y-40604950D02*
X98432000Y-40374950D01*
X109771000Y-52653050D02*
X109558000Y-52866050D01*
X123107001Y-48750000D02*
X128324950Y-48750000D01*
X114086200Y-48354950D02*
X113692851Y-48748299D01*
X109074100Y-53349950D02*
X106230000Y-53349950D01*
X123000000Y-48857001D02*
X123107001Y-48750000D01*
X92340000Y-46300000D02*
X92300000Y-46340000D01*
X112971051Y-49452999D02*
X110005900Y-52418150D01*
X109323100Y-53100950D02*
X109074100Y-53349950D01*
X118902000Y-49504947D02*
X117752003Y-48354950D01*
X93100000Y-46550000D02*
X92850000Y-46300000D01*
X117752003Y-48354950D02*
X114086200Y-48354950D01*
X92850000Y-46300000D02*
X92340000Y-46300000D01*
X113205951Y-49218099D02*
X112971051Y-49452999D01*
X128324950Y-48750000D02*
X129022000Y-48052950D01*
X113457951Y-48983199D02*
X113223051Y-49218099D01*
X109558000Y-52866050D02*
X109536100Y-52887950D01*
X113223051Y-49218099D02*
X113205951Y-49218099D01*
X113692851Y-48748299D02*
X113457951Y-48983199D01*
X110005900Y-52418150D02*
X109771000Y-52653050D01*
X109536100Y-52887950D02*
X109323100Y-53100950D01*
D67*
X73000000Y-31500000D02*
X73097873Y-31402127D01*
X72645213Y-31854787D02*
X73000000Y-31500000D01*
X80305050Y-24194950D02*
X80652000Y-24194950D01*
X52114174Y-48940000D02*
X57345174Y-43709000D01*
X73097873Y-31402127D02*
X80305050Y-24194950D01*
X49060001Y-48940000D02*
X52114174Y-48940000D01*
X80652000Y-24194950D02*
X80652000Y-24348000D01*
X60791000Y-43709000D02*
X72645213Y-31854787D01*
X44500000Y-49600000D02*
X48400001Y-49600000D01*
X48400001Y-49600000D02*
X49060001Y-48940000D01*
X57345174Y-43709000D02*
X60791000Y-43709000D01*
D61*
X101552000Y-33204950D02*
X127890000Y-33204950D01*
X98382000Y-36374950D02*
X101552000Y-33204950D01*
X127890000Y-33204950D02*
X129022000Y-34336950D01*
D67*
X52869878Y-50720000D02*
X55186000Y-48403878D01*
X55186000Y-47878000D02*
X55564000Y-47500000D01*
X51810989Y-50720000D02*
X51871989Y-50659000D01*
X49862500Y-51300000D02*
X50442500Y-50720000D01*
X51871989Y-50659000D02*
X52403011Y-50659000D01*
X55186000Y-48403878D02*
X55186000Y-47878000D01*
X50442500Y-50720000D02*
X51810989Y-50720000D01*
X56560000Y-47500000D02*
X56615000Y-47555000D01*
X55564000Y-47500000D02*
X56560000Y-47500000D01*
X52403011Y-50659000D02*
X52464011Y-50720000D01*
X52464011Y-50720000D02*
X52869878Y-50720000D01*
D61*
X130628920Y-52647950D02*
X132025920Y-52647950D01*
X123148160Y-57942991D02*
X123530001Y-57561151D01*
X124420954Y-56953038D02*
X126764966Y-54609027D01*
X123911836Y-57801567D02*
X123986502Y-57876233D01*
X122703000Y-58670993D02*
X123148160Y-58225833D01*
X124410767Y-57451968D02*
X124336100Y-57377301D01*
X126764966Y-54609027D02*
X127583043Y-53790950D01*
X122703000Y-60653893D02*
X122703000Y-58670993D01*
X124325914Y-57876233D02*
X124410767Y-57791379D01*
X119502000Y-61754950D02*
X120256950Y-61000000D01*
X123671421Y-57561152D02*
X123742132Y-57631863D01*
X124336100Y-57037890D02*
X124420954Y-56953038D01*
X127583043Y-53790950D02*
X129485920Y-53790950D01*
X123742132Y-57631863D02*
X123742131Y-57631862D01*
X123742131Y-57631862D02*
X123911836Y-57801567D01*
X132890500Y-55985450D02*
X134102000Y-57196950D01*
X129485920Y-53790950D02*
X130628920Y-52647950D01*
X120256950Y-61000000D02*
X122356893Y-61000000D01*
X132890500Y-53512530D02*
X132890500Y-55985450D01*
X122356893Y-61000000D02*
X122703000Y-60653893D01*
X132025920Y-52647950D02*
X132890500Y-53512530D01*
X124410767Y-57791379D02*
G75*
G03*
X124410741Y-57451995I-169667J169679D01*
G01*
X123148160Y-58225833D02*
G75*
G03*
X123148183Y-58084390I-70760J70733D01*
G01*
X124336100Y-57377301D02*
G75*
G02*
X124336104Y-57037895I169700J169701D01*
G01*
X123148161Y-58084411D02*
G75*
G02*
X123148160Y-57942991I70739J70711D01*
G01*
X123530001Y-57561151D02*
G75*
G02*
X123671411Y-57561162I70699J-70749D01*
G01*
X123986502Y-57876233D02*
G75*
G03*
X124325914Y-57876233I169706J169704D01*
G01*
X116032000Y-37454950D02*
X116032000Y-38634950D01*
X116032000Y-38634950D02*
X116052000Y-38654950D01*
D67*
X54315122Y-50095000D02*
X56615000Y-50095000D01*
X53110122Y-51300000D02*
X54315122Y-50095000D01*
X52137500Y-51300000D02*
X53110122Y-51300000D01*
D61*
X118699123Y-50905950D02*
X118653057Y-50905950D01*
X118653057Y-50905950D02*
X118552057Y-50804950D01*
X118901981Y-51108808D02*
X118699123Y-50905950D01*
X127222000Y-52624950D02*
X129022000Y-52624950D01*
X118552057Y-50804950D02*
X113452000Y-50804950D01*
X92390000Y-52890000D02*
X91250000Y-52890000D01*
X113452000Y-50804950D02*
X109607000Y-54649950D01*
X121475235Y-50533185D02*
X121553470Y-50454950D01*
X125052000Y-50454950D02*
X127222000Y-52624950D01*
X92850000Y-53050000D02*
X92550000Y-53050000D01*
X92550000Y-53050000D02*
X92390000Y-52890000D01*
X109607000Y-54649950D02*
X106230000Y-54649950D01*
X121553470Y-50454950D02*
X125052000Y-50454950D01*
D67*
X48400001Y-47700000D02*
X49059001Y-48359000D01*
X75697805Y-27980537D02*
X75181617Y-28496724D01*
X74934143Y-28744200D02*
X75088865Y-28589477D01*
X44500000Y-47700000D02*
X48400001Y-47700000D01*
X78112000Y-24194950D02*
X78112000Y-25566342D01*
X60550342Y-43128000D02*
X72234384Y-31443958D01*
X73650036Y-28614094D02*
X73746204Y-28517927D01*
X78112000Y-25566342D02*
X75697805Y-27980537D01*
X73718592Y-29959750D02*
X72687044Y-30991298D01*
X74130870Y-28517927D02*
X74453311Y-28840368D01*
X73972476Y-29705866D02*
X73718592Y-29959750D01*
X72589171Y-31089171D02*
X72687044Y-30991298D01*
X73972476Y-29321200D02*
X73650036Y-28998760D01*
X57104516Y-43128000D02*
X60550342Y-43128000D01*
X72234384Y-31443958D02*
X72589171Y-31089171D01*
X75181617Y-28496724D02*
X75088865Y-28589477D01*
X51873516Y-48359000D02*
X57104516Y-43128000D01*
X49059001Y-48359000D02*
X51873516Y-48359000D01*
X74837977Y-28840368D02*
X74934143Y-28744200D01*
X74453311Y-28840368D02*
G75*
G03*
X74837977Y-28840368I192333J192333D01*
G01*
X73972476Y-29705866D02*
G75*
G03*
X73972509Y-29321167I-192376J192366D01*
G01*
X73650036Y-28998760D02*
G75*
G02*
X73650009Y-28614067I192364J192360D01*
G01*
X73746204Y-28517927D02*
G75*
G02*
X74130870Y-28517927I192333J-192333D01*
G01*
D61*
X98050000Y-48381300D02*
X98050000Y-51911650D01*
X92300000Y-47360000D02*
X94390000Y-47360000D01*
X91896050Y-47763950D02*
X86545950Y-47763950D01*
X94681300Y-47281300D02*
X96950000Y-47281300D01*
X94500000Y-47250000D02*
X94650000Y-47250000D01*
X100354000Y-53349950D02*
X99488300Y-53349950D01*
X96950000Y-47300000D02*
X96950000Y-47281300D01*
X96940000Y-47271300D02*
X96950000Y-47281300D01*
X85901000Y-52843950D02*
X87002000Y-53944950D01*
X94650000Y-47250000D02*
X94681300Y-47281300D01*
X96950000Y-47281300D02*
X98050000Y-48381300D01*
X94390000Y-47360000D02*
X94500000Y-47250000D01*
X92300000Y-47360000D02*
X91896050Y-47763950D01*
X98050000Y-51911650D02*
X99488300Y-53349950D01*
X85901000Y-48408900D02*
X85901000Y-52843950D01*
X86545950Y-47763950D02*
X85901000Y-48408900D01*
X97641000Y-52069750D02*
X97641000Y-50001000D01*
X94650000Y-49430000D02*
X94780000Y-49430000D01*
X97641000Y-50001000D02*
X97020000Y-49380000D01*
X88945050Y-51404950D02*
X90910000Y-49440000D01*
X94780000Y-49430000D02*
X94830000Y-49380000D01*
X94640000Y-49440000D02*
X94650000Y-49430000D01*
X92350000Y-49440000D02*
X94640000Y-49440000D01*
X90910000Y-49440000D02*
X92350000Y-49440000D01*
X87002000Y-51404950D02*
X88945050Y-51404950D01*
X94830000Y-49380000D02*
X97020000Y-49380000D01*
X99571200Y-53999950D02*
X97641000Y-52069750D01*
X99571200Y-53999950D02*
X100354000Y-53999950D01*
X56615000Y-55175000D02*
X55575000Y-55175000D01*
X55575000Y-55175000D02*
X55500000Y-55250000D01*
X90977000Y-68844950D02*
X92792000Y-68844950D01*
X92792000Y-68844950D02*
X92802000Y-68854950D01*
X94140000Y-53900000D02*
X94150000Y-53910000D01*
X98778000Y-54649950D02*
X98038050Y-53910000D01*
X91660000Y-53900000D02*
X94140000Y-53900000D01*
X94160000Y-53900000D02*
X94150000Y-53910000D01*
X91510000Y-54050000D02*
X91660000Y-53900000D01*
X87673525Y-52826475D02*
X88897050Y-54050000D01*
X100354000Y-54649950D02*
X98778000Y-54649950D01*
X88897050Y-54050000D02*
X91510000Y-54050000D01*
X94150000Y-53910000D02*
X96600000Y-53910000D01*
X98038050Y-53910000D02*
X96600000Y-53910000D01*
X90200000Y-55250000D02*
X89995950Y-55045950D01*
X85514600Y-38828868D02*
X85500000Y-38843468D01*
X94200000Y-55300000D02*
X96650000Y-55300000D01*
X98586950Y-55300000D02*
X98587000Y-55299950D01*
X85500000Y-38843468D02*
X85500000Y-54000000D01*
X98587000Y-55299950D02*
X100354000Y-55299950D01*
X91650000Y-55250000D02*
X94150000Y-55250000D01*
X94150000Y-55250000D02*
X94200000Y-55300000D01*
X96650000Y-55300000D02*
X98586950Y-55300000D01*
X91650000Y-55250000D02*
X90200000Y-55250000D01*
X87002000Y-36164950D02*
X85514600Y-37652350D01*
X85514600Y-37652350D02*
X85514600Y-38828868D01*
X85500000Y-54000000D02*
X86545950Y-55045950D01*
X86545950Y-55045950D02*
X89995950Y-55045950D01*
X94250000Y-60910000D02*
X94300000Y-60860000D01*
X97340000Y-60860000D02*
X98000000Y-60200000D01*
X89102000Y-57154950D02*
X88671000Y-57585950D01*
X94300000Y-60860000D02*
X97340000Y-60860000D01*
X101157057Y-55949950D02*
X100354000Y-55949950D01*
X102202000Y-54954947D02*
X102202000Y-55004950D01*
X102202000Y-55004950D02*
X102102057Y-55004950D01*
X98000000Y-57389450D02*
X99439500Y-55949950D01*
X88671000Y-57585950D02*
X85371000Y-57585950D01*
X98000000Y-60200000D02*
X98000000Y-57389450D01*
X91800000Y-60910000D02*
X91750000Y-60860000D01*
X85371000Y-57585950D02*
X84502000Y-58454950D01*
X92000000Y-60910000D02*
X91850000Y-60760000D01*
X94250000Y-60910000D02*
X92000000Y-60910000D01*
X102102057Y-55004950D02*
X101157057Y-55949950D01*
X99439500Y-55949950D02*
X100354000Y-55949950D01*
X121017000Y-59604950D02*
X121017000Y-59754950D01*
X122067000Y-59604950D02*
X122002000Y-59604950D01*
X120642000Y-59154950D02*
X120792000Y-59154950D01*
X119492000Y-60304950D02*
X120018913Y-59778037D01*
X121017000Y-59379950D02*
X121017000Y-59604950D01*
X120018913Y-59778037D02*
X120192000Y-59604950D01*
X121767000Y-59604950D02*
X122067000Y-59604950D01*
X121167000Y-59904950D02*
X121467000Y-59904950D01*
X130672920Y-59229030D02*
X131562000Y-58339950D01*
X130352000Y-59229030D02*
X130672920Y-59229030D01*
X120192000Y-59604950D02*
G75*
G03*
X120417050Y-59379950I0J225050D01*
G01*
X120792000Y-59154950D02*
G75*
G02*
X121017050Y-59379950I0J-225050D01*
G01*
X120417000Y-59379950D02*
G75*
G02*
X120642000Y-59155000I225000J-50D01*
G01*
X121017000Y-59754950D02*
G75*
G03*
X121167000Y-59904900I150000J50D01*
G01*
X121467000Y-59904950D02*
G75*
G03*
X121617050Y-59754950I0J150050D01*
G01*
X121617000Y-59754950D02*
G75*
G02*
X121767000Y-59605000I150000J-50D01*
G01*
X92090000Y-66192950D02*
X92802000Y-66904950D01*
X92090000Y-65350000D02*
X92090000Y-66192950D01*
X83361000Y-77905950D02*
X87002000Y-74264950D01*
X62531000Y-77905950D02*
X83361000Y-77905950D01*
X60930000Y-76900000D02*
X61525050Y-76900000D01*
X61525050Y-76900000D02*
X62531000Y-77905950D01*
X104493633Y-65943450D02*
X104556550Y-65943450D01*
X74500000Y-47500000D02*
X74500000Y-43982950D01*
X106420051Y-64079949D02*
X108132500Y-64079949D01*
X74500000Y-43982950D02*
X71762000Y-41244950D01*
X104556550Y-65943450D02*
X106420051Y-64079949D01*
X107094900Y-61712050D02*
X107094900Y-61651151D01*
X107155799Y-61651151D02*
X107326998Y-61479952D01*
X107326998Y-61479952D02*
X108132500Y-61479952D01*
X104056950Y-64750000D02*
X106345715Y-62461235D01*
X106345715Y-62371433D02*
X106668483Y-62048665D01*
X106758285Y-62048665D02*
X107094900Y-61712050D01*
X107094900Y-61651151D02*
X107155799Y-61651151D01*
X106668483Y-62048665D02*
X106758285Y-62048665D01*
X89200000Y-65411563D02*
X89351028Y-65411563D01*
X90012591Y-64750000D02*
X104056950Y-64750000D01*
X89351028Y-65411563D02*
X90012591Y-64750000D01*
X106345715Y-62461235D02*
X106345715Y-62371433D01*
X60930000Y-76500000D02*
X68600000Y-76500000D01*
X69750000Y-75350000D02*
X69750000Y-71196950D01*
X68600000Y-76500000D02*
X69750000Y-75350000D01*
X69750000Y-71196950D02*
X71762000Y-69184950D01*
D68*
X50120008Y-73100000D02*
X49970008Y-73250000D01*
X51632566Y-72826433D02*
X51358999Y-73100000D01*
X54017433Y-72826433D02*
X54030000Y-72839000D01*
X51358999Y-73100000D02*
X50120008Y-73100000D01*
X51632566Y-72826433D02*
X54017433Y-72826433D01*
D61*
X120262000Y-39504950D02*
X120262000Y-38614950D01*
X120262000Y-38614950D02*
X120252000Y-38604950D01*
X122750000Y-38000000D02*
X123156950Y-38000000D01*
X123156950Y-38000000D02*
X123391000Y-37765950D01*
X123391000Y-37765950D02*
X131562000Y-37765950D01*
D68*
X46730000Y-73744341D02*
X43675659Y-73744341D01*
X43675659Y-73744341D02*
X43000000Y-74420000D01*
X48489992Y-73788682D02*
X46774341Y-73788682D01*
X46774341Y-73788682D02*
X46730000Y-73744341D01*
D61*
X124652000Y-38754950D02*
X123251943Y-38754950D01*
X122502057Y-38504950D02*
X122753057Y-38755950D01*
X122753057Y-38755950D02*
X123250943Y-38755950D01*
X123251943Y-38754950D02*
X123250943Y-38755950D01*
X121412000Y-38504950D02*
X122502057Y-38504950D01*
X120262000Y-37354950D02*
X121412000Y-38504950D01*
X120232000Y-34874950D02*
X120162000Y-34804950D01*
X129439920Y-40028950D02*
X131562000Y-42151030D01*
X121032000Y-34804950D02*
X121863525Y-35636475D01*
X131562000Y-42151030D02*
X131562000Y-42337950D01*
X120162000Y-34804950D02*
X121032000Y-34804950D01*
X123927000Y-40028950D02*
X129439920Y-40028950D01*
X123452000Y-39553950D02*
X123927000Y-40028950D01*
X76802000Y-75004950D02*
X81352000Y-75004950D01*
X81352000Y-75004950D02*
X83752000Y-72604950D01*
X61840570Y-75700000D02*
X60930000Y-75700000D01*
X64500000Y-75000000D02*
X62540570Y-75000000D01*
X62540570Y-75000000D02*
X61840570Y-75700000D01*
X88824950Y-46324950D02*
X87002000Y-46324950D01*
X89700000Y-47100000D02*
X89600000Y-47100000D01*
X89600000Y-47100000D02*
X88824950Y-46324950D01*
X87492000Y-46814950D02*
X87002000Y-46324950D01*
X115012000Y-37454950D02*
X113982000Y-37454950D01*
X113982000Y-37454950D02*
X113932000Y-37404950D01*
X112182000Y-39154950D02*
X113932000Y-37404950D01*
X110502000Y-39154950D02*
X112182000Y-39154950D01*
X116603000Y-37975950D02*
X118102000Y-39474950D01*
X119242000Y-39504950D02*
X118132000Y-39504950D01*
X118132000Y-39504950D02*
X118102000Y-39474950D01*
X116341340Y-36823950D02*
X116603000Y-37085610D01*
X111744450Y-38654950D02*
X113575450Y-36823950D01*
X110502000Y-38654950D02*
X111744450Y-38654950D01*
X116603000Y-37085610D02*
X116603000Y-37975950D01*
X113575450Y-36823950D02*
X116341340Y-36823950D01*
X112234000Y-36422950D02*
X117200000Y-36422950D01*
X117200000Y-36422950D02*
X118102000Y-37324950D01*
X119242000Y-37354950D02*
X118132000Y-37354950D01*
X110502000Y-38154950D02*
X112234000Y-36422950D01*
X118132000Y-37354950D02*
X118102000Y-37324950D01*
X111235000Y-36021950D02*
X109802000Y-37454950D01*
X116905000Y-36021950D02*
X111235000Y-36021950D01*
X119112000Y-34774950D02*
X119142000Y-34804950D01*
X118152000Y-34774950D02*
X119112000Y-34774950D01*
X118152000Y-34774950D02*
X116905000Y-36021950D01*
X114012000Y-33804950D02*
X114042000Y-33834950D01*
X113052000Y-33804950D02*
X114012000Y-33804950D01*
X113052000Y-33804950D02*
X112275000Y-33804950D01*
X109302000Y-36777950D02*
X109302000Y-37454950D01*
X112275000Y-33804950D02*
X109302000Y-36777950D01*
X108752000Y-37404950D02*
X108802000Y-37454950D01*
X108612000Y-35114950D02*
X108752000Y-35254950D01*
X108752000Y-35254950D02*
X108752000Y-37404950D01*
X108612000Y-34284950D02*
X108612000Y-35114950D01*
X108742000Y-34154950D02*
X108612000Y-34284950D01*
D68*
X43000000Y-75380000D02*
X43000000Y-77865000D01*
X43000000Y-77865000D02*
X42975000Y-77890000D01*
D61*
X54805000Y-70275000D02*
X54805000Y-70505000D01*
X54805000Y-70505000D02*
X55680000Y-71380000D01*
X55680000Y-71380000D02*
X55680000Y-72050000D01*
X54805000Y-70275000D02*
X53525000Y-70275000D01*
X53525000Y-70275000D02*
X53230000Y-69980000D01*
X56629000Y-69225000D02*
X56155000Y-69225000D01*
X56480000Y-71000000D02*
X56681000Y-71000000D01*
X56681000Y-71000000D02*
X56881000Y-70800000D01*
X56155000Y-68195000D02*
X55710000Y-67750000D01*
X56155000Y-69225000D02*
X56155000Y-68195000D01*
X56881000Y-69477000D02*
X56629000Y-69225000D01*
X56881000Y-70800000D02*
X56881000Y-69477000D01*
X56080000Y-72050000D02*
X56080000Y-71400000D01*
X56080000Y-71400000D02*
X56480000Y-71000000D01*
X57280000Y-78950000D02*
X57280000Y-81250000D01*
X56230000Y-81450000D02*
X56230000Y-83220000D01*
X56230000Y-83220000D02*
X56000000Y-83450000D01*
X57080000Y-81450000D02*
X56230000Y-81450000D01*
X57280000Y-81250000D02*
X57080000Y-81450000D01*
X57680000Y-78950000D02*
X57680000Y-81250000D01*
X58730000Y-83220000D02*
X58960000Y-83450000D01*
X58730000Y-81450000D02*
X58730000Y-83220000D01*
X57680000Y-81250000D02*
X57880000Y-81450000D01*
X57880000Y-81450000D02*
X58730000Y-81450000D01*
X84500000Y-50451470D02*
X84452005Y-50403475D01*
X88895050Y-50754950D02*
X88402000Y-50754950D01*
X84022000Y-71724950D02*
X87002000Y-71724950D01*
X83361000Y-71063950D02*
X84022000Y-71724950D01*
X92000000Y-48553950D02*
X91096050Y-48553950D01*
X84354950Y-50500000D02*
X83361000Y-51493950D01*
X108282981Y-45050000D02*
X108282981Y-44715981D01*
X108282981Y-44715981D02*
X108302000Y-44696962D01*
X84500000Y-50500000D02*
X84354950Y-50500000D01*
X83361000Y-51493950D02*
X83361000Y-71063950D01*
X84500000Y-50500000D02*
X84500000Y-50451470D01*
X108302000Y-44696962D02*
X108302000Y-43354950D01*
X91096050Y-48553950D02*
X88895050Y-50754950D01*
X57669900Y-70655050D02*
X57980000Y-70655050D01*
X56880000Y-72050000D02*
X56880000Y-71444950D01*
X56480000Y-72050000D02*
X56880000Y-72050000D01*
X56880000Y-71444950D02*
X57669900Y-70655050D01*
X54030000Y-74500000D02*
X52940000Y-74500000D01*
X52940000Y-74500000D02*
X52490000Y-74950000D01*
X118552000Y-72004950D02*
X123202000Y-67354950D01*
X110552000Y-73654950D02*
X110089500Y-74117450D01*
X127752000Y-63038950D02*
X129022000Y-61768950D01*
X127752000Y-66908870D02*
X127752000Y-63038950D01*
X123202000Y-67354950D02*
X127305920Y-67354950D01*
X108852000Y-73217450D02*
X109752000Y-74117450D01*
X127305920Y-67354950D02*
X127752000Y-66908870D01*
X110089500Y-74117450D02*
X109752000Y-74117450D01*
X108852000Y-72804950D02*
X108852000Y-73217450D01*
X111003500Y-74568450D02*
X111952000Y-73619950D01*
X109752000Y-74617450D02*
X109801000Y-74568450D01*
X109801000Y-74568450D02*
X111003500Y-74568450D01*
X134096000Y-54904950D02*
X134102000Y-54910950D01*
X101092000Y-69184950D02*
X100092000Y-69184950D01*
X106739500Y-74117450D02*
X106402000Y-74454950D01*
X125900000Y-81500000D02*
X126400000Y-81500000D01*
X107652000Y-74117450D02*
X106739500Y-74117450D01*
X99082000Y-65974950D02*
X100092000Y-65974950D01*
X125000000Y-80600000D02*
X125900000Y-81500000D01*
X106402000Y-73754950D02*
X106452000Y-73704950D01*
X91512000Y-69864950D02*
X90977000Y-69864950D01*
X91897050Y-70250000D02*
X91512000Y-69864950D01*
X100092000Y-69184950D02*
X98872000Y-69184950D01*
X96852000Y-66204950D02*
X98852000Y-66204950D01*
X109902000Y-68434950D02*
X109902000Y-69004950D01*
X106402000Y-74454950D02*
X106402000Y-73754950D01*
X118752000Y-75704950D02*
X118852000Y-75804950D01*
X102202000Y-69854950D02*
X102202000Y-69294950D01*
X118752000Y-75054950D02*
X118752000Y-75704950D01*
X109902000Y-69004950D02*
X110102000Y-69204950D01*
X114402000Y-73504950D02*
X114622000Y-73724950D01*
X98852000Y-66204950D02*
X99082000Y-65974950D01*
X92802000Y-67554950D02*
X93586999Y-67554950D01*
X106052000Y-68504950D02*
X104782000Y-68504950D01*
X114622000Y-73724950D02*
X114952000Y-73724950D01*
X92200000Y-70250000D02*
X91897050Y-70250000D01*
X93586999Y-67554950D02*
X94052000Y-67089949D01*
X125000000Y-79500000D02*
X125000000Y-80600000D01*
X101092000Y-69184950D02*
X102092000Y-69184950D01*
X94052000Y-67089949D02*
X94052000Y-66854950D01*
X104782000Y-68504950D02*
X104702000Y-68584950D01*
X102202000Y-69294950D02*
X102092000Y-69184950D01*
X98872000Y-69184950D02*
X98542000Y-68854950D01*
X104702000Y-69354950D02*
X104852000Y-69504950D01*
X104702000Y-68584950D02*
X104702000Y-69354950D01*
X58000000Y-69615050D02*
X57980000Y-69635050D01*
X107742000Y-50424950D02*
X107742000Y-50544950D01*
D65*
X51684741Y-71157894D02*
X51314449Y-71157894D01*
D61*
X100400000Y-61149949D02*
X100932500Y-61149949D01*
X49920000Y-67000000D02*
X49700000Y-67000000D01*
X94450000Y-45800000D02*
X94500000Y-45850000D01*
X110502000Y-42654950D02*
X111272000Y-42654950D01*
D65*
X54805000Y-69225000D02*
X54805000Y-68805000D01*
D61*
X94090000Y-56090000D02*
X94150000Y-56030000D01*
X58000000Y-83480000D02*
X57480000Y-84000000D01*
X111272000Y-42654950D02*
X111702000Y-43084950D01*
X94268087Y-52771913D02*
X94150000Y-52890000D01*
D65*
X51102434Y-71369909D02*
X50869909Y-71369909D01*
X54750000Y-67750000D02*
X54800000Y-67700000D01*
D61*
X44500000Y-53600000D02*
X47700000Y-53600000D01*
X109302000Y-43354950D02*
X109253000Y-43403950D01*
X93360000Y-50460000D02*
X93200000Y-50300000D01*
X111532000Y-44554950D02*
X112352000Y-44554950D01*
X47700000Y-53600000D02*
X47900000Y-53400000D01*
X53000000Y-76800000D02*
X53000000Y-76610000D01*
D65*
X54800000Y-67700000D02*
X54800000Y-67050000D01*
D61*
X94250000Y-59890000D02*
X93510000Y-59890000D01*
X94771913Y-52771913D02*
X94268087Y-52771913D01*
X98850000Y-49950000D02*
X98850000Y-50156950D01*
X98842000Y-50164950D02*
X98842000Y-50514950D01*
D65*
X58135050Y-69635050D02*
X57980000Y-69635050D01*
D61*
X108132500Y-63429951D02*
X106920049Y-63429951D01*
D65*
X45794341Y-75294341D02*
X45750000Y-75250000D01*
X51314449Y-71157894D02*
X51102434Y-71369909D01*
D61*
X49550000Y-69100000D02*
X49450000Y-69000000D01*
D65*
X54805000Y-68805000D02*
X54500000Y-68500000D01*
X51000000Y-70750000D02*
X51000000Y-70875000D01*
D61*
X58000000Y-83450000D02*
X58000000Y-83480000D01*
D65*
X46730000Y-75294341D02*
X45794341Y-75294341D01*
D61*
X107308525Y-49991475D02*
X107742000Y-50424950D01*
X49700000Y-67000000D02*
X49450000Y-66750000D01*
X93500000Y-56350000D02*
X93530000Y-56320000D01*
X111532000Y-44554950D02*
X111252000Y-44274950D01*
X111252000Y-43534950D02*
X111702000Y-43084950D01*
D65*
X46730000Y-75980000D02*
X46750000Y-76000000D01*
X51000000Y-70875000D02*
X51102434Y-70977434D01*
D61*
X49920000Y-68200000D02*
X49750000Y-68200000D01*
X99932500Y-61149949D02*
X100250000Y-61149949D01*
D65*
X58250000Y-69750000D02*
X58135050Y-69635050D01*
D61*
X93530000Y-56320000D02*
X94200000Y-56320000D01*
X109302000Y-44104950D02*
X109302000Y-43354950D01*
X57030000Y-83450000D02*
X57480000Y-83000000D01*
X98850000Y-50156950D02*
X98842000Y-50164950D01*
X99077000Y-50749950D02*
X98842000Y-50514950D01*
X49920000Y-69300000D02*
X49750000Y-69300000D01*
X106920049Y-63429951D02*
X106900000Y-63450000D01*
X109700000Y-44502950D02*
X109302000Y-44104950D01*
X49450000Y-69000000D02*
X49450000Y-68950000D01*
D65*
X56155000Y-70275000D02*
X56155000Y-70345000D01*
D61*
X100250000Y-61149949D02*
X100400000Y-61149949D01*
D65*
X53230000Y-69020000D02*
X53230000Y-68770000D01*
X50750000Y-70500000D02*
X51000000Y-70750000D01*
D61*
X126400000Y-82500000D02*
X126400000Y-82800000D01*
X109447501Y-63504950D02*
X109732500Y-63789949D01*
D65*
X46730000Y-75294341D02*
X46730000Y-75980000D01*
X50500000Y-71600000D02*
X50600000Y-71500000D01*
D61*
X108502000Y-63504950D02*
X109447501Y-63504950D01*
X53000000Y-76610000D02*
X52500000Y-76110000D01*
X108427001Y-63429951D02*
X108502000Y-63504950D01*
X106900000Y-63450000D02*
X106998049Y-63548049D01*
X49750000Y-69300000D02*
X49550000Y-69100000D01*
D65*
X53230000Y-68770000D02*
X53500000Y-68500000D01*
D61*
X94500000Y-45850000D02*
X94500000Y-46230000D01*
D65*
X51102434Y-70977434D02*
X51102434Y-71369909D01*
D61*
X94450000Y-45650000D02*
X94450000Y-45800000D01*
X49750000Y-68200000D02*
X49600000Y-68050000D01*
X100400000Y-60800000D02*
X100400000Y-61149949D01*
X94450000Y-50460000D02*
X93360000Y-50460000D01*
X111252000Y-44274950D02*
X111252000Y-43534950D01*
X93510000Y-59890000D02*
X93300000Y-60100000D01*
X56960000Y-83450000D02*
X57030000Y-83450000D01*
X101262500Y-61479949D02*
X102493700Y-61479949D01*
D65*
X46730000Y-75294341D02*
X47294341Y-75294341D01*
D61*
X126400000Y-82800000D02*
X126150000Y-83050000D01*
X100354000Y-50749950D02*
X99077000Y-50749950D01*
X93200000Y-56350000D02*
X93500000Y-56350000D01*
X94170000Y-56030000D02*
X94150000Y-56030000D01*
D65*
X50972343Y-71500000D02*
X51102434Y-71369909D01*
D61*
X112702000Y-43084950D02*
X111702000Y-43084950D01*
D65*
X56155000Y-70345000D02*
X56000000Y-70500000D01*
X50600000Y-71500000D02*
X50972343Y-71500000D01*
D61*
X101262500Y-61479949D02*
X100932500Y-61149949D01*
X94250000Y-63460000D02*
X94640000Y-63460000D01*
X94640000Y-63460000D02*
X95150000Y-62950000D01*
D65*
X47294341Y-75294341D02*
X47500000Y-75500000D01*
D61*
X58000000Y-69000000D02*
X58000000Y-69615050D01*
X109700000Y-44550000D02*
X109700000Y-44502950D01*
X108132500Y-63429951D02*
X108427001Y-63429951D01*
X127400000Y-82500000D02*
X127950000Y-82500000D01*
X127950000Y-82500000D02*
X128200000Y-82250000D01*
D63*
X50730000Y-75300000D02*
X50730000Y-76495000D01*
X50730000Y-74488445D02*
X50730000Y-75300000D01*
X53129000Y-73451000D02*
X52440564Y-74139436D01*
X51079009Y-74139436D02*
X50730000Y-74488445D01*
X52440564Y-74139436D02*
X51079009Y-74139436D01*
X50730000Y-76495000D02*
X50735000Y-76500000D01*
X53129000Y-73451000D02*
X54099000Y-73451000D01*
G04 #@! TA.AperFunction,Conductor*
G36*
X61700362Y-77533513D02*
G01*
X61703884Y-77533204D01*
X61731911Y-77547921D01*
X61760703Y-77561070D01*
X61765554Y-77565587D01*
X61765744Y-77565687D01*
X61765836Y-77565850D01*
X61767181Y-77567102D01*
X62290540Y-78090461D01*
X62346489Y-78146410D01*
X62346491Y-78146411D01*
X62346495Y-78146414D01*
X62415004Y-78185967D01*
X62415011Y-78185971D01*
X62491438Y-78206450D01*
X62491440Y-78206450D01*
X64096409Y-78206450D01*
X64163448Y-78226135D01*
X64209203Y-78278939D01*
X64220331Y-78326074D01*
X64417172Y-83903223D01*
X64472510Y-85471126D01*
X64455202Y-85538818D01*
X64404045Y-85586407D01*
X64348587Y-85599500D01*
X54364000Y-85599500D01*
X54296961Y-85579815D01*
X54251206Y-85527011D01*
X54240000Y-85475500D01*
X54240000Y-82152836D01*
X54259685Y-82085797D01*
X54312489Y-82040042D01*
X54381647Y-82030098D01*
X54398595Y-82033760D01*
X54479086Y-82057144D01*
X54500000Y-82058789D01*
X54500000Y-81404000D01*
X54519685Y-81336961D01*
X54572489Y-81291206D01*
X54624000Y-81280000D01*
X54876000Y-81280000D01*
X54943039Y-81299685D01*
X54988794Y-81352489D01*
X55000000Y-81404000D01*
X55000000Y-82058789D01*
X55020910Y-82057145D01*
X55176193Y-82012032D01*
X55292378Y-81943320D01*
X55360102Y-81926137D01*
X55426365Y-81948297D01*
X55470128Y-82002762D01*
X55479500Y-82050052D01*
X55479500Y-82419752D01*
X55491131Y-82478229D01*
X55491132Y-82478230D01*
X55535447Y-82544552D01*
X55601769Y-82588867D01*
X55601770Y-82588868D01*
X55660247Y-82600499D01*
X55660250Y-82600500D01*
X55660252Y-82600500D01*
X55805500Y-82600500D01*
X55814185Y-82603050D01*
X55823147Y-82601762D01*
X55847187Y-82612740D01*
X55872539Y-82620185D01*
X55878466Y-82627025D01*
X55886703Y-82630787D01*
X55900992Y-82653021D01*
X55918294Y-82672989D01*
X55920581Y-82683503D01*
X55924477Y-82689565D01*
X55929500Y-82724500D01*
X55929500Y-82816353D01*
X55909815Y-82883392D01*
X55857011Y-82929147D01*
X55821683Y-82939292D01*
X55770517Y-82946027D01*
X55770509Y-82946029D01*
X55661683Y-82996776D01*
X55576776Y-83081683D01*
X55526027Y-83190514D01*
X55519500Y-83240098D01*
X55519500Y-83659894D01*
X55519501Y-83659900D01*
X55526028Y-83709487D01*
X55576776Y-83818316D01*
X55661684Y-83903224D01*
X55770513Y-83953972D01*
X55820099Y-83960500D01*
X56179900Y-83960499D01*
X56189534Y-83959230D01*
X56258565Y-83969994D01*
X56304038Y-84010351D01*
X56305502Y-84009217D01*
X56310283Y-84015381D01*
X56424616Y-84129714D01*
X56424625Y-84129721D01*
X56563804Y-84212031D01*
X56710000Y-84254504D01*
X56710000Y-84254503D01*
X57210000Y-84254503D01*
X57356193Y-84212032D01*
X57416878Y-84176143D01*
X57484602Y-84158960D01*
X57543122Y-84176143D01*
X57603806Y-84212032D01*
X57750000Y-84254504D01*
X57750000Y-83700000D01*
X57210000Y-83700000D01*
X57210000Y-84254503D01*
X56710000Y-84254503D01*
X56710000Y-82720116D01*
X56729685Y-82653077D01*
X56738436Y-82645494D01*
X57210000Y-82645494D01*
X57210000Y-83200000D01*
X57750000Y-83200000D01*
X57750000Y-82645494D01*
X57749998Y-82645493D01*
X57603809Y-82687965D01*
X57603802Y-82687969D01*
X57543120Y-82723856D01*
X57475396Y-82741039D01*
X57416880Y-82723856D01*
X57356197Y-82687969D01*
X57356190Y-82687965D01*
X57210001Y-82645493D01*
X57210000Y-82645494D01*
X56738436Y-82645494D01*
X56782489Y-82607322D01*
X56809805Y-82598499D01*
X56858231Y-82588867D01*
X56924552Y-82544552D01*
X56924553Y-82544551D01*
X56944538Y-82514643D01*
X56959767Y-82491848D01*
X56968867Y-82478231D01*
X56968867Y-82478229D01*
X56968868Y-82478229D01*
X56980499Y-82419752D01*
X56980500Y-82419750D01*
X56980500Y-81874500D01*
X57000185Y-81807461D01*
X57052989Y-81761706D01*
X57104500Y-81750500D01*
X57119560Y-81750500D01*
X57119562Y-81750500D01*
X57195989Y-81730021D01*
X57264511Y-81690460D01*
X57320460Y-81634511D01*
X57392319Y-81562652D01*
X57453642Y-81529167D01*
X57523334Y-81534151D01*
X57567681Y-81562652D01*
X57695489Y-81690460D01*
X57754829Y-81724720D01*
X57764008Y-81730020D01*
X57764012Y-81730022D01*
X57840438Y-81750500D01*
X57855500Y-81750500D01*
X57922539Y-81770185D01*
X57968294Y-81822989D01*
X57979500Y-81874500D01*
X57979500Y-82419752D01*
X57991131Y-82478229D01*
X57991132Y-82478230D01*
X58035447Y-82544552D01*
X58079762Y-82574162D01*
X58101769Y-82588867D01*
X58150191Y-82598498D01*
X58212102Y-82630883D01*
X58246676Y-82691598D01*
X58250000Y-82720116D01*
X58250000Y-84254503D01*
X58396195Y-84212031D01*
X58535374Y-84129721D01*
X58535383Y-84129714D01*
X58649714Y-84015383D01*
X58654499Y-84009215D01*
X58656459Y-84010735D01*
X58698583Y-83971382D01*
X58767321Y-83958858D01*
X58770443Y-83959228D01*
X58780099Y-83960500D01*
X59139900Y-83960499D01*
X59189487Y-83953972D01*
X59298316Y-83903224D01*
X59383224Y-83818316D01*
X59433972Y-83709487D01*
X59440500Y-83659901D01*
X59440499Y-83240100D01*
X59433972Y-83190513D01*
X59383224Y-83081684D01*
X59298316Y-82996776D01*
X59189487Y-82946028D01*
X59189485Y-82946027D01*
X59138315Y-82939291D01*
X59137613Y-82938980D01*
X59136853Y-82939090D01*
X59105700Y-82924863D01*
X59074419Y-82911025D01*
X59073996Y-82910384D01*
X59073297Y-82910065D01*
X59054787Y-82881263D01*
X59035947Y-82852701D01*
X59035799Y-82851717D01*
X59035523Y-82851287D01*
X59030500Y-82816352D01*
X59030500Y-82724500D01*
X59050185Y-82657461D01*
X59102989Y-82611706D01*
X59154500Y-82600500D01*
X59299750Y-82600500D01*
X59299751Y-82600499D01*
X59314568Y-82597552D01*
X59358229Y-82588868D01*
X59358229Y-82588867D01*
X59358231Y-82588867D01*
X59424552Y-82544552D01*
X59468867Y-82478231D01*
X59468867Y-82478229D01*
X59468868Y-82478229D01*
X59480499Y-82419752D01*
X59480500Y-82419750D01*
X59480500Y-80480249D01*
X59480499Y-80480247D01*
X59468868Y-80421770D01*
X59468867Y-80421769D01*
X59424552Y-80355447D01*
X59358230Y-80311132D01*
X59358229Y-80311131D01*
X59299752Y-80299500D01*
X59299748Y-80299500D01*
X58160252Y-80299500D01*
X58160247Y-80299500D01*
X58128691Y-80305777D01*
X58059099Y-80299550D01*
X58003922Y-80256686D01*
X57980678Y-80190796D01*
X57980500Y-80184160D01*
X57980500Y-79699500D01*
X57981687Y-79695455D01*
X57980769Y-79691342D01*
X57991447Y-79662218D01*
X58000185Y-79632461D01*
X58003369Y-79629701D01*
X58004821Y-79625743D01*
X58029554Y-79607012D01*
X58052989Y-79586706D01*
X58058116Y-79585382D01*
X58060521Y-79583561D01*
X58076539Y-79580624D01*
X58094966Y-79575867D01*
X58099725Y-79575500D01*
X58199748Y-79575500D01*
X58258231Y-79563867D01*
X58259229Y-79563199D01*
X58270466Y-79562333D01*
X58279988Y-79564349D01*
X58304192Y-79564349D01*
X58360249Y-79575500D01*
X58360252Y-79575500D01*
X58599750Y-79575500D01*
X58655808Y-79564349D01*
X58704192Y-79564349D01*
X58760249Y-79575500D01*
X58760252Y-79575500D01*
X58999750Y-79575500D01*
X59055808Y-79564349D01*
X59104192Y-79564349D01*
X59160249Y-79575500D01*
X59160252Y-79575500D01*
X59399750Y-79575500D01*
X59455808Y-79564349D01*
X59504192Y-79564349D01*
X59560249Y-79575500D01*
X59560252Y-79575500D01*
X59799750Y-79575500D01*
X59855808Y-79564349D01*
X59904192Y-79564349D01*
X59960249Y-79575500D01*
X59960252Y-79575500D01*
X60199750Y-79575500D01*
X60199751Y-79575499D01*
X60214568Y-79572552D01*
X60258229Y-79563868D01*
X60258229Y-79563867D01*
X60258231Y-79563867D01*
X60324552Y-79519552D01*
X60368867Y-79453231D01*
X60368867Y-79453229D01*
X60368868Y-79453229D01*
X60380499Y-79394752D01*
X60380500Y-79394750D01*
X60380500Y-78524500D01*
X60400185Y-78457461D01*
X60452989Y-78411706D01*
X60504500Y-78400500D01*
X61374750Y-78400500D01*
X61374751Y-78400499D01*
X61389568Y-78397552D01*
X61433229Y-78388868D01*
X61433229Y-78388867D01*
X61433231Y-78388867D01*
X61499552Y-78344552D01*
X61543867Y-78278231D01*
X61543867Y-78278229D01*
X61543868Y-78278229D01*
X61553461Y-78230000D01*
X61555500Y-78219748D01*
X61555500Y-77980252D01*
X61555500Y-77980249D01*
X61544349Y-77924192D01*
X61542154Y-77893167D01*
X61542898Y-77879680D01*
X61543867Y-77878231D01*
X61555500Y-77819748D01*
X61555500Y-77651356D01*
X61555688Y-77647950D01*
X61566270Y-77618104D01*
X61575185Y-77587744D01*
X61577855Y-77585430D01*
X61579037Y-77582097D01*
X61604076Y-77562709D01*
X61627989Y-77541989D01*
X61631486Y-77541486D01*
X61634283Y-77539321D01*
X61665821Y-77536549D01*
X61697147Y-77532045D01*
X61700362Y-77533513D01*
G37*
G04 #@! TD.AperFunction*
G04 #@! TA.AperFunction,Conductor*
G36*
X63697338Y-65019685D02*
G01*
X63743093Y-65072489D01*
X63754222Y-65119626D01*
X64087804Y-74571126D01*
X64070496Y-74638818D01*
X64019339Y-74686407D01*
X63963881Y-74699500D01*
X62501008Y-74699500D01*
X62470437Y-74707691D01*
X62424578Y-74719979D01*
X62424577Y-74719980D01*
X62389108Y-74740459D01*
X62356062Y-74759537D01*
X62356057Y-74759541D01*
X61767181Y-75348418D01*
X61752207Y-75356594D01*
X61740294Y-75368812D01*
X61722174Y-75372993D01*
X61705858Y-75381903D01*
X61688840Y-75380685D01*
X61672213Y-75384523D01*
X61654711Y-75378245D01*
X61636166Y-75376919D01*
X61622507Y-75366694D01*
X61606446Y-75360933D01*
X61595116Y-75346188D01*
X61580233Y-75335047D01*
X61574042Y-75318763D01*
X61563874Y-75305531D01*
X61558903Y-75278944D01*
X61555937Y-75271141D01*
X61555500Y-75265950D01*
X61555500Y-75180252D01*
X61543867Y-75121769D01*
X61543286Y-75120900D01*
X61542403Y-75110404D01*
X61544349Y-75100882D01*
X61544349Y-75075808D01*
X61555500Y-75019750D01*
X61555500Y-74780249D01*
X61544349Y-74724192D01*
X61544349Y-74675808D01*
X61555500Y-74619750D01*
X61555500Y-74380249D01*
X61544349Y-74324192D01*
X61544349Y-74275808D01*
X61555500Y-74219750D01*
X61555500Y-73980249D01*
X61544349Y-73924192D01*
X61544349Y-73875808D01*
X61555500Y-73819750D01*
X61555500Y-73580249D01*
X61544349Y-73524192D01*
X61544349Y-73475808D01*
X61555500Y-73419750D01*
X61555500Y-73180249D01*
X61544349Y-73124192D01*
X61544349Y-73075808D01*
X61555500Y-73019750D01*
X61555500Y-72780249D01*
X61555499Y-72780247D01*
X61543868Y-72721770D01*
X61543867Y-72721769D01*
X61499552Y-72655447D01*
X61433230Y-72611132D01*
X61433229Y-72611131D01*
X61374752Y-72599500D01*
X61374748Y-72599500D01*
X60504500Y-72599500D01*
X60437461Y-72579815D01*
X60391706Y-72527011D01*
X60380500Y-72475500D01*
X60380500Y-71605249D01*
X60380499Y-71605247D01*
X60368868Y-71546770D01*
X60368867Y-71546769D01*
X60324552Y-71480447D01*
X60258230Y-71436132D01*
X60258229Y-71436131D01*
X60199752Y-71424500D01*
X60199748Y-71424500D01*
X59960252Y-71424500D01*
X59904190Y-71435651D01*
X59855810Y-71435651D01*
X59799748Y-71424500D01*
X59560252Y-71424500D01*
X59504190Y-71435651D01*
X59455810Y-71435651D01*
X59399748Y-71424500D01*
X59160252Y-71424500D01*
X59104190Y-71435651D01*
X59055810Y-71435651D01*
X58999748Y-71424500D01*
X58760252Y-71424500D01*
X58704190Y-71435651D01*
X58655810Y-71435651D01*
X58599748Y-71424500D01*
X58360252Y-71424500D01*
X58304190Y-71435651D01*
X58255810Y-71435651D01*
X58199748Y-71424500D01*
X57960252Y-71424500D01*
X57904190Y-71435651D01*
X57887045Y-71434279D01*
X57871283Y-71437726D01*
X57855810Y-71435651D01*
X57799748Y-71424500D01*
X57624782Y-71424500D01*
X57557743Y-71404815D01*
X57511988Y-71352011D01*
X57502044Y-71282853D01*
X57531069Y-71219297D01*
X57537081Y-71212838D01*
X57596409Y-71153510D01*
X57611999Y-71144997D01*
X57624547Y-71132424D01*
X57642024Y-71128602D01*
X57657728Y-71120028D01*
X57686784Y-71118817D01*
X57692804Y-71117501D01*
X57696930Y-71118394D01*
X57700272Y-71118255D01*
X57755683Y-71125550D01*
X57755684Y-71125550D01*
X58204317Y-71125550D01*
X58220601Y-71123406D01*
X58253173Y-71119118D01*
X58360404Y-71069115D01*
X58444065Y-70985454D01*
X58494068Y-70878223D01*
X58500500Y-70829366D01*
X58500500Y-70480734D01*
X58500427Y-70480183D01*
X58494068Y-70431877D01*
X58491496Y-70423052D01*
X58491634Y-70353182D01*
X58529525Y-70294479D01*
X58547426Y-70281618D01*
X58557288Y-70275785D01*
X58557294Y-70275781D01*
X58670731Y-70162344D01*
X58670738Y-70162335D01*
X58752404Y-70024244D01*
X58792844Y-69885050D01*
X58104000Y-69885050D01*
X58036961Y-69865365D01*
X57991206Y-69812561D01*
X57980000Y-69761050D01*
X57980000Y-69635050D01*
X57854000Y-69635050D01*
X57786961Y-69615365D01*
X57741206Y-69562561D01*
X57730000Y-69511050D01*
X57730000Y-69385050D01*
X58230000Y-69385050D01*
X58792844Y-69385050D01*
X58752404Y-69245855D01*
X58670738Y-69107764D01*
X58670731Y-69107755D01*
X58557294Y-68994318D01*
X58557285Y-68994311D01*
X58444355Y-68927525D01*
X60699500Y-68927525D01*
X60699500Y-69072475D01*
X60708956Y-69107764D01*
X60737017Y-69212488D01*
X60809488Y-69338011D01*
X60809490Y-69338013D01*
X60809491Y-69338015D01*
X60911985Y-69440509D01*
X60911986Y-69440510D01*
X60911988Y-69440511D01*
X61037511Y-69512982D01*
X61037512Y-69512982D01*
X61037515Y-69512984D01*
X61177525Y-69550500D01*
X61177528Y-69550500D01*
X61322472Y-69550500D01*
X61322475Y-69550500D01*
X61462485Y-69512984D01*
X61588015Y-69440509D01*
X61690509Y-69338015D01*
X61762984Y-69212485D01*
X61800500Y-69072475D01*
X61800500Y-68927525D01*
X61762984Y-68787515D01*
X61715602Y-68705448D01*
X61690511Y-68661988D01*
X61690506Y-68661982D01*
X61588017Y-68559493D01*
X61588011Y-68559488D01*
X61462488Y-68487017D01*
X61462489Y-68487017D01*
X61447109Y-68482896D01*
X61322475Y-68449500D01*
X61177525Y-68449500D01*
X61052891Y-68482896D01*
X61037511Y-68487017D01*
X60911988Y-68559488D01*
X60911982Y-68559493D01*
X60809493Y-68661982D01*
X60809488Y-68661988D01*
X60737017Y-68787511D01*
X60732583Y-68804055D01*
X60699500Y-68927525D01*
X58444355Y-68927525D01*
X58419191Y-68912643D01*
X58419188Y-68912642D01*
X58265130Y-68867884D01*
X58230000Y-68865118D01*
X58230000Y-69385050D01*
X57730000Y-69385050D01*
X57730000Y-68865118D01*
X57729999Y-68865118D01*
X57694869Y-68867884D01*
X57694868Y-68867884D01*
X57540811Y-68912642D01*
X57540808Y-68912643D01*
X57402714Y-68994311D01*
X57402705Y-68994318D01*
X57289268Y-69107755D01*
X57289264Y-69107761D01*
X57239630Y-69191687D01*
X57188560Y-69239370D01*
X57119818Y-69251873D01*
X57055229Y-69225227D01*
X57045217Y-69216246D01*
X56816819Y-68987848D01*
X56783334Y-68926525D01*
X56780500Y-68900167D01*
X56780500Y-68830249D01*
X56780499Y-68830247D01*
X56768868Y-68771770D01*
X56768867Y-68771769D01*
X56724552Y-68705447D01*
X56658230Y-68661132D01*
X56658229Y-68661131D01*
X56599752Y-68649500D01*
X56599748Y-68649500D01*
X56579500Y-68649500D01*
X56512461Y-68629815D01*
X56466706Y-68577011D01*
X56455500Y-68525500D01*
X56455500Y-68155439D01*
X56435020Y-68079009D01*
X56435017Y-68079004D01*
X56395464Y-68010495D01*
X56395458Y-68010487D01*
X56226818Y-67841847D01*
X56226187Y-67840691D01*
X57749500Y-67840691D01*
X57749500Y-67959309D01*
X57780201Y-68073886D01*
X57839511Y-68176613D01*
X57923387Y-68260489D01*
X58026114Y-68319799D01*
X58140691Y-68350500D01*
X58140694Y-68350500D01*
X58259306Y-68350500D01*
X58259309Y-68350500D01*
X58373886Y-68319799D01*
X58476613Y-68260489D01*
X58560489Y-68176613D01*
X58619799Y-68073886D01*
X58650500Y-67959309D01*
X58650500Y-67840691D01*
X58619799Y-67726114D01*
X58560489Y-67623387D01*
X58476613Y-67539511D01*
X58373886Y-67480201D01*
X58259309Y-67449500D01*
X58140691Y-67449500D01*
X58026114Y-67480201D01*
X58026112Y-67480201D01*
X58026112Y-67480202D01*
X57923387Y-67539511D01*
X57923384Y-67539513D01*
X57839513Y-67623384D01*
X57839511Y-67623387D01*
X57780201Y-67726114D01*
X57749500Y-67840691D01*
X56226187Y-67840691D01*
X56193333Y-67780524D01*
X56193333Y-67780520D01*
X56190499Y-67754166D01*
X56190499Y-67540105D01*
X56190499Y-67540100D01*
X56183972Y-67490513D01*
X56133224Y-67381684D01*
X56048316Y-67296776D01*
X55939487Y-67246028D01*
X55939485Y-67246027D01*
X55939486Y-67246027D01*
X55889902Y-67239500D01*
X55530102Y-67239500D01*
X55521746Y-67240600D01*
X55520459Y-67240769D01*
X55451425Y-67230001D01*
X55405964Y-67189648D01*
X55404499Y-67190785D01*
X55399714Y-67184616D01*
X55285383Y-67070285D01*
X55285374Y-67070278D01*
X55146193Y-66987967D01*
X55146190Y-66987965D01*
X55000001Y-66945493D01*
X55000000Y-66945494D01*
X55000000Y-68220000D01*
X55018681Y-68238681D01*
X55052166Y-68300004D01*
X55055000Y-68326362D01*
X55055000Y-69101000D01*
X55035315Y-69168039D01*
X54982511Y-69213794D01*
X54931000Y-69225000D01*
X54805000Y-69225000D01*
X54805000Y-69351000D01*
X54785315Y-69418039D01*
X54732511Y-69463794D01*
X54681000Y-69475000D01*
X53874000Y-69475000D01*
X53806961Y-69455315D01*
X53761206Y-69402511D01*
X53750000Y-69351000D01*
X53750000Y-69270000D01*
X52425496Y-69270000D01*
X52467968Y-69416195D01*
X52550278Y-69555374D01*
X52550285Y-69555383D01*
X52664616Y-69669714D01*
X52670785Y-69674499D01*
X52669265Y-69676457D01*
X52708625Y-69718599D01*
X52721139Y-69787339D01*
X52720769Y-69790461D01*
X52719500Y-69800101D01*
X52719500Y-70159894D01*
X52719823Y-70162344D01*
X52726028Y-70209487D01*
X52726029Y-70209489D01*
X52726029Y-70209490D01*
X52776776Y-70318316D01*
X52861684Y-70403224D01*
X52970513Y-70453972D01*
X53020099Y-70460500D01*
X53234165Y-70460499D01*
X53301205Y-70480183D01*
X53321847Y-70496818D01*
X53340489Y-70515460D01*
X53340491Y-70515461D01*
X53340495Y-70515464D01*
X53409004Y-70555017D01*
X53409011Y-70555021D01*
X53485438Y-70575500D01*
X53564562Y-70575500D01*
X54058988Y-70575500D01*
X54126027Y-70595185D01*
X54171782Y-70647989D01*
X54180605Y-70675308D01*
X54191132Y-70728229D01*
X54191132Y-70728230D01*
X54235447Y-70794552D01*
X54301769Y-70838867D01*
X54301770Y-70838868D01*
X54360247Y-70850499D01*
X54360250Y-70850500D01*
X54360252Y-70850500D01*
X54674167Y-70850500D01*
X54741206Y-70870185D01*
X54761848Y-70886819D01*
X55087848Y-71212819D01*
X55121333Y-71274142D01*
X55116349Y-71343834D01*
X55074477Y-71399767D01*
X55009013Y-71424184D01*
X55000167Y-71424500D01*
X54760247Y-71424500D01*
X54701770Y-71436131D01*
X54701769Y-71436132D01*
X54635447Y-71480447D01*
X54591132Y-71546769D01*
X54591132Y-71546770D01*
X54580605Y-71599692D01*
X54548220Y-71661603D01*
X54487504Y-71696177D01*
X54458988Y-71699500D01*
X53538023Y-71699500D01*
X53470984Y-71679815D01*
X53450342Y-71663181D01*
X52637819Y-70850658D01*
X52604334Y-70789335D01*
X52601500Y-70762977D01*
X52601500Y-70624858D01*
X52601500Y-70624856D01*
X52577614Y-70535712D01*
X52568530Y-70519978D01*
X52568530Y-70519977D01*
X52531474Y-70455794D01*
X52531468Y-70455786D01*
X51396818Y-69321136D01*
X51363333Y-69259813D01*
X51360499Y-69233455D01*
X51360499Y-69090105D01*
X51360499Y-69090100D01*
X51353972Y-69040513D01*
X51303224Y-68931684D01*
X51266819Y-68895279D01*
X51252115Y-68868351D01*
X51235523Y-68842533D01*
X51234631Y-68836332D01*
X51233334Y-68833956D01*
X51230500Y-68807598D01*
X51230500Y-68770000D01*
X52425496Y-68770000D01*
X52980000Y-68770000D01*
X52980000Y-68241210D01*
X52979999Y-68241209D01*
X53480000Y-68241209D01*
X53480000Y-68770000D01*
X54046000Y-68770000D01*
X54113039Y-68789685D01*
X54158794Y-68842489D01*
X54170000Y-68894000D01*
X54170000Y-68975000D01*
X54555000Y-68975000D01*
X54555000Y-68690000D01*
X54536319Y-68671319D01*
X54502834Y-68609996D01*
X54500000Y-68583638D01*
X54500000Y-68000000D01*
X53971210Y-68000000D01*
X53972854Y-68020910D01*
X54017968Y-68176195D01*
X54092624Y-68302431D01*
X54093165Y-68304565D01*
X54094723Y-68306123D01*
X54101714Y-68338258D01*
X54109807Y-68370155D01*
X54109108Y-68372244D01*
X54109576Y-68374396D01*
X54098083Y-68405209D01*
X54087647Y-68436417D01*
X54085688Y-68438443D01*
X54085160Y-68439861D01*
X54060204Y-68464818D01*
X54048835Y-68473329D01*
X53983371Y-68497747D01*
X53915098Y-68482896D01*
X53886842Y-68461744D01*
X53795383Y-68370285D01*
X53795374Y-68370278D01*
X53656195Y-68287968D01*
X53656190Y-68287966D01*
X53500918Y-68242855D01*
X53500912Y-68242854D01*
X53480000Y-68241209D01*
X52979999Y-68241209D01*
X52959087Y-68242854D01*
X52959081Y-68242855D01*
X52803809Y-68287966D01*
X52803804Y-68287968D01*
X52664625Y-68370278D01*
X52664616Y-68370285D01*
X52550285Y-68484616D01*
X52550278Y-68484625D01*
X52467968Y-68623804D01*
X52425496Y-68770000D01*
X51230500Y-68770000D01*
X51230500Y-68692402D01*
X51250185Y-68625363D01*
X51266819Y-68604721D01*
X51303224Y-68568316D01*
X51353972Y-68459487D01*
X51360500Y-68409901D01*
X51360499Y-67990100D01*
X51353972Y-67940513D01*
X51303224Y-67831684D01*
X51266819Y-67795279D01*
X51252115Y-67768351D01*
X51235523Y-67742533D01*
X51234631Y-67736332D01*
X51233334Y-67733956D01*
X51230500Y-67707598D01*
X51230500Y-67499999D01*
X53971209Y-67499999D01*
X53971210Y-67500000D01*
X54500000Y-67500000D01*
X54500000Y-66945494D01*
X54499998Y-66945493D01*
X54353809Y-66987965D01*
X54353806Y-66987967D01*
X54214625Y-67070278D01*
X54214616Y-67070285D01*
X54100285Y-67184616D01*
X54100278Y-67184625D01*
X54017968Y-67323804D01*
X54017966Y-67323809D01*
X53972855Y-67479081D01*
X53972854Y-67479087D01*
X53971209Y-67499999D01*
X51230500Y-67499999D01*
X51230500Y-67492402D01*
X51250185Y-67425363D01*
X51266819Y-67404721D01*
X51303224Y-67368316D01*
X51353972Y-67259487D01*
X51360500Y-67209901D01*
X51360499Y-66986545D01*
X51369144Y-66957100D01*
X51375667Y-66927118D01*
X51379419Y-66922104D01*
X51380183Y-66919506D01*
X51396818Y-66898864D01*
X51466518Y-66829164D01*
X51522102Y-66797071D01*
X51623886Y-66769799D01*
X51726613Y-66710489D01*
X51810489Y-66626613D01*
X51869799Y-66523886D01*
X51900500Y-66409309D01*
X51900500Y-66290691D01*
X51869799Y-66176114D01*
X51810489Y-66073387D01*
X51726613Y-65989511D01*
X51623886Y-65930201D01*
X51589335Y-65920943D01*
X60734500Y-65920943D01*
X60734500Y-66079057D01*
X60760507Y-66176114D01*
X60775423Y-66231783D01*
X60775426Y-66231790D01*
X60854475Y-66368709D01*
X60854479Y-66368714D01*
X60854480Y-66368716D01*
X60966284Y-66480520D01*
X60966286Y-66480521D01*
X60966290Y-66480524D01*
X61081044Y-66546776D01*
X61103216Y-66559577D01*
X61255943Y-66600500D01*
X61255945Y-66600500D01*
X61414055Y-66600500D01*
X61414057Y-66600500D01*
X61566784Y-66559577D01*
X61703716Y-66480520D01*
X61815520Y-66368716D01*
X61894577Y-66231784D01*
X61935500Y-66079057D01*
X61935500Y-65920943D01*
X61894577Y-65768216D01*
X61894573Y-65768209D01*
X61815524Y-65631290D01*
X61815518Y-65631282D01*
X61703717Y-65519481D01*
X61703709Y-65519475D01*
X61566790Y-65440426D01*
X61566786Y-65440424D01*
X61566784Y-65440423D01*
X61414057Y-65399500D01*
X61255943Y-65399500D01*
X61103216Y-65440423D01*
X61103209Y-65440426D01*
X60966290Y-65519475D01*
X60966282Y-65519481D01*
X60854481Y-65631282D01*
X60854475Y-65631290D01*
X60775426Y-65768209D01*
X60775423Y-65768216D01*
X60734500Y-65920943D01*
X51589335Y-65920943D01*
X51509309Y-65899500D01*
X51390691Y-65899500D01*
X51276114Y-65930201D01*
X51276112Y-65930201D01*
X51276112Y-65930202D01*
X51173387Y-65989511D01*
X51173384Y-65989513D01*
X51089513Y-66073384D01*
X51089511Y-66073387D01*
X51030201Y-66176114D01*
X51002929Y-66277895D01*
X50994910Y-66291782D01*
X50991986Y-66305228D01*
X50970835Y-66333483D01*
X50851135Y-66453182D01*
X50789812Y-66486666D01*
X50763456Y-66489500D01*
X50700103Y-66489500D01*
X50693239Y-66490403D01*
X50690460Y-66490769D01*
X50621426Y-66480001D01*
X50575964Y-66439648D01*
X50574499Y-66440785D01*
X50569714Y-66434616D01*
X50455383Y-66320285D01*
X50455374Y-66320278D01*
X50316193Y-66237967D01*
X50316190Y-66237965D01*
X50170001Y-66195493D01*
X50170000Y-66195494D01*
X50170000Y-70104503D01*
X50316195Y-70062031D01*
X50455374Y-69979721D01*
X50455383Y-69979714D01*
X50569714Y-69865383D01*
X50574499Y-69859215D01*
X50576459Y-69860735D01*
X50576462Y-69860732D01*
X50581693Y-69849685D01*
X50601513Y-69837329D01*
X50618583Y-69821382D01*
X50632069Y-69818280D01*
X50640985Y-69812723D01*
X50662989Y-69811170D01*
X50675986Y-69808182D01*
X50683251Y-69808282D01*
X50700099Y-69810500D01*
X50844309Y-69810499D01*
X50845162Y-69810511D01*
X50877756Y-69820570D01*
X50910494Y-69830183D01*
X50911482Y-69830979D01*
X50911924Y-69831116D01*
X50912500Y-69831799D01*
X50931136Y-69846818D01*
X51224642Y-70140324D01*
X51258127Y-70201647D01*
X51253143Y-70271339D01*
X51211271Y-70327272D01*
X51160900Y-70348000D01*
X51161175Y-70349087D01*
X51057859Y-70375165D01*
X51057838Y-70375171D01*
X51012437Y-70391695D01*
X51294946Y-71167882D01*
X51299377Y-71237611D01*
X51265407Y-71298666D01*
X51220835Y-71326814D01*
X51102434Y-71369908D01*
X51102433Y-71369909D01*
X51145528Y-71488310D01*
X51149959Y-71558039D01*
X51115989Y-71619094D01*
X51071417Y-71647242D01*
X50271740Y-71938300D01*
X50279714Y-71960209D01*
X50323203Y-72050042D01*
X50428322Y-72182986D01*
X50561264Y-72288103D01*
X50561269Y-72288106D01*
X50714872Y-72359732D01*
X50714871Y-72359732D01*
X50830592Y-72383626D01*
X50851097Y-72394542D01*
X50873341Y-72401256D01*
X50881362Y-72410655D01*
X50892266Y-72416460D01*
X50903613Y-72436728D01*
X50918697Y-72454403D01*
X50920363Y-72466646D01*
X50926398Y-72477425D01*
X50924986Y-72500611D01*
X50928120Y-72523634D01*
X50922438Y-72542455D01*
X50922152Y-72547166D01*
X50917921Y-72557423D01*
X50917485Y-72558359D01*
X50871334Y-72610817D01*
X50805082Y-72630000D01*
X50425091Y-72630000D01*
X50358052Y-72610315D01*
X50340523Y-72596688D01*
X50325286Y-72582479D01*
X50204929Y-72526356D01*
X50204927Y-72526355D01*
X50139017Y-72518262D01*
X50073109Y-72510169D01*
X50073108Y-72510169D01*
X50073107Y-72510169D01*
X49986464Y-72527011D01*
X49975537Y-72529135D01*
X49975533Y-72529136D01*
X49975531Y-72529137D01*
X49502419Y-72701335D01*
X49502406Y-72701341D01*
X49415476Y-72749527D01*
X49324900Y-72846657D01*
X49268775Y-72967018D01*
X49252590Y-73098834D01*
X49252590Y-73098836D01*
X49270944Y-73193262D01*
X49271556Y-73196407D01*
X49301982Y-73280001D01*
X49469408Y-73740001D01*
X49469413Y-73740014D01*
X49517599Y-73826944D01*
X49517601Y-73826947D01*
X49614727Y-73917519D01*
X49735086Y-73973643D01*
X49735088Y-73973644D01*
X49735089Y-73973644D01*
X49735091Y-73973645D01*
X49866907Y-73989831D01*
X49964479Y-73970865D01*
X50326942Y-73838938D01*
X50437596Y-73798664D01*
X50437599Y-73798662D01*
X50437606Y-73798660D01*
X50524542Y-73750471D01*
X50615115Y-73653343D01*
X50623599Y-73635150D01*
X50629920Y-73621595D01*
X50641382Y-73608576D01*
X50648589Y-73592797D01*
X50663994Y-73582896D01*
X50676093Y-73569156D01*
X50692976Y-73564271D01*
X50707367Y-73555023D01*
X50742302Y-73550000D01*
X50982714Y-73550000D01*
X51049753Y-73569685D01*
X51095508Y-73622489D01*
X51105452Y-73691647D01*
X51076427Y-73755203D01*
X51017649Y-73792977D01*
X51014837Y-73793766D01*
X50943721Y-73812822D01*
X50943720Y-73812822D01*
X50943718Y-73812823D01*
X50943715Y-73812824D01*
X50863803Y-73858962D01*
X50863794Y-73858969D01*
X50449531Y-74273231D01*
X50449529Y-74273233D01*
X50434076Y-74300000D01*
X50421508Y-74321769D01*
X50403386Y-74353157D01*
X50379500Y-74442301D01*
X50379500Y-74465707D01*
X50373820Y-74483822D01*
X50364524Y-74497721D01*
X50359815Y-74513760D01*
X50345506Y-74526158D01*
X50334979Y-74541900D01*
X50319645Y-74548566D01*
X50307011Y-74559515D01*
X50288268Y-74562209D01*
X50270904Y-74569760D01*
X50254403Y-74567079D01*
X50237853Y-74569459D01*
X50211108Y-74560045D01*
X50201938Y-74558556D01*
X50198760Y-74555699D01*
X50192380Y-74553454D01*
X50166191Y-74537966D01*
X50166190Y-74537965D01*
X50020001Y-74495493D01*
X50020000Y-74495494D01*
X50020000Y-75176000D01*
X50000315Y-75243039D01*
X49947511Y-75288794D01*
X49896000Y-75300000D01*
X49770000Y-75300000D01*
X49770000Y-75426000D01*
X49750315Y-75493039D01*
X49697511Y-75538794D01*
X49646000Y-75550000D01*
X48991210Y-75550000D01*
X48992854Y-75570910D01*
X49037968Y-75726195D01*
X49120278Y-75865374D01*
X49120285Y-75865383D01*
X49234616Y-75979714D01*
X49234624Y-75979720D01*
X49264453Y-75997361D01*
X49312136Y-76048430D01*
X49324640Y-76117171D01*
X49312733Y-76158552D01*
X49279355Y-76226827D01*
X49279355Y-76226830D01*
X49269500Y-76294472D01*
X49269500Y-76705528D01*
X49276086Y-76750731D01*
X49279515Y-76774268D01*
X49278856Y-76778908D01*
X49280494Y-76783298D01*
X49273995Y-76813172D01*
X49269700Y-76843445D01*
X49266361Y-76848262D01*
X49265642Y-76851571D01*
X49244491Y-76879825D01*
X49121135Y-77003181D01*
X49059812Y-77036666D01*
X49033455Y-77039500D01*
X48890105Y-77039500D01*
X48874386Y-77041569D01*
X48840513Y-77046028D01*
X48840511Y-77046029D01*
X48840509Y-77046029D01*
X48731683Y-77096776D01*
X48646776Y-77181683D01*
X48596027Y-77290514D01*
X48589500Y-77340097D01*
X48589500Y-77699896D01*
X48590770Y-77709538D01*
X48580001Y-77778573D01*
X48539650Y-77824032D01*
X48540788Y-77825499D01*
X48534621Y-77830282D01*
X48420282Y-77944620D01*
X48420278Y-77944625D01*
X48337968Y-78083804D01*
X48295496Y-78230000D01*
X51038638Y-78230000D01*
X51105677Y-78249685D01*
X51126319Y-78266319D01*
X51140000Y-78280000D01*
X52147860Y-78280000D01*
X52179950Y-78284224D01*
X52240691Y-78300500D01*
X52240693Y-78300500D01*
X52359306Y-78300500D01*
X52359309Y-78300500D01*
X52473886Y-78269799D01*
X52576613Y-78210489D01*
X52660489Y-78126613D01*
X52719799Y-78023886D01*
X52750500Y-77909309D01*
X52750500Y-77790691D01*
X52719799Y-77676114D01*
X52660489Y-77573387D01*
X52576613Y-77489511D01*
X52473886Y-77430201D01*
X52372102Y-77402927D01*
X52316517Y-77370835D01*
X52235213Y-77289531D01*
X52235208Y-77289527D01*
X52155290Y-77243387D01*
X52155289Y-77243386D01*
X52155288Y-77243386D01*
X52066144Y-77219500D01*
X52066143Y-77219500D01*
X51842402Y-77219500D01*
X51775363Y-77199815D01*
X51754721Y-77183181D01*
X51718316Y-77146776D01*
X51609487Y-77096028D01*
X51609485Y-77096027D01*
X51609486Y-77096027D01*
X51559902Y-77089500D01*
X51257009Y-77089500D01*
X51189970Y-77069815D01*
X51144215Y-77017011D01*
X51134271Y-76947853D01*
X51163296Y-76884297D01*
X51169334Y-76877813D01*
X51169636Y-76877511D01*
X51220645Y-76773170D01*
X51230500Y-76705528D01*
X51230500Y-76360000D01*
X51687156Y-76360000D01*
X51727595Y-76499194D01*
X51809261Y-76637285D01*
X51809268Y-76637294D01*
X51922705Y-76750731D01*
X51922714Y-76750738D01*
X52060808Y-76832406D01*
X52060811Y-76832407D01*
X52214871Y-76877166D01*
X52214877Y-76877167D01*
X52250000Y-76879931D01*
X52250000Y-76360000D01*
X51687156Y-76360000D01*
X51230500Y-76360000D01*
X51230500Y-76294472D01*
X51220645Y-76226830D01*
X51169636Y-76122489D01*
X51169634Y-76122487D01*
X51169634Y-76122486D01*
X51116819Y-76069671D01*
X51102115Y-76042743D01*
X51085523Y-76016925D01*
X51084631Y-76010724D01*
X51083334Y-76008348D01*
X51080500Y-75981990D01*
X51080500Y-75792402D01*
X51100185Y-75725363D01*
X51116819Y-75704721D01*
X51130413Y-75691127D01*
X51153224Y-75668316D01*
X51203972Y-75559487D01*
X51210500Y-75509901D01*
X51210499Y-75090100D01*
X51203972Y-75040513D01*
X51153224Y-74931684D01*
X51116819Y-74895279D01*
X51102115Y-74868351D01*
X51085523Y-74842533D01*
X51084631Y-74836332D01*
X51083334Y-74833956D01*
X51080500Y-74807598D01*
X51080500Y-74684988D01*
X51100185Y-74617949D01*
X51116819Y-74597307D01*
X51187871Y-74526255D01*
X51249194Y-74492770D01*
X51275552Y-74489936D01*
X52006233Y-74489936D01*
X52073272Y-74509621D01*
X52119027Y-74562425D01*
X52128971Y-74631583D01*
X52099946Y-74695139D01*
X52093914Y-74701617D01*
X52035935Y-74759595D01*
X51985931Y-74866828D01*
X51979500Y-74915683D01*
X51979500Y-75264316D01*
X51985931Y-75313173D01*
X51988505Y-75322003D01*
X51988363Y-75391873D01*
X51950469Y-75450574D01*
X51932582Y-75463426D01*
X51922708Y-75469265D01*
X51922708Y-75469266D01*
X51809268Y-75582705D01*
X51809261Y-75582714D01*
X51727595Y-75720805D01*
X51687156Y-75860000D01*
X52376000Y-75860000D01*
X52443039Y-75879685D01*
X52488794Y-75932489D01*
X52500000Y-75984000D01*
X52500000Y-76110000D01*
X52626000Y-76110000D01*
X52693039Y-76129685D01*
X52738794Y-76182489D01*
X52750000Y-76234000D01*
X52750000Y-76879930D01*
X52785122Y-76877167D01*
X52785128Y-76877166D01*
X52939188Y-76832407D01*
X52939191Y-76832406D01*
X53077285Y-76750738D01*
X53077294Y-76750731D01*
X53190728Y-76637297D01*
X53194325Y-76632660D01*
X53250964Y-76591748D01*
X53320731Y-76587951D01*
X53381475Y-76622476D01*
X53413910Y-76684361D01*
X53413930Y-76732841D01*
X53405909Y-76773170D01*
X53404500Y-76780252D01*
X53404500Y-77019748D01*
X53404650Y-77020500D01*
X53415651Y-77075810D01*
X53415651Y-77124190D01*
X53404500Y-77180252D01*
X53404500Y-77419748D01*
X53408011Y-77437399D01*
X53415651Y-77475810D01*
X53415651Y-77524190D01*
X53404501Y-77580249D01*
X53404500Y-77580252D01*
X53404500Y-77819748D01*
X53405352Y-77824032D01*
X53415651Y-77875810D01*
X53415651Y-77924190D01*
X53404500Y-77980252D01*
X53404500Y-78219752D01*
X53416131Y-78278229D01*
X53416132Y-78278230D01*
X53460447Y-78344552D01*
X53526769Y-78388867D01*
X53526770Y-78388868D01*
X53585247Y-78400499D01*
X53585250Y-78400500D01*
X54455500Y-78400500D01*
X54522539Y-78420185D01*
X54568294Y-78472989D01*
X54579500Y-78524500D01*
X54579500Y-79394752D01*
X54591131Y-79453229D01*
X54591132Y-79453230D01*
X54635447Y-79519552D01*
X54701769Y-79563867D01*
X54701770Y-79563868D01*
X54760247Y-79575499D01*
X54760250Y-79575500D01*
X54770166Y-79575500D01*
X54791414Y-79581739D01*
X54813503Y-79583320D01*
X54824283Y-79591390D01*
X54837205Y-79595185D01*
X54851706Y-79611920D01*
X54869435Y-79625193D01*
X54874140Y-79637811D01*
X54882960Y-79647989D01*
X54886111Y-79669909D01*
X54893850Y-79690658D01*
X54890987Y-79703816D01*
X54892904Y-79717147D01*
X54883703Y-79737293D01*
X54878996Y-79758930D01*
X54865728Y-79776652D01*
X54863879Y-79780703D01*
X54857855Y-79787172D01*
X54844045Y-79800982D01*
X54841844Y-79803184D01*
X54780519Y-79836667D01*
X54754166Y-79839500D01*
X54540105Y-79839500D01*
X54524386Y-79841569D01*
X54490513Y-79846028D01*
X54490511Y-79846029D01*
X54490509Y-79846029D01*
X54416405Y-79880585D01*
X54347327Y-79891077D01*
X54283543Y-79862557D01*
X54245304Y-79804081D01*
X54240000Y-79768203D01*
X54240000Y-79500000D01*
X51825056Y-79500000D01*
X51758017Y-79480315D01*
X51712262Y-79427511D01*
X51702318Y-79358353D01*
X51731343Y-79294797D01*
X51769824Y-79266585D01*
X51769480Y-79266003D01*
X51775376Y-79262515D01*
X51775810Y-79262198D01*
X51776197Y-79262030D01*
X51915374Y-79179721D01*
X51915383Y-79179714D01*
X52029714Y-79065383D01*
X52029721Y-79065374D01*
X52112031Y-78926195D01*
X52154504Y-78780000D01*
X50511362Y-78780000D01*
X50444323Y-78760315D01*
X50423681Y-78743681D01*
X50410000Y-78730000D01*
X48295496Y-78730000D01*
X48337968Y-78876195D01*
X48420278Y-79015374D01*
X48420285Y-79015383D01*
X48534616Y-79129714D01*
X48534625Y-79129721D01*
X48673803Y-79212030D01*
X48828325Y-79256923D01*
X48887210Y-79294530D01*
X48916417Y-79358002D01*
X48906671Y-79427189D01*
X48861067Y-79480123D01*
X48794085Y-79499999D01*
X48793730Y-79500000D01*
X47963587Y-79500000D01*
X47946837Y-79501801D01*
X43564000Y-79501801D01*
X43555314Y-79499250D01*
X43546353Y-79500539D01*
X43522312Y-79489560D01*
X43496961Y-79482116D01*
X43491033Y-79475275D01*
X43482797Y-79471514D01*
X43468507Y-79449279D01*
X43451206Y-79429312D01*
X43448918Y-79418797D01*
X43445023Y-79412736D01*
X43440000Y-79377801D01*
X43440000Y-79230225D01*
X43452600Y-79175764D01*
X43485644Y-79108172D01*
X43485643Y-79108172D01*
X43485645Y-79108170D01*
X43495500Y-79040528D01*
X43495500Y-78679472D01*
X43485645Y-78611830D01*
X43452599Y-78544232D01*
X43449802Y-78532145D01*
X43445023Y-78524708D01*
X43440000Y-78489773D01*
X43440000Y-78260225D01*
X43452600Y-78205764D01*
X43455174Y-78200500D01*
X43485645Y-78138170D01*
X43495500Y-78070528D01*
X43495500Y-77709472D01*
X43485645Y-77641830D01*
X43457687Y-77584640D01*
X43445929Y-77515767D01*
X43473272Y-77451470D01*
X43531037Y-77412164D01*
X43600882Y-77410326D01*
X43603683Y-77411105D01*
X43710000Y-77441992D01*
X43710000Y-77441991D01*
X44210000Y-77441991D01*
X44366697Y-77396468D01*
X44507508Y-77313193D01*
X44507516Y-77313187D01*
X44623187Y-77197516D01*
X44623193Y-77197508D01*
X44706468Y-77056697D01*
X44706470Y-77056692D01*
X44752109Y-76899603D01*
X44752111Y-76899591D01*
X44754047Y-76875000D01*
X44210000Y-76875000D01*
X44210000Y-77441991D01*
X43710000Y-77441991D01*
X43710000Y-75854238D01*
X43575708Y-75835866D01*
X43566896Y-75831914D01*
X43557241Y-75831887D01*
X43535539Y-75817852D01*
X43513584Y-75808006D01*
X44210000Y-75808006D01*
X44210000Y-76375000D01*
X44754046Y-76375000D01*
X44752110Y-76350402D01*
X44706470Y-76193307D01*
X44706468Y-76193302D01*
X44623193Y-76052491D01*
X44623187Y-76052483D01*
X44507516Y-75936812D01*
X44507508Y-75936806D01*
X44366695Y-75853530D01*
X44366692Y-75853528D01*
X44210001Y-75808005D01*
X44210000Y-75808006D01*
X43513584Y-75808006D01*
X43511956Y-75807276D01*
X43506679Y-75799188D01*
X43498571Y-75793944D01*
X43487901Y-75770403D01*
X43473780Y-75748757D01*
X43473714Y-75739100D01*
X43469728Y-75730306D01*
X43473479Y-75704732D01*
X43473303Y-75678889D01*
X43478467Y-75670731D01*
X43479869Y-75661176D01*
X43480135Y-75660604D01*
X43495464Y-75627732D01*
X43503972Y-75609487D01*
X43509478Y-75567663D01*
X45755001Y-75567663D01*
X45765144Y-75666948D01*
X45818452Y-75827822D01*
X45818457Y-75827833D01*
X45907424Y-75972069D01*
X45907427Y-75972073D01*
X46027267Y-76091913D01*
X46027271Y-76091916D01*
X46171507Y-76180883D01*
X46171518Y-76180888D01*
X46332393Y-76234196D01*
X46431683Y-76244340D01*
X46980000Y-76244340D01*
X47028308Y-76244340D01*
X47028322Y-76244339D01*
X47127607Y-76234196D01*
X47288481Y-76180888D01*
X47288492Y-76180883D01*
X47432728Y-76091916D01*
X47432732Y-76091913D01*
X47552572Y-75972073D01*
X47552575Y-75972069D01*
X47641542Y-75827833D01*
X47641547Y-75827822D01*
X47694855Y-75666947D01*
X47704999Y-75567663D01*
X47705000Y-75567650D01*
X47705000Y-75544341D01*
X46980000Y-75544341D01*
X46980000Y-76244340D01*
X46431683Y-76244340D01*
X46479999Y-76244339D01*
X46480000Y-76244339D01*
X46480000Y-75544341D01*
X45755001Y-75544341D01*
X45755001Y-75567663D01*
X43509478Y-75567663D01*
X43510500Y-75559901D01*
X43510499Y-75378245D01*
X43510499Y-75200105D01*
X43510499Y-75200100D01*
X43503972Y-75150513D01*
X43503970Y-75150508D01*
X43471618Y-75081129D01*
X43464717Y-75049999D01*
X48991209Y-75049999D01*
X48991210Y-75050000D01*
X49520000Y-75050000D01*
X49520000Y-74495494D01*
X49519998Y-74495493D01*
X49373809Y-74537965D01*
X49373806Y-74537967D01*
X49234625Y-74620278D01*
X49234616Y-74620285D01*
X49120285Y-74734616D01*
X49120278Y-74734625D01*
X49037968Y-74873804D01*
X49037966Y-74873809D01*
X48992855Y-75029081D01*
X48992854Y-75029087D01*
X48991209Y-75049999D01*
X43464717Y-75049999D01*
X43460000Y-75028724D01*
X43460000Y-74771274D01*
X43465110Y-74736043D01*
X43467725Y-74727216D01*
X43503972Y-74649487D01*
X43510500Y-74599901D01*
X43510499Y-74582871D01*
X43515609Y-74565630D01*
X43525192Y-74550798D01*
X43530162Y-74533855D01*
X43546809Y-74513189D01*
X43823682Y-74236316D01*
X43885004Y-74202834D01*
X43911362Y-74200000D01*
X46020174Y-74200000D01*
X46087213Y-74219685D01*
X46107855Y-74236319D01*
X46127308Y-74255772D01*
X46160793Y-74317095D01*
X46155809Y-74386787D01*
X46113937Y-74442720D01*
X46104725Y-74448991D01*
X46027268Y-74496767D01*
X45907427Y-74616608D01*
X45907424Y-74616612D01*
X45818457Y-74760848D01*
X45818452Y-74760859D01*
X45765144Y-74921734D01*
X45755000Y-75021018D01*
X45755000Y-75044341D01*
X47704999Y-75044341D01*
X47704999Y-75021033D01*
X47704998Y-75021018D01*
X47694855Y-74921733D01*
X47641547Y-74760859D01*
X47641542Y-74760848D01*
X47552575Y-74616612D01*
X47552572Y-74616608D01*
X47432731Y-74496767D01*
X47388586Y-74469538D01*
X47341862Y-74417590D01*
X47330641Y-74348627D01*
X47358485Y-74284545D01*
X47416554Y-74245690D01*
X47453684Y-74240000D01*
X47894906Y-74240000D01*
X47961945Y-74259685D01*
X48003359Y-74303883D01*
X48037585Y-74365628D01*
X48037585Y-74365629D01*
X48134711Y-74456201D01*
X48255070Y-74512325D01*
X48255072Y-74512326D01*
X48255073Y-74512326D01*
X48255075Y-74512327D01*
X48386891Y-74528513D01*
X48484463Y-74509547D01*
X48846926Y-74377620D01*
X48957580Y-74337346D01*
X48957583Y-74337344D01*
X48957590Y-74337342D01*
X49044526Y-74289153D01*
X49135099Y-74192025D01*
X49191225Y-74071663D01*
X49207410Y-73939847D01*
X49188444Y-73842275D01*
X48990588Y-73298671D01*
X48990586Y-73298667D01*
X48942400Y-73211737D01*
X48942398Y-73211734D01*
X48845272Y-73121162D01*
X48724913Y-73065038D01*
X48724911Y-73065037D01*
X48659001Y-73056944D01*
X48593093Y-73048851D01*
X48593092Y-73048851D01*
X48593091Y-73048851D01*
X48503387Y-73066288D01*
X48495521Y-73067817D01*
X48495517Y-73067818D01*
X48495515Y-73067819D01*
X48022403Y-73240017D01*
X48022390Y-73240023D01*
X47935457Y-73288211D01*
X47933262Y-73290566D01*
X47929878Y-73292569D01*
X47927768Y-73294219D01*
X47927554Y-73293946D01*
X47873146Y-73326172D01*
X47842573Y-73330000D01*
X47437063Y-73330000D01*
X47370024Y-73310315D01*
X47336021Y-73272733D01*
X47334261Y-73274013D01*
X47328529Y-73266123D01*
X47328528Y-73266121D01*
X47328525Y-73266118D01*
X47328523Y-73266115D01*
X47233225Y-73170817D01*
X47233221Y-73170814D01*
X47233220Y-73170813D01*
X47113126Y-73109622D01*
X47113124Y-73109621D01*
X47113121Y-73109620D01*
X47013493Y-73093841D01*
X47013488Y-73093841D01*
X46446512Y-73093841D01*
X46446507Y-73093841D01*
X46346878Y-73109620D01*
X46346874Y-73109621D01*
X46346874Y-73109622D01*
X46323034Y-73121769D01*
X46226778Y-73170814D01*
X46226774Y-73170817D01*
X46153911Y-73243681D01*
X46092588Y-73277166D01*
X46066230Y-73280000D01*
X43620000Y-73280000D01*
X43619999Y-73280000D01*
X43619997Y-73280001D01*
X43266819Y-73532270D01*
X43266784Y-73532297D01*
X43200000Y-73580000D01*
X43200000Y-73570000D01*
X43140000Y-73630000D01*
X43134180Y-73635135D01*
X43134161Y-73635150D01*
X42869156Y-73868980D01*
X42805864Y-73898574D01*
X42787115Y-73900000D01*
X42540000Y-73900000D01*
X42540000Y-74068724D01*
X42528382Y-74121128D01*
X42496028Y-74190512D01*
X42496027Y-74190513D01*
X42489500Y-74240097D01*
X42489500Y-74599894D01*
X42493671Y-74631583D01*
X42496028Y-74649487D01*
X42528382Y-74718870D01*
X42540000Y-74771274D01*
X42540000Y-75028724D01*
X42528382Y-75081128D01*
X42496028Y-75150512D01*
X42496027Y-75150513D01*
X42489500Y-75200097D01*
X42489500Y-75559894D01*
X42489501Y-75559900D01*
X42496028Y-75609487D01*
X42528382Y-75678870D01*
X42540000Y-75731274D01*
X42540000Y-76250228D01*
X42527401Y-76304687D01*
X42517866Y-76324192D01*
X42504355Y-76351830D01*
X42494500Y-76419472D01*
X42494500Y-76830528D01*
X42504355Y-76898170D01*
X42517400Y-76924855D01*
X42530000Y-76979314D01*
X42530000Y-77478862D01*
X42517401Y-77533322D01*
X42464355Y-77641828D01*
X42461539Y-77661156D01*
X42454500Y-77709472D01*
X42454500Y-78070528D01*
X42459960Y-78108003D01*
X42464355Y-78138171D01*
X42468382Y-78146408D01*
X42507358Y-78226135D01*
X42517401Y-78246677D01*
X42520197Y-78258764D01*
X42524977Y-78266202D01*
X42530000Y-78301137D01*
X42530000Y-78448862D01*
X42517401Y-78503322D01*
X42464355Y-78611828D01*
X42464355Y-78611829D01*
X42464355Y-78611830D01*
X42454500Y-78679472D01*
X42454500Y-79040528D01*
X42462947Y-79098506D01*
X42464355Y-79108171D01*
X42489185Y-79158960D01*
X42515129Y-79212031D01*
X42517401Y-79216677D01*
X42520197Y-79228764D01*
X42524977Y-79236202D01*
X42530000Y-79271137D01*
X42530000Y-79377801D01*
X42510315Y-79444840D01*
X42457511Y-79490595D01*
X42406000Y-79501801D01*
X42024500Y-79501801D01*
X41957461Y-79482116D01*
X41911706Y-79429312D01*
X41900500Y-79377801D01*
X41900500Y-71180362D01*
X50063397Y-71180362D01*
X50068327Y-71349775D01*
X50092753Y-71446541D01*
X50100728Y-71468454D01*
X50782004Y-71220489D01*
X50542591Y-70562706D01*
X50497184Y-70579234D01*
X50407357Y-70622722D01*
X50274414Y-70727840D01*
X50169297Y-70860782D01*
X50169294Y-70860787D01*
X50097668Y-71014389D01*
X50063397Y-71180362D01*
X41900500Y-71180362D01*
X41900500Y-69550000D01*
X49141210Y-69550000D01*
X49142854Y-69570910D01*
X49187968Y-69726195D01*
X49270278Y-69865374D01*
X49270285Y-69865383D01*
X49384616Y-69979714D01*
X49384625Y-69979721D01*
X49523804Y-70062031D01*
X49670000Y-70104504D01*
X49670000Y-69550000D01*
X49141210Y-69550000D01*
X41900500Y-69550000D01*
X41900500Y-69049999D01*
X49141209Y-69049999D01*
X49141210Y-69050000D01*
X49670000Y-69050000D01*
X49670000Y-68450000D01*
X49141210Y-68450000D01*
X49142854Y-68470910D01*
X49187968Y-68626195D01*
X49187970Y-68626199D01*
X49223856Y-68686880D01*
X49241039Y-68754604D01*
X49223856Y-68813120D01*
X49187970Y-68873800D01*
X49187966Y-68873809D01*
X49142855Y-69029081D01*
X49142854Y-69029087D01*
X49141209Y-69049999D01*
X41900500Y-69049999D01*
X41900500Y-67949999D01*
X49141209Y-67949999D01*
X49141210Y-67950000D01*
X49670000Y-67950000D01*
X49670000Y-67250000D01*
X49141210Y-67250000D01*
X49142854Y-67270910D01*
X49187968Y-67426195D01*
X49253426Y-67536879D01*
X49270609Y-67604603D01*
X49253426Y-67663121D01*
X49187968Y-67773804D01*
X49187966Y-67773809D01*
X49142855Y-67929081D01*
X49142854Y-67929087D01*
X49141209Y-67949999D01*
X41900500Y-67949999D01*
X41900500Y-66749999D01*
X49141209Y-66749999D01*
X49141210Y-66750000D01*
X49670000Y-66750000D01*
X49670000Y-66195494D01*
X49669998Y-66195493D01*
X49523809Y-66237965D01*
X49523806Y-66237967D01*
X49384625Y-66320278D01*
X49384616Y-66320285D01*
X49270285Y-66434616D01*
X49270278Y-66434625D01*
X49187968Y-66573804D01*
X49187966Y-66573809D01*
X49142855Y-66729081D01*
X49142854Y-66729087D01*
X49141209Y-66749999D01*
X41900500Y-66749999D01*
X41900500Y-65124000D01*
X41920185Y-65056961D01*
X41972989Y-65011206D01*
X42024500Y-65000000D01*
X63630299Y-65000000D01*
X63697338Y-65019685D01*
G37*
G04 #@! TD.AperFunction*
G04 #@! TA.AperFunction,Conductor*
G36*
X54783815Y-73136721D02*
G01*
X54797147Y-73134805D01*
X54817289Y-73144003D01*
X54838928Y-73148711D01*
X54856654Y-73161981D01*
X54860703Y-73163830D01*
X54867176Y-73169857D01*
X54900745Y-73203426D01*
X54933180Y-73235861D01*
X54951129Y-73268734D01*
X54966664Y-73297184D01*
X54966663Y-73297184D01*
X54966664Y-73297185D01*
X54962187Y-73359833D01*
X54963187Y-73360070D01*
X54961729Y-73366239D01*
X54961685Y-73366860D01*
X54961680Y-73366872D01*
X54961680Y-73366876D01*
X54961678Y-73366878D01*
X54961406Y-73367608D01*
X54961401Y-73367627D01*
X54955000Y-73427155D01*
X54955000Y-75250000D01*
X57356000Y-75250000D01*
X57423039Y-75269685D01*
X57468794Y-75322489D01*
X57480000Y-75374000D01*
X57480000Y-75626000D01*
X57460315Y-75693039D01*
X57407511Y-75738794D01*
X57356000Y-75750000D01*
X54955000Y-75750000D01*
X54955000Y-77572844D01*
X54961401Y-77632372D01*
X54961403Y-77632379D01*
X55011645Y-77767086D01*
X55011649Y-77767093D01*
X55097809Y-77882187D01*
X55097812Y-77882190D01*
X55212906Y-77968350D01*
X55212913Y-77968354D01*
X55347620Y-78018596D01*
X55347627Y-78018598D01*
X55407155Y-78024999D01*
X55407172Y-78025000D01*
X56455500Y-78025000D01*
X56464185Y-78027550D01*
X56473147Y-78026262D01*
X56497187Y-78037240D01*
X56522539Y-78044685D01*
X56528466Y-78051525D01*
X56536703Y-78055287D01*
X56550992Y-78077521D01*
X56568294Y-78097489D01*
X56570581Y-78108003D01*
X56574477Y-78114065D01*
X56579500Y-78149000D01*
X56579500Y-78200500D01*
X56559815Y-78267539D01*
X56507011Y-78313294D01*
X56455500Y-78324500D01*
X56360252Y-78324500D01*
X56304190Y-78335651D01*
X56255810Y-78335651D01*
X56199748Y-78324500D01*
X55960252Y-78324500D01*
X55904190Y-78335651D01*
X55855810Y-78335651D01*
X55799748Y-78324500D01*
X55560252Y-78324500D01*
X55504190Y-78335651D01*
X55455810Y-78335651D01*
X55399748Y-78324500D01*
X55160252Y-78324500D01*
X55104190Y-78335651D01*
X55055810Y-78335651D01*
X54999748Y-78324500D01*
X54779500Y-78324500D01*
X54712461Y-78304815D01*
X54666706Y-78252011D01*
X54655500Y-78200500D01*
X54655500Y-77980249D01*
X54644349Y-77924192D01*
X54644349Y-77875808D01*
X54655500Y-77819750D01*
X54655500Y-77580249D01*
X54644349Y-77524192D01*
X54644349Y-77475808D01*
X54655500Y-77419750D01*
X54655500Y-77180249D01*
X54644349Y-77124192D01*
X54644349Y-77075808D01*
X54655500Y-77019750D01*
X54655500Y-76780249D01*
X54644349Y-76724192D01*
X54644349Y-76675808D01*
X54655500Y-76619750D01*
X54655500Y-76380249D01*
X54644349Y-76324192D01*
X54644349Y-76275808D01*
X54655500Y-76219750D01*
X54655500Y-75980249D01*
X54644349Y-75924192D01*
X54644349Y-75875808D01*
X54655500Y-75819750D01*
X54655500Y-75580249D01*
X54644349Y-75524192D01*
X54644349Y-75475808D01*
X54655500Y-75419750D01*
X54655500Y-75180249D01*
X54644349Y-75124192D01*
X54644349Y-75075808D01*
X54655500Y-75019750D01*
X54655500Y-74780249D01*
X54644349Y-74724192D01*
X54644349Y-74675808D01*
X54655500Y-74619750D01*
X54655500Y-74380249D01*
X54644349Y-74324192D01*
X54644349Y-74275808D01*
X54655500Y-74219750D01*
X54655500Y-73980249D01*
X54644349Y-73924192D01*
X54644349Y-73875808D01*
X54655500Y-73819750D01*
X54655500Y-73580249D01*
X54644349Y-73524192D01*
X54644349Y-73475808D01*
X54655500Y-73419750D01*
X54655500Y-73257543D01*
X54661739Y-73236294D01*
X54663319Y-73214209D01*
X54671390Y-73203426D01*
X54675185Y-73190504D01*
X54691917Y-73176005D01*
X54705190Y-73158275D01*
X54717811Y-73153567D01*
X54727989Y-73144749D01*
X54749905Y-73141597D01*
X54770655Y-73133859D01*
X54783815Y-73136721D01*
G37*
G04 #@! TD.AperFunction*
G04 #@! TA.AperFunction,Conductor*
G36*
X56523539Y-70044685D02*
G01*
X56569294Y-70097489D01*
X56580500Y-70149000D01*
X56580500Y-70401000D01*
X56577949Y-70409685D01*
X56579238Y-70418647D01*
X56568259Y-70442687D01*
X56560815Y-70468039D01*
X56553974Y-70473966D01*
X56550213Y-70482203D01*
X56527978Y-70496492D01*
X56508011Y-70513794D01*
X56497496Y-70516081D01*
X56491435Y-70519977D01*
X56456500Y-70525000D01*
X56279000Y-70525000D01*
X56211961Y-70505315D01*
X56166206Y-70452511D01*
X56155000Y-70401000D01*
X56155000Y-70149000D01*
X56174685Y-70081961D01*
X56227489Y-70036206D01*
X56279000Y-70025000D01*
X56456500Y-70025000D01*
X56523539Y-70044685D01*
G37*
G04 #@! TD.AperFunction*
M02*
