G04 #@! TF.GenerationSoftware,KiCad,Pcbnew,9.0.5*
G04 #@! TF.CreationDate,2025-11-01T16:07:24-04:00*
G04 #@! TF.ProjectId,main_board_v1,6d61696e-5f62-46f6-9172-645f76312e6b,rev?*
G04 #@! TF.SameCoordinates,Original*
G04 #@! TF.FileFunction,Profile,NP*
%FSLAX46Y46*%
G04 Gerber Fmt 4.6, Leading zero omitted, Abs format (unit mm)*
G04 Created by KiCad (PCBNEW 9.0.5) date 2025-11-01 16:07:24*
%MOMM*%
%LPD*%
G01*
G04 APERTURE LIST*
G04 #@! TA.AperFunction,Profile*
%ADD10C,0.050000*%
G04 #@! TD*
G04 #@! TA.AperFunction,Profile*
%ADD11C,0.010000*%
G04 #@! TD*
G04 APERTURE END LIST*
D10*
X136900000Y-86000000D02*
X42500000Y-86000000D01*
X137900000Y-85000000D02*
X137899949Y-21679950D01*
X136900000Y-20679950D02*
G75*
G02*
X137900050Y-21679950I0J-1000050D01*
G01*
X41500000Y-44500118D02*
X41500000Y-21679950D01*
X137900000Y-85000000D02*
G75*
G02*
X136900000Y-86000000I-1000000J0D01*
G01*
X41500000Y-59700000D02*
X41500000Y-85000000D01*
X136900000Y-20679950D02*
X42500000Y-20679950D01*
X41500000Y-21679950D02*
G75*
G02*
X42500000Y-20679900I1000000J50D01*
G01*
X42500000Y-86000000D02*
G75*
G02*
X41500000Y-85000000I0J1000000D01*
G01*
D11*
X41500000Y-46900000D02*
X41750000Y-46650000D01*
X41500000Y-57300000D02*
X41500000Y-46900000D01*
X41500000Y-57300000D02*
X41750000Y-57550000D01*
X41750000Y-46650000D02*
X46200000Y-46650000D01*
X42500000Y-45500000D02*
X41500000Y-44500000D01*
X42500000Y-58700000D02*
X41500000Y-59700000D01*
X46200000Y-45500000D02*
X42500000Y-45500000D01*
X46200000Y-46650000D02*
X46200000Y-45500000D01*
X46200000Y-57550000D02*
X41750000Y-57550000D01*
X46200000Y-57550000D02*
X46200000Y-58700000D01*
X46200000Y-58700000D02*
X42500000Y-58700000D01*
M02*
