M48
; DRILL file {KiCad 9.0.4} date 2025-11-03T14:20:07-0500
; FORMAT={-:-/ absolute / metric / decimal}
; #@! TF.CreationDate,2025-11-03T14:20:07-05:00
; #@! TF.GenerationSoftware,Kicad,Pcbnew,9.0.4
; #@! TF.FileFunction,Plated,1,4,PTH
FMAT,2
METRIC
; #@! TA.AperFunction,Plated,PTH,ViaDrill
T1C0.300
; #@! TA.AperFunction,Plated,PTH,ViaDrill
T2C0.400
; #@! TA.AperFunction,Plated,PTH,ViaDrill
T3C0.480
; #@! TA.AperFunction,Plated,PTH,ViaDrill
T4C0.500
; #@! TA.AperFunction,Plated,PTH,ViaDrill
T5C0.600
; #@! TA.AperFunction,Plated,PTH,ComponentDrill
T6C0.800
; #@! TA.AperFunction,Plated,PTH,ComponentDrill
T7C1.092
; #@! TA.AperFunction,Plated,PTH,ComponentDrill
T8C1.100
; #@! TA.AperFunction,Plated,PTH,ComponentDrill
T9C3.200
%
G90
G05
T1
X42.5Y-68.5
X42.5Y-72.0
X43.5Y-66.5
X43.5Y-70.0
X45.0Y-68.5
X45.0Y-72.0
X45.0Y-76.25
X45.0Y-76.75
X45.0Y-77.25
X45.5Y-78.5
X45.75Y-75.25
X46.5Y-66.5
X46.5Y-70.0
X46.75Y-76.0
X47.0Y-76.5
X47.5Y-75.5
X47.9Y-53.4
X48.0Y-68.5
X48.0Y-72.0
X48.0Y-78.5
X48.65Y-76.55
X49.0Y-70.0
X49.45Y-66.75
X49.45Y-68.95
X49.6Y-68.05
X49.862Y-51.3
X49.862Y-53.2
X50.0Y-72.0
X50.5Y-71.6
X51.45Y-66.35
X51.685Y-71.158
X51.95Y-68.65
X52.137Y-51.3
X52.137Y-53.2
X52.2Y-67.35
X52.3Y-77.85
X53.0Y-49.5
X53.0Y-76.8
X53.0Y-78.5
X53.199Y-68.039
X53.3Y-52.45
X53.35Y-70.9
X53.5Y-68.5
X53.958Y-54.083
X54.0Y-67.5
X54.0Y-68.0
X54.0Y-71.25
X54.5Y-68.5
X54.8Y-67.05
X55.5Y-55.25
X56.0Y-67.0
X56.0Y-70.5
X56.615Y-48.825
X56.95Y-82.85
X57.0Y-62.5
X57.095Y-66.405
X57.135Y-63.865
X57.135Y-65.135
X57.15Y-68.8
X57.48Y-75.5
X57.48Y-83.0
X57.48Y-84.0
X57.5Y-85.0
X58.0Y-69.0
X58.0Y-82.85
X58.2Y-67.9
X59.05Y-69.75
X59.5Y-85.0
X60.0Y-70.5
X60.5Y-82.5
X62.0Y-78.5
X62.0Y-81.0
X62.0Y-84.0
X63.0Y-68.0
X63.0Y-70.0
X63.0Y-72.0
X63.0Y-74.0
X63.0Y-82.5
X63.5Y-79.5
X63.5Y-85.0
X64.5Y-75.0
X65.385Y-55.175
X65.75Y-68.235
X65.935Y-64.17
X66.55Y-48.8
X66.8Y-28.05
X67.8Y-28.05
X67.95Y-53.075
X68.5Y-47.6
X73.062Y-59.005
X74.5Y-47.5
X75.552Y-55.855
X76.802Y-75.005
X78.312Y-53.312
X78.602Y-55.055
X82.652Y-61.805
X82.699Y-62.701
X83.752Y-72.605
X83.952Y-63.005
X84.102Y-60.455
X84.452Y-50.403
X84.502Y-58.455
X84.752Y-48.255
X84.752Y-49.255
X84.8Y-45.55
X87.674Y-52.826
X87.75Y-42.5
X88.402Y-50.755
X88.633Y-42.133
X89.102Y-57.155
X89.2Y-65.412
X89.25Y-31.75
X89.35Y-41.25
X89.43Y-58.027
X89.7Y-47.1
X90.2Y-23.1
X90.5Y-60.125
X90.55Y-68.0
X90.9Y-62.95
X91.202Y-26.155
X91.5Y-42.0
X92.0Y-48.554
X92.2Y-70.25
X92.25Y-58.3
X92.75Y-33.5
X92.85Y-53.05
X93.1Y-46.55
X93.2Y-50.3
X93.2Y-56.35
X93.3Y-40.85
X93.3Y-60.1
X93.9Y-30.0
X94.0Y-65.75
X94.052Y-66.855
X94.35Y-43.185
X94.45Y-45.65
X94.5Y-39.5
X94.772Y-52.772
X95.15Y-62.95
X95.25Y-33.5
X95.4Y-56.35
X95.602Y-67.855
X95.952Y-23.855
X96.05Y-46.571
X96.15Y-50.4
X96.25Y-52.0
X96.45Y-52.95
X96.5Y-26.0
X96.55Y-70.75
X96.852Y-66.205
X97.25Y-58.9
X97.702Y-40.35
X98.202Y-41.555
X98.25Y-25.25
X98.724Y-62.376
X98.85Y-49.95
X99.0Y-28.5
X99.0Y-32.0
X99.117Y-52.13
X99.25Y-26.75
X100.152Y-39.305
X100.152Y-41.905
X100.252Y-37.255
X100.4Y-60.8
X100.85Y-48.677
X101.302Y-35.005
X101.452Y-43.805
X101.712Y-40.745
X101.8Y-45.155
X101.877Y-56.08
X101.952Y-34.405
X102.202Y-54.955
X102.202Y-69.855
X102.5Y-38.0
X102.852Y-68.555
X102.902Y-53.305
X103.8Y-61.5
X104.0Y-36.305
X104.152Y-57.589
X104.494Y-65.943
X104.552Y-43.656
X104.65Y-54.05
X104.791Y-53.105
X104.852Y-69.505
X105.102Y-44.405
X105.302Y-35.705
X105.626Y-61.429
X106.382Y-44.632
X106.452Y-73.705
X106.545Y-36.448
X106.897Y-62.6
X106.9Y-63.45
X106.954Y-45.381
X107.2Y-60.83
X107.252Y-36.356
X107.309Y-49.991
X107.502Y-76.055
X107.6Y-45.65
X108.283Y-45.05
X108.852Y-65.255
X109.052Y-45.605
X109.452Y-48.625
X109.5Y-71.5
X109.552Y-76.355
X109.7Y-44.55
X110.102Y-69.205
X110.224Y-64.774
X110.502Y-34.655
X110.552Y-73.655
X110.615Y-33.863
X110.797Y-55.3
X111.002Y-71.655
X111.328Y-66.778
X111.602Y-45.755
X111.852Y-56.0
X112.352Y-44.555
X112.552Y-57.555
X113.25Y-39.0
X113.452Y-58.955
X113.75Y-34.765
X114.402Y-73.505
X114.702Y-42.456
X114.702Y-62.655
X114.802Y-40.505
X115.802Y-54.305
X116.052Y-38.655
X117.052Y-54.255
X117.15Y-41.0
X117.75Y-42.602
X118.4Y-62.25
X118.552Y-72.005
X118.702Y-58.855
X118.805Y-53.503
X118.852Y-75.805
X118.9Y-52.709
X118.902Y-51.109
X118.902Y-49.505
X118.902Y-50.305
X118.902Y-51.909
X119.152Y-38.355
X119.301Y-36.254
X119.452Y-47.755
X119.517Y-48.817
X119.552Y-55.105
X119.701Y-40.606
X120.25Y-62.4
X120.252Y-38.605
X120.752Y-54.755
X121.139Y-63.661
X121.277Y-66.28
X121.3Y-67.15
X121.302Y-61.592
X121.475Y-50.533
X121.75Y-47.505
X121.752Y-52.555
X121.864Y-35.636
X121.952Y-57.05
X121.952Y-58.005
X122.0Y-49.655
X122.002Y-59.605
X122.102Y-60.405
X122.75Y-38.0
X123.0Y-48.857
X123.402Y-42.255
X123.452Y-39.554
X123.852Y-35.605
X124.652Y-38.755
X125.0Y-79.5
X126.15Y-83.05
X127.15Y-80.75
X127.5Y-60.75
X128.2Y-82.25
X130.352Y-59.229
T2
X50.75Y-70.5
X61.335Y-66.0
X67.0Y-64.0
X73.662Y-60.5
X105.552Y-75.355
X118.652Y-65.155
T3
X68.907Y-50.938
X69.723Y-51.615
T4
X61.25Y-69.0
X65.0Y-63.0
X114.252Y-75.405
T5
X51.0Y-42.0
X52.431Y-59.569
X60.0Y-28.75
X68.928Y-58.928
X120.802Y-75.705
X127.5Y-69.5
T6
X78.112Y-24.195
X80.564Y-36.435
X80.564Y-38.435
X80.652Y-24.195
X82.564Y-36.435
X82.564Y-38.435
X84.564Y-36.435
X84.564Y-38.435
T7
X129.022Y-32.051
X129.022Y-34.337
X129.022Y-36.623
X129.022Y-38.909
X129.022Y-41.195
X129.022Y-43.481
X129.022Y-45.767
X129.022Y-48.053
X129.022Y-50.339
X129.022Y-52.625
X129.022Y-54.911
X129.022Y-57.197
X129.022Y-59.483
X129.022Y-61.769
X129.022Y-64.055
X131.562Y-33.194
X131.562Y-35.48
X131.562Y-37.766
X131.562Y-40.052
X131.562Y-42.338
X131.562Y-44.624
X131.562Y-46.91
X131.562Y-49.196
X131.562Y-51.482
X131.562Y-53.768
X131.562Y-56.054
X131.562Y-58.34
X131.562Y-60.626
X131.562Y-62.912
X131.562Y-65.198
X134.102Y-34.337
X134.102Y-36.623
X134.102Y-38.909
X134.102Y-41.195
X134.102Y-43.481
X134.102Y-45.767
X134.102Y-48.053
X134.102Y-50.339
X134.102Y-52.625
X134.102Y-54.911
X134.102Y-57.197
X134.102Y-59.483
X134.102Y-61.769
X134.102Y-64.055
T8
X71.762Y-23.465
X71.762Y-26.005
X71.762Y-38.705
X71.762Y-41.245
X71.762Y-43.785
X71.762Y-53.945
X71.762Y-56.485
X71.762Y-59.025
X71.762Y-61.565
X71.762Y-64.105
X71.762Y-66.645
X71.762Y-69.185
X71.762Y-71.725
X71.762Y-74.265
X71.762Y-76.805
X71.762Y-79.345
X71.762Y-81.885
X74.302Y-69.185
X74.813Y-37.384
X74.813Y-39.924
X76.842Y-69.185
X79.382Y-69.185
X84.462Y-26.005
X87.002Y-23.465
X87.002Y-26.005
X87.002Y-28.545
X87.002Y-31.085
X87.002Y-33.625
X87.002Y-36.165
X87.002Y-38.705
X87.002Y-41.245
X87.002Y-43.785
X87.002Y-46.325
X87.002Y-48.865
X87.002Y-51.405
X87.002Y-53.945
X87.002Y-56.485
X87.002Y-59.025
X87.002Y-61.565
X87.002Y-64.105
X87.002Y-66.645
X87.002Y-71.725
X87.002Y-74.265
X87.002Y-76.805
X87.002Y-79.345
X87.002Y-81.885
T9
X131.562Y-25.041
X131.562Y-72.081
M30
