G04 #@! TF.GenerationSoftware,KiCad,Pcbnew,9.0.5*
G04 #@! TF.CreationDate,2025-11-01T16:07:24-04:00*
G04 #@! TF.ProjectId,main_board_v1,6d61696e-5f62-46f6-9172-645f76312e6b,rev?*
G04 #@! TF.SameCoordinates,Original*
G04 #@! TF.FileFunction,Legend,Bot*
G04 #@! TF.FilePolarity,Positive*
%FSLAX46Y46*%
G04 Gerber Fmt 4.6, Leading zero omitted, Abs format (unit mm)*
G04 Created by KiCad (PCBNEW 9.0.5) date 2025-11-01 16:07:24*
%MOMM*%
%LPD*%
G01*
G04 APERTURE LIST*
G04 Aperture macros list*
%AMRoundRect*
0 Rectangle with rounded corners*
0 $1 Rounding radius*
0 $2 $3 $4 $5 $6 $7 $8 $9 X,Y pos of 4 corners*
0 Add a 4 corners polygon primitive as box body*
4,1,4,$2,$3,$4,$5,$6,$7,$8,$9,$2,$3,0*
0 Add four circle primitives for the rounded corners*
1,1,$1+$1,$2,$3*
1,1,$1+$1,$4,$5*
1,1,$1+$1,$6,$7*
1,1,$1+$1,$8,$9*
0 Add four rect primitives between the rounded corners*
20,1,$1+$1,$2,$3,$4,$5,0*
20,1,$1+$1,$4,$5,$6,$7,0*
20,1,$1+$1,$6,$7,$8,$9,0*
20,1,$1+$1,$8,$9,$2,$3,0*%
G04 Aperture macros list end*
%ADD10C,0.150000*%
%ADD11C,0.120000*%
%ADD12C,0.200000*%
%ADD13R,5.200000X1.250000*%
%ADD14R,1.600000X1.600000*%
%ADD15C,1.600000*%
%ADD16R,1.300000X1.300000*%
%ADD17C,1.300000*%
%ADD18C,1.638000*%
%ADD19C,4.801000*%
%ADD20RoundRect,0.140000X-0.170000X0.140000X-0.170000X-0.140000X0.170000X-0.140000X0.170000X0.140000X0*%
%ADD21R,1.000000X1.000000*%
%ADD22RoundRect,0.150000X-0.825000X-0.150000X0.825000X-0.150000X0.825000X0.150000X-0.825000X0.150000X0*%
%ADD23RoundRect,0.140000X0.140000X0.170000X-0.140000X0.170000X-0.140000X-0.170000X0.140000X-0.170000X0*%
%ADD24RoundRect,0.135000X-0.135000X-0.185000X0.135000X-0.185000X0.135000X0.185000X-0.135000X0.185000X0*%
%ADD25RoundRect,0.135000X-0.185000X0.135000X-0.185000X-0.135000X0.185000X-0.135000X0.185000X0.135000X0*%
%ADD26RoundRect,0.135000X0.185000X-0.135000X0.185000X0.135000X-0.185000X0.135000X-0.185000X-0.135000X0*%
%ADD27RoundRect,0.150000X0.512500X0.150000X-0.512500X0.150000X-0.512500X-0.150000X0.512500X-0.150000X0*%
%ADD28RoundRect,0.250000X0.625000X-0.312500X0.625000X0.312500X-0.625000X0.312500X-0.625000X-0.312500X0*%
%ADD29RoundRect,0.140000X0.170000X-0.140000X0.170000X0.140000X-0.170000X0.140000X-0.170000X-0.140000X0*%
%ADD30R,1.500000X0.650000*%
G04 APERTURE END LIST*
D10*
X94247618Y-80104819D02*
X94247618Y-79104819D01*
X94247618Y-79104819D02*
X93914285Y-79819104D01*
X93914285Y-79819104D02*
X93580952Y-79104819D01*
X93580952Y-79104819D02*
X93580952Y-80104819D01*
X92914285Y-79104819D02*
X92723809Y-79104819D01*
X92723809Y-79104819D02*
X92628571Y-79152438D01*
X92628571Y-79152438D02*
X92533333Y-79247676D01*
X92533333Y-79247676D02*
X92485714Y-79438152D01*
X92485714Y-79438152D02*
X92485714Y-79771485D01*
X92485714Y-79771485D02*
X92533333Y-79961961D01*
X92533333Y-79961961D02*
X92628571Y-80057200D01*
X92628571Y-80057200D02*
X92723809Y-80104819D01*
X92723809Y-80104819D02*
X92914285Y-80104819D01*
X92914285Y-80104819D02*
X93009523Y-80057200D01*
X93009523Y-80057200D02*
X93104761Y-79961961D01*
X93104761Y-79961961D02*
X93152380Y-79771485D01*
X93152380Y-79771485D02*
X93152380Y-79438152D01*
X93152380Y-79438152D02*
X93104761Y-79247676D01*
X93104761Y-79247676D02*
X93009523Y-79152438D01*
X93009523Y-79152438D02*
X92914285Y-79104819D01*
X92104761Y-80057200D02*
X91961904Y-80104819D01*
X91961904Y-80104819D02*
X91723809Y-80104819D01*
X91723809Y-80104819D02*
X91628571Y-80057200D01*
X91628571Y-80057200D02*
X91580952Y-80009580D01*
X91580952Y-80009580D02*
X91533333Y-79914342D01*
X91533333Y-79914342D02*
X91533333Y-79819104D01*
X91533333Y-79819104D02*
X91580952Y-79723866D01*
X91580952Y-79723866D02*
X91628571Y-79676247D01*
X91628571Y-79676247D02*
X91723809Y-79628628D01*
X91723809Y-79628628D02*
X91914285Y-79581009D01*
X91914285Y-79581009D02*
X92009523Y-79533390D01*
X92009523Y-79533390D02*
X92057142Y-79485771D01*
X92057142Y-79485771D02*
X92104761Y-79390533D01*
X92104761Y-79390533D02*
X92104761Y-79295295D01*
X92104761Y-79295295D02*
X92057142Y-79200057D01*
X92057142Y-79200057D02*
X92009523Y-79152438D01*
X92009523Y-79152438D02*
X91914285Y-79104819D01*
X91914285Y-79104819D02*
X91676190Y-79104819D01*
X91676190Y-79104819D02*
X91533333Y-79152438D01*
X91104761Y-80104819D02*
X91104761Y-79104819D01*
X90104762Y-80104819D02*
X90676190Y-80104819D01*
X90390476Y-80104819D02*
X90390476Y-79104819D01*
X90390476Y-79104819D02*
X90485714Y-79247676D01*
X90485714Y-79247676D02*
X90580952Y-79342914D01*
X90580952Y-79342914D02*
X90676190Y-79390533D01*
X94261904Y-33354819D02*
X94261904Y-34164342D01*
X94261904Y-34164342D02*
X94214285Y-34259580D01*
X94214285Y-34259580D02*
X94166666Y-34307200D01*
X94166666Y-34307200D02*
X94071428Y-34354819D01*
X94071428Y-34354819D02*
X93880952Y-34354819D01*
X93880952Y-34354819D02*
X93785714Y-34307200D01*
X93785714Y-34307200D02*
X93738095Y-34259580D01*
X93738095Y-34259580D02*
X93690476Y-34164342D01*
X93690476Y-34164342D02*
X93690476Y-33354819D01*
X93309523Y-33354819D02*
X92690476Y-33354819D01*
X92690476Y-33354819D02*
X93023809Y-33735771D01*
X93023809Y-33735771D02*
X92880952Y-33735771D01*
X92880952Y-33735771D02*
X92785714Y-33783390D01*
X92785714Y-33783390D02*
X92738095Y-33831009D01*
X92738095Y-33831009D02*
X92690476Y-33926247D01*
X92690476Y-33926247D02*
X92690476Y-34164342D01*
X92690476Y-34164342D02*
X92738095Y-34259580D01*
X92738095Y-34259580D02*
X92785714Y-34307200D01*
X92785714Y-34307200D02*
X92880952Y-34354819D01*
X92880952Y-34354819D02*
X93166666Y-34354819D01*
X93166666Y-34354819D02*
X93261904Y-34307200D01*
X93261904Y-34307200D02*
X93309523Y-34259580D01*
X61479999Y-69504819D02*
X60860952Y-69504819D01*
X60860952Y-69504819D02*
X61194285Y-69885771D01*
X61194285Y-69885771D02*
X61051428Y-69885771D01*
X61051428Y-69885771D02*
X60956190Y-69933390D01*
X60956190Y-69933390D02*
X60908571Y-69981009D01*
X60908571Y-69981009D02*
X60860952Y-70076247D01*
X60860952Y-70076247D02*
X60860952Y-70314342D01*
X60860952Y-70314342D02*
X60908571Y-70409580D01*
X60908571Y-70409580D02*
X60956190Y-70457200D01*
X60956190Y-70457200D02*
X61051428Y-70504819D01*
X61051428Y-70504819D02*
X61337142Y-70504819D01*
X61337142Y-70504819D02*
X61432380Y-70457200D01*
X61432380Y-70457200D02*
X61479999Y-70409580D01*
X60575237Y-69504819D02*
X60241904Y-70504819D01*
X60241904Y-70504819D02*
X59908571Y-69504819D01*
X59670475Y-69504819D02*
X59051428Y-69504819D01*
X59051428Y-69504819D02*
X59384761Y-69885771D01*
X59384761Y-69885771D02*
X59241904Y-69885771D01*
X59241904Y-69885771D02*
X59146666Y-69933390D01*
X59146666Y-69933390D02*
X59099047Y-69981009D01*
X59099047Y-69981009D02*
X59051428Y-70076247D01*
X59051428Y-70076247D02*
X59051428Y-70314342D01*
X59051428Y-70314342D02*
X59099047Y-70409580D01*
X59099047Y-70409580D02*
X59146666Y-70457200D01*
X59146666Y-70457200D02*
X59241904Y-70504819D01*
X59241904Y-70504819D02*
X59527618Y-70504819D01*
X59527618Y-70504819D02*
X59622856Y-70457200D01*
X59622856Y-70457200D02*
X59670475Y-70409580D01*
X58003808Y-69504819D02*
X57432380Y-69504819D01*
X57718094Y-70504819D02*
X57718094Y-69504819D01*
X57099046Y-70504819D02*
X57099046Y-69504819D01*
X57099046Y-69504819D02*
X56718094Y-69504819D01*
X56718094Y-69504819D02*
X56622856Y-69552438D01*
X56622856Y-69552438D02*
X56575237Y-69600057D01*
X56575237Y-69600057D02*
X56527618Y-69695295D01*
X56527618Y-69695295D02*
X56527618Y-69838152D01*
X56527618Y-69838152D02*
X56575237Y-69933390D01*
X56575237Y-69933390D02*
X56622856Y-69981009D01*
X56622856Y-69981009D02*
X56718094Y-70028628D01*
X56718094Y-70028628D02*
X57099046Y-70028628D01*
X92238094Y-64506819D02*
X91666666Y-64506819D01*
X91952380Y-65506819D02*
X91952380Y-64506819D01*
X91333332Y-65506819D02*
X91333332Y-64506819D01*
X91333332Y-64506819D02*
X90952380Y-64506819D01*
X90952380Y-64506819D02*
X90857142Y-64554438D01*
X90857142Y-64554438D02*
X90809523Y-64602057D01*
X90809523Y-64602057D02*
X90761904Y-64697295D01*
X90761904Y-64697295D02*
X90761904Y-64840152D01*
X90761904Y-64840152D02*
X90809523Y-64935390D01*
X90809523Y-64935390D02*
X90857142Y-64983009D01*
X90857142Y-64983009D02*
X90952380Y-65030628D01*
X90952380Y-65030628D02*
X91333332Y-65030628D01*
X89809523Y-65506819D02*
X90380951Y-65506819D01*
X90095237Y-65506819D02*
X90095237Y-64506819D01*
X90095237Y-64506819D02*
X90190475Y-64649676D01*
X90190475Y-64649676D02*
X90285713Y-64744914D01*
X90285713Y-64744914D02*
X90380951Y-64792533D01*
X89428570Y-64602057D02*
X89380951Y-64554438D01*
X89380951Y-64554438D02*
X89285713Y-64506819D01*
X89285713Y-64506819D02*
X89047618Y-64506819D01*
X89047618Y-64506819D02*
X88952380Y-64554438D01*
X88952380Y-64554438D02*
X88904761Y-64602057D01*
X88904761Y-64602057D02*
X88857142Y-64697295D01*
X88857142Y-64697295D02*
X88857142Y-64792533D01*
X88857142Y-64792533D02*
X88904761Y-64935390D01*
X88904761Y-64935390D02*
X89476189Y-65506819D01*
X89476189Y-65506819D02*
X88857142Y-65506819D01*
X94416666Y-84007200D02*
X94273809Y-84054819D01*
X94273809Y-84054819D02*
X94035714Y-84054819D01*
X94035714Y-84054819D02*
X93940476Y-84007200D01*
X93940476Y-84007200D02*
X93892857Y-83959580D01*
X93892857Y-83959580D02*
X93845238Y-83864342D01*
X93845238Y-83864342D02*
X93845238Y-83769104D01*
X93845238Y-83769104D02*
X93892857Y-83673866D01*
X93892857Y-83673866D02*
X93940476Y-83626247D01*
X93940476Y-83626247D02*
X94035714Y-83578628D01*
X94035714Y-83578628D02*
X94226190Y-83531009D01*
X94226190Y-83531009D02*
X94321428Y-83483390D01*
X94321428Y-83483390D02*
X94369047Y-83435771D01*
X94369047Y-83435771D02*
X94416666Y-83340533D01*
X94416666Y-83340533D02*
X94416666Y-83245295D01*
X94416666Y-83245295D02*
X94369047Y-83150057D01*
X94369047Y-83150057D02*
X94321428Y-83102438D01*
X94321428Y-83102438D02*
X94226190Y-83054819D01*
X94226190Y-83054819D02*
X93988095Y-83054819D01*
X93988095Y-83054819D02*
X93845238Y-83102438D01*
X92845238Y-83959580D02*
X92892857Y-84007200D01*
X92892857Y-84007200D02*
X93035714Y-84054819D01*
X93035714Y-84054819D02*
X93130952Y-84054819D01*
X93130952Y-84054819D02*
X93273809Y-84007200D01*
X93273809Y-84007200D02*
X93369047Y-83911961D01*
X93369047Y-83911961D02*
X93416666Y-83816723D01*
X93416666Y-83816723D02*
X93464285Y-83626247D01*
X93464285Y-83626247D02*
X93464285Y-83483390D01*
X93464285Y-83483390D02*
X93416666Y-83292914D01*
X93416666Y-83292914D02*
X93369047Y-83197676D01*
X93369047Y-83197676D02*
X93273809Y-83102438D01*
X93273809Y-83102438D02*
X93130952Y-83054819D01*
X93130952Y-83054819D02*
X93035714Y-83054819D01*
X93035714Y-83054819D02*
X92892857Y-83102438D01*
X92892857Y-83102438D02*
X92845238Y-83150057D01*
X91940476Y-84054819D02*
X92416666Y-84054819D01*
X92416666Y-84054819D02*
X92416666Y-83054819D01*
X91607142Y-84054819D02*
X91607142Y-83054819D01*
X91035714Y-84054819D02*
X91464285Y-83483390D01*
X91035714Y-83054819D02*
X91607142Y-83626247D01*
X90083333Y-84054819D02*
X90654761Y-84054819D01*
X90369047Y-84054819D02*
X90369047Y-83054819D01*
X90369047Y-83054819D02*
X90464285Y-83197676D01*
X90464285Y-83197676D02*
X90559523Y-83292914D01*
X90559523Y-83292914D02*
X90654761Y-83340533D01*
X102599999Y-83957200D02*
X102457142Y-84004819D01*
X102457142Y-84004819D02*
X102219047Y-84004819D01*
X102219047Y-84004819D02*
X102123809Y-83957200D01*
X102123809Y-83957200D02*
X102076190Y-83909580D01*
X102076190Y-83909580D02*
X102028571Y-83814342D01*
X102028571Y-83814342D02*
X102028571Y-83719104D01*
X102028571Y-83719104D02*
X102076190Y-83623866D01*
X102076190Y-83623866D02*
X102123809Y-83576247D01*
X102123809Y-83576247D02*
X102219047Y-83528628D01*
X102219047Y-83528628D02*
X102409523Y-83481009D01*
X102409523Y-83481009D02*
X102504761Y-83433390D01*
X102504761Y-83433390D02*
X102552380Y-83385771D01*
X102552380Y-83385771D02*
X102599999Y-83290533D01*
X102599999Y-83290533D02*
X102599999Y-83195295D01*
X102599999Y-83195295D02*
X102552380Y-83100057D01*
X102552380Y-83100057D02*
X102504761Y-83052438D01*
X102504761Y-83052438D02*
X102409523Y-83004819D01*
X102409523Y-83004819D02*
X102171428Y-83004819D01*
X102171428Y-83004819D02*
X102028571Y-83052438D01*
X101028571Y-83909580D02*
X101076190Y-83957200D01*
X101076190Y-83957200D02*
X101219047Y-84004819D01*
X101219047Y-84004819D02*
X101314285Y-84004819D01*
X101314285Y-84004819D02*
X101457142Y-83957200D01*
X101457142Y-83957200D02*
X101552380Y-83861961D01*
X101552380Y-83861961D02*
X101599999Y-83766723D01*
X101599999Y-83766723D02*
X101647618Y-83576247D01*
X101647618Y-83576247D02*
X101647618Y-83433390D01*
X101647618Y-83433390D02*
X101599999Y-83242914D01*
X101599999Y-83242914D02*
X101552380Y-83147676D01*
X101552380Y-83147676D02*
X101457142Y-83052438D01*
X101457142Y-83052438D02*
X101314285Y-83004819D01*
X101314285Y-83004819D02*
X101219047Y-83004819D01*
X101219047Y-83004819D02*
X101076190Y-83052438D01*
X101076190Y-83052438D02*
X101028571Y-83100057D01*
X100123809Y-84004819D02*
X100599999Y-84004819D01*
X100599999Y-84004819D02*
X100599999Y-83004819D01*
X99790475Y-84004819D02*
X99790475Y-83004819D01*
X99219047Y-84004819D02*
X99647618Y-83433390D01*
X99219047Y-83004819D02*
X99790475Y-83576247D01*
X99028571Y-84100057D02*
X98266666Y-84100057D01*
X98028570Y-83481009D02*
X97695237Y-83481009D01*
X97552380Y-84004819D02*
X98028570Y-84004819D01*
X98028570Y-84004819D02*
X98028570Y-83004819D01*
X98028570Y-83004819D02*
X97552380Y-83004819D01*
X97171427Y-83957200D02*
X97028570Y-84004819D01*
X97028570Y-84004819D02*
X96790475Y-84004819D01*
X96790475Y-84004819D02*
X96695237Y-83957200D01*
X96695237Y-83957200D02*
X96647618Y-83909580D01*
X96647618Y-83909580D02*
X96599999Y-83814342D01*
X96599999Y-83814342D02*
X96599999Y-83719104D01*
X96599999Y-83719104D02*
X96647618Y-83623866D01*
X96647618Y-83623866D02*
X96695237Y-83576247D01*
X96695237Y-83576247D02*
X96790475Y-83528628D01*
X96790475Y-83528628D02*
X96980951Y-83481009D01*
X96980951Y-83481009D02*
X97076189Y-83433390D01*
X97076189Y-83433390D02*
X97123808Y-83385771D01*
X97123808Y-83385771D02*
X97171427Y-83290533D01*
X97171427Y-83290533D02*
X97171427Y-83195295D01*
X97171427Y-83195295D02*
X97123808Y-83100057D01*
X97123808Y-83100057D02*
X97076189Y-83052438D01*
X97076189Y-83052438D02*
X96980951Y-83004819D01*
X96980951Y-83004819D02*
X96742856Y-83004819D01*
X96742856Y-83004819D02*
X96599999Y-83052438D01*
X96171427Y-84004819D02*
X96171427Y-83004819D01*
X96171427Y-83004819D02*
X95790475Y-83004819D01*
X95790475Y-83004819D02*
X95695237Y-83052438D01*
X95695237Y-83052438D02*
X95647618Y-83100057D01*
X95647618Y-83100057D02*
X95599999Y-83195295D01*
X95599999Y-83195295D02*
X95599999Y-83338152D01*
X95599999Y-83338152D02*
X95647618Y-83433390D01*
X95647618Y-83433390D02*
X95695237Y-83481009D01*
X95695237Y-83481009D02*
X95790475Y-83528628D01*
X95790475Y-83528628D02*
X96171427Y-83528628D01*
X94347618Y-76554819D02*
X94347618Y-75554819D01*
X94347618Y-75554819D02*
X94014285Y-76269104D01*
X94014285Y-76269104D02*
X93680952Y-75554819D01*
X93680952Y-75554819D02*
X93680952Y-76554819D01*
X93204761Y-76554819D02*
X93204761Y-75554819D01*
X92776190Y-76507200D02*
X92633333Y-76554819D01*
X92633333Y-76554819D02*
X92395238Y-76554819D01*
X92395238Y-76554819D02*
X92300000Y-76507200D01*
X92300000Y-76507200D02*
X92252381Y-76459580D01*
X92252381Y-76459580D02*
X92204762Y-76364342D01*
X92204762Y-76364342D02*
X92204762Y-76269104D01*
X92204762Y-76269104D02*
X92252381Y-76173866D01*
X92252381Y-76173866D02*
X92300000Y-76126247D01*
X92300000Y-76126247D02*
X92395238Y-76078628D01*
X92395238Y-76078628D02*
X92585714Y-76031009D01*
X92585714Y-76031009D02*
X92680952Y-75983390D01*
X92680952Y-75983390D02*
X92728571Y-75935771D01*
X92728571Y-75935771D02*
X92776190Y-75840533D01*
X92776190Y-75840533D02*
X92776190Y-75745295D01*
X92776190Y-75745295D02*
X92728571Y-75650057D01*
X92728571Y-75650057D02*
X92680952Y-75602438D01*
X92680952Y-75602438D02*
X92585714Y-75554819D01*
X92585714Y-75554819D02*
X92347619Y-75554819D01*
X92347619Y-75554819D02*
X92204762Y-75602438D01*
X91585714Y-75554819D02*
X91395238Y-75554819D01*
X91395238Y-75554819D02*
X91300000Y-75602438D01*
X91300000Y-75602438D02*
X91204762Y-75697676D01*
X91204762Y-75697676D02*
X91157143Y-75888152D01*
X91157143Y-75888152D02*
X91157143Y-76221485D01*
X91157143Y-76221485D02*
X91204762Y-76411961D01*
X91204762Y-76411961D02*
X91300000Y-76507200D01*
X91300000Y-76507200D02*
X91395238Y-76554819D01*
X91395238Y-76554819D02*
X91585714Y-76554819D01*
X91585714Y-76554819D02*
X91680952Y-76507200D01*
X91680952Y-76507200D02*
X91776190Y-76411961D01*
X91776190Y-76411961D02*
X91823809Y-76221485D01*
X91823809Y-76221485D02*
X91823809Y-75888152D01*
X91823809Y-75888152D02*
X91776190Y-75697676D01*
X91776190Y-75697676D02*
X91680952Y-75602438D01*
X91680952Y-75602438D02*
X91585714Y-75554819D01*
X90204762Y-76554819D02*
X90776190Y-76554819D01*
X90490476Y-76554819D02*
X90490476Y-75554819D01*
X90490476Y-75554819D02*
X90585714Y-75697676D01*
X90585714Y-75697676D02*
X90680952Y-75792914D01*
X90680952Y-75792914D02*
X90776190Y-75840533D01*
X89766666Y-44354819D02*
X90099999Y-43878628D01*
X90338094Y-44354819D02*
X90338094Y-43354819D01*
X90338094Y-43354819D02*
X89957142Y-43354819D01*
X89957142Y-43354819D02*
X89861904Y-43402438D01*
X89861904Y-43402438D02*
X89814285Y-43450057D01*
X89814285Y-43450057D02*
X89766666Y-43545295D01*
X89766666Y-43545295D02*
X89766666Y-43688152D01*
X89766666Y-43688152D02*
X89814285Y-43783390D01*
X89814285Y-43783390D02*
X89861904Y-43831009D01*
X89861904Y-43831009D02*
X89957142Y-43878628D01*
X89957142Y-43878628D02*
X90338094Y-43878628D01*
X89385713Y-43450057D02*
X89338094Y-43402438D01*
X89338094Y-43402438D02*
X89242856Y-43354819D01*
X89242856Y-43354819D02*
X89004761Y-43354819D01*
X89004761Y-43354819D02*
X88909523Y-43402438D01*
X88909523Y-43402438D02*
X88861904Y-43450057D01*
X88861904Y-43450057D02*
X88814285Y-43545295D01*
X88814285Y-43545295D02*
X88814285Y-43640533D01*
X88814285Y-43640533D02*
X88861904Y-43783390D01*
X88861904Y-43783390D02*
X89433332Y-44354819D01*
X89433332Y-44354819D02*
X88814285Y-44354819D01*
X68354819Y-64107142D02*
X67878628Y-63773809D01*
X68354819Y-63535714D02*
X67354819Y-63535714D01*
X67354819Y-63535714D02*
X67354819Y-63916666D01*
X67354819Y-63916666D02*
X67402438Y-64011904D01*
X67402438Y-64011904D02*
X67450057Y-64059523D01*
X67450057Y-64059523D02*
X67545295Y-64107142D01*
X67545295Y-64107142D02*
X67688152Y-64107142D01*
X67688152Y-64107142D02*
X67783390Y-64059523D01*
X67783390Y-64059523D02*
X67831009Y-64011904D01*
X67831009Y-64011904D02*
X67878628Y-63916666D01*
X67878628Y-63916666D02*
X67878628Y-63535714D01*
X68354819Y-65059523D02*
X68354819Y-64488095D01*
X68354819Y-64773809D02*
X67354819Y-64773809D01*
X67354819Y-64773809D02*
X67497676Y-64678571D01*
X67497676Y-64678571D02*
X67592914Y-64583333D01*
X67592914Y-64583333D02*
X67640533Y-64488095D01*
X67354819Y-65678571D02*
X67354819Y-65773809D01*
X67354819Y-65773809D02*
X67402438Y-65869047D01*
X67402438Y-65869047D02*
X67450057Y-65916666D01*
X67450057Y-65916666D02*
X67545295Y-65964285D01*
X67545295Y-65964285D02*
X67735771Y-66011904D01*
X67735771Y-66011904D02*
X67973866Y-66011904D01*
X67973866Y-66011904D02*
X68164342Y-65964285D01*
X68164342Y-65964285D02*
X68259580Y-65916666D01*
X68259580Y-65916666D02*
X68307200Y-65869047D01*
X68307200Y-65869047D02*
X68354819Y-65773809D01*
X68354819Y-65773809D02*
X68354819Y-65678571D01*
X68354819Y-65678571D02*
X68307200Y-65583333D01*
X68307200Y-65583333D02*
X68259580Y-65535714D01*
X68259580Y-65535714D02*
X68164342Y-65488095D01*
X68164342Y-65488095D02*
X67973866Y-65440476D01*
X67973866Y-65440476D02*
X67735771Y-65440476D01*
X67735771Y-65440476D02*
X67545295Y-65488095D01*
X67545295Y-65488095D02*
X67450057Y-65535714D01*
X67450057Y-65535714D02*
X67402438Y-65583333D01*
X67402438Y-65583333D02*
X67354819Y-65678571D01*
X102480951Y-76554819D02*
X102480951Y-75554819D01*
X102480951Y-75554819D02*
X102147618Y-76269104D01*
X102147618Y-76269104D02*
X101814285Y-75554819D01*
X101814285Y-75554819D02*
X101814285Y-76554819D01*
X101338094Y-76554819D02*
X101338094Y-75554819D01*
X100909523Y-76507200D02*
X100766666Y-76554819D01*
X100766666Y-76554819D02*
X100528571Y-76554819D01*
X100528571Y-76554819D02*
X100433333Y-76507200D01*
X100433333Y-76507200D02*
X100385714Y-76459580D01*
X100385714Y-76459580D02*
X100338095Y-76364342D01*
X100338095Y-76364342D02*
X100338095Y-76269104D01*
X100338095Y-76269104D02*
X100385714Y-76173866D01*
X100385714Y-76173866D02*
X100433333Y-76126247D01*
X100433333Y-76126247D02*
X100528571Y-76078628D01*
X100528571Y-76078628D02*
X100719047Y-76031009D01*
X100719047Y-76031009D02*
X100814285Y-75983390D01*
X100814285Y-75983390D02*
X100861904Y-75935771D01*
X100861904Y-75935771D02*
X100909523Y-75840533D01*
X100909523Y-75840533D02*
X100909523Y-75745295D01*
X100909523Y-75745295D02*
X100861904Y-75650057D01*
X100861904Y-75650057D02*
X100814285Y-75602438D01*
X100814285Y-75602438D02*
X100719047Y-75554819D01*
X100719047Y-75554819D02*
X100480952Y-75554819D01*
X100480952Y-75554819D02*
X100338095Y-75602438D01*
X99719047Y-75554819D02*
X99528571Y-75554819D01*
X99528571Y-75554819D02*
X99433333Y-75602438D01*
X99433333Y-75602438D02*
X99338095Y-75697676D01*
X99338095Y-75697676D02*
X99290476Y-75888152D01*
X99290476Y-75888152D02*
X99290476Y-76221485D01*
X99290476Y-76221485D02*
X99338095Y-76411961D01*
X99338095Y-76411961D02*
X99433333Y-76507200D01*
X99433333Y-76507200D02*
X99528571Y-76554819D01*
X99528571Y-76554819D02*
X99719047Y-76554819D01*
X99719047Y-76554819D02*
X99814285Y-76507200D01*
X99814285Y-76507200D02*
X99909523Y-76411961D01*
X99909523Y-76411961D02*
X99957142Y-76221485D01*
X99957142Y-76221485D02*
X99957142Y-75888152D01*
X99957142Y-75888152D02*
X99909523Y-75697676D01*
X99909523Y-75697676D02*
X99814285Y-75602438D01*
X99814285Y-75602438D02*
X99719047Y-75554819D01*
X99100000Y-76650057D02*
X98338095Y-76650057D01*
X98099999Y-76031009D02*
X97766666Y-76031009D01*
X97623809Y-76554819D02*
X98099999Y-76554819D01*
X98099999Y-76554819D02*
X98099999Y-75554819D01*
X98099999Y-75554819D02*
X97623809Y-75554819D01*
X97242856Y-76507200D02*
X97099999Y-76554819D01*
X97099999Y-76554819D02*
X96861904Y-76554819D01*
X96861904Y-76554819D02*
X96766666Y-76507200D01*
X96766666Y-76507200D02*
X96719047Y-76459580D01*
X96719047Y-76459580D02*
X96671428Y-76364342D01*
X96671428Y-76364342D02*
X96671428Y-76269104D01*
X96671428Y-76269104D02*
X96719047Y-76173866D01*
X96719047Y-76173866D02*
X96766666Y-76126247D01*
X96766666Y-76126247D02*
X96861904Y-76078628D01*
X96861904Y-76078628D02*
X97052380Y-76031009D01*
X97052380Y-76031009D02*
X97147618Y-75983390D01*
X97147618Y-75983390D02*
X97195237Y-75935771D01*
X97195237Y-75935771D02*
X97242856Y-75840533D01*
X97242856Y-75840533D02*
X97242856Y-75745295D01*
X97242856Y-75745295D02*
X97195237Y-75650057D01*
X97195237Y-75650057D02*
X97147618Y-75602438D01*
X97147618Y-75602438D02*
X97052380Y-75554819D01*
X97052380Y-75554819D02*
X96814285Y-75554819D01*
X96814285Y-75554819D02*
X96671428Y-75602438D01*
X96242856Y-76554819D02*
X96242856Y-75554819D01*
X96242856Y-75554819D02*
X95861904Y-75554819D01*
X95861904Y-75554819D02*
X95766666Y-75602438D01*
X95766666Y-75602438D02*
X95719047Y-75650057D01*
X95719047Y-75650057D02*
X95671428Y-75745295D01*
X95671428Y-75745295D02*
X95671428Y-75888152D01*
X95671428Y-75888152D02*
X95719047Y-75983390D01*
X95719047Y-75983390D02*
X95766666Y-76031009D01*
X95766666Y-76031009D02*
X95861904Y-76078628D01*
X95861904Y-76078628D02*
X96242856Y-76078628D01*
X97509580Y-30657142D02*
X97557200Y-30609523D01*
X97557200Y-30609523D02*
X97604819Y-30466666D01*
X97604819Y-30466666D02*
X97604819Y-30371428D01*
X97604819Y-30371428D02*
X97557200Y-30228571D01*
X97557200Y-30228571D02*
X97461961Y-30133333D01*
X97461961Y-30133333D02*
X97366723Y-30085714D01*
X97366723Y-30085714D02*
X97176247Y-30038095D01*
X97176247Y-30038095D02*
X97033390Y-30038095D01*
X97033390Y-30038095D02*
X96842914Y-30085714D01*
X96842914Y-30085714D02*
X96747676Y-30133333D01*
X96747676Y-30133333D02*
X96652438Y-30228571D01*
X96652438Y-30228571D02*
X96604819Y-30371428D01*
X96604819Y-30371428D02*
X96604819Y-30466666D01*
X96604819Y-30466666D02*
X96652438Y-30609523D01*
X96652438Y-30609523D02*
X96700057Y-30657142D01*
X96604819Y-31561904D02*
X96604819Y-31085714D01*
X96604819Y-31085714D02*
X97081009Y-31038095D01*
X97081009Y-31038095D02*
X97033390Y-31085714D01*
X97033390Y-31085714D02*
X96985771Y-31180952D01*
X96985771Y-31180952D02*
X96985771Y-31419047D01*
X96985771Y-31419047D02*
X97033390Y-31514285D01*
X97033390Y-31514285D02*
X97081009Y-31561904D01*
X97081009Y-31561904D02*
X97176247Y-31609523D01*
X97176247Y-31609523D02*
X97414342Y-31609523D01*
X97414342Y-31609523D02*
X97509580Y-31561904D01*
X97509580Y-31561904D02*
X97557200Y-31514285D01*
X97557200Y-31514285D02*
X97604819Y-31419047D01*
X97604819Y-31419047D02*
X97604819Y-31180952D01*
X97604819Y-31180952D02*
X97557200Y-31085714D01*
X97557200Y-31085714D02*
X97509580Y-31038095D01*
X96700057Y-31990476D02*
X96652438Y-32038095D01*
X96652438Y-32038095D02*
X96604819Y-32133333D01*
X96604819Y-32133333D02*
X96604819Y-32371428D01*
X96604819Y-32371428D02*
X96652438Y-32466666D01*
X96652438Y-32466666D02*
X96700057Y-32514285D01*
X96700057Y-32514285D02*
X96795295Y-32561904D01*
X96795295Y-32561904D02*
X96890533Y-32561904D01*
X96890533Y-32561904D02*
X97033390Y-32514285D01*
X97033390Y-32514285D02*
X97604819Y-31942857D01*
X97604819Y-31942857D02*
X97604819Y-32561904D01*
X90442857Y-50304819D02*
X90776190Y-49828628D01*
X91014285Y-50304819D02*
X91014285Y-49304819D01*
X91014285Y-49304819D02*
X90633333Y-49304819D01*
X90633333Y-49304819D02*
X90538095Y-49352438D01*
X90538095Y-49352438D02*
X90490476Y-49400057D01*
X90490476Y-49400057D02*
X90442857Y-49495295D01*
X90442857Y-49495295D02*
X90442857Y-49638152D01*
X90442857Y-49638152D02*
X90490476Y-49733390D01*
X90490476Y-49733390D02*
X90538095Y-49781009D01*
X90538095Y-49781009D02*
X90633333Y-49828628D01*
X90633333Y-49828628D02*
X91014285Y-49828628D01*
X89490476Y-50304819D02*
X90061904Y-50304819D01*
X89776190Y-50304819D02*
X89776190Y-49304819D01*
X89776190Y-49304819D02*
X89871428Y-49447676D01*
X89871428Y-49447676D02*
X89966666Y-49542914D01*
X89966666Y-49542914D02*
X90061904Y-49590533D01*
X88633333Y-49638152D02*
X88633333Y-50304819D01*
X88871428Y-49257200D02*
X89109523Y-49971485D01*
X89109523Y-49971485D02*
X88490476Y-49971485D01*
X68209819Y-67377142D02*
X67733628Y-67043809D01*
X68209819Y-66805714D02*
X67209819Y-66805714D01*
X67209819Y-66805714D02*
X67209819Y-67186666D01*
X67209819Y-67186666D02*
X67257438Y-67281904D01*
X67257438Y-67281904D02*
X67305057Y-67329523D01*
X67305057Y-67329523D02*
X67400295Y-67377142D01*
X67400295Y-67377142D02*
X67543152Y-67377142D01*
X67543152Y-67377142D02*
X67638390Y-67329523D01*
X67638390Y-67329523D02*
X67686009Y-67281904D01*
X67686009Y-67281904D02*
X67733628Y-67186666D01*
X67733628Y-67186666D02*
X67733628Y-66805714D01*
X67543152Y-68234285D02*
X68209819Y-68234285D01*
X67162200Y-67996190D02*
X67876485Y-67758095D01*
X67876485Y-67758095D02*
X67876485Y-68377142D01*
X67209819Y-69234285D02*
X67209819Y-68758095D01*
X67209819Y-68758095D02*
X67686009Y-68710476D01*
X67686009Y-68710476D02*
X67638390Y-68758095D01*
X67638390Y-68758095D02*
X67590771Y-68853333D01*
X67590771Y-68853333D02*
X67590771Y-69091428D01*
X67590771Y-69091428D02*
X67638390Y-69186666D01*
X67638390Y-69186666D02*
X67686009Y-69234285D01*
X67686009Y-69234285D02*
X67781247Y-69281904D01*
X67781247Y-69281904D02*
X68019342Y-69281904D01*
X68019342Y-69281904D02*
X68114580Y-69234285D01*
X68114580Y-69234285D02*
X68162200Y-69186666D01*
X68162200Y-69186666D02*
X68209819Y-69091428D01*
X68209819Y-69091428D02*
X68209819Y-68853333D01*
X68209819Y-68853333D02*
X68162200Y-68758095D01*
X68162200Y-68758095D02*
X68114580Y-68710476D01*
X126284819Y-28857142D02*
X125808628Y-28523809D01*
X126284819Y-28285714D02*
X125284819Y-28285714D01*
X125284819Y-28285714D02*
X125284819Y-28666666D01*
X125284819Y-28666666D02*
X125332438Y-28761904D01*
X125332438Y-28761904D02*
X125380057Y-28809523D01*
X125380057Y-28809523D02*
X125475295Y-28857142D01*
X125475295Y-28857142D02*
X125618152Y-28857142D01*
X125618152Y-28857142D02*
X125713390Y-28809523D01*
X125713390Y-28809523D02*
X125761009Y-28761904D01*
X125761009Y-28761904D02*
X125808628Y-28666666D01*
X125808628Y-28666666D02*
X125808628Y-28285714D01*
X125284819Y-29761904D02*
X125284819Y-29285714D01*
X125284819Y-29285714D02*
X125761009Y-29238095D01*
X125761009Y-29238095D02*
X125713390Y-29285714D01*
X125713390Y-29285714D02*
X125665771Y-29380952D01*
X125665771Y-29380952D02*
X125665771Y-29619047D01*
X125665771Y-29619047D02*
X125713390Y-29714285D01*
X125713390Y-29714285D02*
X125761009Y-29761904D01*
X125761009Y-29761904D02*
X125856247Y-29809523D01*
X125856247Y-29809523D02*
X126094342Y-29809523D01*
X126094342Y-29809523D02*
X126189580Y-29761904D01*
X126189580Y-29761904D02*
X126237200Y-29714285D01*
X126237200Y-29714285D02*
X126284819Y-29619047D01*
X126284819Y-29619047D02*
X126284819Y-29380952D01*
X126284819Y-29380952D02*
X126237200Y-29285714D01*
X126237200Y-29285714D02*
X126189580Y-29238095D01*
X125284819Y-30428571D02*
X125284819Y-30523809D01*
X125284819Y-30523809D02*
X125332438Y-30619047D01*
X125332438Y-30619047D02*
X125380057Y-30666666D01*
X125380057Y-30666666D02*
X125475295Y-30714285D01*
X125475295Y-30714285D02*
X125665771Y-30761904D01*
X125665771Y-30761904D02*
X125903866Y-30761904D01*
X125903866Y-30761904D02*
X126094342Y-30714285D01*
X126094342Y-30714285D02*
X126189580Y-30666666D01*
X126189580Y-30666666D02*
X126237200Y-30619047D01*
X126237200Y-30619047D02*
X126284819Y-30523809D01*
X126284819Y-30523809D02*
X126284819Y-30428571D01*
X126284819Y-30428571D02*
X126237200Y-30333333D01*
X126237200Y-30333333D02*
X126189580Y-30285714D01*
X126189580Y-30285714D02*
X126094342Y-30238095D01*
X126094342Y-30238095D02*
X125903866Y-30190476D01*
X125903866Y-30190476D02*
X125665771Y-30190476D01*
X125665771Y-30190476D02*
X125475295Y-30238095D01*
X125475295Y-30238095D02*
X125380057Y-30285714D01*
X125380057Y-30285714D02*
X125332438Y-30333333D01*
X125332438Y-30333333D02*
X125284819Y-30428571D01*
X100159580Y-28607142D02*
X100207200Y-28559523D01*
X100207200Y-28559523D02*
X100254819Y-28416666D01*
X100254819Y-28416666D02*
X100254819Y-28321428D01*
X100254819Y-28321428D02*
X100207200Y-28178571D01*
X100207200Y-28178571D02*
X100111961Y-28083333D01*
X100111961Y-28083333D02*
X100016723Y-28035714D01*
X100016723Y-28035714D02*
X99826247Y-27988095D01*
X99826247Y-27988095D02*
X99683390Y-27988095D01*
X99683390Y-27988095D02*
X99492914Y-28035714D01*
X99492914Y-28035714D02*
X99397676Y-28083333D01*
X99397676Y-28083333D02*
X99302438Y-28178571D01*
X99302438Y-28178571D02*
X99254819Y-28321428D01*
X99254819Y-28321428D02*
X99254819Y-28416666D01*
X99254819Y-28416666D02*
X99302438Y-28559523D01*
X99302438Y-28559523D02*
X99350057Y-28607142D01*
X99254819Y-29511904D02*
X99254819Y-29035714D01*
X99254819Y-29035714D02*
X99731009Y-28988095D01*
X99731009Y-28988095D02*
X99683390Y-29035714D01*
X99683390Y-29035714D02*
X99635771Y-29130952D01*
X99635771Y-29130952D02*
X99635771Y-29369047D01*
X99635771Y-29369047D02*
X99683390Y-29464285D01*
X99683390Y-29464285D02*
X99731009Y-29511904D01*
X99731009Y-29511904D02*
X99826247Y-29559523D01*
X99826247Y-29559523D02*
X100064342Y-29559523D01*
X100064342Y-29559523D02*
X100159580Y-29511904D01*
X100159580Y-29511904D02*
X100207200Y-29464285D01*
X100207200Y-29464285D02*
X100254819Y-29369047D01*
X100254819Y-29369047D02*
X100254819Y-29130952D01*
X100254819Y-29130952D02*
X100207200Y-29035714D01*
X100207200Y-29035714D02*
X100159580Y-28988095D01*
X100254819Y-30511904D02*
X100254819Y-29940476D01*
X100254819Y-30226190D02*
X99254819Y-30226190D01*
X99254819Y-30226190D02*
X99397676Y-30130952D01*
X99397676Y-30130952D02*
X99492914Y-30035714D01*
X99492914Y-30035714D02*
X99540533Y-29940476D01*
X102680951Y-80154819D02*
X102680951Y-79154819D01*
X102680951Y-79154819D02*
X102347618Y-79869104D01*
X102347618Y-79869104D02*
X102014285Y-79154819D01*
X102014285Y-79154819D02*
X102014285Y-80154819D01*
X101347618Y-79154819D02*
X101157142Y-79154819D01*
X101157142Y-79154819D02*
X101061904Y-79202438D01*
X101061904Y-79202438D02*
X100966666Y-79297676D01*
X100966666Y-79297676D02*
X100919047Y-79488152D01*
X100919047Y-79488152D02*
X100919047Y-79821485D01*
X100919047Y-79821485D02*
X100966666Y-80011961D01*
X100966666Y-80011961D02*
X101061904Y-80107200D01*
X101061904Y-80107200D02*
X101157142Y-80154819D01*
X101157142Y-80154819D02*
X101347618Y-80154819D01*
X101347618Y-80154819D02*
X101442856Y-80107200D01*
X101442856Y-80107200D02*
X101538094Y-80011961D01*
X101538094Y-80011961D02*
X101585713Y-79821485D01*
X101585713Y-79821485D02*
X101585713Y-79488152D01*
X101585713Y-79488152D02*
X101538094Y-79297676D01*
X101538094Y-79297676D02*
X101442856Y-79202438D01*
X101442856Y-79202438D02*
X101347618Y-79154819D01*
X100538094Y-80107200D02*
X100395237Y-80154819D01*
X100395237Y-80154819D02*
X100157142Y-80154819D01*
X100157142Y-80154819D02*
X100061904Y-80107200D01*
X100061904Y-80107200D02*
X100014285Y-80059580D01*
X100014285Y-80059580D02*
X99966666Y-79964342D01*
X99966666Y-79964342D02*
X99966666Y-79869104D01*
X99966666Y-79869104D02*
X100014285Y-79773866D01*
X100014285Y-79773866D02*
X100061904Y-79726247D01*
X100061904Y-79726247D02*
X100157142Y-79678628D01*
X100157142Y-79678628D02*
X100347618Y-79631009D01*
X100347618Y-79631009D02*
X100442856Y-79583390D01*
X100442856Y-79583390D02*
X100490475Y-79535771D01*
X100490475Y-79535771D02*
X100538094Y-79440533D01*
X100538094Y-79440533D02*
X100538094Y-79345295D01*
X100538094Y-79345295D02*
X100490475Y-79250057D01*
X100490475Y-79250057D02*
X100442856Y-79202438D01*
X100442856Y-79202438D02*
X100347618Y-79154819D01*
X100347618Y-79154819D02*
X100109523Y-79154819D01*
X100109523Y-79154819D02*
X99966666Y-79202438D01*
X99538094Y-80154819D02*
X99538094Y-79154819D01*
X99300000Y-80250057D02*
X98538095Y-80250057D01*
X98299999Y-79631009D02*
X97966666Y-79631009D01*
X97823809Y-80154819D02*
X98299999Y-80154819D01*
X98299999Y-80154819D02*
X98299999Y-79154819D01*
X98299999Y-79154819D02*
X97823809Y-79154819D01*
X97442856Y-80107200D02*
X97299999Y-80154819D01*
X97299999Y-80154819D02*
X97061904Y-80154819D01*
X97061904Y-80154819D02*
X96966666Y-80107200D01*
X96966666Y-80107200D02*
X96919047Y-80059580D01*
X96919047Y-80059580D02*
X96871428Y-79964342D01*
X96871428Y-79964342D02*
X96871428Y-79869104D01*
X96871428Y-79869104D02*
X96919047Y-79773866D01*
X96919047Y-79773866D02*
X96966666Y-79726247D01*
X96966666Y-79726247D02*
X97061904Y-79678628D01*
X97061904Y-79678628D02*
X97252380Y-79631009D01*
X97252380Y-79631009D02*
X97347618Y-79583390D01*
X97347618Y-79583390D02*
X97395237Y-79535771D01*
X97395237Y-79535771D02*
X97442856Y-79440533D01*
X97442856Y-79440533D02*
X97442856Y-79345295D01*
X97442856Y-79345295D02*
X97395237Y-79250057D01*
X97395237Y-79250057D02*
X97347618Y-79202438D01*
X97347618Y-79202438D02*
X97252380Y-79154819D01*
X97252380Y-79154819D02*
X97014285Y-79154819D01*
X97014285Y-79154819D02*
X96871428Y-79202438D01*
X96442856Y-80154819D02*
X96442856Y-79154819D01*
X96442856Y-79154819D02*
X96061904Y-79154819D01*
X96061904Y-79154819D02*
X95966666Y-79202438D01*
X95966666Y-79202438D02*
X95919047Y-79250057D01*
X95919047Y-79250057D02*
X95871428Y-79345295D01*
X95871428Y-79345295D02*
X95871428Y-79488152D01*
X95871428Y-79488152D02*
X95919047Y-79583390D01*
X95919047Y-79583390D02*
X95966666Y-79631009D01*
X95966666Y-79631009D02*
X96061904Y-79678628D01*
X96061904Y-79678628D02*
X96442856Y-79678628D01*
D11*
X64890000Y-64542164D02*
X64890000Y-64757836D01*
X65610000Y-64542164D02*
X65610000Y-64757836D01*
X92602000Y-77204950D02*
X92602000Y-78604950D01*
X92602000Y-78604950D02*
X94002000Y-78604950D01*
X94002000Y-77204950D02*
X92602000Y-77204950D01*
X94002000Y-78604950D02*
X94002000Y-77204950D01*
X93500000Y-27940000D02*
X91550000Y-27940000D01*
X93500000Y-27940000D02*
X95450000Y-27940000D01*
X93500000Y-33060000D02*
X91550000Y-33060000D01*
X93500000Y-33060000D02*
X95450000Y-33060000D01*
X91040000Y-33295000D02*
X90560000Y-33295000D01*
X90800000Y-32965000D01*
X91040000Y-33295000D01*
G36*
X91040000Y-33295000D02*
G01*
X90560000Y-33295000D01*
X90800000Y-32965000D01*
X91040000Y-33295000D01*
G37*
X67607836Y-49140000D02*
X67392164Y-49140000D01*
X67607836Y-49860000D02*
X67392164Y-49860000D01*
X58280000Y-67800000D02*
X58280000Y-69200000D01*
X58280000Y-69200000D02*
X59680000Y-69200000D01*
X59680000Y-67800000D02*
X58280000Y-67800000D01*
X59680000Y-69200000D02*
X59680000Y-67800000D01*
X89800000Y-65800000D02*
X89800000Y-67200000D01*
X89800000Y-67200000D02*
X91200000Y-67200000D01*
X91200000Y-65800000D02*
X89800000Y-65800000D01*
X91200000Y-67200000D02*
X91200000Y-65800000D01*
X92600000Y-80850000D02*
X92600000Y-82250000D01*
X92600000Y-82250000D02*
X94000000Y-82250000D01*
X94000000Y-80850000D02*
X92600000Y-80850000D01*
X94000000Y-82250000D02*
X94000000Y-80850000D01*
X98657836Y-26840000D02*
X98442164Y-26840000D01*
X98657836Y-27560000D02*
X98442164Y-27560000D01*
X97650000Y-80850000D02*
X97650000Y-82250000D01*
X97650000Y-82250000D02*
X99050000Y-82250000D01*
X99050000Y-80850000D02*
X97650000Y-80850000D01*
X99050000Y-82250000D02*
X99050000Y-80850000D01*
X54346359Y-48620000D02*
X54653641Y-48620000D01*
X54346359Y-49380000D02*
X54653641Y-49380000D01*
X92600000Y-73650000D02*
X92600000Y-75050000D01*
X92600000Y-75050000D02*
X94000000Y-75050000D01*
X94000000Y-73650000D02*
X92600000Y-73650000D01*
X94000000Y-75050000D02*
X94000000Y-73650000D01*
X89270000Y-45296359D02*
X89270000Y-45603641D01*
X90030000Y-45296359D02*
X90030000Y-45603641D01*
X54356359Y-54620000D02*
X54663641Y-54620000D01*
X54356359Y-55380000D02*
X54663641Y-55380000D01*
X68107836Y-55140000D02*
X67892164Y-55140000D01*
X68107836Y-55860000D02*
X67892164Y-55860000D01*
X66195000Y-65396359D02*
X66195000Y-65703641D01*
X66955000Y-65396359D02*
X66955000Y-65703641D01*
X97650000Y-73650000D02*
X97650000Y-75050000D01*
X97650000Y-75050000D02*
X99050000Y-75050000D01*
X99050000Y-73650000D02*
X97650000Y-73650000D01*
X99050000Y-75050000D02*
X99050000Y-73650000D01*
X98140000Y-31392164D02*
X98140000Y-31607836D01*
X98860000Y-31392164D02*
X98860000Y-31607836D01*
X89320000Y-48503641D02*
X89320000Y-48196359D01*
X90080000Y-48503641D02*
X90080000Y-48196359D01*
X50090000Y-50690000D02*
X50090000Y-50740000D01*
X50090000Y-51860000D02*
X50090000Y-52640000D01*
X50090000Y-53760000D02*
X50090000Y-53810000D01*
X50090000Y-53810000D02*
X51910000Y-53810000D01*
X51910000Y-50690000D02*
X50090000Y-50690000D01*
X51910000Y-50740000D02*
X51910000Y-50690000D01*
X51910000Y-53810000D02*
X51910000Y-53760000D01*
X52450000Y-50740000D02*
X52210000Y-50410000D01*
X52690000Y-50410000D01*
X52450000Y-50740000D01*
G36*
X52450000Y-50740000D02*
G01*
X52210000Y-50410000D01*
X52690000Y-50410000D01*
X52450000Y-50740000D01*
G37*
X66195000Y-67346359D02*
X66195000Y-67653641D01*
X66955000Y-67346359D02*
X66955000Y-67653641D01*
X68107836Y-54140000D02*
X67892164Y-54140000D01*
X68107836Y-54860000D02*
X67892164Y-54860000D01*
X123090000Y-30227064D02*
X123090000Y-28772936D01*
X124910000Y-30227064D02*
X124910000Y-28772936D01*
X88790000Y-30307836D02*
X88790000Y-30092164D01*
X89510000Y-30307836D02*
X89510000Y-30092164D01*
X67607836Y-48140000D02*
X67392164Y-48140000D01*
X67607836Y-48860000D02*
X67392164Y-48860000D01*
X98140000Y-29357836D02*
X98140000Y-29142164D01*
X98860000Y-29357836D02*
X98860000Y-29142164D01*
D12*
X59400000Y-62050000D02*
X59400000Y-66950000D01*
X59400000Y-66950000D02*
X62600000Y-66950000D01*
X62600000Y-62050000D02*
X59400000Y-62050000D01*
X62600000Y-66950000D02*
X62600000Y-62050000D01*
X64450000Y-61920000D02*
X62950000Y-61920000D01*
D11*
X97652000Y-77204950D02*
X97652000Y-78604950D01*
X97652000Y-78604950D02*
X99052000Y-78604950D01*
X99052000Y-77204950D02*
X97652000Y-77204950D01*
X99052000Y-78604950D02*
X99052000Y-77204950D01*
%LPC*%
D13*
X44500000Y-48600000D03*
X44500000Y-50600000D03*
X44500000Y-52600000D03*
X44500000Y-54600000D03*
X44500000Y-56500000D03*
D14*
X71762000Y-23464950D03*
D15*
X71762000Y-26004950D03*
X71762000Y-38704950D03*
X71762000Y-41244950D03*
X71762000Y-43784950D03*
X71762000Y-53944950D03*
X71762000Y-56484950D03*
X71762000Y-59024950D03*
X71762000Y-61564950D03*
X71762000Y-64104950D03*
X71762000Y-66644950D03*
X71762000Y-69184950D03*
X71762000Y-71724950D03*
X71762000Y-74264950D03*
X71762000Y-76804950D03*
X71762000Y-79344950D03*
X71762000Y-81884950D03*
X87002000Y-81884950D03*
X87002000Y-79344950D03*
X87002000Y-76804950D03*
X87002000Y-74264950D03*
X87002000Y-71724950D03*
X87002000Y-66644950D03*
X87002000Y-64104950D03*
X87002000Y-61564950D03*
X87002000Y-59024950D03*
X87002000Y-56484950D03*
X87002000Y-53944950D03*
X87002000Y-51404950D03*
X87002000Y-48864950D03*
X87002000Y-46324950D03*
X87002000Y-43784950D03*
X87002000Y-41244950D03*
X87002000Y-38704950D03*
X87002000Y-36164950D03*
X87002000Y-33624950D03*
X87002000Y-31084950D03*
X87002000Y-28544950D03*
X87002000Y-26004950D03*
X87002000Y-23464950D03*
X84462000Y-26004950D03*
X74302000Y-69184950D03*
X76842000Y-69184950D03*
X79382000Y-69184950D03*
X74812800Y-37384150D03*
X74812800Y-39924150D03*
D16*
X84563600Y-36434950D03*
D17*
X82563600Y-36434950D03*
X80563600Y-36434950D03*
X80563600Y-38434950D03*
X82563600Y-38434950D03*
X84563600Y-38434950D03*
X80652000Y-24194950D03*
X78112000Y-24194950D03*
D18*
X129022000Y-64054950D03*
X129022000Y-61768950D03*
X129022000Y-59482950D03*
X129022000Y-57196950D03*
X129022000Y-54910950D03*
X129022000Y-52624950D03*
X129022000Y-50338950D03*
X129022000Y-48052950D03*
X129022000Y-45766950D03*
X129022000Y-43480950D03*
X129022000Y-41194950D03*
X129022000Y-38908950D03*
X129022000Y-36622950D03*
X129022000Y-34336950D03*
X129022000Y-32050950D03*
X131562000Y-65197950D03*
X131562000Y-62911950D03*
X131562000Y-60625950D03*
X131562000Y-58339950D03*
X131562000Y-56053950D03*
X131562000Y-53767950D03*
X131562000Y-51481950D03*
X131562000Y-49195950D03*
X131562000Y-46909950D03*
X131562000Y-44623950D03*
X131562000Y-42337950D03*
X131562000Y-40051950D03*
X131562000Y-37765950D03*
X131562000Y-35479950D03*
X131562000Y-33193950D03*
X134102000Y-64054950D03*
X134102000Y-61768950D03*
X134102000Y-59482950D03*
X134102000Y-57196950D03*
X134102000Y-54910950D03*
X134102000Y-52624950D03*
X134102000Y-50338950D03*
X134102000Y-48052950D03*
X134102000Y-45766950D03*
X134102000Y-43480950D03*
X134102000Y-41194950D03*
X134102000Y-38908950D03*
X134102000Y-36622950D03*
X134102000Y-34336950D03*
D19*
X131562000Y-72080950D03*
X131562000Y-25040950D03*
D20*
X65250000Y-64170000D03*
X65250000Y-65130000D03*
D21*
X93302000Y-77904950D03*
D22*
X91025000Y-32405000D03*
X91025000Y-31135000D03*
X91025000Y-29865000D03*
X91025000Y-28595000D03*
X95975000Y-28595000D03*
X95975000Y-29865000D03*
X95975000Y-31135000D03*
X95975000Y-32405000D03*
D23*
X67980000Y-49500000D03*
X67020000Y-49500000D03*
D21*
X58980000Y-68500000D03*
X90500000Y-66500000D03*
X93300000Y-81550000D03*
D23*
X99030000Y-27200000D03*
X98070000Y-27200000D03*
D21*
X98350000Y-81550000D03*
D24*
X53990000Y-49000000D03*
X55010000Y-49000000D03*
D21*
X93300000Y-74350000D03*
D25*
X89650000Y-44940000D03*
X89650000Y-45960000D03*
D24*
X54000000Y-55000000D03*
X55020000Y-55000000D03*
D23*
X68480000Y-55500000D03*
X67520000Y-55500000D03*
D25*
X66575000Y-65040000D03*
X66575000Y-66060000D03*
D21*
X98350000Y-74350000D03*
D20*
X98500000Y-31020000D03*
X98500000Y-31980000D03*
D26*
X89700000Y-48860000D03*
X89700000Y-47840000D03*
D27*
X52137500Y-51300000D03*
X52137500Y-52250000D03*
X52137500Y-53200000D03*
X49862500Y-53200000D03*
X49862500Y-51300000D03*
D25*
X66575000Y-66990000D03*
X66575000Y-68010000D03*
D23*
X68480000Y-54500000D03*
X67520000Y-54500000D03*
D28*
X124000000Y-30962500D03*
X124000000Y-28037500D03*
D29*
X89150000Y-30680000D03*
X89150000Y-29720000D03*
D23*
X67980000Y-48500000D03*
X67020000Y-48500000D03*
D29*
X98500000Y-29730000D03*
X98500000Y-28770000D03*
D30*
X63700000Y-62595000D03*
X63700000Y-63865000D03*
X63700000Y-65135000D03*
X63700000Y-66405000D03*
X58300000Y-66405000D03*
X58300000Y-65135000D03*
X58300000Y-63865000D03*
X58300000Y-62595000D03*
D21*
X98352000Y-77904950D03*
%LPD*%
M02*
