M48
; DRILL file {KiCad 9.0.4} date 2025-12-21T19:52:21-0500
; FORMAT={-:-/ absolute / metric / decimal}
; #@! TF.CreationDate,2025-12-21T19:52:21-05:00
; #@! TF.GenerationSoftware,Kicad,Pcbnew,9.0.4
; #@! TF.FileFunction,Plated,1,2,PTH
FMAT,2
METRIC
; #@! TA.AperFunction,Plated,PTH,ComponentDrill
T1C1.000
; #@! TA.AperFunction,Plated,PTH,ComponentDrill
T2C1.100
; #@! TA.AperFunction,Plated,PTH,ComponentDrill
T3C3.200
%
G90
G05
T1
X127.955Y-103.85
X128.955Y-106.35
X130.245Y-103.85
X130.245Y-108.9
X131.245Y-106.35
X132.535Y-103.85
X132.535Y-108.9
X133.535Y-106.35
X134.825Y-103.85
X134.825Y-108.9
X135.825Y-106.35
X137.115Y-103.85
X137.115Y-108.9
X138.115Y-106.35
X139.405Y-103.85
X139.405Y-108.9
X140.405Y-106.35
X141.695Y-103.85
X141.695Y-108.9
X142.695Y-106.35
X143.985Y-103.85
X143.985Y-108.9
X144.985Y-106.35
X146.275Y-103.85
X146.275Y-108.9
X147.275Y-106.35
X148.565Y-103.85
X148.565Y-108.9
X149.565Y-106.35
X150.855Y-103.85
X150.855Y-108.9
X151.855Y-106.35
X153.145Y-103.85
X153.145Y-108.9
X154.145Y-106.35
X155.435Y-103.85
X155.435Y-108.9
X156.435Y-106.35
X157.725Y-103.85
X157.725Y-108.9
X158.725Y-106.35
X160.015Y-103.85
X160.015Y-108.9
X161.015Y-106.35
T2
X97.26Y-105.5
X100.0Y-50.6
X100.0Y-55.68
X100.0Y-60.76
X100.0Y-65.84
X100.0Y-70.92
X100.0Y-76.0
X100.0Y-81.08
X100.0Y-86.16
X100.0Y-91.24
X100.0Y-96.32
X102.34Y-105.5
X107.42Y-105.5
X112.5Y-105.5
X116.26Y-60.5
X116.26Y-81.36
X121.34Y-60.5
X121.34Y-81.36
X126.42Y-60.5
X126.42Y-81.36
X131.5Y-60.5
X131.5Y-81.36
X136.58Y-60.5
X136.58Y-81.36
X141.66Y-60.5
X141.66Y-81.36
X146.74Y-60.5
X146.74Y-81.36
X151.82Y-60.5
X151.82Y-81.36
X156.9Y-60.5
X156.9Y-81.36
X161.98Y-60.5
X161.98Y-81.36
X172.0Y-53.27
X172.0Y-58.35
X172.0Y-63.43
X172.0Y-68.51
X172.0Y-73.59
X172.0Y-78.67
X172.0Y-83.75
X172.0Y-88.83
X172.0Y-93.91
X172.0Y-98.99
T3
X120.94Y-106.99
X168.04Y-106.99
M30
