%TF.GenerationSoftware,KiCad,Pcbnew,9.0.4*%
%TF.CreationDate,2025-12-21T19:52:21-05:00*%
%TF.ProjectId,DB44_breakout,44423434-5f62-4726-9561-6b6f75742e6b,rev?*%
%TF.SameCoordinates,Original*%
%TF.FileFunction,Drillmap*%
%TF.FilePolarity,Positive*%
%FSLAX45Y45*%
G04 Gerber Fmt 4.5, Leading zero omitted, Abs format (unit mm)*
G04 Created by KiCad (PCBNEW 9.0.4) date 2025-12-21 19:52:21*
%MOMM*%
%LPD*%
G01*
G04 APERTURE LIST*
%ADD10C,0.050000*%
%ADD11C,0.200000*%
G04 APERTURE END LIST*
D10*
X18100000Y-11500000D02*
X18100000Y-4525000D01*
X9200000Y-11500000D02*
X11350000Y-11500000D01*
X16800000Y-11500000D02*
X11350000Y-11500000D01*
X18100000Y-4525000D02*
X9200000Y-4525000D01*
X16800000Y-11500000D02*
X18100000Y-11500000D01*
X9200000Y-4525000D02*
X9200000Y-11500000D01*
D11*
X9458277Y-11813984D02*
X9458277Y-11613984D01*
X9458277Y-11613984D02*
X9505896Y-11613984D01*
X9505896Y-11613984D02*
X9534467Y-11623508D01*
X9534467Y-11623508D02*
X9553515Y-11642555D01*
X9553515Y-11642555D02*
X9563039Y-11661603D01*
X9563039Y-11661603D02*
X9572563Y-11699698D01*
X9572563Y-11699698D02*
X9572563Y-11728269D01*
X9572563Y-11728269D02*
X9563039Y-11766365D01*
X9563039Y-11766365D02*
X9553515Y-11785412D01*
X9553515Y-11785412D02*
X9534467Y-11804460D01*
X9534467Y-11804460D02*
X9505896Y-11813984D01*
X9505896Y-11813984D02*
X9458277Y-11813984D01*
X9658277Y-11813984D02*
X9658277Y-11680650D01*
X9658277Y-11718746D02*
X9667801Y-11699698D01*
X9667801Y-11699698D02*
X9677324Y-11690174D01*
X9677324Y-11690174D02*
X9696372Y-11680650D01*
X9696372Y-11680650D02*
X9715420Y-11680650D01*
X9782086Y-11813984D02*
X9782086Y-11680650D01*
X9782086Y-11613984D02*
X9772563Y-11623508D01*
X9772563Y-11623508D02*
X9782086Y-11633031D01*
X9782086Y-11633031D02*
X9791610Y-11623508D01*
X9791610Y-11623508D02*
X9782086Y-11613984D01*
X9782086Y-11613984D02*
X9782086Y-11633031D01*
X9905896Y-11813984D02*
X9886848Y-11804460D01*
X9886848Y-11804460D02*
X9877324Y-11785412D01*
X9877324Y-11785412D02*
X9877324Y-11613984D01*
X10010658Y-11813984D02*
X9991610Y-11804460D01*
X9991610Y-11804460D02*
X9982086Y-11785412D01*
X9982086Y-11785412D02*
X9982086Y-11613984D01*
X10239229Y-11813984D02*
X10239229Y-11613984D01*
X10239229Y-11613984D02*
X10305896Y-11756841D01*
X10305896Y-11756841D02*
X10372563Y-11613984D01*
X10372563Y-11613984D02*
X10372563Y-11813984D01*
X10553515Y-11813984D02*
X10553515Y-11709222D01*
X10553515Y-11709222D02*
X10543991Y-11690174D01*
X10543991Y-11690174D02*
X10524944Y-11680650D01*
X10524944Y-11680650D02*
X10486848Y-11680650D01*
X10486848Y-11680650D02*
X10467801Y-11690174D01*
X10553515Y-11804460D02*
X10534467Y-11813984D01*
X10534467Y-11813984D02*
X10486848Y-11813984D01*
X10486848Y-11813984D02*
X10467801Y-11804460D01*
X10467801Y-11804460D02*
X10458277Y-11785412D01*
X10458277Y-11785412D02*
X10458277Y-11766365D01*
X10458277Y-11766365D02*
X10467801Y-11747317D01*
X10467801Y-11747317D02*
X10486848Y-11737793D01*
X10486848Y-11737793D02*
X10534467Y-11737793D01*
X10534467Y-11737793D02*
X10553515Y-11728269D01*
X10648753Y-11680650D02*
X10648753Y-11880650D01*
X10648753Y-11690174D02*
X10667801Y-11680650D01*
X10667801Y-11680650D02*
X10705896Y-11680650D01*
X10705896Y-11680650D02*
X10724944Y-11690174D01*
X10724944Y-11690174D02*
X10734467Y-11699698D01*
X10734467Y-11699698D02*
X10743991Y-11718746D01*
X10743991Y-11718746D02*
X10743991Y-11775888D01*
X10743991Y-11775888D02*
X10734467Y-11794936D01*
X10734467Y-11794936D02*
X10724944Y-11804460D01*
X10724944Y-11804460D02*
X10705896Y-11813984D01*
X10705896Y-11813984D02*
X10667801Y-11813984D01*
X10667801Y-11813984D02*
X10648753Y-11804460D01*
X10829705Y-11794936D02*
X10839229Y-11804460D01*
X10839229Y-11804460D02*
X10829705Y-11813984D01*
X10829705Y-11813984D02*
X10820182Y-11804460D01*
X10820182Y-11804460D02*
X10829705Y-11794936D01*
X10829705Y-11794936D02*
X10829705Y-11813984D01*
X10829705Y-11690174D02*
X10839229Y-11699698D01*
X10839229Y-11699698D02*
X10829705Y-11709222D01*
X10829705Y-11709222D02*
X10820182Y-11699698D01*
X10820182Y-11699698D02*
X10829705Y-11690174D01*
X10829705Y-11690174D02*
X10829705Y-11709222D01*
M02*
