M48
; DRILL file {KiCad 9.0.4} date 2025-12-21T18:46:59-0500
; FORMAT={-:-/ absolute / metric / decimal}
; #@! TF.CreationDate,2025-12-21T18:46:59-05:00
; #@! TF.GenerationSoftware,Kicad,Pcbnew,9.0.4
; #@! TF.FileFunction,Plated,1,2,PTH
FMAT,2
METRIC
; #@! TA.AperFunction,Plated,PTH,ViaDrill
T1C0.300
; #@! TA.AperFunction,Plated,PTH,ComponentDrill
T2C1.000
; #@! TA.AperFunction,Plated,PTH,ComponentDrill
T3C1.100
; #@! TA.AperFunction,Plated,PTH,ComponentDrill
T4C3.200
%
G90
G05
T1
X97.0Y-52.32
X97.0Y-61.82
X97.0Y-70.32
X97.0Y-78.32
X97.0Y-87.82
X97.0Y-96.32
X100.0Y-102.5
X106.0Y-74.0
X107.0Y-102.474
X110.5Y-51.5
X110.5Y-68.782
X112.5Y-84.5
X114.16Y-86.16
X115.0Y-102.5
X116.0Y-69.0
X116.75Y-91.24
X118.0Y-83.0
X118.0Y-105.0
X119.0Y-51.5
X119.0Y-92.5
X119.0Y-96.5
X121.5Y-68.894
X125.5Y-108.0
X126.5Y-92.5
X127.5Y-69.0
X128.5Y-51.5
X132.5Y-102.5
X134.5Y-100.5
X135.0Y-88.0
X135.5Y-69.0
X136.5Y-51.5
X139.5Y-102.5
X140.0Y-111.0
X141.5Y-91.0
X142.0Y-69.0
X145.0Y-51.5
X146.0Y-95.5
X146.0Y-102.5
X146.5Y-69.0
X147.0Y-89.5
X148.802Y-102.198
X150.0Y-69.0
X150.0Y-87.5
X152.6Y-102.0
X153.5Y-69.062
X154.29Y-88.91
X154.5Y-51.5
X155.6Y-101.5
X158.0Y-69.0
X161.5Y-69.0
X162.5Y-51.5
X162.5Y-95.0
X166.1Y-101.0
X170.5Y-109.5
X175.0Y-104.644
X175.0Y-109.0
X175.5Y-54.5
X175.5Y-64.0
X175.5Y-72.5
X175.5Y-80.5
X175.5Y-90.0
X175.5Y-98.5
T2
X127.955Y-105.1
X129.1Y-107.0
X130.245Y-105.1
X130.245Y-108.9
X131.39Y-107.0
X132.535Y-105.1
X132.535Y-108.9
X133.68Y-107.0
X134.825Y-105.1
X134.825Y-108.9
X135.97Y-107.0
X137.115Y-105.1
X137.115Y-108.9
X138.26Y-107.0
X139.405Y-105.1
X139.405Y-108.9
X140.55Y-107.0
X141.695Y-105.1
X141.695Y-108.9
X142.84Y-107.0
X143.985Y-105.1
X143.985Y-108.9
X145.13Y-107.0
X146.275Y-105.1
X146.275Y-108.9
X147.42Y-107.0
X148.565Y-105.1
X148.565Y-108.9
X149.71Y-107.0
X150.855Y-105.1
X150.855Y-108.9
X152.0Y-107.0
X153.145Y-105.1
X153.145Y-108.9
X154.29Y-107.0
X155.435Y-105.1
X155.435Y-108.9
X156.58Y-107.0
X157.725Y-105.1
X157.725Y-108.9
X158.87Y-107.0
X160.015Y-105.1
X160.015Y-108.9
X161.16Y-107.0
T3
X97.26Y-105.5
X100.0Y-50.6
X100.0Y-55.68
X100.0Y-60.76
X100.0Y-65.84
X100.0Y-70.92
X100.0Y-76.0
X100.0Y-81.08
X100.0Y-86.16
X100.0Y-91.24
X100.0Y-96.32
X102.34Y-105.5
X107.42Y-105.5
X112.5Y-105.5
X116.26Y-60.5
X116.26Y-81.36
X121.34Y-60.5
X121.34Y-81.36
X126.42Y-60.5
X126.42Y-81.36
X131.5Y-60.5
X131.5Y-81.36
X136.58Y-60.5
X136.58Y-81.36
X141.66Y-60.5
X141.66Y-81.36
X146.74Y-60.5
X146.74Y-81.36
X151.82Y-60.5
X151.82Y-81.36
X156.9Y-60.5
X156.9Y-81.36
X161.98Y-60.5
X161.98Y-81.36
X172.0Y-53.27
X172.0Y-58.35
X172.0Y-63.43
X172.0Y-68.51
X172.0Y-73.59
X172.0Y-78.67
X172.0Y-83.75
X172.0Y-88.83
X172.0Y-93.91
X172.0Y-98.99
T4
X120.94Y-106.99
X168.04Y-106.99
M30
