G04 #@! TF.GenerationSoftware,KiCad,Pcbnew,9.0.4*
G04 #@! TF.CreationDate,2025-12-21T19:52:19-05:00*
G04 #@! TF.ProjectId,DB44_breakout,44423434-5f62-4726-9561-6b6f75742e6b,rev?*
G04 #@! TF.SameCoordinates,Original*
G04 #@! TF.FileFunction,Soldermask,Top*
G04 #@! TF.FilePolarity,Negative*
%FSLAX46Y46*%
G04 Gerber Fmt 4.6, Leading zero omitted, Abs format (unit mm)*
G04 Created by KiCad (PCBNEW 9.0.4) date 2025-12-21 19:52:19*
%MOMM*%
%LPD*%
G01*
G04 APERTURE LIST*
G04 Aperture macros list*
%AMRoundRect*
0 Rectangle with rounded corners*
0 $1 Rounding radius*
0 $2 $3 $4 $5 $6 $7 $8 $9 X,Y pos of 4 corners*
0 Add a 4 corners polygon primitive as box body*
4,1,4,$2,$3,$4,$5,$6,$7,$8,$9,$2,$3,0*
0 Add four circle primitives for the rounded corners*
1,1,$1+$1,$2,$3*
1,1,$1+$1,$4,$5*
1,1,$1+$1,$6,$7*
1,1,$1+$1,$8,$9*
0 Add four rect primitives between the rounded corners*
20,1,$1+$1,$2,$3,$4,$5,0*
20,1,$1+$1,$4,$5,$6,$7,0*
20,1,$1+$1,$6,$7,$8,$9,0*
20,1,$1+$1,$8,$9,$2,$3,0*%
G04 Aperture macros list end*
%ADD10RoundRect,0.250001X-0.799999X-0.799999X0.799999X-0.799999X0.799999X0.799999X-0.799999X0.799999X0*%
%ADD11C,2.100000*%
%ADD12RoundRect,0.250001X0.799999X-0.799999X0.799999X0.799999X-0.799999X0.799999X-0.799999X-0.799999X0*%
%ADD13RoundRect,0.250001X-0.799999X0.799999X-0.799999X-0.799999X0.799999X-0.799999X0.799999X0.799999X0*%
%ADD14C,4.000000*%
%ADD15R,1.600000X1.600000*%
%ADD16C,1.600000*%
G04 APERTURE END LIST*
D10*
X116260000Y-60500000D03*
D11*
X121340000Y-60500000D03*
X126420000Y-60500000D03*
X131500000Y-60500000D03*
X136580000Y-60500000D03*
X141660000Y-60500000D03*
X146740000Y-60500000D03*
X151820000Y-60500000D03*
X156900000Y-60500000D03*
X161980000Y-60500000D03*
D10*
X97260000Y-105500000D03*
D11*
X102340000Y-105500000D03*
X107420000Y-105500000D03*
X112500000Y-105500000D03*
D12*
X100000000Y-96320000D03*
D11*
X100000000Y-91240000D03*
X100000000Y-86160000D03*
X100000000Y-81080000D03*
X100000000Y-76000000D03*
X100000000Y-70920000D03*
X100000000Y-65840000D03*
X100000000Y-60760000D03*
X100000000Y-55680000D03*
X100000000Y-50600000D03*
D13*
X172000000Y-53270000D03*
D11*
X172000000Y-58350000D03*
X172000000Y-63430000D03*
X172000000Y-68510000D03*
X172000000Y-73590000D03*
X172000000Y-78670000D03*
X172000000Y-83750000D03*
X172000000Y-88830000D03*
X172000000Y-93910000D03*
X172000000Y-98990000D03*
D14*
X120940000Y-106990000D03*
X168040000Y-106990000D03*
D15*
X160015000Y-103850000D03*
D16*
X157725000Y-103850000D03*
X155435000Y-103850000D03*
X153145000Y-103850000D03*
X150855000Y-103850000D03*
X148565000Y-103850000D03*
X146275000Y-103850000D03*
X143985000Y-103850000D03*
X141695000Y-103850000D03*
X139405000Y-103850000D03*
X137115000Y-103850000D03*
X134825000Y-103850000D03*
X132535000Y-103850000D03*
X130245000Y-103850000D03*
X127955000Y-103850000D03*
X161015000Y-106350000D03*
X158725000Y-106350000D03*
X156435000Y-106350000D03*
X154145000Y-106350000D03*
X151855000Y-106350000D03*
X149565000Y-106350000D03*
X147275000Y-106350000D03*
X144985000Y-106350000D03*
X142695000Y-106350000D03*
X140405000Y-106350000D03*
X138115000Y-106350000D03*
X135825000Y-106350000D03*
X133535000Y-106350000D03*
X131245000Y-106350000D03*
X128955000Y-106350000D03*
X160015000Y-108900000D03*
X157725000Y-108900000D03*
X155435000Y-108900000D03*
X153145000Y-108900000D03*
X150855000Y-108900000D03*
X148565000Y-108900000D03*
X146275000Y-108900000D03*
X143985000Y-108900000D03*
X141695000Y-108900000D03*
X139405000Y-108900000D03*
X137115000Y-108900000D03*
X134825000Y-108900000D03*
X132535000Y-108900000D03*
X130245000Y-108900000D03*
D10*
X116260000Y-81360000D03*
D11*
X121340000Y-81360000D03*
X126420000Y-81360000D03*
X131500000Y-81360000D03*
X136580000Y-81360000D03*
X141660000Y-81360000D03*
X146740000Y-81360000D03*
X151820000Y-81360000D03*
X156900000Y-81360000D03*
X161980000Y-81360000D03*
M02*
