G04 #@! TF.GenerationSoftware,KiCad,Pcbnew,9.0.4*
G04 #@! TF.CreationDate,2025-12-21T19:52:19-05:00*
G04 #@! TF.ProjectId,DB44_breakout,44423434-5f62-4726-9561-6b6f75742e6b,rev?*
G04 #@! TF.SameCoordinates,Original*
G04 #@! TF.FileFunction,Copper,L1,Top*
G04 #@! TF.FilePolarity,Positive*
%FSLAX46Y46*%
G04 Gerber Fmt 4.6, Leading zero omitted, Abs format (unit mm)*
G04 Created by KiCad (PCBNEW 9.0.4) date 2025-12-21 19:52:19*
%MOMM*%
%LPD*%
G01*
G04 APERTURE LIST*
G04 Aperture macros list*
%AMRoundRect*
0 Rectangle with rounded corners*
0 $1 Rounding radius*
0 $2 $3 $4 $5 $6 $7 $8 $9 X,Y pos of 4 corners*
0 Add a 4 corners polygon primitive as box body*
4,1,4,$2,$3,$4,$5,$6,$7,$8,$9,$2,$3,0*
0 Add four circle primitives for the rounded corners*
1,1,$1+$1,$2,$3*
1,1,$1+$1,$4,$5*
1,1,$1+$1,$6,$7*
1,1,$1+$1,$8,$9*
0 Add four rect primitives between the rounded corners*
20,1,$1+$1,$2,$3,$4,$5,0*
20,1,$1+$1,$4,$5,$6,$7,0*
20,1,$1+$1,$6,$7,$8,$9,0*
20,1,$1+$1,$8,$9,$2,$3,0*%
G04 Aperture macros list end*
G04 #@! TA.AperFunction,ComponentPad*
%ADD10RoundRect,0.250001X-0.799999X-0.799999X0.799999X-0.799999X0.799999X0.799999X-0.799999X0.799999X0*%
G04 #@! TD*
G04 #@! TA.AperFunction,ComponentPad*
%ADD11C,2.100000*%
G04 #@! TD*
G04 #@! TA.AperFunction,ComponentPad*
%ADD12RoundRect,0.250001X0.799999X-0.799999X0.799999X0.799999X-0.799999X0.799999X-0.799999X-0.799999X0*%
G04 #@! TD*
G04 #@! TA.AperFunction,ComponentPad*
%ADD13RoundRect,0.250001X-0.799999X0.799999X-0.799999X-0.799999X0.799999X-0.799999X0.799999X0.799999X0*%
G04 #@! TD*
G04 #@! TA.AperFunction,ComponentPad*
%ADD14C,4.000000*%
G04 #@! TD*
G04 #@! TA.AperFunction,ComponentPad*
%ADD15R,1.600000X1.600000*%
G04 #@! TD*
G04 #@! TA.AperFunction,ComponentPad*
%ADD16C,1.600000*%
G04 #@! TD*
G04 #@! TA.AperFunction,Conductor*
%ADD17C,0.200000*%
G04 #@! TD*
G04 APERTURE END LIST*
D10*
X116260000Y-60500000D03*
D11*
X121340000Y-60500000D03*
X126420000Y-60500000D03*
X131500000Y-60500000D03*
X136580000Y-60500000D03*
X141660000Y-60500000D03*
X146740000Y-60500000D03*
X151820000Y-60500000D03*
X156900000Y-60500000D03*
X161980000Y-60500000D03*
D10*
X97260000Y-105500000D03*
D11*
X102340000Y-105500000D03*
X107420000Y-105500000D03*
X112500000Y-105500000D03*
D12*
X100000000Y-96320000D03*
D11*
X100000000Y-91240000D03*
X100000000Y-86160000D03*
X100000000Y-81080000D03*
X100000000Y-76000000D03*
X100000000Y-70920000D03*
X100000000Y-65840000D03*
X100000000Y-60760000D03*
X100000000Y-55680000D03*
X100000000Y-50600000D03*
D13*
X172000000Y-53270000D03*
D11*
X172000000Y-58350000D03*
X172000000Y-63430000D03*
X172000000Y-68510000D03*
X172000000Y-73590000D03*
X172000000Y-78670000D03*
X172000000Y-83750000D03*
X172000000Y-88830000D03*
X172000000Y-93910000D03*
X172000000Y-98990000D03*
D14*
X120940000Y-106990000D03*
X168040000Y-106990000D03*
D15*
X160015000Y-103850000D03*
D16*
X157725000Y-103850000D03*
X155435000Y-103850000D03*
X153145000Y-103850000D03*
X150855000Y-103850000D03*
X148565000Y-103850000D03*
X146275000Y-103850000D03*
X143985000Y-103850000D03*
X141695000Y-103850000D03*
X139405000Y-103850000D03*
X137115000Y-103850000D03*
X134825000Y-103850000D03*
X132535000Y-103850000D03*
X130245000Y-103850000D03*
X127955000Y-103850000D03*
X161015000Y-106350000D03*
X158725000Y-106350000D03*
X156435000Y-106350000D03*
X154145000Y-106350000D03*
X151855000Y-106350000D03*
X149565000Y-106350000D03*
X147275000Y-106350000D03*
X144985000Y-106350000D03*
X142695000Y-106350000D03*
X140405000Y-106350000D03*
X138115000Y-106350000D03*
X135825000Y-106350000D03*
X133535000Y-106350000D03*
X131245000Y-106350000D03*
X128955000Y-106350000D03*
X160015000Y-108900000D03*
X157725000Y-108900000D03*
X155435000Y-108900000D03*
X153145000Y-108900000D03*
X150855000Y-108900000D03*
X148565000Y-108900000D03*
X146275000Y-108900000D03*
X143985000Y-108900000D03*
X141695000Y-108900000D03*
X139405000Y-108900000D03*
X137115000Y-108900000D03*
X134825000Y-108900000D03*
X132535000Y-108900000D03*
X130245000Y-108900000D03*
D10*
X116260000Y-81360000D03*
D11*
X121340000Y-81360000D03*
X126420000Y-81360000D03*
X131500000Y-81360000D03*
X136580000Y-81360000D03*
X141660000Y-81360000D03*
X146740000Y-81360000D03*
X151820000Y-81360000D03*
X156900000Y-81360000D03*
X161980000Y-81360000D03*
D17*
X141660000Y-60500000D02*
X141660000Y-78190603D01*
X141660000Y-78190603D02*
X150855000Y-87385603D01*
X150855000Y-87385603D02*
X150855000Y-103850000D01*
X131245000Y-106350000D02*
X130144000Y-105249000D01*
X123816100Y-105249000D02*
X109807100Y-91240000D01*
X130144000Y-105249000D02*
X123816100Y-105249000D01*
X109807100Y-91240000D02*
X100000000Y-91240000D01*
X151820000Y-60500000D02*
X155435000Y-64115000D01*
X155435000Y-64115000D02*
X155435000Y-103850000D01*
X121340000Y-79449397D02*
X126019000Y-84128397D01*
X126019000Y-87451900D02*
X141695000Y-103127900D01*
X121340000Y-60500000D02*
X121340000Y-79449397D01*
X126019000Y-84128397D02*
X126019000Y-87451900D01*
X141695000Y-103127900D02*
X141695000Y-103850000D01*
X116260000Y-60500000D02*
X117611000Y-61851000D01*
X117611000Y-61851000D02*
X117611000Y-82056000D01*
X117611000Y-82056000D02*
X139405000Y-103850000D01*
X131050064Y-100808014D02*
X124240914Y-100808014D01*
X135679950Y-106350000D02*
X133636000Y-104306050D01*
X135825000Y-106350000D02*
X135679950Y-106350000D01*
X124240914Y-100808014D02*
X104432900Y-81000000D01*
X133636000Y-103393950D02*
X131050064Y-100808014D01*
X134666950Y-105249000D02*
X133636000Y-104218050D01*
X133636000Y-104306050D02*
X133636000Y-103393950D01*
X104432900Y-81000000D02*
X101660000Y-81000000D01*
X135825000Y-106350000D02*
X134724000Y-105249000D01*
X134724000Y-105249000D02*
X134666950Y-105249000D01*
X101580000Y-81080000D02*
X100000000Y-81080000D01*
X101660000Y-81000000D02*
X101580000Y-81080000D01*
X132939064Y-100407014D02*
X135926000Y-103393950D01*
X135926000Y-103393950D02*
X135926000Y-104218050D01*
X138057950Y-106350000D02*
X138115000Y-106350000D01*
X124407014Y-100407014D02*
X132939064Y-100407014D01*
X100000000Y-76000000D02*
X124407014Y-100407014D01*
X135926000Y-104218050D02*
X138057950Y-106350000D01*
X161980000Y-60500000D02*
X160015000Y-62465000D01*
X160015000Y-62465000D02*
X160015000Y-103850000D01*
X140506000Y-104218050D02*
X140506000Y-102506000D01*
X142695000Y-106350000D02*
X142637950Y-106350000D01*
X121340000Y-83340000D02*
X121340000Y-81360000D01*
X142637950Y-106350000D02*
X140506000Y-104218050D01*
X140506000Y-102506000D02*
X121340000Y-83340000D01*
X158914000Y-102661000D02*
X157725000Y-103850000D01*
X156900000Y-60500000D02*
X158914000Y-62514000D01*
X158914000Y-62514000D02*
X158914000Y-102661000D01*
X146275000Y-92965603D02*
X146275000Y-103850000D01*
X131500000Y-60500000D02*
X131500000Y-78190603D01*
X131500000Y-78190603D02*
X146275000Y-92965603D01*
X146740000Y-60500000D02*
X148091000Y-61851000D01*
X148091000Y-61851000D02*
X148091000Y-82143900D01*
X148091000Y-82143900D02*
X153145000Y-87197900D01*
X153145000Y-87197900D02*
X153145000Y-103850000D01*
X124350000Y-106350000D02*
X128955000Y-106350000D01*
X100000000Y-96320000D02*
X114320000Y-96320000D01*
X114320000Y-96320000D02*
X124350000Y-106350000D01*
X160015000Y-108900000D02*
X161146370Y-108900000D01*
X163500000Y-106546370D02*
X163500000Y-61770000D01*
X161146370Y-108900000D02*
X163500000Y-106546370D01*
X163500000Y-61770000D02*
X172000000Y-53270000D01*
X164000000Y-66350000D02*
X172000000Y-58350000D01*
X157725000Y-108900000D02*
X158826000Y-110001000D01*
X158826000Y-110001000D02*
X160612470Y-110001000D01*
X164000000Y-106613470D02*
X164000000Y-66350000D01*
X160612470Y-110001000D02*
X164000000Y-106613470D01*
X136580000Y-60500000D02*
X136580000Y-78190603D01*
X136580000Y-78190603D02*
X148565000Y-90175603D01*
X148565000Y-90175603D02*
X148565000Y-103850000D01*
X138216000Y-103316000D02*
X116260000Y-81360000D01*
X140405000Y-106350000D02*
X140259950Y-106350000D01*
X138216000Y-104306050D02*
X138216000Y-103316000D01*
X140259950Y-106350000D02*
X138216000Y-104306050D01*
X131346000Y-103393950D02*
X129161064Y-101209014D01*
X131346000Y-104306050D02*
X131346000Y-103393950D01*
X105660000Y-86160000D02*
X100000000Y-86160000D01*
X129161064Y-101209014D02*
X120709014Y-101209014D01*
X133389950Y-106350000D02*
X131346000Y-104306050D01*
X133535000Y-106350000D02*
X133389950Y-106350000D01*
X120709014Y-101209014D02*
X105660000Y-86160000D01*
X155048000Y-110803000D02*
X160944670Y-110803000D01*
X165000000Y-106747670D02*
X165000000Y-75510000D01*
X160944670Y-110803000D02*
X165000000Y-106747670D01*
X165000000Y-75510000D02*
X172000000Y-68510000D01*
X153145000Y-108900000D02*
X155048000Y-110803000D01*
X153159000Y-111204000D02*
X150855000Y-108900000D01*
X161110770Y-111204000D02*
X153159000Y-111204000D01*
X172000000Y-73590000D02*
X165401000Y-80189000D01*
X165401000Y-80189000D02*
X165401000Y-106913770D01*
X165401000Y-106913770D02*
X161110770Y-111204000D01*
X156937000Y-110402000D02*
X160778570Y-110402000D01*
X164500000Y-70930000D02*
X172000000Y-63430000D01*
X164500000Y-106680570D02*
X164500000Y-70930000D01*
X160778570Y-110402000D02*
X164500000Y-106680570D01*
X155435000Y-108900000D02*
X156937000Y-110402000D01*
X126420000Y-81360000D02*
X126420000Y-84920000D01*
X142884000Y-104306050D02*
X142884000Y-102500000D01*
X142884000Y-101384000D02*
X142884000Y-102500000D01*
X144985000Y-106350000D02*
X144927950Y-106350000D01*
X144927950Y-106350000D02*
X142884000Y-104306050D01*
X126420000Y-84920000D02*
X142884000Y-101384000D01*
X143985000Y-95755603D02*
X143985000Y-103850000D01*
X126420000Y-60500000D02*
X126420000Y-78190603D01*
X126420000Y-78190603D02*
X143985000Y-95755603D01*
X102340000Y-105500000D02*
X109340000Y-112500000D01*
X109340000Y-112500000D02*
X131225000Y-112500000D01*
X131225000Y-112500000D02*
X134825000Y-108900000D01*
X136838313Y-108900000D02*
X137115000Y-108900000D01*
X132738313Y-113000000D02*
X136838313Y-108900000D01*
X97260000Y-105500000D02*
X104760000Y-113000000D01*
X104760000Y-113000000D02*
X132738313Y-113000000D01*
X147217950Y-106350000D02*
X145174000Y-104306050D01*
X147275000Y-106350000D02*
X147217950Y-106350000D01*
X145174000Y-95034000D02*
X131500000Y-81360000D01*
X145174000Y-104306050D02*
X145174000Y-95034000D01*
X154334000Y-104306050D02*
X154334000Y-83874000D01*
X154334000Y-83874000D02*
X151820000Y-81360000D01*
X156435000Y-106350000D02*
X156377950Y-106350000D01*
X156377950Y-106350000D02*
X154334000Y-104306050D01*
X161015000Y-106350000D02*
X161980000Y-105385000D01*
X161980000Y-105385000D02*
X161980000Y-81360000D01*
X156624000Y-81636000D02*
X156900000Y-81360000D01*
X158667950Y-106350000D02*
X156624000Y-104306050D01*
X158725000Y-106350000D02*
X158667950Y-106350000D01*
X156624000Y-104306050D02*
X156624000Y-81636000D01*
X152000000Y-86620000D02*
X146740000Y-81360000D01*
X154145000Y-106350000D02*
X154087950Y-106350000D01*
X154087950Y-106350000D02*
X152000000Y-104262050D01*
X152000000Y-104262050D02*
X152000000Y-86620000D01*
X151797950Y-106350000D02*
X149754000Y-104306050D01*
X149754000Y-89454000D02*
X141660000Y-81360000D01*
X151855000Y-106350000D02*
X151797950Y-106350000D01*
X149754000Y-104306050D02*
X149754000Y-89454000D01*
X149507950Y-106350000D02*
X147464000Y-104306050D01*
X147464000Y-92244000D02*
X136580000Y-81360000D01*
X149565000Y-106350000D02*
X149507950Y-106350000D01*
X147464000Y-104306050D02*
X147464000Y-92244000D01*
X132535000Y-108965000D02*
X132535000Y-108900000D01*
X130000000Y-111500000D02*
X132535000Y-108965000D01*
X113420000Y-111500000D02*
X130000000Y-111500000D01*
X107420000Y-105500000D02*
X113420000Y-111500000D01*
X128145000Y-111000000D02*
X130245000Y-108900000D01*
X118000000Y-111000000D02*
X128145000Y-111000000D01*
X112500000Y-105500000D02*
X118000000Y-111000000D01*
G04 #@! TA.AperFunction,Conductor*
G36*
X128928006Y-101829199D02*
G01*
X128948648Y-101845833D01*
X129626299Y-102523484D01*
X129659784Y-102584807D01*
X129654800Y-102654499D01*
X129612928Y-102710432D01*
X129594916Y-102721648D01*
X129563388Y-102737713D01*
X129397786Y-102858028D01*
X129253032Y-103002782D01*
X129253028Y-103002787D01*
X129200318Y-103075337D01*
X129144988Y-103118003D01*
X129075375Y-103123982D01*
X129013580Y-103091376D01*
X128999682Y-103075337D01*
X128946971Y-103002787D01*
X128946967Y-103002782D01*
X128802213Y-102858028D01*
X128636613Y-102737715D01*
X128636612Y-102737714D01*
X128636610Y-102737713D01*
X128558214Y-102697768D01*
X128454223Y-102644781D01*
X128259534Y-102581522D01*
X128084995Y-102553878D01*
X128057352Y-102549500D01*
X127852648Y-102549500D01*
X127828329Y-102553351D01*
X127650465Y-102581522D01*
X127455776Y-102644781D01*
X127273386Y-102737715D01*
X127107786Y-102858028D01*
X126963028Y-103002786D01*
X126842715Y-103168386D01*
X126749781Y-103350776D01*
X126686522Y-103545465D01*
X126654500Y-103747648D01*
X126654500Y-103952351D01*
X126686522Y-104154534D01*
X126749781Y-104349223D01*
X126790405Y-104428951D01*
X126810407Y-104468206D01*
X126823303Y-104536874D01*
X126797027Y-104601614D01*
X126739921Y-104641872D01*
X126699922Y-104648500D01*
X124116198Y-104648500D01*
X124049159Y-104628815D01*
X124028517Y-104612181D01*
X121437531Y-102021195D01*
X121404046Y-101959872D01*
X121409030Y-101890180D01*
X121450902Y-101834247D01*
X121516366Y-101809830D01*
X121525212Y-101809514D01*
X128860967Y-101809514D01*
X128928006Y-101829199D01*
G37*
G04 #@! TD.AperFunction*
G04 #@! TA.AperFunction,Conductor*
G36*
X160743814Y-82366778D02*
G01*
X160757147Y-82364862D01*
X160777290Y-82374061D01*
X160798927Y-82378768D01*
X160816652Y-82392036D01*
X160820703Y-82393887D01*
X160827181Y-82399919D01*
X160969918Y-82542656D01*
X160969923Y-82542660D01*
X161164898Y-82684316D01*
X161167361Y-82686106D01*
X161311795Y-82759697D01*
X161362590Y-82807671D01*
X161379500Y-82870182D01*
X161379500Y-102600046D01*
X161359815Y-102667085D01*
X161307011Y-102712840D01*
X161237853Y-102722784D01*
X161180519Y-102696600D01*
X161179645Y-102697768D01*
X161057335Y-102606206D01*
X161057328Y-102606202D01*
X160922482Y-102555908D01*
X160922483Y-102555908D01*
X160862883Y-102549501D01*
X160862881Y-102549500D01*
X160862873Y-102549500D01*
X160862865Y-102549500D01*
X160739500Y-102549500D01*
X160672461Y-102529815D01*
X160626706Y-102477011D01*
X160615500Y-102425500D01*
X160615500Y-82487600D01*
X160621738Y-82466354D01*
X160623318Y-82444266D01*
X160631390Y-82433482D01*
X160635185Y-82420561D01*
X160651918Y-82406061D01*
X160665190Y-82388333D01*
X160677810Y-82383625D01*
X160687989Y-82374806D01*
X160709906Y-82371654D01*
X160730654Y-82363916D01*
X160743814Y-82366778D01*
G37*
G04 #@! TD.AperFunction*
G04 #@! TA.AperFunction,Conductor*
G36*
X126824703Y-86174384D02*
G01*
X126831181Y-86180416D01*
X142247181Y-101596416D01*
X142280666Y-101657739D01*
X142283500Y-101684097D01*
X142283500Y-102503118D01*
X142263815Y-102570157D01*
X142211011Y-102615912D01*
X142141853Y-102625856D01*
X142121183Y-102621049D01*
X142025365Y-102589916D01*
X141976002Y-102559666D01*
X126655819Y-87239483D01*
X126622334Y-87178160D01*
X126619500Y-87151802D01*
X126619500Y-86268097D01*
X126639185Y-86201058D01*
X126691989Y-86155303D01*
X126761147Y-86145359D01*
X126824703Y-86174384D01*
G37*
G04 #@! TD.AperFunction*
G04 #@! TA.AperFunction,Conductor*
G36*
X158275918Y-82345058D02*
G01*
X158310277Y-82405896D01*
X158313500Y-82433985D01*
X158313500Y-102360902D01*
X158304855Y-102390342D01*
X158298332Y-102420329D01*
X158294577Y-102425344D01*
X158293815Y-102427941D01*
X158277181Y-102448583D01*
X158169842Y-102555922D01*
X158108519Y-102589407D01*
X158043843Y-102586172D01*
X158029534Y-102581523D01*
X158027539Y-102581207D01*
X157827352Y-102549500D01*
X157622648Y-102549500D01*
X157558463Y-102559666D01*
X157420464Y-102581523D01*
X157420457Y-102581524D01*
X157386817Y-102592455D01*
X157316976Y-102594450D01*
X157257144Y-102558369D01*
X157226316Y-102495668D01*
X157224500Y-102474524D01*
X157224500Y-82974946D01*
X157244185Y-82907907D01*
X157296989Y-82862152D01*
X157310177Y-82857016D01*
X157495185Y-82796904D01*
X157712639Y-82686106D01*
X157910083Y-82542655D01*
X158082655Y-82370083D01*
X158089180Y-82361101D01*
X158144509Y-82318435D01*
X158214122Y-82312454D01*
X158275918Y-82345058D01*
G37*
G04 #@! TD.AperFunction*
G04 #@! TA.AperFunction,Conductor*
G36*
X128044058Y-80676770D02*
G01*
X128083470Y-80703308D01*
X143348181Y-95968019D01*
X143381666Y-96029342D01*
X143384500Y-96055700D01*
X143384500Y-100735903D01*
X143364815Y-100802942D01*
X143312011Y-100848697D01*
X143242853Y-100858641D01*
X143179297Y-100829616D01*
X143172819Y-100823584D01*
X127056819Y-84707584D01*
X127023334Y-84646261D01*
X127020500Y-84619903D01*
X127020500Y-82870182D01*
X127040185Y-82803143D01*
X127088204Y-82759698D01*
X127232639Y-82686106D01*
X127430083Y-82542655D01*
X127602655Y-82370083D01*
X127746106Y-82172639D01*
X127856904Y-81955185D01*
X127932321Y-81723076D01*
X127970500Y-81482027D01*
X127970500Y-81237973D01*
X127932321Y-80996924D01*
X127877857Y-80829304D01*
X127875863Y-80759466D01*
X127911943Y-80699633D01*
X127974644Y-80668805D01*
X128044058Y-80676770D01*
G37*
G04 #@! TD.AperFunction*
G04 #@! TA.AperFunction,Conductor*
G36*
X133124058Y-80676770D02*
G01*
X133163470Y-80703308D01*
X145638181Y-93178019D01*
X145671666Y-93239342D01*
X145674500Y-93265700D01*
X145674500Y-94385903D01*
X145654815Y-94452942D01*
X145602011Y-94498697D01*
X145532853Y-94508641D01*
X145469297Y-94479616D01*
X145462819Y-94473584D01*
X132992478Y-82003243D01*
X132958993Y-81941920D01*
X132962228Y-81877244D01*
X133012321Y-81723076D01*
X133050500Y-81482027D01*
X133050500Y-81237973D01*
X133012321Y-80996924D01*
X132957857Y-80829304D01*
X132955863Y-80759466D01*
X132991943Y-80699633D01*
X133054644Y-80668805D01*
X133124058Y-80676770D01*
G37*
G04 #@! TD.AperFunction*
G04 #@! TA.AperFunction,Conductor*
G36*
X138204058Y-80676770D02*
G01*
X138243470Y-80703308D01*
X147928181Y-90388019D01*
X147961666Y-90449342D01*
X147964500Y-90475700D01*
X147964500Y-91595903D01*
X147944815Y-91662942D01*
X147892011Y-91708697D01*
X147822853Y-91718641D01*
X147759297Y-91689616D01*
X147752819Y-91683584D01*
X138072478Y-82003243D01*
X138038993Y-81941920D01*
X138042228Y-81877244D01*
X138092321Y-81723076D01*
X138130500Y-81482027D01*
X138130500Y-81237973D01*
X138092321Y-80996924D01*
X138037857Y-80829304D01*
X138035863Y-80759466D01*
X138071943Y-80699633D01*
X138134644Y-80668805D01*
X138204058Y-80676770D01*
G37*
G04 #@! TD.AperFunction*
G04 #@! TA.AperFunction,Conductor*
G36*
X143284058Y-80676770D02*
G01*
X143323470Y-80703308D01*
X150218181Y-87598019D01*
X150251666Y-87659342D01*
X150254500Y-87685700D01*
X150254500Y-88805902D01*
X150234815Y-88872941D01*
X150182011Y-88918696D01*
X150112853Y-88928640D01*
X150049297Y-88899615D01*
X150042819Y-88893583D01*
X143152478Y-82003243D01*
X143118993Y-81941920D01*
X143122228Y-81877244D01*
X143172321Y-81723076D01*
X143210500Y-81482027D01*
X143210500Y-81237973D01*
X143172321Y-80996924D01*
X143117857Y-80829304D01*
X143115863Y-80759466D01*
X143151943Y-80699633D01*
X143214644Y-80668805D01*
X143284058Y-80676770D01*
G37*
G04 #@! TD.AperFunction*
G04 #@! TA.AperFunction,Conductor*
G36*
X162852615Y-61876902D02*
G01*
X162892872Y-61934009D01*
X162899500Y-61974007D01*
X162899500Y-79885992D01*
X162879815Y-79953031D01*
X162827011Y-79998786D01*
X162757853Y-80008730D01*
X162719206Y-79996477D01*
X162575190Y-79923098D01*
X162575187Y-79923097D01*
X162575185Y-79923096D01*
X162343076Y-79847679D01*
X162343074Y-79847678D01*
X162343072Y-79847678D01*
X162168320Y-79820000D01*
X162102027Y-79809500D01*
X161857973Y-79809500D01*
X161802093Y-79818350D01*
X161616927Y-79847678D01*
X161384812Y-79923097D01*
X161167357Y-80033896D01*
X160969923Y-80177339D01*
X160969918Y-80177343D01*
X160827181Y-80320081D01*
X160765858Y-80353566D01*
X160696166Y-80348582D01*
X160640233Y-80306710D01*
X160615816Y-80241246D01*
X160615500Y-80232400D01*
X160615500Y-62765097D01*
X160635185Y-62698058D01*
X160651819Y-62677416D01*
X160909318Y-62419917D01*
X161336758Y-61992476D01*
X161398079Y-61958993D01*
X161462754Y-61962227D01*
X161616924Y-62012321D01*
X161857973Y-62050500D01*
X161857974Y-62050500D01*
X162102026Y-62050500D01*
X162102027Y-62050500D01*
X162343076Y-62012321D01*
X162575185Y-61936904D01*
X162719206Y-61863521D01*
X162787874Y-61850626D01*
X162852615Y-61876902D01*
G37*
G04 #@! TD.AperFunction*
G04 #@! TA.AperFunction,Conductor*
G36*
X180542539Y-45670185D02*
G01*
X180588294Y-45722989D01*
X180599500Y-45774500D01*
X180599500Y-114475500D01*
X180579815Y-114542539D01*
X180527011Y-114588294D01*
X180475500Y-114599500D01*
X92524500Y-114599500D01*
X92457461Y-114579815D01*
X92411706Y-114527011D01*
X92400500Y-114475500D01*
X92400500Y-104649984D01*
X95709500Y-104649984D01*
X95709500Y-106350015D01*
X95720000Y-106452795D01*
X95720001Y-106452797D01*
X95738983Y-106510081D01*
X95775186Y-106619335D01*
X95775187Y-106619337D01*
X95867286Y-106768651D01*
X95867289Y-106768655D01*
X95991344Y-106892710D01*
X95991348Y-106892713D01*
X96140662Y-106984812D01*
X96140664Y-106984813D01*
X96140666Y-106984814D01*
X96307203Y-107039999D01*
X96409992Y-107050500D01*
X97909903Y-107050500D01*
X97976942Y-107070185D01*
X97997583Y-107086818D01*
X104391284Y-113480520D01*
X104391286Y-113480521D01*
X104391290Y-113480524D01*
X104528209Y-113559573D01*
X104528216Y-113559577D01*
X104680943Y-113600501D01*
X104680945Y-113600501D01*
X104846654Y-113600501D01*
X104846670Y-113600500D01*
X132651644Y-113600500D01*
X132651660Y-113600501D01*
X132659256Y-113600501D01*
X132817367Y-113600501D01*
X132817370Y-113600501D01*
X132970098Y-113559577D01*
X133020217Y-113530639D01*
X133107029Y-113480520D01*
X133218833Y-113368716D01*
X133218833Y-113368714D01*
X133229041Y-113358507D01*
X133229042Y-113358504D01*
X136463671Y-110123876D01*
X136524992Y-110090393D01*
X136594684Y-110095377D01*
X136607649Y-110101077D01*
X136615772Y-110105216D01*
X136615775Y-110105217D01*
X136615781Y-110105220D01*
X136765300Y-110153801D01*
X136810465Y-110168477D01*
X136890365Y-110181132D01*
X137012648Y-110200500D01*
X137012649Y-110200500D01*
X137217351Y-110200500D01*
X137217352Y-110200500D01*
X137419534Y-110168477D01*
X137614219Y-110105220D01*
X137796610Y-110012287D01*
X137889590Y-109944732D01*
X137962213Y-109891971D01*
X137962215Y-109891968D01*
X137962219Y-109891966D01*
X138106966Y-109747219D01*
X138159681Y-109674661D01*
X138215011Y-109631996D01*
X138284624Y-109626017D01*
X138346420Y-109658622D01*
X138360319Y-109674662D01*
X138413034Y-109747219D01*
X138557786Y-109891971D01*
X138712749Y-110004556D01*
X138723390Y-110012287D01*
X138839607Y-110071503D01*
X138905776Y-110105218D01*
X138905778Y-110105218D01*
X138905781Y-110105220D01*
X139010137Y-110139127D01*
X139100465Y-110168477D01*
X139180365Y-110181132D01*
X139302648Y-110200500D01*
X139302649Y-110200500D01*
X139507351Y-110200500D01*
X139507352Y-110200500D01*
X139709534Y-110168477D01*
X139904219Y-110105220D01*
X140086610Y-110012287D01*
X140179590Y-109944732D01*
X140252213Y-109891971D01*
X140252215Y-109891968D01*
X140252219Y-109891966D01*
X140396966Y-109747219D01*
X140449681Y-109674661D01*
X140505011Y-109631996D01*
X140574624Y-109626017D01*
X140636420Y-109658622D01*
X140650319Y-109674662D01*
X140703034Y-109747219D01*
X140847786Y-109891971D01*
X141002749Y-110004556D01*
X141013390Y-110012287D01*
X141129607Y-110071503D01*
X141195776Y-110105218D01*
X141195778Y-110105218D01*
X141195781Y-110105220D01*
X141300137Y-110139127D01*
X141390465Y-110168477D01*
X141470365Y-110181132D01*
X141592648Y-110200500D01*
X141592649Y-110200500D01*
X141797351Y-110200500D01*
X141797352Y-110200500D01*
X141999534Y-110168477D01*
X142194219Y-110105220D01*
X142376610Y-110012287D01*
X142469590Y-109944732D01*
X142542213Y-109891971D01*
X142542215Y-109891968D01*
X142542219Y-109891966D01*
X142686966Y-109747219D01*
X142739681Y-109674661D01*
X142795011Y-109631996D01*
X142864624Y-109626017D01*
X142926420Y-109658622D01*
X142940319Y-109674662D01*
X142993034Y-109747219D01*
X143137786Y-109891971D01*
X143292749Y-110004556D01*
X143303390Y-110012287D01*
X143419607Y-110071503D01*
X143485776Y-110105218D01*
X143485778Y-110105218D01*
X143485781Y-110105220D01*
X143590137Y-110139127D01*
X143680465Y-110168477D01*
X143760365Y-110181132D01*
X143882648Y-110200500D01*
X143882649Y-110200500D01*
X144087351Y-110200500D01*
X144087352Y-110200500D01*
X144289534Y-110168477D01*
X144484219Y-110105220D01*
X144666610Y-110012287D01*
X144759590Y-109944732D01*
X144832213Y-109891971D01*
X144832215Y-109891968D01*
X144832219Y-109891966D01*
X144976966Y-109747219D01*
X145029681Y-109674661D01*
X145085011Y-109631996D01*
X145154624Y-109626017D01*
X145216420Y-109658622D01*
X145230319Y-109674662D01*
X145283034Y-109747219D01*
X145427786Y-109891971D01*
X145582749Y-110004556D01*
X145593390Y-110012287D01*
X145709607Y-110071503D01*
X145775776Y-110105218D01*
X145775778Y-110105218D01*
X145775781Y-110105220D01*
X145880137Y-110139127D01*
X145970465Y-110168477D01*
X146050365Y-110181132D01*
X146172648Y-110200500D01*
X146172649Y-110200500D01*
X146377351Y-110200500D01*
X146377352Y-110200500D01*
X146579534Y-110168477D01*
X146774219Y-110105220D01*
X146956610Y-110012287D01*
X147049590Y-109944732D01*
X147122213Y-109891971D01*
X147122215Y-109891968D01*
X147122219Y-109891966D01*
X147266966Y-109747219D01*
X147319681Y-109674661D01*
X147375011Y-109631996D01*
X147444624Y-109626017D01*
X147506420Y-109658622D01*
X147520319Y-109674662D01*
X147573034Y-109747219D01*
X147717786Y-109891971D01*
X147872749Y-110004556D01*
X147883390Y-110012287D01*
X147999607Y-110071503D01*
X148065776Y-110105218D01*
X148065778Y-110105218D01*
X148065781Y-110105220D01*
X148170137Y-110139127D01*
X148260465Y-110168477D01*
X148340365Y-110181132D01*
X148462648Y-110200500D01*
X148462649Y-110200500D01*
X148667351Y-110200500D01*
X148667352Y-110200500D01*
X148869534Y-110168477D01*
X149064219Y-110105220D01*
X149246610Y-110012287D01*
X149339590Y-109944732D01*
X149412213Y-109891971D01*
X149412215Y-109891968D01*
X149412219Y-109891966D01*
X149556966Y-109747219D01*
X149609681Y-109674661D01*
X149665011Y-109631996D01*
X149734624Y-109626017D01*
X149796420Y-109658622D01*
X149810319Y-109674662D01*
X149863034Y-109747219D01*
X150007786Y-109891971D01*
X150162749Y-110004556D01*
X150173390Y-110012287D01*
X150289607Y-110071503D01*
X150355776Y-110105218D01*
X150355778Y-110105218D01*
X150355781Y-110105220D01*
X150460137Y-110139127D01*
X150550465Y-110168477D01*
X150630365Y-110181132D01*
X150752648Y-110200500D01*
X150752649Y-110200500D01*
X150957351Y-110200500D01*
X150957352Y-110200500D01*
X151159534Y-110168477D01*
X151173842Y-110163827D01*
X151243682Y-110161831D01*
X151299842Y-110194077D01*
X152674139Y-111568374D01*
X152674149Y-111568385D01*
X152678479Y-111572715D01*
X152678480Y-111572716D01*
X152790284Y-111684520D01*
X152872150Y-111731785D01*
X152927215Y-111763577D01*
X153079943Y-111804501D01*
X153079946Y-111804501D01*
X153245653Y-111804501D01*
X153245669Y-111804500D01*
X161024101Y-111804500D01*
X161024117Y-111804501D01*
X161031713Y-111804501D01*
X161189824Y-111804501D01*
X161189827Y-111804501D01*
X161342555Y-111763577D01*
X161397620Y-111731785D01*
X161479486Y-111684520D01*
X161591290Y-111572716D01*
X161591290Y-111572714D01*
X161601494Y-111562511D01*
X161601498Y-111562506D01*
X165454696Y-107709307D01*
X165516015Y-107675825D01*
X165585707Y-107680809D01*
X165641640Y-107722681D01*
X165659414Y-107756036D01*
X165726658Y-107948208D01*
X165726661Y-107948215D01*
X165848492Y-108201200D01*
X165997884Y-108438956D01*
X166104187Y-108572257D01*
X166745747Y-107930697D01*
X166819588Y-108032330D01*
X166997670Y-108210412D01*
X167099300Y-108284251D01*
X166457741Y-108925810D01*
X166457741Y-108925811D01*
X166591043Y-109032115D01*
X166828799Y-109181507D01*
X167081782Y-109303337D01*
X167346819Y-109396077D01*
X167346821Y-109396078D01*
X167620575Y-109458560D01*
X167620587Y-109458562D01*
X167899598Y-109489999D01*
X167899600Y-109490000D01*
X168180400Y-109490000D01*
X168180401Y-109489999D01*
X168459412Y-109458562D01*
X168459424Y-109458560D01*
X168733178Y-109396078D01*
X168733180Y-109396077D01*
X168998217Y-109303337D01*
X169251200Y-109181507D01*
X169488956Y-109032116D01*
X169622257Y-108925810D01*
X168980698Y-108284251D01*
X169082330Y-108210412D01*
X169260412Y-108032330D01*
X169334251Y-107930698D01*
X169975810Y-108572257D01*
X170082116Y-108438956D01*
X170231507Y-108201200D01*
X170353337Y-107948217D01*
X170446077Y-107683180D01*
X170446078Y-107683178D01*
X170508560Y-107409424D01*
X170508562Y-107409412D01*
X170539999Y-107130401D01*
X170540000Y-107130399D01*
X170540000Y-106849600D01*
X170539999Y-106849598D01*
X170508562Y-106570587D01*
X170508560Y-106570575D01*
X170446078Y-106296821D01*
X170446077Y-106296819D01*
X170353337Y-106031782D01*
X170231507Y-105778799D01*
X170082115Y-105541043D01*
X169975810Y-105407741D01*
X169334251Y-106049300D01*
X169260412Y-105947670D01*
X169082330Y-105769588D01*
X168980697Y-105695747D01*
X169622257Y-105054187D01*
X169488956Y-104947884D01*
X169251200Y-104798492D01*
X168998217Y-104676662D01*
X168733180Y-104583922D01*
X168733178Y-104583921D01*
X168459424Y-104521439D01*
X168459412Y-104521437D01*
X168180401Y-104490000D01*
X167899598Y-104490000D01*
X167620587Y-104521437D01*
X167620575Y-104521439D01*
X167346821Y-104583921D01*
X167346819Y-104583922D01*
X167081782Y-104676662D01*
X166828799Y-104798492D01*
X166591043Y-104947884D01*
X166457741Y-105054187D01*
X167099301Y-105695747D01*
X166997670Y-105769588D01*
X166819588Y-105947670D01*
X166745747Y-106049301D01*
X166096220Y-105399774D01*
X166086869Y-105395504D01*
X166064412Y-105390257D01*
X166055692Y-105381266D01*
X166044297Y-105376062D01*
X166031826Y-105356657D01*
X166015770Y-105340101D01*
X166012386Y-105326407D01*
X166006523Y-105317284D01*
X166001500Y-105282349D01*
X166001500Y-98867973D01*
X170449500Y-98867973D01*
X170449500Y-99112027D01*
X170487679Y-99353076D01*
X170563096Y-99585185D01*
X170665838Y-99786829D01*
X170673896Y-99802642D01*
X170817339Y-100000076D01*
X170817343Y-100000081D01*
X170989918Y-100172656D01*
X170989923Y-100172660D01*
X171162136Y-100297779D01*
X171187361Y-100316106D01*
X171404815Y-100426904D01*
X171636924Y-100502321D01*
X171877973Y-100540500D01*
X171877974Y-100540500D01*
X172122026Y-100540500D01*
X172122027Y-100540500D01*
X172363076Y-100502321D01*
X172595185Y-100426904D01*
X172812639Y-100316106D01*
X173010083Y-100172655D01*
X173182655Y-100000083D01*
X173326106Y-99802639D01*
X173436904Y-99585185D01*
X173512321Y-99353076D01*
X173550500Y-99112027D01*
X173550500Y-98867973D01*
X173512321Y-98626924D01*
X173436904Y-98394815D01*
X173326106Y-98177361D01*
X173307779Y-98152136D01*
X173182660Y-97979923D01*
X173182656Y-97979918D01*
X173010081Y-97807343D01*
X173010076Y-97807339D01*
X172812642Y-97663896D01*
X172812641Y-97663895D01*
X172812639Y-97663894D01*
X172595185Y-97553096D01*
X172363076Y-97477679D01*
X172363074Y-97477678D01*
X172363072Y-97477678D01*
X172194769Y-97451021D01*
X172122027Y-97439500D01*
X171877973Y-97439500D01*
X171822093Y-97448350D01*
X171636927Y-97477678D01*
X171404812Y-97553097D01*
X171187357Y-97663896D01*
X170989923Y-97807339D01*
X170989918Y-97807343D01*
X170817343Y-97979918D01*
X170817339Y-97979923D01*
X170673896Y-98177357D01*
X170563097Y-98394812D01*
X170487678Y-98626927D01*
X170449500Y-98867973D01*
X166001500Y-98867973D01*
X166001500Y-93787973D01*
X170449500Y-93787973D01*
X170449500Y-94032027D01*
X170487679Y-94273076D01*
X170563096Y-94505185D01*
X170644670Y-94665284D01*
X170673896Y-94722642D01*
X170817339Y-94920076D01*
X170817343Y-94920081D01*
X170989918Y-95092656D01*
X170989923Y-95092660D01*
X171138576Y-95200662D01*
X171187361Y-95236106D01*
X171404815Y-95346904D01*
X171636924Y-95422321D01*
X171877973Y-95460500D01*
X171877974Y-95460500D01*
X172122026Y-95460500D01*
X172122027Y-95460500D01*
X172363076Y-95422321D01*
X172595185Y-95346904D01*
X172812639Y-95236106D01*
X173010083Y-95092655D01*
X173182655Y-94920083D01*
X173326106Y-94722639D01*
X173436904Y-94505185D01*
X173512321Y-94273076D01*
X173550500Y-94032027D01*
X173550500Y-93787973D01*
X173512321Y-93546924D01*
X173436904Y-93314815D01*
X173326106Y-93097361D01*
X173307779Y-93072136D01*
X173182660Y-92899923D01*
X173182656Y-92899918D01*
X173010081Y-92727343D01*
X173010076Y-92727339D01*
X172812642Y-92583896D01*
X172812641Y-92583895D01*
X172812639Y-92583894D01*
X172595185Y-92473096D01*
X172363076Y-92397679D01*
X172363074Y-92397678D01*
X172363072Y-92397678D01*
X172194769Y-92371021D01*
X172122027Y-92359500D01*
X171877973Y-92359500D01*
X171822093Y-92368350D01*
X171636927Y-92397678D01*
X171404812Y-92473097D01*
X171187357Y-92583896D01*
X170989923Y-92727339D01*
X170989918Y-92727343D01*
X170817343Y-92899918D01*
X170817339Y-92899923D01*
X170673896Y-93097357D01*
X170563097Y-93314812D01*
X170487678Y-93546927D01*
X170449500Y-93787973D01*
X166001500Y-93787973D01*
X166001500Y-88707973D01*
X170449500Y-88707973D01*
X170449500Y-88952026D01*
X170487678Y-89193072D01*
X170563097Y-89425187D01*
X170673896Y-89642642D01*
X170817339Y-89840076D01*
X170817343Y-89840081D01*
X170989918Y-90012656D01*
X170989923Y-90012660D01*
X171162136Y-90137779D01*
X171187361Y-90156106D01*
X171404815Y-90266904D01*
X171636924Y-90342321D01*
X171877973Y-90380500D01*
X171877974Y-90380500D01*
X172122026Y-90380500D01*
X172122027Y-90380500D01*
X172363076Y-90342321D01*
X172595185Y-90266904D01*
X172812639Y-90156106D01*
X173010083Y-90012655D01*
X173182655Y-89840083D01*
X173326106Y-89642639D01*
X173436904Y-89425185D01*
X173512321Y-89193076D01*
X173550500Y-88952027D01*
X173550500Y-88707973D01*
X173512321Y-88466924D01*
X173436904Y-88234815D01*
X173326106Y-88017361D01*
X173307779Y-87992136D01*
X173182660Y-87819923D01*
X173182656Y-87819918D01*
X173010081Y-87647343D01*
X173010076Y-87647339D01*
X172812642Y-87503896D01*
X172812641Y-87503895D01*
X172812639Y-87503894D01*
X172595185Y-87393096D01*
X172363076Y-87317679D01*
X172363074Y-87317678D01*
X172363072Y-87317678D01*
X172194769Y-87291021D01*
X172122027Y-87279500D01*
X171877973Y-87279500D01*
X171822093Y-87288350D01*
X171636927Y-87317678D01*
X171404812Y-87393097D01*
X171187357Y-87503896D01*
X170989923Y-87647339D01*
X170989918Y-87647343D01*
X170817343Y-87819918D01*
X170817339Y-87819923D01*
X170673896Y-88017357D01*
X170563097Y-88234812D01*
X170487678Y-88466927D01*
X170449500Y-88707973D01*
X166001500Y-88707973D01*
X166001500Y-83627973D01*
X170449500Y-83627973D01*
X170449500Y-83872027D01*
X170487679Y-84113076D01*
X170561675Y-84340813D01*
X170563097Y-84345187D01*
X170673896Y-84562642D01*
X170817339Y-84760076D01*
X170817343Y-84760081D01*
X170989918Y-84932656D01*
X170989923Y-84932660D01*
X171162136Y-85057779D01*
X171187361Y-85076106D01*
X171404815Y-85186904D01*
X171636924Y-85262321D01*
X171877973Y-85300500D01*
X171877974Y-85300500D01*
X172122026Y-85300500D01*
X172122027Y-85300500D01*
X172363076Y-85262321D01*
X172595185Y-85186904D01*
X172812639Y-85076106D01*
X173010083Y-84932655D01*
X173182655Y-84760083D01*
X173326106Y-84562639D01*
X173436904Y-84345185D01*
X173512321Y-84113076D01*
X173550500Y-83872027D01*
X173550500Y-83627973D01*
X173512321Y-83386924D01*
X173436904Y-83154815D01*
X173326106Y-82937361D01*
X173306590Y-82910499D01*
X173182660Y-82739923D01*
X173182656Y-82739918D01*
X173010081Y-82567343D01*
X173010076Y-82567339D01*
X172812642Y-82423896D01*
X172812641Y-82423895D01*
X172812639Y-82423894D01*
X172595185Y-82313096D01*
X172363076Y-82237679D01*
X172363074Y-82237678D01*
X172363072Y-82237678D01*
X172188371Y-82210008D01*
X172122027Y-82199500D01*
X171877973Y-82199500D01*
X171822093Y-82208350D01*
X171636927Y-82237678D01*
X171404812Y-82313097D01*
X171187357Y-82423896D01*
X170989923Y-82567339D01*
X170989918Y-82567343D01*
X170817343Y-82739918D01*
X170817339Y-82739923D01*
X170673896Y-82937357D01*
X170563097Y-83154812D01*
X170487678Y-83386927D01*
X170468932Y-83505284D01*
X170449500Y-83627973D01*
X166001500Y-83627973D01*
X166001500Y-80489096D01*
X166021185Y-80422057D01*
X166037814Y-80401420D01*
X167891261Y-78547973D01*
X170449500Y-78547973D01*
X170449500Y-78792026D01*
X170487678Y-79033072D01*
X170563097Y-79265187D01*
X170673896Y-79482642D01*
X170817339Y-79680076D01*
X170817343Y-79680081D01*
X170989918Y-79852656D01*
X170989923Y-79852660D01*
X171147698Y-79967289D01*
X171187361Y-79996106D01*
X171404815Y-80106904D01*
X171636924Y-80182321D01*
X171877973Y-80220500D01*
X171877974Y-80220500D01*
X172122026Y-80220500D01*
X172122027Y-80220500D01*
X172363076Y-80182321D01*
X172595185Y-80106904D01*
X172812639Y-79996106D01*
X173010083Y-79852655D01*
X173182655Y-79680083D01*
X173326106Y-79482639D01*
X173436904Y-79265185D01*
X173512321Y-79033076D01*
X173550500Y-78792027D01*
X173550500Y-78547973D01*
X173512321Y-78306924D01*
X173436904Y-78074815D01*
X173326106Y-77857361D01*
X173307779Y-77832136D01*
X173182660Y-77659923D01*
X173182656Y-77659918D01*
X173010081Y-77487343D01*
X173010076Y-77487339D01*
X172812642Y-77343896D01*
X172812641Y-77343895D01*
X172812639Y-77343894D01*
X172595185Y-77233096D01*
X172363076Y-77157679D01*
X172363074Y-77157678D01*
X172363072Y-77157678D01*
X172194769Y-77131021D01*
X172122027Y-77119500D01*
X171877973Y-77119500D01*
X171822093Y-77128350D01*
X171636927Y-77157678D01*
X171404812Y-77233097D01*
X171187357Y-77343896D01*
X170989923Y-77487339D01*
X170989918Y-77487343D01*
X170817343Y-77659918D01*
X170817339Y-77659923D01*
X170673896Y-77857357D01*
X170563097Y-78074812D01*
X170487678Y-78306927D01*
X170449500Y-78547973D01*
X167891261Y-78547973D01*
X171356757Y-75082476D01*
X171418078Y-75048993D01*
X171482753Y-75052227D01*
X171636924Y-75102321D01*
X171877973Y-75140500D01*
X171877974Y-75140500D01*
X172122026Y-75140500D01*
X172122027Y-75140500D01*
X172363076Y-75102321D01*
X172595185Y-75026904D01*
X172812639Y-74916106D01*
X173010083Y-74772655D01*
X173182655Y-74600083D01*
X173326106Y-74402639D01*
X173436904Y-74185185D01*
X173512321Y-73953076D01*
X173550500Y-73712027D01*
X173550500Y-73467973D01*
X173512321Y-73226924D01*
X173436904Y-72994815D01*
X173326106Y-72777361D01*
X173307779Y-72752136D01*
X173182660Y-72579923D01*
X173182656Y-72579918D01*
X173010081Y-72407343D01*
X173010076Y-72407339D01*
X172812642Y-72263896D01*
X172812641Y-72263895D01*
X172812639Y-72263894D01*
X172595185Y-72153096D01*
X172363076Y-72077679D01*
X172363074Y-72077678D01*
X172363072Y-72077678D01*
X172194769Y-72051021D01*
X172122027Y-72039500D01*
X171877973Y-72039500D01*
X171822093Y-72048350D01*
X171636927Y-72077678D01*
X171404812Y-72153097D01*
X171187357Y-72263896D01*
X170989923Y-72407339D01*
X170989918Y-72407343D01*
X170817343Y-72579918D01*
X170817339Y-72579923D01*
X170673896Y-72777357D01*
X170563097Y-72994812D01*
X170487678Y-73226927D01*
X170449500Y-73467973D01*
X170449500Y-73712026D01*
X170487679Y-73953077D01*
X170537770Y-74107244D01*
X170539765Y-74177086D01*
X170507520Y-74233243D01*
X165812181Y-78928583D01*
X165750858Y-78962068D01*
X165681166Y-78957084D01*
X165625233Y-78915212D01*
X165600816Y-78849748D01*
X165600500Y-78840902D01*
X165600500Y-75810096D01*
X165620185Y-75743057D01*
X165636814Y-75722420D01*
X171356757Y-70002476D01*
X171418078Y-69968993D01*
X171482753Y-69972227D01*
X171636924Y-70022321D01*
X171877973Y-70060500D01*
X171877974Y-70060500D01*
X172122026Y-70060500D01*
X172122027Y-70060500D01*
X172363076Y-70022321D01*
X172595185Y-69946904D01*
X172812639Y-69836106D01*
X173010083Y-69692655D01*
X173182655Y-69520083D01*
X173326106Y-69322639D01*
X173436904Y-69105185D01*
X173512321Y-68873076D01*
X173550500Y-68632027D01*
X173550500Y-68387973D01*
X173512321Y-68146924D01*
X173436904Y-67914815D01*
X173326106Y-67697361D01*
X173307779Y-67672136D01*
X173182660Y-67499923D01*
X173182656Y-67499918D01*
X173010081Y-67327343D01*
X173010076Y-67327339D01*
X172812642Y-67183896D01*
X172812641Y-67183895D01*
X172812639Y-67183894D01*
X172595185Y-67073096D01*
X172363076Y-66997679D01*
X172363074Y-66997678D01*
X172363072Y-66997678D01*
X172194769Y-66971021D01*
X172122027Y-66959500D01*
X171877973Y-66959500D01*
X171822093Y-66968350D01*
X171636927Y-66997678D01*
X171404812Y-67073097D01*
X171187357Y-67183896D01*
X170989923Y-67327339D01*
X170989918Y-67327343D01*
X170817343Y-67499918D01*
X170817339Y-67499923D01*
X170673896Y-67697357D01*
X170563097Y-67914812D01*
X170487678Y-68146927D01*
X170449500Y-68387973D01*
X170449500Y-68632026D01*
X170487679Y-68873077D01*
X170537770Y-69027244D01*
X170539765Y-69097086D01*
X170507520Y-69153243D01*
X165312181Y-74348583D01*
X165250858Y-74382068D01*
X165181166Y-74377084D01*
X165125233Y-74335212D01*
X165100816Y-74269748D01*
X165100500Y-74260902D01*
X165100500Y-71230097D01*
X165120185Y-71163058D01*
X165136819Y-71142416D01*
X168132311Y-68146924D01*
X171356758Y-64922476D01*
X171418079Y-64888993D01*
X171482754Y-64892227D01*
X171636924Y-64942321D01*
X171877973Y-64980500D01*
X171877974Y-64980500D01*
X172122026Y-64980500D01*
X172122027Y-64980500D01*
X172363076Y-64942321D01*
X172595185Y-64866904D01*
X172812639Y-64756106D01*
X173010083Y-64612655D01*
X173182655Y-64440083D01*
X173326106Y-64242639D01*
X173436904Y-64025185D01*
X173512321Y-63793076D01*
X173550500Y-63552027D01*
X173550500Y-63307973D01*
X173512321Y-63066924D01*
X173436904Y-62834815D01*
X173326106Y-62617361D01*
X173307779Y-62592136D01*
X173182660Y-62419923D01*
X173182656Y-62419918D01*
X173010081Y-62247343D01*
X173010076Y-62247339D01*
X172812642Y-62103896D01*
X172812641Y-62103895D01*
X172812639Y-62103894D01*
X172595185Y-61993096D01*
X172363076Y-61917679D01*
X172363074Y-61917678D01*
X172363072Y-61917678D01*
X172194769Y-61891021D01*
X172122027Y-61879500D01*
X171877973Y-61879500D01*
X171822093Y-61888350D01*
X171636927Y-61917678D01*
X171636924Y-61917679D01*
X171430311Y-61984812D01*
X171404812Y-61993097D01*
X171187357Y-62103896D01*
X170989923Y-62247339D01*
X170989918Y-62247343D01*
X170817343Y-62419918D01*
X170817339Y-62419923D01*
X170673896Y-62617357D01*
X170563097Y-62834812D01*
X170487678Y-63066927D01*
X170449500Y-63307973D01*
X170449500Y-63552027D01*
X170468589Y-63672551D01*
X170487679Y-63793077D01*
X170537770Y-63947243D01*
X170539765Y-64017084D01*
X170507520Y-64073242D01*
X164812181Y-69768582D01*
X164750858Y-69802067D01*
X164681166Y-69797083D01*
X164625233Y-69755211D01*
X164600816Y-69689747D01*
X164600500Y-69680901D01*
X164600500Y-66650096D01*
X164620185Y-66583057D01*
X164636814Y-66562420D01*
X171356757Y-59842476D01*
X171418078Y-59808993D01*
X171482753Y-59812227D01*
X171636924Y-59862321D01*
X171877973Y-59900500D01*
X171877974Y-59900500D01*
X172122026Y-59900500D01*
X172122027Y-59900500D01*
X172363076Y-59862321D01*
X172595185Y-59786904D01*
X172812639Y-59676106D01*
X173010083Y-59532655D01*
X173182655Y-59360083D01*
X173326106Y-59162639D01*
X173436904Y-58945185D01*
X173512321Y-58713076D01*
X173550500Y-58472027D01*
X173550500Y-58227973D01*
X173512321Y-57986924D01*
X173436904Y-57754815D01*
X173326106Y-57537361D01*
X173307779Y-57512136D01*
X173182660Y-57339923D01*
X173182656Y-57339918D01*
X173010081Y-57167343D01*
X173010076Y-57167339D01*
X172812642Y-57023896D01*
X172812641Y-57023895D01*
X172812639Y-57023894D01*
X172595185Y-56913096D01*
X172363076Y-56837679D01*
X172363074Y-56837678D01*
X172363072Y-56837678D01*
X172194769Y-56811021D01*
X172122027Y-56799500D01*
X171877973Y-56799500D01*
X171822093Y-56808350D01*
X171636927Y-56837678D01*
X171404812Y-56913097D01*
X171187357Y-57023896D01*
X170989923Y-57167339D01*
X170989918Y-57167343D01*
X170817343Y-57339918D01*
X170817339Y-57339923D01*
X170673896Y-57537357D01*
X170563097Y-57754812D01*
X170487678Y-57986927D01*
X170449500Y-58227973D01*
X170449500Y-58472026D01*
X170487679Y-58713077D01*
X170537770Y-58867244D01*
X170539765Y-58937086D01*
X170507520Y-58993243D01*
X164312181Y-65188583D01*
X164250858Y-65222068D01*
X164181166Y-65217084D01*
X164125233Y-65175212D01*
X164100816Y-65109748D01*
X164100500Y-65100902D01*
X164100500Y-62070097D01*
X164120185Y-62003058D01*
X164136819Y-61982416D01*
X171262416Y-54856819D01*
X171323739Y-54823334D01*
X171350097Y-54820500D01*
X172850003Y-54820500D01*
X172850008Y-54820500D01*
X172952797Y-54809999D01*
X173119334Y-54754814D01*
X173268655Y-54662711D01*
X173392711Y-54538655D01*
X173484814Y-54389334D01*
X173539999Y-54222797D01*
X173550500Y-54120008D01*
X173550500Y-52419992D01*
X173539999Y-52317203D01*
X173484814Y-52150666D01*
X173461162Y-52112321D01*
X173392713Y-52001348D01*
X173392710Y-52001344D01*
X173268655Y-51877289D01*
X173268651Y-51877286D01*
X173119337Y-51785187D01*
X173119335Y-51785186D01*
X173036065Y-51757593D01*
X172952797Y-51730001D01*
X172952795Y-51730000D01*
X172850015Y-51719500D01*
X172850008Y-51719500D01*
X171149992Y-51719500D01*
X171149984Y-51719500D01*
X171047204Y-51730000D01*
X171047203Y-51730001D01*
X170880664Y-51785186D01*
X170880662Y-51785187D01*
X170731348Y-51877286D01*
X170731344Y-51877289D01*
X170607289Y-52001344D01*
X170607286Y-52001348D01*
X170515187Y-52150662D01*
X170515186Y-52150664D01*
X170460001Y-52317203D01*
X170460000Y-52317204D01*
X170449500Y-52419984D01*
X170449500Y-53919902D01*
X170429815Y-53986941D01*
X170413181Y-54007583D01*
X163742181Y-60678583D01*
X163680858Y-60712068D01*
X163611166Y-60707084D01*
X163555233Y-60665212D01*
X163530816Y-60599748D01*
X163530500Y-60590902D01*
X163530500Y-60377973D01*
X163492321Y-60136924D01*
X163416904Y-59904815D01*
X163306106Y-59687361D01*
X163226171Y-59577339D01*
X163162660Y-59489923D01*
X163162656Y-59489918D01*
X162990081Y-59317343D01*
X162990076Y-59317339D01*
X162792642Y-59173896D01*
X162792641Y-59173895D01*
X162792639Y-59173894D01*
X162575185Y-59063096D01*
X162343076Y-58987679D01*
X162343074Y-58987678D01*
X162343072Y-58987678D01*
X162168320Y-58960000D01*
X162102027Y-58949500D01*
X161857973Y-58949500D01*
X161802093Y-58958350D01*
X161616927Y-58987678D01*
X161384812Y-59063097D01*
X161167357Y-59173896D01*
X160969923Y-59317339D01*
X160969918Y-59317343D01*
X160797343Y-59489918D01*
X160797339Y-59489923D01*
X160653896Y-59687357D01*
X160543097Y-59904812D01*
X160467678Y-60136927D01*
X160429500Y-60377973D01*
X160429500Y-60622026D01*
X160467679Y-60863077D01*
X160467679Y-60863080D01*
X160517770Y-61017243D01*
X160519765Y-61087084D01*
X160487520Y-61143242D01*
X159646387Y-61984375D01*
X159646286Y-61984478D01*
X159646284Y-61984480D01*
X159534480Y-62096284D01*
X159534122Y-62096902D01*
X159527921Y-62103119D01*
X159504037Y-62116196D01*
X159482032Y-62132249D01*
X159473835Y-62132733D01*
X159466637Y-62136675D01*
X159439473Y-62134764D01*
X159412284Y-62136371D01*
X159405008Y-62132339D01*
X159396940Y-62131772D01*
X159376683Y-62116645D01*
X159352458Y-62103222D01*
X159282716Y-62033480D01*
X159282715Y-62033479D01*
X159278385Y-62029149D01*
X159278374Y-62029139D01*
X158392478Y-61143243D01*
X158358993Y-61081920D01*
X158362228Y-61017244D01*
X158412321Y-60863076D01*
X158450500Y-60622027D01*
X158450500Y-60377973D01*
X158412321Y-60136924D01*
X158336904Y-59904815D01*
X158226106Y-59687361D01*
X158146171Y-59577339D01*
X158082660Y-59489923D01*
X158082656Y-59489918D01*
X157910081Y-59317343D01*
X157910076Y-59317339D01*
X157712642Y-59173896D01*
X157712641Y-59173895D01*
X157712639Y-59173894D01*
X157495185Y-59063096D01*
X157263076Y-58987679D01*
X157263074Y-58987678D01*
X157263072Y-58987678D01*
X157088320Y-58960000D01*
X157022027Y-58949500D01*
X156777973Y-58949500D01*
X156722093Y-58958350D01*
X156536927Y-58987678D01*
X156304812Y-59063097D01*
X156087357Y-59173896D01*
X155889923Y-59317339D01*
X155889918Y-59317343D01*
X155717343Y-59489918D01*
X155717339Y-59489923D01*
X155573896Y-59687357D01*
X155463097Y-59904812D01*
X155387678Y-60136927D01*
X155383261Y-60164815D01*
X155349500Y-60377973D01*
X155349500Y-60622027D01*
X155387679Y-60863076D01*
X155461252Y-61089511D01*
X155463097Y-61095187D01*
X155573896Y-61312642D01*
X155717339Y-61510076D01*
X155717343Y-61510081D01*
X155889918Y-61682656D01*
X155889923Y-61682660D01*
X156012812Y-61771943D01*
X156087361Y-61826106D01*
X156304815Y-61936904D01*
X156536924Y-62012321D01*
X156777973Y-62050500D01*
X156777974Y-62050500D01*
X157022026Y-62050500D01*
X157022027Y-62050500D01*
X157263076Y-62012321D01*
X157417245Y-61962227D01*
X157487085Y-61960233D01*
X157543243Y-61992478D01*
X158277181Y-62726416D01*
X158310666Y-62787739D01*
X158313500Y-62814097D01*
X158313500Y-80286014D01*
X158293815Y-80353053D01*
X158241011Y-80398808D01*
X158171853Y-80408752D01*
X158108297Y-80379727D01*
X158089182Y-80358900D01*
X158082656Y-80349918D01*
X157910081Y-80177343D01*
X157910076Y-80177339D01*
X157712642Y-80033896D01*
X157712641Y-80033895D01*
X157712639Y-80033894D01*
X157495185Y-79923096D01*
X157263076Y-79847679D01*
X157263074Y-79847678D01*
X157263072Y-79847678D01*
X157088320Y-79820000D01*
X157022027Y-79809500D01*
X156777973Y-79809500D01*
X156722093Y-79818350D01*
X156536927Y-79847678D01*
X156304809Y-79923098D01*
X156215794Y-79968453D01*
X156147125Y-79981349D01*
X156082385Y-79955072D01*
X156042128Y-79897965D01*
X156035500Y-79857968D01*
X156035500Y-64204059D01*
X156035501Y-64204046D01*
X156035501Y-64035945D01*
X156035501Y-64035943D01*
X155994577Y-63883215D01*
X155942535Y-63793076D01*
X155915520Y-63746284D01*
X155803716Y-63634480D01*
X155803713Y-63634478D01*
X153312477Y-61143242D01*
X153278993Y-61081920D01*
X153282228Y-61017244D01*
X153332321Y-60863076D01*
X153370500Y-60622027D01*
X153370500Y-60377973D01*
X153332321Y-60136924D01*
X153256904Y-59904815D01*
X153146106Y-59687361D01*
X153066171Y-59577339D01*
X153002660Y-59489923D01*
X153002656Y-59489918D01*
X152830081Y-59317343D01*
X152830076Y-59317339D01*
X152632642Y-59173896D01*
X152632641Y-59173895D01*
X152632639Y-59173894D01*
X152415185Y-59063096D01*
X152183076Y-58987679D01*
X152183074Y-58987678D01*
X152183072Y-58987678D01*
X152008320Y-58960000D01*
X151942027Y-58949500D01*
X151697973Y-58949500D01*
X151642093Y-58958350D01*
X151456927Y-58987678D01*
X151224812Y-59063097D01*
X151007357Y-59173896D01*
X150809923Y-59317339D01*
X150809918Y-59317343D01*
X150637343Y-59489918D01*
X150637339Y-59489923D01*
X150493896Y-59687357D01*
X150383097Y-59904812D01*
X150307678Y-60136927D01*
X150303261Y-60164815D01*
X150269500Y-60377973D01*
X150269500Y-60622027D01*
X150307679Y-60863076D01*
X150381252Y-61089511D01*
X150383097Y-61095187D01*
X150493896Y-61312642D01*
X150637339Y-61510076D01*
X150637343Y-61510081D01*
X150809918Y-61682656D01*
X150809923Y-61682660D01*
X150932812Y-61771943D01*
X151007361Y-61826106D01*
X151224815Y-61936904D01*
X151456924Y-62012321D01*
X151697973Y-62050500D01*
X151697974Y-62050500D01*
X151942026Y-62050500D01*
X151942027Y-62050500D01*
X152183076Y-62012321D01*
X152337245Y-61962227D01*
X152407085Y-61960233D01*
X152463243Y-61992478D01*
X154798181Y-64327416D01*
X154831666Y-64388739D01*
X154834500Y-64415097D01*
X154834500Y-83225903D01*
X154814815Y-83292942D01*
X154762011Y-83338697D01*
X154692853Y-83348641D01*
X154629297Y-83319616D01*
X154622819Y-83313584D01*
X153312478Y-82003243D01*
X153278993Y-81941920D01*
X153282228Y-81877244D01*
X153332321Y-81723076D01*
X153370500Y-81482027D01*
X153370500Y-81237973D01*
X153332321Y-80996924D01*
X153256904Y-80764815D01*
X153146106Y-80547361D01*
X153072926Y-80446637D01*
X153002660Y-80349923D01*
X153002656Y-80349918D01*
X152830081Y-80177343D01*
X152830076Y-80177339D01*
X152632642Y-80033896D01*
X152632641Y-80033895D01*
X152632639Y-80033894D01*
X152415185Y-79923096D01*
X152183076Y-79847679D01*
X152183074Y-79847678D01*
X152183072Y-79847678D01*
X152008320Y-79820000D01*
X151942027Y-79809500D01*
X151697973Y-79809500D01*
X151642093Y-79818350D01*
X151456927Y-79847678D01*
X151224812Y-79923097D01*
X151007357Y-80033896D01*
X150809923Y-80177339D01*
X150809918Y-80177343D01*
X150637343Y-80349918D01*
X150637339Y-80349923D01*
X150493896Y-80547357D01*
X150383097Y-80764812D01*
X150307678Y-80996927D01*
X150269500Y-81237973D01*
X150269500Y-81482026D01*
X150307678Y-81723072D01*
X150307678Y-81723074D01*
X150307679Y-81723076D01*
X150363594Y-81895165D01*
X150383097Y-81955187D01*
X150493896Y-82172642D01*
X150637339Y-82370076D01*
X150637343Y-82370081D01*
X150809918Y-82542656D01*
X150809923Y-82542660D01*
X150982136Y-82667779D01*
X151007361Y-82686106D01*
X151224815Y-82796904D01*
X151456924Y-82872321D01*
X151697973Y-82910500D01*
X151697974Y-82910500D01*
X151942026Y-82910500D01*
X151942027Y-82910500D01*
X152183076Y-82872321D01*
X152337245Y-82822227D01*
X152407085Y-82820233D01*
X152463243Y-82852478D01*
X153697181Y-84086416D01*
X153730666Y-84147739D01*
X153733500Y-84174097D01*
X153733500Y-86637801D01*
X153727262Y-86659043D01*
X153725685Y-86681125D01*
X153717611Y-86691912D01*
X153713815Y-86704840D01*
X153697084Y-86719337D01*
X153683818Y-86737062D01*
X153671193Y-86741771D01*
X153661011Y-86750595D01*
X153639097Y-86753745D01*
X153618356Y-86761484D01*
X153605190Y-86758621D01*
X153591853Y-86760539D01*
X153571713Y-86751341D01*
X153550082Y-86746638D01*
X153532350Y-86733365D01*
X153528297Y-86731514D01*
X153521826Y-86725489D01*
X153509381Y-86713046D01*
X153509380Y-86713044D01*
X153509374Y-86713039D01*
X148727819Y-81931484D01*
X148694334Y-81870161D01*
X148691500Y-81843803D01*
X148691500Y-61940060D01*
X148691501Y-61940047D01*
X148691501Y-61771944D01*
X148691501Y-61771943D01*
X148650577Y-61619216D01*
X148587570Y-61510083D01*
X148571524Y-61482290D01*
X148571518Y-61482282D01*
X148232478Y-61143242D01*
X148198993Y-61081919D01*
X148202228Y-61017244D01*
X148252321Y-60863076D01*
X148290500Y-60622027D01*
X148290500Y-60377973D01*
X148252321Y-60136924D01*
X148176904Y-59904815D01*
X148066106Y-59687361D01*
X147986171Y-59577339D01*
X147922660Y-59489923D01*
X147922656Y-59489918D01*
X147750081Y-59317343D01*
X147750076Y-59317339D01*
X147552642Y-59173896D01*
X147552641Y-59173895D01*
X147552639Y-59173894D01*
X147335185Y-59063096D01*
X147103076Y-58987679D01*
X147103074Y-58987678D01*
X147103072Y-58987678D01*
X146928320Y-58960000D01*
X146862027Y-58949500D01*
X146617973Y-58949500D01*
X146562093Y-58958350D01*
X146376927Y-58987678D01*
X146144812Y-59063097D01*
X145927357Y-59173896D01*
X145729923Y-59317339D01*
X145729918Y-59317343D01*
X145557343Y-59489918D01*
X145557339Y-59489923D01*
X145413896Y-59687357D01*
X145303097Y-59904812D01*
X145227678Y-60136927D01*
X145223261Y-60164815D01*
X145189500Y-60377973D01*
X145189500Y-60622027D01*
X145227679Y-60863076D01*
X145301252Y-61089511D01*
X145303097Y-61095187D01*
X145413896Y-61312642D01*
X145557339Y-61510076D01*
X145557343Y-61510081D01*
X145729918Y-61682656D01*
X145729923Y-61682660D01*
X145852812Y-61771943D01*
X145927361Y-61826106D01*
X146144815Y-61936904D01*
X146376924Y-62012321D01*
X146617973Y-62050500D01*
X146617974Y-62050500D01*
X146862026Y-62050500D01*
X146862027Y-62050500D01*
X147103076Y-62012321D01*
X147257245Y-61962227D01*
X147272453Y-61961793D01*
X147286713Y-61956475D01*
X147306669Y-61960816D01*
X147327082Y-61960233D01*
X147341167Y-61968320D01*
X147354986Y-61971326D01*
X147383241Y-61992477D01*
X147454181Y-62063416D01*
X147487666Y-62124739D01*
X147490500Y-62151098D01*
X147490500Y-79802888D01*
X147470815Y-79869927D01*
X147418011Y-79915682D01*
X147348853Y-79925626D01*
X147328183Y-79920819D01*
X147103077Y-79847679D01*
X147103072Y-79847678D01*
X146928320Y-79820000D01*
X146862027Y-79809500D01*
X146617973Y-79809500D01*
X146562093Y-79818350D01*
X146376927Y-79847678D01*
X146144812Y-79923097D01*
X145927357Y-80033896D01*
X145729923Y-80177339D01*
X145729918Y-80177343D01*
X145557343Y-80349918D01*
X145557339Y-80349923D01*
X145413896Y-80547357D01*
X145306438Y-80758254D01*
X145258463Y-80809050D01*
X145190642Y-80825845D01*
X145124507Y-80803307D01*
X145108272Y-80789640D01*
X142296819Y-77978186D01*
X142263334Y-77916863D01*
X142260500Y-77890505D01*
X142260500Y-62010182D01*
X142280185Y-61943143D01*
X142328204Y-61899698D01*
X142472639Y-61826106D01*
X142670083Y-61682655D01*
X142842655Y-61510083D01*
X142986106Y-61312639D01*
X143096904Y-61095185D01*
X143172321Y-60863076D01*
X143210500Y-60622027D01*
X143210500Y-60377973D01*
X143172321Y-60136924D01*
X143096904Y-59904815D01*
X142986106Y-59687361D01*
X142906171Y-59577339D01*
X142842660Y-59489923D01*
X142842656Y-59489918D01*
X142670081Y-59317343D01*
X142670076Y-59317339D01*
X142472642Y-59173896D01*
X142472641Y-59173895D01*
X142472639Y-59173894D01*
X142255185Y-59063096D01*
X142023076Y-58987679D01*
X142023074Y-58987678D01*
X142023072Y-58987678D01*
X141848320Y-58960000D01*
X141782027Y-58949500D01*
X141537973Y-58949500D01*
X141482093Y-58958350D01*
X141296927Y-58987678D01*
X141064812Y-59063097D01*
X140847357Y-59173896D01*
X140649923Y-59317339D01*
X140649918Y-59317343D01*
X140477343Y-59489918D01*
X140477339Y-59489923D01*
X140333896Y-59687357D01*
X140223097Y-59904812D01*
X140147678Y-60136927D01*
X140143261Y-60164815D01*
X140109500Y-60377973D01*
X140109500Y-60622027D01*
X140147679Y-60863076D01*
X140221252Y-61089511D01*
X140223097Y-61095187D01*
X140333896Y-61312642D01*
X140477339Y-61510076D01*
X140477343Y-61510081D01*
X140649918Y-61682656D01*
X140649923Y-61682660D01*
X140772813Y-61771944D01*
X140847361Y-61826106D01*
X140991795Y-61899697D01*
X141042590Y-61947671D01*
X141059500Y-62010182D01*
X141059500Y-78103933D01*
X141059499Y-78103951D01*
X141059499Y-78269657D01*
X141059498Y-78269657D01*
X141100423Y-78422388D01*
X141129358Y-78472503D01*
X141129359Y-78472507D01*
X141129360Y-78472507D01*
X141179479Y-78559317D01*
X141179481Y-78559320D01*
X141298349Y-78678188D01*
X141298355Y-78678193D01*
X142316691Y-79696529D01*
X142350176Y-79757852D01*
X142345192Y-79827544D01*
X142303320Y-79883477D01*
X142237856Y-79907894D01*
X142190692Y-79902141D01*
X142177840Y-79897965D01*
X142023076Y-79847679D01*
X142023074Y-79847678D01*
X142023072Y-79847678D01*
X141848320Y-79820000D01*
X141782027Y-79809500D01*
X141537973Y-79809500D01*
X141482093Y-79818350D01*
X141296927Y-79847678D01*
X141064812Y-79923097D01*
X140847357Y-80033896D01*
X140649923Y-80177339D01*
X140649918Y-80177343D01*
X140477343Y-80349918D01*
X140477339Y-80349923D01*
X140333896Y-80547357D01*
X140226438Y-80758254D01*
X140178463Y-80809050D01*
X140110642Y-80825845D01*
X140044507Y-80803307D01*
X140028272Y-80789640D01*
X137216819Y-77978186D01*
X137183334Y-77916863D01*
X137180500Y-77890505D01*
X137180500Y-62010182D01*
X137200185Y-61943143D01*
X137248204Y-61899698D01*
X137392639Y-61826106D01*
X137590083Y-61682655D01*
X137762655Y-61510083D01*
X137906106Y-61312639D01*
X138016904Y-61095185D01*
X138092321Y-60863076D01*
X138130500Y-60622027D01*
X138130500Y-60377973D01*
X138092321Y-60136924D01*
X138016904Y-59904815D01*
X137906106Y-59687361D01*
X137826171Y-59577339D01*
X137762660Y-59489923D01*
X137762656Y-59489918D01*
X137590081Y-59317343D01*
X137590076Y-59317339D01*
X137392642Y-59173896D01*
X137392641Y-59173895D01*
X137392639Y-59173894D01*
X137175185Y-59063096D01*
X136943076Y-58987679D01*
X136943074Y-58987678D01*
X136943072Y-58987678D01*
X136768320Y-58960000D01*
X136702027Y-58949500D01*
X136457973Y-58949500D01*
X136402093Y-58958350D01*
X136216927Y-58987678D01*
X135984812Y-59063097D01*
X135767357Y-59173896D01*
X135569923Y-59317339D01*
X135569918Y-59317343D01*
X135397343Y-59489918D01*
X135397339Y-59489923D01*
X135253896Y-59687357D01*
X135143097Y-59904812D01*
X135067678Y-60136927D01*
X135063261Y-60164815D01*
X135029500Y-60377973D01*
X135029500Y-60622027D01*
X135067679Y-60863076D01*
X135141252Y-61089511D01*
X135143097Y-61095187D01*
X135253896Y-61312642D01*
X135397339Y-61510076D01*
X135397343Y-61510081D01*
X135569918Y-61682656D01*
X135569923Y-61682660D01*
X135692813Y-61771944D01*
X135767361Y-61826106D01*
X135911795Y-61899697D01*
X135962590Y-61947671D01*
X135979500Y-62010182D01*
X135979500Y-78103933D01*
X135979499Y-78103951D01*
X135979499Y-78269657D01*
X135979498Y-78269657D01*
X136020423Y-78422388D01*
X136049358Y-78472503D01*
X136049359Y-78472507D01*
X136049360Y-78472507D01*
X136099479Y-78559317D01*
X136099481Y-78559320D01*
X136218349Y-78678188D01*
X136218355Y-78678193D01*
X137236691Y-79696529D01*
X137270176Y-79757852D01*
X137265192Y-79827544D01*
X137223320Y-79883477D01*
X137157856Y-79907894D01*
X137110692Y-79902141D01*
X137097840Y-79897965D01*
X136943076Y-79847679D01*
X136943074Y-79847678D01*
X136943072Y-79847678D01*
X136768320Y-79820000D01*
X136702027Y-79809500D01*
X136457973Y-79809500D01*
X136402093Y-79818350D01*
X136216927Y-79847678D01*
X135984812Y-79923097D01*
X135767357Y-80033896D01*
X135569923Y-80177339D01*
X135569918Y-80177343D01*
X135397343Y-80349918D01*
X135397339Y-80349923D01*
X135253896Y-80547357D01*
X135146438Y-80758254D01*
X135098463Y-80809050D01*
X135030642Y-80825845D01*
X134964507Y-80803307D01*
X134948272Y-80789640D01*
X132136819Y-77978187D01*
X132103334Y-77916864D01*
X132100500Y-77890506D01*
X132100500Y-62010182D01*
X132120185Y-61943143D01*
X132168204Y-61899698D01*
X132312639Y-61826106D01*
X132510083Y-61682655D01*
X132682655Y-61510083D01*
X132826106Y-61312639D01*
X132936904Y-61095185D01*
X133012321Y-60863076D01*
X133050500Y-60622027D01*
X133050500Y-60377973D01*
X133012321Y-60136924D01*
X132936904Y-59904815D01*
X132826106Y-59687361D01*
X132746171Y-59577339D01*
X132682660Y-59489923D01*
X132682656Y-59489918D01*
X132510081Y-59317343D01*
X132510076Y-59317339D01*
X132312642Y-59173896D01*
X132312641Y-59173895D01*
X132312639Y-59173894D01*
X132095185Y-59063096D01*
X131863076Y-58987679D01*
X131863074Y-58987678D01*
X131863072Y-58987678D01*
X131688320Y-58960000D01*
X131622027Y-58949500D01*
X131377973Y-58949500D01*
X131322093Y-58958350D01*
X131136927Y-58987678D01*
X130904812Y-59063097D01*
X130687357Y-59173896D01*
X130489923Y-59317339D01*
X130489918Y-59317343D01*
X130317343Y-59489918D01*
X130317339Y-59489923D01*
X130173896Y-59687357D01*
X130063097Y-59904812D01*
X129987678Y-60136927D01*
X129983261Y-60164815D01*
X129949500Y-60377973D01*
X129949500Y-60622027D01*
X129987679Y-60863076D01*
X130061252Y-61089511D01*
X130063097Y-61095187D01*
X130173896Y-61312642D01*
X130317339Y-61510076D01*
X130317343Y-61510081D01*
X130489918Y-61682656D01*
X130489923Y-61682660D01*
X130612813Y-61771944D01*
X130687361Y-61826106D01*
X130831795Y-61899697D01*
X130882590Y-61947671D01*
X130899500Y-62010182D01*
X130899500Y-78103933D01*
X130899499Y-78103951D01*
X130899499Y-78269657D01*
X130899498Y-78269657D01*
X130940423Y-78422388D01*
X130969358Y-78472503D01*
X130969359Y-78472507D01*
X130969360Y-78472507D01*
X131019479Y-78559317D01*
X131019481Y-78559320D01*
X131138349Y-78678188D01*
X131138355Y-78678193D01*
X132156691Y-79696529D01*
X132190176Y-79757852D01*
X132185192Y-79827544D01*
X132143320Y-79883477D01*
X132077856Y-79907894D01*
X132030692Y-79902141D01*
X132017840Y-79897965D01*
X131863076Y-79847679D01*
X131863074Y-79847678D01*
X131863072Y-79847678D01*
X131688320Y-79820000D01*
X131622027Y-79809500D01*
X131377973Y-79809500D01*
X131322093Y-79818350D01*
X131136927Y-79847678D01*
X130904812Y-79923097D01*
X130687357Y-80033896D01*
X130489923Y-80177339D01*
X130489918Y-80177343D01*
X130317343Y-80349918D01*
X130317339Y-80349923D01*
X130173896Y-80547357D01*
X130066438Y-80758254D01*
X130018463Y-80809050D01*
X129950642Y-80825845D01*
X129884507Y-80803307D01*
X129868272Y-80789640D01*
X127056819Y-77978187D01*
X127023334Y-77916864D01*
X127020500Y-77890506D01*
X127020500Y-62010182D01*
X127040185Y-61943143D01*
X127088204Y-61899698D01*
X127232639Y-61826106D01*
X127430083Y-61682655D01*
X127602655Y-61510083D01*
X127746106Y-61312639D01*
X127856904Y-61095185D01*
X127932321Y-60863076D01*
X127970500Y-60622027D01*
X127970500Y-60377973D01*
X127932321Y-60136924D01*
X127856904Y-59904815D01*
X127746106Y-59687361D01*
X127666171Y-59577339D01*
X127602660Y-59489923D01*
X127602656Y-59489918D01*
X127430081Y-59317343D01*
X127430076Y-59317339D01*
X127232642Y-59173896D01*
X127232641Y-59173895D01*
X127232639Y-59173894D01*
X127015185Y-59063096D01*
X126783076Y-58987679D01*
X126783074Y-58987678D01*
X126783072Y-58987678D01*
X126608320Y-58960000D01*
X126542027Y-58949500D01*
X126297973Y-58949500D01*
X126242093Y-58958350D01*
X126056927Y-58987678D01*
X125824812Y-59063097D01*
X125607357Y-59173896D01*
X125409923Y-59317339D01*
X125409918Y-59317343D01*
X125237343Y-59489918D01*
X125237339Y-59489923D01*
X125093896Y-59687357D01*
X124983097Y-59904812D01*
X124907678Y-60136927D01*
X124903261Y-60164815D01*
X124869500Y-60377973D01*
X124869500Y-60622027D01*
X124907679Y-60863076D01*
X124981252Y-61089511D01*
X124983097Y-61095187D01*
X125093896Y-61312642D01*
X125237339Y-61510076D01*
X125237343Y-61510081D01*
X125409918Y-61682656D01*
X125409923Y-61682660D01*
X125532813Y-61771944D01*
X125607361Y-61826106D01*
X125751795Y-61899697D01*
X125802590Y-61947671D01*
X125819500Y-62010182D01*
X125819500Y-78103933D01*
X125819499Y-78103951D01*
X125819499Y-78269657D01*
X125819498Y-78269657D01*
X125860423Y-78422388D01*
X125889358Y-78472503D01*
X125889359Y-78472507D01*
X125889360Y-78472507D01*
X125939479Y-78559317D01*
X125939481Y-78559320D01*
X126058349Y-78678188D01*
X126058355Y-78678193D01*
X127076691Y-79696529D01*
X127110176Y-79757852D01*
X127105192Y-79827544D01*
X127063320Y-79883477D01*
X126997856Y-79907894D01*
X126950692Y-79902141D01*
X126937840Y-79897965D01*
X126783076Y-79847679D01*
X126783074Y-79847678D01*
X126783072Y-79847678D01*
X126608320Y-79820000D01*
X126542027Y-79809500D01*
X126297973Y-79809500D01*
X126242093Y-79818350D01*
X126056927Y-79847678D01*
X125824812Y-79923097D01*
X125607357Y-80033896D01*
X125409923Y-80177339D01*
X125409918Y-80177343D01*
X125237343Y-80349918D01*
X125237339Y-80349923D01*
X125093896Y-80547357D01*
X124983097Y-80764812D01*
X124907678Y-80996927D01*
X124869500Y-81237973D01*
X124869500Y-81482026D01*
X124907678Y-81723072D01*
X124907678Y-81723073D01*
X124962141Y-81890692D01*
X124964136Y-81960533D01*
X124928056Y-82020366D01*
X124865355Y-82051194D01*
X124795940Y-82043229D01*
X124756529Y-82016691D01*
X121976819Y-79236981D01*
X121943334Y-79175658D01*
X121940500Y-79149300D01*
X121940500Y-62010182D01*
X121960185Y-61943143D01*
X122008204Y-61899698D01*
X122152639Y-61826106D01*
X122350083Y-61682655D01*
X122522655Y-61510083D01*
X122666106Y-61312639D01*
X122776904Y-61095185D01*
X122852321Y-60863076D01*
X122890500Y-60622027D01*
X122890500Y-60377973D01*
X122852321Y-60136924D01*
X122776904Y-59904815D01*
X122666106Y-59687361D01*
X122586171Y-59577339D01*
X122522660Y-59489923D01*
X122522656Y-59489918D01*
X122350081Y-59317343D01*
X122350076Y-59317339D01*
X122152642Y-59173896D01*
X122152641Y-59173895D01*
X122152639Y-59173894D01*
X121935185Y-59063096D01*
X121703076Y-58987679D01*
X121703074Y-58987678D01*
X121703072Y-58987678D01*
X121528320Y-58960000D01*
X121462027Y-58949500D01*
X121217973Y-58949500D01*
X121162093Y-58958350D01*
X120976927Y-58987678D01*
X120744812Y-59063097D01*
X120527357Y-59173896D01*
X120329923Y-59317339D01*
X120329918Y-59317343D01*
X120157343Y-59489918D01*
X120157339Y-59489923D01*
X120013896Y-59687357D01*
X119903097Y-59904812D01*
X119827678Y-60136927D01*
X119823261Y-60164815D01*
X119789500Y-60377973D01*
X119789500Y-60622027D01*
X119827679Y-60863076D01*
X119901252Y-61089511D01*
X119903097Y-61095187D01*
X120013896Y-61312642D01*
X120157339Y-61510076D01*
X120157343Y-61510081D01*
X120329918Y-61682656D01*
X120329923Y-61682660D01*
X120452813Y-61771944D01*
X120527361Y-61826106D01*
X120671795Y-61899697D01*
X120722590Y-61947671D01*
X120739500Y-62010182D01*
X120739500Y-79362727D01*
X120739499Y-79362745D01*
X120739499Y-79528451D01*
X120739498Y-79528451D01*
X120780423Y-79681183D01*
X120782916Y-79685500D01*
X120796184Y-79708480D01*
X120811989Y-79735856D01*
X120815844Y-79742533D01*
X120820020Y-79759752D01*
X120832179Y-79809882D01*
X120832313Y-79810434D01*
X120824684Y-79832475D01*
X120809460Y-79876459D01*
X120754537Y-79919648D01*
X120746779Y-79922458D01*
X120744812Y-79923097D01*
X120527357Y-80033896D01*
X120329923Y-80177339D01*
X120329918Y-80177343D01*
X120157343Y-80349918D01*
X120157339Y-80349923D01*
X120013896Y-80547357D01*
X119903097Y-80764812D01*
X119827678Y-80996927D01*
X119789500Y-81237973D01*
X119789500Y-81482026D01*
X119827678Y-81723072D01*
X119827678Y-81723074D01*
X119827679Y-81723076D01*
X119883594Y-81895165D01*
X119903097Y-81955187D01*
X120013896Y-82172642D01*
X120157339Y-82370076D01*
X120157343Y-82370081D01*
X120329918Y-82542656D01*
X120329923Y-82542660D01*
X120524898Y-82684316D01*
X120527361Y-82686106D01*
X120671795Y-82759697D01*
X120722590Y-82807671D01*
X120739500Y-82870182D01*
X120739500Y-83253330D01*
X120739499Y-83253348D01*
X120739499Y-83419054D01*
X120739498Y-83419054D01*
X120780423Y-83571785D01*
X120809358Y-83621900D01*
X120809359Y-83621904D01*
X120809360Y-83621904D01*
X120859479Y-83708714D01*
X120859481Y-83708717D01*
X120978349Y-83827585D01*
X120978355Y-83827590D01*
X139488584Y-102337819D01*
X139522069Y-102399142D01*
X139517085Y-102468834D01*
X139475213Y-102524767D01*
X139409749Y-102549184D01*
X139400903Y-102549500D01*
X139302648Y-102549500D01*
X139264599Y-102555526D01*
X139100468Y-102581522D01*
X139091717Y-102584365D01*
X139086154Y-102586173D01*
X139016313Y-102588167D01*
X138960157Y-102555922D01*
X118247819Y-81843584D01*
X118214334Y-81782261D01*
X118211500Y-81755903D01*
X118211500Y-61940060D01*
X118211501Y-61940047D01*
X118211501Y-61771944D01*
X118211501Y-61771943D01*
X118170577Y-61619216D01*
X118107570Y-61510083D01*
X118091524Y-61482290D01*
X118091518Y-61482282D01*
X117846819Y-61237583D01*
X117813334Y-61176260D01*
X117810500Y-61149902D01*
X117810500Y-59649997D01*
X117810499Y-59649984D01*
X117799999Y-59547204D01*
X117799999Y-59547203D01*
X117744814Y-59380666D01*
X117732118Y-59360083D01*
X117652713Y-59231348D01*
X117652710Y-59231344D01*
X117528655Y-59107289D01*
X117528651Y-59107286D01*
X117379337Y-59015187D01*
X117379335Y-59015186D01*
X117296065Y-58987593D01*
X117212797Y-58960001D01*
X117212795Y-58960000D01*
X117110015Y-58949500D01*
X117110008Y-58949500D01*
X115409992Y-58949500D01*
X115409984Y-58949500D01*
X115307204Y-58960000D01*
X115307203Y-58960001D01*
X115140664Y-59015186D01*
X115140662Y-59015187D01*
X114991348Y-59107286D01*
X114991344Y-59107289D01*
X114867289Y-59231344D01*
X114867286Y-59231348D01*
X114775187Y-59380662D01*
X114775186Y-59380664D01*
X114720001Y-59547203D01*
X114720000Y-59547204D01*
X114709500Y-59649984D01*
X114709500Y-61350015D01*
X114720000Y-61452795D01*
X114720001Y-61452797D01*
X114738983Y-61510081D01*
X114775186Y-61619335D01*
X114775187Y-61619337D01*
X114867286Y-61768651D01*
X114867289Y-61768655D01*
X114991344Y-61892710D01*
X114991348Y-61892713D01*
X115140662Y-61984812D01*
X115140664Y-61984813D01*
X115140666Y-61984814D01*
X115307203Y-62039999D01*
X115409992Y-62050500D01*
X116886500Y-62050500D01*
X116953539Y-62070185D01*
X116999294Y-62122989D01*
X117010500Y-62174500D01*
X117010500Y-79685500D01*
X116990815Y-79752539D01*
X116938011Y-79798294D01*
X116886500Y-79809500D01*
X115409984Y-79809500D01*
X115307204Y-79820000D01*
X115307203Y-79820001D01*
X115140664Y-79875186D01*
X115140662Y-79875187D01*
X114991348Y-79967286D01*
X114991344Y-79967289D01*
X114867289Y-80091344D01*
X114867286Y-80091348D01*
X114775187Y-80240662D01*
X114775186Y-80240664D01*
X114720001Y-80407203D01*
X114720000Y-80407204D01*
X114709500Y-80509984D01*
X114709500Y-82210015D01*
X114720000Y-82312795D01*
X114720001Y-82312797D01*
X114738983Y-82370081D01*
X114775186Y-82479335D01*
X114775187Y-82479337D01*
X114867286Y-82628651D01*
X114867289Y-82628655D01*
X114991344Y-82752710D01*
X114991348Y-82752713D01*
X115140662Y-82844812D01*
X115140664Y-82844813D01*
X115140666Y-82844814D01*
X115307203Y-82899999D01*
X115409992Y-82910500D01*
X116909903Y-82910500D01*
X116976942Y-82930185D01*
X116997584Y-82946819D01*
X136547938Y-102497173D01*
X136558914Y-102517274D01*
X136573694Y-102534774D01*
X136575341Y-102547357D01*
X136581423Y-102558496D01*
X136579789Y-102581341D01*
X136582762Y-102604053D01*
X136577344Y-102615529D01*
X136576439Y-102628188D01*
X136562712Y-102646523D01*
X136552935Y-102667236D01*
X136539354Y-102677725D01*
X136534567Y-102684121D01*
X136525971Y-102690009D01*
X136521364Y-102692887D01*
X136433390Y-102737713D01*
X136333484Y-102810297D01*
X136329804Y-102812598D01*
X136300168Y-102820894D01*
X136271168Y-102831241D01*
X136266819Y-102830229D01*
X136262521Y-102831433D01*
X136233097Y-102822387D01*
X136203114Y-102815415D01*
X136198151Y-102811644D01*
X136195736Y-102810902D01*
X136193159Y-102807851D01*
X136176409Y-102795124D01*
X133426654Y-100045369D01*
X133426652Y-100045366D01*
X133307781Y-99926495D01*
X133307780Y-99926494D01*
X133220968Y-99876374D01*
X133220968Y-99876373D01*
X133220964Y-99876372D01*
X133170849Y-99847437D01*
X133018121Y-99806513D01*
X132860007Y-99806513D01*
X132852411Y-99806513D01*
X132852395Y-99806514D01*
X124707111Y-99806514D01*
X124640072Y-99786829D01*
X124619430Y-99770195D01*
X101492478Y-76643243D01*
X101458993Y-76581920D01*
X101462228Y-76517244D01*
X101512321Y-76363076D01*
X101550500Y-76122027D01*
X101550500Y-75877973D01*
X101512321Y-75636924D01*
X101436904Y-75404815D01*
X101326106Y-75187361D01*
X101264321Y-75102321D01*
X101182660Y-74989923D01*
X101182656Y-74989918D01*
X101010081Y-74817343D01*
X101010076Y-74817339D01*
X100812642Y-74673896D01*
X100812641Y-74673895D01*
X100812639Y-74673894D01*
X100595185Y-74563096D01*
X100363076Y-74487679D01*
X100363074Y-74487678D01*
X100363072Y-74487678D01*
X100194769Y-74461021D01*
X100122027Y-74449500D01*
X99877973Y-74449500D01*
X99822093Y-74458350D01*
X99636927Y-74487678D01*
X99404812Y-74563097D01*
X99187357Y-74673896D01*
X98989923Y-74817339D01*
X98989918Y-74817343D01*
X98817343Y-74989918D01*
X98817339Y-74989923D01*
X98673896Y-75187357D01*
X98563097Y-75404812D01*
X98487678Y-75636927D01*
X98460251Y-75810096D01*
X98449500Y-75877973D01*
X98449500Y-76122027D01*
X98487679Y-76363076D01*
X98537771Y-76517244D01*
X98563097Y-76595187D01*
X98673896Y-76812642D01*
X98817339Y-77010076D01*
X98817343Y-77010081D01*
X98989918Y-77182656D01*
X98989923Y-77182660D01*
X99162136Y-77307779D01*
X99187361Y-77326106D01*
X99404815Y-77436904D01*
X99636924Y-77512321D01*
X99877973Y-77550500D01*
X99877974Y-77550500D01*
X100122026Y-77550500D01*
X100122027Y-77550500D01*
X100363076Y-77512321D01*
X100517245Y-77462227D01*
X100587085Y-77460233D01*
X100643243Y-77492478D01*
X103338584Y-80187819D01*
X103372069Y-80249142D01*
X103367085Y-80318834D01*
X103325213Y-80374767D01*
X103259749Y-80399184D01*
X103250903Y-80399500D01*
X101580941Y-80399500D01*
X101512948Y-80417718D01*
X101443098Y-80416054D01*
X101385236Y-80376891D01*
X101370371Y-80354237D01*
X101368173Y-80349923D01*
X101326106Y-80267361D01*
X101306708Y-80240662D01*
X101182660Y-80069923D01*
X101182656Y-80069918D01*
X101010081Y-79897343D01*
X101010076Y-79897339D01*
X100812642Y-79753896D01*
X100812641Y-79753895D01*
X100812639Y-79753894D01*
X100595185Y-79643096D01*
X100363076Y-79567679D01*
X100363074Y-79567678D01*
X100363072Y-79567678D01*
X100194769Y-79541021D01*
X100122027Y-79529500D01*
X99877973Y-79529500D01*
X99822093Y-79538350D01*
X99636927Y-79567678D01*
X99404812Y-79643097D01*
X99187357Y-79753896D01*
X98989923Y-79897339D01*
X98989918Y-79897343D01*
X98817343Y-80069918D01*
X98817339Y-80069923D01*
X98673896Y-80267357D01*
X98563097Y-80484812D01*
X98487678Y-80716927D01*
X98473997Y-80803307D01*
X98449500Y-80957973D01*
X98449500Y-81202027D01*
X98487679Y-81443076D01*
X98563096Y-81675185D01*
X98648899Y-81843584D01*
X98673896Y-81892642D01*
X98817339Y-82090076D01*
X98817343Y-82090081D01*
X98989918Y-82262656D01*
X98989923Y-82262660D01*
X99103335Y-82345058D01*
X99187361Y-82406106D01*
X99404815Y-82516904D01*
X99636924Y-82592321D01*
X99877973Y-82630500D01*
X99877974Y-82630500D01*
X100122026Y-82630500D01*
X100122027Y-82630500D01*
X100363076Y-82592321D01*
X100595185Y-82516904D01*
X100812639Y-82406106D01*
X101010083Y-82262655D01*
X101182655Y-82090083D01*
X101326106Y-81892639D01*
X101399698Y-81748205D01*
X101447672Y-81697410D01*
X101510183Y-81680501D01*
X101659054Y-81680501D01*
X101659057Y-81680501D01*
X101811785Y-81639577D01*
X101850694Y-81617112D01*
X101912694Y-81600500D01*
X104132803Y-81600500D01*
X104199842Y-81620185D01*
X104220484Y-81636819D01*
X122980498Y-100396833D01*
X123013983Y-100458156D01*
X123008999Y-100527848D01*
X122967127Y-100583781D01*
X122901663Y-100608198D01*
X122892817Y-100608514D01*
X121009112Y-100608514D01*
X120942073Y-100588829D01*
X120921431Y-100572195D01*
X106147590Y-85798355D01*
X106147588Y-85798352D01*
X106028717Y-85679481D01*
X106028716Y-85679480D01*
X105941904Y-85629360D01*
X105941904Y-85629359D01*
X105941900Y-85629358D01*
X105891785Y-85600423D01*
X105739057Y-85559499D01*
X105580943Y-85559499D01*
X105573347Y-85559499D01*
X105573331Y-85559500D01*
X101510184Y-85559500D01*
X101443145Y-85539815D01*
X101399699Y-85491795D01*
X101380041Y-85453215D01*
X101326106Y-85347361D01*
X101209528Y-85186904D01*
X101182660Y-85149923D01*
X101182656Y-85149918D01*
X101010081Y-84977343D01*
X101010076Y-84977339D01*
X100812642Y-84833896D01*
X100812641Y-84833895D01*
X100812639Y-84833894D01*
X100595185Y-84723096D01*
X100363076Y-84647679D01*
X100363074Y-84647678D01*
X100363072Y-84647678D01*
X100187708Y-84619903D01*
X100122027Y-84609500D01*
X99877973Y-84609500D01*
X99822093Y-84618350D01*
X99636927Y-84647678D01*
X99404812Y-84723097D01*
X99187357Y-84833896D01*
X98989923Y-84977339D01*
X98989918Y-84977343D01*
X98817343Y-85149918D01*
X98817339Y-85149923D01*
X98673896Y-85347357D01*
X98563097Y-85564812D01*
X98487678Y-85796927D01*
X98487452Y-85798355D01*
X98449500Y-86037973D01*
X98449500Y-86282027D01*
X98487679Y-86523076D01*
X98563096Y-86755185D01*
X98670570Y-86966116D01*
X98673896Y-86972642D01*
X98817339Y-87170076D01*
X98817343Y-87170081D01*
X98989918Y-87342656D01*
X98989923Y-87342660D01*
X99162136Y-87467779D01*
X99187361Y-87486106D01*
X99404815Y-87596904D01*
X99636924Y-87672321D01*
X99877973Y-87710500D01*
X99877974Y-87710500D01*
X100122026Y-87710500D01*
X100122027Y-87710500D01*
X100363076Y-87672321D01*
X100595185Y-87596904D01*
X100812639Y-87486106D01*
X101010083Y-87342655D01*
X101182655Y-87170083D01*
X101326106Y-86972639D01*
X101399699Y-86828205D01*
X101447674Y-86777409D01*
X101510184Y-86760500D01*
X105359903Y-86760500D01*
X105426942Y-86780185D01*
X105447584Y-86796819D01*
X109078584Y-90427819D01*
X109112069Y-90489142D01*
X109107085Y-90558834D01*
X109065213Y-90614767D01*
X108999749Y-90639184D01*
X108990903Y-90639500D01*
X101510184Y-90639500D01*
X101443145Y-90619815D01*
X101399699Y-90571795D01*
X101357585Y-90489142D01*
X101326106Y-90427361D01*
X101307779Y-90402136D01*
X101182660Y-90229923D01*
X101182656Y-90229918D01*
X101010081Y-90057343D01*
X101010076Y-90057339D01*
X100812642Y-89913896D01*
X100812641Y-89913895D01*
X100812639Y-89913894D01*
X100595185Y-89803096D01*
X100363076Y-89727679D01*
X100363074Y-89727678D01*
X100363072Y-89727678D01*
X100194769Y-89701021D01*
X100122027Y-89689500D01*
X99877973Y-89689500D01*
X99822093Y-89698350D01*
X99636927Y-89727678D01*
X99404812Y-89803097D01*
X99187357Y-89913896D01*
X98989923Y-90057339D01*
X98989918Y-90057343D01*
X98817343Y-90229918D01*
X98817339Y-90229923D01*
X98673896Y-90427357D01*
X98563097Y-90644812D01*
X98487678Y-90876927D01*
X98449500Y-91117973D01*
X98449500Y-91362027D01*
X98487679Y-91603076D01*
X98563096Y-91835185D01*
X98600301Y-91908205D01*
X98673896Y-92052642D01*
X98817339Y-92250076D01*
X98817343Y-92250081D01*
X98989918Y-92422656D01*
X98989923Y-92422660D01*
X99075839Y-92485081D01*
X99187361Y-92566106D01*
X99404815Y-92676904D01*
X99636924Y-92752321D01*
X99877973Y-92790500D01*
X99877974Y-92790500D01*
X100122026Y-92790500D01*
X100122027Y-92790500D01*
X100363076Y-92752321D01*
X100595185Y-92676904D01*
X100812639Y-92566106D01*
X101010083Y-92422655D01*
X101182655Y-92250083D01*
X101326106Y-92052639D01*
X101399699Y-91908205D01*
X101447674Y-91857409D01*
X101510184Y-91840500D01*
X109507003Y-91840500D01*
X109574042Y-91860185D01*
X109594684Y-91876819D01*
X113225684Y-95507819D01*
X113259169Y-95569142D01*
X113254185Y-95638834D01*
X113212313Y-95694767D01*
X113146849Y-95719184D01*
X113138003Y-95719500D01*
X101674500Y-95719500D01*
X101607461Y-95699815D01*
X101561706Y-95647011D01*
X101550500Y-95595500D01*
X101550500Y-95469997D01*
X101550499Y-95469984D01*
X101539999Y-95367204D01*
X101539999Y-95367203D01*
X101484814Y-95200666D01*
X101392711Y-95051345D01*
X101268655Y-94927289D01*
X101268651Y-94927286D01*
X101119337Y-94835187D01*
X101119335Y-94835186D01*
X101036065Y-94807593D01*
X100952797Y-94780001D01*
X100952795Y-94780000D01*
X100850015Y-94769500D01*
X100850008Y-94769500D01*
X99149992Y-94769500D01*
X99149984Y-94769500D01*
X99047204Y-94780000D01*
X99047203Y-94780001D01*
X98880664Y-94835186D01*
X98880662Y-94835187D01*
X98731348Y-94927286D01*
X98731344Y-94927289D01*
X98607289Y-95051344D01*
X98607286Y-95051348D01*
X98515187Y-95200662D01*
X98515186Y-95200664D01*
X98460001Y-95367203D01*
X98460000Y-95367204D01*
X98449500Y-95469984D01*
X98449500Y-97170015D01*
X98460000Y-97272795D01*
X98460001Y-97272796D01*
X98515186Y-97439335D01*
X98515187Y-97439337D01*
X98607286Y-97588651D01*
X98607289Y-97588655D01*
X98731344Y-97712710D01*
X98731348Y-97712713D01*
X98880662Y-97804812D01*
X98880664Y-97804813D01*
X98880666Y-97804814D01*
X99047203Y-97859999D01*
X99149992Y-97870500D01*
X99149997Y-97870500D01*
X100850003Y-97870500D01*
X100850008Y-97870500D01*
X100952797Y-97859999D01*
X101119334Y-97804814D01*
X101268655Y-97712711D01*
X101392711Y-97588655D01*
X101484814Y-97439334D01*
X101539999Y-97272797D01*
X101550500Y-97170008D01*
X101550500Y-97044500D01*
X101570185Y-96977461D01*
X101622989Y-96931706D01*
X101674500Y-96920500D01*
X114019903Y-96920500D01*
X114086942Y-96940185D01*
X114107584Y-96956819D01*
X121461342Y-104310577D01*
X121494827Y-104371900D01*
X121489843Y-104441592D01*
X121447971Y-104497525D01*
X121382507Y-104521942D01*
X121359777Y-104521478D01*
X121080401Y-104490000D01*
X120799598Y-104490000D01*
X120520587Y-104521437D01*
X120520575Y-104521439D01*
X120246821Y-104583921D01*
X120246819Y-104583922D01*
X119981782Y-104676662D01*
X119728799Y-104798492D01*
X119491043Y-104947884D01*
X119357741Y-105054187D01*
X119999301Y-105695747D01*
X119897670Y-105769588D01*
X119719588Y-105947670D01*
X119645748Y-106049301D01*
X119004187Y-105407741D01*
X118897884Y-105541043D01*
X118748492Y-105778799D01*
X118626662Y-106031782D01*
X118533922Y-106296819D01*
X118533921Y-106296821D01*
X118471439Y-106570575D01*
X118471437Y-106570587D01*
X118440000Y-106849598D01*
X118440000Y-107130401D01*
X118471437Y-107409412D01*
X118471439Y-107409424D01*
X118533921Y-107683178D01*
X118533922Y-107683180D01*
X118626662Y-107948217D01*
X118748492Y-108201200D01*
X118897884Y-108438956D01*
X119004187Y-108572257D01*
X119645747Y-107930697D01*
X119719588Y-108032330D01*
X119897670Y-108210412D01*
X119999300Y-108284251D01*
X119357741Y-108925810D01*
X119357741Y-108925811D01*
X119491043Y-109032115D01*
X119728799Y-109181507D01*
X119981782Y-109303337D01*
X120246819Y-109396077D01*
X120246821Y-109396078D01*
X120520575Y-109458560D01*
X120520587Y-109458562D01*
X120799598Y-109489999D01*
X120799600Y-109490000D01*
X121080400Y-109490000D01*
X121080401Y-109489999D01*
X121359412Y-109458562D01*
X121359424Y-109458560D01*
X121633178Y-109396078D01*
X121633180Y-109396077D01*
X121898217Y-109303337D01*
X122151200Y-109181507D01*
X122388956Y-109032116D01*
X122522257Y-108925810D01*
X121880698Y-108284251D01*
X121982330Y-108210412D01*
X122160412Y-108032330D01*
X122234251Y-107930698D01*
X122875810Y-108572257D01*
X122982116Y-108438956D01*
X123131507Y-108201200D01*
X123253337Y-107948217D01*
X123346077Y-107683180D01*
X123346078Y-107683178D01*
X123408560Y-107409424D01*
X123408562Y-107409412D01*
X123439999Y-107130401D01*
X123440000Y-107130399D01*
X123440000Y-106849600D01*
X123439999Y-106849598D01*
X123408521Y-106570222D01*
X123420575Y-106501400D01*
X123467924Y-106450020D01*
X123535534Y-106432396D01*
X123601940Y-106454122D01*
X123619422Y-106468657D01*
X123865139Y-106714374D01*
X123865149Y-106714385D01*
X123869479Y-106718715D01*
X123869480Y-106718716D01*
X123981284Y-106830520D01*
X124039408Y-106864077D01*
X124068095Y-106880639D01*
X124068097Y-106880641D01*
X124106151Y-106902611D01*
X124118215Y-106909577D01*
X124270943Y-106950501D01*
X124270946Y-106950501D01*
X124436653Y-106950501D01*
X124436669Y-106950500D01*
X127725398Y-106950500D01*
X127792437Y-106970185D01*
X127835883Y-107018205D01*
X127842715Y-107031614D01*
X127963028Y-107197213D01*
X128107786Y-107341971D01*
X128262749Y-107454556D01*
X128273390Y-107462287D01*
X128353019Y-107502860D01*
X128455776Y-107555218D01*
X128455778Y-107555218D01*
X128455781Y-107555220D01*
X128560137Y-107589127D01*
X128650465Y-107618477D01*
X128732834Y-107631523D01*
X128852648Y-107650500D01*
X128852649Y-107650500D01*
X129057351Y-107650500D01*
X129057352Y-107650500D01*
X129259534Y-107618477D01*
X129454219Y-107555220D01*
X129636610Y-107462287D01*
X129730201Y-107394290D01*
X129802213Y-107341971D01*
X129802215Y-107341968D01*
X129802219Y-107341966D01*
X129946966Y-107197219D01*
X129999681Y-107124661D01*
X130055011Y-107081996D01*
X130124624Y-107076017D01*
X130186420Y-107108622D01*
X130200317Y-107124659D01*
X130234303Y-107171438D01*
X130253034Y-107197219D01*
X130397782Y-107341967D01*
X130397787Y-107341971D01*
X130447262Y-107377917D01*
X130489928Y-107433247D01*
X130495907Y-107502860D01*
X130463301Y-107564655D01*
X130402463Y-107599012D01*
X130354984Y-107600708D01*
X130347352Y-107599500D01*
X130142648Y-107599500D01*
X130135015Y-107600709D01*
X129940465Y-107631522D01*
X129745776Y-107694781D01*
X129563386Y-107787715D01*
X129397786Y-107908028D01*
X129253028Y-108052786D01*
X129132715Y-108218386D01*
X129039781Y-108400776D01*
X128976522Y-108595465D01*
X128944500Y-108797648D01*
X128944500Y-109002351D01*
X128976522Y-109204534D01*
X128981173Y-109218848D01*
X128983165Y-109288690D01*
X128950921Y-109344842D01*
X127932584Y-110363181D01*
X127871261Y-110396666D01*
X127844903Y-110399500D01*
X118300098Y-110399500D01*
X118233059Y-110379815D01*
X118212417Y-110363181D01*
X116814281Y-108965045D01*
X114783040Y-106933805D01*
X113992478Y-106143243D01*
X113958993Y-106081920D01*
X113962228Y-106017244D01*
X113962652Y-106015940D01*
X114012321Y-105863076D01*
X114050500Y-105622027D01*
X114050500Y-105377973D01*
X114012321Y-105136924D01*
X113936904Y-104904815D01*
X113826106Y-104687361D01*
X113771485Y-104612181D01*
X113682660Y-104489923D01*
X113682656Y-104489918D01*
X113510081Y-104317343D01*
X113510076Y-104317339D01*
X113312642Y-104173896D01*
X113312641Y-104173895D01*
X113312639Y-104173894D01*
X113095185Y-104063096D01*
X112863076Y-103987679D01*
X112863074Y-103987678D01*
X112863072Y-103987678D01*
X112688320Y-103960000D01*
X112622027Y-103949500D01*
X112377973Y-103949500D01*
X112322093Y-103958350D01*
X112136927Y-103987678D01*
X111904812Y-104063097D01*
X111687357Y-104173896D01*
X111489923Y-104317339D01*
X111489918Y-104317343D01*
X111317343Y-104489918D01*
X111317339Y-104489923D01*
X111173896Y-104687357D01*
X111063097Y-104904812D01*
X110987678Y-105136927D01*
X110949500Y-105377973D01*
X110949500Y-105622026D01*
X110974330Y-105778799D01*
X110987679Y-105863076D01*
X111063096Y-106095185D01*
X111166249Y-106297635D01*
X111173896Y-106312642D01*
X111317339Y-106510076D01*
X111317343Y-106510081D01*
X111489918Y-106682656D01*
X111489923Y-106682660D01*
X111608286Y-106768655D01*
X111687361Y-106826106D01*
X111904815Y-106936904D01*
X112136924Y-107012321D01*
X112377973Y-107050500D01*
X112377974Y-107050500D01*
X112622026Y-107050500D01*
X112622027Y-107050500D01*
X112863076Y-107012321D01*
X113017245Y-106962227D01*
X113087085Y-106960233D01*
X113143243Y-106992478D01*
X116838583Y-110687819D01*
X116872068Y-110749142D01*
X116867084Y-110818834D01*
X116825212Y-110874767D01*
X116759748Y-110899184D01*
X116750902Y-110899500D01*
X113720097Y-110899500D01*
X113653058Y-110879815D01*
X113632416Y-110863181D01*
X108912478Y-106143243D01*
X108878993Y-106081920D01*
X108882228Y-106017244D01*
X108882652Y-106015940D01*
X108932321Y-105863076D01*
X108970500Y-105622027D01*
X108970500Y-105377973D01*
X108932321Y-105136924D01*
X108856904Y-104904815D01*
X108746106Y-104687361D01*
X108691485Y-104612181D01*
X108602660Y-104489923D01*
X108602656Y-104489918D01*
X108430081Y-104317343D01*
X108430076Y-104317339D01*
X108232642Y-104173896D01*
X108232641Y-104173895D01*
X108232639Y-104173894D01*
X108015185Y-104063096D01*
X107783076Y-103987679D01*
X107783074Y-103987678D01*
X107783072Y-103987678D01*
X107608320Y-103960000D01*
X107542027Y-103949500D01*
X107297973Y-103949500D01*
X107242093Y-103958350D01*
X107056927Y-103987678D01*
X106824812Y-104063097D01*
X106607357Y-104173896D01*
X106409923Y-104317339D01*
X106409918Y-104317343D01*
X106237343Y-104489918D01*
X106237339Y-104489923D01*
X106093896Y-104687357D01*
X105983097Y-104904812D01*
X105907678Y-105136927D01*
X105869500Y-105377973D01*
X105869500Y-105622026D01*
X105894330Y-105778799D01*
X105907679Y-105863076D01*
X105983096Y-106095185D01*
X106086249Y-106297635D01*
X106093896Y-106312642D01*
X106237339Y-106510076D01*
X106237343Y-106510081D01*
X106409918Y-106682656D01*
X106409923Y-106682660D01*
X106528286Y-106768655D01*
X106607361Y-106826106D01*
X106824815Y-106936904D01*
X107056924Y-107012321D01*
X107297973Y-107050500D01*
X107297974Y-107050500D01*
X107542026Y-107050500D01*
X107542027Y-107050500D01*
X107783076Y-107012321D01*
X107937245Y-106962227D01*
X108007085Y-106960233D01*
X108063243Y-106992478D01*
X112758584Y-111687819D01*
X112792069Y-111749142D01*
X112787085Y-111818834D01*
X112745213Y-111874767D01*
X112679749Y-111899184D01*
X112670903Y-111899500D01*
X109640097Y-111899500D01*
X109573058Y-111879815D01*
X109552416Y-111863181D01*
X103832478Y-106143243D01*
X103798993Y-106081920D01*
X103802228Y-106017244D01*
X103802652Y-106015940D01*
X103852321Y-105863076D01*
X103890500Y-105622027D01*
X103890500Y-105377973D01*
X103852321Y-105136924D01*
X103776904Y-104904815D01*
X103666106Y-104687361D01*
X103611485Y-104612181D01*
X103522660Y-104489923D01*
X103522656Y-104489918D01*
X103350081Y-104317343D01*
X103350076Y-104317339D01*
X103152642Y-104173896D01*
X103152641Y-104173895D01*
X103152639Y-104173894D01*
X102935185Y-104063096D01*
X102703076Y-103987679D01*
X102703074Y-103987678D01*
X102703072Y-103987678D01*
X102528320Y-103960000D01*
X102462027Y-103949500D01*
X102217973Y-103949500D01*
X102162093Y-103958350D01*
X101976927Y-103987678D01*
X101744812Y-104063097D01*
X101527357Y-104173896D01*
X101329923Y-104317339D01*
X101329918Y-104317343D01*
X101157343Y-104489918D01*
X101157339Y-104489923D01*
X101013896Y-104687357D01*
X100903097Y-104904812D01*
X100827678Y-105136927D01*
X100789500Y-105377973D01*
X100789500Y-105622026D01*
X100814330Y-105778799D01*
X100827679Y-105863076D01*
X100903096Y-106095185D01*
X101006249Y-106297635D01*
X101013896Y-106312642D01*
X101157339Y-106510076D01*
X101157343Y-106510081D01*
X101329918Y-106682656D01*
X101329923Y-106682660D01*
X101448286Y-106768655D01*
X101527361Y-106826106D01*
X101744815Y-106936904D01*
X101976924Y-107012321D01*
X102217973Y-107050500D01*
X102217974Y-107050500D01*
X102462026Y-107050500D01*
X102462027Y-107050500D01*
X102703076Y-107012321D01*
X102857245Y-106962227D01*
X102927085Y-106960233D01*
X102983243Y-106992478D01*
X108178584Y-112187819D01*
X108212069Y-112249142D01*
X108207085Y-112318834D01*
X108165213Y-112374767D01*
X108099749Y-112399184D01*
X108090903Y-112399500D01*
X105060098Y-112399500D01*
X104993059Y-112379815D01*
X104972417Y-112363181D01*
X98846819Y-106237583D01*
X98813334Y-106176260D01*
X98810500Y-106149902D01*
X98810500Y-104649997D01*
X98810499Y-104649984D01*
X98810347Y-104648500D01*
X98799999Y-104547203D01*
X98744814Y-104380666D01*
X98725417Y-104349219D01*
X98652713Y-104231348D01*
X98652710Y-104231344D01*
X98528655Y-104107289D01*
X98528651Y-104107286D01*
X98379337Y-104015187D01*
X98379335Y-104015186D01*
X98296065Y-103987593D01*
X98212797Y-103960001D01*
X98212795Y-103960000D01*
X98110015Y-103949500D01*
X98110008Y-103949500D01*
X96409992Y-103949500D01*
X96409984Y-103949500D01*
X96307204Y-103960000D01*
X96307203Y-103960001D01*
X96140664Y-104015186D01*
X96140662Y-104015187D01*
X95991348Y-104107286D01*
X95991344Y-104107289D01*
X95867289Y-104231344D01*
X95867286Y-104231348D01*
X95775187Y-104380662D01*
X95775186Y-104380664D01*
X95720001Y-104547203D01*
X95720000Y-104547204D01*
X95709500Y-104649984D01*
X92400500Y-104649984D01*
X92400500Y-70797973D01*
X98449500Y-70797973D01*
X98449500Y-71042026D01*
X98487678Y-71283072D01*
X98563097Y-71515187D01*
X98673896Y-71732642D01*
X98817339Y-71930076D01*
X98817343Y-71930081D01*
X98989918Y-72102656D01*
X98989923Y-72102660D01*
X99162136Y-72227779D01*
X99187361Y-72246106D01*
X99404815Y-72356904D01*
X99636924Y-72432321D01*
X99877973Y-72470500D01*
X99877974Y-72470500D01*
X100122026Y-72470500D01*
X100122027Y-72470500D01*
X100363076Y-72432321D01*
X100595185Y-72356904D01*
X100812639Y-72246106D01*
X101010083Y-72102655D01*
X101182655Y-71930083D01*
X101326106Y-71732639D01*
X101436904Y-71515185D01*
X101512321Y-71283076D01*
X101550500Y-71042027D01*
X101550500Y-70797973D01*
X101512321Y-70556924D01*
X101436904Y-70324815D01*
X101326106Y-70107361D01*
X101264321Y-70022321D01*
X101182660Y-69909923D01*
X101182656Y-69909918D01*
X101010081Y-69737343D01*
X101010076Y-69737339D01*
X100812642Y-69593896D01*
X100812641Y-69593895D01*
X100812639Y-69593894D01*
X100595185Y-69483096D01*
X100363076Y-69407679D01*
X100363074Y-69407678D01*
X100363072Y-69407678D01*
X100194769Y-69381021D01*
X100122027Y-69369500D01*
X99877973Y-69369500D01*
X99822093Y-69378350D01*
X99636927Y-69407678D01*
X99404812Y-69483097D01*
X99187357Y-69593896D01*
X98989923Y-69737339D01*
X98989918Y-69737343D01*
X98817343Y-69909918D01*
X98817339Y-69909923D01*
X98673896Y-70107357D01*
X98563097Y-70324812D01*
X98487678Y-70556927D01*
X98449500Y-70797973D01*
X92400500Y-70797973D01*
X92400500Y-65717973D01*
X98449500Y-65717973D01*
X98449500Y-65962027D01*
X98487679Y-66203076D01*
X98563096Y-66435185D01*
X98672598Y-66650096D01*
X98673896Y-66652642D01*
X98817339Y-66850076D01*
X98817343Y-66850081D01*
X98989918Y-67022656D01*
X98989923Y-67022660D01*
X99162136Y-67147779D01*
X99187361Y-67166106D01*
X99404815Y-67276904D01*
X99636924Y-67352321D01*
X99877973Y-67390500D01*
X99877974Y-67390500D01*
X100122026Y-67390500D01*
X100122027Y-67390500D01*
X100363076Y-67352321D01*
X100595185Y-67276904D01*
X100812639Y-67166106D01*
X101010083Y-67022655D01*
X101182655Y-66850083D01*
X101326106Y-66652639D01*
X101436904Y-66435185D01*
X101512321Y-66203076D01*
X101550500Y-65962027D01*
X101550500Y-65717973D01*
X101512321Y-65476924D01*
X101436904Y-65244815D01*
X101326106Y-65027361D01*
X101264321Y-64942321D01*
X101182660Y-64829923D01*
X101182656Y-64829918D01*
X101010081Y-64657343D01*
X101010076Y-64657339D01*
X100812642Y-64513896D01*
X100812641Y-64513895D01*
X100812639Y-64513894D01*
X100595185Y-64403096D01*
X100363076Y-64327679D01*
X100363074Y-64327678D01*
X100363072Y-64327678D01*
X100194769Y-64301021D01*
X100122027Y-64289500D01*
X99877973Y-64289500D01*
X99822093Y-64298350D01*
X99636927Y-64327678D01*
X99404812Y-64403097D01*
X99187357Y-64513896D01*
X98989923Y-64657339D01*
X98989918Y-64657343D01*
X98817343Y-64829918D01*
X98817339Y-64829923D01*
X98673896Y-65027357D01*
X98563097Y-65244812D01*
X98487678Y-65476927D01*
X98449500Y-65717973D01*
X92400500Y-65717973D01*
X92400500Y-60637973D01*
X98449500Y-60637973D01*
X98449500Y-60882026D01*
X98483261Y-61095187D01*
X98487679Y-61123076D01*
X98563096Y-61355185D01*
X98642020Y-61510083D01*
X98673896Y-61572642D01*
X98817339Y-61770076D01*
X98817343Y-61770081D01*
X98989918Y-61942656D01*
X98989923Y-61942660D01*
X99123900Y-62039999D01*
X99187361Y-62086106D01*
X99404815Y-62196904D01*
X99636924Y-62272321D01*
X99877973Y-62310500D01*
X99877974Y-62310500D01*
X100122026Y-62310500D01*
X100122027Y-62310500D01*
X100363076Y-62272321D01*
X100595185Y-62196904D01*
X100812639Y-62086106D01*
X101010083Y-61942655D01*
X101182655Y-61770083D01*
X101326106Y-61572639D01*
X101436904Y-61355185D01*
X101512321Y-61123076D01*
X101550500Y-60882027D01*
X101550500Y-60637973D01*
X101512321Y-60396924D01*
X101436904Y-60164815D01*
X101326106Y-59947361D01*
X101295195Y-59904815D01*
X101182660Y-59749923D01*
X101182656Y-59749918D01*
X101010081Y-59577343D01*
X101010076Y-59577339D01*
X100812642Y-59433896D01*
X100812641Y-59433895D01*
X100812639Y-59433894D01*
X100595185Y-59323096D01*
X100363076Y-59247679D01*
X100363074Y-59247678D01*
X100363072Y-59247678D01*
X100194769Y-59221021D01*
X100122027Y-59209500D01*
X99877973Y-59209500D01*
X99822093Y-59218350D01*
X99636927Y-59247678D01*
X99404812Y-59323097D01*
X99187357Y-59433896D01*
X98989923Y-59577339D01*
X98989918Y-59577343D01*
X98817343Y-59749918D01*
X98817339Y-59749923D01*
X98673896Y-59947357D01*
X98563097Y-60164812D01*
X98487678Y-60396927D01*
X98449500Y-60637973D01*
X92400500Y-60637973D01*
X92400500Y-55557973D01*
X98449500Y-55557973D01*
X98449500Y-55802026D01*
X98487678Y-56043072D01*
X98563097Y-56275187D01*
X98673896Y-56492642D01*
X98817339Y-56690076D01*
X98817343Y-56690081D01*
X98989918Y-56862656D01*
X98989923Y-56862660D01*
X99162136Y-56987779D01*
X99187361Y-57006106D01*
X99404815Y-57116904D01*
X99636924Y-57192321D01*
X99877973Y-57230500D01*
X99877974Y-57230500D01*
X100122026Y-57230500D01*
X100122027Y-57230500D01*
X100363076Y-57192321D01*
X100595185Y-57116904D01*
X100812639Y-57006106D01*
X101010083Y-56862655D01*
X101182655Y-56690083D01*
X101326106Y-56492639D01*
X101436904Y-56275185D01*
X101512321Y-56043076D01*
X101550500Y-55802027D01*
X101550500Y-55557973D01*
X101512321Y-55316924D01*
X101436904Y-55084815D01*
X101326106Y-54867361D01*
X101284430Y-54809999D01*
X101182660Y-54669923D01*
X101182656Y-54669918D01*
X101010081Y-54497343D01*
X101010076Y-54497339D01*
X100812642Y-54353896D01*
X100812641Y-54353895D01*
X100812639Y-54353894D01*
X100595185Y-54243096D01*
X100363076Y-54167679D01*
X100363074Y-54167678D01*
X100363072Y-54167678D01*
X100194769Y-54141021D01*
X100122027Y-54129500D01*
X99877973Y-54129500D01*
X99822093Y-54138350D01*
X99636927Y-54167678D01*
X99404812Y-54243097D01*
X99187357Y-54353896D01*
X98989923Y-54497339D01*
X98989918Y-54497343D01*
X98817343Y-54669918D01*
X98817339Y-54669923D01*
X98673896Y-54867357D01*
X98563097Y-55084812D01*
X98487678Y-55316927D01*
X98449500Y-55557973D01*
X92400500Y-55557973D01*
X92400500Y-50477973D01*
X98449500Y-50477973D01*
X98449500Y-50722026D01*
X98487678Y-50963072D01*
X98563097Y-51195187D01*
X98673896Y-51412642D01*
X98817339Y-51610076D01*
X98817343Y-51610081D01*
X98989918Y-51782656D01*
X98989923Y-51782660D01*
X99120166Y-51877286D01*
X99187361Y-51926106D01*
X99404815Y-52036904D01*
X99636924Y-52112321D01*
X99877973Y-52150500D01*
X99877974Y-52150500D01*
X100122026Y-52150500D01*
X100122027Y-52150500D01*
X100363076Y-52112321D01*
X100595185Y-52036904D01*
X100812639Y-51926106D01*
X101010083Y-51782655D01*
X101182655Y-51610083D01*
X101326106Y-51412639D01*
X101436904Y-51195185D01*
X101512321Y-50963076D01*
X101550500Y-50722027D01*
X101550500Y-50477973D01*
X101512321Y-50236924D01*
X101436904Y-50004815D01*
X101326106Y-49787361D01*
X101307779Y-49762136D01*
X101182660Y-49589923D01*
X101182656Y-49589918D01*
X101010081Y-49417343D01*
X101010076Y-49417339D01*
X100812642Y-49273896D01*
X100812641Y-49273895D01*
X100812639Y-49273894D01*
X100595185Y-49163096D01*
X100363076Y-49087679D01*
X100363074Y-49087678D01*
X100363072Y-49087678D01*
X100194769Y-49061021D01*
X100122027Y-49049500D01*
X99877973Y-49049500D01*
X99822093Y-49058350D01*
X99636927Y-49087678D01*
X99404812Y-49163097D01*
X99187357Y-49273896D01*
X98989923Y-49417339D01*
X98989918Y-49417343D01*
X98817343Y-49589918D01*
X98817339Y-49589923D01*
X98673896Y-49787357D01*
X98563097Y-50004812D01*
X98487678Y-50236927D01*
X98449500Y-50477973D01*
X92400500Y-50477973D01*
X92400500Y-45774500D01*
X92420185Y-45707461D01*
X92472989Y-45661706D01*
X92524500Y-45650500D01*
X180475500Y-45650500D01*
X180542539Y-45670185D01*
G37*
G04 #@! TD.AperFunction*
M02*
