G04 #@! TF.GenerationSoftware,KiCad,Pcbnew,9.0.4*
G04 #@! TF.CreationDate,2025-12-21T18:46:57-05:00*
G04 #@! TF.ProjectId,DB44_breakout,44423434-5f62-4726-9561-6b6f75742e6b,rev?*
G04 #@! TF.SameCoordinates,Original*
G04 #@! TF.FileFunction,Copper,L1,Top*
G04 #@! TF.FilePolarity,Positive*
%FSLAX46Y46*%
G04 Gerber Fmt 4.6, Leading zero omitted, Abs format (unit mm)*
G04 Created by KiCad (PCBNEW 9.0.4) date 2025-12-21 18:46:57*
%MOMM*%
%LPD*%
G01*
G04 APERTURE LIST*
G04 Aperture macros list*
%AMRoundRect*
0 Rectangle with rounded corners*
0 $1 Rounding radius*
0 $2 $3 $4 $5 $6 $7 $8 $9 X,Y pos of 4 corners*
0 Add a 4 corners polygon primitive as box body*
4,1,4,$2,$3,$4,$5,$6,$7,$8,$9,$2,$3,0*
0 Add four circle primitives for the rounded corners*
1,1,$1+$1,$2,$3*
1,1,$1+$1,$4,$5*
1,1,$1+$1,$6,$7*
1,1,$1+$1,$8,$9*
0 Add four rect primitives between the rounded corners*
20,1,$1+$1,$2,$3,$4,$5,0*
20,1,$1+$1,$4,$5,$6,$7,0*
20,1,$1+$1,$6,$7,$8,$9,0*
20,1,$1+$1,$8,$9,$2,$3,0*%
G04 Aperture macros list end*
G04 #@! TA.AperFunction,ComponentPad*
%ADD10C,4.000000*%
G04 #@! TD*
G04 #@! TA.AperFunction,ComponentPad*
%ADD11R,1.600000X1.600000*%
G04 #@! TD*
G04 #@! TA.AperFunction,ComponentPad*
%ADD12C,1.600000*%
G04 #@! TD*
G04 #@! TA.AperFunction,ComponentPad*
%ADD13C,2.100000*%
G04 #@! TD*
G04 #@! TA.AperFunction,ComponentPad*
%ADD14RoundRect,0.250001X0.799999X-0.799999X0.799999X0.799999X-0.799999X0.799999X-0.799999X-0.799999X0*%
G04 #@! TD*
G04 #@! TA.AperFunction,ComponentPad*
%ADD15RoundRect,0.250001X-0.799999X-0.799999X0.799999X-0.799999X0.799999X0.799999X-0.799999X0.799999X0*%
G04 #@! TD*
G04 #@! TA.AperFunction,ComponentPad*
%ADD16RoundRect,0.250001X-0.799999X0.799999X-0.799999X-0.799999X0.799999X-0.799999X0.799999X0.799999X0*%
G04 #@! TD*
G04 #@! TA.AperFunction,ViaPad*
%ADD17C,0.450000*%
G04 #@! TD*
G04 #@! TA.AperFunction,ViaPad*
%ADD18C,0.600000*%
G04 #@! TD*
G04 #@! TA.AperFunction,Conductor*
%ADD19C,0.200000*%
G04 #@! TD*
G04 APERTURE END LIST*
D10*
X120940000Y-106990000D03*
X168040000Y-106990000D03*
D11*
X160015000Y-105100000D03*
D12*
X157725000Y-105100000D03*
X155435000Y-105100000D03*
X153145000Y-105100000D03*
X150855000Y-105100000D03*
X148565000Y-105100000D03*
X146275000Y-105100000D03*
X143985000Y-105100000D03*
X141695000Y-105100000D03*
X139405000Y-105100000D03*
X137115000Y-105100000D03*
X134825000Y-105100000D03*
X132535000Y-105100000D03*
X130245000Y-105100000D03*
X127955000Y-105100000D03*
X161160000Y-107000000D03*
X158870000Y-107000000D03*
X156580000Y-107000000D03*
X154290000Y-107000000D03*
X152000000Y-107000000D03*
X149710000Y-107000000D03*
X147420000Y-107000000D03*
X145130000Y-107000000D03*
X142840000Y-107000000D03*
X140550000Y-107000000D03*
X138260000Y-107000000D03*
X135970000Y-107000000D03*
X133680000Y-107000000D03*
X131390000Y-107000000D03*
X129100000Y-107000000D03*
X160015000Y-108900000D03*
X157725000Y-108900000D03*
X155435000Y-108900000D03*
X153145000Y-108900000D03*
X150855000Y-108900000D03*
X148565000Y-108900000D03*
X146275000Y-108900000D03*
X143985000Y-108900000D03*
X141695000Y-108900000D03*
X139405000Y-108900000D03*
X137115000Y-108900000D03*
X134825000Y-108900000D03*
X132535000Y-108900000D03*
X130245000Y-108900000D03*
D13*
X100000000Y-50600000D03*
X100000000Y-55680000D03*
X100000000Y-60760000D03*
X100000000Y-65840000D03*
X100000000Y-70920000D03*
X100000000Y-76000000D03*
X100000000Y-81080000D03*
X100000000Y-86160000D03*
X100000000Y-91240000D03*
D14*
X100000000Y-96320000D03*
D15*
X97260000Y-105500000D03*
D13*
X102340000Y-105500000D03*
X107420000Y-105500000D03*
X112500000Y-105500000D03*
D15*
X116260000Y-60500000D03*
D13*
X121340000Y-60500000D03*
X126420000Y-60500000D03*
X131500000Y-60500000D03*
X136580000Y-60500000D03*
X141660000Y-60500000D03*
X146740000Y-60500000D03*
X151820000Y-60500000D03*
X156900000Y-60500000D03*
X161980000Y-60500000D03*
D16*
X172000000Y-53270000D03*
D13*
X172000000Y-58350000D03*
X172000000Y-63430000D03*
X172000000Y-68510000D03*
X172000000Y-73590000D03*
X172000000Y-78670000D03*
X172000000Y-83750000D03*
X172000000Y-88830000D03*
X172000000Y-93910000D03*
X172000000Y-98990000D03*
D15*
X116260000Y-81360000D03*
D13*
X121340000Y-81360000D03*
X126420000Y-81360000D03*
X131500000Y-81360000D03*
X136580000Y-81360000D03*
X141660000Y-81360000D03*
X146740000Y-81360000D03*
X151820000Y-81360000D03*
X156900000Y-81360000D03*
X161980000Y-81360000D03*
D17*
X140000000Y-111000000D03*
D18*
X170500000Y-109500000D03*
X118000000Y-105000000D03*
D17*
X106000000Y-74000000D03*
X112500000Y-84500000D03*
D18*
X116750000Y-91240000D03*
D17*
X119000000Y-92500000D03*
X126500000Y-92500000D03*
X134500000Y-100500000D03*
X175000000Y-109000000D03*
X175000000Y-104643617D03*
X115000000Y-102500000D03*
X125500000Y-108000000D03*
X107000000Y-102474204D03*
X100000000Y-102500000D03*
X119000000Y-96500000D03*
X175500000Y-80500000D03*
X175500000Y-98500000D03*
X175500000Y-90000000D03*
X175500000Y-72500000D03*
X175500000Y-64000000D03*
X175500000Y-54500000D03*
X97000000Y-87820000D03*
X97000000Y-96320000D03*
X97000000Y-78320000D03*
X97000000Y-61820000D03*
X97000000Y-52320000D03*
X97000000Y-70320000D03*
X162500000Y-95000000D03*
X150000000Y-87500000D03*
X147000000Y-89500000D03*
X146000000Y-95500000D03*
X141500000Y-91000000D03*
X135000000Y-88000000D03*
X150000000Y-69000000D03*
X158000000Y-69000000D03*
X146500000Y-69000000D03*
X116000000Y-69000000D03*
X161500000Y-69000000D03*
X153500000Y-69061962D03*
X142000000Y-69000000D03*
X121500000Y-68894284D03*
X110500000Y-68782498D03*
X127500000Y-69000000D03*
X135500000Y-69000000D03*
X145000000Y-51500000D03*
X154500000Y-51500000D03*
X162500000Y-51500000D03*
X110500000Y-51500000D03*
X136500000Y-51500000D03*
X119000000Y-51500000D03*
X128500000Y-51500000D03*
D18*
X166100000Y-101000000D03*
X155600000Y-101500000D03*
X152600000Y-102000000D03*
X154290000Y-88910000D03*
X148801765Y-102198235D03*
X146000000Y-102500000D03*
X139500000Y-102500000D03*
X118000000Y-83000000D03*
X132500000Y-102500000D03*
X114160000Y-86160000D03*
D19*
X170500000Y-109500000D02*
X170500000Y-109450000D01*
X170500000Y-109450000D02*
X168040000Y-106990000D01*
X118950000Y-105000000D02*
X118000000Y-105000000D01*
X120940000Y-106990000D02*
X118950000Y-105000000D01*
X111750000Y-85250000D02*
X117391000Y-90891000D01*
X100520000Y-60760000D02*
X111750000Y-71990000D01*
X132350000Y-105100000D02*
X132535000Y-105100000D01*
X111750000Y-71990000D02*
X111750000Y-85250000D01*
X117391000Y-90891000D02*
X118253390Y-90891000D01*
X100000000Y-60760000D02*
X100520000Y-60760000D01*
X118253390Y-90891000D02*
X130867150Y-103504760D01*
X131791000Y-104521850D02*
X131791000Y-104541000D01*
X130867150Y-103504760D02*
X130867150Y-103598000D01*
X130867150Y-103598000D02*
X131791000Y-104521850D01*
X131791000Y-104541000D02*
X132350000Y-105100000D01*
X151820000Y-81360000D02*
X156580000Y-86120000D01*
X156580000Y-86120000D02*
X156580000Y-107000000D01*
X157725000Y-105100000D02*
X158037781Y-104787219D01*
X158037781Y-104787219D02*
X158037781Y-84408383D01*
X158037781Y-84408383D02*
X157564699Y-83935301D01*
X156900000Y-60500000D02*
X155500000Y-61900000D01*
X155500000Y-61900000D02*
X155500000Y-63582000D01*
X155500000Y-63582000D02*
X155549000Y-63631000D01*
X155549000Y-63631000D02*
X155549000Y-81919603D01*
X155549000Y-81919603D02*
X157564699Y-83935301D01*
X160015000Y-105100000D02*
X160015000Y-62465000D01*
X160015000Y-62465000D02*
X161980000Y-60500000D01*
X146275000Y-105100000D02*
X146275000Y-104775000D01*
X146275000Y-104775000D02*
X129000000Y-87500000D01*
X129000000Y-87500000D02*
X129000000Y-63000000D01*
X129000000Y-63000000D02*
X131500000Y-60500000D01*
X126420000Y-60500000D02*
X126420000Y-60860000D01*
X126420000Y-60860000D02*
X125000000Y-62280000D01*
X125000000Y-62280000D02*
X125000000Y-85545000D01*
X125000000Y-85545000D02*
X143985000Y-104530000D01*
X143985000Y-104530000D02*
X143985000Y-105100000D01*
X141695000Y-105100000D02*
X141695000Y-103695000D01*
X141695000Y-103695000D02*
X118500000Y-80500000D01*
X118500000Y-80500000D02*
X118500000Y-63340000D01*
X118500000Y-63340000D02*
X121340000Y-60500000D01*
X116260000Y-60500000D02*
X116820000Y-60500000D01*
X116820000Y-60500000D02*
X117430000Y-61110000D01*
X134825000Y-105100000D02*
X134081000Y-105100000D01*
X133158150Y-103599000D02*
X132166100Y-103599000D01*
X134081000Y-105100000D02*
X134081000Y-104521850D01*
X113250000Y-68740000D02*
X100190000Y-55680000D01*
X132166100Y-103599000D02*
X114761000Y-86193900D01*
X114761000Y-86193900D02*
X114761000Y-85078100D01*
X114761000Y-85078100D02*
X113599000Y-83916100D01*
X113599000Y-83916100D02*
X113599000Y-83849000D01*
X134081000Y-104521850D02*
X133158150Y-103599000D01*
X100190000Y-55680000D02*
X100000000Y-55680000D01*
X113250000Y-83500000D02*
X113250000Y-68740000D01*
X113599000Y-83849000D02*
X113250000Y-83500000D01*
X137115000Y-105100000D02*
X135557950Y-103542950D01*
X133324250Y-103198000D02*
X132332200Y-103198000D01*
X100610000Y-50600000D02*
X100000000Y-50600000D01*
X135557950Y-103542950D02*
X133669200Y-103542950D01*
X132332200Y-103198000D02*
X115250000Y-86115800D01*
X133669200Y-103542950D02*
X133324250Y-103198000D01*
X115250000Y-86115800D02*
X115250000Y-85000000D01*
X115250000Y-85000000D02*
X114000000Y-83750000D01*
X114000000Y-83750000D02*
X114000000Y-63990000D01*
X114000000Y-63990000D02*
X100610000Y-50600000D01*
X165260000Y-60010000D02*
X172000000Y-53270000D01*
X163500000Y-106217050D02*
X163500000Y-64250000D01*
X165260000Y-62490000D02*
X163500000Y-64250000D01*
X165260000Y-60010000D02*
X165260000Y-62490000D01*
X160015000Y-108900000D02*
X160817050Y-108900000D01*
X160817050Y-108900000D02*
X163500000Y-106217050D01*
X148801765Y-102198235D02*
X148500000Y-102500000D01*
X148500000Y-102500000D02*
X146000000Y-102500000D01*
X149710000Y-107000000D02*
X149710000Y-104522100D01*
X149710000Y-104522100D02*
X149500000Y-104312100D01*
X149500000Y-104312100D02*
X149500000Y-94280000D01*
X149500000Y-94280000D02*
X136580000Y-81360000D01*
X152600000Y-102000000D02*
X153100000Y-101500000D01*
X153100000Y-101500000D02*
X155600000Y-101500000D01*
X172000000Y-98990000D02*
X168110000Y-98990000D01*
X168110000Y-98990000D02*
X166100000Y-101000000D01*
X150855000Y-108900000D02*
X153159000Y-111204000D01*
X160969350Y-111204000D02*
X165500000Y-106673350D01*
X165500000Y-106673350D02*
X165500000Y-80090000D01*
X153159000Y-111204000D02*
X160969350Y-111204000D01*
X165500000Y-80090000D02*
X172000000Y-73590000D01*
X153145000Y-108900000D02*
X155048000Y-110803000D01*
X155048000Y-110803000D02*
X160803250Y-110803000D01*
X165000000Y-75510000D02*
X172000000Y-68510000D01*
X160803250Y-110803000D02*
X165000000Y-106606250D01*
X165000000Y-106606250D02*
X165000000Y-75510000D01*
X155435000Y-108900000D02*
X156937000Y-110402000D01*
X160637150Y-110402000D02*
X164500000Y-106539150D01*
X156937000Y-110402000D02*
X160637150Y-110402000D01*
X164500000Y-106539150D02*
X164500000Y-70930000D01*
X164500000Y-70930000D02*
X172000000Y-63430000D01*
X157725000Y-108900000D02*
X158826000Y-110001000D01*
X158826000Y-110001000D02*
X160471050Y-110001000D01*
X160471050Y-110001000D02*
X164000000Y-106472050D01*
X164000000Y-66350000D02*
X172000000Y-58350000D01*
X164000000Y-106472050D02*
X164000000Y-66350000D01*
X161980000Y-81360000D02*
X161500000Y-81840000D01*
X161500000Y-81840000D02*
X161500000Y-106660000D01*
X161500000Y-106660000D02*
X161160000Y-107000000D01*
X156900000Y-81360000D02*
X158870000Y-83330000D01*
X158870000Y-83330000D02*
X158870000Y-107000000D01*
X157725000Y-84095603D02*
X157564699Y-83935301D01*
X131500000Y-81360000D02*
X131500000Y-89000000D01*
X131500000Y-89000000D02*
X146347100Y-103847100D01*
X146347100Y-103847100D02*
X146745000Y-103847100D01*
X146745000Y-103847100D02*
X147420000Y-104522100D01*
X147420000Y-104522100D02*
X147420000Y-107000000D01*
X136000000Y-102500000D02*
X139500000Y-102500000D01*
X121340000Y-81360000D02*
X121340000Y-81840000D01*
X121340000Y-81840000D02*
X124599000Y-85099000D01*
X124599000Y-85099000D02*
X124599000Y-85711100D01*
X124599000Y-85711100D02*
X142840000Y-103952100D01*
X142840000Y-103952100D02*
X142840000Y-107000000D01*
X132500000Y-102500000D02*
X136000000Y-102500000D01*
X100000000Y-65840000D02*
X110500000Y-76340000D01*
X110500000Y-76340000D02*
X110500000Y-86000000D01*
X110500000Y-86000000D02*
X129600000Y-105100000D01*
X129600000Y-105100000D02*
X130245000Y-105100000D01*
X132000000Y-104000000D02*
X114160000Y-86160000D01*
X132000000Y-104000000D02*
X132992050Y-104000000D01*
X132992050Y-104000000D02*
X133680000Y-104687950D01*
X133680000Y-104687950D02*
X133680000Y-107000000D01*
X130701050Y-103999000D02*
X130501000Y-103999000D01*
X130501000Y-103999000D02*
X130500000Y-104000000D01*
X131390000Y-107000000D02*
X131390000Y-104687950D01*
X131390000Y-104687950D02*
X130701050Y-103999000D01*
X146740000Y-81360000D02*
X154290000Y-88910000D01*
X152000000Y-107000000D02*
X152000000Y-91700000D01*
X152000000Y-91700000D02*
X141660000Y-81360000D01*
X145130000Y-107000000D02*
X145130000Y-104522100D01*
X126420000Y-85812100D02*
X126420000Y-81360000D01*
X145130000Y-104522100D02*
X126420000Y-85812100D01*
X118000000Y-61680000D02*
X117430000Y-61110000D01*
X118000000Y-83000000D02*
X118000000Y-61680000D01*
X100000000Y-70920000D02*
X100430000Y-70920000D01*
X100430000Y-70920000D02*
X108250000Y-78740000D01*
X108250000Y-78740000D02*
X108250000Y-88655000D01*
X124695000Y-105100000D02*
X127955000Y-105100000D01*
X108250000Y-88655000D02*
X124695000Y-105100000D01*
X100000000Y-96320000D02*
X113524106Y-96320000D01*
X113524106Y-96320000D02*
X124204106Y-107000000D01*
X124204106Y-107000000D02*
X129100000Y-107000000D01*
X97260000Y-105500000D02*
X102562000Y-110802000D01*
X102562000Y-110802000D02*
X135213000Y-110802000D01*
X135213000Y-110802000D02*
X137115000Y-108900000D01*
X102340000Y-105500000D02*
X107241000Y-110401000D01*
X107241000Y-110401000D02*
X133324000Y-110401000D01*
X133324000Y-110401000D02*
X134825000Y-108900000D01*
X107420000Y-105500000D02*
X111920000Y-110000000D01*
X131435000Y-110000000D02*
X132535000Y-108900000D01*
X111920000Y-110000000D02*
X131435000Y-110000000D01*
X112500000Y-105500000D02*
X116291000Y-109291000D01*
X129854000Y-109291000D02*
X130245000Y-108900000D01*
X116291000Y-109291000D02*
X129854000Y-109291000D01*
X117430000Y-61110000D02*
X117611000Y-61291000D01*
X129509000Y-103999000D02*
X130701050Y-103999000D01*
X116750000Y-91240000D02*
X129509000Y-103999000D01*
G04 #@! TA.AperFunction,Conductor*
G36*
X180542539Y-45670185D02*
G01*
X180588294Y-45722989D01*
X180599500Y-45774500D01*
X180599500Y-111475500D01*
X180579815Y-111542539D01*
X180527011Y-111588294D01*
X180475500Y-111599500D01*
X161722446Y-111599500D01*
X161655407Y-111579815D01*
X161609652Y-111527011D01*
X161599708Y-111457853D01*
X161628733Y-111394297D01*
X161634765Y-111387819D01*
X162581264Y-110441320D01*
X165420548Y-107602036D01*
X165481868Y-107568554D01*
X165551560Y-107573538D01*
X165607493Y-107615410D01*
X165629117Y-107662128D01*
X165633920Y-107683174D01*
X165633922Y-107683180D01*
X165726662Y-107948217D01*
X165848492Y-108201200D01*
X165997884Y-108438956D01*
X166104187Y-108572257D01*
X166745747Y-107930697D01*
X166819588Y-108032330D01*
X166997670Y-108210412D01*
X167099300Y-108284251D01*
X166457741Y-108925810D01*
X166457741Y-108925811D01*
X166591043Y-109032115D01*
X166828799Y-109181507D01*
X167081782Y-109303337D01*
X167346819Y-109396077D01*
X167346821Y-109396078D01*
X167620575Y-109458560D01*
X167620587Y-109458562D01*
X167899598Y-109489999D01*
X167899600Y-109490000D01*
X168180400Y-109490000D01*
X168180401Y-109489999D01*
X168459412Y-109458562D01*
X168459424Y-109458560D01*
X168733178Y-109396078D01*
X168733180Y-109396077D01*
X168998217Y-109303337D01*
X169251200Y-109181507D01*
X169488956Y-109032116D01*
X169622257Y-108925810D01*
X168980698Y-108284251D01*
X169082330Y-108210412D01*
X169260412Y-108032330D01*
X169334251Y-107930698D01*
X169975810Y-108572257D01*
X170082116Y-108438956D01*
X170231507Y-108201200D01*
X170353337Y-107948217D01*
X170446077Y-107683180D01*
X170446078Y-107683178D01*
X170508560Y-107409424D01*
X170508562Y-107409412D01*
X170539999Y-107130401D01*
X170540000Y-107130399D01*
X170540000Y-106849600D01*
X170539999Y-106849598D01*
X170508562Y-106570587D01*
X170508560Y-106570575D01*
X170446078Y-106296821D01*
X170446077Y-106296819D01*
X170353337Y-106031782D01*
X170231507Y-105778799D01*
X170082115Y-105541043D01*
X169975810Y-105407741D01*
X169334251Y-106049300D01*
X169260412Y-105947670D01*
X169082330Y-105769588D01*
X168980697Y-105695747D01*
X169622257Y-105054187D01*
X169488956Y-104947884D01*
X169251200Y-104798492D01*
X168998217Y-104676662D01*
X168733180Y-104583922D01*
X168733178Y-104583921D01*
X168459424Y-104521439D01*
X168459412Y-104521437D01*
X168180401Y-104490000D01*
X167899598Y-104490000D01*
X167620587Y-104521437D01*
X167620575Y-104521439D01*
X167346821Y-104583921D01*
X167346819Y-104583922D01*
X167081782Y-104676662D01*
X166828799Y-104798492D01*
X166591043Y-104947884D01*
X166457741Y-105054187D01*
X167099301Y-105695747D01*
X166997670Y-105769588D01*
X166819588Y-105947670D01*
X166745747Y-106049301D01*
X166136819Y-105440373D01*
X166103334Y-105379050D01*
X166100500Y-105352692D01*
X166100500Y-101917847D01*
X166120185Y-101850808D01*
X166172989Y-101805053D01*
X166200309Y-101796230D01*
X166228602Y-101790602D01*
X166333497Y-101769737D01*
X166479179Y-101709394D01*
X166610289Y-101621789D01*
X166721789Y-101510289D01*
X166809394Y-101379179D01*
X166869737Y-101233497D01*
X166900500Y-101078842D01*
X166900638Y-101078150D01*
X166933023Y-101016239D01*
X166934518Y-101014716D01*
X168322416Y-99626819D01*
X168383739Y-99593334D01*
X168410097Y-99590500D01*
X170489816Y-99590500D01*
X170556855Y-99610185D01*
X170600301Y-99658205D01*
X170673896Y-99802642D01*
X170817339Y-100000076D01*
X170817343Y-100000081D01*
X170989918Y-100172656D01*
X170989923Y-100172660D01*
X171162136Y-100297779D01*
X171187361Y-100316106D01*
X171404815Y-100426904D01*
X171636924Y-100502321D01*
X171877973Y-100540500D01*
X171877974Y-100540500D01*
X172122026Y-100540500D01*
X172122027Y-100540500D01*
X172363076Y-100502321D01*
X172595185Y-100426904D01*
X172812639Y-100316106D01*
X173010083Y-100172655D01*
X173182655Y-100000083D01*
X173326106Y-99802639D01*
X173436904Y-99585185D01*
X173512321Y-99353076D01*
X173550500Y-99112027D01*
X173550500Y-98867973D01*
X173512321Y-98626924D01*
X173436904Y-98394815D01*
X173326106Y-98177361D01*
X173307779Y-98152136D01*
X173182660Y-97979923D01*
X173182656Y-97979918D01*
X173010081Y-97807343D01*
X173010076Y-97807339D01*
X172812642Y-97663896D01*
X172812641Y-97663895D01*
X172812639Y-97663894D01*
X172595185Y-97553096D01*
X172363076Y-97477679D01*
X172363074Y-97477678D01*
X172363072Y-97477678D01*
X172194769Y-97451021D01*
X172122027Y-97439500D01*
X171877973Y-97439500D01*
X171822093Y-97448350D01*
X171636927Y-97477678D01*
X171404812Y-97553097D01*
X171187357Y-97663896D01*
X170989923Y-97807339D01*
X170989918Y-97807343D01*
X170817343Y-97979918D01*
X170817339Y-97979923D01*
X170673896Y-98177357D01*
X170600301Y-98321795D01*
X170552326Y-98372591D01*
X170489816Y-98389500D01*
X168189057Y-98389500D01*
X168030942Y-98389500D01*
X167878215Y-98430423D01*
X167878214Y-98430423D01*
X167878212Y-98430424D01*
X167878209Y-98430425D01*
X167828096Y-98459359D01*
X167828095Y-98459360D01*
X167784689Y-98484420D01*
X167741285Y-98509479D01*
X167741282Y-98509481D01*
X166312181Y-99938583D01*
X166250858Y-99972068D01*
X166181166Y-99967084D01*
X166125233Y-99925212D01*
X166100816Y-99859748D01*
X166100500Y-99850902D01*
X166100500Y-93787973D01*
X170449500Y-93787973D01*
X170449500Y-94032027D01*
X170487679Y-94273076D01*
X170563096Y-94505185D01*
X170601265Y-94580097D01*
X170673896Y-94722642D01*
X170817339Y-94920076D01*
X170817343Y-94920081D01*
X170989918Y-95092656D01*
X170989923Y-95092660D01*
X171138576Y-95200662D01*
X171187361Y-95236106D01*
X171404815Y-95346904D01*
X171636924Y-95422321D01*
X171877973Y-95460500D01*
X171877974Y-95460500D01*
X172122026Y-95460500D01*
X172122027Y-95460500D01*
X172363076Y-95422321D01*
X172595185Y-95346904D01*
X172812639Y-95236106D01*
X173010083Y-95092655D01*
X173182655Y-94920083D01*
X173326106Y-94722639D01*
X173436904Y-94505185D01*
X173512321Y-94273076D01*
X173550500Y-94032027D01*
X173550500Y-93787973D01*
X173512321Y-93546924D01*
X173436904Y-93314815D01*
X173326106Y-93097361D01*
X173307779Y-93072136D01*
X173182660Y-92899923D01*
X173182656Y-92899918D01*
X173010081Y-92727343D01*
X173010076Y-92727339D01*
X172812642Y-92583896D01*
X172812641Y-92583895D01*
X172812639Y-92583894D01*
X172595185Y-92473096D01*
X172363076Y-92397679D01*
X172363074Y-92397678D01*
X172363072Y-92397678D01*
X172194769Y-92371021D01*
X172122027Y-92359500D01*
X171877973Y-92359500D01*
X171822093Y-92368350D01*
X171636927Y-92397678D01*
X171404812Y-92473097D01*
X171187357Y-92583896D01*
X170989923Y-92727339D01*
X170989918Y-92727343D01*
X170817343Y-92899918D01*
X170817339Y-92899923D01*
X170673896Y-93097357D01*
X170563097Y-93314812D01*
X170487678Y-93546927D01*
X170449500Y-93787973D01*
X166100500Y-93787973D01*
X166100500Y-88707973D01*
X170449500Y-88707973D01*
X170449500Y-88952027D01*
X170454878Y-88985983D01*
X170479682Y-89142590D01*
X170487679Y-89193076D01*
X170563096Y-89425185D01*
X170662050Y-89619394D01*
X170673896Y-89642642D01*
X170817339Y-89840076D01*
X170817343Y-89840081D01*
X170989918Y-90012656D01*
X170989923Y-90012660D01*
X171162136Y-90137779D01*
X171187361Y-90156106D01*
X171404815Y-90266904D01*
X171636924Y-90342321D01*
X171877973Y-90380500D01*
X171877974Y-90380500D01*
X172122026Y-90380500D01*
X172122027Y-90380500D01*
X172363076Y-90342321D01*
X172595185Y-90266904D01*
X172812639Y-90156106D01*
X173010083Y-90012655D01*
X173182655Y-89840083D01*
X173326106Y-89642639D01*
X173436904Y-89425185D01*
X173512321Y-89193076D01*
X173550500Y-88952027D01*
X173550500Y-88707973D01*
X173512321Y-88466924D01*
X173436904Y-88234815D01*
X173326106Y-88017361D01*
X173307779Y-87992136D01*
X173182660Y-87819923D01*
X173182656Y-87819918D01*
X173010081Y-87647343D01*
X173010076Y-87647339D01*
X172812642Y-87503896D01*
X172812641Y-87503895D01*
X172812639Y-87503894D01*
X172595185Y-87393096D01*
X172363076Y-87317679D01*
X172363074Y-87317678D01*
X172363072Y-87317678D01*
X172194769Y-87291021D01*
X172122027Y-87279500D01*
X171877973Y-87279500D01*
X171822093Y-87288350D01*
X171636927Y-87317678D01*
X171404812Y-87393097D01*
X171187357Y-87503896D01*
X170989923Y-87647339D01*
X170989918Y-87647343D01*
X170817343Y-87819918D01*
X170817339Y-87819923D01*
X170673896Y-88017357D01*
X170563097Y-88234812D01*
X170487678Y-88466927D01*
X170470412Y-88575939D01*
X170449500Y-88707973D01*
X166100500Y-88707973D01*
X166100500Y-83627973D01*
X170449500Y-83627973D01*
X170449500Y-83872026D01*
X170477730Y-84050265D01*
X170487679Y-84113076D01*
X170563096Y-84345185D01*
X170651903Y-84519480D01*
X170673896Y-84562642D01*
X170817339Y-84760076D01*
X170817343Y-84760081D01*
X170989918Y-84932656D01*
X170989923Y-84932660D01*
X171084349Y-85001264D01*
X171187361Y-85076106D01*
X171404815Y-85186904D01*
X171636924Y-85262321D01*
X171877973Y-85300500D01*
X171877974Y-85300500D01*
X172122026Y-85300500D01*
X172122027Y-85300500D01*
X172363076Y-85262321D01*
X172595185Y-85186904D01*
X172812639Y-85076106D01*
X173010083Y-84932655D01*
X173182655Y-84760083D01*
X173326106Y-84562639D01*
X173436904Y-84345185D01*
X173512321Y-84113076D01*
X173550500Y-83872027D01*
X173550500Y-83627973D01*
X173512321Y-83386924D01*
X173436904Y-83154815D01*
X173326106Y-82937361D01*
X173258866Y-82844813D01*
X173182660Y-82739923D01*
X173182656Y-82739918D01*
X173010081Y-82567343D01*
X173010076Y-82567339D01*
X172812642Y-82423896D01*
X172812641Y-82423895D01*
X172812639Y-82423894D01*
X172595185Y-82313096D01*
X172363076Y-82237679D01*
X172363074Y-82237678D01*
X172363072Y-82237678D01*
X172188371Y-82210008D01*
X172122027Y-82199500D01*
X171877973Y-82199500D01*
X171822093Y-82208350D01*
X171636927Y-82237678D01*
X171404812Y-82313097D01*
X171187357Y-82423896D01*
X170989923Y-82567339D01*
X170989918Y-82567343D01*
X170817343Y-82739918D01*
X170817339Y-82739923D01*
X170673896Y-82937357D01*
X170563097Y-83154812D01*
X170487678Y-83386927D01*
X170449500Y-83627973D01*
X166100500Y-83627973D01*
X166100500Y-80390096D01*
X166120185Y-80323057D01*
X166136814Y-80302420D01*
X167891261Y-78547973D01*
X170449500Y-78547973D01*
X170449500Y-78792026D01*
X170474903Y-78952416D01*
X170487679Y-79033076D01*
X170489960Y-79040097D01*
X170563097Y-79265187D01*
X170673896Y-79482642D01*
X170817339Y-79680076D01*
X170817343Y-79680081D01*
X170989918Y-79852656D01*
X170989923Y-79852660D01*
X171147698Y-79967289D01*
X171187361Y-79996106D01*
X171404815Y-80106904D01*
X171636924Y-80182321D01*
X171877973Y-80220500D01*
X171877974Y-80220500D01*
X172122026Y-80220500D01*
X172122027Y-80220500D01*
X172363076Y-80182321D01*
X172595185Y-80106904D01*
X172812639Y-79996106D01*
X173010083Y-79852655D01*
X173182655Y-79680083D01*
X173326106Y-79482639D01*
X173436904Y-79265185D01*
X173512321Y-79033076D01*
X173550500Y-78792027D01*
X173550500Y-78547973D01*
X173512321Y-78306924D01*
X173436904Y-78074815D01*
X173326106Y-77857361D01*
X173307779Y-77832136D01*
X173182660Y-77659923D01*
X173182656Y-77659918D01*
X173010081Y-77487343D01*
X173010076Y-77487339D01*
X172812642Y-77343896D01*
X172812641Y-77343895D01*
X172812639Y-77343894D01*
X172595185Y-77233096D01*
X172363076Y-77157679D01*
X172363074Y-77157678D01*
X172363072Y-77157678D01*
X172194769Y-77131021D01*
X172122027Y-77119500D01*
X171877973Y-77119500D01*
X171822093Y-77128350D01*
X171636927Y-77157678D01*
X171404812Y-77233097D01*
X171187357Y-77343896D01*
X170989923Y-77487339D01*
X170989918Y-77487343D01*
X170817343Y-77659918D01*
X170817339Y-77659923D01*
X170673896Y-77857357D01*
X170563097Y-78074812D01*
X170487678Y-78306927D01*
X170449500Y-78547973D01*
X167891261Y-78547973D01*
X171356757Y-75082476D01*
X171418078Y-75048993D01*
X171482753Y-75052227D01*
X171636924Y-75102321D01*
X171877973Y-75140500D01*
X171877974Y-75140500D01*
X172122026Y-75140500D01*
X172122027Y-75140500D01*
X172363076Y-75102321D01*
X172595185Y-75026904D01*
X172812639Y-74916106D01*
X173010083Y-74772655D01*
X173182655Y-74600083D01*
X173326106Y-74402639D01*
X173436904Y-74185185D01*
X173512321Y-73953076D01*
X173550500Y-73712027D01*
X173550500Y-73467973D01*
X173512321Y-73226924D01*
X173436904Y-72994815D01*
X173326106Y-72777361D01*
X173307779Y-72752136D01*
X173182660Y-72579923D01*
X173182656Y-72579918D01*
X173010081Y-72407343D01*
X173010076Y-72407339D01*
X172812642Y-72263896D01*
X172812641Y-72263895D01*
X172812639Y-72263894D01*
X172595185Y-72153096D01*
X172363076Y-72077679D01*
X172363074Y-72077678D01*
X172363072Y-72077678D01*
X172194769Y-72051021D01*
X172122027Y-72039500D01*
X171877973Y-72039500D01*
X171822093Y-72048350D01*
X171636927Y-72077678D01*
X171404812Y-72153097D01*
X171187357Y-72263896D01*
X170989923Y-72407339D01*
X170989918Y-72407343D01*
X170817343Y-72579918D01*
X170817339Y-72579923D01*
X170673896Y-72777357D01*
X170563097Y-72994812D01*
X170487678Y-73226927D01*
X170449500Y-73467973D01*
X170449500Y-73712026D01*
X170487679Y-73953077D01*
X170537770Y-74107244D01*
X170539765Y-74177086D01*
X170507520Y-74233243D01*
X165812181Y-78928583D01*
X165750858Y-78962068D01*
X165681166Y-78957084D01*
X165625233Y-78915212D01*
X165600816Y-78849748D01*
X165600500Y-78840902D01*
X165600500Y-75810096D01*
X165620185Y-75743057D01*
X165636814Y-75722420D01*
X171356757Y-70002476D01*
X171418078Y-69968993D01*
X171482753Y-69972227D01*
X171636924Y-70022321D01*
X171877973Y-70060500D01*
X171877974Y-70060500D01*
X172122026Y-70060500D01*
X172122027Y-70060500D01*
X172363076Y-70022321D01*
X172595185Y-69946904D01*
X172812639Y-69836106D01*
X173010083Y-69692655D01*
X173182655Y-69520083D01*
X173326106Y-69322639D01*
X173436904Y-69105185D01*
X173512321Y-68873076D01*
X173550500Y-68632027D01*
X173550500Y-68387973D01*
X173512321Y-68146924D01*
X173436904Y-67914815D01*
X173326106Y-67697361D01*
X173307779Y-67672136D01*
X173182660Y-67499923D01*
X173182656Y-67499918D01*
X173010081Y-67327343D01*
X173010076Y-67327339D01*
X172812642Y-67183896D01*
X172812641Y-67183895D01*
X172812639Y-67183894D01*
X172595185Y-67073096D01*
X172363076Y-66997679D01*
X172363074Y-66997678D01*
X172363072Y-66997678D01*
X172194769Y-66971021D01*
X172122027Y-66959500D01*
X171877973Y-66959500D01*
X171822093Y-66968350D01*
X171636927Y-66997678D01*
X171404812Y-67073097D01*
X171187357Y-67183896D01*
X170989923Y-67327339D01*
X170989918Y-67327343D01*
X170817343Y-67499918D01*
X170817339Y-67499923D01*
X170673896Y-67697357D01*
X170563097Y-67914812D01*
X170487678Y-68146927D01*
X170449500Y-68387973D01*
X170449500Y-68632026D01*
X170487679Y-68873077D01*
X170537770Y-69027244D01*
X170539765Y-69097086D01*
X170507520Y-69153243D01*
X165312181Y-74348583D01*
X165250858Y-74382068D01*
X165181166Y-74377084D01*
X165125233Y-74335212D01*
X165100816Y-74269748D01*
X165100500Y-74260902D01*
X165100500Y-71230097D01*
X165120185Y-71163058D01*
X165136819Y-71142416D01*
X168238970Y-68040265D01*
X171356758Y-64922476D01*
X171418079Y-64888993D01*
X171482754Y-64892227D01*
X171636924Y-64942321D01*
X171877973Y-64980500D01*
X171877974Y-64980500D01*
X172122026Y-64980500D01*
X172122027Y-64980500D01*
X172363076Y-64942321D01*
X172595185Y-64866904D01*
X172812639Y-64756106D01*
X173010083Y-64612655D01*
X173182655Y-64440083D01*
X173326106Y-64242639D01*
X173436904Y-64025185D01*
X173512321Y-63793076D01*
X173550500Y-63552027D01*
X173550500Y-63307973D01*
X173512321Y-63066924D01*
X173436904Y-62834815D01*
X173326106Y-62617361D01*
X173307779Y-62592136D01*
X173182660Y-62419923D01*
X173182656Y-62419918D01*
X173010081Y-62247343D01*
X173010076Y-62247339D01*
X172812642Y-62103896D01*
X172812641Y-62103895D01*
X172812639Y-62103894D01*
X172595185Y-61993096D01*
X172363076Y-61917679D01*
X172363074Y-61917678D01*
X172363072Y-61917678D01*
X172194769Y-61891021D01*
X172122027Y-61879500D01*
X171877973Y-61879500D01*
X171822093Y-61888350D01*
X171636927Y-61917678D01*
X171636924Y-61917679D01*
X171430311Y-61984812D01*
X171404812Y-61993097D01*
X171187357Y-62103896D01*
X170989923Y-62247339D01*
X170989918Y-62247343D01*
X170817343Y-62419918D01*
X170817339Y-62419923D01*
X170673896Y-62617357D01*
X170563097Y-62834812D01*
X170487678Y-63066927D01*
X170449500Y-63307973D01*
X170449500Y-63552026D01*
X170487679Y-63793077D01*
X170487679Y-63793080D01*
X170537770Y-63947243D01*
X170539765Y-64017084D01*
X170507520Y-64073242D01*
X164812181Y-69768582D01*
X164750858Y-69802067D01*
X164681166Y-69797083D01*
X164625233Y-69755211D01*
X164600816Y-69689747D01*
X164600500Y-69680901D01*
X164600500Y-66650096D01*
X164620185Y-66583057D01*
X164636814Y-66562420D01*
X171356757Y-59842476D01*
X171418078Y-59808993D01*
X171482753Y-59812227D01*
X171636924Y-59862321D01*
X171877973Y-59900500D01*
X171877974Y-59900500D01*
X172122026Y-59900500D01*
X172122027Y-59900500D01*
X172363076Y-59862321D01*
X172595185Y-59786904D01*
X172812639Y-59676106D01*
X173010083Y-59532655D01*
X173182655Y-59360083D01*
X173326106Y-59162639D01*
X173436904Y-58945185D01*
X173512321Y-58713076D01*
X173550500Y-58472027D01*
X173550500Y-58227973D01*
X173512321Y-57986924D01*
X173436904Y-57754815D01*
X173326106Y-57537361D01*
X173307779Y-57512136D01*
X173182660Y-57339923D01*
X173182656Y-57339918D01*
X173010081Y-57167343D01*
X173010076Y-57167339D01*
X172812642Y-57023896D01*
X172812641Y-57023895D01*
X172812639Y-57023894D01*
X172595185Y-56913096D01*
X172363076Y-56837679D01*
X172363074Y-56837678D01*
X172363072Y-56837678D01*
X172194769Y-56811021D01*
X172122027Y-56799500D01*
X171877973Y-56799500D01*
X171822093Y-56808350D01*
X171636927Y-56837678D01*
X171404812Y-56913097D01*
X171187357Y-57023896D01*
X170989923Y-57167339D01*
X170989918Y-57167343D01*
X170817343Y-57339918D01*
X170817339Y-57339923D01*
X170673896Y-57537357D01*
X170563097Y-57754812D01*
X170487678Y-57986927D01*
X170449500Y-58227973D01*
X170449500Y-58472026D01*
X170487679Y-58713077D01*
X170537770Y-58867244D01*
X170539765Y-58937086D01*
X170507520Y-58993243D01*
X164312181Y-65188583D01*
X164250858Y-65222068D01*
X164181166Y-65217084D01*
X164125233Y-65175212D01*
X164100816Y-65109748D01*
X164100500Y-65100902D01*
X164100500Y-64550096D01*
X164120185Y-64483057D01*
X164136814Y-64462420D01*
X165618506Y-62980727D01*
X165618511Y-62980724D01*
X165628714Y-62970520D01*
X165628716Y-62970520D01*
X165740520Y-62858716D01*
X165809349Y-62739500D01*
X165819577Y-62721785D01*
X165860501Y-62569057D01*
X165860501Y-62410943D01*
X165860501Y-62403348D01*
X165860500Y-62403330D01*
X165860500Y-60310097D01*
X165880185Y-60243058D01*
X165896819Y-60222416D01*
X171262416Y-54856819D01*
X171323739Y-54823334D01*
X171350097Y-54820500D01*
X172850003Y-54820500D01*
X172850008Y-54820500D01*
X172952797Y-54809999D01*
X173119334Y-54754814D01*
X173268655Y-54662711D01*
X173392711Y-54538655D01*
X173484814Y-54389334D01*
X173539999Y-54222797D01*
X173550500Y-54120008D01*
X173550500Y-52419992D01*
X173539999Y-52317203D01*
X173484814Y-52150666D01*
X173461162Y-52112321D01*
X173392713Y-52001348D01*
X173392710Y-52001344D01*
X173268655Y-51877289D01*
X173268651Y-51877286D01*
X173119337Y-51785187D01*
X173119335Y-51785186D01*
X173036065Y-51757593D01*
X172952797Y-51730001D01*
X172952795Y-51730000D01*
X172850015Y-51719500D01*
X172850008Y-51719500D01*
X171149992Y-51719500D01*
X171149984Y-51719500D01*
X171047204Y-51730000D01*
X171047203Y-51730001D01*
X170880664Y-51785186D01*
X170880662Y-51785187D01*
X170731348Y-51877286D01*
X170731344Y-51877289D01*
X170607289Y-52001344D01*
X170607286Y-52001348D01*
X170515187Y-52150662D01*
X170515186Y-52150664D01*
X170460001Y-52317203D01*
X170460000Y-52317204D01*
X170449500Y-52419984D01*
X170449500Y-53919902D01*
X170429815Y-53986941D01*
X170413181Y-54007583D01*
X164779481Y-59641282D01*
X164779477Y-59641287D01*
X164759378Y-59676103D01*
X164759376Y-59676106D01*
X164700423Y-59778215D01*
X164659499Y-59930943D01*
X164659499Y-59930945D01*
X164659499Y-60099046D01*
X164659500Y-60099059D01*
X164659500Y-62189902D01*
X164639815Y-62256941D01*
X164623181Y-62277583D01*
X163019481Y-63881282D01*
X163019477Y-63881287D01*
X162979394Y-63950715D01*
X162979394Y-63950716D01*
X162940423Y-64018214D01*
X162938555Y-64025185D01*
X162899499Y-64170943D01*
X162899499Y-64170945D01*
X162899499Y-64339046D01*
X162899500Y-64339059D01*
X162899500Y-79885992D01*
X162879815Y-79953031D01*
X162827011Y-79998786D01*
X162757853Y-80008730D01*
X162719206Y-79996477D01*
X162575190Y-79923098D01*
X162575187Y-79923097D01*
X162575185Y-79923096D01*
X162343076Y-79847679D01*
X162343074Y-79847678D01*
X162343072Y-79847678D01*
X162168320Y-79820000D01*
X162102027Y-79809500D01*
X161857973Y-79809500D01*
X161802093Y-79818350D01*
X161616927Y-79847678D01*
X161384812Y-79923097D01*
X161167357Y-80033896D01*
X160969923Y-80177339D01*
X160969918Y-80177343D01*
X160827181Y-80320081D01*
X160765858Y-80353566D01*
X160696166Y-80348582D01*
X160640233Y-80306710D01*
X160615816Y-80241246D01*
X160615500Y-80232400D01*
X160615500Y-62765097D01*
X160635185Y-62698058D01*
X160651819Y-62677416D01*
X160970178Y-62359057D01*
X161336758Y-61992476D01*
X161398079Y-61958993D01*
X161462754Y-61962227D01*
X161616924Y-62012321D01*
X161857973Y-62050500D01*
X161857974Y-62050500D01*
X162102026Y-62050500D01*
X162102027Y-62050500D01*
X162343076Y-62012321D01*
X162575185Y-61936904D01*
X162792639Y-61826106D01*
X162990083Y-61682655D01*
X163162655Y-61510083D01*
X163306106Y-61312639D01*
X163416904Y-61095185D01*
X163492321Y-60863076D01*
X163530500Y-60622027D01*
X163530500Y-60377973D01*
X163492321Y-60136924D01*
X163416904Y-59904815D01*
X163306106Y-59687361D01*
X163226171Y-59577339D01*
X163162660Y-59489923D01*
X163162656Y-59489918D01*
X162990081Y-59317343D01*
X162990076Y-59317339D01*
X162792642Y-59173896D01*
X162792641Y-59173895D01*
X162792639Y-59173894D01*
X162575185Y-59063096D01*
X162343076Y-58987679D01*
X162343074Y-58987678D01*
X162343072Y-58987678D01*
X162168320Y-58960000D01*
X162102027Y-58949500D01*
X161857973Y-58949500D01*
X161802093Y-58958350D01*
X161616927Y-58987678D01*
X161384812Y-59063097D01*
X161167357Y-59173896D01*
X160969923Y-59317339D01*
X160969918Y-59317343D01*
X160797343Y-59489918D01*
X160797339Y-59489923D01*
X160653896Y-59687357D01*
X160543097Y-59904812D01*
X160467678Y-60136927D01*
X160429500Y-60377973D01*
X160429500Y-60622026D01*
X160467679Y-60863077D01*
X160467679Y-60863080D01*
X160517770Y-61017243D01*
X160519765Y-61087084D01*
X160487520Y-61143242D01*
X159649122Y-61981641D01*
X159649114Y-61981649D01*
X159646286Y-61984478D01*
X159646284Y-61984480D01*
X159534480Y-62096284D01*
X159513984Y-62131785D01*
X159507846Y-62142415D01*
X159507846Y-62142416D01*
X159486966Y-62178582D01*
X159455423Y-62233215D01*
X159414499Y-62385943D01*
X159414499Y-62385945D01*
X159414499Y-62554046D01*
X159414500Y-62554059D01*
X159414500Y-82725902D01*
X159394815Y-82792941D01*
X159342011Y-82838696D01*
X159272853Y-82848640D01*
X159209297Y-82819615D01*
X159202819Y-82813583D01*
X158392478Y-82003242D01*
X158358993Y-81941919D01*
X158362228Y-81877244D01*
X158412321Y-81723076D01*
X158450500Y-81482027D01*
X158450500Y-81237973D01*
X158412321Y-80996924D01*
X158336904Y-80764815D01*
X158226106Y-80547361D01*
X158111847Y-80390096D01*
X158082660Y-80349923D01*
X158082656Y-80349918D01*
X157910081Y-80177343D01*
X157910076Y-80177339D01*
X157712642Y-80033896D01*
X157712641Y-80033895D01*
X157712639Y-80033894D01*
X157495185Y-79923096D01*
X157263076Y-79847679D01*
X157263074Y-79847678D01*
X157263072Y-79847678D01*
X157088320Y-79820000D01*
X157022027Y-79809500D01*
X156777973Y-79809500D01*
X156722093Y-79818350D01*
X156536927Y-79847678D01*
X156536922Y-79847679D01*
X156311817Y-79920819D01*
X156241976Y-79922814D01*
X156182144Y-79886733D01*
X156151316Y-79824032D01*
X156149500Y-79802888D01*
X156149500Y-63551945D01*
X156149500Y-63551943D01*
X156108577Y-63399216D01*
X156108576Y-63399214D01*
X156106473Y-63391365D01*
X156107658Y-63391047D01*
X156100500Y-63355051D01*
X156100500Y-62200096D01*
X156109144Y-62170655D01*
X156115668Y-62140669D01*
X156119422Y-62135653D01*
X156120185Y-62133057D01*
X156136815Y-62112419D01*
X156256756Y-61992477D01*
X156318079Y-61958993D01*
X156382753Y-61962227D01*
X156536924Y-62012321D01*
X156777973Y-62050500D01*
X156777974Y-62050500D01*
X157022026Y-62050500D01*
X157022027Y-62050500D01*
X157263076Y-62012321D01*
X157495185Y-61936904D01*
X157712639Y-61826106D01*
X157910083Y-61682655D01*
X158082655Y-61510083D01*
X158226106Y-61312639D01*
X158336904Y-61095185D01*
X158412321Y-60863076D01*
X158450500Y-60622027D01*
X158450500Y-60377973D01*
X158412321Y-60136924D01*
X158336904Y-59904815D01*
X158226106Y-59687361D01*
X158146171Y-59577339D01*
X158082660Y-59489923D01*
X158082656Y-59489918D01*
X157910081Y-59317343D01*
X157910076Y-59317339D01*
X157712642Y-59173896D01*
X157712641Y-59173895D01*
X157712639Y-59173894D01*
X157495185Y-59063096D01*
X157263076Y-58987679D01*
X157263074Y-58987678D01*
X157263072Y-58987678D01*
X157088320Y-58960000D01*
X157022027Y-58949500D01*
X156777973Y-58949500D01*
X156722093Y-58958350D01*
X156536927Y-58987678D01*
X156304812Y-59063097D01*
X156087357Y-59173896D01*
X155889923Y-59317339D01*
X155889918Y-59317343D01*
X155717343Y-59489918D01*
X155717339Y-59489923D01*
X155573896Y-59687357D01*
X155463097Y-59904812D01*
X155387678Y-60136927D01*
X155349500Y-60377973D01*
X155349500Y-60622026D01*
X155387679Y-60863077D01*
X155437770Y-61017244D01*
X155439765Y-61087086D01*
X155407520Y-61143243D01*
X155134360Y-61416403D01*
X155134353Y-61416410D01*
X155131286Y-61419478D01*
X155131284Y-61419480D01*
X155019480Y-61531284D01*
X154995604Y-61572639D01*
X154989644Y-61582961D01*
X154989643Y-61582963D01*
X154968644Y-61619335D01*
X154940423Y-61668215D01*
X154899499Y-61820943D01*
X154899499Y-61820945D01*
X154899499Y-61989046D01*
X154899500Y-61989059D01*
X154899500Y-63495330D01*
X154899499Y-63495348D01*
X154899499Y-63661054D01*
X154899498Y-63661054D01*
X154942527Y-63821636D01*
X154941338Y-63821954D01*
X154948500Y-63857949D01*
X154948500Y-81832933D01*
X154948499Y-81832951D01*
X154948499Y-81840546D01*
X154948499Y-81998661D01*
X154949727Y-82003242D01*
X154989423Y-82151390D01*
X155003620Y-82175978D01*
X155003621Y-82175979D01*
X155004285Y-82177128D01*
X155068479Y-82288317D01*
X155068481Y-82288320D01*
X155187349Y-82407188D01*
X155187355Y-82407193D01*
X157084177Y-84304014D01*
X157084178Y-84304016D01*
X157363344Y-84583183D01*
X157363358Y-84583195D01*
X157400962Y-84620799D01*
X157434447Y-84682122D01*
X157437281Y-84708480D01*
X157437281Y-103735968D01*
X157430317Y-103759681D01*
X157427500Y-103784239D01*
X157420645Y-103792621D01*
X157417596Y-103803007D01*
X157398919Y-103819190D01*
X157383271Y-103838327D01*
X157368392Y-103845641D01*
X157364792Y-103848762D01*
X157351598Y-103853899D01*
X157342817Y-103856752D01*
X157272975Y-103858747D01*
X157213143Y-103822666D01*
X157182316Y-103759964D01*
X157180500Y-103738821D01*
X157180500Y-86209060D01*
X157180501Y-86209047D01*
X157180501Y-86040944D01*
X157146306Y-85913330D01*
X157139577Y-85888216D01*
X157077569Y-85780814D01*
X157060524Y-85751290D01*
X157060518Y-85751282D01*
X155289756Y-83980520D01*
X153312477Y-82003242D01*
X153278993Y-81941920D01*
X153282228Y-81877244D01*
X153294152Y-81840546D01*
X153332321Y-81723076D01*
X153370500Y-81482027D01*
X153370500Y-81237973D01*
X153332321Y-80996924D01*
X153256904Y-80764815D01*
X153146106Y-80547361D01*
X153031847Y-80390096D01*
X153002660Y-80349923D01*
X153002656Y-80349918D01*
X152830081Y-80177343D01*
X152830076Y-80177339D01*
X152632642Y-80033896D01*
X152632641Y-80033895D01*
X152632639Y-80033894D01*
X152415185Y-79923096D01*
X152183076Y-79847679D01*
X152183074Y-79847678D01*
X152183072Y-79847678D01*
X152008320Y-79820000D01*
X151942027Y-79809500D01*
X151697973Y-79809500D01*
X151642093Y-79818350D01*
X151456927Y-79847678D01*
X151224812Y-79923097D01*
X151007357Y-80033896D01*
X150809923Y-80177339D01*
X150809918Y-80177343D01*
X150637343Y-80349918D01*
X150637339Y-80349923D01*
X150493896Y-80547357D01*
X150383097Y-80764812D01*
X150307678Y-80996927D01*
X150269500Y-81237973D01*
X150269500Y-81482026D01*
X150300093Y-81675185D01*
X150307679Y-81723076D01*
X150383096Y-81955185D01*
X150483067Y-82151390D01*
X150493896Y-82172642D01*
X150637339Y-82370076D01*
X150637343Y-82370081D01*
X150809918Y-82542656D01*
X150809923Y-82542660D01*
X150934762Y-82633360D01*
X151007361Y-82686106D01*
X151224815Y-82796904D01*
X151456924Y-82872321D01*
X151697973Y-82910500D01*
X151697974Y-82910500D01*
X151942026Y-82910500D01*
X151942027Y-82910500D01*
X152183076Y-82872321D01*
X152337245Y-82822227D01*
X152407085Y-82820233D01*
X152463243Y-82852478D01*
X155943181Y-86332416D01*
X155976666Y-86393739D01*
X155979500Y-86420097D01*
X155979500Y-100608210D01*
X155959815Y-100675249D01*
X155907011Y-100721004D01*
X155837853Y-100730948D01*
X155831309Y-100729827D01*
X155678845Y-100699500D01*
X155678842Y-100699500D01*
X155521158Y-100699500D01*
X155521155Y-100699500D01*
X155366510Y-100730261D01*
X155366498Y-100730264D01*
X155220827Y-100790602D01*
X155220814Y-100790609D01*
X155089125Y-100878602D01*
X155022447Y-100899480D01*
X155020234Y-100899500D01*
X153186670Y-100899500D01*
X153186654Y-100899499D01*
X153179058Y-100899499D01*
X153020943Y-100899499D01*
X152920926Y-100926299D01*
X152868215Y-100940423D01*
X152786499Y-100987602D01*
X152718599Y-101004074D01*
X152652572Y-100981221D01*
X152609382Y-100926299D01*
X152600500Y-100880214D01*
X152600500Y-91620943D01*
X152600028Y-91619179D01*
X152559577Y-91468215D01*
X152498269Y-91362027D01*
X152480520Y-91331284D01*
X152368716Y-91219480D01*
X152368713Y-91219478D01*
X143152477Y-82003242D01*
X143118993Y-81941920D01*
X143122228Y-81877244D01*
X143134152Y-81840546D01*
X143172321Y-81723076D01*
X143210500Y-81482027D01*
X143210500Y-81237973D01*
X145189500Y-81237973D01*
X145189500Y-81482026D01*
X145220093Y-81675185D01*
X145227679Y-81723076D01*
X145303096Y-81955185D01*
X145403067Y-82151390D01*
X145413896Y-82172642D01*
X145557339Y-82370076D01*
X145557343Y-82370081D01*
X145729918Y-82542656D01*
X145729923Y-82542660D01*
X145854762Y-82633360D01*
X145927361Y-82686106D01*
X146144815Y-82796904D01*
X146376924Y-82872321D01*
X146617973Y-82910500D01*
X146617974Y-82910500D01*
X146862026Y-82910500D01*
X146862027Y-82910500D01*
X147103076Y-82872321D01*
X147257245Y-82822227D01*
X147327085Y-82820233D01*
X147383243Y-82852478D01*
X153455425Y-88924660D01*
X153488910Y-88985983D01*
X153489361Y-88988149D01*
X153520261Y-89143491D01*
X153520264Y-89143501D01*
X153580602Y-89289172D01*
X153580609Y-89289185D01*
X153668210Y-89420288D01*
X153668213Y-89420292D01*
X153779707Y-89531786D01*
X153779711Y-89531789D01*
X153910814Y-89619390D01*
X153910827Y-89619397D01*
X154056498Y-89679735D01*
X154056503Y-89679737D01*
X154211153Y-89710499D01*
X154211156Y-89710500D01*
X154211158Y-89710500D01*
X154368844Y-89710500D01*
X154368845Y-89710499D01*
X154523497Y-89679737D01*
X154669179Y-89619394D01*
X154800289Y-89531789D01*
X154911789Y-89420289D01*
X154999394Y-89289179D01*
X155059737Y-89143497D01*
X155090500Y-88988842D01*
X155090500Y-88831158D01*
X155090500Y-88831155D01*
X155090499Y-88831153D01*
X155059737Y-88676503D01*
X155018084Y-88575943D01*
X154999397Y-88530827D01*
X154999390Y-88530814D01*
X154911789Y-88399711D01*
X154911786Y-88399707D01*
X154800292Y-88288213D01*
X154800288Y-88288210D01*
X154669185Y-88200609D01*
X154669172Y-88200602D01*
X154523501Y-88140264D01*
X154523491Y-88140261D01*
X154368149Y-88109361D01*
X154306238Y-88076976D01*
X154304660Y-88075425D01*
X148232478Y-82003243D01*
X148198993Y-81941920D01*
X148202228Y-81877244D01*
X148214152Y-81840546D01*
X148252321Y-81723076D01*
X148290500Y-81482027D01*
X148290500Y-81237973D01*
X148252321Y-80996924D01*
X148176904Y-80764815D01*
X148066106Y-80547361D01*
X147951847Y-80390096D01*
X147922660Y-80349923D01*
X147922656Y-80349918D01*
X147750081Y-80177343D01*
X147750076Y-80177339D01*
X147552642Y-80033896D01*
X147552641Y-80033895D01*
X147552639Y-80033894D01*
X147335185Y-79923096D01*
X147103076Y-79847679D01*
X147103074Y-79847678D01*
X147103072Y-79847678D01*
X146928320Y-79820000D01*
X146862027Y-79809500D01*
X146617973Y-79809500D01*
X146562093Y-79818350D01*
X146376927Y-79847678D01*
X146144812Y-79923097D01*
X145927357Y-80033896D01*
X145729923Y-80177339D01*
X145729918Y-80177343D01*
X145557343Y-80349918D01*
X145557339Y-80349923D01*
X145413896Y-80547357D01*
X145303097Y-80764812D01*
X145227678Y-80996927D01*
X145189500Y-81237973D01*
X143210500Y-81237973D01*
X143172321Y-80996924D01*
X143096904Y-80764815D01*
X142986106Y-80547361D01*
X142871847Y-80390096D01*
X142842660Y-80349923D01*
X142842656Y-80349918D01*
X142670081Y-80177343D01*
X142670076Y-80177339D01*
X142472642Y-80033896D01*
X142472641Y-80033895D01*
X142472639Y-80033894D01*
X142255185Y-79923096D01*
X142023076Y-79847679D01*
X142023074Y-79847678D01*
X142023072Y-79847678D01*
X141848320Y-79820000D01*
X141782027Y-79809500D01*
X141537973Y-79809500D01*
X141482093Y-79818350D01*
X141296927Y-79847678D01*
X141064812Y-79923097D01*
X140847357Y-80033896D01*
X140649923Y-80177339D01*
X140649918Y-80177343D01*
X140477343Y-80349918D01*
X140477339Y-80349923D01*
X140333896Y-80547357D01*
X140223097Y-80764812D01*
X140147678Y-80996927D01*
X140109500Y-81237973D01*
X140109500Y-81482026D01*
X140140093Y-81675185D01*
X140147679Y-81723076D01*
X140223096Y-81955185D01*
X140323067Y-82151390D01*
X140333896Y-82172642D01*
X140477339Y-82370076D01*
X140477343Y-82370081D01*
X140649918Y-82542656D01*
X140649923Y-82542660D01*
X140774762Y-82633360D01*
X140847361Y-82686106D01*
X141064815Y-82796904D01*
X141296924Y-82872321D01*
X141537973Y-82910500D01*
X141537974Y-82910500D01*
X141782026Y-82910500D01*
X141782027Y-82910500D01*
X142023076Y-82872321D01*
X142177245Y-82822227D01*
X142247085Y-82820233D01*
X142303243Y-82852478D01*
X151363181Y-91912416D01*
X151396666Y-91973739D01*
X151399500Y-92000097D01*
X151399500Y-103738820D01*
X151379815Y-103805859D01*
X151327011Y-103851614D01*
X151257853Y-103861558D01*
X151237183Y-103856751D01*
X151159542Y-103831524D01*
X151159535Y-103831523D01*
X150997500Y-103805859D01*
X150957352Y-103799500D01*
X150752648Y-103799500D01*
X150730506Y-103803007D01*
X150550465Y-103831522D01*
X150417233Y-103874813D01*
X150355781Y-103894780D01*
X150355778Y-103894781D01*
X150355776Y-103894782D01*
X150280795Y-103932987D01*
X150212125Y-103945883D01*
X150147385Y-103919607D01*
X150107128Y-103862500D01*
X150100500Y-103822502D01*
X150100500Y-94200945D01*
X150100500Y-94200943D01*
X150059577Y-94048216D01*
X150059577Y-94048215D01*
X150059577Y-94048214D01*
X150030639Y-93998095D01*
X150030637Y-93998092D01*
X149980520Y-93911284D01*
X149868716Y-93799480D01*
X149868715Y-93799479D01*
X149864385Y-93795149D01*
X149864374Y-93795139D01*
X138072478Y-82003243D01*
X138038993Y-81941920D01*
X138042228Y-81877244D01*
X138054152Y-81840546D01*
X138092321Y-81723076D01*
X138130500Y-81482027D01*
X138130500Y-81237973D01*
X138092321Y-80996924D01*
X138016904Y-80764815D01*
X137906106Y-80547361D01*
X137791847Y-80390096D01*
X137762660Y-80349923D01*
X137762656Y-80349918D01*
X137590081Y-80177343D01*
X137590076Y-80177339D01*
X137392642Y-80033896D01*
X137392641Y-80033895D01*
X137392639Y-80033894D01*
X137175185Y-79923096D01*
X136943076Y-79847679D01*
X136943074Y-79847678D01*
X136943072Y-79847678D01*
X136768320Y-79820000D01*
X136702027Y-79809500D01*
X136457973Y-79809500D01*
X136402093Y-79818350D01*
X136216927Y-79847678D01*
X135984812Y-79923097D01*
X135767357Y-80033896D01*
X135569923Y-80177339D01*
X135569918Y-80177343D01*
X135397343Y-80349918D01*
X135397339Y-80349923D01*
X135253896Y-80547357D01*
X135143097Y-80764812D01*
X135067678Y-80996927D01*
X135029500Y-81237973D01*
X135029500Y-81482026D01*
X135060093Y-81675185D01*
X135067679Y-81723076D01*
X135143096Y-81955185D01*
X135243067Y-82151390D01*
X135253896Y-82172642D01*
X135397339Y-82370076D01*
X135397343Y-82370081D01*
X135569918Y-82542656D01*
X135569923Y-82542660D01*
X135694762Y-82633360D01*
X135767361Y-82686106D01*
X135984815Y-82796904D01*
X136216924Y-82872321D01*
X136457973Y-82910500D01*
X136457974Y-82910500D01*
X136702026Y-82910500D01*
X136702027Y-82910500D01*
X136943076Y-82872321D01*
X137097245Y-82822227D01*
X137167085Y-82820233D01*
X137223243Y-82852478D01*
X148863181Y-94492416D01*
X148896666Y-94553739D01*
X148899500Y-94580097D01*
X148899500Y-101273735D01*
X148879815Y-101340774D01*
X148827011Y-101386529D01*
X148775500Y-101397735D01*
X148722920Y-101397735D01*
X148568275Y-101428496D01*
X148568263Y-101428499D01*
X148422592Y-101488837D01*
X148422579Y-101488844D01*
X148291476Y-101576445D01*
X148291472Y-101576448D01*
X148179978Y-101687942D01*
X148179975Y-101687946D01*
X148092374Y-101819049D01*
X148092372Y-101819054D01*
X148092371Y-101819056D01*
X148090757Y-101822950D01*
X148046920Y-101877354D01*
X147980626Y-101899421D01*
X147976196Y-101899500D01*
X146579766Y-101899500D01*
X146512727Y-101879815D01*
X146510875Y-101878602D01*
X146379185Y-101790609D01*
X146379172Y-101790602D01*
X146233501Y-101730264D01*
X146233489Y-101730261D01*
X146078845Y-101699500D01*
X146078842Y-101699500D01*
X145921158Y-101699500D01*
X145921155Y-101699500D01*
X145766510Y-101730261D01*
X145766498Y-101730264D01*
X145620827Y-101790602D01*
X145620814Y-101790609D01*
X145489711Y-101878210D01*
X145489707Y-101878213D01*
X145446259Y-101921662D01*
X145384936Y-101955147D01*
X145315244Y-101950163D01*
X145270897Y-101921662D01*
X132136819Y-88787584D01*
X132103334Y-88726261D01*
X132100500Y-88699903D01*
X132100500Y-82870182D01*
X132120185Y-82803143D01*
X132168204Y-82759698D01*
X132312639Y-82686106D01*
X132510083Y-82542655D01*
X132682655Y-82370083D01*
X132826106Y-82172639D01*
X132936904Y-81955185D01*
X133012321Y-81723076D01*
X133050500Y-81482027D01*
X133050500Y-81237973D01*
X133012321Y-80996924D01*
X132936904Y-80764815D01*
X132826106Y-80547361D01*
X132711847Y-80390096D01*
X132682660Y-80349923D01*
X132682656Y-80349918D01*
X132510081Y-80177343D01*
X132510076Y-80177339D01*
X132312642Y-80033896D01*
X132312641Y-80033895D01*
X132312639Y-80033894D01*
X132095185Y-79923096D01*
X131863076Y-79847679D01*
X131863074Y-79847678D01*
X131863072Y-79847678D01*
X131688320Y-79820000D01*
X131622027Y-79809500D01*
X131377973Y-79809500D01*
X131322093Y-79818350D01*
X131136927Y-79847678D01*
X130904812Y-79923097D01*
X130687357Y-80033896D01*
X130489923Y-80177339D01*
X130489918Y-80177343D01*
X130317343Y-80349918D01*
X130317339Y-80349923D01*
X130173896Y-80547357D01*
X130063097Y-80764812D01*
X129987678Y-80996927D01*
X129949500Y-81237973D01*
X129949500Y-81482026D01*
X129980093Y-81675185D01*
X129987679Y-81723076D01*
X130063096Y-81955185D01*
X130163067Y-82151390D01*
X130173896Y-82172642D01*
X130317339Y-82370076D01*
X130317343Y-82370081D01*
X130489918Y-82542656D01*
X130489923Y-82542660D01*
X130614762Y-82633360D01*
X130687361Y-82686106D01*
X130831795Y-82759697D01*
X130882590Y-82807671D01*
X130899500Y-82870182D01*
X130899500Y-88250903D01*
X130879815Y-88317942D01*
X130827011Y-88363697D01*
X130757853Y-88373641D01*
X130694297Y-88344616D01*
X130687819Y-88338584D01*
X129636819Y-87287584D01*
X129603334Y-87226261D01*
X129600500Y-87199903D01*
X129600500Y-63300096D01*
X129620185Y-63233057D01*
X129636814Y-63212420D01*
X130856757Y-61992476D01*
X130918078Y-61958993D01*
X130982753Y-61962227D01*
X131136924Y-62012321D01*
X131377973Y-62050500D01*
X131377974Y-62050500D01*
X131622026Y-62050500D01*
X131622027Y-62050500D01*
X131863076Y-62012321D01*
X132095185Y-61936904D01*
X132312639Y-61826106D01*
X132510083Y-61682655D01*
X132682655Y-61510083D01*
X132826106Y-61312639D01*
X132936904Y-61095185D01*
X133012321Y-60863076D01*
X133050500Y-60622027D01*
X133050500Y-60377973D01*
X135029500Y-60377973D01*
X135029500Y-60622027D01*
X135067679Y-60863076D01*
X135143096Y-61095185D01*
X135221172Y-61248419D01*
X135253896Y-61312642D01*
X135397339Y-61510076D01*
X135397343Y-61510081D01*
X135569918Y-61682656D01*
X135569923Y-61682660D01*
X135730711Y-61799478D01*
X135767361Y-61826106D01*
X135984815Y-61936904D01*
X136216924Y-62012321D01*
X136457973Y-62050500D01*
X136457974Y-62050500D01*
X136702026Y-62050500D01*
X136702027Y-62050500D01*
X136943076Y-62012321D01*
X137175185Y-61936904D01*
X137392639Y-61826106D01*
X137590083Y-61682655D01*
X137762655Y-61510083D01*
X137906106Y-61312639D01*
X138016904Y-61095185D01*
X138092321Y-60863076D01*
X138130500Y-60622027D01*
X138130500Y-60377973D01*
X140109500Y-60377973D01*
X140109500Y-60622027D01*
X140147679Y-60863076D01*
X140223096Y-61095185D01*
X140301172Y-61248419D01*
X140333896Y-61312642D01*
X140477339Y-61510076D01*
X140477343Y-61510081D01*
X140649918Y-61682656D01*
X140649923Y-61682660D01*
X140810711Y-61799478D01*
X140847361Y-61826106D01*
X141064815Y-61936904D01*
X141296924Y-62012321D01*
X141537973Y-62050500D01*
X141537974Y-62050500D01*
X141782026Y-62050500D01*
X141782027Y-62050500D01*
X142023076Y-62012321D01*
X142255185Y-61936904D01*
X142472639Y-61826106D01*
X142670083Y-61682655D01*
X142842655Y-61510083D01*
X142986106Y-61312639D01*
X143096904Y-61095185D01*
X143172321Y-60863076D01*
X143210500Y-60622027D01*
X143210500Y-60377973D01*
X145189500Y-60377973D01*
X145189500Y-60622027D01*
X145227679Y-60863076D01*
X145303096Y-61095185D01*
X145381172Y-61248419D01*
X145413896Y-61312642D01*
X145557339Y-61510076D01*
X145557343Y-61510081D01*
X145729918Y-61682656D01*
X145729923Y-61682660D01*
X145890711Y-61799478D01*
X145927361Y-61826106D01*
X146144815Y-61936904D01*
X146376924Y-62012321D01*
X146617973Y-62050500D01*
X146617974Y-62050500D01*
X146862026Y-62050500D01*
X146862027Y-62050500D01*
X147103076Y-62012321D01*
X147335185Y-61936904D01*
X147552639Y-61826106D01*
X147750083Y-61682655D01*
X147922655Y-61510083D01*
X148066106Y-61312639D01*
X148176904Y-61095185D01*
X148252321Y-60863076D01*
X148290500Y-60622027D01*
X148290500Y-60377973D01*
X150269500Y-60377973D01*
X150269500Y-60622027D01*
X150307679Y-60863076D01*
X150383096Y-61095185D01*
X150461172Y-61248419D01*
X150493896Y-61312642D01*
X150637339Y-61510076D01*
X150637343Y-61510081D01*
X150809918Y-61682656D01*
X150809923Y-61682660D01*
X150970711Y-61799478D01*
X151007361Y-61826106D01*
X151224815Y-61936904D01*
X151456924Y-62012321D01*
X151697973Y-62050500D01*
X151697974Y-62050500D01*
X151942026Y-62050500D01*
X151942027Y-62050500D01*
X152183076Y-62012321D01*
X152415185Y-61936904D01*
X152632639Y-61826106D01*
X152830083Y-61682655D01*
X153002655Y-61510083D01*
X153146106Y-61312639D01*
X153256904Y-61095185D01*
X153332321Y-60863076D01*
X153370500Y-60622027D01*
X153370500Y-60377973D01*
X153332321Y-60136924D01*
X153256904Y-59904815D01*
X153146106Y-59687361D01*
X153066171Y-59577339D01*
X153002660Y-59489923D01*
X153002656Y-59489918D01*
X152830081Y-59317343D01*
X152830076Y-59317339D01*
X152632642Y-59173896D01*
X152632641Y-59173895D01*
X152632639Y-59173894D01*
X152415185Y-59063096D01*
X152183076Y-58987679D01*
X152183074Y-58987678D01*
X152183072Y-58987678D01*
X152008320Y-58960000D01*
X151942027Y-58949500D01*
X151697973Y-58949500D01*
X151642093Y-58958350D01*
X151456927Y-58987678D01*
X151224812Y-59063097D01*
X151007357Y-59173896D01*
X150809923Y-59317339D01*
X150809918Y-59317343D01*
X150637343Y-59489918D01*
X150637339Y-59489923D01*
X150493896Y-59687357D01*
X150383097Y-59904812D01*
X150307678Y-60136927D01*
X150280251Y-60310097D01*
X150269500Y-60377973D01*
X148290500Y-60377973D01*
X148252321Y-60136924D01*
X148176904Y-59904815D01*
X148066106Y-59687361D01*
X147986171Y-59577339D01*
X147922660Y-59489923D01*
X147922656Y-59489918D01*
X147750081Y-59317343D01*
X147750076Y-59317339D01*
X147552642Y-59173896D01*
X147552641Y-59173895D01*
X147552639Y-59173894D01*
X147335185Y-59063096D01*
X147103076Y-58987679D01*
X147103074Y-58987678D01*
X147103072Y-58987678D01*
X146928320Y-58960000D01*
X146862027Y-58949500D01*
X146617973Y-58949500D01*
X146562093Y-58958350D01*
X146376927Y-58987678D01*
X146144812Y-59063097D01*
X145927357Y-59173896D01*
X145729923Y-59317339D01*
X145729918Y-59317343D01*
X145557343Y-59489918D01*
X145557339Y-59489923D01*
X145413896Y-59687357D01*
X145303097Y-59904812D01*
X145227678Y-60136927D01*
X145200251Y-60310097D01*
X145189500Y-60377973D01*
X143210500Y-60377973D01*
X143172321Y-60136924D01*
X143096904Y-59904815D01*
X142986106Y-59687361D01*
X142906171Y-59577339D01*
X142842660Y-59489923D01*
X142842656Y-59489918D01*
X142670081Y-59317343D01*
X142670076Y-59317339D01*
X142472642Y-59173896D01*
X142472641Y-59173895D01*
X142472639Y-59173894D01*
X142255185Y-59063096D01*
X142023076Y-58987679D01*
X142023074Y-58987678D01*
X142023072Y-58987678D01*
X141848320Y-58960000D01*
X141782027Y-58949500D01*
X141537973Y-58949500D01*
X141482093Y-58958350D01*
X141296927Y-58987678D01*
X141064812Y-59063097D01*
X140847357Y-59173896D01*
X140649923Y-59317339D01*
X140649918Y-59317343D01*
X140477343Y-59489918D01*
X140477339Y-59489923D01*
X140333896Y-59687357D01*
X140223097Y-59904812D01*
X140147678Y-60136927D01*
X140120251Y-60310097D01*
X140109500Y-60377973D01*
X138130500Y-60377973D01*
X138092321Y-60136924D01*
X138016904Y-59904815D01*
X137906106Y-59687361D01*
X137826171Y-59577339D01*
X137762660Y-59489923D01*
X137762656Y-59489918D01*
X137590081Y-59317343D01*
X137590076Y-59317339D01*
X137392642Y-59173896D01*
X137392641Y-59173895D01*
X137392639Y-59173894D01*
X137175185Y-59063096D01*
X136943076Y-58987679D01*
X136943074Y-58987678D01*
X136943072Y-58987678D01*
X136768320Y-58960000D01*
X136702027Y-58949500D01*
X136457973Y-58949500D01*
X136402093Y-58958350D01*
X136216927Y-58987678D01*
X135984812Y-59063097D01*
X135767357Y-59173896D01*
X135569923Y-59317339D01*
X135569918Y-59317343D01*
X135397343Y-59489918D01*
X135397339Y-59489923D01*
X135253896Y-59687357D01*
X135143097Y-59904812D01*
X135067678Y-60136927D01*
X135040251Y-60310097D01*
X135029500Y-60377973D01*
X133050500Y-60377973D01*
X133012321Y-60136924D01*
X132936904Y-59904815D01*
X132826106Y-59687361D01*
X132746171Y-59577339D01*
X132682660Y-59489923D01*
X132682656Y-59489918D01*
X132510081Y-59317343D01*
X132510076Y-59317339D01*
X132312642Y-59173896D01*
X132312641Y-59173895D01*
X132312639Y-59173894D01*
X132095185Y-59063096D01*
X131863076Y-58987679D01*
X131863074Y-58987678D01*
X131863072Y-58987678D01*
X131688320Y-58960000D01*
X131622027Y-58949500D01*
X131377973Y-58949500D01*
X131322093Y-58958350D01*
X131136927Y-58987678D01*
X130904812Y-59063097D01*
X130687357Y-59173896D01*
X130489923Y-59317339D01*
X130489918Y-59317343D01*
X130317343Y-59489918D01*
X130317339Y-59489923D01*
X130173896Y-59687357D01*
X130063097Y-59904812D01*
X129987678Y-60136927D01*
X129949500Y-60377973D01*
X129949500Y-60622026D01*
X129987679Y-60863077D01*
X130037770Y-61017244D01*
X130039765Y-61087086D01*
X130007520Y-61143243D01*
X128631286Y-62519478D01*
X128519481Y-62631282D01*
X128519480Y-62631284D01*
X128471878Y-62713735D01*
X128469361Y-62718094D01*
X128469359Y-62718096D01*
X128440425Y-62768209D01*
X128440424Y-62768210D01*
X128440423Y-62768215D01*
X128399499Y-62920943D01*
X128399499Y-62920945D01*
X128399499Y-63089046D01*
X128399500Y-63089059D01*
X128399500Y-86643002D01*
X128379815Y-86710041D01*
X128327011Y-86755796D01*
X128257853Y-86765740D01*
X128194297Y-86736715D01*
X128187819Y-86730683D01*
X127056819Y-85599683D01*
X127023334Y-85538360D01*
X127020500Y-85512002D01*
X127020500Y-82870182D01*
X127040185Y-82803143D01*
X127088204Y-82759698D01*
X127232639Y-82686106D01*
X127430083Y-82542655D01*
X127602655Y-82370083D01*
X127746106Y-82172639D01*
X127856904Y-81955185D01*
X127932321Y-81723076D01*
X127970500Y-81482027D01*
X127970500Y-81237973D01*
X127932321Y-80996924D01*
X127856904Y-80764815D01*
X127746106Y-80547361D01*
X127631847Y-80390096D01*
X127602660Y-80349923D01*
X127602656Y-80349918D01*
X127430081Y-80177343D01*
X127430076Y-80177339D01*
X127232642Y-80033896D01*
X127232641Y-80033895D01*
X127232639Y-80033894D01*
X127015185Y-79923096D01*
X126783076Y-79847679D01*
X126783074Y-79847678D01*
X126783072Y-79847678D01*
X126608320Y-79820000D01*
X126542027Y-79809500D01*
X126297973Y-79809500D01*
X126242093Y-79818350D01*
X126056927Y-79847678D01*
X125824812Y-79923097D01*
X125780795Y-79945525D01*
X125712125Y-79958421D01*
X125647385Y-79932144D01*
X125607128Y-79875038D01*
X125600500Y-79835040D01*
X125600500Y-62580096D01*
X125620185Y-62513057D01*
X125636815Y-62492419D01*
X126064037Y-62065196D01*
X126125358Y-62031713D01*
X126171109Y-62030406D01*
X126297973Y-62050500D01*
X126297975Y-62050500D01*
X126542026Y-62050500D01*
X126542027Y-62050500D01*
X126783076Y-62012321D01*
X127015185Y-61936904D01*
X127232639Y-61826106D01*
X127430083Y-61682655D01*
X127602655Y-61510083D01*
X127746106Y-61312639D01*
X127856904Y-61095185D01*
X127932321Y-60863076D01*
X127970500Y-60622027D01*
X127970500Y-60377973D01*
X127932321Y-60136924D01*
X127856904Y-59904815D01*
X127746106Y-59687361D01*
X127666171Y-59577339D01*
X127602660Y-59489923D01*
X127602656Y-59489918D01*
X127430081Y-59317343D01*
X127430076Y-59317339D01*
X127232642Y-59173896D01*
X127232641Y-59173895D01*
X127232639Y-59173894D01*
X127015185Y-59063096D01*
X126783076Y-58987679D01*
X126783074Y-58987678D01*
X126783072Y-58987678D01*
X126608320Y-58960000D01*
X126542027Y-58949500D01*
X126297973Y-58949500D01*
X126242093Y-58958350D01*
X126056927Y-58987678D01*
X125824812Y-59063097D01*
X125607357Y-59173896D01*
X125409923Y-59317339D01*
X125409918Y-59317343D01*
X125237343Y-59489918D01*
X125237339Y-59489923D01*
X125093896Y-59687357D01*
X124983097Y-59904812D01*
X124907678Y-60136927D01*
X124880251Y-60310097D01*
X124869500Y-60377973D01*
X124869500Y-60622027D01*
X124907679Y-60863076D01*
X124981252Y-61089511D01*
X124983097Y-61095187D01*
X125061172Y-61248419D01*
X125074068Y-61317089D01*
X125047791Y-61381829D01*
X125038368Y-61392395D01*
X124631286Y-61799478D01*
X124519481Y-61911282D01*
X124519479Y-61911285D01*
X124480353Y-61979055D01*
X124480352Y-61979057D01*
X124440423Y-62048214D01*
X124434363Y-62070830D01*
X124399499Y-62200943D01*
X124399499Y-62200945D01*
X124399499Y-62369046D01*
X124399500Y-62369059D01*
X124399500Y-83750903D01*
X124379815Y-83817942D01*
X124327011Y-83863697D01*
X124257853Y-83873641D01*
X124194297Y-83844616D01*
X124187819Y-83838584D01*
X122680299Y-82331064D01*
X122646814Y-82269741D01*
X122651798Y-82200049D01*
X122664103Y-82177128D01*
X122663560Y-82176795D01*
X122666101Y-82172647D01*
X122666104Y-82172642D01*
X122666106Y-82172639D01*
X122776904Y-81955185D01*
X122852321Y-81723076D01*
X122890500Y-81482027D01*
X122890500Y-81237973D01*
X122852321Y-80996924D01*
X122776904Y-80764815D01*
X122666106Y-80547361D01*
X122551847Y-80390096D01*
X122522660Y-80349923D01*
X122522656Y-80349918D01*
X122350081Y-80177343D01*
X122350076Y-80177339D01*
X122152642Y-80033896D01*
X122152641Y-80033895D01*
X122152639Y-80033894D01*
X121935185Y-79923096D01*
X121703076Y-79847679D01*
X121703074Y-79847678D01*
X121703072Y-79847678D01*
X121528320Y-79820000D01*
X121462027Y-79809500D01*
X121217973Y-79809500D01*
X121162093Y-79818350D01*
X120976927Y-79847678D01*
X120744812Y-79923097D01*
X120527357Y-80033896D01*
X120329923Y-80177339D01*
X120329918Y-80177343D01*
X120157343Y-80349918D01*
X120157339Y-80349923D01*
X120013896Y-80547357D01*
X119903095Y-80764815D01*
X119894738Y-80790534D01*
X119855299Y-80848208D01*
X119790939Y-80875403D01*
X119722093Y-80863486D01*
X119689128Y-80839892D01*
X119136819Y-80287583D01*
X119103334Y-80226260D01*
X119100500Y-80199902D01*
X119100500Y-63640097D01*
X119120185Y-63573058D01*
X119136819Y-63552416D01*
X119854423Y-62834812D01*
X120696758Y-61992476D01*
X120758079Y-61958993D01*
X120822754Y-61962227D01*
X120976924Y-62012321D01*
X121217973Y-62050500D01*
X121217974Y-62050500D01*
X121462026Y-62050500D01*
X121462027Y-62050500D01*
X121703076Y-62012321D01*
X121935185Y-61936904D01*
X122152639Y-61826106D01*
X122350083Y-61682655D01*
X122522655Y-61510083D01*
X122666106Y-61312639D01*
X122776904Y-61095185D01*
X122852321Y-60863076D01*
X122890500Y-60622027D01*
X122890500Y-60377973D01*
X122852321Y-60136924D01*
X122776904Y-59904815D01*
X122666106Y-59687361D01*
X122586171Y-59577339D01*
X122522660Y-59489923D01*
X122522656Y-59489918D01*
X122350081Y-59317343D01*
X122350076Y-59317339D01*
X122152642Y-59173896D01*
X122152641Y-59173895D01*
X122152639Y-59173894D01*
X121935185Y-59063096D01*
X121703076Y-58987679D01*
X121703074Y-58987678D01*
X121703072Y-58987678D01*
X121528320Y-58960000D01*
X121462027Y-58949500D01*
X121217973Y-58949500D01*
X121162093Y-58958350D01*
X120976927Y-58987678D01*
X120744812Y-59063097D01*
X120527357Y-59173896D01*
X120329923Y-59317339D01*
X120329918Y-59317343D01*
X120157343Y-59489918D01*
X120157339Y-59489923D01*
X120013896Y-59687357D01*
X119903097Y-59904812D01*
X119827678Y-60136927D01*
X119789500Y-60377973D01*
X119789500Y-60622026D01*
X119827679Y-60863077D01*
X119827679Y-60863080D01*
X119877770Y-61017243D01*
X119879765Y-61087084D01*
X119847520Y-61143242D01*
X118812181Y-62178582D01*
X118750858Y-62212067D01*
X118681166Y-62207083D01*
X118625233Y-62165211D01*
X118600816Y-62099747D01*
X118600500Y-62090901D01*
X118600500Y-61769060D01*
X118600501Y-61769047D01*
X118600501Y-61600944D01*
X118595683Y-61582963D01*
X118559577Y-61448216D01*
X118559573Y-61448209D01*
X118480524Y-61311290D01*
X118480518Y-61311282D01*
X118312478Y-61143242D01*
X118108960Y-60939725D01*
X118108959Y-60939723D01*
X117846819Y-60677583D01*
X117813334Y-60616260D01*
X117810500Y-60589902D01*
X117810500Y-59649997D01*
X117810499Y-59649984D01*
X117799999Y-59547204D01*
X117799999Y-59547203D01*
X117744814Y-59380666D01*
X117732118Y-59360083D01*
X117652713Y-59231348D01*
X117652710Y-59231344D01*
X117528655Y-59107289D01*
X117528651Y-59107286D01*
X117379337Y-59015187D01*
X117379335Y-59015186D01*
X117296065Y-58987593D01*
X117212797Y-58960001D01*
X117212795Y-58960000D01*
X117110015Y-58949500D01*
X117110008Y-58949500D01*
X115409992Y-58949500D01*
X115409984Y-58949500D01*
X115307204Y-58960000D01*
X115307203Y-58960001D01*
X115140664Y-59015186D01*
X115140662Y-59015187D01*
X114991348Y-59107286D01*
X114991344Y-59107289D01*
X114867289Y-59231344D01*
X114867286Y-59231348D01*
X114775187Y-59380662D01*
X114775186Y-59380664D01*
X114720001Y-59547203D01*
X114720000Y-59547204D01*
X114709500Y-59649984D01*
X114709500Y-61350015D01*
X114720000Y-61452795D01*
X114720001Y-61452797D01*
X114738983Y-61510081D01*
X114775186Y-61619335D01*
X114775187Y-61619337D01*
X114867286Y-61768651D01*
X114867289Y-61768655D01*
X114991344Y-61892710D01*
X114991348Y-61892713D01*
X115140662Y-61984812D01*
X115140664Y-61984813D01*
X115140666Y-61984814D01*
X115307203Y-62039999D01*
X115409992Y-62050500D01*
X115409997Y-62050500D01*
X117110003Y-62050500D01*
X117110008Y-62050500D01*
X117212797Y-62039999D01*
X117236495Y-62032145D01*
X117306322Y-62029743D01*
X117366365Y-62065473D01*
X117397558Y-62127993D01*
X117399500Y-62149851D01*
X117399500Y-79710148D01*
X117379815Y-79777187D01*
X117327011Y-79822942D01*
X117257853Y-79832886D01*
X117236498Y-79827854D01*
X117212802Y-79820002D01*
X117212795Y-79820000D01*
X117110015Y-79809500D01*
X117110008Y-79809500D01*
X115409992Y-79809500D01*
X115409984Y-79809500D01*
X115307204Y-79820000D01*
X115307203Y-79820001D01*
X115140664Y-79875186D01*
X115140662Y-79875187D01*
X114991348Y-79967286D01*
X114991344Y-79967289D01*
X114867288Y-80091345D01*
X114830038Y-80151737D01*
X114778090Y-80198461D01*
X114709127Y-80209682D01*
X114645045Y-80181838D01*
X114606190Y-80123769D01*
X114600500Y-80086639D01*
X114600500Y-64079060D01*
X114600501Y-64079047D01*
X114600501Y-63910944D01*
X114600501Y-63910943D01*
X114559577Y-63758216D01*
X114491382Y-63640097D01*
X114480524Y-63621290D01*
X114480518Y-63621282D01*
X101586819Y-50727583D01*
X101553334Y-50666260D01*
X101550500Y-50639902D01*
X101550500Y-50477973D01*
X101512321Y-50236927D01*
X101512321Y-50236924D01*
X101436904Y-50004815D01*
X101326106Y-49787361D01*
X101307779Y-49762136D01*
X101182660Y-49589923D01*
X101182656Y-49589918D01*
X101010081Y-49417343D01*
X101010076Y-49417339D01*
X100812642Y-49273896D01*
X100812641Y-49273895D01*
X100812639Y-49273894D01*
X100595185Y-49163096D01*
X100363076Y-49087679D01*
X100363074Y-49087678D01*
X100363072Y-49087678D01*
X100194769Y-49061021D01*
X100122027Y-49049500D01*
X99877973Y-49049500D01*
X99822093Y-49058350D01*
X99636927Y-49087678D01*
X99404812Y-49163097D01*
X99187357Y-49273896D01*
X98989923Y-49417339D01*
X98989918Y-49417343D01*
X98817343Y-49589918D01*
X98817339Y-49589923D01*
X98673896Y-49787357D01*
X98563097Y-50004812D01*
X98487678Y-50236927D01*
X98449500Y-50477973D01*
X98449500Y-50722026D01*
X98487678Y-50963072D01*
X98563097Y-51195187D01*
X98673896Y-51412642D01*
X98817339Y-51610076D01*
X98817343Y-51610081D01*
X98989918Y-51782656D01*
X98989923Y-51782660D01*
X99103668Y-51865300D01*
X99187361Y-51926106D01*
X99404815Y-52036904D01*
X99636924Y-52112321D01*
X99877973Y-52150500D01*
X99877974Y-52150500D01*
X100122026Y-52150500D01*
X100122027Y-52150500D01*
X100363076Y-52112321D01*
X100595185Y-52036904D01*
X100812639Y-51926106D01*
X100885794Y-51872955D01*
X100951596Y-51849476D01*
X101019650Y-51865300D01*
X101046358Y-51885593D01*
X113363181Y-64202416D01*
X113396666Y-64263739D01*
X113399500Y-64290097D01*
X113399500Y-67740903D01*
X113379815Y-67807942D01*
X113327011Y-67853697D01*
X113257853Y-67863641D01*
X113194297Y-67834616D01*
X113187819Y-67828584D01*
X101539073Y-56179838D01*
X101505588Y-56118515D01*
X101508823Y-56053839D01*
X101512321Y-56043076D01*
X101550500Y-55802027D01*
X101550500Y-55557973D01*
X101512321Y-55316924D01*
X101436904Y-55084815D01*
X101326106Y-54867361D01*
X101284430Y-54809999D01*
X101182660Y-54669923D01*
X101182656Y-54669918D01*
X101010081Y-54497343D01*
X101010076Y-54497339D01*
X100812642Y-54353896D01*
X100812641Y-54353895D01*
X100812639Y-54353894D01*
X100595185Y-54243096D01*
X100363076Y-54167679D01*
X100363074Y-54167678D01*
X100363072Y-54167678D01*
X100194769Y-54141021D01*
X100122027Y-54129500D01*
X99877973Y-54129500D01*
X99822093Y-54138350D01*
X99636927Y-54167678D01*
X99404812Y-54243097D01*
X99187357Y-54353896D01*
X98989923Y-54497339D01*
X98989918Y-54497343D01*
X98817343Y-54669918D01*
X98817339Y-54669923D01*
X98673896Y-54867357D01*
X98563097Y-55084812D01*
X98487678Y-55316927D01*
X98449500Y-55557973D01*
X98449500Y-55802027D01*
X98487679Y-56043076D01*
X98514657Y-56126107D01*
X98563097Y-56275187D01*
X98673896Y-56492642D01*
X98817339Y-56690076D01*
X98817343Y-56690081D01*
X98989918Y-56862656D01*
X98989923Y-56862660D01*
X99162136Y-56987779D01*
X99187361Y-57006106D01*
X99404815Y-57116904D01*
X99636924Y-57192321D01*
X99877973Y-57230500D01*
X99877974Y-57230500D01*
X100122026Y-57230500D01*
X100122027Y-57230500D01*
X100363076Y-57192321D01*
X100595185Y-57116904D01*
X100635802Y-57096208D01*
X100704468Y-57083312D01*
X100769209Y-57109587D01*
X100779777Y-57119012D01*
X112613181Y-68952416D01*
X112646666Y-69013739D01*
X112649500Y-69040097D01*
X112649500Y-83413330D01*
X112649499Y-83413348D01*
X112649499Y-83579054D01*
X112649498Y-83579054D01*
X112649499Y-83579057D01*
X112690423Y-83731785D01*
X112712335Y-83769737D01*
X112755566Y-83844616D01*
X112769479Y-83868714D01*
X112769481Y-83868717D01*
X113015459Y-84114695D01*
X113035263Y-84140546D01*
X113039369Y-84147684D01*
X113039423Y-84147885D01*
X113056001Y-84176598D01*
X113097653Y-84248743D01*
X113118479Y-84284815D01*
X113237349Y-84403685D01*
X113237355Y-84403690D01*
X114010541Y-85176876D01*
X114044026Y-85238199D01*
X114039042Y-85307891D01*
X113997170Y-85363824D01*
X113947057Y-85386173D01*
X113926511Y-85390260D01*
X113926498Y-85390264D01*
X113780827Y-85450602D01*
X113780814Y-85450609D01*
X113649711Y-85538210D01*
X113649707Y-85538213D01*
X113538213Y-85649707D01*
X113538210Y-85649711D01*
X113450609Y-85780814D01*
X113450604Y-85780824D01*
X113427737Y-85836031D01*
X113383896Y-85890434D01*
X113317602Y-85912499D01*
X113249902Y-85895220D01*
X113225495Y-85876259D01*
X112386819Y-85037583D01*
X112353334Y-84976260D01*
X112350500Y-84949902D01*
X112350500Y-71910945D01*
X112350500Y-71910943D01*
X112309577Y-71758216D01*
X112309577Y-71758215D01*
X112309577Y-71758214D01*
X112280639Y-71708095D01*
X112280637Y-71708092D01*
X112230520Y-71621284D01*
X112118716Y-71509480D01*
X112118715Y-71509479D01*
X112114385Y-71505149D01*
X112114374Y-71505139D01*
X101586599Y-60977364D01*
X101553114Y-60916041D01*
X101551138Y-60886899D01*
X101550500Y-60886899D01*
X101550500Y-60637973D01*
X101512321Y-60396927D01*
X101512321Y-60396924D01*
X101436904Y-60164815D01*
X101326106Y-59947361D01*
X101295195Y-59904815D01*
X101182660Y-59749923D01*
X101182656Y-59749918D01*
X101010081Y-59577343D01*
X101010076Y-59577339D01*
X100812642Y-59433896D01*
X100812641Y-59433895D01*
X100812639Y-59433894D01*
X100595185Y-59323096D01*
X100363076Y-59247679D01*
X100363074Y-59247678D01*
X100363072Y-59247678D01*
X100194769Y-59221021D01*
X100122027Y-59209500D01*
X99877973Y-59209500D01*
X99822093Y-59218350D01*
X99636927Y-59247678D01*
X99404812Y-59323097D01*
X99187357Y-59433896D01*
X98989923Y-59577339D01*
X98989918Y-59577343D01*
X98817343Y-59749918D01*
X98817339Y-59749923D01*
X98673896Y-59947357D01*
X98563097Y-60164812D01*
X98487678Y-60396927D01*
X98449500Y-60637973D01*
X98449500Y-60882026D01*
X98483261Y-61095187D01*
X98487679Y-61123076D01*
X98563096Y-61355185D01*
X98642020Y-61510083D01*
X98673896Y-61572642D01*
X98817339Y-61770076D01*
X98817343Y-61770081D01*
X98989918Y-61942656D01*
X98989923Y-61942660D01*
X99158962Y-62065473D01*
X99187361Y-62086106D01*
X99404815Y-62196904D01*
X99636924Y-62272321D01*
X99877973Y-62310500D01*
X99877974Y-62310500D01*
X100122026Y-62310500D01*
X100122027Y-62310500D01*
X100363076Y-62272321D01*
X100595185Y-62196904D01*
X100812639Y-62086106D01*
X100833664Y-62070829D01*
X100899470Y-62047349D01*
X100967524Y-62063174D01*
X100994231Y-62083466D01*
X111113181Y-72202416D01*
X111146666Y-72263739D01*
X111149500Y-72290097D01*
X111149500Y-75840901D01*
X111143261Y-75862146D01*
X111141682Y-75884233D01*
X111133609Y-75895016D01*
X111129815Y-75907940D01*
X111113082Y-75922438D01*
X111099812Y-75940167D01*
X111087189Y-75944875D01*
X111077011Y-75953695D01*
X111055095Y-75956846D01*
X111034348Y-75964585D01*
X111021185Y-75961721D01*
X111007853Y-75963639D01*
X110987710Y-75954440D01*
X110966075Y-75949734D01*
X110948348Y-75936464D01*
X110944297Y-75934614D01*
X110937820Y-75928583D01*
X110887209Y-75877973D01*
X110868716Y-75859480D01*
X110868713Y-75859478D01*
X101492478Y-66483243D01*
X101458993Y-66421920D01*
X101462228Y-66357244D01*
X101512321Y-66203076D01*
X101550500Y-65962027D01*
X101550500Y-65717973D01*
X101512321Y-65476924D01*
X101436904Y-65244815D01*
X101326106Y-65027361D01*
X101264321Y-64942321D01*
X101182660Y-64829923D01*
X101182656Y-64829918D01*
X101010081Y-64657343D01*
X101010076Y-64657339D01*
X100812642Y-64513896D01*
X100812641Y-64513895D01*
X100812639Y-64513894D01*
X100595185Y-64403096D01*
X100363076Y-64327679D01*
X100363074Y-64327678D01*
X100363072Y-64327678D01*
X100194769Y-64301021D01*
X100122027Y-64289500D01*
X99877973Y-64289500D01*
X99822093Y-64298350D01*
X99636927Y-64327678D01*
X99404812Y-64403097D01*
X99187357Y-64513896D01*
X98989923Y-64657339D01*
X98989918Y-64657343D01*
X98817343Y-64829918D01*
X98817339Y-64829923D01*
X98673896Y-65027357D01*
X98563097Y-65244812D01*
X98487678Y-65476927D01*
X98449500Y-65717973D01*
X98449500Y-65962027D01*
X98487679Y-66203076D01*
X98563096Y-66435185D01*
X98672598Y-66650096D01*
X98673896Y-66652642D01*
X98817339Y-66850076D01*
X98817343Y-66850081D01*
X98989918Y-67022656D01*
X98989923Y-67022660D01*
X99162136Y-67147779D01*
X99187361Y-67166106D01*
X99404815Y-67276904D01*
X99636924Y-67352321D01*
X99877973Y-67390500D01*
X99877974Y-67390500D01*
X100122026Y-67390500D01*
X100122027Y-67390500D01*
X100363076Y-67352321D01*
X100517245Y-67302227D01*
X100587085Y-67300233D01*
X100643243Y-67332478D01*
X109863181Y-76552416D01*
X109896666Y-76613739D01*
X109899500Y-76640097D01*
X109899500Y-85913330D01*
X109899499Y-85913348D01*
X109899499Y-86079054D01*
X109899498Y-86079054D01*
X109940423Y-86231785D01*
X109940424Y-86231788D01*
X109944622Y-86239058D01*
X109944625Y-86239063D01*
X110019477Y-86368712D01*
X110019481Y-86368717D01*
X110138349Y-86487585D01*
X110138355Y-86487590D01*
X127394563Y-103743798D01*
X127428048Y-103805121D01*
X127423064Y-103874813D01*
X127381192Y-103930746D01*
X127363177Y-103941964D01*
X127273386Y-103987715D01*
X127107786Y-104108028D01*
X126963028Y-104252786D01*
X126842715Y-104418385D01*
X126835883Y-104431795D01*
X126787909Y-104482591D01*
X126725398Y-104499500D01*
X124995097Y-104499500D01*
X124928058Y-104479815D01*
X124907416Y-104463181D01*
X108886819Y-88442584D01*
X108853334Y-88381261D01*
X108850500Y-88354903D01*
X108850500Y-78660945D01*
X108850500Y-78660943D01*
X108809577Y-78508215D01*
X108780639Y-78458095D01*
X108730520Y-78371284D01*
X108618716Y-78259480D01*
X108618715Y-78259479D01*
X108614385Y-78255149D01*
X108614374Y-78255139D01*
X101574770Y-71215535D01*
X101541285Y-71154212D01*
X101539978Y-71108455D01*
X101550500Y-71042025D01*
X101550500Y-70797973D01*
X101512321Y-70556927D01*
X101512321Y-70556924D01*
X101436904Y-70324815D01*
X101326106Y-70107361D01*
X101264321Y-70022321D01*
X101182660Y-69909923D01*
X101182656Y-69909918D01*
X101010081Y-69737343D01*
X101010076Y-69737339D01*
X100812642Y-69593896D01*
X100812641Y-69593895D01*
X100812639Y-69593894D01*
X100595185Y-69483096D01*
X100363076Y-69407679D01*
X100363074Y-69407678D01*
X100363072Y-69407678D01*
X100194769Y-69381021D01*
X100122027Y-69369500D01*
X99877973Y-69369500D01*
X99822093Y-69378350D01*
X99636927Y-69407678D01*
X99404812Y-69483097D01*
X99187357Y-69593896D01*
X98989923Y-69737339D01*
X98989918Y-69737343D01*
X98817343Y-69909918D01*
X98817339Y-69909923D01*
X98673896Y-70107357D01*
X98563097Y-70324812D01*
X98487678Y-70556927D01*
X98449500Y-70797973D01*
X98449500Y-71042027D01*
X98487679Y-71283076D01*
X98563096Y-71515185D01*
X98661388Y-71708095D01*
X98673896Y-71732642D01*
X98817339Y-71930076D01*
X98817343Y-71930081D01*
X98989918Y-72102656D01*
X98989923Y-72102660D01*
X99127227Y-72202416D01*
X99187361Y-72246106D01*
X99404815Y-72356904D01*
X99636924Y-72432321D01*
X99877973Y-72470500D01*
X99877974Y-72470500D01*
X100122026Y-72470500D01*
X100122027Y-72470500D01*
X100363076Y-72432321D01*
X100595185Y-72356904D01*
X100794793Y-72255198D01*
X100863461Y-72242303D01*
X100928202Y-72268579D01*
X100938768Y-72278003D01*
X107613181Y-78952416D01*
X107646666Y-79013739D01*
X107649500Y-79040097D01*
X107649500Y-88568330D01*
X107649499Y-88568348D01*
X107649499Y-88734054D01*
X107649498Y-88734054D01*
X107690423Y-88886787D01*
X107690425Y-88886790D01*
X107717373Y-88933464D01*
X107717375Y-88933466D01*
X107769479Y-89023714D01*
X107769481Y-89023717D01*
X107888349Y-89142585D01*
X107888355Y-89142590D01*
X124210139Y-105464374D01*
X124210149Y-105464385D01*
X124214479Y-105468715D01*
X124214480Y-105468716D01*
X124326284Y-105580520D01*
X124398177Y-105622027D01*
X124463215Y-105659577D01*
X124615943Y-105700501D01*
X124615946Y-105700501D01*
X124781653Y-105700501D01*
X124781669Y-105700500D01*
X126725398Y-105700500D01*
X126792437Y-105720185D01*
X126835882Y-105768204D01*
X126841281Y-105778799D01*
X126842715Y-105781614D01*
X126963028Y-105947213D01*
X126963034Y-105947219D01*
X127107781Y-106091966D01*
X127191493Y-106152786D01*
X127222318Y-106175181D01*
X127264984Y-106230511D01*
X127270963Y-106300125D01*
X127238358Y-106361920D01*
X127177519Y-106396277D01*
X127149433Y-106399500D01*
X124504203Y-106399500D01*
X124437164Y-106379815D01*
X124416522Y-106363181D01*
X114011696Y-95958355D01*
X114011694Y-95958352D01*
X113892823Y-95839481D01*
X113892822Y-95839480D01*
X113806010Y-95789360D01*
X113806010Y-95789359D01*
X113806006Y-95789358D01*
X113755891Y-95760423D01*
X113603163Y-95719499D01*
X113445049Y-95719499D01*
X113437453Y-95719499D01*
X113437437Y-95719500D01*
X101674500Y-95719500D01*
X101607461Y-95699815D01*
X101561706Y-95647011D01*
X101550500Y-95595500D01*
X101550500Y-95469997D01*
X101550499Y-95469984D01*
X101539999Y-95367204D01*
X101539999Y-95367203D01*
X101484814Y-95200666D01*
X101392711Y-95051345D01*
X101268655Y-94927289D01*
X101268651Y-94927286D01*
X101119337Y-94835187D01*
X101119335Y-94835186D01*
X101036065Y-94807593D01*
X100952797Y-94780001D01*
X100952795Y-94780000D01*
X100850015Y-94769500D01*
X100850008Y-94769500D01*
X99149992Y-94769500D01*
X99149984Y-94769500D01*
X99047204Y-94780000D01*
X99047203Y-94780001D01*
X98880664Y-94835186D01*
X98880662Y-94835187D01*
X98731348Y-94927286D01*
X98731344Y-94927289D01*
X98607289Y-95051344D01*
X98607286Y-95051348D01*
X98515187Y-95200662D01*
X98515186Y-95200664D01*
X98460001Y-95367203D01*
X98460000Y-95367204D01*
X98449500Y-95469984D01*
X98449500Y-97170015D01*
X98460000Y-97272795D01*
X98460001Y-97272796D01*
X98515186Y-97439335D01*
X98515187Y-97439337D01*
X98607286Y-97588651D01*
X98607289Y-97588655D01*
X98731344Y-97712710D01*
X98731348Y-97712713D01*
X98880662Y-97804812D01*
X98880664Y-97804813D01*
X98880666Y-97804814D01*
X99047203Y-97859999D01*
X99149992Y-97870500D01*
X99149997Y-97870500D01*
X100850003Y-97870500D01*
X100850008Y-97870500D01*
X100952797Y-97859999D01*
X101119334Y-97804814D01*
X101268655Y-97712711D01*
X101392711Y-97588655D01*
X101484814Y-97439334D01*
X101539999Y-97272797D01*
X101550500Y-97170008D01*
X101550500Y-97044500D01*
X101570185Y-96977461D01*
X101622989Y-96931706D01*
X101674500Y-96920500D01*
X113224009Y-96920500D01*
X113291048Y-96940185D01*
X113311690Y-96956819D01*
X120658215Y-104303344D01*
X120691700Y-104364667D01*
X120686716Y-104434359D01*
X120644844Y-104490292D01*
X120584418Y-104514245D01*
X120520587Y-104521437D01*
X120520575Y-104521439D01*
X120246821Y-104583921D01*
X120246819Y-104583922D01*
X119981782Y-104676662D01*
X119728799Y-104798492D01*
X119491043Y-104947884D01*
X119357741Y-105054187D01*
X119999301Y-105695747D01*
X119897670Y-105769588D01*
X119719588Y-105947670D01*
X119645747Y-106049301D01*
X119004187Y-105407741D01*
X118897884Y-105541043D01*
X118748492Y-105778799D01*
X118626662Y-106031782D01*
X118533922Y-106296819D01*
X118533921Y-106296821D01*
X118471439Y-106570575D01*
X118471437Y-106570587D01*
X118440000Y-106849598D01*
X118440000Y-107130401D01*
X118471437Y-107409412D01*
X118471439Y-107409424D01*
X118533921Y-107683178D01*
X118533922Y-107683180D01*
X118626662Y-107948217D01*
X118748492Y-108201200D01*
X118897884Y-108438956D01*
X118937942Y-108489187D01*
X118964350Y-108553873D01*
X118951595Y-108622569D01*
X118903725Y-108673463D01*
X118840995Y-108690500D01*
X116591098Y-108690500D01*
X116524059Y-108670815D01*
X116503417Y-108654181D01*
X113992478Y-106143243D01*
X113958993Y-106081920D01*
X113962228Y-106017244D01*
X113966326Y-106004633D01*
X114012321Y-105863076D01*
X114050500Y-105622027D01*
X114050500Y-105377973D01*
X114012321Y-105136924D01*
X113936904Y-104904815D01*
X113826106Y-104687361D01*
X113798950Y-104649984D01*
X113682660Y-104489923D01*
X113682656Y-104489918D01*
X113510081Y-104317343D01*
X113510076Y-104317339D01*
X113312642Y-104173896D01*
X113312641Y-104173895D01*
X113312639Y-104173894D01*
X113095185Y-104063096D01*
X112863076Y-103987679D01*
X112863074Y-103987678D01*
X112863072Y-103987678D01*
X112688320Y-103960000D01*
X112622027Y-103949500D01*
X112377973Y-103949500D01*
X112322093Y-103958350D01*
X112136927Y-103987678D01*
X111904812Y-104063097D01*
X111687357Y-104173896D01*
X111489923Y-104317339D01*
X111489918Y-104317343D01*
X111317343Y-104489918D01*
X111317339Y-104489923D01*
X111173896Y-104687357D01*
X111063097Y-104904812D01*
X110987678Y-105136927D01*
X110953504Y-105352692D01*
X110949500Y-105377973D01*
X110949500Y-105622027D01*
X110961021Y-105694769D01*
X110974330Y-105778799D01*
X110987679Y-105863076D01*
X111063096Y-106095185D01*
X111165834Y-106296821D01*
X111173896Y-106312642D01*
X111317339Y-106510076D01*
X111317343Y-106510081D01*
X111489918Y-106682656D01*
X111489923Y-106682660D01*
X111608286Y-106768655D01*
X111687361Y-106826106D01*
X111904815Y-106936904D01*
X112136924Y-107012321D01*
X112377973Y-107050500D01*
X112377974Y-107050500D01*
X112622026Y-107050500D01*
X112622027Y-107050500D01*
X112863076Y-107012321D01*
X113017245Y-106962227D01*
X113087085Y-106960233D01*
X113143243Y-106992478D01*
X115338583Y-109187819D01*
X115372068Y-109249142D01*
X115367084Y-109318834D01*
X115325212Y-109374767D01*
X115259748Y-109399184D01*
X115250902Y-109399500D01*
X112220097Y-109399500D01*
X112153058Y-109379815D01*
X112132416Y-109363181D01*
X108912478Y-106143243D01*
X108878993Y-106081920D01*
X108882228Y-106017244D01*
X108886326Y-106004633D01*
X108932321Y-105863076D01*
X108970500Y-105622027D01*
X108970500Y-105377973D01*
X108932321Y-105136924D01*
X108856904Y-104904815D01*
X108746106Y-104687361D01*
X108718950Y-104649984D01*
X108602660Y-104489923D01*
X108602656Y-104489918D01*
X108430081Y-104317343D01*
X108430076Y-104317339D01*
X108232642Y-104173896D01*
X108232641Y-104173895D01*
X108232639Y-104173894D01*
X108015185Y-104063096D01*
X107783076Y-103987679D01*
X107783074Y-103987678D01*
X107783072Y-103987678D01*
X107608320Y-103960000D01*
X107542027Y-103949500D01*
X107297973Y-103949500D01*
X107242093Y-103958350D01*
X107056927Y-103987678D01*
X106824812Y-104063097D01*
X106607357Y-104173896D01*
X106409923Y-104317339D01*
X106409918Y-104317343D01*
X106237343Y-104489918D01*
X106237339Y-104489923D01*
X106093896Y-104687357D01*
X105983097Y-104904812D01*
X105907678Y-105136927D01*
X105873504Y-105352692D01*
X105869500Y-105377973D01*
X105869500Y-105622027D01*
X105881021Y-105694769D01*
X105894330Y-105778799D01*
X105907679Y-105863076D01*
X105983096Y-106095185D01*
X106085834Y-106296821D01*
X106093896Y-106312642D01*
X106237339Y-106510076D01*
X106237343Y-106510081D01*
X106409918Y-106682656D01*
X106409923Y-106682660D01*
X106528286Y-106768655D01*
X106607361Y-106826106D01*
X106824815Y-106936904D01*
X107056924Y-107012321D01*
X107297973Y-107050500D01*
X107297974Y-107050500D01*
X107542026Y-107050500D01*
X107542027Y-107050500D01*
X107783076Y-107012321D01*
X107937245Y-106962227D01*
X108007085Y-106960233D01*
X108063243Y-106992478D01*
X110659584Y-109588819D01*
X110693069Y-109650142D01*
X110688085Y-109719834D01*
X110646213Y-109775767D01*
X110580749Y-109800184D01*
X110571903Y-109800500D01*
X107541098Y-109800500D01*
X107474059Y-109780815D01*
X107453417Y-109764181D01*
X105681202Y-107991966D01*
X103832477Y-106143242D01*
X103798993Y-106081920D01*
X103802228Y-106017244D01*
X103806326Y-106004633D01*
X103852321Y-105863076D01*
X103890500Y-105622027D01*
X103890500Y-105377973D01*
X103852321Y-105136924D01*
X103776904Y-104904815D01*
X103666106Y-104687361D01*
X103638950Y-104649984D01*
X103522660Y-104489923D01*
X103522656Y-104489918D01*
X103350081Y-104317343D01*
X103350076Y-104317339D01*
X103152642Y-104173896D01*
X103152641Y-104173895D01*
X103152639Y-104173894D01*
X102935185Y-104063096D01*
X102703076Y-103987679D01*
X102703074Y-103987678D01*
X102703072Y-103987678D01*
X102528320Y-103960000D01*
X102462027Y-103949500D01*
X102217973Y-103949500D01*
X102162093Y-103958350D01*
X101976927Y-103987678D01*
X101744812Y-104063097D01*
X101527357Y-104173896D01*
X101329923Y-104317339D01*
X101329918Y-104317343D01*
X101157343Y-104489918D01*
X101157339Y-104489923D01*
X101013896Y-104687357D01*
X100903097Y-104904812D01*
X100827678Y-105136927D01*
X100793504Y-105352692D01*
X100789500Y-105377973D01*
X100789500Y-105622027D01*
X100801021Y-105694769D01*
X100814330Y-105778799D01*
X100827679Y-105863076D01*
X100903096Y-106095185D01*
X101005834Y-106296821D01*
X101013896Y-106312642D01*
X101157339Y-106510076D01*
X101157343Y-106510081D01*
X101329918Y-106682656D01*
X101329923Y-106682660D01*
X101448286Y-106768655D01*
X101527361Y-106826106D01*
X101744815Y-106936904D01*
X101976924Y-107012321D01*
X102217973Y-107050500D01*
X102217974Y-107050500D01*
X102462026Y-107050500D01*
X102462027Y-107050500D01*
X102703076Y-107012321D01*
X102857245Y-106962227D01*
X102927085Y-106960233D01*
X102983243Y-106992478D01*
X105980583Y-109989819D01*
X106014068Y-110051142D01*
X106009084Y-110120834D01*
X105967212Y-110176767D01*
X105901748Y-110201184D01*
X105892902Y-110201500D01*
X102862097Y-110201500D01*
X102795058Y-110181815D01*
X102774416Y-110165181D01*
X98846819Y-106237584D01*
X98813334Y-106176261D01*
X98810500Y-106149903D01*
X98810500Y-104649997D01*
X98810499Y-104649984D01*
X98799999Y-104547204D01*
X98799999Y-104547203D01*
X98744814Y-104380666D01*
X98740691Y-104373982D01*
X98652713Y-104231348D01*
X98652710Y-104231344D01*
X98528655Y-104107289D01*
X98528651Y-104107286D01*
X98379337Y-104015187D01*
X98379335Y-104015186D01*
X98296065Y-103987593D01*
X98212797Y-103960001D01*
X98212795Y-103960000D01*
X98110015Y-103949500D01*
X98110008Y-103949500D01*
X96409992Y-103949500D01*
X96409984Y-103949500D01*
X96307204Y-103960000D01*
X96307203Y-103960001D01*
X96140664Y-104015186D01*
X96140662Y-104015187D01*
X95991348Y-104107286D01*
X95991344Y-104107289D01*
X95867289Y-104231344D01*
X95867286Y-104231348D01*
X95775187Y-104380662D01*
X95775186Y-104380664D01*
X95720001Y-104547203D01*
X95720000Y-104547204D01*
X95709500Y-104649984D01*
X95709500Y-106350015D01*
X95720000Y-106452795D01*
X95720001Y-106452797D01*
X95738983Y-106510081D01*
X95775186Y-106619335D01*
X95775187Y-106619337D01*
X95867286Y-106768651D01*
X95867289Y-106768655D01*
X95991344Y-106892710D01*
X95991348Y-106892713D01*
X96140662Y-106984812D01*
X96140664Y-106984813D01*
X96140666Y-106984814D01*
X96307203Y-107039999D01*
X96409992Y-107050500D01*
X97909903Y-107050500D01*
X97976942Y-107070185D01*
X97997584Y-107086819D01*
X102077139Y-111166374D01*
X102077149Y-111166385D01*
X102081479Y-111170715D01*
X102081480Y-111170716D01*
X102193284Y-111282520D01*
X102280095Y-111332639D01*
X102330215Y-111361577D01*
X102332876Y-111362290D01*
X102341968Y-111367399D01*
X102361406Y-111387315D01*
X102383080Y-111404782D01*
X102385474Y-111411975D01*
X102390769Y-111417401D01*
X102396353Y-111444666D01*
X102405143Y-111471077D01*
X102403267Y-111478423D01*
X102404789Y-111485850D01*
X102394745Y-111511808D01*
X102387862Y-111538776D01*
X102382313Y-111543941D01*
X102379578Y-111551012D01*
X102357095Y-111567419D01*
X102336724Y-111586385D01*
X102328417Y-111588347D01*
X102323139Y-111592200D01*
X102308420Y-111593073D01*
X102281222Y-111599500D01*
X92524500Y-111599500D01*
X92457461Y-111579815D01*
X92411706Y-111527011D01*
X92400500Y-111475500D01*
X92400500Y-91117973D01*
X98449500Y-91117973D01*
X98449500Y-91362027D01*
X98487679Y-91603076D01*
X98563096Y-91835185D01*
X98620952Y-91948735D01*
X98673896Y-92052642D01*
X98817339Y-92250076D01*
X98817343Y-92250081D01*
X98989918Y-92422656D01*
X98989923Y-92422660D01*
X99162136Y-92547779D01*
X99187361Y-92566106D01*
X99404815Y-92676904D01*
X99636924Y-92752321D01*
X99877973Y-92790500D01*
X99877974Y-92790500D01*
X100122026Y-92790500D01*
X100122027Y-92790500D01*
X100363076Y-92752321D01*
X100595185Y-92676904D01*
X100812639Y-92566106D01*
X101010083Y-92422655D01*
X101182655Y-92250083D01*
X101326106Y-92052639D01*
X101436904Y-91835185D01*
X101512321Y-91603076D01*
X101550500Y-91362027D01*
X101550500Y-91117973D01*
X101512321Y-90876924D01*
X101436904Y-90644815D01*
X101326106Y-90427361D01*
X101209528Y-90266904D01*
X101182660Y-90229923D01*
X101182656Y-90229918D01*
X101010081Y-90057343D01*
X101010076Y-90057339D01*
X100812642Y-89913896D01*
X100812641Y-89913895D01*
X100812639Y-89913894D01*
X100595185Y-89803096D01*
X100363076Y-89727679D01*
X100363074Y-89727678D01*
X100363072Y-89727678D01*
X100194769Y-89701021D01*
X100122027Y-89689500D01*
X99877973Y-89689500D01*
X99822093Y-89698350D01*
X99636927Y-89727678D01*
X99404812Y-89803097D01*
X99187357Y-89913896D01*
X98989923Y-90057339D01*
X98989918Y-90057343D01*
X98817343Y-90229918D01*
X98817339Y-90229923D01*
X98673896Y-90427357D01*
X98563097Y-90644812D01*
X98487678Y-90876927D01*
X98449500Y-91117973D01*
X92400500Y-91117973D01*
X92400500Y-86037973D01*
X98449500Y-86037973D01*
X98449500Y-86282026D01*
X98482057Y-86487585D01*
X98487679Y-86523076D01*
X98563096Y-86755185D01*
X98658468Y-86942364D01*
X98673896Y-86972642D01*
X98817339Y-87170076D01*
X98817343Y-87170081D01*
X98989918Y-87342656D01*
X98989923Y-87342660D01*
X99162136Y-87467779D01*
X99187361Y-87486106D01*
X99404815Y-87596904D01*
X99636924Y-87672321D01*
X99877973Y-87710500D01*
X99877974Y-87710500D01*
X100122026Y-87710500D01*
X100122027Y-87710500D01*
X100363076Y-87672321D01*
X100595185Y-87596904D01*
X100812639Y-87486106D01*
X101010083Y-87342655D01*
X101182655Y-87170083D01*
X101326106Y-86972639D01*
X101436904Y-86755185D01*
X101512321Y-86523076D01*
X101550500Y-86282027D01*
X101550500Y-86037973D01*
X101512321Y-85796924D01*
X101436904Y-85564815D01*
X101326106Y-85347361D01*
X101307779Y-85322136D01*
X101182660Y-85149923D01*
X101182656Y-85149918D01*
X101010081Y-84977343D01*
X101010076Y-84977339D01*
X100812642Y-84833896D01*
X100812641Y-84833895D01*
X100812639Y-84833894D01*
X100595185Y-84723096D01*
X100363076Y-84647679D01*
X100363074Y-84647678D01*
X100363072Y-84647678D01*
X100193365Y-84620799D01*
X100122027Y-84609500D01*
X99877973Y-84609500D01*
X99822093Y-84618350D01*
X99636927Y-84647678D01*
X99404812Y-84723097D01*
X99187357Y-84833896D01*
X98989923Y-84977339D01*
X98989918Y-84977343D01*
X98817343Y-85149918D01*
X98817339Y-85149923D01*
X98673896Y-85347357D01*
X98563097Y-85564812D01*
X98487678Y-85796927D01*
X98449500Y-86037973D01*
X92400500Y-86037973D01*
X92400500Y-80957973D01*
X98449500Y-80957973D01*
X98449500Y-81202027D01*
X98487679Y-81443076D01*
X98563096Y-81675185D01*
X98647351Y-81840546D01*
X98673896Y-81892642D01*
X98817339Y-82090076D01*
X98817343Y-82090081D01*
X98989918Y-82262656D01*
X98989923Y-82262660D01*
X99084074Y-82331064D01*
X99187361Y-82406106D01*
X99404815Y-82516904D01*
X99636924Y-82592321D01*
X99877973Y-82630500D01*
X99877974Y-82630500D01*
X100122026Y-82630500D01*
X100122027Y-82630500D01*
X100363076Y-82592321D01*
X100595185Y-82516904D01*
X100812639Y-82406106D01*
X101010083Y-82262655D01*
X101182655Y-82090083D01*
X101326106Y-81892639D01*
X101436904Y-81675185D01*
X101512321Y-81443076D01*
X101550500Y-81202027D01*
X101550500Y-80957973D01*
X101512321Y-80716924D01*
X101436904Y-80484815D01*
X101326106Y-80267361D01*
X101300705Y-80232400D01*
X101182660Y-80069923D01*
X101182656Y-80069918D01*
X101010081Y-79897343D01*
X101010076Y-79897339D01*
X100812642Y-79753896D01*
X100812641Y-79753895D01*
X100812639Y-79753894D01*
X100595185Y-79643096D01*
X100363076Y-79567679D01*
X100363074Y-79567678D01*
X100363072Y-79567678D01*
X100194769Y-79541021D01*
X100122027Y-79529500D01*
X99877973Y-79529500D01*
X99822093Y-79538350D01*
X99636927Y-79567678D01*
X99404812Y-79643097D01*
X99187357Y-79753896D01*
X98989923Y-79897339D01*
X98989918Y-79897343D01*
X98817343Y-80069918D01*
X98817339Y-80069923D01*
X98673896Y-80267357D01*
X98563097Y-80484812D01*
X98487678Y-80716927D01*
X98462578Y-80875403D01*
X98449500Y-80957973D01*
X92400500Y-80957973D01*
X92400500Y-75877973D01*
X98449500Y-75877973D01*
X98449500Y-76122027D01*
X98487679Y-76363076D01*
X98561000Y-76588735D01*
X98563097Y-76595187D01*
X98673896Y-76812642D01*
X98817339Y-77010076D01*
X98817343Y-77010081D01*
X98989918Y-77182656D01*
X98989923Y-77182660D01*
X99162136Y-77307779D01*
X99187361Y-77326106D01*
X99404815Y-77436904D01*
X99636924Y-77512321D01*
X99877973Y-77550500D01*
X99877974Y-77550500D01*
X100122026Y-77550500D01*
X100122027Y-77550500D01*
X100363076Y-77512321D01*
X100595185Y-77436904D01*
X100812639Y-77326106D01*
X101010083Y-77182655D01*
X101182655Y-77010083D01*
X101326106Y-76812639D01*
X101436904Y-76595185D01*
X101512321Y-76363076D01*
X101550500Y-76122027D01*
X101550500Y-75877973D01*
X101512321Y-75636924D01*
X101436904Y-75404815D01*
X101326106Y-75187361D01*
X101264321Y-75102321D01*
X101182660Y-74989923D01*
X101182656Y-74989918D01*
X101010081Y-74817343D01*
X101010076Y-74817339D01*
X100812642Y-74673896D01*
X100812641Y-74673895D01*
X100812639Y-74673894D01*
X100595185Y-74563096D01*
X100363076Y-74487679D01*
X100363074Y-74487678D01*
X100363072Y-74487678D01*
X100194769Y-74461021D01*
X100122027Y-74449500D01*
X99877973Y-74449500D01*
X99822093Y-74458350D01*
X99636927Y-74487678D01*
X99404812Y-74563097D01*
X99187357Y-74673896D01*
X98989923Y-74817339D01*
X98989918Y-74817343D01*
X98817343Y-74989918D01*
X98817339Y-74989923D01*
X98673896Y-75187357D01*
X98563097Y-75404812D01*
X98487678Y-75636927D01*
X98460251Y-75810096D01*
X98449500Y-75877973D01*
X92400500Y-75877973D01*
X92400500Y-45774500D01*
X92420185Y-45707461D01*
X92472989Y-45661706D01*
X92524500Y-45650500D01*
X180475500Y-45650500D01*
X180542539Y-45670185D01*
G37*
G04 #@! TD.AperFunction*
G04 #@! TA.AperFunction,Conductor*
G36*
X149796420Y-109658622D02*
G01*
X149810319Y-109674662D01*
X149863034Y-109747219D01*
X150007786Y-109891971D01*
X150142465Y-109989819D01*
X150173390Y-110012287D01*
X150289607Y-110071503D01*
X150355776Y-110105218D01*
X150355778Y-110105218D01*
X150355781Y-110105220D01*
X150460137Y-110139127D01*
X150550465Y-110168477D01*
X150602806Y-110176767D01*
X150752648Y-110200500D01*
X150752649Y-110200500D01*
X150957351Y-110200500D01*
X150957352Y-110200500D01*
X151159534Y-110168477D01*
X151173842Y-110163827D01*
X151243682Y-110161831D01*
X151299842Y-110194077D01*
X152493584Y-111387819D01*
X152527069Y-111449142D01*
X152522085Y-111518834D01*
X152480213Y-111574767D01*
X152414749Y-111599184D01*
X152405903Y-111599500D01*
X135493779Y-111599500D01*
X135490139Y-111598431D01*
X135486441Y-111599283D01*
X135456874Y-111588663D01*
X135426740Y-111579815D01*
X135424255Y-111576947D01*
X135420684Y-111575665D01*
X135401551Y-111550745D01*
X135380985Y-111527011D01*
X135380445Y-111523256D01*
X135378134Y-111520246D01*
X135375511Y-111488946D01*
X135371041Y-111457853D01*
X135372617Y-111454400D01*
X135372301Y-111450620D01*
X135387014Y-111422875D01*
X135400066Y-111394297D01*
X135403776Y-111391269D01*
X135405036Y-111388894D01*
X135414738Y-111382324D01*
X135433030Y-111367400D01*
X135442121Y-111362290D01*
X135444785Y-111361577D01*
X135494904Y-111332639D01*
X135581716Y-111282520D01*
X135693520Y-111170716D01*
X135693520Y-111170714D01*
X135703728Y-111160507D01*
X135703730Y-111160504D01*
X136670158Y-110194075D01*
X136731479Y-110160592D01*
X136796151Y-110163825D01*
X136810466Y-110168477D01*
X137012648Y-110200500D01*
X137012649Y-110200500D01*
X137217351Y-110200500D01*
X137217352Y-110200500D01*
X137419534Y-110168477D01*
X137614219Y-110105220D01*
X137796610Y-110012287D01*
X137889590Y-109944732D01*
X137962213Y-109891971D01*
X137962215Y-109891968D01*
X137962219Y-109891966D01*
X138106966Y-109747219D01*
X138159681Y-109674661D01*
X138215011Y-109631996D01*
X138284624Y-109626017D01*
X138346420Y-109658622D01*
X138360319Y-109674662D01*
X138413034Y-109747219D01*
X138557786Y-109891971D01*
X138692465Y-109989819D01*
X138723390Y-110012287D01*
X138839607Y-110071503D01*
X138905776Y-110105218D01*
X138905778Y-110105218D01*
X138905781Y-110105220D01*
X139010137Y-110139127D01*
X139100465Y-110168477D01*
X139152806Y-110176767D01*
X139302648Y-110200500D01*
X139302649Y-110200500D01*
X139507351Y-110200500D01*
X139507352Y-110200500D01*
X139709534Y-110168477D01*
X139904219Y-110105220D01*
X140086610Y-110012287D01*
X140179590Y-109944732D01*
X140252213Y-109891971D01*
X140252215Y-109891968D01*
X140252219Y-109891966D01*
X140396966Y-109747219D01*
X140449681Y-109674661D01*
X140505011Y-109631996D01*
X140574624Y-109626017D01*
X140636420Y-109658622D01*
X140650319Y-109674662D01*
X140703034Y-109747219D01*
X140847786Y-109891971D01*
X140982465Y-109989819D01*
X141013390Y-110012287D01*
X141129607Y-110071503D01*
X141195776Y-110105218D01*
X141195778Y-110105218D01*
X141195781Y-110105220D01*
X141300137Y-110139127D01*
X141390465Y-110168477D01*
X141442806Y-110176767D01*
X141592648Y-110200500D01*
X141592649Y-110200500D01*
X141797351Y-110200500D01*
X141797352Y-110200500D01*
X141999534Y-110168477D01*
X142194219Y-110105220D01*
X142376610Y-110012287D01*
X142469590Y-109944732D01*
X142542213Y-109891971D01*
X142542215Y-109891968D01*
X142542219Y-109891966D01*
X142686966Y-109747219D01*
X142739681Y-109674661D01*
X142795011Y-109631996D01*
X142864624Y-109626017D01*
X142926420Y-109658622D01*
X142940319Y-109674662D01*
X142993034Y-109747219D01*
X143137786Y-109891971D01*
X143272465Y-109989819D01*
X143303390Y-110012287D01*
X143419607Y-110071503D01*
X143485776Y-110105218D01*
X143485778Y-110105218D01*
X143485781Y-110105220D01*
X143590137Y-110139127D01*
X143680465Y-110168477D01*
X143732806Y-110176767D01*
X143882648Y-110200500D01*
X143882649Y-110200500D01*
X144087351Y-110200500D01*
X144087352Y-110200500D01*
X144289534Y-110168477D01*
X144484219Y-110105220D01*
X144666610Y-110012287D01*
X144759590Y-109944732D01*
X144832213Y-109891971D01*
X144832215Y-109891968D01*
X144832219Y-109891966D01*
X144976966Y-109747219D01*
X145029681Y-109674661D01*
X145085011Y-109631996D01*
X145154624Y-109626017D01*
X145216420Y-109658622D01*
X145230319Y-109674662D01*
X145283034Y-109747219D01*
X145427786Y-109891971D01*
X145562465Y-109989819D01*
X145593390Y-110012287D01*
X145709607Y-110071503D01*
X145775776Y-110105218D01*
X145775778Y-110105218D01*
X145775781Y-110105220D01*
X145880137Y-110139127D01*
X145970465Y-110168477D01*
X146022806Y-110176767D01*
X146172648Y-110200500D01*
X146172649Y-110200500D01*
X146377351Y-110200500D01*
X146377352Y-110200500D01*
X146579534Y-110168477D01*
X146774219Y-110105220D01*
X146956610Y-110012287D01*
X147049590Y-109944732D01*
X147122213Y-109891971D01*
X147122215Y-109891968D01*
X147122219Y-109891966D01*
X147266966Y-109747219D01*
X147319681Y-109674661D01*
X147375011Y-109631996D01*
X147444624Y-109626017D01*
X147506420Y-109658622D01*
X147520319Y-109674662D01*
X147573034Y-109747219D01*
X147717786Y-109891971D01*
X147852465Y-109989819D01*
X147883390Y-110012287D01*
X147999607Y-110071503D01*
X148065776Y-110105218D01*
X148065778Y-110105218D01*
X148065781Y-110105220D01*
X148170137Y-110139127D01*
X148260465Y-110168477D01*
X148312806Y-110176767D01*
X148462648Y-110200500D01*
X148462649Y-110200500D01*
X148667351Y-110200500D01*
X148667352Y-110200500D01*
X148869534Y-110168477D01*
X149064219Y-110105220D01*
X149246610Y-110012287D01*
X149339590Y-109944732D01*
X149412213Y-109891971D01*
X149412215Y-109891968D01*
X149412219Y-109891966D01*
X149556966Y-109747219D01*
X149609681Y-109674661D01*
X149665011Y-109631996D01*
X149734624Y-109626017D01*
X149796420Y-109658622D01*
G37*
G04 #@! TD.AperFunction*
G04 #@! TA.AperFunction,Conductor*
G36*
X123626655Y-107271784D02*
G01*
X123719245Y-107364374D01*
X123719255Y-107364385D01*
X123723585Y-107368715D01*
X123723586Y-107368716D01*
X123835390Y-107480520D01*
X123922201Y-107530639D01*
X123922203Y-107530641D01*
X123960257Y-107552611D01*
X123972321Y-107559577D01*
X124125049Y-107600501D01*
X124125052Y-107600501D01*
X124290759Y-107600501D01*
X124290775Y-107600500D01*
X127870398Y-107600500D01*
X127937437Y-107620185D01*
X127980883Y-107668205D01*
X127987715Y-107681614D01*
X128108028Y-107847213D01*
X128252786Y-107991971D01*
X128407749Y-108104556D01*
X128418390Y-108112287D01*
X128534607Y-108171503D01*
X128600776Y-108205218D01*
X128600778Y-108205218D01*
X128600781Y-108205220D01*
X128795466Y-108268477D01*
X128925308Y-108289042D01*
X128942072Y-108296989D01*
X128960361Y-108300110D01*
X128972988Y-108311644D01*
X128988443Y-108318971D01*
X128998249Y-108334720D01*
X129011947Y-108347233D01*
X129016333Y-108363763D01*
X129025374Y-108378283D01*
X129025108Y-108396835D01*
X129029867Y-108414766D01*
X129024398Y-108446590D01*
X129024376Y-108448145D01*
X129023930Y-108449557D01*
X129023716Y-108450220D01*
X128976523Y-108595466D01*
X128976160Y-108597756D01*
X128973973Y-108604542D01*
X128956871Y-108629678D01*
X128941735Y-108656040D01*
X128937411Y-108658281D01*
X128934671Y-108662310D01*
X128906692Y-108674210D01*
X128879708Y-108688203D01*
X128872057Y-108688942D01*
X128870376Y-108689658D01*
X128868308Y-108689305D01*
X128855953Y-108690500D01*
X123039005Y-108690500D01*
X122971966Y-108670815D01*
X122926211Y-108618011D01*
X122916267Y-108548853D01*
X122942058Y-108489187D01*
X122982115Y-108438956D01*
X123131507Y-108201200D01*
X123253337Y-107948217D01*
X123346077Y-107683180D01*
X123346078Y-107683178D01*
X123408560Y-107409425D01*
X123415753Y-107345583D01*
X123442819Y-107281169D01*
X123500414Y-107241613D01*
X123570251Y-107239474D01*
X123626655Y-107271784D01*
G37*
G04 #@! TD.AperFunction*
G04 #@! TA.AperFunction,Conductor*
G36*
X162852615Y-82736902D02*
G01*
X162892872Y-82794009D01*
X162899500Y-82834007D01*
X162899500Y-105916952D01*
X162879815Y-105983991D01*
X162863181Y-106004633D01*
X162486514Y-106381299D01*
X162425191Y-106414784D01*
X162355499Y-106409800D01*
X162299566Y-106367928D01*
X162288351Y-106349917D01*
X162272287Y-106318390D01*
X162272285Y-106318387D01*
X162272284Y-106318385D01*
X162151971Y-106152786D01*
X162136819Y-106137634D01*
X162103334Y-106076311D01*
X162100500Y-106049953D01*
X162100500Y-83016647D01*
X162120185Y-82949608D01*
X162172989Y-82903853D01*
X162205100Y-82894174D01*
X162343076Y-82872321D01*
X162575185Y-82796904D01*
X162719206Y-82723521D01*
X162787874Y-82710626D01*
X162852615Y-82736902D01*
G37*
G04 #@! TD.AperFunction*
G04 #@! TA.AperFunction,Conductor*
G36*
X118805703Y-81655384D02*
G01*
X118812181Y-81661416D01*
X138838584Y-101687819D01*
X138872069Y-101749142D01*
X138867085Y-101818834D01*
X138825213Y-101874767D01*
X138759749Y-101899184D01*
X138750903Y-101899500D01*
X133079766Y-101899500D01*
X133012727Y-101879815D01*
X133010875Y-101878602D01*
X132879185Y-101790609D01*
X132879172Y-101790602D01*
X132733501Y-101730264D01*
X132733489Y-101730261D01*
X132578845Y-101699500D01*
X132578842Y-101699500D01*
X132421158Y-101699500D01*
X132421155Y-101699500D01*
X132266510Y-101730261D01*
X132266498Y-101730264D01*
X132120827Y-101790602D01*
X132120814Y-101790609D01*
X131997555Y-101872969D01*
X131930877Y-101893847D01*
X131863497Y-101875362D01*
X131840983Y-101857548D01*
X115886819Y-85903384D01*
X115853334Y-85842061D01*
X115850500Y-85815703D01*
X115850500Y-85089059D01*
X115850501Y-85089046D01*
X115850501Y-84920945D01*
X115850501Y-84920943D01*
X115809577Y-84768215D01*
X115775611Y-84709384D01*
X115730520Y-84631284D01*
X115618716Y-84519480D01*
X115618715Y-84519479D01*
X115614385Y-84515149D01*
X115614374Y-84515139D01*
X114636819Y-83537584D01*
X114603334Y-83476261D01*
X114600500Y-83449903D01*
X114600500Y-82633360D01*
X114620185Y-82566321D01*
X114672989Y-82520566D01*
X114742147Y-82510622D01*
X114805703Y-82539647D01*
X114830038Y-82568263D01*
X114867286Y-82628651D01*
X114867289Y-82628655D01*
X114991344Y-82752710D01*
X114991348Y-82752713D01*
X115140662Y-82844812D01*
X115140664Y-82844813D01*
X115140666Y-82844814D01*
X115307203Y-82899999D01*
X115409992Y-82910500D01*
X115409997Y-82910500D01*
X117075500Y-82910500D01*
X117142539Y-82930185D01*
X117188294Y-82982989D01*
X117199500Y-83034500D01*
X117199500Y-83078846D01*
X117230261Y-83233489D01*
X117230264Y-83233501D01*
X117290602Y-83379172D01*
X117290609Y-83379185D01*
X117378210Y-83510288D01*
X117378213Y-83510292D01*
X117489707Y-83621786D01*
X117489711Y-83621789D01*
X117620814Y-83709390D01*
X117620827Y-83709397D01*
X117721033Y-83750903D01*
X117766503Y-83769737D01*
X117921153Y-83800499D01*
X117921156Y-83800500D01*
X117921158Y-83800500D01*
X118078844Y-83800500D01*
X118078845Y-83800499D01*
X118233497Y-83769737D01*
X118379179Y-83709394D01*
X118510289Y-83621789D01*
X118621789Y-83510289D01*
X118709394Y-83379179D01*
X118769737Y-83233497D01*
X118800500Y-83078842D01*
X118800500Y-82921158D01*
X118800500Y-82921155D01*
X118800499Y-82921153D01*
X118796291Y-82899998D01*
X118769737Y-82766503D01*
X118736436Y-82686106D01*
X118709397Y-82620827D01*
X118709390Y-82620814D01*
X118621398Y-82489125D01*
X118600520Y-82422447D01*
X118600500Y-82420234D01*
X118600500Y-81749097D01*
X118620185Y-81682058D01*
X118672989Y-81636303D01*
X118742147Y-81626359D01*
X118805703Y-81655384D01*
G37*
G04 #@! TD.AperFunction*
M02*
