%TF.GenerationSoftware,KiCad,Pcbnew,9.0.6*%
%TF.CreationDate,2025-11-01T16:50:26-04:00*%
%TF.ProjectId,W25Q02JVTBIM_breakout,57323551-3032-44a5-9654-42494d5f6272,rev?*%
%TF.SameCoordinates,Original*%
%TF.FileFunction,Drillmap*%
%TF.FilePolarity,Positive*%
%FSLAX45Y45*%
G04 Gerber Fmt 4.5, Leading zero omitted, Abs format (unit mm)*
G04 Created by KiCad (PCBNEW 9.0.6) date 2025-11-01 16:50:26*
%MOMM*%
%LPD*%
G01*
G04 APERTURE LIST*
%ADD10C,0.050000*%
%ADD11C,0.200000*%
%ADD12C,0.100000*%
G04 APERTURE END LIST*
D10*
X17025031Y-8620256D02*
X14000000Y-8625000D01*
X17025000Y-10145000D02*
X17025000Y-8620452D01*
X14000000Y-10145000D02*
X17025000Y-10145000D01*
X14000000Y-8625000D02*
X14000000Y-10145000D01*
D11*
D12*
X15377500Y-9340000D02*
X15407500Y-9370000D01*
X15407500Y-9340000D02*
X15377500Y-9370000D01*
X15380000Y-9530000D02*
X15410000Y-9560000D01*
X15410000Y-9530000D02*
X15380000Y-9560000D01*
X15547500Y-9770000D02*
X15577500Y-9800000D01*
X15577500Y-9770000D02*
X15547500Y-9800000D01*
X16067500Y-9755000D02*
X16097500Y-9785000D01*
X16097500Y-9755000D02*
X16067500Y-9785000D01*
X14655000Y-9271000D02*
G75*
G02*
X14555000Y-9271000I-50000J0D01*
G01*
X14555000Y-9271000D02*
G75*
G02*
X14655000Y-9271000I50000J0D01*
G01*
X14655000Y-9525000D02*
G75*
G02*
X14555000Y-9525000I-50000J0D01*
G01*
X14555000Y-9525000D02*
G75*
G02*
X14655000Y-9525000I50000J0D01*
G01*
X14655000Y-9779000D02*
G75*
G02*
X14555000Y-9779000I-50000J0D01*
G01*
X14555000Y-9779000D02*
G75*
G02*
X14655000Y-9779000I50000J0D01*
G01*
X16433000Y-9271000D02*
G75*
G02*
X16333000Y-9271000I-50000J0D01*
G01*
X16333000Y-9271000D02*
G75*
G02*
X16433000Y-9271000I50000J0D01*
G01*
X16433000Y-9525000D02*
G75*
G02*
X16333000Y-9525000I-50000J0D01*
G01*
X16333000Y-9525000D02*
G75*
G02*
X16433000Y-9525000I50000J0D01*
G01*
X16433000Y-9779000D02*
G75*
G02*
X16333000Y-9779000I-50000J0D01*
G01*
X16333000Y-9779000D02*
G75*
G02*
X16433000Y-9779000I50000J0D01*
G01*
D11*
X14258277Y-10458984D02*
X14258277Y-10258984D01*
X14258277Y-10258984D02*
X14305896Y-10258984D01*
X14305896Y-10258984D02*
X14334467Y-10268508D01*
X14334467Y-10268508D02*
X14353515Y-10287555D01*
X14353515Y-10287555D02*
X14363039Y-10306603D01*
X14363039Y-10306603D02*
X14372562Y-10344698D01*
X14372562Y-10344698D02*
X14372562Y-10373270D01*
X14372562Y-10373270D02*
X14363039Y-10411365D01*
X14363039Y-10411365D02*
X14353515Y-10430412D01*
X14353515Y-10430412D02*
X14334467Y-10449460D01*
X14334467Y-10449460D02*
X14305896Y-10458984D01*
X14305896Y-10458984D02*
X14258277Y-10458984D01*
X14458277Y-10458984D02*
X14458277Y-10325650D01*
X14458277Y-10363746D02*
X14467801Y-10344698D01*
X14467801Y-10344698D02*
X14477324Y-10335174D01*
X14477324Y-10335174D02*
X14496372Y-10325650D01*
X14496372Y-10325650D02*
X14515420Y-10325650D01*
X14582086Y-10458984D02*
X14582086Y-10325650D01*
X14582086Y-10258984D02*
X14572562Y-10268508D01*
X14572562Y-10268508D02*
X14582086Y-10278031D01*
X14582086Y-10278031D02*
X14591610Y-10268508D01*
X14591610Y-10268508D02*
X14582086Y-10258984D01*
X14582086Y-10258984D02*
X14582086Y-10278031D01*
X14705896Y-10458984D02*
X14686848Y-10449460D01*
X14686848Y-10449460D02*
X14677324Y-10430412D01*
X14677324Y-10430412D02*
X14677324Y-10258984D01*
X14810658Y-10458984D02*
X14791610Y-10449460D01*
X14791610Y-10449460D02*
X14782086Y-10430412D01*
X14782086Y-10430412D02*
X14782086Y-10258984D01*
X15039229Y-10458984D02*
X15039229Y-10258984D01*
X15039229Y-10258984D02*
X15105896Y-10401841D01*
X15105896Y-10401841D02*
X15172562Y-10258984D01*
X15172562Y-10258984D02*
X15172562Y-10458984D01*
X15353515Y-10458984D02*
X15353515Y-10354222D01*
X15353515Y-10354222D02*
X15343991Y-10335174D01*
X15343991Y-10335174D02*
X15324943Y-10325650D01*
X15324943Y-10325650D02*
X15286848Y-10325650D01*
X15286848Y-10325650D02*
X15267801Y-10335174D01*
X15353515Y-10449460D02*
X15334467Y-10458984D01*
X15334467Y-10458984D02*
X15286848Y-10458984D01*
X15286848Y-10458984D02*
X15267801Y-10449460D01*
X15267801Y-10449460D02*
X15258277Y-10430412D01*
X15258277Y-10430412D02*
X15258277Y-10411365D01*
X15258277Y-10411365D02*
X15267801Y-10392317D01*
X15267801Y-10392317D02*
X15286848Y-10382793D01*
X15286848Y-10382793D02*
X15334467Y-10382793D01*
X15334467Y-10382793D02*
X15353515Y-10373270D01*
X15448753Y-10325650D02*
X15448753Y-10525650D01*
X15448753Y-10335174D02*
X15467801Y-10325650D01*
X15467801Y-10325650D02*
X15505896Y-10325650D01*
X15505896Y-10325650D02*
X15524943Y-10335174D01*
X15524943Y-10335174D02*
X15534467Y-10344698D01*
X15534467Y-10344698D02*
X15543991Y-10363746D01*
X15543991Y-10363746D02*
X15543991Y-10420889D01*
X15543991Y-10420889D02*
X15534467Y-10439936D01*
X15534467Y-10439936D02*
X15524943Y-10449460D01*
X15524943Y-10449460D02*
X15505896Y-10458984D01*
X15505896Y-10458984D02*
X15467801Y-10458984D01*
X15467801Y-10458984D02*
X15448753Y-10449460D01*
X15629705Y-10439936D02*
X15639229Y-10449460D01*
X15639229Y-10449460D02*
X15629705Y-10458984D01*
X15629705Y-10458984D02*
X15620182Y-10449460D01*
X15620182Y-10449460D02*
X15629705Y-10439936D01*
X15629705Y-10439936D02*
X15629705Y-10458984D01*
X15629705Y-10335174D02*
X15639229Y-10344698D01*
X15639229Y-10344698D02*
X15629705Y-10354222D01*
X15629705Y-10354222D02*
X15620182Y-10344698D01*
X15620182Y-10344698D02*
X15629705Y-10335174D01*
X15629705Y-10335174D02*
X15629705Y-10354222D01*
D12*
X13967500Y-10772500D02*
X13997500Y-10802500D01*
X13997500Y-10772500D02*
X13967500Y-10802500D01*
D11*
X14296372Y-10678984D02*
X14315420Y-10678984D01*
X14315420Y-10678984D02*
X14334467Y-10688508D01*
X14334467Y-10688508D02*
X14343991Y-10698031D01*
X14343991Y-10698031D02*
X14353515Y-10717079D01*
X14353515Y-10717079D02*
X14363039Y-10755174D01*
X14363039Y-10755174D02*
X14363039Y-10802793D01*
X14363039Y-10802793D02*
X14353515Y-10840889D01*
X14353515Y-10840889D02*
X14343991Y-10859936D01*
X14343991Y-10859936D02*
X14334467Y-10869460D01*
X14334467Y-10869460D02*
X14315420Y-10878984D01*
X14315420Y-10878984D02*
X14296372Y-10878984D01*
X14296372Y-10878984D02*
X14277324Y-10869460D01*
X14277324Y-10869460D02*
X14267801Y-10859936D01*
X14267801Y-10859936D02*
X14258277Y-10840889D01*
X14258277Y-10840889D02*
X14248753Y-10802793D01*
X14248753Y-10802793D02*
X14248753Y-10755174D01*
X14248753Y-10755174D02*
X14258277Y-10717079D01*
X14258277Y-10717079D02*
X14267801Y-10698031D01*
X14267801Y-10698031D02*
X14277324Y-10688508D01*
X14277324Y-10688508D02*
X14296372Y-10678984D01*
X14448753Y-10859936D02*
X14458277Y-10869460D01*
X14458277Y-10869460D02*
X14448753Y-10878984D01*
X14448753Y-10878984D02*
X14439229Y-10869460D01*
X14439229Y-10869460D02*
X14448753Y-10859936D01*
X14448753Y-10859936D02*
X14448753Y-10878984D01*
X14524943Y-10678984D02*
X14648753Y-10678984D01*
X14648753Y-10678984D02*
X14582086Y-10755174D01*
X14582086Y-10755174D02*
X14610658Y-10755174D01*
X14610658Y-10755174D02*
X14629705Y-10764698D01*
X14629705Y-10764698D02*
X14639229Y-10774222D01*
X14639229Y-10774222D02*
X14648753Y-10793270D01*
X14648753Y-10793270D02*
X14648753Y-10840889D01*
X14648753Y-10840889D02*
X14639229Y-10859936D01*
X14639229Y-10859936D02*
X14629705Y-10869460D01*
X14629705Y-10869460D02*
X14610658Y-10878984D01*
X14610658Y-10878984D02*
X14553515Y-10878984D01*
X14553515Y-10878984D02*
X14534467Y-10869460D01*
X14534467Y-10869460D02*
X14524943Y-10859936D01*
X14772562Y-10678984D02*
X14791610Y-10678984D01*
X14791610Y-10678984D02*
X14810658Y-10688508D01*
X14810658Y-10688508D02*
X14820182Y-10698031D01*
X14820182Y-10698031D02*
X14829705Y-10717079D01*
X14829705Y-10717079D02*
X14839229Y-10755174D01*
X14839229Y-10755174D02*
X14839229Y-10802793D01*
X14839229Y-10802793D02*
X14829705Y-10840889D01*
X14829705Y-10840889D02*
X14820182Y-10859936D01*
X14820182Y-10859936D02*
X14810658Y-10869460D01*
X14810658Y-10869460D02*
X14791610Y-10878984D01*
X14791610Y-10878984D02*
X14772562Y-10878984D01*
X14772562Y-10878984D02*
X14753515Y-10869460D01*
X14753515Y-10869460D02*
X14743991Y-10859936D01*
X14743991Y-10859936D02*
X14734467Y-10840889D01*
X14734467Y-10840889D02*
X14724943Y-10802793D01*
X14724943Y-10802793D02*
X14724943Y-10755174D01*
X14724943Y-10755174D02*
X14734467Y-10717079D01*
X14734467Y-10717079D02*
X14743991Y-10698031D01*
X14743991Y-10698031D02*
X14753515Y-10688508D01*
X14753515Y-10688508D02*
X14772562Y-10678984D01*
X14963039Y-10678984D02*
X14982086Y-10678984D01*
X14982086Y-10678984D02*
X15001134Y-10688508D01*
X15001134Y-10688508D02*
X15010658Y-10698031D01*
X15010658Y-10698031D02*
X15020182Y-10717079D01*
X15020182Y-10717079D02*
X15029705Y-10755174D01*
X15029705Y-10755174D02*
X15029705Y-10802793D01*
X15029705Y-10802793D02*
X15020182Y-10840889D01*
X15020182Y-10840889D02*
X15010658Y-10859936D01*
X15010658Y-10859936D02*
X15001134Y-10869460D01*
X15001134Y-10869460D02*
X14982086Y-10878984D01*
X14982086Y-10878984D02*
X14963039Y-10878984D01*
X14963039Y-10878984D02*
X14943991Y-10869460D01*
X14943991Y-10869460D02*
X14934467Y-10859936D01*
X14934467Y-10859936D02*
X14924943Y-10840889D01*
X14924943Y-10840889D02*
X14915420Y-10802793D01*
X14915420Y-10802793D02*
X14915420Y-10755174D01*
X14915420Y-10755174D02*
X14924943Y-10717079D01*
X14924943Y-10717079D02*
X14934467Y-10698031D01*
X14934467Y-10698031D02*
X14943991Y-10688508D01*
X14943991Y-10688508D02*
X14963039Y-10678984D01*
X15115420Y-10878984D02*
X15115420Y-10745650D01*
X15115420Y-10764698D02*
X15124943Y-10755174D01*
X15124943Y-10755174D02*
X15143991Y-10745650D01*
X15143991Y-10745650D02*
X15172563Y-10745650D01*
X15172563Y-10745650D02*
X15191610Y-10755174D01*
X15191610Y-10755174D02*
X15201134Y-10774222D01*
X15201134Y-10774222D02*
X15201134Y-10878984D01*
X15201134Y-10774222D02*
X15210658Y-10755174D01*
X15210658Y-10755174D02*
X15229705Y-10745650D01*
X15229705Y-10745650D02*
X15258277Y-10745650D01*
X15258277Y-10745650D02*
X15277324Y-10755174D01*
X15277324Y-10755174D02*
X15286848Y-10774222D01*
X15286848Y-10774222D02*
X15286848Y-10878984D01*
X15382086Y-10878984D02*
X15382086Y-10745650D01*
X15382086Y-10764698D02*
X15391610Y-10755174D01*
X15391610Y-10755174D02*
X15410658Y-10745650D01*
X15410658Y-10745650D02*
X15439229Y-10745650D01*
X15439229Y-10745650D02*
X15458277Y-10755174D01*
X15458277Y-10755174D02*
X15467801Y-10774222D01*
X15467801Y-10774222D02*
X15467801Y-10878984D01*
X15467801Y-10774222D02*
X15477324Y-10755174D01*
X15477324Y-10755174D02*
X15496372Y-10745650D01*
X15496372Y-10745650D02*
X15524943Y-10745650D01*
X15524943Y-10745650D02*
X15543991Y-10755174D01*
X15543991Y-10755174D02*
X15553515Y-10774222D01*
X15553515Y-10774222D02*
X15553515Y-10878984D01*
X15943991Y-10669460D02*
X15772563Y-10926603D01*
X16201134Y-10678984D02*
X16220182Y-10678984D01*
X16220182Y-10678984D02*
X16239229Y-10688508D01*
X16239229Y-10688508D02*
X16248753Y-10698031D01*
X16248753Y-10698031D02*
X16258277Y-10717079D01*
X16258277Y-10717079D02*
X16267801Y-10755174D01*
X16267801Y-10755174D02*
X16267801Y-10802793D01*
X16267801Y-10802793D02*
X16258277Y-10840889D01*
X16258277Y-10840889D02*
X16248753Y-10859936D01*
X16248753Y-10859936D02*
X16239229Y-10869460D01*
X16239229Y-10869460D02*
X16220182Y-10878984D01*
X16220182Y-10878984D02*
X16201134Y-10878984D01*
X16201134Y-10878984D02*
X16182086Y-10869460D01*
X16182086Y-10869460D02*
X16172563Y-10859936D01*
X16172563Y-10859936D02*
X16163039Y-10840889D01*
X16163039Y-10840889D02*
X16153515Y-10802793D01*
X16153515Y-10802793D02*
X16153515Y-10755174D01*
X16153515Y-10755174D02*
X16163039Y-10717079D01*
X16163039Y-10717079D02*
X16172563Y-10698031D01*
X16172563Y-10698031D02*
X16182086Y-10688508D01*
X16182086Y-10688508D02*
X16201134Y-10678984D01*
X16353515Y-10859936D02*
X16363039Y-10869460D01*
X16363039Y-10869460D02*
X16353515Y-10878984D01*
X16353515Y-10878984D02*
X16343991Y-10869460D01*
X16343991Y-10869460D02*
X16353515Y-10859936D01*
X16353515Y-10859936D02*
X16353515Y-10878984D01*
X16486848Y-10678984D02*
X16505896Y-10678984D01*
X16505896Y-10678984D02*
X16524944Y-10688508D01*
X16524944Y-10688508D02*
X16534467Y-10698031D01*
X16534467Y-10698031D02*
X16543991Y-10717079D01*
X16543991Y-10717079D02*
X16553515Y-10755174D01*
X16553515Y-10755174D02*
X16553515Y-10802793D01*
X16553515Y-10802793D02*
X16543991Y-10840889D01*
X16543991Y-10840889D02*
X16534467Y-10859936D01*
X16534467Y-10859936D02*
X16524944Y-10869460D01*
X16524944Y-10869460D02*
X16505896Y-10878984D01*
X16505896Y-10878984D02*
X16486848Y-10878984D01*
X16486848Y-10878984D02*
X16467801Y-10869460D01*
X16467801Y-10869460D02*
X16458277Y-10859936D01*
X16458277Y-10859936D02*
X16448753Y-10840889D01*
X16448753Y-10840889D02*
X16439229Y-10802793D01*
X16439229Y-10802793D02*
X16439229Y-10755174D01*
X16439229Y-10755174D02*
X16448753Y-10717079D01*
X16448753Y-10717079D02*
X16458277Y-10698031D01*
X16458277Y-10698031D02*
X16467801Y-10688508D01*
X16467801Y-10688508D02*
X16486848Y-10678984D01*
X16743991Y-10878984D02*
X16629706Y-10878984D01*
X16686848Y-10878984D02*
X16686848Y-10678984D01*
X16686848Y-10678984D02*
X16667801Y-10707555D01*
X16667801Y-10707555D02*
X16648753Y-10726603D01*
X16648753Y-10726603D02*
X16629706Y-10736127D01*
X16934468Y-10878984D02*
X16820182Y-10878984D01*
X16877325Y-10878984D02*
X16877325Y-10678984D01*
X16877325Y-10678984D02*
X16858277Y-10707555D01*
X16858277Y-10707555D02*
X16839229Y-10726603D01*
X16839229Y-10726603D02*
X16820182Y-10736127D01*
X17048753Y-10764698D02*
X17029706Y-10755174D01*
X17029706Y-10755174D02*
X17020182Y-10745650D01*
X17020182Y-10745650D02*
X17010658Y-10726603D01*
X17010658Y-10726603D02*
X17010658Y-10717079D01*
X17010658Y-10717079D02*
X17020182Y-10698031D01*
X17020182Y-10698031D02*
X17029706Y-10688508D01*
X17029706Y-10688508D02*
X17048753Y-10678984D01*
X17048753Y-10678984D02*
X17086849Y-10678984D01*
X17086849Y-10678984D02*
X17105896Y-10688508D01*
X17105896Y-10688508D02*
X17115420Y-10698031D01*
X17115420Y-10698031D02*
X17124944Y-10717079D01*
X17124944Y-10717079D02*
X17124944Y-10726603D01*
X17124944Y-10726603D02*
X17115420Y-10745650D01*
X17115420Y-10745650D02*
X17105896Y-10755174D01*
X17105896Y-10755174D02*
X17086849Y-10764698D01*
X17086849Y-10764698D02*
X17048753Y-10764698D01*
X17048753Y-10764698D02*
X17029706Y-10774222D01*
X17029706Y-10774222D02*
X17020182Y-10783746D01*
X17020182Y-10783746D02*
X17010658Y-10802793D01*
X17010658Y-10802793D02*
X17010658Y-10840889D01*
X17010658Y-10840889D02*
X17020182Y-10859936D01*
X17020182Y-10859936D02*
X17029706Y-10869460D01*
X17029706Y-10869460D02*
X17048753Y-10878984D01*
X17048753Y-10878984D02*
X17086849Y-10878984D01*
X17086849Y-10878984D02*
X17105896Y-10869460D01*
X17105896Y-10869460D02*
X17115420Y-10859936D01*
X17115420Y-10859936D02*
X17124944Y-10840889D01*
X17124944Y-10840889D02*
X17124944Y-10802793D01*
X17124944Y-10802793D02*
X17115420Y-10783746D01*
X17115420Y-10783746D02*
X17105896Y-10774222D01*
X17105896Y-10774222D02*
X17086849Y-10764698D01*
X17201134Y-10678984D02*
X17201134Y-10717079D01*
X17277325Y-10678984D02*
X17277325Y-10717079D01*
X17572563Y-10955174D02*
X17563039Y-10945650D01*
X17563039Y-10945650D02*
X17543991Y-10917079D01*
X17543991Y-10917079D02*
X17534468Y-10898031D01*
X17534468Y-10898031D02*
X17524944Y-10869460D01*
X17524944Y-10869460D02*
X17515420Y-10821841D01*
X17515420Y-10821841D02*
X17515420Y-10783746D01*
X17515420Y-10783746D02*
X17524944Y-10736127D01*
X17524944Y-10736127D02*
X17534468Y-10707555D01*
X17534468Y-10707555D02*
X17543991Y-10688508D01*
X17543991Y-10688508D02*
X17563039Y-10659936D01*
X17563039Y-10659936D02*
X17572563Y-10650412D01*
X17734468Y-10745650D02*
X17734468Y-10878984D01*
X17686849Y-10669460D02*
X17639230Y-10812317D01*
X17639230Y-10812317D02*
X17763039Y-10812317D01*
X17991611Y-10878984D02*
X17991611Y-10678984D01*
X18077325Y-10878984D02*
X18077325Y-10774222D01*
X18077325Y-10774222D02*
X18067801Y-10755174D01*
X18067801Y-10755174D02*
X18048753Y-10745650D01*
X18048753Y-10745650D02*
X18020182Y-10745650D01*
X18020182Y-10745650D02*
X18001134Y-10755174D01*
X18001134Y-10755174D02*
X17991611Y-10764698D01*
X18201134Y-10878984D02*
X18182087Y-10869460D01*
X18182087Y-10869460D02*
X18172563Y-10859936D01*
X18172563Y-10859936D02*
X18163039Y-10840889D01*
X18163039Y-10840889D02*
X18163039Y-10783746D01*
X18163039Y-10783746D02*
X18172563Y-10764698D01*
X18172563Y-10764698D02*
X18182087Y-10755174D01*
X18182087Y-10755174D02*
X18201134Y-10745650D01*
X18201134Y-10745650D02*
X18229706Y-10745650D01*
X18229706Y-10745650D02*
X18248753Y-10755174D01*
X18248753Y-10755174D02*
X18258277Y-10764698D01*
X18258277Y-10764698D02*
X18267801Y-10783746D01*
X18267801Y-10783746D02*
X18267801Y-10840889D01*
X18267801Y-10840889D02*
X18258277Y-10859936D01*
X18258277Y-10859936D02*
X18248753Y-10869460D01*
X18248753Y-10869460D02*
X18229706Y-10878984D01*
X18229706Y-10878984D02*
X18201134Y-10878984D01*
X18382087Y-10878984D02*
X18363039Y-10869460D01*
X18363039Y-10869460D02*
X18353515Y-10850412D01*
X18353515Y-10850412D02*
X18353515Y-10678984D01*
X18534468Y-10869460D02*
X18515420Y-10878984D01*
X18515420Y-10878984D02*
X18477325Y-10878984D01*
X18477325Y-10878984D02*
X18458277Y-10869460D01*
X18458277Y-10869460D02*
X18448753Y-10850412D01*
X18448753Y-10850412D02*
X18448753Y-10774222D01*
X18448753Y-10774222D02*
X18458277Y-10755174D01*
X18458277Y-10755174D02*
X18477325Y-10745650D01*
X18477325Y-10745650D02*
X18515420Y-10745650D01*
X18515420Y-10745650D02*
X18534468Y-10755174D01*
X18534468Y-10755174D02*
X18543992Y-10774222D01*
X18543992Y-10774222D02*
X18543992Y-10793270D01*
X18543992Y-10793270D02*
X18448753Y-10812317D01*
X18620182Y-10869460D02*
X18639230Y-10878984D01*
X18639230Y-10878984D02*
X18677325Y-10878984D01*
X18677325Y-10878984D02*
X18696373Y-10869460D01*
X18696373Y-10869460D02*
X18705896Y-10850412D01*
X18705896Y-10850412D02*
X18705896Y-10840889D01*
X18705896Y-10840889D02*
X18696373Y-10821841D01*
X18696373Y-10821841D02*
X18677325Y-10812317D01*
X18677325Y-10812317D02*
X18648753Y-10812317D01*
X18648753Y-10812317D02*
X18629706Y-10802793D01*
X18629706Y-10802793D02*
X18620182Y-10783746D01*
X18620182Y-10783746D02*
X18620182Y-10774222D01*
X18620182Y-10774222D02*
X18629706Y-10755174D01*
X18629706Y-10755174D02*
X18648753Y-10745650D01*
X18648753Y-10745650D02*
X18677325Y-10745650D01*
X18677325Y-10745650D02*
X18696373Y-10755174D01*
X18772563Y-10955174D02*
X18782087Y-10945650D01*
X18782087Y-10945650D02*
X18801134Y-10917079D01*
X18801134Y-10917079D02*
X18810658Y-10898031D01*
X18810658Y-10898031D02*
X18820182Y-10869460D01*
X18820182Y-10869460D02*
X18829706Y-10821841D01*
X18829706Y-10821841D02*
X18829706Y-10783746D01*
X18829706Y-10783746D02*
X18820182Y-10736127D01*
X18820182Y-10736127D02*
X18810658Y-10707555D01*
X18810658Y-10707555D02*
X18801134Y-10688508D01*
X18801134Y-10688508D02*
X18782087Y-10659936D01*
X18782087Y-10659936D02*
X18772563Y-10650412D01*
D12*
X13997500Y-11051500D02*
G75*
G02*
X13897500Y-11051500I-50000J0D01*
G01*
X13897500Y-11051500D02*
G75*
G02*
X13997500Y-11051500I50000J0D01*
G01*
D11*
X14363039Y-11142984D02*
X14248753Y-11142984D01*
X14305896Y-11142984D02*
X14305896Y-10942984D01*
X14305896Y-10942984D02*
X14286848Y-10971555D01*
X14286848Y-10971555D02*
X14267801Y-10990603D01*
X14267801Y-10990603D02*
X14248753Y-11000127D01*
X14448753Y-11123936D02*
X14458277Y-11133460D01*
X14458277Y-11133460D02*
X14448753Y-11142984D01*
X14448753Y-11142984D02*
X14439229Y-11133460D01*
X14439229Y-11133460D02*
X14448753Y-11123936D01*
X14448753Y-11123936D02*
X14448753Y-11142984D01*
X14582086Y-10942984D02*
X14601134Y-10942984D01*
X14601134Y-10942984D02*
X14620182Y-10952508D01*
X14620182Y-10952508D02*
X14629705Y-10962031D01*
X14629705Y-10962031D02*
X14639229Y-10981079D01*
X14639229Y-10981079D02*
X14648753Y-11019174D01*
X14648753Y-11019174D02*
X14648753Y-11066793D01*
X14648753Y-11066793D02*
X14639229Y-11104889D01*
X14639229Y-11104889D02*
X14629705Y-11123936D01*
X14629705Y-11123936D02*
X14620182Y-11133460D01*
X14620182Y-11133460D02*
X14601134Y-11142984D01*
X14601134Y-11142984D02*
X14582086Y-11142984D01*
X14582086Y-11142984D02*
X14563039Y-11133460D01*
X14563039Y-11133460D02*
X14553515Y-11123936D01*
X14553515Y-11123936D02*
X14543991Y-11104889D01*
X14543991Y-11104889D02*
X14534467Y-11066793D01*
X14534467Y-11066793D02*
X14534467Y-11019174D01*
X14534467Y-11019174D02*
X14543991Y-10981079D01*
X14543991Y-10981079D02*
X14553515Y-10962031D01*
X14553515Y-10962031D02*
X14563039Y-10952508D01*
X14563039Y-10952508D02*
X14582086Y-10942984D01*
X14772562Y-10942984D02*
X14791610Y-10942984D01*
X14791610Y-10942984D02*
X14810658Y-10952508D01*
X14810658Y-10952508D02*
X14820182Y-10962031D01*
X14820182Y-10962031D02*
X14829705Y-10981079D01*
X14829705Y-10981079D02*
X14839229Y-11019174D01*
X14839229Y-11019174D02*
X14839229Y-11066793D01*
X14839229Y-11066793D02*
X14829705Y-11104889D01*
X14829705Y-11104889D02*
X14820182Y-11123936D01*
X14820182Y-11123936D02*
X14810658Y-11133460D01*
X14810658Y-11133460D02*
X14791610Y-11142984D01*
X14791610Y-11142984D02*
X14772562Y-11142984D01*
X14772562Y-11142984D02*
X14753515Y-11133460D01*
X14753515Y-11133460D02*
X14743991Y-11123936D01*
X14743991Y-11123936D02*
X14734467Y-11104889D01*
X14734467Y-11104889D02*
X14724943Y-11066793D01*
X14724943Y-11066793D02*
X14724943Y-11019174D01*
X14724943Y-11019174D02*
X14734467Y-10981079D01*
X14734467Y-10981079D02*
X14743991Y-10962031D01*
X14743991Y-10962031D02*
X14753515Y-10952508D01*
X14753515Y-10952508D02*
X14772562Y-10942984D01*
X14963039Y-10942984D02*
X14982086Y-10942984D01*
X14982086Y-10942984D02*
X15001134Y-10952508D01*
X15001134Y-10952508D02*
X15010658Y-10962031D01*
X15010658Y-10962031D02*
X15020182Y-10981079D01*
X15020182Y-10981079D02*
X15029705Y-11019174D01*
X15029705Y-11019174D02*
X15029705Y-11066793D01*
X15029705Y-11066793D02*
X15020182Y-11104889D01*
X15020182Y-11104889D02*
X15010658Y-11123936D01*
X15010658Y-11123936D02*
X15001134Y-11133460D01*
X15001134Y-11133460D02*
X14982086Y-11142984D01*
X14982086Y-11142984D02*
X14963039Y-11142984D01*
X14963039Y-11142984D02*
X14943991Y-11133460D01*
X14943991Y-11133460D02*
X14934467Y-11123936D01*
X14934467Y-11123936D02*
X14924943Y-11104889D01*
X14924943Y-11104889D02*
X14915420Y-11066793D01*
X14915420Y-11066793D02*
X14915420Y-11019174D01*
X14915420Y-11019174D02*
X14924943Y-10981079D01*
X14924943Y-10981079D02*
X14934467Y-10962031D01*
X14934467Y-10962031D02*
X14943991Y-10952508D01*
X14943991Y-10952508D02*
X14963039Y-10942984D01*
X15115420Y-11142984D02*
X15115420Y-11009650D01*
X15115420Y-11028698D02*
X15124943Y-11019174D01*
X15124943Y-11019174D02*
X15143991Y-11009650D01*
X15143991Y-11009650D02*
X15172563Y-11009650D01*
X15172563Y-11009650D02*
X15191610Y-11019174D01*
X15191610Y-11019174D02*
X15201134Y-11038222D01*
X15201134Y-11038222D02*
X15201134Y-11142984D01*
X15201134Y-11038222D02*
X15210658Y-11019174D01*
X15210658Y-11019174D02*
X15229705Y-11009650D01*
X15229705Y-11009650D02*
X15258277Y-11009650D01*
X15258277Y-11009650D02*
X15277324Y-11019174D01*
X15277324Y-11019174D02*
X15286848Y-11038222D01*
X15286848Y-11038222D02*
X15286848Y-11142984D01*
X15382086Y-11142984D02*
X15382086Y-11009650D01*
X15382086Y-11028698D02*
X15391610Y-11019174D01*
X15391610Y-11019174D02*
X15410658Y-11009650D01*
X15410658Y-11009650D02*
X15439229Y-11009650D01*
X15439229Y-11009650D02*
X15458277Y-11019174D01*
X15458277Y-11019174D02*
X15467801Y-11038222D01*
X15467801Y-11038222D02*
X15467801Y-11142984D01*
X15467801Y-11038222D02*
X15477324Y-11019174D01*
X15477324Y-11019174D02*
X15496372Y-11009650D01*
X15496372Y-11009650D02*
X15524943Y-11009650D01*
X15524943Y-11009650D02*
X15543991Y-11019174D01*
X15543991Y-11019174D02*
X15553515Y-11038222D01*
X15553515Y-11038222D02*
X15553515Y-11142984D01*
X15943991Y-10933460D02*
X15772563Y-11190603D01*
X16201134Y-10942984D02*
X16220182Y-10942984D01*
X16220182Y-10942984D02*
X16239229Y-10952508D01*
X16239229Y-10952508D02*
X16248753Y-10962031D01*
X16248753Y-10962031D02*
X16258277Y-10981079D01*
X16258277Y-10981079D02*
X16267801Y-11019174D01*
X16267801Y-11019174D02*
X16267801Y-11066793D01*
X16267801Y-11066793D02*
X16258277Y-11104889D01*
X16258277Y-11104889D02*
X16248753Y-11123936D01*
X16248753Y-11123936D02*
X16239229Y-11133460D01*
X16239229Y-11133460D02*
X16220182Y-11142984D01*
X16220182Y-11142984D02*
X16201134Y-11142984D01*
X16201134Y-11142984D02*
X16182086Y-11133460D01*
X16182086Y-11133460D02*
X16172563Y-11123936D01*
X16172563Y-11123936D02*
X16163039Y-11104889D01*
X16163039Y-11104889D02*
X16153515Y-11066793D01*
X16153515Y-11066793D02*
X16153515Y-11019174D01*
X16153515Y-11019174D02*
X16163039Y-10981079D01*
X16163039Y-10981079D02*
X16172563Y-10962031D01*
X16172563Y-10962031D02*
X16182086Y-10952508D01*
X16182086Y-10952508D02*
X16201134Y-10942984D01*
X16353515Y-11123936D02*
X16363039Y-11133460D01*
X16363039Y-11133460D02*
X16353515Y-11142984D01*
X16353515Y-11142984D02*
X16343991Y-11133460D01*
X16343991Y-11133460D02*
X16353515Y-11123936D01*
X16353515Y-11123936D02*
X16353515Y-11142984D01*
X16486848Y-10942984D02*
X16505896Y-10942984D01*
X16505896Y-10942984D02*
X16524944Y-10952508D01*
X16524944Y-10952508D02*
X16534467Y-10962031D01*
X16534467Y-10962031D02*
X16543991Y-10981079D01*
X16543991Y-10981079D02*
X16553515Y-11019174D01*
X16553515Y-11019174D02*
X16553515Y-11066793D01*
X16553515Y-11066793D02*
X16543991Y-11104889D01*
X16543991Y-11104889D02*
X16534467Y-11123936D01*
X16534467Y-11123936D02*
X16524944Y-11133460D01*
X16524944Y-11133460D02*
X16505896Y-11142984D01*
X16505896Y-11142984D02*
X16486848Y-11142984D01*
X16486848Y-11142984D02*
X16467801Y-11133460D01*
X16467801Y-11133460D02*
X16458277Y-11123936D01*
X16458277Y-11123936D02*
X16448753Y-11104889D01*
X16448753Y-11104889D02*
X16439229Y-11066793D01*
X16439229Y-11066793D02*
X16439229Y-11019174D01*
X16439229Y-11019174D02*
X16448753Y-10981079D01*
X16448753Y-10981079D02*
X16458277Y-10962031D01*
X16458277Y-10962031D02*
X16467801Y-10952508D01*
X16467801Y-10952508D02*
X16486848Y-10942984D01*
X16620182Y-10942984D02*
X16743991Y-10942984D01*
X16743991Y-10942984D02*
X16677325Y-11019174D01*
X16677325Y-11019174D02*
X16705896Y-11019174D01*
X16705896Y-11019174D02*
X16724944Y-11028698D01*
X16724944Y-11028698D02*
X16734467Y-11038222D01*
X16734467Y-11038222D02*
X16743991Y-11057270D01*
X16743991Y-11057270D02*
X16743991Y-11104889D01*
X16743991Y-11104889D02*
X16734467Y-11123936D01*
X16734467Y-11123936D02*
X16724944Y-11133460D01*
X16724944Y-11133460D02*
X16705896Y-11142984D01*
X16705896Y-11142984D02*
X16648753Y-11142984D01*
X16648753Y-11142984D02*
X16629706Y-11133460D01*
X16629706Y-11133460D02*
X16620182Y-11123936D01*
X16839229Y-11142984D02*
X16877325Y-11142984D01*
X16877325Y-11142984D02*
X16896372Y-11133460D01*
X16896372Y-11133460D02*
X16905896Y-11123936D01*
X16905896Y-11123936D02*
X16924944Y-11095365D01*
X16924944Y-11095365D02*
X16934468Y-11057270D01*
X16934468Y-11057270D02*
X16934468Y-10981079D01*
X16934468Y-10981079D02*
X16924944Y-10962031D01*
X16924944Y-10962031D02*
X16915420Y-10952508D01*
X16915420Y-10952508D02*
X16896372Y-10942984D01*
X16896372Y-10942984D02*
X16858277Y-10942984D01*
X16858277Y-10942984D02*
X16839229Y-10952508D01*
X16839229Y-10952508D02*
X16829706Y-10962031D01*
X16829706Y-10962031D02*
X16820182Y-10981079D01*
X16820182Y-10981079D02*
X16820182Y-11028698D01*
X16820182Y-11028698D02*
X16829706Y-11047746D01*
X16829706Y-11047746D02*
X16839229Y-11057270D01*
X16839229Y-11057270D02*
X16858277Y-11066793D01*
X16858277Y-11066793D02*
X16896372Y-11066793D01*
X16896372Y-11066793D02*
X16915420Y-11057270D01*
X16915420Y-11057270D02*
X16924944Y-11047746D01*
X16924944Y-11047746D02*
X16934468Y-11028698D01*
X17105896Y-11009650D02*
X17105896Y-11142984D01*
X17058277Y-10933460D02*
X17010658Y-11076317D01*
X17010658Y-11076317D02*
X17134468Y-11076317D01*
X17201134Y-10942984D02*
X17201134Y-10981079D01*
X17277325Y-10942984D02*
X17277325Y-10981079D01*
X17572563Y-11219174D02*
X17563039Y-11209650D01*
X17563039Y-11209650D02*
X17543991Y-11181079D01*
X17543991Y-11181079D02*
X17534468Y-11162031D01*
X17534468Y-11162031D02*
X17524944Y-11133460D01*
X17524944Y-11133460D02*
X17515420Y-11085841D01*
X17515420Y-11085841D02*
X17515420Y-11047746D01*
X17515420Y-11047746D02*
X17524944Y-11000127D01*
X17524944Y-11000127D02*
X17534468Y-10971555D01*
X17534468Y-10971555D02*
X17543991Y-10952508D01*
X17543991Y-10952508D02*
X17563039Y-10923936D01*
X17563039Y-10923936D02*
X17572563Y-10914412D01*
X17734468Y-10942984D02*
X17696372Y-10942984D01*
X17696372Y-10942984D02*
X17677325Y-10952508D01*
X17677325Y-10952508D02*
X17667801Y-10962031D01*
X17667801Y-10962031D02*
X17648753Y-10990603D01*
X17648753Y-10990603D02*
X17639230Y-11028698D01*
X17639230Y-11028698D02*
X17639230Y-11104889D01*
X17639230Y-11104889D02*
X17648753Y-11123936D01*
X17648753Y-11123936D02*
X17658277Y-11133460D01*
X17658277Y-11133460D02*
X17677325Y-11142984D01*
X17677325Y-11142984D02*
X17715420Y-11142984D01*
X17715420Y-11142984D02*
X17734468Y-11133460D01*
X17734468Y-11133460D02*
X17743991Y-11123936D01*
X17743991Y-11123936D02*
X17753515Y-11104889D01*
X17753515Y-11104889D02*
X17753515Y-11057270D01*
X17753515Y-11057270D02*
X17743991Y-11038222D01*
X17743991Y-11038222D02*
X17734468Y-11028698D01*
X17734468Y-11028698D02*
X17715420Y-11019174D01*
X17715420Y-11019174D02*
X17677325Y-11019174D01*
X17677325Y-11019174D02*
X17658277Y-11028698D01*
X17658277Y-11028698D02*
X17648753Y-11038222D01*
X17648753Y-11038222D02*
X17639230Y-11057270D01*
X17991611Y-11142984D02*
X17991611Y-10942984D01*
X18077325Y-11142984D02*
X18077325Y-11038222D01*
X18077325Y-11038222D02*
X18067801Y-11019174D01*
X18067801Y-11019174D02*
X18048753Y-11009650D01*
X18048753Y-11009650D02*
X18020182Y-11009650D01*
X18020182Y-11009650D02*
X18001134Y-11019174D01*
X18001134Y-11019174D02*
X17991611Y-11028698D01*
X18201134Y-11142984D02*
X18182087Y-11133460D01*
X18182087Y-11133460D02*
X18172563Y-11123936D01*
X18172563Y-11123936D02*
X18163039Y-11104889D01*
X18163039Y-11104889D02*
X18163039Y-11047746D01*
X18163039Y-11047746D02*
X18172563Y-11028698D01*
X18172563Y-11028698D02*
X18182087Y-11019174D01*
X18182087Y-11019174D02*
X18201134Y-11009650D01*
X18201134Y-11009650D02*
X18229706Y-11009650D01*
X18229706Y-11009650D02*
X18248753Y-11019174D01*
X18248753Y-11019174D02*
X18258277Y-11028698D01*
X18258277Y-11028698D02*
X18267801Y-11047746D01*
X18267801Y-11047746D02*
X18267801Y-11104889D01*
X18267801Y-11104889D02*
X18258277Y-11123936D01*
X18258277Y-11123936D02*
X18248753Y-11133460D01*
X18248753Y-11133460D02*
X18229706Y-11142984D01*
X18229706Y-11142984D02*
X18201134Y-11142984D01*
X18382087Y-11142984D02*
X18363039Y-11133460D01*
X18363039Y-11133460D02*
X18353515Y-11114412D01*
X18353515Y-11114412D02*
X18353515Y-10942984D01*
X18534468Y-11133460D02*
X18515420Y-11142984D01*
X18515420Y-11142984D02*
X18477325Y-11142984D01*
X18477325Y-11142984D02*
X18458277Y-11133460D01*
X18458277Y-11133460D02*
X18448753Y-11114412D01*
X18448753Y-11114412D02*
X18448753Y-11038222D01*
X18448753Y-11038222D02*
X18458277Y-11019174D01*
X18458277Y-11019174D02*
X18477325Y-11009650D01*
X18477325Y-11009650D02*
X18515420Y-11009650D01*
X18515420Y-11009650D02*
X18534468Y-11019174D01*
X18534468Y-11019174D02*
X18543992Y-11038222D01*
X18543992Y-11038222D02*
X18543992Y-11057270D01*
X18543992Y-11057270D02*
X18448753Y-11076317D01*
X18620182Y-11133460D02*
X18639230Y-11142984D01*
X18639230Y-11142984D02*
X18677325Y-11142984D01*
X18677325Y-11142984D02*
X18696373Y-11133460D01*
X18696373Y-11133460D02*
X18705896Y-11114412D01*
X18705896Y-11114412D02*
X18705896Y-11104889D01*
X18705896Y-11104889D02*
X18696373Y-11085841D01*
X18696373Y-11085841D02*
X18677325Y-11076317D01*
X18677325Y-11076317D02*
X18648753Y-11076317D01*
X18648753Y-11076317D02*
X18629706Y-11066793D01*
X18629706Y-11066793D02*
X18620182Y-11047746D01*
X18620182Y-11047746D02*
X18620182Y-11038222D01*
X18620182Y-11038222D02*
X18629706Y-11019174D01*
X18629706Y-11019174D02*
X18648753Y-11009650D01*
X18648753Y-11009650D02*
X18677325Y-11009650D01*
X18677325Y-11009650D02*
X18696373Y-11019174D01*
X18772563Y-11219174D02*
X18782087Y-11209650D01*
X18782087Y-11209650D02*
X18801134Y-11181079D01*
X18801134Y-11181079D02*
X18810658Y-11162031D01*
X18810658Y-11162031D02*
X18820182Y-11133460D01*
X18820182Y-11133460D02*
X18829706Y-11085841D01*
X18829706Y-11085841D02*
X18829706Y-11047746D01*
X18829706Y-11047746D02*
X18820182Y-11000127D01*
X18820182Y-11000127D02*
X18810658Y-10971555D01*
X18810658Y-10971555D02*
X18801134Y-10952508D01*
X18801134Y-10952508D02*
X18782087Y-10923936D01*
X18782087Y-10923936D02*
X18772563Y-10914412D01*
M02*
