%TF.GenerationSoftware,KiCad,Pcbnew,9.0.6*%
%TF.CreationDate,2025-11-01T16:48:45-04:00*%
%TF.ProjectId,W25Q02JVTBIM_breakout,57323551-3032-44a5-9654-42494d5f6272,rev?*%
%TF.SameCoordinates,Original*%
%TF.FileFunction,Legend,Top*%
%TF.FilePolarity,Positive*%
%FSLAX46Y46*%
G04 Gerber Fmt 4.6, Leading zero omitted, Abs format (unit mm)*
G04 Created by KiCad (PCBNEW 9.0.6) date 2025-11-01 16:48:45*
%MOMM*%
%LPD*%
G01*
G04 APERTURE LIST*
%ADD10C,0.150000*%
%ADD11C,0.120000*%
%ADD12C,0.200000*%
G04 APERTURE END LIST*
D10*
X166039160Y-93072200D02*
X166182017Y-93119819D01*
X166182017Y-93119819D02*
X166420112Y-93119819D01*
X166420112Y-93119819D02*
X166515350Y-93072200D01*
X166515350Y-93072200D02*
X166562969Y-93024580D01*
X166562969Y-93024580D02*
X166610588Y-92929342D01*
X166610588Y-92929342D02*
X166610588Y-92834104D01*
X166610588Y-92834104D02*
X166562969Y-92738866D01*
X166562969Y-92738866D02*
X166515350Y-92691247D01*
X166515350Y-92691247D02*
X166420112Y-92643628D01*
X166420112Y-92643628D02*
X166229636Y-92596009D01*
X166229636Y-92596009D02*
X166134398Y-92548390D01*
X166134398Y-92548390D02*
X166086779Y-92500771D01*
X166086779Y-92500771D02*
X166039160Y-92405533D01*
X166039160Y-92405533D02*
X166039160Y-92310295D01*
X166039160Y-92310295D02*
X166086779Y-92215057D01*
X166086779Y-92215057D02*
X166134398Y-92167438D01*
X166134398Y-92167438D02*
X166229636Y-92119819D01*
X166229636Y-92119819D02*
X166467731Y-92119819D01*
X166467731Y-92119819D02*
X166610588Y-92167438D01*
X167610588Y-93024580D02*
X167562969Y-93072200D01*
X167562969Y-93072200D02*
X167420112Y-93119819D01*
X167420112Y-93119819D02*
X167324874Y-93119819D01*
X167324874Y-93119819D02*
X167182017Y-93072200D01*
X167182017Y-93072200D02*
X167086779Y-92976961D01*
X167086779Y-92976961D02*
X167039160Y-92881723D01*
X167039160Y-92881723D02*
X166991541Y-92691247D01*
X166991541Y-92691247D02*
X166991541Y-92548390D01*
X166991541Y-92548390D02*
X167039160Y-92357914D01*
X167039160Y-92357914D02*
X167086779Y-92262676D01*
X167086779Y-92262676D02*
X167182017Y-92167438D01*
X167182017Y-92167438D02*
X167324874Y-92119819D01*
X167324874Y-92119819D02*
X167420112Y-92119819D01*
X167420112Y-92119819D02*
X167562969Y-92167438D01*
X167562969Y-92167438D02*
X167610588Y-92215057D01*
X168515350Y-93119819D02*
X168039160Y-93119819D01*
X168039160Y-93119819D02*
X168039160Y-92119819D01*
X168848684Y-93119819D02*
X168848684Y-92119819D01*
X169420112Y-93119819D02*
X168991541Y-92548390D01*
X169420112Y-92119819D02*
X168848684Y-92691247D01*
X140836779Y-97869819D02*
X140836779Y-96869819D01*
X140836779Y-96869819D02*
X141170112Y-97584104D01*
X141170112Y-97584104D02*
X141503445Y-96869819D01*
X141503445Y-96869819D02*
X141503445Y-97869819D01*
X142170112Y-96869819D02*
X142360588Y-96869819D01*
X142360588Y-96869819D02*
X142455826Y-96917438D01*
X142455826Y-96917438D02*
X142551064Y-97012676D01*
X142551064Y-97012676D02*
X142598683Y-97203152D01*
X142598683Y-97203152D02*
X142598683Y-97536485D01*
X142598683Y-97536485D02*
X142551064Y-97726961D01*
X142551064Y-97726961D02*
X142455826Y-97822200D01*
X142455826Y-97822200D02*
X142360588Y-97869819D01*
X142360588Y-97869819D02*
X142170112Y-97869819D01*
X142170112Y-97869819D02*
X142074874Y-97822200D01*
X142074874Y-97822200D02*
X141979636Y-97726961D01*
X141979636Y-97726961D02*
X141932017Y-97536485D01*
X141932017Y-97536485D02*
X141932017Y-97203152D01*
X141932017Y-97203152D02*
X141979636Y-97012676D01*
X141979636Y-97012676D02*
X142074874Y-96917438D01*
X142074874Y-96917438D02*
X142170112Y-96869819D01*
X142979636Y-97822200D02*
X143122493Y-97869819D01*
X143122493Y-97869819D02*
X143360588Y-97869819D01*
X143360588Y-97869819D02*
X143455826Y-97822200D01*
X143455826Y-97822200D02*
X143503445Y-97774580D01*
X143503445Y-97774580D02*
X143551064Y-97679342D01*
X143551064Y-97679342D02*
X143551064Y-97584104D01*
X143551064Y-97584104D02*
X143503445Y-97488866D01*
X143503445Y-97488866D02*
X143455826Y-97441247D01*
X143455826Y-97441247D02*
X143360588Y-97393628D01*
X143360588Y-97393628D02*
X143170112Y-97346009D01*
X143170112Y-97346009D02*
X143074874Y-97298390D01*
X143074874Y-97298390D02*
X143027255Y-97250771D01*
X143027255Y-97250771D02*
X142979636Y-97155533D01*
X142979636Y-97155533D02*
X142979636Y-97060295D01*
X142979636Y-97060295D02*
X143027255Y-96965057D01*
X143027255Y-96965057D02*
X143074874Y-96917438D01*
X143074874Y-96917438D02*
X143170112Y-96869819D01*
X143170112Y-96869819D02*
X143408207Y-96869819D01*
X143408207Y-96869819D02*
X143551064Y-96917438D01*
X143979636Y-97869819D02*
X143979636Y-96869819D01*
X166908207Y-95274580D02*
X166860588Y-95322200D01*
X166860588Y-95322200D02*
X166717731Y-95369819D01*
X166717731Y-95369819D02*
X166622493Y-95369819D01*
X166622493Y-95369819D02*
X166479636Y-95322200D01*
X166479636Y-95322200D02*
X166384398Y-95226961D01*
X166384398Y-95226961D02*
X166336779Y-95131723D01*
X166336779Y-95131723D02*
X166289160Y-94941247D01*
X166289160Y-94941247D02*
X166289160Y-94798390D01*
X166289160Y-94798390D02*
X166336779Y-94607914D01*
X166336779Y-94607914D02*
X166384398Y-94512676D01*
X166384398Y-94512676D02*
X166479636Y-94417438D01*
X166479636Y-94417438D02*
X166622493Y-94369819D01*
X166622493Y-94369819D02*
X166717731Y-94369819D01*
X166717731Y-94369819D02*
X166860588Y-94417438D01*
X166860588Y-94417438D02*
X166908207Y-94465057D01*
X167289160Y-95322200D02*
X167432017Y-95369819D01*
X167432017Y-95369819D02*
X167670112Y-95369819D01*
X167670112Y-95369819D02*
X167765350Y-95322200D01*
X167765350Y-95322200D02*
X167812969Y-95274580D01*
X167812969Y-95274580D02*
X167860588Y-95179342D01*
X167860588Y-95179342D02*
X167860588Y-95084104D01*
X167860588Y-95084104D02*
X167812969Y-94988866D01*
X167812969Y-94988866D02*
X167765350Y-94941247D01*
X167765350Y-94941247D02*
X167670112Y-94893628D01*
X167670112Y-94893628D02*
X167479636Y-94846009D01*
X167479636Y-94846009D02*
X167384398Y-94798390D01*
X167384398Y-94798390D02*
X167336779Y-94750771D01*
X167336779Y-94750771D02*
X167289160Y-94655533D01*
X167289160Y-94655533D02*
X167289160Y-94560295D01*
X167289160Y-94560295D02*
X167336779Y-94465057D01*
X167336779Y-94465057D02*
X167384398Y-94417438D01*
X167384398Y-94417438D02*
X167479636Y-94369819D01*
X167479636Y-94369819D02*
X167717731Y-94369819D01*
X167717731Y-94369819D02*
X167860588Y-94417438D01*
X168289160Y-95274580D02*
X168336779Y-95322200D01*
X168336779Y-95322200D02*
X168289160Y-95369819D01*
X168289160Y-95369819D02*
X168241541Y-95322200D01*
X168241541Y-95322200D02*
X168289160Y-95274580D01*
X168289160Y-95274580D02*
X168289160Y-95369819D01*
X168289160Y-94988866D02*
X168241541Y-94417438D01*
X168241541Y-94417438D02*
X168289160Y-94369819D01*
X168289160Y-94369819D02*
X168336779Y-94417438D01*
X168336779Y-94417438D02*
X168289160Y-94988866D01*
X168289160Y-94988866D02*
X168289160Y-94369819D01*
X166610588Y-97142438D02*
X166515350Y-97094819D01*
X166515350Y-97094819D02*
X166372493Y-97094819D01*
X166372493Y-97094819D02*
X166229636Y-97142438D01*
X166229636Y-97142438D02*
X166134398Y-97237676D01*
X166134398Y-97237676D02*
X166086779Y-97332914D01*
X166086779Y-97332914D02*
X166039160Y-97523390D01*
X166039160Y-97523390D02*
X166039160Y-97666247D01*
X166039160Y-97666247D02*
X166086779Y-97856723D01*
X166086779Y-97856723D02*
X166134398Y-97951961D01*
X166134398Y-97951961D02*
X166229636Y-98047200D01*
X166229636Y-98047200D02*
X166372493Y-98094819D01*
X166372493Y-98094819D02*
X166467731Y-98094819D01*
X166467731Y-98094819D02*
X166610588Y-98047200D01*
X166610588Y-98047200D02*
X166658207Y-97999580D01*
X166658207Y-97999580D02*
X166658207Y-97666247D01*
X166658207Y-97666247D02*
X166467731Y-97666247D01*
X167086779Y-98094819D02*
X167086779Y-97094819D01*
X167086779Y-97094819D02*
X167658207Y-98094819D01*
X167658207Y-98094819D02*
X167658207Y-97094819D01*
X168134398Y-98094819D02*
X168134398Y-97094819D01*
X168134398Y-97094819D02*
X168372493Y-97094819D01*
X168372493Y-97094819D02*
X168515350Y-97142438D01*
X168515350Y-97142438D02*
X168610588Y-97237676D01*
X168610588Y-97237676D02*
X168658207Y-97332914D01*
X168658207Y-97332914D02*
X168705826Y-97523390D01*
X168705826Y-97523390D02*
X168705826Y-97666247D01*
X168705826Y-97666247D02*
X168658207Y-97856723D01*
X168658207Y-97856723D02*
X168610588Y-97951961D01*
X168610588Y-97951961D02*
X168515350Y-98047200D01*
X168515350Y-98047200D02*
X168372493Y-98094819D01*
X168372493Y-98094819D02*
X168134398Y-98094819D01*
X169134398Y-98094819D02*
X169134398Y-97094819D01*
X169134398Y-97094819D02*
X169372493Y-97094819D01*
X169372493Y-97094819D02*
X169515350Y-97142438D01*
X169515350Y-97142438D02*
X169610588Y-97237676D01*
X169610588Y-97237676D02*
X169658207Y-97332914D01*
X169658207Y-97332914D02*
X169705826Y-97523390D01*
X169705826Y-97523390D02*
X169705826Y-97666247D01*
X169705826Y-97666247D02*
X169658207Y-97856723D01*
X169658207Y-97856723D02*
X169610588Y-97951961D01*
X169610588Y-97951961D02*
X169515350Y-98047200D01*
X169515350Y-98047200D02*
X169372493Y-98094819D01*
X169372493Y-98094819D02*
X169134398Y-98094819D01*
X140836779Y-95369819D02*
X140836779Y-94369819D01*
X140836779Y-94369819D02*
X141170112Y-95084104D01*
X141170112Y-95084104D02*
X141503445Y-94369819D01*
X141503445Y-94369819D02*
X141503445Y-95369819D01*
X141979636Y-95369819D02*
X141979636Y-94369819D01*
X142408207Y-95322200D02*
X142551064Y-95369819D01*
X142551064Y-95369819D02*
X142789159Y-95369819D01*
X142789159Y-95369819D02*
X142884397Y-95322200D01*
X142884397Y-95322200D02*
X142932016Y-95274580D01*
X142932016Y-95274580D02*
X142979635Y-95179342D01*
X142979635Y-95179342D02*
X142979635Y-95084104D01*
X142979635Y-95084104D02*
X142932016Y-94988866D01*
X142932016Y-94988866D02*
X142884397Y-94941247D01*
X142884397Y-94941247D02*
X142789159Y-94893628D01*
X142789159Y-94893628D02*
X142598683Y-94846009D01*
X142598683Y-94846009D02*
X142503445Y-94798390D01*
X142503445Y-94798390D02*
X142455826Y-94750771D01*
X142455826Y-94750771D02*
X142408207Y-94655533D01*
X142408207Y-94655533D02*
X142408207Y-94560295D01*
X142408207Y-94560295D02*
X142455826Y-94465057D01*
X142455826Y-94465057D02*
X142503445Y-94417438D01*
X142503445Y-94417438D02*
X142598683Y-94369819D01*
X142598683Y-94369819D02*
X142836778Y-94369819D01*
X142836778Y-94369819D02*
X142979635Y-94417438D01*
X143598683Y-94369819D02*
X143789159Y-94369819D01*
X143789159Y-94369819D02*
X143884397Y-94417438D01*
X143884397Y-94417438D02*
X143979635Y-94512676D01*
X143979635Y-94512676D02*
X144027254Y-94703152D01*
X144027254Y-94703152D02*
X144027254Y-95036485D01*
X144027254Y-95036485D02*
X143979635Y-95226961D01*
X143979635Y-95226961D02*
X143884397Y-95322200D01*
X143884397Y-95322200D02*
X143789159Y-95369819D01*
X143789159Y-95369819D02*
X143598683Y-95369819D01*
X143598683Y-95369819D02*
X143503445Y-95322200D01*
X143503445Y-95322200D02*
X143408207Y-95226961D01*
X143408207Y-95226961D02*
X143360588Y-95036485D01*
X143360588Y-95036485D02*
X143360588Y-94703152D01*
X143360588Y-94703152D02*
X143408207Y-94512676D01*
X143408207Y-94512676D02*
X143503445Y-94417438D01*
X143503445Y-94417438D02*
X143598683Y-94369819D01*
X140991541Y-91869819D02*
X141610588Y-91869819D01*
X141610588Y-91869819D02*
X141277255Y-92250771D01*
X141277255Y-92250771D02*
X141420112Y-92250771D01*
X141420112Y-92250771D02*
X141515350Y-92298390D01*
X141515350Y-92298390D02*
X141562969Y-92346009D01*
X141562969Y-92346009D02*
X141610588Y-92441247D01*
X141610588Y-92441247D02*
X141610588Y-92679342D01*
X141610588Y-92679342D02*
X141562969Y-92774580D01*
X141562969Y-92774580D02*
X141515350Y-92822200D01*
X141515350Y-92822200D02*
X141420112Y-92869819D01*
X141420112Y-92869819D02*
X141134398Y-92869819D01*
X141134398Y-92869819D02*
X141039160Y-92822200D01*
X141039160Y-92822200D02*
X140991541Y-92774580D01*
X141943922Y-92203152D02*
X142182017Y-92869819D01*
X142182017Y-92869819D02*
X142420112Y-92203152D01*
X142705827Y-91869819D02*
X143324874Y-91869819D01*
X143324874Y-91869819D02*
X142991541Y-92250771D01*
X142991541Y-92250771D02*
X143134398Y-92250771D01*
X143134398Y-92250771D02*
X143229636Y-92298390D01*
X143229636Y-92298390D02*
X143277255Y-92346009D01*
X143277255Y-92346009D02*
X143324874Y-92441247D01*
X143324874Y-92441247D02*
X143324874Y-92679342D01*
X143324874Y-92679342D02*
X143277255Y-92774580D01*
X143277255Y-92774580D02*
X143229636Y-92822200D01*
X143229636Y-92822200D02*
X143134398Y-92869819D01*
X143134398Y-92869819D02*
X142848684Y-92869819D01*
X142848684Y-92869819D02*
X142753446Y-92822200D01*
X142753446Y-92822200D02*
X142705827Y-92774580D01*
X163496666Y-89784819D02*
X163496666Y-90499104D01*
X163496666Y-90499104D02*
X163449047Y-90641961D01*
X163449047Y-90641961D02*
X163353809Y-90737200D01*
X163353809Y-90737200D02*
X163210952Y-90784819D01*
X163210952Y-90784819D02*
X163115714Y-90784819D01*
X163925238Y-89880057D02*
X163972857Y-89832438D01*
X163972857Y-89832438D02*
X164068095Y-89784819D01*
X164068095Y-89784819D02*
X164306190Y-89784819D01*
X164306190Y-89784819D02*
X164401428Y-89832438D01*
X164401428Y-89832438D02*
X164449047Y-89880057D01*
X164449047Y-89880057D02*
X164496666Y-89975295D01*
X164496666Y-89975295D02*
X164496666Y-90070533D01*
X164496666Y-90070533D02*
X164449047Y-90213390D01*
X164449047Y-90213390D02*
X163877619Y-90784819D01*
X163877619Y-90784819D02*
X164496666Y-90784819D01*
X145716666Y-89784819D02*
X145716666Y-90499104D01*
X145716666Y-90499104D02*
X145669047Y-90641961D01*
X145669047Y-90641961D02*
X145573809Y-90737200D01*
X145573809Y-90737200D02*
X145430952Y-90784819D01*
X145430952Y-90784819D02*
X145335714Y-90784819D01*
X146716666Y-90784819D02*
X146145238Y-90784819D01*
X146430952Y-90784819D02*
X146430952Y-89784819D01*
X146430952Y-89784819D02*
X146335714Y-89927676D01*
X146335714Y-89927676D02*
X146240476Y-90022914D01*
X146240476Y-90022914D02*
X146145238Y-90070533D01*
X149704819Y-91166666D02*
X149228628Y-91499999D01*
X149704819Y-91738094D02*
X148704819Y-91738094D01*
X148704819Y-91738094D02*
X148704819Y-91357142D01*
X148704819Y-91357142D02*
X148752438Y-91261904D01*
X148752438Y-91261904D02*
X148800057Y-91214285D01*
X148800057Y-91214285D02*
X148895295Y-91166666D01*
X148895295Y-91166666D02*
X149038152Y-91166666D01*
X149038152Y-91166666D02*
X149133390Y-91214285D01*
X149133390Y-91214285D02*
X149181009Y-91261904D01*
X149181009Y-91261904D02*
X149228628Y-91357142D01*
X149228628Y-91357142D02*
X149228628Y-91738094D01*
X149704819Y-90214285D02*
X149704819Y-90785713D01*
X149704819Y-90499999D02*
X148704819Y-90499999D01*
X148704819Y-90499999D02*
X148847676Y-90595237D01*
X148847676Y-90595237D02*
X148942914Y-90690475D01*
X148942914Y-90690475D02*
X148990533Y-90785713D01*
X159824580Y-96571666D02*
X159872200Y-96619285D01*
X159872200Y-96619285D02*
X159919819Y-96762142D01*
X159919819Y-96762142D02*
X159919819Y-96857380D01*
X159919819Y-96857380D02*
X159872200Y-97000237D01*
X159872200Y-97000237D02*
X159776961Y-97095475D01*
X159776961Y-97095475D02*
X159681723Y-97143094D01*
X159681723Y-97143094D02*
X159491247Y-97190713D01*
X159491247Y-97190713D02*
X159348390Y-97190713D01*
X159348390Y-97190713D02*
X159157914Y-97143094D01*
X159157914Y-97143094D02*
X159062676Y-97095475D01*
X159062676Y-97095475D02*
X158967438Y-97000237D01*
X158967438Y-97000237D02*
X158919819Y-96857380D01*
X158919819Y-96857380D02*
X158919819Y-96762142D01*
X158919819Y-96762142D02*
X158967438Y-96619285D01*
X158967438Y-96619285D02*
X159015057Y-96571666D01*
X159919819Y-95619285D02*
X159919819Y-96190713D01*
X159919819Y-95904999D02*
X158919819Y-95904999D01*
X158919819Y-95904999D02*
X159062676Y-96000237D01*
X159062676Y-96000237D02*
X159157914Y-96095475D01*
X159157914Y-96095475D02*
X159205533Y-96190713D01*
X149892857Y-88204819D02*
X150130952Y-89204819D01*
X150130952Y-89204819D02*
X150321428Y-88490533D01*
X150321428Y-88490533D02*
X150511904Y-89204819D01*
X150511904Y-89204819D02*
X150750000Y-88204819D01*
X151083333Y-88300057D02*
X151130952Y-88252438D01*
X151130952Y-88252438D02*
X151226190Y-88204819D01*
X151226190Y-88204819D02*
X151464285Y-88204819D01*
X151464285Y-88204819D02*
X151559523Y-88252438D01*
X151559523Y-88252438D02*
X151607142Y-88300057D01*
X151607142Y-88300057D02*
X151654761Y-88395295D01*
X151654761Y-88395295D02*
X151654761Y-88490533D01*
X151654761Y-88490533D02*
X151607142Y-88633390D01*
X151607142Y-88633390D02*
X151035714Y-89204819D01*
X151035714Y-89204819D02*
X151654761Y-89204819D01*
X152559523Y-88204819D02*
X152083333Y-88204819D01*
X152083333Y-88204819D02*
X152035714Y-88681009D01*
X152035714Y-88681009D02*
X152083333Y-88633390D01*
X152083333Y-88633390D02*
X152178571Y-88585771D01*
X152178571Y-88585771D02*
X152416666Y-88585771D01*
X152416666Y-88585771D02*
X152511904Y-88633390D01*
X152511904Y-88633390D02*
X152559523Y-88681009D01*
X152559523Y-88681009D02*
X152607142Y-88776247D01*
X152607142Y-88776247D02*
X152607142Y-89014342D01*
X152607142Y-89014342D02*
X152559523Y-89109580D01*
X152559523Y-89109580D02*
X152511904Y-89157200D01*
X152511904Y-89157200D02*
X152416666Y-89204819D01*
X152416666Y-89204819D02*
X152178571Y-89204819D01*
X152178571Y-89204819D02*
X152083333Y-89157200D01*
X152083333Y-89157200D02*
X152035714Y-89109580D01*
X153702380Y-89300057D02*
X153607142Y-89252438D01*
X153607142Y-89252438D02*
X153511904Y-89157200D01*
X153511904Y-89157200D02*
X153369047Y-89014342D01*
X153369047Y-89014342D02*
X153273809Y-88966723D01*
X153273809Y-88966723D02*
X153178571Y-88966723D01*
X153226190Y-89204819D02*
X153130952Y-89157200D01*
X153130952Y-89157200D02*
X153035714Y-89061961D01*
X153035714Y-89061961D02*
X152988095Y-88871485D01*
X152988095Y-88871485D02*
X152988095Y-88538152D01*
X152988095Y-88538152D02*
X153035714Y-88347676D01*
X153035714Y-88347676D02*
X153130952Y-88252438D01*
X153130952Y-88252438D02*
X153226190Y-88204819D01*
X153226190Y-88204819D02*
X153416666Y-88204819D01*
X153416666Y-88204819D02*
X153511904Y-88252438D01*
X153511904Y-88252438D02*
X153607142Y-88347676D01*
X153607142Y-88347676D02*
X153654761Y-88538152D01*
X153654761Y-88538152D02*
X153654761Y-88871485D01*
X153654761Y-88871485D02*
X153607142Y-89061961D01*
X153607142Y-89061961D02*
X153511904Y-89157200D01*
X153511904Y-89157200D02*
X153416666Y-89204819D01*
X153416666Y-89204819D02*
X153226190Y-89204819D01*
X154273809Y-88204819D02*
X154369047Y-88204819D01*
X154369047Y-88204819D02*
X154464285Y-88252438D01*
X154464285Y-88252438D02*
X154511904Y-88300057D01*
X154511904Y-88300057D02*
X154559523Y-88395295D01*
X154559523Y-88395295D02*
X154607142Y-88585771D01*
X154607142Y-88585771D02*
X154607142Y-88823866D01*
X154607142Y-88823866D02*
X154559523Y-89014342D01*
X154559523Y-89014342D02*
X154511904Y-89109580D01*
X154511904Y-89109580D02*
X154464285Y-89157200D01*
X154464285Y-89157200D02*
X154369047Y-89204819D01*
X154369047Y-89204819D02*
X154273809Y-89204819D01*
X154273809Y-89204819D02*
X154178571Y-89157200D01*
X154178571Y-89157200D02*
X154130952Y-89109580D01*
X154130952Y-89109580D02*
X154083333Y-89014342D01*
X154083333Y-89014342D02*
X154035714Y-88823866D01*
X154035714Y-88823866D02*
X154035714Y-88585771D01*
X154035714Y-88585771D02*
X154083333Y-88395295D01*
X154083333Y-88395295D02*
X154130952Y-88300057D01*
X154130952Y-88300057D02*
X154178571Y-88252438D01*
X154178571Y-88252438D02*
X154273809Y-88204819D01*
X154988095Y-88300057D02*
X155035714Y-88252438D01*
X155035714Y-88252438D02*
X155130952Y-88204819D01*
X155130952Y-88204819D02*
X155369047Y-88204819D01*
X155369047Y-88204819D02*
X155464285Y-88252438D01*
X155464285Y-88252438D02*
X155511904Y-88300057D01*
X155511904Y-88300057D02*
X155559523Y-88395295D01*
X155559523Y-88395295D02*
X155559523Y-88490533D01*
X155559523Y-88490533D02*
X155511904Y-88633390D01*
X155511904Y-88633390D02*
X154940476Y-89204819D01*
X154940476Y-89204819D02*
X155559523Y-89204819D01*
X156273809Y-88204819D02*
X156273809Y-88919104D01*
X156273809Y-88919104D02*
X156226190Y-89061961D01*
X156226190Y-89061961D02*
X156130952Y-89157200D01*
X156130952Y-89157200D02*
X155988095Y-89204819D01*
X155988095Y-89204819D02*
X155892857Y-89204819D01*
X156607143Y-88204819D02*
X156940476Y-89204819D01*
X156940476Y-89204819D02*
X157273809Y-88204819D01*
X157464286Y-88204819D02*
X158035714Y-88204819D01*
X157750000Y-89204819D02*
X157750000Y-88204819D01*
X158702381Y-88681009D02*
X158845238Y-88728628D01*
X158845238Y-88728628D02*
X158892857Y-88776247D01*
X158892857Y-88776247D02*
X158940476Y-88871485D01*
X158940476Y-88871485D02*
X158940476Y-89014342D01*
X158940476Y-89014342D02*
X158892857Y-89109580D01*
X158892857Y-89109580D02*
X158845238Y-89157200D01*
X158845238Y-89157200D02*
X158750000Y-89204819D01*
X158750000Y-89204819D02*
X158369048Y-89204819D01*
X158369048Y-89204819D02*
X158369048Y-88204819D01*
X158369048Y-88204819D02*
X158702381Y-88204819D01*
X158702381Y-88204819D02*
X158797619Y-88252438D01*
X158797619Y-88252438D02*
X158845238Y-88300057D01*
X158845238Y-88300057D02*
X158892857Y-88395295D01*
X158892857Y-88395295D02*
X158892857Y-88490533D01*
X158892857Y-88490533D02*
X158845238Y-88585771D01*
X158845238Y-88585771D02*
X158797619Y-88633390D01*
X158797619Y-88633390D02*
X158702381Y-88681009D01*
X158702381Y-88681009D02*
X158369048Y-88681009D01*
X159369048Y-89204819D02*
X159369048Y-88204819D01*
X159845238Y-89204819D02*
X159845238Y-88204819D01*
X159845238Y-88204819D02*
X160178571Y-88919104D01*
X160178571Y-88919104D02*
X160511904Y-88204819D01*
X160511904Y-88204819D02*
X160511904Y-89204819D01*
D11*
%TO.C,J2*%
X162450000Y-91330000D02*
X163830000Y-91330000D01*
X162450000Y-92710000D02*
X162450000Y-91330000D01*
X162450000Y-93980000D02*
X162450000Y-99170000D01*
X162450000Y-93980000D02*
X165210000Y-93980000D01*
X162450000Y-99170000D02*
X165210000Y-99170000D01*
X165210000Y-93980000D02*
X165210000Y-99170000D01*
%TO.C,J1*%
X144670000Y-91330000D02*
X146050000Y-91330000D01*
X144670000Y-92710000D02*
X144670000Y-91330000D01*
X144670000Y-93980000D02*
X144670000Y-99170000D01*
X144670000Y-93980000D02*
X147430000Y-93980000D01*
X144670000Y-99170000D02*
X147430000Y-99170000D01*
X147430000Y-93980000D02*
X147430000Y-99170000D01*
%TO.C,R1*%
X149015000Y-93127836D02*
X149015000Y-92912164D01*
X149735000Y-93127836D02*
X149735000Y-92912164D01*
%TO.C,C1*%
X160265000Y-96512836D02*
X160265000Y-96297164D01*
X160985000Y-96512836D02*
X160985000Y-96297164D01*
D12*
%TO.C,IC1*%
X151500000Y-93000000D02*
X153500000Y-91000000D01*
X151500000Y-99000000D02*
X151500000Y-93000000D01*
X153500000Y-91000000D02*
X157500000Y-91000000D01*
X157500000Y-91000000D02*
X157500000Y-99000000D01*
X157500000Y-99000000D02*
X151500000Y-99000000D01*
X151600000Y-91000000D02*
G75*
G02*
X151400000Y-91000000I-100000J0D01*
G01*
X151400000Y-91000000D02*
G75*
G02*
X151600000Y-91000000I100000J0D01*
G01*
%TD*%
M02*
