%TF.GenerationSoftware,KiCad,Pcbnew,9.0.6*%
%TF.CreationDate,2025-11-01T16:48:45-04:00*%
%TF.ProjectId,W25Q02JVTBIM_breakout,57323551-3032-44a5-9654-42494d5f6272,rev?*%
%TF.SameCoordinates,Original*%
%TF.FileFunction,Copper,L1,Top*%
%TF.FilePolarity,Positive*%
%FSLAX46Y46*%
G04 Gerber Fmt 4.6, Leading zero omitted, Abs format (unit mm)*
G04 Created by KiCad (PCBNEW 9.0.6) date 2025-11-01 16:48:45*
%MOMM*%
%LPD*%
G01*
G04 APERTURE LIST*
G04 Aperture macros list*
%AMRoundRect*
0 Rectangle with rounded corners*
0 $1 Rounding radius*
0 $2 $3 $4 $5 $6 $7 $8 $9 X,Y pos of 4 corners*
0 Add a 4 corners polygon primitive as box body*
4,1,4,$2,$3,$4,$5,$6,$7,$8,$9,$2,$3,0*
0 Add four circle primitives for the rounded corners*
1,1,$1+$1,$2,$3*
1,1,$1+$1,$4,$5*
1,1,$1+$1,$6,$7*
1,1,$1+$1,$8,$9*
0 Add four rect primitives between the rounded corners*
20,1,$1+$1,$2,$3,$4,$5,0*
20,1,$1+$1,$4,$5,$6,$7,0*
20,1,$1+$1,$6,$7,$8,$9,0*
20,1,$1+$1,$8,$9,$2,$3,0*%
G04 Aperture macros list end*
%TA.AperFunction,ComponentPad*%
%ADD10R,1.700000X1.700000*%
%TD*%
%TA.AperFunction,ComponentPad*%
%ADD11C,1.700000*%
%TD*%
%TA.AperFunction,SMDPad,CuDef*%
%ADD12RoundRect,0.140000X0.170000X-0.140000X0.170000X0.140000X-0.170000X0.140000X-0.170000X-0.140000X0*%
%TD*%
%TA.AperFunction,SMDPad,CuDef*%
%ADD13C,0.370000*%
%TD*%
%TA.AperFunction,ViaPad*%
%ADD14C,0.600000*%
%TD*%
%TA.AperFunction,Conductor*%
%ADD15C,0.200000*%
%TD*%
G04 APERTURE END LIST*
D10*
%TO.P,J2,1,Pin_1*%
%TO.N,SCLK_Flash*%
X163830000Y-92710000D03*
D11*
%TO.P,J2,2,Pin_2*%
%TO.N,CS-Mem*%
X163830000Y-95250000D03*
%TO.P,J2,3,Pin_3*%
%TO.N,GNDD*%
X163830000Y-97790000D03*
%TD*%
D10*
%TO.P,J1,1,Pin_1*%
%TO.N,3v3*%
X146050000Y-92710000D03*
D11*
%TO.P,J1,2,Pin_2*%
%TO.N,MISO_Flash*%
X146050000Y-95250000D03*
%TO.P,J1,3,Pin_3*%
%TO.N,MOSI_Flash*%
X146050000Y-97790000D03*
%TD*%
D12*
%TO.P,R1,1*%
%TO.N,CS-Mem*%
X149375000Y-93500000D03*
%TO.P,R1,2*%
%TO.N,3v3*%
X149375000Y-92540000D03*
%TD*%
%TO.P,C1,1*%
%TO.N,GNDD*%
X160625000Y-96885000D03*
%TO.P,C1,2*%
%TO.N,3v3*%
X160625000Y-95925000D03*
%TD*%
D13*
%TO.P,IC1,A2,NC_1*%
%TO.N,unconnected-(IC1-NC_1-PadA2)*%
X153500000Y-93000000D03*
%TO.P,IC1,A3,NC_2*%
%TO.N,unconnected-(IC1-NC_2-PadA3)*%
X154500000Y-93000000D03*
%TO.P,IC1,A4,~{RESET}*%
%TO.N,3v3*%
X155500000Y-93000000D03*
%TO.P,IC1,A5,NC_3*%
%TO.N,unconnected-(IC1-NC_3-PadA5)*%
X156500000Y-93000000D03*
%TO.P,IC1,B1,NC_4*%
%TO.N,unconnected-(IC1-NC_4-PadB1)*%
X152500000Y-94000000D03*
%TO.P,IC1,B2,CLK*%
%TO.N,SCLK_Flash*%
X153500000Y-94000000D03*
%TO.P,IC1,B3,GND*%
%TO.N,GNDD*%
X154500000Y-94000000D03*
%TO.P,IC1,B4,VCC*%
%TO.N,3v3*%
X155500000Y-94000000D03*
%TO.P,IC1,B5,NC_5*%
%TO.N,unconnected-(IC1-NC_5-PadB5)*%
X156500000Y-94000000D03*
%TO.P,IC1,C1,NC_6*%
%TO.N,unconnected-(IC1-NC_6-PadC1)*%
X152500000Y-95000000D03*
%TO.P,IC1,C2,~{CS}*%
%TO.N,CS-Mem*%
X153500000Y-95000000D03*
%TO.P,IC1,C3,NC_7*%
%TO.N,unconnected-(IC1-NC_7-PadC3)*%
X154500000Y-95000000D03*
%TO.P,IC1,C4,~{WP_(IO2)}*%
%TO.N,3v3*%
X155500000Y-95000000D03*
%TO.P,IC1,C5,NC_8*%
%TO.N,unconnected-(IC1-NC_8-PadC5)*%
X156500000Y-95000000D03*
%TO.P,IC1,D1,NC_9*%
%TO.N,unconnected-(IC1-NC_9-PadD1)*%
X152500000Y-96000000D03*
%TO.P,IC1,D2,DO(IO1)*%
%TO.N,MISO_Flash*%
X153500000Y-96000000D03*
%TO.P,IC1,D3,DI(IO0)*%
%TO.N,MOSI_Flash*%
X154500000Y-96000000D03*
%TO.P,IC1,D4,~{HOLD(IO3)}*%
%TO.N,3v3*%
X155500000Y-96000000D03*
%TO.P,IC1,D5,NC_10*%
%TO.N,unconnected-(IC1-NC_10-PadD5)*%
X156500000Y-96000000D03*
%TO.P,IC1,E1,NC_11*%
%TO.N,unconnected-(IC1-NC_11-PadE1)*%
X152500000Y-97000000D03*
%TO.P,IC1,E2,NC_12*%
%TO.N,unconnected-(IC1-NC_12-PadE2)*%
X153500000Y-97000000D03*
%TO.P,IC1,E3,NC_13*%
%TO.N,unconnected-(IC1-NC_13-PadE3)*%
X154500000Y-97000000D03*
%TO.P,IC1,E4,NC_14*%
%TO.N,unconnected-(IC1-NC_14-PadE4)*%
X155500000Y-97000000D03*
%TO.P,IC1,E5,NC_15*%
%TO.N,unconnected-(IC1-NC_15-PadE5)*%
X156500000Y-97000000D03*
%TD*%
D14*
%TO.N,GNDD*%
X155625000Y-97850000D03*
X160825000Y-97700000D03*
%TO.N,SCLK_Flash*%
X153925000Y-93550000D03*
%TO.N,CS-Mem*%
X153950000Y-95450000D03*
%TD*%
D15*
%TO.N,GNDD*%
X154986000Y-97201308D02*
X154986000Y-94486000D01*
X160625000Y-97500000D02*
X160825000Y-97700000D01*
X155270692Y-97486000D02*
X154986000Y-97201308D01*
X155270692Y-97486000D02*
X155270692Y-97495692D01*
X154986000Y-94486000D02*
X154500000Y-94000000D01*
X160625000Y-96885000D02*
X160625000Y-97500000D01*
X155270692Y-97495692D02*
X155625000Y-97850000D01*
%TO.N,3v3*%
X160625000Y-95925000D02*
X160064000Y-96486000D01*
X146050000Y-92710000D02*
X146175000Y-92710000D01*
X146345000Y-92540000D02*
X149375000Y-92540000D01*
X146175000Y-92710000D02*
X146345000Y-92540000D01*
X155986000Y-96486000D02*
X155500000Y-96000000D01*
X149401000Y-92514000D02*
X155014000Y-92514000D01*
X155500000Y-96000000D02*
X155500000Y-96025000D01*
X155500000Y-93000000D02*
X155500000Y-96000000D01*
X155500000Y-96025000D02*
X155525000Y-96050000D01*
X160064000Y-96486000D02*
X155986000Y-96486000D01*
X149375000Y-92540000D02*
X149401000Y-92514000D01*
X155014000Y-92514000D02*
X155500000Y-93000000D01*
%TO.N,SCLK_Flash*%
X153500000Y-94000000D02*
X153500000Y-93975000D01*
X153500000Y-93975000D02*
X153925000Y-93550000D01*
X153975000Y-93550000D02*
X154075000Y-93650000D01*
X153925000Y-93550000D02*
X153975000Y-93550000D01*
%TO.N,MOSI_Flash*%
X153986000Y-96514000D02*
X154500000Y-96000000D01*
X146050000Y-97790000D02*
X153397308Y-97790000D01*
X153397308Y-97790000D02*
X153986000Y-97201308D01*
X146050000Y-97790000D02*
X146050000Y-97875000D01*
X153986000Y-97201308D02*
X153986000Y-96514000D01*
X146050000Y-97875000D02*
X146025000Y-97900000D01*
%TO.N,CS-Mem*%
X149375000Y-93500000D02*
X150389000Y-94514000D01*
X153500000Y-95000000D02*
X153950000Y-95450000D01*
X153950000Y-95450000D02*
X153945340Y-95445340D01*
X150389000Y-94514000D02*
X153014000Y-94514000D01*
X153014000Y-94514000D02*
X153500000Y-95000000D01*
%TO.N,MISO_Flash*%
X147314000Y-96514000D02*
X152986000Y-96514000D01*
X152986000Y-96514000D02*
X153500000Y-96000000D01*
X146050000Y-95250000D02*
X147314000Y-96514000D01*
%TD*%
M02*
