%TF.GenerationSoftware,KiCad,Pcbnew,9.0.6*%
%TF.CreationDate,2025-11-01T16:48:45-04:00*%
%TF.ProjectId,W25Q02JVTBIM_breakout,57323551-3032-44a5-9654-42494d5f6272,rev?*%
%TF.SameCoordinates,Original*%
%TF.FileFunction,Copper,L2,Bot*%
%TF.FilePolarity,Positive*%
%FSLAX46Y46*%
G04 Gerber Fmt 4.6, Leading zero omitted, Abs format (unit mm)*
G04 Created by KiCad (PCBNEW 9.0.6) date 2025-11-01 16:48:45*
%MOMM*%
%LPD*%
G01*
G04 APERTURE LIST*
%TA.AperFunction,ComponentPad*%
%ADD10R,1.700000X1.700000*%
%TD*%
%TA.AperFunction,ComponentPad*%
%ADD11C,1.700000*%
%TD*%
%TA.AperFunction,ViaPad*%
%ADD12C,0.600000*%
%TD*%
%TA.AperFunction,Conductor*%
%ADD13C,0.200000*%
%TD*%
G04 APERTURE END LIST*
D10*
%TO.P,J2,1,Pin_1*%
%TO.N,SCLK_Flash*%
X163830000Y-92710000D03*
D11*
%TO.P,J2,2,Pin_2*%
%TO.N,CS-Mem*%
X163830000Y-95250000D03*
%TO.P,J2,3,Pin_3*%
%TO.N,GNDD*%
X163830000Y-97790000D03*
%TD*%
D10*
%TO.P,J1,1,Pin_1*%
%TO.N,3v3*%
X146050000Y-92710000D03*
D11*
%TO.P,J1,2,Pin_2*%
%TO.N,MISO_Flash*%
X146050000Y-95250000D03*
%TO.P,J1,3,Pin_3*%
%TO.N,MOSI_Flash*%
X146050000Y-97790000D03*
%TD*%
D12*
%TO.N,GNDD*%
X155625000Y-97850000D03*
X160825000Y-97700000D03*
%TO.N,SCLK_Flash*%
X153925000Y-93550000D03*
%TO.N,CS-Mem*%
X153950000Y-95450000D03*
%TD*%
D13*
%TO.N,SCLK_Flash*%
X154765000Y-92710000D02*
X163830000Y-92710000D01*
X153925000Y-93550000D02*
X154765000Y-92710000D01*
%TO.N,CS-Mem*%
X154150000Y-95250000D02*
X163830000Y-95250000D01*
X153950000Y-95450000D02*
X154150000Y-95250000D01*
%TD*%
%TA.AperFunction,Conductor*%
%TO.N,GNDD*%
G36*
X169792376Y-86623458D02*
G01*
X169838213Y-86676190D01*
X169849500Y-86727878D01*
X169849500Y-100925500D01*
X169829815Y-100992539D01*
X169777011Y-101038294D01*
X169725500Y-101049500D01*
X140524500Y-101049500D01*
X140457461Y-101029815D01*
X140411706Y-100977011D01*
X140400500Y-100925500D01*
X140400500Y-91812135D01*
X144699500Y-91812135D01*
X144699500Y-93607870D01*
X144699501Y-93607876D01*
X144705908Y-93667483D01*
X144756202Y-93802328D01*
X144756206Y-93802335D01*
X144842452Y-93917544D01*
X144842455Y-93917547D01*
X144957664Y-94003793D01*
X144957671Y-94003797D01*
X145089082Y-94052810D01*
X145145016Y-94094681D01*
X145169433Y-94160145D01*
X145154582Y-94228418D01*
X145133431Y-94256673D01*
X145019889Y-94370215D01*
X144894951Y-94542179D01*
X144798444Y-94731585D01*
X144732753Y-94933760D01*
X144711046Y-95070814D01*
X144699500Y-95143713D01*
X144699500Y-95356287D01*
X144732754Y-95566243D01*
X144770852Y-95683497D01*
X144798444Y-95768414D01*
X144894951Y-95957820D01*
X145019890Y-96129786D01*
X145170213Y-96280109D01*
X145342182Y-96405050D01*
X145350946Y-96409516D01*
X145401742Y-96457491D01*
X145418536Y-96525312D01*
X145395998Y-96591447D01*
X145350946Y-96630484D01*
X145342182Y-96634949D01*
X145170213Y-96759890D01*
X145019890Y-96910213D01*
X144894951Y-97082179D01*
X144798444Y-97271585D01*
X144732753Y-97473760D01*
X144699500Y-97683713D01*
X144699500Y-97896286D01*
X144732753Y-98106239D01*
X144798444Y-98308414D01*
X144894951Y-98497820D01*
X145019890Y-98669786D01*
X145170213Y-98820109D01*
X145342179Y-98945048D01*
X145342181Y-98945049D01*
X145342184Y-98945051D01*
X145531588Y-99041557D01*
X145733757Y-99107246D01*
X145943713Y-99140500D01*
X145943714Y-99140500D01*
X146156286Y-99140500D01*
X146156287Y-99140500D01*
X146366243Y-99107246D01*
X146568412Y-99041557D01*
X146757816Y-98945051D01*
X146812572Y-98905269D01*
X146929786Y-98820109D01*
X146929788Y-98820106D01*
X146929792Y-98820104D01*
X147080104Y-98669792D01*
X147080106Y-98669788D01*
X147080109Y-98669786D01*
X147205048Y-98497820D01*
X147205047Y-98497820D01*
X147205051Y-98497816D01*
X147301557Y-98308412D01*
X147367246Y-98106243D01*
X147400500Y-97896287D01*
X147400500Y-97683713D01*
X147367246Y-97473757D01*
X147301557Y-97271588D01*
X147205051Y-97082184D01*
X147205049Y-97082181D01*
X147205048Y-97082179D01*
X147080109Y-96910213D01*
X146929786Y-96759890D01*
X146757820Y-96634951D01*
X146749600Y-96630763D01*
X146749054Y-96630485D01*
X146698259Y-96582512D01*
X146681463Y-96514692D01*
X146703999Y-96448556D01*
X146749054Y-96409515D01*
X146757816Y-96405051D01*
X146779789Y-96389086D01*
X146929786Y-96280109D01*
X146929788Y-96280106D01*
X146929792Y-96280104D01*
X147080104Y-96129792D01*
X147080106Y-96129788D01*
X147080109Y-96129786D01*
X147205048Y-95957820D01*
X147205047Y-95957820D01*
X147205051Y-95957816D01*
X147301557Y-95768412D01*
X147367246Y-95566243D01*
X147400500Y-95356287D01*
X147400500Y-95143713D01*
X147367246Y-94933757D01*
X147301557Y-94731588D01*
X147205051Y-94542184D01*
X147205049Y-94542181D01*
X147205048Y-94542179D01*
X147080109Y-94370213D01*
X146966569Y-94256673D01*
X146933084Y-94195350D01*
X146938068Y-94125658D01*
X146979940Y-94069725D01*
X147010915Y-94052810D01*
X147142331Y-94003796D01*
X147257546Y-93917546D01*
X147343796Y-93802331D01*
X147394091Y-93667483D01*
X147400500Y-93607873D01*
X147400500Y-93471153D01*
X153124500Y-93471153D01*
X153124500Y-93628846D01*
X153155261Y-93783489D01*
X153155264Y-93783501D01*
X153215602Y-93929172D01*
X153215609Y-93929185D01*
X153303210Y-94060288D01*
X153303213Y-94060292D01*
X153414707Y-94171786D01*
X153414711Y-94171789D01*
X153545814Y-94259390D01*
X153545827Y-94259397D01*
X153691498Y-94319735D01*
X153691503Y-94319737D01*
X153846153Y-94350499D01*
X153846156Y-94350500D01*
X153846158Y-94350500D01*
X154003844Y-94350500D01*
X154003845Y-94350499D01*
X154158497Y-94319737D01*
X154304179Y-94259394D01*
X154435289Y-94171789D01*
X154546789Y-94060289D01*
X154634394Y-93929179D01*
X154694737Y-93783497D01*
X154717814Y-93667482D01*
X154725638Y-93628150D01*
X154758023Y-93566239D01*
X154759518Y-93564716D01*
X154977416Y-93346819D01*
X155038739Y-93313334D01*
X155065097Y-93310500D01*
X162355501Y-93310500D01*
X162422540Y-93330185D01*
X162468295Y-93382989D01*
X162479501Y-93434500D01*
X162479501Y-93607876D01*
X162485908Y-93667483D01*
X162536202Y-93802328D01*
X162536206Y-93802335D01*
X162622452Y-93917544D01*
X162622455Y-93917547D01*
X162737664Y-94003793D01*
X162737671Y-94003797D01*
X162869082Y-94052810D01*
X162925016Y-94094681D01*
X162949433Y-94160145D01*
X162934582Y-94228418D01*
X162913431Y-94256673D01*
X162799889Y-94370215D01*
X162674948Y-94542184D01*
X162674947Y-94542185D01*
X162654765Y-94581795D01*
X162606791Y-94632591D01*
X162544281Y-94649500D01*
X154229062Y-94649500D01*
X154229058Y-94649499D01*
X154070943Y-94649499D01*
X154065014Y-94651087D01*
X154050862Y-94651218D01*
X154044692Y-94649467D01*
X154035000Y-94649150D01*
X154034907Y-94650097D01*
X154028845Y-94649500D01*
X154028842Y-94649500D01*
X153871158Y-94649500D01*
X153871155Y-94649500D01*
X153716510Y-94680261D01*
X153716498Y-94680264D01*
X153570827Y-94740602D01*
X153570814Y-94740609D01*
X153439711Y-94828210D01*
X153439707Y-94828213D01*
X153328213Y-94939707D01*
X153328210Y-94939711D01*
X153240609Y-95070814D01*
X153240602Y-95070827D01*
X153180264Y-95216498D01*
X153180261Y-95216510D01*
X153149500Y-95371153D01*
X153149500Y-95528846D01*
X153180261Y-95683489D01*
X153180264Y-95683501D01*
X153240602Y-95829172D01*
X153240609Y-95829185D01*
X153328210Y-95960288D01*
X153328213Y-95960292D01*
X153439707Y-96071786D01*
X153439711Y-96071789D01*
X153570814Y-96159390D01*
X153570827Y-96159397D01*
X153716498Y-96219735D01*
X153716503Y-96219737D01*
X153871153Y-96250499D01*
X153871156Y-96250500D01*
X153871158Y-96250500D01*
X154028844Y-96250500D01*
X154028845Y-96250499D01*
X154183497Y-96219737D01*
X154329179Y-96159394D01*
X154460289Y-96071789D01*
X154571789Y-95960289D01*
X154608325Y-95905610D01*
X154661937Y-95860804D01*
X154711427Y-95850500D01*
X162544281Y-95850500D01*
X162611320Y-95870185D01*
X162654765Y-95918205D01*
X162674947Y-95957814D01*
X162674948Y-95957815D01*
X162799890Y-96129786D01*
X162950213Y-96280109D01*
X163122179Y-96405048D01*
X163122181Y-96405049D01*
X163122184Y-96405051D01*
X163131493Y-96409794D01*
X163182290Y-96457766D01*
X163199087Y-96525587D01*
X163176552Y-96591722D01*
X163131505Y-96630760D01*
X163122446Y-96635376D01*
X163122440Y-96635380D01*
X163068282Y-96674727D01*
X163068282Y-96674728D01*
X163700591Y-97307037D01*
X163637007Y-97324075D01*
X163522993Y-97389901D01*
X163429901Y-97482993D01*
X163364075Y-97597007D01*
X163347037Y-97660591D01*
X162714728Y-97028282D01*
X162714727Y-97028282D01*
X162675380Y-97082439D01*
X162578904Y-97271782D01*
X162513242Y-97473869D01*
X162513242Y-97473872D01*
X162480000Y-97683753D01*
X162480000Y-97896246D01*
X162513242Y-98106127D01*
X162513242Y-98106130D01*
X162578904Y-98308217D01*
X162675375Y-98497550D01*
X162714728Y-98551716D01*
X163347037Y-97919408D01*
X163364075Y-97982993D01*
X163429901Y-98097007D01*
X163522993Y-98190099D01*
X163637007Y-98255925D01*
X163700590Y-98272962D01*
X163068282Y-98905269D01*
X163068282Y-98905270D01*
X163122449Y-98944624D01*
X163311782Y-99041095D01*
X163513870Y-99106757D01*
X163723754Y-99140000D01*
X163936246Y-99140000D01*
X164146127Y-99106757D01*
X164146130Y-99106757D01*
X164348217Y-99041095D01*
X164537554Y-98944622D01*
X164591716Y-98905270D01*
X164591717Y-98905270D01*
X163959408Y-98272962D01*
X164022993Y-98255925D01*
X164137007Y-98190099D01*
X164230099Y-98097007D01*
X164295925Y-97982993D01*
X164312962Y-97919409D01*
X164945270Y-98551717D01*
X164945270Y-98551716D01*
X164984622Y-98497554D01*
X165081095Y-98308217D01*
X165146757Y-98106130D01*
X165146757Y-98106127D01*
X165180000Y-97896246D01*
X165180000Y-97683753D01*
X165146757Y-97473872D01*
X165146757Y-97473869D01*
X165081095Y-97271782D01*
X164984624Y-97082449D01*
X164945270Y-97028282D01*
X164945269Y-97028282D01*
X164312962Y-97660590D01*
X164295925Y-97597007D01*
X164230099Y-97482993D01*
X164137007Y-97389901D01*
X164022993Y-97324075D01*
X163959409Y-97307037D01*
X164591716Y-96674728D01*
X164537547Y-96635373D01*
X164537547Y-96635372D01*
X164528500Y-96630763D01*
X164477706Y-96582788D01*
X164460912Y-96514966D01*
X164483451Y-96448832D01*
X164528508Y-96409793D01*
X164537816Y-96405051D01*
X164617007Y-96347515D01*
X164709786Y-96280109D01*
X164709788Y-96280106D01*
X164709792Y-96280104D01*
X164860104Y-96129792D01*
X164860106Y-96129788D01*
X164860109Y-96129786D01*
X164985048Y-95957820D01*
X164985047Y-95957820D01*
X164985051Y-95957816D01*
X165081557Y-95768412D01*
X165147246Y-95566243D01*
X165180500Y-95356287D01*
X165180500Y-95143713D01*
X165147246Y-94933757D01*
X165081557Y-94731588D01*
X164985051Y-94542184D01*
X164985049Y-94542181D01*
X164985048Y-94542179D01*
X164860109Y-94370213D01*
X164746569Y-94256673D01*
X164713084Y-94195350D01*
X164718068Y-94125658D01*
X164759940Y-94069725D01*
X164790915Y-94052810D01*
X164922331Y-94003796D01*
X165037546Y-93917546D01*
X165123796Y-93802331D01*
X165174091Y-93667483D01*
X165180500Y-93607873D01*
X165180499Y-91812128D01*
X165174091Y-91752517D01*
X165123796Y-91617669D01*
X165123795Y-91617668D01*
X165123793Y-91617664D01*
X165037547Y-91502455D01*
X165037544Y-91502452D01*
X164922335Y-91416206D01*
X164922328Y-91416202D01*
X164787482Y-91365908D01*
X164787483Y-91365908D01*
X164727883Y-91359501D01*
X164727881Y-91359500D01*
X164727873Y-91359500D01*
X164727864Y-91359500D01*
X162932129Y-91359500D01*
X162932123Y-91359501D01*
X162872516Y-91365908D01*
X162737671Y-91416202D01*
X162737664Y-91416206D01*
X162622455Y-91502452D01*
X162622452Y-91502455D01*
X162536206Y-91617664D01*
X162536202Y-91617671D01*
X162485908Y-91752517D01*
X162479501Y-91812116D01*
X162479501Y-91812123D01*
X162479500Y-91812135D01*
X162479500Y-91985500D01*
X162459815Y-92052539D01*
X162407011Y-92098294D01*
X162355500Y-92109500D01*
X154685940Y-92109500D01*
X154645019Y-92120464D01*
X154645019Y-92120465D01*
X154607751Y-92130451D01*
X154533214Y-92150423D01*
X154533209Y-92150426D01*
X154396290Y-92229475D01*
X154396282Y-92229481D01*
X153910339Y-92715425D01*
X153849016Y-92748910D01*
X153846850Y-92749361D01*
X153691508Y-92780261D01*
X153691498Y-92780264D01*
X153545827Y-92840602D01*
X153545814Y-92840609D01*
X153414711Y-92928210D01*
X153414707Y-92928213D01*
X153303213Y-93039707D01*
X153303210Y-93039711D01*
X153215609Y-93170814D01*
X153215602Y-93170827D01*
X153155264Y-93316498D01*
X153155261Y-93316510D01*
X153124500Y-93471153D01*
X147400500Y-93471153D01*
X147400499Y-91812128D01*
X147394091Y-91752517D01*
X147343796Y-91617669D01*
X147343795Y-91617668D01*
X147343793Y-91617664D01*
X147257547Y-91502455D01*
X147257544Y-91502452D01*
X147142335Y-91416206D01*
X147142328Y-91416202D01*
X147007482Y-91365908D01*
X147007483Y-91365908D01*
X146947883Y-91359501D01*
X146947881Y-91359500D01*
X146947873Y-91359500D01*
X146947864Y-91359500D01*
X145152129Y-91359500D01*
X145152123Y-91359501D01*
X145092516Y-91365908D01*
X144957671Y-91416202D01*
X144957664Y-91416206D01*
X144842455Y-91502452D01*
X144842452Y-91502455D01*
X144756206Y-91617664D01*
X144756202Y-91617671D01*
X144705908Y-91752517D01*
X144699501Y-91812116D01*
X144699501Y-91812123D01*
X144699500Y-91812135D01*
X140400500Y-91812135D01*
X140400500Y-86773677D01*
X140420185Y-86706638D01*
X140472989Y-86660883D01*
X140524302Y-86649677D01*
X169725308Y-86603878D01*
X169792376Y-86623458D01*
G37*
%TD.AperFunction*%
%TD*%
M02*
