%TF.GenerationSoftware,KiCad,Pcbnew,9.0.4*%
%TF.CreationDate,2026-04-14T01:57:32-04:00*%
%TF.ProjectId,main_board_v4,6d61696e-5f62-46f6-9172-645f76342e6b,rev?*%
%TF.SameCoordinates,Original*%
%TF.FileFunction,Soldermask,Top*%
%TF.FilePolarity,Negative*%
%FSLAX46Y46*%
G04 Gerber Fmt 4.6, Leading zero omitted, Abs format (unit mm)*
G04 Created by KiCad (PCBNEW 9.0.4) date 2026-04-14 01:57:32*
%MOMM*%
%LPD*%
G01*
G04 APERTURE LIST*
G04 Aperture macros list*
%AMRoundRect*
0 Rectangle with rounded corners*
0 $1 Rounding radius*
0 $2 $3 $4 $5 $6 $7 $8 $9 X,Y pos of 4 corners*
0 Add a 4 corners polygon primitive as box body*
4,1,4,$2,$3,$4,$5,$6,$7,$8,$9,$2,$3,0*
0 Add four circle primitives for the rounded corners*
1,1,$1+$1,$2,$3*
1,1,$1+$1,$4,$5*
1,1,$1+$1,$6,$7*
1,1,$1+$1,$8,$9*
0 Add four rect primitives between the rounded corners*
20,1,$1+$1,$2,$3,$4,$5,0*
20,1,$1+$1,$4,$5,$6,$7,0*
20,1,$1+$1,$6,$7,$8,$9,0*
20,1,$1+$1,$8,$9,$2,$3,0*%
G04 Aperture macros list end*
%ADD10C,1.300000*%
%ADD11R,1.000000X1.000000*%
%ADD12C,3.500000*%
%ADD13R,1.425000X0.300000*%
%ADD14R,1.680000X1.880000*%
%ADD15RoundRect,0.140000X-0.170000X0.140000X-0.170000X-0.140000X0.170000X-0.140000X0.170000X0.140000X0*%
%ADD16R,1.910000X0.640000*%
%ADD17R,1.150000X0.600000*%
%ADD18RoundRect,0.140000X0.140000X0.170000X-0.140000X0.170000X-0.140000X-0.170000X0.140000X-0.170000X0*%
%ADD19RoundRect,0.135000X0.185000X-0.135000X0.185000X0.135000X-0.185000X0.135000X-0.185000X-0.135000X0*%
%ADD20RoundRect,0.140000X0.170000X-0.140000X0.170000X0.140000X-0.170000X0.140000X-0.170000X-0.140000X0*%
%ADD21RoundRect,0.250000X-0.312500X-0.625000X0.312500X-0.625000X0.312500X0.625000X-0.312500X0.625000X0*%
%ADD22RoundRect,0.135000X-0.185000X0.135000X-0.185000X-0.135000X0.185000X-0.135000X0.185000X0.135000X0*%
%ADD23R,1.400000X0.450000*%
%ADD24RoundRect,0.135000X-0.135000X-0.185000X0.135000X-0.185000X0.135000X0.185000X-0.135000X0.185000X0*%
%ADD25RoundRect,0.225000X-0.225000X-0.250000X0.225000X-0.250000X0.225000X0.250000X-0.225000X0.250000X0*%
%ADD26R,2.500000X5.100000*%
%ADD27C,10.200000*%
%ADD28RoundRect,0.135000X0.135000X0.185000X-0.135000X0.185000X-0.135000X-0.185000X0.135000X-0.185000X0*%
%ADD29R,0.850000X0.300000*%
%ADD30R,0.300000X0.850000*%
%ADD31R,4.050000X4.050000*%
%ADD32R,0.610000X2.000000*%
%ADD33R,2.680000X3.600000*%
%ADD34R,3.700000X1.200000*%
%ADD35RoundRect,0.525400X0.525400X-0.900400X0.525400X0.900400X-0.525400X0.900400X-0.525400X-0.900400X0*%
%ADD36RoundRect,0.300400X-0.300400X1.000400X-0.300400X-1.000400X0.300400X-1.000400X0.300400X1.000400X0*%
%ADD37C,1.700000*%
%ADD38RoundRect,0.225000X0.250000X-0.225000X0.250000X0.225000X-0.250000X0.225000X-0.250000X-0.225000X0*%
%ADD39R,0.300000X0.650000*%
%ADD40R,0.300000X1.200000*%
%ADD41R,0.400000X1.550000*%
%ADD42R,0.450000X1.475000*%
%ADD43R,1.600000X1.600000*%
%ADD44C,1.600000*%
%ADD45R,1.300000X1.300000*%
G04 APERTURE END LIST*
D10*
%TO.C,H8*%
X55000000Y-20000000D03*
%TD*%
%TO.C,H7*%
X55000000Y-82000000D03*
%TD*%
%TO.C,H6*%
X132000000Y-20000000D03*
%TD*%
%TO.C,H5*%
X132000000Y-82000000D03*
%TD*%
D11*
%TO.C,TP7*%
X57000000Y-50000000D03*
%TD*%
D12*
%TO.C,H4*%
X132000000Y-85000000D03*
%TD*%
D13*
%TO.C,IC11*%
X56153000Y-21891000D03*
X56153000Y-22391000D03*
X56153000Y-22891000D03*
X56153000Y-23391000D03*
X56153000Y-23891000D03*
X60577000Y-23891000D03*
X60577000Y-23391000D03*
X60577000Y-22891000D03*
X60577000Y-22391000D03*
X60577000Y-21891000D03*
D14*
X58365000Y-22891000D03*
%TD*%
D15*
%TO.C,C13*%
X131750000Y-72750000D03*
X131750000Y-73710000D03*
%TD*%
D11*
%TO.C,TP12*%
X63250000Y-29800000D03*
%TD*%
D15*
%TO.C,C38*%
X63085000Y-22280000D03*
X63085000Y-23240000D03*
%TD*%
%TO.C,C40*%
X87600000Y-59920000D03*
X87600000Y-60880000D03*
%TD*%
%TO.C,C21*%
X128600000Y-47920000D03*
X128600000Y-48880000D03*
%TD*%
D16*
%TO.C,T1*%
X107500000Y-26960000D03*
X107500000Y-25690000D03*
X107500000Y-24420000D03*
X107500000Y-23150000D03*
X107500000Y-21880000D03*
X107500000Y-20610000D03*
X107500000Y-19340000D03*
X107500000Y-18070000D03*
X98730000Y-18070000D03*
X98730000Y-19340000D03*
X98730000Y-20610000D03*
X98730000Y-21880000D03*
X98730000Y-23150000D03*
X98730000Y-24420000D03*
X98730000Y-25690000D03*
X98730000Y-26960000D03*
%TD*%
D17*
%TO.C,IC8*%
X130624000Y-47700000D03*
X130624000Y-48650000D03*
X130624000Y-49600000D03*
X133124000Y-49600000D03*
X133124000Y-48650000D03*
X133124000Y-47700000D03*
%TD*%
D18*
%TO.C,C20*%
X122500000Y-68750000D03*
X121540000Y-68750000D03*
%TD*%
D19*
%TO.C,R38*%
X127250000Y-84010000D03*
X127250000Y-82990000D03*
%TD*%
D11*
%TO.C,TP11*%
X59000000Y-19050000D03*
%TD*%
D20*
%TO.C,C16*%
X129600000Y-70400000D03*
X129600000Y-69440000D03*
%TD*%
D21*
%TO.C,R50*%
X115632500Y-57686600D03*
X118557500Y-57686600D03*
%TD*%
D15*
%TO.C,C39*%
X54525000Y-22990000D03*
X54525000Y-23950000D03*
%TD*%
D22*
%TO.C,R24*%
X125300000Y-50590000D03*
X125300000Y-51610000D03*
%TD*%
D15*
%TO.C,C26*%
X87600000Y-65940000D03*
X87600000Y-66900000D03*
%TD*%
D23*
%TO.C,IC5*%
X127850000Y-62700000D03*
X127850000Y-63350000D03*
X127850000Y-64000000D03*
X127850000Y-64650000D03*
X132250000Y-64650000D03*
X132250000Y-64000000D03*
X132250000Y-63350000D03*
X132250000Y-62700000D03*
%TD*%
D11*
%TO.C,TP2*%
X67500000Y-51000000D03*
%TD*%
D12*
%TO.C,H3*%
X132000000Y-17000000D03*
%TD*%
D15*
%TO.C,C18*%
X130000000Y-72670000D03*
X130000000Y-73630000D03*
%TD*%
D11*
%TO.C,TP1*%
X78600000Y-57400000D03*
%TD*%
D20*
%TO.C,C27*%
X135174000Y-48680000D03*
X135174000Y-47720000D03*
%TD*%
%TO.C,C23*%
X134275000Y-57980000D03*
X134275000Y-57020000D03*
%TD*%
D24*
%TO.C,R1*%
X122990000Y-65750000D03*
X124010000Y-65750000D03*
%TD*%
D12*
%TO.C,H1*%
X55000000Y-17000000D03*
%TD*%
D24*
%TO.C,R9*%
X60940000Y-19800000D03*
X61960000Y-19800000D03*
%TD*%
D20*
%TO.C,C14*%
X119800000Y-71780000D03*
X119800000Y-70820000D03*
%TD*%
D22*
%TO.C,R22*%
X133750000Y-69740000D03*
X133750000Y-70760000D03*
%TD*%
D25*
%TO.C,C61*%
X61925000Y-26000000D03*
X63475000Y-26000000D03*
%TD*%
D24*
%TO.C,R25*%
X129490000Y-56000000D03*
X130510000Y-56000000D03*
%TD*%
D26*
%TO.C,BT1*%
X110100000Y-64600000D03*
X94900000Y-64600000D03*
D27*
X102500000Y-64600000D03*
%TD*%
D19*
%TO.C,R21*%
X122425000Y-51635000D03*
X122425000Y-50615000D03*
%TD*%
D28*
%TO.C,R12*%
X130750000Y-66750000D03*
X129730000Y-66750000D03*
%TD*%
D20*
%TO.C,C19*%
X117800000Y-71780000D03*
X117800000Y-70820000D03*
%TD*%
D18*
%TO.C,C17*%
X128380000Y-78250000D03*
X127420000Y-78250000D03*
%TD*%
D29*
%TO.C,IC6*%
X127750000Y-75850000D03*
X127750000Y-75350000D03*
X127750000Y-74850000D03*
X127750000Y-74350000D03*
X127750000Y-73850000D03*
X127750000Y-73350000D03*
X127750000Y-72850000D03*
X127750000Y-72350000D03*
X127750000Y-71850000D03*
X127750000Y-71350000D03*
D30*
X127050000Y-70650000D03*
X126550000Y-70650000D03*
X126050000Y-70650000D03*
X125550000Y-70650000D03*
X125050000Y-70650000D03*
X124550000Y-70650000D03*
X124050000Y-70650000D03*
X123550000Y-70650000D03*
X123050000Y-70650000D03*
X122550000Y-70650000D03*
D29*
X121850000Y-71350000D03*
X121850000Y-71850000D03*
X121850000Y-72350000D03*
X121850000Y-72850000D03*
X121850000Y-73350000D03*
X121850000Y-73850000D03*
X121850000Y-74350000D03*
X121850000Y-74850000D03*
X121850000Y-75350000D03*
X121850000Y-75850000D03*
D30*
X122550000Y-76550000D03*
X123050000Y-76550000D03*
X123550000Y-76550000D03*
X124050000Y-76550000D03*
X124550000Y-76550000D03*
X125050000Y-76550000D03*
X125550000Y-76550000D03*
X126050000Y-76550000D03*
X126550000Y-76550000D03*
X127050000Y-76550000D03*
D31*
X124800000Y-73600000D03*
%TD*%
D20*
%TO.C,C22*%
X134000000Y-62480000D03*
X134000000Y-61520000D03*
%TD*%
D32*
%TO.C,J3*%
X63090000Y-77400000D03*
X64090000Y-77400000D03*
X65090000Y-77400000D03*
X66090000Y-77400000D03*
X67090000Y-77400000D03*
X68090000Y-77400000D03*
X69090000Y-77400000D03*
X70090000Y-77400000D03*
X71090000Y-77400000D03*
X72090000Y-77400000D03*
X73090000Y-77400000D03*
X74090000Y-77400000D03*
X75090000Y-77400000D03*
X76090000Y-77400000D03*
X77090000Y-77400000D03*
X78090000Y-77400000D03*
X79090000Y-77400000D03*
X80090000Y-77400000D03*
X81090000Y-77400000D03*
X82090000Y-77400000D03*
D33*
X60100000Y-80200000D03*
X85080000Y-80200000D03*
%TD*%
D28*
%TO.C,R33*%
X132424000Y-51750000D03*
X131404000Y-51750000D03*
%TD*%
D32*
%TO.C,J2*%
X92790000Y-77400000D03*
X93790000Y-77400000D03*
X94790000Y-77400000D03*
X95790000Y-77400000D03*
X96790000Y-77400000D03*
X97790000Y-77400000D03*
X98790000Y-77400000D03*
X99790000Y-77400000D03*
X100790000Y-77400000D03*
X101790000Y-77400000D03*
X102790000Y-77400000D03*
X103790000Y-77400000D03*
X104790000Y-77400000D03*
X105790000Y-77400000D03*
X106790000Y-77400000D03*
X107790000Y-77400000D03*
X108790000Y-77400000D03*
X109790000Y-77400000D03*
X110790000Y-77400000D03*
X111790000Y-77400000D03*
X112790000Y-77400000D03*
X113790000Y-77400000D03*
X114790000Y-77400000D03*
X115790000Y-77400000D03*
D33*
X89800000Y-80200000D03*
X118780000Y-80200000D03*
%TD*%
D34*
%TO.C,L1*%
X57500000Y-27000000D03*
X57500000Y-29800000D03*
%TD*%
D11*
%TO.C,TP3*%
X78500000Y-54900000D03*
%TD*%
%TO.C,TP10*%
X89000000Y-30250000D03*
%TD*%
D23*
%TO.C,IC7*%
X127875000Y-58025000D03*
X127875000Y-58675000D03*
X127875000Y-59325000D03*
X127875000Y-59975000D03*
X132275000Y-59975000D03*
X132275000Y-59325000D03*
X132275000Y-58675000D03*
X132275000Y-58025000D03*
%TD*%
D35*
%TO.C,U5*%
X58260000Y-69700000D03*
X60800000Y-69700000D03*
X63340000Y-69700000D03*
X65880000Y-69700000D03*
X68420000Y-69700000D03*
X70960000Y-69700000D03*
X73500000Y-69700000D03*
X73500000Y-53535000D03*
X70960000Y-53535000D03*
X68420000Y-53535000D03*
X65880000Y-53535000D03*
X63340000Y-53535000D03*
X60800000Y-53535000D03*
X58260000Y-53535000D03*
D36*
X65498000Y-66090000D03*
X63593000Y-66090000D03*
D37*
X57248000Y-62915000D03*
X57248000Y-60375000D03*
X59788000Y-62915000D03*
X59788000Y-60375000D03*
X62328000Y-62915000D03*
X62328000Y-60375000D03*
X64868000Y-62915000D03*
X64868000Y-60375000D03*
%TD*%
D12*
%TO.C,H2*%
X55000000Y-85000000D03*
%TD*%
D38*
%TO.C,C15*%
X131450000Y-70645000D03*
X131450000Y-69095000D03*
%TD*%
D39*
%TO.C,J4*%
X83500000Y-29375000D03*
X83000000Y-29375000D03*
X82500000Y-29375000D03*
X82000000Y-29375000D03*
X81500000Y-29375000D03*
X81000000Y-29375000D03*
X80500000Y-29375000D03*
X80000000Y-29375000D03*
X79500000Y-29375000D03*
X79000000Y-29375000D03*
X78500000Y-29375000D03*
X78000000Y-29375000D03*
X77500000Y-29375000D03*
X77000000Y-29375000D03*
X76500000Y-29375000D03*
D40*
X82500000Y-23700000D03*
X80000000Y-23700000D03*
X77500000Y-23700000D03*
D41*
X84750000Y-24125000D03*
X75250000Y-24125000D03*
%TD*%
D42*
%TO.C,IC9*%
X86025000Y-60462000D03*
X85375000Y-60462000D03*
X84725000Y-60462000D03*
X84075000Y-60462000D03*
X83425000Y-60462000D03*
X82775000Y-60462000D03*
X82125000Y-60462000D03*
X81475000Y-60462000D03*
X80825000Y-60462000D03*
X80175000Y-60462000D03*
X80175000Y-66338000D03*
X80825000Y-66338000D03*
X81475000Y-66338000D03*
X82125000Y-66338000D03*
X82775000Y-66338000D03*
X83425000Y-66338000D03*
X84075000Y-66338000D03*
X84725000Y-66338000D03*
X85375000Y-66338000D03*
X86025000Y-66338000D03*
%TD*%
D43*
%TO.C,U1*%
X119720000Y-32860000D03*
D44*
X91780000Y-32860000D03*
X89240000Y-32860000D03*
X86700000Y-32860000D03*
X84160000Y-32860000D03*
X81620000Y-32860000D03*
X79080000Y-32860000D03*
X76540000Y-32860000D03*
X74000000Y-32860000D03*
X71460000Y-32860000D03*
X68920000Y-32860000D03*
X66380000Y-32860000D03*
X63840000Y-32860000D03*
X61300000Y-32860000D03*
X61300000Y-48100000D03*
X63840000Y-48100000D03*
X66380000Y-48100000D03*
X68920000Y-48100000D03*
X71460000Y-48100000D03*
X76540000Y-48100000D03*
X79080000Y-48100000D03*
X81620000Y-48100000D03*
X84160000Y-48100000D03*
X86700000Y-48100000D03*
X89240000Y-48100000D03*
X91780000Y-48100000D03*
X94320000Y-48100000D03*
X96860000Y-48100000D03*
X99400000Y-48100000D03*
X101940000Y-48100000D03*
X104480000Y-48100000D03*
X107020000Y-48100000D03*
X109560000Y-48100000D03*
X112100000Y-48100000D03*
X114640000Y-48100000D03*
X117180000Y-48100000D03*
X119720000Y-48100000D03*
X117180000Y-45560000D03*
X74000000Y-35400000D03*
X74000000Y-37940000D03*
X74000000Y-40480000D03*
D45*
X106750000Y-45661600D03*
D10*
X106750000Y-43661600D03*
X106750000Y-41661600D03*
X104750000Y-41661600D03*
X104750000Y-43661600D03*
X104750000Y-45661600D03*
X131510000Y-41750000D03*
X131510000Y-39210000D03*
%TD*%
M02*
