G04 #@! TF.GenerationSoftware,KiCad,Pcbnew,9.0.4*
G04 #@! TF.CreationDate,2025-12-12T15:32:37-05:00*
G04 #@! TF.ProjectId,AD5689RARUZ-RL7_breakboard,41443536-3839-4524-9152-555a2d524c37,rev?*
G04 #@! TF.SameCoordinates,Original*
G04 #@! TF.FileFunction,Legend,Bot*
G04 #@! TF.FilePolarity,Positive*
%FSLAX46Y46*%
G04 Gerber Fmt 4.6, Leading zero omitted, Abs format (unit mm)*
G04 Created by KiCad (PCBNEW 9.0.4) date 2025-12-12 15:32:37*
%MOMM*%
%LPD*%
G01*
G04 APERTURE LIST*
%ADD10C,0.125000*%
%ADD11C,0.000000*%
G04 APERTURE END LIST*
D10*
X150223456Y-78740819D02*
X150137742Y-78769391D01*
X150137742Y-78769391D02*
X150109171Y-78797962D01*
X150109171Y-78797962D02*
X150080599Y-78855105D01*
X150080599Y-78855105D02*
X150080599Y-78940819D01*
X150080599Y-78940819D02*
X150109171Y-78997962D01*
X150109171Y-78997962D02*
X150137742Y-79026534D01*
X150137742Y-79026534D02*
X150194885Y-79055105D01*
X150194885Y-79055105D02*
X150423456Y-79055105D01*
X150423456Y-79055105D02*
X150423456Y-78455105D01*
X150423456Y-78455105D02*
X150223456Y-78455105D01*
X150223456Y-78455105D02*
X150166314Y-78483676D01*
X150166314Y-78483676D02*
X150137742Y-78512248D01*
X150137742Y-78512248D02*
X150109171Y-78569391D01*
X150109171Y-78569391D02*
X150109171Y-78626534D01*
X150109171Y-78626534D02*
X150137742Y-78683676D01*
X150137742Y-78683676D02*
X150166314Y-78712248D01*
X150166314Y-78712248D02*
X150223456Y-78740819D01*
X150223456Y-78740819D02*
X150423456Y-78740819D01*
X149737742Y-79055105D02*
X149794885Y-79026534D01*
X149794885Y-79026534D02*
X149823456Y-78969391D01*
X149823456Y-78969391D02*
X149823456Y-78455105D01*
X149252028Y-78655105D02*
X149252028Y-79055105D01*
X149509170Y-78655105D02*
X149509170Y-78969391D01*
X149509170Y-78969391D02*
X149480599Y-79026534D01*
X149480599Y-79026534D02*
X149423456Y-79055105D01*
X149423456Y-79055105D02*
X149337742Y-79055105D01*
X149337742Y-79055105D02*
X149280599Y-79026534D01*
X149280599Y-79026534D02*
X149252028Y-78997962D01*
X148737742Y-79026534D02*
X148794885Y-79055105D01*
X148794885Y-79055105D02*
X148909171Y-79055105D01*
X148909171Y-79055105D02*
X148966313Y-79026534D01*
X148966313Y-79026534D02*
X148994885Y-78969391D01*
X148994885Y-78969391D02*
X148994885Y-78740819D01*
X148994885Y-78740819D02*
X148966313Y-78683676D01*
X148966313Y-78683676D02*
X148909171Y-78655105D01*
X148909171Y-78655105D02*
X148794885Y-78655105D01*
X148794885Y-78655105D02*
X148737742Y-78683676D01*
X148737742Y-78683676D02*
X148709171Y-78740819D01*
X148709171Y-78740819D02*
X148709171Y-78797962D01*
X148709171Y-78797962D02*
X148994885Y-78855105D01*
X147823456Y-78455105D02*
X147823456Y-78883676D01*
X147823456Y-78883676D02*
X147852027Y-78969391D01*
X147852027Y-78969391D02*
X147909170Y-79026534D01*
X147909170Y-79026534D02*
X147994884Y-79055105D01*
X147994884Y-79055105D02*
X148052027Y-79055105D01*
X147280599Y-79055105D02*
X147280599Y-78740819D01*
X147280599Y-78740819D02*
X147309170Y-78683676D01*
X147309170Y-78683676D02*
X147366313Y-78655105D01*
X147366313Y-78655105D02*
X147480599Y-78655105D01*
X147480599Y-78655105D02*
X147537741Y-78683676D01*
X147280599Y-79026534D02*
X147337741Y-79055105D01*
X147337741Y-79055105D02*
X147480599Y-79055105D01*
X147480599Y-79055105D02*
X147537741Y-79026534D01*
X147537741Y-79026534D02*
X147566313Y-78969391D01*
X147566313Y-78969391D02*
X147566313Y-78912248D01*
X147566313Y-78912248D02*
X147537741Y-78855105D01*
X147537741Y-78855105D02*
X147480599Y-78826534D01*
X147480599Y-78826534D02*
X147337741Y-78826534D01*
X147337741Y-78826534D02*
X147280599Y-78797962D01*
X147052027Y-78655105D02*
X146909170Y-79055105D01*
X146766313Y-78655105D02*
X146909170Y-79055105D01*
X146909170Y-79055105D02*
X146966313Y-79197962D01*
X146966313Y-79197962D02*
X146994884Y-79226534D01*
X146994884Y-79226534D02*
X147052027Y-79255105D01*
X145737741Y-79055105D02*
X145937741Y-78769391D01*
X146080598Y-79055105D02*
X146080598Y-78455105D01*
X146080598Y-78455105D02*
X145852027Y-78455105D01*
X145852027Y-78455105D02*
X145794884Y-78483676D01*
X145794884Y-78483676D02*
X145766313Y-78512248D01*
X145766313Y-78512248D02*
X145737741Y-78569391D01*
X145737741Y-78569391D02*
X145737741Y-78655105D01*
X145737741Y-78655105D02*
X145766313Y-78712248D01*
X145766313Y-78712248D02*
X145794884Y-78740819D01*
X145794884Y-78740819D02*
X145852027Y-78769391D01*
X145852027Y-78769391D02*
X146080598Y-78769391D01*
X145223456Y-79055105D02*
X145223456Y-78740819D01*
X145223456Y-78740819D02*
X145252027Y-78683676D01*
X145252027Y-78683676D02*
X145309170Y-78655105D01*
X145309170Y-78655105D02*
X145423456Y-78655105D01*
X145423456Y-78655105D02*
X145480598Y-78683676D01*
X145223456Y-79026534D02*
X145280598Y-79055105D01*
X145280598Y-79055105D02*
X145423456Y-79055105D01*
X145423456Y-79055105D02*
X145480598Y-79026534D01*
X145480598Y-79026534D02*
X145509170Y-78969391D01*
X145509170Y-78969391D02*
X145509170Y-78912248D01*
X145509170Y-78912248D02*
X145480598Y-78855105D01*
X145480598Y-78855105D02*
X145423456Y-78826534D01*
X145423456Y-78826534D02*
X145280598Y-78826534D01*
X145280598Y-78826534D02*
X145223456Y-78797962D01*
X144680599Y-79026534D02*
X144737741Y-79055105D01*
X144737741Y-79055105D02*
X144852027Y-79055105D01*
X144852027Y-79055105D02*
X144909170Y-79026534D01*
X144909170Y-79026534D02*
X144937741Y-78997962D01*
X144937741Y-78997962D02*
X144966313Y-78940819D01*
X144966313Y-78940819D02*
X144966313Y-78769391D01*
X144966313Y-78769391D02*
X144937741Y-78712248D01*
X144937741Y-78712248D02*
X144909170Y-78683676D01*
X144909170Y-78683676D02*
X144852027Y-78655105D01*
X144852027Y-78655105D02*
X144737741Y-78655105D01*
X144737741Y-78655105D02*
X144680599Y-78683676D01*
X144423455Y-79055105D02*
X144423455Y-78655105D01*
X144423455Y-78455105D02*
X144452027Y-78483676D01*
X144452027Y-78483676D02*
X144423455Y-78512248D01*
X144423455Y-78512248D02*
X144394884Y-78483676D01*
X144394884Y-78483676D02*
X144423455Y-78455105D01*
X144423455Y-78455105D02*
X144423455Y-78512248D01*
X144137741Y-78655105D02*
X144137741Y-79055105D01*
X144137741Y-78712248D02*
X144109170Y-78683676D01*
X144109170Y-78683676D02*
X144052027Y-78655105D01*
X144052027Y-78655105D02*
X143966313Y-78655105D01*
X143966313Y-78655105D02*
X143909170Y-78683676D01*
X143909170Y-78683676D02*
X143880599Y-78740819D01*
X143880599Y-78740819D02*
X143880599Y-79055105D01*
X143337742Y-78655105D02*
X143337742Y-79140819D01*
X143337742Y-79140819D02*
X143366313Y-79197962D01*
X143366313Y-79197962D02*
X143394884Y-79226534D01*
X143394884Y-79226534D02*
X143452027Y-79255105D01*
X143452027Y-79255105D02*
X143537742Y-79255105D01*
X143537742Y-79255105D02*
X143594884Y-79226534D01*
X143337742Y-79026534D02*
X143394884Y-79055105D01*
X143394884Y-79055105D02*
X143509170Y-79055105D01*
X143509170Y-79055105D02*
X143566313Y-79026534D01*
X143566313Y-79026534D02*
X143594884Y-78997962D01*
X143594884Y-78997962D02*
X143623456Y-78940819D01*
X143623456Y-78940819D02*
X143623456Y-78769391D01*
X143623456Y-78769391D02*
X143594884Y-78712248D01*
X143594884Y-78712248D02*
X143566313Y-78683676D01*
X143566313Y-78683676D02*
X143509170Y-78655105D01*
X143509170Y-78655105D02*
X143394884Y-78655105D01*
X143394884Y-78655105D02*
X143337742Y-78683676D01*
X142223456Y-78769391D02*
X142252027Y-78740819D01*
X142252027Y-78740819D02*
X142309170Y-78712248D01*
X142309170Y-78712248D02*
X142366313Y-78712248D01*
X142366313Y-78712248D02*
X142423456Y-78740819D01*
X142423456Y-78740819D02*
X142452027Y-78769391D01*
X142452027Y-78769391D02*
X142480599Y-78826534D01*
X142480599Y-78826534D02*
X142480599Y-78883676D01*
X142480599Y-78883676D02*
X142452027Y-78940819D01*
X142452027Y-78940819D02*
X142423456Y-78969391D01*
X142423456Y-78969391D02*
X142366313Y-78997962D01*
X142366313Y-78997962D02*
X142309170Y-78997962D01*
X142309170Y-78997962D02*
X142252027Y-78969391D01*
X142252027Y-78969391D02*
X142223456Y-78940819D01*
X142223456Y-78712248D02*
X142223456Y-78940819D01*
X142223456Y-78940819D02*
X142194884Y-78969391D01*
X142194884Y-78969391D02*
X142166313Y-78969391D01*
X142166313Y-78969391D02*
X142109170Y-78940819D01*
X142109170Y-78940819D02*
X142080599Y-78883676D01*
X142080599Y-78883676D02*
X142080599Y-78740819D01*
X142080599Y-78740819D02*
X142137742Y-78655105D01*
X142137742Y-78655105D02*
X142223456Y-78597962D01*
X142223456Y-78597962D02*
X142337742Y-78569391D01*
X142337742Y-78569391D02*
X142452027Y-78597962D01*
X142452027Y-78597962D02*
X142537742Y-78655105D01*
X142537742Y-78655105D02*
X142594884Y-78740819D01*
X142594884Y-78740819D02*
X142623456Y-78855105D01*
X142623456Y-78855105D02*
X142594884Y-78969391D01*
X142594884Y-78969391D02*
X142537742Y-79055105D01*
X142537742Y-79055105D02*
X142452027Y-79112248D01*
X142452027Y-79112248D02*
X142337742Y-79140819D01*
X142337742Y-79140819D02*
X142223456Y-79112248D01*
X142223456Y-79112248D02*
X142137742Y-79055105D01*
X141194884Y-78455105D02*
X141194884Y-78883676D01*
X141194884Y-78883676D02*
X141223455Y-78969391D01*
X141223455Y-78969391D02*
X141280598Y-79026534D01*
X141280598Y-79026534D02*
X141366312Y-79055105D01*
X141366312Y-79055105D02*
X141423455Y-79055105D01*
X140909169Y-79055105D02*
X140909169Y-78455105D01*
X140909169Y-78740819D02*
X140566312Y-78740819D01*
X140566312Y-79055105D02*
X140566312Y-78455105D01*
X140280598Y-78455105D02*
X140280598Y-78940819D01*
X140280598Y-78940819D02*
X140252027Y-78997962D01*
X140252027Y-78997962D02*
X140223456Y-79026534D01*
X140223456Y-79026534D02*
X140166313Y-79055105D01*
X140166313Y-79055105D02*
X140052027Y-79055105D01*
X140052027Y-79055105D02*
X139994884Y-79026534D01*
X139994884Y-79026534D02*
X139966313Y-78997962D01*
X139966313Y-78997962D02*
X139937741Y-78940819D01*
X139937741Y-78940819D02*
X139937741Y-78455105D01*
X150694886Y-79478214D02*
X150666314Y-79449642D01*
X150666314Y-79449642D02*
X150609172Y-79421071D01*
X150609172Y-79421071D02*
X150466314Y-79421071D01*
X150466314Y-79421071D02*
X150409172Y-79449642D01*
X150409172Y-79449642D02*
X150380600Y-79478214D01*
X150380600Y-79478214D02*
X150352029Y-79535357D01*
X150352029Y-79535357D02*
X150352029Y-79592500D01*
X150352029Y-79592500D02*
X150380600Y-79678214D01*
X150380600Y-79678214D02*
X150723457Y-80021071D01*
X150723457Y-80021071D02*
X150352029Y-80021071D01*
X150123457Y-79478214D02*
X150094885Y-79449642D01*
X150094885Y-79449642D02*
X150037743Y-79421071D01*
X150037743Y-79421071D02*
X149894885Y-79421071D01*
X149894885Y-79421071D02*
X149837743Y-79449642D01*
X149837743Y-79449642D02*
X149809171Y-79478214D01*
X149809171Y-79478214D02*
X149780600Y-79535357D01*
X149780600Y-79535357D02*
X149780600Y-79592500D01*
X149780600Y-79592500D02*
X149809171Y-79678214D01*
X149809171Y-79678214D02*
X150152028Y-80021071D01*
X150152028Y-80021071D02*
X149780600Y-80021071D01*
X149580599Y-79421071D02*
X149180599Y-80021071D01*
X149180599Y-79421071D02*
X149580599Y-80021071D01*
X149037742Y-79421071D02*
X148694885Y-79421071D01*
X148866313Y-80021071D02*
X148866313Y-79421071D01*
X148037741Y-80021071D02*
X148037741Y-79421071D01*
X148037741Y-79421071D02*
X147837741Y-79849642D01*
X147837741Y-79849642D02*
X147637741Y-79421071D01*
X147637741Y-79421071D02*
X147637741Y-80021071D01*
X147094885Y-80021071D02*
X147094885Y-79706785D01*
X147094885Y-79706785D02*
X147123456Y-79649642D01*
X147123456Y-79649642D02*
X147180599Y-79621071D01*
X147180599Y-79621071D02*
X147294885Y-79621071D01*
X147294885Y-79621071D02*
X147352027Y-79649642D01*
X147094885Y-79992500D02*
X147152027Y-80021071D01*
X147152027Y-80021071D02*
X147294885Y-80021071D01*
X147294885Y-80021071D02*
X147352027Y-79992500D01*
X147352027Y-79992500D02*
X147380599Y-79935357D01*
X147380599Y-79935357D02*
X147380599Y-79878214D01*
X147380599Y-79878214D02*
X147352027Y-79821071D01*
X147352027Y-79821071D02*
X147294885Y-79792500D01*
X147294885Y-79792500D02*
X147152027Y-79792500D01*
X147152027Y-79792500D02*
X147094885Y-79763928D01*
X146809170Y-80021071D02*
X146809170Y-79621071D01*
X146809170Y-79421071D02*
X146837742Y-79449642D01*
X146837742Y-79449642D02*
X146809170Y-79478214D01*
X146809170Y-79478214D02*
X146780599Y-79449642D01*
X146780599Y-79449642D02*
X146809170Y-79421071D01*
X146809170Y-79421071D02*
X146809170Y-79478214D01*
X146523456Y-79621071D02*
X146523456Y-80021071D01*
X146523456Y-79678214D02*
X146494885Y-79649642D01*
X146494885Y-79649642D02*
X146437742Y-79621071D01*
X146437742Y-79621071D02*
X146352028Y-79621071D01*
X146352028Y-79621071D02*
X146294885Y-79649642D01*
X146294885Y-79649642D02*
X146266314Y-79706785D01*
X146266314Y-79706785D02*
X146266314Y-80021071D01*
X145523456Y-80021071D02*
X145523456Y-79421071D01*
X145523456Y-79421071D02*
X145380599Y-79421071D01*
X145380599Y-79421071D02*
X145294885Y-79449642D01*
X145294885Y-79449642D02*
X145237742Y-79506785D01*
X145237742Y-79506785D02*
X145209171Y-79563928D01*
X145209171Y-79563928D02*
X145180599Y-79678214D01*
X145180599Y-79678214D02*
X145180599Y-79763928D01*
X145180599Y-79763928D02*
X145209171Y-79878214D01*
X145209171Y-79878214D02*
X145237742Y-79935357D01*
X145237742Y-79935357D02*
X145294885Y-79992500D01*
X145294885Y-79992500D02*
X145380599Y-80021071D01*
X145380599Y-80021071D02*
X145523456Y-80021071D01*
X144952028Y-79849642D02*
X144666314Y-79849642D01*
X145009171Y-80021071D02*
X144809171Y-79421071D01*
X144809171Y-79421071D02*
X144609171Y-80021071D01*
X144066313Y-79963928D02*
X144094885Y-79992500D01*
X144094885Y-79992500D02*
X144180599Y-80021071D01*
X144180599Y-80021071D02*
X144237742Y-80021071D01*
X144237742Y-80021071D02*
X144323456Y-79992500D01*
X144323456Y-79992500D02*
X144380599Y-79935357D01*
X144380599Y-79935357D02*
X144409170Y-79878214D01*
X144409170Y-79878214D02*
X144437742Y-79763928D01*
X144437742Y-79763928D02*
X144437742Y-79678214D01*
X144437742Y-79678214D02*
X144409170Y-79563928D01*
X144409170Y-79563928D02*
X144380599Y-79506785D01*
X144380599Y-79506785D02*
X144323456Y-79449642D01*
X144323456Y-79449642D02*
X144237742Y-79421071D01*
X144237742Y-79421071D02*
X144180599Y-79421071D01*
X144180599Y-79421071D02*
X144094885Y-79449642D01*
X144094885Y-79449642D02*
X144066313Y-79478214D01*
X143152027Y-79706785D02*
X143066313Y-79735357D01*
X143066313Y-79735357D02*
X143037742Y-79763928D01*
X143037742Y-79763928D02*
X143009170Y-79821071D01*
X143009170Y-79821071D02*
X143009170Y-79906785D01*
X143009170Y-79906785D02*
X143037742Y-79963928D01*
X143037742Y-79963928D02*
X143066313Y-79992500D01*
X143066313Y-79992500D02*
X143123456Y-80021071D01*
X143123456Y-80021071D02*
X143352027Y-80021071D01*
X143352027Y-80021071D02*
X143352027Y-79421071D01*
X143352027Y-79421071D02*
X143152027Y-79421071D01*
X143152027Y-79421071D02*
X143094885Y-79449642D01*
X143094885Y-79449642D02*
X143066313Y-79478214D01*
X143066313Y-79478214D02*
X143037742Y-79535357D01*
X143037742Y-79535357D02*
X143037742Y-79592500D01*
X143037742Y-79592500D02*
X143066313Y-79649642D01*
X143066313Y-79649642D02*
X143094885Y-79678214D01*
X143094885Y-79678214D02*
X143152027Y-79706785D01*
X143152027Y-79706785D02*
X143352027Y-79706785D01*
X142752027Y-80021071D02*
X142752027Y-79621071D01*
X142752027Y-79735357D02*
X142723456Y-79678214D01*
X142723456Y-79678214D02*
X142694885Y-79649642D01*
X142694885Y-79649642D02*
X142637742Y-79621071D01*
X142637742Y-79621071D02*
X142580599Y-79621071D01*
X142152027Y-79992500D02*
X142209170Y-80021071D01*
X142209170Y-80021071D02*
X142323456Y-80021071D01*
X142323456Y-80021071D02*
X142380598Y-79992500D01*
X142380598Y-79992500D02*
X142409170Y-79935357D01*
X142409170Y-79935357D02*
X142409170Y-79706785D01*
X142409170Y-79706785D02*
X142380598Y-79649642D01*
X142380598Y-79649642D02*
X142323456Y-79621071D01*
X142323456Y-79621071D02*
X142209170Y-79621071D01*
X142209170Y-79621071D02*
X142152027Y-79649642D01*
X142152027Y-79649642D02*
X142123456Y-79706785D01*
X142123456Y-79706785D02*
X142123456Y-79763928D01*
X142123456Y-79763928D02*
X142409170Y-79821071D01*
X141609170Y-80021071D02*
X141609170Y-79706785D01*
X141609170Y-79706785D02*
X141637741Y-79649642D01*
X141637741Y-79649642D02*
X141694884Y-79621071D01*
X141694884Y-79621071D02*
X141809170Y-79621071D01*
X141809170Y-79621071D02*
X141866312Y-79649642D01*
X141609170Y-79992500D02*
X141666312Y-80021071D01*
X141666312Y-80021071D02*
X141809170Y-80021071D01*
X141809170Y-80021071D02*
X141866312Y-79992500D01*
X141866312Y-79992500D02*
X141894884Y-79935357D01*
X141894884Y-79935357D02*
X141894884Y-79878214D01*
X141894884Y-79878214D02*
X141866312Y-79821071D01*
X141866312Y-79821071D02*
X141809170Y-79792500D01*
X141809170Y-79792500D02*
X141666312Y-79792500D01*
X141666312Y-79792500D02*
X141609170Y-79763928D01*
X141323455Y-80021071D02*
X141323455Y-79421071D01*
X141266313Y-79792500D02*
X141094884Y-80021071D01*
X141094884Y-79621071D02*
X141323455Y-79849642D01*
X140752027Y-80021071D02*
X140809170Y-79992500D01*
X140809170Y-79992500D02*
X140837741Y-79963928D01*
X140837741Y-79963928D02*
X140866313Y-79906785D01*
X140866313Y-79906785D02*
X140866313Y-79735357D01*
X140866313Y-79735357D02*
X140837741Y-79678214D01*
X140837741Y-79678214D02*
X140809170Y-79649642D01*
X140809170Y-79649642D02*
X140752027Y-79621071D01*
X140752027Y-79621071D02*
X140666313Y-79621071D01*
X140666313Y-79621071D02*
X140609170Y-79649642D01*
X140609170Y-79649642D02*
X140580599Y-79678214D01*
X140580599Y-79678214D02*
X140552027Y-79735357D01*
X140552027Y-79735357D02*
X140552027Y-79906785D01*
X140552027Y-79906785D02*
X140580599Y-79963928D01*
X140580599Y-79963928D02*
X140609170Y-79992500D01*
X140609170Y-79992500D02*
X140666313Y-80021071D01*
X140666313Y-80021071D02*
X140752027Y-80021071D01*
X140037742Y-79621071D02*
X140037742Y-80021071D01*
X140294884Y-79621071D02*
X140294884Y-79935357D01*
X140294884Y-79935357D02*
X140266313Y-79992500D01*
X140266313Y-79992500D02*
X140209170Y-80021071D01*
X140209170Y-80021071D02*
X140123456Y-80021071D01*
X140123456Y-80021071D02*
X140066313Y-79992500D01*
X140066313Y-79992500D02*
X140037742Y-79963928D01*
X139837742Y-79621071D02*
X139609170Y-79621071D01*
X139752027Y-79421071D02*
X139752027Y-79935357D01*
X139752027Y-79935357D02*
X139723456Y-79992500D01*
X139723456Y-79992500D02*
X139666313Y-80021071D01*
X139666313Y-80021071D02*
X139609170Y-80021071D01*
X150823456Y-80958466D02*
X150737742Y-80987037D01*
X150737742Y-80987037D02*
X150594884Y-80987037D01*
X150594884Y-80987037D02*
X150537742Y-80958466D01*
X150537742Y-80958466D02*
X150509170Y-80929894D01*
X150509170Y-80929894D02*
X150480599Y-80872751D01*
X150480599Y-80872751D02*
X150480599Y-80815608D01*
X150480599Y-80815608D02*
X150509170Y-80758466D01*
X150509170Y-80758466D02*
X150537742Y-80729894D01*
X150537742Y-80729894D02*
X150594884Y-80701323D01*
X150594884Y-80701323D02*
X150709170Y-80672751D01*
X150709170Y-80672751D02*
X150766313Y-80644180D01*
X150766313Y-80644180D02*
X150794884Y-80615608D01*
X150794884Y-80615608D02*
X150823456Y-80558466D01*
X150823456Y-80558466D02*
X150823456Y-80501323D01*
X150823456Y-80501323D02*
X150794884Y-80444180D01*
X150794884Y-80444180D02*
X150766313Y-80415608D01*
X150766313Y-80415608D02*
X150709170Y-80387037D01*
X150709170Y-80387037D02*
X150566313Y-80387037D01*
X150566313Y-80387037D02*
X150480599Y-80415608D01*
X149966313Y-80587037D02*
X149966313Y-80987037D01*
X150223455Y-80587037D02*
X150223455Y-80901323D01*
X150223455Y-80901323D02*
X150194884Y-80958466D01*
X150194884Y-80958466D02*
X150137741Y-80987037D01*
X150137741Y-80987037D02*
X150052027Y-80987037D01*
X150052027Y-80987037D02*
X149994884Y-80958466D01*
X149994884Y-80958466D02*
X149966313Y-80929894D01*
X149223455Y-80987037D02*
X149223455Y-80387037D01*
X149223455Y-80672751D02*
X148880598Y-80672751D01*
X148880598Y-80987037D02*
X148880598Y-80387037D01*
X148337742Y-80587037D02*
X148337742Y-80987037D01*
X148594884Y-80587037D02*
X148594884Y-80901323D01*
X148594884Y-80901323D02*
X148566313Y-80958466D01*
X148566313Y-80958466D02*
X148509170Y-80987037D01*
X148509170Y-80987037D02*
X148423456Y-80987037D01*
X148423456Y-80987037D02*
X148366313Y-80958466D01*
X148366313Y-80958466D02*
X148337742Y-80929894D01*
X147794885Y-80987037D02*
X147794885Y-80672751D01*
X147794885Y-80672751D02*
X147823456Y-80615608D01*
X147823456Y-80615608D02*
X147880599Y-80587037D01*
X147880599Y-80587037D02*
X147994885Y-80587037D01*
X147994885Y-80587037D02*
X148052027Y-80615608D01*
X147794885Y-80958466D02*
X147852027Y-80987037D01*
X147852027Y-80987037D02*
X147994885Y-80987037D01*
X147994885Y-80987037D02*
X148052027Y-80958466D01*
X148052027Y-80958466D02*
X148080599Y-80901323D01*
X148080599Y-80901323D02*
X148080599Y-80844180D01*
X148080599Y-80844180D02*
X148052027Y-80787037D01*
X148052027Y-80787037D02*
X147994885Y-80758466D01*
X147994885Y-80758466D02*
X147852027Y-80758466D01*
X147852027Y-80758466D02*
X147794885Y-80729894D01*
X147509170Y-80587037D02*
X147509170Y-80987037D01*
X147509170Y-80644180D02*
X147480599Y-80615608D01*
X147480599Y-80615608D02*
X147423456Y-80587037D01*
X147423456Y-80587037D02*
X147337742Y-80587037D01*
X147337742Y-80587037D02*
X147280599Y-80615608D01*
X147280599Y-80615608D02*
X147252028Y-80672751D01*
X147252028Y-80672751D02*
X147252028Y-80987037D01*
X146709171Y-80587037D02*
X146709171Y-81072751D01*
X146709171Y-81072751D02*
X146737742Y-81129894D01*
X146737742Y-81129894D02*
X146766313Y-81158466D01*
X146766313Y-81158466D02*
X146823456Y-81187037D01*
X146823456Y-81187037D02*
X146909171Y-81187037D01*
X146909171Y-81187037D02*
X146966313Y-81158466D01*
X146709171Y-80958466D02*
X146766313Y-80987037D01*
X146766313Y-80987037D02*
X146880599Y-80987037D01*
X146880599Y-80987037D02*
X146937742Y-80958466D01*
X146937742Y-80958466D02*
X146966313Y-80929894D01*
X146966313Y-80929894D02*
X146994885Y-80872751D01*
X146994885Y-80872751D02*
X146994885Y-80701323D01*
X146994885Y-80701323D02*
X146966313Y-80644180D01*
X146966313Y-80644180D02*
X146937742Y-80615608D01*
X146937742Y-80615608D02*
X146880599Y-80587037D01*
X146880599Y-80587037D02*
X146766313Y-80587037D01*
X146766313Y-80587037D02*
X146709171Y-80615608D01*
X146394885Y-80958466D02*
X146394885Y-80987037D01*
X146394885Y-80987037D02*
X146423456Y-81044180D01*
X146423456Y-81044180D02*
X146452028Y-81072751D01*
X145680599Y-80672751D02*
X145480599Y-80672751D01*
X145394885Y-80987037D02*
X145680599Y-80987037D01*
X145680599Y-80987037D02*
X145680599Y-80387037D01*
X145680599Y-80387037D02*
X145394885Y-80387037D01*
X145137742Y-80987037D02*
X145137742Y-80587037D01*
X145137742Y-80644180D02*
X145109171Y-80615608D01*
X145109171Y-80615608D02*
X145052028Y-80587037D01*
X145052028Y-80587037D02*
X144966314Y-80587037D01*
X144966314Y-80587037D02*
X144909171Y-80615608D01*
X144909171Y-80615608D02*
X144880600Y-80672751D01*
X144880600Y-80672751D02*
X144880600Y-80987037D01*
X144880600Y-80672751D02*
X144852028Y-80615608D01*
X144852028Y-80615608D02*
X144794885Y-80587037D01*
X144794885Y-80587037D02*
X144709171Y-80587037D01*
X144709171Y-80587037D02*
X144652028Y-80615608D01*
X144652028Y-80615608D02*
X144623457Y-80672751D01*
X144623457Y-80672751D02*
X144623457Y-80987037D01*
X144337742Y-80987037D02*
X144337742Y-80587037D01*
X144337742Y-80644180D02*
X144309171Y-80615608D01*
X144309171Y-80615608D02*
X144252028Y-80587037D01*
X144252028Y-80587037D02*
X144166314Y-80587037D01*
X144166314Y-80587037D02*
X144109171Y-80615608D01*
X144109171Y-80615608D02*
X144080600Y-80672751D01*
X144080600Y-80672751D02*
X144080600Y-80987037D01*
X144080600Y-80672751D02*
X144052028Y-80615608D01*
X144052028Y-80615608D02*
X143994885Y-80587037D01*
X143994885Y-80587037D02*
X143909171Y-80587037D01*
X143909171Y-80587037D02*
X143852028Y-80615608D01*
X143852028Y-80615608D02*
X143823457Y-80672751D01*
X143823457Y-80672751D02*
X143823457Y-80987037D01*
X143280600Y-80987037D02*
X143280600Y-80672751D01*
X143280600Y-80672751D02*
X143309171Y-80615608D01*
X143309171Y-80615608D02*
X143366314Y-80587037D01*
X143366314Y-80587037D02*
X143480600Y-80587037D01*
X143480600Y-80587037D02*
X143537742Y-80615608D01*
X143280600Y-80958466D02*
X143337742Y-80987037D01*
X143337742Y-80987037D02*
X143480600Y-80987037D01*
X143480600Y-80987037D02*
X143537742Y-80958466D01*
X143537742Y-80958466D02*
X143566314Y-80901323D01*
X143566314Y-80901323D02*
X143566314Y-80844180D01*
X143566314Y-80844180D02*
X143537742Y-80787037D01*
X143537742Y-80787037D02*
X143480600Y-80758466D01*
X143480600Y-80758466D02*
X143337742Y-80758466D01*
X143337742Y-80758466D02*
X143280600Y-80729894D01*
X142423457Y-80387037D02*
X142309171Y-80387037D01*
X142309171Y-80387037D02*
X142252028Y-80415608D01*
X142252028Y-80415608D02*
X142194885Y-80472751D01*
X142194885Y-80472751D02*
X142166314Y-80587037D01*
X142166314Y-80587037D02*
X142166314Y-80787037D01*
X142166314Y-80787037D02*
X142194885Y-80901323D01*
X142194885Y-80901323D02*
X142252028Y-80958466D01*
X142252028Y-80958466D02*
X142309171Y-80987037D01*
X142309171Y-80987037D02*
X142423457Y-80987037D01*
X142423457Y-80987037D02*
X142480600Y-80958466D01*
X142480600Y-80958466D02*
X142537742Y-80901323D01*
X142537742Y-80901323D02*
X142566314Y-80787037D01*
X142566314Y-80787037D02*
X142566314Y-80587037D01*
X142566314Y-80587037D02*
X142537742Y-80472751D01*
X142537742Y-80472751D02*
X142480600Y-80415608D01*
X142480600Y-80415608D02*
X142423457Y-80387037D01*
X141652029Y-80587037D02*
X141652029Y-80987037D01*
X141909171Y-80587037D02*
X141909171Y-80901323D01*
X141909171Y-80901323D02*
X141880600Y-80958466D01*
X141880600Y-80958466D02*
X141823457Y-80987037D01*
X141823457Y-80987037D02*
X141737743Y-80987037D01*
X141737743Y-80987037D02*
X141680600Y-80958466D01*
X141680600Y-80958466D02*
X141652029Y-80929894D01*
X141423457Y-80587037D02*
X141280600Y-80987037D01*
X141137743Y-80587037D02*
X141280600Y-80987037D01*
X141280600Y-80987037D02*
X141337743Y-81129894D01*
X141337743Y-81129894D02*
X141366314Y-81158466D01*
X141366314Y-81158466D02*
X141423457Y-81187037D01*
X140652029Y-80987037D02*
X140652029Y-80672751D01*
X140652029Y-80672751D02*
X140680600Y-80615608D01*
X140680600Y-80615608D02*
X140737743Y-80587037D01*
X140737743Y-80587037D02*
X140852029Y-80587037D01*
X140852029Y-80587037D02*
X140909171Y-80615608D01*
X140652029Y-80958466D02*
X140709171Y-80987037D01*
X140709171Y-80987037D02*
X140852029Y-80987037D01*
X140852029Y-80987037D02*
X140909171Y-80958466D01*
X140909171Y-80958466D02*
X140937743Y-80901323D01*
X140937743Y-80901323D02*
X140937743Y-80844180D01*
X140937743Y-80844180D02*
X140909171Y-80787037D01*
X140909171Y-80787037D02*
X140852029Y-80758466D01*
X140852029Y-80758466D02*
X140709171Y-80758466D01*
X140709171Y-80758466D02*
X140652029Y-80729894D01*
X140366314Y-80587037D02*
X140366314Y-80987037D01*
X140366314Y-80644180D02*
X140337743Y-80615608D01*
X140337743Y-80615608D02*
X140280600Y-80587037D01*
X140280600Y-80587037D02*
X140194886Y-80587037D01*
X140194886Y-80587037D02*
X140137743Y-80615608D01*
X140137743Y-80615608D02*
X140109172Y-80672751D01*
X140109172Y-80672751D02*
X140109172Y-80987037D01*
X139566315Y-80587037D02*
X139566315Y-81072751D01*
X139566315Y-81072751D02*
X139594886Y-81129894D01*
X139594886Y-81129894D02*
X139623457Y-81158466D01*
X139623457Y-81158466D02*
X139680600Y-81187037D01*
X139680600Y-81187037D02*
X139766315Y-81187037D01*
X139766315Y-81187037D02*
X139823457Y-81158466D01*
X139566315Y-80958466D02*
X139623457Y-80987037D01*
X139623457Y-80987037D02*
X139737743Y-80987037D01*
X139737743Y-80987037D02*
X139794886Y-80958466D01*
X139794886Y-80958466D02*
X139823457Y-80929894D01*
X139823457Y-80929894D02*
X139852029Y-80872751D01*
X139852029Y-80872751D02*
X139852029Y-80701323D01*
X139852029Y-80701323D02*
X139823457Y-80644180D01*
X139823457Y-80644180D02*
X139794886Y-80615608D01*
X139794886Y-80615608D02*
X139737743Y-80587037D01*
X139737743Y-80587037D02*
X139623457Y-80587037D01*
X139623457Y-80587037D02*
X139566315Y-80615608D01*
X148992858Y-69599642D02*
X148707144Y-69599642D01*
X149050001Y-69771071D02*
X148850001Y-69171071D01*
X148850001Y-69171071D02*
X148650001Y-69771071D01*
X148450000Y-69771071D02*
X148450000Y-69171071D01*
X148450000Y-69171071D02*
X148307143Y-69171071D01*
X148307143Y-69171071D02*
X148221429Y-69199642D01*
X148221429Y-69199642D02*
X148164286Y-69256785D01*
X148164286Y-69256785D02*
X148135715Y-69313928D01*
X148135715Y-69313928D02*
X148107143Y-69428214D01*
X148107143Y-69428214D02*
X148107143Y-69513928D01*
X148107143Y-69513928D02*
X148135715Y-69628214D01*
X148135715Y-69628214D02*
X148164286Y-69685357D01*
X148164286Y-69685357D02*
X148221429Y-69742500D01*
X148221429Y-69742500D02*
X148307143Y-69771071D01*
X148307143Y-69771071D02*
X148450000Y-69771071D01*
X147564286Y-69171071D02*
X147850000Y-69171071D01*
X147850000Y-69171071D02*
X147878572Y-69456785D01*
X147878572Y-69456785D02*
X147850000Y-69428214D01*
X147850000Y-69428214D02*
X147792858Y-69399642D01*
X147792858Y-69399642D02*
X147650000Y-69399642D01*
X147650000Y-69399642D02*
X147592858Y-69428214D01*
X147592858Y-69428214D02*
X147564286Y-69456785D01*
X147564286Y-69456785D02*
X147535715Y-69513928D01*
X147535715Y-69513928D02*
X147535715Y-69656785D01*
X147535715Y-69656785D02*
X147564286Y-69713928D01*
X147564286Y-69713928D02*
X147592858Y-69742500D01*
X147592858Y-69742500D02*
X147650000Y-69771071D01*
X147650000Y-69771071D02*
X147792858Y-69771071D01*
X147792858Y-69771071D02*
X147850000Y-69742500D01*
X147850000Y-69742500D02*
X147878572Y-69713928D01*
X147021429Y-69171071D02*
X147135714Y-69171071D01*
X147135714Y-69171071D02*
X147192857Y-69199642D01*
X147192857Y-69199642D02*
X147221429Y-69228214D01*
X147221429Y-69228214D02*
X147278571Y-69313928D01*
X147278571Y-69313928D02*
X147307143Y-69428214D01*
X147307143Y-69428214D02*
X147307143Y-69656785D01*
X147307143Y-69656785D02*
X147278571Y-69713928D01*
X147278571Y-69713928D02*
X147250000Y-69742500D01*
X147250000Y-69742500D02*
X147192857Y-69771071D01*
X147192857Y-69771071D02*
X147078571Y-69771071D01*
X147078571Y-69771071D02*
X147021429Y-69742500D01*
X147021429Y-69742500D02*
X146992857Y-69713928D01*
X146992857Y-69713928D02*
X146964286Y-69656785D01*
X146964286Y-69656785D02*
X146964286Y-69513928D01*
X146964286Y-69513928D02*
X146992857Y-69456785D01*
X146992857Y-69456785D02*
X147021429Y-69428214D01*
X147021429Y-69428214D02*
X147078571Y-69399642D01*
X147078571Y-69399642D02*
X147192857Y-69399642D01*
X147192857Y-69399642D02*
X147250000Y-69428214D01*
X147250000Y-69428214D02*
X147278571Y-69456785D01*
X147278571Y-69456785D02*
X147307143Y-69513928D01*
X146621428Y-69428214D02*
X146678571Y-69399642D01*
X146678571Y-69399642D02*
X146707142Y-69371071D01*
X146707142Y-69371071D02*
X146735714Y-69313928D01*
X146735714Y-69313928D02*
X146735714Y-69285357D01*
X146735714Y-69285357D02*
X146707142Y-69228214D01*
X146707142Y-69228214D02*
X146678571Y-69199642D01*
X146678571Y-69199642D02*
X146621428Y-69171071D01*
X146621428Y-69171071D02*
X146507142Y-69171071D01*
X146507142Y-69171071D02*
X146450000Y-69199642D01*
X146450000Y-69199642D02*
X146421428Y-69228214D01*
X146421428Y-69228214D02*
X146392857Y-69285357D01*
X146392857Y-69285357D02*
X146392857Y-69313928D01*
X146392857Y-69313928D02*
X146421428Y-69371071D01*
X146421428Y-69371071D02*
X146450000Y-69399642D01*
X146450000Y-69399642D02*
X146507142Y-69428214D01*
X146507142Y-69428214D02*
X146621428Y-69428214D01*
X146621428Y-69428214D02*
X146678571Y-69456785D01*
X146678571Y-69456785D02*
X146707142Y-69485357D01*
X146707142Y-69485357D02*
X146735714Y-69542500D01*
X146735714Y-69542500D02*
X146735714Y-69656785D01*
X146735714Y-69656785D02*
X146707142Y-69713928D01*
X146707142Y-69713928D02*
X146678571Y-69742500D01*
X146678571Y-69742500D02*
X146621428Y-69771071D01*
X146621428Y-69771071D02*
X146507142Y-69771071D01*
X146507142Y-69771071D02*
X146450000Y-69742500D01*
X146450000Y-69742500D02*
X146421428Y-69713928D01*
X146421428Y-69713928D02*
X146392857Y-69656785D01*
X146392857Y-69656785D02*
X146392857Y-69542500D01*
X146392857Y-69542500D02*
X146421428Y-69485357D01*
X146421428Y-69485357D02*
X146450000Y-69456785D01*
X146450000Y-69456785D02*
X146507142Y-69428214D01*
X146107142Y-69771071D02*
X145992856Y-69771071D01*
X145992856Y-69771071D02*
X145935713Y-69742500D01*
X145935713Y-69742500D02*
X145907142Y-69713928D01*
X145907142Y-69713928D02*
X145849999Y-69628214D01*
X145849999Y-69628214D02*
X145821428Y-69513928D01*
X145821428Y-69513928D02*
X145821428Y-69285357D01*
X145821428Y-69285357D02*
X145849999Y-69228214D01*
X145849999Y-69228214D02*
X145878571Y-69199642D01*
X145878571Y-69199642D02*
X145935713Y-69171071D01*
X145935713Y-69171071D02*
X146049999Y-69171071D01*
X146049999Y-69171071D02*
X146107142Y-69199642D01*
X146107142Y-69199642D02*
X146135713Y-69228214D01*
X146135713Y-69228214D02*
X146164285Y-69285357D01*
X146164285Y-69285357D02*
X146164285Y-69428214D01*
X146164285Y-69428214D02*
X146135713Y-69485357D01*
X146135713Y-69485357D02*
X146107142Y-69513928D01*
X146107142Y-69513928D02*
X146049999Y-69542500D01*
X146049999Y-69542500D02*
X145935713Y-69542500D01*
X145935713Y-69542500D02*
X145878571Y-69513928D01*
X145878571Y-69513928D02*
X145849999Y-69485357D01*
X145849999Y-69485357D02*
X145821428Y-69428214D01*
X145221427Y-69771071D02*
X145421427Y-69485357D01*
X145564284Y-69771071D02*
X145564284Y-69171071D01*
X145564284Y-69171071D02*
X145335713Y-69171071D01*
X145335713Y-69171071D02*
X145278570Y-69199642D01*
X145278570Y-69199642D02*
X145249999Y-69228214D01*
X145249999Y-69228214D02*
X145221427Y-69285357D01*
X145221427Y-69285357D02*
X145221427Y-69371071D01*
X145221427Y-69371071D02*
X145249999Y-69428214D01*
X145249999Y-69428214D02*
X145278570Y-69456785D01*
X145278570Y-69456785D02*
X145335713Y-69485357D01*
X145335713Y-69485357D02*
X145564284Y-69485357D01*
X144992856Y-69599642D02*
X144707142Y-69599642D01*
X145049999Y-69771071D02*
X144849999Y-69171071D01*
X144849999Y-69171071D02*
X144649999Y-69771071D01*
X144107141Y-69771071D02*
X144307141Y-69485357D01*
X144449998Y-69771071D02*
X144449998Y-69171071D01*
X144449998Y-69171071D02*
X144221427Y-69171071D01*
X144221427Y-69171071D02*
X144164284Y-69199642D01*
X144164284Y-69199642D02*
X144135713Y-69228214D01*
X144135713Y-69228214D02*
X144107141Y-69285357D01*
X144107141Y-69285357D02*
X144107141Y-69371071D01*
X144107141Y-69371071D02*
X144135713Y-69428214D01*
X144135713Y-69428214D02*
X144164284Y-69456785D01*
X144164284Y-69456785D02*
X144221427Y-69485357D01*
X144221427Y-69485357D02*
X144449998Y-69485357D01*
X143849998Y-69171071D02*
X143849998Y-69656785D01*
X143849998Y-69656785D02*
X143821427Y-69713928D01*
X143821427Y-69713928D02*
X143792856Y-69742500D01*
X143792856Y-69742500D02*
X143735713Y-69771071D01*
X143735713Y-69771071D02*
X143621427Y-69771071D01*
X143621427Y-69771071D02*
X143564284Y-69742500D01*
X143564284Y-69742500D02*
X143535713Y-69713928D01*
X143535713Y-69713928D02*
X143507141Y-69656785D01*
X143507141Y-69656785D02*
X143507141Y-69171071D01*
X143278570Y-69171071D02*
X142878570Y-69171071D01*
X142878570Y-69171071D02*
X143278570Y-69771071D01*
X143278570Y-69771071D02*
X142878570Y-69771071D01*
X142649998Y-69542500D02*
X142192856Y-69542500D01*
X141564284Y-69771071D02*
X141764284Y-69485357D01*
X141907141Y-69771071D02*
X141907141Y-69171071D01*
X141907141Y-69171071D02*
X141678570Y-69171071D01*
X141678570Y-69171071D02*
X141621427Y-69199642D01*
X141621427Y-69199642D02*
X141592856Y-69228214D01*
X141592856Y-69228214D02*
X141564284Y-69285357D01*
X141564284Y-69285357D02*
X141564284Y-69371071D01*
X141564284Y-69371071D02*
X141592856Y-69428214D01*
X141592856Y-69428214D02*
X141621427Y-69456785D01*
X141621427Y-69456785D02*
X141678570Y-69485357D01*
X141678570Y-69485357D02*
X141907141Y-69485357D01*
X141021427Y-69771071D02*
X141307141Y-69771071D01*
X141307141Y-69771071D02*
X141307141Y-69171071D01*
X140878570Y-69171071D02*
X140478570Y-69171071D01*
X140478570Y-69171071D02*
X140735713Y-69771071D01*
D11*
G36*
X144677829Y-65694663D02*
G01*
X144677829Y-65864071D01*
X144527649Y-65963685D01*
X144511627Y-65974307D01*
X144489568Y-65988916D01*
X144468700Y-66002716D01*
X144449284Y-66015536D01*
X144431580Y-66027206D01*
X144415848Y-66037555D01*
X144402349Y-66046410D01*
X144391342Y-66053602D01*
X144383087Y-66058959D01*
X144377846Y-66062310D01*
X144375877Y-66063485D01*
X144375681Y-66061498D01*
X144375489Y-66055527D01*
X144375306Y-66045825D01*
X144375132Y-66032644D01*
X144374971Y-66016237D01*
X144374823Y-65996860D01*
X144374689Y-65974764D01*
X144374572Y-65950204D01*
X144374473Y-65923432D01*
X144374393Y-65894703D01*
X144374334Y-65864269D01*
X144374298Y-65832385D01*
X144374285Y-65799303D01*
X144374285Y-65534935D01*
X144408779Y-65533514D01*
X144420885Y-65533018D01*
X144458534Y-65531523D01*
X144492911Y-65530239D01*
X144524759Y-65529140D01*
X144554820Y-65528202D01*
X144583839Y-65527401D01*
X144612556Y-65526710D01*
X144677829Y-65525254D01*
X144677829Y-65694663D01*
G37*
G36*
X145488542Y-66214690D02*
G01*
X145506130Y-66217027D01*
X145522586Y-66221685D01*
X145539185Y-66228914D01*
X145555328Y-66238218D01*
X145575018Y-66253529D01*
X145591564Y-66271441D01*
X145604772Y-66291640D01*
X145614448Y-66313813D01*
X145620396Y-66337647D01*
X145622422Y-66362829D01*
X145622396Y-66365563D01*
X145619901Y-66389700D01*
X145613548Y-66412749D01*
X145603637Y-66434319D01*
X145590471Y-66454021D01*
X145574349Y-66471465D01*
X145555575Y-66486263D01*
X145534449Y-66498025D01*
X145511274Y-66506362D01*
X145496281Y-66509128D01*
X145478339Y-66510209D01*
X145459522Y-66509506D01*
X145441319Y-66507077D01*
X145425222Y-66502980D01*
X145405869Y-66494743D01*
X145385726Y-66482260D01*
X145367666Y-66466829D01*
X145352349Y-66449022D01*
X145340434Y-66429411D01*
X145339729Y-66427967D01*
X145332510Y-66411353D01*
X145327840Y-66395966D01*
X145325326Y-66380142D01*
X145324575Y-66362221D01*
X145325752Y-66341704D01*
X145330474Y-66318509D01*
X145338936Y-66297124D01*
X145351275Y-66277221D01*
X145367628Y-66258469D01*
X145373130Y-66253155D01*
X145389973Y-66239021D01*
X145406805Y-66228470D01*
X145424470Y-66221124D01*
X145443815Y-66216603D01*
X145465686Y-66214529D01*
X145468547Y-66214423D01*
X145488542Y-66214690D01*
G37*
G36*
X145156231Y-66398301D02*
G01*
X145176878Y-66400456D01*
X145197022Y-66403877D01*
X145215762Y-66408495D01*
X145232199Y-66414244D01*
X145253105Y-66424856D01*
X145271211Y-66438094D01*
X145285830Y-66453535D01*
X145296936Y-66471035D01*
X145304501Y-66490447D01*
X145308497Y-66511626D01*
X145308899Y-66534425D01*
X145305678Y-66558701D01*
X145298808Y-66584306D01*
X145288262Y-66611095D01*
X145274012Y-66638922D01*
X145269873Y-66645839D01*
X145256835Y-66663565D01*
X145242594Y-66677242D01*
X145227155Y-66686863D01*
X145210525Y-66692423D01*
X145207746Y-66692919D01*
X145192186Y-66693449D01*
X145175933Y-66690716D01*
X145160242Y-66685028D01*
X145146368Y-66676693D01*
X145136961Y-66668404D01*
X145125620Y-66656172D01*
X145113534Y-66641186D01*
X145101127Y-66624065D01*
X145088825Y-66605426D01*
X145077054Y-66585887D01*
X145066237Y-66566065D01*
X145056800Y-66546576D01*
X145050449Y-66531797D01*
X145043351Y-66512464D01*
X145038827Y-66495513D01*
X145036785Y-66480434D01*
X145037130Y-66466716D01*
X145039769Y-66453849D01*
X145042159Y-66447241D01*
X145050044Y-66433181D01*
X145060815Y-66420564D01*
X145073595Y-66410318D01*
X145087506Y-66403371D01*
X145100274Y-66400108D01*
X145117029Y-66398060D01*
X145135981Y-66397480D01*
X145156231Y-66398301D01*
G37*
G36*
X145205122Y-66032595D02*
G01*
X145219647Y-66036096D01*
X145225938Y-66038775D01*
X145238654Y-66046438D01*
X145250505Y-66056975D01*
X145261788Y-66070721D01*
X145272799Y-66088015D01*
X145283835Y-66109195D01*
X145288023Y-66118308D01*
X145298079Y-66144910D01*
X145304440Y-66170372D01*
X145307138Y-66194529D01*
X145306202Y-66217214D01*
X145301664Y-66238261D01*
X145293554Y-66257504D01*
X145281903Y-66274777D01*
X145266741Y-66289912D01*
X145248100Y-66302745D01*
X145239141Y-66307224D01*
X145225377Y-66312745D01*
X145209886Y-66317856D01*
X145194046Y-66322110D01*
X145179237Y-66325059D01*
X145177537Y-66325313D01*
X145164712Y-66326734D01*
X145150287Y-66327651D01*
X145135424Y-66328049D01*
X145121283Y-66327915D01*
X145109027Y-66327235D01*
X145099816Y-66325995D01*
X145095276Y-66324883D01*
X145080223Y-66319052D01*
X145066125Y-66310571D01*
X145054586Y-66300349D01*
X145053412Y-66299018D01*
X145043555Y-66284466D01*
X145037541Y-66268195D01*
X145035383Y-66250306D01*
X145037095Y-66230902D01*
X145042690Y-66210083D01*
X145048340Y-66195044D01*
X145058190Y-66172341D01*
X145069406Y-66149878D01*
X145081664Y-66128132D01*
X145094638Y-66107579D01*
X145108005Y-66088697D01*
X145121440Y-66071961D01*
X145134618Y-66057848D01*
X145147215Y-66046835D01*
X145158906Y-66039399D01*
X145173227Y-66034332D01*
X145189142Y-66032035D01*
X145205122Y-66032595D01*
G37*
G36*
X145488331Y-66571092D02*
G01*
X145509434Y-66576116D01*
X145530235Y-66585265D01*
X145550529Y-66598529D01*
X145560159Y-66606609D01*
X145573733Y-66620128D01*
X145587011Y-66635593D01*
X145599479Y-66652253D01*
X145610622Y-66669357D01*
X145619925Y-66686155D01*
X145626874Y-66701897D01*
X145630955Y-66715831D01*
X145632178Y-66725246D01*
X145631349Y-66742387D01*
X145626742Y-66758635D01*
X145618659Y-66773498D01*
X145607402Y-66786480D01*
X145593272Y-66797087D01*
X145576573Y-66804824D01*
X145573313Y-66805827D01*
X145564175Y-66808089D01*
X145552667Y-66810472D01*
X145540025Y-66812745D01*
X145527486Y-66814679D01*
X145516288Y-66816042D01*
X145506852Y-66816766D01*
X145489421Y-66817341D01*
X145470075Y-66817241D01*
X145449837Y-66816524D01*
X145429732Y-66815245D01*
X145410785Y-66813459D01*
X145394020Y-66811225D01*
X145380463Y-66808597D01*
X145368936Y-66805084D01*
X145352248Y-66796916D01*
X145338309Y-66786065D01*
X145327368Y-66772941D01*
X145319673Y-66757957D01*
X145315473Y-66741524D01*
X145315017Y-66724055D01*
X145318552Y-66705961D01*
X145318932Y-66704750D01*
X145325789Y-66687890D01*
X145335647Y-66669835D01*
X145347863Y-66651418D01*
X145361793Y-66633473D01*
X145376796Y-66616833D01*
X145392227Y-66602329D01*
X145407446Y-66590794D01*
X145425229Y-66580885D01*
X145446025Y-66573466D01*
X145467127Y-66570205D01*
X145488331Y-66571092D01*
G37*
G36*
X145830646Y-66399222D02*
G01*
X145848688Y-66402090D01*
X145863564Y-66406779D01*
X145866671Y-66408279D01*
X145876719Y-66415003D01*
X145886770Y-66424078D01*
X145895621Y-66434325D01*
X145902069Y-66444561D01*
X145904497Y-66449796D01*
X145906310Y-66455047D01*
X145907328Y-66460777D01*
X145907762Y-66468237D01*
X145907823Y-66478676D01*
X145907823Y-66478751D01*
X145907652Y-66489247D01*
X145907049Y-66497223D01*
X145905707Y-66504284D01*
X145903324Y-66512035D01*
X145899595Y-66522082D01*
X145891926Y-66540766D01*
X145874742Y-66576098D01*
X145854821Y-66609920D01*
X145832866Y-66640974D01*
X145830172Y-66644408D01*
X145817439Y-66659596D01*
X145805804Y-66671466D01*
X145794726Y-66680470D01*
X145783662Y-66687059D01*
X145772071Y-66691686D01*
X145764939Y-66693322D01*
X145752240Y-66694377D01*
X145738940Y-66693749D01*
X145727016Y-66691449D01*
X145723449Y-66690283D01*
X145709955Y-66683686D01*
X145697259Y-66673740D01*
X145685154Y-66660225D01*
X145673435Y-66642918D01*
X145661893Y-66621599D01*
X145651393Y-66597997D01*
X145642474Y-66571333D01*
X145637376Y-66546149D01*
X145636096Y-66522512D01*
X145638632Y-66500489D01*
X145644980Y-66480144D01*
X145655140Y-66461545D01*
X145669106Y-66444759D01*
X145677291Y-66437277D01*
X145695266Y-66424695D01*
X145716192Y-66414589D01*
X145740302Y-66406857D01*
X145767825Y-66401397D01*
X145787809Y-66399102D01*
X145810125Y-66398213D01*
X145830646Y-66399222D01*
G37*
G36*
X145492541Y-65908928D02*
G01*
X145515669Y-65910223D01*
X145537527Y-65912513D01*
X145557402Y-65915799D01*
X145574581Y-65920080D01*
X145588352Y-65925356D01*
X145594321Y-65928671D01*
X145607107Y-65938465D01*
X145618161Y-65950549D01*
X145626229Y-65963655D01*
X145627084Y-65965521D01*
X145629574Y-65971862D01*
X145631042Y-65978073D01*
X145631743Y-65985606D01*
X145631935Y-65995915D01*
X145631938Y-65997967D01*
X145631806Y-66006838D01*
X145631177Y-66013481D01*
X145629699Y-66019401D01*
X145627023Y-66026101D01*
X145622797Y-66035084D01*
X145619307Y-66042099D01*
X145604853Y-66067168D01*
X145588646Y-66089715D01*
X145570996Y-66109454D01*
X145552215Y-66126099D01*
X145532615Y-66139367D01*
X145512507Y-66148971D01*
X145492202Y-66154628D01*
X145487917Y-66155260D01*
X145470177Y-66155716D01*
X145451453Y-66153232D01*
X145433112Y-66148065D01*
X145416522Y-66140469D01*
X145413804Y-66138874D01*
X145394561Y-66125204D01*
X145375895Y-66107893D01*
X145358259Y-66087459D01*
X145342110Y-66064423D01*
X145327904Y-66039304D01*
X145321546Y-66025094D01*
X145316633Y-66008420D01*
X145315283Y-65992828D01*
X145317458Y-65977693D01*
X145323119Y-65962394D01*
X145323229Y-65962163D01*
X145332592Y-65947210D01*
X145344971Y-65934630D01*
X145359576Y-65925229D01*
X145366990Y-65922094D01*
X145382778Y-65917406D01*
X145401571Y-65913715D01*
X145422657Y-65911023D01*
X145445322Y-65909328D01*
X145468854Y-65908630D01*
X145492541Y-65908928D01*
G37*
G36*
X145758893Y-66033089D02*
G01*
X145767654Y-66033456D01*
X145774275Y-66034419D01*
X145780214Y-66036251D01*
X145786929Y-66039227D01*
X145798298Y-66046328D01*
X145810630Y-66056974D01*
X145823590Y-66070673D01*
X145836843Y-66086938D01*
X145850058Y-66105277D01*
X145862899Y-66125201D01*
X145875034Y-66146220D01*
X145886129Y-66167845D01*
X145895850Y-66189586D01*
X145903865Y-66210953D01*
X145907258Y-66221419D01*
X145909442Y-66229455D01*
X145910595Y-66236291D01*
X145910950Y-66243316D01*
X145910741Y-66251919D01*
X145910586Y-66255105D01*
X145909564Y-66265550D01*
X145907607Y-66273988D01*
X145904344Y-66282177D01*
X145902486Y-66285842D01*
X145892860Y-66299485D01*
X145880283Y-66311246D01*
X145865708Y-66320356D01*
X145850088Y-66326044D01*
X145848364Y-66326381D01*
X145840723Y-66327208D01*
X145830245Y-66327751D01*
X145817980Y-66328006D01*
X145804980Y-66327973D01*
X145792294Y-66327650D01*
X145780974Y-66327037D01*
X145772071Y-66326133D01*
X145766729Y-66325319D01*
X145738982Y-66319288D01*
X145714488Y-66310713D01*
X145693297Y-66299630D01*
X145675457Y-66286077D01*
X145661017Y-66270087D01*
X145650026Y-66251697D01*
X145642532Y-66230944D01*
X145641706Y-66227289D01*
X145640092Y-66214085D01*
X145639752Y-66198678D01*
X145640631Y-66182428D01*
X145642671Y-66166694D01*
X145645815Y-66152837D01*
X145647242Y-66148176D01*
X145654634Y-66127769D01*
X145663659Y-66107552D01*
X145673793Y-66088531D01*
X145684512Y-66071709D01*
X145695290Y-66058092D01*
X145704590Y-66049437D01*
X145719663Y-66039902D01*
X145725122Y-66037310D01*
X145731135Y-66034969D01*
X145736968Y-66033675D01*
X145744095Y-66033131D01*
X145753991Y-66033045D01*
X145758893Y-66033089D01*
G37*
G36*
X143903430Y-64740577D02*
G01*
X143901516Y-64746331D01*
X143898380Y-64755510D01*
X143894120Y-64767830D01*
X143888837Y-64783006D01*
X143882628Y-64800755D01*
X143875594Y-64820794D01*
X143867833Y-64842839D01*
X143859445Y-64866606D01*
X143850529Y-64891812D01*
X143841184Y-64918173D01*
X143832065Y-64943883D01*
X143823059Y-64969299D01*
X143814546Y-64993348D01*
X143806629Y-65015738D01*
X143799411Y-65036179D01*
X143792995Y-65054377D01*
X143787484Y-65070043D01*
X143782979Y-65082883D01*
X143779585Y-65092607D01*
X143777404Y-65098923D01*
X143776539Y-65101539D01*
X143775388Y-65105988D01*
X143798357Y-65102030D01*
X143814194Y-65099401D01*
X143879906Y-65090462D01*
X143948322Y-65084155D01*
X144018963Y-65080457D01*
X144091350Y-65079343D01*
X144165004Y-65080791D01*
X144239447Y-65084777D01*
X144314199Y-65091276D01*
X144388781Y-65100266D01*
X144462714Y-65111722D01*
X144535520Y-65125622D01*
X144606719Y-65141941D01*
X144612404Y-65143373D01*
X144626617Y-65147058D01*
X144641798Y-65151113D01*
X144657383Y-65155377D01*
X144672810Y-65159689D01*
X144687515Y-65163886D01*
X144700933Y-65167807D01*
X144712503Y-65171289D01*
X144721659Y-65174171D01*
X144727839Y-65176292D01*
X144730479Y-65177488D01*
X144730096Y-65178203D01*
X144726848Y-65178609D01*
X144726407Y-65178627D01*
X144721649Y-65179479D01*
X144714484Y-65181355D01*
X144706284Y-65183903D01*
X144701923Y-65185310D01*
X144695584Y-65187024D01*
X144689191Y-65188152D01*
X144681696Y-65188813D01*
X144672051Y-65189125D01*
X144659210Y-65189206D01*
X144647902Y-65189238D01*
X144610289Y-65189685D01*
X144569313Y-65190638D01*
X144525356Y-65192069D01*
X144478798Y-65193947D01*
X144430020Y-65196243D01*
X144379401Y-65198928D01*
X144327322Y-65201974D01*
X144274163Y-65205351D01*
X144220304Y-65209029D01*
X144166127Y-65212980D01*
X144112010Y-65217174D01*
X144058336Y-65221582D01*
X144005482Y-65226175D01*
X143953832Y-65230923D01*
X143903763Y-65235799D01*
X143855657Y-65240771D01*
X143809894Y-65245812D01*
X143766855Y-65250891D01*
X143726919Y-65255981D01*
X143690468Y-65261051D01*
X143657880Y-65266072D01*
X143655424Y-65266466D01*
X143647871Y-65267572D01*
X143642407Y-65268212D01*
X143640078Y-65268256D01*
X143640299Y-65267465D01*
X143641836Y-65263135D01*
X143644748Y-65255249D01*
X143648943Y-65244051D01*
X143654327Y-65229785D01*
X143660809Y-65212696D01*
X143668294Y-65193028D01*
X143676689Y-65171025D01*
X143685903Y-65146931D01*
X143695841Y-65120992D01*
X143706410Y-65093451D01*
X143717518Y-65064553D01*
X143729072Y-65034542D01*
X143818885Y-64801417D01*
X143861125Y-64769611D01*
X143870481Y-64762596D01*
X143881175Y-64754659D01*
X143890338Y-64747949D01*
X143897508Y-64742801D01*
X143902223Y-64739550D01*
X143904022Y-64738529D01*
X143903430Y-64740577D01*
G37*
G36*
X145601954Y-64738861D02*
G01*
X145606056Y-64741744D01*
X145612716Y-64746591D01*
X145621459Y-64753052D01*
X145631812Y-64760780D01*
X145643302Y-64769427D01*
X145653046Y-64776824D01*
X145664424Y-64785621D01*
X145673054Y-64792567D01*
X145679352Y-64798026D01*
X145683730Y-64802363D01*
X145686603Y-64805942D01*
X145688385Y-64809128D01*
X145689534Y-64811927D01*
X145692124Y-64818466D01*
X145695969Y-64828291D01*
X145700954Y-64841099D01*
X145706962Y-64856588D01*
X145713877Y-64874459D01*
X145721585Y-64894408D01*
X145729968Y-64916135D01*
X145738911Y-64939337D01*
X145748299Y-64963714D01*
X145758015Y-64988963D01*
X145767944Y-65014784D01*
X145777970Y-65040874D01*
X145787976Y-65066932D01*
X145797848Y-65092657D01*
X145807469Y-65117747D01*
X145816724Y-65141900D01*
X145825496Y-65164814D01*
X145833670Y-65186189D01*
X145841130Y-65205723D01*
X145847760Y-65223114D01*
X145853444Y-65238061D01*
X145858067Y-65250261D01*
X145861512Y-65259415D01*
X145863664Y-65265219D01*
X145864407Y-65267372D01*
X145863786Y-65267854D01*
X145860143Y-65267986D01*
X145854325Y-65267211D01*
X145849665Y-65266404D01*
X145839729Y-65264874D01*
X145826522Y-65262979D01*
X145810602Y-65260791D01*
X145792529Y-65258383D01*
X145772861Y-65255827D01*
X145752159Y-65253196D01*
X145730981Y-65250563D01*
X145709885Y-65247998D01*
X145689433Y-65245576D01*
X145670182Y-65243368D01*
X145623555Y-65238291D01*
X145570389Y-65232869D01*
X145515587Y-65227635D01*
X145459567Y-65222618D01*
X145402746Y-65217843D01*
X145345542Y-65213339D01*
X145288371Y-65209134D01*
X145231651Y-65205253D01*
X145175799Y-65201726D01*
X145121233Y-65198578D01*
X145068369Y-65195838D01*
X145017626Y-65193532D01*
X144969419Y-65191689D01*
X144924168Y-65190336D01*
X144882289Y-65189499D01*
X144844198Y-65189206D01*
X144836997Y-65189186D01*
X144825887Y-65189012D01*
X144817730Y-65188588D01*
X144811675Y-65187827D01*
X144806871Y-65186643D01*
X144802468Y-65184947D01*
X144800191Y-65184014D01*
X144791242Y-65181141D01*
X144782633Y-65179303D01*
X144772427Y-65177908D01*
X144784032Y-65173941D01*
X144792199Y-65171282D01*
X144804747Y-65167447D01*
X144819816Y-65163022D01*
X144836553Y-65158248D01*
X144854103Y-65153365D01*
X144871613Y-65148612D01*
X144888227Y-65144231D01*
X144903092Y-65140461D01*
X144925850Y-65134996D01*
X144996407Y-65119906D01*
X145068503Y-65107163D01*
X145141648Y-65096792D01*
X145215352Y-65088815D01*
X145289125Y-65083257D01*
X145362476Y-65080140D01*
X145434914Y-65079488D01*
X145505950Y-65081326D01*
X145575093Y-65085675D01*
X145641852Y-65092560D01*
X145705737Y-65102004D01*
X145713574Y-65103275D01*
X145721334Y-65104339D01*
X145726609Y-65104827D01*
X145728556Y-65104639D01*
X145728549Y-65104600D01*
X145727722Y-65102070D01*
X145725594Y-65095857D01*
X145722262Y-65086242D01*
X145717825Y-65073510D01*
X145712382Y-65057941D01*
X145706033Y-65039818D01*
X145698875Y-65019423D01*
X145691009Y-64997038D01*
X145682532Y-64972946D01*
X145673543Y-64947429D01*
X145664143Y-64920769D01*
X145663082Y-64917763D01*
X145653745Y-64891257D01*
X145644853Y-64865949D01*
X145636503Y-64842118D01*
X145628792Y-64820044D01*
X145621817Y-64800006D01*
X145615675Y-64782284D01*
X145610462Y-64767158D01*
X145606275Y-64754906D01*
X145603213Y-64745809D01*
X145601370Y-64740146D01*
X145600845Y-64738196D01*
X145601954Y-64738861D01*
G37*
G36*
X143459190Y-65634052D02*
G01*
X143459460Y-65636007D01*
X143459711Y-65640116D01*
X143459942Y-65646495D01*
X143460156Y-65655259D01*
X143460351Y-65666523D01*
X143460529Y-65680404D01*
X143460691Y-65697017D01*
X143460837Y-65716477D01*
X143460966Y-65738901D01*
X143461081Y-65764403D01*
X143461182Y-65793100D01*
X143461269Y-65825106D01*
X143461342Y-65860539D01*
X143461402Y-65899512D01*
X143461451Y-65942142D01*
X143461487Y-65988545D01*
X143461513Y-66038835D01*
X143461528Y-66093129D01*
X143461532Y-66151542D01*
X143461533Y-66159426D01*
X143461538Y-66205766D01*
X143461553Y-66250954D01*
X143461575Y-66294807D01*
X143461604Y-66337145D01*
X143461641Y-66377786D01*
X143461685Y-66416550D01*
X143461736Y-66453254D01*
X143461792Y-66487718D01*
X143461854Y-66519759D01*
X143461922Y-66549198D01*
X143461994Y-66575852D01*
X143462071Y-66599541D01*
X143462153Y-66620082D01*
X143462238Y-66637295D01*
X143462327Y-66650999D01*
X143462418Y-66661012D01*
X143462513Y-66667152D01*
X143462610Y-66669240D01*
X143463577Y-66668675D01*
X143467789Y-66665992D01*
X143475095Y-66661254D01*
X143485237Y-66654632D01*
X143497956Y-66646297D01*
X143512991Y-66636418D01*
X143530084Y-66625166D01*
X143548976Y-66612712D01*
X143569407Y-66599226D01*
X143591119Y-66584878D01*
X143613851Y-66569839D01*
X143764014Y-66470438D01*
X143765076Y-66822825D01*
X143766137Y-67175212D01*
X143916479Y-67075735D01*
X143932646Y-67065042D01*
X143954692Y-67050471D01*
X143975531Y-67036711D01*
X143994903Y-67023932D01*
X144012550Y-67012305D01*
X144028214Y-67002000D01*
X144041635Y-66993187D01*
X144052555Y-66986036D01*
X144060715Y-66980718D01*
X144065857Y-66977402D01*
X144067720Y-66976259D01*
X144067749Y-66976401D01*
X144067857Y-66979539D01*
X144067961Y-66986599D01*
X144068058Y-66997332D01*
X144068148Y-67011489D01*
X144068231Y-67028824D01*
X144068306Y-67049086D01*
X144068371Y-67072028D01*
X144068428Y-67097402D01*
X144068473Y-67124958D01*
X144068508Y-67154449D01*
X144068531Y-67185627D01*
X144068541Y-67218242D01*
X144068537Y-67252046D01*
X144068456Y-67527834D01*
X144029798Y-67488552D01*
X144025614Y-67484289D01*
X143970323Y-67425950D01*
X143915143Y-67364068D01*
X143860570Y-67299266D01*
X143807103Y-67232167D01*
X143755239Y-67163394D01*
X143705475Y-67093569D01*
X143658308Y-67023317D01*
X143646490Y-67005011D01*
X143585675Y-66906169D01*
X143528431Y-66805046D01*
X143474765Y-66701663D01*
X143424687Y-66596042D01*
X143378205Y-66488205D01*
X143335326Y-66378171D01*
X143296060Y-66265964D01*
X143260416Y-66151605D01*
X143228400Y-66035114D01*
X143200022Y-65916513D01*
X143175291Y-65795823D01*
X143173520Y-65786375D01*
X143168897Y-65761231D01*
X143165160Y-65740094D01*
X143162294Y-65722868D01*
X143160284Y-65709455D01*
X143159116Y-65699759D01*
X143158775Y-65693682D01*
X143159245Y-65691127D01*
X143160191Y-65690733D01*
X143164879Y-65689478D01*
X143173042Y-65687583D01*
X143184236Y-65685136D01*
X143198015Y-65682228D01*
X143213935Y-65678949D01*
X143231551Y-65675387D01*
X143250419Y-65671632D01*
X143270094Y-65667775D01*
X143290131Y-65663904D01*
X143310085Y-65660109D01*
X143329513Y-65656480D01*
X143347969Y-65653106D01*
X143356064Y-65651646D01*
X143381635Y-65647056D01*
X143403800Y-65643112D01*
X143422431Y-65639835D01*
X143437401Y-65637247D01*
X143448581Y-65635372D01*
X143455844Y-65634230D01*
X143459061Y-65633844D01*
X143459190Y-65634052D01*
G37*
G36*
X144066904Y-65556660D02*
G01*
X144067117Y-65561768D01*
X144067328Y-65570769D01*
X144067535Y-65583468D01*
X144067735Y-65599669D01*
X144067929Y-65619177D01*
X144068115Y-65641794D01*
X144068291Y-65667326D01*
X144068456Y-65695577D01*
X144068609Y-65726352D01*
X144068748Y-65759453D01*
X144068873Y-65794687D01*
X144068981Y-65831856D01*
X144069072Y-65870766D01*
X144069144Y-65911220D01*
X144069681Y-66266938D01*
X144221452Y-66166482D01*
X144373224Y-66066026D01*
X144374285Y-66418537D01*
X144375347Y-66771047D01*
X144525678Y-66671444D01*
X144541881Y-66660712D01*
X144563921Y-66646126D01*
X144584753Y-66632352D01*
X144604120Y-66619561D01*
X144621762Y-66607922D01*
X144637421Y-66597607D01*
X144650839Y-66588785D01*
X144661756Y-66581627D01*
X144669914Y-66576304D01*
X144675055Y-66572985D01*
X144676919Y-66571840D01*
X144676938Y-66571990D01*
X144677008Y-66575183D01*
X144677076Y-66582414D01*
X144677142Y-66593529D01*
X144677207Y-66608373D01*
X144677269Y-66626791D01*
X144677330Y-66648628D01*
X144677387Y-66673729D01*
X144677443Y-66701940D01*
X144677495Y-66733105D01*
X144677544Y-66767070D01*
X144677590Y-66803679D01*
X144677633Y-66842778D01*
X144677672Y-66884213D01*
X144677707Y-66927827D01*
X144677738Y-66973467D01*
X144677765Y-67020977D01*
X144677787Y-67070202D01*
X144677805Y-67120988D01*
X144677818Y-67173179D01*
X144677826Y-67226622D01*
X144677829Y-67281160D01*
X144677828Y-67295775D01*
X144677823Y-67350037D01*
X144677812Y-67403162D01*
X144677794Y-67454994D01*
X144677770Y-67505380D01*
X144677740Y-67554164D01*
X144677704Y-67601191D01*
X144677664Y-67646307D01*
X144677618Y-67689356D01*
X144677568Y-67730184D01*
X144677513Y-67768635D01*
X144677454Y-67804556D01*
X144677390Y-67837791D01*
X144677323Y-67868185D01*
X144677253Y-67895583D01*
X144677179Y-67919830D01*
X144677102Y-67940772D01*
X144677023Y-67958254D01*
X144676941Y-67972121D01*
X144676856Y-67982217D01*
X144676770Y-67988388D01*
X144676681Y-67990480D01*
X144675572Y-67989999D01*
X144671281Y-67987748D01*
X144664392Y-67983971D01*
X144655543Y-67979020D01*
X144645372Y-67973247D01*
X144628134Y-67963255D01*
X144593726Y-67942579D01*
X144557520Y-67919959D01*
X144520406Y-67895974D01*
X144483271Y-67871201D01*
X144447004Y-67846221D01*
X144412494Y-67821611D01*
X144375347Y-67794608D01*
X144374285Y-67283672D01*
X144373224Y-66772735D01*
X144222909Y-66872379D01*
X144206821Y-66883037D01*
X144184738Y-66897640D01*
X144163840Y-66911431D01*
X144144387Y-66924239D01*
X144126640Y-66935892D01*
X144110861Y-66946221D01*
X144097311Y-66955055D01*
X144086249Y-66962223D01*
X144077937Y-66967554D01*
X144072636Y-66970878D01*
X144070607Y-66972024D01*
X144070397Y-66970664D01*
X144070150Y-66965246D01*
X144069919Y-66955808D01*
X144069705Y-66942467D01*
X144069508Y-66925343D01*
X144069328Y-66904554D01*
X144069168Y-66880219D01*
X144069026Y-66852456D01*
X144068905Y-66821384D01*
X144068804Y-66787122D01*
X144068724Y-66749788D01*
X144068666Y-66709500D01*
X144068631Y-66666378D01*
X144068619Y-66620540D01*
X144068613Y-66583439D01*
X144068595Y-66546328D01*
X144068565Y-66510592D01*
X144068524Y-66476451D01*
X144068473Y-66444123D01*
X144068413Y-66413831D01*
X144068343Y-66385793D01*
X144068265Y-66360230D01*
X144068180Y-66337361D01*
X144068088Y-66317407D01*
X144067989Y-66300587D01*
X144067885Y-66287122D01*
X144067776Y-66277232D01*
X144067663Y-66271137D01*
X144067547Y-66269056D01*
X144066609Y-66269605D01*
X144062441Y-66272272D01*
X144055180Y-66277003D01*
X144045085Y-66283625D01*
X144032416Y-66291968D01*
X144017431Y-66301860D01*
X144000390Y-66313130D01*
X143981552Y-66325608D01*
X143961176Y-66339122D01*
X143939522Y-66353500D01*
X143916848Y-66368573D01*
X143901135Y-66379019D01*
X143879135Y-66393632D01*
X143858333Y-66407434D01*
X143838989Y-66420252D01*
X143821361Y-66431917D01*
X143805708Y-66442256D01*
X143792290Y-66451100D01*
X143781366Y-66458276D01*
X143773195Y-66463614D01*
X143768036Y-66466942D01*
X143766148Y-66468089D01*
X143766071Y-66466955D01*
X143765969Y-66461879D01*
X143765869Y-66452909D01*
X143765774Y-66440244D01*
X143765682Y-66424078D01*
X143765595Y-66404611D01*
X143765513Y-66382037D01*
X143765436Y-66356554D01*
X143765366Y-66328360D01*
X143765302Y-66297649D01*
X143765245Y-66264620D01*
X143765195Y-66229469D01*
X143765153Y-66192393D01*
X143765120Y-66153589D01*
X143765096Y-66113253D01*
X143765081Y-66071583D01*
X143765076Y-66028775D01*
X143765076Y-65589460D01*
X143769852Y-65588411D01*
X143774101Y-65587704D01*
X143782167Y-65586596D01*
X143793565Y-65585145D01*
X143807851Y-65583401D01*
X143824580Y-65581413D01*
X143843309Y-65579230D01*
X143863594Y-65576901D01*
X143884991Y-65574476D01*
X143907056Y-65572003D01*
X143929344Y-65569532D01*
X143951412Y-65567112D01*
X143972815Y-65564793D01*
X143993111Y-65562623D01*
X144011854Y-65560652D01*
X144028600Y-65558929D01*
X144042907Y-65557504D01*
X144054329Y-65556424D01*
X144062422Y-65555741D01*
X144066744Y-65555502D01*
X144066904Y-65556660D01*
G37*
G36*
X146381242Y-65368114D02*
G01*
X146380859Y-65372881D01*
X146379548Y-65388415D01*
X146378006Y-65405785D01*
X146376299Y-65424318D01*
X146374493Y-65443340D01*
X146372655Y-65462180D01*
X146370850Y-65480164D01*
X146369145Y-65496621D01*
X146367606Y-65510876D01*
X146366300Y-65522258D01*
X146365293Y-65530093D01*
X146364349Y-65536985D01*
X146363587Y-65543205D01*
X146363279Y-65546646D01*
X146362675Y-65548071D01*
X146359523Y-65548328D01*
X146359468Y-65548312D01*
X146355600Y-65547390D01*
X146348070Y-65545778D01*
X146337371Y-65543572D01*
X146323998Y-65540870D01*
X146308445Y-65537767D01*
X146291204Y-65534361D01*
X146272770Y-65530749D01*
X146253637Y-65527027D01*
X146234299Y-65523292D01*
X146215249Y-65519641D01*
X146196981Y-65516171D01*
X146179989Y-65512978D01*
X146164767Y-65510159D01*
X146021544Y-65485298D01*
X145845526Y-65458533D01*
X145668445Y-65435727D01*
X145490639Y-65416921D01*
X145312446Y-65402153D01*
X145134205Y-65391462D01*
X145122775Y-65390912D01*
X145090349Y-65389405D01*
X145060100Y-65388096D01*
X145031446Y-65386971D01*
X145003801Y-65386019D01*
X144976583Y-65385227D01*
X144949207Y-65384581D01*
X144921089Y-65384070D01*
X144891645Y-65383680D01*
X144860292Y-65383399D01*
X144826446Y-65383213D01*
X144789523Y-65383112D01*
X144748938Y-65383081D01*
X144735738Y-65383084D01*
X144690407Y-65383167D01*
X144648537Y-65383370D01*
X144609515Y-65383711D01*
X144572725Y-65384205D01*
X144537554Y-65384870D01*
X144503389Y-65385723D01*
X144469616Y-65386779D01*
X144435619Y-65388057D01*
X144400787Y-65389572D01*
X144364504Y-65391341D01*
X144326157Y-65393381D01*
X144285133Y-65395709D01*
X144229008Y-65399189D01*
X144080686Y-65410406D01*
X143931582Y-65424557D01*
X143782412Y-65441551D01*
X143633891Y-65461295D01*
X143486736Y-65483697D01*
X143341660Y-65508663D01*
X143199381Y-65536102D01*
X143194314Y-65537133D01*
X143179171Y-65540199D01*
X143165611Y-65542924D01*
X143154148Y-65545205D01*
X143145298Y-65546940D01*
X143139576Y-65548027D01*
X143137497Y-65548365D01*
X143137241Y-65547087D01*
X143136580Y-65542123D01*
X143135609Y-65533961D01*
X143134391Y-65523183D01*
X143132986Y-65510368D01*
X143131458Y-65496095D01*
X143129869Y-65480945D01*
X143128279Y-65465497D01*
X143126751Y-65450332D01*
X143125346Y-65436028D01*
X143124128Y-65423166D01*
X143122648Y-65406672D01*
X143120939Y-65386351D01*
X143119183Y-65364078D01*
X143117437Y-65340615D01*
X143527336Y-65340615D01*
X143528008Y-65344167D01*
X143531601Y-65350065D01*
X143537077Y-65354634D01*
X143543044Y-65356469D01*
X143545393Y-65356252D01*
X143551668Y-65355374D01*
X143560998Y-65353918D01*
X143572750Y-65351986D01*
X143586290Y-65349679D01*
X143600984Y-65347102D01*
X143655157Y-65337815D01*
X143755521Y-65322346D01*
X143859348Y-65308484D01*
X143966333Y-65296243D01*
X144076170Y-65285640D01*
X144188555Y-65276691D01*
X144303182Y-65269412D01*
X144419745Y-65263820D01*
X144537940Y-65259928D01*
X144657460Y-65257755D01*
X144778002Y-65257316D01*
X144899258Y-65258626D01*
X145020925Y-65261702D01*
X145142696Y-65266559D01*
X145244640Y-65272079D01*
X145362791Y-65280301D01*
X145477963Y-65290332D01*
X145589974Y-65302152D01*
X145698645Y-65315742D01*
X145803794Y-65331084D01*
X145905241Y-65348156D01*
X145910785Y-65349148D01*
X145924158Y-65351487D01*
X145936093Y-65353500D01*
X145945906Y-65355075D01*
X145952913Y-65356102D01*
X145956430Y-65356469D01*
X145959030Y-65356220D01*
X145965797Y-65353184D01*
X145970745Y-65347624D01*
X145972664Y-65340717D01*
X145972621Y-65340367D01*
X145971395Y-65336582D01*
X145968469Y-65329148D01*
X145963836Y-65318048D01*
X145957489Y-65303264D01*
X145949419Y-65284778D01*
X145939618Y-65262574D01*
X145928080Y-65236633D01*
X145914795Y-65206937D01*
X145899757Y-65173470D01*
X145882957Y-65136213D01*
X145864388Y-65095150D01*
X145844042Y-65050261D01*
X145843648Y-65049392D01*
X145828705Y-65016463D01*
X145814190Y-64984482D01*
X145800205Y-64953673D01*
X145786851Y-64924261D01*
X145774230Y-64896469D01*
X145762443Y-64870520D01*
X145751593Y-64846640D01*
X145741780Y-64825051D01*
X145733107Y-64805977D01*
X145725676Y-64789642D01*
X145719588Y-64776271D01*
X145714945Y-64766086D01*
X145711848Y-64759312D01*
X145710399Y-64756172D01*
X145706987Y-64750027D01*
X145701009Y-64743543D01*
X145692975Y-64739487D01*
X145681857Y-64737176D01*
X145677357Y-64736477D01*
X145670030Y-64734858D01*
X145664875Y-64733121D01*
X145662193Y-64731421D01*
X145656524Y-64727391D01*
X145648486Y-64721460D01*
X145638584Y-64714004D01*
X145627322Y-64705400D01*
X145615204Y-64696025D01*
X145570840Y-64661489D01*
X145543946Y-64656532D01*
X145532764Y-64654594D01*
X145509473Y-64651135D01*
X145483432Y-64647897D01*
X145455607Y-64644987D01*
X145426967Y-64642509D01*
X145398479Y-64640571D01*
X145394826Y-64640372D01*
X145376461Y-64639670D01*
X145354857Y-64639232D01*
X145330826Y-64639048D01*
X145305180Y-64639107D01*
X145278731Y-64639396D01*
X145252291Y-64639905D01*
X145226673Y-64640622D01*
X145202687Y-64641535D01*
X145181145Y-64642633D01*
X145162861Y-64643904D01*
X145139090Y-64646006D01*
X145073600Y-64653243D01*
X145009843Y-64662420D01*
X144948267Y-64673452D01*
X144889316Y-64686254D01*
X144833437Y-64700740D01*
X144781077Y-64716826D01*
X144749535Y-64727364D01*
X144739019Y-64723230D01*
X144738327Y-64722960D01*
X144728164Y-64719302D01*
X144714787Y-64714899D01*
X144699035Y-64710001D01*
X144681744Y-64704858D01*
X144663750Y-64699719D01*
X144645893Y-64694833D01*
X144629007Y-64690450D01*
X144584289Y-64679926D01*
X144536265Y-64670165D01*
X144486568Y-64661640D01*
X144434575Y-64654252D01*
X144379666Y-64647906D01*
X144321218Y-64642504D01*
X144307969Y-64641642D01*
X144290677Y-64640908D01*
X144270548Y-64640346D01*
X144248226Y-64639954D01*
X144224354Y-64639730D01*
X144199576Y-64639670D01*
X144174535Y-64639771D01*
X144149875Y-64640032D01*
X144126241Y-64640449D01*
X144104274Y-64641019D01*
X144084620Y-64641740D01*
X144067921Y-64642610D01*
X144054822Y-64643625D01*
X144045075Y-64644610D01*
X144024897Y-64646830D01*
X144005337Y-64649210D01*
X143986911Y-64651672D01*
X143970135Y-64654139D01*
X143955524Y-64656533D01*
X143943594Y-64658776D01*
X143934860Y-64660789D01*
X143929838Y-64662496D01*
X143927850Y-64663803D01*
X143922777Y-64667480D01*
X143915271Y-64673090D01*
X143905831Y-64680256D01*
X143894954Y-64688602D01*
X143883139Y-64697750D01*
X143873355Y-64705348D01*
X143862404Y-64713820D01*
X143852860Y-64721167D01*
X143845208Y-64727019D01*
X143839931Y-64731005D01*
X143837514Y-64732753D01*
X143837247Y-64732896D01*
X143833326Y-64734174D01*
X143826675Y-64735749D01*
X143818571Y-64737312D01*
X143810384Y-64739002D01*
X143802616Y-64741633D01*
X143797700Y-64744965D01*
X143796393Y-64747180D01*
X143793427Y-64753046D01*
X143788960Y-64762271D01*
X143783106Y-64774599D01*
X143775983Y-64789773D01*
X143767709Y-64807533D01*
X143758399Y-64827624D01*
X143748170Y-64849787D01*
X143737140Y-64873766D01*
X143725426Y-64899302D01*
X143713143Y-64926138D01*
X143700410Y-64954017D01*
X143687343Y-64982681D01*
X143674059Y-65011873D01*
X143660674Y-65041335D01*
X143647306Y-65070810D01*
X143634071Y-65100040D01*
X143621086Y-65128768D01*
X143608469Y-65156737D01*
X143596336Y-65183688D01*
X143584804Y-65209365D01*
X143573989Y-65233509D01*
X143564009Y-65255864D01*
X143554981Y-65276172D01*
X143547020Y-65294176D01*
X143540245Y-65309618D01*
X143534773Y-65322240D01*
X143530719Y-65331785D01*
X143528201Y-65337996D01*
X143527336Y-65340615D01*
X143117437Y-65340615D01*
X143117346Y-65339399D01*
X143115395Y-65311858D01*
X143113296Y-65280998D01*
X143111014Y-65246365D01*
X143110922Y-65244830D01*
X143110538Y-65235781D01*
X143110164Y-65222766D01*
X143109802Y-65206001D01*
X143109454Y-65185703D01*
X143109124Y-65162090D01*
X143108815Y-65135378D01*
X143108528Y-65105783D01*
X143108266Y-65073524D01*
X143108031Y-65038817D01*
X143107827Y-65001879D01*
X143107656Y-64962927D01*
X143106707Y-64716542D01*
X143111525Y-64703549D01*
X143114341Y-64697281D01*
X143122377Y-64685051D01*
X143132884Y-64673668D01*
X143144766Y-64664235D01*
X143156928Y-64657856D01*
X143157536Y-64657634D01*
X143164430Y-64655569D01*
X143175102Y-64652865D01*
X143189196Y-64649592D01*
X143206354Y-64645821D01*
X143226217Y-64641620D01*
X143248428Y-64637060D01*
X143272629Y-64632210D01*
X143298463Y-64627139D01*
X143325572Y-64621918D01*
X143353597Y-64616615D01*
X143382181Y-64611302D01*
X143410967Y-64606046D01*
X143439596Y-64600918D01*
X143467711Y-64595988D01*
X143494954Y-64591325D01*
X143520968Y-64586998D01*
X143609592Y-64573003D01*
X143737313Y-64554651D01*
X143864347Y-64538602D01*
X143991443Y-64524783D01*
X144119351Y-64513122D01*
X144248820Y-64503545D01*
X144380601Y-64495980D01*
X144515444Y-64490353D01*
X144521595Y-64490158D01*
X144539843Y-64489708D01*
X144561654Y-64489315D01*
X144586541Y-64488980D01*
X144614014Y-64488703D01*
X144643587Y-64488483D01*
X144674771Y-64488322D01*
X144707078Y-64488218D01*
X144740020Y-64488171D01*
X144773109Y-64488183D01*
X144805857Y-64488252D01*
X144837776Y-64488379D01*
X144868379Y-64488564D01*
X144897176Y-64488806D01*
X144923680Y-64489106D01*
X144947404Y-64489464D01*
X144967858Y-64489880D01*
X144984556Y-64490353D01*
X145016055Y-64491486D01*
X145157950Y-64497974D01*
X145296964Y-64506669D01*
X145433751Y-64517644D01*
X145568967Y-64530977D01*
X145703265Y-64546742D01*
X145837299Y-64565014D01*
X145971725Y-64585870D01*
X146107196Y-64609385D01*
X146244367Y-64635633D01*
X146254195Y-64637603D01*
X146276937Y-64642216D01*
X146296057Y-64646221D01*
X146311953Y-64649744D01*
X146325022Y-64652910D01*
X146335661Y-64655847D01*
X146344268Y-64658678D01*
X146351240Y-64661532D01*
X146356974Y-64664532D01*
X146361868Y-64667806D01*
X146366318Y-64671479D01*
X146370723Y-64675678D01*
X146375933Y-64681695D01*
X146382235Y-64690683D01*
X146387278Y-64699658D01*
X146394016Y-64713846D01*
X146394678Y-64864180D01*
X146394770Y-64889552D01*
X146394805Y-64950460D01*
X146394555Y-65007597D01*
X146394011Y-65061291D01*
X146393164Y-65111866D01*
X146392006Y-65159651D01*
X146390528Y-65204970D01*
X146388722Y-65248149D01*
X146386578Y-65289516D01*
X146384087Y-65329395D01*
X146383255Y-65340717D01*
X146381242Y-65368114D01*
G37*
G36*
X146152240Y-66414619D02*
G01*
X146108603Y-66522925D01*
X146061423Y-66629075D01*
X146010730Y-66733010D01*
X145956556Y-66834668D01*
X145898931Y-66933987D01*
X145837885Y-67030908D01*
X145773450Y-67125368D01*
X145705655Y-67217308D01*
X145634532Y-67306666D01*
X145560112Y-67393381D01*
X145531651Y-67424865D01*
X145463448Y-67496801D01*
X145392834Y-67566556D01*
X145320122Y-67633874D01*
X145245625Y-67698498D01*
X145169652Y-67760172D01*
X145092516Y-67818638D01*
X145014529Y-67873640D01*
X144936003Y-67924922D01*
X144857248Y-67972226D01*
X144848687Y-67977107D01*
X144839176Y-67982441D01*
X144831439Y-67986677D01*
X144826109Y-67989472D01*
X144823815Y-67990480D01*
X144823812Y-67990478D01*
X144823716Y-67988239D01*
X144823621Y-67981887D01*
X144823528Y-67971540D01*
X144823437Y-67957314D01*
X144823347Y-67939327D01*
X144823260Y-67917697D01*
X144823175Y-67892541D01*
X144823092Y-67863977D01*
X144823011Y-67832122D01*
X144822934Y-67797093D01*
X144822859Y-67759009D01*
X144822787Y-67717986D01*
X144822718Y-67674143D01*
X144822653Y-67627596D01*
X144822591Y-67578463D01*
X144822533Y-67526861D01*
X144822478Y-67472909D01*
X144822427Y-67416723D01*
X144822381Y-67358421D01*
X144822338Y-67298121D01*
X144822300Y-67235940D01*
X144822267Y-67171995D01*
X144822238Y-67106405D01*
X144822214Y-67039285D01*
X144822196Y-66970755D01*
X144822182Y-66900932D01*
X144822174Y-66829932D01*
X144822171Y-66757873D01*
X144822171Y-66336963D01*
X144928040Y-66336963D01*
X144946330Y-66345512D01*
X144964619Y-66354062D01*
X144963974Y-66362466D01*
X144963915Y-66363227D01*
X144963414Y-66367028D01*
X144962124Y-66369787D01*
X144959272Y-66372195D01*
X144954086Y-66374943D01*
X144945794Y-66378720D01*
X144928259Y-66386570D01*
X144928813Y-66394849D01*
X144929366Y-66403128D01*
X144949001Y-66409205D01*
X144968636Y-66415282D01*
X144968636Y-66423529D01*
X144968636Y-66423774D01*
X144968441Y-66427712D01*
X144967402Y-66430697D01*
X144964814Y-66433506D01*
X144959976Y-66436914D01*
X144952185Y-66441699D01*
X144948542Y-66443901D01*
X144941836Y-66447985D01*
X144937060Y-66450936D01*
X144935067Y-66452228D01*
X144934989Y-66452378D01*
X144935043Y-66455217D01*
X144935799Y-66460276D01*
X144937198Y-66467716D01*
X144957142Y-66471463D01*
X144963025Y-66472569D01*
X144970212Y-66474110D01*
X144974663Y-66475754D01*
X144977271Y-66478110D01*
X144978930Y-66481787D01*
X144980533Y-66487393D01*
X144980035Y-66489215D01*
X144976550Y-66493573D01*
X144970123Y-66499701D01*
X144961105Y-66507271D01*
X144949851Y-66515952D01*
X144949766Y-66516120D01*
X144950128Y-66518900D01*
X144951526Y-66523812D01*
X144953944Y-66531119D01*
X144974223Y-66532636D01*
X144994503Y-66534152D01*
X144997650Y-66541666D01*
X145000797Y-66549179D01*
X144986711Y-66563338D01*
X144982766Y-66567349D01*
X144977579Y-66572999D01*
X144974734Y-66576990D01*
X144973725Y-66580113D01*
X144974050Y-66583158D01*
X144975587Y-66587280D01*
X144977808Y-66590258D01*
X144978818Y-66590564D01*
X144983522Y-66591029D01*
X144990852Y-66591231D01*
X144999720Y-66591129D01*
X145019297Y-66590561D01*
X145022709Y-66597143D01*
X145024000Y-66599702D01*
X145024916Y-66602528D01*
X145024564Y-66605369D01*
X145022608Y-66609056D01*
X145018713Y-66614420D01*
X145012543Y-66622293D01*
X145001970Y-66635691D01*
X145005498Y-66643071D01*
X145006255Y-66644575D01*
X145009417Y-66648780D01*
X145012711Y-66649394D01*
X145013167Y-66649275D01*
X145017624Y-66648363D01*
X145024710Y-66647110D01*
X145033116Y-66645751D01*
X145040362Y-66644663D01*
X145046010Y-66644083D01*
X145049418Y-66644404D01*
X145051649Y-66645753D01*
X145053765Y-66648261D01*
X145056501Y-66652516D01*
X145057741Y-66655931D01*
X145057577Y-66656699D01*
X145055798Y-66660722D01*
X145052475Y-66666947D01*
X145048122Y-66674384D01*
X145043869Y-66681632D01*
X145040965Y-66687527D01*
X145039968Y-66691458D01*
X145040577Y-66694219D01*
X145040742Y-66694525D01*
X145043449Y-66698722D01*
X145046537Y-66701006D01*
X145050906Y-66701486D01*
X145057455Y-66700274D01*
X145067086Y-66697481D01*
X145085450Y-66691802D01*
X145091577Y-66697658D01*
X145097705Y-66703514D01*
X145089198Y-66722631D01*
X145080692Y-66741748D01*
X145085944Y-66746986D01*
X145091195Y-66752225D01*
X145108558Y-66744610D01*
X145112056Y-66743099D01*
X145119692Y-66739974D01*
X145125568Y-66737807D01*
X145128631Y-66736996D01*
X145128834Y-66737009D01*
X145132187Y-66738672D01*
X145136316Y-66742277D01*
X145141291Y-66747559D01*
X145135585Y-66765918D01*
X145129878Y-66784277D01*
X145134534Y-66789221D01*
X145134661Y-66789355D01*
X145138474Y-66792756D01*
X145141205Y-66794165D01*
X145141937Y-66793966D01*
X145145802Y-66792125D01*
X145151918Y-66788767D01*
X145159339Y-66784403D01*
X145175458Y-66774641D01*
X145182427Y-66778384D01*
X145184826Y-66779747D01*
X145187447Y-66781915D01*
X145188788Y-66784869D01*
X145188963Y-66789452D01*
X145188085Y-66796504D01*
X145186267Y-66806869D01*
X145185254Y-66812525D01*
X145184410Y-66818490D01*
X145184519Y-66822073D01*
X145185675Y-66824353D01*
X145187971Y-66826407D01*
X145191732Y-66828842D01*
X145195387Y-66830113D01*
X145196219Y-66829900D01*
X145200153Y-66827752D01*
X145206059Y-66823783D01*
X145213007Y-66818600D01*
X145227818Y-66807040D01*
X145235367Y-66810630D01*
X145242915Y-66814221D01*
X145242088Y-66834764D01*
X145242001Y-66836945D01*
X145241731Y-66845690D01*
X145241859Y-66851251D01*
X145242542Y-66854500D01*
X145243939Y-66856311D01*
X145246207Y-66857555D01*
X145246561Y-66857715D01*
X145250522Y-66859182D01*
X145253906Y-66859227D01*
X145257589Y-66857440D01*
X145262450Y-66853413D01*
X145269366Y-66846733D01*
X145282586Y-66833663D01*
X145290877Y-66836140D01*
X145292363Y-66836589D01*
X145296314Y-66838115D01*
X145298508Y-66840354D01*
X145299672Y-66844473D01*
X145300533Y-66851639D01*
X145301085Y-66857530D01*
X145301670Y-66865708D01*
X145301897Y-66871812D01*
X145301994Y-66874337D01*
X145303431Y-66878591D01*
X145307342Y-66881029D01*
X145307850Y-66881221D01*
X145312128Y-66882510D01*
X145315573Y-66882341D01*
X145319023Y-66880224D01*
X145323311Y-66875670D01*
X145329273Y-66868190D01*
X145334138Y-66862140D01*
X145339303Y-66856769D01*
X145343671Y-66854160D01*
X145348105Y-66853857D01*
X145353469Y-66855404D01*
X145354761Y-66855981D01*
X145356993Y-66857869D01*
X145358759Y-66861345D01*
X145360424Y-66867276D01*
X145362352Y-66876529D01*
X145366085Y-66895702D01*
X145373360Y-66897063D01*
X145374197Y-66897214D01*
X145379010Y-66897814D01*
X145381360Y-66897641D01*
X145381742Y-66897099D01*
X145383918Y-66893676D01*
X145387499Y-66887886D01*
X145391946Y-66880592D01*
X145401805Y-66864327D01*
X145409694Y-66865517D01*
X145410889Y-66865710D01*
X145416127Y-66866868D01*
X145418972Y-66868019D01*
X145419259Y-66868441D01*
X145420807Y-66872046D01*
X145423066Y-66878328D01*
X145425654Y-66886248D01*
X145427636Y-66892444D01*
X145429874Y-66898442D01*
X145431951Y-66901877D01*
X145434465Y-66903636D01*
X145438010Y-66904605D01*
X145438616Y-66904725D01*
X145443554Y-66905436D01*
X145446187Y-66905345D01*
X145446558Y-66904861D01*
X145448414Y-66901352D01*
X145451287Y-66895269D01*
X145454730Y-66887542D01*
X145462159Y-66870439D01*
X145471711Y-66870434D01*
X145481263Y-66870429D01*
X145489505Y-66888407D01*
X145491564Y-66892804D01*
X145495019Y-66899730D01*
X145497667Y-66904453D01*
X145499057Y-66906135D01*
X145501867Y-66905599D01*
X145507449Y-66904313D01*
X145511091Y-66902507D01*
X145513609Y-66899303D01*
X145515817Y-66893827D01*
X145518530Y-66885202D01*
X145524080Y-66867214D01*
X145532990Y-66866004D01*
X145541901Y-66864793D01*
X145551913Y-66881448D01*
X145552552Y-66882510D01*
X145557133Y-66889964D01*
X145560360Y-66894493D01*
X145562950Y-66896748D01*
X145565620Y-66897380D01*
X145569087Y-66897041D01*
X145569731Y-66896943D01*
X145574614Y-66896001D01*
X145577050Y-66895180D01*
X145577281Y-66894646D01*
X145578252Y-66890862D01*
X145579651Y-66884332D01*
X145581260Y-66876054D01*
X145584668Y-66857727D01*
X145592980Y-66855494D01*
X145594750Y-66855053D01*
X145600046Y-66854161D01*
X145603029Y-66854332D01*
X145603366Y-66854610D01*
X145605952Y-66857493D01*
X145610133Y-66862650D01*
X145615185Y-66869195D01*
X145618551Y-66873554D01*
X145623526Y-66879186D01*
X145627552Y-66882001D01*
X145631495Y-66882493D01*
X145636219Y-66881153D01*
X145637004Y-66880793D01*
X145638891Y-66878992D01*
X145640284Y-66875462D01*
X145641433Y-66869369D01*
X145642587Y-66859882D01*
X145644710Y-66840254D01*
X145652847Y-66837027D01*
X145660985Y-66833801D01*
X145675135Y-66847654D01*
X145689286Y-66861508D01*
X145695877Y-66858300D01*
X145702467Y-66855091D01*
X145701481Y-66835744D01*
X145700495Y-66816397D01*
X145706893Y-66812692D01*
X145707381Y-66812413D01*
X145712389Y-66809984D01*
X145715863Y-66808986D01*
X145716314Y-66809076D01*
X145719793Y-66810911D01*
X145725326Y-66814623D01*
X145731941Y-66819573D01*
X145733716Y-66820946D01*
X145740167Y-66825629D01*
X145745304Y-66828897D01*
X145748145Y-66830113D01*
X145751195Y-66829129D01*
X145755618Y-66826400D01*
X145757691Y-66824693D01*
X145759068Y-66822653D01*
X145759392Y-66819575D01*
X145758745Y-66814419D01*
X145757210Y-66806146D01*
X145755892Y-66799250D01*
X145754699Y-66792092D01*
X145754502Y-66787518D01*
X145755451Y-66784591D01*
X145757695Y-66782371D01*
X145761385Y-66779917D01*
X145768689Y-66775199D01*
X145784769Y-66784682D01*
X145787978Y-66786555D01*
X145794871Y-66790437D01*
X145799979Y-66793114D01*
X145802380Y-66794094D01*
X145802411Y-66794092D01*
X145805019Y-66792759D01*
X145809067Y-66789742D01*
X145814223Y-66785461D01*
X145809778Y-66771286D01*
X145807411Y-66763692D01*
X145805303Y-66756843D01*
X145804003Y-66752521D01*
X145803690Y-66750241D01*
X145805230Y-66746652D01*
X145809944Y-66742400D01*
X145817214Y-66736869D01*
X145834721Y-66744547D01*
X145852227Y-66752225D01*
X145857616Y-66746850D01*
X145863004Y-66741475D01*
X145855225Y-66724259D01*
X145847447Y-66707042D01*
X145852995Y-66699786D01*
X145854480Y-66697905D01*
X145857893Y-66694073D01*
X145859883Y-66692562D01*
X145860308Y-66692633D01*
X145863917Y-66693587D01*
X145870195Y-66695417D01*
X145878102Y-66697824D01*
X145894981Y-66703053D01*
X145899860Y-66698482D01*
X145899927Y-66698419D01*
X145903327Y-66694633D01*
X145904738Y-66691900D01*
X145904602Y-66691335D01*
X145902894Y-66687678D01*
X145899643Y-66681741D01*
X145895368Y-66674496D01*
X145885998Y-66659101D01*
X145891199Y-66651466D01*
X145893071Y-66648724D01*
X145895355Y-66645994D01*
X145897974Y-66644617D01*
X145901891Y-66644428D01*
X145908070Y-66645261D01*
X145917474Y-66646951D01*
X145923144Y-66647961D01*
X145929124Y-66648803D01*
X145932717Y-66648695D01*
X145935002Y-66647542D01*
X145937062Y-66645251D01*
X145939415Y-66641840D01*
X145940344Y-66638355D01*
X145939255Y-66634329D01*
X145935891Y-66628879D01*
X145929992Y-66621122D01*
X145919161Y-66607374D01*
X145922959Y-66598972D01*
X145926758Y-66590570D01*
X145945706Y-66591168D01*
X145950098Y-66591291D01*
X145957863Y-66591306D01*
X145962737Y-66590820D01*
X145965667Y-66589684D01*
X145967598Y-66587751D01*
X145969349Y-66584944D01*
X145970169Y-66581204D01*
X145968734Y-66577055D01*
X145964718Y-66571719D01*
X145957794Y-66564419D01*
X145945047Y-66551590D01*
X145948510Y-66542797D01*
X145951972Y-66534004D01*
X145970733Y-66532540D01*
X145989493Y-66531076D01*
X145991940Y-66523681D01*
X145992008Y-66523472D01*
X145993190Y-66517852D01*
X145992389Y-66514949D01*
X145992165Y-66514793D01*
X145989160Y-66512529D01*
X145983978Y-66508508D01*
X145977593Y-66503486D01*
X145964794Y-66493359D01*
X145966917Y-66484103D01*
X145969041Y-66474846D01*
X145987613Y-66471248D01*
X145996256Y-66469507D01*
X146001900Y-66468034D01*
X146005073Y-66466458D01*
X146006640Y-66464343D01*
X146007467Y-66461253D01*
X146008371Y-66456356D01*
X146008750Y-66453520D01*
X146008434Y-66453067D01*
X146005442Y-66450730D01*
X145999964Y-66447074D01*
X145992836Y-66442669D01*
X145976923Y-66433153D01*
X145978249Y-66423624D01*
X145978658Y-66420759D01*
X145979417Y-66415869D01*
X145979835Y-66413805D01*
X145980123Y-66413682D01*
X145983324Y-66412636D01*
X145989295Y-66410790D01*
X145997075Y-66408444D01*
X146014056Y-66403375D01*
X146014640Y-66394973D01*
X146015225Y-66386570D01*
X145998190Y-66378790D01*
X145981155Y-66371010D01*
X145981155Y-66362288D01*
X145981155Y-66353566D01*
X145998121Y-66345718D01*
X146015086Y-66337871D01*
X146014571Y-66329481D01*
X146014056Y-66321091D01*
X145998136Y-66316134D01*
X145996366Y-66315576D01*
X145988937Y-66313087D01*
X145983400Y-66310993D01*
X145980843Y-66309702D01*
X145980536Y-66309228D01*
X145979280Y-66305470D01*
X145978093Y-66299758D01*
X145976716Y-66291289D01*
X145992861Y-66281760D01*
X145994017Y-66281078D01*
X146001291Y-66276694D01*
X146005640Y-66273621D01*
X146007712Y-66271115D01*
X146008158Y-66268430D01*
X146007627Y-66264821D01*
X146007445Y-66263863D01*
X146006419Y-66259098D01*
X146005727Y-66256878D01*
X146005289Y-66256713D01*
X146001696Y-66255868D01*
X145995313Y-66254562D01*
X145987130Y-66253001D01*
X145969055Y-66249656D01*
X145966925Y-66240369D01*
X145964794Y-66231082D01*
X145977593Y-66220955D01*
X145978723Y-66220062D01*
X145984972Y-66215157D01*
X145989852Y-66211382D01*
X145992389Y-66209492D01*
X145992458Y-66209442D01*
X145993177Y-66206417D01*
X145991923Y-66200711D01*
X145989460Y-66193266D01*
X145970690Y-66191784D01*
X145951919Y-66190302D01*
X145948483Y-66181577D01*
X145945047Y-66172852D01*
X145958212Y-66159602D01*
X145971377Y-66146352D01*
X145967999Y-66139286D01*
X145964621Y-66132219D01*
X145945723Y-66133120D01*
X145926825Y-66134021D01*
X145922939Y-66125425D01*
X145919053Y-66116829D01*
X145930093Y-66102990D01*
X145934274Y-66097589D01*
X145938241Y-66091459D01*
X145939668Y-66086797D01*
X145938776Y-66082635D01*
X145935786Y-66078003D01*
X145934970Y-66077020D01*
X145933063Y-66075714D01*
X145930030Y-66075373D01*
X145924863Y-66075969D01*
X145916552Y-66077474D01*
X145914696Y-66077826D01*
X145906965Y-66079241D01*
X145901104Y-66080235D01*
X145898260Y-66080610D01*
X145897587Y-66080340D01*
X145894767Y-66077639D01*
X145891199Y-66072975D01*
X145885998Y-66065340D01*
X145895521Y-66049695D01*
X145905043Y-66034050D01*
X145900501Y-66027687D01*
X145899761Y-66026660D01*
X145896866Y-66022861D01*
X145895416Y-66021324D01*
X145894959Y-66021428D01*
X145891403Y-66022423D01*
X145885145Y-66024245D01*
X145877143Y-66026617D01*
X145873619Y-66027667D01*
X145866260Y-66029840D01*
X145861062Y-66031347D01*
X145858978Y-66031911D01*
X145858651Y-66031636D01*
X145856443Y-66029047D01*
X145852962Y-66024611D01*
X145847380Y-66017312D01*
X145852897Y-66005026D01*
X145856768Y-65996377D01*
X145859418Y-65989997D01*
X145860587Y-65985855D01*
X145860384Y-65983094D01*
X145858918Y-65980860D01*
X145856298Y-65978298D01*
X145850610Y-65972877D01*
X145833918Y-65980229D01*
X145817227Y-65987582D01*
X145810038Y-65982113D01*
X145808180Y-65980679D01*
X145804367Y-65977574D01*
X145802850Y-65976066D01*
X145802954Y-65975604D01*
X145803951Y-65972043D01*
X145805778Y-65965790D01*
X145808156Y-65957802D01*
X145809215Y-65954269D01*
X145811390Y-65946966D01*
X145812898Y-65941840D01*
X145813463Y-65939830D01*
X145813358Y-65939701D01*
X145811164Y-65937915D01*
X145807024Y-65934794D01*
X145800585Y-65930045D01*
X145784519Y-65939775D01*
X145768452Y-65949505D01*
X145761240Y-65944018D01*
X145758390Y-65941871D01*
X145755857Y-65939597D01*
X145754627Y-65937087D01*
X145754546Y-65933357D01*
X145755459Y-65927419D01*
X145757212Y-65918288D01*
X145757654Y-65915981D01*
X145759051Y-65908692D01*
X145760028Y-65903583D01*
X145760396Y-65901644D01*
X145760235Y-65901548D01*
X145757706Y-65900162D01*
X145753080Y-65897666D01*
X145745764Y-65893736D01*
X145732083Y-65904596D01*
X145730054Y-65906188D01*
X145723715Y-65910913D01*
X145718795Y-65914214D01*
X145716221Y-65915455D01*
X145715935Y-65915432D01*
X145712372Y-65914224D01*
X145707327Y-65911750D01*
X145700612Y-65908044D01*
X145701451Y-65889294D01*
X145702290Y-65870544D01*
X145695205Y-65867174D01*
X145688121Y-65863804D01*
X145674550Y-65877221D01*
X145660979Y-65890638D01*
X145652844Y-65887417D01*
X145644710Y-65884196D01*
X145642852Y-65865163D01*
X145640993Y-65846129D01*
X145633386Y-65843800D01*
X145632091Y-65843433D01*
X145627196Y-65842622D01*
X145624631Y-65843155D01*
X145624260Y-65843690D01*
X145620854Y-65848248D01*
X145616277Y-65854013D01*
X145611287Y-65860077D01*
X145606641Y-65865531D01*
X145603097Y-65869467D01*
X145601412Y-65870978D01*
X145601096Y-65870947D01*
X145597710Y-65870213D01*
X145592357Y-65868812D01*
X145589673Y-65868024D01*
X145586646Y-65866555D01*
X145584754Y-65863968D01*
X145583388Y-65859241D01*
X145581940Y-65851356D01*
X145580182Y-65841969D01*
X145578397Y-65835288D01*
X145576290Y-65831290D01*
X145573436Y-65829189D01*
X145569410Y-65828199D01*
X145569017Y-65828143D01*
X145565298Y-65827990D01*
X145562201Y-65829105D01*
X145559065Y-65832102D01*
X145555230Y-65837595D01*
X145550034Y-65846198D01*
X145547999Y-65849636D01*
X145544686Y-65854698D01*
X145541910Y-65857236D01*
X145538578Y-65858027D01*
X145533598Y-65857843D01*
X145524374Y-65857227D01*
X145518654Y-65839230D01*
X145512934Y-65821232D01*
X145504528Y-65820645D01*
X145496122Y-65820057D01*
X145488748Y-65837054D01*
X145481374Y-65854051D01*
X145472137Y-65854051D01*
X145462900Y-65854051D01*
X145455100Y-65837059D01*
X145447300Y-65820066D01*
X145438961Y-65820649D01*
X145430621Y-65821232D01*
X145425511Y-65838171D01*
X145424689Y-65840852D01*
X145422239Y-65848372D01*
X145420216Y-65853910D01*
X145418992Y-65856422D01*
X145418718Y-65856617D01*
X145415266Y-65857810D01*
X145409788Y-65858909D01*
X145408715Y-65859069D01*
X145405298Y-65859339D01*
X145402644Y-65858551D01*
X145400012Y-65856066D01*
X145396656Y-65851244D01*
X145391836Y-65843445D01*
X145386993Y-65835655D01*
X145383583Y-65830830D01*
X145380945Y-65828374D01*
X145378388Y-65827647D01*
X145375220Y-65828005D01*
X145370235Y-65829251D01*
X145367176Y-65830610D01*
X145366864Y-65831086D01*
X145365549Y-65834868D01*
X145363852Y-65841384D01*
X145362061Y-65849568D01*
X145360635Y-65856054D01*
X145358187Y-65863667D01*
X145355078Y-65868215D01*
X145350721Y-65870416D01*
X145344525Y-65870990D01*
X145344075Y-65870904D01*
X145340770Y-65868662D01*
X145335857Y-65863974D01*
X145330068Y-65857632D01*
X145324135Y-65850428D01*
X145318792Y-65843155D01*
X145318423Y-65842876D01*
X145315062Y-65842733D01*
X145309770Y-65843882D01*
X145304821Y-65845779D01*
X145302427Y-65848416D01*
X145301897Y-65853037D01*
X145301777Y-65856943D01*
X145301281Y-65864544D01*
X145300533Y-65872803D01*
X145300285Y-65875136D01*
X145299414Y-65881350D01*
X145298040Y-65884838D01*
X145295437Y-65886766D01*
X145290877Y-65888301D01*
X145282586Y-65890779D01*
X145269223Y-65877568D01*
X145255860Y-65864356D01*
X145248869Y-65867202D01*
X145241878Y-65870047D01*
X145242285Y-65890187D01*
X145242692Y-65910326D01*
X145235346Y-65913821D01*
X145227999Y-65917316D01*
X145213139Y-65905799D01*
X145210080Y-65903451D01*
X145203743Y-65898754D01*
X145199041Y-65895499D01*
X145196818Y-65894281D01*
X145196687Y-65894294D01*
X145193874Y-65895613D01*
X145189497Y-65898443D01*
X145183637Y-65902606D01*
X145186404Y-65918029D01*
X145187528Y-65924409D01*
X145188762Y-65932654D01*
X145188990Y-65938088D01*
X145188091Y-65941565D01*
X145185943Y-65943937D01*
X145182427Y-65946057D01*
X145175458Y-65949800D01*
X145159148Y-65939923D01*
X145142837Y-65930045D01*
X145136341Y-65934836D01*
X145135196Y-65935725D01*
X145131671Y-65939282D01*
X145130663Y-65941833D01*
X145130808Y-65942252D01*
X145132012Y-65946074D01*
X145133975Y-65952534D01*
X145136351Y-65960498D01*
X145141221Y-65976957D01*
X145136282Y-65982201D01*
X145135937Y-65982561D01*
X145131903Y-65986023D01*
X145128883Y-65987446D01*
X145128188Y-65987332D01*
X145124068Y-65985993D01*
X145117524Y-65983467D01*
X145109618Y-65980152D01*
X145092813Y-65972859D01*
X145087153Y-65978261D01*
X145081493Y-65983664D01*
X145088765Y-66000611D01*
X145090132Y-66003784D01*
X145093340Y-66011132D01*
X145095778Y-66016576D01*
X145097003Y-66019117D01*
X145097063Y-66019611D01*
X145095450Y-66022531D01*
X145091792Y-66026579D01*
X145085615Y-66032482D01*
X145067676Y-66026903D01*
X145063975Y-66025757D01*
X145056505Y-66023486D01*
X145051141Y-66021912D01*
X145048856Y-66021324D01*
X145048660Y-66021401D01*
X145046567Y-66023510D01*
X145043321Y-66027601D01*
X145038668Y-66033878D01*
X145048228Y-66050008D01*
X145050090Y-66053199D01*
X145054016Y-66060309D01*
X145056726Y-66065774D01*
X145057718Y-66068610D01*
X145056445Y-66071809D01*
X145053418Y-66076147D01*
X145051985Y-66077804D01*
X145049712Y-66079630D01*
X145046697Y-66080287D01*
X145041794Y-66079925D01*
X145033854Y-66078694D01*
X145033485Y-66078633D01*
X145025318Y-66077240D01*
X145018428Y-66075981D01*
X145014274Y-66075121D01*
X145012815Y-66074926D01*
X145009491Y-66076401D01*
X145006127Y-66081300D01*
X145002225Y-66088533D01*
X145014087Y-66103847D01*
X145016787Y-66107358D01*
X145021488Y-66113611D01*
X145024736Y-66118126D01*
X145025948Y-66120105D01*
X145025931Y-66120233D01*
X145024845Y-66122933D01*
X145022583Y-66127542D01*
X145019218Y-66134034D01*
X144998998Y-66133152D01*
X144978778Y-66132269D01*
X144975410Y-66139314D01*
X144972043Y-66146358D01*
X144986420Y-66160810D01*
X145000797Y-66175262D01*
X144997673Y-66182719D01*
X144994549Y-66190177D01*
X144974466Y-66191679D01*
X144954382Y-66193181D01*
X144952026Y-66200838D01*
X144951603Y-66202243D01*
X144950388Y-66206796D01*
X144950131Y-66208769D01*
X144950700Y-66209199D01*
X144953909Y-66211716D01*
X144959273Y-66215960D01*
X144966036Y-66221333D01*
X144971861Y-66226108D01*
X144977337Y-66231209D01*
X144980022Y-66234862D01*
X144980364Y-66237577D01*
X144979727Y-66239837D01*
X144978167Y-66245381D01*
X144976856Y-66247302D01*
X144973362Y-66249134D01*
X144967038Y-66250940D01*
X144957189Y-66252969D01*
X144937293Y-66256707D01*
X144936049Y-66264358D01*
X144935858Y-66265571D01*
X144935268Y-66270253D01*
X144935269Y-66272295D01*
X144943558Y-66277367D01*
X144953114Y-66283265D01*
X144959873Y-66287601D01*
X144964318Y-66290776D01*
X144966933Y-66293189D01*
X144968201Y-66295240D01*
X144968608Y-66297327D01*
X144968636Y-66299852D01*
X144968598Y-66302106D01*
X144968042Y-66305422D01*
X144966255Y-66307936D01*
X144962530Y-66310153D01*
X144956157Y-66312579D01*
X144946428Y-66315721D01*
X144929366Y-66321097D01*
X144928703Y-66329030D01*
X144928040Y-66336963D01*
X144822171Y-66336963D01*
X144822171Y-65525267D01*
X144888505Y-65526704D01*
X144974306Y-65528952D01*
X145118997Y-65534590D01*
X145260946Y-65542522D01*
X145400711Y-65552802D01*
X145538847Y-65565482D01*
X145675910Y-65580617D01*
X145812457Y-65598259D01*
X145949044Y-65618461D01*
X146086227Y-65641276D01*
X146091519Y-65642208D01*
X146110500Y-65645600D01*
X146130896Y-65649314D01*
X146152307Y-65653272D01*
X146174335Y-65657395D01*
X146196579Y-65661607D01*
X146218641Y-65665828D01*
X146240121Y-65669982D01*
X146260621Y-65673989D01*
X146279740Y-65677773D01*
X146297081Y-65681256D01*
X146312243Y-65684358D01*
X146324826Y-65687003D01*
X146334433Y-65689113D01*
X146340664Y-65690609D01*
X146343119Y-65691414D01*
X146343232Y-65692132D01*
X146342862Y-65696472D01*
X146341760Y-65704327D01*
X146340004Y-65715273D01*
X146337674Y-65728888D01*
X146334851Y-65744747D01*
X146331614Y-65762428D01*
X146328042Y-65781507D01*
X146324215Y-65801560D01*
X146320214Y-65822164D01*
X146316117Y-65842896D01*
X146312004Y-65863332D01*
X146307955Y-65883049D01*
X146304050Y-65901623D01*
X146300368Y-65918631D01*
X146290750Y-65961067D01*
X146261590Y-66077382D01*
X146228764Y-66191787D01*
X146192304Y-66304220D01*
X146162419Y-66386570D01*
X146152240Y-66414619D01*
G37*
M02*
