G04 #@! TF.GenerationSoftware,KiCad,Pcbnew,9.0.4*
G04 #@! TF.CreationDate,2025-12-19T23:39:26-05:00*
G04 #@! TF.ProjectId,AD5689RARUZ-RL7_breakboard,41443536-3839-4524-9152-555a2d524c37,rev?*
G04 #@! TF.SameCoordinates,Original*
G04 #@! TF.FileFunction,Copper,L1,Top*
G04 #@! TF.FilePolarity,Positive*
%FSLAX46Y46*%
G04 Gerber Fmt 4.6, Leading zero omitted, Abs format (unit mm)*
G04 Created by KiCad (PCBNEW 9.0.4) date 2025-12-19 23:39:26*
%MOMM*%
%LPD*%
G01*
G04 APERTURE LIST*
G04 Aperture macros list*
%AMRoundRect*
0 Rectangle with rounded corners*
0 $1 Rounding radius*
0 $2 $3 $4 $5 $6 $7 $8 $9 X,Y pos of 4 corners*
0 Add a 4 corners polygon primitive as box body*
4,1,4,$2,$3,$4,$5,$6,$7,$8,$9,$2,$3,0*
0 Add four circle primitives for the rounded corners*
1,1,$1+$1,$2,$3*
1,1,$1+$1,$4,$5*
1,1,$1+$1,$6,$7*
1,1,$1+$1,$8,$9*
0 Add four rect primitives between the rounded corners*
20,1,$1+$1,$2,$3,$4,$5,0*
20,1,$1+$1,$4,$5,$6,$7,0*
20,1,$1+$1,$6,$7,$8,$9,0*
20,1,$1+$1,$8,$9,$2,$3,0*%
G04 Aperture macros list end*
G04 #@! TA.AperFunction,SMDPad,CuDef*
%ADD10RoundRect,0.225000X0.250000X-0.225000X0.250000X0.225000X-0.250000X0.225000X-0.250000X-0.225000X0*%
G04 #@! TD*
G04 #@! TA.AperFunction,ComponentPad*
%ADD11R,1.700000X1.700000*%
G04 #@! TD*
G04 #@! TA.AperFunction,ComponentPad*
%ADD12C,1.700000*%
G04 #@! TD*
G04 #@! TA.AperFunction,SMDPad,CuDef*
%ADD13RoundRect,0.140000X0.170000X-0.140000X0.170000X0.140000X-0.170000X0.140000X-0.170000X-0.140000X0*%
G04 #@! TD*
G04 #@! TA.AperFunction,SMDPad,CuDef*
%ADD14R,1.473200X0.355600*%
G04 #@! TD*
G04 #@! TA.AperFunction,ViaPad*
%ADD15C,0.500000*%
G04 #@! TD*
G04 #@! TA.AperFunction,Conductor*
%ADD16C,0.200000*%
G04 #@! TD*
G04 APERTURE END LIST*
D10*
X138500000Y-74435000D03*
X138500000Y-72885000D03*
D11*
X153530000Y-64770000D03*
D12*
X153530000Y-67310000D03*
X153530000Y-69850000D03*
X153530000Y-72390000D03*
X153530000Y-74930000D03*
X153530000Y-77470000D03*
X153530000Y-80010000D03*
X153530000Y-82550000D03*
D13*
X140250000Y-74385000D03*
X140250000Y-73425000D03*
D11*
X135750000Y-67310000D03*
D12*
X135750000Y-69850000D03*
X135750000Y-72390000D03*
X135750000Y-74930000D03*
X135750000Y-77470000D03*
X135750000Y-80010000D03*
D14*
X141960600Y-71475001D03*
X141960600Y-72124999D03*
X141960600Y-72775001D03*
X141960600Y-73424999D03*
X141960600Y-74074998D03*
X141960600Y-74724999D03*
X141960600Y-75374998D03*
X141960600Y-76024999D03*
X147599400Y-76024999D03*
X147599400Y-75375001D03*
X147599400Y-74724999D03*
X147599400Y-74075001D03*
X147599400Y-73425002D03*
X147599400Y-72775001D03*
X147599400Y-72125002D03*
X147599400Y-71475001D03*
D15*
X151000000Y-71750000D03*
X136000000Y-83000000D03*
X143000000Y-83000000D03*
X143000000Y-64000000D03*
X136000000Y-64000000D03*
X150750000Y-78000000D03*
X151500000Y-76250000D03*
X137799000Y-72263000D03*
X152000000Y-72750000D03*
X150000000Y-83000000D03*
X150000000Y-64000000D03*
X150000000Y-70000000D03*
D16*
X141800599Y-73585000D02*
X140250000Y-73585000D01*
X139550000Y-72885000D02*
X138500000Y-72885000D01*
X135750000Y-72390000D02*
X136140000Y-72390000D01*
X141960600Y-73424999D02*
X141800599Y-73585000D01*
X138750000Y-72885000D02*
X138671000Y-72885000D01*
X138421000Y-72885000D02*
X137799000Y-72263000D01*
X140250000Y-73585000D02*
X139550000Y-72885000D01*
X140250000Y-74225000D02*
X141810598Y-74225000D01*
X136245000Y-74435000D02*
X135750000Y-74930000D01*
X140040000Y-74435000D02*
X140250000Y-74225000D01*
X138750000Y-74435000D02*
X140040000Y-74435000D01*
X138750000Y-74435000D02*
X136245000Y-74435000D01*
X140254997Y-74229997D02*
X140250000Y-74225000D01*
X141810598Y-74225000D02*
X141960600Y-74074998D01*
X137795599Y-67310000D02*
X141960600Y-71475001D01*
X135750000Y-67310000D02*
X137795599Y-67310000D01*
X141960600Y-72775001D02*
X140007101Y-72775001D01*
X140007101Y-72775001D02*
X137082100Y-69850000D01*
X137082100Y-69850000D02*
X135750000Y-69850000D01*
X135750000Y-77470000D02*
X137845002Y-75374998D01*
X137845002Y-75374998D02*
X141960600Y-75374998D01*
X154000000Y-64770000D02*
X147599400Y-71170600D01*
X147599400Y-71170600D02*
X147599400Y-71475001D01*
X154000000Y-82550000D02*
X147599400Y-76149400D01*
X147599400Y-76149400D02*
X147599400Y-76024999D01*
X148019998Y-76179998D02*
X147138800Y-76179998D01*
X149365001Y-75375001D02*
X147599400Y-75375001D01*
X154000000Y-80010000D02*
X149365001Y-75375001D01*
X154000000Y-67310000D02*
X149184998Y-72125002D01*
X149184998Y-72125002D02*
X147599400Y-72125002D01*
X151254999Y-74724999D02*
X147599400Y-74724999D01*
X154000000Y-77470000D02*
X151254999Y-74724999D01*
X135750000Y-80010000D02*
X139735001Y-76024999D01*
X139735001Y-76024999D02*
X141960600Y-76024999D01*
X153690000Y-74230000D02*
X154000000Y-74540000D01*
X153145001Y-74075001D02*
X147599400Y-74075001D01*
X154000000Y-74930000D02*
X153145001Y-74075001D01*
X154000000Y-72390000D02*
X152964998Y-73425002D01*
X152964998Y-73425002D02*
X147599400Y-73425002D01*
X151074999Y-72775001D02*
X147599400Y-72775001D01*
X154000000Y-69850000D02*
X151074999Y-72775001D01*
G04 #@! TA.AperFunction,Conductor*
G36*
X149256207Y-75695186D02*
G01*
X149276849Y-75711820D01*
X152722017Y-79156988D01*
X152755502Y-79218311D01*
X152750518Y-79288003D01*
X152722021Y-79332347D01*
X152714022Y-79340345D01*
X152599058Y-79512402D01*
X152519870Y-79703579D01*
X152519868Y-79703587D01*
X152479500Y-79906530D01*
X152479500Y-80113469D01*
X152521058Y-80322395D01*
X152519276Y-80322749D01*
X152519822Y-80384081D01*
X152482572Y-80443193D01*
X152419277Y-80472782D01*
X152350033Y-80463454D01*
X152312858Y-80437887D01*
X148432594Y-76557623D01*
X148399109Y-76496300D01*
X148404093Y-76426608D01*
X148445965Y-76370675D01*
X148451375Y-76366846D01*
X148480552Y-76347351D01*
X148524867Y-76281030D01*
X148524867Y-76281028D01*
X148524868Y-76281028D01*
X148536499Y-76222551D01*
X148536500Y-76222549D01*
X148536500Y-75827448D01*
X148536499Y-75827446D01*
X148535753Y-75823692D01*
X148535932Y-75821685D01*
X148535903Y-75821386D01*
X148535959Y-75821380D01*
X148541980Y-75754100D01*
X148584843Y-75698923D01*
X148650733Y-75675679D01*
X148657370Y-75675501D01*
X149189168Y-75675501D01*
X149256207Y-75695186D01*
G37*
G04 #@! TD.AperFunction*
G04 #@! TA.AperFunction,Conductor*
G36*
X151146205Y-75045184D02*
G01*
X151166847Y-75061818D01*
X151463681Y-75358652D01*
X151497166Y-75419975D01*
X151500000Y-75446333D01*
X151500000Y-75500000D01*
X151553667Y-75500000D01*
X151620706Y-75519685D01*
X151641348Y-75536319D01*
X152722017Y-76616988D01*
X152755502Y-76678311D01*
X152750518Y-76748003D01*
X152722021Y-76792347D01*
X152714022Y-76800345D01*
X152599058Y-76972402D01*
X152519870Y-77163579D01*
X152519868Y-77163587D01*
X152479500Y-77366530D01*
X152479500Y-77573469D01*
X152521058Y-77782395D01*
X152519276Y-77782749D01*
X152519822Y-77844081D01*
X152482572Y-77903193D01*
X152419277Y-77932782D01*
X152350033Y-77923454D01*
X152312858Y-77897887D01*
X149652151Y-75237180D01*
X149618666Y-75175857D01*
X149623650Y-75106165D01*
X149665522Y-75050232D01*
X149730986Y-75025815D01*
X149739832Y-75025499D01*
X151079166Y-75025499D01*
X151146205Y-75045184D01*
G37*
G04 #@! TD.AperFunction*
G04 #@! TA.AperFunction,Conductor*
G36*
X152413792Y-71931459D02*
G01*
X152443872Y-71933611D01*
X152447975Y-71936682D01*
X152453043Y-71937457D01*
X152475666Y-71957412D01*
X152499806Y-71975483D01*
X152501596Y-71980284D01*
X152505442Y-71983676D01*
X152513684Y-72012691D01*
X152524223Y-72040947D01*
X152523512Y-72047291D01*
X152524534Y-72050887D01*
X152520469Y-72077487D01*
X152521058Y-72077605D01*
X152479500Y-72286530D01*
X152479500Y-72493469D01*
X152519868Y-72696412D01*
X152519870Y-72696420D01*
X152585939Y-72855925D01*
X152599059Y-72887598D01*
X152612836Y-72908217D01*
X152628468Y-72931612D01*
X152649345Y-72998290D01*
X152630860Y-73065670D01*
X152578881Y-73112359D01*
X152525365Y-73124502D01*
X151449831Y-73124502D01*
X151382792Y-73104817D01*
X151337037Y-73052013D01*
X151327093Y-72982855D01*
X151356118Y-72919299D01*
X151362150Y-72912821D01*
X151836789Y-72438182D01*
X152312859Y-71962111D01*
X152317356Y-71959655D01*
X152320166Y-71955368D01*
X152347711Y-71943080D01*
X152374181Y-71928627D01*
X152379292Y-71928992D01*
X152383975Y-71926904D01*
X152413792Y-71931459D01*
G37*
G04 #@! TD.AperFunction*
G04 #@! TA.AperFunction,Conductor*
G36*
X152443873Y-69393610D02*
G01*
X152499806Y-69435482D01*
X152524223Y-69500946D01*
X152520139Y-69537422D01*
X152521058Y-69537605D01*
X152479500Y-69746530D01*
X152479500Y-69953469D01*
X152519868Y-70156412D01*
X152519870Y-70156420D01*
X152599058Y-70347596D01*
X152714024Y-70519657D01*
X152722016Y-70527649D01*
X152755501Y-70588972D01*
X152750517Y-70658664D01*
X152722016Y-70703011D01*
X150986847Y-72438182D01*
X150925524Y-72471667D01*
X150899166Y-72474501D01*
X149559832Y-72474501D01*
X149492793Y-72454816D01*
X149447038Y-72402012D01*
X149437094Y-72332854D01*
X149466119Y-72269298D01*
X149472151Y-72262820D01*
X150160948Y-71574023D01*
X152312860Y-69422109D01*
X152374181Y-69388626D01*
X152443873Y-69393610D01*
G37*
G04 #@! TD.AperFunction*
G04 #@! TA.AperFunction,Conductor*
G36*
X152443873Y-66853611D02*
G01*
X152499806Y-66895483D01*
X152524223Y-66960947D01*
X152520138Y-66997422D01*
X152521058Y-66997605D01*
X152479500Y-67206530D01*
X152479500Y-67413469D01*
X152519868Y-67616412D01*
X152519870Y-67616420D01*
X152599058Y-67807596D01*
X152714024Y-67979657D01*
X152722016Y-67987649D01*
X152755501Y-68048972D01*
X152750517Y-68118664D01*
X152722016Y-68163011D01*
X149096846Y-71788183D01*
X149035523Y-71821668D01*
X149009165Y-71824502D01*
X148657369Y-71824502D01*
X148590330Y-71804817D01*
X148544575Y-71752013D01*
X148534631Y-71682855D01*
X148535753Y-71676306D01*
X148536500Y-71672551D01*
X148536500Y-71277450D01*
X148536499Y-71277448D01*
X148524868Y-71218971D01*
X148524867Y-71218970D01*
X148480552Y-71152648D01*
X148414230Y-71108333D01*
X148368517Y-71099240D01*
X148306606Y-71066855D01*
X148272032Y-71006139D01*
X148275773Y-70936369D01*
X148305026Y-70889944D01*
X152312860Y-66882110D01*
X152374181Y-66848627D01*
X152443873Y-66853611D01*
G37*
G04 #@! TD.AperFunction*
G04 #@! TA.AperFunction,Conductor*
G36*
X136973306Y-70170185D02*
G01*
X136993948Y-70186819D01*
X138713681Y-71906552D01*
X138747166Y-71967875D01*
X138750000Y-71994233D01*
X138750000Y-72761000D01*
X138730315Y-72828039D01*
X138677511Y-72873794D01*
X138626000Y-72885000D01*
X138500000Y-72885000D01*
X138500000Y-73011000D01*
X138480315Y-73078039D01*
X138427511Y-73123794D01*
X138376000Y-73135000D01*
X137525001Y-73135000D01*
X137525001Y-73158322D01*
X137535144Y-73257607D01*
X137588452Y-73418481D01*
X137588457Y-73418492D01*
X137677424Y-73562728D01*
X137677427Y-73562732D01*
X137797266Y-73682571D01*
X137897840Y-73744606D01*
X137944564Y-73796554D01*
X137955787Y-73865517D01*
X137938604Y-73914716D01*
X137930890Y-73927361D01*
X137901472Y-73956780D01*
X137843262Y-74071022D01*
X137840793Y-74075071D01*
X137818304Y-74095501D01*
X137797442Y-74117591D01*
X137792527Y-74118920D01*
X137789078Y-74122054D01*
X137767646Y-74125650D01*
X137734932Y-74134500D01*
X136487916Y-74134500D01*
X136420877Y-74114815D01*
X136419026Y-74113602D01*
X136247600Y-73999059D01*
X136099769Y-73937826D01*
X136082890Y-73930834D01*
X136028488Y-73886994D01*
X136006423Y-73820700D01*
X136023702Y-73753001D01*
X136074839Y-73705390D01*
X136092026Y-73698343D01*
X136268217Y-73641095D01*
X136457554Y-73544622D01*
X136511716Y-73505270D01*
X136511717Y-73505270D01*
X135879408Y-72872962D01*
X135942993Y-72855925D01*
X136057007Y-72790099D01*
X136150099Y-72697007D01*
X136215925Y-72582993D01*
X136232962Y-72519408D01*
X136865270Y-73151717D01*
X136865270Y-73151716D01*
X136904622Y-73097554D01*
X137001095Y-72908217D01*
X137066757Y-72706130D01*
X137066757Y-72706127D01*
X137081718Y-72611677D01*
X137525000Y-72611677D01*
X137525000Y-72635000D01*
X138250000Y-72635000D01*
X138250000Y-71935000D01*
X138249999Y-71934999D01*
X138201693Y-71935000D01*
X138201675Y-71935001D01*
X138102392Y-71945144D01*
X137941518Y-71998452D01*
X137941507Y-71998457D01*
X137797271Y-72087424D01*
X137797267Y-72087427D01*
X137677427Y-72207267D01*
X137677424Y-72207271D01*
X137588457Y-72351507D01*
X137588452Y-72351518D01*
X137535144Y-72512393D01*
X137525000Y-72611677D01*
X137081718Y-72611677D01*
X137085289Y-72589130D01*
X137085289Y-72589129D01*
X137100000Y-72496247D01*
X137100000Y-72283753D01*
X137066757Y-72073872D01*
X137066757Y-72073869D01*
X137001095Y-71871782D01*
X136904624Y-71682449D01*
X136865270Y-71628282D01*
X136865269Y-71628282D01*
X136232962Y-72260590D01*
X136215925Y-72197007D01*
X136150099Y-72082993D01*
X136057007Y-71989901D01*
X135942993Y-71924075D01*
X135879409Y-71907037D01*
X136511716Y-71274728D01*
X136457550Y-71235375D01*
X136268216Y-71138904D01*
X136092026Y-71081656D01*
X136034350Y-71042218D01*
X136007152Y-70977860D01*
X136019067Y-70909013D01*
X136066311Y-70857538D01*
X136082882Y-70849168D01*
X136247598Y-70780941D01*
X136419655Y-70665977D01*
X136565977Y-70519655D01*
X136680941Y-70347598D01*
X136730875Y-70227046D01*
X136743418Y-70211481D01*
X136751723Y-70193297D01*
X136764893Y-70184832D01*
X136774716Y-70172644D01*
X136793683Y-70166331D01*
X136810501Y-70155523D01*
X136838061Y-70151560D01*
X136841010Y-70150579D01*
X136845436Y-70150500D01*
X136906267Y-70150500D01*
X136973306Y-70170185D01*
G37*
G04 #@! TD.AperFunction*
G04 #@! TA.AperFunction,Conductor*
G36*
X154756922Y-62251280D02*
G01*
X154847266Y-62261459D01*
X154874331Y-62267636D01*
X154953540Y-62295352D01*
X154978553Y-62307398D01*
X155049606Y-62352043D01*
X155071313Y-62369355D01*
X155130644Y-62428686D01*
X155147957Y-62450395D01*
X155192600Y-62521444D01*
X155204648Y-62546462D01*
X155232362Y-62625666D01*
X155238540Y-62652735D01*
X155248720Y-62743076D01*
X155249500Y-62756961D01*
X155249500Y-84493038D01*
X155248720Y-84506922D01*
X155248720Y-84506923D01*
X155238540Y-84597264D01*
X155232362Y-84624333D01*
X155204648Y-84703537D01*
X155192600Y-84728555D01*
X155147957Y-84799604D01*
X155130644Y-84821313D01*
X155071313Y-84880644D01*
X155049604Y-84897957D01*
X154978555Y-84942600D01*
X154953537Y-84954648D01*
X154874333Y-84982362D01*
X154847264Y-84988540D01*
X154767075Y-84997576D01*
X154756921Y-84998720D01*
X154743038Y-84999500D01*
X133756962Y-84999500D01*
X133743078Y-84998720D01*
X133730553Y-84997308D01*
X133652735Y-84988540D01*
X133625666Y-84982362D01*
X133546462Y-84954648D01*
X133521444Y-84942600D01*
X133450395Y-84897957D01*
X133428686Y-84880644D01*
X133369355Y-84821313D01*
X133352042Y-84799604D01*
X133307399Y-84728555D01*
X133295351Y-84703537D01*
X133267637Y-84624333D01*
X133261459Y-84597263D01*
X133251280Y-84506922D01*
X133250500Y-84493038D01*
X133250500Y-72283753D01*
X134400000Y-72283753D01*
X134400000Y-72496246D01*
X134433242Y-72706127D01*
X134433242Y-72706130D01*
X134498904Y-72908217D01*
X134595375Y-73097550D01*
X134634728Y-73151716D01*
X135267037Y-72519408D01*
X135284075Y-72582993D01*
X135349901Y-72697007D01*
X135442993Y-72790099D01*
X135557007Y-72855925D01*
X135620590Y-72872962D01*
X134988282Y-73505269D01*
X134988282Y-73505270D01*
X135042449Y-73544624D01*
X135231782Y-73641095D01*
X135407973Y-73698343D01*
X135465648Y-73737780D01*
X135492847Y-73802139D01*
X135480932Y-73870985D01*
X135433688Y-73922461D01*
X135417108Y-73930835D01*
X135252403Y-73999057D01*
X135080342Y-74114024D01*
X134934024Y-74260342D01*
X134819058Y-74432403D01*
X134739870Y-74623579D01*
X134739868Y-74623587D01*
X134699500Y-74826530D01*
X134699500Y-75033469D01*
X134739868Y-75236412D01*
X134739870Y-75236420D01*
X134819059Y-75427598D01*
X134867436Y-75500000D01*
X134934024Y-75599657D01*
X135080342Y-75745975D01*
X135080345Y-75745977D01*
X135252402Y-75860941D01*
X135443580Y-75940130D01*
X135646530Y-75980499D01*
X135646534Y-75980500D01*
X135646535Y-75980500D01*
X135853466Y-75980500D01*
X135853467Y-75980499D01*
X136056420Y-75940130D01*
X136247598Y-75860941D01*
X136419655Y-75745977D01*
X136565977Y-75599655D01*
X136680941Y-75427598D01*
X136760130Y-75236420D01*
X136800500Y-75033465D01*
X136800500Y-74859500D01*
X136820185Y-74792461D01*
X136872989Y-74746706D01*
X136924500Y-74735500D01*
X137734932Y-74735500D01*
X137749534Y-74739787D01*
X137764739Y-74739136D01*
X137782377Y-74749431D01*
X137801971Y-74755185D01*
X137812867Y-74767229D01*
X137825081Y-74774358D01*
X137845415Y-74803202D01*
X137892789Y-74896178D01*
X137905685Y-74964847D01*
X137879409Y-75029588D01*
X137822302Y-75069845D01*
X137813179Y-75071982D01*
X137813290Y-75072395D01*
X137805441Y-75074498D01*
X137805440Y-75074498D01*
X137774958Y-75082665D01*
X137729011Y-75094977D01*
X137729010Y-75094978D01*
X137704804Y-75108954D01*
X137695179Y-75114511D01*
X137687463Y-75118966D01*
X137660491Y-75134537D01*
X137660489Y-75134539D01*
X136312104Y-76482923D01*
X136250781Y-76516408D01*
X136181089Y-76511424D01*
X136176971Y-76509803D01*
X136056424Y-76459871D01*
X136056412Y-76459868D01*
X135853469Y-76419500D01*
X135853465Y-76419500D01*
X135646535Y-76419500D01*
X135646530Y-76419500D01*
X135443587Y-76459868D01*
X135443579Y-76459870D01*
X135252403Y-76539058D01*
X135080342Y-76654024D01*
X134934024Y-76800342D01*
X134819058Y-76972403D01*
X134739870Y-77163579D01*
X134739868Y-77163587D01*
X134699500Y-77366530D01*
X134699500Y-77573469D01*
X134739868Y-77776412D01*
X134739870Y-77776420D01*
X134819058Y-77967596D01*
X134934024Y-78139657D01*
X135080342Y-78285975D01*
X135080345Y-78285977D01*
X135252402Y-78400941D01*
X135443580Y-78480130D01*
X135646530Y-78520499D01*
X135646534Y-78520500D01*
X135646535Y-78520500D01*
X135853466Y-78520500D01*
X135853467Y-78520499D01*
X136056420Y-78480130D01*
X136247598Y-78400941D01*
X136419655Y-78285977D01*
X136565977Y-78139655D01*
X136680941Y-77967598D01*
X136760130Y-77776420D01*
X136800500Y-77573465D01*
X136800500Y-77366535D01*
X136760130Y-77163580D01*
X136710194Y-77043026D01*
X136702726Y-76973559D01*
X136734001Y-76911080D01*
X136737046Y-76907923D01*
X137933154Y-75711817D01*
X137994477Y-75678332D01*
X138020835Y-75675498D01*
X139360169Y-75675498D01*
X139427208Y-75695183D01*
X139472963Y-75747987D01*
X139482907Y-75817145D01*
X139453882Y-75880701D01*
X139447850Y-75887179D01*
X136312104Y-79022923D01*
X136250781Y-79056408D01*
X136181089Y-79051424D01*
X136176971Y-79049803D01*
X136056424Y-78999871D01*
X136056412Y-78999868D01*
X135853469Y-78959500D01*
X135853465Y-78959500D01*
X135646535Y-78959500D01*
X135646530Y-78959500D01*
X135443587Y-78999868D01*
X135443579Y-78999870D01*
X135252403Y-79079058D01*
X135080342Y-79194024D01*
X134934024Y-79340342D01*
X134819058Y-79512403D01*
X134739870Y-79703579D01*
X134739868Y-79703587D01*
X134699500Y-79906530D01*
X134699500Y-80113469D01*
X134739868Y-80316412D01*
X134739870Y-80316420D01*
X134819058Y-80507596D01*
X134934024Y-80679657D01*
X135080342Y-80825975D01*
X135080345Y-80825977D01*
X135252402Y-80940941D01*
X135443580Y-81020130D01*
X135646530Y-81060499D01*
X135646534Y-81060500D01*
X135646535Y-81060500D01*
X135853466Y-81060500D01*
X135853467Y-81060499D01*
X136056420Y-81020130D01*
X136247598Y-80940941D01*
X136419655Y-80825977D01*
X136565977Y-80679655D01*
X136680941Y-80507598D01*
X136760130Y-80316420D01*
X136800500Y-80113465D01*
X136800500Y-79906535D01*
X136760130Y-79703580D01*
X136710194Y-79583026D01*
X136702726Y-79513559D01*
X136734001Y-79451080D01*
X136737047Y-79447922D01*
X139823153Y-76361818D01*
X139884476Y-76328333D01*
X139910834Y-76325499D01*
X141009129Y-76325499D01*
X141076168Y-76345184D01*
X141078021Y-76346397D01*
X141079447Y-76347350D01*
X141079448Y-76347351D01*
X141145769Y-76391666D01*
X141145771Y-76391666D01*
X141145772Y-76391667D01*
X141145770Y-76391667D01*
X141204247Y-76403298D01*
X141204250Y-76403299D01*
X141204252Y-76403299D01*
X142716950Y-76403299D01*
X142716951Y-76403298D01*
X142734463Y-76399815D01*
X142775429Y-76391667D01*
X142775429Y-76391666D01*
X142775431Y-76391666D01*
X142841752Y-76347351D01*
X142886067Y-76281030D01*
X142886067Y-76281028D01*
X142886068Y-76281028D01*
X142897699Y-76222551D01*
X142897700Y-76222549D01*
X142897700Y-75827448D01*
X142897699Y-75827446D01*
X142886068Y-75768970D01*
X142886016Y-75768892D01*
X142885954Y-75768695D01*
X142881394Y-75757686D01*
X142882378Y-75757277D01*
X142865136Y-75702216D01*
X142881549Y-75642375D01*
X142881394Y-75642311D01*
X142881907Y-75641071D01*
X142883618Y-75634835D01*
X142885988Y-75631147D01*
X142886067Y-75631029D01*
X142897700Y-75572546D01*
X142897700Y-75177450D01*
X142897700Y-75177448D01*
X142897700Y-75177447D01*
X142897699Y-75177445D01*
X142886068Y-75118968D01*
X142886067Y-75118966D01*
X142886016Y-75118890D01*
X142885955Y-75118697D01*
X142881394Y-75107685D01*
X142882379Y-75107276D01*
X142865137Y-75052213D01*
X142881551Y-74992377D01*
X142881394Y-74992312D01*
X142881913Y-74991058D01*
X142883621Y-74984833D01*
X142886005Y-74981122D01*
X142886067Y-74981030D01*
X142897700Y-74922547D01*
X142897700Y-74527451D01*
X142897700Y-74527448D01*
X142897699Y-74527446D01*
X142886068Y-74468970D01*
X142886016Y-74468892D01*
X142885954Y-74468695D01*
X142881394Y-74457686D01*
X142882378Y-74457277D01*
X142865136Y-74402216D01*
X142881549Y-74342375D01*
X142881394Y-74342311D01*
X142881907Y-74341071D01*
X142883618Y-74334835D01*
X142885988Y-74331147D01*
X142886067Y-74331029D01*
X142897700Y-74272546D01*
X142897700Y-74139355D01*
X142917385Y-74072316D01*
X142947389Y-74040089D01*
X143054387Y-73959989D01*
X143054390Y-73959986D01*
X143140550Y-73844892D01*
X143140554Y-73844885D01*
X143190796Y-73710178D01*
X143190798Y-73710171D01*
X143197199Y-73650643D01*
X143197200Y-73650626D01*
X143197200Y-73602799D01*
X141190000Y-73602799D01*
X141154118Y-73638681D01*
X141092795Y-73672166D01*
X141066437Y-73675000D01*
X140374000Y-73675000D01*
X140306961Y-73655315D01*
X140261206Y-73602511D01*
X140250000Y-73551000D01*
X140250000Y-73299000D01*
X140269685Y-73231961D01*
X140322489Y-73186206D01*
X140374000Y-73175000D01*
X141066439Y-73175000D01*
X141133478Y-73194685D01*
X141154120Y-73211319D01*
X141190000Y-73247199D01*
X143197200Y-73247199D01*
X143197200Y-73199371D01*
X143197199Y-73199354D01*
X143190798Y-73139826D01*
X143190796Y-73139819D01*
X143140554Y-73005112D01*
X143140550Y-73005105D01*
X143054390Y-72890011D01*
X142947388Y-72809908D01*
X142905518Y-72753974D01*
X142897700Y-72710642D01*
X142897700Y-72577450D01*
X142897699Y-72577448D01*
X142886068Y-72518972D01*
X142886016Y-72518894D01*
X142885954Y-72518697D01*
X142881394Y-72507688D01*
X142882378Y-72507279D01*
X142865136Y-72452218D01*
X142881549Y-72392376D01*
X142881394Y-72392312D01*
X142881908Y-72391070D01*
X142883618Y-72384837D01*
X142886016Y-72381106D01*
X142886067Y-72381030D01*
X142891940Y-72351507D01*
X142895650Y-72332854D01*
X142897700Y-72322547D01*
X142897700Y-71927451D01*
X142897700Y-71927449D01*
X142897700Y-71927448D01*
X142897699Y-71927446D01*
X142886068Y-71868970D01*
X142886067Y-71868968D01*
X142886018Y-71868895D01*
X142885960Y-71868709D01*
X142881394Y-71857686D01*
X142882379Y-71857277D01*
X142865137Y-71802221D01*
X142881550Y-71742378D01*
X142881394Y-71742314D01*
X142881908Y-71741072D01*
X142883618Y-71734839D01*
X142886015Y-71731110D01*
X142886067Y-71731032D01*
X142888194Y-71720342D01*
X142897699Y-71672553D01*
X142897700Y-71672551D01*
X142897700Y-71277450D01*
X142897699Y-71277448D01*
X146662300Y-71277448D01*
X146662300Y-71672553D01*
X146673931Y-71731030D01*
X146673932Y-71731032D01*
X146673984Y-71731109D01*
X146674044Y-71731301D01*
X146678606Y-71742314D01*
X146677620Y-71742722D01*
X146694863Y-71797786D01*
X146678448Y-71857623D01*
X146678606Y-71857689D01*
X146678085Y-71858946D01*
X146676379Y-71865166D01*
X146673987Y-71868888D01*
X146673934Y-71868966D01*
X146673931Y-71868972D01*
X146662300Y-71927449D01*
X146662300Y-72322554D01*
X146673931Y-72381031D01*
X146673985Y-72381111D01*
X146674047Y-72381309D01*
X146678606Y-72392315D01*
X146677620Y-72392723D01*
X146694862Y-72447789D01*
X146678447Y-72507622D01*
X146678606Y-72507688D01*
X146678082Y-72508950D01*
X146676377Y-72515169D01*
X146673988Y-72518886D01*
X146673933Y-72518967D01*
X146673931Y-72518971D01*
X146662300Y-72577448D01*
X146662300Y-72972553D01*
X146673931Y-73031030D01*
X146673932Y-73031032D01*
X146673984Y-73031109D01*
X146674044Y-73031301D01*
X146678606Y-73042314D01*
X146677620Y-73042722D01*
X146694863Y-73097786D01*
X146678448Y-73157623D01*
X146678606Y-73157689D01*
X146678085Y-73158946D01*
X146676379Y-73165166D01*
X146673987Y-73168888D01*
X146673934Y-73168966D01*
X146673931Y-73168972D01*
X146662300Y-73227449D01*
X146662300Y-73622554D01*
X146673931Y-73681031D01*
X146673985Y-73681111D01*
X146674047Y-73681309D01*
X146678606Y-73692315D01*
X146677620Y-73692723D01*
X146694862Y-73747789D01*
X146678447Y-73807622D01*
X146678606Y-73807688D01*
X146678082Y-73808950D01*
X146676377Y-73815169D01*
X146673988Y-73818886D01*
X146673933Y-73818967D01*
X146673931Y-73818971D01*
X146662300Y-73877448D01*
X146662300Y-74272553D01*
X146673931Y-74331030D01*
X146673985Y-74331110D01*
X146674047Y-74331308D01*
X146678606Y-74342314D01*
X146677620Y-74342722D01*
X146694862Y-74397788D01*
X146678447Y-74457620D01*
X146678606Y-74457686D01*
X146678083Y-74458946D01*
X146676377Y-74465168D01*
X146673985Y-74468890D01*
X146673932Y-74468969D01*
X146673931Y-74468969D01*
X146662300Y-74527446D01*
X146662300Y-74922551D01*
X146673931Y-74981028D01*
X146673934Y-74981034D01*
X146673987Y-74981113D01*
X146674048Y-74981310D01*
X146678606Y-74992312D01*
X146677621Y-74992720D01*
X146694863Y-75047791D01*
X146678446Y-75107622D01*
X146678606Y-75107688D01*
X146678081Y-75108954D01*
X146676376Y-75115170D01*
X146673987Y-75118887D01*
X146673934Y-75118965D01*
X146673931Y-75118971D01*
X146662300Y-75177448D01*
X146662300Y-75572553D01*
X146673931Y-75631030D01*
X146673985Y-75631110D01*
X146674047Y-75631308D01*
X146678606Y-75642314D01*
X146677620Y-75642722D01*
X146694862Y-75697788D01*
X146678447Y-75757620D01*
X146678606Y-75757686D01*
X146678083Y-75758946D01*
X146676377Y-75765168D01*
X146673985Y-75768890D01*
X146673932Y-75768969D01*
X146673931Y-75768969D01*
X146662300Y-75827446D01*
X146662300Y-76222551D01*
X146673931Y-76281028D01*
X146673932Y-76281029D01*
X146718247Y-76347351D01*
X146784569Y-76391666D01*
X146784570Y-76391667D01*
X146843047Y-76403298D01*
X146843050Y-76403299D01*
X146843052Y-76403299D01*
X146891343Y-76403299D01*
X146953343Y-76419912D01*
X146954289Y-76420458D01*
X147022811Y-76460019D01*
X147099238Y-76480498D01*
X147454165Y-76480498D01*
X147521204Y-76500183D01*
X147541846Y-76516817D01*
X152722017Y-81696988D01*
X152755502Y-81758311D01*
X152750518Y-81828003D01*
X152722021Y-81872347D01*
X152714022Y-81880345D01*
X152599058Y-82052402D01*
X152519870Y-82243579D01*
X152519868Y-82243587D01*
X152479500Y-82446530D01*
X152479500Y-82653469D01*
X152519868Y-82856412D01*
X152519870Y-82856420D01*
X152599058Y-83047596D01*
X152714024Y-83219657D01*
X152860342Y-83365975D01*
X152860345Y-83365977D01*
X153032402Y-83480941D01*
X153223580Y-83560130D01*
X153426530Y-83600499D01*
X153426534Y-83600500D01*
X153426535Y-83600500D01*
X153633466Y-83600500D01*
X153633467Y-83600499D01*
X153836420Y-83560130D01*
X154027598Y-83480941D01*
X154199655Y-83365977D01*
X154345977Y-83219655D01*
X154460941Y-83047598D01*
X154540130Y-82856420D01*
X154580500Y-82653465D01*
X154580500Y-82446535D01*
X154540130Y-82243580D01*
X154460941Y-82052402D01*
X154345977Y-81880345D01*
X154345975Y-81880342D01*
X154199657Y-81734024D01*
X154113626Y-81676541D01*
X154027598Y-81619059D01*
X153836420Y-81539870D01*
X153836412Y-81539868D01*
X153633469Y-81499500D01*
X153633465Y-81499500D01*
X153426535Y-81499500D01*
X153425833Y-81499500D01*
X153358794Y-81479815D01*
X153338152Y-81463181D01*
X153102112Y-81227141D01*
X153068627Y-81165818D01*
X153073611Y-81096126D01*
X153115483Y-81040193D01*
X153180947Y-81015776D01*
X153217421Y-81019865D01*
X153217605Y-81018942D01*
X153426530Y-81060499D01*
X153426534Y-81060500D01*
X153426535Y-81060500D01*
X153633466Y-81060500D01*
X153633467Y-81060499D01*
X153836420Y-81020130D01*
X154027598Y-80940941D01*
X154199655Y-80825977D01*
X154345977Y-80679655D01*
X154460941Y-80507598D01*
X154540130Y-80316420D01*
X154580500Y-80113465D01*
X154580500Y-79906535D01*
X154540130Y-79703580D01*
X154460941Y-79512402D01*
X154345977Y-79340345D01*
X154345975Y-79340342D01*
X154199657Y-79194024D01*
X154032616Y-79082412D01*
X154027598Y-79079059D01*
X153836420Y-78999870D01*
X153836412Y-78999868D01*
X153633469Y-78959500D01*
X153633465Y-78959500D01*
X153426535Y-78959500D01*
X153425833Y-78959500D01*
X153358794Y-78939815D01*
X153338152Y-78923181D01*
X153102112Y-78687141D01*
X153068627Y-78625818D01*
X153073611Y-78556126D01*
X153115483Y-78500193D01*
X153180947Y-78475776D01*
X153217421Y-78479865D01*
X153217605Y-78478942D01*
X153426530Y-78520499D01*
X153426534Y-78520500D01*
X153426535Y-78520500D01*
X153633466Y-78520500D01*
X153633467Y-78520499D01*
X153836420Y-78480130D01*
X154027598Y-78400941D01*
X154199655Y-78285977D01*
X154345977Y-78139655D01*
X154460941Y-77967598D01*
X154540130Y-77776420D01*
X154580500Y-77573465D01*
X154580500Y-77366535D01*
X154540130Y-77163580D01*
X154460941Y-76972402D01*
X154345977Y-76800345D01*
X154345975Y-76800342D01*
X154199657Y-76654024D01*
X154032616Y-76542412D01*
X154027598Y-76539059D01*
X153973901Y-76516817D01*
X153836420Y-76459870D01*
X153836412Y-76459868D01*
X153633469Y-76419500D01*
X153633465Y-76419500D01*
X153426535Y-76419500D01*
X153425833Y-76419500D01*
X153358794Y-76399815D01*
X153338152Y-76383181D01*
X153102112Y-76147141D01*
X153068627Y-76085818D01*
X153073611Y-76016126D01*
X153115483Y-75960193D01*
X153180947Y-75935776D01*
X153217421Y-75939865D01*
X153217605Y-75938942D01*
X153426530Y-75980499D01*
X153426534Y-75980500D01*
X153426535Y-75980500D01*
X153633466Y-75980500D01*
X153633467Y-75980499D01*
X153836420Y-75940130D01*
X154027598Y-75860941D01*
X154199655Y-75745977D01*
X154345977Y-75599655D01*
X154460941Y-75427598D01*
X154540130Y-75236420D01*
X154580500Y-75033465D01*
X154580500Y-74826535D01*
X154540130Y-74623580D01*
X154460941Y-74432402D01*
X154345977Y-74260345D01*
X154345975Y-74260342D01*
X154199657Y-74114024D01*
X154089004Y-74040089D01*
X154027598Y-73999059D01*
X154027593Y-73999057D01*
X153836420Y-73919870D01*
X153836412Y-73919868D01*
X153633469Y-73879500D01*
X153633465Y-73879500D01*
X153426535Y-73879500D01*
X153425833Y-73879500D01*
X153358872Y-73859866D01*
X153347613Y-73852642D01*
X153329512Y-73834541D01*
X153302537Y-73818967D01*
X153260990Y-73794980D01*
X153255410Y-73793484D01*
X153242521Y-73785215D01*
X153226569Y-73766833D01*
X153207622Y-73751563D01*
X153204080Y-73740919D01*
X153196726Y-73732445D01*
X153193244Y-73708355D01*
X153185561Y-73685267D01*
X153188335Y-73674397D01*
X153186731Y-73663294D01*
X153196824Y-73641149D01*
X153202844Y-73617569D01*
X153214282Y-73602845D01*
X153215708Y-73599717D01*
X153217717Y-73598423D01*
X153221790Y-73593180D01*
X153338153Y-73476816D01*
X153399474Y-73443334D01*
X153425832Y-73440500D01*
X153633466Y-73440500D01*
X153633467Y-73440499D01*
X153836420Y-73400130D01*
X154027598Y-73320941D01*
X154199655Y-73205977D01*
X154345977Y-73059655D01*
X154460941Y-72887598D01*
X154540130Y-72696420D01*
X154580500Y-72493465D01*
X154580500Y-72286535D01*
X154540130Y-72083580D01*
X154460941Y-71892402D01*
X154345977Y-71720345D01*
X154345975Y-71720342D01*
X154199657Y-71574024D01*
X154113626Y-71516541D01*
X154027598Y-71459059D01*
X153836420Y-71379870D01*
X153836412Y-71379868D01*
X153633469Y-71339500D01*
X153633465Y-71339500D01*
X153426535Y-71339500D01*
X153426530Y-71339500D01*
X153217605Y-71381058D01*
X153217251Y-71379280D01*
X153155899Y-71379817D01*
X153096793Y-71342558D01*
X153067213Y-71279258D01*
X153076552Y-71210016D01*
X153102108Y-71172861D01*
X153338151Y-70936818D01*
X153399474Y-70903334D01*
X153425832Y-70900500D01*
X153633466Y-70900500D01*
X153633467Y-70900499D01*
X153836420Y-70860130D01*
X154027598Y-70780941D01*
X154199655Y-70665977D01*
X154345977Y-70519655D01*
X154460941Y-70347598D01*
X154540130Y-70156420D01*
X154580500Y-69953465D01*
X154580500Y-69746535D01*
X154540130Y-69543580D01*
X154460941Y-69352402D01*
X154345977Y-69180345D01*
X154345975Y-69180342D01*
X154199657Y-69034024D01*
X154113626Y-68976541D01*
X154027598Y-68919059D01*
X153836420Y-68839870D01*
X153836412Y-68839868D01*
X153633469Y-68799500D01*
X153633465Y-68799500D01*
X153426535Y-68799500D01*
X153426530Y-68799500D01*
X153217605Y-68841058D01*
X153217251Y-68839280D01*
X153155899Y-68839817D01*
X153096793Y-68802558D01*
X153067213Y-68739258D01*
X153076552Y-68670016D01*
X153102108Y-68632861D01*
X153338151Y-68396818D01*
X153399474Y-68363334D01*
X153425832Y-68360500D01*
X153633466Y-68360500D01*
X153633467Y-68360499D01*
X153836420Y-68320130D01*
X154027598Y-68240941D01*
X154199655Y-68125977D01*
X154345977Y-67979655D01*
X154460941Y-67807598D01*
X154540130Y-67616420D01*
X154580500Y-67413465D01*
X154580500Y-67206535D01*
X154540130Y-67003580D01*
X154460941Y-66812402D01*
X154345977Y-66640345D01*
X154345975Y-66640342D01*
X154199657Y-66494024D01*
X154031655Y-66381770D01*
X154027598Y-66379059D01*
X153836420Y-66299870D01*
X153836412Y-66299868D01*
X153633469Y-66259500D01*
X153633465Y-66259500D01*
X153426535Y-66259500D01*
X153426530Y-66259500D01*
X153217605Y-66301058D01*
X153217250Y-66299278D01*
X153155909Y-66299820D01*
X153096800Y-66262565D01*
X153067216Y-66199268D01*
X153076549Y-66130024D01*
X153102109Y-66092861D01*
X153338152Y-65856819D01*
X153399475Y-65823334D01*
X153425833Y-65820500D01*
X154399750Y-65820500D01*
X154399751Y-65820499D01*
X154414568Y-65817552D01*
X154458229Y-65808868D01*
X154458229Y-65808867D01*
X154458231Y-65808867D01*
X154524552Y-65764552D01*
X154568867Y-65698231D01*
X154568867Y-65698229D01*
X154568868Y-65698229D01*
X154580499Y-65639752D01*
X154580500Y-65639750D01*
X154580500Y-63900249D01*
X154580499Y-63900247D01*
X154568868Y-63841770D01*
X154568867Y-63841769D01*
X154524552Y-63775447D01*
X154458230Y-63731132D01*
X154458229Y-63731131D01*
X154399752Y-63719500D01*
X154399748Y-63719500D01*
X152660252Y-63719500D01*
X152660247Y-63719500D01*
X152601770Y-63731131D01*
X152601769Y-63731132D01*
X152535447Y-63775447D01*
X152491132Y-63841769D01*
X152491131Y-63841770D01*
X152479500Y-63900247D01*
X152479500Y-65639752D01*
X152491131Y-65698229D01*
X152491133Y-65698232D01*
X152496947Y-65706934D01*
X152517823Y-65773613D01*
X152499336Y-65840992D01*
X152481524Y-65863503D01*
X147419842Y-70925186D01*
X147419838Y-70925190D01*
X147414889Y-70930140D01*
X147358940Y-70986089D01*
X147326249Y-71042710D01*
X147320486Y-71049948D01*
X147299168Y-71064931D01*
X147280308Y-71082916D01*
X147270039Y-71085407D01*
X147263325Y-71090127D01*
X147247955Y-71090764D01*
X147223487Y-71096701D01*
X146843047Y-71096701D01*
X146784570Y-71108332D01*
X146784569Y-71108333D01*
X146718247Y-71152648D01*
X146673932Y-71218970D01*
X146673931Y-71218971D01*
X146662300Y-71277448D01*
X142897699Y-71277448D01*
X142886068Y-71218971D01*
X142886067Y-71218970D01*
X142841752Y-71152648D01*
X142775430Y-71108333D01*
X142775429Y-71108332D01*
X142716952Y-71096701D01*
X142716948Y-71096701D01*
X142058633Y-71096701D01*
X141991594Y-71077016D01*
X141970952Y-71060382D01*
X137980111Y-67069541D01*
X137980103Y-67069535D01*
X137911594Y-67029982D01*
X137911589Y-67029979D01*
X137886112Y-67023152D01*
X137835161Y-67009500D01*
X137835159Y-67009500D01*
X136924500Y-67009500D01*
X136857461Y-66989815D01*
X136811706Y-66937011D01*
X136800500Y-66885500D01*
X136800500Y-66440249D01*
X136800499Y-66440247D01*
X136788868Y-66381770D01*
X136788867Y-66381769D01*
X136744552Y-66315447D01*
X136678230Y-66271132D01*
X136678229Y-66271131D01*
X136619752Y-66259500D01*
X136619748Y-66259500D01*
X134880252Y-66259500D01*
X134880247Y-66259500D01*
X134821770Y-66271131D01*
X134821769Y-66271132D01*
X134755447Y-66315447D01*
X134711132Y-66381769D01*
X134711131Y-66381770D01*
X134699500Y-66440247D01*
X134699500Y-68179752D01*
X134711131Y-68238229D01*
X134711132Y-68238230D01*
X134755447Y-68304552D01*
X134821769Y-68348867D01*
X134821770Y-68348868D01*
X134880247Y-68360499D01*
X134880250Y-68360500D01*
X134880252Y-68360500D01*
X136619750Y-68360500D01*
X136619751Y-68360499D01*
X136634568Y-68357552D01*
X136678229Y-68348868D01*
X136678229Y-68348867D01*
X136678231Y-68348867D01*
X136744552Y-68304552D01*
X136788867Y-68238231D01*
X136788867Y-68238229D01*
X136788868Y-68238229D01*
X136800499Y-68179752D01*
X136800500Y-68179750D01*
X136800500Y-67734500D01*
X136820185Y-67667461D01*
X136872989Y-67621706D01*
X136924500Y-67610500D01*
X137619766Y-67610500D01*
X137686805Y-67630185D01*
X137707447Y-67646819D01*
X141061093Y-71000465D01*
X141094578Y-71061788D01*
X141089594Y-71131480D01*
X141076515Y-71157036D01*
X141035132Y-71218971D01*
X141035131Y-71218971D01*
X141023500Y-71277448D01*
X141023500Y-71672553D01*
X141035131Y-71731030D01*
X141035185Y-71731110D01*
X141035247Y-71731308D01*
X141039806Y-71742314D01*
X141038820Y-71742722D01*
X141056062Y-71797788D01*
X141039647Y-71857620D01*
X141039806Y-71857686D01*
X141039283Y-71858946D01*
X141037577Y-71865168D01*
X141035185Y-71868890D01*
X141035132Y-71868969D01*
X141035131Y-71868969D01*
X141023500Y-71927446D01*
X141023500Y-72322547D01*
X141024248Y-72326308D01*
X141024068Y-72328318D01*
X141024097Y-72328612D01*
X141024041Y-72328617D01*
X141018022Y-72395899D01*
X140975160Y-72451077D01*
X140909270Y-72474323D01*
X140902631Y-72474501D01*
X140182934Y-72474501D01*
X140115895Y-72454816D01*
X140095253Y-72438182D01*
X137266612Y-69609541D01*
X137266604Y-69609535D01*
X137198095Y-69569982D01*
X137198090Y-69569979D01*
X137172613Y-69563152D01*
X137121662Y-69549500D01*
X137121660Y-69549500D01*
X136845436Y-69549500D01*
X136778397Y-69529815D01*
X136732642Y-69477011D01*
X136730875Y-69472953D01*
X136715354Y-69435482D01*
X136680941Y-69352402D01*
X136565977Y-69180345D01*
X136565975Y-69180342D01*
X136419657Y-69034024D01*
X136333626Y-68976541D01*
X136247598Y-68919059D01*
X136056420Y-68839870D01*
X136056412Y-68839868D01*
X135853469Y-68799500D01*
X135853465Y-68799500D01*
X135646535Y-68799500D01*
X135646530Y-68799500D01*
X135443587Y-68839868D01*
X135443579Y-68839870D01*
X135252403Y-68919058D01*
X135080342Y-69034024D01*
X134934024Y-69180342D01*
X134819058Y-69352403D01*
X134739870Y-69543579D01*
X134739868Y-69543587D01*
X134699500Y-69746530D01*
X134699500Y-69953469D01*
X134739868Y-70156412D01*
X134739870Y-70156420D01*
X134819058Y-70347596D01*
X134934024Y-70519657D01*
X135080342Y-70665975D01*
X135252405Y-70780943D01*
X135355043Y-70823456D01*
X135417108Y-70849164D01*
X135471511Y-70893005D01*
X135493576Y-70959299D01*
X135476297Y-71026998D01*
X135425160Y-71074609D01*
X135407974Y-71081656D01*
X135231781Y-71138905D01*
X135042439Y-71235380D01*
X134988282Y-71274727D01*
X134988282Y-71274728D01*
X135620591Y-71907037D01*
X135557007Y-71924075D01*
X135442993Y-71989901D01*
X135349901Y-72082993D01*
X135284075Y-72197007D01*
X135267037Y-72260591D01*
X134634728Y-71628282D01*
X134634727Y-71628282D01*
X134595380Y-71682439D01*
X134498904Y-71871782D01*
X134433242Y-72073869D01*
X134433242Y-72073872D01*
X134400000Y-72283753D01*
X133250500Y-72283753D01*
X133250500Y-62756961D01*
X133251280Y-62743077D01*
X133251280Y-62743076D01*
X133261460Y-62652729D01*
X133267635Y-62625670D01*
X133295353Y-62546456D01*
X133307396Y-62521450D01*
X133352046Y-62450389D01*
X133369351Y-62428690D01*
X133428690Y-62369351D01*
X133450389Y-62352046D01*
X133521450Y-62307396D01*
X133546456Y-62295353D01*
X133625670Y-62267635D01*
X133652733Y-62261459D01*
X133715419Y-62254396D01*
X133743079Y-62251280D01*
X133756962Y-62250500D01*
X133815892Y-62250500D01*
X154684108Y-62250500D01*
X154743038Y-62250500D01*
X154756922Y-62251280D01*
G37*
G04 #@! TD.AperFunction*
M02*
