%TF.GenerationSoftware,KiCad,Pcbnew,9.0.4*%
%TF.CreationDate,2025-12-12T15:33:02-05:00*%
%TF.ProjectId,AD5689RARUZ-RL7_breakboard,41443536-3839-4524-9152-555a2d524c37,rev?*%
%TF.SameCoordinates,Original*%
%TF.FileFunction,Drillmap*%
%TF.FilePolarity,Positive*%
%FSLAX45Y45*%
G04 Gerber Fmt 4.5, Leading zero omitted, Abs format (unit mm)*
G04 Created by KiCad (PCBNEW 9.0.4) date 2025-12-12 15:33:02*
%MOMM*%
%LPD*%
G01*
G04 APERTURE LIST*
%ADD10C,0.050000*%
%ADD11C,0.200000*%
G04 APERTURE END LIST*
D10*
X12850000Y-6100000D02*
X16400000Y-6100000D01*
X16500000Y-6200000D02*
X16500000Y-8400000D01*
X16500000Y-8400000D02*
G75*
G02*
X16400000Y-8500000I-100000J0D01*
G01*
X12850000Y-8500000D02*
X16400000Y-8500000D01*
X12750000Y-6200000D02*
G75*
G02*
X12850000Y-6100000I100000J0D01*
G01*
X12750000Y-6200000D02*
X12750000Y-8400000D01*
X16400000Y-6100000D02*
G75*
G02*
X16500000Y-6200000I0J-100000D01*
G01*
X12850000Y-8500000D02*
G75*
G02*
X12750000Y-8400000I0J100000D01*
G01*
D11*
X13008277Y-8813984D02*
X13008277Y-8613984D01*
X13008277Y-8613984D02*
X13055896Y-8613984D01*
X13055896Y-8613984D02*
X13084467Y-8623508D01*
X13084467Y-8623508D02*
X13103515Y-8642555D01*
X13103515Y-8642555D02*
X13113039Y-8661603D01*
X13113039Y-8661603D02*
X13122562Y-8699698D01*
X13122562Y-8699698D02*
X13122562Y-8728270D01*
X13122562Y-8728270D02*
X13113039Y-8766365D01*
X13113039Y-8766365D02*
X13103515Y-8785412D01*
X13103515Y-8785412D02*
X13084467Y-8804460D01*
X13084467Y-8804460D02*
X13055896Y-8813984D01*
X13055896Y-8813984D02*
X13008277Y-8813984D01*
X13208277Y-8813984D02*
X13208277Y-8680650D01*
X13208277Y-8718746D02*
X13217801Y-8699698D01*
X13217801Y-8699698D02*
X13227324Y-8690174D01*
X13227324Y-8690174D02*
X13246372Y-8680650D01*
X13246372Y-8680650D02*
X13265420Y-8680650D01*
X13332086Y-8813984D02*
X13332086Y-8680650D01*
X13332086Y-8613984D02*
X13322562Y-8623508D01*
X13322562Y-8623508D02*
X13332086Y-8633031D01*
X13332086Y-8633031D02*
X13341610Y-8623508D01*
X13341610Y-8623508D02*
X13332086Y-8613984D01*
X13332086Y-8613984D02*
X13332086Y-8633031D01*
X13455896Y-8813984D02*
X13436848Y-8804460D01*
X13436848Y-8804460D02*
X13427324Y-8785412D01*
X13427324Y-8785412D02*
X13427324Y-8613984D01*
X13560658Y-8813984D02*
X13541610Y-8804460D01*
X13541610Y-8804460D02*
X13532086Y-8785412D01*
X13532086Y-8785412D02*
X13532086Y-8613984D01*
X13789229Y-8813984D02*
X13789229Y-8613984D01*
X13789229Y-8613984D02*
X13855896Y-8756841D01*
X13855896Y-8756841D02*
X13922562Y-8613984D01*
X13922562Y-8613984D02*
X13922562Y-8813984D01*
X14103515Y-8813984D02*
X14103515Y-8709222D01*
X14103515Y-8709222D02*
X14093991Y-8690174D01*
X14093991Y-8690174D02*
X14074943Y-8680650D01*
X14074943Y-8680650D02*
X14036848Y-8680650D01*
X14036848Y-8680650D02*
X14017801Y-8690174D01*
X14103515Y-8804460D02*
X14084467Y-8813984D01*
X14084467Y-8813984D02*
X14036848Y-8813984D01*
X14036848Y-8813984D02*
X14017801Y-8804460D01*
X14017801Y-8804460D02*
X14008277Y-8785412D01*
X14008277Y-8785412D02*
X14008277Y-8766365D01*
X14008277Y-8766365D02*
X14017801Y-8747317D01*
X14017801Y-8747317D02*
X14036848Y-8737793D01*
X14036848Y-8737793D02*
X14084467Y-8737793D01*
X14084467Y-8737793D02*
X14103515Y-8728270D01*
X14198753Y-8680650D02*
X14198753Y-8880650D01*
X14198753Y-8690174D02*
X14217801Y-8680650D01*
X14217801Y-8680650D02*
X14255896Y-8680650D01*
X14255896Y-8680650D02*
X14274943Y-8690174D01*
X14274943Y-8690174D02*
X14284467Y-8699698D01*
X14284467Y-8699698D02*
X14293991Y-8718746D01*
X14293991Y-8718746D02*
X14293991Y-8775889D01*
X14293991Y-8775889D02*
X14284467Y-8794936D01*
X14284467Y-8794936D02*
X14274943Y-8804460D01*
X14274943Y-8804460D02*
X14255896Y-8813984D01*
X14255896Y-8813984D02*
X14217801Y-8813984D01*
X14217801Y-8813984D02*
X14198753Y-8804460D01*
X14379705Y-8794936D02*
X14389229Y-8804460D01*
X14389229Y-8804460D02*
X14379705Y-8813984D01*
X14379705Y-8813984D02*
X14370182Y-8804460D01*
X14370182Y-8804460D02*
X14379705Y-8794936D01*
X14379705Y-8794936D02*
X14379705Y-8813984D01*
X14379705Y-8690174D02*
X14389229Y-8699698D01*
X14389229Y-8699698D02*
X14379705Y-8709222D01*
X14379705Y-8709222D02*
X14370182Y-8699698D01*
X14370182Y-8699698D02*
X14379705Y-8690174D01*
X14379705Y-8690174D02*
X14379705Y-8709222D01*
M02*
