G04 #@! TF.GenerationSoftware,KiCad,Pcbnew,9.0.4*
G04 #@! TF.CreationDate,2025-12-19T17:29:27-05:00*
G04 #@! TF.ProjectId,AD5689RARUZ-RL7_breakboard,41443536-3839-4524-9152-555a2d524c37,rev?*
G04 #@! TF.SameCoordinates,Original*
G04 #@! TF.FileFunction,Legend,Bot*
G04 #@! TF.FilePolarity,Positive*
%FSLAX46Y46*%
G04 Gerber Fmt 4.6, Leading zero omitted, Abs format (unit mm)*
G04 Created by KiCad (PCBNEW 9.0.4) date 2025-12-19 17:29:27*
%MOMM*%
%LPD*%
G01*
G04 APERTURE LIST*
%ADD10C,0.125000*%
%ADD11C,1.700000*%
%ADD12R,1.700000X1.700000*%
G04 APERTURE END LIST*
D10*
X151286811Y-63822365D02*
X151572525Y-63822365D01*
X151429668Y-63822365D02*
X151429668Y-63322365D01*
X151429668Y-63322365D02*
X151477287Y-63393794D01*
X151477287Y-63393794D02*
X151524906Y-63441413D01*
X151524906Y-63441413D02*
X151572525Y-63465222D01*
X150858240Y-63322365D02*
X150953478Y-63322365D01*
X150953478Y-63322365D02*
X151001097Y-63346175D01*
X151001097Y-63346175D02*
X151024907Y-63369984D01*
X151024907Y-63369984D02*
X151072526Y-63441413D01*
X151072526Y-63441413D02*
X151096335Y-63536651D01*
X151096335Y-63536651D02*
X151096335Y-63727127D01*
X151096335Y-63727127D02*
X151072526Y-63774746D01*
X151072526Y-63774746D02*
X151048716Y-63798556D01*
X151048716Y-63798556D02*
X151001097Y-63822365D01*
X151001097Y-63822365D02*
X150905859Y-63822365D01*
X150905859Y-63822365D02*
X150858240Y-63798556D01*
X150858240Y-63798556D02*
X150834431Y-63774746D01*
X150834431Y-63774746D02*
X150810621Y-63727127D01*
X150810621Y-63727127D02*
X150810621Y-63608079D01*
X150810621Y-63608079D02*
X150834431Y-63560460D01*
X150834431Y-63560460D02*
X150858240Y-63536651D01*
X150858240Y-63536651D02*
X150905859Y-63512841D01*
X150905859Y-63512841D02*
X151001097Y-63512841D01*
X151001097Y-63512841D02*
X151048716Y-63536651D01*
X151048716Y-63536651D02*
X151072526Y-63560460D01*
X151072526Y-63560460D02*
X151096335Y-63608079D01*
X150596336Y-63774746D02*
X150572526Y-63798556D01*
X150572526Y-63798556D02*
X150596336Y-63822365D01*
X150596336Y-63822365D02*
X150620145Y-63798556D01*
X150620145Y-63798556D02*
X150596336Y-63774746D01*
X150596336Y-63774746D02*
X150596336Y-63822365D01*
X150596336Y-63512841D02*
X150572526Y-63536651D01*
X150572526Y-63536651D02*
X150596336Y-63560460D01*
X150596336Y-63560460D02*
X150620145Y-63536651D01*
X150620145Y-63536651D02*
X150596336Y-63512841D01*
X150596336Y-63512841D02*
X150596336Y-63560460D01*
X149691575Y-63822365D02*
X149858241Y-63584270D01*
X149977289Y-63822365D02*
X149977289Y-63322365D01*
X149977289Y-63322365D02*
X149786813Y-63322365D01*
X149786813Y-63322365D02*
X149739194Y-63346175D01*
X149739194Y-63346175D02*
X149715384Y-63369984D01*
X149715384Y-63369984D02*
X149691575Y-63417603D01*
X149691575Y-63417603D02*
X149691575Y-63489032D01*
X149691575Y-63489032D02*
X149715384Y-63536651D01*
X149715384Y-63536651D02*
X149739194Y-63560460D01*
X149739194Y-63560460D02*
X149786813Y-63584270D01*
X149786813Y-63584270D02*
X149977289Y-63584270D01*
X149501098Y-63798556D02*
X149429670Y-63822365D01*
X149429670Y-63822365D02*
X149310622Y-63822365D01*
X149310622Y-63822365D02*
X149263003Y-63798556D01*
X149263003Y-63798556D02*
X149239194Y-63774746D01*
X149239194Y-63774746D02*
X149215384Y-63727127D01*
X149215384Y-63727127D02*
X149215384Y-63679508D01*
X149215384Y-63679508D02*
X149239194Y-63631889D01*
X149239194Y-63631889D02*
X149263003Y-63608079D01*
X149263003Y-63608079D02*
X149310622Y-63584270D01*
X149310622Y-63584270D02*
X149405860Y-63560460D01*
X149405860Y-63560460D02*
X149453479Y-63536651D01*
X149453479Y-63536651D02*
X149477289Y-63512841D01*
X149477289Y-63512841D02*
X149501098Y-63465222D01*
X149501098Y-63465222D02*
X149501098Y-63417603D01*
X149501098Y-63417603D02*
X149477289Y-63369984D01*
X149477289Y-63369984D02*
X149453479Y-63346175D01*
X149453479Y-63346175D02*
X149405860Y-63322365D01*
X149405860Y-63322365D02*
X149286813Y-63322365D01*
X149286813Y-63322365D02*
X149215384Y-63346175D01*
X149072527Y-63322365D02*
X148786813Y-63322365D01*
X148929670Y-63822365D02*
X148929670Y-63322365D01*
X148643956Y-63798556D02*
X148572528Y-63822365D01*
X148572528Y-63822365D02*
X148453480Y-63822365D01*
X148453480Y-63822365D02*
X148405861Y-63798556D01*
X148405861Y-63798556D02*
X148382052Y-63774746D01*
X148382052Y-63774746D02*
X148358242Y-63727127D01*
X148358242Y-63727127D02*
X148358242Y-63679508D01*
X148358242Y-63679508D02*
X148382052Y-63631889D01*
X148382052Y-63631889D02*
X148405861Y-63608079D01*
X148405861Y-63608079D02*
X148453480Y-63584270D01*
X148453480Y-63584270D02*
X148548718Y-63560460D01*
X148548718Y-63560460D02*
X148596337Y-63536651D01*
X148596337Y-63536651D02*
X148620147Y-63512841D01*
X148620147Y-63512841D02*
X148643956Y-63465222D01*
X148643956Y-63465222D02*
X148643956Y-63417603D01*
X148643956Y-63417603D02*
X148620147Y-63369984D01*
X148620147Y-63369984D02*
X148596337Y-63346175D01*
X148596337Y-63346175D02*
X148548718Y-63322365D01*
X148548718Y-63322365D02*
X148429671Y-63322365D01*
X148429671Y-63322365D02*
X148358242Y-63346175D01*
X148143957Y-63560460D02*
X147977290Y-63560460D01*
X147905862Y-63822365D02*
X148143957Y-63822365D01*
X148143957Y-63822365D02*
X148143957Y-63322365D01*
X148143957Y-63322365D02*
X147905862Y-63322365D01*
X147453481Y-63822365D02*
X147691576Y-63822365D01*
X147691576Y-63822365D02*
X147691576Y-63322365D01*
X151620144Y-64294004D02*
X151429668Y-64294004D01*
X151548716Y-64127337D02*
X151548716Y-64555908D01*
X151548716Y-64555908D02*
X151524906Y-64603528D01*
X151524906Y-64603528D02*
X151477287Y-64627337D01*
X151477287Y-64627337D02*
X151429668Y-64627337D01*
X151263002Y-64627337D02*
X151263002Y-64294004D01*
X151263002Y-64127337D02*
X151286811Y-64151147D01*
X151286811Y-64151147D02*
X151263002Y-64174956D01*
X151263002Y-64174956D02*
X151239192Y-64151147D01*
X151239192Y-64151147D02*
X151263002Y-64127337D01*
X151263002Y-64127337D02*
X151263002Y-64174956D01*
X150834431Y-64603528D02*
X150882050Y-64627337D01*
X150882050Y-64627337D02*
X150977288Y-64627337D01*
X150977288Y-64627337D02*
X151024907Y-64603528D01*
X151024907Y-64603528D02*
X151048716Y-64555908D01*
X151048716Y-64555908D02*
X151048716Y-64365432D01*
X151048716Y-64365432D02*
X151024907Y-64317813D01*
X151024907Y-64317813D02*
X150977288Y-64294004D01*
X150977288Y-64294004D02*
X150882050Y-64294004D01*
X150882050Y-64294004D02*
X150834431Y-64317813D01*
X150834431Y-64317813D02*
X150810621Y-64365432D01*
X150810621Y-64365432D02*
X150810621Y-64413051D01*
X150810621Y-64413051D02*
X151048716Y-64460670D01*
X150382050Y-64627337D02*
X150382050Y-64127337D01*
X150382050Y-64603528D02*
X150429669Y-64627337D01*
X150429669Y-64627337D02*
X150524907Y-64627337D01*
X150524907Y-64627337D02*
X150572526Y-64603528D01*
X150572526Y-64603528D02*
X150596336Y-64579718D01*
X150596336Y-64579718D02*
X150620145Y-64532099D01*
X150620145Y-64532099D02*
X150620145Y-64389242D01*
X150620145Y-64389242D02*
X150596336Y-64341623D01*
X150596336Y-64341623D02*
X150572526Y-64317813D01*
X150572526Y-64317813D02*
X150524907Y-64294004D01*
X150524907Y-64294004D02*
X150429669Y-64294004D01*
X150429669Y-64294004D02*
X150382050Y-64317813D01*
X149834431Y-64294004D02*
X149643955Y-64294004D01*
X149763003Y-64127337D02*
X149763003Y-64555908D01*
X149763003Y-64555908D02*
X149739193Y-64603528D01*
X149739193Y-64603528D02*
X149691574Y-64627337D01*
X149691574Y-64627337D02*
X149643955Y-64627337D01*
X149405860Y-64627337D02*
X149453479Y-64603528D01*
X149453479Y-64603528D02*
X149477289Y-64579718D01*
X149477289Y-64579718D02*
X149501098Y-64532099D01*
X149501098Y-64532099D02*
X149501098Y-64389242D01*
X149501098Y-64389242D02*
X149477289Y-64341623D01*
X149477289Y-64341623D02*
X149453479Y-64317813D01*
X149453479Y-64317813D02*
X149405860Y-64294004D01*
X149405860Y-64294004D02*
X149334432Y-64294004D01*
X149334432Y-64294004D02*
X149286813Y-64317813D01*
X149286813Y-64317813D02*
X149263003Y-64341623D01*
X149263003Y-64341623D02*
X149239194Y-64389242D01*
X149239194Y-64389242D02*
X149239194Y-64532099D01*
X149239194Y-64532099D02*
X149263003Y-64579718D01*
X149263003Y-64579718D02*
X149286813Y-64603528D01*
X149286813Y-64603528D02*
X149334432Y-64627337D01*
X149334432Y-64627337D02*
X149405860Y-64627337D01*
X148382051Y-64151147D02*
X148429670Y-64127337D01*
X148429670Y-64127337D02*
X148501099Y-64127337D01*
X148501099Y-64127337D02*
X148572527Y-64151147D01*
X148572527Y-64151147D02*
X148620146Y-64198766D01*
X148620146Y-64198766D02*
X148643956Y-64246385D01*
X148643956Y-64246385D02*
X148667765Y-64341623D01*
X148667765Y-64341623D02*
X148667765Y-64413051D01*
X148667765Y-64413051D02*
X148643956Y-64508289D01*
X148643956Y-64508289D02*
X148620146Y-64555908D01*
X148620146Y-64555908D02*
X148572527Y-64603528D01*
X148572527Y-64603528D02*
X148501099Y-64627337D01*
X148501099Y-64627337D02*
X148453480Y-64627337D01*
X148453480Y-64627337D02*
X148382051Y-64603528D01*
X148382051Y-64603528D02*
X148358242Y-64579718D01*
X148358242Y-64579718D02*
X148358242Y-64413051D01*
X148358242Y-64413051D02*
X148453480Y-64413051D01*
X148143956Y-64627337D02*
X148143956Y-64127337D01*
X148143956Y-64127337D02*
X147858242Y-64627337D01*
X147858242Y-64627337D02*
X147858242Y-64127337D01*
X147620146Y-64627337D02*
X147620146Y-64127337D01*
X147620146Y-64127337D02*
X147501098Y-64127337D01*
X147501098Y-64127337D02*
X147429670Y-64151147D01*
X147429670Y-64151147D02*
X147382051Y-64198766D01*
X147382051Y-64198766D02*
X147358241Y-64246385D01*
X147358241Y-64246385D02*
X147334432Y-64341623D01*
X147334432Y-64341623D02*
X147334432Y-64413051D01*
X147334432Y-64413051D02*
X147358241Y-64508289D01*
X147358241Y-64508289D02*
X147382051Y-64555908D01*
X147382051Y-64555908D02*
X147429670Y-64603528D01*
X147429670Y-64603528D02*
X147501098Y-64627337D01*
X147501098Y-64627337D02*
X147620146Y-64627337D01*
X147120146Y-64579718D02*
X147096336Y-64603528D01*
X147096336Y-64603528D02*
X147120146Y-64627337D01*
X147120146Y-64627337D02*
X147143955Y-64603528D01*
X147143955Y-64603528D02*
X147120146Y-64579718D01*
X147120146Y-64579718D02*
X147120146Y-64627337D01*
X147120146Y-64317813D02*
X147096336Y-64341623D01*
X147096336Y-64341623D02*
X147120146Y-64365432D01*
X147120146Y-64365432D02*
X147143955Y-64341623D01*
X147143955Y-64341623D02*
X147120146Y-64317813D01*
X147120146Y-64317813D02*
X147120146Y-64365432D01*
X146501099Y-64627337D02*
X146501099Y-64127337D01*
X146501099Y-64127337D02*
X146382051Y-64127337D01*
X146382051Y-64127337D02*
X146310623Y-64151147D01*
X146310623Y-64151147D02*
X146263004Y-64198766D01*
X146263004Y-64198766D02*
X146239194Y-64246385D01*
X146239194Y-64246385D02*
X146215385Y-64341623D01*
X146215385Y-64341623D02*
X146215385Y-64413051D01*
X146215385Y-64413051D02*
X146239194Y-64508289D01*
X146239194Y-64508289D02*
X146263004Y-64555908D01*
X146263004Y-64555908D02*
X146310623Y-64603528D01*
X146310623Y-64603528D02*
X146382051Y-64627337D01*
X146382051Y-64627337D02*
X146501099Y-64627337D01*
X146024908Y-64484480D02*
X145786813Y-64484480D01*
X146072527Y-64627337D02*
X145905861Y-64127337D01*
X145905861Y-64127337D02*
X145739194Y-64627337D01*
X145286814Y-64579718D02*
X145310623Y-64603528D01*
X145310623Y-64603528D02*
X145382052Y-64627337D01*
X145382052Y-64627337D02*
X145429671Y-64627337D01*
X145429671Y-64627337D02*
X145501099Y-64603528D01*
X145501099Y-64603528D02*
X145548718Y-64555908D01*
X145548718Y-64555908D02*
X145572528Y-64508289D01*
X145572528Y-64508289D02*
X145596337Y-64413051D01*
X145596337Y-64413051D02*
X145596337Y-64341623D01*
X145596337Y-64341623D02*
X145572528Y-64246385D01*
X145572528Y-64246385D02*
X145548718Y-64198766D01*
X145548718Y-64198766D02*
X145501099Y-64151147D01*
X145501099Y-64151147D02*
X145429671Y-64127337D01*
X145429671Y-64127337D02*
X145382052Y-64127337D01*
X145382052Y-64127337D02*
X145310623Y-64151147D01*
X145310623Y-64151147D02*
X145286814Y-64174956D01*
X144596338Y-64127337D02*
X144548719Y-64127337D01*
X144548719Y-64127337D02*
X144501100Y-64151147D01*
X144501100Y-64151147D02*
X144477290Y-64174956D01*
X144477290Y-64174956D02*
X144453481Y-64222575D01*
X144453481Y-64222575D02*
X144429671Y-64317813D01*
X144429671Y-64317813D02*
X144429671Y-64436861D01*
X144429671Y-64436861D02*
X144453481Y-64532099D01*
X144453481Y-64532099D02*
X144477290Y-64579718D01*
X144477290Y-64579718D02*
X144501100Y-64603528D01*
X144501100Y-64603528D02*
X144548719Y-64627337D01*
X144548719Y-64627337D02*
X144596338Y-64627337D01*
X144596338Y-64627337D02*
X144643957Y-64603528D01*
X144643957Y-64603528D02*
X144667766Y-64579718D01*
X144667766Y-64579718D02*
X144691576Y-64532099D01*
X144691576Y-64532099D02*
X144715385Y-64436861D01*
X144715385Y-64436861D02*
X144715385Y-64317813D01*
X144715385Y-64317813D02*
X144691576Y-64222575D01*
X144691576Y-64222575D02*
X144667766Y-64174956D01*
X144667766Y-64174956D02*
X144643957Y-64151147D01*
X144643957Y-64151147D02*
X144596338Y-64127337D01*
X144215386Y-64436861D02*
X143834434Y-64436861D01*
X143620147Y-64603528D02*
X143572528Y-64627337D01*
X143572528Y-64627337D02*
X143477290Y-64627337D01*
X143477290Y-64627337D02*
X143429671Y-64603528D01*
X143429671Y-64603528D02*
X143405862Y-64555908D01*
X143405862Y-64555908D02*
X143405862Y-64532099D01*
X143405862Y-64532099D02*
X143429671Y-64484480D01*
X143429671Y-64484480D02*
X143477290Y-64460670D01*
X143477290Y-64460670D02*
X143548719Y-64460670D01*
X143548719Y-64460670D02*
X143596338Y-64436861D01*
X143596338Y-64436861D02*
X143620147Y-64389242D01*
X143620147Y-64389242D02*
X143620147Y-64365432D01*
X143620147Y-64365432D02*
X143596338Y-64317813D01*
X143596338Y-64317813D02*
X143548719Y-64294004D01*
X143548719Y-64294004D02*
X143477290Y-64294004D01*
X143477290Y-64294004D02*
X143429671Y-64317813D01*
X142977290Y-64603528D02*
X143024909Y-64627337D01*
X143024909Y-64627337D02*
X143120147Y-64627337D01*
X143120147Y-64627337D02*
X143167766Y-64603528D01*
X143167766Y-64603528D02*
X143191576Y-64579718D01*
X143191576Y-64579718D02*
X143215385Y-64532099D01*
X143215385Y-64532099D02*
X143215385Y-64389242D01*
X143215385Y-64389242D02*
X143191576Y-64341623D01*
X143191576Y-64341623D02*
X143167766Y-64317813D01*
X143167766Y-64317813D02*
X143120147Y-64294004D01*
X143120147Y-64294004D02*
X143024909Y-64294004D01*
X143024909Y-64294004D02*
X142977290Y-64317813D01*
X142548719Y-64627337D02*
X142548719Y-64365432D01*
X142548719Y-64365432D02*
X142572529Y-64317813D01*
X142572529Y-64317813D02*
X142620148Y-64294004D01*
X142620148Y-64294004D02*
X142715386Y-64294004D01*
X142715386Y-64294004D02*
X142763005Y-64317813D01*
X142548719Y-64603528D02*
X142596338Y-64627337D01*
X142596338Y-64627337D02*
X142715386Y-64627337D01*
X142715386Y-64627337D02*
X142763005Y-64603528D01*
X142763005Y-64603528D02*
X142786814Y-64555908D01*
X142786814Y-64555908D02*
X142786814Y-64508289D01*
X142786814Y-64508289D02*
X142763005Y-64460670D01*
X142763005Y-64460670D02*
X142715386Y-64436861D01*
X142715386Y-64436861D02*
X142596338Y-64436861D01*
X142596338Y-64436861D02*
X142548719Y-64413051D01*
X142239195Y-64627337D02*
X142286814Y-64603528D01*
X142286814Y-64603528D02*
X142310624Y-64555908D01*
X142310624Y-64555908D02*
X142310624Y-64127337D01*
X141858243Y-64603528D02*
X141905862Y-64627337D01*
X141905862Y-64627337D02*
X142001100Y-64627337D01*
X142001100Y-64627337D02*
X142048719Y-64603528D01*
X142048719Y-64603528D02*
X142072528Y-64555908D01*
X142072528Y-64555908D02*
X142072528Y-64365432D01*
X142072528Y-64365432D02*
X142048719Y-64317813D01*
X142048719Y-64317813D02*
X142001100Y-64294004D01*
X142001100Y-64294004D02*
X141905862Y-64294004D01*
X141905862Y-64294004D02*
X141858243Y-64317813D01*
X141858243Y-64317813D02*
X141834433Y-64365432D01*
X141834433Y-64365432D02*
X141834433Y-64413051D01*
X141834433Y-64413051D02*
X142072528Y-64460670D01*
X151620144Y-65098976D02*
X151429668Y-65098976D01*
X151548716Y-64932309D02*
X151548716Y-65360880D01*
X151548716Y-65360880D02*
X151524906Y-65408500D01*
X151524906Y-65408500D02*
X151477287Y-65432309D01*
X151477287Y-65432309D02*
X151429668Y-65432309D01*
X151263002Y-65432309D02*
X151263002Y-65098976D01*
X151263002Y-64932309D02*
X151286811Y-64956119D01*
X151286811Y-64956119D02*
X151263002Y-64979928D01*
X151263002Y-64979928D02*
X151239192Y-64956119D01*
X151239192Y-64956119D02*
X151263002Y-64932309D01*
X151263002Y-64932309D02*
X151263002Y-64979928D01*
X150834431Y-65408500D02*
X150882050Y-65432309D01*
X150882050Y-65432309D02*
X150977288Y-65432309D01*
X150977288Y-65432309D02*
X151024907Y-65408500D01*
X151024907Y-65408500D02*
X151048716Y-65360880D01*
X151048716Y-65360880D02*
X151048716Y-65170404D01*
X151048716Y-65170404D02*
X151024907Y-65122785D01*
X151024907Y-65122785D02*
X150977288Y-65098976D01*
X150977288Y-65098976D02*
X150882050Y-65098976D01*
X150882050Y-65098976D02*
X150834431Y-65122785D01*
X150834431Y-65122785D02*
X150810621Y-65170404D01*
X150810621Y-65170404D02*
X150810621Y-65218023D01*
X150810621Y-65218023D02*
X151048716Y-65265642D01*
X150382050Y-65432309D02*
X150382050Y-64932309D01*
X150382050Y-65408500D02*
X150429669Y-65432309D01*
X150429669Y-65432309D02*
X150524907Y-65432309D01*
X150524907Y-65432309D02*
X150572526Y-65408500D01*
X150572526Y-65408500D02*
X150596336Y-65384690D01*
X150596336Y-65384690D02*
X150620145Y-65337071D01*
X150620145Y-65337071D02*
X150620145Y-65194214D01*
X150620145Y-65194214D02*
X150596336Y-65146595D01*
X150596336Y-65146595D02*
X150572526Y-65122785D01*
X150572526Y-65122785D02*
X150524907Y-65098976D01*
X150524907Y-65098976D02*
X150429669Y-65098976D01*
X150429669Y-65098976D02*
X150382050Y-65122785D01*
X149834431Y-65098976D02*
X149643955Y-65098976D01*
X149763003Y-64932309D02*
X149763003Y-65360880D01*
X149763003Y-65360880D02*
X149739193Y-65408500D01*
X149739193Y-65408500D02*
X149691574Y-65432309D01*
X149691574Y-65432309D02*
X149643955Y-65432309D01*
X149405860Y-65432309D02*
X149453479Y-65408500D01*
X149453479Y-65408500D02*
X149477289Y-65384690D01*
X149477289Y-65384690D02*
X149501098Y-65337071D01*
X149501098Y-65337071D02*
X149501098Y-65194214D01*
X149501098Y-65194214D02*
X149477289Y-65146595D01*
X149477289Y-65146595D02*
X149453479Y-65122785D01*
X149453479Y-65122785D02*
X149405860Y-65098976D01*
X149405860Y-65098976D02*
X149334432Y-65098976D01*
X149334432Y-65098976D02*
X149286813Y-65122785D01*
X149286813Y-65122785D02*
X149263003Y-65146595D01*
X149263003Y-65146595D02*
X149239194Y-65194214D01*
X149239194Y-65194214D02*
X149239194Y-65337071D01*
X149239194Y-65337071D02*
X149263003Y-65384690D01*
X149263003Y-65384690D02*
X149286813Y-65408500D01*
X149286813Y-65408500D02*
X149334432Y-65432309D01*
X149334432Y-65432309D02*
X149405860Y-65432309D01*
X148715384Y-64932309D02*
X148548718Y-65432309D01*
X148548718Y-65432309D02*
X148382051Y-64932309D01*
X147977290Y-65432309D02*
X148215385Y-65432309D01*
X148215385Y-65432309D02*
X148215385Y-64932309D01*
X147715385Y-64932309D02*
X147620147Y-64932309D01*
X147620147Y-64932309D02*
X147572528Y-64956119D01*
X147572528Y-64956119D02*
X147524909Y-65003738D01*
X147524909Y-65003738D02*
X147501099Y-65098976D01*
X147501099Y-65098976D02*
X147501099Y-65265642D01*
X147501099Y-65265642D02*
X147524909Y-65360880D01*
X147524909Y-65360880D02*
X147572528Y-65408500D01*
X147572528Y-65408500D02*
X147620147Y-65432309D01*
X147620147Y-65432309D02*
X147715385Y-65432309D01*
X147715385Y-65432309D02*
X147763004Y-65408500D01*
X147763004Y-65408500D02*
X147810623Y-65360880D01*
X147810623Y-65360880D02*
X147834432Y-65265642D01*
X147834432Y-65265642D02*
X147834432Y-65098976D01*
X147834432Y-65098976D02*
X147810623Y-65003738D01*
X147810623Y-65003738D02*
X147763004Y-64956119D01*
X147763004Y-64956119D02*
X147715385Y-64932309D01*
X147024908Y-64956119D02*
X147072527Y-64932309D01*
X147072527Y-64932309D02*
X147143956Y-64932309D01*
X147143956Y-64932309D02*
X147215384Y-64956119D01*
X147215384Y-64956119D02*
X147263003Y-65003738D01*
X147263003Y-65003738D02*
X147286813Y-65051357D01*
X147286813Y-65051357D02*
X147310622Y-65146595D01*
X147310622Y-65146595D02*
X147310622Y-65218023D01*
X147310622Y-65218023D02*
X147286813Y-65313261D01*
X147286813Y-65313261D02*
X147263003Y-65360880D01*
X147263003Y-65360880D02*
X147215384Y-65408500D01*
X147215384Y-65408500D02*
X147143956Y-65432309D01*
X147143956Y-65432309D02*
X147096337Y-65432309D01*
X147096337Y-65432309D02*
X147024908Y-65408500D01*
X147024908Y-65408500D02*
X147001099Y-65384690D01*
X147001099Y-65384690D02*
X147001099Y-65218023D01*
X147001099Y-65218023D02*
X147096337Y-65218023D01*
X146786813Y-65432309D02*
X146786813Y-64932309D01*
X146263004Y-65384690D02*
X146286813Y-65408500D01*
X146286813Y-65408500D02*
X146358242Y-65432309D01*
X146358242Y-65432309D02*
X146405861Y-65432309D01*
X146405861Y-65432309D02*
X146477289Y-65408500D01*
X146477289Y-65408500D02*
X146524908Y-65360880D01*
X146524908Y-65360880D02*
X146548718Y-65313261D01*
X146548718Y-65313261D02*
X146572527Y-65218023D01*
X146572527Y-65218023D02*
X146572527Y-65146595D01*
X146572527Y-65146595D02*
X146548718Y-65051357D01*
X146548718Y-65051357D02*
X146524908Y-65003738D01*
X146524908Y-65003738D02*
X146477289Y-64956119D01*
X146477289Y-64956119D02*
X146405861Y-64932309D01*
X146405861Y-64932309D02*
X146358242Y-64932309D01*
X146358242Y-64932309D02*
X146286813Y-64956119D01*
X146286813Y-64956119D02*
X146263004Y-64979928D01*
X146048718Y-65384690D02*
X146024908Y-65408500D01*
X146024908Y-65408500D02*
X146048718Y-65432309D01*
X146048718Y-65432309D02*
X146072527Y-65408500D01*
X146072527Y-65408500D02*
X146048718Y-65384690D01*
X146048718Y-65384690D02*
X146048718Y-65432309D01*
X146048718Y-65122785D02*
X146024908Y-65146595D01*
X146024908Y-65146595D02*
X146048718Y-65170404D01*
X146048718Y-65170404D02*
X146072527Y-65146595D01*
X146072527Y-65146595D02*
X146048718Y-65122785D01*
X146048718Y-65122785D02*
X146048718Y-65170404D01*
X145429671Y-65432309D02*
X145429671Y-64932309D01*
X145429671Y-64932309D02*
X145310623Y-64932309D01*
X145310623Y-64932309D02*
X145239195Y-64956119D01*
X145239195Y-64956119D02*
X145191576Y-65003738D01*
X145191576Y-65003738D02*
X145167766Y-65051357D01*
X145167766Y-65051357D02*
X145143957Y-65146595D01*
X145143957Y-65146595D02*
X145143957Y-65218023D01*
X145143957Y-65218023D02*
X145167766Y-65313261D01*
X145167766Y-65313261D02*
X145191576Y-65360880D01*
X145191576Y-65360880D02*
X145239195Y-65408500D01*
X145239195Y-65408500D02*
X145310623Y-65432309D01*
X145310623Y-65432309D02*
X145429671Y-65432309D01*
X144953480Y-65289452D02*
X144715385Y-65289452D01*
X145001099Y-65432309D02*
X144834433Y-64932309D01*
X144834433Y-64932309D02*
X144667766Y-65432309D01*
X144215386Y-65384690D02*
X144239195Y-65408500D01*
X144239195Y-65408500D02*
X144310624Y-65432309D01*
X144310624Y-65432309D02*
X144358243Y-65432309D01*
X144358243Y-65432309D02*
X144429671Y-65408500D01*
X144429671Y-65408500D02*
X144477290Y-65360880D01*
X144477290Y-65360880D02*
X144501100Y-65313261D01*
X144501100Y-65313261D02*
X144524909Y-65218023D01*
X144524909Y-65218023D02*
X144524909Y-65146595D01*
X144524909Y-65146595D02*
X144501100Y-65051357D01*
X144501100Y-65051357D02*
X144477290Y-65003738D01*
X144477290Y-65003738D02*
X144429671Y-64956119D01*
X144429671Y-64956119D02*
X144358243Y-64932309D01*
X144358243Y-64932309D02*
X144310624Y-64932309D01*
X144310624Y-64932309D02*
X144239195Y-64956119D01*
X144239195Y-64956119D02*
X144215386Y-64979928D01*
X143620148Y-65432309D02*
X143620148Y-65098976D01*
X143620148Y-65146595D02*
X143596338Y-65122785D01*
X143596338Y-65122785D02*
X143548719Y-65098976D01*
X143548719Y-65098976D02*
X143477291Y-65098976D01*
X143477291Y-65098976D02*
X143429672Y-65122785D01*
X143429672Y-65122785D02*
X143405862Y-65170404D01*
X143405862Y-65170404D02*
X143405862Y-65432309D01*
X143405862Y-65170404D02*
X143382053Y-65122785D01*
X143382053Y-65122785D02*
X143334434Y-65098976D01*
X143334434Y-65098976D02*
X143263005Y-65098976D01*
X143263005Y-65098976D02*
X143215386Y-65122785D01*
X143215386Y-65122785D02*
X143191576Y-65170404D01*
X143191576Y-65170404D02*
X143191576Y-65432309D01*
X142953481Y-65432309D02*
X142953481Y-65098976D01*
X142953481Y-64932309D02*
X142977290Y-64956119D01*
X142977290Y-64956119D02*
X142953481Y-64979928D01*
X142953481Y-64979928D02*
X142929671Y-64956119D01*
X142929671Y-64956119D02*
X142953481Y-64932309D01*
X142953481Y-64932309D02*
X142953481Y-64979928D01*
X142501100Y-65432309D02*
X142501100Y-64932309D01*
X142501100Y-65408500D02*
X142548719Y-65432309D01*
X142548719Y-65432309D02*
X142643957Y-65432309D01*
X142643957Y-65432309D02*
X142691576Y-65408500D01*
X142691576Y-65408500D02*
X142715386Y-65384690D01*
X142715386Y-65384690D02*
X142739195Y-65337071D01*
X142739195Y-65337071D02*
X142739195Y-65194214D01*
X142739195Y-65194214D02*
X142715386Y-65146595D01*
X142715386Y-65146595D02*
X142691576Y-65122785D01*
X142691576Y-65122785D02*
X142643957Y-65098976D01*
X142643957Y-65098976D02*
X142548719Y-65098976D01*
X142548719Y-65098976D02*
X142501100Y-65122785D01*
X142263005Y-65241833D02*
X141882053Y-65241833D01*
X141667766Y-65408500D02*
X141620147Y-65432309D01*
X141620147Y-65432309D02*
X141524909Y-65432309D01*
X141524909Y-65432309D02*
X141477290Y-65408500D01*
X141477290Y-65408500D02*
X141453481Y-65360880D01*
X141453481Y-65360880D02*
X141453481Y-65337071D01*
X141453481Y-65337071D02*
X141477290Y-65289452D01*
X141477290Y-65289452D02*
X141524909Y-65265642D01*
X141524909Y-65265642D02*
X141596338Y-65265642D01*
X141596338Y-65265642D02*
X141643957Y-65241833D01*
X141643957Y-65241833D02*
X141667766Y-65194214D01*
X141667766Y-65194214D02*
X141667766Y-65170404D01*
X141667766Y-65170404D02*
X141643957Y-65122785D01*
X141643957Y-65122785D02*
X141596338Y-65098976D01*
X141596338Y-65098976D02*
X141524909Y-65098976D01*
X141524909Y-65098976D02*
X141477290Y-65122785D01*
X141024909Y-65408500D02*
X141072528Y-65432309D01*
X141072528Y-65432309D02*
X141167766Y-65432309D01*
X141167766Y-65432309D02*
X141215385Y-65408500D01*
X141215385Y-65408500D02*
X141239195Y-65384690D01*
X141239195Y-65384690D02*
X141263004Y-65337071D01*
X141263004Y-65337071D02*
X141263004Y-65194214D01*
X141263004Y-65194214D02*
X141239195Y-65146595D01*
X141239195Y-65146595D02*
X141215385Y-65122785D01*
X141215385Y-65122785D02*
X141167766Y-65098976D01*
X141167766Y-65098976D02*
X141072528Y-65098976D01*
X141072528Y-65098976D02*
X141024909Y-65122785D01*
X140596338Y-65432309D02*
X140596338Y-65170404D01*
X140596338Y-65170404D02*
X140620148Y-65122785D01*
X140620148Y-65122785D02*
X140667767Y-65098976D01*
X140667767Y-65098976D02*
X140763005Y-65098976D01*
X140763005Y-65098976D02*
X140810624Y-65122785D01*
X140596338Y-65408500D02*
X140643957Y-65432309D01*
X140643957Y-65432309D02*
X140763005Y-65432309D01*
X140763005Y-65432309D02*
X140810624Y-65408500D01*
X140810624Y-65408500D02*
X140834433Y-65360880D01*
X140834433Y-65360880D02*
X140834433Y-65313261D01*
X140834433Y-65313261D02*
X140810624Y-65265642D01*
X140810624Y-65265642D02*
X140763005Y-65241833D01*
X140763005Y-65241833D02*
X140643957Y-65241833D01*
X140643957Y-65241833D02*
X140596338Y-65218023D01*
X140286814Y-65432309D02*
X140334433Y-65408500D01*
X140334433Y-65408500D02*
X140358243Y-65360880D01*
X140358243Y-65360880D02*
X140358243Y-64932309D01*
X139905862Y-65408500D02*
X139953481Y-65432309D01*
X139953481Y-65432309D02*
X140048719Y-65432309D01*
X140048719Y-65432309D02*
X140096338Y-65408500D01*
X140096338Y-65408500D02*
X140120147Y-65360880D01*
X140120147Y-65360880D02*
X140120147Y-65170404D01*
X140120147Y-65170404D02*
X140096338Y-65122785D01*
X140096338Y-65122785D02*
X140048719Y-65098976D01*
X140048719Y-65098976D02*
X139953481Y-65098976D01*
X139953481Y-65098976D02*
X139905862Y-65122785D01*
X139905862Y-65122785D02*
X139882052Y-65170404D01*
X139882052Y-65170404D02*
X139882052Y-65218023D01*
X139882052Y-65218023D02*
X140120147Y-65265642D01*
X141310621Y-74377337D02*
X141548716Y-74377337D01*
X141548716Y-74377337D02*
X141572525Y-74615432D01*
X141572525Y-74615432D02*
X141548716Y-74591623D01*
X141548716Y-74591623D02*
X141501097Y-74567813D01*
X141501097Y-74567813D02*
X141382049Y-74567813D01*
X141382049Y-74567813D02*
X141334430Y-74591623D01*
X141334430Y-74591623D02*
X141310621Y-74615432D01*
X141310621Y-74615432D02*
X141286811Y-74663051D01*
X141286811Y-74663051D02*
X141286811Y-74782099D01*
X141286811Y-74782099D02*
X141310621Y-74829718D01*
X141310621Y-74829718D02*
X141334430Y-74853528D01*
X141334430Y-74853528D02*
X141382049Y-74877337D01*
X141382049Y-74877337D02*
X141501097Y-74877337D01*
X141501097Y-74877337D02*
X141548716Y-74853528D01*
X141548716Y-74853528D02*
X141572525Y-74829718D01*
X141072526Y-74829718D02*
X141048716Y-74853528D01*
X141048716Y-74853528D02*
X141072526Y-74877337D01*
X141072526Y-74877337D02*
X141096335Y-74853528D01*
X141096335Y-74853528D02*
X141072526Y-74829718D01*
X141072526Y-74829718D02*
X141072526Y-74877337D01*
X141072526Y-74567813D02*
X141048716Y-74591623D01*
X141048716Y-74591623D02*
X141072526Y-74615432D01*
X141072526Y-74615432D02*
X141096335Y-74591623D01*
X141096335Y-74591623D02*
X141072526Y-74567813D01*
X141072526Y-74567813D02*
X141072526Y-74615432D01*
X140524907Y-74377337D02*
X140358241Y-74877337D01*
X140358241Y-74877337D02*
X140191574Y-74377337D01*
X140024908Y-74877337D02*
X140024908Y-74377337D01*
X140024908Y-74377337D02*
X139905860Y-74377337D01*
X139905860Y-74377337D02*
X139834432Y-74401147D01*
X139834432Y-74401147D02*
X139786813Y-74448766D01*
X139786813Y-74448766D02*
X139763003Y-74496385D01*
X139763003Y-74496385D02*
X139739194Y-74591623D01*
X139739194Y-74591623D02*
X139739194Y-74663051D01*
X139739194Y-74663051D02*
X139763003Y-74758289D01*
X139763003Y-74758289D02*
X139786813Y-74805908D01*
X139786813Y-74805908D02*
X139834432Y-74853528D01*
X139834432Y-74853528D02*
X139905860Y-74877337D01*
X139905860Y-74877337D02*
X140024908Y-74877337D01*
X139524908Y-74877337D02*
X139524908Y-74377337D01*
X139524908Y-74377337D02*
X139405860Y-74377337D01*
X139405860Y-74377337D02*
X139334432Y-74401147D01*
X139334432Y-74401147D02*
X139286813Y-74448766D01*
X139286813Y-74448766D02*
X139263003Y-74496385D01*
X139263003Y-74496385D02*
X139239194Y-74591623D01*
X139239194Y-74591623D02*
X139239194Y-74663051D01*
X139239194Y-74663051D02*
X139263003Y-74758289D01*
X139263003Y-74758289D02*
X139286813Y-74805908D01*
X139286813Y-74805908D02*
X139334432Y-74853528D01*
X139334432Y-74853528D02*
X139405860Y-74877337D01*
X139405860Y-74877337D02*
X139524908Y-74877337D01*
X141572525Y-75229928D02*
X141548716Y-75206119D01*
X141548716Y-75206119D02*
X141501097Y-75182309D01*
X141501097Y-75182309D02*
X141382049Y-75182309D01*
X141382049Y-75182309D02*
X141334430Y-75206119D01*
X141334430Y-75206119D02*
X141310621Y-75229928D01*
X141310621Y-75229928D02*
X141286811Y-75277547D01*
X141286811Y-75277547D02*
X141286811Y-75325166D01*
X141286811Y-75325166D02*
X141310621Y-75396595D01*
X141310621Y-75396595D02*
X141596335Y-75682309D01*
X141596335Y-75682309D02*
X141286811Y-75682309D01*
X141072526Y-75634690D02*
X141048716Y-75658500D01*
X141048716Y-75658500D02*
X141072526Y-75682309D01*
X141072526Y-75682309D02*
X141096335Y-75658500D01*
X141096335Y-75658500D02*
X141072526Y-75634690D01*
X141072526Y-75634690D02*
X141072526Y-75682309D01*
X140882050Y-75182309D02*
X140548717Y-75182309D01*
X140548717Y-75182309D02*
X140763002Y-75682309D01*
X140358241Y-75491833D02*
X139977289Y-75491833D01*
X139501098Y-75182309D02*
X139739193Y-75182309D01*
X139739193Y-75182309D02*
X139763002Y-75420404D01*
X139763002Y-75420404D02*
X139739193Y-75396595D01*
X139739193Y-75396595D02*
X139691574Y-75372785D01*
X139691574Y-75372785D02*
X139572526Y-75372785D01*
X139572526Y-75372785D02*
X139524907Y-75396595D01*
X139524907Y-75396595D02*
X139501098Y-75420404D01*
X139501098Y-75420404D02*
X139477288Y-75468023D01*
X139477288Y-75468023D02*
X139477288Y-75587071D01*
X139477288Y-75587071D02*
X139501098Y-75634690D01*
X139501098Y-75634690D02*
X139524907Y-75658500D01*
X139524907Y-75658500D02*
X139572526Y-75682309D01*
X139572526Y-75682309D02*
X139691574Y-75682309D01*
X139691574Y-75682309D02*
X139739193Y-75658500D01*
X139739193Y-75658500D02*
X139763002Y-75634690D01*
X139263003Y-75634690D02*
X139239193Y-75658500D01*
X139239193Y-75658500D02*
X139263003Y-75682309D01*
X139263003Y-75682309D02*
X139286812Y-75658500D01*
X139286812Y-75658500D02*
X139263003Y-75634690D01*
X139263003Y-75634690D02*
X139263003Y-75682309D01*
X138786813Y-75182309D02*
X139024908Y-75182309D01*
X139024908Y-75182309D02*
X139048717Y-75420404D01*
X139048717Y-75420404D02*
X139024908Y-75396595D01*
X139024908Y-75396595D02*
X138977289Y-75372785D01*
X138977289Y-75372785D02*
X138858241Y-75372785D01*
X138858241Y-75372785D02*
X138810622Y-75396595D01*
X138810622Y-75396595D02*
X138786813Y-75420404D01*
X138786813Y-75420404D02*
X138763003Y-75468023D01*
X138763003Y-75468023D02*
X138763003Y-75587071D01*
X138763003Y-75587071D02*
X138786813Y-75634690D01*
X138786813Y-75634690D02*
X138810622Y-75658500D01*
X138810622Y-75658500D02*
X138858241Y-75682309D01*
X138858241Y-75682309D02*
X138977289Y-75682309D01*
X138977289Y-75682309D02*
X139024908Y-75658500D01*
X139024908Y-75658500D02*
X139048717Y-75634690D01*
X138596337Y-75348976D02*
X138477289Y-75682309D01*
X138477289Y-75682309D02*
X138358242Y-75348976D01*
X141596335Y-77182309D02*
X141263002Y-77182309D01*
X141263002Y-77182309D02*
X141477287Y-77682309D01*
X141072526Y-77634690D02*
X141048716Y-77658500D01*
X141048716Y-77658500D02*
X141072526Y-77682309D01*
X141072526Y-77682309D02*
X141096335Y-77658500D01*
X141096335Y-77658500D02*
X141072526Y-77634690D01*
X141072526Y-77634690D02*
X141072526Y-77682309D01*
X141072526Y-77372785D02*
X141048716Y-77396595D01*
X141048716Y-77396595D02*
X141072526Y-77420404D01*
X141072526Y-77420404D02*
X141096335Y-77396595D01*
X141096335Y-77396595D02*
X141072526Y-77372785D01*
X141072526Y-77372785D02*
X141072526Y-77420404D01*
X140524907Y-77182309D02*
X140358241Y-77682309D01*
X140358241Y-77682309D02*
X140191574Y-77182309D01*
X139929670Y-77182309D02*
X139834432Y-77182309D01*
X139834432Y-77182309D02*
X139786813Y-77206119D01*
X139786813Y-77206119D02*
X139739194Y-77253738D01*
X139739194Y-77253738D02*
X139715384Y-77348976D01*
X139715384Y-77348976D02*
X139715384Y-77515642D01*
X139715384Y-77515642D02*
X139739194Y-77610880D01*
X139739194Y-77610880D02*
X139786813Y-77658500D01*
X139786813Y-77658500D02*
X139834432Y-77682309D01*
X139834432Y-77682309D02*
X139929670Y-77682309D01*
X139929670Y-77682309D02*
X139977289Y-77658500D01*
X139977289Y-77658500D02*
X140024908Y-77610880D01*
X140024908Y-77610880D02*
X140048717Y-77515642D01*
X140048717Y-77515642D02*
X140048717Y-77348976D01*
X140048717Y-77348976D02*
X140024908Y-77253738D01*
X140024908Y-77253738D02*
X139977289Y-77206119D01*
X139977289Y-77206119D02*
X139929670Y-77182309D01*
X139501098Y-77182309D02*
X139501098Y-77587071D01*
X139501098Y-77587071D02*
X139477288Y-77634690D01*
X139477288Y-77634690D02*
X139453479Y-77658500D01*
X139453479Y-77658500D02*
X139405860Y-77682309D01*
X139405860Y-77682309D02*
X139310622Y-77682309D01*
X139310622Y-77682309D02*
X139263003Y-77658500D01*
X139263003Y-77658500D02*
X139239193Y-77634690D01*
X139239193Y-77634690D02*
X139215384Y-77587071D01*
X139215384Y-77587071D02*
X139215384Y-77182309D01*
X139048716Y-77182309D02*
X138763002Y-77182309D01*
X138905859Y-77682309D02*
X138905859Y-77182309D01*
X138429669Y-77420404D02*
X138358241Y-77444214D01*
X138358241Y-77444214D02*
X138334431Y-77468023D01*
X138334431Y-77468023D02*
X138310622Y-77515642D01*
X138310622Y-77515642D02*
X138310622Y-77587071D01*
X138310622Y-77587071D02*
X138334431Y-77634690D01*
X138334431Y-77634690D02*
X138358241Y-77658500D01*
X138358241Y-77658500D02*
X138405860Y-77682309D01*
X138405860Y-77682309D02*
X138596336Y-77682309D01*
X138596336Y-77682309D02*
X138596336Y-77182309D01*
X138596336Y-77182309D02*
X138429669Y-77182309D01*
X138429669Y-77182309D02*
X138382050Y-77206119D01*
X138382050Y-77206119D02*
X138358241Y-77229928D01*
X138358241Y-77229928D02*
X138334431Y-77277547D01*
X138334431Y-77277547D02*
X138334431Y-77325166D01*
X138334431Y-77325166D02*
X138358241Y-77372785D01*
X138358241Y-77372785D02*
X138382050Y-77396595D01*
X138382050Y-77396595D02*
X138429669Y-77420404D01*
X138429669Y-77420404D02*
X138596336Y-77420404D01*
X151286811Y-74812309D02*
X151572525Y-74812309D01*
X151429668Y-74812309D02*
X151429668Y-74312309D01*
X151429668Y-74312309D02*
X151477287Y-74383738D01*
X151477287Y-74383738D02*
X151524906Y-74431357D01*
X151524906Y-74431357D02*
X151572525Y-74455166D01*
X151096335Y-74359928D02*
X151072526Y-74336119D01*
X151072526Y-74336119D02*
X151024907Y-74312309D01*
X151024907Y-74312309D02*
X150905859Y-74312309D01*
X150905859Y-74312309D02*
X150858240Y-74336119D01*
X150858240Y-74336119D02*
X150834431Y-74359928D01*
X150834431Y-74359928D02*
X150810621Y-74407547D01*
X150810621Y-74407547D02*
X150810621Y-74455166D01*
X150810621Y-74455166D02*
X150834431Y-74526595D01*
X150834431Y-74526595D02*
X151120145Y-74812309D01*
X151120145Y-74812309D02*
X150810621Y-74812309D01*
X150596336Y-74764690D02*
X150572526Y-74788500D01*
X150572526Y-74788500D02*
X150596336Y-74812309D01*
X150596336Y-74812309D02*
X150620145Y-74788500D01*
X150620145Y-74788500D02*
X150596336Y-74764690D01*
X150596336Y-74764690D02*
X150596336Y-74812309D01*
X150596336Y-74502785D02*
X150572526Y-74526595D01*
X150572526Y-74526595D02*
X150596336Y-74550404D01*
X150596336Y-74550404D02*
X150620145Y-74526595D01*
X150620145Y-74526595D02*
X150596336Y-74502785D01*
X150596336Y-74502785D02*
X150596336Y-74550404D01*
X150001098Y-74788500D02*
X149929670Y-74812309D01*
X149929670Y-74812309D02*
X149810622Y-74812309D01*
X149810622Y-74812309D02*
X149763003Y-74788500D01*
X149763003Y-74788500D02*
X149739194Y-74764690D01*
X149739194Y-74764690D02*
X149715384Y-74717071D01*
X149715384Y-74717071D02*
X149715384Y-74669452D01*
X149715384Y-74669452D02*
X149739194Y-74621833D01*
X149739194Y-74621833D02*
X149763003Y-74598023D01*
X149763003Y-74598023D02*
X149810622Y-74574214D01*
X149810622Y-74574214D02*
X149905860Y-74550404D01*
X149905860Y-74550404D02*
X149953479Y-74526595D01*
X149953479Y-74526595D02*
X149977289Y-74502785D01*
X149977289Y-74502785D02*
X150001098Y-74455166D01*
X150001098Y-74455166D02*
X150001098Y-74407547D01*
X150001098Y-74407547D02*
X149977289Y-74359928D01*
X149977289Y-74359928D02*
X149953479Y-74336119D01*
X149953479Y-74336119D02*
X149905860Y-74312309D01*
X149905860Y-74312309D02*
X149786813Y-74312309D01*
X149786813Y-74312309D02*
X149715384Y-74336119D01*
X149215385Y-74764690D02*
X149239194Y-74788500D01*
X149239194Y-74788500D02*
X149310623Y-74812309D01*
X149310623Y-74812309D02*
X149358242Y-74812309D01*
X149358242Y-74812309D02*
X149429670Y-74788500D01*
X149429670Y-74788500D02*
X149477289Y-74740880D01*
X149477289Y-74740880D02*
X149501099Y-74693261D01*
X149501099Y-74693261D02*
X149524908Y-74598023D01*
X149524908Y-74598023D02*
X149524908Y-74526595D01*
X149524908Y-74526595D02*
X149501099Y-74431357D01*
X149501099Y-74431357D02*
X149477289Y-74383738D01*
X149477289Y-74383738D02*
X149429670Y-74336119D01*
X149429670Y-74336119D02*
X149358242Y-74312309D01*
X149358242Y-74312309D02*
X149310623Y-74312309D01*
X149310623Y-74312309D02*
X149239194Y-74336119D01*
X149239194Y-74336119D02*
X149215385Y-74359928D01*
X148763004Y-74812309D02*
X149001099Y-74812309D01*
X149001099Y-74812309D02*
X149001099Y-74312309D01*
X148596337Y-74812309D02*
X148596337Y-74312309D01*
X148310623Y-74812309D02*
X148524908Y-74526595D01*
X148310623Y-74312309D02*
X148596337Y-74598023D01*
X151286811Y-72312309D02*
X151572525Y-72312309D01*
X151429668Y-72312309D02*
X151429668Y-71812309D01*
X151429668Y-71812309D02*
X151477287Y-71883738D01*
X151477287Y-71883738D02*
X151524906Y-71931357D01*
X151524906Y-71931357D02*
X151572525Y-71955166D01*
X151120145Y-71812309D02*
X150810621Y-71812309D01*
X150810621Y-71812309D02*
X150977288Y-72002785D01*
X150977288Y-72002785D02*
X150905859Y-72002785D01*
X150905859Y-72002785D02*
X150858240Y-72026595D01*
X150858240Y-72026595D02*
X150834431Y-72050404D01*
X150834431Y-72050404D02*
X150810621Y-72098023D01*
X150810621Y-72098023D02*
X150810621Y-72217071D01*
X150810621Y-72217071D02*
X150834431Y-72264690D01*
X150834431Y-72264690D02*
X150858240Y-72288500D01*
X150858240Y-72288500D02*
X150905859Y-72312309D01*
X150905859Y-72312309D02*
X151048716Y-72312309D01*
X151048716Y-72312309D02*
X151096335Y-72288500D01*
X151096335Y-72288500D02*
X151120145Y-72264690D01*
X150596336Y-72264690D02*
X150572526Y-72288500D01*
X150572526Y-72288500D02*
X150596336Y-72312309D01*
X150596336Y-72312309D02*
X150620145Y-72288500D01*
X150620145Y-72288500D02*
X150596336Y-72264690D01*
X150596336Y-72264690D02*
X150596336Y-72312309D01*
X150596336Y-72002785D02*
X150572526Y-72026595D01*
X150572526Y-72026595D02*
X150596336Y-72050404D01*
X150596336Y-72050404D02*
X150620145Y-72026595D01*
X150620145Y-72026595D02*
X150596336Y-72002785D01*
X150596336Y-72002785D02*
X150596336Y-72050404D01*
X150048717Y-72121833D02*
X150024908Y-72098023D01*
X150024908Y-72098023D02*
X149977289Y-72074214D01*
X149977289Y-72074214D02*
X149882051Y-72121833D01*
X149882051Y-72121833D02*
X149834432Y-72098023D01*
X149834432Y-72098023D02*
X149810622Y-72074214D01*
X149643955Y-72288500D02*
X149572527Y-72312309D01*
X149572527Y-72312309D02*
X149453479Y-72312309D01*
X149453479Y-72312309D02*
X149405860Y-72288500D01*
X149405860Y-72288500D02*
X149382051Y-72264690D01*
X149382051Y-72264690D02*
X149358241Y-72217071D01*
X149358241Y-72217071D02*
X149358241Y-72169452D01*
X149358241Y-72169452D02*
X149382051Y-72121833D01*
X149382051Y-72121833D02*
X149405860Y-72098023D01*
X149405860Y-72098023D02*
X149453479Y-72074214D01*
X149453479Y-72074214D02*
X149548717Y-72050404D01*
X149548717Y-72050404D02*
X149596336Y-72026595D01*
X149596336Y-72026595D02*
X149620146Y-72002785D01*
X149620146Y-72002785D02*
X149643955Y-71955166D01*
X149643955Y-71955166D02*
X149643955Y-71907547D01*
X149643955Y-71907547D02*
X149620146Y-71859928D01*
X149620146Y-71859928D02*
X149596336Y-71836119D01*
X149596336Y-71836119D02*
X149548717Y-71812309D01*
X149548717Y-71812309D02*
X149429670Y-71812309D01*
X149429670Y-71812309D02*
X149358241Y-71836119D01*
X149048718Y-72074214D02*
X149048718Y-72312309D01*
X149215384Y-71812309D02*
X149048718Y-72074214D01*
X149048718Y-72074214D02*
X148882051Y-71812309D01*
X148715385Y-72312309D02*
X148715385Y-71812309D01*
X148715385Y-71812309D02*
X148429671Y-72312309D01*
X148429671Y-72312309D02*
X148429671Y-71812309D01*
X147905861Y-72264690D02*
X147929670Y-72288500D01*
X147929670Y-72288500D02*
X148001099Y-72312309D01*
X148001099Y-72312309D02*
X148048718Y-72312309D01*
X148048718Y-72312309D02*
X148120146Y-72288500D01*
X148120146Y-72288500D02*
X148167765Y-72240880D01*
X148167765Y-72240880D02*
X148191575Y-72193261D01*
X148191575Y-72193261D02*
X148215384Y-72098023D01*
X148215384Y-72098023D02*
X148215384Y-72026595D01*
X148215384Y-72026595D02*
X148191575Y-71931357D01*
X148191575Y-71931357D02*
X148167765Y-71883738D01*
X148167765Y-71883738D02*
X148120146Y-71836119D01*
X148120146Y-71836119D02*
X148048718Y-71812309D01*
X148048718Y-71812309D02*
X148001099Y-71812309D01*
X148001099Y-71812309D02*
X147929670Y-71836119D01*
X147929670Y-71836119D02*
X147905861Y-71859928D01*
X151286811Y-79322365D02*
X151572525Y-79322365D01*
X151429668Y-79322365D02*
X151429668Y-78822365D01*
X151429668Y-78822365D02*
X151477287Y-78893794D01*
X151477287Y-78893794D02*
X151524906Y-78941413D01*
X151524906Y-78941413D02*
X151572525Y-78965222D01*
X150977288Y-78822365D02*
X150929669Y-78822365D01*
X150929669Y-78822365D02*
X150882050Y-78846175D01*
X150882050Y-78846175D02*
X150858240Y-78869984D01*
X150858240Y-78869984D02*
X150834431Y-78917603D01*
X150834431Y-78917603D02*
X150810621Y-79012841D01*
X150810621Y-79012841D02*
X150810621Y-79131889D01*
X150810621Y-79131889D02*
X150834431Y-79227127D01*
X150834431Y-79227127D02*
X150858240Y-79274746D01*
X150858240Y-79274746D02*
X150882050Y-79298556D01*
X150882050Y-79298556D02*
X150929669Y-79322365D01*
X150929669Y-79322365D02*
X150977288Y-79322365D01*
X150977288Y-79322365D02*
X151024907Y-79298556D01*
X151024907Y-79298556D02*
X151048716Y-79274746D01*
X151048716Y-79274746D02*
X151072526Y-79227127D01*
X151072526Y-79227127D02*
X151096335Y-79131889D01*
X151096335Y-79131889D02*
X151096335Y-79012841D01*
X151096335Y-79012841D02*
X151072526Y-78917603D01*
X151072526Y-78917603D02*
X151048716Y-78869984D01*
X151048716Y-78869984D02*
X151024907Y-78846175D01*
X151024907Y-78846175D02*
X150977288Y-78822365D01*
X150596336Y-79274746D02*
X150572526Y-79298556D01*
X150572526Y-79298556D02*
X150596336Y-79322365D01*
X150596336Y-79322365D02*
X150620145Y-79298556D01*
X150620145Y-79298556D02*
X150596336Y-79274746D01*
X150596336Y-79274746D02*
X150596336Y-79322365D01*
X150596336Y-79012841D02*
X150572526Y-79036651D01*
X150572526Y-79036651D02*
X150596336Y-79060460D01*
X150596336Y-79060460D02*
X150620145Y-79036651D01*
X150620145Y-79036651D02*
X150596336Y-79012841D01*
X150596336Y-79012841D02*
X150596336Y-79060460D01*
X149715384Y-78846175D02*
X149763003Y-78822365D01*
X149763003Y-78822365D02*
X149834432Y-78822365D01*
X149834432Y-78822365D02*
X149905860Y-78846175D01*
X149905860Y-78846175D02*
X149953479Y-78893794D01*
X149953479Y-78893794D02*
X149977289Y-78941413D01*
X149977289Y-78941413D02*
X150001098Y-79036651D01*
X150001098Y-79036651D02*
X150001098Y-79108079D01*
X150001098Y-79108079D02*
X149977289Y-79203317D01*
X149977289Y-79203317D02*
X149953479Y-79250936D01*
X149953479Y-79250936D02*
X149905860Y-79298556D01*
X149905860Y-79298556D02*
X149834432Y-79322365D01*
X149834432Y-79322365D02*
X149786813Y-79322365D01*
X149786813Y-79322365D02*
X149715384Y-79298556D01*
X149715384Y-79298556D02*
X149691575Y-79274746D01*
X149691575Y-79274746D02*
X149691575Y-79108079D01*
X149691575Y-79108079D02*
X149786813Y-79108079D01*
X149501098Y-79179508D02*
X149263003Y-79179508D01*
X149548717Y-79322365D02*
X149382051Y-78822365D01*
X149382051Y-78822365D02*
X149215384Y-79322365D01*
X149048718Y-79322365D02*
X149048718Y-78822365D01*
X148810623Y-79322365D02*
X148810623Y-78822365D01*
X148810623Y-78822365D02*
X148524909Y-79322365D01*
X148524909Y-79322365D02*
X148524909Y-78822365D01*
X151477287Y-79627337D02*
X151477287Y-79746385D01*
X151596335Y-79698766D02*
X151477287Y-79746385D01*
X151477287Y-79746385D02*
X151358240Y-79698766D01*
X151548716Y-79841623D02*
X151477287Y-79746385D01*
X151477287Y-79746385D02*
X151405859Y-79841623D01*
X150858240Y-79794004D02*
X150667764Y-79794004D01*
X150786812Y-79627337D02*
X150786812Y-80055908D01*
X150786812Y-80055908D02*
X150763002Y-80103528D01*
X150763002Y-80103528D02*
X150715383Y-80127337D01*
X150715383Y-80127337D02*
X150667764Y-80127337D01*
X150501098Y-80127337D02*
X150501098Y-79794004D01*
X150501098Y-79627337D02*
X150524907Y-79651147D01*
X150524907Y-79651147D02*
X150501098Y-79674956D01*
X150501098Y-79674956D02*
X150477288Y-79651147D01*
X150477288Y-79651147D02*
X150501098Y-79627337D01*
X150501098Y-79627337D02*
X150501098Y-79674956D01*
X150072527Y-80103528D02*
X150120146Y-80127337D01*
X150120146Y-80127337D02*
X150215384Y-80127337D01*
X150215384Y-80127337D02*
X150263003Y-80103528D01*
X150263003Y-80103528D02*
X150286812Y-80055908D01*
X150286812Y-80055908D02*
X150286812Y-79865432D01*
X150286812Y-79865432D02*
X150263003Y-79817813D01*
X150263003Y-79817813D02*
X150215384Y-79794004D01*
X150215384Y-79794004D02*
X150120146Y-79794004D01*
X150120146Y-79794004D02*
X150072527Y-79817813D01*
X150072527Y-79817813D02*
X150048717Y-79865432D01*
X150048717Y-79865432D02*
X150048717Y-79913051D01*
X150048717Y-79913051D02*
X150286812Y-79960670D01*
X149620146Y-80127337D02*
X149620146Y-79627337D01*
X149620146Y-80103528D02*
X149667765Y-80127337D01*
X149667765Y-80127337D02*
X149763003Y-80127337D01*
X149763003Y-80127337D02*
X149810622Y-80103528D01*
X149810622Y-80103528D02*
X149834432Y-80079718D01*
X149834432Y-80079718D02*
X149858241Y-80032099D01*
X149858241Y-80032099D02*
X149858241Y-79889242D01*
X149858241Y-79889242D02*
X149834432Y-79841623D01*
X149834432Y-79841623D02*
X149810622Y-79817813D01*
X149810622Y-79817813D02*
X149763003Y-79794004D01*
X149763003Y-79794004D02*
X149667765Y-79794004D01*
X149667765Y-79794004D02*
X149620146Y-79817813D01*
X149072527Y-79794004D02*
X148882051Y-79794004D01*
X149001099Y-79627337D02*
X149001099Y-80055908D01*
X149001099Y-80055908D02*
X148977289Y-80103528D01*
X148977289Y-80103528D02*
X148929670Y-80127337D01*
X148929670Y-80127337D02*
X148882051Y-80127337D01*
X148643956Y-80127337D02*
X148691575Y-80103528D01*
X148691575Y-80103528D02*
X148715385Y-80079718D01*
X148715385Y-80079718D02*
X148739194Y-80032099D01*
X148739194Y-80032099D02*
X148739194Y-79889242D01*
X148739194Y-79889242D02*
X148715385Y-79841623D01*
X148715385Y-79841623D02*
X148691575Y-79817813D01*
X148691575Y-79817813D02*
X148643956Y-79794004D01*
X148643956Y-79794004D02*
X148572528Y-79794004D01*
X148572528Y-79794004D02*
X148524909Y-79817813D01*
X148524909Y-79817813D02*
X148501099Y-79841623D01*
X148501099Y-79841623D02*
X148477290Y-79889242D01*
X148477290Y-79889242D02*
X148477290Y-80032099D01*
X148477290Y-80032099D02*
X148501099Y-80079718D01*
X148501099Y-80079718D02*
X148524909Y-80103528D01*
X148524909Y-80103528D02*
X148572528Y-80127337D01*
X148572528Y-80127337D02*
X148643956Y-80127337D01*
X147620147Y-79651147D02*
X147667766Y-79627337D01*
X147667766Y-79627337D02*
X147739195Y-79627337D01*
X147739195Y-79627337D02*
X147810623Y-79651147D01*
X147810623Y-79651147D02*
X147858242Y-79698766D01*
X147858242Y-79698766D02*
X147882052Y-79746385D01*
X147882052Y-79746385D02*
X147905861Y-79841623D01*
X147905861Y-79841623D02*
X147905861Y-79913051D01*
X147905861Y-79913051D02*
X147882052Y-80008289D01*
X147882052Y-80008289D02*
X147858242Y-80055908D01*
X147858242Y-80055908D02*
X147810623Y-80103528D01*
X147810623Y-80103528D02*
X147739195Y-80127337D01*
X147739195Y-80127337D02*
X147691576Y-80127337D01*
X147691576Y-80127337D02*
X147620147Y-80103528D01*
X147620147Y-80103528D02*
X147596338Y-80079718D01*
X147596338Y-80079718D02*
X147596338Y-79913051D01*
X147596338Y-79913051D02*
X147691576Y-79913051D01*
X147382052Y-80127337D02*
X147382052Y-79627337D01*
X147382052Y-79627337D02*
X147096338Y-80127337D01*
X147096338Y-80127337D02*
X147096338Y-79627337D01*
X146858242Y-80127337D02*
X146858242Y-79627337D01*
X146858242Y-79627337D02*
X146739194Y-79627337D01*
X146739194Y-79627337D02*
X146667766Y-79651147D01*
X146667766Y-79651147D02*
X146620147Y-79698766D01*
X146620147Y-79698766D02*
X146596337Y-79746385D01*
X146596337Y-79746385D02*
X146572528Y-79841623D01*
X146572528Y-79841623D02*
X146572528Y-79913051D01*
X146572528Y-79913051D02*
X146596337Y-80008289D01*
X146596337Y-80008289D02*
X146620147Y-80055908D01*
X146620147Y-80055908D02*
X146667766Y-80103528D01*
X146667766Y-80103528D02*
X146739194Y-80127337D01*
X146739194Y-80127337D02*
X146858242Y-80127337D01*
X151477287Y-80432309D02*
X151477287Y-80551357D01*
X151596335Y-80503738D02*
X151477287Y-80551357D01*
X151477287Y-80551357D02*
X151358240Y-80503738D01*
X151548716Y-80646595D02*
X151477287Y-80551357D01*
X151477287Y-80551357D02*
X151405859Y-80646595D01*
X151096335Y-80432309D02*
X151096335Y-80551357D01*
X151215383Y-80503738D02*
X151096335Y-80551357D01*
X151096335Y-80551357D02*
X150977288Y-80503738D01*
X151167764Y-80646595D02*
X151096335Y-80551357D01*
X151096335Y-80551357D02*
X151024907Y-80646595D01*
X150477288Y-80598976D02*
X150286812Y-80598976D01*
X150405860Y-80432309D02*
X150405860Y-80860880D01*
X150405860Y-80860880D02*
X150382050Y-80908500D01*
X150382050Y-80908500D02*
X150334431Y-80932309D01*
X150334431Y-80932309D02*
X150286812Y-80932309D01*
X150120146Y-80932309D02*
X150120146Y-80598976D01*
X150120146Y-80432309D02*
X150143955Y-80456119D01*
X150143955Y-80456119D02*
X150120146Y-80479928D01*
X150120146Y-80479928D02*
X150096336Y-80456119D01*
X150096336Y-80456119D02*
X150120146Y-80432309D01*
X150120146Y-80432309D02*
X150120146Y-80479928D01*
X149691575Y-80908500D02*
X149739194Y-80932309D01*
X149739194Y-80932309D02*
X149834432Y-80932309D01*
X149834432Y-80932309D02*
X149882051Y-80908500D01*
X149882051Y-80908500D02*
X149905860Y-80860880D01*
X149905860Y-80860880D02*
X149905860Y-80670404D01*
X149905860Y-80670404D02*
X149882051Y-80622785D01*
X149882051Y-80622785D02*
X149834432Y-80598976D01*
X149834432Y-80598976D02*
X149739194Y-80598976D01*
X149739194Y-80598976D02*
X149691575Y-80622785D01*
X149691575Y-80622785D02*
X149667765Y-80670404D01*
X149667765Y-80670404D02*
X149667765Y-80718023D01*
X149667765Y-80718023D02*
X149905860Y-80765642D01*
X149239194Y-80932309D02*
X149239194Y-80432309D01*
X149239194Y-80908500D02*
X149286813Y-80932309D01*
X149286813Y-80932309D02*
X149382051Y-80932309D01*
X149382051Y-80932309D02*
X149429670Y-80908500D01*
X149429670Y-80908500D02*
X149453480Y-80884690D01*
X149453480Y-80884690D02*
X149477289Y-80837071D01*
X149477289Y-80837071D02*
X149477289Y-80694214D01*
X149477289Y-80694214D02*
X149453480Y-80646595D01*
X149453480Y-80646595D02*
X149429670Y-80622785D01*
X149429670Y-80622785D02*
X149382051Y-80598976D01*
X149382051Y-80598976D02*
X149286813Y-80598976D01*
X149286813Y-80598976D02*
X149239194Y-80622785D01*
X148691575Y-80598976D02*
X148501099Y-80598976D01*
X148620147Y-80432309D02*
X148620147Y-80860880D01*
X148620147Y-80860880D02*
X148596337Y-80908500D01*
X148596337Y-80908500D02*
X148548718Y-80932309D01*
X148548718Y-80932309D02*
X148501099Y-80932309D01*
X148263004Y-80932309D02*
X148310623Y-80908500D01*
X148310623Y-80908500D02*
X148334433Y-80884690D01*
X148334433Y-80884690D02*
X148358242Y-80837071D01*
X148358242Y-80837071D02*
X148358242Y-80694214D01*
X148358242Y-80694214D02*
X148334433Y-80646595D01*
X148334433Y-80646595D02*
X148310623Y-80622785D01*
X148310623Y-80622785D02*
X148263004Y-80598976D01*
X148263004Y-80598976D02*
X148191576Y-80598976D01*
X148191576Y-80598976D02*
X148143957Y-80622785D01*
X148143957Y-80622785D02*
X148120147Y-80646595D01*
X148120147Y-80646595D02*
X148096338Y-80694214D01*
X148096338Y-80694214D02*
X148096338Y-80837071D01*
X148096338Y-80837071D02*
X148120147Y-80884690D01*
X148120147Y-80884690D02*
X148143957Y-80908500D01*
X148143957Y-80908500D02*
X148191576Y-80932309D01*
X148191576Y-80932309D02*
X148263004Y-80932309D01*
X147572528Y-80432309D02*
X147405862Y-80932309D01*
X147405862Y-80932309D02*
X147239195Y-80432309D01*
X146834434Y-80932309D02*
X147072529Y-80932309D01*
X147072529Y-80932309D02*
X147072529Y-80432309D01*
X146572529Y-80432309D02*
X146477291Y-80432309D01*
X146477291Y-80432309D02*
X146429672Y-80456119D01*
X146429672Y-80456119D02*
X146382053Y-80503738D01*
X146382053Y-80503738D02*
X146358243Y-80598976D01*
X146358243Y-80598976D02*
X146358243Y-80765642D01*
X146358243Y-80765642D02*
X146382053Y-80860880D01*
X146382053Y-80860880D02*
X146429672Y-80908500D01*
X146429672Y-80908500D02*
X146477291Y-80932309D01*
X146477291Y-80932309D02*
X146572529Y-80932309D01*
X146572529Y-80932309D02*
X146620148Y-80908500D01*
X146620148Y-80908500D02*
X146667767Y-80860880D01*
X146667767Y-80860880D02*
X146691576Y-80765642D01*
X146691576Y-80765642D02*
X146691576Y-80598976D01*
X146691576Y-80598976D02*
X146667767Y-80503738D01*
X146667767Y-80503738D02*
X146620148Y-80456119D01*
X146620148Y-80456119D02*
X146572529Y-80432309D01*
X145882052Y-80456119D02*
X145929671Y-80432309D01*
X145929671Y-80432309D02*
X146001100Y-80432309D01*
X146001100Y-80432309D02*
X146072528Y-80456119D01*
X146072528Y-80456119D02*
X146120147Y-80503738D01*
X146120147Y-80503738D02*
X146143957Y-80551357D01*
X146143957Y-80551357D02*
X146167766Y-80646595D01*
X146167766Y-80646595D02*
X146167766Y-80718023D01*
X146167766Y-80718023D02*
X146143957Y-80813261D01*
X146143957Y-80813261D02*
X146120147Y-80860880D01*
X146120147Y-80860880D02*
X146072528Y-80908500D01*
X146072528Y-80908500D02*
X146001100Y-80932309D01*
X146001100Y-80932309D02*
X145953481Y-80932309D01*
X145953481Y-80932309D02*
X145882052Y-80908500D01*
X145882052Y-80908500D02*
X145858243Y-80884690D01*
X145858243Y-80884690D02*
X145858243Y-80718023D01*
X145858243Y-80718023D02*
X145953481Y-80718023D01*
X145643957Y-80932309D02*
X145643957Y-80432309D01*
X145120148Y-80884690D02*
X145143957Y-80908500D01*
X145143957Y-80908500D02*
X145215386Y-80932309D01*
X145215386Y-80932309D02*
X145263005Y-80932309D01*
X145263005Y-80932309D02*
X145334433Y-80908500D01*
X145334433Y-80908500D02*
X145382052Y-80860880D01*
X145382052Y-80860880D02*
X145405862Y-80813261D01*
X145405862Y-80813261D02*
X145429671Y-80718023D01*
X145429671Y-80718023D02*
X145429671Y-80646595D01*
X145429671Y-80646595D02*
X145405862Y-80551357D01*
X145405862Y-80551357D02*
X145382052Y-80503738D01*
X145382052Y-80503738D02*
X145334433Y-80456119D01*
X145334433Y-80456119D02*
X145263005Y-80432309D01*
X145263005Y-80432309D02*
X145215386Y-80432309D01*
X145215386Y-80432309D02*
X145143957Y-80456119D01*
X145143957Y-80456119D02*
X145120148Y-80479928D01*
X141596335Y-69682309D02*
X141286811Y-69682309D01*
X141286811Y-69682309D02*
X141453478Y-69872785D01*
X141453478Y-69872785D02*
X141382049Y-69872785D01*
X141382049Y-69872785D02*
X141334430Y-69896595D01*
X141334430Y-69896595D02*
X141310621Y-69920404D01*
X141310621Y-69920404D02*
X141286811Y-69968023D01*
X141286811Y-69968023D02*
X141286811Y-70087071D01*
X141286811Y-70087071D02*
X141310621Y-70134690D01*
X141310621Y-70134690D02*
X141334430Y-70158500D01*
X141334430Y-70158500D02*
X141382049Y-70182309D01*
X141382049Y-70182309D02*
X141524906Y-70182309D01*
X141524906Y-70182309D02*
X141572525Y-70158500D01*
X141572525Y-70158500D02*
X141596335Y-70134690D01*
X141072526Y-70134690D02*
X141048716Y-70158500D01*
X141048716Y-70158500D02*
X141072526Y-70182309D01*
X141072526Y-70182309D02*
X141096335Y-70158500D01*
X141096335Y-70158500D02*
X141072526Y-70134690D01*
X141072526Y-70134690D02*
X141072526Y-70182309D01*
X141072526Y-69872785D02*
X141048716Y-69896595D01*
X141048716Y-69896595D02*
X141072526Y-69920404D01*
X141072526Y-69920404D02*
X141096335Y-69896595D01*
X141096335Y-69896595D02*
X141072526Y-69872785D01*
X141072526Y-69872785D02*
X141072526Y-69920404D01*
X140524907Y-69682309D02*
X140358241Y-70182309D01*
X140358241Y-70182309D02*
X140191574Y-69682309D01*
X139929670Y-69682309D02*
X139834432Y-69682309D01*
X139834432Y-69682309D02*
X139786813Y-69706119D01*
X139786813Y-69706119D02*
X139739194Y-69753738D01*
X139739194Y-69753738D02*
X139715384Y-69848976D01*
X139715384Y-69848976D02*
X139715384Y-70015642D01*
X139715384Y-70015642D02*
X139739194Y-70110880D01*
X139739194Y-70110880D02*
X139786813Y-70158500D01*
X139786813Y-70158500D02*
X139834432Y-70182309D01*
X139834432Y-70182309D02*
X139929670Y-70182309D01*
X139929670Y-70182309D02*
X139977289Y-70158500D01*
X139977289Y-70158500D02*
X140024908Y-70110880D01*
X140024908Y-70110880D02*
X140048717Y-70015642D01*
X140048717Y-70015642D02*
X140048717Y-69848976D01*
X140048717Y-69848976D02*
X140024908Y-69753738D01*
X140024908Y-69753738D02*
X139977289Y-69706119D01*
X139977289Y-69706119D02*
X139929670Y-69682309D01*
X139501098Y-69682309D02*
X139501098Y-70087071D01*
X139501098Y-70087071D02*
X139477288Y-70134690D01*
X139477288Y-70134690D02*
X139453479Y-70158500D01*
X139453479Y-70158500D02*
X139405860Y-70182309D01*
X139405860Y-70182309D02*
X139310622Y-70182309D01*
X139310622Y-70182309D02*
X139263003Y-70158500D01*
X139263003Y-70158500D02*
X139239193Y-70134690D01*
X139239193Y-70134690D02*
X139215384Y-70087071D01*
X139215384Y-70087071D02*
X139215384Y-69682309D01*
X139048716Y-69682309D02*
X138763002Y-69682309D01*
X138905859Y-70182309D02*
X138905859Y-69682309D01*
X138620145Y-70039452D02*
X138382050Y-70039452D01*
X138667764Y-70182309D02*
X138501098Y-69682309D01*
X138501098Y-69682309D02*
X138334431Y-70182309D01*
X144260807Y-82490819D02*
X144175093Y-82519391D01*
X144175093Y-82519391D02*
X144146522Y-82547962D01*
X144146522Y-82547962D02*
X144117950Y-82605105D01*
X144117950Y-82605105D02*
X144117950Y-82690819D01*
X144117950Y-82690819D02*
X144146522Y-82747962D01*
X144146522Y-82747962D02*
X144175093Y-82776534D01*
X144175093Y-82776534D02*
X144232236Y-82805105D01*
X144232236Y-82805105D02*
X144460807Y-82805105D01*
X144460807Y-82805105D02*
X144460807Y-82205105D01*
X144460807Y-82205105D02*
X144260807Y-82205105D01*
X144260807Y-82205105D02*
X144203665Y-82233676D01*
X144203665Y-82233676D02*
X144175093Y-82262248D01*
X144175093Y-82262248D02*
X144146522Y-82319391D01*
X144146522Y-82319391D02*
X144146522Y-82376534D01*
X144146522Y-82376534D02*
X144175093Y-82433676D01*
X144175093Y-82433676D02*
X144203665Y-82462248D01*
X144203665Y-82462248D02*
X144260807Y-82490819D01*
X144260807Y-82490819D02*
X144460807Y-82490819D01*
X143775093Y-82805105D02*
X143832236Y-82776534D01*
X143832236Y-82776534D02*
X143860807Y-82719391D01*
X143860807Y-82719391D02*
X143860807Y-82205105D01*
X143289379Y-82405105D02*
X143289379Y-82805105D01*
X143546521Y-82405105D02*
X143546521Y-82719391D01*
X143546521Y-82719391D02*
X143517950Y-82776534D01*
X143517950Y-82776534D02*
X143460807Y-82805105D01*
X143460807Y-82805105D02*
X143375093Y-82805105D01*
X143375093Y-82805105D02*
X143317950Y-82776534D01*
X143317950Y-82776534D02*
X143289379Y-82747962D01*
X142775093Y-82776534D02*
X142832236Y-82805105D01*
X142832236Y-82805105D02*
X142946522Y-82805105D01*
X142946522Y-82805105D02*
X143003664Y-82776534D01*
X143003664Y-82776534D02*
X143032236Y-82719391D01*
X143032236Y-82719391D02*
X143032236Y-82490819D01*
X143032236Y-82490819D02*
X143003664Y-82433676D01*
X143003664Y-82433676D02*
X142946522Y-82405105D01*
X142946522Y-82405105D02*
X142832236Y-82405105D01*
X142832236Y-82405105D02*
X142775093Y-82433676D01*
X142775093Y-82433676D02*
X142746522Y-82490819D01*
X142746522Y-82490819D02*
X142746522Y-82547962D01*
X142746522Y-82547962D02*
X143032236Y-82605105D01*
X141860807Y-82205105D02*
X141860807Y-82633676D01*
X141860807Y-82633676D02*
X141889378Y-82719391D01*
X141889378Y-82719391D02*
X141946521Y-82776534D01*
X141946521Y-82776534D02*
X142032235Y-82805105D01*
X142032235Y-82805105D02*
X142089378Y-82805105D01*
X141317950Y-82805105D02*
X141317950Y-82490819D01*
X141317950Y-82490819D02*
X141346521Y-82433676D01*
X141346521Y-82433676D02*
X141403664Y-82405105D01*
X141403664Y-82405105D02*
X141517950Y-82405105D01*
X141517950Y-82405105D02*
X141575092Y-82433676D01*
X141317950Y-82776534D02*
X141375092Y-82805105D01*
X141375092Y-82805105D02*
X141517950Y-82805105D01*
X141517950Y-82805105D02*
X141575092Y-82776534D01*
X141575092Y-82776534D02*
X141603664Y-82719391D01*
X141603664Y-82719391D02*
X141603664Y-82662248D01*
X141603664Y-82662248D02*
X141575092Y-82605105D01*
X141575092Y-82605105D02*
X141517950Y-82576534D01*
X141517950Y-82576534D02*
X141375092Y-82576534D01*
X141375092Y-82576534D02*
X141317950Y-82547962D01*
X141089378Y-82405105D02*
X140946521Y-82805105D01*
X140803664Y-82405105D02*
X140946521Y-82805105D01*
X140946521Y-82805105D02*
X141003664Y-82947962D01*
X141003664Y-82947962D02*
X141032235Y-82976534D01*
X141032235Y-82976534D02*
X141089378Y-83005105D01*
X139775092Y-82805105D02*
X139975092Y-82519391D01*
X140117949Y-82805105D02*
X140117949Y-82205105D01*
X140117949Y-82205105D02*
X139889378Y-82205105D01*
X139889378Y-82205105D02*
X139832235Y-82233676D01*
X139832235Y-82233676D02*
X139803664Y-82262248D01*
X139803664Y-82262248D02*
X139775092Y-82319391D01*
X139775092Y-82319391D02*
X139775092Y-82405105D01*
X139775092Y-82405105D02*
X139803664Y-82462248D01*
X139803664Y-82462248D02*
X139832235Y-82490819D01*
X139832235Y-82490819D02*
X139889378Y-82519391D01*
X139889378Y-82519391D02*
X140117949Y-82519391D01*
X139260807Y-82805105D02*
X139260807Y-82490819D01*
X139260807Y-82490819D02*
X139289378Y-82433676D01*
X139289378Y-82433676D02*
X139346521Y-82405105D01*
X139346521Y-82405105D02*
X139460807Y-82405105D01*
X139460807Y-82405105D02*
X139517949Y-82433676D01*
X139260807Y-82776534D02*
X139317949Y-82805105D01*
X139317949Y-82805105D02*
X139460807Y-82805105D01*
X139460807Y-82805105D02*
X139517949Y-82776534D01*
X139517949Y-82776534D02*
X139546521Y-82719391D01*
X139546521Y-82719391D02*
X139546521Y-82662248D01*
X139546521Y-82662248D02*
X139517949Y-82605105D01*
X139517949Y-82605105D02*
X139460807Y-82576534D01*
X139460807Y-82576534D02*
X139317949Y-82576534D01*
X139317949Y-82576534D02*
X139260807Y-82547962D01*
X138717950Y-82776534D02*
X138775092Y-82805105D01*
X138775092Y-82805105D02*
X138889378Y-82805105D01*
X138889378Y-82805105D02*
X138946521Y-82776534D01*
X138946521Y-82776534D02*
X138975092Y-82747962D01*
X138975092Y-82747962D02*
X139003664Y-82690819D01*
X139003664Y-82690819D02*
X139003664Y-82519391D01*
X139003664Y-82519391D02*
X138975092Y-82462248D01*
X138975092Y-82462248D02*
X138946521Y-82433676D01*
X138946521Y-82433676D02*
X138889378Y-82405105D01*
X138889378Y-82405105D02*
X138775092Y-82405105D01*
X138775092Y-82405105D02*
X138717950Y-82433676D01*
X138460806Y-82805105D02*
X138460806Y-82405105D01*
X138460806Y-82205105D02*
X138489378Y-82233676D01*
X138489378Y-82233676D02*
X138460806Y-82262248D01*
X138460806Y-82262248D02*
X138432235Y-82233676D01*
X138432235Y-82233676D02*
X138460806Y-82205105D01*
X138460806Y-82205105D02*
X138460806Y-82262248D01*
X138175092Y-82405105D02*
X138175092Y-82805105D01*
X138175092Y-82462248D02*
X138146521Y-82433676D01*
X138146521Y-82433676D02*
X138089378Y-82405105D01*
X138089378Y-82405105D02*
X138003664Y-82405105D01*
X138003664Y-82405105D02*
X137946521Y-82433676D01*
X137946521Y-82433676D02*
X137917950Y-82490819D01*
X137917950Y-82490819D02*
X137917950Y-82805105D01*
X137375093Y-82405105D02*
X137375093Y-82890819D01*
X137375093Y-82890819D02*
X137403664Y-82947962D01*
X137403664Y-82947962D02*
X137432235Y-82976534D01*
X137432235Y-82976534D02*
X137489378Y-83005105D01*
X137489378Y-83005105D02*
X137575093Y-83005105D01*
X137575093Y-83005105D02*
X137632235Y-82976534D01*
X137375093Y-82776534D02*
X137432235Y-82805105D01*
X137432235Y-82805105D02*
X137546521Y-82805105D01*
X137546521Y-82805105D02*
X137603664Y-82776534D01*
X137603664Y-82776534D02*
X137632235Y-82747962D01*
X137632235Y-82747962D02*
X137660807Y-82690819D01*
X137660807Y-82690819D02*
X137660807Y-82519391D01*
X137660807Y-82519391D02*
X137632235Y-82462248D01*
X137632235Y-82462248D02*
X137603664Y-82433676D01*
X137603664Y-82433676D02*
X137546521Y-82405105D01*
X137546521Y-82405105D02*
X137432235Y-82405105D01*
X137432235Y-82405105D02*
X137375093Y-82433676D01*
X136260807Y-82519391D02*
X136289378Y-82490819D01*
X136289378Y-82490819D02*
X136346521Y-82462248D01*
X136346521Y-82462248D02*
X136403664Y-82462248D01*
X136403664Y-82462248D02*
X136460807Y-82490819D01*
X136460807Y-82490819D02*
X136489378Y-82519391D01*
X136489378Y-82519391D02*
X136517950Y-82576534D01*
X136517950Y-82576534D02*
X136517950Y-82633676D01*
X136517950Y-82633676D02*
X136489378Y-82690819D01*
X136489378Y-82690819D02*
X136460807Y-82719391D01*
X136460807Y-82719391D02*
X136403664Y-82747962D01*
X136403664Y-82747962D02*
X136346521Y-82747962D01*
X136346521Y-82747962D02*
X136289378Y-82719391D01*
X136289378Y-82719391D02*
X136260807Y-82690819D01*
X136260807Y-82462248D02*
X136260807Y-82690819D01*
X136260807Y-82690819D02*
X136232235Y-82719391D01*
X136232235Y-82719391D02*
X136203664Y-82719391D01*
X136203664Y-82719391D02*
X136146521Y-82690819D01*
X136146521Y-82690819D02*
X136117950Y-82633676D01*
X136117950Y-82633676D02*
X136117950Y-82490819D01*
X136117950Y-82490819D02*
X136175093Y-82405105D01*
X136175093Y-82405105D02*
X136260807Y-82347962D01*
X136260807Y-82347962D02*
X136375093Y-82319391D01*
X136375093Y-82319391D02*
X136489378Y-82347962D01*
X136489378Y-82347962D02*
X136575093Y-82405105D01*
X136575093Y-82405105D02*
X136632235Y-82490819D01*
X136632235Y-82490819D02*
X136660807Y-82605105D01*
X136660807Y-82605105D02*
X136632235Y-82719391D01*
X136632235Y-82719391D02*
X136575093Y-82805105D01*
X136575093Y-82805105D02*
X136489378Y-82862248D01*
X136489378Y-82862248D02*
X136375093Y-82890819D01*
X136375093Y-82890819D02*
X136260807Y-82862248D01*
X136260807Y-82862248D02*
X136175093Y-82805105D01*
X135232235Y-82205105D02*
X135232235Y-82633676D01*
X135232235Y-82633676D02*
X135260806Y-82719391D01*
X135260806Y-82719391D02*
X135317949Y-82776534D01*
X135317949Y-82776534D02*
X135403663Y-82805105D01*
X135403663Y-82805105D02*
X135460806Y-82805105D01*
X134946520Y-82805105D02*
X134946520Y-82205105D01*
X134946520Y-82490819D02*
X134603663Y-82490819D01*
X134603663Y-82805105D02*
X134603663Y-82205105D01*
X134317949Y-82205105D02*
X134317949Y-82690819D01*
X134317949Y-82690819D02*
X134289378Y-82747962D01*
X134289378Y-82747962D02*
X134260807Y-82776534D01*
X134260807Y-82776534D02*
X134203664Y-82805105D01*
X134203664Y-82805105D02*
X134089378Y-82805105D01*
X134089378Y-82805105D02*
X134032235Y-82776534D01*
X134032235Y-82776534D02*
X134003664Y-82747962D01*
X134003664Y-82747962D02*
X133975092Y-82690819D01*
X133975092Y-82690819D02*
X133975092Y-82205105D01*
X144975094Y-83228214D02*
X144946522Y-83199642D01*
X144946522Y-83199642D02*
X144889380Y-83171071D01*
X144889380Y-83171071D02*
X144746522Y-83171071D01*
X144746522Y-83171071D02*
X144689380Y-83199642D01*
X144689380Y-83199642D02*
X144660808Y-83228214D01*
X144660808Y-83228214D02*
X144632237Y-83285357D01*
X144632237Y-83285357D02*
X144632237Y-83342500D01*
X144632237Y-83342500D02*
X144660808Y-83428214D01*
X144660808Y-83428214D02*
X145003665Y-83771071D01*
X145003665Y-83771071D02*
X144632237Y-83771071D01*
X144403665Y-83228214D02*
X144375093Y-83199642D01*
X144375093Y-83199642D02*
X144317951Y-83171071D01*
X144317951Y-83171071D02*
X144175093Y-83171071D01*
X144175093Y-83171071D02*
X144117951Y-83199642D01*
X144117951Y-83199642D02*
X144089379Y-83228214D01*
X144089379Y-83228214D02*
X144060808Y-83285357D01*
X144060808Y-83285357D02*
X144060808Y-83342500D01*
X144060808Y-83342500D02*
X144089379Y-83428214D01*
X144089379Y-83428214D02*
X144432236Y-83771071D01*
X144432236Y-83771071D02*
X144060808Y-83771071D01*
X143860807Y-83171071D02*
X143460807Y-83771071D01*
X143460807Y-83171071D02*
X143860807Y-83771071D01*
X143317950Y-83171071D02*
X142975093Y-83171071D01*
X143146521Y-83771071D02*
X143146521Y-83171071D01*
X142317949Y-83771071D02*
X142317949Y-83171071D01*
X142317949Y-83171071D02*
X142117949Y-83599642D01*
X142117949Y-83599642D02*
X141917949Y-83171071D01*
X141917949Y-83171071D02*
X141917949Y-83771071D01*
X141375093Y-83771071D02*
X141375093Y-83456785D01*
X141375093Y-83456785D02*
X141403664Y-83399642D01*
X141403664Y-83399642D02*
X141460807Y-83371071D01*
X141460807Y-83371071D02*
X141575093Y-83371071D01*
X141575093Y-83371071D02*
X141632235Y-83399642D01*
X141375093Y-83742500D02*
X141432235Y-83771071D01*
X141432235Y-83771071D02*
X141575093Y-83771071D01*
X141575093Y-83771071D02*
X141632235Y-83742500D01*
X141632235Y-83742500D02*
X141660807Y-83685357D01*
X141660807Y-83685357D02*
X141660807Y-83628214D01*
X141660807Y-83628214D02*
X141632235Y-83571071D01*
X141632235Y-83571071D02*
X141575093Y-83542500D01*
X141575093Y-83542500D02*
X141432235Y-83542500D01*
X141432235Y-83542500D02*
X141375093Y-83513928D01*
X141089378Y-83771071D02*
X141089378Y-83371071D01*
X141089378Y-83171071D02*
X141117950Y-83199642D01*
X141117950Y-83199642D02*
X141089378Y-83228214D01*
X141089378Y-83228214D02*
X141060807Y-83199642D01*
X141060807Y-83199642D02*
X141089378Y-83171071D01*
X141089378Y-83171071D02*
X141089378Y-83228214D01*
X140803664Y-83371071D02*
X140803664Y-83771071D01*
X140803664Y-83428214D02*
X140775093Y-83399642D01*
X140775093Y-83399642D02*
X140717950Y-83371071D01*
X140717950Y-83371071D02*
X140632236Y-83371071D01*
X140632236Y-83371071D02*
X140575093Y-83399642D01*
X140575093Y-83399642D02*
X140546522Y-83456785D01*
X140546522Y-83456785D02*
X140546522Y-83771071D01*
X139803664Y-83771071D02*
X139803664Y-83171071D01*
X139803664Y-83171071D02*
X139660807Y-83171071D01*
X139660807Y-83171071D02*
X139575093Y-83199642D01*
X139575093Y-83199642D02*
X139517950Y-83256785D01*
X139517950Y-83256785D02*
X139489379Y-83313928D01*
X139489379Y-83313928D02*
X139460807Y-83428214D01*
X139460807Y-83428214D02*
X139460807Y-83513928D01*
X139460807Y-83513928D02*
X139489379Y-83628214D01*
X139489379Y-83628214D02*
X139517950Y-83685357D01*
X139517950Y-83685357D02*
X139575093Y-83742500D01*
X139575093Y-83742500D02*
X139660807Y-83771071D01*
X139660807Y-83771071D02*
X139803664Y-83771071D01*
X139232236Y-83599642D02*
X138946522Y-83599642D01*
X139289379Y-83771071D02*
X139089379Y-83171071D01*
X139089379Y-83171071D02*
X138889379Y-83771071D01*
X138346521Y-83713928D02*
X138375093Y-83742500D01*
X138375093Y-83742500D02*
X138460807Y-83771071D01*
X138460807Y-83771071D02*
X138517950Y-83771071D01*
X138517950Y-83771071D02*
X138603664Y-83742500D01*
X138603664Y-83742500D02*
X138660807Y-83685357D01*
X138660807Y-83685357D02*
X138689378Y-83628214D01*
X138689378Y-83628214D02*
X138717950Y-83513928D01*
X138717950Y-83513928D02*
X138717950Y-83428214D01*
X138717950Y-83428214D02*
X138689378Y-83313928D01*
X138689378Y-83313928D02*
X138660807Y-83256785D01*
X138660807Y-83256785D02*
X138603664Y-83199642D01*
X138603664Y-83199642D02*
X138517950Y-83171071D01*
X138517950Y-83171071D02*
X138460807Y-83171071D01*
X138460807Y-83171071D02*
X138375093Y-83199642D01*
X138375093Y-83199642D02*
X138346521Y-83228214D01*
X137432235Y-83456785D02*
X137346521Y-83485357D01*
X137346521Y-83485357D02*
X137317950Y-83513928D01*
X137317950Y-83513928D02*
X137289378Y-83571071D01*
X137289378Y-83571071D02*
X137289378Y-83656785D01*
X137289378Y-83656785D02*
X137317950Y-83713928D01*
X137317950Y-83713928D02*
X137346521Y-83742500D01*
X137346521Y-83742500D02*
X137403664Y-83771071D01*
X137403664Y-83771071D02*
X137632235Y-83771071D01*
X137632235Y-83771071D02*
X137632235Y-83171071D01*
X137632235Y-83171071D02*
X137432235Y-83171071D01*
X137432235Y-83171071D02*
X137375093Y-83199642D01*
X137375093Y-83199642D02*
X137346521Y-83228214D01*
X137346521Y-83228214D02*
X137317950Y-83285357D01*
X137317950Y-83285357D02*
X137317950Y-83342500D01*
X137317950Y-83342500D02*
X137346521Y-83399642D01*
X137346521Y-83399642D02*
X137375093Y-83428214D01*
X137375093Y-83428214D02*
X137432235Y-83456785D01*
X137432235Y-83456785D02*
X137632235Y-83456785D01*
X137032235Y-83771071D02*
X137032235Y-83371071D01*
X137032235Y-83485357D02*
X137003664Y-83428214D01*
X137003664Y-83428214D02*
X136975093Y-83399642D01*
X136975093Y-83399642D02*
X136917950Y-83371071D01*
X136917950Y-83371071D02*
X136860807Y-83371071D01*
X136432235Y-83742500D02*
X136489378Y-83771071D01*
X136489378Y-83771071D02*
X136603664Y-83771071D01*
X136603664Y-83771071D02*
X136660806Y-83742500D01*
X136660806Y-83742500D02*
X136689378Y-83685357D01*
X136689378Y-83685357D02*
X136689378Y-83456785D01*
X136689378Y-83456785D02*
X136660806Y-83399642D01*
X136660806Y-83399642D02*
X136603664Y-83371071D01*
X136603664Y-83371071D02*
X136489378Y-83371071D01*
X136489378Y-83371071D02*
X136432235Y-83399642D01*
X136432235Y-83399642D02*
X136403664Y-83456785D01*
X136403664Y-83456785D02*
X136403664Y-83513928D01*
X136403664Y-83513928D02*
X136689378Y-83571071D01*
X135889378Y-83771071D02*
X135889378Y-83456785D01*
X135889378Y-83456785D02*
X135917949Y-83399642D01*
X135917949Y-83399642D02*
X135975092Y-83371071D01*
X135975092Y-83371071D02*
X136089378Y-83371071D01*
X136089378Y-83371071D02*
X136146520Y-83399642D01*
X135889378Y-83742500D02*
X135946520Y-83771071D01*
X135946520Y-83771071D02*
X136089378Y-83771071D01*
X136089378Y-83771071D02*
X136146520Y-83742500D01*
X136146520Y-83742500D02*
X136175092Y-83685357D01*
X136175092Y-83685357D02*
X136175092Y-83628214D01*
X136175092Y-83628214D02*
X136146520Y-83571071D01*
X136146520Y-83571071D02*
X136089378Y-83542500D01*
X136089378Y-83542500D02*
X135946520Y-83542500D01*
X135946520Y-83542500D02*
X135889378Y-83513928D01*
X135603663Y-83771071D02*
X135603663Y-83171071D01*
X135546521Y-83542500D02*
X135375092Y-83771071D01*
X135375092Y-83371071D02*
X135603663Y-83599642D01*
X135032235Y-83771071D02*
X135089378Y-83742500D01*
X135089378Y-83742500D02*
X135117949Y-83713928D01*
X135117949Y-83713928D02*
X135146521Y-83656785D01*
X135146521Y-83656785D02*
X135146521Y-83485357D01*
X135146521Y-83485357D02*
X135117949Y-83428214D01*
X135117949Y-83428214D02*
X135089378Y-83399642D01*
X135089378Y-83399642D02*
X135032235Y-83371071D01*
X135032235Y-83371071D02*
X134946521Y-83371071D01*
X134946521Y-83371071D02*
X134889378Y-83399642D01*
X134889378Y-83399642D02*
X134860807Y-83428214D01*
X134860807Y-83428214D02*
X134832235Y-83485357D01*
X134832235Y-83485357D02*
X134832235Y-83656785D01*
X134832235Y-83656785D02*
X134860807Y-83713928D01*
X134860807Y-83713928D02*
X134889378Y-83742500D01*
X134889378Y-83742500D02*
X134946521Y-83771071D01*
X134946521Y-83771071D02*
X135032235Y-83771071D01*
X134317950Y-83371071D02*
X134317950Y-83771071D01*
X134575092Y-83371071D02*
X134575092Y-83685357D01*
X134575092Y-83685357D02*
X134546521Y-83742500D01*
X134546521Y-83742500D02*
X134489378Y-83771071D01*
X134489378Y-83771071D02*
X134403664Y-83771071D01*
X134403664Y-83771071D02*
X134346521Y-83742500D01*
X134346521Y-83742500D02*
X134317950Y-83713928D01*
X134117950Y-83371071D02*
X133889378Y-83371071D01*
X134032235Y-83171071D02*
X134032235Y-83685357D01*
X134032235Y-83685357D02*
X134003664Y-83742500D01*
X134003664Y-83742500D02*
X133946521Y-83771071D01*
X133946521Y-83771071D02*
X133889378Y-83771071D01*
X145232234Y-84708466D02*
X145146520Y-84737037D01*
X145146520Y-84737037D02*
X145003662Y-84737037D01*
X145003662Y-84737037D02*
X144946520Y-84708466D01*
X144946520Y-84708466D02*
X144917948Y-84679894D01*
X144917948Y-84679894D02*
X144889377Y-84622751D01*
X144889377Y-84622751D02*
X144889377Y-84565608D01*
X144889377Y-84565608D02*
X144917948Y-84508466D01*
X144917948Y-84508466D02*
X144946520Y-84479894D01*
X144946520Y-84479894D02*
X145003662Y-84451323D01*
X145003662Y-84451323D02*
X145117948Y-84422751D01*
X145117948Y-84422751D02*
X145175091Y-84394180D01*
X145175091Y-84394180D02*
X145203662Y-84365608D01*
X145203662Y-84365608D02*
X145232234Y-84308466D01*
X145232234Y-84308466D02*
X145232234Y-84251323D01*
X145232234Y-84251323D02*
X145203662Y-84194180D01*
X145203662Y-84194180D02*
X145175091Y-84165608D01*
X145175091Y-84165608D02*
X145117948Y-84137037D01*
X145117948Y-84137037D02*
X144975091Y-84137037D01*
X144975091Y-84137037D02*
X144889377Y-84165608D01*
X144375091Y-84337037D02*
X144375091Y-84737037D01*
X144632233Y-84337037D02*
X144632233Y-84651323D01*
X144632233Y-84651323D02*
X144603662Y-84708466D01*
X144603662Y-84708466D02*
X144546519Y-84737037D01*
X144546519Y-84737037D02*
X144460805Y-84737037D01*
X144460805Y-84737037D02*
X144403662Y-84708466D01*
X144403662Y-84708466D02*
X144375091Y-84679894D01*
X143632233Y-84737037D02*
X143632233Y-84137037D01*
X143632233Y-84422751D02*
X143289376Y-84422751D01*
X143289376Y-84737037D02*
X143289376Y-84137037D01*
X142746520Y-84337037D02*
X142746520Y-84737037D01*
X143003662Y-84337037D02*
X143003662Y-84651323D01*
X143003662Y-84651323D02*
X142975091Y-84708466D01*
X142975091Y-84708466D02*
X142917948Y-84737037D01*
X142917948Y-84737037D02*
X142832234Y-84737037D01*
X142832234Y-84737037D02*
X142775091Y-84708466D01*
X142775091Y-84708466D02*
X142746520Y-84679894D01*
X142203663Y-84737037D02*
X142203663Y-84422751D01*
X142203663Y-84422751D02*
X142232234Y-84365608D01*
X142232234Y-84365608D02*
X142289377Y-84337037D01*
X142289377Y-84337037D02*
X142403663Y-84337037D01*
X142403663Y-84337037D02*
X142460805Y-84365608D01*
X142203663Y-84708466D02*
X142260805Y-84737037D01*
X142260805Y-84737037D02*
X142403663Y-84737037D01*
X142403663Y-84737037D02*
X142460805Y-84708466D01*
X142460805Y-84708466D02*
X142489377Y-84651323D01*
X142489377Y-84651323D02*
X142489377Y-84594180D01*
X142489377Y-84594180D02*
X142460805Y-84537037D01*
X142460805Y-84537037D02*
X142403663Y-84508466D01*
X142403663Y-84508466D02*
X142260805Y-84508466D01*
X142260805Y-84508466D02*
X142203663Y-84479894D01*
X141917948Y-84337037D02*
X141917948Y-84737037D01*
X141917948Y-84394180D02*
X141889377Y-84365608D01*
X141889377Y-84365608D02*
X141832234Y-84337037D01*
X141832234Y-84337037D02*
X141746520Y-84337037D01*
X141746520Y-84337037D02*
X141689377Y-84365608D01*
X141689377Y-84365608D02*
X141660806Y-84422751D01*
X141660806Y-84422751D02*
X141660806Y-84737037D01*
X141117949Y-84337037D02*
X141117949Y-84822751D01*
X141117949Y-84822751D02*
X141146520Y-84879894D01*
X141146520Y-84879894D02*
X141175091Y-84908466D01*
X141175091Y-84908466D02*
X141232234Y-84937037D01*
X141232234Y-84937037D02*
X141317949Y-84937037D01*
X141317949Y-84937037D02*
X141375091Y-84908466D01*
X141117949Y-84708466D02*
X141175091Y-84737037D01*
X141175091Y-84737037D02*
X141289377Y-84737037D01*
X141289377Y-84737037D02*
X141346520Y-84708466D01*
X141346520Y-84708466D02*
X141375091Y-84679894D01*
X141375091Y-84679894D02*
X141403663Y-84622751D01*
X141403663Y-84622751D02*
X141403663Y-84451323D01*
X141403663Y-84451323D02*
X141375091Y-84394180D01*
X141375091Y-84394180D02*
X141346520Y-84365608D01*
X141346520Y-84365608D02*
X141289377Y-84337037D01*
X141289377Y-84337037D02*
X141175091Y-84337037D01*
X141175091Y-84337037D02*
X141117949Y-84365608D01*
X140803663Y-84708466D02*
X140803663Y-84737037D01*
X140803663Y-84737037D02*
X140832234Y-84794180D01*
X140832234Y-84794180D02*
X140860806Y-84822751D01*
X140089377Y-84422751D02*
X139889377Y-84422751D01*
X139803663Y-84737037D02*
X140089377Y-84737037D01*
X140089377Y-84737037D02*
X140089377Y-84137037D01*
X140089377Y-84137037D02*
X139803663Y-84137037D01*
X139546520Y-84737037D02*
X139546520Y-84337037D01*
X139546520Y-84394180D02*
X139517949Y-84365608D01*
X139517949Y-84365608D02*
X139460806Y-84337037D01*
X139460806Y-84337037D02*
X139375092Y-84337037D01*
X139375092Y-84337037D02*
X139317949Y-84365608D01*
X139317949Y-84365608D02*
X139289378Y-84422751D01*
X139289378Y-84422751D02*
X139289378Y-84737037D01*
X139289378Y-84422751D02*
X139260806Y-84365608D01*
X139260806Y-84365608D02*
X139203663Y-84337037D01*
X139203663Y-84337037D02*
X139117949Y-84337037D01*
X139117949Y-84337037D02*
X139060806Y-84365608D01*
X139060806Y-84365608D02*
X139032235Y-84422751D01*
X139032235Y-84422751D02*
X139032235Y-84737037D01*
X138746520Y-84737037D02*
X138746520Y-84337037D01*
X138746520Y-84394180D02*
X138717949Y-84365608D01*
X138717949Y-84365608D02*
X138660806Y-84337037D01*
X138660806Y-84337037D02*
X138575092Y-84337037D01*
X138575092Y-84337037D02*
X138517949Y-84365608D01*
X138517949Y-84365608D02*
X138489378Y-84422751D01*
X138489378Y-84422751D02*
X138489378Y-84737037D01*
X138489378Y-84422751D02*
X138460806Y-84365608D01*
X138460806Y-84365608D02*
X138403663Y-84337037D01*
X138403663Y-84337037D02*
X138317949Y-84337037D01*
X138317949Y-84337037D02*
X138260806Y-84365608D01*
X138260806Y-84365608D02*
X138232235Y-84422751D01*
X138232235Y-84422751D02*
X138232235Y-84737037D01*
X137689378Y-84737037D02*
X137689378Y-84422751D01*
X137689378Y-84422751D02*
X137717949Y-84365608D01*
X137717949Y-84365608D02*
X137775092Y-84337037D01*
X137775092Y-84337037D02*
X137889378Y-84337037D01*
X137889378Y-84337037D02*
X137946520Y-84365608D01*
X137689378Y-84708466D02*
X137746520Y-84737037D01*
X137746520Y-84737037D02*
X137889378Y-84737037D01*
X137889378Y-84737037D02*
X137946520Y-84708466D01*
X137946520Y-84708466D02*
X137975092Y-84651323D01*
X137975092Y-84651323D02*
X137975092Y-84594180D01*
X137975092Y-84594180D02*
X137946520Y-84537037D01*
X137946520Y-84537037D02*
X137889378Y-84508466D01*
X137889378Y-84508466D02*
X137746520Y-84508466D01*
X137746520Y-84508466D02*
X137689378Y-84479894D01*
X136832235Y-84137037D02*
X136717949Y-84137037D01*
X136717949Y-84137037D02*
X136660806Y-84165608D01*
X136660806Y-84165608D02*
X136603663Y-84222751D01*
X136603663Y-84222751D02*
X136575092Y-84337037D01*
X136575092Y-84337037D02*
X136575092Y-84537037D01*
X136575092Y-84537037D02*
X136603663Y-84651323D01*
X136603663Y-84651323D02*
X136660806Y-84708466D01*
X136660806Y-84708466D02*
X136717949Y-84737037D01*
X136717949Y-84737037D02*
X136832235Y-84737037D01*
X136832235Y-84737037D02*
X136889378Y-84708466D01*
X136889378Y-84708466D02*
X136946520Y-84651323D01*
X136946520Y-84651323D02*
X136975092Y-84537037D01*
X136975092Y-84537037D02*
X136975092Y-84337037D01*
X136975092Y-84337037D02*
X136946520Y-84222751D01*
X136946520Y-84222751D02*
X136889378Y-84165608D01*
X136889378Y-84165608D02*
X136832235Y-84137037D01*
X136060807Y-84337037D02*
X136060807Y-84737037D01*
X136317949Y-84337037D02*
X136317949Y-84651323D01*
X136317949Y-84651323D02*
X136289378Y-84708466D01*
X136289378Y-84708466D02*
X136232235Y-84737037D01*
X136232235Y-84737037D02*
X136146521Y-84737037D01*
X136146521Y-84737037D02*
X136089378Y-84708466D01*
X136089378Y-84708466D02*
X136060807Y-84679894D01*
X135832235Y-84337037D02*
X135689378Y-84737037D01*
X135546521Y-84337037D02*
X135689378Y-84737037D01*
X135689378Y-84737037D02*
X135746521Y-84879894D01*
X135746521Y-84879894D02*
X135775092Y-84908466D01*
X135775092Y-84908466D02*
X135832235Y-84937037D01*
X135060807Y-84737037D02*
X135060807Y-84422751D01*
X135060807Y-84422751D02*
X135089378Y-84365608D01*
X135089378Y-84365608D02*
X135146521Y-84337037D01*
X135146521Y-84337037D02*
X135260807Y-84337037D01*
X135260807Y-84337037D02*
X135317949Y-84365608D01*
X135060807Y-84708466D02*
X135117949Y-84737037D01*
X135117949Y-84737037D02*
X135260807Y-84737037D01*
X135260807Y-84737037D02*
X135317949Y-84708466D01*
X135317949Y-84708466D02*
X135346521Y-84651323D01*
X135346521Y-84651323D02*
X135346521Y-84594180D01*
X135346521Y-84594180D02*
X135317949Y-84537037D01*
X135317949Y-84537037D02*
X135260807Y-84508466D01*
X135260807Y-84508466D02*
X135117949Y-84508466D01*
X135117949Y-84508466D02*
X135060807Y-84479894D01*
X134775092Y-84337037D02*
X134775092Y-84737037D01*
X134775092Y-84394180D02*
X134746521Y-84365608D01*
X134746521Y-84365608D02*
X134689378Y-84337037D01*
X134689378Y-84337037D02*
X134603664Y-84337037D01*
X134603664Y-84337037D02*
X134546521Y-84365608D01*
X134546521Y-84365608D02*
X134517950Y-84422751D01*
X134517950Y-84422751D02*
X134517950Y-84737037D01*
X133975093Y-84337037D02*
X133975093Y-84822751D01*
X133975093Y-84822751D02*
X134003664Y-84879894D01*
X134003664Y-84879894D02*
X134032235Y-84908466D01*
X134032235Y-84908466D02*
X134089378Y-84937037D01*
X134089378Y-84937037D02*
X134175093Y-84937037D01*
X134175093Y-84937037D02*
X134232235Y-84908466D01*
X133975093Y-84708466D02*
X134032235Y-84737037D01*
X134032235Y-84737037D02*
X134146521Y-84737037D01*
X134146521Y-84737037D02*
X134203664Y-84708466D01*
X134203664Y-84708466D02*
X134232235Y-84679894D01*
X134232235Y-84679894D02*
X134260807Y-84622751D01*
X134260807Y-84622751D02*
X134260807Y-84451323D01*
X134260807Y-84451323D02*
X134232235Y-84394180D01*
X134232235Y-84394180D02*
X134203664Y-84365608D01*
X134203664Y-84365608D02*
X134146521Y-84337037D01*
X134146521Y-84337037D02*
X134032235Y-84337037D01*
X134032235Y-84337037D02*
X133975093Y-84365608D01*
X141334430Y-72348976D02*
X141334430Y-72682309D01*
X141453478Y-72158500D02*
X141572525Y-72515642D01*
X141572525Y-72515642D02*
X141263002Y-72515642D01*
X141072526Y-72634690D02*
X141048716Y-72658500D01*
X141048716Y-72658500D02*
X141072526Y-72682309D01*
X141072526Y-72682309D02*
X141096335Y-72658500D01*
X141096335Y-72658500D02*
X141072526Y-72634690D01*
X141072526Y-72634690D02*
X141072526Y-72682309D01*
X141072526Y-72372785D02*
X141048716Y-72396595D01*
X141048716Y-72396595D02*
X141072526Y-72420404D01*
X141072526Y-72420404D02*
X141096335Y-72396595D01*
X141096335Y-72396595D02*
X141072526Y-72372785D01*
X141072526Y-72372785D02*
X141072526Y-72420404D01*
X140191574Y-72206119D02*
X140239193Y-72182309D01*
X140239193Y-72182309D02*
X140310622Y-72182309D01*
X140310622Y-72182309D02*
X140382050Y-72206119D01*
X140382050Y-72206119D02*
X140429669Y-72253738D01*
X140429669Y-72253738D02*
X140453479Y-72301357D01*
X140453479Y-72301357D02*
X140477288Y-72396595D01*
X140477288Y-72396595D02*
X140477288Y-72468023D01*
X140477288Y-72468023D02*
X140453479Y-72563261D01*
X140453479Y-72563261D02*
X140429669Y-72610880D01*
X140429669Y-72610880D02*
X140382050Y-72658500D01*
X140382050Y-72658500D02*
X140310622Y-72682309D01*
X140310622Y-72682309D02*
X140263003Y-72682309D01*
X140263003Y-72682309D02*
X140191574Y-72658500D01*
X140191574Y-72658500D02*
X140167765Y-72634690D01*
X140167765Y-72634690D02*
X140167765Y-72468023D01*
X140167765Y-72468023D02*
X140263003Y-72468023D01*
X139953479Y-72682309D02*
X139953479Y-72182309D01*
X139953479Y-72182309D02*
X139667765Y-72682309D01*
X139667765Y-72682309D02*
X139667765Y-72182309D01*
X139429669Y-72682309D02*
X139429669Y-72182309D01*
X139429669Y-72182309D02*
X139310621Y-72182309D01*
X139310621Y-72182309D02*
X139239193Y-72206119D01*
X139239193Y-72206119D02*
X139191574Y-72253738D01*
X139191574Y-72253738D02*
X139167764Y-72301357D01*
X139167764Y-72301357D02*
X139143955Y-72396595D01*
X139143955Y-72396595D02*
X139143955Y-72468023D01*
X139143955Y-72468023D02*
X139167764Y-72563261D01*
X139167764Y-72563261D02*
X139191574Y-72610880D01*
X139191574Y-72610880D02*
X139239193Y-72658500D01*
X139239193Y-72658500D02*
X139310621Y-72682309D01*
X139310621Y-72682309D02*
X139429669Y-72682309D01*
X141477287Y-80146595D02*
X141524906Y-80122785D01*
X141524906Y-80122785D02*
X141548716Y-80098976D01*
X141548716Y-80098976D02*
X141572525Y-80051357D01*
X141572525Y-80051357D02*
X141572525Y-80027547D01*
X141572525Y-80027547D02*
X141548716Y-79979928D01*
X141548716Y-79979928D02*
X141524906Y-79956119D01*
X141524906Y-79956119D02*
X141477287Y-79932309D01*
X141477287Y-79932309D02*
X141382049Y-79932309D01*
X141382049Y-79932309D02*
X141334430Y-79956119D01*
X141334430Y-79956119D02*
X141310621Y-79979928D01*
X141310621Y-79979928D02*
X141286811Y-80027547D01*
X141286811Y-80027547D02*
X141286811Y-80051357D01*
X141286811Y-80051357D02*
X141310621Y-80098976D01*
X141310621Y-80098976D02*
X141334430Y-80122785D01*
X141334430Y-80122785D02*
X141382049Y-80146595D01*
X141382049Y-80146595D02*
X141477287Y-80146595D01*
X141477287Y-80146595D02*
X141524906Y-80170404D01*
X141524906Y-80170404D02*
X141548716Y-80194214D01*
X141548716Y-80194214D02*
X141572525Y-80241833D01*
X141572525Y-80241833D02*
X141572525Y-80337071D01*
X141572525Y-80337071D02*
X141548716Y-80384690D01*
X141548716Y-80384690D02*
X141524906Y-80408500D01*
X141524906Y-80408500D02*
X141477287Y-80432309D01*
X141477287Y-80432309D02*
X141382049Y-80432309D01*
X141382049Y-80432309D02*
X141334430Y-80408500D01*
X141334430Y-80408500D02*
X141310621Y-80384690D01*
X141310621Y-80384690D02*
X141286811Y-80337071D01*
X141286811Y-80337071D02*
X141286811Y-80241833D01*
X141286811Y-80241833D02*
X141310621Y-80194214D01*
X141310621Y-80194214D02*
X141334430Y-80170404D01*
X141334430Y-80170404D02*
X141382049Y-80146595D01*
X141072526Y-80384690D02*
X141048716Y-80408500D01*
X141048716Y-80408500D02*
X141072526Y-80432309D01*
X141072526Y-80432309D02*
X141096335Y-80408500D01*
X141096335Y-80408500D02*
X141072526Y-80384690D01*
X141072526Y-80384690D02*
X141072526Y-80432309D01*
X141072526Y-80122785D02*
X141048716Y-80146595D01*
X141048716Y-80146595D02*
X141072526Y-80170404D01*
X141072526Y-80170404D02*
X141096335Y-80146595D01*
X141096335Y-80146595D02*
X141072526Y-80122785D01*
X141072526Y-80122785D02*
X141072526Y-80170404D01*
X140477288Y-80408500D02*
X140405860Y-80432309D01*
X140405860Y-80432309D02*
X140286812Y-80432309D01*
X140286812Y-80432309D02*
X140239193Y-80408500D01*
X140239193Y-80408500D02*
X140215384Y-80384690D01*
X140215384Y-80384690D02*
X140191574Y-80337071D01*
X140191574Y-80337071D02*
X140191574Y-80289452D01*
X140191574Y-80289452D02*
X140215384Y-80241833D01*
X140215384Y-80241833D02*
X140239193Y-80218023D01*
X140239193Y-80218023D02*
X140286812Y-80194214D01*
X140286812Y-80194214D02*
X140382050Y-80170404D01*
X140382050Y-80170404D02*
X140429669Y-80146595D01*
X140429669Y-80146595D02*
X140453479Y-80122785D01*
X140453479Y-80122785D02*
X140477288Y-80075166D01*
X140477288Y-80075166D02*
X140477288Y-80027547D01*
X140477288Y-80027547D02*
X140453479Y-79979928D01*
X140453479Y-79979928D02*
X140429669Y-79956119D01*
X140429669Y-79956119D02*
X140382050Y-79932309D01*
X140382050Y-79932309D02*
X140263003Y-79932309D01*
X140263003Y-79932309D02*
X140191574Y-79956119D01*
X139977289Y-80432309D02*
X139977289Y-79932309D01*
X139977289Y-79932309D02*
X139858241Y-79932309D01*
X139858241Y-79932309D02*
X139786813Y-79956119D01*
X139786813Y-79956119D02*
X139739194Y-80003738D01*
X139739194Y-80003738D02*
X139715384Y-80051357D01*
X139715384Y-80051357D02*
X139691575Y-80146595D01*
X139691575Y-80146595D02*
X139691575Y-80218023D01*
X139691575Y-80218023D02*
X139715384Y-80313261D01*
X139715384Y-80313261D02*
X139739194Y-80360880D01*
X139739194Y-80360880D02*
X139786813Y-80408500D01*
X139786813Y-80408500D02*
X139858241Y-80432309D01*
X139858241Y-80432309D02*
X139977289Y-80432309D01*
X139382051Y-79932309D02*
X139286813Y-79932309D01*
X139286813Y-79932309D02*
X139239194Y-79956119D01*
X139239194Y-79956119D02*
X139191575Y-80003738D01*
X139191575Y-80003738D02*
X139167765Y-80098976D01*
X139167765Y-80098976D02*
X139167765Y-80265642D01*
X139167765Y-80265642D02*
X139191575Y-80360880D01*
X139191575Y-80360880D02*
X139239194Y-80408500D01*
X139239194Y-80408500D02*
X139286813Y-80432309D01*
X139286813Y-80432309D02*
X139382051Y-80432309D01*
X139382051Y-80432309D02*
X139429670Y-80408500D01*
X139429670Y-80408500D02*
X139477289Y-80360880D01*
X139477289Y-80360880D02*
X139501098Y-80265642D01*
X139501098Y-80265642D02*
X139501098Y-80098976D01*
X139501098Y-80098976D02*
X139477289Y-80003738D01*
X139477289Y-80003738D02*
X139429670Y-79956119D01*
X139429670Y-79956119D02*
X139382051Y-79932309D01*
X151286811Y-67312309D02*
X151572525Y-67312309D01*
X151429668Y-67312309D02*
X151429668Y-66812309D01*
X151429668Y-66812309D02*
X151477287Y-66883738D01*
X151477287Y-66883738D02*
X151524906Y-66931357D01*
X151524906Y-66931357D02*
X151572525Y-66955166D01*
X150834431Y-66812309D02*
X151072526Y-66812309D01*
X151072526Y-66812309D02*
X151096335Y-67050404D01*
X151096335Y-67050404D02*
X151072526Y-67026595D01*
X151072526Y-67026595D02*
X151024907Y-67002785D01*
X151024907Y-67002785D02*
X150905859Y-67002785D01*
X150905859Y-67002785D02*
X150858240Y-67026595D01*
X150858240Y-67026595D02*
X150834431Y-67050404D01*
X150834431Y-67050404D02*
X150810621Y-67098023D01*
X150810621Y-67098023D02*
X150810621Y-67217071D01*
X150810621Y-67217071D02*
X150834431Y-67264690D01*
X150834431Y-67264690D02*
X150858240Y-67288500D01*
X150858240Y-67288500D02*
X150905859Y-67312309D01*
X150905859Y-67312309D02*
X151024907Y-67312309D01*
X151024907Y-67312309D02*
X151072526Y-67288500D01*
X151072526Y-67288500D02*
X151096335Y-67264690D01*
X150596336Y-67264690D02*
X150572526Y-67288500D01*
X150572526Y-67288500D02*
X150596336Y-67312309D01*
X150596336Y-67312309D02*
X150620145Y-67288500D01*
X150620145Y-67288500D02*
X150596336Y-67264690D01*
X150596336Y-67264690D02*
X150596336Y-67312309D01*
X150596336Y-67002785D02*
X150572526Y-67026595D01*
X150572526Y-67026595D02*
X150596336Y-67050404D01*
X150596336Y-67050404D02*
X150620145Y-67026595D01*
X150620145Y-67026595D02*
X150596336Y-67002785D01*
X150596336Y-67002785D02*
X150596336Y-67050404D01*
X150048717Y-67121833D02*
X150024908Y-67098023D01*
X150024908Y-67098023D02*
X149977289Y-67074214D01*
X149977289Y-67074214D02*
X149882051Y-67121833D01*
X149882051Y-67121833D02*
X149834432Y-67098023D01*
X149834432Y-67098023D02*
X149810622Y-67074214D01*
X149334432Y-67312309D02*
X149501098Y-67074214D01*
X149620146Y-67312309D02*
X149620146Y-66812309D01*
X149620146Y-66812309D02*
X149429670Y-66812309D01*
X149429670Y-66812309D02*
X149382051Y-66836119D01*
X149382051Y-66836119D02*
X149358241Y-66859928D01*
X149358241Y-66859928D02*
X149334432Y-66907547D01*
X149334432Y-66907547D02*
X149334432Y-66978976D01*
X149334432Y-66978976D02*
X149358241Y-67026595D01*
X149358241Y-67026595D02*
X149382051Y-67050404D01*
X149382051Y-67050404D02*
X149429670Y-67074214D01*
X149429670Y-67074214D02*
X149620146Y-67074214D01*
X149120146Y-67050404D02*
X148953479Y-67050404D01*
X148882051Y-67312309D02*
X149120146Y-67312309D01*
X149120146Y-67312309D02*
X149120146Y-66812309D01*
X149120146Y-66812309D02*
X148882051Y-66812309D01*
X148691574Y-67288500D02*
X148620146Y-67312309D01*
X148620146Y-67312309D02*
X148501098Y-67312309D01*
X148501098Y-67312309D02*
X148453479Y-67288500D01*
X148453479Y-67288500D02*
X148429670Y-67264690D01*
X148429670Y-67264690D02*
X148405860Y-67217071D01*
X148405860Y-67217071D02*
X148405860Y-67169452D01*
X148405860Y-67169452D02*
X148429670Y-67121833D01*
X148429670Y-67121833D02*
X148453479Y-67098023D01*
X148453479Y-67098023D02*
X148501098Y-67074214D01*
X148501098Y-67074214D02*
X148596336Y-67050404D01*
X148596336Y-67050404D02*
X148643955Y-67026595D01*
X148643955Y-67026595D02*
X148667765Y-67002785D01*
X148667765Y-67002785D02*
X148691574Y-66955166D01*
X148691574Y-66955166D02*
X148691574Y-66907547D01*
X148691574Y-66907547D02*
X148667765Y-66859928D01*
X148667765Y-66859928D02*
X148643955Y-66836119D01*
X148643955Y-66836119D02*
X148596336Y-66812309D01*
X148596336Y-66812309D02*
X148477289Y-66812309D01*
X148477289Y-66812309D02*
X148405860Y-66836119D01*
X148191575Y-67050404D02*
X148024908Y-67050404D01*
X147953480Y-67312309D02*
X148191575Y-67312309D01*
X148191575Y-67312309D02*
X148191575Y-66812309D01*
X148191575Y-66812309D02*
X147953480Y-66812309D01*
X147810622Y-66812309D02*
X147524908Y-66812309D01*
X147667765Y-67312309D02*
X147667765Y-66812309D01*
X151286811Y-76877337D02*
X151572525Y-76877337D01*
X151429668Y-76877337D02*
X151429668Y-76377337D01*
X151429668Y-76377337D02*
X151477287Y-76448766D01*
X151477287Y-76448766D02*
X151524906Y-76496385D01*
X151524906Y-76496385D02*
X151572525Y-76520194D01*
X150810621Y-76877337D02*
X151096335Y-76877337D01*
X150953478Y-76877337D02*
X150953478Y-76377337D01*
X150953478Y-76377337D02*
X151001097Y-76448766D01*
X151001097Y-76448766D02*
X151048716Y-76496385D01*
X151048716Y-76496385D02*
X151096335Y-76520194D01*
X150596336Y-76829718D02*
X150572526Y-76853528D01*
X150572526Y-76853528D02*
X150596336Y-76877337D01*
X150596336Y-76877337D02*
X150620145Y-76853528D01*
X150620145Y-76853528D02*
X150596336Y-76829718D01*
X150596336Y-76829718D02*
X150596336Y-76877337D01*
X150596336Y-76567813D02*
X150572526Y-76591623D01*
X150572526Y-76591623D02*
X150596336Y-76615432D01*
X150596336Y-76615432D02*
X150620145Y-76591623D01*
X150620145Y-76591623D02*
X150596336Y-76567813D01*
X150596336Y-76567813D02*
X150596336Y-76615432D01*
X150048717Y-76377337D02*
X149882051Y-76877337D01*
X149882051Y-76877337D02*
X149715384Y-76377337D01*
X149310623Y-76877337D02*
X149548718Y-76877337D01*
X149548718Y-76877337D02*
X149548718Y-76377337D01*
X149048718Y-76377337D02*
X148953480Y-76377337D01*
X148953480Y-76377337D02*
X148905861Y-76401147D01*
X148905861Y-76401147D02*
X148858242Y-76448766D01*
X148858242Y-76448766D02*
X148834432Y-76544004D01*
X148834432Y-76544004D02*
X148834432Y-76710670D01*
X148834432Y-76710670D02*
X148858242Y-76805908D01*
X148858242Y-76805908D02*
X148905861Y-76853528D01*
X148905861Y-76853528D02*
X148953480Y-76877337D01*
X148953480Y-76877337D02*
X149048718Y-76877337D01*
X149048718Y-76877337D02*
X149096337Y-76853528D01*
X149096337Y-76853528D02*
X149143956Y-76805908D01*
X149143956Y-76805908D02*
X149167765Y-76710670D01*
X149167765Y-76710670D02*
X149167765Y-76544004D01*
X149167765Y-76544004D02*
X149143956Y-76448766D01*
X149143956Y-76448766D02*
X149096337Y-76401147D01*
X149096337Y-76401147D02*
X149048718Y-76377337D01*
X148358241Y-76401147D02*
X148405860Y-76377337D01*
X148405860Y-76377337D02*
X148477289Y-76377337D01*
X148477289Y-76377337D02*
X148548717Y-76401147D01*
X148548717Y-76401147D02*
X148596336Y-76448766D01*
X148596336Y-76448766D02*
X148620146Y-76496385D01*
X148620146Y-76496385D02*
X148643955Y-76591623D01*
X148643955Y-76591623D02*
X148643955Y-76663051D01*
X148643955Y-76663051D02*
X148620146Y-76758289D01*
X148620146Y-76758289D02*
X148596336Y-76805908D01*
X148596336Y-76805908D02*
X148548717Y-76853528D01*
X148548717Y-76853528D02*
X148477289Y-76877337D01*
X148477289Y-76877337D02*
X148429670Y-76877337D01*
X148429670Y-76877337D02*
X148358241Y-76853528D01*
X148358241Y-76853528D02*
X148334432Y-76829718D01*
X148334432Y-76829718D02*
X148334432Y-76663051D01*
X148334432Y-76663051D02*
X148429670Y-76663051D01*
X148120146Y-76877337D02*
X148120146Y-76377337D01*
X147596337Y-76829718D02*
X147620146Y-76853528D01*
X147620146Y-76853528D02*
X147691575Y-76877337D01*
X147691575Y-76877337D02*
X147739194Y-76877337D01*
X147739194Y-76877337D02*
X147810622Y-76853528D01*
X147810622Y-76853528D02*
X147858241Y-76805908D01*
X147858241Y-76805908D02*
X147882051Y-76758289D01*
X147882051Y-76758289D02*
X147905860Y-76663051D01*
X147905860Y-76663051D02*
X147905860Y-76591623D01*
X147905860Y-76591623D02*
X147882051Y-76496385D01*
X147882051Y-76496385D02*
X147858241Y-76448766D01*
X147858241Y-76448766D02*
X147810622Y-76401147D01*
X147810622Y-76401147D02*
X147739194Y-76377337D01*
X147739194Y-76377337D02*
X147691575Y-76377337D01*
X147691575Y-76377337D02*
X147620146Y-76401147D01*
X147620146Y-76401147D02*
X147596337Y-76424956D01*
X151286811Y-77682309D02*
X151572525Y-77682309D01*
X151429668Y-77682309D02*
X151429668Y-77182309D01*
X151429668Y-77182309D02*
X151477287Y-77253738D01*
X151477287Y-77253738D02*
X151524906Y-77301357D01*
X151524906Y-77301357D02*
X151572525Y-77325166D01*
X151072526Y-77634690D02*
X151048716Y-77658500D01*
X151048716Y-77658500D02*
X151072526Y-77682309D01*
X151072526Y-77682309D02*
X151096335Y-77658500D01*
X151096335Y-77658500D02*
X151072526Y-77634690D01*
X151072526Y-77634690D02*
X151072526Y-77682309D01*
X150620145Y-77182309D02*
X150715383Y-77182309D01*
X150715383Y-77182309D02*
X150763002Y-77206119D01*
X150763002Y-77206119D02*
X150786812Y-77229928D01*
X150786812Y-77229928D02*
X150834431Y-77301357D01*
X150834431Y-77301357D02*
X150858240Y-77396595D01*
X150858240Y-77396595D02*
X150858240Y-77587071D01*
X150858240Y-77587071D02*
X150834431Y-77634690D01*
X150834431Y-77634690D02*
X150810621Y-77658500D01*
X150810621Y-77658500D02*
X150763002Y-77682309D01*
X150763002Y-77682309D02*
X150667764Y-77682309D01*
X150667764Y-77682309D02*
X150620145Y-77658500D01*
X150620145Y-77658500D02*
X150596336Y-77634690D01*
X150596336Y-77634690D02*
X150572526Y-77587071D01*
X150572526Y-77587071D02*
X150572526Y-77468023D01*
X150572526Y-77468023D02*
X150596336Y-77420404D01*
X150596336Y-77420404D02*
X150620145Y-77396595D01*
X150620145Y-77396595D02*
X150667764Y-77372785D01*
X150667764Y-77372785D02*
X150763002Y-77372785D01*
X150763002Y-77372785D02*
X150810621Y-77396595D01*
X150810621Y-77396595D02*
X150834431Y-77420404D01*
X150834431Y-77420404D02*
X150858240Y-77468023D01*
X150382050Y-77229928D02*
X150358241Y-77206119D01*
X150358241Y-77206119D02*
X150310622Y-77182309D01*
X150310622Y-77182309D02*
X150191574Y-77182309D01*
X150191574Y-77182309D02*
X150143955Y-77206119D01*
X150143955Y-77206119D02*
X150120146Y-77229928D01*
X150120146Y-77229928D02*
X150096336Y-77277547D01*
X150096336Y-77277547D02*
X150096336Y-77325166D01*
X150096336Y-77325166D02*
X150120146Y-77396595D01*
X150120146Y-77396595D02*
X150405860Y-77682309D01*
X150405860Y-77682309D02*
X150096336Y-77682309D01*
X149882051Y-77491833D02*
X149501099Y-77491833D01*
X149024908Y-77182309D02*
X149263003Y-77182309D01*
X149263003Y-77182309D02*
X149286812Y-77420404D01*
X149286812Y-77420404D02*
X149263003Y-77396595D01*
X149263003Y-77396595D02*
X149215384Y-77372785D01*
X149215384Y-77372785D02*
X149096336Y-77372785D01*
X149096336Y-77372785D02*
X149048717Y-77396595D01*
X149048717Y-77396595D02*
X149024908Y-77420404D01*
X149024908Y-77420404D02*
X149001098Y-77468023D01*
X149001098Y-77468023D02*
X149001098Y-77587071D01*
X149001098Y-77587071D02*
X149024908Y-77634690D01*
X149024908Y-77634690D02*
X149048717Y-77658500D01*
X149048717Y-77658500D02*
X149096336Y-77682309D01*
X149096336Y-77682309D02*
X149215384Y-77682309D01*
X149215384Y-77682309D02*
X149263003Y-77658500D01*
X149263003Y-77658500D02*
X149286812Y-77634690D01*
X148786813Y-77634690D02*
X148763003Y-77658500D01*
X148763003Y-77658500D02*
X148786813Y-77682309D01*
X148786813Y-77682309D02*
X148810622Y-77658500D01*
X148810622Y-77658500D02*
X148786813Y-77634690D01*
X148786813Y-77634690D02*
X148786813Y-77682309D01*
X148310623Y-77182309D02*
X148548718Y-77182309D01*
X148548718Y-77182309D02*
X148572527Y-77420404D01*
X148572527Y-77420404D02*
X148548718Y-77396595D01*
X148548718Y-77396595D02*
X148501099Y-77372785D01*
X148501099Y-77372785D02*
X148382051Y-77372785D01*
X148382051Y-77372785D02*
X148334432Y-77396595D01*
X148334432Y-77396595D02*
X148310623Y-77420404D01*
X148310623Y-77420404D02*
X148286813Y-77468023D01*
X148286813Y-77468023D02*
X148286813Y-77587071D01*
X148286813Y-77587071D02*
X148310623Y-77634690D01*
X148310623Y-77634690D02*
X148334432Y-77658500D01*
X148334432Y-77658500D02*
X148382051Y-77682309D01*
X148382051Y-77682309D02*
X148501099Y-77682309D01*
X148501099Y-77682309D02*
X148548718Y-77658500D01*
X148548718Y-77658500D02*
X148572527Y-77634690D01*
X148120147Y-77348976D02*
X148001099Y-77682309D01*
X148001099Y-77682309D02*
X147882052Y-77348976D01*
X141286811Y-66572365D02*
X141572525Y-66572365D01*
X141429668Y-66572365D02*
X141429668Y-66072365D01*
X141429668Y-66072365D02*
X141477287Y-66143794D01*
X141477287Y-66143794D02*
X141524906Y-66191413D01*
X141524906Y-66191413D02*
X141572525Y-66215222D01*
X141072526Y-66524746D02*
X141048716Y-66548556D01*
X141048716Y-66548556D02*
X141072526Y-66572365D01*
X141072526Y-66572365D02*
X141096335Y-66548556D01*
X141096335Y-66548556D02*
X141072526Y-66524746D01*
X141072526Y-66524746D02*
X141072526Y-66572365D01*
X141072526Y-66262841D02*
X141048716Y-66286651D01*
X141048716Y-66286651D02*
X141072526Y-66310460D01*
X141072526Y-66310460D02*
X141096335Y-66286651D01*
X141096335Y-66286651D02*
X141072526Y-66262841D01*
X141072526Y-66262841D02*
X141072526Y-66310460D01*
X140524907Y-66072365D02*
X140358241Y-66572365D01*
X140358241Y-66572365D02*
X140191574Y-66072365D01*
X139739194Y-66572365D02*
X139905860Y-66334270D01*
X140024908Y-66572365D02*
X140024908Y-66072365D01*
X140024908Y-66072365D02*
X139834432Y-66072365D01*
X139834432Y-66072365D02*
X139786813Y-66096175D01*
X139786813Y-66096175D02*
X139763003Y-66119984D01*
X139763003Y-66119984D02*
X139739194Y-66167603D01*
X139739194Y-66167603D02*
X139739194Y-66239032D01*
X139739194Y-66239032D02*
X139763003Y-66286651D01*
X139763003Y-66286651D02*
X139786813Y-66310460D01*
X139786813Y-66310460D02*
X139834432Y-66334270D01*
X139834432Y-66334270D02*
X140024908Y-66334270D01*
X139524908Y-66310460D02*
X139358241Y-66310460D01*
X139286813Y-66572365D02*
X139524908Y-66572365D01*
X139524908Y-66572365D02*
X139524908Y-66072365D01*
X139524908Y-66072365D02*
X139286813Y-66072365D01*
X138905860Y-66310460D02*
X139072527Y-66310460D01*
X139072527Y-66572365D02*
X139072527Y-66072365D01*
X139072527Y-66072365D02*
X138834432Y-66072365D01*
X141477287Y-67377337D02*
X141524906Y-67353528D01*
X141524906Y-67353528D02*
X141548716Y-67329718D01*
X141548716Y-67329718D02*
X141572525Y-67282099D01*
X141572525Y-67282099D02*
X141572525Y-67139242D01*
X141572525Y-67139242D02*
X141548716Y-67091623D01*
X141548716Y-67091623D02*
X141524906Y-67067813D01*
X141524906Y-67067813D02*
X141477287Y-67044004D01*
X141477287Y-67044004D02*
X141405859Y-67044004D01*
X141405859Y-67044004D02*
X141358240Y-67067813D01*
X141358240Y-67067813D02*
X141334430Y-67091623D01*
X141334430Y-67091623D02*
X141310621Y-67139242D01*
X141310621Y-67139242D02*
X141310621Y-67282099D01*
X141310621Y-67282099D02*
X141334430Y-67329718D01*
X141334430Y-67329718D02*
X141358240Y-67353528D01*
X141358240Y-67353528D02*
X141405859Y-67377337D01*
X141405859Y-67377337D02*
X141477287Y-67377337D01*
X140882049Y-67044004D02*
X140882049Y-67377337D01*
X141096335Y-67044004D02*
X141096335Y-67305908D01*
X141096335Y-67305908D02*
X141072525Y-67353528D01*
X141072525Y-67353528D02*
X141024906Y-67377337D01*
X141024906Y-67377337D02*
X140953478Y-67377337D01*
X140953478Y-67377337D02*
X140905859Y-67353528D01*
X140905859Y-67353528D02*
X140882049Y-67329718D01*
X140715382Y-67044004D02*
X140524906Y-67044004D01*
X140643954Y-66877337D02*
X140643954Y-67305908D01*
X140643954Y-67305908D02*
X140620144Y-67353528D01*
X140620144Y-67353528D02*
X140572525Y-67377337D01*
X140572525Y-67377337D02*
X140524906Y-67377337D01*
X140358240Y-67329718D02*
X140334430Y-67353528D01*
X140334430Y-67353528D02*
X140358240Y-67377337D01*
X140358240Y-67377337D02*
X140382049Y-67353528D01*
X140382049Y-67353528D02*
X140358240Y-67329718D01*
X140358240Y-67329718D02*
X140358240Y-67377337D01*
X140358240Y-67067813D02*
X140334430Y-67091623D01*
X140334430Y-67091623D02*
X140358240Y-67115432D01*
X140358240Y-67115432D02*
X140382049Y-67091623D01*
X140382049Y-67091623D02*
X140358240Y-67067813D01*
X140358240Y-67067813D02*
X140358240Y-67115432D01*
X139763002Y-66924956D02*
X139739193Y-66901147D01*
X139739193Y-66901147D02*
X139691574Y-66877337D01*
X139691574Y-66877337D02*
X139572526Y-66877337D01*
X139572526Y-66877337D02*
X139524907Y-66901147D01*
X139524907Y-66901147D02*
X139501098Y-66924956D01*
X139501098Y-66924956D02*
X139477288Y-66972575D01*
X139477288Y-66972575D02*
X139477288Y-67020194D01*
X139477288Y-67020194D02*
X139501098Y-67091623D01*
X139501098Y-67091623D02*
X139786812Y-67377337D01*
X139786812Y-67377337D02*
X139477288Y-67377337D01*
X139263003Y-67329718D02*
X139239193Y-67353528D01*
X139239193Y-67353528D02*
X139263003Y-67377337D01*
X139263003Y-67377337D02*
X139286812Y-67353528D01*
X139286812Y-67353528D02*
X139263003Y-67329718D01*
X139263003Y-67329718D02*
X139263003Y-67377337D01*
X138786813Y-66877337D02*
X139024908Y-66877337D01*
X139024908Y-66877337D02*
X139048717Y-67115432D01*
X139048717Y-67115432D02*
X139024908Y-67091623D01*
X139024908Y-67091623D02*
X138977289Y-67067813D01*
X138977289Y-67067813D02*
X138858241Y-67067813D01*
X138858241Y-67067813D02*
X138810622Y-67091623D01*
X138810622Y-67091623D02*
X138786813Y-67115432D01*
X138786813Y-67115432D02*
X138763003Y-67163051D01*
X138763003Y-67163051D02*
X138763003Y-67282099D01*
X138763003Y-67282099D02*
X138786813Y-67329718D01*
X138786813Y-67329718D02*
X138810622Y-67353528D01*
X138810622Y-67353528D02*
X138858241Y-67377337D01*
X138858241Y-67377337D02*
X138977289Y-67377337D01*
X138977289Y-67377337D02*
X139024908Y-67353528D01*
X139024908Y-67353528D02*
X139048717Y-67329718D01*
X138596337Y-67044004D02*
X138477289Y-67377337D01*
X138477289Y-67377337D02*
X138358242Y-67044004D01*
X141548716Y-68182309D02*
X141548716Y-67848976D01*
X141548716Y-67682309D02*
X141572525Y-67706119D01*
X141572525Y-67706119D02*
X141548716Y-67729928D01*
X141548716Y-67729928D02*
X141524906Y-67706119D01*
X141524906Y-67706119D02*
X141548716Y-67682309D01*
X141548716Y-67682309D02*
X141548716Y-67729928D01*
X141310621Y-67848976D02*
X141310621Y-68182309D01*
X141310621Y-67896595D02*
X141286811Y-67872785D01*
X141286811Y-67872785D02*
X141239192Y-67848976D01*
X141239192Y-67848976D02*
X141167764Y-67848976D01*
X141167764Y-67848976D02*
X141120145Y-67872785D01*
X141120145Y-67872785D02*
X141096335Y-67920404D01*
X141096335Y-67920404D02*
X141096335Y-68182309D01*
X140858240Y-68134690D02*
X140834430Y-68158500D01*
X140834430Y-68158500D02*
X140858240Y-68182309D01*
X140858240Y-68182309D02*
X140882049Y-68158500D01*
X140882049Y-68158500D02*
X140858240Y-68134690D01*
X140858240Y-68134690D02*
X140858240Y-68182309D01*
X140858240Y-67872785D02*
X140834430Y-67896595D01*
X140834430Y-67896595D02*
X140858240Y-67920404D01*
X140858240Y-67920404D02*
X140882049Y-67896595D01*
X140882049Y-67896595D02*
X140858240Y-67872785D01*
X140858240Y-67872785D02*
X140858240Y-67920404D01*
X140143955Y-67682309D02*
X140096336Y-67682309D01*
X140096336Y-67682309D02*
X140048717Y-67706119D01*
X140048717Y-67706119D02*
X140024907Y-67729928D01*
X140024907Y-67729928D02*
X140001098Y-67777547D01*
X140001098Y-67777547D02*
X139977288Y-67872785D01*
X139977288Y-67872785D02*
X139977288Y-67991833D01*
X139977288Y-67991833D02*
X140001098Y-68087071D01*
X140001098Y-68087071D02*
X140024907Y-68134690D01*
X140024907Y-68134690D02*
X140048717Y-68158500D01*
X140048717Y-68158500D02*
X140096336Y-68182309D01*
X140096336Y-68182309D02*
X140143955Y-68182309D01*
X140143955Y-68182309D02*
X140191574Y-68158500D01*
X140191574Y-68158500D02*
X140215383Y-68134690D01*
X140215383Y-68134690D02*
X140239193Y-68087071D01*
X140239193Y-68087071D02*
X140263002Y-67991833D01*
X140263002Y-67991833D02*
X140263002Y-67872785D01*
X140263002Y-67872785D02*
X140239193Y-67777547D01*
X140239193Y-67777547D02*
X140215383Y-67729928D01*
X140215383Y-67729928D02*
X140191574Y-67706119D01*
X140191574Y-67706119D02*
X140143955Y-67682309D01*
X139763003Y-67991833D02*
X139382051Y-67991833D01*
X139215383Y-67682309D02*
X139048717Y-68182309D01*
X139048717Y-68182309D02*
X138882050Y-67682309D01*
X138715384Y-68182309D02*
X138715384Y-67682309D01*
X138715384Y-67682309D02*
X138596336Y-67682309D01*
X138596336Y-67682309D02*
X138524908Y-67706119D01*
X138524908Y-67706119D02*
X138477289Y-67753738D01*
X138477289Y-67753738D02*
X138453479Y-67801357D01*
X138453479Y-67801357D02*
X138429670Y-67896595D01*
X138429670Y-67896595D02*
X138429670Y-67968023D01*
X138429670Y-67968023D02*
X138453479Y-68063261D01*
X138453479Y-68063261D02*
X138477289Y-68110880D01*
X138477289Y-68110880D02*
X138524908Y-68158500D01*
X138524908Y-68158500D02*
X138596336Y-68182309D01*
X138596336Y-68182309D02*
X138715384Y-68182309D01*
X138215384Y-68182309D02*
X138215384Y-67682309D01*
X138215384Y-67682309D02*
X138096336Y-67682309D01*
X138096336Y-67682309D02*
X138024908Y-67706119D01*
X138024908Y-67706119D02*
X137977289Y-67753738D01*
X137977289Y-67753738D02*
X137953479Y-67801357D01*
X137953479Y-67801357D02*
X137929670Y-67896595D01*
X137929670Y-67896595D02*
X137929670Y-67968023D01*
X137929670Y-67968023D02*
X137953479Y-68063261D01*
X137953479Y-68063261D02*
X137977289Y-68110880D01*
X137977289Y-68110880D02*
X138024908Y-68158500D01*
X138024908Y-68158500D02*
X138096336Y-68182309D01*
X138096336Y-68182309D02*
X138215384Y-68182309D01*
X142432238Y-62849642D02*
X142146524Y-62849642D01*
X142489381Y-63021071D02*
X142289381Y-62421071D01*
X142289381Y-62421071D02*
X142089381Y-63021071D01*
X141889380Y-63021071D02*
X141889380Y-62421071D01*
X141889380Y-62421071D02*
X141746523Y-62421071D01*
X141746523Y-62421071D02*
X141660809Y-62449642D01*
X141660809Y-62449642D02*
X141603666Y-62506785D01*
X141603666Y-62506785D02*
X141575095Y-62563928D01*
X141575095Y-62563928D02*
X141546523Y-62678214D01*
X141546523Y-62678214D02*
X141546523Y-62763928D01*
X141546523Y-62763928D02*
X141575095Y-62878214D01*
X141575095Y-62878214D02*
X141603666Y-62935357D01*
X141603666Y-62935357D02*
X141660809Y-62992500D01*
X141660809Y-62992500D02*
X141746523Y-63021071D01*
X141746523Y-63021071D02*
X141889380Y-63021071D01*
X141003666Y-62421071D02*
X141289380Y-62421071D01*
X141289380Y-62421071D02*
X141317952Y-62706785D01*
X141317952Y-62706785D02*
X141289380Y-62678214D01*
X141289380Y-62678214D02*
X141232238Y-62649642D01*
X141232238Y-62649642D02*
X141089380Y-62649642D01*
X141089380Y-62649642D02*
X141032238Y-62678214D01*
X141032238Y-62678214D02*
X141003666Y-62706785D01*
X141003666Y-62706785D02*
X140975095Y-62763928D01*
X140975095Y-62763928D02*
X140975095Y-62906785D01*
X140975095Y-62906785D02*
X141003666Y-62963928D01*
X141003666Y-62963928D02*
X141032238Y-62992500D01*
X141032238Y-62992500D02*
X141089380Y-63021071D01*
X141089380Y-63021071D02*
X141232238Y-63021071D01*
X141232238Y-63021071D02*
X141289380Y-62992500D01*
X141289380Y-62992500D02*
X141317952Y-62963928D01*
X140460809Y-62421071D02*
X140575094Y-62421071D01*
X140575094Y-62421071D02*
X140632237Y-62449642D01*
X140632237Y-62449642D02*
X140660809Y-62478214D01*
X140660809Y-62478214D02*
X140717951Y-62563928D01*
X140717951Y-62563928D02*
X140746523Y-62678214D01*
X140746523Y-62678214D02*
X140746523Y-62906785D01*
X140746523Y-62906785D02*
X140717951Y-62963928D01*
X140717951Y-62963928D02*
X140689380Y-62992500D01*
X140689380Y-62992500D02*
X140632237Y-63021071D01*
X140632237Y-63021071D02*
X140517951Y-63021071D01*
X140517951Y-63021071D02*
X140460809Y-62992500D01*
X140460809Y-62992500D02*
X140432237Y-62963928D01*
X140432237Y-62963928D02*
X140403666Y-62906785D01*
X140403666Y-62906785D02*
X140403666Y-62763928D01*
X140403666Y-62763928D02*
X140432237Y-62706785D01*
X140432237Y-62706785D02*
X140460809Y-62678214D01*
X140460809Y-62678214D02*
X140517951Y-62649642D01*
X140517951Y-62649642D02*
X140632237Y-62649642D01*
X140632237Y-62649642D02*
X140689380Y-62678214D01*
X140689380Y-62678214D02*
X140717951Y-62706785D01*
X140717951Y-62706785D02*
X140746523Y-62763928D01*
X140060808Y-62678214D02*
X140117951Y-62649642D01*
X140117951Y-62649642D02*
X140146522Y-62621071D01*
X140146522Y-62621071D02*
X140175094Y-62563928D01*
X140175094Y-62563928D02*
X140175094Y-62535357D01*
X140175094Y-62535357D02*
X140146522Y-62478214D01*
X140146522Y-62478214D02*
X140117951Y-62449642D01*
X140117951Y-62449642D02*
X140060808Y-62421071D01*
X140060808Y-62421071D02*
X139946522Y-62421071D01*
X139946522Y-62421071D02*
X139889380Y-62449642D01*
X139889380Y-62449642D02*
X139860808Y-62478214D01*
X139860808Y-62478214D02*
X139832237Y-62535357D01*
X139832237Y-62535357D02*
X139832237Y-62563928D01*
X139832237Y-62563928D02*
X139860808Y-62621071D01*
X139860808Y-62621071D02*
X139889380Y-62649642D01*
X139889380Y-62649642D02*
X139946522Y-62678214D01*
X139946522Y-62678214D02*
X140060808Y-62678214D01*
X140060808Y-62678214D02*
X140117951Y-62706785D01*
X140117951Y-62706785D02*
X140146522Y-62735357D01*
X140146522Y-62735357D02*
X140175094Y-62792500D01*
X140175094Y-62792500D02*
X140175094Y-62906785D01*
X140175094Y-62906785D02*
X140146522Y-62963928D01*
X140146522Y-62963928D02*
X140117951Y-62992500D01*
X140117951Y-62992500D02*
X140060808Y-63021071D01*
X140060808Y-63021071D02*
X139946522Y-63021071D01*
X139946522Y-63021071D02*
X139889380Y-62992500D01*
X139889380Y-62992500D02*
X139860808Y-62963928D01*
X139860808Y-62963928D02*
X139832237Y-62906785D01*
X139832237Y-62906785D02*
X139832237Y-62792500D01*
X139832237Y-62792500D02*
X139860808Y-62735357D01*
X139860808Y-62735357D02*
X139889380Y-62706785D01*
X139889380Y-62706785D02*
X139946522Y-62678214D01*
X139546522Y-63021071D02*
X139432236Y-63021071D01*
X139432236Y-63021071D02*
X139375093Y-62992500D01*
X139375093Y-62992500D02*
X139346522Y-62963928D01*
X139346522Y-62963928D02*
X139289379Y-62878214D01*
X139289379Y-62878214D02*
X139260808Y-62763928D01*
X139260808Y-62763928D02*
X139260808Y-62535357D01*
X139260808Y-62535357D02*
X139289379Y-62478214D01*
X139289379Y-62478214D02*
X139317951Y-62449642D01*
X139317951Y-62449642D02*
X139375093Y-62421071D01*
X139375093Y-62421071D02*
X139489379Y-62421071D01*
X139489379Y-62421071D02*
X139546522Y-62449642D01*
X139546522Y-62449642D02*
X139575093Y-62478214D01*
X139575093Y-62478214D02*
X139603665Y-62535357D01*
X139603665Y-62535357D02*
X139603665Y-62678214D01*
X139603665Y-62678214D02*
X139575093Y-62735357D01*
X139575093Y-62735357D02*
X139546522Y-62763928D01*
X139546522Y-62763928D02*
X139489379Y-62792500D01*
X139489379Y-62792500D02*
X139375093Y-62792500D01*
X139375093Y-62792500D02*
X139317951Y-62763928D01*
X139317951Y-62763928D02*
X139289379Y-62735357D01*
X139289379Y-62735357D02*
X139260808Y-62678214D01*
X138660807Y-63021071D02*
X138860807Y-62735357D01*
X139003664Y-63021071D02*
X139003664Y-62421071D01*
X139003664Y-62421071D02*
X138775093Y-62421071D01*
X138775093Y-62421071D02*
X138717950Y-62449642D01*
X138717950Y-62449642D02*
X138689379Y-62478214D01*
X138689379Y-62478214D02*
X138660807Y-62535357D01*
X138660807Y-62535357D02*
X138660807Y-62621071D01*
X138660807Y-62621071D02*
X138689379Y-62678214D01*
X138689379Y-62678214D02*
X138717950Y-62706785D01*
X138717950Y-62706785D02*
X138775093Y-62735357D01*
X138775093Y-62735357D02*
X139003664Y-62735357D01*
X138432236Y-62849642D02*
X138146522Y-62849642D01*
X138489379Y-63021071D02*
X138289379Y-62421071D01*
X138289379Y-62421071D02*
X138089379Y-63021071D01*
X137546521Y-63021071D02*
X137746521Y-62735357D01*
X137889378Y-63021071D02*
X137889378Y-62421071D01*
X137889378Y-62421071D02*
X137660807Y-62421071D01*
X137660807Y-62421071D02*
X137603664Y-62449642D01*
X137603664Y-62449642D02*
X137575093Y-62478214D01*
X137575093Y-62478214D02*
X137546521Y-62535357D01*
X137546521Y-62535357D02*
X137546521Y-62621071D01*
X137546521Y-62621071D02*
X137575093Y-62678214D01*
X137575093Y-62678214D02*
X137603664Y-62706785D01*
X137603664Y-62706785D02*
X137660807Y-62735357D01*
X137660807Y-62735357D02*
X137889378Y-62735357D01*
X137289378Y-62421071D02*
X137289378Y-62906785D01*
X137289378Y-62906785D02*
X137260807Y-62963928D01*
X137260807Y-62963928D02*
X137232236Y-62992500D01*
X137232236Y-62992500D02*
X137175093Y-63021071D01*
X137175093Y-63021071D02*
X137060807Y-63021071D01*
X137060807Y-63021071D02*
X137003664Y-62992500D01*
X137003664Y-62992500D02*
X136975093Y-62963928D01*
X136975093Y-62963928D02*
X136946521Y-62906785D01*
X136946521Y-62906785D02*
X136946521Y-62421071D01*
X136717950Y-62421071D02*
X136317950Y-62421071D01*
X136317950Y-62421071D02*
X136717950Y-63021071D01*
X136717950Y-63021071D02*
X136317950Y-63021071D01*
X136089378Y-62792500D02*
X135632236Y-62792500D01*
X135003664Y-63021071D02*
X135203664Y-62735357D01*
X135346521Y-63021071D02*
X135346521Y-62421071D01*
X135346521Y-62421071D02*
X135117950Y-62421071D01*
X135117950Y-62421071D02*
X135060807Y-62449642D01*
X135060807Y-62449642D02*
X135032236Y-62478214D01*
X135032236Y-62478214D02*
X135003664Y-62535357D01*
X135003664Y-62535357D02*
X135003664Y-62621071D01*
X135003664Y-62621071D02*
X135032236Y-62678214D01*
X135032236Y-62678214D02*
X135060807Y-62706785D01*
X135060807Y-62706785D02*
X135117950Y-62735357D01*
X135117950Y-62735357D02*
X135346521Y-62735357D01*
X134460807Y-63021071D02*
X134746521Y-63021071D01*
X134746521Y-63021071D02*
X134746521Y-62421071D01*
X134317950Y-62421071D02*
X133917950Y-62421071D01*
X133917950Y-62421071D02*
X134175093Y-63021071D01*
X151524906Y-82072365D02*
X151429668Y-82072365D01*
X151429668Y-82072365D02*
X151382049Y-82048556D01*
X151382049Y-82048556D02*
X151358240Y-82024746D01*
X151358240Y-82024746D02*
X151310621Y-81953317D01*
X151310621Y-81953317D02*
X151286811Y-81858079D01*
X151286811Y-81858079D02*
X151286811Y-81667603D01*
X151286811Y-81667603D02*
X151310621Y-81619984D01*
X151310621Y-81619984D02*
X151334430Y-81596175D01*
X151334430Y-81596175D02*
X151382049Y-81572365D01*
X151382049Y-81572365D02*
X151477287Y-81572365D01*
X151477287Y-81572365D02*
X151524906Y-81596175D01*
X151524906Y-81596175D02*
X151548716Y-81619984D01*
X151548716Y-81619984D02*
X151572525Y-81667603D01*
X151572525Y-81667603D02*
X151572525Y-81786651D01*
X151572525Y-81786651D02*
X151548716Y-81834270D01*
X151548716Y-81834270D02*
X151524906Y-81858079D01*
X151524906Y-81858079D02*
X151477287Y-81881889D01*
X151477287Y-81881889D02*
X151382049Y-81881889D01*
X151382049Y-81881889D02*
X151334430Y-81858079D01*
X151334430Y-81858079D02*
X151310621Y-81834270D01*
X151310621Y-81834270D02*
X151286811Y-81786651D01*
X151072526Y-82024746D02*
X151048716Y-82048556D01*
X151048716Y-82048556D02*
X151072526Y-82072365D01*
X151072526Y-82072365D02*
X151096335Y-82048556D01*
X151096335Y-82048556D02*
X151072526Y-82024746D01*
X151072526Y-82024746D02*
X151072526Y-82072365D01*
X151072526Y-81762841D02*
X151048716Y-81786651D01*
X151048716Y-81786651D02*
X151072526Y-81810460D01*
X151072526Y-81810460D02*
X151096335Y-81786651D01*
X151096335Y-81786651D02*
X151072526Y-81762841D01*
X151072526Y-81762841D02*
X151072526Y-81810460D01*
X150524907Y-81881889D02*
X150501098Y-81858079D01*
X150501098Y-81858079D02*
X150453479Y-81834270D01*
X150453479Y-81834270D02*
X150358241Y-81881889D01*
X150358241Y-81881889D02*
X150310622Y-81858079D01*
X150310622Y-81858079D02*
X150286812Y-81834270D01*
X149858241Y-82072365D02*
X150096336Y-82072365D01*
X150096336Y-82072365D02*
X150096336Y-81572365D01*
X149691574Y-82072365D02*
X149691574Y-81572365D01*
X149691574Y-81572365D02*
X149572526Y-81572365D01*
X149572526Y-81572365D02*
X149501098Y-81596175D01*
X149501098Y-81596175D02*
X149453479Y-81643794D01*
X149453479Y-81643794D02*
X149429669Y-81691413D01*
X149429669Y-81691413D02*
X149405860Y-81786651D01*
X149405860Y-81786651D02*
X149405860Y-81858079D01*
X149405860Y-81858079D02*
X149429669Y-81953317D01*
X149429669Y-81953317D02*
X149453479Y-82000936D01*
X149453479Y-82000936D02*
X149501098Y-82048556D01*
X149501098Y-82048556D02*
X149572526Y-82072365D01*
X149572526Y-82072365D02*
X149691574Y-82072365D01*
X149215383Y-81929508D02*
X148977288Y-81929508D01*
X149263002Y-82072365D02*
X149096336Y-81572365D01*
X149096336Y-81572365D02*
X148929669Y-82072365D01*
X148477289Y-82024746D02*
X148501098Y-82048556D01*
X148501098Y-82048556D02*
X148572527Y-82072365D01*
X148572527Y-82072365D02*
X148620146Y-82072365D01*
X148620146Y-82072365D02*
X148691574Y-82048556D01*
X148691574Y-82048556D02*
X148739193Y-82000936D01*
X148739193Y-82000936D02*
X148763003Y-81953317D01*
X148763003Y-81953317D02*
X148786812Y-81858079D01*
X148786812Y-81858079D02*
X148786812Y-81786651D01*
X148786812Y-81786651D02*
X148763003Y-81691413D01*
X148763003Y-81691413D02*
X148739193Y-81643794D01*
X148739193Y-81643794D02*
X148691574Y-81596175D01*
X148691574Y-81596175D02*
X148620146Y-81572365D01*
X148620146Y-81572365D02*
X148572527Y-81572365D01*
X148572527Y-81572365D02*
X148501098Y-81596175D01*
X148501098Y-81596175D02*
X148477289Y-81619984D01*
X151477287Y-82377337D02*
X151477287Y-82496385D01*
X151596335Y-82448766D02*
X151477287Y-82496385D01*
X151477287Y-82496385D02*
X151358240Y-82448766D01*
X151548716Y-82591623D02*
X151477287Y-82496385D01*
X151477287Y-82496385D02*
X151405859Y-82591623D01*
X150691574Y-82377337D02*
X150643955Y-82377337D01*
X150643955Y-82377337D02*
X150596336Y-82401147D01*
X150596336Y-82401147D02*
X150572526Y-82424956D01*
X150572526Y-82424956D02*
X150548717Y-82472575D01*
X150548717Y-82472575D02*
X150524907Y-82567813D01*
X150524907Y-82567813D02*
X150524907Y-82686861D01*
X150524907Y-82686861D02*
X150548717Y-82782099D01*
X150548717Y-82782099D02*
X150572526Y-82829718D01*
X150572526Y-82829718D02*
X150596336Y-82853528D01*
X150596336Y-82853528D02*
X150643955Y-82877337D01*
X150643955Y-82877337D02*
X150691574Y-82877337D01*
X150691574Y-82877337D02*
X150739193Y-82853528D01*
X150739193Y-82853528D02*
X150763002Y-82829718D01*
X150763002Y-82829718D02*
X150786812Y-82782099D01*
X150786812Y-82782099D02*
X150810621Y-82686861D01*
X150810621Y-82686861D02*
X150810621Y-82567813D01*
X150810621Y-82567813D02*
X150786812Y-82472575D01*
X150786812Y-82472575D02*
X150763002Y-82424956D01*
X150763002Y-82424956D02*
X150739193Y-82401147D01*
X150739193Y-82401147D02*
X150691574Y-82377337D01*
X150310622Y-82686861D02*
X149929670Y-82686861D01*
X149763002Y-82377337D02*
X149596336Y-82877337D01*
X149596336Y-82877337D02*
X149429669Y-82377337D01*
X148977289Y-82877337D02*
X149143955Y-82639242D01*
X149263003Y-82877337D02*
X149263003Y-82377337D01*
X149263003Y-82377337D02*
X149072527Y-82377337D01*
X149072527Y-82377337D02*
X149024908Y-82401147D01*
X149024908Y-82401147D02*
X149001098Y-82424956D01*
X149001098Y-82424956D02*
X148977289Y-82472575D01*
X148977289Y-82472575D02*
X148977289Y-82544004D01*
X148977289Y-82544004D02*
X149001098Y-82591623D01*
X149001098Y-82591623D02*
X149024908Y-82615432D01*
X149024908Y-82615432D02*
X149072527Y-82639242D01*
X149072527Y-82639242D02*
X149263003Y-82639242D01*
X148763003Y-82615432D02*
X148596336Y-82615432D01*
X148524908Y-82877337D02*
X148763003Y-82877337D01*
X148763003Y-82877337D02*
X148763003Y-82377337D01*
X148763003Y-82377337D02*
X148524908Y-82377337D01*
X148143955Y-82615432D02*
X148310622Y-82615432D01*
X148310622Y-82877337D02*
X148310622Y-82377337D01*
X148310622Y-82377337D02*
X148072527Y-82377337D01*
X151477287Y-83182309D02*
X151477287Y-83301357D01*
X151596335Y-83253738D02*
X151477287Y-83301357D01*
X151477287Y-83301357D02*
X151358240Y-83253738D01*
X151548716Y-83396595D02*
X151477287Y-83301357D01*
X151477287Y-83301357D02*
X151405859Y-83396595D01*
X151096335Y-83182309D02*
X151096335Y-83301357D01*
X151215383Y-83253738D02*
X151096335Y-83301357D01*
X151096335Y-83301357D02*
X150977288Y-83253738D01*
X151167764Y-83396595D02*
X151096335Y-83301357D01*
X151096335Y-83301357D02*
X151024907Y-83396595D01*
X150310622Y-83182309D02*
X150215384Y-83182309D01*
X150215384Y-83182309D02*
X150167765Y-83206119D01*
X150167765Y-83206119D02*
X150120146Y-83253738D01*
X150120146Y-83253738D02*
X150096336Y-83348976D01*
X150096336Y-83348976D02*
X150096336Y-83515642D01*
X150096336Y-83515642D02*
X150120146Y-83610880D01*
X150120146Y-83610880D02*
X150167765Y-83658500D01*
X150167765Y-83658500D02*
X150215384Y-83682309D01*
X150215384Y-83682309D02*
X150310622Y-83682309D01*
X150310622Y-83682309D02*
X150358241Y-83658500D01*
X150358241Y-83658500D02*
X150405860Y-83610880D01*
X150405860Y-83610880D02*
X150429669Y-83515642D01*
X150429669Y-83515642D02*
X150429669Y-83348976D01*
X150429669Y-83348976D02*
X150405860Y-83253738D01*
X150405860Y-83253738D02*
X150358241Y-83206119D01*
X150358241Y-83206119D02*
X150310622Y-83182309D01*
X149882050Y-83491833D02*
X149501098Y-83491833D01*
X149286811Y-83229928D02*
X149263002Y-83206119D01*
X149263002Y-83206119D02*
X149215383Y-83182309D01*
X149215383Y-83182309D02*
X149096335Y-83182309D01*
X149096335Y-83182309D02*
X149048716Y-83206119D01*
X149048716Y-83206119D02*
X149024907Y-83229928D01*
X149024907Y-83229928D02*
X149001097Y-83277547D01*
X149001097Y-83277547D02*
X149001097Y-83325166D01*
X149001097Y-83325166D02*
X149024907Y-83396595D01*
X149024907Y-83396595D02*
X149310621Y-83682309D01*
X149310621Y-83682309D02*
X149001097Y-83682309D01*
X148858240Y-83182309D02*
X148691574Y-83682309D01*
X148691574Y-83682309D02*
X148524907Y-83182309D01*
X148072527Y-83682309D02*
X148239193Y-83444214D01*
X148358241Y-83682309D02*
X148358241Y-83182309D01*
X148358241Y-83182309D02*
X148167765Y-83182309D01*
X148167765Y-83182309D02*
X148120146Y-83206119D01*
X148120146Y-83206119D02*
X148096336Y-83229928D01*
X148096336Y-83229928D02*
X148072527Y-83277547D01*
X148072527Y-83277547D02*
X148072527Y-83348976D01*
X148072527Y-83348976D02*
X148096336Y-83396595D01*
X148096336Y-83396595D02*
X148120146Y-83420404D01*
X148120146Y-83420404D02*
X148167765Y-83444214D01*
X148167765Y-83444214D02*
X148358241Y-83444214D01*
X147858241Y-83420404D02*
X147691574Y-83420404D01*
X147620146Y-83682309D02*
X147858241Y-83682309D01*
X147858241Y-83682309D02*
X147858241Y-83182309D01*
X147858241Y-83182309D02*
X147620146Y-83182309D01*
X147239193Y-83420404D02*
X147405860Y-83420404D01*
X147405860Y-83682309D02*
X147405860Y-83182309D01*
X147405860Y-83182309D02*
X147167765Y-83182309D01*
X151286811Y-69812309D02*
X151572525Y-69812309D01*
X151429668Y-69812309D02*
X151429668Y-69312309D01*
X151429668Y-69312309D02*
X151477287Y-69383738D01*
X151477287Y-69383738D02*
X151524906Y-69431357D01*
X151524906Y-69431357D02*
X151572525Y-69455166D01*
X150858240Y-69478976D02*
X150858240Y-69812309D01*
X150977288Y-69288500D02*
X151096335Y-69645642D01*
X151096335Y-69645642D02*
X150786812Y-69645642D01*
X150596336Y-69764690D02*
X150572526Y-69788500D01*
X150572526Y-69788500D02*
X150596336Y-69812309D01*
X150596336Y-69812309D02*
X150620145Y-69788500D01*
X150620145Y-69788500D02*
X150596336Y-69764690D01*
X150596336Y-69764690D02*
X150596336Y-69812309D01*
X150596336Y-69502785D02*
X150572526Y-69526595D01*
X150572526Y-69526595D02*
X150596336Y-69550404D01*
X150596336Y-69550404D02*
X150620145Y-69526595D01*
X150620145Y-69526595D02*
X150596336Y-69502785D01*
X150596336Y-69502785D02*
X150596336Y-69550404D01*
X150001098Y-69788500D02*
X149929670Y-69812309D01*
X149929670Y-69812309D02*
X149810622Y-69812309D01*
X149810622Y-69812309D02*
X149763003Y-69788500D01*
X149763003Y-69788500D02*
X149739194Y-69764690D01*
X149739194Y-69764690D02*
X149715384Y-69717071D01*
X149715384Y-69717071D02*
X149715384Y-69669452D01*
X149715384Y-69669452D02*
X149739194Y-69621833D01*
X149739194Y-69621833D02*
X149763003Y-69598023D01*
X149763003Y-69598023D02*
X149810622Y-69574214D01*
X149810622Y-69574214D02*
X149905860Y-69550404D01*
X149905860Y-69550404D02*
X149953479Y-69526595D01*
X149953479Y-69526595D02*
X149977289Y-69502785D01*
X149977289Y-69502785D02*
X150001098Y-69455166D01*
X150001098Y-69455166D02*
X150001098Y-69407547D01*
X150001098Y-69407547D02*
X149977289Y-69359928D01*
X149977289Y-69359928D02*
X149953479Y-69336119D01*
X149953479Y-69336119D02*
X149905860Y-69312309D01*
X149905860Y-69312309D02*
X149786813Y-69312309D01*
X149786813Y-69312309D02*
X149715384Y-69336119D01*
X149501099Y-69812309D02*
X149501099Y-69312309D01*
X149501099Y-69312309D02*
X149382051Y-69312309D01*
X149382051Y-69312309D02*
X149310623Y-69336119D01*
X149310623Y-69336119D02*
X149263004Y-69383738D01*
X149263004Y-69383738D02*
X149239194Y-69431357D01*
X149239194Y-69431357D02*
X149215385Y-69526595D01*
X149215385Y-69526595D02*
X149215385Y-69598023D01*
X149215385Y-69598023D02*
X149239194Y-69693261D01*
X149239194Y-69693261D02*
X149263004Y-69740880D01*
X149263004Y-69740880D02*
X149310623Y-69788500D01*
X149310623Y-69788500D02*
X149382051Y-69812309D01*
X149382051Y-69812309D02*
X149501099Y-69812309D01*
X149001099Y-69812309D02*
X149001099Y-69312309D01*
X148763004Y-69812309D02*
X148763004Y-69312309D01*
X148763004Y-69312309D02*
X148477290Y-69812309D01*
X148477290Y-69812309D02*
X148477290Y-69312309D01*
%LPC*%
D11*
X153530000Y-82550000D03*
X153530000Y-80010000D03*
X153530000Y-77470000D03*
X153530000Y-74930000D03*
X153530000Y-72390000D03*
X153530000Y-69850000D03*
X153530000Y-67310000D03*
D12*
X153530000Y-64770000D03*
X135750000Y-67310000D03*
D11*
X135750000Y-69850000D03*
X135750000Y-72390000D03*
X135750000Y-74930000D03*
X135750000Y-77470000D03*
X135750000Y-80010000D03*
%LPD*%
M02*
