G04 #@! TF.GenerationSoftware,KiCad,Pcbnew,9.0.4*
G04 #@! TF.CreationDate,2025-12-13T20:20:29-05:00*
G04 #@! TF.ProjectId,AD5689RARUZ-RL7_breakboard,41443536-3839-4524-9152-555a2d524c37,rev?*
G04 #@! TF.SameCoordinates,Original*
G04 #@! TF.FileFunction,Copper,L1,Top*
G04 #@! TF.FilePolarity,Positive*
%FSLAX46Y46*%
G04 Gerber Fmt 4.6, Leading zero omitted, Abs format (unit mm)*
G04 Created by KiCad (PCBNEW 9.0.4) date 2025-12-13 20:20:29*
%MOMM*%
%LPD*%
G01*
G04 APERTURE LIST*
G04 Aperture macros list*
%AMRoundRect*
0 Rectangle with rounded corners*
0 $1 Rounding radius*
0 $2 $3 $4 $5 $6 $7 $8 $9 X,Y pos of 4 corners*
0 Add a 4 corners polygon primitive as box body*
4,1,4,$2,$3,$4,$5,$6,$7,$8,$9,$2,$3,0*
0 Add four circle primitives for the rounded corners*
1,1,$1+$1,$2,$3*
1,1,$1+$1,$4,$5*
1,1,$1+$1,$6,$7*
1,1,$1+$1,$8,$9*
0 Add four rect primitives between the rounded corners*
20,1,$1+$1,$2,$3,$4,$5,0*
20,1,$1+$1,$4,$5,$6,$7,0*
20,1,$1+$1,$6,$7,$8,$9,0*
20,1,$1+$1,$8,$9,$2,$3,0*%
G04 Aperture macros list end*
G04 #@! TA.AperFunction,ComponentPad*
%ADD10R,1.700000X1.700000*%
G04 #@! TD*
G04 #@! TA.AperFunction,ComponentPad*
%ADD11C,1.700000*%
G04 #@! TD*
G04 #@! TA.AperFunction,SMDPad,CuDef*
%ADD12RoundRect,0.225000X0.250000X-0.225000X0.250000X0.225000X-0.250000X0.225000X-0.250000X-0.225000X0*%
G04 #@! TD*
G04 #@! TA.AperFunction,SMDPad,CuDef*
%ADD13RoundRect,0.100000X0.100000X-0.130000X0.100000X0.130000X-0.100000X0.130000X-0.100000X-0.130000X0*%
G04 #@! TD*
G04 #@! TA.AperFunction,SMDPad,CuDef*
%ADD14R,1.473200X0.355600*%
G04 #@! TD*
G04 #@! TA.AperFunction,Conductor*
%ADD15C,0.200000*%
G04 #@! TD*
G04 APERTURE END LIST*
D10*
X135750000Y-67310000D03*
D11*
X135750000Y-69850000D03*
X135750000Y-72390000D03*
X135750000Y-74930000D03*
X135750000Y-77470000D03*
X135750000Y-80010000D03*
D10*
X154000000Y-64770000D03*
D11*
X154000000Y-67310000D03*
X154000000Y-69850000D03*
X154000000Y-72390000D03*
X154000000Y-74930000D03*
X154000000Y-77470000D03*
X154000000Y-80010000D03*
X154000000Y-82550000D03*
D12*
X138750000Y-74435000D03*
X138750000Y-72885000D03*
D13*
X140250000Y-74225000D03*
X140250000Y-73585000D03*
D14*
X141960600Y-71475001D03*
X141960600Y-72124999D03*
X141960600Y-72775001D03*
X141960600Y-73424999D03*
X141960600Y-74074998D03*
X141960600Y-74724999D03*
X141960600Y-75374998D03*
X141960600Y-76024999D03*
X147599400Y-76024999D03*
X147599400Y-75375001D03*
X147599400Y-74724999D03*
X147599400Y-74075001D03*
X147599400Y-73425002D03*
X147599400Y-72775001D03*
X147599400Y-72125002D03*
X147599400Y-71475001D03*
D15*
X135750000Y-67310000D02*
X137795599Y-67310000D01*
X137795599Y-67310000D02*
X141960600Y-71475001D01*
X141960600Y-72775001D02*
X140007101Y-72775001D01*
X140007101Y-72775001D02*
X137082100Y-69850000D01*
X137082100Y-69850000D02*
X135750000Y-69850000D01*
X135750000Y-80010000D02*
X139735001Y-76024999D01*
X139735001Y-76024999D02*
X141960600Y-76024999D01*
X135750000Y-77470000D02*
X137845002Y-75374998D01*
X137845002Y-75374998D02*
X141960600Y-75374998D01*
X135750000Y-72390000D02*
X138255000Y-72390000D01*
X138255000Y-72390000D02*
X138750000Y-72885000D01*
X138750000Y-74435000D02*
X136245000Y-74435000D01*
X136245000Y-74435000D02*
X135750000Y-74930000D01*
X138750000Y-74435000D02*
X140040000Y-74435000D01*
X140040000Y-74435000D02*
X140250000Y-74225000D01*
X140250000Y-74225000D02*
X141810598Y-74225000D01*
X141810598Y-74225000D02*
X141960600Y-74074998D01*
X140250000Y-73585000D02*
X141800599Y-73585000D01*
X141800599Y-73585000D02*
X141960600Y-73424999D01*
X138750000Y-72885000D02*
X139550000Y-72885000D01*
X139550000Y-72885000D02*
X140250000Y-73585000D01*
X154000000Y-82550000D02*
X147599400Y-76149400D01*
X147599400Y-76149400D02*
X147599400Y-76024999D01*
X154000000Y-80010000D02*
X149365001Y-75375001D01*
X149365001Y-75375001D02*
X147599400Y-75375001D01*
X154000000Y-77470000D02*
X151254999Y-74724999D01*
X151254999Y-74724999D02*
X147599400Y-74724999D01*
X154000000Y-74930000D02*
X153145001Y-74075001D01*
X153145001Y-74075001D02*
X147599400Y-74075001D01*
X154000000Y-64770000D02*
X147599400Y-71170600D01*
X147599400Y-71170600D02*
X147599400Y-71475001D01*
X154000000Y-67310000D02*
X149184998Y-72125002D01*
X149184998Y-72125002D02*
X147599400Y-72125002D01*
X154000000Y-69850000D02*
X151074999Y-72775001D01*
X151074999Y-72775001D02*
X147599400Y-72775001D01*
X154000000Y-72390000D02*
X152964998Y-73425002D01*
X152964998Y-73425002D02*
X147599400Y-73425002D01*
X139075000Y-74225000D02*
X138750000Y-74550000D01*
X140254997Y-74229997D02*
X140250000Y-74225000D01*
X148019998Y-76179998D02*
X147138800Y-76179998D01*
X153690000Y-74230000D02*
X154000000Y-74540000D01*
G04 #@! TA.AperFunction,Conductor*
G36*
X156006922Y-62251280D02*
G01*
X156097266Y-62261459D01*
X156124331Y-62267636D01*
X156203540Y-62295352D01*
X156228553Y-62307398D01*
X156299606Y-62352043D01*
X156321313Y-62369355D01*
X156380644Y-62428686D01*
X156397957Y-62450395D01*
X156442600Y-62521444D01*
X156454648Y-62546462D01*
X156482362Y-62625666D01*
X156488540Y-62652735D01*
X156498720Y-62743076D01*
X156499500Y-62756961D01*
X156499500Y-84493038D01*
X156498720Y-84506922D01*
X156498720Y-84506923D01*
X156488540Y-84597264D01*
X156482362Y-84624333D01*
X156454648Y-84703537D01*
X156442600Y-84728555D01*
X156397957Y-84799604D01*
X156380644Y-84821313D01*
X156321313Y-84880644D01*
X156299604Y-84897957D01*
X156228555Y-84942600D01*
X156203537Y-84954648D01*
X156124333Y-84982362D01*
X156097264Y-84988540D01*
X156017075Y-84997576D01*
X156006921Y-84998720D01*
X155993038Y-84999500D01*
X133756962Y-84999500D01*
X133743078Y-84998720D01*
X133730553Y-84997308D01*
X133652735Y-84988540D01*
X133625666Y-84982362D01*
X133546462Y-84954648D01*
X133521444Y-84942600D01*
X133450395Y-84897957D01*
X133428686Y-84880644D01*
X133369355Y-84821313D01*
X133352042Y-84799604D01*
X133307399Y-84728555D01*
X133295351Y-84703537D01*
X133267637Y-84624333D01*
X133261459Y-84597263D01*
X133251280Y-84506922D01*
X133250500Y-84493038D01*
X133250500Y-74826530D01*
X134699500Y-74826530D01*
X134699500Y-75033469D01*
X134739868Y-75236412D01*
X134739870Y-75236420D01*
X134819058Y-75427596D01*
X134934024Y-75599657D01*
X135080342Y-75745975D01*
X135080345Y-75745977D01*
X135252402Y-75860941D01*
X135443580Y-75940130D01*
X135646530Y-75980499D01*
X135646534Y-75980500D01*
X135646535Y-75980500D01*
X135853466Y-75980500D01*
X135853467Y-75980499D01*
X136056420Y-75940130D01*
X136247598Y-75860941D01*
X136419655Y-75745977D01*
X136565977Y-75599655D01*
X136680941Y-75427598D01*
X136760130Y-75236420D01*
X136800500Y-75033465D01*
X136800500Y-74859500D01*
X136820185Y-74792461D01*
X136872989Y-74746706D01*
X136924500Y-74735500D01*
X137984932Y-74735500D01*
X137999534Y-74739787D01*
X138014739Y-74739136D01*
X138032377Y-74749431D01*
X138051971Y-74755185D01*
X138062867Y-74767229D01*
X138075081Y-74774358D01*
X138095415Y-74803202D01*
X138141783Y-74894205D01*
X138154679Y-74962872D01*
X138128403Y-75027613D01*
X138071296Y-75067870D01*
X138031298Y-75074498D01*
X137805440Y-75074498D01*
X137767226Y-75084737D01*
X137729011Y-75094977D01*
X137729010Y-75094978D01*
X137704804Y-75108954D01*
X137695179Y-75114511D01*
X137687463Y-75118966D01*
X137660491Y-75134537D01*
X137660489Y-75134539D01*
X136312104Y-76482923D01*
X136250781Y-76516408D01*
X136181089Y-76511424D01*
X136176971Y-76509803D01*
X136056424Y-76459871D01*
X136056412Y-76459868D01*
X135853469Y-76419500D01*
X135853465Y-76419500D01*
X135646535Y-76419500D01*
X135646530Y-76419500D01*
X135443587Y-76459868D01*
X135443579Y-76459870D01*
X135252403Y-76539058D01*
X135080342Y-76654024D01*
X134934024Y-76800342D01*
X134819058Y-76972403D01*
X134739870Y-77163579D01*
X134739868Y-77163587D01*
X134699500Y-77366530D01*
X134699500Y-77573469D01*
X134739868Y-77776412D01*
X134739870Y-77776420D01*
X134819058Y-77967596D01*
X134934024Y-78139657D01*
X135080342Y-78285975D01*
X135080345Y-78285977D01*
X135252402Y-78400941D01*
X135443580Y-78480130D01*
X135646530Y-78520499D01*
X135646534Y-78520500D01*
X135646535Y-78520500D01*
X135853466Y-78520500D01*
X135853467Y-78520499D01*
X136056420Y-78480130D01*
X136247598Y-78400941D01*
X136419655Y-78285977D01*
X136565977Y-78139655D01*
X136680941Y-77967598D01*
X136760130Y-77776420D01*
X136800500Y-77573465D01*
X136800500Y-77366535D01*
X136760130Y-77163580D01*
X136710194Y-77043026D01*
X136702726Y-76973559D01*
X136734001Y-76911080D01*
X136737046Y-76907923D01*
X137933154Y-75711817D01*
X137994477Y-75678332D01*
X138020835Y-75675498D01*
X139360169Y-75675498D01*
X139427208Y-75695183D01*
X139472963Y-75747987D01*
X139482907Y-75817145D01*
X139453882Y-75880701D01*
X139447850Y-75887179D01*
X136312104Y-79022923D01*
X136250781Y-79056408D01*
X136181089Y-79051424D01*
X136176971Y-79049803D01*
X136056424Y-78999871D01*
X136056412Y-78999868D01*
X135853469Y-78959500D01*
X135853465Y-78959500D01*
X135646535Y-78959500D01*
X135646530Y-78959500D01*
X135443587Y-78999868D01*
X135443579Y-78999870D01*
X135252403Y-79079058D01*
X135080342Y-79194024D01*
X134934024Y-79340342D01*
X134819058Y-79512403D01*
X134739870Y-79703579D01*
X134739868Y-79703587D01*
X134699500Y-79906530D01*
X134699500Y-80113469D01*
X134739868Y-80316412D01*
X134739870Y-80316420D01*
X134819058Y-80507596D01*
X134934024Y-80679657D01*
X135080342Y-80825975D01*
X135080345Y-80825977D01*
X135252402Y-80940941D01*
X135443580Y-81020130D01*
X135646530Y-81060499D01*
X135646534Y-81060500D01*
X135646535Y-81060500D01*
X135853466Y-81060500D01*
X135853467Y-81060499D01*
X136056420Y-81020130D01*
X136247598Y-80940941D01*
X136419655Y-80825977D01*
X136565977Y-80679655D01*
X136680941Y-80507598D01*
X136760130Y-80316420D01*
X136800500Y-80113465D01*
X136800500Y-79906535D01*
X136760130Y-79703580D01*
X136710194Y-79583026D01*
X136702726Y-79513559D01*
X136734001Y-79451080D01*
X136737047Y-79447922D01*
X139823153Y-76361818D01*
X139884476Y-76328333D01*
X139910834Y-76325499D01*
X141009129Y-76325499D01*
X141076168Y-76345184D01*
X141078021Y-76346397D01*
X141079447Y-76347350D01*
X141079448Y-76347351D01*
X141145769Y-76391666D01*
X141145771Y-76391666D01*
X141145772Y-76391667D01*
X141145770Y-76391667D01*
X141204247Y-76403298D01*
X141204250Y-76403299D01*
X141204252Y-76403299D01*
X142716950Y-76403299D01*
X142716951Y-76403298D01*
X142731768Y-76400351D01*
X142775429Y-76391667D01*
X142775429Y-76391666D01*
X142775431Y-76391666D01*
X142841752Y-76347351D01*
X142886067Y-76281030D01*
X142886067Y-76281028D01*
X142886068Y-76281028D01*
X142897699Y-76222551D01*
X142897700Y-76222549D01*
X142897700Y-75827448D01*
X142897699Y-75827446D01*
X142886068Y-75768970D01*
X142886016Y-75768892D01*
X142885954Y-75768695D01*
X142881394Y-75757686D01*
X142882378Y-75757277D01*
X142865136Y-75702216D01*
X142881549Y-75642375D01*
X142881394Y-75642311D01*
X142881907Y-75641071D01*
X142883618Y-75634835D01*
X142885988Y-75631147D01*
X142886067Y-75631029D01*
X142897700Y-75572546D01*
X142897700Y-75177450D01*
X142897700Y-75177448D01*
X142897700Y-75177447D01*
X142897699Y-75177445D01*
X142886068Y-75118968D01*
X142886067Y-75118966D01*
X142886016Y-75118890D01*
X142885955Y-75118697D01*
X142881394Y-75107685D01*
X142882379Y-75107276D01*
X142865137Y-75052213D01*
X142881551Y-74992377D01*
X142881394Y-74992312D01*
X142881913Y-74991058D01*
X142883621Y-74984833D01*
X142886005Y-74981122D01*
X142886067Y-74981030D01*
X142889274Y-74964910D01*
X142896315Y-74929509D01*
X142897700Y-74922547D01*
X142897700Y-74527451D01*
X142897700Y-74527448D01*
X142897699Y-74527446D01*
X142886068Y-74468970D01*
X142886016Y-74468892D01*
X142885954Y-74468695D01*
X142881394Y-74457686D01*
X142882378Y-74457277D01*
X142865136Y-74402216D01*
X142881549Y-74342375D01*
X142881394Y-74342311D01*
X142881907Y-74341071D01*
X142883618Y-74334835D01*
X142885988Y-74331147D01*
X142886067Y-74331029D01*
X142897700Y-74272546D01*
X142897700Y-73877450D01*
X142897700Y-73877448D01*
X142897700Y-73877447D01*
X142897699Y-73877445D01*
X142886068Y-73818968D01*
X142886067Y-73818966D01*
X142841752Y-73752645D01*
X142775430Y-73708330D01*
X142775429Y-73708329D01*
X142716952Y-73696698D01*
X142716948Y-73696698D01*
X141204252Y-73696698D01*
X141204247Y-73696698D01*
X141145770Y-73708329D01*
X141145769Y-73708330D01*
X141079447Y-73752645D01*
X141035133Y-73818966D01*
X141033995Y-73824689D01*
X141001611Y-73886601D01*
X140940896Y-73921176D01*
X140912377Y-73924500D01*
X140655834Y-73924500D01*
X140588795Y-73904815D01*
X140568154Y-73888182D01*
X140522765Y-73842794D01*
X140419992Y-73797415D01*
X140394865Y-73794500D01*
X140105143Y-73794500D01*
X140105117Y-73794502D01*
X140080012Y-73797413D01*
X140080008Y-73797415D01*
X139977235Y-73842793D01*
X139897794Y-73922234D01*
X139852415Y-74025006D01*
X139851850Y-74027082D01*
X139852004Y-74028147D01*
X139850908Y-74030544D01*
X139849967Y-74034007D01*
X139849398Y-74033852D01*
X139838161Y-74058457D01*
X139825156Y-74089120D01*
X139823707Y-74090107D01*
X139822979Y-74091703D01*
X139794947Y-74109717D01*
X139767429Y-74128481D01*
X139765205Y-74128831D01*
X139764201Y-74129477D01*
X139729266Y-74134500D01*
X139515068Y-74134500D01*
X139448029Y-74114815D01*
X139404583Y-74066795D01*
X139348528Y-73956780D01*
X139348524Y-73956776D01*
X139348523Y-73956774D01*
X139253225Y-73861476D01*
X139253221Y-73861473D01*
X139253220Y-73861472D01*
X139133126Y-73800281D01*
X139133124Y-73800280D01*
X139133121Y-73800279D01*
X139033493Y-73784500D01*
X139033488Y-73784500D01*
X138466512Y-73784500D01*
X138466507Y-73784500D01*
X138366878Y-73800279D01*
X138366874Y-73800280D01*
X138366874Y-73800281D01*
X138352337Y-73807688D01*
X138246778Y-73861473D01*
X138246774Y-73861476D01*
X138151476Y-73956774D01*
X138151473Y-73956779D01*
X138151472Y-73956780D01*
X138099665Y-74058457D01*
X138095417Y-74066795D01*
X138047442Y-74117591D01*
X137984932Y-74134500D01*
X136487916Y-74134500D01*
X136420877Y-74114815D01*
X136419026Y-74113602D01*
X136247599Y-73999059D01*
X136056420Y-73919870D01*
X136056412Y-73919868D01*
X135853469Y-73879500D01*
X135853465Y-73879500D01*
X135646535Y-73879500D01*
X135646530Y-73879500D01*
X135443587Y-73919868D01*
X135443579Y-73919870D01*
X135252403Y-73999058D01*
X135080342Y-74114024D01*
X134934024Y-74260342D01*
X134819058Y-74432403D01*
X134739870Y-74623579D01*
X134739868Y-74623587D01*
X134699500Y-74826530D01*
X133250500Y-74826530D01*
X133250500Y-66440247D01*
X134699500Y-66440247D01*
X134699500Y-68179752D01*
X134711131Y-68238229D01*
X134711132Y-68238230D01*
X134755447Y-68304552D01*
X134821769Y-68348867D01*
X134821770Y-68348868D01*
X134880247Y-68360499D01*
X134880250Y-68360500D01*
X134880252Y-68360500D01*
X136619750Y-68360500D01*
X136619751Y-68360499D01*
X136634568Y-68357552D01*
X136678229Y-68348868D01*
X136678229Y-68348867D01*
X136678231Y-68348867D01*
X136744552Y-68304552D01*
X136788867Y-68238231D01*
X136788867Y-68238229D01*
X136788868Y-68238229D01*
X136800499Y-68179752D01*
X136800500Y-68179750D01*
X136800500Y-67734500D01*
X136820185Y-67667461D01*
X136872989Y-67621706D01*
X136924500Y-67610500D01*
X137619766Y-67610500D01*
X137686805Y-67630185D01*
X137707447Y-67646819D01*
X141061093Y-71000465D01*
X141094578Y-71061788D01*
X141089594Y-71131480D01*
X141076515Y-71157036D01*
X141035132Y-71218971D01*
X141035131Y-71218971D01*
X141023500Y-71277448D01*
X141023500Y-71672553D01*
X141035131Y-71731030D01*
X141035185Y-71731110D01*
X141035247Y-71731308D01*
X141039806Y-71742314D01*
X141038820Y-71742722D01*
X141056062Y-71797788D01*
X141039647Y-71857620D01*
X141039806Y-71857686D01*
X141039283Y-71858946D01*
X141037577Y-71865168D01*
X141035185Y-71868890D01*
X141035132Y-71868969D01*
X141035131Y-71868969D01*
X141023500Y-71927446D01*
X141023500Y-72322547D01*
X141024248Y-72326308D01*
X141024068Y-72328318D01*
X141024097Y-72328612D01*
X141024041Y-72328617D01*
X141018022Y-72395899D01*
X140975160Y-72451077D01*
X140909270Y-72474323D01*
X140902631Y-72474501D01*
X140182934Y-72474501D01*
X140115895Y-72454816D01*
X140095253Y-72438182D01*
X137266612Y-69609541D01*
X137266604Y-69609535D01*
X137198095Y-69569982D01*
X137198090Y-69569979D01*
X137172613Y-69563152D01*
X137121662Y-69549500D01*
X137121660Y-69549500D01*
X136845436Y-69549500D01*
X136778397Y-69529815D01*
X136732642Y-69477011D01*
X136730875Y-69472953D01*
X136680941Y-69352403D01*
X136680941Y-69352402D01*
X136565977Y-69180345D01*
X136565975Y-69180342D01*
X136419657Y-69034024D01*
X136333626Y-68976541D01*
X136247598Y-68919059D01*
X136056420Y-68839870D01*
X136056412Y-68839868D01*
X135853469Y-68799500D01*
X135853465Y-68799500D01*
X135646535Y-68799500D01*
X135646530Y-68799500D01*
X135443587Y-68839868D01*
X135443579Y-68839870D01*
X135252403Y-68919058D01*
X135080342Y-69034024D01*
X134934024Y-69180342D01*
X134819058Y-69352403D01*
X134739870Y-69543579D01*
X134739868Y-69543587D01*
X134699500Y-69746530D01*
X134699500Y-69953469D01*
X134739868Y-70156412D01*
X134739870Y-70156420D01*
X134819058Y-70347596D01*
X134934024Y-70519657D01*
X135080342Y-70665975D01*
X135080345Y-70665977D01*
X135252402Y-70780941D01*
X135443580Y-70860130D01*
X135646530Y-70900499D01*
X135646534Y-70900500D01*
X135646535Y-70900500D01*
X135853466Y-70900500D01*
X135853467Y-70900499D01*
X136056420Y-70860130D01*
X136247598Y-70780941D01*
X136419655Y-70665977D01*
X136565977Y-70519655D01*
X136680941Y-70347598D01*
X136730875Y-70227046D01*
X136743418Y-70211481D01*
X136751723Y-70193297D01*
X136764893Y-70184832D01*
X136774716Y-70172644D01*
X136793683Y-70166331D01*
X136810501Y-70155523D01*
X136838061Y-70151560D01*
X136841010Y-70150579D01*
X136845436Y-70150500D01*
X136906267Y-70150500D01*
X136973306Y-70170185D01*
X136993948Y-70186819D01*
X139766641Y-72959512D01*
X139822590Y-73015461D01*
X139822592Y-73015462D01*
X139822596Y-73015465D01*
X139885900Y-73052013D01*
X139891112Y-73055022D01*
X139967539Y-73075501D01*
X140046663Y-73075501D01*
X141009129Y-73075501D01*
X141076168Y-73095186D01*
X141078021Y-73096399D01*
X141079447Y-73097352D01*
X141079448Y-73097353D01*
X141145769Y-73141668D01*
X141145771Y-73141668D01*
X141145772Y-73141669D01*
X141145770Y-73141669D01*
X141204247Y-73153300D01*
X141204250Y-73153301D01*
X141204252Y-73153301D01*
X142716950Y-73153301D01*
X142716951Y-73153300D01*
X142731768Y-73150353D01*
X142775429Y-73141669D01*
X142775429Y-73141668D01*
X142775431Y-73141668D01*
X142841752Y-73097353D01*
X142886067Y-73031032D01*
X142886067Y-73031030D01*
X142886068Y-73031030D01*
X142897699Y-72972553D01*
X142897700Y-72972551D01*
X142897700Y-72577450D01*
X142897699Y-72577448D01*
X142886068Y-72518972D01*
X142886016Y-72518894D01*
X142885954Y-72518697D01*
X142881394Y-72507688D01*
X142882378Y-72507279D01*
X142865136Y-72452218D01*
X142881549Y-72392376D01*
X142881394Y-72392312D01*
X142881908Y-72391070D01*
X142883618Y-72384837D01*
X142886016Y-72381106D01*
X142886067Y-72381030D01*
X142897700Y-72322547D01*
X142897700Y-71927451D01*
X142897700Y-71927449D01*
X142897700Y-71927448D01*
X142897699Y-71927446D01*
X142886068Y-71868970D01*
X142886067Y-71868968D01*
X142886018Y-71868895D01*
X142885960Y-71868709D01*
X142881394Y-71857686D01*
X142882379Y-71857277D01*
X142865137Y-71802221D01*
X142881550Y-71742378D01*
X142881394Y-71742314D01*
X142881908Y-71741072D01*
X142883618Y-71734839D01*
X142886015Y-71731110D01*
X142886067Y-71731032D01*
X142888194Y-71720342D01*
X142897699Y-71672553D01*
X142897700Y-71672551D01*
X142897700Y-71277450D01*
X142897699Y-71277448D01*
X146662300Y-71277448D01*
X146662300Y-71672553D01*
X146673931Y-71731030D01*
X146673932Y-71731032D01*
X146673984Y-71731109D01*
X146674044Y-71731301D01*
X146678606Y-71742314D01*
X146677620Y-71742722D01*
X146694863Y-71797786D01*
X146678448Y-71857623D01*
X146678606Y-71857689D01*
X146678085Y-71858946D01*
X146676379Y-71865166D01*
X146673987Y-71868888D01*
X146673934Y-71868966D01*
X146673931Y-71868972D01*
X146662300Y-71927449D01*
X146662300Y-72322554D01*
X146673931Y-72381031D01*
X146673985Y-72381111D01*
X146674047Y-72381309D01*
X146678606Y-72392315D01*
X146677620Y-72392723D01*
X146694862Y-72447789D01*
X146678447Y-72507622D01*
X146678606Y-72507688D01*
X146678082Y-72508950D01*
X146676377Y-72515169D01*
X146673988Y-72518886D01*
X146673933Y-72518967D01*
X146673931Y-72518971D01*
X146662300Y-72577448D01*
X146662300Y-72972553D01*
X146673931Y-73031030D01*
X146673932Y-73031032D01*
X146673984Y-73031109D01*
X146674044Y-73031301D01*
X146678606Y-73042314D01*
X146677620Y-73042722D01*
X146694863Y-73097786D01*
X146678448Y-73157623D01*
X146678606Y-73157689D01*
X146678085Y-73158946D01*
X146676379Y-73165166D01*
X146673987Y-73168888D01*
X146673934Y-73168966D01*
X146673931Y-73168972D01*
X146662300Y-73227449D01*
X146662300Y-73622554D01*
X146673931Y-73681031D01*
X146673985Y-73681111D01*
X146674047Y-73681309D01*
X146678606Y-73692315D01*
X146677620Y-73692723D01*
X146694862Y-73747789D01*
X146678447Y-73807622D01*
X146678606Y-73807688D01*
X146678082Y-73808950D01*
X146676377Y-73815169D01*
X146673988Y-73818886D01*
X146673933Y-73818967D01*
X146673931Y-73818971D01*
X146662300Y-73877448D01*
X146662300Y-74272553D01*
X146673931Y-74331030D01*
X146673985Y-74331110D01*
X146674047Y-74331308D01*
X146678606Y-74342314D01*
X146677620Y-74342722D01*
X146694862Y-74397788D01*
X146678447Y-74457620D01*
X146678606Y-74457686D01*
X146678083Y-74458946D01*
X146676377Y-74465168D01*
X146673985Y-74468890D01*
X146673932Y-74468969D01*
X146673931Y-74468969D01*
X146662300Y-74527446D01*
X146662300Y-74922551D01*
X146673931Y-74981028D01*
X146673934Y-74981034D01*
X146673987Y-74981113D01*
X146674048Y-74981310D01*
X146678606Y-74992312D01*
X146677621Y-74992720D01*
X146694863Y-75047791D01*
X146678446Y-75107622D01*
X146678606Y-75107688D01*
X146678081Y-75108954D01*
X146676376Y-75115170D01*
X146673987Y-75118887D01*
X146673934Y-75118965D01*
X146673931Y-75118971D01*
X146662300Y-75177448D01*
X146662300Y-75572553D01*
X146673931Y-75631030D01*
X146673985Y-75631110D01*
X146674047Y-75631308D01*
X146678606Y-75642314D01*
X146677620Y-75642722D01*
X146694862Y-75697788D01*
X146678447Y-75757620D01*
X146678606Y-75757686D01*
X146678083Y-75758946D01*
X146676377Y-75765168D01*
X146673985Y-75768890D01*
X146673932Y-75768969D01*
X146673931Y-75768969D01*
X146662300Y-75827446D01*
X146662300Y-76222551D01*
X146673931Y-76281028D01*
X146673932Y-76281029D01*
X146718247Y-76347351D01*
X146784569Y-76391666D01*
X146784570Y-76391667D01*
X146843047Y-76403298D01*
X146843050Y-76403299D01*
X146843052Y-76403299D01*
X146891343Y-76403299D01*
X146953343Y-76419912D01*
X146954289Y-76420458D01*
X147022811Y-76460019D01*
X147099238Y-76480498D01*
X147454165Y-76480498D01*
X147521204Y-76500183D01*
X147541846Y-76516817D01*
X153012924Y-81987895D01*
X153046409Y-82049218D01*
X153041425Y-82118910D01*
X153039804Y-82123029D01*
X152989870Y-82243579D01*
X152989868Y-82243587D01*
X152949500Y-82446530D01*
X152949500Y-82653469D01*
X152989868Y-82856412D01*
X152989870Y-82856420D01*
X153069058Y-83047596D01*
X153184024Y-83219657D01*
X153330342Y-83365975D01*
X153330345Y-83365977D01*
X153502402Y-83480941D01*
X153693580Y-83560130D01*
X153896530Y-83600499D01*
X153896534Y-83600500D01*
X153896535Y-83600500D01*
X154103466Y-83600500D01*
X154103467Y-83600499D01*
X154306420Y-83560130D01*
X154497598Y-83480941D01*
X154669655Y-83365977D01*
X154815977Y-83219655D01*
X154930941Y-83047598D01*
X155010130Y-82856420D01*
X155050500Y-82653465D01*
X155050500Y-82446535D01*
X155010130Y-82243580D01*
X154930941Y-82052402D01*
X154815977Y-81880345D01*
X154815975Y-81880342D01*
X154669657Y-81734024D01*
X154502616Y-81622412D01*
X154497598Y-81619059D01*
X154445002Y-81597273D01*
X154306420Y-81539870D01*
X154306412Y-81539868D01*
X154103469Y-81499500D01*
X154103465Y-81499500D01*
X153896535Y-81499500D01*
X153896530Y-81499500D01*
X153693587Y-81539868D01*
X153693579Y-81539870D01*
X153573029Y-81589804D01*
X153503559Y-81597273D01*
X153441080Y-81565998D01*
X153437895Y-81562924D01*
X148432594Y-76557623D01*
X148399109Y-76496300D01*
X148404093Y-76426608D01*
X148445965Y-76370675D01*
X148451375Y-76366846D01*
X148480552Y-76347351D01*
X148524867Y-76281030D01*
X148524867Y-76281028D01*
X148524868Y-76281028D01*
X148536499Y-76222551D01*
X148536500Y-76222549D01*
X148536500Y-75827448D01*
X148536499Y-75827446D01*
X148535753Y-75823692D01*
X148535932Y-75821685D01*
X148535903Y-75821386D01*
X148535959Y-75821380D01*
X148541980Y-75754100D01*
X148584843Y-75698923D01*
X148650733Y-75675679D01*
X148657370Y-75675501D01*
X149189168Y-75675501D01*
X149256207Y-75695186D01*
X149276849Y-75711820D01*
X153012924Y-79447895D01*
X153046409Y-79509218D01*
X153041425Y-79578910D01*
X153039804Y-79583029D01*
X152989870Y-79703579D01*
X152989868Y-79703587D01*
X152949500Y-79906530D01*
X152949500Y-80113469D01*
X152989868Y-80316412D01*
X152989870Y-80316420D01*
X153069058Y-80507596D01*
X153184024Y-80679657D01*
X153330342Y-80825975D01*
X153330345Y-80825977D01*
X153502402Y-80940941D01*
X153693580Y-81020130D01*
X153896530Y-81060499D01*
X153896534Y-81060500D01*
X153896535Y-81060500D01*
X154103466Y-81060500D01*
X154103467Y-81060499D01*
X154306420Y-81020130D01*
X154497598Y-80940941D01*
X154669655Y-80825977D01*
X154815977Y-80679655D01*
X154930941Y-80507598D01*
X155010130Y-80316420D01*
X155050500Y-80113465D01*
X155050500Y-79906535D01*
X155010130Y-79703580D01*
X154930941Y-79512402D01*
X154815977Y-79340345D01*
X154815975Y-79340342D01*
X154669657Y-79194024D01*
X154502616Y-79082412D01*
X154497598Y-79079059D01*
X154445002Y-79057273D01*
X154306420Y-78999870D01*
X154306412Y-78999868D01*
X154103469Y-78959500D01*
X154103465Y-78959500D01*
X153896535Y-78959500D01*
X153896530Y-78959500D01*
X153693587Y-78999868D01*
X153693579Y-78999870D01*
X153573029Y-79049804D01*
X153503559Y-79057273D01*
X153441080Y-79025998D01*
X153437895Y-79022924D01*
X149652151Y-75237180D01*
X149618666Y-75175857D01*
X149623650Y-75106165D01*
X149665522Y-75050232D01*
X149730986Y-75025815D01*
X149739832Y-75025499D01*
X151079166Y-75025499D01*
X151146205Y-75045184D01*
X151166847Y-75061818D01*
X153012924Y-76907895D01*
X153046409Y-76969218D01*
X153041425Y-77038910D01*
X153039804Y-77043029D01*
X152989870Y-77163579D01*
X152989868Y-77163587D01*
X152949500Y-77366530D01*
X152949500Y-77573469D01*
X152989868Y-77776412D01*
X152989870Y-77776420D01*
X153069058Y-77967596D01*
X153184024Y-78139657D01*
X153330342Y-78285975D01*
X153330345Y-78285977D01*
X153502402Y-78400941D01*
X153693580Y-78480130D01*
X153896530Y-78520499D01*
X153896534Y-78520500D01*
X153896535Y-78520500D01*
X154103466Y-78520500D01*
X154103467Y-78520499D01*
X154306420Y-78480130D01*
X154497598Y-78400941D01*
X154669655Y-78285977D01*
X154815977Y-78139655D01*
X154930941Y-77967598D01*
X155010130Y-77776420D01*
X155050500Y-77573465D01*
X155050500Y-77366535D01*
X155010130Y-77163580D01*
X154930941Y-76972402D01*
X154815977Y-76800345D01*
X154815975Y-76800342D01*
X154669657Y-76654024D01*
X154502616Y-76542412D01*
X154497598Y-76539059D01*
X154445002Y-76517273D01*
X154306420Y-76459870D01*
X154306412Y-76459868D01*
X154103469Y-76419500D01*
X154103465Y-76419500D01*
X153896535Y-76419500D01*
X153896530Y-76419500D01*
X153693587Y-76459868D01*
X153693579Y-76459870D01*
X153573029Y-76509804D01*
X153503559Y-76517273D01*
X153441080Y-76485998D01*
X153437895Y-76482924D01*
X151542153Y-74587182D01*
X151508668Y-74525859D01*
X151513652Y-74456167D01*
X151555524Y-74400234D01*
X151620988Y-74375817D01*
X151629834Y-74375501D01*
X152907049Y-74375501D01*
X152974088Y-74395186D01*
X153019843Y-74447990D01*
X153029787Y-74517148D01*
X153021610Y-74546954D01*
X152989870Y-74623579D01*
X152989868Y-74623587D01*
X152949500Y-74826530D01*
X152949500Y-75033469D01*
X152989868Y-75236412D01*
X152989870Y-75236420D01*
X153069058Y-75427596D01*
X153184024Y-75599657D01*
X153330342Y-75745975D01*
X153330345Y-75745977D01*
X153502402Y-75860941D01*
X153693580Y-75940130D01*
X153896530Y-75980499D01*
X153896534Y-75980500D01*
X153896535Y-75980500D01*
X154103466Y-75980500D01*
X154103467Y-75980499D01*
X154306420Y-75940130D01*
X154497598Y-75860941D01*
X154669655Y-75745977D01*
X154815977Y-75599655D01*
X154930941Y-75427598D01*
X155010130Y-75236420D01*
X155050500Y-75033465D01*
X155050500Y-74826535D01*
X155010130Y-74623580D01*
X154930941Y-74432402D01*
X154815977Y-74260345D01*
X154815975Y-74260342D01*
X154669657Y-74114024D01*
X154544719Y-74030544D01*
X154497598Y-73999059D01*
X154474617Y-73989540D01*
X154306420Y-73919870D01*
X154306412Y-73919868D01*
X154103469Y-73879500D01*
X154103465Y-73879500D01*
X153896535Y-73879500D01*
X153896530Y-73879500D01*
X153693587Y-73919868D01*
X153693576Y-73919871D01*
X153693116Y-73920062D01*
X153678680Y-73925024D01*
X153662475Y-73929500D01*
X153650438Y-73929500D01*
X153574012Y-73949979D01*
X153560876Y-73957562D01*
X153545604Y-73961781D01*
X153525862Y-73961463D01*
X153506672Y-73966116D01*
X153491643Y-73960912D01*
X153475743Y-73960656D01*
X153459306Y-73949714D01*
X153440648Y-73943254D01*
X153424909Y-73929938D01*
X153329512Y-73834541D01*
X153302537Y-73818966D01*
X153302537Y-73818967D01*
X153253951Y-73790916D01*
X153254744Y-73789541D01*
X153207622Y-73751563D01*
X153185561Y-73685267D01*
X153202844Y-73617569D01*
X153221794Y-73593176D01*
X153437896Y-73377073D01*
X153499217Y-73343590D01*
X153568909Y-73348574D01*
X153573007Y-73350186D01*
X153693580Y-73400130D01*
X153896530Y-73440499D01*
X153896534Y-73440500D01*
X153896535Y-73440500D01*
X154103466Y-73440500D01*
X154103467Y-73440499D01*
X154306420Y-73400130D01*
X154497598Y-73320941D01*
X154669655Y-73205977D01*
X154815977Y-73059655D01*
X154930941Y-72887598D01*
X155010130Y-72696420D01*
X155050500Y-72493465D01*
X155050500Y-72286535D01*
X155010130Y-72083580D01*
X154930941Y-71892402D01*
X154815977Y-71720345D01*
X154815975Y-71720342D01*
X154669657Y-71574024D01*
X154583626Y-71516541D01*
X154497598Y-71459059D01*
X154306420Y-71379870D01*
X154306412Y-71379868D01*
X154103469Y-71339500D01*
X154103465Y-71339500D01*
X153896535Y-71339500D01*
X153896530Y-71339500D01*
X153693587Y-71379868D01*
X153693579Y-71379870D01*
X153502403Y-71459058D01*
X153330342Y-71574024D01*
X153184024Y-71720342D01*
X153069058Y-71892403D01*
X152989870Y-72083579D01*
X152989868Y-72083587D01*
X152949500Y-72286530D01*
X152949500Y-72493469D01*
X152989868Y-72696412D01*
X152989871Y-72696424D01*
X153039803Y-72816971D01*
X153041939Y-72836845D01*
X153048926Y-72855576D01*
X153045598Y-72870873D01*
X153047272Y-72886440D01*
X153038323Y-72904315D01*
X153034075Y-72923849D01*
X153017387Y-72946141D01*
X153015997Y-72948919D01*
X153012924Y-72952104D01*
X152876844Y-73088184D01*
X152815524Y-73121668D01*
X152789165Y-73124502D01*
X151449831Y-73124502D01*
X151382792Y-73104817D01*
X151337037Y-73052013D01*
X151327093Y-72982855D01*
X151356118Y-72919299D01*
X151362150Y-72912821D01*
X151879072Y-72395899D01*
X153437896Y-70837073D01*
X153499217Y-70803590D01*
X153568909Y-70808574D01*
X153573007Y-70810186D01*
X153693580Y-70860130D01*
X153896530Y-70900499D01*
X153896534Y-70900500D01*
X153896535Y-70900500D01*
X154103466Y-70900500D01*
X154103467Y-70900499D01*
X154306420Y-70860130D01*
X154497598Y-70780941D01*
X154669655Y-70665977D01*
X154815977Y-70519655D01*
X154930941Y-70347598D01*
X155010130Y-70156420D01*
X155050500Y-69953465D01*
X155050500Y-69746535D01*
X155010130Y-69543580D01*
X154930941Y-69352402D01*
X154815977Y-69180345D01*
X154815975Y-69180342D01*
X154669657Y-69034024D01*
X154583626Y-68976541D01*
X154497598Y-68919059D01*
X154306420Y-68839870D01*
X154306412Y-68839868D01*
X154103469Y-68799500D01*
X154103465Y-68799500D01*
X153896535Y-68799500D01*
X153896530Y-68799500D01*
X153693587Y-68839868D01*
X153693579Y-68839870D01*
X153502403Y-68919058D01*
X153330342Y-69034024D01*
X153184024Y-69180342D01*
X153069058Y-69352403D01*
X152989870Y-69543579D01*
X152989868Y-69543587D01*
X152949500Y-69746530D01*
X152949500Y-69953469D01*
X152989868Y-70156412D01*
X152989871Y-70156424D01*
X153039803Y-70276971D01*
X153047272Y-70346440D01*
X153015997Y-70408919D01*
X153012923Y-70412104D01*
X150986847Y-72438182D01*
X150925524Y-72471667D01*
X150899166Y-72474501D01*
X149559832Y-72474501D01*
X149492793Y-72454816D01*
X149447038Y-72402012D01*
X149437094Y-72332854D01*
X149466119Y-72269298D01*
X149472151Y-72262820D01*
X150457523Y-71277448D01*
X153437896Y-68297073D01*
X153499217Y-68263590D01*
X153568909Y-68268574D01*
X153573007Y-68270186D01*
X153693580Y-68320130D01*
X153838052Y-68348867D01*
X153896530Y-68360499D01*
X153896534Y-68360500D01*
X153896535Y-68360500D01*
X154103466Y-68360500D01*
X154103467Y-68360499D01*
X154306420Y-68320130D01*
X154497598Y-68240941D01*
X154669655Y-68125977D01*
X154815977Y-67979655D01*
X154930941Y-67807598D01*
X155010130Y-67616420D01*
X155050500Y-67413465D01*
X155050500Y-67206535D01*
X155010130Y-67003580D01*
X154930941Y-66812402D01*
X154815977Y-66640345D01*
X154815975Y-66640342D01*
X154669657Y-66494024D01*
X154501655Y-66381770D01*
X154497598Y-66379059D01*
X154306420Y-66299870D01*
X154306412Y-66299868D01*
X154103469Y-66259500D01*
X154103465Y-66259500D01*
X153896535Y-66259500D01*
X153896530Y-66259500D01*
X153693587Y-66299868D01*
X153693579Y-66299870D01*
X153502403Y-66379058D01*
X153330342Y-66494024D01*
X153184024Y-66640342D01*
X153069058Y-66812403D01*
X152989870Y-67003579D01*
X152989868Y-67003587D01*
X152949500Y-67206530D01*
X152949500Y-67413469D01*
X152989868Y-67616412D01*
X152989871Y-67616424D01*
X153039803Y-67736971D01*
X153047272Y-67806440D01*
X153015997Y-67868919D01*
X153012923Y-67872104D01*
X149096846Y-71788183D01*
X149035523Y-71821668D01*
X149009165Y-71824502D01*
X148657369Y-71824502D01*
X148590330Y-71804817D01*
X148544575Y-71752013D01*
X148534631Y-71682855D01*
X148535753Y-71676306D01*
X148536500Y-71672551D01*
X148536500Y-71277450D01*
X148536499Y-71277448D01*
X148524868Y-71218971D01*
X148524867Y-71218970D01*
X148480552Y-71152648D01*
X148414230Y-71108333D01*
X148368517Y-71099240D01*
X148306606Y-71066855D01*
X148272032Y-71006139D01*
X148275773Y-70936369D01*
X148305026Y-70889944D01*
X153338152Y-65856819D01*
X153399475Y-65823334D01*
X153425833Y-65820500D01*
X154869750Y-65820500D01*
X154869751Y-65820499D01*
X154884568Y-65817552D01*
X154928229Y-65808868D01*
X154928229Y-65808867D01*
X154928231Y-65808867D01*
X154994552Y-65764552D01*
X155038867Y-65698231D01*
X155038867Y-65698229D01*
X155038868Y-65698229D01*
X155050499Y-65639752D01*
X155050500Y-65639750D01*
X155050500Y-63900249D01*
X155050499Y-63900247D01*
X155038868Y-63841770D01*
X155038867Y-63841769D01*
X154994552Y-63775447D01*
X154928230Y-63731132D01*
X154928229Y-63731131D01*
X154869752Y-63719500D01*
X154869748Y-63719500D01*
X153130252Y-63719500D01*
X153130247Y-63719500D01*
X153071770Y-63731131D01*
X153071769Y-63731132D01*
X153005447Y-63775447D01*
X152961132Y-63841769D01*
X152961131Y-63841770D01*
X152949500Y-63900247D01*
X152949500Y-65344167D01*
X152929815Y-65411206D01*
X152913181Y-65431848D01*
X147358941Y-70986087D01*
X147358939Y-70986090D01*
X147330875Y-71034700D01*
X147280308Y-71082916D01*
X147223487Y-71096701D01*
X146843047Y-71096701D01*
X146784570Y-71108332D01*
X146784569Y-71108333D01*
X146718247Y-71152648D01*
X146673932Y-71218970D01*
X146673931Y-71218971D01*
X146662300Y-71277448D01*
X142897699Y-71277448D01*
X142886068Y-71218971D01*
X142886067Y-71218970D01*
X142841752Y-71152648D01*
X142775430Y-71108333D01*
X142775429Y-71108332D01*
X142716952Y-71096701D01*
X142716948Y-71096701D01*
X142058633Y-71096701D01*
X141991594Y-71077016D01*
X141970952Y-71060382D01*
X137980111Y-67069541D01*
X137980103Y-67069535D01*
X137911594Y-67029982D01*
X137911589Y-67029979D01*
X137886112Y-67023152D01*
X137835161Y-67009500D01*
X137835159Y-67009500D01*
X136924500Y-67009500D01*
X136857461Y-66989815D01*
X136811706Y-66937011D01*
X136800500Y-66885500D01*
X136800500Y-66440249D01*
X136800499Y-66440247D01*
X136788868Y-66381770D01*
X136788867Y-66381769D01*
X136744552Y-66315447D01*
X136678230Y-66271132D01*
X136678229Y-66271131D01*
X136619752Y-66259500D01*
X136619748Y-66259500D01*
X134880252Y-66259500D01*
X134880247Y-66259500D01*
X134821770Y-66271131D01*
X134821769Y-66271132D01*
X134755447Y-66315447D01*
X134711132Y-66381769D01*
X134711131Y-66381770D01*
X134699500Y-66440247D01*
X133250500Y-66440247D01*
X133250500Y-62756961D01*
X133251280Y-62743077D01*
X133251280Y-62743076D01*
X133261460Y-62652729D01*
X133267635Y-62625670D01*
X133295353Y-62546456D01*
X133307396Y-62521450D01*
X133352046Y-62450389D01*
X133369351Y-62428690D01*
X133428690Y-62369351D01*
X133450389Y-62352046D01*
X133521450Y-62307396D01*
X133546456Y-62295353D01*
X133625670Y-62267635D01*
X133652733Y-62261459D01*
X133715419Y-62254396D01*
X133743079Y-62251280D01*
X133756962Y-62250500D01*
X133815892Y-62250500D01*
X155934108Y-62250500D01*
X155993038Y-62250500D01*
X156006922Y-62251280D01*
G37*
G04 #@! TD.AperFunction*
G04 #@! TA.AperFunction,NonConductor*
G36*
X140966539Y-74545185D02*
G01*
X141012294Y-74597989D01*
X141023500Y-74649500D01*
X141023500Y-74922548D01*
X141024248Y-74926309D01*
X141024068Y-74928318D01*
X141024097Y-74928612D01*
X141024041Y-74928617D01*
X141018019Y-74995901D01*
X140975155Y-75051077D01*
X140909264Y-75074320D01*
X140902630Y-75074498D01*
X139468702Y-75074498D01*
X139466061Y-75073722D01*
X139463391Y-75074384D01*
X139432725Y-75063934D01*
X139401663Y-75054813D01*
X139399862Y-75052735D01*
X139397256Y-75051847D01*
X139377104Y-75026470D01*
X139355908Y-75002009D01*
X139355516Y-74999286D01*
X139353805Y-74997131D01*
X139350573Y-74964910D01*
X139345964Y-74932851D01*
X139347023Y-74929509D01*
X139346833Y-74927610D01*
X139358215Y-74894206D01*
X139404584Y-74803203D01*
X139452558Y-74752409D01*
X139515068Y-74735500D01*
X140079560Y-74735500D01*
X140079562Y-74735500D01*
X140155989Y-74715021D01*
X140224511Y-74675460D01*
X140224511Y-74675459D01*
X140230310Y-74672112D01*
X140292310Y-74655499D01*
X140394856Y-74655499D01*
X140394864Y-74655499D01*
X140394879Y-74655497D01*
X140394882Y-74655497D01*
X140419987Y-74652586D01*
X140419988Y-74652585D01*
X140419991Y-74652585D01*
X140522765Y-74607206D01*
X140545459Y-74584511D01*
X140568154Y-74561818D01*
X140595080Y-74547115D01*
X140620899Y-74530523D01*
X140627101Y-74529631D01*
X140629477Y-74528334D01*
X140655834Y-74525500D01*
X140899500Y-74525500D01*
X140966539Y-74545185D01*
G37*
G04 #@! TD.AperFunction*
M02*
