G04 #@! TF.GenerationSoftware,KiCad,Pcbnew,9.0.4*
G04 #@! TF.CreationDate,2025-12-19T17:43:11-05:00*
G04 #@! TF.ProjectId,AD5689RARUZ-RL7_breakboard,41443536-3839-4524-9152-555a2d524c37,rev?*
G04 #@! TF.SameCoordinates,Original*
G04 #@! TF.FileFunction,Legend,Top*
G04 #@! TF.FilePolarity,Positive*
%FSLAX46Y46*%
G04 Gerber Fmt 4.6, Leading zero omitted, Abs format (unit mm)*
G04 Created by KiCad (PCBNEW 9.0.4) date 2025-12-19 17:43:11*
%MOMM*%
%LPD*%
G01*
G04 APERTURE LIST*
G04 Aperture macros list*
%AMRoundRect*
0 Rectangle with rounded corners*
0 $1 Rounding radius*
0 $2 $3 $4 $5 $6 $7 $8 $9 X,Y pos of 4 corners*
0 Add a 4 corners polygon primitive as box body*
4,1,4,$2,$3,$4,$5,$6,$7,$8,$9,$2,$3,0*
0 Add four circle primitives for the rounded corners*
1,1,$1+$1,$2,$3*
1,1,$1+$1,$4,$5*
1,1,$1+$1,$6,$7*
1,1,$1+$1,$8,$9*
0 Add four rect primitives between the rounded corners*
20,1,$1+$1,$2,$3,$4,$5,0*
20,1,$1+$1,$4,$5,$6,$7,0*
20,1,$1+$1,$6,$7,$8,$9,0*
20,1,$1+$1,$8,$9,$2,$3,0*%
G04 Aperture macros list end*
%ADD10C,0.125000*%
%ADD11C,0.150000*%
%ADD12C,0.120000*%
%ADD13C,0.000000*%
%ADD14C,0.152400*%
%ADD15RoundRect,0.140000X0.170000X-0.140000X0.170000X0.140000X-0.170000X0.140000X-0.170000X-0.140000X0*%
%ADD16RoundRect,0.225000X0.250000X-0.225000X0.250000X0.225000X-0.250000X0.225000X-0.250000X-0.225000X0*%
%ADD17R,1.700000X1.700000*%
%ADD18C,1.700000*%
%ADD19R,1.473200X0.355600*%
G04 APERTURE END LIST*
D10*
X140369047Y-72224809D02*
X140630952Y-71891476D01*
X140369047Y-71891476D02*
X140630952Y-72224809D01*
X139457143Y-78490819D02*
X139542857Y-78519391D01*
X139542857Y-78519391D02*
X139571428Y-78547962D01*
X139571428Y-78547962D02*
X139600000Y-78605105D01*
X139600000Y-78605105D02*
X139600000Y-78690819D01*
X139600000Y-78690819D02*
X139571428Y-78747962D01*
X139571428Y-78747962D02*
X139542857Y-78776534D01*
X139542857Y-78776534D02*
X139485714Y-78805105D01*
X139485714Y-78805105D02*
X139257143Y-78805105D01*
X139257143Y-78805105D02*
X139257143Y-78205105D01*
X139257143Y-78205105D02*
X139457143Y-78205105D01*
X139457143Y-78205105D02*
X139514286Y-78233676D01*
X139514286Y-78233676D02*
X139542857Y-78262248D01*
X139542857Y-78262248D02*
X139571428Y-78319391D01*
X139571428Y-78319391D02*
X139571428Y-78376534D01*
X139571428Y-78376534D02*
X139542857Y-78433676D01*
X139542857Y-78433676D02*
X139514286Y-78462248D01*
X139514286Y-78462248D02*
X139457143Y-78490819D01*
X139457143Y-78490819D02*
X139257143Y-78490819D01*
X139942857Y-78805105D02*
X139885714Y-78776534D01*
X139885714Y-78776534D02*
X139857143Y-78719391D01*
X139857143Y-78719391D02*
X139857143Y-78205105D01*
X140428572Y-78405105D02*
X140428572Y-78805105D01*
X140171429Y-78405105D02*
X140171429Y-78719391D01*
X140171429Y-78719391D02*
X140200000Y-78776534D01*
X140200000Y-78776534D02*
X140257143Y-78805105D01*
X140257143Y-78805105D02*
X140342857Y-78805105D01*
X140342857Y-78805105D02*
X140400000Y-78776534D01*
X140400000Y-78776534D02*
X140428572Y-78747962D01*
X140942857Y-78776534D02*
X140885714Y-78805105D01*
X140885714Y-78805105D02*
X140771429Y-78805105D01*
X140771429Y-78805105D02*
X140714286Y-78776534D01*
X140714286Y-78776534D02*
X140685714Y-78719391D01*
X140685714Y-78719391D02*
X140685714Y-78490819D01*
X140685714Y-78490819D02*
X140714286Y-78433676D01*
X140714286Y-78433676D02*
X140771429Y-78405105D01*
X140771429Y-78405105D02*
X140885714Y-78405105D01*
X140885714Y-78405105D02*
X140942857Y-78433676D01*
X140942857Y-78433676D02*
X140971429Y-78490819D01*
X140971429Y-78490819D02*
X140971429Y-78547962D01*
X140971429Y-78547962D02*
X140685714Y-78605105D01*
X141857143Y-78205105D02*
X141857143Y-78633676D01*
X141857143Y-78633676D02*
X141828572Y-78719391D01*
X141828572Y-78719391D02*
X141771429Y-78776534D01*
X141771429Y-78776534D02*
X141685715Y-78805105D01*
X141685715Y-78805105D02*
X141628572Y-78805105D01*
X142400001Y-78805105D02*
X142400001Y-78490819D01*
X142400001Y-78490819D02*
X142371429Y-78433676D01*
X142371429Y-78433676D02*
X142314286Y-78405105D01*
X142314286Y-78405105D02*
X142200001Y-78405105D01*
X142200001Y-78405105D02*
X142142858Y-78433676D01*
X142400001Y-78776534D02*
X142342858Y-78805105D01*
X142342858Y-78805105D02*
X142200001Y-78805105D01*
X142200001Y-78805105D02*
X142142858Y-78776534D01*
X142142858Y-78776534D02*
X142114286Y-78719391D01*
X142114286Y-78719391D02*
X142114286Y-78662248D01*
X142114286Y-78662248D02*
X142142858Y-78605105D01*
X142142858Y-78605105D02*
X142200001Y-78576534D01*
X142200001Y-78576534D02*
X142342858Y-78576534D01*
X142342858Y-78576534D02*
X142400001Y-78547962D01*
X142628572Y-78405105D02*
X142771429Y-78805105D01*
X142914286Y-78405105D02*
X142771429Y-78805105D01*
X142771429Y-78805105D02*
X142714286Y-78947962D01*
X142714286Y-78947962D02*
X142685715Y-78976534D01*
X142685715Y-78976534D02*
X142628572Y-79005105D01*
X143942858Y-78805105D02*
X143742858Y-78519391D01*
X143600001Y-78805105D02*
X143600001Y-78205105D01*
X143600001Y-78205105D02*
X143828572Y-78205105D01*
X143828572Y-78205105D02*
X143885715Y-78233676D01*
X143885715Y-78233676D02*
X143914286Y-78262248D01*
X143914286Y-78262248D02*
X143942858Y-78319391D01*
X143942858Y-78319391D02*
X143942858Y-78405105D01*
X143942858Y-78405105D02*
X143914286Y-78462248D01*
X143914286Y-78462248D02*
X143885715Y-78490819D01*
X143885715Y-78490819D02*
X143828572Y-78519391D01*
X143828572Y-78519391D02*
X143600001Y-78519391D01*
X144457144Y-78805105D02*
X144457144Y-78490819D01*
X144457144Y-78490819D02*
X144428572Y-78433676D01*
X144428572Y-78433676D02*
X144371429Y-78405105D01*
X144371429Y-78405105D02*
X144257144Y-78405105D01*
X144257144Y-78405105D02*
X144200001Y-78433676D01*
X144457144Y-78776534D02*
X144400001Y-78805105D01*
X144400001Y-78805105D02*
X144257144Y-78805105D01*
X144257144Y-78805105D02*
X144200001Y-78776534D01*
X144200001Y-78776534D02*
X144171429Y-78719391D01*
X144171429Y-78719391D02*
X144171429Y-78662248D01*
X144171429Y-78662248D02*
X144200001Y-78605105D01*
X144200001Y-78605105D02*
X144257144Y-78576534D01*
X144257144Y-78576534D02*
X144400001Y-78576534D01*
X144400001Y-78576534D02*
X144457144Y-78547962D01*
X145000001Y-78776534D02*
X144942858Y-78805105D01*
X144942858Y-78805105D02*
X144828572Y-78805105D01*
X144828572Y-78805105D02*
X144771429Y-78776534D01*
X144771429Y-78776534D02*
X144742858Y-78747962D01*
X144742858Y-78747962D02*
X144714286Y-78690819D01*
X144714286Y-78690819D02*
X144714286Y-78519391D01*
X144714286Y-78519391D02*
X144742858Y-78462248D01*
X144742858Y-78462248D02*
X144771429Y-78433676D01*
X144771429Y-78433676D02*
X144828572Y-78405105D01*
X144828572Y-78405105D02*
X144942858Y-78405105D01*
X144942858Y-78405105D02*
X145000001Y-78433676D01*
X145257144Y-78805105D02*
X145257144Y-78405105D01*
X145257144Y-78205105D02*
X145228572Y-78233676D01*
X145228572Y-78233676D02*
X145257144Y-78262248D01*
X145257144Y-78262248D02*
X145285715Y-78233676D01*
X145285715Y-78233676D02*
X145257144Y-78205105D01*
X145257144Y-78205105D02*
X145257144Y-78262248D01*
X145542858Y-78405105D02*
X145542858Y-78805105D01*
X145542858Y-78462248D02*
X145571429Y-78433676D01*
X145571429Y-78433676D02*
X145628572Y-78405105D01*
X145628572Y-78405105D02*
X145714286Y-78405105D01*
X145714286Y-78405105D02*
X145771429Y-78433676D01*
X145771429Y-78433676D02*
X145800001Y-78490819D01*
X145800001Y-78490819D02*
X145800001Y-78805105D01*
X146342858Y-78405105D02*
X146342858Y-78890819D01*
X146342858Y-78890819D02*
X146314286Y-78947962D01*
X146314286Y-78947962D02*
X146285715Y-78976534D01*
X146285715Y-78976534D02*
X146228572Y-79005105D01*
X146228572Y-79005105D02*
X146142858Y-79005105D01*
X146142858Y-79005105D02*
X146085715Y-78976534D01*
X146342858Y-78776534D02*
X146285715Y-78805105D01*
X146285715Y-78805105D02*
X146171429Y-78805105D01*
X146171429Y-78805105D02*
X146114286Y-78776534D01*
X146114286Y-78776534D02*
X146085715Y-78747962D01*
X146085715Y-78747962D02*
X146057143Y-78690819D01*
X146057143Y-78690819D02*
X146057143Y-78519391D01*
X146057143Y-78519391D02*
X146085715Y-78462248D01*
X146085715Y-78462248D02*
X146114286Y-78433676D01*
X146114286Y-78433676D02*
X146171429Y-78405105D01*
X146171429Y-78405105D02*
X146285715Y-78405105D01*
X146285715Y-78405105D02*
X146342858Y-78433676D01*
X147457143Y-78519391D02*
X147428572Y-78490819D01*
X147428572Y-78490819D02*
X147371429Y-78462248D01*
X147371429Y-78462248D02*
X147314286Y-78462248D01*
X147314286Y-78462248D02*
X147257143Y-78490819D01*
X147257143Y-78490819D02*
X147228572Y-78519391D01*
X147228572Y-78519391D02*
X147200000Y-78576534D01*
X147200000Y-78576534D02*
X147200000Y-78633676D01*
X147200000Y-78633676D02*
X147228572Y-78690819D01*
X147228572Y-78690819D02*
X147257143Y-78719391D01*
X147257143Y-78719391D02*
X147314286Y-78747962D01*
X147314286Y-78747962D02*
X147371429Y-78747962D01*
X147371429Y-78747962D02*
X147428572Y-78719391D01*
X147428572Y-78719391D02*
X147457143Y-78690819D01*
X147457143Y-78462248D02*
X147457143Y-78690819D01*
X147457143Y-78690819D02*
X147485715Y-78719391D01*
X147485715Y-78719391D02*
X147514286Y-78719391D01*
X147514286Y-78719391D02*
X147571429Y-78690819D01*
X147571429Y-78690819D02*
X147600000Y-78633676D01*
X147600000Y-78633676D02*
X147600000Y-78490819D01*
X147600000Y-78490819D02*
X147542858Y-78405105D01*
X147542858Y-78405105D02*
X147457143Y-78347962D01*
X147457143Y-78347962D02*
X147342858Y-78319391D01*
X147342858Y-78319391D02*
X147228572Y-78347962D01*
X147228572Y-78347962D02*
X147142858Y-78405105D01*
X147142858Y-78405105D02*
X147085715Y-78490819D01*
X147085715Y-78490819D02*
X147057143Y-78605105D01*
X147057143Y-78605105D02*
X147085715Y-78719391D01*
X147085715Y-78719391D02*
X147142858Y-78805105D01*
X147142858Y-78805105D02*
X147228572Y-78862248D01*
X147228572Y-78862248D02*
X147342858Y-78890819D01*
X147342858Y-78890819D02*
X147457143Y-78862248D01*
X147457143Y-78862248D02*
X147542858Y-78805105D01*
X148485715Y-78205105D02*
X148485715Y-78633676D01*
X148485715Y-78633676D02*
X148457144Y-78719391D01*
X148457144Y-78719391D02*
X148400001Y-78776534D01*
X148400001Y-78776534D02*
X148314287Y-78805105D01*
X148314287Y-78805105D02*
X148257144Y-78805105D01*
X148771430Y-78805105D02*
X148771430Y-78205105D01*
X148771430Y-78490819D02*
X149114287Y-78490819D01*
X149114287Y-78805105D02*
X149114287Y-78205105D01*
X149400001Y-78205105D02*
X149400001Y-78690819D01*
X149400001Y-78690819D02*
X149428572Y-78747962D01*
X149428572Y-78747962D02*
X149457144Y-78776534D01*
X149457144Y-78776534D02*
X149514286Y-78805105D01*
X149514286Y-78805105D02*
X149628572Y-78805105D01*
X149628572Y-78805105D02*
X149685715Y-78776534D01*
X149685715Y-78776534D02*
X149714286Y-78747962D01*
X149714286Y-78747962D02*
X149742858Y-78690819D01*
X149742858Y-78690819D02*
X149742858Y-78205105D01*
X138985713Y-79228214D02*
X139014285Y-79199642D01*
X139014285Y-79199642D02*
X139071428Y-79171071D01*
X139071428Y-79171071D02*
X139214285Y-79171071D01*
X139214285Y-79171071D02*
X139271428Y-79199642D01*
X139271428Y-79199642D02*
X139299999Y-79228214D01*
X139299999Y-79228214D02*
X139328570Y-79285357D01*
X139328570Y-79285357D02*
X139328570Y-79342500D01*
X139328570Y-79342500D02*
X139299999Y-79428214D01*
X139299999Y-79428214D02*
X138957142Y-79771071D01*
X138957142Y-79771071D02*
X139328570Y-79771071D01*
X139557142Y-79228214D02*
X139585714Y-79199642D01*
X139585714Y-79199642D02*
X139642857Y-79171071D01*
X139642857Y-79171071D02*
X139785714Y-79171071D01*
X139785714Y-79171071D02*
X139842857Y-79199642D01*
X139842857Y-79199642D02*
X139871428Y-79228214D01*
X139871428Y-79228214D02*
X139899999Y-79285357D01*
X139899999Y-79285357D02*
X139899999Y-79342500D01*
X139899999Y-79342500D02*
X139871428Y-79428214D01*
X139871428Y-79428214D02*
X139528571Y-79771071D01*
X139528571Y-79771071D02*
X139899999Y-79771071D01*
X140100000Y-79171071D02*
X140500000Y-79771071D01*
X140500000Y-79171071D02*
X140100000Y-79771071D01*
X140642857Y-79171071D02*
X140985715Y-79171071D01*
X140814286Y-79771071D02*
X140814286Y-79171071D01*
X141642858Y-79771071D02*
X141642858Y-79171071D01*
X141642858Y-79171071D02*
X141842858Y-79599642D01*
X141842858Y-79599642D02*
X142042858Y-79171071D01*
X142042858Y-79171071D02*
X142042858Y-79771071D01*
X142585715Y-79771071D02*
X142585715Y-79456785D01*
X142585715Y-79456785D02*
X142557143Y-79399642D01*
X142557143Y-79399642D02*
X142500000Y-79371071D01*
X142500000Y-79371071D02*
X142385715Y-79371071D01*
X142385715Y-79371071D02*
X142328572Y-79399642D01*
X142585715Y-79742500D02*
X142528572Y-79771071D01*
X142528572Y-79771071D02*
X142385715Y-79771071D01*
X142385715Y-79771071D02*
X142328572Y-79742500D01*
X142328572Y-79742500D02*
X142300000Y-79685357D01*
X142300000Y-79685357D02*
X142300000Y-79628214D01*
X142300000Y-79628214D02*
X142328572Y-79571071D01*
X142328572Y-79571071D02*
X142385715Y-79542500D01*
X142385715Y-79542500D02*
X142528572Y-79542500D01*
X142528572Y-79542500D02*
X142585715Y-79513928D01*
X142871429Y-79771071D02*
X142871429Y-79371071D01*
X142871429Y-79171071D02*
X142842857Y-79199642D01*
X142842857Y-79199642D02*
X142871429Y-79228214D01*
X142871429Y-79228214D02*
X142900000Y-79199642D01*
X142900000Y-79199642D02*
X142871429Y-79171071D01*
X142871429Y-79171071D02*
X142871429Y-79228214D01*
X143157143Y-79371071D02*
X143157143Y-79771071D01*
X143157143Y-79428214D02*
X143185714Y-79399642D01*
X143185714Y-79399642D02*
X143242857Y-79371071D01*
X143242857Y-79371071D02*
X143328571Y-79371071D01*
X143328571Y-79371071D02*
X143385714Y-79399642D01*
X143385714Y-79399642D02*
X143414286Y-79456785D01*
X143414286Y-79456785D02*
X143414286Y-79771071D01*
X144157143Y-79771071D02*
X144157143Y-79171071D01*
X144157143Y-79171071D02*
X144300000Y-79171071D01*
X144300000Y-79171071D02*
X144385714Y-79199642D01*
X144385714Y-79199642D02*
X144442857Y-79256785D01*
X144442857Y-79256785D02*
X144471428Y-79313928D01*
X144471428Y-79313928D02*
X144500000Y-79428214D01*
X144500000Y-79428214D02*
X144500000Y-79513928D01*
X144500000Y-79513928D02*
X144471428Y-79628214D01*
X144471428Y-79628214D02*
X144442857Y-79685357D01*
X144442857Y-79685357D02*
X144385714Y-79742500D01*
X144385714Y-79742500D02*
X144300000Y-79771071D01*
X144300000Y-79771071D02*
X144157143Y-79771071D01*
X144728571Y-79599642D02*
X145014286Y-79599642D01*
X144671428Y-79771071D02*
X144871428Y-79171071D01*
X144871428Y-79171071D02*
X145071428Y-79771071D01*
X145614286Y-79713928D02*
X145585714Y-79742500D01*
X145585714Y-79742500D02*
X145500000Y-79771071D01*
X145500000Y-79771071D02*
X145442857Y-79771071D01*
X145442857Y-79771071D02*
X145357143Y-79742500D01*
X145357143Y-79742500D02*
X145300000Y-79685357D01*
X145300000Y-79685357D02*
X145271429Y-79628214D01*
X145271429Y-79628214D02*
X145242857Y-79513928D01*
X145242857Y-79513928D02*
X145242857Y-79428214D01*
X145242857Y-79428214D02*
X145271429Y-79313928D01*
X145271429Y-79313928D02*
X145300000Y-79256785D01*
X145300000Y-79256785D02*
X145357143Y-79199642D01*
X145357143Y-79199642D02*
X145442857Y-79171071D01*
X145442857Y-79171071D02*
X145500000Y-79171071D01*
X145500000Y-79171071D02*
X145585714Y-79199642D01*
X145585714Y-79199642D02*
X145614286Y-79228214D01*
X146528572Y-79456785D02*
X146614286Y-79485357D01*
X146614286Y-79485357D02*
X146642857Y-79513928D01*
X146642857Y-79513928D02*
X146671429Y-79571071D01*
X146671429Y-79571071D02*
X146671429Y-79656785D01*
X146671429Y-79656785D02*
X146642857Y-79713928D01*
X146642857Y-79713928D02*
X146614286Y-79742500D01*
X146614286Y-79742500D02*
X146557143Y-79771071D01*
X146557143Y-79771071D02*
X146328572Y-79771071D01*
X146328572Y-79771071D02*
X146328572Y-79171071D01*
X146328572Y-79171071D02*
X146528572Y-79171071D01*
X146528572Y-79171071D02*
X146585715Y-79199642D01*
X146585715Y-79199642D02*
X146614286Y-79228214D01*
X146614286Y-79228214D02*
X146642857Y-79285357D01*
X146642857Y-79285357D02*
X146642857Y-79342500D01*
X146642857Y-79342500D02*
X146614286Y-79399642D01*
X146614286Y-79399642D02*
X146585715Y-79428214D01*
X146585715Y-79428214D02*
X146528572Y-79456785D01*
X146528572Y-79456785D02*
X146328572Y-79456785D01*
X146928572Y-79771071D02*
X146928572Y-79371071D01*
X146928572Y-79485357D02*
X146957143Y-79428214D01*
X146957143Y-79428214D02*
X146985715Y-79399642D01*
X146985715Y-79399642D02*
X147042857Y-79371071D01*
X147042857Y-79371071D02*
X147100000Y-79371071D01*
X147528572Y-79742500D02*
X147471429Y-79771071D01*
X147471429Y-79771071D02*
X147357144Y-79771071D01*
X147357144Y-79771071D02*
X147300001Y-79742500D01*
X147300001Y-79742500D02*
X147271429Y-79685357D01*
X147271429Y-79685357D02*
X147271429Y-79456785D01*
X147271429Y-79456785D02*
X147300001Y-79399642D01*
X147300001Y-79399642D02*
X147357144Y-79371071D01*
X147357144Y-79371071D02*
X147471429Y-79371071D01*
X147471429Y-79371071D02*
X147528572Y-79399642D01*
X147528572Y-79399642D02*
X147557144Y-79456785D01*
X147557144Y-79456785D02*
X147557144Y-79513928D01*
X147557144Y-79513928D02*
X147271429Y-79571071D01*
X148071430Y-79771071D02*
X148071430Y-79456785D01*
X148071430Y-79456785D02*
X148042858Y-79399642D01*
X148042858Y-79399642D02*
X147985715Y-79371071D01*
X147985715Y-79371071D02*
X147871430Y-79371071D01*
X147871430Y-79371071D02*
X147814287Y-79399642D01*
X148071430Y-79742500D02*
X148014287Y-79771071D01*
X148014287Y-79771071D02*
X147871430Y-79771071D01*
X147871430Y-79771071D02*
X147814287Y-79742500D01*
X147814287Y-79742500D02*
X147785715Y-79685357D01*
X147785715Y-79685357D02*
X147785715Y-79628214D01*
X147785715Y-79628214D02*
X147814287Y-79571071D01*
X147814287Y-79571071D02*
X147871430Y-79542500D01*
X147871430Y-79542500D02*
X148014287Y-79542500D01*
X148014287Y-79542500D02*
X148071430Y-79513928D01*
X148357144Y-79771071D02*
X148357144Y-79171071D01*
X148414287Y-79542500D02*
X148585715Y-79771071D01*
X148585715Y-79371071D02*
X148357144Y-79599642D01*
X148928572Y-79771071D02*
X148871429Y-79742500D01*
X148871429Y-79742500D02*
X148842858Y-79713928D01*
X148842858Y-79713928D02*
X148814286Y-79656785D01*
X148814286Y-79656785D02*
X148814286Y-79485357D01*
X148814286Y-79485357D02*
X148842858Y-79428214D01*
X148842858Y-79428214D02*
X148871429Y-79399642D01*
X148871429Y-79399642D02*
X148928572Y-79371071D01*
X148928572Y-79371071D02*
X149014286Y-79371071D01*
X149014286Y-79371071D02*
X149071429Y-79399642D01*
X149071429Y-79399642D02*
X149100001Y-79428214D01*
X149100001Y-79428214D02*
X149128572Y-79485357D01*
X149128572Y-79485357D02*
X149128572Y-79656785D01*
X149128572Y-79656785D02*
X149100001Y-79713928D01*
X149100001Y-79713928D02*
X149071429Y-79742500D01*
X149071429Y-79742500D02*
X149014286Y-79771071D01*
X149014286Y-79771071D02*
X148928572Y-79771071D01*
X149642858Y-79371071D02*
X149642858Y-79771071D01*
X149385715Y-79371071D02*
X149385715Y-79685357D01*
X149385715Y-79685357D02*
X149414286Y-79742500D01*
X149414286Y-79742500D02*
X149471429Y-79771071D01*
X149471429Y-79771071D02*
X149557143Y-79771071D01*
X149557143Y-79771071D02*
X149614286Y-79742500D01*
X149614286Y-79742500D02*
X149642858Y-79713928D01*
X149842857Y-79371071D02*
X150071429Y-79371071D01*
X149928572Y-79171071D02*
X149928572Y-79685357D01*
X149928572Y-79685357D02*
X149957143Y-79742500D01*
X149957143Y-79742500D02*
X150014286Y-79771071D01*
X150014286Y-79771071D02*
X150071429Y-79771071D01*
X138857143Y-80708466D02*
X138942858Y-80737037D01*
X138942858Y-80737037D02*
X139085715Y-80737037D01*
X139085715Y-80737037D02*
X139142858Y-80708466D01*
X139142858Y-80708466D02*
X139171429Y-80679894D01*
X139171429Y-80679894D02*
X139200000Y-80622751D01*
X139200000Y-80622751D02*
X139200000Y-80565608D01*
X139200000Y-80565608D02*
X139171429Y-80508466D01*
X139171429Y-80508466D02*
X139142858Y-80479894D01*
X139142858Y-80479894D02*
X139085715Y-80451323D01*
X139085715Y-80451323D02*
X138971429Y-80422751D01*
X138971429Y-80422751D02*
X138914286Y-80394180D01*
X138914286Y-80394180D02*
X138885715Y-80365608D01*
X138885715Y-80365608D02*
X138857143Y-80308466D01*
X138857143Y-80308466D02*
X138857143Y-80251323D01*
X138857143Y-80251323D02*
X138885715Y-80194180D01*
X138885715Y-80194180D02*
X138914286Y-80165608D01*
X138914286Y-80165608D02*
X138971429Y-80137037D01*
X138971429Y-80137037D02*
X139114286Y-80137037D01*
X139114286Y-80137037D02*
X139200000Y-80165608D01*
X139714287Y-80337037D02*
X139714287Y-80737037D01*
X139457144Y-80337037D02*
X139457144Y-80651323D01*
X139457144Y-80651323D02*
X139485715Y-80708466D01*
X139485715Y-80708466D02*
X139542858Y-80737037D01*
X139542858Y-80737037D02*
X139628572Y-80737037D01*
X139628572Y-80737037D02*
X139685715Y-80708466D01*
X139685715Y-80708466D02*
X139714287Y-80679894D01*
X140457144Y-80737037D02*
X140457144Y-80137037D01*
X140457144Y-80422751D02*
X140800001Y-80422751D01*
X140800001Y-80737037D02*
X140800001Y-80137037D01*
X141342858Y-80337037D02*
X141342858Y-80737037D01*
X141085715Y-80337037D02*
X141085715Y-80651323D01*
X141085715Y-80651323D02*
X141114286Y-80708466D01*
X141114286Y-80708466D02*
X141171429Y-80737037D01*
X141171429Y-80737037D02*
X141257143Y-80737037D01*
X141257143Y-80737037D02*
X141314286Y-80708466D01*
X141314286Y-80708466D02*
X141342858Y-80679894D01*
X141885715Y-80737037D02*
X141885715Y-80422751D01*
X141885715Y-80422751D02*
X141857143Y-80365608D01*
X141857143Y-80365608D02*
X141800000Y-80337037D01*
X141800000Y-80337037D02*
X141685715Y-80337037D01*
X141685715Y-80337037D02*
X141628572Y-80365608D01*
X141885715Y-80708466D02*
X141828572Y-80737037D01*
X141828572Y-80737037D02*
X141685715Y-80737037D01*
X141685715Y-80737037D02*
X141628572Y-80708466D01*
X141628572Y-80708466D02*
X141600000Y-80651323D01*
X141600000Y-80651323D02*
X141600000Y-80594180D01*
X141600000Y-80594180D02*
X141628572Y-80537037D01*
X141628572Y-80537037D02*
X141685715Y-80508466D01*
X141685715Y-80508466D02*
X141828572Y-80508466D01*
X141828572Y-80508466D02*
X141885715Y-80479894D01*
X142171429Y-80337037D02*
X142171429Y-80737037D01*
X142171429Y-80394180D02*
X142200000Y-80365608D01*
X142200000Y-80365608D02*
X142257143Y-80337037D01*
X142257143Y-80337037D02*
X142342857Y-80337037D01*
X142342857Y-80337037D02*
X142400000Y-80365608D01*
X142400000Y-80365608D02*
X142428572Y-80422751D01*
X142428572Y-80422751D02*
X142428572Y-80737037D01*
X142971429Y-80337037D02*
X142971429Y-80822751D01*
X142971429Y-80822751D02*
X142942857Y-80879894D01*
X142942857Y-80879894D02*
X142914286Y-80908466D01*
X142914286Y-80908466D02*
X142857143Y-80937037D01*
X142857143Y-80937037D02*
X142771429Y-80937037D01*
X142771429Y-80937037D02*
X142714286Y-80908466D01*
X142971429Y-80708466D02*
X142914286Y-80737037D01*
X142914286Y-80737037D02*
X142800000Y-80737037D01*
X142800000Y-80737037D02*
X142742857Y-80708466D01*
X142742857Y-80708466D02*
X142714286Y-80679894D01*
X142714286Y-80679894D02*
X142685714Y-80622751D01*
X142685714Y-80622751D02*
X142685714Y-80451323D01*
X142685714Y-80451323D02*
X142714286Y-80394180D01*
X142714286Y-80394180D02*
X142742857Y-80365608D01*
X142742857Y-80365608D02*
X142800000Y-80337037D01*
X142800000Y-80337037D02*
X142914286Y-80337037D01*
X142914286Y-80337037D02*
X142971429Y-80365608D01*
X143285714Y-80708466D02*
X143285714Y-80737037D01*
X143285714Y-80737037D02*
X143257143Y-80794180D01*
X143257143Y-80794180D02*
X143228571Y-80822751D01*
X144000000Y-80422751D02*
X144200000Y-80422751D01*
X144285714Y-80737037D02*
X144000000Y-80737037D01*
X144000000Y-80737037D02*
X144000000Y-80137037D01*
X144000000Y-80137037D02*
X144285714Y-80137037D01*
X144542857Y-80737037D02*
X144542857Y-80337037D01*
X144542857Y-80394180D02*
X144571428Y-80365608D01*
X144571428Y-80365608D02*
X144628571Y-80337037D01*
X144628571Y-80337037D02*
X144714285Y-80337037D01*
X144714285Y-80337037D02*
X144771428Y-80365608D01*
X144771428Y-80365608D02*
X144800000Y-80422751D01*
X144800000Y-80422751D02*
X144800000Y-80737037D01*
X144800000Y-80422751D02*
X144828571Y-80365608D01*
X144828571Y-80365608D02*
X144885714Y-80337037D01*
X144885714Y-80337037D02*
X144971428Y-80337037D01*
X144971428Y-80337037D02*
X145028571Y-80365608D01*
X145028571Y-80365608D02*
X145057142Y-80422751D01*
X145057142Y-80422751D02*
X145057142Y-80737037D01*
X145342857Y-80737037D02*
X145342857Y-80337037D01*
X145342857Y-80394180D02*
X145371428Y-80365608D01*
X145371428Y-80365608D02*
X145428571Y-80337037D01*
X145428571Y-80337037D02*
X145514285Y-80337037D01*
X145514285Y-80337037D02*
X145571428Y-80365608D01*
X145571428Y-80365608D02*
X145600000Y-80422751D01*
X145600000Y-80422751D02*
X145600000Y-80737037D01*
X145600000Y-80422751D02*
X145628571Y-80365608D01*
X145628571Y-80365608D02*
X145685714Y-80337037D01*
X145685714Y-80337037D02*
X145771428Y-80337037D01*
X145771428Y-80337037D02*
X145828571Y-80365608D01*
X145828571Y-80365608D02*
X145857142Y-80422751D01*
X145857142Y-80422751D02*
X145857142Y-80737037D01*
X146400000Y-80737037D02*
X146400000Y-80422751D01*
X146400000Y-80422751D02*
X146371428Y-80365608D01*
X146371428Y-80365608D02*
X146314285Y-80337037D01*
X146314285Y-80337037D02*
X146200000Y-80337037D01*
X146200000Y-80337037D02*
X146142857Y-80365608D01*
X146400000Y-80708466D02*
X146342857Y-80737037D01*
X146342857Y-80737037D02*
X146200000Y-80737037D01*
X146200000Y-80737037D02*
X146142857Y-80708466D01*
X146142857Y-80708466D02*
X146114285Y-80651323D01*
X146114285Y-80651323D02*
X146114285Y-80594180D01*
X146114285Y-80594180D02*
X146142857Y-80537037D01*
X146142857Y-80537037D02*
X146200000Y-80508466D01*
X146200000Y-80508466D02*
X146342857Y-80508466D01*
X146342857Y-80508466D02*
X146400000Y-80479894D01*
X147257142Y-80137037D02*
X147371428Y-80137037D01*
X147371428Y-80137037D02*
X147428571Y-80165608D01*
X147428571Y-80165608D02*
X147485714Y-80222751D01*
X147485714Y-80222751D02*
X147514285Y-80337037D01*
X147514285Y-80337037D02*
X147514285Y-80537037D01*
X147514285Y-80537037D02*
X147485714Y-80651323D01*
X147485714Y-80651323D02*
X147428571Y-80708466D01*
X147428571Y-80708466D02*
X147371428Y-80737037D01*
X147371428Y-80737037D02*
X147257142Y-80737037D01*
X147257142Y-80737037D02*
X147200000Y-80708466D01*
X147200000Y-80708466D02*
X147142857Y-80651323D01*
X147142857Y-80651323D02*
X147114285Y-80537037D01*
X147114285Y-80537037D02*
X147114285Y-80337037D01*
X147114285Y-80337037D02*
X147142857Y-80222751D01*
X147142857Y-80222751D02*
X147200000Y-80165608D01*
X147200000Y-80165608D02*
X147257142Y-80137037D01*
X148028571Y-80337037D02*
X148028571Y-80737037D01*
X147771428Y-80337037D02*
X147771428Y-80651323D01*
X147771428Y-80651323D02*
X147799999Y-80708466D01*
X147799999Y-80708466D02*
X147857142Y-80737037D01*
X147857142Y-80737037D02*
X147942856Y-80737037D01*
X147942856Y-80737037D02*
X147999999Y-80708466D01*
X147999999Y-80708466D02*
X148028571Y-80679894D01*
X148257142Y-80337037D02*
X148399999Y-80737037D01*
X148542856Y-80337037D02*
X148399999Y-80737037D01*
X148399999Y-80737037D02*
X148342856Y-80879894D01*
X148342856Y-80879894D02*
X148314285Y-80908466D01*
X148314285Y-80908466D02*
X148257142Y-80937037D01*
X149028571Y-80737037D02*
X149028571Y-80422751D01*
X149028571Y-80422751D02*
X148999999Y-80365608D01*
X148999999Y-80365608D02*
X148942856Y-80337037D01*
X148942856Y-80337037D02*
X148828571Y-80337037D01*
X148828571Y-80337037D02*
X148771428Y-80365608D01*
X149028571Y-80708466D02*
X148971428Y-80737037D01*
X148971428Y-80737037D02*
X148828571Y-80737037D01*
X148828571Y-80737037D02*
X148771428Y-80708466D01*
X148771428Y-80708466D02*
X148742856Y-80651323D01*
X148742856Y-80651323D02*
X148742856Y-80594180D01*
X148742856Y-80594180D02*
X148771428Y-80537037D01*
X148771428Y-80537037D02*
X148828571Y-80508466D01*
X148828571Y-80508466D02*
X148971428Y-80508466D01*
X148971428Y-80508466D02*
X149028571Y-80479894D01*
X149314285Y-80337037D02*
X149314285Y-80737037D01*
X149314285Y-80394180D02*
X149342856Y-80365608D01*
X149342856Y-80365608D02*
X149399999Y-80337037D01*
X149399999Y-80337037D02*
X149485713Y-80337037D01*
X149485713Y-80337037D02*
X149542856Y-80365608D01*
X149542856Y-80365608D02*
X149571428Y-80422751D01*
X149571428Y-80422751D02*
X149571428Y-80737037D01*
X150114285Y-80337037D02*
X150114285Y-80822751D01*
X150114285Y-80822751D02*
X150085713Y-80879894D01*
X150085713Y-80879894D02*
X150057142Y-80908466D01*
X150057142Y-80908466D02*
X149999999Y-80937037D01*
X149999999Y-80937037D02*
X149914285Y-80937037D01*
X149914285Y-80937037D02*
X149857142Y-80908466D01*
X150114285Y-80708466D02*
X150057142Y-80737037D01*
X150057142Y-80737037D02*
X149942856Y-80737037D01*
X149942856Y-80737037D02*
X149885713Y-80708466D01*
X149885713Y-80708466D02*
X149857142Y-80679894D01*
X149857142Y-80679894D02*
X149828570Y-80622751D01*
X149828570Y-80622751D02*
X149828570Y-80451323D01*
X149828570Y-80451323D02*
X149857142Y-80394180D01*
X149857142Y-80394180D02*
X149885713Y-80365608D01*
X149885713Y-80365608D02*
X149942856Y-80337037D01*
X149942856Y-80337037D02*
X150057142Y-80337037D01*
X150057142Y-80337037D02*
X150114285Y-80365608D01*
X140369047Y-74974809D02*
X140630952Y-74641476D01*
X140369047Y-74641476D02*
X140630952Y-74974809D01*
X140507141Y-69599642D02*
X140792856Y-69599642D01*
X140449998Y-69771071D02*
X140649998Y-69171071D01*
X140649998Y-69171071D02*
X140849998Y-69771071D01*
X141049999Y-69771071D02*
X141049999Y-69171071D01*
X141049999Y-69171071D02*
X141192856Y-69171071D01*
X141192856Y-69171071D02*
X141278570Y-69199642D01*
X141278570Y-69199642D02*
X141335713Y-69256785D01*
X141335713Y-69256785D02*
X141364284Y-69313928D01*
X141364284Y-69313928D02*
X141392856Y-69428214D01*
X141392856Y-69428214D02*
X141392856Y-69513928D01*
X141392856Y-69513928D02*
X141364284Y-69628214D01*
X141364284Y-69628214D02*
X141335713Y-69685357D01*
X141335713Y-69685357D02*
X141278570Y-69742500D01*
X141278570Y-69742500D02*
X141192856Y-69771071D01*
X141192856Y-69771071D02*
X141049999Y-69771071D01*
X141935713Y-69171071D02*
X141649999Y-69171071D01*
X141649999Y-69171071D02*
X141621427Y-69456785D01*
X141621427Y-69456785D02*
X141649999Y-69428214D01*
X141649999Y-69428214D02*
X141707142Y-69399642D01*
X141707142Y-69399642D02*
X141849999Y-69399642D01*
X141849999Y-69399642D02*
X141907142Y-69428214D01*
X141907142Y-69428214D02*
X141935713Y-69456785D01*
X141935713Y-69456785D02*
X141964284Y-69513928D01*
X141964284Y-69513928D02*
X141964284Y-69656785D01*
X141964284Y-69656785D02*
X141935713Y-69713928D01*
X141935713Y-69713928D02*
X141907142Y-69742500D01*
X141907142Y-69742500D02*
X141849999Y-69771071D01*
X141849999Y-69771071D02*
X141707142Y-69771071D01*
X141707142Y-69771071D02*
X141649999Y-69742500D01*
X141649999Y-69742500D02*
X141621427Y-69713928D01*
X142478571Y-69171071D02*
X142364285Y-69171071D01*
X142364285Y-69171071D02*
X142307142Y-69199642D01*
X142307142Y-69199642D02*
X142278571Y-69228214D01*
X142278571Y-69228214D02*
X142221428Y-69313928D01*
X142221428Y-69313928D02*
X142192856Y-69428214D01*
X142192856Y-69428214D02*
X142192856Y-69656785D01*
X142192856Y-69656785D02*
X142221428Y-69713928D01*
X142221428Y-69713928D02*
X142249999Y-69742500D01*
X142249999Y-69742500D02*
X142307142Y-69771071D01*
X142307142Y-69771071D02*
X142421428Y-69771071D01*
X142421428Y-69771071D02*
X142478571Y-69742500D01*
X142478571Y-69742500D02*
X142507142Y-69713928D01*
X142507142Y-69713928D02*
X142535713Y-69656785D01*
X142535713Y-69656785D02*
X142535713Y-69513928D01*
X142535713Y-69513928D02*
X142507142Y-69456785D01*
X142507142Y-69456785D02*
X142478571Y-69428214D01*
X142478571Y-69428214D02*
X142421428Y-69399642D01*
X142421428Y-69399642D02*
X142307142Y-69399642D01*
X142307142Y-69399642D02*
X142249999Y-69428214D01*
X142249999Y-69428214D02*
X142221428Y-69456785D01*
X142221428Y-69456785D02*
X142192856Y-69513928D01*
X142878571Y-69428214D02*
X142821428Y-69399642D01*
X142821428Y-69399642D02*
X142792857Y-69371071D01*
X142792857Y-69371071D02*
X142764285Y-69313928D01*
X142764285Y-69313928D02*
X142764285Y-69285357D01*
X142764285Y-69285357D02*
X142792857Y-69228214D01*
X142792857Y-69228214D02*
X142821428Y-69199642D01*
X142821428Y-69199642D02*
X142878571Y-69171071D01*
X142878571Y-69171071D02*
X142992857Y-69171071D01*
X142992857Y-69171071D02*
X143050000Y-69199642D01*
X143050000Y-69199642D02*
X143078571Y-69228214D01*
X143078571Y-69228214D02*
X143107142Y-69285357D01*
X143107142Y-69285357D02*
X143107142Y-69313928D01*
X143107142Y-69313928D02*
X143078571Y-69371071D01*
X143078571Y-69371071D02*
X143050000Y-69399642D01*
X143050000Y-69399642D02*
X142992857Y-69428214D01*
X142992857Y-69428214D02*
X142878571Y-69428214D01*
X142878571Y-69428214D02*
X142821428Y-69456785D01*
X142821428Y-69456785D02*
X142792857Y-69485357D01*
X142792857Y-69485357D02*
X142764285Y-69542500D01*
X142764285Y-69542500D02*
X142764285Y-69656785D01*
X142764285Y-69656785D02*
X142792857Y-69713928D01*
X142792857Y-69713928D02*
X142821428Y-69742500D01*
X142821428Y-69742500D02*
X142878571Y-69771071D01*
X142878571Y-69771071D02*
X142992857Y-69771071D01*
X142992857Y-69771071D02*
X143050000Y-69742500D01*
X143050000Y-69742500D02*
X143078571Y-69713928D01*
X143078571Y-69713928D02*
X143107142Y-69656785D01*
X143107142Y-69656785D02*
X143107142Y-69542500D01*
X143107142Y-69542500D02*
X143078571Y-69485357D01*
X143078571Y-69485357D02*
X143050000Y-69456785D01*
X143050000Y-69456785D02*
X142992857Y-69428214D01*
X143392857Y-69771071D02*
X143507143Y-69771071D01*
X143507143Y-69771071D02*
X143564286Y-69742500D01*
X143564286Y-69742500D02*
X143592857Y-69713928D01*
X143592857Y-69713928D02*
X143650000Y-69628214D01*
X143650000Y-69628214D02*
X143678571Y-69513928D01*
X143678571Y-69513928D02*
X143678571Y-69285357D01*
X143678571Y-69285357D02*
X143650000Y-69228214D01*
X143650000Y-69228214D02*
X143621429Y-69199642D01*
X143621429Y-69199642D02*
X143564286Y-69171071D01*
X143564286Y-69171071D02*
X143450000Y-69171071D01*
X143450000Y-69171071D02*
X143392857Y-69199642D01*
X143392857Y-69199642D02*
X143364286Y-69228214D01*
X143364286Y-69228214D02*
X143335714Y-69285357D01*
X143335714Y-69285357D02*
X143335714Y-69428214D01*
X143335714Y-69428214D02*
X143364286Y-69485357D01*
X143364286Y-69485357D02*
X143392857Y-69513928D01*
X143392857Y-69513928D02*
X143450000Y-69542500D01*
X143450000Y-69542500D02*
X143564286Y-69542500D01*
X143564286Y-69542500D02*
X143621429Y-69513928D01*
X143621429Y-69513928D02*
X143650000Y-69485357D01*
X143650000Y-69485357D02*
X143678571Y-69428214D01*
X144278572Y-69771071D02*
X144078572Y-69485357D01*
X143935715Y-69771071D02*
X143935715Y-69171071D01*
X143935715Y-69171071D02*
X144164286Y-69171071D01*
X144164286Y-69171071D02*
X144221429Y-69199642D01*
X144221429Y-69199642D02*
X144250000Y-69228214D01*
X144250000Y-69228214D02*
X144278572Y-69285357D01*
X144278572Y-69285357D02*
X144278572Y-69371071D01*
X144278572Y-69371071D02*
X144250000Y-69428214D01*
X144250000Y-69428214D02*
X144221429Y-69456785D01*
X144221429Y-69456785D02*
X144164286Y-69485357D01*
X144164286Y-69485357D02*
X143935715Y-69485357D01*
X144507143Y-69599642D02*
X144792858Y-69599642D01*
X144450000Y-69771071D02*
X144650000Y-69171071D01*
X144650000Y-69171071D02*
X144850000Y-69771071D01*
X145392858Y-69771071D02*
X145192858Y-69485357D01*
X145050001Y-69771071D02*
X145050001Y-69171071D01*
X145050001Y-69171071D02*
X145278572Y-69171071D01*
X145278572Y-69171071D02*
X145335715Y-69199642D01*
X145335715Y-69199642D02*
X145364286Y-69228214D01*
X145364286Y-69228214D02*
X145392858Y-69285357D01*
X145392858Y-69285357D02*
X145392858Y-69371071D01*
X145392858Y-69371071D02*
X145364286Y-69428214D01*
X145364286Y-69428214D02*
X145335715Y-69456785D01*
X145335715Y-69456785D02*
X145278572Y-69485357D01*
X145278572Y-69485357D02*
X145050001Y-69485357D01*
X145650001Y-69171071D02*
X145650001Y-69656785D01*
X145650001Y-69656785D02*
X145678572Y-69713928D01*
X145678572Y-69713928D02*
X145707144Y-69742500D01*
X145707144Y-69742500D02*
X145764286Y-69771071D01*
X145764286Y-69771071D02*
X145878572Y-69771071D01*
X145878572Y-69771071D02*
X145935715Y-69742500D01*
X145935715Y-69742500D02*
X145964286Y-69713928D01*
X145964286Y-69713928D02*
X145992858Y-69656785D01*
X145992858Y-69656785D02*
X145992858Y-69171071D01*
X146221429Y-69171071D02*
X146621429Y-69171071D01*
X146621429Y-69171071D02*
X146221429Y-69771071D01*
X146221429Y-69771071D02*
X146621429Y-69771071D01*
X146850001Y-69542500D02*
X147307144Y-69542500D01*
X147935715Y-69771071D02*
X147735715Y-69485357D01*
X147592858Y-69771071D02*
X147592858Y-69171071D01*
X147592858Y-69171071D02*
X147821429Y-69171071D01*
X147821429Y-69171071D02*
X147878572Y-69199642D01*
X147878572Y-69199642D02*
X147907143Y-69228214D01*
X147907143Y-69228214D02*
X147935715Y-69285357D01*
X147935715Y-69285357D02*
X147935715Y-69371071D01*
X147935715Y-69371071D02*
X147907143Y-69428214D01*
X147907143Y-69428214D02*
X147878572Y-69456785D01*
X147878572Y-69456785D02*
X147821429Y-69485357D01*
X147821429Y-69485357D02*
X147592858Y-69485357D01*
X148478572Y-69771071D02*
X148192858Y-69771071D01*
X148192858Y-69771071D02*
X148192858Y-69171071D01*
X148621429Y-69171071D02*
X149021429Y-69171071D01*
X149021429Y-69171071D02*
X148764286Y-69771071D01*
D11*
X139449580Y-74071666D02*
X139497200Y-74119285D01*
X139497200Y-74119285D02*
X139544819Y-74262142D01*
X139544819Y-74262142D02*
X139544819Y-74357380D01*
X139544819Y-74357380D02*
X139497200Y-74500237D01*
X139497200Y-74500237D02*
X139401961Y-74595475D01*
X139401961Y-74595475D02*
X139306723Y-74643094D01*
X139306723Y-74643094D02*
X139116247Y-74690713D01*
X139116247Y-74690713D02*
X138973390Y-74690713D01*
X138973390Y-74690713D02*
X138782914Y-74643094D01*
X138782914Y-74643094D02*
X138687676Y-74595475D01*
X138687676Y-74595475D02*
X138592438Y-74500237D01*
X138592438Y-74500237D02*
X138544819Y-74357380D01*
X138544819Y-74357380D02*
X138544819Y-74262142D01*
X138544819Y-74262142D02*
X138592438Y-74119285D01*
X138592438Y-74119285D02*
X138640057Y-74071666D01*
X138640057Y-73690713D02*
X138592438Y-73643094D01*
X138592438Y-73643094D02*
X138544819Y-73547856D01*
X138544819Y-73547856D02*
X138544819Y-73309761D01*
X138544819Y-73309761D02*
X138592438Y-73214523D01*
X138592438Y-73214523D02*
X138640057Y-73166904D01*
X138640057Y-73166904D02*
X138735295Y-73119285D01*
X138735295Y-73119285D02*
X138830533Y-73119285D01*
X138830533Y-73119285D02*
X138973390Y-73166904D01*
X138973390Y-73166904D02*
X139544819Y-73738332D01*
X139544819Y-73738332D02*
X139544819Y-73119285D01*
X140460600Y-71049820D02*
X140460600Y-71287915D01*
X140222505Y-71192677D02*
X140460600Y-71287915D01*
X140460600Y-71287915D02*
X140698695Y-71192677D01*
X140317743Y-71478391D02*
X140460600Y-71287915D01*
X140460600Y-71287915D02*
X140603457Y-71478391D01*
D12*
X139890000Y-74012836D02*
X139890000Y-73797164D01*
X140610000Y-74012836D02*
X140610000Y-73797164D01*
X137990000Y-73800580D02*
X137990000Y-73519420D01*
X139010000Y-73800580D02*
X139010000Y-73519420D01*
D13*
G36*
X144887444Y-65526710D02*
G01*
X144916161Y-65527401D01*
X144945180Y-65528202D01*
X144975241Y-65529140D01*
X145007089Y-65530239D01*
X145041466Y-65531523D01*
X145079115Y-65533018D01*
X145091221Y-65533514D01*
X145125715Y-65534935D01*
X145125715Y-65799303D01*
X145125702Y-65832385D01*
X145125666Y-65864269D01*
X145125607Y-65894703D01*
X145125527Y-65923432D01*
X145125428Y-65950204D01*
X145125311Y-65974764D01*
X145125177Y-65996860D01*
X145125029Y-66016237D01*
X145124868Y-66032644D01*
X145124694Y-66045825D01*
X145124511Y-66055527D01*
X145124319Y-66061498D01*
X145124123Y-66063485D01*
X145122154Y-66062310D01*
X145116913Y-66058959D01*
X145108658Y-66053602D01*
X145097651Y-66046410D01*
X145084152Y-66037555D01*
X145068420Y-66027206D01*
X145050716Y-66015536D01*
X145031300Y-66002716D01*
X145010432Y-65988916D01*
X144988373Y-65974307D01*
X144972351Y-65963685D01*
X144822171Y-65864071D01*
X144822171Y-65694663D01*
X144822171Y-65525254D01*
X144887444Y-65526710D01*
G37*
G36*
X144034314Y-66214529D02*
G01*
X144056185Y-66216603D01*
X144075530Y-66221124D01*
X144093195Y-66228470D01*
X144110027Y-66239021D01*
X144126870Y-66253155D01*
X144132372Y-66258469D01*
X144148725Y-66277221D01*
X144161064Y-66297124D01*
X144169526Y-66318509D01*
X144174248Y-66341704D01*
X144175425Y-66362221D01*
X144174674Y-66380142D01*
X144172160Y-66395966D01*
X144167490Y-66411353D01*
X144160271Y-66427967D01*
X144159566Y-66429411D01*
X144147651Y-66449022D01*
X144132334Y-66466829D01*
X144114274Y-66482260D01*
X144094131Y-66494743D01*
X144074778Y-66502980D01*
X144058681Y-66507077D01*
X144040478Y-66509506D01*
X144021661Y-66510209D01*
X144003719Y-66509128D01*
X143988726Y-66506362D01*
X143965551Y-66498025D01*
X143944425Y-66486263D01*
X143925651Y-66471465D01*
X143909529Y-66454021D01*
X143896363Y-66434319D01*
X143886452Y-66412749D01*
X143880099Y-66389700D01*
X143877604Y-66365563D01*
X143877578Y-66362829D01*
X143879604Y-66337647D01*
X143885552Y-66313813D01*
X143895228Y-66291640D01*
X143908436Y-66271441D01*
X143924982Y-66253529D01*
X143944672Y-66238218D01*
X143960815Y-66228914D01*
X143977414Y-66221685D01*
X143993870Y-66217027D01*
X144011458Y-66214690D01*
X144031453Y-66214423D01*
X144034314Y-66214529D01*
G37*
G36*
X144382971Y-66398060D02*
G01*
X144399726Y-66400108D01*
X144412494Y-66403371D01*
X144426405Y-66410318D01*
X144439185Y-66420564D01*
X144449956Y-66433181D01*
X144457841Y-66447241D01*
X144460231Y-66453849D01*
X144462870Y-66466716D01*
X144463215Y-66480434D01*
X144461173Y-66495513D01*
X144456649Y-66512464D01*
X144449551Y-66531797D01*
X144443200Y-66546576D01*
X144433763Y-66566065D01*
X144422946Y-66585887D01*
X144411175Y-66605426D01*
X144398873Y-66624065D01*
X144386466Y-66641186D01*
X144374380Y-66656172D01*
X144363039Y-66668404D01*
X144353632Y-66676693D01*
X144339758Y-66685028D01*
X144324067Y-66690716D01*
X144307814Y-66693449D01*
X144292254Y-66692919D01*
X144289475Y-66692423D01*
X144272845Y-66686863D01*
X144257406Y-66677242D01*
X144243165Y-66663565D01*
X144230127Y-66645839D01*
X144225988Y-66638922D01*
X144211738Y-66611095D01*
X144201192Y-66584306D01*
X144194322Y-66558701D01*
X144191101Y-66534425D01*
X144191503Y-66511626D01*
X144195499Y-66490447D01*
X144203064Y-66471035D01*
X144214170Y-66453535D01*
X144228789Y-66438094D01*
X144246895Y-66424856D01*
X144267801Y-66414244D01*
X144284238Y-66408495D01*
X144302978Y-66403877D01*
X144323122Y-66400456D01*
X144343769Y-66398301D01*
X144364019Y-66397480D01*
X144382971Y-66398060D01*
G37*
G36*
X144053975Y-66573466D02*
G01*
X144074771Y-66580885D01*
X144092554Y-66590794D01*
X144107773Y-66602329D01*
X144123204Y-66616833D01*
X144138207Y-66633473D01*
X144152137Y-66651418D01*
X144164353Y-66669835D01*
X144174211Y-66687890D01*
X144181068Y-66704750D01*
X144181448Y-66705961D01*
X144184983Y-66724055D01*
X144184527Y-66741524D01*
X144180327Y-66757957D01*
X144172632Y-66772941D01*
X144161691Y-66786065D01*
X144147752Y-66796916D01*
X144131064Y-66805084D01*
X144119537Y-66808597D01*
X144105980Y-66811225D01*
X144089215Y-66813459D01*
X144070268Y-66815245D01*
X144050163Y-66816524D01*
X144029925Y-66817241D01*
X144010579Y-66817341D01*
X143993148Y-66816766D01*
X143983712Y-66816042D01*
X143972514Y-66814679D01*
X143959975Y-66812745D01*
X143947333Y-66810472D01*
X143935825Y-66808089D01*
X143926687Y-66805827D01*
X143923427Y-66804824D01*
X143906728Y-66797087D01*
X143892598Y-66786480D01*
X143881341Y-66773498D01*
X143873258Y-66758635D01*
X143868651Y-66742387D01*
X143867822Y-66725246D01*
X143869045Y-66715831D01*
X143873126Y-66701897D01*
X143880075Y-66686155D01*
X143889378Y-66669357D01*
X143900521Y-66652253D01*
X143912989Y-66635593D01*
X143926267Y-66620128D01*
X143939841Y-66606609D01*
X143949471Y-66598529D01*
X143969765Y-66585265D01*
X143990566Y-66576116D01*
X144011669Y-66571092D01*
X144032873Y-66570205D01*
X144053975Y-66573466D01*
G37*
G36*
X144326773Y-66034332D02*
G01*
X144341094Y-66039399D01*
X144352785Y-66046835D01*
X144365382Y-66057848D01*
X144378560Y-66071961D01*
X144391995Y-66088697D01*
X144405362Y-66107579D01*
X144418336Y-66128132D01*
X144430594Y-66149878D01*
X144441810Y-66172341D01*
X144451660Y-66195044D01*
X144457310Y-66210083D01*
X144462905Y-66230902D01*
X144464617Y-66250306D01*
X144462459Y-66268195D01*
X144456445Y-66284466D01*
X144446588Y-66299018D01*
X144445414Y-66300349D01*
X144433875Y-66310571D01*
X144419777Y-66319052D01*
X144404724Y-66324883D01*
X144400184Y-66325995D01*
X144390973Y-66327235D01*
X144378717Y-66327915D01*
X144364576Y-66328049D01*
X144349713Y-66327651D01*
X144335288Y-66326734D01*
X144322463Y-66325313D01*
X144320763Y-66325059D01*
X144305954Y-66322110D01*
X144290114Y-66317856D01*
X144274623Y-66312745D01*
X144260859Y-66307224D01*
X144251900Y-66302745D01*
X144233259Y-66289912D01*
X144218097Y-66274777D01*
X144206446Y-66257504D01*
X144198336Y-66238261D01*
X144193798Y-66217214D01*
X144192862Y-66194529D01*
X144195560Y-66170372D01*
X144201921Y-66144910D01*
X144211977Y-66118308D01*
X144216165Y-66109195D01*
X144227201Y-66088015D01*
X144238212Y-66070721D01*
X144249495Y-66056975D01*
X144261346Y-66046438D01*
X144274062Y-66038775D01*
X144280353Y-66036096D01*
X144294878Y-66032595D01*
X144310858Y-66032035D01*
X144326773Y-66034332D01*
G37*
G36*
X143712191Y-66399102D02*
G01*
X143732175Y-66401397D01*
X143759698Y-66406857D01*
X143783808Y-66414589D01*
X143804734Y-66424695D01*
X143822709Y-66437277D01*
X143830894Y-66444759D01*
X143844860Y-66461545D01*
X143855020Y-66480144D01*
X143861368Y-66500489D01*
X143863904Y-66522512D01*
X143862624Y-66546149D01*
X143857526Y-66571333D01*
X143848607Y-66597997D01*
X143838107Y-66621599D01*
X143826565Y-66642918D01*
X143814846Y-66660225D01*
X143802741Y-66673740D01*
X143790045Y-66683686D01*
X143776551Y-66690283D01*
X143772984Y-66691449D01*
X143761060Y-66693749D01*
X143747760Y-66694377D01*
X143735061Y-66693322D01*
X143727929Y-66691686D01*
X143716338Y-66687059D01*
X143705274Y-66680470D01*
X143694196Y-66671466D01*
X143682561Y-66659596D01*
X143669828Y-66644408D01*
X143667134Y-66640974D01*
X143645179Y-66609920D01*
X143625258Y-66576098D01*
X143608074Y-66540766D01*
X143600405Y-66522082D01*
X143596676Y-66512035D01*
X143594293Y-66504284D01*
X143592951Y-66497223D01*
X143592348Y-66489247D01*
X143592177Y-66478751D01*
X143592177Y-66478676D01*
X143592238Y-66468237D01*
X143592672Y-66460777D01*
X143593690Y-66455047D01*
X143595503Y-66449796D01*
X143597931Y-66444561D01*
X143604379Y-66434325D01*
X143613230Y-66424078D01*
X143623281Y-66415003D01*
X143633329Y-66408279D01*
X143636436Y-66406779D01*
X143651312Y-66402090D01*
X143669354Y-66399222D01*
X143689875Y-66398213D01*
X143712191Y-66399102D01*
G37*
G36*
X144054678Y-65909328D02*
G01*
X144077343Y-65911023D01*
X144098429Y-65913715D01*
X144117222Y-65917406D01*
X144133010Y-65922094D01*
X144140424Y-65925229D01*
X144155029Y-65934630D01*
X144167408Y-65947210D01*
X144176771Y-65962163D01*
X144176881Y-65962394D01*
X144182542Y-65977693D01*
X144184717Y-65992828D01*
X144183367Y-66008420D01*
X144178454Y-66025094D01*
X144172096Y-66039304D01*
X144157890Y-66064423D01*
X144141741Y-66087459D01*
X144124105Y-66107893D01*
X144105439Y-66125204D01*
X144086196Y-66138874D01*
X144083478Y-66140469D01*
X144066888Y-66148065D01*
X144048547Y-66153232D01*
X144029823Y-66155716D01*
X144012083Y-66155260D01*
X144007798Y-66154628D01*
X143987493Y-66148971D01*
X143967385Y-66139367D01*
X143947785Y-66126099D01*
X143929004Y-66109454D01*
X143911354Y-66089715D01*
X143895147Y-66067168D01*
X143880693Y-66042099D01*
X143877203Y-66035084D01*
X143872977Y-66026101D01*
X143870301Y-66019401D01*
X143868823Y-66013481D01*
X143868194Y-66006838D01*
X143868062Y-65997967D01*
X143868065Y-65995915D01*
X143868257Y-65985606D01*
X143868958Y-65978073D01*
X143870426Y-65971862D01*
X143872916Y-65965521D01*
X143873771Y-65963655D01*
X143881839Y-65950549D01*
X143892893Y-65938465D01*
X143905679Y-65928671D01*
X143911648Y-65925356D01*
X143925419Y-65920080D01*
X143942598Y-65915799D01*
X143962473Y-65912513D01*
X143984331Y-65910223D01*
X144007459Y-65908928D01*
X144031146Y-65908630D01*
X144054678Y-65909328D01*
G37*
G36*
X143755905Y-66033131D02*
G01*
X143763032Y-66033675D01*
X143768865Y-66034969D01*
X143774878Y-66037310D01*
X143780337Y-66039902D01*
X143795410Y-66049437D01*
X143804710Y-66058092D01*
X143815488Y-66071709D01*
X143826207Y-66088531D01*
X143836341Y-66107552D01*
X143845366Y-66127769D01*
X143852758Y-66148176D01*
X143854185Y-66152837D01*
X143857329Y-66166694D01*
X143859369Y-66182428D01*
X143860248Y-66198678D01*
X143859908Y-66214085D01*
X143858294Y-66227289D01*
X143857468Y-66230944D01*
X143849974Y-66251697D01*
X143838983Y-66270087D01*
X143824543Y-66286077D01*
X143806703Y-66299630D01*
X143785512Y-66310713D01*
X143761018Y-66319288D01*
X143733271Y-66325319D01*
X143727929Y-66326133D01*
X143719026Y-66327037D01*
X143707706Y-66327650D01*
X143695020Y-66327973D01*
X143682020Y-66328006D01*
X143669755Y-66327751D01*
X143659277Y-66327208D01*
X143651636Y-66326381D01*
X143649912Y-66326044D01*
X143634292Y-66320356D01*
X143619717Y-66311246D01*
X143607140Y-66299485D01*
X143597514Y-66285842D01*
X143595656Y-66282177D01*
X143592393Y-66273988D01*
X143590436Y-66265550D01*
X143589414Y-66255105D01*
X143589259Y-66251919D01*
X143589050Y-66243316D01*
X143589405Y-66236291D01*
X143590558Y-66229455D01*
X143592742Y-66221419D01*
X143596135Y-66210953D01*
X143604150Y-66189586D01*
X143613871Y-66167845D01*
X143624966Y-66146220D01*
X143637101Y-66125201D01*
X143649942Y-66105277D01*
X143663157Y-66086938D01*
X143676410Y-66070673D01*
X143689370Y-66056974D01*
X143701702Y-66046328D01*
X143713071Y-66039227D01*
X143719786Y-66036251D01*
X143725725Y-66034419D01*
X143732346Y-66033456D01*
X143741107Y-66033089D01*
X143746009Y-66033045D01*
X143755905Y-66033131D01*
G37*
G36*
X145597777Y-64739550D02*
G01*
X145602492Y-64742801D01*
X145609662Y-64747949D01*
X145618825Y-64754659D01*
X145629519Y-64762596D01*
X145638875Y-64769611D01*
X145681115Y-64801417D01*
X145770928Y-65034542D01*
X145782482Y-65064553D01*
X145793590Y-65093451D01*
X145804159Y-65120992D01*
X145814097Y-65146931D01*
X145823311Y-65171025D01*
X145831706Y-65193028D01*
X145839191Y-65212696D01*
X145845673Y-65229785D01*
X145851057Y-65244051D01*
X145855252Y-65255249D01*
X145858164Y-65263135D01*
X145859701Y-65267465D01*
X145859922Y-65268256D01*
X145857593Y-65268212D01*
X145852129Y-65267572D01*
X145844576Y-65266466D01*
X145842120Y-65266072D01*
X145809532Y-65261051D01*
X145773081Y-65255981D01*
X145733145Y-65250891D01*
X145690106Y-65245812D01*
X145644343Y-65240771D01*
X145596237Y-65235799D01*
X145546168Y-65230923D01*
X145494518Y-65226175D01*
X145441664Y-65221582D01*
X145387990Y-65217174D01*
X145333873Y-65212980D01*
X145279696Y-65209029D01*
X145225837Y-65205351D01*
X145172678Y-65201974D01*
X145120599Y-65198928D01*
X145069980Y-65196243D01*
X145021202Y-65193947D01*
X144974644Y-65192069D01*
X144930687Y-65190638D01*
X144889711Y-65189685D01*
X144852098Y-65189238D01*
X144840790Y-65189206D01*
X144827949Y-65189125D01*
X144818304Y-65188813D01*
X144810809Y-65188152D01*
X144804416Y-65187024D01*
X144798077Y-65185310D01*
X144793716Y-65183903D01*
X144785516Y-65181355D01*
X144778351Y-65179479D01*
X144773593Y-65178627D01*
X144773152Y-65178609D01*
X144769904Y-65178203D01*
X144769521Y-65177488D01*
X144772161Y-65176292D01*
X144778341Y-65174171D01*
X144787497Y-65171289D01*
X144799067Y-65167807D01*
X144812485Y-65163886D01*
X144827190Y-65159689D01*
X144842617Y-65155377D01*
X144858202Y-65151113D01*
X144873383Y-65147058D01*
X144887596Y-65143373D01*
X144893281Y-65141941D01*
X144964480Y-65125622D01*
X145037286Y-65111722D01*
X145111219Y-65100266D01*
X145185801Y-65091276D01*
X145260553Y-65084777D01*
X145334996Y-65080791D01*
X145408650Y-65079343D01*
X145481037Y-65080457D01*
X145551678Y-65084155D01*
X145620094Y-65090462D01*
X145685806Y-65099401D01*
X145701643Y-65102030D01*
X145724612Y-65105988D01*
X145723461Y-65101539D01*
X145722596Y-65098923D01*
X145720415Y-65092607D01*
X145717021Y-65082883D01*
X145712516Y-65070043D01*
X145707005Y-65054377D01*
X145700589Y-65036179D01*
X145693371Y-65015738D01*
X145685454Y-64993348D01*
X145676941Y-64969299D01*
X145667935Y-64943883D01*
X145658816Y-64918173D01*
X145649471Y-64891812D01*
X145640555Y-64866606D01*
X145632167Y-64842839D01*
X145624406Y-64820794D01*
X145617372Y-64800755D01*
X145611163Y-64783006D01*
X145605880Y-64767830D01*
X145601620Y-64755510D01*
X145598484Y-64746331D01*
X145596570Y-64740577D01*
X145595978Y-64738529D01*
X145597777Y-64739550D01*
G37*
G36*
X143898630Y-64740146D02*
G01*
X143896787Y-64745809D01*
X143893725Y-64754906D01*
X143889538Y-64767158D01*
X143884325Y-64782284D01*
X143878183Y-64800006D01*
X143871208Y-64820044D01*
X143863497Y-64842118D01*
X143855147Y-64865949D01*
X143846255Y-64891257D01*
X143836918Y-64917763D01*
X143835857Y-64920769D01*
X143826457Y-64947429D01*
X143817468Y-64972946D01*
X143808991Y-64997038D01*
X143801125Y-65019423D01*
X143793967Y-65039818D01*
X143787618Y-65057941D01*
X143782175Y-65073510D01*
X143777738Y-65086242D01*
X143774406Y-65095857D01*
X143772278Y-65102070D01*
X143771451Y-65104600D01*
X143771444Y-65104639D01*
X143773391Y-65104827D01*
X143778666Y-65104339D01*
X143786426Y-65103275D01*
X143794263Y-65102004D01*
X143858148Y-65092560D01*
X143924907Y-65085675D01*
X143994050Y-65081326D01*
X144065086Y-65079488D01*
X144137524Y-65080140D01*
X144210875Y-65083257D01*
X144284648Y-65088815D01*
X144358352Y-65096792D01*
X144431497Y-65107163D01*
X144503593Y-65119906D01*
X144574150Y-65134996D01*
X144596908Y-65140461D01*
X144611773Y-65144231D01*
X144628387Y-65148612D01*
X144645897Y-65153365D01*
X144663447Y-65158248D01*
X144680184Y-65163022D01*
X144695253Y-65167447D01*
X144707801Y-65171282D01*
X144715968Y-65173941D01*
X144727573Y-65177908D01*
X144717367Y-65179303D01*
X144708758Y-65181141D01*
X144699809Y-65184014D01*
X144697532Y-65184947D01*
X144693129Y-65186643D01*
X144688325Y-65187827D01*
X144682270Y-65188588D01*
X144674113Y-65189012D01*
X144663003Y-65189186D01*
X144655802Y-65189206D01*
X144617711Y-65189499D01*
X144575832Y-65190336D01*
X144530581Y-65191689D01*
X144482374Y-65193532D01*
X144431631Y-65195838D01*
X144378767Y-65198578D01*
X144324201Y-65201726D01*
X144268349Y-65205253D01*
X144211629Y-65209134D01*
X144154458Y-65213339D01*
X144097254Y-65217843D01*
X144040433Y-65222618D01*
X143984413Y-65227635D01*
X143929611Y-65232869D01*
X143876445Y-65238291D01*
X143829818Y-65243368D01*
X143810567Y-65245576D01*
X143790115Y-65247998D01*
X143769019Y-65250563D01*
X143747841Y-65253196D01*
X143727139Y-65255827D01*
X143707471Y-65258383D01*
X143689398Y-65260791D01*
X143673478Y-65262979D01*
X143660271Y-65264874D01*
X143650335Y-65266404D01*
X143645675Y-65267211D01*
X143639857Y-65267986D01*
X143636214Y-65267854D01*
X143635593Y-65267372D01*
X143636336Y-65265219D01*
X143638488Y-65259415D01*
X143641933Y-65250261D01*
X143646556Y-65238061D01*
X143652240Y-65223114D01*
X143658870Y-65205723D01*
X143666330Y-65186189D01*
X143674504Y-65164814D01*
X143683276Y-65141900D01*
X143692531Y-65117747D01*
X143702152Y-65092657D01*
X143712024Y-65066932D01*
X143722030Y-65040874D01*
X143732056Y-65014784D01*
X143741985Y-64988963D01*
X143751701Y-64963714D01*
X143761089Y-64939337D01*
X143770032Y-64916135D01*
X143778415Y-64894408D01*
X143786123Y-64874459D01*
X143793038Y-64856588D01*
X143799046Y-64841099D01*
X143804031Y-64828291D01*
X143807876Y-64818466D01*
X143810466Y-64811927D01*
X143811615Y-64809128D01*
X143813397Y-64805942D01*
X143816270Y-64802363D01*
X143820648Y-64798026D01*
X143826946Y-64792567D01*
X143835576Y-64785621D01*
X143846954Y-64776824D01*
X143856698Y-64769427D01*
X143868188Y-64760780D01*
X143878541Y-64753052D01*
X143887284Y-64746591D01*
X143893944Y-64741744D01*
X143898046Y-64738861D01*
X143899155Y-64738196D01*
X143898630Y-64740146D01*
G37*
G36*
X146044156Y-65634230D02*
G01*
X146051419Y-65635372D01*
X146062599Y-65637247D01*
X146077569Y-65639835D01*
X146096200Y-65643112D01*
X146118365Y-65647056D01*
X146143936Y-65651646D01*
X146152031Y-65653106D01*
X146170487Y-65656480D01*
X146189915Y-65660109D01*
X146209869Y-65663904D01*
X146229906Y-65667775D01*
X146249581Y-65671632D01*
X146268449Y-65675387D01*
X146286065Y-65678949D01*
X146301985Y-65682228D01*
X146315764Y-65685136D01*
X146326958Y-65687583D01*
X146335121Y-65689478D01*
X146339809Y-65690733D01*
X146340755Y-65691127D01*
X146341225Y-65693682D01*
X146340884Y-65699759D01*
X146339716Y-65709455D01*
X146337706Y-65722868D01*
X146334840Y-65740094D01*
X146331103Y-65761231D01*
X146326480Y-65786375D01*
X146324709Y-65795823D01*
X146299978Y-65916513D01*
X146271600Y-66035114D01*
X146239584Y-66151605D01*
X146203940Y-66265964D01*
X146164674Y-66378171D01*
X146121795Y-66488205D01*
X146075313Y-66596042D01*
X146025235Y-66701663D01*
X145971569Y-66805046D01*
X145914325Y-66906169D01*
X145853510Y-67005011D01*
X145841692Y-67023317D01*
X145794525Y-67093569D01*
X145744761Y-67163394D01*
X145692897Y-67232167D01*
X145639430Y-67299266D01*
X145584857Y-67364068D01*
X145529677Y-67425950D01*
X145474386Y-67484289D01*
X145470202Y-67488552D01*
X145431544Y-67527834D01*
X145431463Y-67252046D01*
X145431459Y-67218242D01*
X145431469Y-67185627D01*
X145431492Y-67154449D01*
X145431527Y-67124958D01*
X145431572Y-67097402D01*
X145431629Y-67072028D01*
X145431694Y-67049086D01*
X145431769Y-67028824D01*
X145431852Y-67011489D01*
X145431942Y-66997332D01*
X145432039Y-66986599D01*
X145432143Y-66979539D01*
X145432251Y-66976401D01*
X145432280Y-66976259D01*
X145434143Y-66977402D01*
X145439285Y-66980718D01*
X145447445Y-66986036D01*
X145458365Y-66993187D01*
X145471786Y-67002000D01*
X145487450Y-67012305D01*
X145505097Y-67023932D01*
X145524469Y-67036711D01*
X145545308Y-67050471D01*
X145567354Y-67065042D01*
X145583521Y-67075735D01*
X145733863Y-67175212D01*
X145734924Y-66822825D01*
X145735986Y-66470438D01*
X145886149Y-66569839D01*
X145908881Y-66584878D01*
X145930593Y-66599226D01*
X145951024Y-66612712D01*
X145969916Y-66625166D01*
X145987009Y-66636418D01*
X146002044Y-66646297D01*
X146014763Y-66654632D01*
X146024905Y-66661254D01*
X146032211Y-66665992D01*
X146036423Y-66668675D01*
X146037390Y-66669240D01*
X146037487Y-66667152D01*
X146037582Y-66661012D01*
X146037673Y-66650999D01*
X146037762Y-66637295D01*
X146037847Y-66620082D01*
X146037929Y-66599541D01*
X146038006Y-66575852D01*
X146038078Y-66549198D01*
X146038146Y-66519759D01*
X146038208Y-66487718D01*
X146038264Y-66453254D01*
X146038315Y-66416550D01*
X146038359Y-66377786D01*
X146038396Y-66337145D01*
X146038425Y-66294807D01*
X146038447Y-66250954D01*
X146038462Y-66205766D01*
X146038467Y-66159426D01*
X146038468Y-66151542D01*
X146038472Y-66093129D01*
X146038487Y-66038835D01*
X146038513Y-65988545D01*
X146038549Y-65942142D01*
X146038598Y-65899512D01*
X146038658Y-65860539D01*
X146038731Y-65825106D01*
X146038818Y-65793100D01*
X146038919Y-65764403D01*
X146039034Y-65738901D01*
X146039163Y-65716477D01*
X146039309Y-65697017D01*
X146039471Y-65680404D01*
X146039649Y-65666523D01*
X146039844Y-65655259D01*
X146040058Y-65646495D01*
X146040289Y-65640116D01*
X146040540Y-65636007D01*
X146040810Y-65634052D01*
X146040939Y-65633844D01*
X146044156Y-65634230D01*
G37*
G36*
X145437578Y-65555741D02*
G01*
X145445671Y-65556424D01*
X145457093Y-65557504D01*
X145471400Y-65558929D01*
X145488146Y-65560652D01*
X145506889Y-65562623D01*
X145527185Y-65564793D01*
X145548588Y-65567112D01*
X145570656Y-65569532D01*
X145592944Y-65572003D01*
X145615009Y-65574476D01*
X145636406Y-65576901D01*
X145656691Y-65579230D01*
X145675420Y-65581413D01*
X145692149Y-65583401D01*
X145706435Y-65585145D01*
X145717833Y-65586596D01*
X145725899Y-65587704D01*
X145730148Y-65588411D01*
X145734924Y-65589460D01*
X145734924Y-66028775D01*
X145734919Y-66071583D01*
X145734904Y-66113253D01*
X145734880Y-66153589D01*
X145734847Y-66192393D01*
X145734805Y-66229469D01*
X145734755Y-66264620D01*
X145734698Y-66297649D01*
X145734634Y-66328360D01*
X145734564Y-66356554D01*
X145734487Y-66382037D01*
X145734405Y-66404611D01*
X145734318Y-66424078D01*
X145734226Y-66440244D01*
X145734131Y-66452909D01*
X145734031Y-66461879D01*
X145733929Y-66466955D01*
X145733852Y-66468089D01*
X145731964Y-66466942D01*
X145726805Y-66463614D01*
X145718634Y-66458276D01*
X145707710Y-66451100D01*
X145694292Y-66442256D01*
X145678639Y-66431917D01*
X145661011Y-66420252D01*
X145641667Y-66407434D01*
X145620865Y-66393632D01*
X145598865Y-66379019D01*
X145583152Y-66368573D01*
X145560478Y-66353500D01*
X145538824Y-66339122D01*
X145518448Y-66325608D01*
X145499610Y-66313130D01*
X145482569Y-66301860D01*
X145467584Y-66291968D01*
X145454915Y-66283625D01*
X145444820Y-66277003D01*
X145437559Y-66272272D01*
X145433391Y-66269605D01*
X145432453Y-66269056D01*
X145432337Y-66271137D01*
X145432224Y-66277232D01*
X145432115Y-66287122D01*
X145432011Y-66300587D01*
X145431912Y-66317407D01*
X145431820Y-66337361D01*
X145431735Y-66360230D01*
X145431657Y-66385793D01*
X145431587Y-66413831D01*
X145431527Y-66444123D01*
X145431476Y-66476451D01*
X145431435Y-66510592D01*
X145431405Y-66546328D01*
X145431387Y-66583439D01*
X145431381Y-66620540D01*
X145431369Y-66666378D01*
X145431334Y-66709500D01*
X145431276Y-66749788D01*
X145431196Y-66787122D01*
X145431095Y-66821384D01*
X145430974Y-66852456D01*
X145430832Y-66880219D01*
X145430672Y-66904554D01*
X145430492Y-66925343D01*
X145430295Y-66942467D01*
X145430081Y-66955808D01*
X145429850Y-66965246D01*
X145429603Y-66970664D01*
X145429393Y-66972024D01*
X145427364Y-66970878D01*
X145422063Y-66967554D01*
X145413751Y-66962223D01*
X145402689Y-66955055D01*
X145389139Y-66946221D01*
X145373360Y-66935892D01*
X145355613Y-66924239D01*
X145336160Y-66911431D01*
X145315262Y-66897640D01*
X145293179Y-66883037D01*
X145277091Y-66872379D01*
X145126776Y-66772735D01*
X145125715Y-67283672D01*
X145124653Y-67794608D01*
X145087506Y-67821611D01*
X145052996Y-67846221D01*
X145016729Y-67871201D01*
X144979594Y-67895974D01*
X144942480Y-67919959D01*
X144906274Y-67942579D01*
X144871866Y-67963255D01*
X144854628Y-67973247D01*
X144844457Y-67979020D01*
X144835608Y-67983971D01*
X144828719Y-67987748D01*
X144824428Y-67989999D01*
X144823319Y-67990480D01*
X144823230Y-67988388D01*
X144823144Y-67982217D01*
X144823059Y-67972121D01*
X144822977Y-67958254D01*
X144822898Y-67940772D01*
X144822821Y-67919830D01*
X144822747Y-67895583D01*
X144822677Y-67868185D01*
X144822610Y-67837791D01*
X144822546Y-67804556D01*
X144822487Y-67768635D01*
X144822432Y-67730184D01*
X144822382Y-67689356D01*
X144822336Y-67646307D01*
X144822296Y-67601191D01*
X144822260Y-67554164D01*
X144822230Y-67505380D01*
X144822206Y-67454994D01*
X144822188Y-67403162D01*
X144822177Y-67350037D01*
X144822172Y-67295775D01*
X144822171Y-67281160D01*
X144822174Y-67226622D01*
X144822182Y-67173179D01*
X144822195Y-67120988D01*
X144822213Y-67070202D01*
X144822235Y-67020977D01*
X144822262Y-66973467D01*
X144822293Y-66927827D01*
X144822328Y-66884213D01*
X144822367Y-66842778D01*
X144822410Y-66803679D01*
X144822456Y-66767070D01*
X144822505Y-66733105D01*
X144822557Y-66701940D01*
X144822613Y-66673729D01*
X144822670Y-66648628D01*
X144822731Y-66626791D01*
X144822793Y-66608373D01*
X144822858Y-66593529D01*
X144822924Y-66582414D01*
X144822992Y-66575183D01*
X144823062Y-66571990D01*
X144823081Y-66571840D01*
X144824945Y-66572985D01*
X144830086Y-66576304D01*
X144838244Y-66581627D01*
X144849161Y-66588785D01*
X144862579Y-66597607D01*
X144878238Y-66607922D01*
X144895880Y-66619561D01*
X144915247Y-66632352D01*
X144936079Y-66646126D01*
X144958119Y-66660712D01*
X144974322Y-66671444D01*
X145124653Y-66771047D01*
X145125715Y-66418537D01*
X145126776Y-66066026D01*
X145278548Y-66166482D01*
X145430319Y-66266938D01*
X145430856Y-65911220D01*
X145430928Y-65870766D01*
X145431019Y-65831856D01*
X145431127Y-65794687D01*
X145431252Y-65759453D01*
X145431391Y-65726352D01*
X145431544Y-65695577D01*
X145431709Y-65667326D01*
X145431885Y-65641794D01*
X145432071Y-65619177D01*
X145432265Y-65599669D01*
X145432465Y-65583468D01*
X145432672Y-65570769D01*
X145432883Y-65561768D01*
X145433096Y-65556660D01*
X145433256Y-65555502D01*
X145437578Y-65555741D01*
G37*
G36*
X144792922Y-64488218D02*
G01*
X144825229Y-64488322D01*
X144856413Y-64488483D01*
X144885986Y-64488703D01*
X144913459Y-64488980D01*
X144938346Y-64489315D01*
X144960157Y-64489708D01*
X144978405Y-64490158D01*
X144984556Y-64490353D01*
X145119399Y-64495980D01*
X145251180Y-64503545D01*
X145380649Y-64513122D01*
X145508557Y-64524783D01*
X145635653Y-64538602D01*
X145762687Y-64554651D01*
X145890408Y-64573003D01*
X145979032Y-64586998D01*
X146005046Y-64591325D01*
X146032289Y-64595988D01*
X146060404Y-64600918D01*
X146089033Y-64606046D01*
X146117819Y-64611302D01*
X146146403Y-64616615D01*
X146174428Y-64621918D01*
X146201537Y-64627139D01*
X146227371Y-64632210D01*
X146251572Y-64637060D01*
X146273783Y-64641620D01*
X146293646Y-64645821D01*
X146310804Y-64649592D01*
X146324898Y-64652865D01*
X146335570Y-64655569D01*
X146342464Y-64657634D01*
X146343072Y-64657856D01*
X146355234Y-64664235D01*
X146367116Y-64673668D01*
X146377623Y-64685051D01*
X146385659Y-64697281D01*
X146388475Y-64703549D01*
X146393293Y-64716542D01*
X146392344Y-64962927D01*
X146392173Y-65001879D01*
X146391969Y-65038817D01*
X146391734Y-65073524D01*
X146391472Y-65105783D01*
X146391185Y-65135378D01*
X146390876Y-65162090D01*
X146390546Y-65185703D01*
X146390198Y-65206001D01*
X146389836Y-65222766D01*
X146389462Y-65235781D01*
X146389078Y-65244830D01*
X146388986Y-65246365D01*
X146386704Y-65280998D01*
X146384605Y-65311858D01*
X146382654Y-65339399D01*
X146380817Y-65364078D01*
X146379061Y-65386351D01*
X146377352Y-65406672D01*
X146375872Y-65423166D01*
X146374654Y-65436028D01*
X146373249Y-65450332D01*
X146371721Y-65465497D01*
X146370131Y-65480945D01*
X146368542Y-65496095D01*
X146367014Y-65510368D01*
X146365609Y-65523183D01*
X146364391Y-65533961D01*
X146363420Y-65542123D01*
X146362759Y-65547087D01*
X146362503Y-65548365D01*
X146360424Y-65548027D01*
X146354702Y-65546940D01*
X146345852Y-65545205D01*
X146334389Y-65542924D01*
X146320829Y-65540199D01*
X146305686Y-65537133D01*
X146300619Y-65536102D01*
X146158340Y-65508663D01*
X146013264Y-65483697D01*
X145866109Y-65461295D01*
X145717588Y-65441551D01*
X145568418Y-65424557D01*
X145419314Y-65410406D01*
X145270992Y-65399189D01*
X145214867Y-65395709D01*
X145173843Y-65393381D01*
X145135496Y-65391341D01*
X145099213Y-65389572D01*
X145064381Y-65388057D01*
X145030384Y-65386779D01*
X144996611Y-65385723D01*
X144962446Y-65384870D01*
X144927275Y-65384205D01*
X144890485Y-65383711D01*
X144851463Y-65383370D01*
X144809593Y-65383167D01*
X144764262Y-65383084D01*
X144751062Y-65383081D01*
X144710477Y-65383112D01*
X144673554Y-65383213D01*
X144639708Y-65383399D01*
X144608355Y-65383680D01*
X144578911Y-65384070D01*
X144550793Y-65384581D01*
X144523417Y-65385227D01*
X144496199Y-65386019D01*
X144468554Y-65386971D01*
X144439900Y-65388096D01*
X144409651Y-65389405D01*
X144377225Y-65390912D01*
X144365795Y-65391462D01*
X144187554Y-65402153D01*
X144009361Y-65416921D01*
X143831555Y-65435727D01*
X143654474Y-65458533D01*
X143478456Y-65485298D01*
X143335233Y-65510159D01*
X143320011Y-65512978D01*
X143303019Y-65516171D01*
X143284751Y-65519641D01*
X143265701Y-65523292D01*
X143246363Y-65527027D01*
X143227230Y-65530749D01*
X143208796Y-65534361D01*
X143191555Y-65537767D01*
X143176002Y-65540870D01*
X143162629Y-65543572D01*
X143151930Y-65545778D01*
X143144400Y-65547390D01*
X143140532Y-65548312D01*
X143140477Y-65548328D01*
X143137325Y-65548071D01*
X143136721Y-65546646D01*
X143136413Y-65543205D01*
X143135651Y-65536985D01*
X143134707Y-65530093D01*
X143133700Y-65522258D01*
X143132394Y-65510876D01*
X143130855Y-65496621D01*
X143129150Y-65480164D01*
X143127345Y-65462180D01*
X143125507Y-65443340D01*
X143123701Y-65424318D01*
X143121994Y-65405785D01*
X143120452Y-65388415D01*
X143119141Y-65372881D01*
X143118758Y-65368114D01*
X143116745Y-65340717D01*
X143527336Y-65340717D01*
X143529255Y-65347624D01*
X143534203Y-65353184D01*
X143540970Y-65356220D01*
X143543570Y-65356469D01*
X143547087Y-65356102D01*
X143554094Y-65355075D01*
X143563907Y-65353500D01*
X143575842Y-65351487D01*
X143589215Y-65349148D01*
X143594759Y-65348156D01*
X143696206Y-65331084D01*
X143801355Y-65315742D01*
X143910026Y-65302152D01*
X144022037Y-65290332D01*
X144137209Y-65280301D01*
X144255360Y-65272079D01*
X144357304Y-65266559D01*
X144479075Y-65261702D01*
X144600742Y-65258626D01*
X144721998Y-65257316D01*
X144842540Y-65257755D01*
X144962060Y-65259928D01*
X145080255Y-65263820D01*
X145196818Y-65269412D01*
X145311445Y-65276691D01*
X145423830Y-65285640D01*
X145533667Y-65296243D01*
X145640652Y-65308484D01*
X145744479Y-65322346D01*
X145844843Y-65337815D01*
X145899016Y-65347102D01*
X145913710Y-65349679D01*
X145927250Y-65351986D01*
X145939002Y-65353918D01*
X145948332Y-65355374D01*
X145954607Y-65356252D01*
X145956956Y-65356469D01*
X145962923Y-65354634D01*
X145968399Y-65350065D01*
X145971992Y-65344167D01*
X145972664Y-65340615D01*
X145971799Y-65337996D01*
X145969281Y-65331785D01*
X145965227Y-65322240D01*
X145959755Y-65309618D01*
X145952980Y-65294176D01*
X145945019Y-65276172D01*
X145935991Y-65255864D01*
X145926011Y-65233509D01*
X145915196Y-65209365D01*
X145903664Y-65183688D01*
X145891531Y-65156737D01*
X145878914Y-65128768D01*
X145865929Y-65100040D01*
X145852694Y-65070810D01*
X145839326Y-65041335D01*
X145825941Y-65011873D01*
X145812657Y-64982681D01*
X145799590Y-64954017D01*
X145786857Y-64926138D01*
X145774574Y-64899302D01*
X145762860Y-64873766D01*
X145751830Y-64849787D01*
X145741601Y-64827624D01*
X145732291Y-64807533D01*
X145724017Y-64789773D01*
X145716894Y-64774599D01*
X145711040Y-64762271D01*
X145706573Y-64753046D01*
X145703607Y-64747180D01*
X145702300Y-64744965D01*
X145697384Y-64741633D01*
X145689616Y-64739002D01*
X145681429Y-64737312D01*
X145673325Y-64735749D01*
X145666674Y-64734174D01*
X145662753Y-64732896D01*
X145662486Y-64732753D01*
X145660069Y-64731005D01*
X145654792Y-64727019D01*
X145647140Y-64721167D01*
X145637596Y-64713820D01*
X145626645Y-64705348D01*
X145616861Y-64697750D01*
X145605046Y-64688602D01*
X145594169Y-64680256D01*
X145584729Y-64673090D01*
X145577223Y-64667480D01*
X145572150Y-64663803D01*
X145570162Y-64662496D01*
X145565140Y-64660789D01*
X145556406Y-64658776D01*
X145544476Y-64656533D01*
X145529865Y-64654139D01*
X145513089Y-64651672D01*
X145494663Y-64649210D01*
X145475103Y-64646830D01*
X145454925Y-64644610D01*
X145445178Y-64643625D01*
X145432079Y-64642610D01*
X145415380Y-64641740D01*
X145395726Y-64641019D01*
X145373759Y-64640449D01*
X145350125Y-64640032D01*
X145325465Y-64639771D01*
X145300424Y-64639670D01*
X145275646Y-64639730D01*
X145251774Y-64639954D01*
X145229452Y-64640346D01*
X145209323Y-64640908D01*
X145192031Y-64641642D01*
X145178782Y-64642504D01*
X145120334Y-64647906D01*
X145065425Y-64654252D01*
X145013432Y-64661640D01*
X144963735Y-64670165D01*
X144915711Y-64679926D01*
X144870993Y-64690450D01*
X144854107Y-64694833D01*
X144836250Y-64699719D01*
X144818256Y-64704858D01*
X144800965Y-64710001D01*
X144785213Y-64714899D01*
X144771836Y-64719302D01*
X144761673Y-64722960D01*
X144760981Y-64723230D01*
X144750465Y-64727364D01*
X144718923Y-64716826D01*
X144666563Y-64700740D01*
X144610684Y-64686254D01*
X144551733Y-64673452D01*
X144490157Y-64662420D01*
X144426400Y-64653243D01*
X144360910Y-64646006D01*
X144337139Y-64643904D01*
X144318855Y-64642633D01*
X144297313Y-64641535D01*
X144273327Y-64640622D01*
X144247709Y-64639905D01*
X144221269Y-64639396D01*
X144194820Y-64639107D01*
X144169174Y-64639048D01*
X144145143Y-64639232D01*
X144123539Y-64639670D01*
X144105174Y-64640372D01*
X144101521Y-64640571D01*
X144073033Y-64642509D01*
X144044393Y-64644987D01*
X144016568Y-64647897D01*
X143990527Y-64651135D01*
X143967236Y-64654594D01*
X143956054Y-64656532D01*
X143929160Y-64661489D01*
X143884796Y-64696025D01*
X143872678Y-64705400D01*
X143861416Y-64714004D01*
X143851514Y-64721460D01*
X143843476Y-64727391D01*
X143837807Y-64731421D01*
X143835125Y-64733121D01*
X143829970Y-64734858D01*
X143822643Y-64736477D01*
X143818143Y-64737176D01*
X143807025Y-64739487D01*
X143798991Y-64743543D01*
X143793013Y-64750027D01*
X143789601Y-64756172D01*
X143788152Y-64759312D01*
X143785055Y-64766086D01*
X143780412Y-64776271D01*
X143774324Y-64789642D01*
X143766893Y-64805977D01*
X143758220Y-64825051D01*
X143748407Y-64846640D01*
X143737557Y-64870520D01*
X143725770Y-64896469D01*
X143713149Y-64924261D01*
X143699795Y-64953673D01*
X143685810Y-64984482D01*
X143671295Y-65016463D01*
X143656352Y-65049392D01*
X143655958Y-65050261D01*
X143635612Y-65095150D01*
X143617043Y-65136213D01*
X143600243Y-65173470D01*
X143585205Y-65206937D01*
X143571920Y-65236633D01*
X143560382Y-65262574D01*
X143550581Y-65284778D01*
X143542511Y-65303264D01*
X143536164Y-65318048D01*
X143531531Y-65329148D01*
X143528605Y-65336582D01*
X143527379Y-65340367D01*
X143527336Y-65340717D01*
X143116745Y-65340717D01*
X143115913Y-65329395D01*
X143113422Y-65289516D01*
X143111278Y-65248149D01*
X143109472Y-65204970D01*
X143107994Y-65159651D01*
X143106836Y-65111866D01*
X143105989Y-65061291D01*
X143105445Y-65007597D01*
X143105195Y-64950460D01*
X143105230Y-64889552D01*
X143105322Y-64864180D01*
X143105984Y-64713846D01*
X143112722Y-64699658D01*
X143117765Y-64690683D01*
X143124067Y-64681695D01*
X143129277Y-64675678D01*
X143133682Y-64671479D01*
X143138132Y-64667806D01*
X143143026Y-64664532D01*
X143148760Y-64661532D01*
X143155732Y-64658678D01*
X143164339Y-64655847D01*
X143174978Y-64652910D01*
X143188047Y-64649744D01*
X143203943Y-64646221D01*
X143223063Y-64642216D01*
X143245805Y-64637603D01*
X143255633Y-64635633D01*
X143392804Y-64609385D01*
X143528275Y-64585870D01*
X143662701Y-64565014D01*
X143796735Y-64546742D01*
X143931033Y-64530977D01*
X144066249Y-64517644D01*
X144203036Y-64506669D01*
X144342050Y-64497974D01*
X144483945Y-64491486D01*
X144515444Y-64490353D01*
X144532142Y-64489880D01*
X144552596Y-64489464D01*
X144576320Y-64489106D01*
X144602824Y-64488806D01*
X144631621Y-64488564D01*
X144662224Y-64488379D01*
X144694143Y-64488252D01*
X144726891Y-64488183D01*
X144759980Y-64488171D01*
X144792922Y-64488218D01*
G37*
G36*
X144677829Y-66757873D02*
G01*
X144677826Y-66829932D01*
X144677818Y-66900932D01*
X144677804Y-66970755D01*
X144677786Y-67039285D01*
X144677762Y-67106405D01*
X144677733Y-67171995D01*
X144677700Y-67235940D01*
X144677662Y-67298121D01*
X144677619Y-67358421D01*
X144677573Y-67416723D01*
X144677522Y-67472909D01*
X144677467Y-67526861D01*
X144677409Y-67578463D01*
X144677347Y-67627596D01*
X144677282Y-67674143D01*
X144677213Y-67717986D01*
X144677141Y-67759009D01*
X144677066Y-67797093D01*
X144676989Y-67832122D01*
X144676908Y-67863977D01*
X144676825Y-67892541D01*
X144676740Y-67917697D01*
X144676653Y-67939327D01*
X144676563Y-67957314D01*
X144676472Y-67971540D01*
X144676379Y-67981887D01*
X144676284Y-67988239D01*
X144676188Y-67990478D01*
X144676185Y-67990480D01*
X144673891Y-67989472D01*
X144668561Y-67986677D01*
X144660824Y-67982441D01*
X144651313Y-67977107D01*
X144642752Y-67972226D01*
X144563997Y-67924922D01*
X144485471Y-67873640D01*
X144407484Y-67818638D01*
X144330348Y-67760172D01*
X144254375Y-67698498D01*
X144179878Y-67633874D01*
X144107166Y-67566556D01*
X144036552Y-67496801D01*
X143968349Y-67424865D01*
X143939888Y-67393381D01*
X143865468Y-67306666D01*
X143794345Y-67217308D01*
X143726550Y-67125368D01*
X143662115Y-67030908D01*
X143601069Y-66933987D01*
X143543444Y-66834668D01*
X143489270Y-66733010D01*
X143438577Y-66629075D01*
X143391397Y-66522925D01*
X143347760Y-66414619D01*
X143337581Y-66386570D01*
X143484775Y-66386570D01*
X143485360Y-66394973D01*
X143485944Y-66403375D01*
X143502925Y-66408444D01*
X143510705Y-66410790D01*
X143516676Y-66412636D01*
X143519877Y-66413682D01*
X143520165Y-66413805D01*
X143520583Y-66415869D01*
X143521342Y-66420759D01*
X143521751Y-66423624D01*
X143523077Y-66433153D01*
X143507164Y-66442669D01*
X143500036Y-66447074D01*
X143494558Y-66450730D01*
X143491566Y-66453067D01*
X143491250Y-66453520D01*
X143491629Y-66456356D01*
X143492533Y-66461253D01*
X143493360Y-66464343D01*
X143494927Y-66466458D01*
X143498100Y-66468034D01*
X143503744Y-66469507D01*
X143512387Y-66471248D01*
X143530959Y-66474846D01*
X143533083Y-66484103D01*
X143535206Y-66493359D01*
X143522407Y-66503486D01*
X143516022Y-66508508D01*
X143510840Y-66512529D01*
X143507835Y-66514793D01*
X143507611Y-66514949D01*
X143506810Y-66517852D01*
X143507992Y-66523472D01*
X143508060Y-66523681D01*
X143510507Y-66531076D01*
X143529267Y-66532540D01*
X143548028Y-66534004D01*
X143551490Y-66542797D01*
X143554953Y-66551590D01*
X143542206Y-66564419D01*
X143535282Y-66571719D01*
X143531266Y-66577055D01*
X143529831Y-66581204D01*
X143530651Y-66584944D01*
X143532402Y-66587751D01*
X143534333Y-66589684D01*
X143537263Y-66590820D01*
X143542137Y-66591306D01*
X143549902Y-66591291D01*
X143554294Y-66591168D01*
X143573242Y-66590570D01*
X143577041Y-66598972D01*
X143580839Y-66607374D01*
X143570008Y-66621122D01*
X143564109Y-66628879D01*
X143560745Y-66634329D01*
X143559656Y-66638355D01*
X143560585Y-66641840D01*
X143562938Y-66645251D01*
X143564998Y-66647542D01*
X143567283Y-66648695D01*
X143570876Y-66648803D01*
X143576856Y-66647961D01*
X143582526Y-66646951D01*
X143591930Y-66645261D01*
X143598109Y-66644428D01*
X143602026Y-66644617D01*
X143604645Y-66645994D01*
X143606929Y-66648724D01*
X143608801Y-66651466D01*
X143614002Y-66659101D01*
X143604632Y-66674496D01*
X143600357Y-66681741D01*
X143597106Y-66687678D01*
X143595398Y-66691335D01*
X143595262Y-66691900D01*
X143596673Y-66694633D01*
X143600073Y-66698419D01*
X143600140Y-66698482D01*
X143605019Y-66703053D01*
X143621898Y-66697824D01*
X143629805Y-66695417D01*
X143636083Y-66693587D01*
X143639692Y-66692633D01*
X143640117Y-66692562D01*
X143642107Y-66694073D01*
X143645520Y-66697905D01*
X143647005Y-66699786D01*
X143652553Y-66707042D01*
X143644775Y-66724259D01*
X143636996Y-66741475D01*
X143642384Y-66746850D01*
X143647773Y-66752225D01*
X143665279Y-66744547D01*
X143682786Y-66736869D01*
X143690056Y-66742400D01*
X143694770Y-66746652D01*
X143696310Y-66750241D01*
X143695997Y-66752521D01*
X143694697Y-66756843D01*
X143692589Y-66763692D01*
X143690222Y-66771286D01*
X143685777Y-66785461D01*
X143690933Y-66789742D01*
X143694981Y-66792759D01*
X143697589Y-66794092D01*
X143697620Y-66794094D01*
X143700021Y-66793114D01*
X143705129Y-66790437D01*
X143712022Y-66786555D01*
X143715231Y-66784682D01*
X143731311Y-66775199D01*
X143738615Y-66779917D01*
X143742305Y-66782371D01*
X143744549Y-66784591D01*
X143745498Y-66787518D01*
X143745301Y-66792092D01*
X143744108Y-66799250D01*
X143742790Y-66806146D01*
X143741255Y-66814419D01*
X143740608Y-66819575D01*
X143740932Y-66822653D01*
X143742309Y-66824693D01*
X143744382Y-66826400D01*
X143748805Y-66829129D01*
X143751855Y-66830113D01*
X143754696Y-66828897D01*
X143759833Y-66825629D01*
X143766284Y-66820946D01*
X143768059Y-66819573D01*
X143774674Y-66814623D01*
X143780207Y-66810911D01*
X143783686Y-66809076D01*
X143784137Y-66808986D01*
X143787611Y-66809984D01*
X143792619Y-66812413D01*
X143793107Y-66812692D01*
X143799505Y-66816397D01*
X143798519Y-66835744D01*
X143797533Y-66855091D01*
X143804123Y-66858300D01*
X143810714Y-66861508D01*
X143824865Y-66847654D01*
X143839015Y-66833801D01*
X143847153Y-66837027D01*
X143855290Y-66840254D01*
X143857413Y-66859882D01*
X143858567Y-66869369D01*
X143859716Y-66875462D01*
X143861109Y-66878992D01*
X143862996Y-66880793D01*
X143863781Y-66881153D01*
X143868505Y-66882493D01*
X143872448Y-66882001D01*
X143876474Y-66879186D01*
X143881449Y-66873554D01*
X143884815Y-66869195D01*
X143889867Y-66862650D01*
X143894048Y-66857493D01*
X143896634Y-66854610D01*
X143896971Y-66854332D01*
X143899954Y-66854161D01*
X143905250Y-66855053D01*
X143907020Y-66855494D01*
X143915332Y-66857727D01*
X143918740Y-66876054D01*
X143920349Y-66884332D01*
X143921748Y-66890862D01*
X143922719Y-66894646D01*
X143922950Y-66895180D01*
X143925386Y-66896001D01*
X143930269Y-66896943D01*
X143930913Y-66897041D01*
X143934380Y-66897380D01*
X143937050Y-66896748D01*
X143939640Y-66894493D01*
X143942867Y-66889964D01*
X143947448Y-66882510D01*
X143948087Y-66881448D01*
X143958099Y-66864793D01*
X143967010Y-66866004D01*
X143975920Y-66867214D01*
X143981470Y-66885202D01*
X143984183Y-66893827D01*
X143986391Y-66899303D01*
X143988909Y-66902507D01*
X143992551Y-66904313D01*
X143998133Y-66905599D01*
X144000943Y-66906135D01*
X144002333Y-66904453D01*
X144004981Y-66899730D01*
X144008436Y-66892804D01*
X144010495Y-66888407D01*
X144018737Y-66870429D01*
X144028289Y-66870434D01*
X144037841Y-66870439D01*
X144045270Y-66887542D01*
X144048713Y-66895269D01*
X144051586Y-66901352D01*
X144053442Y-66904861D01*
X144053813Y-66905345D01*
X144056446Y-66905436D01*
X144061384Y-66904725D01*
X144061990Y-66904605D01*
X144065535Y-66903636D01*
X144068049Y-66901877D01*
X144070126Y-66898442D01*
X144072364Y-66892444D01*
X144074346Y-66886248D01*
X144076934Y-66878328D01*
X144079193Y-66872046D01*
X144080741Y-66868441D01*
X144081028Y-66868019D01*
X144083873Y-66866868D01*
X144089111Y-66865710D01*
X144090306Y-66865517D01*
X144098195Y-66864327D01*
X144108054Y-66880592D01*
X144112501Y-66887886D01*
X144116082Y-66893676D01*
X144118258Y-66897099D01*
X144118640Y-66897641D01*
X144120990Y-66897814D01*
X144125803Y-66897214D01*
X144126640Y-66897063D01*
X144133915Y-66895702D01*
X144137648Y-66876529D01*
X144139576Y-66867276D01*
X144141241Y-66861345D01*
X144143007Y-66857869D01*
X144145239Y-66855981D01*
X144146531Y-66855404D01*
X144151895Y-66853857D01*
X144156329Y-66854160D01*
X144160697Y-66856769D01*
X144165862Y-66862140D01*
X144170727Y-66868190D01*
X144176689Y-66875670D01*
X144180977Y-66880224D01*
X144184427Y-66882341D01*
X144187872Y-66882510D01*
X144192150Y-66881221D01*
X144192658Y-66881029D01*
X144196569Y-66878591D01*
X144198006Y-66874337D01*
X144198103Y-66871812D01*
X144198330Y-66865708D01*
X144198915Y-66857530D01*
X144199467Y-66851639D01*
X144200328Y-66844473D01*
X144201492Y-66840354D01*
X144203686Y-66838115D01*
X144207637Y-66836589D01*
X144209123Y-66836140D01*
X144217414Y-66833663D01*
X144230634Y-66846733D01*
X144237550Y-66853413D01*
X144242411Y-66857440D01*
X144246094Y-66859227D01*
X144249478Y-66859182D01*
X144253439Y-66857715D01*
X144253793Y-66857555D01*
X144256061Y-66856311D01*
X144257458Y-66854500D01*
X144258141Y-66851251D01*
X144258269Y-66845690D01*
X144257999Y-66836945D01*
X144257912Y-66834764D01*
X144257085Y-66814221D01*
X144264633Y-66810630D01*
X144272182Y-66807040D01*
X144286993Y-66818600D01*
X144293941Y-66823783D01*
X144299847Y-66827752D01*
X144303781Y-66829900D01*
X144304613Y-66830113D01*
X144308268Y-66828842D01*
X144312029Y-66826407D01*
X144314325Y-66824353D01*
X144315481Y-66822073D01*
X144315590Y-66818490D01*
X144314746Y-66812525D01*
X144313733Y-66806869D01*
X144311915Y-66796504D01*
X144311037Y-66789452D01*
X144311212Y-66784869D01*
X144312553Y-66781915D01*
X144315174Y-66779747D01*
X144317573Y-66778384D01*
X144324542Y-66774641D01*
X144340661Y-66784403D01*
X144348082Y-66788767D01*
X144354198Y-66792125D01*
X144358063Y-66793966D01*
X144358795Y-66794165D01*
X144361526Y-66792756D01*
X144365339Y-66789355D01*
X144365466Y-66789221D01*
X144370122Y-66784277D01*
X144364415Y-66765918D01*
X144358709Y-66747559D01*
X144363684Y-66742277D01*
X144367813Y-66738672D01*
X144371166Y-66737009D01*
X144371369Y-66736996D01*
X144374432Y-66737807D01*
X144380308Y-66739974D01*
X144387944Y-66743099D01*
X144391442Y-66744610D01*
X144408805Y-66752225D01*
X144414056Y-66746986D01*
X144419308Y-66741748D01*
X144410802Y-66722631D01*
X144402295Y-66703514D01*
X144408423Y-66697658D01*
X144414550Y-66691802D01*
X144432914Y-66697481D01*
X144442545Y-66700274D01*
X144449094Y-66701486D01*
X144453463Y-66701006D01*
X144456551Y-66698722D01*
X144459258Y-66694525D01*
X144459423Y-66694219D01*
X144460032Y-66691458D01*
X144459035Y-66687527D01*
X144456131Y-66681632D01*
X144451878Y-66674384D01*
X144447525Y-66666947D01*
X144444202Y-66660722D01*
X144442423Y-66656699D01*
X144442259Y-66655931D01*
X144443499Y-66652516D01*
X144446235Y-66648261D01*
X144448351Y-66645753D01*
X144450582Y-66644404D01*
X144453990Y-66644083D01*
X144459638Y-66644663D01*
X144466884Y-66645751D01*
X144475290Y-66647110D01*
X144482376Y-66648363D01*
X144486833Y-66649275D01*
X144487289Y-66649394D01*
X144490583Y-66648780D01*
X144493745Y-66644575D01*
X144494502Y-66643071D01*
X144498030Y-66635691D01*
X144487457Y-66622293D01*
X144481287Y-66614420D01*
X144477392Y-66609056D01*
X144475436Y-66605369D01*
X144475084Y-66602528D01*
X144476000Y-66599702D01*
X144477291Y-66597143D01*
X144480703Y-66590561D01*
X144500280Y-66591129D01*
X144509148Y-66591231D01*
X144516478Y-66591029D01*
X144521182Y-66590564D01*
X144522192Y-66590258D01*
X144524413Y-66587280D01*
X144525950Y-66583158D01*
X144526275Y-66580113D01*
X144525266Y-66576990D01*
X144522421Y-66572999D01*
X144517234Y-66567349D01*
X144513289Y-66563338D01*
X144499203Y-66549179D01*
X144502350Y-66541666D01*
X144505497Y-66534152D01*
X144525777Y-66532636D01*
X144546056Y-66531119D01*
X144548474Y-66523812D01*
X144549872Y-66518900D01*
X144550234Y-66516120D01*
X144550149Y-66515952D01*
X144538895Y-66507271D01*
X144529877Y-66499701D01*
X144523450Y-66493573D01*
X144519965Y-66489215D01*
X144519467Y-66487393D01*
X144521070Y-66481787D01*
X144522729Y-66478110D01*
X144525337Y-66475754D01*
X144529788Y-66474110D01*
X144536975Y-66472569D01*
X144542858Y-66471463D01*
X144562802Y-66467716D01*
X144564201Y-66460276D01*
X144564957Y-66455217D01*
X144565011Y-66452378D01*
X144564933Y-66452228D01*
X144562940Y-66450936D01*
X144558164Y-66447985D01*
X144551458Y-66443901D01*
X144547815Y-66441699D01*
X144540024Y-66436914D01*
X144535186Y-66433506D01*
X144532598Y-66430697D01*
X144531559Y-66427712D01*
X144531364Y-66423774D01*
X144531364Y-66423529D01*
X144531364Y-66415282D01*
X144550999Y-66409205D01*
X144570634Y-66403128D01*
X144571187Y-66394849D01*
X144571741Y-66386570D01*
X144554206Y-66378720D01*
X144545914Y-66374943D01*
X144540728Y-66372195D01*
X144537876Y-66369787D01*
X144536586Y-66367028D01*
X144536085Y-66363227D01*
X144536026Y-66362466D01*
X144535381Y-66354062D01*
X144553670Y-66345512D01*
X144571960Y-66336963D01*
X144571297Y-66329030D01*
X144570634Y-66321097D01*
X144553572Y-66315721D01*
X144543843Y-66312579D01*
X144537470Y-66310153D01*
X144533745Y-66307936D01*
X144531958Y-66305422D01*
X144531402Y-66302106D01*
X144531364Y-66299852D01*
X144531392Y-66297327D01*
X144531799Y-66295240D01*
X144533067Y-66293189D01*
X144535682Y-66290776D01*
X144540127Y-66287601D01*
X144546886Y-66283265D01*
X144556442Y-66277367D01*
X144564731Y-66272295D01*
X144564732Y-66270253D01*
X144564142Y-66265571D01*
X144563951Y-66264358D01*
X144562707Y-66256707D01*
X144542811Y-66252969D01*
X144532962Y-66250940D01*
X144526638Y-66249134D01*
X144523144Y-66247302D01*
X144521833Y-66245381D01*
X144520273Y-66239837D01*
X144519636Y-66237577D01*
X144519978Y-66234862D01*
X144522663Y-66231209D01*
X144528139Y-66226108D01*
X144533964Y-66221333D01*
X144540727Y-66215960D01*
X144546091Y-66211716D01*
X144549300Y-66209199D01*
X144549869Y-66208769D01*
X144549612Y-66206796D01*
X144548397Y-66202243D01*
X144547974Y-66200838D01*
X144545618Y-66193181D01*
X144525534Y-66191679D01*
X144505451Y-66190177D01*
X144502327Y-66182719D01*
X144499203Y-66175262D01*
X144513580Y-66160810D01*
X144527957Y-66146358D01*
X144524590Y-66139314D01*
X144521222Y-66132269D01*
X144501002Y-66133152D01*
X144480782Y-66134034D01*
X144477417Y-66127542D01*
X144475155Y-66122933D01*
X144474069Y-66120233D01*
X144474052Y-66120105D01*
X144475264Y-66118126D01*
X144478512Y-66113611D01*
X144483213Y-66107358D01*
X144485913Y-66103847D01*
X144497775Y-66088533D01*
X144493873Y-66081300D01*
X144490509Y-66076401D01*
X144487185Y-66074926D01*
X144485726Y-66075121D01*
X144481572Y-66075981D01*
X144474682Y-66077240D01*
X144466515Y-66078633D01*
X144466146Y-66078694D01*
X144458206Y-66079925D01*
X144453303Y-66080287D01*
X144450288Y-66079630D01*
X144448015Y-66077804D01*
X144446582Y-66076147D01*
X144443555Y-66071809D01*
X144442282Y-66068610D01*
X144443274Y-66065774D01*
X144445984Y-66060309D01*
X144449910Y-66053199D01*
X144451772Y-66050008D01*
X144461332Y-66033878D01*
X144456679Y-66027601D01*
X144453433Y-66023510D01*
X144451340Y-66021401D01*
X144451144Y-66021324D01*
X144448859Y-66021912D01*
X144443495Y-66023486D01*
X144436025Y-66025757D01*
X144432324Y-66026903D01*
X144414385Y-66032482D01*
X144408208Y-66026579D01*
X144404550Y-66022531D01*
X144402937Y-66019611D01*
X144402997Y-66019117D01*
X144404222Y-66016576D01*
X144406660Y-66011132D01*
X144409868Y-66003784D01*
X144411235Y-66000611D01*
X144418507Y-65983664D01*
X144412847Y-65978261D01*
X144407187Y-65972859D01*
X144390382Y-65980152D01*
X144382476Y-65983467D01*
X144375932Y-65985993D01*
X144371812Y-65987332D01*
X144371117Y-65987446D01*
X144368097Y-65986023D01*
X144364063Y-65982561D01*
X144363718Y-65982201D01*
X144358779Y-65976957D01*
X144363649Y-65960498D01*
X144366025Y-65952534D01*
X144367988Y-65946074D01*
X144369192Y-65942252D01*
X144369337Y-65941833D01*
X144368329Y-65939282D01*
X144364804Y-65935725D01*
X144363659Y-65934836D01*
X144357163Y-65930045D01*
X144340852Y-65939923D01*
X144324542Y-65949800D01*
X144317573Y-65946057D01*
X144314057Y-65943937D01*
X144311909Y-65941565D01*
X144311010Y-65938088D01*
X144311238Y-65932654D01*
X144312472Y-65924409D01*
X144313596Y-65918029D01*
X144316363Y-65902606D01*
X144310503Y-65898443D01*
X144306126Y-65895613D01*
X144303313Y-65894294D01*
X144303182Y-65894281D01*
X144300959Y-65895499D01*
X144296257Y-65898754D01*
X144289920Y-65903451D01*
X144286861Y-65905799D01*
X144272001Y-65917316D01*
X144264654Y-65913821D01*
X144257308Y-65910326D01*
X144257715Y-65890187D01*
X144258122Y-65870047D01*
X144251131Y-65867202D01*
X144244140Y-65864356D01*
X144230777Y-65877568D01*
X144217414Y-65890779D01*
X144209123Y-65888301D01*
X144204563Y-65886766D01*
X144201960Y-65884838D01*
X144200586Y-65881350D01*
X144199715Y-65875136D01*
X144199467Y-65872803D01*
X144198719Y-65864544D01*
X144198223Y-65856943D01*
X144198103Y-65853037D01*
X144197573Y-65848416D01*
X144195179Y-65845779D01*
X144190230Y-65843882D01*
X144184938Y-65842733D01*
X144181577Y-65842876D01*
X144181208Y-65843155D01*
X144175865Y-65850428D01*
X144169932Y-65857632D01*
X144164143Y-65863974D01*
X144159230Y-65868662D01*
X144155925Y-65870904D01*
X144155475Y-65870990D01*
X144149279Y-65870416D01*
X144144922Y-65868215D01*
X144141813Y-65863667D01*
X144139365Y-65856054D01*
X144137939Y-65849568D01*
X144136148Y-65841384D01*
X144134451Y-65834868D01*
X144133136Y-65831086D01*
X144132824Y-65830610D01*
X144129765Y-65829251D01*
X144124780Y-65828005D01*
X144121612Y-65827647D01*
X144119055Y-65828374D01*
X144116417Y-65830830D01*
X144113007Y-65835655D01*
X144108164Y-65843445D01*
X144103344Y-65851244D01*
X144099988Y-65856066D01*
X144097356Y-65858551D01*
X144094702Y-65859339D01*
X144091285Y-65859069D01*
X144090212Y-65858909D01*
X144084734Y-65857810D01*
X144081282Y-65856617D01*
X144081008Y-65856422D01*
X144079784Y-65853910D01*
X144077761Y-65848372D01*
X144075311Y-65840852D01*
X144074489Y-65838171D01*
X144069379Y-65821232D01*
X144061039Y-65820649D01*
X144052700Y-65820066D01*
X144044900Y-65837059D01*
X144037100Y-65854051D01*
X144027863Y-65854051D01*
X144018626Y-65854051D01*
X144011252Y-65837054D01*
X144003878Y-65820057D01*
X143995472Y-65820645D01*
X143987066Y-65821232D01*
X143981346Y-65839230D01*
X143975626Y-65857227D01*
X143966402Y-65857843D01*
X143961422Y-65858027D01*
X143958090Y-65857236D01*
X143955314Y-65854698D01*
X143952001Y-65849636D01*
X143949966Y-65846198D01*
X143944770Y-65837595D01*
X143940935Y-65832102D01*
X143937799Y-65829105D01*
X143934702Y-65827990D01*
X143930983Y-65828143D01*
X143930590Y-65828199D01*
X143926564Y-65829189D01*
X143923710Y-65831290D01*
X143921603Y-65835288D01*
X143919818Y-65841969D01*
X143918060Y-65851356D01*
X143916612Y-65859241D01*
X143915246Y-65863968D01*
X143913354Y-65866555D01*
X143910327Y-65868024D01*
X143907643Y-65868812D01*
X143902290Y-65870213D01*
X143898904Y-65870947D01*
X143898588Y-65870978D01*
X143896903Y-65869467D01*
X143893359Y-65865531D01*
X143888713Y-65860077D01*
X143883723Y-65854013D01*
X143879146Y-65848248D01*
X143875740Y-65843690D01*
X143875369Y-65843155D01*
X143872804Y-65842622D01*
X143867909Y-65843433D01*
X143866614Y-65843800D01*
X143859007Y-65846129D01*
X143857148Y-65865163D01*
X143855290Y-65884196D01*
X143847156Y-65887417D01*
X143839021Y-65890638D01*
X143825450Y-65877221D01*
X143811879Y-65863804D01*
X143804795Y-65867174D01*
X143797710Y-65870544D01*
X143798549Y-65889294D01*
X143799388Y-65908044D01*
X143792673Y-65911750D01*
X143787628Y-65914224D01*
X143784065Y-65915432D01*
X143783779Y-65915455D01*
X143781205Y-65914214D01*
X143776285Y-65910913D01*
X143769946Y-65906188D01*
X143767917Y-65904596D01*
X143754236Y-65893736D01*
X143746920Y-65897666D01*
X143742294Y-65900162D01*
X143739765Y-65901548D01*
X143739604Y-65901644D01*
X143739972Y-65903583D01*
X143740949Y-65908692D01*
X143742346Y-65915981D01*
X143742788Y-65918288D01*
X143744541Y-65927419D01*
X143745454Y-65933357D01*
X143745373Y-65937087D01*
X143744143Y-65939597D01*
X143741610Y-65941871D01*
X143738760Y-65944018D01*
X143731548Y-65949505D01*
X143715481Y-65939775D01*
X143699415Y-65930045D01*
X143692976Y-65934794D01*
X143688836Y-65937915D01*
X143686642Y-65939701D01*
X143686537Y-65939830D01*
X143687102Y-65941840D01*
X143688610Y-65946966D01*
X143690785Y-65954269D01*
X143691844Y-65957802D01*
X143694222Y-65965790D01*
X143696049Y-65972043D01*
X143697046Y-65975604D01*
X143697150Y-65976066D01*
X143695633Y-65977574D01*
X143691820Y-65980679D01*
X143689962Y-65982113D01*
X143682773Y-65987582D01*
X143666082Y-65980229D01*
X143649390Y-65972877D01*
X143643702Y-65978298D01*
X143641082Y-65980860D01*
X143639616Y-65983094D01*
X143639413Y-65985855D01*
X143640582Y-65989997D01*
X143643232Y-65996377D01*
X143647103Y-66005026D01*
X143652620Y-66017312D01*
X143647038Y-66024611D01*
X143643557Y-66029047D01*
X143641349Y-66031636D01*
X143641022Y-66031911D01*
X143638938Y-66031347D01*
X143633740Y-66029840D01*
X143626381Y-66027667D01*
X143622857Y-66026617D01*
X143614855Y-66024245D01*
X143608597Y-66022423D01*
X143605041Y-66021428D01*
X143604584Y-66021324D01*
X143603134Y-66022861D01*
X143600239Y-66026660D01*
X143599499Y-66027687D01*
X143594957Y-66034050D01*
X143604479Y-66049695D01*
X143614002Y-66065340D01*
X143608801Y-66072975D01*
X143605233Y-66077639D01*
X143602413Y-66080340D01*
X143601740Y-66080610D01*
X143598896Y-66080235D01*
X143593035Y-66079241D01*
X143585304Y-66077826D01*
X143583448Y-66077474D01*
X143575137Y-66075969D01*
X143569970Y-66075373D01*
X143566937Y-66075714D01*
X143565030Y-66077020D01*
X143564214Y-66078003D01*
X143561224Y-66082635D01*
X143560332Y-66086797D01*
X143561759Y-66091459D01*
X143565726Y-66097589D01*
X143569907Y-66102990D01*
X143580947Y-66116829D01*
X143577061Y-66125425D01*
X143573175Y-66134021D01*
X143554277Y-66133120D01*
X143535379Y-66132219D01*
X143532001Y-66139286D01*
X143528623Y-66146352D01*
X143541788Y-66159602D01*
X143554953Y-66172852D01*
X143551517Y-66181577D01*
X143548081Y-66190302D01*
X143529310Y-66191784D01*
X143510540Y-66193266D01*
X143508077Y-66200711D01*
X143506823Y-66206417D01*
X143507542Y-66209442D01*
X143507611Y-66209492D01*
X143510148Y-66211382D01*
X143515028Y-66215157D01*
X143521277Y-66220062D01*
X143522407Y-66220955D01*
X143535206Y-66231082D01*
X143533075Y-66240369D01*
X143530945Y-66249656D01*
X143512870Y-66253001D01*
X143504687Y-66254562D01*
X143498304Y-66255868D01*
X143494711Y-66256713D01*
X143494273Y-66256878D01*
X143493581Y-66259098D01*
X143492555Y-66263863D01*
X143492373Y-66264821D01*
X143491842Y-66268430D01*
X143492288Y-66271115D01*
X143494360Y-66273621D01*
X143498709Y-66276694D01*
X143505983Y-66281078D01*
X143507139Y-66281760D01*
X143523284Y-66291289D01*
X143521907Y-66299758D01*
X143520720Y-66305470D01*
X143519464Y-66309228D01*
X143519157Y-66309702D01*
X143516600Y-66310993D01*
X143511063Y-66313087D01*
X143503634Y-66315576D01*
X143501864Y-66316134D01*
X143485944Y-66321091D01*
X143485429Y-66329481D01*
X143484914Y-66337871D01*
X143501879Y-66345718D01*
X143518845Y-66353566D01*
X143518845Y-66362288D01*
X143518845Y-66371010D01*
X143501810Y-66378790D01*
X143484775Y-66386570D01*
X143337581Y-66386570D01*
X143307696Y-66304220D01*
X143271236Y-66191787D01*
X143238410Y-66077382D01*
X143209250Y-65961067D01*
X143199632Y-65918631D01*
X143195950Y-65901623D01*
X143192045Y-65883049D01*
X143187996Y-65863332D01*
X143183883Y-65842896D01*
X143179786Y-65822164D01*
X143175785Y-65801560D01*
X143171958Y-65781507D01*
X143168386Y-65762428D01*
X143165149Y-65744747D01*
X143162326Y-65728888D01*
X143159996Y-65715273D01*
X143158240Y-65704327D01*
X143157138Y-65696472D01*
X143156768Y-65692132D01*
X143156881Y-65691414D01*
X143159336Y-65690609D01*
X143165567Y-65689113D01*
X143175174Y-65687003D01*
X143187757Y-65684358D01*
X143202919Y-65681256D01*
X143220260Y-65677773D01*
X143239379Y-65673989D01*
X143259879Y-65669982D01*
X143281359Y-65665828D01*
X143303421Y-65661607D01*
X143325665Y-65657395D01*
X143347693Y-65653272D01*
X143369104Y-65649314D01*
X143389500Y-65645600D01*
X143408481Y-65642208D01*
X143413773Y-65641276D01*
X143550956Y-65618461D01*
X143687543Y-65598259D01*
X143824090Y-65580617D01*
X143961153Y-65565482D01*
X144099289Y-65552802D01*
X144239054Y-65542522D01*
X144381003Y-65534590D01*
X144525694Y-65528952D01*
X144611495Y-65526704D01*
X144677829Y-65525267D01*
X144677829Y-66757873D01*
G37*
D12*
X152150000Y-63390000D02*
X153530000Y-63390000D01*
X152150000Y-64770000D02*
X152150000Y-63390000D01*
X152150000Y-66040000D02*
X152150000Y-83930000D01*
X152150000Y-66040000D02*
X154910000Y-66040000D01*
X152150000Y-83930000D02*
X154910000Y-83930000D01*
X154910000Y-66040000D02*
X154910000Y-83930000D01*
X134370000Y-65930000D02*
X135750000Y-65930000D01*
X134370000Y-67310000D02*
X134370000Y-65930000D01*
X134370000Y-68580000D02*
X134370000Y-81390000D01*
X134370000Y-68580000D02*
X137130000Y-68580000D01*
X134370000Y-81390000D02*
X137130000Y-81390000D01*
X137130000Y-68580000D02*
X137130000Y-81390000D01*
D14*
X142940576Y-76429700D02*
X146619424Y-76429700D01*
X146619424Y-71070300D02*
X142940576Y-71070300D01*
D13*
G36*
X148844000Y-75565501D02*
G01*
X148590000Y-75565501D01*
X148590000Y-75184501D01*
X148844000Y-75184501D01*
X148844000Y-75565501D01*
G37*
%LPC*%
D15*
X140250000Y-74385000D03*
X140250000Y-73425000D03*
D16*
X138500000Y-74435000D03*
X138500000Y-72885000D03*
D17*
X153530000Y-64770000D03*
D18*
X153530000Y-67310000D03*
X153530000Y-69850000D03*
X153530000Y-72390000D03*
X153530000Y-74930000D03*
X153530000Y-77470000D03*
X153530000Y-80010000D03*
X153530000Y-82550000D03*
D17*
X135750000Y-67310000D03*
D18*
X135750000Y-69850000D03*
X135750000Y-72390000D03*
X135750000Y-74930000D03*
X135750000Y-77470000D03*
X135750000Y-80010000D03*
D19*
X141960600Y-71475001D03*
X141960600Y-72124999D03*
X141960600Y-72775001D03*
X141960600Y-73424999D03*
X141960600Y-74074998D03*
X141960600Y-74724999D03*
X141960600Y-75374998D03*
X141960600Y-76024999D03*
X147599400Y-76024999D03*
X147599400Y-75375001D03*
X147599400Y-74724999D03*
X147599400Y-74075001D03*
X147599400Y-73425002D03*
X147599400Y-72775001D03*
X147599400Y-72125002D03*
X147599400Y-71475001D03*
%LPD*%
M02*
