%TF.GenerationSoftware,KiCad,Pcbnew,9.0.4*%
%TF.CreationDate,2025-12-19T17:43:13-05:00*%
%TF.ProjectId,AD5689RARUZ-RL7_breakboard,41443536-3839-4524-9152-555a2d524c37,rev?*%
%TF.SameCoordinates,Original*%
%TF.FileFunction,Drillmap*%
%TF.FilePolarity,Positive*%
%FSLAX45Y45*%
G04 Gerber Fmt 4.5, Leading zero omitted, Abs format (unit mm)*
G04 Created by KiCad (PCBNEW 9.0.4) date 2025-12-19 17:43:13*
%MOMM*%
%LPD*%
G01*
G04 APERTURE LIST*
%ADD10C,0.200000*%
G04 APERTURE END LIST*
D10*
X13275000Y-8450000D02*
X13275000Y-6275000D01*
X13275000Y-6275000D02*
G75*
G02*
X13375000Y-6175000I100000J0D01*
G01*
X13375000Y-8550000D02*
G75*
G02*
X13275000Y-8450000I0J100000D01*
G01*
X15575000Y-8450000D02*
G75*
G02*
X15475000Y-8550000I-100000J0D01*
G01*
X15575000Y-6275000D02*
X15575000Y-8450000D01*
X13375000Y-6175000D02*
X15475000Y-6175000D01*
X13375000Y-8550000D02*
X15475000Y-8550000D01*
X15475000Y-6175000D02*
G75*
G02*
X15575000Y-6275000I0J-100000D01*
G01*
X13525777Y-8871484D02*
X13525777Y-8671484D01*
X13525777Y-8671484D02*
X13573396Y-8671484D01*
X13573396Y-8671484D02*
X13601967Y-8681008D01*
X13601967Y-8681008D02*
X13621015Y-8700055D01*
X13621015Y-8700055D02*
X13630539Y-8719103D01*
X13630539Y-8719103D02*
X13640062Y-8757198D01*
X13640062Y-8757198D02*
X13640062Y-8785770D01*
X13640062Y-8785770D02*
X13630539Y-8823865D01*
X13630539Y-8823865D02*
X13621015Y-8842912D01*
X13621015Y-8842912D02*
X13601967Y-8861960D01*
X13601967Y-8861960D02*
X13573396Y-8871484D01*
X13573396Y-8871484D02*
X13525777Y-8871484D01*
X13725777Y-8871484D02*
X13725777Y-8738150D01*
X13725777Y-8776246D02*
X13735301Y-8757198D01*
X13735301Y-8757198D02*
X13744824Y-8747674D01*
X13744824Y-8747674D02*
X13763872Y-8738150D01*
X13763872Y-8738150D02*
X13782920Y-8738150D01*
X13849586Y-8871484D02*
X13849586Y-8738150D01*
X13849586Y-8671484D02*
X13840062Y-8681008D01*
X13840062Y-8681008D02*
X13849586Y-8690531D01*
X13849586Y-8690531D02*
X13859110Y-8681008D01*
X13859110Y-8681008D02*
X13849586Y-8671484D01*
X13849586Y-8671484D02*
X13849586Y-8690531D01*
X13973396Y-8871484D02*
X13954348Y-8861960D01*
X13954348Y-8861960D02*
X13944824Y-8842912D01*
X13944824Y-8842912D02*
X13944824Y-8671484D01*
X14078158Y-8871484D02*
X14059110Y-8861960D01*
X14059110Y-8861960D02*
X14049586Y-8842912D01*
X14049586Y-8842912D02*
X14049586Y-8671484D01*
X14306729Y-8871484D02*
X14306729Y-8671484D01*
X14306729Y-8671484D02*
X14373396Y-8814341D01*
X14373396Y-8814341D02*
X14440062Y-8671484D01*
X14440062Y-8671484D02*
X14440062Y-8871484D01*
X14621015Y-8871484D02*
X14621015Y-8766722D01*
X14621015Y-8766722D02*
X14611491Y-8747674D01*
X14611491Y-8747674D02*
X14592443Y-8738150D01*
X14592443Y-8738150D02*
X14554348Y-8738150D01*
X14554348Y-8738150D02*
X14535301Y-8747674D01*
X14621015Y-8861960D02*
X14601967Y-8871484D01*
X14601967Y-8871484D02*
X14554348Y-8871484D01*
X14554348Y-8871484D02*
X14535301Y-8861960D01*
X14535301Y-8861960D02*
X14525777Y-8842912D01*
X14525777Y-8842912D02*
X14525777Y-8823865D01*
X14525777Y-8823865D02*
X14535301Y-8804817D01*
X14535301Y-8804817D02*
X14554348Y-8795293D01*
X14554348Y-8795293D02*
X14601967Y-8795293D01*
X14601967Y-8795293D02*
X14621015Y-8785770D01*
X14716253Y-8738150D02*
X14716253Y-8938150D01*
X14716253Y-8747674D02*
X14735301Y-8738150D01*
X14735301Y-8738150D02*
X14773396Y-8738150D01*
X14773396Y-8738150D02*
X14792443Y-8747674D01*
X14792443Y-8747674D02*
X14801967Y-8757198D01*
X14801967Y-8757198D02*
X14811491Y-8776246D01*
X14811491Y-8776246D02*
X14811491Y-8833389D01*
X14811491Y-8833389D02*
X14801967Y-8852436D01*
X14801967Y-8852436D02*
X14792443Y-8861960D01*
X14792443Y-8861960D02*
X14773396Y-8871484D01*
X14773396Y-8871484D02*
X14735301Y-8871484D01*
X14735301Y-8871484D02*
X14716253Y-8861960D01*
X14897205Y-8852436D02*
X14906729Y-8861960D01*
X14906729Y-8861960D02*
X14897205Y-8871484D01*
X14897205Y-8871484D02*
X14887682Y-8861960D01*
X14887682Y-8861960D02*
X14897205Y-8852436D01*
X14897205Y-8852436D02*
X14897205Y-8871484D01*
X14897205Y-8747674D02*
X14906729Y-8757198D01*
X14906729Y-8757198D02*
X14897205Y-8766722D01*
X14897205Y-8766722D02*
X14887682Y-8757198D01*
X14887682Y-8757198D02*
X14897205Y-8747674D01*
X14897205Y-8747674D02*
X14897205Y-8766722D01*
M02*
