G04 #@! TF.GenerationSoftware,KiCad,Pcbnew,9.0.7*
G04 #@! TF.CreationDate,2026-02-21T13:48:30-05:00*
G04 #@! TF.ProjectId,DB44_Male_Breakout,44423434-5f4d-4616-9c65-5f427265616b,rev?*
G04 #@! TF.SameCoordinates,Original*
G04 #@! TF.FileFunction,Legend,Top*
G04 #@! TF.FilePolarity,Positive*
%FSLAX46Y46*%
G04 Gerber Fmt 4.6, Leading zero omitted, Abs format (unit mm)*
G04 Created by KiCad (PCBNEW 9.0.7) date 2026-02-21 13:48:30*
%MOMM*%
%LPD*%
G01*
G04 APERTURE LIST*
%ADD10C,0.100000*%
%ADD11C,0.150000*%
%ADD12C,0.000000*%
%ADD13C,0.120000*%
G04 APERTURE END LIST*
D10*
X75887217Y-47688665D02*
X76030074Y-47736284D01*
X76030074Y-47736284D02*
X76077693Y-47783903D01*
X76077693Y-47783903D02*
X76125312Y-47879141D01*
X76125312Y-47879141D02*
X76125312Y-48021998D01*
X76125312Y-48021998D02*
X76077693Y-48117236D01*
X76077693Y-48117236D02*
X76030074Y-48164856D01*
X76030074Y-48164856D02*
X75934836Y-48212475D01*
X75934836Y-48212475D02*
X75553884Y-48212475D01*
X75553884Y-48212475D02*
X75553884Y-47212475D01*
X75553884Y-47212475D02*
X75887217Y-47212475D01*
X75887217Y-47212475D02*
X75982455Y-47260094D01*
X75982455Y-47260094D02*
X76030074Y-47307713D01*
X76030074Y-47307713D02*
X76077693Y-47402951D01*
X76077693Y-47402951D02*
X76077693Y-47498189D01*
X76077693Y-47498189D02*
X76030074Y-47593427D01*
X76030074Y-47593427D02*
X75982455Y-47641046D01*
X75982455Y-47641046D02*
X75887217Y-47688665D01*
X75887217Y-47688665D02*
X75553884Y-47688665D01*
X76696741Y-48212475D02*
X76601503Y-48164856D01*
X76601503Y-48164856D02*
X76553884Y-48069617D01*
X76553884Y-48069617D02*
X76553884Y-47212475D01*
X77506265Y-47545808D02*
X77506265Y-48212475D01*
X77077694Y-47545808D02*
X77077694Y-48069617D01*
X77077694Y-48069617D02*
X77125313Y-48164856D01*
X77125313Y-48164856D02*
X77220551Y-48212475D01*
X77220551Y-48212475D02*
X77363408Y-48212475D01*
X77363408Y-48212475D02*
X77458646Y-48164856D01*
X77458646Y-48164856D02*
X77506265Y-48117236D01*
X78363408Y-48164856D02*
X78268170Y-48212475D01*
X78268170Y-48212475D02*
X78077694Y-48212475D01*
X78077694Y-48212475D02*
X77982456Y-48164856D01*
X77982456Y-48164856D02*
X77934837Y-48069617D01*
X77934837Y-48069617D02*
X77934837Y-47688665D01*
X77934837Y-47688665D02*
X77982456Y-47593427D01*
X77982456Y-47593427D02*
X78077694Y-47545808D01*
X78077694Y-47545808D02*
X78268170Y-47545808D01*
X78268170Y-47545808D02*
X78363408Y-47593427D01*
X78363408Y-47593427D02*
X78411027Y-47688665D01*
X78411027Y-47688665D02*
X78411027Y-47783903D01*
X78411027Y-47783903D02*
X77934837Y-47879141D01*
X79887218Y-47212475D02*
X79887218Y-47926760D01*
X79887218Y-47926760D02*
X79839599Y-48069617D01*
X79839599Y-48069617D02*
X79744361Y-48164856D01*
X79744361Y-48164856D02*
X79601504Y-48212475D01*
X79601504Y-48212475D02*
X79506266Y-48212475D01*
X80791980Y-48212475D02*
X80791980Y-47688665D01*
X80791980Y-47688665D02*
X80744361Y-47593427D01*
X80744361Y-47593427D02*
X80649123Y-47545808D01*
X80649123Y-47545808D02*
X80458647Y-47545808D01*
X80458647Y-47545808D02*
X80363409Y-47593427D01*
X80791980Y-48164856D02*
X80696742Y-48212475D01*
X80696742Y-48212475D02*
X80458647Y-48212475D01*
X80458647Y-48212475D02*
X80363409Y-48164856D01*
X80363409Y-48164856D02*
X80315790Y-48069617D01*
X80315790Y-48069617D02*
X80315790Y-47974379D01*
X80315790Y-47974379D02*
X80363409Y-47879141D01*
X80363409Y-47879141D02*
X80458647Y-47831522D01*
X80458647Y-47831522D02*
X80696742Y-47831522D01*
X80696742Y-47831522D02*
X80791980Y-47783903D01*
X81172933Y-47545808D02*
X81411028Y-48212475D01*
X81649123Y-47545808D02*
X81411028Y-48212475D01*
X81411028Y-48212475D02*
X81315790Y-48450570D01*
X81315790Y-48450570D02*
X81268171Y-48498189D01*
X81268171Y-48498189D02*
X81172933Y-48545808D01*
X81982457Y-48164856D02*
X82077695Y-48212475D01*
X82077695Y-48212475D02*
X82268171Y-48212475D01*
X82268171Y-48212475D02*
X82363409Y-48164856D01*
X82363409Y-48164856D02*
X82411028Y-48069617D01*
X82411028Y-48069617D02*
X82411028Y-48021998D01*
X82411028Y-48021998D02*
X82363409Y-47926760D01*
X82363409Y-47926760D02*
X82268171Y-47879141D01*
X82268171Y-47879141D02*
X82125314Y-47879141D01*
X82125314Y-47879141D02*
X82030076Y-47831522D01*
X82030076Y-47831522D02*
X81982457Y-47736284D01*
X81982457Y-47736284D02*
X81982457Y-47688665D01*
X81982457Y-47688665D02*
X82030076Y-47593427D01*
X82030076Y-47593427D02*
X82125314Y-47545808D01*
X82125314Y-47545808D02*
X82268171Y-47545808D01*
X82268171Y-47545808D02*
X82363409Y-47593427D01*
X84172933Y-48212475D02*
X83839600Y-47736284D01*
X83601505Y-48212475D02*
X83601505Y-47212475D01*
X83601505Y-47212475D02*
X83982457Y-47212475D01*
X83982457Y-47212475D02*
X84077695Y-47260094D01*
X84077695Y-47260094D02*
X84125314Y-47307713D01*
X84125314Y-47307713D02*
X84172933Y-47402951D01*
X84172933Y-47402951D02*
X84172933Y-47545808D01*
X84172933Y-47545808D02*
X84125314Y-47641046D01*
X84125314Y-47641046D02*
X84077695Y-47688665D01*
X84077695Y-47688665D02*
X83982457Y-47736284D01*
X83982457Y-47736284D02*
X83601505Y-47736284D01*
X85030076Y-48212475D02*
X85030076Y-47688665D01*
X85030076Y-47688665D02*
X84982457Y-47593427D01*
X84982457Y-47593427D02*
X84887219Y-47545808D01*
X84887219Y-47545808D02*
X84696743Y-47545808D01*
X84696743Y-47545808D02*
X84601505Y-47593427D01*
X85030076Y-48164856D02*
X84934838Y-48212475D01*
X84934838Y-48212475D02*
X84696743Y-48212475D01*
X84696743Y-48212475D02*
X84601505Y-48164856D01*
X84601505Y-48164856D02*
X84553886Y-48069617D01*
X84553886Y-48069617D02*
X84553886Y-47974379D01*
X84553886Y-47974379D02*
X84601505Y-47879141D01*
X84601505Y-47879141D02*
X84696743Y-47831522D01*
X84696743Y-47831522D02*
X84934838Y-47831522D01*
X84934838Y-47831522D02*
X85030076Y-47783903D01*
X85934838Y-48164856D02*
X85839600Y-48212475D01*
X85839600Y-48212475D02*
X85649124Y-48212475D01*
X85649124Y-48212475D02*
X85553886Y-48164856D01*
X85553886Y-48164856D02*
X85506267Y-48117236D01*
X85506267Y-48117236D02*
X85458648Y-48021998D01*
X85458648Y-48021998D02*
X85458648Y-47736284D01*
X85458648Y-47736284D02*
X85506267Y-47641046D01*
X85506267Y-47641046D02*
X85553886Y-47593427D01*
X85553886Y-47593427D02*
X85649124Y-47545808D01*
X85649124Y-47545808D02*
X85839600Y-47545808D01*
X85839600Y-47545808D02*
X85934838Y-47593427D01*
X86363410Y-48212475D02*
X86363410Y-47545808D01*
X86363410Y-47212475D02*
X86315791Y-47260094D01*
X86315791Y-47260094D02*
X86363410Y-47307713D01*
X86363410Y-47307713D02*
X86411029Y-47260094D01*
X86411029Y-47260094D02*
X86363410Y-47212475D01*
X86363410Y-47212475D02*
X86363410Y-47307713D01*
X86839600Y-47545808D02*
X86839600Y-48212475D01*
X86839600Y-47641046D02*
X86887219Y-47593427D01*
X86887219Y-47593427D02*
X86982457Y-47545808D01*
X86982457Y-47545808D02*
X87125314Y-47545808D01*
X87125314Y-47545808D02*
X87220552Y-47593427D01*
X87220552Y-47593427D02*
X87268171Y-47688665D01*
X87268171Y-47688665D02*
X87268171Y-48212475D01*
X88172933Y-47545808D02*
X88172933Y-48355332D01*
X88172933Y-48355332D02*
X88125314Y-48450570D01*
X88125314Y-48450570D02*
X88077695Y-48498189D01*
X88077695Y-48498189D02*
X87982457Y-48545808D01*
X87982457Y-48545808D02*
X87839600Y-48545808D01*
X87839600Y-48545808D02*
X87744362Y-48498189D01*
X88172933Y-48164856D02*
X88077695Y-48212475D01*
X88077695Y-48212475D02*
X87887219Y-48212475D01*
X87887219Y-48212475D02*
X87791981Y-48164856D01*
X87791981Y-48164856D02*
X87744362Y-48117236D01*
X87744362Y-48117236D02*
X87696743Y-48021998D01*
X87696743Y-48021998D02*
X87696743Y-47736284D01*
X87696743Y-47736284D02*
X87744362Y-47641046D01*
X87744362Y-47641046D02*
X87791981Y-47593427D01*
X87791981Y-47593427D02*
X87887219Y-47545808D01*
X87887219Y-47545808D02*
X88077695Y-47545808D01*
X88077695Y-47545808D02*
X88172933Y-47593427D01*
X90030076Y-47736284D02*
X89982457Y-47688665D01*
X89982457Y-47688665D02*
X89887219Y-47641046D01*
X89887219Y-47641046D02*
X89791981Y-47641046D01*
X89791981Y-47641046D02*
X89696743Y-47688665D01*
X89696743Y-47688665D02*
X89649124Y-47736284D01*
X89649124Y-47736284D02*
X89601505Y-47831522D01*
X89601505Y-47831522D02*
X89601505Y-47926760D01*
X89601505Y-47926760D02*
X89649124Y-48021998D01*
X89649124Y-48021998D02*
X89696743Y-48069617D01*
X89696743Y-48069617D02*
X89791981Y-48117236D01*
X89791981Y-48117236D02*
X89887219Y-48117236D01*
X89887219Y-48117236D02*
X89982457Y-48069617D01*
X89982457Y-48069617D02*
X90030076Y-48021998D01*
X90030076Y-47641046D02*
X90030076Y-48021998D01*
X90030076Y-48021998D02*
X90077695Y-48069617D01*
X90077695Y-48069617D02*
X90125314Y-48069617D01*
X90125314Y-48069617D02*
X90220553Y-48021998D01*
X90220553Y-48021998D02*
X90268172Y-47926760D01*
X90268172Y-47926760D02*
X90268172Y-47688665D01*
X90268172Y-47688665D02*
X90172934Y-47545808D01*
X90172934Y-47545808D02*
X90030076Y-47450570D01*
X90030076Y-47450570D02*
X89839600Y-47402951D01*
X89839600Y-47402951D02*
X89649124Y-47450570D01*
X89649124Y-47450570D02*
X89506267Y-47545808D01*
X89506267Y-47545808D02*
X89411029Y-47688665D01*
X89411029Y-47688665D02*
X89363410Y-47879141D01*
X89363410Y-47879141D02*
X89411029Y-48069617D01*
X89411029Y-48069617D02*
X89506267Y-48212475D01*
X89506267Y-48212475D02*
X89649124Y-48307713D01*
X89649124Y-48307713D02*
X89839600Y-48355332D01*
X89839600Y-48355332D02*
X90030076Y-48307713D01*
X90030076Y-48307713D02*
X90172934Y-48212475D01*
X91744362Y-47212475D02*
X91744362Y-47926760D01*
X91744362Y-47926760D02*
X91696743Y-48069617D01*
X91696743Y-48069617D02*
X91601505Y-48164856D01*
X91601505Y-48164856D02*
X91458648Y-48212475D01*
X91458648Y-48212475D02*
X91363410Y-48212475D01*
X92220553Y-48212475D02*
X92220553Y-47212475D01*
X92220553Y-47688665D02*
X92791981Y-47688665D01*
X92791981Y-48212475D02*
X92791981Y-47212475D01*
X93268172Y-47212475D02*
X93268172Y-48021998D01*
X93268172Y-48021998D02*
X93315791Y-48117236D01*
X93315791Y-48117236D02*
X93363410Y-48164856D01*
X93363410Y-48164856D02*
X93458648Y-48212475D01*
X93458648Y-48212475D02*
X93649124Y-48212475D01*
X93649124Y-48212475D02*
X93744362Y-48164856D01*
X93744362Y-48164856D02*
X93791981Y-48117236D01*
X93791981Y-48117236D02*
X93839600Y-48021998D01*
X93839600Y-48021998D02*
X93839600Y-47212475D01*
X75506265Y-48917657D02*
X75553884Y-48870038D01*
X75553884Y-48870038D02*
X75649122Y-48822419D01*
X75649122Y-48822419D02*
X75887217Y-48822419D01*
X75887217Y-48822419D02*
X75982455Y-48870038D01*
X75982455Y-48870038D02*
X76030074Y-48917657D01*
X76030074Y-48917657D02*
X76077693Y-49012895D01*
X76077693Y-49012895D02*
X76077693Y-49108133D01*
X76077693Y-49108133D02*
X76030074Y-49250990D01*
X76030074Y-49250990D02*
X75458646Y-49822419D01*
X75458646Y-49822419D02*
X76077693Y-49822419D01*
X76458646Y-48917657D02*
X76506265Y-48870038D01*
X76506265Y-48870038D02*
X76601503Y-48822419D01*
X76601503Y-48822419D02*
X76839598Y-48822419D01*
X76839598Y-48822419D02*
X76934836Y-48870038D01*
X76934836Y-48870038D02*
X76982455Y-48917657D01*
X76982455Y-48917657D02*
X77030074Y-49012895D01*
X77030074Y-49012895D02*
X77030074Y-49108133D01*
X77030074Y-49108133D02*
X76982455Y-49250990D01*
X76982455Y-49250990D02*
X76411027Y-49822419D01*
X76411027Y-49822419D02*
X77030074Y-49822419D01*
X77363408Y-48822419D02*
X78030074Y-49822419D01*
X78030074Y-48822419D02*
X77363408Y-49822419D01*
X78268170Y-48822419D02*
X78839598Y-48822419D01*
X78553884Y-49822419D02*
X78553884Y-48822419D01*
X79172932Y-49727180D02*
X79220551Y-49774800D01*
X79220551Y-49774800D02*
X79172932Y-49822419D01*
X79172932Y-49822419D02*
X79125313Y-49774800D01*
X79125313Y-49774800D02*
X79172932Y-49727180D01*
X79172932Y-49727180D02*
X79172932Y-49822419D01*
X79172932Y-49203371D02*
X79220551Y-49250990D01*
X79220551Y-49250990D02*
X79172932Y-49298609D01*
X79172932Y-49298609D02*
X79125313Y-49250990D01*
X79125313Y-49250990D02*
X79172932Y-49203371D01*
X79172932Y-49203371D02*
X79172932Y-49298609D01*
X80411027Y-49822419D02*
X80411027Y-48822419D01*
X80411027Y-48822419D02*
X80649122Y-48822419D01*
X80649122Y-48822419D02*
X80791979Y-48870038D01*
X80791979Y-48870038D02*
X80887217Y-48965276D01*
X80887217Y-48965276D02*
X80934836Y-49060514D01*
X80934836Y-49060514D02*
X80982455Y-49250990D01*
X80982455Y-49250990D02*
X80982455Y-49393847D01*
X80982455Y-49393847D02*
X80934836Y-49584323D01*
X80934836Y-49584323D02*
X80887217Y-49679561D01*
X80887217Y-49679561D02*
X80791979Y-49774800D01*
X80791979Y-49774800D02*
X80649122Y-49822419D01*
X80649122Y-49822419D02*
X80411027Y-49822419D01*
X81744360Y-49298609D02*
X81887217Y-49346228D01*
X81887217Y-49346228D02*
X81934836Y-49393847D01*
X81934836Y-49393847D02*
X81982455Y-49489085D01*
X81982455Y-49489085D02*
X81982455Y-49631942D01*
X81982455Y-49631942D02*
X81934836Y-49727180D01*
X81934836Y-49727180D02*
X81887217Y-49774800D01*
X81887217Y-49774800D02*
X81791979Y-49822419D01*
X81791979Y-49822419D02*
X81411027Y-49822419D01*
X81411027Y-49822419D02*
X81411027Y-48822419D01*
X81411027Y-48822419D02*
X81744360Y-48822419D01*
X81744360Y-48822419D02*
X81839598Y-48870038D01*
X81839598Y-48870038D02*
X81887217Y-48917657D01*
X81887217Y-48917657D02*
X81934836Y-49012895D01*
X81934836Y-49012895D02*
X81934836Y-49108133D01*
X81934836Y-49108133D02*
X81887217Y-49203371D01*
X81887217Y-49203371D02*
X81839598Y-49250990D01*
X81839598Y-49250990D02*
X81744360Y-49298609D01*
X81744360Y-49298609D02*
X81411027Y-49298609D01*
X82839598Y-49155752D02*
X82839598Y-49822419D01*
X82601503Y-48774800D02*
X82363408Y-49489085D01*
X82363408Y-49489085D02*
X82982455Y-49489085D01*
X83791979Y-49155752D02*
X83791979Y-49822419D01*
X83553884Y-48774800D02*
X83315789Y-49489085D01*
X83315789Y-49489085D02*
X83934836Y-49489085D01*
X85077694Y-49822419D02*
X85077694Y-48822419D01*
X85077694Y-48822419D02*
X85411027Y-49536704D01*
X85411027Y-49536704D02*
X85744360Y-48822419D01*
X85744360Y-48822419D02*
X85744360Y-49822419D01*
X86649122Y-49822419D02*
X86649122Y-49298609D01*
X86649122Y-49298609D02*
X86601503Y-49203371D01*
X86601503Y-49203371D02*
X86506265Y-49155752D01*
X86506265Y-49155752D02*
X86315789Y-49155752D01*
X86315789Y-49155752D02*
X86220551Y-49203371D01*
X86649122Y-49774800D02*
X86553884Y-49822419D01*
X86553884Y-49822419D02*
X86315789Y-49822419D01*
X86315789Y-49822419D02*
X86220551Y-49774800D01*
X86220551Y-49774800D02*
X86172932Y-49679561D01*
X86172932Y-49679561D02*
X86172932Y-49584323D01*
X86172932Y-49584323D02*
X86220551Y-49489085D01*
X86220551Y-49489085D02*
X86315789Y-49441466D01*
X86315789Y-49441466D02*
X86553884Y-49441466D01*
X86553884Y-49441466D02*
X86649122Y-49393847D01*
X87268170Y-49822419D02*
X87172932Y-49774800D01*
X87172932Y-49774800D02*
X87125313Y-49679561D01*
X87125313Y-49679561D02*
X87125313Y-48822419D01*
X88030075Y-49774800D02*
X87934837Y-49822419D01*
X87934837Y-49822419D02*
X87744361Y-49822419D01*
X87744361Y-49822419D02*
X87649123Y-49774800D01*
X87649123Y-49774800D02*
X87601504Y-49679561D01*
X87601504Y-49679561D02*
X87601504Y-49298609D01*
X87601504Y-49298609D02*
X87649123Y-49203371D01*
X87649123Y-49203371D02*
X87744361Y-49155752D01*
X87744361Y-49155752D02*
X87934837Y-49155752D01*
X87934837Y-49155752D02*
X88030075Y-49203371D01*
X88030075Y-49203371D02*
X88077694Y-49298609D01*
X88077694Y-49298609D02*
X88077694Y-49393847D01*
X88077694Y-49393847D02*
X87601504Y-49489085D01*
X89601504Y-49298609D02*
X89744361Y-49346228D01*
X89744361Y-49346228D02*
X89791980Y-49393847D01*
X89791980Y-49393847D02*
X89839599Y-49489085D01*
X89839599Y-49489085D02*
X89839599Y-49631942D01*
X89839599Y-49631942D02*
X89791980Y-49727180D01*
X89791980Y-49727180D02*
X89744361Y-49774800D01*
X89744361Y-49774800D02*
X89649123Y-49822419D01*
X89649123Y-49822419D02*
X89268171Y-49822419D01*
X89268171Y-49822419D02*
X89268171Y-48822419D01*
X89268171Y-48822419D02*
X89601504Y-48822419D01*
X89601504Y-48822419D02*
X89696742Y-48870038D01*
X89696742Y-48870038D02*
X89744361Y-48917657D01*
X89744361Y-48917657D02*
X89791980Y-49012895D01*
X89791980Y-49012895D02*
X89791980Y-49108133D01*
X89791980Y-49108133D02*
X89744361Y-49203371D01*
X89744361Y-49203371D02*
X89696742Y-49250990D01*
X89696742Y-49250990D02*
X89601504Y-49298609D01*
X89601504Y-49298609D02*
X89268171Y-49298609D01*
X90268171Y-49822419D02*
X90268171Y-49155752D01*
X90268171Y-49346228D02*
X90315790Y-49250990D01*
X90315790Y-49250990D02*
X90363409Y-49203371D01*
X90363409Y-49203371D02*
X90458647Y-49155752D01*
X90458647Y-49155752D02*
X90553885Y-49155752D01*
X91268171Y-49774800D02*
X91172933Y-49822419D01*
X91172933Y-49822419D02*
X90982457Y-49822419D01*
X90982457Y-49822419D02*
X90887219Y-49774800D01*
X90887219Y-49774800D02*
X90839600Y-49679561D01*
X90839600Y-49679561D02*
X90839600Y-49298609D01*
X90839600Y-49298609D02*
X90887219Y-49203371D01*
X90887219Y-49203371D02*
X90982457Y-49155752D01*
X90982457Y-49155752D02*
X91172933Y-49155752D01*
X91172933Y-49155752D02*
X91268171Y-49203371D01*
X91268171Y-49203371D02*
X91315790Y-49298609D01*
X91315790Y-49298609D02*
X91315790Y-49393847D01*
X91315790Y-49393847D02*
X90839600Y-49489085D01*
X92172933Y-49822419D02*
X92172933Y-49298609D01*
X92172933Y-49298609D02*
X92125314Y-49203371D01*
X92125314Y-49203371D02*
X92030076Y-49155752D01*
X92030076Y-49155752D02*
X91839600Y-49155752D01*
X91839600Y-49155752D02*
X91744362Y-49203371D01*
X92172933Y-49774800D02*
X92077695Y-49822419D01*
X92077695Y-49822419D02*
X91839600Y-49822419D01*
X91839600Y-49822419D02*
X91744362Y-49774800D01*
X91744362Y-49774800D02*
X91696743Y-49679561D01*
X91696743Y-49679561D02*
X91696743Y-49584323D01*
X91696743Y-49584323D02*
X91744362Y-49489085D01*
X91744362Y-49489085D02*
X91839600Y-49441466D01*
X91839600Y-49441466D02*
X92077695Y-49441466D01*
X92077695Y-49441466D02*
X92172933Y-49393847D01*
X92649124Y-49822419D02*
X92649124Y-48822419D01*
X92744362Y-49441466D02*
X93030076Y-49822419D01*
X93030076Y-49155752D02*
X92649124Y-49536704D01*
X93601505Y-49822419D02*
X93506267Y-49774800D01*
X93506267Y-49774800D02*
X93458648Y-49727180D01*
X93458648Y-49727180D02*
X93411029Y-49631942D01*
X93411029Y-49631942D02*
X93411029Y-49346228D01*
X93411029Y-49346228D02*
X93458648Y-49250990D01*
X93458648Y-49250990D02*
X93506267Y-49203371D01*
X93506267Y-49203371D02*
X93601505Y-49155752D01*
X93601505Y-49155752D02*
X93744362Y-49155752D01*
X93744362Y-49155752D02*
X93839600Y-49203371D01*
X93839600Y-49203371D02*
X93887219Y-49250990D01*
X93887219Y-49250990D02*
X93934838Y-49346228D01*
X93934838Y-49346228D02*
X93934838Y-49631942D01*
X93934838Y-49631942D02*
X93887219Y-49727180D01*
X93887219Y-49727180D02*
X93839600Y-49774800D01*
X93839600Y-49774800D02*
X93744362Y-49822419D01*
X93744362Y-49822419D02*
X93601505Y-49822419D01*
X94791981Y-49155752D02*
X94791981Y-49822419D01*
X94363410Y-49155752D02*
X94363410Y-49679561D01*
X94363410Y-49679561D02*
X94411029Y-49774800D01*
X94411029Y-49774800D02*
X94506267Y-49822419D01*
X94506267Y-49822419D02*
X94649124Y-49822419D01*
X94649124Y-49822419D02*
X94744362Y-49774800D01*
X94744362Y-49774800D02*
X94791981Y-49727180D01*
X95125315Y-49155752D02*
X95506267Y-49155752D01*
X95268172Y-48822419D02*
X95268172Y-49679561D01*
X95268172Y-49679561D02*
X95315791Y-49774800D01*
X95315791Y-49774800D02*
X95411029Y-49822419D01*
X95411029Y-49822419D02*
X95506267Y-49822419D01*
X173557455Y-113780752D02*
X173557455Y-114447419D01*
X173319360Y-113399800D02*
X173081265Y-114114085D01*
X173081265Y-114114085D02*
X173700312Y-114114085D01*
X174033646Y-113542657D02*
X174081265Y-113495038D01*
X174081265Y-113495038D02*
X174176503Y-113447419D01*
X174176503Y-113447419D02*
X174414598Y-113447419D01*
X174414598Y-113447419D02*
X174509836Y-113495038D01*
X174509836Y-113495038D02*
X174557455Y-113542657D01*
X174557455Y-113542657D02*
X174605074Y-113637895D01*
X174605074Y-113637895D02*
X174605074Y-113733133D01*
X174605074Y-113733133D02*
X174557455Y-113875990D01*
X174557455Y-113875990D02*
X173986027Y-114447419D01*
X173986027Y-114447419D02*
X174605074Y-114447419D01*
X173557455Y-118405752D02*
X173557455Y-119072419D01*
X173319360Y-118024800D02*
X173081265Y-118739085D01*
X173081265Y-118739085D02*
X173700312Y-118739085D01*
X174605074Y-119072419D02*
X174033646Y-119072419D01*
X174319360Y-119072419D02*
X174319360Y-118072419D01*
X174319360Y-118072419D02*
X174224122Y-118215276D01*
X174224122Y-118215276D02*
X174128884Y-118310514D01*
X174128884Y-118310514D02*
X174033646Y-118358133D01*
X173482455Y-103330752D02*
X173482455Y-103997419D01*
X173244360Y-102949800D02*
X173006265Y-103664085D01*
X173006265Y-103664085D02*
X173625312Y-103664085D01*
X174434836Y-103330752D02*
X174434836Y-103997419D01*
X174196741Y-102949800D02*
X173958646Y-103664085D01*
X173958646Y-103664085D02*
X174577693Y-103664085D01*
X173607455Y-108380752D02*
X173607455Y-109047419D01*
X173369360Y-107999800D02*
X173131265Y-108714085D01*
X173131265Y-108714085D02*
X173750312Y-108714085D01*
X174036027Y-108047419D02*
X174655074Y-108047419D01*
X174655074Y-108047419D02*
X174321741Y-108428371D01*
X174321741Y-108428371D02*
X174464598Y-108428371D01*
X174464598Y-108428371D02*
X174559836Y-108475990D01*
X174559836Y-108475990D02*
X174607455Y-108523609D01*
X174607455Y-108523609D02*
X174655074Y-108618847D01*
X174655074Y-108618847D02*
X174655074Y-108856942D01*
X174655074Y-108856942D02*
X174607455Y-108952180D01*
X174607455Y-108952180D02*
X174559836Y-108999800D01*
X174559836Y-108999800D02*
X174464598Y-109047419D01*
X174464598Y-109047419D02*
X174178884Y-109047419D01*
X174178884Y-109047419D02*
X174083646Y-108999800D01*
X174083646Y-108999800D02*
X174036027Y-108952180D01*
X172958646Y-96597419D02*
X173577693Y-96597419D01*
X173577693Y-96597419D02*
X173244360Y-96978371D01*
X173244360Y-96978371D02*
X173387217Y-96978371D01*
X173387217Y-96978371D02*
X173482455Y-97025990D01*
X173482455Y-97025990D02*
X173530074Y-97073609D01*
X173530074Y-97073609D02*
X173577693Y-97168847D01*
X173577693Y-97168847D02*
X173577693Y-97406942D01*
X173577693Y-97406942D02*
X173530074Y-97502180D01*
X173530074Y-97502180D02*
X173482455Y-97549800D01*
X173482455Y-97549800D02*
X173387217Y-97597419D01*
X173387217Y-97597419D02*
X173101503Y-97597419D01*
X173101503Y-97597419D02*
X173006265Y-97549800D01*
X173006265Y-97549800D02*
X172958646Y-97502180D01*
X174196741Y-96597419D02*
X174291979Y-96597419D01*
X174291979Y-96597419D02*
X174387217Y-96645038D01*
X174387217Y-96645038D02*
X174434836Y-96692657D01*
X174434836Y-96692657D02*
X174482455Y-96787895D01*
X174482455Y-96787895D02*
X174530074Y-96978371D01*
X174530074Y-96978371D02*
X174530074Y-97216466D01*
X174530074Y-97216466D02*
X174482455Y-97406942D01*
X174482455Y-97406942D02*
X174434836Y-97502180D01*
X174434836Y-97502180D02*
X174387217Y-97549800D01*
X174387217Y-97549800D02*
X174291979Y-97597419D01*
X174291979Y-97597419D02*
X174196741Y-97597419D01*
X174196741Y-97597419D02*
X174101503Y-97549800D01*
X174101503Y-97549800D02*
X174053884Y-97502180D01*
X174053884Y-97502180D02*
X174006265Y-97406942D01*
X174006265Y-97406942D02*
X173958646Y-97216466D01*
X173958646Y-97216466D02*
X173958646Y-96978371D01*
X173958646Y-96978371D02*
X174006265Y-96787895D01*
X174006265Y-96787895D02*
X174053884Y-96692657D01*
X174053884Y-96692657D02*
X174101503Y-96645038D01*
X174101503Y-96645038D02*
X174196741Y-96597419D01*
X173477693Y-51647419D02*
X172906265Y-51647419D01*
X173191979Y-51647419D02*
X173191979Y-50647419D01*
X173191979Y-50647419D02*
X173096741Y-50790276D01*
X173096741Y-50790276D02*
X173001503Y-50885514D01*
X173001503Y-50885514D02*
X172906265Y-50933133D01*
X174430074Y-51647419D02*
X173858646Y-51647419D01*
X174144360Y-51647419D02*
X174144360Y-50647419D01*
X174144360Y-50647419D02*
X174049122Y-50790276D01*
X174049122Y-50790276D02*
X173953884Y-50885514D01*
X173953884Y-50885514D02*
X173858646Y-50933133D01*
X67358646Y-73872419D02*
X67977693Y-73872419D01*
X67977693Y-73872419D02*
X67644360Y-74253371D01*
X67644360Y-74253371D02*
X67787217Y-74253371D01*
X67787217Y-74253371D02*
X67882455Y-74300990D01*
X67882455Y-74300990D02*
X67930074Y-74348609D01*
X67930074Y-74348609D02*
X67977693Y-74443847D01*
X67977693Y-74443847D02*
X67977693Y-74681942D01*
X67977693Y-74681942D02*
X67930074Y-74777180D01*
X67930074Y-74777180D02*
X67882455Y-74824800D01*
X67882455Y-74824800D02*
X67787217Y-74872419D01*
X67787217Y-74872419D02*
X67501503Y-74872419D01*
X67501503Y-74872419D02*
X67406265Y-74824800D01*
X67406265Y-74824800D02*
X67358646Y-74777180D01*
X68834836Y-74205752D02*
X68834836Y-74872419D01*
X68596741Y-73824800D02*
X68358646Y-74539085D01*
X68358646Y-74539085D02*
X68977693Y-74539085D01*
X172856265Y-76317657D02*
X172903884Y-76270038D01*
X172903884Y-76270038D02*
X172999122Y-76222419D01*
X172999122Y-76222419D02*
X173237217Y-76222419D01*
X173237217Y-76222419D02*
X173332455Y-76270038D01*
X173332455Y-76270038D02*
X173380074Y-76317657D01*
X173380074Y-76317657D02*
X173427693Y-76412895D01*
X173427693Y-76412895D02*
X173427693Y-76508133D01*
X173427693Y-76508133D02*
X173380074Y-76650990D01*
X173380074Y-76650990D02*
X172808646Y-77222419D01*
X172808646Y-77222419D02*
X173427693Y-77222419D01*
X174284836Y-76222419D02*
X174094360Y-76222419D01*
X174094360Y-76222419D02*
X173999122Y-76270038D01*
X173999122Y-76270038D02*
X173951503Y-76317657D01*
X173951503Y-76317657D02*
X173856265Y-76460514D01*
X173856265Y-76460514D02*
X173808646Y-76650990D01*
X173808646Y-76650990D02*
X173808646Y-77031942D01*
X173808646Y-77031942D02*
X173856265Y-77127180D01*
X173856265Y-77127180D02*
X173903884Y-77174800D01*
X173903884Y-77174800D02*
X173999122Y-77222419D01*
X173999122Y-77222419D02*
X174189598Y-77222419D01*
X174189598Y-77222419D02*
X174284836Y-77174800D01*
X174284836Y-77174800D02*
X174332455Y-77127180D01*
X174332455Y-77127180D02*
X174380074Y-77031942D01*
X174380074Y-77031942D02*
X174380074Y-76793847D01*
X174380074Y-76793847D02*
X174332455Y-76698609D01*
X174332455Y-76698609D02*
X174284836Y-76650990D01*
X174284836Y-76650990D02*
X174189598Y-76603371D01*
X174189598Y-76603371D02*
X173999122Y-76603371D01*
X173999122Y-76603371D02*
X173903884Y-76650990D01*
X173903884Y-76650990D02*
X173856265Y-76698609D01*
X173856265Y-76698609D02*
X173808646Y-76793847D01*
X173777693Y-62047419D02*
X173206265Y-62047419D01*
X173491979Y-62047419D02*
X173491979Y-61047419D01*
X173491979Y-61047419D02*
X173396741Y-61190276D01*
X173396741Y-61190276D02*
X173301503Y-61285514D01*
X173301503Y-61285514D02*
X173206265Y-61333133D01*
X174111027Y-61047419D02*
X174730074Y-61047419D01*
X174730074Y-61047419D02*
X174396741Y-61428371D01*
X174396741Y-61428371D02*
X174539598Y-61428371D01*
X174539598Y-61428371D02*
X174634836Y-61475990D01*
X174634836Y-61475990D02*
X174682455Y-61523609D01*
X174682455Y-61523609D02*
X174730074Y-61618847D01*
X174730074Y-61618847D02*
X174730074Y-61856942D01*
X174730074Y-61856942D02*
X174682455Y-61952180D01*
X174682455Y-61952180D02*
X174634836Y-61999800D01*
X174634836Y-61999800D02*
X174539598Y-62047419D01*
X174539598Y-62047419D02*
X174253884Y-62047419D01*
X174253884Y-62047419D02*
X174158646Y-61999800D01*
X174158646Y-61999800D02*
X174111027Y-61952180D01*
X121282455Y-55272419D02*
X121091979Y-55272419D01*
X121091979Y-55272419D02*
X120996741Y-55320038D01*
X120996741Y-55320038D02*
X120949122Y-55367657D01*
X120949122Y-55367657D02*
X120853884Y-55510514D01*
X120853884Y-55510514D02*
X120806265Y-55700990D01*
X120806265Y-55700990D02*
X120806265Y-56081942D01*
X120806265Y-56081942D02*
X120853884Y-56177180D01*
X120853884Y-56177180D02*
X120901503Y-56224800D01*
X120901503Y-56224800D02*
X120996741Y-56272419D01*
X120996741Y-56272419D02*
X121187217Y-56272419D01*
X121187217Y-56272419D02*
X121282455Y-56224800D01*
X121282455Y-56224800D02*
X121330074Y-56177180D01*
X121330074Y-56177180D02*
X121377693Y-56081942D01*
X121377693Y-56081942D02*
X121377693Y-55843847D01*
X121377693Y-55843847D02*
X121330074Y-55748609D01*
X121330074Y-55748609D02*
X121282455Y-55700990D01*
X121282455Y-55700990D02*
X121187217Y-55653371D01*
X121187217Y-55653371D02*
X120996741Y-55653371D01*
X120996741Y-55653371D02*
X120901503Y-55700990D01*
X120901503Y-55700990D02*
X120853884Y-55748609D01*
X120853884Y-55748609D02*
X120806265Y-55843847D01*
X172956265Y-86542657D02*
X173003884Y-86495038D01*
X173003884Y-86495038D02*
X173099122Y-86447419D01*
X173099122Y-86447419D02*
X173337217Y-86447419D01*
X173337217Y-86447419D02*
X173432455Y-86495038D01*
X173432455Y-86495038D02*
X173480074Y-86542657D01*
X173480074Y-86542657D02*
X173527693Y-86637895D01*
X173527693Y-86637895D02*
X173527693Y-86733133D01*
X173527693Y-86733133D02*
X173480074Y-86875990D01*
X173480074Y-86875990D02*
X172908646Y-87447419D01*
X172908646Y-87447419D02*
X173527693Y-87447419D01*
X174099122Y-86875990D02*
X174003884Y-86828371D01*
X174003884Y-86828371D02*
X173956265Y-86780752D01*
X173956265Y-86780752D02*
X173908646Y-86685514D01*
X173908646Y-86685514D02*
X173908646Y-86637895D01*
X173908646Y-86637895D02*
X173956265Y-86542657D01*
X173956265Y-86542657D02*
X174003884Y-86495038D01*
X174003884Y-86495038D02*
X174099122Y-86447419D01*
X174099122Y-86447419D02*
X174289598Y-86447419D01*
X174289598Y-86447419D02*
X174384836Y-86495038D01*
X174384836Y-86495038D02*
X174432455Y-86542657D01*
X174432455Y-86542657D02*
X174480074Y-86637895D01*
X174480074Y-86637895D02*
X174480074Y-86685514D01*
X174480074Y-86685514D02*
X174432455Y-86780752D01*
X174432455Y-86780752D02*
X174384836Y-86828371D01*
X174384836Y-86828371D02*
X174289598Y-86875990D01*
X174289598Y-86875990D02*
X174099122Y-86875990D01*
X174099122Y-86875990D02*
X174003884Y-86923609D01*
X174003884Y-86923609D02*
X173956265Y-86971228D01*
X173956265Y-86971228D02*
X173908646Y-87066466D01*
X173908646Y-87066466D02*
X173908646Y-87256942D01*
X173908646Y-87256942D02*
X173956265Y-87352180D01*
X173956265Y-87352180D02*
X174003884Y-87399800D01*
X174003884Y-87399800D02*
X174099122Y-87447419D01*
X174099122Y-87447419D02*
X174289598Y-87447419D01*
X174289598Y-87447419D02*
X174384836Y-87399800D01*
X174384836Y-87399800D02*
X174432455Y-87352180D01*
X174432455Y-87352180D02*
X174480074Y-87256942D01*
X174480074Y-87256942D02*
X174480074Y-87066466D01*
X174480074Y-87066466D02*
X174432455Y-86971228D01*
X174432455Y-86971228D02*
X174384836Y-86923609D01*
X174384836Y-86923609D02*
X174289598Y-86875990D01*
X99952693Y-107422419D02*
X99381265Y-107422419D01*
X99666979Y-107422419D02*
X99666979Y-106422419D01*
X99666979Y-106422419D02*
X99571741Y-106565276D01*
X99571741Y-106565276D02*
X99476503Y-106660514D01*
X99476503Y-106660514D02*
X99381265Y-106708133D01*
X100556265Y-55192657D02*
X100603884Y-55145038D01*
X100603884Y-55145038D02*
X100699122Y-55097419D01*
X100699122Y-55097419D02*
X100937217Y-55097419D01*
X100937217Y-55097419D02*
X101032455Y-55145038D01*
X101032455Y-55145038D02*
X101080074Y-55192657D01*
X101080074Y-55192657D02*
X101127693Y-55287895D01*
X101127693Y-55287895D02*
X101127693Y-55383133D01*
X101127693Y-55383133D02*
X101080074Y-55525990D01*
X101080074Y-55525990D02*
X100508646Y-56097419D01*
X100508646Y-56097419D02*
X101127693Y-56097419D01*
X141827693Y-56322419D02*
X141256265Y-56322419D01*
X141541979Y-56322419D02*
X141541979Y-55322419D01*
X141541979Y-55322419D02*
X141446741Y-55465276D01*
X141446741Y-55465276D02*
X141351503Y-55560514D01*
X141351503Y-55560514D02*
X141256265Y-55608133D01*
X142446741Y-55322419D02*
X142541979Y-55322419D01*
X142541979Y-55322419D02*
X142637217Y-55370038D01*
X142637217Y-55370038D02*
X142684836Y-55417657D01*
X142684836Y-55417657D02*
X142732455Y-55512895D01*
X142732455Y-55512895D02*
X142780074Y-55703371D01*
X142780074Y-55703371D02*
X142780074Y-55941466D01*
X142780074Y-55941466D02*
X142732455Y-56131942D01*
X142732455Y-56131942D02*
X142684836Y-56227180D01*
X142684836Y-56227180D02*
X142637217Y-56274800D01*
X142637217Y-56274800D02*
X142541979Y-56322419D01*
X142541979Y-56322419D02*
X142446741Y-56322419D01*
X142446741Y-56322419D02*
X142351503Y-56274800D01*
X142351503Y-56274800D02*
X142303884Y-56227180D01*
X142303884Y-56227180D02*
X142256265Y-56131942D01*
X142256265Y-56131942D02*
X142208646Y-55941466D01*
X142208646Y-55941466D02*
X142208646Y-55703371D01*
X142208646Y-55703371D02*
X142256265Y-55512895D01*
X142256265Y-55512895D02*
X142303884Y-55417657D01*
X142303884Y-55417657D02*
X142351503Y-55370038D01*
X142351503Y-55370038D02*
X142446741Y-55322419D01*
X125608646Y-55322419D02*
X126275312Y-55322419D01*
X126275312Y-55322419D02*
X125846741Y-56322419D01*
X173452693Y-56722419D02*
X172881265Y-56722419D01*
X173166979Y-56722419D02*
X173166979Y-55722419D01*
X173166979Y-55722419D02*
X173071741Y-55865276D01*
X173071741Y-55865276D02*
X172976503Y-55960514D01*
X172976503Y-55960514D02*
X172881265Y-56008133D01*
X173833646Y-55817657D02*
X173881265Y-55770038D01*
X173881265Y-55770038D02*
X173976503Y-55722419D01*
X173976503Y-55722419D02*
X174214598Y-55722419D01*
X174214598Y-55722419D02*
X174309836Y-55770038D01*
X174309836Y-55770038D02*
X174357455Y-55817657D01*
X174357455Y-55817657D02*
X174405074Y-55912895D01*
X174405074Y-55912895D02*
X174405074Y-56008133D01*
X174405074Y-56008133D02*
X174357455Y-56150990D01*
X174357455Y-56150990D02*
X173786027Y-56722419D01*
X173786027Y-56722419D02*
X174405074Y-56722419D01*
X67258646Y-78597419D02*
X67877693Y-78597419D01*
X67877693Y-78597419D02*
X67544360Y-78978371D01*
X67544360Y-78978371D02*
X67687217Y-78978371D01*
X67687217Y-78978371D02*
X67782455Y-79025990D01*
X67782455Y-79025990D02*
X67830074Y-79073609D01*
X67830074Y-79073609D02*
X67877693Y-79168847D01*
X67877693Y-79168847D02*
X67877693Y-79406942D01*
X67877693Y-79406942D02*
X67830074Y-79502180D01*
X67830074Y-79502180D02*
X67782455Y-79549800D01*
X67782455Y-79549800D02*
X67687217Y-79597419D01*
X67687217Y-79597419D02*
X67401503Y-79597419D01*
X67401503Y-79597419D02*
X67306265Y-79549800D01*
X67306265Y-79549800D02*
X67258646Y-79502180D01*
X68782455Y-78597419D02*
X68306265Y-78597419D01*
X68306265Y-78597419D02*
X68258646Y-79073609D01*
X68258646Y-79073609D02*
X68306265Y-79025990D01*
X68306265Y-79025990D02*
X68401503Y-78978371D01*
X68401503Y-78978371D02*
X68639598Y-78978371D01*
X68639598Y-78978371D02*
X68734836Y-79025990D01*
X68734836Y-79025990D02*
X68782455Y-79073609D01*
X68782455Y-79073609D02*
X68830074Y-79168847D01*
X68830074Y-79168847D02*
X68830074Y-79406942D01*
X68830074Y-79406942D02*
X68782455Y-79502180D01*
X68782455Y-79502180D02*
X68734836Y-79549800D01*
X68734836Y-79549800D02*
X68639598Y-79597419D01*
X68639598Y-79597419D02*
X68401503Y-79597419D01*
X68401503Y-79597419D02*
X68306265Y-79549800D01*
X68306265Y-79549800D02*
X68258646Y-79502180D01*
X141156265Y-76062657D02*
X141203884Y-76015038D01*
X141203884Y-76015038D02*
X141299122Y-75967419D01*
X141299122Y-75967419D02*
X141537217Y-75967419D01*
X141537217Y-75967419D02*
X141632455Y-76015038D01*
X141632455Y-76015038D02*
X141680074Y-76062657D01*
X141680074Y-76062657D02*
X141727693Y-76157895D01*
X141727693Y-76157895D02*
X141727693Y-76253133D01*
X141727693Y-76253133D02*
X141680074Y-76395990D01*
X141680074Y-76395990D02*
X141108646Y-76967419D01*
X141108646Y-76967419D02*
X141727693Y-76967419D01*
X142632455Y-75967419D02*
X142156265Y-75967419D01*
X142156265Y-75967419D02*
X142108646Y-76443609D01*
X142108646Y-76443609D02*
X142156265Y-76395990D01*
X142156265Y-76395990D02*
X142251503Y-76348371D01*
X142251503Y-76348371D02*
X142489598Y-76348371D01*
X142489598Y-76348371D02*
X142584836Y-76395990D01*
X142584836Y-76395990D02*
X142632455Y-76443609D01*
X142632455Y-76443609D02*
X142680074Y-76538847D01*
X142680074Y-76538847D02*
X142680074Y-76776942D01*
X142680074Y-76776942D02*
X142632455Y-76872180D01*
X142632455Y-76872180D02*
X142584836Y-76919800D01*
X142584836Y-76919800D02*
X142489598Y-76967419D01*
X142489598Y-76967419D02*
X142251503Y-76967419D01*
X142251503Y-76967419D02*
X142156265Y-76919800D01*
X142156265Y-76919800D02*
X142108646Y-76872180D01*
X68428884Y-52038665D02*
X68762217Y-52038665D01*
X68905074Y-52562475D02*
X68428884Y-52562475D01*
X68428884Y-52562475D02*
X68428884Y-51562475D01*
X68428884Y-51562475D02*
X68905074Y-51562475D01*
X69333646Y-52562475D02*
X69333646Y-51895808D01*
X69333646Y-51991046D02*
X69381265Y-51943427D01*
X69381265Y-51943427D02*
X69476503Y-51895808D01*
X69476503Y-51895808D02*
X69619360Y-51895808D01*
X69619360Y-51895808D02*
X69714598Y-51943427D01*
X69714598Y-51943427D02*
X69762217Y-52038665D01*
X69762217Y-52038665D02*
X69762217Y-52562475D01*
X69762217Y-52038665D02*
X69809836Y-51943427D01*
X69809836Y-51943427D02*
X69905074Y-51895808D01*
X69905074Y-51895808D02*
X70047931Y-51895808D01*
X70047931Y-51895808D02*
X70143170Y-51943427D01*
X70143170Y-51943427D02*
X70190789Y-52038665D01*
X70190789Y-52038665D02*
X70190789Y-52562475D01*
X70666979Y-52562475D02*
X70666979Y-51895808D01*
X70666979Y-51562475D02*
X70619360Y-51610094D01*
X70619360Y-51610094D02*
X70666979Y-51657713D01*
X70666979Y-51657713D02*
X70714598Y-51610094D01*
X70714598Y-51610094D02*
X70666979Y-51562475D01*
X70666979Y-51562475D02*
X70666979Y-51657713D01*
X71143169Y-51895808D02*
X71143169Y-52562475D01*
X71143169Y-51991046D02*
X71190788Y-51943427D01*
X71190788Y-51943427D02*
X71286026Y-51895808D01*
X71286026Y-51895808D02*
X71428883Y-51895808D01*
X71428883Y-51895808D02*
X71524121Y-51943427D01*
X71524121Y-51943427D02*
X71571740Y-52038665D01*
X71571740Y-52038665D02*
X71571740Y-52562475D01*
X72428883Y-52514856D02*
X72333645Y-52562475D01*
X72333645Y-52562475D02*
X72143169Y-52562475D01*
X72143169Y-52562475D02*
X72047931Y-52514856D01*
X72047931Y-52514856D02*
X72000312Y-52419617D01*
X72000312Y-52419617D02*
X72000312Y-52038665D01*
X72000312Y-52038665D02*
X72047931Y-51943427D01*
X72047931Y-51943427D02*
X72143169Y-51895808D01*
X72143169Y-51895808D02*
X72333645Y-51895808D01*
X72333645Y-51895808D02*
X72428883Y-51943427D01*
X72428883Y-51943427D02*
X72476502Y-52038665D01*
X72476502Y-52038665D02*
X72476502Y-52133903D01*
X72476502Y-52133903D02*
X72000312Y-52229141D01*
X74000312Y-52038665D02*
X74143169Y-52086284D01*
X74143169Y-52086284D02*
X74190788Y-52133903D01*
X74190788Y-52133903D02*
X74238407Y-52229141D01*
X74238407Y-52229141D02*
X74238407Y-52371998D01*
X74238407Y-52371998D02*
X74190788Y-52467236D01*
X74190788Y-52467236D02*
X74143169Y-52514856D01*
X74143169Y-52514856D02*
X74047931Y-52562475D01*
X74047931Y-52562475D02*
X73666979Y-52562475D01*
X73666979Y-52562475D02*
X73666979Y-51562475D01*
X73666979Y-51562475D02*
X74000312Y-51562475D01*
X74000312Y-51562475D02*
X74095550Y-51610094D01*
X74095550Y-51610094D02*
X74143169Y-51657713D01*
X74143169Y-51657713D02*
X74190788Y-51752951D01*
X74190788Y-51752951D02*
X74190788Y-51848189D01*
X74190788Y-51848189D02*
X74143169Y-51943427D01*
X74143169Y-51943427D02*
X74095550Y-51991046D01*
X74095550Y-51991046D02*
X74000312Y-52038665D01*
X74000312Y-52038665D02*
X73666979Y-52038665D01*
X75047931Y-52514856D02*
X74952693Y-52562475D01*
X74952693Y-52562475D02*
X74762217Y-52562475D01*
X74762217Y-52562475D02*
X74666979Y-52514856D01*
X74666979Y-52514856D02*
X74619360Y-52419617D01*
X74619360Y-52419617D02*
X74619360Y-52038665D01*
X74619360Y-52038665D02*
X74666979Y-51943427D01*
X74666979Y-51943427D02*
X74762217Y-51895808D01*
X74762217Y-51895808D02*
X74952693Y-51895808D01*
X74952693Y-51895808D02*
X75047931Y-51943427D01*
X75047931Y-51943427D02*
X75095550Y-52038665D01*
X75095550Y-52038665D02*
X75095550Y-52133903D01*
X75095550Y-52133903D02*
X74619360Y-52229141D01*
X75524122Y-51895808D02*
X75524122Y-52562475D01*
X75524122Y-51991046D02*
X75571741Y-51943427D01*
X75571741Y-51943427D02*
X75666979Y-51895808D01*
X75666979Y-51895808D02*
X75809836Y-51895808D01*
X75809836Y-51895808D02*
X75905074Y-51943427D01*
X75905074Y-51943427D02*
X75952693Y-52038665D01*
X75952693Y-52038665D02*
X75952693Y-52562475D01*
X76857455Y-51895808D02*
X76857455Y-52705332D01*
X76857455Y-52705332D02*
X76809836Y-52800570D01*
X76809836Y-52800570D02*
X76762217Y-52848189D01*
X76762217Y-52848189D02*
X76666979Y-52895808D01*
X76666979Y-52895808D02*
X76524122Y-52895808D01*
X76524122Y-52895808D02*
X76428884Y-52848189D01*
X76857455Y-52514856D02*
X76762217Y-52562475D01*
X76762217Y-52562475D02*
X76571741Y-52562475D01*
X76571741Y-52562475D02*
X76476503Y-52514856D01*
X76476503Y-52514856D02*
X76428884Y-52467236D01*
X76428884Y-52467236D02*
X76381265Y-52371998D01*
X76381265Y-52371998D02*
X76381265Y-52086284D01*
X76381265Y-52086284D02*
X76428884Y-51991046D01*
X76428884Y-51991046D02*
X76476503Y-51943427D01*
X76476503Y-51943427D02*
X76571741Y-51895808D01*
X76571741Y-51895808D02*
X76762217Y-51895808D01*
X76762217Y-51895808D02*
X76857455Y-51943427D01*
X77333646Y-52562475D02*
X77333646Y-51895808D01*
X77333646Y-51562475D02*
X77286027Y-51610094D01*
X77286027Y-51610094D02*
X77333646Y-51657713D01*
X77333646Y-51657713D02*
X77381265Y-51610094D01*
X77381265Y-51610094D02*
X77333646Y-51562475D01*
X77333646Y-51562475D02*
X77333646Y-51657713D01*
X77762217Y-52514856D02*
X77857455Y-52562475D01*
X77857455Y-52562475D02*
X78047931Y-52562475D01*
X78047931Y-52562475D02*
X78143169Y-52514856D01*
X78143169Y-52514856D02*
X78190788Y-52419617D01*
X78190788Y-52419617D02*
X78190788Y-52371998D01*
X78190788Y-52371998D02*
X78143169Y-52276760D01*
X78143169Y-52276760D02*
X78047931Y-52229141D01*
X78047931Y-52229141D02*
X77905074Y-52229141D01*
X77905074Y-52229141D02*
X77809836Y-52181522D01*
X77809836Y-52181522D02*
X77762217Y-52086284D01*
X77762217Y-52086284D02*
X77762217Y-52038665D01*
X77762217Y-52038665D02*
X77809836Y-51943427D01*
X77809836Y-51943427D02*
X77905074Y-51895808D01*
X77905074Y-51895808D02*
X78047931Y-51895808D01*
X78047931Y-51895808D02*
X78143169Y-51943427D01*
X79047931Y-51895808D02*
X79047931Y-52562475D01*
X78619360Y-51895808D02*
X78619360Y-52419617D01*
X78619360Y-52419617D02*
X78666979Y-52514856D01*
X78666979Y-52514856D02*
X78762217Y-52562475D01*
X78762217Y-52562475D02*
X78905074Y-52562475D01*
X78905074Y-52562475D02*
X79000312Y-52514856D01*
X79000312Y-52514856D02*
X79047931Y-52467236D01*
X80809836Y-51610094D02*
X80714598Y-51562475D01*
X80714598Y-51562475D02*
X80571741Y-51562475D01*
X80571741Y-51562475D02*
X80428884Y-51610094D01*
X80428884Y-51610094D02*
X80333646Y-51705332D01*
X80333646Y-51705332D02*
X80286027Y-51800570D01*
X80286027Y-51800570D02*
X80238408Y-51991046D01*
X80238408Y-51991046D02*
X80238408Y-52133903D01*
X80238408Y-52133903D02*
X80286027Y-52324379D01*
X80286027Y-52324379D02*
X80333646Y-52419617D01*
X80333646Y-52419617D02*
X80428884Y-52514856D01*
X80428884Y-52514856D02*
X80571741Y-52562475D01*
X80571741Y-52562475D02*
X80666979Y-52562475D01*
X80666979Y-52562475D02*
X80809836Y-52514856D01*
X80809836Y-52514856D02*
X80857455Y-52467236D01*
X80857455Y-52467236D02*
X80857455Y-52133903D01*
X80857455Y-52133903D02*
X80666979Y-52133903D01*
X81428884Y-52562475D02*
X81333646Y-52514856D01*
X81333646Y-52514856D02*
X81286027Y-52467236D01*
X81286027Y-52467236D02*
X81238408Y-52371998D01*
X81238408Y-52371998D02*
X81238408Y-52086284D01*
X81238408Y-52086284D02*
X81286027Y-51991046D01*
X81286027Y-51991046D02*
X81333646Y-51943427D01*
X81333646Y-51943427D02*
X81428884Y-51895808D01*
X81428884Y-51895808D02*
X81571741Y-51895808D01*
X81571741Y-51895808D02*
X81666979Y-51943427D01*
X81666979Y-51943427D02*
X81714598Y-51991046D01*
X81714598Y-51991046D02*
X81762217Y-52086284D01*
X81762217Y-52086284D02*
X81762217Y-52371998D01*
X81762217Y-52371998D02*
X81714598Y-52467236D01*
X81714598Y-52467236D02*
X81666979Y-52514856D01*
X81666979Y-52514856D02*
X81571741Y-52562475D01*
X81571741Y-52562475D02*
X81428884Y-52562475D01*
X82190789Y-52562475D02*
X82190789Y-51562475D01*
X82286027Y-52181522D02*
X82571741Y-52562475D01*
X82571741Y-51895808D02*
X82190789Y-52276760D01*
X83428884Y-52514856D02*
X83333646Y-52562475D01*
X83333646Y-52562475D02*
X83143170Y-52562475D01*
X83143170Y-52562475D02*
X83047932Y-52514856D01*
X83047932Y-52514856D02*
X83000313Y-52467236D01*
X83000313Y-52467236D02*
X82952694Y-52371998D01*
X82952694Y-52371998D02*
X82952694Y-52086284D01*
X82952694Y-52086284D02*
X83000313Y-51991046D01*
X83000313Y-51991046D02*
X83047932Y-51943427D01*
X83047932Y-51943427D02*
X83143170Y-51895808D01*
X83143170Y-51895808D02*
X83333646Y-51895808D01*
X83333646Y-51895808D02*
X83428884Y-51943427D01*
X84238408Y-52514856D02*
X84143170Y-52562475D01*
X84143170Y-52562475D02*
X83952694Y-52562475D01*
X83952694Y-52562475D02*
X83857456Y-52514856D01*
X83857456Y-52514856D02*
X83809837Y-52419617D01*
X83809837Y-52419617D02*
X83809837Y-52038665D01*
X83809837Y-52038665D02*
X83857456Y-51943427D01*
X83857456Y-51943427D02*
X83952694Y-51895808D01*
X83952694Y-51895808D02*
X84143170Y-51895808D01*
X84143170Y-51895808D02*
X84238408Y-51943427D01*
X84238408Y-51943427D02*
X84286027Y-52038665D01*
X84286027Y-52038665D02*
X84286027Y-52133903D01*
X84286027Y-52133903D02*
X83809837Y-52229141D01*
X68428884Y-53648609D02*
X68762217Y-53648609D01*
X68905074Y-54172419D02*
X68428884Y-54172419D01*
X68428884Y-54172419D02*
X68428884Y-53172419D01*
X68428884Y-53172419D02*
X68905074Y-53172419D01*
X69333646Y-54172419D02*
X69333646Y-53505752D01*
X69333646Y-53600990D02*
X69381265Y-53553371D01*
X69381265Y-53553371D02*
X69476503Y-53505752D01*
X69476503Y-53505752D02*
X69619360Y-53505752D01*
X69619360Y-53505752D02*
X69714598Y-53553371D01*
X69714598Y-53553371D02*
X69762217Y-53648609D01*
X69762217Y-53648609D02*
X69762217Y-54172419D01*
X69762217Y-53648609D02*
X69809836Y-53553371D01*
X69809836Y-53553371D02*
X69905074Y-53505752D01*
X69905074Y-53505752D02*
X70047931Y-53505752D01*
X70047931Y-53505752D02*
X70143170Y-53553371D01*
X70143170Y-53553371D02*
X70190789Y-53648609D01*
X70190789Y-53648609D02*
X70190789Y-54172419D01*
X70666979Y-54172419D02*
X70666979Y-53505752D01*
X70666979Y-53600990D02*
X70714598Y-53553371D01*
X70714598Y-53553371D02*
X70809836Y-53505752D01*
X70809836Y-53505752D02*
X70952693Y-53505752D01*
X70952693Y-53505752D02*
X71047931Y-53553371D01*
X71047931Y-53553371D02*
X71095550Y-53648609D01*
X71095550Y-53648609D02*
X71095550Y-54172419D01*
X71095550Y-53648609D02*
X71143169Y-53553371D01*
X71143169Y-53553371D02*
X71238407Y-53505752D01*
X71238407Y-53505752D02*
X71381264Y-53505752D01*
X71381264Y-53505752D02*
X71476503Y-53553371D01*
X71476503Y-53553371D02*
X71524122Y-53648609D01*
X71524122Y-53648609D02*
X71524122Y-54172419D01*
X72428883Y-54172419D02*
X72428883Y-53648609D01*
X72428883Y-53648609D02*
X72381264Y-53553371D01*
X72381264Y-53553371D02*
X72286026Y-53505752D01*
X72286026Y-53505752D02*
X72095550Y-53505752D01*
X72095550Y-53505752D02*
X72000312Y-53553371D01*
X72428883Y-54124800D02*
X72333645Y-54172419D01*
X72333645Y-54172419D02*
X72095550Y-54172419D01*
X72095550Y-54172419D02*
X72000312Y-54124800D01*
X72000312Y-54124800D02*
X71952693Y-54029561D01*
X71952693Y-54029561D02*
X71952693Y-53934323D01*
X71952693Y-53934323D02*
X72000312Y-53839085D01*
X72000312Y-53839085D02*
X72095550Y-53791466D01*
X72095550Y-53791466D02*
X72333645Y-53791466D01*
X72333645Y-53791466D02*
X72428883Y-53743847D01*
X74333645Y-54267657D02*
X74238407Y-54220038D01*
X74238407Y-54220038D02*
X74143169Y-54124800D01*
X74143169Y-54124800D02*
X74000312Y-53981942D01*
X74000312Y-53981942D02*
X73905074Y-53934323D01*
X73905074Y-53934323D02*
X73809836Y-53934323D01*
X73857455Y-54172419D02*
X73762217Y-54124800D01*
X73762217Y-54124800D02*
X73666979Y-54029561D01*
X73666979Y-54029561D02*
X73619360Y-53839085D01*
X73619360Y-53839085D02*
X73619360Y-53505752D01*
X73619360Y-53505752D02*
X73666979Y-53315276D01*
X73666979Y-53315276D02*
X73762217Y-53220038D01*
X73762217Y-53220038D02*
X73857455Y-53172419D01*
X73857455Y-53172419D02*
X74047931Y-53172419D01*
X74047931Y-53172419D02*
X74143169Y-53220038D01*
X74143169Y-53220038D02*
X74238407Y-53315276D01*
X74238407Y-53315276D02*
X74286026Y-53505752D01*
X74286026Y-53505752D02*
X74286026Y-53839085D01*
X74286026Y-53839085D02*
X74238407Y-54029561D01*
X74238407Y-54029561D02*
X74143169Y-54124800D01*
X74143169Y-54124800D02*
X74047931Y-54172419D01*
X74047931Y-54172419D02*
X73857455Y-54172419D01*
X75143169Y-53505752D02*
X75143169Y-54172419D01*
X74714598Y-53505752D02*
X74714598Y-54029561D01*
X74714598Y-54029561D02*
X74762217Y-54124800D01*
X74762217Y-54124800D02*
X74857455Y-54172419D01*
X74857455Y-54172419D02*
X75000312Y-54172419D01*
X75000312Y-54172419D02*
X75095550Y-54124800D01*
X75095550Y-54124800D02*
X75143169Y-54077180D01*
X75524122Y-53505752D02*
X75762217Y-54172419D01*
X76000312Y-53505752D02*
X75762217Y-54172419D01*
X75762217Y-54172419D02*
X75666979Y-54410514D01*
X75666979Y-54410514D02*
X75619360Y-54458133D01*
X75619360Y-54458133D02*
X75524122Y-54505752D01*
X76809836Y-54172419D02*
X76809836Y-53648609D01*
X76809836Y-53648609D02*
X76762217Y-53553371D01*
X76762217Y-53553371D02*
X76666979Y-53505752D01*
X76666979Y-53505752D02*
X76476503Y-53505752D01*
X76476503Y-53505752D02*
X76381265Y-53553371D01*
X76809836Y-54124800D02*
X76714598Y-54172419D01*
X76714598Y-54172419D02*
X76476503Y-54172419D01*
X76476503Y-54172419D02*
X76381265Y-54124800D01*
X76381265Y-54124800D02*
X76333646Y-54029561D01*
X76333646Y-54029561D02*
X76333646Y-53934323D01*
X76333646Y-53934323D02*
X76381265Y-53839085D01*
X76381265Y-53839085D02*
X76476503Y-53791466D01*
X76476503Y-53791466D02*
X76714598Y-53791466D01*
X76714598Y-53791466D02*
X76809836Y-53743847D01*
X77286027Y-53505752D02*
X77286027Y-54172419D01*
X77286027Y-53600990D02*
X77333646Y-53553371D01*
X77333646Y-53553371D02*
X77428884Y-53505752D01*
X77428884Y-53505752D02*
X77571741Y-53505752D01*
X77571741Y-53505752D02*
X77666979Y-53553371D01*
X77666979Y-53553371D02*
X77714598Y-53648609D01*
X77714598Y-53648609D02*
X77714598Y-54172419D01*
X78619360Y-53505752D02*
X78619360Y-54315276D01*
X78619360Y-54315276D02*
X78571741Y-54410514D01*
X78571741Y-54410514D02*
X78524122Y-54458133D01*
X78524122Y-54458133D02*
X78428884Y-54505752D01*
X78428884Y-54505752D02*
X78286027Y-54505752D01*
X78286027Y-54505752D02*
X78190789Y-54458133D01*
X78619360Y-54124800D02*
X78524122Y-54172419D01*
X78524122Y-54172419D02*
X78333646Y-54172419D01*
X78333646Y-54172419D02*
X78238408Y-54124800D01*
X78238408Y-54124800D02*
X78190789Y-54077180D01*
X78190789Y-54077180D02*
X78143170Y-53981942D01*
X78143170Y-53981942D02*
X78143170Y-53696228D01*
X78143170Y-53696228D02*
X78190789Y-53600990D01*
X78190789Y-53600990D02*
X78238408Y-53553371D01*
X78238408Y-53553371D02*
X78333646Y-53505752D01*
X78333646Y-53505752D02*
X78524122Y-53505752D01*
X78524122Y-53505752D02*
X78619360Y-53553371D01*
X79143170Y-54124800D02*
X79143170Y-54172419D01*
X79143170Y-54172419D02*
X79095551Y-54267657D01*
X79095551Y-54267657D02*
X79047932Y-54315276D01*
X80286027Y-54124800D02*
X80428884Y-54172419D01*
X80428884Y-54172419D02*
X80666979Y-54172419D01*
X80666979Y-54172419D02*
X80762217Y-54124800D01*
X80762217Y-54124800D02*
X80809836Y-54077180D01*
X80809836Y-54077180D02*
X80857455Y-53981942D01*
X80857455Y-53981942D02*
X80857455Y-53886704D01*
X80857455Y-53886704D02*
X80809836Y-53791466D01*
X80809836Y-53791466D02*
X80762217Y-53743847D01*
X80762217Y-53743847D02*
X80666979Y-53696228D01*
X80666979Y-53696228D02*
X80476503Y-53648609D01*
X80476503Y-53648609D02*
X80381265Y-53600990D01*
X80381265Y-53600990D02*
X80333646Y-53553371D01*
X80333646Y-53553371D02*
X80286027Y-53458133D01*
X80286027Y-53458133D02*
X80286027Y-53362895D01*
X80286027Y-53362895D02*
X80333646Y-53267657D01*
X80333646Y-53267657D02*
X80381265Y-53220038D01*
X80381265Y-53220038D02*
X80476503Y-53172419D01*
X80476503Y-53172419D02*
X80714598Y-53172419D01*
X80714598Y-53172419D02*
X80857455Y-53220038D01*
X81428884Y-54172419D02*
X81333646Y-54124800D01*
X81333646Y-54124800D02*
X81286027Y-54077180D01*
X81286027Y-54077180D02*
X81238408Y-53981942D01*
X81238408Y-53981942D02*
X81238408Y-53696228D01*
X81238408Y-53696228D02*
X81286027Y-53600990D01*
X81286027Y-53600990D02*
X81333646Y-53553371D01*
X81333646Y-53553371D02*
X81428884Y-53505752D01*
X81428884Y-53505752D02*
X81571741Y-53505752D01*
X81571741Y-53505752D02*
X81666979Y-53553371D01*
X81666979Y-53553371D02*
X81714598Y-53600990D01*
X81714598Y-53600990D02*
X81762217Y-53696228D01*
X81762217Y-53696228D02*
X81762217Y-53981942D01*
X81762217Y-53981942D02*
X81714598Y-54077180D01*
X81714598Y-54077180D02*
X81666979Y-54124800D01*
X81666979Y-54124800D02*
X81571741Y-54172419D01*
X81571741Y-54172419D02*
X81428884Y-54172419D01*
X82190789Y-53505752D02*
X82190789Y-54505752D01*
X82190789Y-53553371D02*
X82286027Y-53505752D01*
X82286027Y-53505752D02*
X82476503Y-53505752D01*
X82476503Y-53505752D02*
X82571741Y-53553371D01*
X82571741Y-53553371D02*
X82619360Y-53600990D01*
X82619360Y-53600990D02*
X82666979Y-53696228D01*
X82666979Y-53696228D02*
X82666979Y-53981942D01*
X82666979Y-53981942D02*
X82619360Y-54077180D01*
X82619360Y-54077180D02*
X82571741Y-54124800D01*
X82571741Y-54124800D02*
X82476503Y-54172419D01*
X82476503Y-54172419D02*
X82286027Y-54172419D01*
X82286027Y-54172419D02*
X82190789Y-54124800D01*
X83095551Y-54172419D02*
X83095551Y-53172419D01*
X83524122Y-54172419D02*
X83524122Y-53648609D01*
X83524122Y-53648609D02*
X83476503Y-53553371D01*
X83476503Y-53553371D02*
X83381265Y-53505752D01*
X83381265Y-53505752D02*
X83238408Y-53505752D01*
X83238408Y-53505752D02*
X83143170Y-53553371D01*
X83143170Y-53553371D02*
X83095551Y-53600990D01*
X84000313Y-54172419D02*
X84000313Y-53505752D01*
X84000313Y-53172419D02*
X83952694Y-53220038D01*
X83952694Y-53220038D02*
X84000313Y-53267657D01*
X84000313Y-53267657D02*
X84047932Y-53220038D01*
X84047932Y-53220038D02*
X84000313Y-53172419D01*
X84000313Y-53172419D02*
X84000313Y-53267657D01*
X84857455Y-54124800D02*
X84762217Y-54172419D01*
X84762217Y-54172419D02*
X84571741Y-54172419D01*
X84571741Y-54172419D02*
X84476503Y-54124800D01*
X84476503Y-54124800D02*
X84428884Y-54029561D01*
X84428884Y-54029561D02*
X84428884Y-53648609D01*
X84428884Y-53648609D02*
X84476503Y-53553371D01*
X84476503Y-53553371D02*
X84571741Y-53505752D01*
X84571741Y-53505752D02*
X84762217Y-53505752D01*
X84762217Y-53505752D02*
X84857455Y-53553371D01*
X84857455Y-53553371D02*
X84905074Y-53648609D01*
X84905074Y-53648609D02*
X84905074Y-53743847D01*
X84905074Y-53743847D02*
X84428884Y-53839085D01*
X86095551Y-54172419D02*
X86095551Y-53172419D01*
X86095551Y-53172419D02*
X86666979Y-54172419D01*
X86666979Y-54172419D02*
X86666979Y-53172419D01*
X87286027Y-54172419D02*
X87190789Y-54124800D01*
X87190789Y-54124800D02*
X87143170Y-54077180D01*
X87143170Y-54077180D02*
X87095551Y-53981942D01*
X87095551Y-53981942D02*
X87095551Y-53696228D01*
X87095551Y-53696228D02*
X87143170Y-53600990D01*
X87143170Y-53600990D02*
X87190789Y-53553371D01*
X87190789Y-53553371D02*
X87286027Y-53505752D01*
X87286027Y-53505752D02*
X87428884Y-53505752D01*
X87428884Y-53505752D02*
X87524122Y-53553371D01*
X87524122Y-53553371D02*
X87571741Y-53600990D01*
X87571741Y-53600990D02*
X87619360Y-53696228D01*
X87619360Y-53696228D02*
X87619360Y-53981942D01*
X87619360Y-53981942D02*
X87571741Y-54077180D01*
X87571741Y-54077180D02*
X87524122Y-54124800D01*
X87524122Y-54124800D02*
X87428884Y-54172419D01*
X87428884Y-54172419D02*
X87286027Y-54172419D01*
X88476503Y-53505752D02*
X88476503Y-54172419D01*
X88047932Y-53505752D02*
X88047932Y-54029561D01*
X88047932Y-54029561D02*
X88095551Y-54124800D01*
X88095551Y-54124800D02*
X88190789Y-54172419D01*
X88190789Y-54172419D02*
X88333646Y-54172419D01*
X88333646Y-54172419D02*
X88428884Y-54124800D01*
X88428884Y-54124800D02*
X88476503Y-54077180D01*
X88952694Y-54172419D02*
X88952694Y-53505752D01*
X88952694Y-53696228D02*
X89000313Y-53600990D01*
X89000313Y-53600990D02*
X89047932Y-53553371D01*
X89047932Y-53553371D02*
X89143170Y-53505752D01*
X89143170Y-53505752D02*
X89238408Y-53505752D01*
X89952694Y-54124800D02*
X89857456Y-54172419D01*
X89857456Y-54172419D02*
X89666980Y-54172419D01*
X89666980Y-54172419D02*
X89571742Y-54124800D01*
X89571742Y-54124800D02*
X89524123Y-54029561D01*
X89524123Y-54029561D02*
X89524123Y-53648609D01*
X89524123Y-53648609D02*
X89571742Y-53553371D01*
X89571742Y-53553371D02*
X89666980Y-53505752D01*
X89666980Y-53505752D02*
X89857456Y-53505752D01*
X89857456Y-53505752D02*
X89952694Y-53553371D01*
X89952694Y-53553371D02*
X90000313Y-53648609D01*
X90000313Y-53648609D02*
X90000313Y-53743847D01*
X90000313Y-53743847D02*
X89524123Y-53839085D01*
X90857456Y-54172419D02*
X90857456Y-53172419D01*
X90857456Y-54124800D02*
X90762218Y-54172419D01*
X90762218Y-54172419D02*
X90571742Y-54172419D01*
X90571742Y-54172419D02*
X90476504Y-54124800D01*
X90476504Y-54124800D02*
X90428885Y-54077180D01*
X90428885Y-54077180D02*
X90381266Y-53981942D01*
X90381266Y-53981942D02*
X90381266Y-53696228D01*
X90381266Y-53696228D02*
X90428885Y-53600990D01*
X90428885Y-53600990D02*
X90476504Y-53553371D01*
X90476504Y-53553371D02*
X90571742Y-53505752D01*
X90571742Y-53505752D02*
X90762218Y-53505752D01*
X90762218Y-53505752D02*
X90857456Y-53553371D01*
X91762218Y-54172419D02*
X91762218Y-53172419D01*
X91762218Y-54124800D02*
X91666980Y-54172419D01*
X91666980Y-54172419D02*
X91476504Y-54172419D01*
X91476504Y-54172419D02*
X91381266Y-54124800D01*
X91381266Y-54124800D02*
X91333647Y-54077180D01*
X91333647Y-54077180D02*
X91286028Y-53981942D01*
X91286028Y-53981942D02*
X91286028Y-53696228D01*
X91286028Y-53696228D02*
X91333647Y-53600990D01*
X91333647Y-53600990D02*
X91381266Y-53553371D01*
X91381266Y-53553371D02*
X91476504Y-53505752D01*
X91476504Y-53505752D02*
X91666980Y-53505752D01*
X91666980Y-53505752D02*
X91762218Y-53553371D01*
X92238409Y-54172419D02*
X92238409Y-53505752D01*
X92238409Y-53172419D02*
X92190790Y-53220038D01*
X92190790Y-53220038D02*
X92238409Y-53267657D01*
X92238409Y-53267657D02*
X92286028Y-53220038D01*
X92286028Y-53220038D02*
X92238409Y-53172419D01*
X92238409Y-53172419D02*
X92238409Y-53267657D01*
X92714599Y-53505752D02*
X92714599Y-54172419D01*
X92714599Y-53600990D02*
X92762218Y-53553371D01*
X92762218Y-53553371D02*
X92857456Y-53505752D01*
X92857456Y-53505752D02*
X93000313Y-53505752D01*
X93000313Y-53505752D02*
X93095551Y-53553371D01*
X93095551Y-53553371D02*
X93143170Y-53648609D01*
X93143170Y-53648609D02*
X93143170Y-54172419D01*
X94000313Y-54124800D02*
X93905075Y-54172419D01*
X93905075Y-54172419D02*
X93714599Y-54172419D01*
X93714599Y-54172419D02*
X93619361Y-54124800D01*
X93619361Y-54124800D02*
X93571742Y-54029561D01*
X93571742Y-54029561D02*
X93571742Y-53648609D01*
X93571742Y-53648609D02*
X93619361Y-53553371D01*
X93619361Y-53553371D02*
X93714599Y-53505752D01*
X93714599Y-53505752D02*
X93905075Y-53505752D01*
X93905075Y-53505752D02*
X94000313Y-53553371D01*
X94000313Y-53553371D02*
X94047932Y-53648609D01*
X94047932Y-53648609D02*
X94047932Y-53743847D01*
X94047932Y-53743847D02*
X93571742Y-53839085D01*
X131021741Y-55800990D02*
X130926503Y-55753371D01*
X130926503Y-55753371D02*
X130878884Y-55705752D01*
X130878884Y-55705752D02*
X130831265Y-55610514D01*
X130831265Y-55610514D02*
X130831265Y-55562895D01*
X130831265Y-55562895D02*
X130878884Y-55467657D01*
X130878884Y-55467657D02*
X130926503Y-55420038D01*
X130926503Y-55420038D02*
X131021741Y-55372419D01*
X131021741Y-55372419D02*
X131212217Y-55372419D01*
X131212217Y-55372419D02*
X131307455Y-55420038D01*
X131307455Y-55420038D02*
X131355074Y-55467657D01*
X131355074Y-55467657D02*
X131402693Y-55562895D01*
X131402693Y-55562895D02*
X131402693Y-55610514D01*
X131402693Y-55610514D02*
X131355074Y-55705752D01*
X131355074Y-55705752D02*
X131307455Y-55753371D01*
X131307455Y-55753371D02*
X131212217Y-55800990D01*
X131212217Y-55800990D02*
X131021741Y-55800990D01*
X131021741Y-55800990D02*
X130926503Y-55848609D01*
X130926503Y-55848609D02*
X130878884Y-55896228D01*
X130878884Y-55896228D02*
X130831265Y-55991466D01*
X130831265Y-55991466D02*
X130831265Y-56181942D01*
X130831265Y-56181942D02*
X130878884Y-56277180D01*
X130878884Y-56277180D02*
X130926503Y-56324800D01*
X130926503Y-56324800D02*
X131021741Y-56372419D01*
X131021741Y-56372419D02*
X131212217Y-56372419D01*
X131212217Y-56372419D02*
X131307455Y-56324800D01*
X131307455Y-56324800D02*
X131355074Y-56277180D01*
X131355074Y-56277180D02*
X131402693Y-56181942D01*
X131402693Y-56181942D02*
X131402693Y-55991466D01*
X131402693Y-55991466D02*
X131355074Y-55896228D01*
X131355074Y-55896228D02*
X131307455Y-55848609D01*
X131307455Y-55848609D02*
X131212217Y-55800990D01*
X98283646Y-111347419D02*
X98902693Y-111347419D01*
X98902693Y-111347419D02*
X98569360Y-111728371D01*
X98569360Y-111728371D02*
X98712217Y-111728371D01*
X98712217Y-111728371D02*
X98807455Y-111775990D01*
X98807455Y-111775990D02*
X98855074Y-111823609D01*
X98855074Y-111823609D02*
X98902693Y-111918847D01*
X98902693Y-111918847D02*
X98902693Y-112156942D01*
X98902693Y-112156942D02*
X98855074Y-112252180D01*
X98855074Y-112252180D02*
X98807455Y-112299800D01*
X98807455Y-112299800D02*
X98712217Y-112347419D01*
X98712217Y-112347419D02*
X98426503Y-112347419D01*
X98426503Y-112347419D02*
X98331265Y-112299800D01*
X98331265Y-112299800D02*
X98283646Y-112252180D01*
X99855074Y-112347419D02*
X99283646Y-112347419D01*
X99569360Y-112347419D02*
X99569360Y-111347419D01*
X99569360Y-111347419D02*
X99474122Y-111490276D01*
X99474122Y-111490276D02*
X99378884Y-111585514D01*
X99378884Y-111585514D02*
X99283646Y-111633133D01*
X111477693Y-77047419D02*
X110906265Y-77047419D01*
X111191979Y-77047419D02*
X111191979Y-76047419D01*
X111191979Y-76047419D02*
X111096741Y-76190276D01*
X111096741Y-76190276D02*
X111001503Y-76285514D01*
X111001503Y-76285514D02*
X110906265Y-76333133D01*
X111953884Y-77047419D02*
X112144360Y-77047419D01*
X112144360Y-77047419D02*
X112239598Y-76999800D01*
X112239598Y-76999800D02*
X112287217Y-76952180D01*
X112287217Y-76952180D02*
X112382455Y-76809323D01*
X112382455Y-76809323D02*
X112430074Y-76618847D01*
X112430074Y-76618847D02*
X112430074Y-76237895D01*
X112430074Y-76237895D02*
X112382455Y-76142657D01*
X112382455Y-76142657D02*
X112334836Y-76095038D01*
X112334836Y-76095038D02*
X112239598Y-76047419D01*
X112239598Y-76047419D02*
X112049122Y-76047419D01*
X112049122Y-76047419D02*
X111953884Y-76095038D01*
X111953884Y-76095038D02*
X111906265Y-76142657D01*
X111906265Y-76142657D02*
X111858646Y-76237895D01*
X111858646Y-76237895D02*
X111858646Y-76475990D01*
X111858646Y-76475990D02*
X111906265Y-76571228D01*
X111906265Y-76571228D02*
X111953884Y-76618847D01*
X111953884Y-76618847D02*
X112049122Y-76666466D01*
X112049122Y-76666466D02*
X112239598Y-76666466D01*
X112239598Y-76666466D02*
X112334836Y-76618847D01*
X112334836Y-76618847D02*
X112382455Y-76571228D01*
X112382455Y-76571228D02*
X112430074Y-76475990D01*
X172981265Y-91317657D02*
X173028884Y-91270038D01*
X173028884Y-91270038D02*
X173124122Y-91222419D01*
X173124122Y-91222419D02*
X173362217Y-91222419D01*
X173362217Y-91222419D02*
X173457455Y-91270038D01*
X173457455Y-91270038D02*
X173505074Y-91317657D01*
X173505074Y-91317657D02*
X173552693Y-91412895D01*
X173552693Y-91412895D02*
X173552693Y-91508133D01*
X173552693Y-91508133D02*
X173505074Y-91650990D01*
X173505074Y-91650990D02*
X172933646Y-92222419D01*
X172933646Y-92222419D02*
X173552693Y-92222419D01*
X174028884Y-92222419D02*
X174219360Y-92222419D01*
X174219360Y-92222419D02*
X174314598Y-92174800D01*
X174314598Y-92174800D02*
X174362217Y-92127180D01*
X174362217Y-92127180D02*
X174457455Y-91984323D01*
X174457455Y-91984323D02*
X174505074Y-91793847D01*
X174505074Y-91793847D02*
X174505074Y-91412895D01*
X174505074Y-91412895D02*
X174457455Y-91317657D01*
X174457455Y-91317657D02*
X174409836Y-91270038D01*
X174409836Y-91270038D02*
X174314598Y-91222419D01*
X174314598Y-91222419D02*
X174124122Y-91222419D01*
X174124122Y-91222419D02*
X174028884Y-91270038D01*
X174028884Y-91270038D02*
X173981265Y-91317657D01*
X173981265Y-91317657D02*
X173933646Y-91412895D01*
X173933646Y-91412895D02*
X173933646Y-91650990D01*
X173933646Y-91650990D02*
X173981265Y-91746228D01*
X173981265Y-91746228D02*
X174028884Y-91793847D01*
X174028884Y-91793847D02*
X174124122Y-91841466D01*
X174124122Y-91841466D02*
X174314598Y-91841466D01*
X174314598Y-91841466D02*
X174409836Y-91793847D01*
X174409836Y-91793847D02*
X174457455Y-91746228D01*
X174457455Y-91746228D02*
X174505074Y-91650990D01*
X136306265Y-76267657D02*
X136353884Y-76220038D01*
X136353884Y-76220038D02*
X136449122Y-76172419D01*
X136449122Y-76172419D02*
X136687217Y-76172419D01*
X136687217Y-76172419D02*
X136782455Y-76220038D01*
X136782455Y-76220038D02*
X136830074Y-76267657D01*
X136830074Y-76267657D02*
X136877693Y-76362895D01*
X136877693Y-76362895D02*
X136877693Y-76458133D01*
X136877693Y-76458133D02*
X136830074Y-76600990D01*
X136830074Y-76600990D02*
X136258646Y-77172419D01*
X136258646Y-77172419D02*
X136877693Y-77172419D01*
X137734836Y-76505752D02*
X137734836Y-77172419D01*
X137496741Y-76124800D02*
X137258646Y-76839085D01*
X137258646Y-76839085D02*
X137877693Y-76839085D01*
X126581265Y-76142657D02*
X126628884Y-76095038D01*
X126628884Y-76095038D02*
X126724122Y-76047419D01*
X126724122Y-76047419D02*
X126962217Y-76047419D01*
X126962217Y-76047419D02*
X127057455Y-76095038D01*
X127057455Y-76095038D02*
X127105074Y-76142657D01*
X127105074Y-76142657D02*
X127152693Y-76237895D01*
X127152693Y-76237895D02*
X127152693Y-76333133D01*
X127152693Y-76333133D02*
X127105074Y-76475990D01*
X127105074Y-76475990D02*
X126533646Y-77047419D01*
X126533646Y-77047419D02*
X127152693Y-77047419D01*
X127533646Y-76142657D02*
X127581265Y-76095038D01*
X127581265Y-76095038D02*
X127676503Y-76047419D01*
X127676503Y-76047419D02*
X127914598Y-76047419D01*
X127914598Y-76047419D02*
X128009836Y-76095038D01*
X128009836Y-76095038D02*
X128057455Y-76142657D01*
X128057455Y-76142657D02*
X128105074Y-76237895D01*
X128105074Y-76237895D02*
X128105074Y-76333133D01*
X128105074Y-76333133D02*
X128057455Y-76475990D01*
X128057455Y-76475990D02*
X127486027Y-77047419D01*
X127486027Y-77047419D02*
X128105074Y-77047419D01*
X67583646Y-58772419D02*
X68202693Y-58772419D01*
X68202693Y-58772419D02*
X67869360Y-59153371D01*
X67869360Y-59153371D02*
X68012217Y-59153371D01*
X68012217Y-59153371D02*
X68107455Y-59200990D01*
X68107455Y-59200990D02*
X68155074Y-59248609D01*
X68155074Y-59248609D02*
X68202693Y-59343847D01*
X68202693Y-59343847D02*
X68202693Y-59581942D01*
X68202693Y-59581942D02*
X68155074Y-59677180D01*
X68155074Y-59677180D02*
X68107455Y-59724800D01*
X68107455Y-59724800D02*
X68012217Y-59772419D01*
X68012217Y-59772419D02*
X67726503Y-59772419D01*
X67726503Y-59772419D02*
X67631265Y-59724800D01*
X67631265Y-59724800D02*
X67583646Y-59677180D01*
X69155074Y-59772419D02*
X68583646Y-59772419D01*
X68869360Y-59772419D02*
X68869360Y-58772419D01*
X68869360Y-58772419D02*
X68774122Y-58915276D01*
X68774122Y-58915276D02*
X68678884Y-59010514D01*
X68678884Y-59010514D02*
X68583646Y-59058133D01*
X95972693Y-56072419D02*
X95401265Y-56072419D01*
X95686979Y-56072419D02*
X95686979Y-55072419D01*
X95686979Y-55072419D02*
X95591741Y-55215276D01*
X95591741Y-55215276D02*
X95496503Y-55310514D01*
X95496503Y-55310514D02*
X95401265Y-55358133D01*
X116281265Y-76092657D02*
X116328884Y-76045038D01*
X116328884Y-76045038D02*
X116424122Y-75997419D01*
X116424122Y-75997419D02*
X116662217Y-75997419D01*
X116662217Y-75997419D02*
X116757455Y-76045038D01*
X116757455Y-76045038D02*
X116805074Y-76092657D01*
X116805074Y-76092657D02*
X116852693Y-76187895D01*
X116852693Y-76187895D02*
X116852693Y-76283133D01*
X116852693Y-76283133D02*
X116805074Y-76425990D01*
X116805074Y-76425990D02*
X116233646Y-76997419D01*
X116233646Y-76997419D02*
X116852693Y-76997419D01*
X117471741Y-75997419D02*
X117566979Y-75997419D01*
X117566979Y-75997419D02*
X117662217Y-76045038D01*
X117662217Y-76045038D02*
X117709836Y-76092657D01*
X117709836Y-76092657D02*
X117757455Y-76187895D01*
X117757455Y-76187895D02*
X117805074Y-76378371D01*
X117805074Y-76378371D02*
X117805074Y-76616466D01*
X117805074Y-76616466D02*
X117757455Y-76806942D01*
X117757455Y-76806942D02*
X117709836Y-76902180D01*
X117709836Y-76902180D02*
X117662217Y-76949800D01*
X117662217Y-76949800D02*
X117566979Y-76997419D01*
X117566979Y-76997419D02*
X117471741Y-76997419D01*
X117471741Y-76997419D02*
X117376503Y-76949800D01*
X117376503Y-76949800D02*
X117328884Y-76902180D01*
X117328884Y-76902180D02*
X117281265Y-76806942D01*
X117281265Y-76806942D02*
X117233646Y-76616466D01*
X117233646Y-76616466D02*
X117233646Y-76378371D01*
X117233646Y-76378371D02*
X117281265Y-76187895D01*
X117281265Y-76187895D02*
X117328884Y-76092657D01*
X117328884Y-76092657D02*
X117376503Y-76045038D01*
X117376503Y-76045038D02*
X117471741Y-75997419D01*
X136101503Y-56272419D02*
X136291979Y-56272419D01*
X136291979Y-56272419D02*
X136387217Y-56224800D01*
X136387217Y-56224800D02*
X136434836Y-56177180D01*
X136434836Y-56177180D02*
X136530074Y-56034323D01*
X136530074Y-56034323D02*
X136577693Y-55843847D01*
X136577693Y-55843847D02*
X136577693Y-55462895D01*
X136577693Y-55462895D02*
X136530074Y-55367657D01*
X136530074Y-55367657D02*
X136482455Y-55320038D01*
X136482455Y-55320038D02*
X136387217Y-55272419D01*
X136387217Y-55272419D02*
X136196741Y-55272419D01*
X136196741Y-55272419D02*
X136101503Y-55320038D01*
X136101503Y-55320038D02*
X136053884Y-55367657D01*
X136053884Y-55367657D02*
X136006265Y-55462895D01*
X136006265Y-55462895D02*
X136006265Y-55700990D01*
X136006265Y-55700990D02*
X136053884Y-55796228D01*
X136053884Y-55796228D02*
X136101503Y-55843847D01*
X136101503Y-55843847D02*
X136196741Y-55891466D01*
X136196741Y-55891466D02*
X136387217Y-55891466D01*
X136387217Y-55891466D02*
X136482455Y-55843847D01*
X136482455Y-55843847D02*
X136530074Y-55796228D01*
X136530074Y-55796228D02*
X136577693Y-55700990D01*
X106152693Y-77022419D02*
X105581265Y-77022419D01*
X105866979Y-77022419D02*
X105866979Y-76022419D01*
X105866979Y-76022419D02*
X105771741Y-76165276D01*
X105771741Y-76165276D02*
X105676503Y-76260514D01*
X105676503Y-76260514D02*
X105581265Y-76308133D01*
X106724122Y-76450990D02*
X106628884Y-76403371D01*
X106628884Y-76403371D02*
X106581265Y-76355752D01*
X106581265Y-76355752D02*
X106533646Y-76260514D01*
X106533646Y-76260514D02*
X106533646Y-76212895D01*
X106533646Y-76212895D02*
X106581265Y-76117657D01*
X106581265Y-76117657D02*
X106628884Y-76070038D01*
X106628884Y-76070038D02*
X106724122Y-76022419D01*
X106724122Y-76022419D02*
X106914598Y-76022419D01*
X106914598Y-76022419D02*
X107009836Y-76070038D01*
X107009836Y-76070038D02*
X107057455Y-76117657D01*
X107057455Y-76117657D02*
X107105074Y-76212895D01*
X107105074Y-76212895D02*
X107105074Y-76260514D01*
X107105074Y-76260514D02*
X107057455Y-76355752D01*
X107057455Y-76355752D02*
X107009836Y-76403371D01*
X107009836Y-76403371D02*
X106914598Y-76450990D01*
X106914598Y-76450990D02*
X106724122Y-76450990D01*
X106724122Y-76450990D02*
X106628884Y-76498609D01*
X106628884Y-76498609D02*
X106581265Y-76546228D01*
X106581265Y-76546228D02*
X106533646Y-76641466D01*
X106533646Y-76641466D02*
X106533646Y-76831942D01*
X106533646Y-76831942D02*
X106581265Y-76927180D01*
X106581265Y-76927180D02*
X106628884Y-76974800D01*
X106628884Y-76974800D02*
X106724122Y-77022419D01*
X106724122Y-77022419D02*
X106914598Y-77022419D01*
X106914598Y-77022419D02*
X107009836Y-76974800D01*
X107009836Y-76974800D02*
X107057455Y-76927180D01*
X107057455Y-76927180D02*
X107105074Y-76831942D01*
X107105074Y-76831942D02*
X107105074Y-76641466D01*
X107105074Y-76641466D02*
X107057455Y-76546228D01*
X107057455Y-76546228D02*
X107009836Y-76498609D01*
X107009836Y-76498609D02*
X106914598Y-76450990D01*
X67558646Y-69172419D02*
X68177693Y-69172419D01*
X68177693Y-69172419D02*
X67844360Y-69553371D01*
X67844360Y-69553371D02*
X67987217Y-69553371D01*
X67987217Y-69553371D02*
X68082455Y-69600990D01*
X68082455Y-69600990D02*
X68130074Y-69648609D01*
X68130074Y-69648609D02*
X68177693Y-69743847D01*
X68177693Y-69743847D02*
X68177693Y-69981942D01*
X68177693Y-69981942D02*
X68130074Y-70077180D01*
X68130074Y-70077180D02*
X68082455Y-70124800D01*
X68082455Y-70124800D02*
X67987217Y-70172419D01*
X67987217Y-70172419D02*
X67701503Y-70172419D01*
X67701503Y-70172419D02*
X67606265Y-70124800D01*
X67606265Y-70124800D02*
X67558646Y-70077180D01*
X68511027Y-69172419D02*
X69130074Y-69172419D01*
X69130074Y-69172419D02*
X68796741Y-69553371D01*
X68796741Y-69553371D02*
X68939598Y-69553371D01*
X68939598Y-69553371D02*
X69034836Y-69600990D01*
X69034836Y-69600990D02*
X69082455Y-69648609D01*
X69082455Y-69648609D02*
X69130074Y-69743847D01*
X69130074Y-69743847D02*
X69130074Y-69981942D01*
X69130074Y-69981942D02*
X69082455Y-70077180D01*
X69082455Y-70077180D02*
X69034836Y-70124800D01*
X69034836Y-70124800D02*
X68939598Y-70172419D01*
X68939598Y-70172419D02*
X68653884Y-70172419D01*
X68653884Y-70172419D02*
X68558646Y-70124800D01*
X68558646Y-70124800D02*
X68511027Y-70077180D01*
X67458646Y-64247419D02*
X68077693Y-64247419D01*
X68077693Y-64247419D02*
X67744360Y-64628371D01*
X67744360Y-64628371D02*
X67887217Y-64628371D01*
X67887217Y-64628371D02*
X67982455Y-64675990D01*
X67982455Y-64675990D02*
X68030074Y-64723609D01*
X68030074Y-64723609D02*
X68077693Y-64818847D01*
X68077693Y-64818847D02*
X68077693Y-65056942D01*
X68077693Y-65056942D02*
X68030074Y-65152180D01*
X68030074Y-65152180D02*
X67982455Y-65199800D01*
X67982455Y-65199800D02*
X67887217Y-65247419D01*
X67887217Y-65247419D02*
X67601503Y-65247419D01*
X67601503Y-65247419D02*
X67506265Y-65199800D01*
X67506265Y-65199800D02*
X67458646Y-65152180D01*
X68458646Y-64342657D02*
X68506265Y-64295038D01*
X68506265Y-64295038D02*
X68601503Y-64247419D01*
X68601503Y-64247419D02*
X68839598Y-64247419D01*
X68839598Y-64247419D02*
X68934836Y-64295038D01*
X68934836Y-64295038D02*
X68982455Y-64342657D01*
X68982455Y-64342657D02*
X69030074Y-64437895D01*
X69030074Y-64437895D02*
X69030074Y-64533133D01*
X69030074Y-64533133D02*
X68982455Y-64675990D01*
X68982455Y-64675990D02*
X68411027Y-65247419D01*
X68411027Y-65247419D02*
X69030074Y-65247419D01*
X131456265Y-76217657D02*
X131503884Y-76170038D01*
X131503884Y-76170038D02*
X131599122Y-76122419D01*
X131599122Y-76122419D02*
X131837217Y-76122419D01*
X131837217Y-76122419D02*
X131932455Y-76170038D01*
X131932455Y-76170038D02*
X131980074Y-76217657D01*
X131980074Y-76217657D02*
X132027693Y-76312895D01*
X132027693Y-76312895D02*
X132027693Y-76408133D01*
X132027693Y-76408133D02*
X131980074Y-76550990D01*
X131980074Y-76550990D02*
X131408646Y-77122419D01*
X131408646Y-77122419D02*
X132027693Y-77122419D01*
X132361027Y-76122419D02*
X132980074Y-76122419D01*
X132980074Y-76122419D02*
X132646741Y-76503371D01*
X132646741Y-76503371D02*
X132789598Y-76503371D01*
X132789598Y-76503371D02*
X132884836Y-76550990D01*
X132884836Y-76550990D02*
X132932455Y-76598609D01*
X132932455Y-76598609D02*
X132980074Y-76693847D01*
X132980074Y-76693847D02*
X132980074Y-76931942D01*
X132980074Y-76931942D02*
X132932455Y-77027180D01*
X132932455Y-77027180D02*
X132884836Y-77074800D01*
X132884836Y-77074800D02*
X132789598Y-77122419D01*
X132789598Y-77122419D02*
X132503884Y-77122419D01*
X132503884Y-77122419D02*
X132408646Y-77074800D01*
X132408646Y-77074800D02*
X132361027Y-77027180D01*
X173477693Y-66822419D02*
X172906265Y-66822419D01*
X173191979Y-66822419D02*
X173191979Y-65822419D01*
X173191979Y-65822419D02*
X173096741Y-65965276D01*
X173096741Y-65965276D02*
X173001503Y-66060514D01*
X173001503Y-66060514D02*
X172906265Y-66108133D01*
X174334836Y-66155752D02*
X174334836Y-66822419D01*
X174096741Y-65774800D02*
X173858646Y-66489085D01*
X173858646Y-66489085D02*
X174477693Y-66489085D01*
X116155074Y-55272419D02*
X115678884Y-55272419D01*
X115678884Y-55272419D02*
X115631265Y-55748609D01*
X115631265Y-55748609D02*
X115678884Y-55700990D01*
X115678884Y-55700990D02*
X115774122Y-55653371D01*
X115774122Y-55653371D02*
X116012217Y-55653371D01*
X116012217Y-55653371D02*
X116107455Y-55700990D01*
X116107455Y-55700990D02*
X116155074Y-55748609D01*
X116155074Y-55748609D02*
X116202693Y-55843847D01*
X116202693Y-55843847D02*
X116202693Y-56081942D01*
X116202693Y-56081942D02*
X116155074Y-56177180D01*
X116155074Y-56177180D02*
X116107455Y-56224800D01*
X116107455Y-56224800D02*
X116012217Y-56272419D01*
X116012217Y-56272419D02*
X115774122Y-56272419D01*
X115774122Y-56272419D02*
X115678884Y-56224800D01*
X115678884Y-56224800D02*
X115631265Y-56177180D01*
X172981265Y-81442657D02*
X173028884Y-81395038D01*
X173028884Y-81395038D02*
X173124122Y-81347419D01*
X173124122Y-81347419D02*
X173362217Y-81347419D01*
X173362217Y-81347419D02*
X173457455Y-81395038D01*
X173457455Y-81395038D02*
X173505074Y-81442657D01*
X173505074Y-81442657D02*
X173552693Y-81537895D01*
X173552693Y-81537895D02*
X173552693Y-81633133D01*
X173552693Y-81633133D02*
X173505074Y-81775990D01*
X173505074Y-81775990D02*
X172933646Y-82347419D01*
X172933646Y-82347419D02*
X173552693Y-82347419D01*
X173886027Y-81347419D02*
X174552693Y-81347419D01*
X174552693Y-81347419D02*
X174124122Y-82347419D01*
X67982455Y-104905752D02*
X67982455Y-105572419D01*
X67744360Y-104524800D02*
X67506265Y-105239085D01*
X67506265Y-105239085D02*
X68125312Y-105239085D01*
X68696741Y-104572419D02*
X68791979Y-104572419D01*
X68791979Y-104572419D02*
X68887217Y-104620038D01*
X68887217Y-104620038D02*
X68934836Y-104667657D01*
X68934836Y-104667657D02*
X68982455Y-104762895D01*
X68982455Y-104762895D02*
X69030074Y-104953371D01*
X69030074Y-104953371D02*
X69030074Y-105191466D01*
X69030074Y-105191466D02*
X68982455Y-105381942D01*
X68982455Y-105381942D02*
X68934836Y-105477180D01*
X68934836Y-105477180D02*
X68887217Y-105524800D01*
X68887217Y-105524800D02*
X68791979Y-105572419D01*
X68791979Y-105572419D02*
X68696741Y-105572419D01*
X68696741Y-105572419D02*
X68601503Y-105524800D01*
X68601503Y-105524800D02*
X68553884Y-105477180D01*
X68553884Y-105477180D02*
X68506265Y-105381942D01*
X68506265Y-105381942D02*
X68458646Y-105191466D01*
X68458646Y-105191466D02*
X68458646Y-104953371D01*
X68458646Y-104953371D02*
X68506265Y-104762895D01*
X68506265Y-104762895D02*
X68553884Y-104667657D01*
X68553884Y-104667657D02*
X68601503Y-104620038D01*
X68601503Y-104620038D02*
X68696741Y-104572419D01*
X67558646Y-94497419D02*
X68177693Y-94497419D01*
X68177693Y-94497419D02*
X67844360Y-94878371D01*
X67844360Y-94878371D02*
X67987217Y-94878371D01*
X67987217Y-94878371D02*
X68082455Y-94925990D01*
X68082455Y-94925990D02*
X68130074Y-94973609D01*
X68130074Y-94973609D02*
X68177693Y-95068847D01*
X68177693Y-95068847D02*
X68177693Y-95306942D01*
X68177693Y-95306942D02*
X68130074Y-95402180D01*
X68130074Y-95402180D02*
X68082455Y-95449800D01*
X68082455Y-95449800D02*
X67987217Y-95497419D01*
X67987217Y-95497419D02*
X67701503Y-95497419D01*
X67701503Y-95497419D02*
X67606265Y-95449800D01*
X67606265Y-95449800D02*
X67558646Y-95402180D01*
X68749122Y-94925990D02*
X68653884Y-94878371D01*
X68653884Y-94878371D02*
X68606265Y-94830752D01*
X68606265Y-94830752D02*
X68558646Y-94735514D01*
X68558646Y-94735514D02*
X68558646Y-94687895D01*
X68558646Y-94687895D02*
X68606265Y-94592657D01*
X68606265Y-94592657D02*
X68653884Y-94545038D01*
X68653884Y-94545038D02*
X68749122Y-94497419D01*
X68749122Y-94497419D02*
X68939598Y-94497419D01*
X68939598Y-94497419D02*
X69034836Y-94545038D01*
X69034836Y-94545038D02*
X69082455Y-94592657D01*
X69082455Y-94592657D02*
X69130074Y-94687895D01*
X69130074Y-94687895D02*
X69130074Y-94735514D01*
X69130074Y-94735514D02*
X69082455Y-94830752D01*
X69082455Y-94830752D02*
X69034836Y-94878371D01*
X69034836Y-94878371D02*
X68939598Y-94925990D01*
X68939598Y-94925990D02*
X68749122Y-94925990D01*
X68749122Y-94925990D02*
X68653884Y-94973609D01*
X68653884Y-94973609D02*
X68606265Y-95021228D01*
X68606265Y-95021228D02*
X68558646Y-95116466D01*
X68558646Y-95116466D02*
X68558646Y-95306942D01*
X68558646Y-95306942D02*
X68606265Y-95402180D01*
X68606265Y-95402180D02*
X68653884Y-95449800D01*
X68653884Y-95449800D02*
X68749122Y-95497419D01*
X68749122Y-95497419D02*
X68939598Y-95497419D01*
X68939598Y-95497419D02*
X69034836Y-95449800D01*
X69034836Y-95449800D02*
X69082455Y-95402180D01*
X69082455Y-95402180D02*
X69130074Y-95306942D01*
X69130074Y-95306942D02*
X69130074Y-95116466D01*
X69130074Y-95116466D02*
X69082455Y-95021228D01*
X69082455Y-95021228D02*
X69034836Y-94973609D01*
X69034836Y-94973609D02*
X68939598Y-94925990D01*
X105508646Y-55172419D02*
X106127693Y-55172419D01*
X106127693Y-55172419D02*
X105794360Y-55553371D01*
X105794360Y-55553371D02*
X105937217Y-55553371D01*
X105937217Y-55553371D02*
X106032455Y-55600990D01*
X106032455Y-55600990D02*
X106080074Y-55648609D01*
X106080074Y-55648609D02*
X106127693Y-55743847D01*
X106127693Y-55743847D02*
X106127693Y-55981942D01*
X106127693Y-55981942D02*
X106080074Y-56077180D01*
X106080074Y-56077180D02*
X106032455Y-56124800D01*
X106032455Y-56124800D02*
X105937217Y-56172419D01*
X105937217Y-56172419D02*
X105651503Y-56172419D01*
X105651503Y-56172419D02*
X105556265Y-56124800D01*
X105556265Y-56124800D02*
X105508646Y-56077180D01*
X173452693Y-72297419D02*
X172881265Y-72297419D01*
X173166979Y-72297419D02*
X173166979Y-71297419D01*
X173166979Y-71297419D02*
X173071741Y-71440276D01*
X173071741Y-71440276D02*
X172976503Y-71535514D01*
X172976503Y-71535514D02*
X172881265Y-71583133D01*
X174357455Y-71297419D02*
X173881265Y-71297419D01*
X173881265Y-71297419D02*
X173833646Y-71773609D01*
X173833646Y-71773609D02*
X173881265Y-71725990D01*
X173881265Y-71725990D02*
X173976503Y-71678371D01*
X173976503Y-71678371D02*
X174214598Y-71678371D01*
X174214598Y-71678371D02*
X174309836Y-71725990D01*
X174309836Y-71725990D02*
X174357455Y-71773609D01*
X174357455Y-71773609D02*
X174405074Y-71868847D01*
X174405074Y-71868847D02*
X174405074Y-72106942D01*
X174405074Y-72106942D02*
X174357455Y-72202180D01*
X174357455Y-72202180D02*
X174309836Y-72249800D01*
X174309836Y-72249800D02*
X174214598Y-72297419D01*
X174214598Y-72297419D02*
X173976503Y-72297419D01*
X173976503Y-72297419D02*
X173881265Y-72249800D01*
X173881265Y-72249800D02*
X173833646Y-72202180D01*
X121406265Y-76092657D02*
X121453884Y-76045038D01*
X121453884Y-76045038D02*
X121549122Y-75997419D01*
X121549122Y-75997419D02*
X121787217Y-75997419D01*
X121787217Y-75997419D02*
X121882455Y-76045038D01*
X121882455Y-76045038D02*
X121930074Y-76092657D01*
X121930074Y-76092657D02*
X121977693Y-76187895D01*
X121977693Y-76187895D02*
X121977693Y-76283133D01*
X121977693Y-76283133D02*
X121930074Y-76425990D01*
X121930074Y-76425990D02*
X121358646Y-76997419D01*
X121358646Y-76997419D02*
X121977693Y-76997419D01*
X122930074Y-76997419D02*
X122358646Y-76997419D01*
X122644360Y-76997419D02*
X122644360Y-75997419D01*
X122644360Y-75997419D02*
X122549122Y-76140276D01*
X122549122Y-76140276D02*
X122453884Y-76235514D01*
X122453884Y-76235514D02*
X122358646Y-76283133D01*
X67483646Y-89272419D02*
X68102693Y-89272419D01*
X68102693Y-89272419D02*
X67769360Y-89653371D01*
X67769360Y-89653371D02*
X67912217Y-89653371D01*
X67912217Y-89653371D02*
X68007455Y-89700990D01*
X68007455Y-89700990D02*
X68055074Y-89748609D01*
X68055074Y-89748609D02*
X68102693Y-89843847D01*
X68102693Y-89843847D02*
X68102693Y-90081942D01*
X68102693Y-90081942D02*
X68055074Y-90177180D01*
X68055074Y-90177180D02*
X68007455Y-90224800D01*
X68007455Y-90224800D02*
X67912217Y-90272419D01*
X67912217Y-90272419D02*
X67626503Y-90272419D01*
X67626503Y-90272419D02*
X67531265Y-90224800D01*
X67531265Y-90224800D02*
X67483646Y-90177180D01*
X68436027Y-89272419D02*
X69102693Y-89272419D01*
X69102693Y-89272419D02*
X68674122Y-90272419D01*
X96202693Y-77022419D02*
X95631265Y-77022419D01*
X95916979Y-77022419D02*
X95916979Y-76022419D01*
X95916979Y-76022419D02*
X95821741Y-76165276D01*
X95821741Y-76165276D02*
X95726503Y-76260514D01*
X95726503Y-76260514D02*
X95631265Y-76308133D01*
X97059836Y-76022419D02*
X96869360Y-76022419D01*
X96869360Y-76022419D02*
X96774122Y-76070038D01*
X96774122Y-76070038D02*
X96726503Y-76117657D01*
X96726503Y-76117657D02*
X96631265Y-76260514D01*
X96631265Y-76260514D02*
X96583646Y-76450990D01*
X96583646Y-76450990D02*
X96583646Y-76831942D01*
X96583646Y-76831942D02*
X96631265Y-76927180D01*
X96631265Y-76927180D02*
X96678884Y-76974800D01*
X96678884Y-76974800D02*
X96774122Y-77022419D01*
X96774122Y-77022419D02*
X96964598Y-77022419D01*
X96964598Y-77022419D02*
X97059836Y-76974800D01*
X97059836Y-76974800D02*
X97107455Y-76927180D01*
X97107455Y-76927180D02*
X97155074Y-76831942D01*
X97155074Y-76831942D02*
X97155074Y-76593847D01*
X97155074Y-76593847D02*
X97107455Y-76498609D01*
X97107455Y-76498609D02*
X97059836Y-76450990D01*
X97059836Y-76450990D02*
X96964598Y-76403371D01*
X96964598Y-76403371D02*
X96774122Y-76403371D01*
X96774122Y-76403371D02*
X96678884Y-76450990D01*
X96678884Y-76450990D02*
X96631265Y-76498609D01*
X96631265Y-76498609D02*
X96583646Y-76593847D01*
X110982455Y-55605752D02*
X110982455Y-56272419D01*
X110744360Y-55224800D02*
X110506265Y-55939085D01*
X110506265Y-55939085D02*
X111125312Y-55939085D01*
X67458646Y-84147419D02*
X68077693Y-84147419D01*
X68077693Y-84147419D02*
X67744360Y-84528371D01*
X67744360Y-84528371D02*
X67887217Y-84528371D01*
X67887217Y-84528371D02*
X67982455Y-84575990D01*
X67982455Y-84575990D02*
X68030074Y-84623609D01*
X68030074Y-84623609D02*
X68077693Y-84718847D01*
X68077693Y-84718847D02*
X68077693Y-84956942D01*
X68077693Y-84956942D02*
X68030074Y-85052180D01*
X68030074Y-85052180D02*
X67982455Y-85099800D01*
X67982455Y-85099800D02*
X67887217Y-85147419D01*
X67887217Y-85147419D02*
X67601503Y-85147419D01*
X67601503Y-85147419D02*
X67506265Y-85099800D01*
X67506265Y-85099800D02*
X67458646Y-85052180D01*
X68934836Y-84147419D02*
X68744360Y-84147419D01*
X68744360Y-84147419D02*
X68649122Y-84195038D01*
X68649122Y-84195038D02*
X68601503Y-84242657D01*
X68601503Y-84242657D02*
X68506265Y-84385514D01*
X68506265Y-84385514D02*
X68458646Y-84575990D01*
X68458646Y-84575990D02*
X68458646Y-84956942D01*
X68458646Y-84956942D02*
X68506265Y-85052180D01*
X68506265Y-85052180D02*
X68553884Y-85099800D01*
X68553884Y-85099800D02*
X68649122Y-85147419D01*
X68649122Y-85147419D02*
X68839598Y-85147419D01*
X68839598Y-85147419D02*
X68934836Y-85099800D01*
X68934836Y-85099800D02*
X68982455Y-85052180D01*
X68982455Y-85052180D02*
X69030074Y-84956942D01*
X69030074Y-84956942D02*
X69030074Y-84718847D01*
X69030074Y-84718847D02*
X68982455Y-84623609D01*
X68982455Y-84623609D02*
X68934836Y-84575990D01*
X68934836Y-84575990D02*
X68839598Y-84528371D01*
X68839598Y-84528371D02*
X68649122Y-84528371D01*
X68649122Y-84528371D02*
X68553884Y-84575990D01*
X68553884Y-84575990D02*
X68506265Y-84623609D01*
X68506265Y-84623609D02*
X68458646Y-84718847D01*
X100827693Y-77022419D02*
X100256265Y-77022419D01*
X100541979Y-77022419D02*
X100541979Y-76022419D01*
X100541979Y-76022419D02*
X100446741Y-76165276D01*
X100446741Y-76165276D02*
X100351503Y-76260514D01*
X100351503Y-76260514D02*
X100256265Y-76308133D01*
X101161027Y-76022419D02*
X101827693Y-76022419D01*
X101827693Y-76022419D02*
X101399122Y-77022419D01*
X67533646Y-99572419D02*
X68152693Y-99572419D01*
X68152693Y-99572419D02*
X67819360Y-99953371D01*
X67819360Y-99953371D02*
X67962217Y-99953371D01*
X67962217Y-99953371D02*
X68057455Y-100000990D01*
X68057455Y-100000990D02*
X68105074Y-100048609D01*
X68105074Y-100048609D02*
X68152693Y-100143847D01*
X68152693Y-100143847D02*
X68152693Y-100381942D01*
X68152693Y-100381942D02*
X68105074Y-100477180D01*
X68105074Y-100477180D02*
X68057455Y-100524800D01*
X68057455Y-100524800D02*
X67962217Y-100572419D01*
X67962217Y-100572419D02*
X67676503Y-100572419D01*
X67676503Y-100572419D02*
X67581265Y-100524800D01*
X67581265Y-100524800D02*
X67533646Y-100477180D01*
X68628884Y-100572419D02*
X68819360Y-100572419D01*
X68819360Y-100572419D02*
X68914598Y-100524800D01*
X68914598Y-100524800D02*
X68962217Y-100477180D01*
X68962217Y-100477180D02*
X69057455Y-100334323D01*
X69057455Y-100334323D02*
X69105074Y-100143847D01*
X69105074Y-100143847D02*
X69105074Y-99762895D01*
X69105074Y-99762895D02*
X69057455Y-99667657D01*
X69057455Y-99667657D02*
X69009836Y-99620038D01*
X69009836Y-99620038D02*
X68914598Y-99572419D01*
X68914598Y-99572419D02*
X68724122Y-99572419D01*
X68724122Y-99572419D02*
X68628884Y-99620038D01*
X68628884Y-99620038D02*
X68581265Y-99667657D01*
X68581265Y-99667657D02*
X68533646Y-99762895D01*
X68533646Y-99762895D02*
X68533646Y-100000990D01*
X68533646Y-100000990D02*
X68581265Y-100096228D01*
X68581265Y-100096228D02*
X68628884Y-100143847D01*
X68628884Y-100143847D02*
X68724122Y-100191466D01*
X68724122Y-100191466D02*
X68914598Y-100191466D01*
X68914598Y-100191466D02*
X69009836Y-100143847D01*
X69009836Y-100143847D02*
X69057455Y-100096228D01*
X69057455Y-100096228D02*
X69105074Y-100000990D01*
X98177693Y-109722419D02*
X97606265Y-109722419D01*
X97891979Y-109722419D02*
X97891979Y-108722419D01*
X97891979Y-108722419D02*
X97796741Y-108865276D01*
X97796741Y-108865276D02*
X97701503Y-108960514D01*
X97701503Y-108960514D02*
X97606265Y-109008133D01*
X99034836Y-108722419D02*
X98844360Y-108722419D01*
X98844360Y-108722419D02*
X98749122Y-108770038D01*
X98749122Y-108770038D02*
X98701503Y-108817657D01*
X98701503Y-108817657D02*
X98606265Y-108960514D01*
X98606265Y-108960514D02*
X98558646Y-109150990D01*
X98558646Y-109150990D02*
X98558646Y-109531942D01*
X98558646Y-109531942D02*
X98606265Y-109627180D01*
X98606265Y-109627180D02*
X98653884Y-109674800D01*
X98653884Y-109674800D02*
X98749122Y-109722419D01*
X98749122Y-109722419D02*
X98939598Y-109722419D01*
X98939598Y-109722419D02*
X99034836Y-109674800D01*
X99034836Y-109674800D02*
X99082455Y-109627180D01*
X99082455Y-109627180D02*
X99130074Y-109531942D01*
X99130074Y-109531942D02*
X99130074Y-109293847D01*
X99130074Y-109293847D02*
X99082455Y-109198609D01*
X99082455Y-109198609D02*
X99034836Y-109150990D01*
X99034836Y-109150990D02*
X98939598Y-109103371D01*
X98939598Y-109103371D02*
X98749122Y-109103371D01*
X98749122Y-109103371D02*
X98653884Y-109150990D01*
X98653884Y-109150990D02*
X98606265Y-109198609D01*
X98606265Y-109198609D02*
X98558646Y-109293847D01*
D11*
X116581666Y-103559819D02*
X116581666Y-104274104D01*
X116581666Y-104274104D02*
X116534047Y-104416961D01*
X116534047Y-104416961D02*
X116438809Y-104512200D01*
X116438809Y-104512200D02*
X116295952Y-104559819D01*
X116295952Y-104559819D02*
X116200714Y-104559819D01*
X117581666Y-104559819D02*
X117010238Y-104559819D01*
X117295952Y-104559819D02*
X117295952Y-103559819D01*
X117295952Y-103559819D02*
X117200714Y-103702676D01*
X117200714Y-103702676D02*
X117105476Y-103797914D01*
X117105476Y-103797914D02*
X117010238Y-103845533D01*
X118821666Y-55209819D02*
X118821666Y-55924104D01*
X118821666Y-55924104D02*
X118774047Y-56066961D01*
X118774047Y-56066961D02*
X118678809Y-56162200D01*
X118678809Y-56162200D02*
X118535952Y-56209819D01*
X118535952Y-56209819D02*
X118440714Y-56209819D01*
X119774047Y-55209819D02*
X119297857Y-55209819D01*
X119297857Y-55209819D02*
X119250238Y-55686009D01*
X119250238Y-55686009D02*
X119297857Y-55638390D01*
X119297857Y-55638390D02*
X119393095Y-55590771D01*
X119393095Y-55590771D02*
X119631190Y-55590771D01*
X119631190Y-55590771D02*
X119726428Y-55638390D01*
X119726428Y-55638390D02*
X119774047Y-55686009D01*
X119774047Y-55686009D02*
X119821666Y-55781247D01*
X119821666Y-55781247D02*
X119821666Y-56019342D01*
X119821666Y-56019342D02*
X119774047Y-56114580D01*
X119774047Y-56114580D02*
X119726428Y-56162200D01*
X119726428Y-56162200D02*
X119631190Y-56209819D01*
X119631190Y-56209819D02*
X119393095Y-56209819D01*
X119393095Y-56209819D02*
X119297857Y-56162200D01*
X119297857Y-56162200D02*
X119250238Y-56114580D01*
X119041666Y-86849819D02*
X119041666Y-87564104D01*
X119041666Y-87564104D02*
X118994047Y-87706961D01*
X118994047Y-87706961D02*
X118898809Y-87802200D01*
X118898809Y-87802200D02*
X118755952Y-87849819D01*
X118755952Y-87849819D02*
X118660714Y-87849819D01*
X119470238Y-86945057D02*
X119517857Y-86897438D01*
X119517857Y-86897438D02*
X119613095Y-86849819D01*
X119613095Y-86849819D02*
X119851190Y-86849819D01*
X119851190Y-86849819D02*
X119946428Y-86897438D01*
X119946428Y-86897438D02*
X119994047Y-86945057D01*
X119994047Y-86945057D02*
X120041666Y-87040295D01*
X120041666Y-87040295D02*
X120041666Y-87135533D01*
X120041666Y-87135533D02*
X119994047Y-87278390D01*
X119994047Y-87278390D02*
X119422619Y-87849819D01*
X119422619Y-87849819D02*
X120041666Y-87849819D01*
X68209819Y-82598333D02*
X68924104Y-82598333D01*
X68924104Y-82598333D02*
X69066961Y-82645952D01*
X69066961Y-82645952D02*
X69162200Y-82741190D01*
X69162200Y-82741190D02*
X69209819Y-82884047D01*
X69209819Y-82884047D02*
X69209819Y-82979285D01*
X68543152Y-81693571D02*
X69209819Y-81693571D01*
X68162200Y-81931666D02*
X68876485Y-82169761D01*
X68876485Y-82169761D02*
X68876485Y-81550714D01*
X166279819Y-43603333D02*
X166994104Y-43603333D01*
X166994104Y-43603333D02*
X167136961Y-43650952D01*
X167136961Y-43650952D02*
X167232200Y-43746190D01*
X167232200Y-43746190D02*
X167279819Y-43889047D01*
X167279819Y-43889047D02*
X167279819Y-43984285D01*
X166279819Y-43222380D02*
X166279819Y-42603333D01*
X166279819Y-42603333D02*
X166660771Y-42936666D01*
X166660771Y-42936666D02*
X166660771Y-42793809D01*
X166660771Y-42793809D02*
X166708390Y-42698571D01*
X166708390Y-42698571D02*
X166756009Y-42650952D01*
X166756009Y-42650952D02*
X166851247Y-42603333D01*
X166851247Y-42603333D02*
X167089342Y-42603333D01*
X167089342Y-42603333D02*
X167184580Y-42650952D01*
X167184580Y-42650952D02*
X167232200Y-42698571D01*
X167232200Y-42698571D02*
X167279819Y-42793809D01*
X167279819Y-42793809D02*
X167279819Y-43079523D01*
X167279819Y-43079523D02*
X167232200Y-43174761D01*
X167232200Y-43174761D02*
X167184580Y-43222380D01*
D12*
G36*
X69987444Y-47726710D02*
G01*
X70016161Y-47727401D01*
X70045180Y-47728202D01*
X70075241Y-47729140D01*
X70107089Y-47730239D01*
X70141466Y-47731523D01*
X70179115Y-47733018D01*
X70191221Y-47733514D01*
X70225715Y-47734935D01*
X70225715Y-47999303D01*
X70225702Y-48032385D01*
X70225666Y-48064269D01*
X70225607Y-48094703D01*
X70225527Y-48123432D01*
X70225428Y-48150204D01*
X70225311Y-48174764D01*
X70225177Y-48196860D01*
X70225029Y-48216237D01*
X70224868Y-48232644D01*
X70224694Y-48245825D01*
X70224511Y-48255527D01*
X70224319Y-48261498D01*
X70224123Y-48263485D01*
X70222154Y-48262310D01*
X70216913Y-48258959D01*
X70208658Y-48253602D01*
X70197651Y-48246410D01*
X70184152Y-48237555D01*
X70168420Y-48227206D01*
X70150716Y-48215536D01*
X70131300Y-48202716D01*
X70110432Y-48188916D01*
X70088373Y-48174307D01*
X70072351Y-48163685D01*
X69922171Y-48064071D01*
X69922171Y-47894663D01*
X69922171Y-47725254D01*
X69987444Y-47726710D01*
G37*
G36*
X69134314Y-48414529D02*
G01*
X69156185Y-48416603D01*
X69175530Y-48421124D01*
X69193195Y-48428470D01*
X69210027Y-48439021D01*
X69226870Y-48453155D01*
X69232372Y-48458469D01*
X69248725Y-48477221D01*
X69261064Y-48497124D01*
X69269526Y-48518509D01*
X69274248Y-48541704D01*
X69275425Y-48562221D01*
X69274674Y-48580142D01*
X69272160Y-48595966D01*
X69267490Y-48611353D01*
X69260271Y-48627967D01*
X69259566Y-48629411D01*
X69247651Y-48649022D01*
X69232334Y-48666829D01*
X69214274Y-48682260D01*
X69194131Y-48694743D01*
X69174778Y-48702980D01*
X69158681Y-48707077D01*
X69140478Y-48709506D01*
X69121661Y-48710209D01*
X69103719Y-48709128D01*
X69088726Y-48706362D01*
X69065551Y-48698025D01*
X69044425Y-48686263D01*
X69025651Y-48671465D01*
X69009529Y-48654021D01*
X68996363Y-48634319D01*
X68986452Y-48612749D01*
X68980099Y-48589700D01*
X68977604Y-48565563D01*
X68977578Y-48562829D01*
X68979604Y-48537647D01*
X68985552Y-48513813D01*
X68995228Y-48491640D01*
X69008436Y-48471441D01*
X69024982Y-48453529D01*
X69044672Y-48438218D01*
X69060815Y-48428914D01*
X69077414Y-48421685D01*
X69093870Y-48417027D01*
X69111458Y-48414690D01*
X69131453Y-48414423D01*
X69134314Y-48414529D01*
G37*
G36*
X69482971Y-48598060D02*
G01*
X69499726Y-48600108D01*
X69512494Y-48603371D01*
X69526405Y-48610318D01*
X69539185Y-48620564D01*
X69549956Y-48633181D01*
X69557841Y-48647241D01*
X69560231Y-48653849D01*
X69562870Y-48666716D01*
X69563215Y-48680434D01*
X69561173Y-48695513D01*
X69556649Y-48712464D01*
X69549551Y-48731797D01*
X69543200Y-48746576D01*
X69533763Y-48766065D01*
X69522946Y-48785887D01*
X69511175Y-48805426D01*
X69498873Y-48824065D01*
X69486466Y-48841186D01*
X69474380Y-48856172D01*
X69463039Y-48868404D01*
X69453632Y-48876693D01*
X69439758Y-48885028D01*
X69424067Y-48890716D01*
X69407814Y-48893449D01*
X69392254Y-48892919D01*
X69389475Y-48892423D01*
X69372845Y-48886863D01*
X69357406Y-48877242D01*
X69343165Y-48863565D01*
X69330127Y-48845839D01*
X69325988Y-48838922D01*
X69311738Y-48811095D01*
X69301192Y-48784306D01*
X69294322Y-48758701D01*
X69291101Y-48734425D01*
X69291503Y-48711626D01*
X69295499Y-48690447D01*
X69303064Y-48671035D01*
X69314170Y-48653535D01*
X69328789Y-48638094D01*
X69346895Y-48624856D01*
X69367801Y-48614244D01*
X69384238Y-48608495D01*
X69402978Y-48603877D01*
X69423122Y-48600456D01*
X69443769Y-48598301D01*
X69464019Y-48597480D01*
X69482971Y-48598060D01*
G37*
G36*
X69426773Y-48234332D02*
G01*
X69441094Y-48239399D01*
X69452785Y-48246835D01*
X69465382Y-48257848D01*
X69478560Y-48271961D01*
X69491995Y-48288697D01*
X69505362Y-48307579D01*
X69518336Y-48328132D01*
X69530594Y-48349878D01*
X69541810Y-48372341D01*
X69551660Y-48395044D01*
X69557310Y-48410083D01*
X69562905Y-48430902D01*
X69564617Y-48450306D01*
X69562459Y-48468195D01*
X69556445Y-48484466D01*
X69546588Y-48499018D01*
X69545414Y-48500349D01*
X69533875Y-48510571D01*
X69519777Y-48519052D01*
X69504724Y-48524883D01*
X69500184Y-48525995D01*
X69490973Y-48527235D01*
X69478717Y-48527915D01*
X69464576Y-48528049D01*
X69449713Y-48527651D01*
X69435288Y-48526734D01*
X69422463Y-48525313D01*
X69420763Y-48525059D01*
X69405954Y-48522110D01*
X69390114Y-48517856D01*
X69374623Y-48512745D01*
X69360859Y-48507224D01*
X69351900Y-48502745D01*
X69333259Y-48489912D01*
X69318097Y-48474777D01*
X69306446Y-48457504D01*
X69298336Y-48438261D01*
X69293798Y-48417214D01*
X69292862Y-48394529D01*
X69295560Y-48370372D01*
X69301921Y-48344910D01*
X69311977Y-48318308D01*
X69316165Y-48309195D01*
X69327201Y-48288015D01*
X69338212Y-48270721D01*
X69349495Y-48256975D01*
X69361346Y-48246438D01*
X69374062Y-48238775D01*
X69380353Y-48236096D01*
X69394878Y-48232595D01*
X69410858Y-48232035D01*
X69426773Y-48234332D01*
G37*
G36*
X69153975Y-48773466D02*
G01*
X69174771Y-48780885D01*
X69192554Y-48790794D01*
X69207773Y-48802329D01*
X69223204Y-48816833D01*
X69238207Y-48833473D01*
X69252137Y-48851418D01*
X69264353Y-48869835D01*
X69274211Y-48887890D01*
X69281068Y-48904750D01*
X69281448Y-48905961D01*
X69284983Y-48924055D01*
X69284527Y-48941524D01*
X69280327Y-48957957D01*
X69272632Y-48972941D01*
X69261691Y-48986065D01*
X69247752Y-48996916D01*
X69231064Y-49005084D01*
X69219537Y-49008597D01*
X69205980Y-49011225D01*
X69189215Y-49013459D01*
X69170268Y-49015245D01*
X69150163Y-49016524D01*
X69129925Y-49017241D01*
X69110579Y-49017341D01*
X69093148Y-49016766D01*
X69083712Y-49016042D01*
X69072514Y-49014679D01*
X69059975Y-49012745D01*
X69047333Y-49010472D01*
X69035825Y-49008089D01*
X69026687Y-49005827D01*
X69023427Y-49004824D01*
X69006728Y-48997087D01*
X68992598Y-48986480D01*
X68981341Y-48973498D01*
X68973258Y-48958635D01*
X68968651Y-48942387D01*
X68967822Y-48925246D01*
X68969045Y-48915831D01*
X68973126Y-48901897D01*
X68980075Y-48886155D01*
X68989378Y-48869357D01*
X69000521Y-48852253D01*
X69012989Y-48835593D01*
X69026267Y-48820128D01*
X69039841Y-48806609D01*
X69049471Y-48798529D01*
X69069765Y-48785265D01*
X69090566Y-48776116D01*
X69111669Y-48771092D01*
X69132873Y-48770205D01*
X69153975Y-48773466D01*
G37*
G36*
X68812191Y-48599102D02*
G01*
X68832175Y-48601397D01*
X68859698Y-48606857D01*
X68883808Y-48614589D01*
X68904734Y-48624695D01*
X68922709Y-48637277D01*
X68930894Y-48644759D01*
X68944860Y-48661545D01*
X68955020Y-48680144D01*
X68961368Y-48700489D01*
X68963904Y-48722512D01*
X68962624Y-48746149D01*
X68957526Y-48771333D01*
X68948607Y-48797997D01*
X68938107Y-48821599D01*
X68926565Y-48842918D01*
X68914846Y-48860225D01*
X68902741Y-48873740D01*
X68890045Y-48883686D01*
X68876551Y-48890283D01*
X68872984Y-48891449D01*
X68861060Y-48893749D01*
X68847760Y-48894377D01*
X68835061Y-48893322D01*
X68827929Y-48891686D01*
X68816338Y-48887059D01*
X68805274Y-48880470D01*
X68794196Y-48871466D01*
X68782561Y-48859596D01*
X68769828Y-48844408D01*
X68767134Y-48840974D01*
X68745179Y-48809920D01*
X68725258Y-48776098D01*
X68708074Y-48740766D01*
X68700405Y-48722082D01*
X68696676Y-48712035D01*
X68694293Y-48704284D01*
X68692951Y-48697223D01*
X68692348Y-48689247D01*
X68692177Y-48678751D01*
X68692177Y-48678676D01*
X68692238Y-48668237D01*
X68692672Y-48660777D01*
X68693690Y-48655047D01*
X68695503Y-48649796D01*
X68697931Y-48644561D01*
X68704379Y-48634325D01*
X68713230Y-48624078D01*
X68723281Y-48615003D01*
X68733329Y-48608279D01*
X68736436Y-48606779D01*
X68751312Y-48602090D01*
X68769354Y-48599222D01*
X68789875Y-48598213D01*
X68812191Y-48599102D01*
G37*
G36*
X69154678Y-48109328D02*
G01*
X69177343Y-48111023D01*
X69198429Y-48113715D01*
X69217222Y-48117406D01*
X69233010Y-48122094D01*
X69240424Y-48125229D01*
X69255029Y-48134630D01*
X69267408Y-48147210D01*
X69276771Y-48162163D01*
X69276881Y-48162394D01*
X69282542Y-48177693D01*
X69284717Y-48192828D01*
X69283367Y-48208420D01*
X69278454Y-48225094D01*
X69272096Y-48239304D01*
X69257890Y-48264423D01*
X69241741Y-48287459D01*
X69224105Y-48307893D01*
X69205439Y-48325204D01*
X69186196Y-48338874D01*
X69183478Y-48340469D01*
X69166888Y-48348065D01*
X69148547Y-48353232D01*
X69129823Y-48355716D01*
X69112083Y-48355260D01*
X69107798Y-48354628D01*
X69087493Y-48348971D01*
X69067385Y-48339367D01*
X69047785Y-48326099D01*
X69029004Y-48309454D01*
X69011354Y-48289715D01*
X68995147Y-48267168D01*
X68980693Y-48242099D01*
X68977203Y-48235084D01*
X68972977Y-48226101D01*
X68970301Y-48219401D01*
X68968823Y-48213481D01*
X68968194Y-48206838D01*
X68968062Y-48197967D01*
X68968065Y-48195915D01*
X68968257Y-48185606D01*
X68968958Y-48178073D01*
X68970426Y-48171862D01*
X68972916Y-48165521D01*
X68973771Y-48163655D01*
X68981839Y-48150549D01*
X68992893Y-48138465D01*
X69005679Y-48128671D01*
X69011648Y-48125356D01*
X69025419Y-48120080D01*
X69042598Y-48115799D01*
X69062473Y-48112513D01*
X69084331Y-48110223D01*
X69107459Y-48108928D01*
X69131146Y-48108630D01*
X69154678Y-48109328D01*
G37*
G36*
X68855905Y-48233131D02*
G01*
X68863032Y-48233675D01*
X68868865Y-48234969D01*
X68874878Y-48237310D01*
X68880337Y-48239902D01*
X68895410Y-48249437D01*
X68904710Y-48258092D01*
X68915488Y-48271709D01*
X68926207Y-48288531D01*
X68936341Y-48307552D01*
X68945366Y-48327769D01*
X68952758Y-48348176D01*
X68954185Y-48352837D01*
X68957329Y-48366694D01*
X68959369Y-48382428D01*
X68960248Y-48398678D01*
X68959908Y-48414085D01*
X68958294Y-48427289D01*
X68957468Y-48430944D01*
X68949974Y-48451697D01*
X68938983Y-48470087D01*
X68924543Y-48486077D01*
X68906703Y-48499630D01*
X68885512Y-48510713D01*
X68861018Y-48519288D01*
X68833271Y-48525319D01*
X68827929Y-48526133D01*
X68819026Y-48527037D01*
X68807706Y-48527650D01*
X68795020Y-48527973D01*
X68782020Y-48528006D01*
X68769755Y-48527751D01*
X68759277Y-48527208D01*
X68751636Y-48526381D01*
X68749912Y-48526044D01*
X68734292Y-48520356D01*
X68719717Y-48511246D01*
X68707140Y-48499485D01*
X68697514Y-48485842D01*
X68695656Y-48482177D01*
X68692393Y-48473988D01*
X68690436Y-48465550D01*
X68689414Y-48455105D01*
X68689259Y-48451919D01*
X68689050Y-48443316D01*
X68689405Y-48436291D01*
X68690558Y-48429455D01*
X68692742Y-48421419D01*
X68696135Y-48410953D01*
X68704150Y-48389586D01*
X68713871Y-48367845D01*
X68724966Y-48346220D01*
X68737101Y-48325201D01*
X68749942Y-48305277D01*
X68763157Y-48286938D01*
X68776410Y-48270673D01*
X68789370Y-48256974D01*
X68801702Y-48246328D01*
X68813071Y-48239227D01*
X68819786Y-48236251D01*
X68825725Y-48234419D01*
X68832346Y-48233456D01*
X68841107Y-48233089D01*
X68846009Y-48233045D01*
X68855905Y-48233131D01*
G37*
G36*
X70697777Y-46939550D02*
G01*
X70702492Y-46942801D01*
X70709662Y-46947949D01*
X70718825Y-46954659D01*
X70729519Y-46962596D01*
X70738875Y-46969611D01*
X70781115Y-47001417D01*
X70870928Y-47234542D01*
X70882482Y-47264553D01*
X70893590Y-47293451D01*
X70904159Y-47320992D01*
X70914097Y-47346931D01*
X70923311Y-47371025D01*
X70931706Y-47393028D01*
X70939191Y-47412696D01*
X70945673Y-47429785D01*
X70951057Y-47444051D01*
X70955252Y-47455249D01*
X70958164Y-47463135D01*
X70959701Y-47467465D01*
X70959922Y-47468256D01*
X70957593Y-47468212D01*
X70952129Y-47467572D01*
X70944576Y-47466466D01*
X70942120Y-47466072D01*
X70909532Y-47461051D01*
X70873081Y-47455981D01*
X70833145Y-47450891D01*
X70790106Y-47445812D01*
X70744343Y-47440771D01*
X70696237Y-47435799D01*
X70646168Y-47430923D01*
X70594518Y-47426175D01*
X70541664Y-47421582D01*
X70487990Y-47417174D01*
X70433873Y-47412980D01*
X70379696Y-47409029D01*
X70325837Y-47405351D01*
X70272678Y-47401974D01*
X70220599Y-47398928D01*
X70169980Y-47396243D01*
X70121202Y-47393947D01*
X70074644Y-47392069D01*
X70030687Y-47390638D01*
X69989711Y-47389685D01*
X69952098Y-47389238D01*
X69940790Y-47389206D01*
X69927949Y-47389125D01*
X69918304Y-47388813D01*
X69910809Y-47388152D01*
X69904416Y-47387024D01*
X69898077Y-47385310D01*
X69893716Y-47383903D01*
X69885516Y-47381355D01*
X69878351Y-47379479D01*
X69873593Y-47378627D01*
X69873152Y-47378609D01*
X69869904Y-47378203D01*
X69869521Y-47377488D01*
X69872161Y-47376292D01*
X69878341Y-47374171D01*
X69887497Y-47371289D01*
X69899067Y-47367807D01*
X69912485Y-47363886D01*
X69927190Y-47359689D01*
X69942617Y-47355377D01*
X69958202Y-47351113D01*
X69973383Y-47347058D01*
X69987596Y-47343373D01*
X69993281Y-47341941D01*
X70064480Y-47325622D01*
X70137286Y-47311722D01*
X70211219Y-47300266D01*
X70285801Y-47291276D01*
X70360553Y-47284777D01*
X70434996Y-47280791D01*
X70508650Y-47279343D01*
X70581037Y-47280457D01*
X70651678Y-47284155D01*
X70720094Y-47290462D01*
X70785806Y-47299401D01*
X70801643Y-47302030D01*
X70824612Y-47305988D01*
X70823461Y-47301539D01*
X70822596Y-47298923D01*
X70820415Y-47292607D01*
X70817021Y-47282883D01*
X70812516Y-47270043D01*
X70807005Y-47254377D01*
X70800589Y-47236179D01*
X70793371Y-47215738D01*
X70785454Y-47193348D01*
X70776941Y-47169299D01*
X70767935Y-47143883D01*
X70758816Y-47118173D01*
X70749471Y-47091812D01*
X70740555Y-47066606D01*
X70732167Y-47042839D01*
X70724406Y-47020794D01*
X70717372Y-47000755D01*
X70711163Y-46983006D01*
X70705880Y-46967830D01*
X70701620Y-46955510D01*
X70698484Y-46946331D01*
X70696570Y-46940577D01*
X70695978Y-46938529D01*
X70697777Y-46939550D01*
G37*
G36*
X68998630Y-46940146D02*
G01*
X68996787Y-46945809D01*
X68993725Y-46954906D01*
X68989538Y-46967158D01*
X68984325Y-46982284D01*
X68978183Y-47000006D01*
X68971208Y-47020044D01*
X68963497Y-47042118D01*
X68955147Y-47065949D01*
X68946255Y-47091257D01*
X68936918Y-47117763D01*
X68935857Y-47120769D01*
X68926457Y-47147429D01*
X68917468Y-47172946D01*
X68908991Y-47197038D01*
X68901125Y-47219423D01*
X68893967Y-47239818D01*
X68887618Y-47257941D01*
X68882175Y-47273510D01*
X68877738Y-47286242D01*
X68874406Y-47295857D01*
X68872278Y-47302070D01*
X68871451Y-47304600D01*
X68871444Y-47304639D01*
X68873391Y-47304827D01*
X68878666Y-47304339D01*
X68886426Y-47303275D01*
X68894263Y-47302004D01*
X68958148Y-47292560D01*
X69024907Y-47285675D01*
X69094050Y-47281326D01*
X69165086Y-47279488D01*
X69237524Y-47280140D01*
X69310875Y-47283257D01*
X69384648Y-47288815D01*
X69458352Y-47296792D01*
X69531497Y-47307163D01*
X69603593Y-47319906D01*
X69674150Y-47334996D01*
X69696908Y-47340461D01*
X69711773Y-47344231D01*
X69728387Y-47348612D01*
X69745897Y-47353365D01*
X69763447Y-47358248D01*
X69780184Y-47363022D01*
X69795253Y-47367447D01*
X69807801Y-47371282D01*
X69815968Y-47373941D01*
X69827573Y-47377908D01*
X69817367Y-47379303D01*
X69808758Y-47381141D01*
X69799809Y-47384014D01*
X69797532Y-47384947D01*
X69793129Y-47386643D01*
X69788325Y-47387827D01*
X69782270Y-47388588D01*
X69774113Y-47389012D01*
X69763003Y-47389186D01*
X69755802Y-47389206D01*
X69717711Y-47389499D01*
X69675832Y-47390336D01*
X69630581Y-47391689D01*
X69582374Y-47393532D01*
X69531631Y-47395838D01*
X69478767Y-47398578D01*
X69424201Y-47401726D01*
X69368349Y-47405253D01*
X69311629Y-47409134D01*
X69254458Y-47413339D01*
X69197254Y-47417843D01*
X69140433Y-47422618D01*
X69084413Y-47427635D01*
X69029611Y-47432869D01*
X68976445Y-47438291D01*
X68929818Y-47443368D01*
X68910567Y-47445576D01*
X68890115Y-47447998D01*
X68869019Y-47450563D01*
X68847841Y-47453196D01*
X68827139Y-47455827D01*
X68807471Y-47458383D01*
X68789398Y-47460791D01*
X68773478Y-47462979D01*
X68760271Y-47464874D01*
X68750335Y-47466404D01*
X68745675Y-47467211D01*
X68739857Y-47467986D01*
X68736214Y-47467854D01*
X68735593Y-47467372D01*
X68736336Y-47465219D01*
X68738488Y-47459415D01*
X68741933Y-47450261D01*
X68746556Y-47438061D01*
X68752240Y-47423114D01*
X68758870Y-47405723D01*
X68766330Y-47386189D01*
X68774504Y-47364814D01*
X68783276Y-47341900D01*
X68792531Y-47317747D01*
X68802152Y-47292657D01*
X68812024Y-47266932D01*
X68822030Y-47240874D01*
X68832056Y-47214784D01*
X68841985Y-47188963D01*
X68851701Y-47163714D01*
X68861089Y-47139337D01*
X68870032Y-47116135D01*
X68878415Y-47094408D01*
X68886123Y-47074459D01*
X68893038Y-47056588D01*
X68899046Y-47041099D01*
X68904031Y-47028291D01*
X68907876Y-47018466D01*
X68910466Y-47011927D01*
X68911615Y-47009128D01*
X68913397Y-47005942D01*
X68916270Y-47002363D01*
X68920648Y-46998026D01*
X68926946Y-46992567D01*
X68935576Y-46985621D01*
X68946954Y-46976824D01*
X68956698Y-46969427D01*
X68968188Y-46960780D01*
X68978541Y-46953052D01*
X68987284Y-46946591D01*
X68993944Y-46941744D01*
X68998046Y-46938861D01*
X68999155Y-46938196D01*
X68998630Y-46940146D01*
G37*
G36*
X71144156Y-47834230D02*
G01*
X71151419Y-47835372D01*
X71162599Y-47837247D01*
X71177569Y-47839835D01*
X71196200Y-47843112D01*
X71218365Y-47847056D01*
X71243936Y-47851646D01*
X71252031Y-47853106D01*
X71270487Y-47856480D01*
X71289915Y-47860109D01*
X71309869Y-47863904D01*
X71329906Y-47867775D01*
X71349581Y-47871632D01*
X71368449Y-47875387D01*
X71386065Y-47878949D01*
X71401985Y-47882228D01*
X71415764Y-47885136D01*
X71426958Y-47887583D01*
X71435121Y-47889478D01*
X71439809Y-47890733D01*
X71440755Y-47891127D01*
X71441225Y-47893682D01*
X71440884Y-47899759D01*
X71439716Y-47909455D01*
X71437706Y-47922868D01*
X71434840Y-47940094D01*
X71431103Y-47961231D01*
X71426480Y-47986375D01*
X71424709Y-47995823D01*
X71399978Y-48116513D01*
X71371600Y-48235114D01*
X71339584Y-48351605D01*
X71303940Y-48465964D01*
X71264674Y-48578171D01*
X71221795Y-48688205D01*
X71175313Y-48796042D01*
X71125235Y-48901663D01*
X71071569Y-49005046D01*
X71014325Y-49106169D01*
X70953510Y-49205011D01*
X70941692Y-49223317D01*
X70894525Y-49293569D01*
X70844761Y-49363394D01*
X70792897Y-49432167D01*
X70739430Y-49499266D01*
X70684857Y-49564068D01*
X70629677Y-49625950D01*
X70574386Y-49684289D01*
X70570202Y-49688552D01*
X70531544Y-49727834D01*
X70531463Y-49452046D01*
X70531459Y-49418242D01*
X70531469Y-49385627D01*
X70531492Y-49354449D01*
X70531527Y-49324958D01*
X70531572Y-49297402D01*
X70531629Y-49272028D01*
X70531694Y-49249086D01*
X70531769Y-49228824D01*
X70531852Y-49211489D01*
X70531942Y-49197332D01*
X70532039Y-49186599D01*
X70532143Y-49179539D01*
X70532251Y-49176401D01*
X70532280Y-49176259D01*
X70534143Y-49177402D01*
X70539285Y-49180718D01*
X70547445Y-49186036D01*
X70558365Y-49193187D01*
X70571786Y-49202000D01*
X70587450Y-49212305D01*
X70605097Y-49223932D01*
X70624469Y-49236711D01*
X70645308Y-49250471D01*
X70667354Y-49265042D01*
X70683521Y-49275735D01*
X70833863Y-49375212D01*
X70834924Y-49022825D01*
X70835986Y-48670438D01*
X70986149Y-48769839D01*
X71008881Y-48784878D01*
X71030593Y-48799226D01*
X71051024Y-48812712D01*
X71069916Y-48825166D01*
X71087009Y-48836418D01*
X71102044Y-48846297D01*
X71114763Y-48854632D01*
X71124905Y-48861254D01*
X71132211Y-48865992D01*
X71136423Y-48868675D01*
X71137390Y-48869240D01*
X71137487Y-48867152D01*
X71137582Y-48861012D01*
X71137673Y-48850999D01*
X71137762Y-48837295D01*
X71137847Y-48820082D01*
X71137929Y-48799541D01*
X71138006Y-48775852D01*
X71138078Y-48749198D01*
X71138146Y-48719759D01*
X71138208Y-48687718D01*
X71138264Y-48653254D01*
X71138315Y-48616550D01*
X71138359Y-48577786D01*
X71138396Y-48537145D01*
X71138425Y-48494807D01*
X71138447Y-48450954D01*
X71138462Y-48405766D01*
X71138467Y-48359426D01*
X71138468Y-48351542D01*
X71138472Y-48293129D01*
X71138487Y-48238835D01*
X71138513Y-48188545D01*
X71138549Y-48142142D01*
X71138598Y-48099512D01*
X71138658Y-48060539D01*
X71138731Y-48025106D01*
X71138818Y-47993100D01*
X71138919Y-47964403D01*
X71139034Y-47938901D01*
X71139163Y-47916477D01*
X71139309Y-47897017D01*
X71139471Y-47880404D01*
X71139649Y-47866523D01*
X71139844Y-47855259D01*
X71140058Y-47846495D01*
X71140289Y-47840116D01*
X71140540Y-47836007D01*
X71140810Y-47834052D01*
X71140939Y-47833844D01*
X71144156Y-47834230D01*
G37*
G36*
X70537578Y-47755741D02*
G01*
X70545671Y-47756424D01*
X70557093Y-47757504D01*
X70571400Y-47758929D01*
X70588146Y-47760652D01*
X70606889Y-47762623D01*
X70627185Y-47764793D01*
X70648588Y-47767112D01*
X70670656Y-47769532D01*
X70692944Y-47772003D01*
X70715009Y-47774476D01*
X70736406Y-47776901D01*
X70756691Y-47779230D01*
X70775420Y-47781413D01*
X70792149Y-47783401D01*
X70806435Y-47785145D01*
X70817833Y-47786596D01*
X70825899Y-47787704D01*
X70830148Y-47788411D01*
X70834924Y-47789460D01*
X70834924Y-48228775D01*
X70834919Y-48271583D01*
X70834904Y-48313253D01*
X70834880Y-48353589D01*
X70834847Y-48392393D01*
X70834805Y-48429469D01*
X70834755Y-48464620D01*
X70834698Y-48497649D01*
X70834634Y-48528360D01*
X70834564Y-48556554D01*
X70834487Y-48582037D01*
X70834405Y-48604611D01*
X70834318Y-48624078D01*
X70834226Y-48640244D01*
X70834131Y-48652909D01*
X70834031Y-48661879D01*
X70833929Y-48666955D01*
X70833852Y-48668089D01*
X70831964Y-48666942D01*
X70826805Y-48663614D01*
X70818634Y-48658276D01*
X70807710Y-48651100D01*
X70794292Y-48642256D01*
X70778639Y-48631917D01*
X70761011Y-48620252D01*
X70741667Y-48607434D01*
X70720865Y-48593632D01*
X70698865Y-48579019D01*
X70683152Y-48568573D01*
X70660478Y-48553500D01*
X70638824Y-48539122D01*
X70618448Y-48525608D01*
X70599610Y-48513130D01*
X70582569Y-48501860D01*
X70567584Y-48491968D01*
X70554915Y-48483625D01*
X70544820Y-48477003D01*
X70537559Y-48472272D01*
X70533391Y-48469605D01*
X70532453Y-48469056D01*
X70532337Y-48471137D01*
X70532224Y-48477232D01*
X70532115Y-48487122D01*
X70532011Y-48500587D01*
X70531912Y-48517407D01*
X70531820Y-48537361D01*
X70531735Y-48560230D01*
X70531657Y-48585793D01*
X70531587Y-48613831D01*
X70531527Y-48644123D01*
X70531476Y-48676451D01*
X70531435Y-48710592D01*
X70531405Y-48746328D01*
X70531387Y-48783439D01*
X70531381Y-48820540D01*
X70531369Y-48866378D01*
X70531334Y-48909500D01*
X70531276Y-48949788D01*
X70531196Y-48987122D01*
X70531095Y-49021384D01*
X70530974Y-49052456D01*
X70530832Y-49080219D01*
X70530672Y-49104554D01*
X70530492Y-49125343D01*
X70530295Y-49142467D01*
X70530081Y-49155808D01*
X70529850Y-49165246D01*
X70529603Y-49170664D01*
X70529393Y-49172024D01*
X70527364Y-49170878D01*
X70522063Y-49167554D01*
X70513751Y-49162223D01*
X70502689Y-49155055D01*
X70489139Y-49146221D01*
X70473360Y-49135892D01*
X70455613Y-49124239D01*
X70436160Y-49111431D01*
X70415262Y-49097640D01*
X70393179Y-49083037D01*
X70377091Y-49072379D01*
X70226776Y-48972735D01*
X70225715Y-49483672D01*
X70224653Y-49994608D01*
X70187506Y-50021611D01*
X70152996Y-50046221D01*
X70116729Y-50071201D01*
X70079594Y-50095974D01*
X70042480Y-50119959D01*
X70006274Y-50142579D01*
X69971866Y-50163255D01*
X69954628Y-50173247D01*
X69944457Y-50179020D01*
X69935608Y-50183971D01*
X69928719Y-50187748D01*
X69924428Y-50189999D01*
X69923319Y-50190480D01*
X69923230Y-50188388D01*
X69923144Y-50182217D01*
X69923059Y-50172121D01*
X69922977Y-50158254D01*
X69922898Y-50140772D01*
X69922821Y-50119830D01*
X69922747Y-50095583D01*
X69922677Y-50068185D01*
X69922610Y-50037791D01*
X69922546Y-50004556D01*
X69922487Y-49968635D01*
X69922432Y-49930184D01*
X69922382Y-49889356D01*
X69922336Y-49846307D01*
X69922296Y-49801191D01*
X69922260Y-49754164D01*
X69922230Y-49705380D01*
X69922206Y-49654994D01*
X69922188Y-49603162D01*
X69922177Y-49550037D01*
X69922172Y-49495775D01*
X69922171Y-49481160D01*
X69922174Y-49426622D01*
X69922182Y-49373179D01*
X69922195Y-49320988D01*
X69922213Y-49270202D01*
X69922235Y-49220977D01*
X69922262Y-49173467D01*
X69922293Y-49127827D01*
X69922328Y-49084213D01*
X69922367Y-49042778D01*
X69922410Y-49003679D01*
X69922456Y-48967070D01*
X69922505Y-48933105D01*
X69922557Y-48901940D01*
X69922613Y-48873729D01*
X69922670Y-48848628D01*
X69922731Y-48826791D01*
X69922793Y-48808373D01*
X69922858Y-48793529D01*
X69922924Y-48782414D01*
X69922992Y-48775183D01*
X69923062Y-48771990D01*
X69923081Y-48771840D01*
X69924945Y-48772985D01*
X69930086Y-48776304D01*
X69938244Y-48781627D01*
X69949161Y-48788785D01*
X69962579Y-48797607D01*
X69978238Y-48807922D01*
X69995880Y-48819561D01*
X70015247Y-48832352D01*
X70036079Y-48846126D01*
X70058119Y-48860712D01*
X70074322Y-48871444D01*
X70224653Y-48971047D01*
X70225715Y-48618537D01*
X70226776Y-48266026D01*
X70378548Y-48366482D01*
X70530319Y-48466938D01*
X70530856Y-48111220D01*
X70530928Y-48070766D01*
X70531019Y-48031856D01*
X70531127Y-47994687D01*
X70531252Y-47959453D01*
X70531391Y-47926352D01*
X70531544Y-47895577D01*
X70531709Y-47867326D01*
X70531885Y-47841794D01*
X70532071Y-47819177D01*
X70532265Y-47799669D01*
X70532465Y-47783468D01*
X70532672Y-47770769D01*
X70532883Y-47761768D01*
X70533096Y-47756660D01*
X70533256Y-47755502D01*
X70537578Y-47755741D01*
G37*
G36*
X69892922Y-46688218D02*
G01*
X69925229Y-46688322D01*
X69956413Y-46688483D01*
X69985986Y-46688703D01*
X70013459Y-46688980D01*
X70038346Y-46689315D01*
X70060157Y-46689708D01*
X70078405Y-46690158D01*
X70084556Y-46690353D01*
X70219399Y-46695980D01*
X70351180Y-46703545D01*
X70480649Y-46713122D01*
X70608557Y-46724783D01*
X70735653Y-46738602D01*
X70862687Y-46754651D01*
X70990408Y-46773003D01*
X71079032Y-46786998D01*
X71105046Y-46791325D01*
X71132289Y-46795988D01*
X71160404Y-46800918D01*
X71189033Y-46806046D01*
X71217819Y-46811302D01*
X71246403Y-46816615D01*
X71274428Y-46821918D01*
X71301537Y-46827139D01*
X71327371Y-46832210D01*
X71351572Y-46837060D01*
X71373783Y-46841620D01*
X71393646Y-46845821D01*
X71410804Y-46849592D01*
X71424898Y-46852865D01*
X71435570Y-46855569D01*
X71442464Y-46857634D01*
X71443072Y-46857856D01*
X71455234Y-46864235D01*
X71467116Y-46873668D01*
X71477623Y-46885051D01*
X71485659Y-46897281D01*
X71488475Y-46903549D01*
X71493293Y-46916542D01*
X71492344Y-47162927D01*
X71492173Y-47201879D01*
X71491969Y-47238817D01*
X71491734Y-47273524D01*
X71491472Y-47305783D01*
X71491185Y-47335378D01*
X71490876Y-47362090D01*
X71490546Y-47385703D01*
X71490198Y-47406001D01*
X71489836Y-47422766D01*
X71489462Y-47435781D01*
X71489078Y-47444830D01*
X71488986Y-47446365D01*
X71486704Y-47480998D01*
X71484605Y-47511858D01*
X71482654Y-47539399D01*
X71480817Y-47564078D01*
X71479061Y-47586351D01*
X71477352Y-47606672D01*
X71475872Y-47623166D01*
X71474654Y-47636028D01*
X71473249Y-47650332D01*
X71471721Y-47665497D01*
X71470131Y-47680945D01*
X71468542Y-47696095D01*
X71467014Y-47710368D01*
X71465609Y-47723183D01*
X71464391Y-47733961D01*
X71463420Y-47742123D01*
X71462759Y-47747087D01*
X71462503Y-47748365D01*
X71460424Y-47748027D01*
X71454702Y-47746940D01*
X71445852Y-47745205D01*
X71434389Y-47742924D01*
X71420829Y-47740199D01*
X71405686Y-47737133D01*
X71400619Y-47736102D01*
X71258340Y-47708663D01*
X71113264Y-47683697D01*
X70966109Y-47661295D01*
X70817588Y-47641551D01*
X70668418Y-47624557D01*
X70519314Y-47610406D01*
X70370992Y-47599189D01*
X70314867Y-47595709D01*
X70273843Y-47593381D01*
X70235496Y-47591341D01*
X70199213Y-47589572D01*
X70164381Y-47588057D01*
X70130384Y-47586779D01*
X70096611Y-47585723D01*
X70062446Y-47584870D01*
X70027275Y-47584205D01*
X69990485Y-47583711D01*
X69951463Y-47583370D01*
X69909593Y-47583167D01*
X69864262Y-47583084D01*
X69851062Y-47583081D01*
X69810477Y-47583112D01*
X69773554Y-47583213D01*
X69739708Y-47583399D01*
X69708355Y-47583680D01*
X69678911Y-47584070D01*
X69650793Y-47584581D01*
X69623417Y-47585227D01*
X69596199Y-47586019D01*
X69568554Y-47586971D01*
X69539900Y-47588096D01*
X69509651Y-47589405D01*
X69477225Y-47590912D01*
X69465795Y-47591462D01*
X69287554Y-47602153D01*
X69109361Y-47616921D01*
X68931555Y-47635727D01*
X68754474Y-47658533D01*
X68578456Y-47685298D01*
X68435233Y-47710159D01*
X68420011Y-47712978D01*
X68403019Y-47716171D01*
X68384751Y-47719641D01*
X68365701Y-47723292D01*
X68346363Y-47727027D01*
X68327230Y-47730749D01*
X68308796Y-47734361D01*
X68291555Y-47737767D01*
X68276002Y-47740870D01*
X68262629Y-47743572D01*
X68251930Y-47745778D01*
X68244400Y-47747390D01*
X68240532Y-47748312D01*
X68240477Y-47748328D01*
X68237325Y-47748071D01*
X68236721Y-47746646D01*
X68236413Y-47743205D01*
X68235651Y-47736985D01*
X68234707Y-47730093D01*
X68233700Y-47722258D01*
X68232394Y-47710876D01*
X68230855Y-47696621D01*
X68229150Y-47680164D01*
X68227345Y-47662180D01*
X68225507Y-47643340D01*
X68223701Y-47624318D01*
X68221994Y-47605785D01*
X68220452Y-47588415D01*
X68219141Y-47572881D01*
X68218758Y-47568114D01*
X68216745Y-47540717D01*
X68627336Y-47540717D01*
X68629255Y-47547624D01*
X68634203Y-47553184D01*
X68640970Y-47556220D01*
X68643570Y-47556469D01*
X68647087Y-47556102D01*
X68654094Y-47555075D01*
X68663907Y-47553500D01*
X68675842Y-47551487D01*
X68689215Y-47549148D01*
X68694759Y-47548156D01*
X68796206Y-47531084D01*
X68901355Y-47515742D01*
X69010026Y-47502152D01*
X69122037Y-47490332D01*
X69237209Y-47480301D01*
X69355360Y-47472079D01*
X69457304Y-47466559D01*
X69579075Y-47461702D01*
X69700742Y-47458626D01*
X69821998Y-47457316D01*
X69942540Y-47457755D01*
X70062060Y-47459928D01*
X70180255Y-47463820D01*
X70296818Y-47469412D01*
X70411445Y-47476691D01*
X70523830Y-47485640D01*
X70633667Y-47496243D01*
X70740652Y-47508484D01*
X70844479Y-47522346D01*
X70944843Y-47537815D01*
X70999016Y-47547102D01*
X71013710Y-47549679D01*
X71027250Y-47551986D01*
X71039002Y-47553918D01*
X71048332Y-47555374D01*
X71054607Y-47556252D01*
X71056956Y-47556469D01*
X71062923Y-47554634D01*
X71068399Y-47550065D01*
X71071992Y-47544167D01*
X71072664Y-47540615D01*
X71071799Y-47537996D01*
X71069281Y-47531785D01*
X71065227Y-47522240D01*
X71059755Y-47509618D01*
X71052980Y-47494176D01*
X71045019Y-47476172D01*
X71035991Y-47455864D01*
X71026011Y-47433509D01*
X71015196Y-47409365D01*
X71003664Y-47383688D01*
X70991531Y-47356737D01*
X70978914Y-47328768D01*
X70965929Y-47300040D01*
X70952694Y-47270810D01*
X70939326Y-47241335D01*
X70925941Y-47211873D01*
X70912657Y-47182681D01*
X70899590Y-47154017D01*
X70886857Y-47126138D01*
X70874574Y-47099302D01*
X70862860Y-47073766D01*
X70851830Y-47049787D01*
X70841601Y-47027624D01*
X70832291Y-47007533D01*
X70824017Y-46989773D01*
X70816894Y-46974599D01*
X70811040Y-46962271D01*
X70806573Y-46953046D01*
X70803607Y-46947180D01*
X70802300Y-46944965D01*
X70797384Y-46941633D01*
X70789616Y-46939002D01*
X70781429Y-46937312D01*
X70773325Y-46935749D01*
X70766674Y-46934174D01*
X70762753Y-46932896D01*
X70762486Y-46932753D01*
X70760069Y-46931005D01*
X70754792Y-46927019D01*
X70747140Y-46921167D01*
X70737596Y-46913820D01*
X70726645Y-46905348D01*
X70716861Y-46897750D01*
X70705046Y-46888602D01*
X70694169Y-46880256D01*
X70684729Y-46873090D01*
X70677223Y-46867480D01*
X70672150Y-46863803D01*
X70670162Y-46862496D01*
X70665140Y-46860789D01*
X70656406Y-46858776D01*
X70644476Y-46856533D01*
X70629865Y-46854139D01*
X70613089Y-46851672D01*
X70594663Y-46849210D01*
X70575103Y-46846830D01*
X70554925Y-46844610D01*
X70545178Y-46843625D01*
X70532079Y-46842610D01*
X70515380Y-46841740D01*
X70495726Y-46841019D01*
X70473759Y-46840449D01*
X70450125Y-46840032D01*
X70425465Y-46839771D01*
X70400424Y-46839670D01*
X70375646Y-46839730D01*
X70351774Y-46839954D01*
X70329452Y-46840346D01*
X70309323Y-46840908D01*
X70292031Y-46841642D01*
X70278782Y-46842504D01*
X70220334Y-46847906D01*
X70165425Y-46854252D01*
X70113432Y-46861640D01*
X70063735Y-46870165D01*
X70015711Y-46879926D01*
X69970993Y-46890450D01*
X69954107Y-46894833D01*
X69936250Y-46899719D01*
X69918256Y-46904858D01*
X69900965Y-46910001D01*
X69885213Y-46914899D01*
X69871836Y-46919302D01*
X69861673Y-46922960D01*
X69860981Y-46923230D01*
X69850465Y-46927364D01*
X69818923Y-46916826D01*
X69766563Y-46900740D01*
X69710684Y-46886254D01*
X69651733Y-46873452D01*
X69590157Y-46862420D01*
X69526400Y-46853243D01*
X69460910Y-46846006D01*
X69437139Y-46843904D01*
X69418855Y-46842633D01*
X69397313Y-46841535D01*
X69373327Y-46840622D01*
X69347709Y-46839905D01*
X69321269Y-46839396D01*
X69294820Y-46839107D01*
X69269174Y-46839048D01*
X69245143Y-46839232D01*
X69223539Y-46839670D01*
X69205174Y-46840372D01*
X69201521Y-46840571D01*
X69173033Y-46842509D01*
X69144393Y-46844987D01*
X69116568Y-46847897D01*
X69090527Y-46851135D01*
X69067236Y-46854594D01*
X69056054Y-46856532D01*
X69029160Y-46861489D01*
X68984796Y-46896025D01*
X68972678Y-46905400D01*
X68961416Y-46914004D01*
X68951514Y-46921460D01*
X68943476Y-46927391D01*
X68937807Y-46931421D01*
X68935125Y-46933121D01*
X68929970Y-46934858D01*
X68922643Y-46936477D01*
X68918143Y-46937176D01*
X68907025Y-46939487D01*
X68898991Y-46943543D01*
X68893013Y-46950027D01*
X68889601Y-46956172D01*
X68888152Y-46959312D01*
X68885055Y-46966086D01*
X68880412Y-46976271D01*
X68874324Y-46989642D01*
X68866893Y-47005977D01*
X68858220Y-47025051D01*
X68848407Y-47046640D01*
X68837557Y-47070520D01*
X68825770Y-47096469D01*
X68813149Y-47124261D01*
X68799795Y-47153673D01*
X68785810Y-47184482D01*
X68771295Y-47216463D01*
X68756352Y-47249392D01*
X68755958Y-47250261D01*
X68735612Y-47295150D01*
X68717043Y-47336213D01*
X68700243Y-47373470D01*
X68685205Y-47406937D01*
X68671920Y-47436633D01*
X68660382Y-47462574D01*
X68650581Y-47484778D01*
X68642511Y-47503264D01*
X68636164Y-47518048D01*
X68631531Y-47529148D01*
X68628605Y-47536582D01*
X68627379Y-47540367D01*
X68627336Y-47540717D01*
X68216745Y-47540717D01*
X68215913Y-47529395D01*
X68213422Y-47489516D01*
X68211278Y-47448149D01*
X68209472Y-47404970D01*
X68207994Y-47359651D01*
X68206836Y-47311866D01*
X68205989Y-47261291D01*
X68205445Y-47207597D01*
X68205195Y-47150460D01*
X68205230Y-47089552D01*
X68205322Y-47064180D01*
X68205984Y-46913846D01*
X68212722Y-46899658D01*
X68217765Y-46890683D01*
X68224067Y-46881695D01*
X68229277Y-46875678D01*
X68233682Y-46871479D01*
X68238132Y-46867806D01*
X68243026Y-46864532D01*
X68248760Y-46861532D01*
X68255732Y-46858678D01*
X68264339Y-46855847D01*
X68274978Y-46852910D01*
X68288047Y-46849744D01*
X68303943Y-46846221D01*
X68323063Y-46842216D01*
X68345805Y-46837603D01*
X68355633Y-46835633D01*
X68492804Y-46809385D01*
X68628275Y-46785870D01*
X68762701Y-46765014D01*
X68896735Y-46746742D01*
X69031033Y-46730977D01*
X69166249Y-46717644D01*
X69303036Y-46706669D01*
X69442050Y-46697974D01*
X69583945Y-46691486D01*
X69615444Y-46690353D01*
X69632142Y-46689880D01*
X69652596Y-46689464D01*
X69676320Y-46689106D01*
X69702824Y-46688806D01*
X69731621Y-46688564D01*
X69762224Y-46688379D01*
X69794143Y-46688252D01*
X69826891Y-46688183D01*
X69859980Y-46688171D01*
X69892922Y-46688218D01*
G37*
G36*
X69777829Y-48957873D02*
G01*
X69777826Y-49029932D01*
X69777818Y-49100932D01*
X69777804Y-49170755D01*
X69777786Y-49239285D01*
X69777762Y-49306405D01*
X69777733Y-49371995D01*
X69777700Y-49435940D01*
X69777662Y-49498121D01*
X69777619Y-49558421D01*
X69777573Y-49616723D01*
X69777522Y-49672909D01*
X69777467Y-49726861D01*
X69777409Y-49778463D01*
X69777347Y-49827596D01*
X69777282Y-49874143D01*
X69777213Y-49917986D01*
X69777141Y-49959009D01*
X69777066Y-49997093D01*
X69776989Y-50032122D01*
X69776908Y-50063977D01*
X69776825Y-50092541D01*
X69776740Y-50117697D01*
X69776653Y-50139327D01*
X69776563Y-50157314D01*
X69776472Y-50171540D01*
X69776379Y-50181887D01*
X69776284Y-50188239D01*
X69776188Y-50190478D01*
X69776185Y-50190480D01*
X69773891Y-50189472D01*
X69768561Y-50186677D01*
X69760824Y-50182441D01*
X69751313Y-50177107D01*
X69742752Y-50172226D01*
X69663997Y-50124922D01*
X69585471Y-50073640D01*
X69507484Y-50018638D01*
X69430348Y-49960172D01*
X69354375Y-49898498D01*
X69279878Y-49833874D01*
X69207166Y-49766556D01*
X69136552Y-49696801D01*
X69068349Y-49624865D01*
X69039888Y-49593381D01*
X68965468Y-49506666D01*
X68894345Y-49417308D01*
X68826550Y-49325368D01*
X68762115Y-49230908D01*
X68701069Y-49133987D01*
X68643444Y-49034668D01*
X68589270Y-48933010D01*
X68538577Y-48829075D01*
X68491397Y-48722925D01*
X68447760Y-48614619D01*
X68437581Y-48586570D01*
X68584775Y-48586570D01*
X68585360Y-48594973D01*
X68585944Y-48603375D01*
X68602925Y-48608444D01*
X68610705Y-48610790D01*
X68616676Y-48612636D01*
X68619877Y-48613682D01*
X68620165Y-48613805D01*
X68620583Y-48615869D01*
X68621342Y-48620759D01*
X68621751Y-48623624D01*
X68623077Y-48633153D01*
X68607164Y-48642669D01*
X68600036Y-48647074D01*
X68594558Y-48650730D01*
X68591566Y-48653067D01*
X68591250Y-48653520D01*
X68591629Y-48656356D01*
X68592533Y-48661253D01*
X68593360Y-48664343D01*
X68594927Y-48666458D01*
X68598100Y-48668034D01*
X68603744Y-48669507D01*
X68612387Y-48671248D01*
X68630959Y-48674846D01*
X68633083Y-48684103D01*
X68635206Y-48693359D01*
X68622407Y-48703486D01*
X68616022Y-48708508D01*
X68610840Y-48712529D01*
X68607835Y-48714793D01*
X68607611Y-48714949D01*
X68606810Y-48717852D01*
X68607992Y-48723472D01*
X68608060Y-48723681D01*
X68610507Y-48731076D01*
X68629267Y-48732540D01*
X68648028Y-48734004D01*
X68651490Y-48742797D01*
X68654953Y-48751590D01*
X68642206Y-48764419D01*
X68635282Y-48771719D01*
X68631266Y-48777055D01*
X68629831Y-48781204D01*
X68630651Y-48784944D01*
X68632402Y-48787751D01*
X68634333Y-48789684D01*
X68637263Y-48790820D01*
X68642137Y-48791306D01*
X68649902Y-48791291D01*
X68654294Y-48791168D01*
X68673242Y-48790570D01*
X68677041Y-48798972D01*
X68680839Y-48807374D01*
X68670008Y-48821122D01*
X68664109Y-48828879D01*
X68660745Y-48834329D01*
X68659656Y-48838355D01*
X68660585Y-48841840D01*
X68662938Y-48845251D01*
X68664998Y-48847542D01*
X68667283Y-48848695D01*
X68670876Y-48848803D01*
X68676856Y-48847961D01*
X68682526Y-48846951D01*
X68691930Y-48845261D01*
X68698109Y-48844428D01*
X68702026Y-48844617D01*
X68704645Y-48845994D01*
X68706929Y-48848724D01*
X68708801Y-48851466D01*
X68714002Y-48859101D01*
X68704632Y-48874496D01*
X68700357Y-48881741D01*
X68697106Y-48887678D01*
X68695398Y-48891335D01*
X68695262Y-48891900D01*
X68696673Y-48894633D01*
X68700073Y-48898419D01*
X68700140Y-48898482D01*
X68705019Y-48903053D01*
X68721898Y-48897824D01*
X68729805Y-48895417D01*
X68736083Y-48893587D01*
X68739692Y-48892633D01*
X68740117Y-48892562D01*
X68742107Y-48894073D01*
X68745520Y-48897905D01*
X68747005Y-48899786D01*
X68752553Y-48907042D01*
X68744775Y-48924259D01*
X68736996Y-48941475D01*
X68742384Y-48946850D01*
X68747773Y-48952225D01*
X68765279Y-48944547D01*
X68782786Y-48936869D01*
X68790056Y-48942400D01*
X68794770Y-48946652D01*
X68796310Y-48950241D01*
X68795997Y-48952521D01*
X68794697Y-48956843D01*
X68792589Y-48963692D01*
X68790222Y-48971286D01*
X68785777Y-48985461D01*
X68790933Y-48989742D01*
X68794981Y-48992759D01*
X68797589Y-48994092D01*
X68797620Y-48994094D01*
X68800021Y-48993114D01*
X68805129Y-48990437D01*
X68812022Y-48986555D01*
X68815231Y-48984682D01*
X68831311Y-48975199D01*
X68838615Y-48979917D01*
X68842305Y-48982371D01*
X68844549Y-48984591D01*
X68845498Y-48987518D01*
X68845301Y-48992092D01*
X68844108Y-48999250D01*
X68842790Y-49006146D01*
X68841255Y-49014419D01*
X68840608Y-49019575D01*
X68840932Y-49022653D01*
X68842309Y-49024693D01*
X68844382Y-49026400D01*
X68848805Y-49029129D01*
X68851855Y-49030113D01*
X68854696Y-49028897D01*
X68859833Y-49025629D01*
X68866284Y-49020946D01*
X68868059Y-49019573D01*
X68874674Y-49014623D01*
X68880207Y-49010911D01*
X68883686Y-49009076D01*
X68884137Y-49008986D01*
X68887611Y-49009984D01*
X68892619Y-49012413D01*
X68893107Y-49012692D01*
X68899505Y-49016397D01*
X68898519Y-49035744D01*
X68897533Y-49055091D01*
X68904123Y-49058300D01*
X68910714Y-49061508D01*
X68924865Y-49047654D01*
X68939015Y-49033801D01*
X68947153Y-49037027D01*
X68955290Y-49040254D01*
X68957413Y-49059882D01*
X68958567Y-49069369D01*
X68959716Y-49075462D01*
X68961109Y-49078992D01*
X68962996Y-49080793D01*
X68963781Y-49081153D01*
X68968505Y-49082493D01*
X68972448Y-49082001D01*
X68976474Y-49079186D01*
X68981449Y-49073554D01*
X68984815Y-49069195D01*
X68989867Y-49062650D01*
X68994048Y-49057493D01*
X68996634Y-49054610D01*
X68996971Y-49054332D01*
X68999954Y-49054161D01*
X69005250Y-49055053D01*
X69007020Y-49055494D01*
X69015332Y-49057727D01*
X69018740Y-49076054D01*
X69020349Y-49084332D01*
X69021748Y-49090862D01*
X69022719Y-49094646D01*
X69022950Y-49095180D01*
X69025386Y-49096001D01*
X69030269Y-49096943D01*
X69030913Y-49097041D01*
X69034380Y-49097380D01*
X69037050Y-49096748D01*
X69039640Y-49094493D01*
X69042867Y-49089964D01*
X69047448Y-49082510D01*
X69048087Y-49081448D01*
X69058099Y-49064793D01*
X69067010Y-49066004D01*
X69075920Y-49067214D01*
X69081470Y-49085202D01*
X69084183Y-49093827D01*
X69086391Y-49099303D01*
X69088909Y-49102507D01*
X69092551Y-49104313D01*
X69098133Y-49105599D01*
X69100943Y-49106135D01*
X69102333Y-49104453D01*
X69104981Y-49099730D01*
X69108436Y-49092804D01*
X69110495Y-49088407D01*
X69118737Y-49070429D01*
X69128289Y-49070434D01*
X69137841Y-49070439D01*
X69145270Y-49087542D01*
X69148713Y-49095269D01*
X69151586Y-49101352D01*
X69153442Y-49104861D01*
X69153813Y-49105345D01*
X69156446Y-49105436D01*
X69161384Y-49104725D01*
X69161990Y-49104605D01*
X69165535Y-49103636D01*
X69168049Y-49101877D01*
X69170126Y-49098442D01*
X69172364Y-49092444D01*
X69174346Y-49086248D01*
X69176934Y-49078328D01*
X69179193Y-49072046D01*
X69180741Y-49068441D01*
X69181028Y-49068019D01*
X69183873Y-49066868D01*
X69189111Y-49065710D01*
X69190306Y-49065517D01*
X69198195Y-49064327D01*
X69208054Y-49080592D01*
X69212501Y-49087886D01*
X69216082Y-49093676D01*
X69218258Y-49097099D01*
X69218640Y-49097641D01*
X69220990Y-49097814D01*
X69225803Y-49097214D01*
X69226640Y-49097063D01*
X69233915Y-49095702D01*
X69237648Y-49076529D01*
X69239576Y-49067276D01*
X69241241Y-49061345D01*
X69243007Y-49057869D01*
X69245239Y-49055981D01*
X69246531Y-49055404D01*
X69251895Y-49053857D01*
X69256329Y-49054160D01*
X69260697Y-49056769D01*
X69265862Y-49062140D01*
X69270727Y-49068190D01*
X69276689Y-49075670D01*
X69280977Y-49080224D01*
X69284427Y-49082341D01*
X69287872Y-49082510D01*
X69292150Y-49081221D01*
X69292658Y-49081029D01*
X69296569Y-49078591D01*
X69298006Y-49074337D01*
X69298103Y-49071812D01*
X69298330Y-49065708D01*
X69298915Y-49057530D01*
X69299467Y-49051639D01*
X69300328Y-49044473D01*
X69301492Y-49040354D01*
X69303686Y-49038115D01*
X69307637Y-49036589D01*
X69309123Y-49036140D01*
X69317414Y-49033663D01*
X69330634Y-49046733D01*
X69337550Y-49053413D01*
X69342411Y-49057440D01*
X69346094Y-49059227D01*
X69349478Y-49059182D01*
X69353439Y-49057715D01*
X69353793Y-49057555D01*
X69356061Y-49056311D01*
X69357458Y-49054500D01*
X69358141Y-49051251D01*
X69358269Y-49045690D01*
X69357999Y-49036945D01*
X69357912Y-49034764D01*
X69357085Y-49014221D01*
X69364633Y-49010630D01*
X69372182Y-49007040D01*
X69386993Y-49018600D01*
X69393941Y-49023783D01*
X69399847Y-49027752D01*
X69403781Y-49029900D01*
X69404613Y-49030113D01*
X69408268Y-49028842D01*
X69412029Y-49026407D01*
X69414325Y-49024353D01*
X69415481Y-49022073D01*
X69415590Y-49018490D01*
X69414746Y-49012525D01*
X69413733Y-49006869D01*
X69411915Y-48996504D01*
X69411037Y-48989452D01*
X69411212Y-48984869D01*
X69412553Y-48981915D01*
X69415174Y-48979747D01*
X69417573Y-48978384D01*
X69424542Y-48974641D01*
X69440661Y-48984403D01*
X69448082Y-48988767D01*
X69454198Y-48992125D01*
X69458063Y-48993966D01*
X69458795Y-48994165D01*
X69461526Y-48992756D01*
X69465339Y-48989355D01*
X69465466Y-48989221D01*
X69470122Y-48984277D01*
X69464415Y-48965918D01*
X69458709Y-48947559D01*
X69463684Y-48942277D01*
X69467813Y-48938672D01*
X69471166Y-48937009D01*
X69471369Y-48936996D01*
X69474432Y-48937807D01*
X69480308Y-48939974D01*
X69487944Y-48943099D01*
X69491442Y-48944610D01*
X69508805Y-48952225D01*
X69514056Y-48946986D01*
X69519308Y-48941748D01*
X69510802Y-48922631D01*
X69502295Y-48903514D01*
X69508423Y-48897658D01*
X69514550Y-48891802D01*
X69532914Y-48897481D01*
X69542545Y-48900274D01*
X69549094Y-48901486D01*
X69553463Y-48901006D01*
X69556551Y-48898722D01*
X69559258Y-48894525D01*
X69559423Y-48894219D01*
X69560032Y-48891458D01*
X69559035Y-48887527D01*
X69556131Y-48881632D01*
X69551878Y-48874384D01*
X69547525Y-48866947D01*
X69544202Y-48860722D01*
X69542423Y-48856699D01*
X69542259Y-48855931D01*
X69543499Y-48852516D01*
X69546235Y-48848261D01*
X69548351Y-48845753D01*
X69550582Y-48844404D01*
X69553990Y-48844083D01*
X69559638Y-48844663D01*
X69566884Y-48845751D01*
X69575290Y-48847110D01*
X69582376Y-48848363D01*
X69586833Y-48849275D01*
X69587289Y-48849394D01*
X69590583Y-48848780D01*
X69593745Y-48844575D01*
X69594502Y-48843071D01*
X69598030Y-48835691D01*
X69587457Y-48822293D01*
X69581287Y-48814420D01*
X69577392Y-48809056D01*
X69575436Y-48805369D01*
X69575084Y-48802528D01*
X69576000Y-48799702D01*
X69577291Y-48797143D01*
X69580703Y-48790561D01*
X69600280Y-48791129D01*
X69609148Y-48791231D01*
X69616478Y-48791029D01*
X69621182Y-48790564D01*
X69622192Y-48790258D01*
X69624413Y-48787280D01*
X69625950Y-48783158D01*
X69626275Y-48780113D01*
X69625266Y-48776990D01*
X69622421Y-48772999D01*
X69617234Y-48767349D01*
X69613289Y-48763338D01*
X69599203Y-48749179D01*
X69602350Y-48741666D01*
X69605497Y-48734152D01*
X69625777Y-48732636D01*
X69646056Y-48731119D01*
X69648474Y-48723812D01*
X69649872Y-48718900D01*
X69650234Y-48716120D01*
X69650149Y-48715952D01*
X69638895Y-48707271D01*
X69629877Y-48699701D01*
X69623450Y-48693573D01*
X69619965Y-48689215D01*
X69619467Y-48687393D01*
X69621070Y-48681787D01*
X69622729Y-48678110D01*
X69625337Y-48675754D01*
X69629788Y-48674110D01*
X69636975Y-48672569D01*
X69642858Y-48671463D01*
X69662802Y-48667716D01*
X69664201Y-48660276D01*
X69664957Y-48655217D01*
X69665011Y-48652378D01*
X69664933Y-48652228D01*
X69662940Y-48650936D01*
X69658164Y-48647985D01*
X69651458Y-48643901D01*
X69647815Y-48641699D01*
X69640024Y-48636914D01*
X69635186Y-48633506D01*
X69632598Y-48630697D01*
X69631559Y-48627712D01*
X69631364Y-48623774D01*
X69631364Y-48623529D01*
X69631364Y-48615282D01*
X69650999Y-48609205D01*
X69670634Y-48603128D01*
X69671187Y-48594849D01*
X69671741Y-48586570D01*
X69654206Y-48578720D01*
X69645914Y-48574943D01*
X69640728Y-48572195D01*
X69637876Y-48569787D01*
X69636586Y-48567028D01*
X69636085Y-48563227D01*
X69636026Y-48562466D01*
X69635381Y-48554062D01*
X69653670Y-48545512D01*
X69671960Y-48536963D01*
X69671297Y-48529030D01*
X69670634Y-48521097D01*
X69653572Y-48515721D01*
X69643843Y-48512579D01*
X69637470Y-48510153D01*
X69633745Y-48507936D01*
X69631958Y-48505422D01*
X69631402Y-48502106D01*
X69631364Y-48499852D01*
X69631392Y-48497327D01*
X69631799Y-48495240D01*
X69633067Y-48493189D01*
X69635682Y-48490776D01*
X69640127Y-48487601D01*
X69646886Y-48483265D01*
X69656442Y-48477367D01*
X69664731Y-48472295D01*
X69664732Y-48470253D01*
X69664142Y-48465571D01*
X69663951Y-48464358D01*
X69662707Y-48456707D01*
X69642811Y-48452969D01*
X69632962Y-48450940D01*
X69626638Y-48449134D01*
X69623144Y-48447302D01*
X69621833Y-48445381D01*
X69620273Y-48439837D01*
X69619636Y-48437577D01*
X69619978Y-48434862D01*
X69622663Y-48431209D01*
X69628139Y-48426108D01*
X69633964Y-48421333D01*
X69640727Y-48415960D01*
X69646091Y-48411716D01*
X69649300Y-48409199D01*
X69649869Y-48408769D01*
X69649612Y-48406796D01*
X69648397Y-48402243D01*
X69647974Y-48400838D01*
X69645618Y-48393181D01*
X69625534Y-48391679D01*
X69605451Y-48390177D01*
X69602327Y-48382719D01*
X69599203Y-48375262D01*
X69613580Y-48360810D01*
X69627957Y-48346358D01*
X69624590Y-48339314D01*
X69621222Y-48332269D01*
X69601002Y-48333152D01*
X69580782Y-48334034D01*
X69577417Y-48327542D01*
X69575155Y-48322933D01*
X69574069Y-48320233D01*
X69574052Y-48320105D01*
X69575264Y-48318126D01*
X69578512Y-48313611D01*
X69583213Y-48307358D01*
X69585913Y-48303847D01*
X69597775Y-48288533D01*
X69593873Y-48281300D01*
X69590509Y-48276401D01*
X69587185Y-48274926D01*
X69585726Y-48275121D01*
X69581572Y-48275981D01*
X69574682Y-48277240D01*
X69566515Y-48278633D01*
X69566146Y-48278694D01*
X69558206Y-48279925D01*
X69553303Y-48280287D01*
X69550288Y-48279630D01*
X69548015Y-48277804D01*
X69546582Y-48276147D01*
X69543555Y-48271809D01*
X69542282Y-48268610D01*
X69543274Y-48265774D01*
X69545984Y-48260309D01*
X69549910Y-48253199D01*
X69551772Y-48250008D01*
X69561332Y-48233878D01*
X69556679Y-48227601D01*
X69553433Y-48223510D01*
X69551340Y-48221401D01*
X69551144Y-48221324D01*
X69548859Y-48221912D01*
X69543495Y-48223486D01*
X69536025Y-48225757D01*
X69532324Y-48226903D01*
X69514385Y-48232482D01*
X69508208Y-48226579D01*
X69504550Y-48222531D01*
X69502937Y-48219611D01*
X69502997Y-48219117D01*
X69504222Y-48216576D01*
X69506660Y-48211132D01*
X69509868Y-48203784D01*
X69511235Y-48200611D01*
X69518507Y-48183664D01*
X69512847Y-48178261D01*
X69507187Y-48172859D01*
X69490382Y-48180152D01*
X69482476Y-48183467D01*
X69475932Y-48185993D01*
X69471812Y-48187332D01*
X69471117Y-48187446D01*
X69468097Y-48186023D01*
X69464063Y-48182561D01*
X69463718Y-48182201D01*
X69458779Y-48176957D01*
X69463649Y-48160498D01*
X69466025Y-48152534D01*
X69467988Y-48146074D01*
X69469192Y-48142252D01*
X69469337Y-48141833D01*
X69468329Y-48139282D01*
X69464804Y-48135725D01*
X69463659Y-48134836D01*
X69457163Y-48130045D01*
X69440852Y-48139923D01*
X69424542Y-48149800D01*
X69417573Y-48146057D01*
X69414057Y-48143937D01*
X69411909Y-48141565D01*
X69411010Y-48138088D01*
X69411238Y-48132654D01*
X69412472Y-48124409D01*
X69413596Y-48118029D01*
X69416363Y-48102606D01*
X69410503Y-48098443D01*
X69406126Y-48095613D01*
X69403313Y-48094294D01*
X69403182Y-48094281D01*
X69400959Y-48095499D01*
X69396257Y-48098754D01*
X69389920Y-48103451D01*
X69386861Y-48105799D01*
X69372001Y-48117316D01*
X69364654Y-48113821D01*
X69357308Y-48110326D01*
X69357715Y-48090187D01*
X69358122Y-48070047D01*
X69351131Y-48067202D01*
X69344140Y-48064356D01*
X69330777Y-48077568D01*
X69317414Y-48090779D01*
X69309123Y-48088301D01*
X69304563Y-48086766D01*
X69301960Y-48084838D01*
X69300586Y-48081350D01*
X69299715Y-48075136D01*
X69299467Y-48072803D01*
X69298719Y-48064544D01*
X69298223Y-48056943D01*
X69298103Y-48053037D01*
X69297573Y-48048416D01*
X69295179Y-48045779D01*
X69290230Y-48043882D01*
X69284938Y-48042733D01*
X69281577Y-48042876D01*
X69281208Y-48043155D01*
X69275865Y-48050428D01*
X69269932Y-48057632D01*
X69264143Y-48063974D01*
X69259230Y-48068662D01*
X69255925Y-48070904D01*
X69255475Y-48070990D01*
X69249279Y-48070416D01*
X69244922Y-48068215D01*
X69241813Y-48063667D01*
X69239365Y-48056054D01*
X69237939Y-48049568D01*
X69236148Y-48041384D01*
X69234451Y-48034868D01*
X69233136Y-48031086D01*
X69232824Y-48030610D01*
X69229765Y-48029251D01*
X69224780Y-48028005D01*
X69221612Y-48027647D01*
X69219055Y-48028374D01*
X69216417Y-48030830D01*
X69213007Y-48035655D01*
X69208164Y-48043445D01*
X69203344Y-48051244D01*
X69199988Y-48056066D01*
X69197356Y-48058551D01*
X69194702Y-48059339D01*
X69191285Y-48059069D01*
X69190212Y-48058909D01*
X69184734Y-48057810D01*
X69181282Y-48056617D01*
X69181008Y-48056422D01*
X69179784Y-48053910D01*
X69177761Y-48048372D01*
X69175311Y-48040852D01*
X69174489Y-48038171D01*
X69169379Y-48021232D01*
X69161039Y-48020649D01*
X69152700Y-48020066D01*
X69144900Y-48037059D01*
X69137100Y-48054051D01*
X69127863Y-48054051D01*
X69118626Y-48054051D01*
X69111252Y-48037054D01*
X69103878Y-48020057D01*
X69095472Y-48020645D01*
X69087066Y-48021232D01*
X69081346Y-48039230D01*
X69075626Y-48057227D01*
X69066402Y-48057843D01*
X69061422Y-48058027D01*
X69058090Y-48057236D01*
X69055314Y-48054698D01*
X69052001Y-48049636D01*
X69049966Y-48046198D01*
X69044770Y-48037595D01*
X69040935Y-48032102D01*
X69037799Y-48029105D01*
X69034702Y-48027990D01*
X69030983Y-48028143D01*
X69030590Y-48028199D01*
X69026564Y-48029189D01*
X69023710Y-48031290D01*
X69021603Y-48035288D01*
X69019818Y-48041969D01*
X69018060Y-48051356D01*
X69016612Y-48059241D01*
X69015246Y-48063968D01*
X69013354Y-48066555D01*
X69010327Y-48068024D01*
X69007643Y-48068812D01*
X69002290Y-48070213D01*
X68998904Y-48070947D01*
X68998588Y-48070978D01*
X68996903Y-48069467D01*
X68993359Y-48065531D01*
X68988713Y-48060077D01*
X68983723Y-48054013D01*
X68979146Y-48048248D01*
X68975740Y-48043690D01*
X68975369Y-48043155D01*
X68972804Y-48042622D01*
X68967909Y-48043433D01*
X68966614Y-48043800D01*
X68959007Y-48046129D01*
X68957148Y-48065163D01*
X68955290Y-48084196D01*
X68947156Y-48087417D01*
X68939021Y-48090638D01*
X68925450Y-48077221D01*
X68911879Y-48063804D01*
X68904795Y-48067174D01*
X68897710Y-48070544D01*
X68898549Y-48089294D01*
X68899388Y-48108044D01*
X68892673Y-48111750D01*
X68887628Y-48114224D01*
X68884065Y-48115432D01*
X68883779Y-48115455D01*
X68881205Y-48114214D01*
X68876285Y-48110913D01*
X68869946Y-48106188D01*
X68867917Y-48104596D01*
X68854236Y-48093736D01*
X68846920Y-48097666D01*
X68842294Y-48100162D01*
X68839765Y-48101548D01*
X68839604Y-48101644D01*
X68839972Y-48103583D01*
X68840949Y-48108692D01*
X68842346Y-48115981D01*
X68842788Y-48118288D01*
X68844541Y-48127419D01*
X68845454Y-48133357D01*
X68845373Y-48137087D01*
X68844143Y-48139597D01*
X68841610Y-48141871D01*
X68838760Y-48144018D01*
X68831548Y-48149505D01*
X68815481Y-48139775D01*
X68799415Y-48130045D01*
X68792976Y-48134794D01*
X68788836Y-48137915D01*
X68786642Y-48139701D01*
X68786537Y-48139830D01*
X68787102Y-48141840D01*
X68788610Y-48146966D01*
X68790785Y-48154269D01*
X68791844Y-48157802D01*
X68794222Y-48165790D01*
X68796049Y-48172043D01*
X68797046Y-48175604D01*
X68797150Y-48176066D01*
X68795633Y-48177574D01*
X68791820Y-48180679D01*
X68789962Y-48182113D01*
X68782773Y-48187582D01*
X68766082Y-48180229D01*
X68749390Y-48172877D01*
X68743702Y-48178298D01*
X68741082Y-48180860D01*
X68739616Y-48183094D01*
X68739413Y-48185855D01*
X68740582Y-48189997D01*
X68743232Y-48196377D01*
X68747103Y-48205026D01*
X68752620Y-48217312D01*
X68747038Y-48224611D01*
X68743557Y-48229047D01*
X68741349Y-48231636D01*
X68741022Y-48231911D01*
X68738938Y-48231347D01*
X68733740Y-48229840D01*
X68726381Y-48227667D01*
X68722857Y-48226617D01*
X68714855Y-48224245D01*
X68708597Y-48222423D01*
X68705041Y-48221428D01*
X68704584Y-48221324D01*
X68703134Y-48222861D01*
X68700239Y-48226660D01*
X68699499Y-48227687D01*
X68694957Y-48234050D01*
X68704479Y-48249695D01*
X68714002Y-48265340D01*
X68708801Y-48272975D01*
X68705233Y-48277639D01*
X68702413Y-48280340D01*
X68701740Y-48280610D01*
X68698896Y-48280235D01*
X68693035Y-48279241D01*
X68685304Y-48277826D01*
X68683448Y-48277474D01*
X68675137Y-48275969D01*
X68669970Y-48275373D01*
X68666937Y-48275714D01*
X68665030Y-48277020D01*
X68664214Y-48278003D01*
X68661224Y-48282635D01*
X68660332Y-48286797D01*
X68661759Y-48291459D01*
X68665726Y-48297589D01*
X68669907Y-48302990D01*
X68680947Y-48316829D01*
X68677061Y-48325425D01*
X68673175Y-48334021D01*
X68654277Y-48333120D01*
X68635379Y-48332219D01*
X68632001Y-48339286D01*
X68628623Y-48346352D01*
X68641788Y-48359602D01*
X68654953Y-48372852D01*
X68651517Y-48381577D01*
X68648081Y-48390302D01*
X68629310Y-48391784D01*
X68610540Y-48393266D01*
X68608077Y-48400711D01*
X68606823Y-48406417D01*
X68607542Y-48409442D01*
X68607611Y-48409492D01*
X68610148Y-48411382D01*
X68615028Y-48415157D01*
X68621277Y-48420062D01*
X68622407Y-48420955D01*
X68635206Y-48431082D01*
X68633075Y-48440369D01*
X68630945Y-48449656D01*
X68612870Y-48453001D01*
X68604687Y-48454562D01*
X68598304Y-48455868D01*
X68594711Y-48456713D01*
X68594273Y-48456878D01*
X68593581Y-48459098D01*
X68592555Y-48463863D01*
X68592373Y-48464821D01*
X68591842Y-48468430D01*
X68592288Y-48471115D01*
X68594360Y-48473621D01*
X68598709Y-48476694D01*
X68605983Y-48481078D01*
X68607139Y-48481760D01*
X68623284Y-48491289D01*
X68621907Y-48499758D01*
X68620720Y-48505470D01*
X68619464Y-48509228D01*
X68619157Y-48509702D01*
X68616600Y-48510993D01*
X68611063Y-48513087D01*
X68603634Y-48515576D01*
X68601864Y-48516134D01*
X68585944Y-48521091D01*
X68585429Y-48529481D01*
X68584914Y-48537871D01*
X68601879Y-48545718D01*
X68618845Y-48553566D01*
X68618845Y-48562288D01*
X68618845Y-48571010D01*
X68601810Y-48578790D01*
X68584775Y-48586570D01*
X68437581Y-48586570D01*
X68407696Y-48504220D01*
X68371236Y-48391787D01*
X68338410Y-48277382D01*
X68309250Y-48161067D01*
X68299632Y-48118631D01*
X68295950Y-48101623D01*
X68292045Y-48083049D01*
X68287996Y-48063332D01*
X68283883Y-48042896D01*
X68279786Y-48022164D01*
X68275785Y-48001560D01*
X68271958Y-47981507D01*
X68268386Y-47962428D01*
X68265149Y-47944747D01*
X68262326Y-47928888D01*
X68259996Y-47915273D01*
X68258240Y-47904327D01*
X68257138Y-47896472D01*
X68256768Y-47892132D01*
X68256881Y-47891414D01*
X68259336Y-47890609D01*
X68265567Y-47889113D01*
X68275174Y-47887003D01*
X68287757Y-47884358D01*
X68302919Y-47881256D01*
X68320260Y-47877773D01*
X68339379Y-47873989D01*
X68359879Y-47869982D01*
X68381359Y-47865828D01*
X68403421Y-47861607D01*
X68425665Y-47857395D01*
X68447693Y-47853272D01*
X68469104Y-47849314D01*
X68489500Y-47845600D01*
X68508481Y-47842208D01*
X68513773Y-47841276D01*
X68650956Y-47818461D01*
X68787543Y-47798259D01*
X68924090Y-47780617D01*
X69061153Y-47765482D01*
X69199289Y-47752802D01*
X69339054Y-47742522D01*
X69481003Y-47734590D01*
X69625694Y-47728952D01*
X69711495Y-47726704D01*
X69777829Y-47725267D01*
X69777829Y-48957873D01*
G37*
D13*
X90305000Y-105045000D02*
X143525000Y-105045000D01*
X90305000Y-120245000D02*
X90305000Y-105045000D01*
X101140000Y-104150662D02*
X101640000Y-104150662D01*
X101390000Y-104583675D02*
X101140000Y-104150662D01*
X101640000Y-104150662D02*
X101390000Y-104583675D01*
X143525000Y-105045000D02*
X143525000Y-120245000D01*
X93735000Y-56780000D02*
X144775000Y-56780000D01*
X93735000Y-58750000D02*
X144775000Y-58750000D01*
X93735000Y-63750000D02*
X144775000Y-63750000D01*
X93735000Y-64850000D02*
X144775000Y-64850000D01*
X93735000Y-65470000D02*
X93735000Y-56780000D01*
X95145000Y-56900000D02*
X97645000Y-56900000D01*
X95145000Y-57900000D02*
X95145000Y-56900000D01*
X96095000Y-65470000D02*
X93735000Y-65470000D01*
X97645000Y-56900000D02*
X97645000Y-57900000D01*
X97645000Y-57900000D02*
X95145000Y-57900000D01*
X100225000Y-56900000D02*
X102725000Y-56900000D01*
X100225000Y-57900000D02*
X100225000Y-56900000D01*
X102725000Y-56900000D02*
X102725000Y-57900000D01*
X102725000Y-57900000D02*
X100225000Y-57900000D01*
X105305000Y-56900000D02*
X107805000Y-56900000D01*
X105305000Y-57900000D02*
X105305000Y-56900000D01*
X107805000Y-56900000D02*
X107805000Y-57900000D01*
X107805000Y-57900000D02*
X105305000Y-57900000D01*
X110385000Y-56900000D02*
X112885000Y-56900000D01*
X110385000Y-57900000D02*
X110385000Y-56900000D01*
X112885000Y-56900000D02*
X112885000Y-57900000D01*
X112885000Y-57900000D02*
X110385000Y-57900000D01*
X115465000Y-56900000D02*
X117965000Y-56900000D01*
X115465000Y-57900000D02*
X115465000Y-56900000D01*
X117965000Y-56900000D02*
X117965000Y-57900000D01*
X117965000Y-57900000D02*
X115465000Y-57900000D01*
X120545000Y-56900000D02*
X123045000Y-56900000D01*
X120545000Y-57900000D02*
X120545000Y-56900000D01*
X123045000Y-56900000D02*
X123045000Y-57900000D01*
X123045000Y-57900000D02*
X120545000Y-57900000D01*
X125625000Y-56900000D02*
X128125000Y-56900000D01*
X125625000Y-57900000D02*
X125625000Y-56900000D01*
X128125000Y-56900000D02*
X128125000Y-57900000D01*
X128125000Y-57900000D02*
X125625000Y-57900000D01*
X130705000Y-56900000D02*
X133205000Y-56900000D01*
X130705000Y-57900000D02*
X130705000Y-56900000D01*
X133205000Y-56900000D02*
X133205000Y-57900000D01*
X133205000Y-57900000D02*
X130705000Y-57900000D01*
X135785000Y-56900000D02*
X138285000Y-56900000D01*
X135785000Y-57900000D02*
X135785000Y-56900000D01*
X138285000Y-56900000D02*
X138285000Y-57900000D01*
X138285000Y-57900000D02*
X135785000Y-57900000D01*
X140865000Y-56900000D02*
X143365000Y-56900000D01*
X140865000Y-57900000D02*
X140865000Y-56900000D01*
X143365000Y-56900000D02*
X143365000Y-57900000D01*
X143365000Y-57900000D02*
X140865000Y-57900000D01*
X144775000Y-56780000D02*
X144775000Y-65470000D01*
X144775000Y-65470000D02*
X96695000Y-65470000D01*
X96835000Y-66080000D02*
X95955000Y-66080000D01*
X96395000Y-65470000D01*
X96835000Y-66080000D01*
G36*
X96835000Y-66080000D02*
G01*
X95955000Y-66080000D01*
X96395000Y-65470000D01*
X96835000Y-66080000D01*
G37*
X93855000Y-77705000D02*
X141935000Y-77705000D01*
X93855000Y-86395000D02*
X93855000Y-77705000D01*
X95265000Y-85275000D02*
X97765000Y-85275000D01*
X95265000Y-86275000D02*
X95265000Y-85275000D01*
X97765000Y-85275000D02*
X97765000Y-86275000D01*
X97765000Y-86275000D02*
X95265000Y-86275000D01*
X100345000Y-85275000D02*
X102845000Y-85275000D01*
X100345000Y-86275000D02*
X100345000Y-85275000D01*
X102845000Y-85275000D02*
X102845000Y-86275000D01*
X102845000Y-86275000D02*
X100345000Y-86275000D01*
X105425000Y-85275000D02*
X107925000Y-85275000D01*
X105425000Y-86275000D02*
X105425000Y-85275000D01*
X107925000Y-85275000D02*
X107925000Y-86275000D01*
X107925000Y-86275000D02*
X105425000Y-86275000D01*
X110505000Y-85275000D02*
X113005000Y-85275000D01*
X110505000Y-86275000D02*
X110505000Y-85275000D01*
X113005000Y-85275000D02*
X113005000Y-86275000D01*
X113005000Y-86275000D02*
X110505000Y-86275000D01*
X115585000Y-85275000D02*
X118085000Y-85275000D01*
X115585000Y-86275000D02*
X115585000Y-85275000D01*
X118085000Y-85275000D02*
X118085000Y-86275000D01*
X118085000Y-86275000D02*
X115585000Y-86275000D01*
X120665000Y-85275000D02*
X123165000Y-85275000D01*
X120665000Y-86275000D02*
X120665000Y-85275000D01*
X123165000Y-85275000D02*
X123165000Y-86275000D01*
X123165000Y-86275000D02*
X120665000Y-86275000D01*
X125745000Y-85275000D02*
X128245000Y-85275000D01*
X125745000Y-86275000D02*
X125745000Y-85275000D01*
X128245000Y-85275000D02*
X128245000Y-86275000D01*
X128245000Y-86275000D02*
X125745000Y-86275000D01*
X130825000Y-85275000D02*
X133325000Y-85275000D01*
X130825000Y-86275000D02*
X130825000Y-85275000D01*
X133325000Y-85275000D02*
X133325000Y-86275000D01*
X133325000Y-86275000D02*
X130825000Y-86275000D01*
X135905000Y-85275000D02*
X138405000Y-85275000D01*
X135905000Y-86275000D02*
X135905000Y-85275000D01*
X138405000Y-85275000D02*
X138405000Y-86275000D01*
X138405000Y-86275000D02*
X135905000Y-86275000D01*
X140985000Y-85275000D02*
X143485000Y-85275000D01*
X140985000Y-86275000D02*
X140985000Y-85275000D01*
X142535000Y-77705000D02*
X144895000Y-77705000D01*
X143485000Y-85275000D02*
X143485000Y-86275000D01*
X143485000Y-86275000D02*
X140985000Y-86275000D01*
X144895000Y-77705000D02*
X144895000Y-86395000D01*
X144895000Y-78325000D02*
X93855000Y-78325000D01*
X144895000Y-79425000D02*
X93855000Y-79425000D01*
X144895000Y-84425000D02*
X93855000Y-84425000D01*
X144895000Y-86395000D02*
X93855000Y-86395000D01*
X142235000Y-77705000D02*
X141795000Y-77095000D01*
X142675000Y-77095000D01*
X142235000Y-77705000D01*
G36*
X142235000Y-77705000D02*
G01*
X141795000Y-77095000D01*
X142675000Y-77095000D01*
X142235000Y-77705000D01*
G37*
X69755000Y-56745000D02*
X78445000Y-56745000D01*
X69755000Y-107785000D02*
X69755000Y-56745000D01*
X69875000Y-58155000D02*
X70875000Y-58155000D01*
X69875000Y-60655000D02*
X69875000Y-58155000D01*
X69875000Y-63235000D02*
X70875000Y-63235000D01*
X69875000Y-65735000D02*
X69875000Y-63235000D01*
X69875000Y-68315000D02*
X70875000Y-68315000D01*
X69875000Y-70815000D02*
X69875000Y-68315000D01*
X69875000Y-73395000D02*
X70875000Y-73395000D01*
X69875000Y-75895000D02*
X69875000Y-73395000D01*
X69875000Y-78475000D02*
X70875000Y-78475000D01*
X69875000Y-80975000D02*
X69875000Y-78475000D01*
X69875000Y-83555000D02*
X70875000Y-83555000D01*
X69875000Y-86055000D02*
X69875000Y-83555000D01*
X69875000Y-88635000D02*
X70875000Y-88635000D01*
X69875000Y-91135000D02*
X69875000Y-88635000D01*
X69875000Y-93715000D02*
X70875000Y-93715000D01*
X69875000Y-96215000D02*
X69875000Y-93715000D01*
X69875000Y-98795000D02*
X70875000Y-98795000D01*
X69875000Y-101295000D02*
X69875000Y-98795000D01*
X69875000Y-103875000D02*
X70875000Y-103875000D01*
X69875000Y-106375000D02*
X69875000Y-103875000D01*
X70875000Y-58155000D02*
X70875000Y-60655000D01*
X70875000Y-60655000D02*
X69875000Y-60655000D01*
X70875000Y-63235000D02*
X70875000Y-65735000D01*
X70875000Y-65735000D02*
X69875000Y-65735000D01*
X70875000Y-68315000D02*
X70875000Y-70815000D01*
X70875000Y-70815000D02*
X69875000Y-70815000D01*
X70875000Y-73395000D02*
X70875000Y-75895000D01*
X70875000Y-75895000D02*
X69875000Y-75895000D01*
X70875000Y-78475000D02*
X70875000Y-80975000D01*
X70875000Y-80975000D02*
X69875000Y-80975000D01*
X70875000Y-83555000D02*
X70875000Y-86055000D01*
X70875000Y-86055000D02*
X69875000Y-86055000D01*
X70875000Y-88635000D02*
X70875000Y-91135000D01*
X70875000Y-91135000D02*
X69875000Y-91135000D01*
X70875000Y-93715000D02*
X70875000Y-96215000D01*
X70875000Y-96215000D02*
X69875000Y-96215000D01*
X70875000Y-98795000D02*
X70875000Y-101295000D01*
X70875000Y-101295000D02*
X69875000Y-101295000D01*
X70875000Y-103875000D02*
X70875000Y-106375000D01*
X70875000Y-106375000D02*
X69875000Y-106375000D01*
X71725000Y-107785000D02*
X71725000Y-56745000D01*
X76725000Y-107785000D02*
X76725000Y-56745000D01*
X77825000Y-107785000D02*
X77825000Y-56745000D01*
X78445000Y-56745000D02*
X78445000Y-104825000D01*
X78445000Y-105425000D02*
X78445000Y-107785000D01*
X78445000Y-107785000D02*
X69755000Y-107785000D01*
X79055000Y-105565000D02*
X78445000Y-105125000D01*
X79055000Y-104685000D01*
X79055000Y-105565000D01*
G36*
X79055000Y-105565000D02*
G01*
X78445000Y-105125000D01*
X79055000Y-104685000D01*
X79055000Y-105565000D01*
G37*
X163605000Y-98290000D02*
X172295000Y-98290000D01*
X163605000Y-100650000D02*
X163605000Y-98290000D01*
X163605000Y-118850000D02*
X163605000Y-101250000D01*
X164225000Y-98290000D02*
X164225000Y-118850000D01*
X165325000Y-98290000D02*
X165325000Y-118850000D01*
X170325000Y-98290000D02*
X170325000Y-118850000D01*
X171175000Y-99700000D02*
X172175000Y-99700000D01*
X171175000Y-102200000D02*
X171175000Y-99700000D01*
X171175000Y-104780000D02*
X172175000Y-104780000D01*
X171175000Y-107280000D02*
X171175000Y-104780000D01*
X171175000Y-109860000D02*
X172175000Y-109860000D01*
X171175000Y-112360000D02*
X171175000Y-109860000D01*
X171175000Y-114940000D02*
X172175000Y-114940000D01*
X171175000Y-117440000D02*
X171175000Y-114940000D01*
X172175000Y-99700000D02*
X172175000Y-102200000D01*
X172175000Y-102200000D02*
X171175000Y-102200000D01*
X172175000Y-104780000D02*
X172175000Y-107280000D01*
X172175000Y-107280000D02*
X171175000Y-107280000D01*
X172175000Y-109860000D02*
X172175000Y-112360000D01*
X172175000Y-112360000D02*
X171175000Y-112360000D01*
X172175000Y-114940000D02*
X172175000Y-117440000D01*
X172175000Y-117440000D02*
X171175000Y-117440000D01*
X172295000Y-98290000D02*
X172295000Y-118850000D01*
X172295000Y-118850000D02*
X163605000Y-118850000D01*
X163605000Y-100950000D02*
X162995000Y-101390000D01*
X162995000Y-100510000D01*
X163605000Y-100950000D01*
G36*
X163605000Y-100950000D02*
G01*
X162995000Y-101390000D01*
X162995000Y-100510000D01*
X163605000Y-100950000D01*
G37*
X163655000Y-45890000D02*
X172345000Y-45890000D01*
X163655000Y-48250000D02*
X163655000Y-45890000D01*
X163655000Y-96930000D02*
X163655000Y-48850000D01*
X164275000Y-45890000D02*
X164275000Y-96930000D01*
X165375000Y-45890000D02*
X165375000Y-96930000D01*
X170375000Y-45890000D02*
X170375000Y-96930000D01*
X171225000Y-47300000D02*
X172225000Y-47300000D01*
X171225000Y-49800000D02*
X171225000Y-47300000D01*
X171225000Y-52380000D02*
X172225000Y-52380000D01*
X171225000Y-54880000D02*
X171225000Y-52380000D01*
X171225000Y-57460000D02*
X172225000Y-57460000D01*
X171225000Y-59960000D02*
X171225000Y-57460000D01*
X171225000Y-62540000D02*
X172225000Y-62540000D01*
X171225000Y-65040000D02*
X171225000Y-62540000D01*
X171225000Y-67620000D02*
X172225000Y-67620000D01*
X171225000Y-70120000D02*
X171225000Y-67620000D01*
X171225000Y-72700000D02*
X172225000Y-72700000D01*
X171225000Y-75200000D02*
X171225000Y-72700000D01*
X171225000Y-77780000D02*
X172225000Y-77780000D01*
X171225000Y-80280000D02*
X171225000Y-77780000D01*
X171225000Y-82860000D02*
X172225000Y-82860000D01*
X171225000Y-85360000D02*
X171225000Y-82860000D01*
X171225000Y-87940000D02*
X172225000Y-87940000D01*
X171225000Y-90440000D02*
X171225000Y-87940000D01*
X171225000Y-93020000D02*
X172225000Y-93020000D01*
X171225000Y-95520000D02*
X171225000Y-93020000D01*
X172225000Y-47300000D02*
X172225000Y-49800000D01*
X172225000Y-49800000D02*
X171225000Y-49800000D01*
X172225000Y-52380000D02*
X172225000Y-54880000D01*
X172225000Y-54880000D02*
X171225000Y-54880000D01*
X172225000Y-57460000D02*
X172225000Y-59960000D01*
X172225000Y-59960000D02*
X171225000Y-59960000D01*
X172225000Y-62540000D02*
X172225000Y-65040000D01*
X172225000Y-65040000D02*
X171225000Y-65040000D01*
X172225000Y-67620000D02*
X172225000Y-70120000D01*
X172225000Y-70120000D02*
X171225000Y-70120000D01*
X172225000Y-72700000D02*
X172225000Y-75200000D01*
X172225000Y-75200000D02*
X171225000Y-75200000D01*
X172225000Y-77780000D02*
X172225000Y-80280000D01*
X172225000Y-80280000D02*
X171225000Y-80280000D01*
X172225000Y-82860000D02*
X172225000Y-85360000D01*
X172225000Y-85360000D02*
X171225000Y-85360000D01*
X172225000Y-87940000D02*
X172225000Y-90440000D01*
X172225000Y-90440000D02*
X171225000Y-90440000D01*
X172225000Y-93020000D02*
X172225000Y-95520000D01*
X172225000Y-95520000D02*
X171225000Y-95520000D01*
X172345000Y-45890000D02*
X172345000Y-96930000D01*
X172345000Y-96930000D02*
X163655000Y-96930000D01*
X163655000Y-48550000D02*
X163045000Y-48990000D01*
X163045000Y-48110000D01*
X163655000Y-48550000D01*
G36*
X163655000Y-48550000D02*
G01*
X163045000Y-48990000D01*
X163045000Y-48110000D01*
X163655000Y-48550000D01*
G37*
M02*
