M48
; DRILL file {KiCad 9.0.7} date 2026-02-21T13:48:38-0500
; FORMAT={-:-/ absolute / metric / decimal}
; #@! TF.CreationDate,2026-02-21T13:48:38-05:00
; #@! TF.GenerationSoftware,Kicad,Pcbnew,9.0.7
; #@! TF.FileFunction,Plated,1,2,PTH
FMAT,2
METRIC
; #@! TA.AperFunction,Plated,PTH,ComponentDrill
T1C1.000
; #@! TA.AperFunction,Plated,PTH,ComponentDrill
T2C1.100
; #@! TA.AperFunction,Plated,PTH,ComponentDrill
T3C3.200
%
G90
G05
T1
X100.245Y-109.415
X101.39Y-106.875
X101.39Y-111.955
X102.535Y-109.415
X103.68Y-106.875
X103.68Y-111.955
X104.825Y-109.415
X105.97Y-106.875
X105.97Y-111.955
X107.115Y-109.415
X108.26Y-106.875
X108.26Y-111.955
X109.405Y-109.415
X110.55Y-106.875
X110.55Y-111.955
X111.695Y-109.415
X112.84Y-106.875
X112.84Y-111.955
X113.985Y-109.415
X115.13Y-106.875
X115.13Y-111.955
X116.275Y-109.415
X117.42Y-106.875
X117.42Y-111.955
X118.565Y-109.415
X119.71Y-106.875
X119.71Y-111.955
X120.855Y-109.415
X122.0Y-106.875
X122.0Y-111.955
X123.145Y-109.415
X124.29Y-106.875
X124.29Y-111.955
X125.435Y-109.415
X126.58Y-106.875
X126.58Y-111.955
X127.725Y-109.415
X128.87Y-106.875
X128.87Y-111.955
X130.015Y-109.415
X131.16Y-106.875
X131.16Y-111.955
X132.305Y-109.415
X133.45Y-106.875
T2
X74.275Y-59.405
X74.275Y-64.485
X74.275Y-69.565
X74.275Y-74.645
X74.275Y-79.725
X74.275Y-84.805
X74.275Y-89.885
X74.275Y-94.965
X74.275Y-100.045
X74.275Y-105.125
X96.395Y-61.3
X96.515Y-81.875
X101.475Y-61.3
X101.595Y-81.875
X106.555Y-61.3
X106.675Y-81.875
X111.635Y-61.3
X111.755Y-81.875
X116.715Y-61.3
X116.835Y-81.875
X121.795Y-61.3
X121.915Y-81.875
X126.875Y-61.3
X126.995Y-81.875
X131.955Y-61.3
X132.075Y-81.875
X137.035Y-61.3
X137.155Y-81.875
X142.115Y-61.3
X142.235Y-81.875
X167.775Y-100.95
X167.775Y-106.03
X167.775Y-111.11
X167.775Y-116.19
X167.825Y-48.55
X167.825Y-53.63
X167.825Y-58.71
X167.825Y-63.79
X167.825Y-68.87
X167.825Y-73.95
X167.825Y-79.03
X167.825Y-84.11
X167.825Y-89.19
X167.825Y-94.27
T3
X93.365Y-109.415
X140.465Y-109.415
M30
