G04 #@! TF.GenerationSoftware,KiCad,Pcbnew,9.0.7*
G04 #@! TF.CreationDate,2026-02-21T13:48:30-05:00*
G04 #@! TF.ProjectId,DB44_Male_Breakout,44423434-5f4d-4616-9c65-5f427265616b,rev?*
G04 #@! TF.SameCoordinates,Original*
G04 #@! TF.FileFunction,Soldermask,Bot*
G04 #@! TF.FilePolarity,Negative*
%FSLAX46Y46*%
G04 Gerber Fmt 4.6, Leading zero omitted, Abs format (unit mm)*
G04 Created by KiCad (PCBNEW 9.0.7) date 2026-02-21 13:48:30*
%MOMM*%
%LPD*%
G01*
G04 APERTURE LIST*
G04 Aperture macros list*
%AMRoundRect*
0 Rectangle with rounded corners*
0 $1 Rounding radius*
0 $2 $3 $4 $5 $6 $7 $8 $9 X,Y pos of 4 corners*
0 Add a 4 corners polygon primitive as box body*
4,1,4,$2,$3,$4,$5,$6,$7,$8,$9,$2,$3,0*
0 Add four circle primitives for the rounded corners*
1,1,$1+$1,$2,$3*
1,1,$1+$1,$4,$5*
1,1,$1+$1,$6,$7*
1,1,$1+$1,$8,$9*
0 Add four rect primitives between the rounded corners*
20,1,$1+$1,$2,$3,$4,$5,0*
20,1,$1+$1,$4,$5,$6,$7,0*
20,1,$1+$1,$6,$7,$8,$9,0*
20,1,$1+$1,$8,$9,$2,$3,0*%
G04 Aperture macros list end*
%ADD10C,4.000000*%
%ADD11R,1.600000X1.600000*%
%ADD12C,1.600000*%
%ADD13RoundRect,0.250001X-0.799999X-0.799999X0.799999X-0.799999X0.799999X0.799999X-0.799999X0.799999X0*%
%ADD14C,2.100000*%
%ADD15RoundRect,0.250001X0.799999X0.799999X-0.799999X0.799999X-0.799999X-0.799999X0.799999X-0.799999X0*%
%ADD16RoundRect,0.250001X0.799999X-0.799999X0.799999X0.799999X-0.799999X0.799999X-0.799999X-0.799999X0*%
%ADD17RoundRect,0.250001X-0.799999X0.799999X-0.799999X-0.799999X0.799999X-0.799999X0.799999X0.799999X0*%
G04 APERTURE END LIST*
D10*
X93365000Y-109415000D03*
X140465000Y-109415000D03*
D11*
X101390000Y-106875000D03*
D12*
X103680000Y-106875000D03*
X105970000Y-106875000D03*
X108260000Y-106875000D03*
X110550000Y-106875000D03*
X112840000Y-106875000D03*
X115130000Y-106875000D03*
X117420000Y-106875000D03*
X119710000Y-106875000D03*
X122000000Y-106875000D03*
X124290000Y-106875000D03*
X126580000Y-106875000D03*
X128870000Y-106875000D03*
X131160000Y-106875000D03*
X133450000Y-106875000D03*
X100245000Y-109415000D03*
X102535000Y-109415000D03*
X104825000Y-109415000D03*
X107115000Y-109415000D03*
X109405000Y-109415000D03*
X111695000Y-109415000D03*
X113985000Y-109415000D03*
X116275000Y-109415000D03*
X118565000Y-109415000D03*
X120855000Y-109415000D03*
X123145000Y-109415000D03*
X125435000Y-109415000D03*
X127725000Y-109415000D03*
X130015000Y-109415000D03*
X132305000Y-109415000D03*
X101390000Y-111955000D03*
X103680000Y-111955000D03*
X105970000Y-111955000D03*
X108260000Y-111955000D03*
X110550000Y-111955000D03*
X112840000Y-111955000D03*
X115130000Y-111955000D03*
X117420000Y-111955000D03*
X119710000Y-111955000D03*
X122000000Y-111955000D03*
X124290000Y-111955000D03*
X126580000Y-111955000D03*
X128870000Y-111955000D03*
X131160000Y-111955000D03*
D13*
X96395000Y-61300000D03*
D14*
X101475000Y-61300000D03*
X106555000Y-61300000D03*
X111635000Y-61300000D03*
X116715000Y-61300000D03*
X121795000Y-61300000D03*
X126875000Y-61300000D03*
X131955000Y-61300000D03*
X137035000Y-61300000D03*
X142115000Y-61300000D03*
D15*
X142235000Y-81875000D03*
D14*
X137155000Y-81875000D03*
X132075000Y-81875000D03*
X126995000Y-81875000D03*
X121915000Y-81875000D03*
X116835000Y-81875000D03*
X111755000Y-81875000D03*
X106675000Y-81875000D03*
X101595000Y-81875000D03*
X96515000Y-81875000D03*
D16*
X74275000Y-105125000D03*
D14*
X74275000Y-100045000D03*
X74275000Y-94965000D03*
X74275000Y-89885000D03*
X74275000Y-84805000D03*
X74275000Y-79725000D03*
X74275000Y-74645000D03*
X74275000Y-69565000D03*
X74275000Y-64485000D03*
X74275000Y-59405000D03*
D17*
X167775000Y-100950000D03*
D14*
X167775000Y-106030000D03*
X167775000Y-111110000D03*
X167775000Y-116190000D03*
D17*
X167825000Y-48550000D03*
D14*
X167825000Y-53630000D03*
X167825000Y-58710000D03*
X167825000Y-63790000D03*
X167825000Y-68870000D03*
X167825000Y-73950000D03*
X167825000Y-79030000D03*
X167825000Y-84110000D03*
X167825000Y-89190000D03*
X167825000Y-94270000D03*
M02*
