M48
; DRILL file {KiCad 9.0.5} date 2026-02-23T19:40:13-0500
; FORMAT={-:-/ absolute / metric / decimal}
; #@! TF.CreationDate,2026-02-23T19:40:13-05:00
; #@! TF.GenerationSoftware,Kicad,Pcbnew,9.0.5
; #@! TF.FileFunction,Plated,1,4,PTH
FMAT,2
METRIC
; #@! TA.AperFunction,Plated,PTH,ViaDrill
T1C0.300
; #@! TA.AperFunction,Plated,PTH,ViaDrill
T2C0.400
; #@! TA.AperFunction,Plated,PTH,ComponentDrill
T3C1.000
; #@! TA.AperFunction,Plated,PTH,ComponentDrill
T4C3.200
%
G90
G05
T1
X123.3Y-89.2
X123.3Y-94.28
X125.84Y-86.66
X125.84Y-91.74
X125.84Y-96.82
X127.11Y-105.71
X130.0Y-98.5
X130.92Y-84.882
X130.92Y-104.44
X132.0Y-88.0
X132.0Y-97.5
X133.0Y-101.5
X134.199Y-102.801
X134.73Y-93.645
X136.0Y-101.9
X136.0Y-104.44
X136.635Y-86.66
X138.5Y-103.5
X139.81Y-85.39
X140.0Y-102.0
X141.334Y-107.488
X141.5Y-102.0
X143.62Y-85.39
X144.0Y-102.5
X144.89Y-105.075
X146.0Y-102.0
X147.43Y-85.39
X147.5Y-105.001
X148.395Y-98.395
X149.97Y-105.71
X150.478Y-94.915
X151.875Y-94.915
X153.628Y-86.736
X162.699Y-97.699
X163.301Y-98.301
X163.5Y-105.5
X163.5Y-106.5
X164.5Y-102.0
X164.702Y-108.25
X166.0Y-106.5
X166.5Y-102.0
X167.5Y-102.5
X167.75Y-107.488
X168.0Y-105.5
X169.0Y-102.0
X170.5Y-102.0
X170.544Y-105.202
X171.5Y-102.5
X173.592Y-104.44
X177.148Y-85.39
X179.942Y-104.44
X181.72Y-86.66
X181.72Y-91.74
X181.72Y-96.82
X184.514Y-89.454
X184.514Y-95.042
T2
X124.0Y-100.5
X127.0Y-98.5
X128.0Y-88.0
X128.0Y-98.5
X128.5Y-92.0
X129.0Y-98.5
X131.5Y-92.0
X142.5Y-87.0
X145.25Y-86.75
X148.0Y-86.5
X149.5Y-84.5
X150.0Y-86.5
X151.0Y-84.5
X152.5Y-86.5
X153.0Y-105.0
X155.5Y-86.5
X158.0Y-86.0
X158.5Y-101.0
X159.5Y-86.0
X162.5Y-87.0
X164.5Y-98.5
X165.0Y-87.0
X166.0Y-99.0
X167.0Y-87.0
X167.0Y-98.5
X169.5Y-87.0
X175.5Y-87.5
X175.5Y-92.5
X175.5Y-98.5
X176.5Y-98.5
X178.5Y-88.0
X178.5Y-92.5
X178.5Y-98.5
X180.169Y-98.331
X183.5Y-101.0
T3
X136.94Y-92.0
X138.085Y-90.02
X139.23Y-88.04
X139.23Y-92.0
X140.375Y-90.02
X141.52Y-88.04
X141.52Y-92.0
X142.665Y-90.02
X143.81Y-88.04
X143.81Y-92.0
X144.955Y-90.02
X146.1Y-88.04
X146.1Y-92.0
X147.245Y-90.02
X148.39Y-88.04
X148.39Y-92.0
X149.535Y-90.02
X150.68Y-88.04
X150.68Y-92.0
X151.825Y-90.02
X152.97Y-88.04
X152.97Y-92.0
X154.115Y-90.02
X155.26Y-88.04
X155.26Y-92.0
X156.405Y-90.02
X157.55Y-88.04
X157.55Y-92.0
X158.695Y-90.02
X159.84Y-88.04
X159.84Y-92.0
X160.985Y-90.02
X162.13Y-88.04
X162.13Y-92.0
X163.275Y-90.02
X164.42Y-88.04
X164.42Y-92.0
X165.565Y-90.02
X166.71Y-88.04
X166.71Y-92.0
X167.855Y-90.02
X169.0Y-88.04
X169.0Y-92.0
X170.145Y-90.02
T4
X129.925Y-90.02
X177.025Y-90.02
M30
