%TF.GenerationSoftware,KiCad,Pcbnew,9.0.5*%
%TF.CreationDate,2026-02-23T19:40:13-05:00*%
%TF.ProjectId,main_db44_fpc,6d61696e-5f64-4623-9434-5f6670632e6b,rev?*%
%TF.SameCoordinates,Original*%
%TF.FileFunction,Drillmap*%
%TF.FilePolarity,Positive*%
%FSLAX45Y45*%
G04 Gerber Fmt 4.5, Leading zero omitted, Abs format (unit mm)*
G04 Created by KiCad (PCBNEW 9.0.5) date 2026-02-23 19:40:14*
%MOMM*%
%LPD*%
G01*
G04 APERTURE LIST*
%ADD10C,0.050000*%
%ADD11C,0.200000*%
%ADD12C,0.100000*%
%ADD13C,0.320000*%
G04 APERTURE END LIST*
D10*
X18650000Y-10850000D02*
X18650000Y-8450000D01*
X12150000Y-10850000D02*
X12150000Y-8450000D01*
X12250000Y-10950000D02*
G75*
G02*
X12150000Y-10850000I0J100000D01*
G01*
X12150000Y-8450000D02*
G75*
G02*
X12250000Y-8350000I100000J0D01*
G01*
X12250000Y-10950000D02*
X18550000Y-10950000D01*
X18650000Y-10850000D02*
G75*
G02*
X18550000Y-10950000I-100000J0D01*
G01*
X18550000Y-8350000D02*
G75*
G02*
X18650000Y-8450000I0J-100000D01*
G01*
X12250000Y-8350000D02*
X18550000Y-8350000D01*
D11*
D12*
X12315000Y-8905000D02*
X12345000Y-8935000D01*
X12345000Y-8905000D02*
X12315000Y-8935000D01*
X12315000Y-9413000D02*
X12345000Y-9443000D01*
X12345000Y-9413000D02*
X12315000Y-9443000D01*
X12569000Y-8651000D02*
X12599000Y-8681000D01*
X12599000Y-8651000D02*
X12569000Y-8681000D01*
X12569000Y-9159000D02*
X12599000Y-9189000D01*
X12599000Y-9159000D02*
X12569000Y-9189000D01*
X12569000Y-9667000D02*
X12599000Y-9697000D01*
X12599000Y-9667000D02*
X12569000Y-9697000D01*
X12696000Y-10556000D02*
X12726000Y-10586000D01*
X12726000Y-10556000D02*
X12696000Y-10586000D01*
X12985000Y-9835000D02*
X13015000Y-9865000D01*
X13015000Y-9835000D02*
X12985000Y-9865000D01*
X13077000Y-8473200D02*
X13107000Y-8503200D01*
X13107000Y-8473200D02*
X13077000Y-8503200D01*
X13077000Y-10429000D02*
X13107000Y-10459000D01*
X13107000Y-10429000D02*
X13077000Y-10459000D01*
X13185000Y-8785000D02*
X13215000Y-8815000D01*
X13215000Y-8785000D02*
X13185000Y-8815000D01*
X13185000Y-9735000D02*
X13215000Y-9765000D01*
X13215000Y-9735000D02*
X13185000Y-9765000D01*
X13285000Y-10135000D02*
X13315000Y-10165000D01*
X13315000Y-10135000D02*
X13285000Y-10165000D01*
X13404948Y-10265052D02*
X13434948Y-10295052D01*
X13434948Y-10265052D02*
X13404948Y-10295052D01*
X13458000Y-9349500D02*
X13488000Y-9379500D01*
X13488000Y-9349500D02*
X13458000Y-9379500D01*
X13585000Y-10175000D02*
X13615000Y-10205000D01*
X13615000Y-10175000D02*
X13585000Y-10205000D01*
X13585000Y-10429000D02*
X13615000Y-10459000D01*
X13615000Y-10429000D02*
X13585000Y-10459000D01*
X13648500Y-8651000D02*
X13678500Y-8681000D01*
X13678500Y-8651000D02*
X13648500Y-8681000D01*
X13835000Y-10335000D02*
X13865000Y-10365000D01*
X13865000Y-10335000D02*
X13835000Y-10365000D01*
X13966000Y-8524000D02*
X13996000Y-8554000D01*
X13996000Y-8524000D02*
X13966000Y-8554000D01*
X13985000Y-10185000D02*
X14015000Y-10215000D01*
X14015000Y-10185000D02*
X13985000Y-10215000D01*
X14118400Y-10733800D02*
X14148400Y-10763800D01*
X14148400Y-10733800D02*
X14118400Y-10763800D01*
X14135000Y-10185000D02*
X14165000Y-10215000D01*
X14165000Y-10185000D02*
X14135000Y-10215000D01*
X14347000Y-8524000D02*
X14377000Y-8554000D01*
X14377000Y-8524000D02*
X14347000Y-8554000D01*
X14385000Y-10235000D02*
X14415000Y-10265000D01*
X14415000Y-10235000D02*
X14385000Y-10265000D01*
X14474000Y-10492500D02*
X14504000Y-10522500D01*
X14504000Y-10492500D02*
X14474000Y-10522500D01*
X14585000Y-10185000D02*
X14615000Y-10215000D01*
X14615000Y-10185000D02*
X14585000Y-10215000D01*
X14728000Y-8524000D02*
X14758000Y-8554000D01*
X14758000Y-8524000D02*
X14728000Y-8554000D01*
X14735000Y-10485100D02*
X14765000Y-10515100D01*
X14765000Y-10485100D02*
X14735000Y-10515100D01*
X14824520Y-9824480D02*
X14854520Y-9854480D01*
X14854520Y-9824480D02*
X14824520Y-9854480D01*
X14982000Y-10556000D02*
X15012000Y-10586000D01*
X15012000Y-10556000D02*
X14982000Y-10586000D01*
X15032800Y-9476500D02*
X15062800Y-9506500D01*
X15062800Y-9476500D02*
X15032800Y-9506500D01*
X15172500Y-9476500D02*
X15202500Y-9506500D01*
X15202500Y-9476500D02*
X15172500Y-9506500D01*
X15347760Y-8658620D02*
X15377760Y-8688620D01*
X15377760Y-8658620D02*
X15347760Y-8688620D01*
X16254948Y-9754948D02*
X16284948Y-9784948D01*
X16284948Y-9754948D02*
X16254948Y-9784948D01*
X16315052Y-9815052D02*
X16345052Y-9845052D01*
X16345052Y-9815052D02*
X16315052Y-9845052D01*
X16335000Y-10535000D02*
X16365000Y-10565000D01*
X16365000Y-10535000D02*
X16335000Y-10565000D01*
X16335000Y-10635000D02*
X16365000Y-10665000D01*
X16365000Y-10635000D02*
X16335000Y-10665000D01*
X16435000Y-10185000D02*
X16465000Y-10215000D01*
X16465000Y-10185000D02*
X16435000Y-10215000D01*
X16455200Y-10810000D02*
X16485200Y-10840000D01*
X16485200Y-10810000D02*
X16455200Y-10840000D01*
X16585000Y-10635000D02*
X16615000Y-10665000D01*
X16615000Y-10635000D02*
X16585000Y-10665000D01*
X16635000Y-10185000D02*
X16665000Y-10215000D01*
X16665000Y-10185000D02*
X16635000Y-10215000D01*
X16735000Y-10235000D02*
X16765000Y-10265000D01*
X16765000Y-10235000D02*
X16735000Y-10265000D01*
X16760000Y-10733800D02*
X16790000Y-10763800D01*
X16790000Y-10733800D02*
X16760000Y-10763800D01*
X16785000Y-10535000D02*
X16815000Y-10565000D01*
X16815000Y-10535000D02*
X16785000Y-10565000D01*
X16885000Y-10185000D02*
X16915000Y-10215000D01*
X16915000Y-10185000D02*
X16885000Y-10215000D01*
X17035000Y-10185000D02*
X17065000Y-10215000D01*
X17065000Y-10185000D02*
X17035000Y-10215000D01*
X17039400Y-10505200D02*
X17069400Y-10535200D01*
X17069400Y-10505200D02*
X17039400Y-10535200D01*
X17135000Y-10235000D02*
X17165000Y-10265000D01*
X17165000Y-10235000D02*
X17135000Y-10265000D01*
X17344200Y-10429000D02*
X17374200Y-10459000D01*
X17374200Y-10429000D02*
X17344200Y-10459000D01*
X17699800Y-8524000D02*
X17729800Y-8554000D01*
X17729800Y-8524000D02*
X17699800Y-8554000D01*
X17979200Y-10429000D02*
X18009200Y-10459000D01*
X18009200Y-10429000D02*
X17979200Y-10459000D01*
X18157000Y-8651000D02*
X18187000Y-8681000D01*
X18187000Y-8651000D02*
X18157000Y-8681000D01*
X18157000Y-9159000D02*
X18187000Y-9189000D01*
X18187000Y-9159000D02*
X18157000Y-9189000D01*
X18157000Y-9667000D02*
X18187000Y-9697000D01*
X18187000Y-9667000D02*
X18157000Y-9697000D01*
X18436400Y-8930400D02*
X18466400Y-8960400D01*
X18466400Y-8930400D02*
X18436400Y-8960400D01*
X18436400Y-9489200D02*
X18466400Y-9519200D01*
X18466400Y-9489200D02*
X18436400Y-9519200D01*
X12420000Y-10050000D02*
G75*
G02*
X12380000Y-10050000I-20000J0D01*
G01*
X12380000Y-10050000D02*
G75*
G02*
X12420000Y-10050000I20000J0D01*
G01*
X12720000Y-9850000D02*
G75*
G02*
X12680000Y-9850000I-20000J0D01*
G01*
X12680000Y-9850000D02*
G75*
G02*
X12720000Y-9850000I20000J0D01*
G01*
X12820000Y-8800000D02*
G75*
G02*
X12780000Y-8800000I-20000J0D01*
G01*
X12780000Y-8800000D02*
G75*
G02*
X12820000Y-8800000I20000J0D01*
G01*
X12820000Y-9850000D02*
G75*
G02*
X12780000Y-9850000I-20000J0D01*
G01*
X12780000Y-9850000D02*
G75*
G02*
X12820000Y-9850000I20000J0D01*
G01*
X12870000Y-9200000D02*
G75*
G02*
X12830000Y-9200000I-20000J0D01*
G01*
X12830000Y-9200000D02*
G75*
G02*
X12870000Y-9200000I20000J0D01*
G01*
X12920000Y-9850000D02*
G75*
G02*
X12880000Y-9850000I-20000J0D01*
G01*
X12880000Y-9850000D02*
G75*
G02*
X12920000Y-9850000I20000J0D01*
G01*
X13170000Y-9200000D02*
G75*
G02*
X13130000Y-9200000I-20000J0D01*
G01*
X13130000Y-9200000D02*
G75*
G02*
X13170000Y-9200000I20000J0D01*
G01*
X14270000Y-8700000D02*
G75*
G02*
X14230000Y-8700000I-20000J0D01*
G01*
X14230000Y-8700000D02*
G75*
G02*
X14270000Y-8700000I20000J0D01*
G01*
X14545000Y-8675000D02*
G75*
G02*
X14505000Y-8675000I-20000J0D01*
G01*
X14505000Y-8675000D02*
G75*
G02*
X14545000Y-8675000I20000J0D01*
G01*
X14820000Y-8650000D02*
G75*
G02*
X14780000Y-8650000I-20000J0D01*
G01*
X14780000Y-8650000D02*
G75*
G02*
X14820000Y-8650000I20000J0D01*
G01*
X14970000Y-8450000D02*
G75*
G02*
X14930000Y-8450000I-20000J0D01*
G01*
X14930000Y-8450000D02*
G75*
G02*
X14970000Y-8450000I20000J0D01*
G01*
X15020000Y-8650000D02*
G75*
G02*
X14980000Y-8650000I-20000J0D01*
G01*
X14980000Y-8650000D02*
G75*
G02*
X15020000Y-8650000I20000J0D01*
G01*
X15120000Y-8450000D02*
G75*
G02*
X15080000Y-8450000I-20000J0D01*
G01*
X15080000Y-8450000D02*
G75*
G02*
X15120000Y-8450000I20000J0D01*
G01*
X15270000Y-8650000D02*
G75*
G02*
X15230000Y-8650000I-20000J0D01*
G01*
X15230000Y-8650000D02*
G75*
G02*
X15270000Y-8650000I20000J0D01*
G01*
X15320000Y-10500000D02*
G75*
G02*
X15280000Y-10500000I-20000J0D01*
G01*
X15280000Y-10500000D02*
G75*
G02*
X15320000Y-10500000I20000J0D01*
G01*
X15570000Y-8650000D02*
G75*
G02*
X15530000Y-8650000I-20000J0D01*
G01*
X15530000Y-8650000D02*
G75*
G02*
X15570000Y-8650000I20000J0D01*
G01*
X15820000Y-8600000D02*
G75*
G02*
X15780000Y-8600000I-20000J0D01*
G01*
X15780000Y-8600000D02*
G75*
G02*
X15820000Y-8600000I20000J0D01*
G01*
X15870000Y-10100000D02*
G75*
G02*
X15830000Y-10100000I-20000J0D01*
G01*
X15830000Y-10100000D02*
G75*
G02*
X15870000Y-10100000I20000J0D01*
G01*
X15970000Y-8600000D02*
G75*
G02*
X15930000Y-8600000I-20000J0D01*
G01*
X15930000Y-8600000D02*
G75*
G02*
X15970000Y-8600000I20000J0D01*
G01*
X16270000Y-8700000D02*
G75*
G02*
X16230000Y-8700000I-20000J0D01*
G01*
X16230000Y-8700000D02*
G75*
G02*
X16270000Y-8700000I20000J0D01*
G01*
X16470000Y-9850000D02*
G75*
G02*
X16430000Y-9850000I-20000J0D01*
G01*
X16430000Y-9850000D02*
G75*
G02*
X16470000Y-9850000I20000J0D01*
G01*
X16520000Y-8700000D02*
G75*
G02*
X16480000Y-8700000I-20000J0D01*
G01*
X16480000Y-8700000D02*
G75*
G02*
X16520000Y-8700000I20000J0D01*
G01*
X16620000Y-9900000D02*
G75*
G02*
X16580000Y-9900000I-20000J0D01*
G01*
X16580000Y-9900000D02*
G75*
G02*
X16620000Y-9900000I20000J0D01*
G01*
X16720000Y-8700000D02*
G75*
G02*
X16680000Y-8700000I-20000J0D01*
G01*
X16680000Y-8700000D02*
G75*
G02*
X16720000Y-8700000I20000J0D01*
G01*
X16720000Y-9850000D02*
G75*
G02*
X16680000Y-9850000I-20000J0D01*
G01*
X16680000Y-9850000D02*
G75*
G02*
X16720000Y-9850000I20000J0D01*
G01*
X16970000Y-8700000D02*
G75*
G02*
X16930000Y-8700000I-20000J0D01*
G01*
X16930000Y-8700000D02*
G75*
G02*
X16970000Y-8700000I20000J0D01*
G01*
X17570000Y-8750000D02*
G75*
G02*
X17530000Y-8750000I-20000J0D01*
G01*
X17530000Y-8750000D02*
G75*
G02*
X17570000Y-8750000I20000J0D01*
G01*
X17570000Y-9250000D02*
G75*
G02*
X17530000Y-9250000I-20000J0D01*
G01*
X17530000Y-9250000D02*
G75*
G02*
X17570000Y-9250000I20000J0D01*
G01*
X17570000Y-9850000D02*
G75*
G02*
X17530000Y-9850000I-20000J0D01*
G01*
X17530000Y-9850000D02*
G75*
G02*
X17570000Y-9850000I20000J0D01*
G01*
X17670000Y-9850000D02*
G75*
G02*
X17630000Y-9850000I-20000J0D01*
G01*
X17630000Y-9850000D02*
G75*
G02*
X17670000Y-9850000I20000J0D01*
G01*
X17870000Y-8800000D02*
G75*
G02*
X17830000Y-8800000I-20000J0D01*
G01*
X17830000Y-8800000D02*
G75*
G02*
X17870000Y-8800000I20000J0D01*
G01*
X17870000Y-9250000D02*
G75*
G02*
X17830000Y-9250000I-20000J0D01*
G01*
X17830000Y-9250000D02*
G75*
G02*
X17870000Y-9250000I20000J0D01*
G01*
X17870000Y-9850000D02*
G75*
G02*
X17830000Y-9850000I-20000J0D01*
G01*
X17830000Y-9850000D02*
G75*
G02*
X17870000Y-9850000I20000J0D01*
G01*
X18036927Y-9833074D02*
G75*
G02*
X17996927Y-9833074I-20000J0D01*
G01*
X17996927Y-9833074D02*
G75*
G02*
X18036927Y-9833074I20000J0D01*
G01*
X18370000Y-10100000D02*
G75*
G02*
X18330000Y-10100000I-20000J0D01*
G01*
X18330000Y-10100000D02*
G75*
G02*
X18370000Y-10100000I20000J0D01*
G01*
X13694000Y-9150000D02*
X13694000Y-9250000D01*
X13644000Y-9200000D02*
X13744000Y-9200000D01*
X13808500Y-8952000D02*
X13808500Y-9052000D01*
X13758500Y-9002000D02*
X13858500Y-9002000D01*
X13923000Y-8754000D02*
X13923000Y-8854000D01*
X13873000Y-8804000D02*
X13973000Y-8804000D01*
X13923000Y-9150000D02*
X13923000Y-9250000D01*
X13873000Y-9200000D02*
X13973000Y-9200000D01*
X14037500Y-8952000D02*
X14037500Y-9052000D01*
X13987500Y-9002000D02*
X14087500Y-9002000D01*
X14152000Y-8754000D02*
X14152000Y-8854000D01*
X14102000Y-8804000D02*
X14202000Y-8804000D01*
X14152000Y-9150000D02*
X14152000Y-9250000D01*
X14102000Y-9200000D02*
X14202000Y-9200000D01*
X14266500Y-8952000D02*
X14266500Y-9052000D01*
X14216500Y-9002000D02*
X14316500Y-9002000D01*
X14381000Y-8754000D02*
X14381000Y-8854000D01*
X14331000Y-8804000D02*
X14431000Y-8804000D01*
X14381000Y-9150000D02*
X14381000Y-9250000D01*
X14331000Y-9200000D02*
X14431000Y-9200000D01*
X14495500Y-8952000D02*
X14495500Y-9052000D01*
X14445500Y-9002000D02*
X14545500Y-9002000D01*
X14610000Y-8754000D02*
X14610000Y-8854000D01*
X14560000Y-8804000D02*
X14660000Y-8804000D01*
X14610000Y-9150000D02*
X14610000Y-9250000D01*
X14560000Y-9200000D02*
X14660000Y-9200000D01*
X14724500Y-8952000D02*
X14724500Y-9052000D01*
X14674500Y-9002000D02*
X14774500Y-9002000D01*
X14839000Y-8754000D02*
X14839000Y-8854000D01*
X14789000Y-8804000D02*
X14889000Y-8804000D01*
X14839000Y-9150000D02*
X14839000Y-9250000D01*
X14789000Y-9200000D02*
X14889000Y-9200000D01*
X14953500Y-8952000D02*
X14953500Y-9052000D01*
X14903500Y-9002000D02*
X15003500Y-9002000D01*
X15068000Y-8754000D02*
X15068000Y-8854000D01*
X15018000Y-8804000D02*
X15118000Y-8804000D01*
X15068000Y-9150000D02*
X15068000Y-9250000D01*
X15018000Y-9200000D02*
X15118000Y-9200000D01*
X15182500Y-8952000D02*
X15182500Y-9052000D01*
X15132500Y-9002000D02*
X15232500Y-9002000D01*
X15297000Y-8754000D02*
X15297000Y-8854000D01*
X15247000Y-8804000D02*
X15347000Y-8804000D01*
X15297000Y-9150000D02*
X15297000Y-9250000D01*
X15247000Y-9200000D02*
X15347000Y-9200000D01*
X15411500Y-8952000D02*
X15411500Y-9052000D01*
X15361500Y-9002000D02*
X15461500Y-9002000D01*
X15526000Y-8754000D02*
X15526000Y-8854000D01*
X15476000Y-8804000D02*
X15576000Y-8804000D01*
X15526000Y-9150000D02*
X15526000Y-9250000D01*
X15476000Y-9200000D02*
X15576000Y-9200000D01*
X15640500Y-8952000D02*
X15640500Y-9052000D01*
X15590500Y-9002000D02*
X15690500Y-9002000D01*
X15755000Y-8754000D02*
X15755000Y-8854000D01*
X15705000Y-8804000D02*
X15805000Y-8804000D01*
X15755000Y-9150000D02*
X15755000Y-9250000D01*
X15705000Y-9200000D02*
X15805000Y-9200000D01*
X15869500Y-8952000D02*
X15869500Y-9052000D01*
X15819500Y-9002000D02*
X15919500Y-9002000D01*
X15984000Y-8754000D02*
X15984000Y-8854000D01*
X15934000Y-8804000D02*
X16034000Y-8804000D01*
X15984000Y-9150000D02*
X15984000Y-9250000D01*
X15934000Y-9200000D02*
X16034000Y-9200000D01*
X16098500Y-8952000D02*
X16098500Y-9052000D01*
X16048500Y-9002000D02*
X16148500Y-9002000D01*
X16213000Y-8754000D02*
X16213000Y-8854000D01*
X16163000Y-8804000D02*
X16263000Y-8804000D01*
X16213000Y-9150000D02*
X16213000Y-9250000D01*
X16163000Y-9200000D02*
X16263000Y-9200000D01*
X16327500Y-8952000D02*
X16327500Y-9052000D01*
X16277500Y-9002000D02*
X16377500Y-9002000D01*
X16442000Y-8754000D02*
X16442000Y-8854000D01*
X16392000Y-8804000D02*
X16492000Y-8804000D01*
X16442000Y-9150000D02*
X16442000Y-9250000D01*
X16392000Y-9200000D02*
X16492000Y-9200000D01*
X16556500Y-8952000D02*
X16556500Y-9052000D01*
X16506500Y-9002000D02*
X16606500Y-9002000D01*
X16671000Y-8754000D02*
X16671000Y-8854000D01*
X16621000Y-8804000D02*
X16721000Y-8804000D01*
X16671000Y-9150000D02*
X16671000Y-9250000D01*
X16621000Y-9200000D02*
X16721000Y-9200000D01*
X16785500Y-8952000D02*
X16785500Y-9052000D01*
X16735500Y-9002000D02*
X16835500Y-9002000D01*
X16900000Y-8754000D02*
X16900000Y-8854000D01*
X16850000Y-8804000D02*
X16950000Y-8804000D01*
X16900000Y-9150000D02*
X16900000Y-9250000D01*
X16850000Y-9200000D02*
X16950000Y-9200000D01*
X17014500Y-8952000D02*
X17014500Y-9052000D01*
X16964500Y-9002000D02*
X17064500Y-9002000D01*
D13*
X13105638Y-9115138D02*
X13105638Y-8888862D01*
X12879362Y-8888862D01*
X12879362Y-9115138D01*
X13105638Y-9115138D01*
X17815638Y-9115138D02*
X17815638Y-8888862D01*
X17589362Y-8888862D01*
X17589362Y-9115138D01*
X17815638Y-9115138D01*
D11*
X12408277Y-11263984D02*
X12408277Y-11063984D01*
X12408277Y-11063984D02*
X12455896Y-11063984D01*
X12455896Y-11063984D02*
X12484467Y-11073508D01*
X12484467Y-11073508D02*
X12503515Y-11092555D01*
X12503515Y-11092555D02*
X12513039Y-11111603D01*
X12513039Y-11111603D02*
X12522562Y-11149698D01*
X12522562Y-11149698D02*
X12522562Y-11178270D01*
X12522562Y-11178270D02*
X12513039Y-11216365D01*
X12513039Y-11216365D02*
X12503515Y-11235412D01*
X12503515Y-11235412D02*
X12484467Y-11254460D01*
X12484467Y-11254460D02*
X12455896Y-11263984D01*
X12455896Y-11263984D02*
X12408277Y-11263984D01*
X12608277Y-11263984D02*
X12608277Y-11130650D01*
X12608277Y-11168746D02*
X12617801Y-11149698D01*
X12617801Y-11149698D02*
X12627324Y-11140174D01*
X12627324Y-11140174D02*
X12646372Y-11130650D01*
X12646372Y-11130650D02*
X12665420Y-11130650D01*
X12732086Y-11263984D02*
X12732086Y-11130650D01*
X12732086Y-11063984D02*
X12722562Y-11073508D01*
X12722562Y-11073508D02*
X12732086Y-11083031D01*
X12732086Y-11083031D02*
X12741610Y-11073508D01*
X12741610Y-11073508D02*
X12732086Y-11063984D01*
X12732086Y-11063984D02*
X12732086Y-11083031D01*
X12855896Y-11263984D02*
X12836848Y-11254460D01*
X12836848Y-11254460D02*
X12827324Y-11235412D01*
X12827324Y-11235412D02*
X12827324Y-11063984D01*
X12960658Y-11263984D02*
X12941610Y-11254460D01*
X12941610Y-11254460D02*
X12932086Y-11235412D01*
X12932086Y-11235412D02*
X12932086Y-11063984D01*
X13189229Y-11263984D02*
X13189229Y-11063984D01*
X13189229Y-11063984D02*
X13255896Y-11206841D01*
X13255896Y-11206841D02*
X13322562Y-11063984D01*
X13322562Y-11063984D02*
X13322562Y-11263984D01*
X13503515Y-11263984D02*
X13503515Y-11159222D01*
X13503515Y-11159222D02*
X13493991Y-11140174D01*
X13493991Y-11140174D02*
X13474943Y-11130650D01*
X13474943Y-11130650D02*
X13436848Y-11130650D01*
X13436848Y-11130650D02*
X13417801Y-11140174D01*
X13503515Y-11254460D02*
X13484467Y-11263984D01*
X13484467Y-11263984D02*
X13436848Y-11263984D01*
X13436848Y-11263984D02*
X13417801Y-11254460D01*
X13417801Y-11254460D02*
X13408277Y-11235412D01*
X13408277Y-11235412D02*
X13408277Y-11216365D01*
X13408277Y-11216365D02*
X13417801Y-11197317D01*
X13417801Y-11197317D02*
X13436848Y-11187793D01*
X13436848Y-11187793D02*
X13484467Y-11187793D01*
X13484467Y-11187793D02*
X13503515Y-11178270D01*
X13598753Y-11130650D02*
X13598753Y-11330650D01*
X13598753Y-11140174D02*
X13617801Y-11130650D01*
X13617801Y-11130650D02*
X13655896Y-11130650D01*
X13655896Y-11130650D02*
X13674943Y-11140174D01*
X13674943Y-11140174D02*
X13684467Y-11149698D01*
X13684467Y-11149698D02*
X13693991Y-11168746D01*
X13693991Y-11168746D02*
X13693991Y-11225888D01*
X13693991Y-11225888D02*
X13684467Y-11244936D01*
X13684467Y-11244936D02*
X13674943Y-11254460D01*
X13674943Y-11254460D02*
X13655896Y-11263984D01*
X13655896Y-11263984D02*
X13617801Y-11263984D01*
X13617801Y-11263984D02*
X13598753Y-11254460D01*
X13779705Y-11244936D02*
X13789229Y-11254460D01*
X13789229Y-11254460D02*
X13779705Y-11263984D01*
X13779705Y-11263984D02*
X13770182Y-11254460D01*
X13770182Y-11254460D02*
X13779705Y-11244936D01*
X13779705Y-11244936D02*
X13779705Y-11263984D01*
X13779705Y-11140174D02*
X13789229Y-11149698D01*
X13789229Y-11149698D02*
X13779705Y-11159222D01*
X13779705Y-11159222D02*
X13770182Y-11149698D01*
X13770182Y-11149698D02*
X13779705Y-11140174D01*
X13779705Y-11140174D02*
X13779705Y-11159222D01*
D12*
X12117500Y-11577500D02*
X12147500Y-11607500D01*
X12147500Y-11577500D02*
X12117500Y-11607500D01*
D11*
X12446372Y-11483984D02*
X12465420Y-11483984D01*
X12465420Y-11483984D02*
X12484467Y-11493508D01*
X12484467Y-11493508D02*
X12493991Y-11503031D01*
X12493991Y-11503031D02*
X12503515Y-11522079D01*
X12503515Y-11522079D02*
X12513039Y-11560174D01*
X12513039Y-11560174D02*
X12513039Y-11607793D01*
X12513039Y-11607793D02*
X12503515Y-11645888D01*
X12503515Y-11645888D02*
X12493991Y-11664936D01*
X12493991Y-11664936D02*
X12484467Y-11674460D01*
X12484467Y-11674460D02*
X12465420Y-11683984D01*
X12465420Y-11683984D02*
X12446372Y-11683984D01*
X12446372Y-11683984D02*
X12427324Y-11674460D01*
X12427324Y-11674460D02*
X12417801Y-11664936D01*
X12417801Y-11664936D02*
X12408277Y-11645888D01*
X12408277Y-11645888D02*
X12398753Y-11607793D01*
X12398753Y-11607793D02*
X12398753Y-11560174D01*
X12398753Y-11560174D02*
X12408277Y-11522079D01*
X12408277Y-11522079D02*
X12417801Y-11503031D01*
X12417801Y-11503031D02*
X12427324Y-11493508D01*
X12427324Y-11493508D02*
X12446372Y-11483984D01*
X12598753Y-11664936D02*
X12608277Y-11674460D01*
X12608277Y-11674460D02*
X12598753Y-11683984D01*
X12598753Y-11683984D02*
X12589229Y-11674460D01*
X12589229Y-11674460D02*
X12598753Y-11664936D01*
X12598753Y-11664936D02*
X12598753Y-11683984D01*
X12674943Y-11483984D02*
X12798753Y-11483984D01*
X12798753Y-11483984D02*
X12732086Y-11560174D01*
X12732086Y-11560174D02*
X12760658Y-11560174D01*
X12760658Y-11560174D02*
X12779705Y-11569698D01*
X12779705Y-11569698D02*
X12789229Y-11579222D01*
X12789229Y-11579222D02*
X12798753Y-11598269D01*
X12798753Y-11598269D02*
X12798753Y-11645888D01*
X12798753Y-11645888D02*
X12789229Y-11664936D01*
X12789229Y-11664936D02*
X12779705Y-11674460D01*
X12779705Y-11674460D02*
X12760658Y-11683984D01*
X12760658Y-11683984D02*
X12703515Y-11683984D01*
X12703515Y-11683984D02*
X12684467Y-11674460D01*
X12684467Y-11674460D02*
X12674943Y-11664936D01*
X12922562Y-11483984D02*
X12941610Y-11483984D01*
X12941610Y-11483984D02*
X12960658Y-11493508D01*
X12960658Y-11493508D02*
X12970182Y-11503031D01*
X12970182Y-11503031D02*
X12979705Y-11522079D01*
X12979705Y-11522079D02*
X12989229Y-11560174D01*
X12989229Y-11560174D02*
X12989229Y-11607793D01*
X12989229Y-11607793D02*
X12979705Y-11645888D01*
X12979705Y-11645888D02*
X12970182Y-11664936D01*
X12970182Y-11664936D02*
X12960658Y-11674460D01*
X12960658Y-11674460D02*
X12941610Y-11683984D01*
X12941610Y-11683984D02*
X12922562Y-11683984D01*
X12922562Y-11683984D02*
X12903515Y-11674460D01*
X12903515Y-11674460D02*
X12893991Y-11664936D01*
X12893991Y-11664936D02*
X12884467Y-11645888D01*
X12884467Y-11645888D02*
X12874943Y-11607793D01*
X12874943Y-11607793D02*
X12874943Y-11560174D01*
X12874943Y-11560174D02*
X12884467Y-11522079D01*
X12884467Y-11522079D02*
X12893991Y-11503031D01*
X12893991Y-11503031D02*
X12903515Y-11493508D01*
X12903515Y-11493508D02*
X12922562Y-11483984D01*
X13113039Y-11483984D02*
X13132086Y-11483984D01*
X13132086Y-11483984D02*
X13151134Y-11493508D01*
X13151134Y-11493508D02*
X13160658Y-11503031D01*
X13160658Y-11503031D02*
X13170182Y-11522079D01*
X13170182Y-11522079D02*
X13179705Y-11560174D01*
X13179705Y-11560174D02*
X13179705Y-11607793D01*
X13179705Y-11607793D02*
X13170182Y-11645888D01*
X13170182Y-11645888D02*
X13160658Y-11664936D01*
X13160658Y-11664936D02*
X13151134Y-11674460D01*
X13151134Y-11674460D02*
X13132086Y-11683984D01*
X13132086Y-11683984D02*
X13113039Y-11683984D01*
X13113039Y-11683984D02*
X13093991Y-11674460D01*
X13093991Y-11674460D02*
X13084467Y-11664936D01*
X13084467Y-11664936D02*
X13074943Y-11645888D01*
X13074943Y-11645888D02*
X13065420Y-11607793D01*
X13065420Y-11607793D02*
X13065420Y-11560174D01*
X13065420Y-11560174D02*
X13074943Y-11522079D01*
X13074943Y-11522079D02*
X13084467Y-11503031D01*
X13084467Y-11503031D02*
X13093991Y-11493508D01*
X13093991Y-11493508D02*
X13113039Y-11483984D01*
X13265420Y-11683984D02*
X13265420Y-11550650D01*
X13265420Y-11569698D02*
X13274943Y-11560174D01*
X13274943Y-11560174D02*
X13293991Y-11550650D01*
X13293991Y-11550650D02*
X13322563Y-11550650D01*
X13322563Y-11550650D02*
X13341610Y-11560174D01*
X13341610Y-11560174D02*
X13351134Y-11579222D01*
X13351134Y-11579222D02*
X13351134Y-11683984D01*
X13351134Y-11579222D02*
X13360658Y-11560174D01*
X13360658Y-11560174D02*
X13379705Y-11550650D01*
X13379705Y-11550650D02*
X13408277Y-11550650D01*
X13408277Y-11550650D02*
X13427324Y-11560174D01*
X13427324Y-11560174D02*
X13436848Y-11579222D01*
X13436848Y-11579222D02*
X13436848Y-11683984D01*
X13532086Y-11683984D02*
X13532086Y-11550650D01*
X13532086Y-11569698D02*
X13541610Y-11560174D01*
X13541610Y-11560174D02*
X13560658Y-11550650D01*
X13560658Y-11550650D02*
X13589229Y-11550650D01*
X13589229Y-11550650D02*
X13608277Y-11560174D01*
X13608277Y-11560174D02*
X13617801Y-11579222D01*
X13617801Y-11579222D02*
X13617801Y-11683984D01*
X13617801Y-11579222D02*
X13627324Y-11560174D01*
X13627324Y-11560174D02*
X13646372Y-11550650D01*
X13646372Y-11550650D02*
X13674943Y-11550650D01*
X13674943Y-11550650D02*
X13693991Y-11560174D01*
X13693991Y-11560174D02*
X13703515Y-11579222D01*
X13703515Y-11579222D02*
X13703515Y-11683984D01*
X14093991Y-11474460D02*
X13922563Y-11731603D01*
X14351134Y-11483984D02*
X14370182Y-11483984D01*
X14370182Y-11483984D02*
X14389229Y-11493508D01*
X14389229Y-11493508D02*
X14398753Y-11503031D01*
X14398753Y-11503031D02*
X14408277Y-11522079D01*
X14408277Y-11522079D02*
X14417801Y-11560174D01*
X14417801Y-11560174D02*
X14417801Y-11607793D01*
X14417801Y-11607793D02*
X14408277Y-11645888D01*
X14408277Y-11645888D02*
X14398753Y-11664936D01*
X14398753Y-11664936D02*
X14389229Y-11674460D01*
X14389229Y-11674460D02*
X14370182Y-11683984D01*
X14370182Y-11683984D02*
X14351134Y-11683984D01*
X14351134Y-11683984D02*
X14332086Y-11674460D01*
X14332086Y-11674460D02*
X14322563Y-11664936D01*
X14322563Y-11664936D02*
X14313039Y-11645888D01*
X14313039Y-11645888D02*
X14303515Y-11607793D01*
X14303515Y-11607793D02*
X14303515Y-11560174D01*
X14303515Y-11560174D02*
X14313039Y-11522079D01*
X14313039Y-11522079D02*
X14322563Y-11503031D01*
X14322563Y-11503031D02*
X14332086Y-11493508D01*
X14332086Y-11493508D02*
X14351134Y-11483984D01*
X14503515Y-11664936D02*
X14513039Y-11674460D01*
X14513039Y-11674460D02*
X14503515Y-11683984D01*
X14503515Y-11683984D02*
X14493991Y-11674460D01*
X14493991Y-11674460D02*
X14503515Y-11664936D01*
X14503515Y-11664936D02*
X14503515Y-11683984D01*
X14636848Y-11483984D02*
X14655896Y-11483984D01*
X14655896Y-11483984D02*
X14674944Y-11493508D01*
X14674944Y-11493508D02*
X14684467Y-11503031D01*
X14684467Y-11503031D02*
X14693991Y-11522079D01*
X14693991Y-11522079D02*
X14703515Y-11560174D01*
X14703515Y-11560174D02*
X14703515Y-11607793D01*
X14703515Y-11607793D02*
X14693991Y-11645888D01*
X14693991Y-11645888D02*
X14684467Y-11664936D01*
X14684467Y-11664936D02*
X14674944Y-11674460D01*
X14674944Y-11674460D02*
X14655896Y-11683984D01*
X14655896Y-11683984D02*
X14636848Y-11683984D01*
X14636848Y-11683984D02*
X14617801Y-11674460D01*
X14617801Y-11674460D02*
X14608277Y-11664936D01*
X14608277Y-11664936D02*
X14598753Y-11645888D01*
X14598753Y-11645888D02*
X14589229Y-11607793D01*
X14589229Y-11607793D02*
X14589229Y-11560174D01*
X14589229Y-11560174D02*
X14598753Y-11522079D01*
X14598753Y-11522079D02*
X14608277Y-11503031D01*
X14608277Y-11503031D02*
X14617801Y-11493508D01*
X14617801Y-11493508D02*
X14636848Y-11483984D01*
X14893991Y-11683984D02*
X14779706Y-11683984D01*
X14836848Y-11683984D02*
X14836848Y-11483984D01*
X14836848Y-11483984D02*
X14817801Y-11512555D01*
X14817801Y-11512555D02*
X14798753Y-11531603D01*
X14798753Y-11531603D02*
X14779706Y-11541127D01*
X15084467Y-11683984D02*
X14970182Y-11683984D01*
X15027325Y-11683984D02*
X15027325Y-11483984D01*
X15027325Y-11483984D02*
X15008277Y-11512555D01*
X15008277Y-11512555D02*
X14989229Y-11531603D01*
X14989229Y-11531603D02*
X14970182Y-11541127D01*
X15198753Y-11569698D02*
X15179706Y-11560174D01*
X15179706Y-11560174D02*
X15170182Y-11550650D01*
X15170182Y-11550650D02*
X15160658Y-11531603D01*
X15160658Y-11531603D02*
X15160658Y-11522079D01*
X15160658Y-11522079D02*
X15170182Y-11503031D01*
X15170182Y-11503031D02*
X15179706Y-11493508D01*
X15179706Y-11493508D02*
X15198753Y-11483984D01*
X15198753Y-11483984D02*
X15236848Y-11483984D01*
X15236848Y-11483984D02*
X15255896Y-11493508D01*
X15255896Y-11493508D02*
X15265420Y-11503031D01*
X15265420Y-11503031D02*
X15274944Y-11522079D01*
X15274944Y-11522079D02*
X15274944Y-11531603D01*
X15274944Y-11531603D02*
X15265420Y-11550650D01*
X15265420Y-11550650D02*
X15255896Y-11560174D01*
X15255896Y-11560174D02*
X15236848Y-11569698D01*
X15236848Y-11569698D02*
X15198753Y-11569698D01*
X15198753Y-11569698D02*
X15179706Y-11579222D01*
X15179706Y-11579222D02*
X15170182Y-11588746D01*
X15170182Y-11588746D02*
X15160658Y-11607793D01*
X15160658Y-11607793D02*
X15160658Y-11645888D01*
X15160658Y-11645888D02*
X15170182Y-11664936D01*
X15170182Y-11664936D02*
X15179706Y-11674460D01*
X15179706Y-11674460D02*
X15198753Y-11683984D01*
X15198753Y-11683984D02*
X15236848Y-11683984D01*
X15236848Y-11683984D02*
X15255896Y-11674460D01*
X15255896Y-11674460D02*
X15265420Y-11664936D01*
X15265420Y-11664936D02*
X15274944Y-11645888D01*
X15274944Y-11645888D02*
X15274944Y-11607793D01*
X15274944Y-11607793D02*
X15265420Y-11588746D01*
X15265420Y-11588746D02*
X15255896Y-11579222D01*
X15255896Y-11579222D02*
X15236848Y-11569698D01*
X15351134Y-11483984D02*
X15351134Y-11522079D01*
X15427325Y-11483984D02*
X15427325Y-11522079D01*
X15722563Y-11760174D02*
X15713039Y-11750650D01*
X15713039Y-11750650D02*
X15693991Y-11722079D01*
X15693991Y-11722079D02*
X15684468Y-11703031D01*
X15684468Y-11703031D02*
X15674944Y-11674460D01*
X15674944Y-11674460D02*
X15665420Y-11626841D01*
X15665420Y-11626841D02*
X15665420Y-11588746D01*
X15665420Y-11588746D02*
X15674944Y-11541127D01*
X15674944Y-11541127D02*
X15684468Y-11512555D01*
X15684468Y-11512555D02*
X15693991Y-11493508D01*
X15693991Y-11493508D02*
X15713039Y-11464936D01*
X15713039Y-11464936D02*
X15722563Y-11455412D01*
X15893991Y-11483984D02*
X15798753Y-11483984D01*
X15798753Y-11483984D02*
X15789229Y-11579222D01*
X15789229Y-11579222D02*
X15798753Y-11569698D01*
X15798753Y-11569698D02*
X15817801Y-11560174D01*
X15817801Y-11560174D02*
X15865420Y-11560174D01*
X15865420Y-11560174D02*
X15884468Y-11569698D01*
X15884468Y-11569698D02*
X15893991Y-11579222D01*
X15893991Y-11579222D02*
X15903515Y-11598269D01*
X15903515Y-11598269D02*
X15903515Y-11645888D01*
X15903515Y-11645888D02*
X15893991Y-11664936D01*
X15893991Y-11664936D02*
X15884468Y-11674460D01*
X15884468Y-11674460D02*
X15865420Y-11683984D01*
X15865420Y-11683984D02*
X15817801Y-11683984D01*
X15817801Y-11683984D02*
X15798753Y-11674460D01*
X15798753Y-11674460D02*
X15789229Y-11664936D01*
X16074944Y-11483984D02*
X16036848Y-11483984D01*
X16036848Y-11483984D02*
X16017801Y-11493508D01*
X16017801Y-11493508D02*
X16008277Y-11503031D01*
X16008277Y-11503031D02*
X15989229Y-11531603D01*
X15989229Y-11531603D02*
X15979706Y-11569698D01*
X15979706Y-11569698D02*
X15979706Y-11645888D01*
X15979706Y-11645888D02*
X15989229Y-11664936D01*
X15989229Y-11664936D02*
X15998753Y-11674460D01*
X15998753Y-11674460D02*
X16017801Y-11683984D01*
X16017801Y-11683984D02*
X16055896Y-11683984D01*
X16055896Y-11683984D02*
X16074944Y-11674460D01*
X16074944Y-11674460D02*
X16084468Y-11664936D01*
X16084468Y-11664936D02*
X16093991Y-11645888D01*
X16093991Y-11645888D02*
X16093991Y-11598269D01*
X16093991Y-11598269D02*
X16084468Y-11579222D01*
X16084468Y-11579222D02*
X16074944Y-11569698D01*
X16074944Y-11569698D02*
X16055896Y-11560174D01*
X16055896Y-11560174D02*
X16017801Y-11560174D01*
X16017801Y-11560174D02*
X15998753Y-11569698D01*
X15998753Y-11569698D02*
X15989229Y-11579222D01*
X15989229Y-11579222D02*
X15979706Y-11598269D01*
X16332087Y-11683984D02*
X16332087Y-11483984D01*
X16417801Y-11683984D02*
X16417801Y-11579222D01*
X16417801Y-11579222D02*
X16408277Y-11560174D01*
X16408277Y-11560174D02*
X16389230Y-11550650D01*
X16389230Y-11550650D02*
X16360658Y-11550650D01*
X16360658Y-11550650D02*
X16341610Y-11560174D01*
X16341610Y-11560174D02*
X16332087Y-11569698D01*
X16541610Y-11683984D02*
X16522563Y-11674460D01*
X16522563Y-11674460D02*
X16513039Y-11664936D01*
X16513039Y-11664936D02*
X16503515Y-11645888D01*
X16503515Y-11645888D02*
X16503515Y-11588746D01*
X16503515Y-11588746D02*
X16513039Y-11569698D01*
X16513039Y-11569698D02*
X16522563Y-11560174D01*
X16522563Y-11560174D02*
X16541610Y-11550650D01*
X16541610Y-11550650D02*
X16570182Y-11550650D01*
X16570182Y-11550650D02*
X16589230Y-11560174D01*
X16589230Y-11560174D02*
X16598753Y-11569698D01*
X16598753Y-11569698D02*
X16608277Y-11588746D01*
X16608277Y-11588746D02*
X16608277Y-11645888D01*
X16608277Y-11645888D02*
X16598753Y-11664936D01*
X16598753Y-11664936D02*
X16589230Y-11674460D01*
X16589230Y-11674460D02*
X16570182Y-11683984D01*
X16570182Y-11683984D02*
X16541610Y-11683984D01*
X16722563Y-11683984D02*
X16703515Y-11674460D01*
X16703515Y-11674460D02*
X16693991Y-11655412D01*
X16693991Y-11655412D02*
X16693991Y-11483984D01*
X16874944Y-11674460D02*
X16855896Y-11683984D01*
X16855896Y-11683984D02*
X16817801Y-11683984D01*
X16817801Y-11683984D02*
X16798753Y-11674460D01*
X16798753Y-11674460D02*
X16789230Y-11655412D01*
X16789230Y-11655412D02*
X16789230Y-11579222D01*
X16789230Y-11579222D02*
X16798753Y-11560174D01*
X16798753Y-11560174D02*
X16817801Y-11550650D01*
X16817801Y-11550650D02*
X16855896Y-11550650D01*
X16855896Y-11550650D02*
X16874944Y-11560174D01*
X16874944Y-11560174D02*
X16884468Y-11579222D01*
X16884468Y-11579222D02*
X16884468Y-11598269D01*
X16884468Y-11598269D02*
X16789230Y-11617317D01*
X16960658Y-11674460D02*
X16979706Y-11683984D01*
X16979706Y-11683984D02*
X17017801Y-11683984D01*
X17017801Y-11683984D02*
X17036849Y-11674460D01*
X17036849Y-11674460D02*
X17046373Y-11655412D01*
X17046373Y-11655412D02*
X17046373Y-11645888D01*
X17046373Y-11645888D02*
X17036849Y-11626841D01*
X17036849Y-11626841D02*
X17017801Y-11617317D01*
X17017801Y-11617317D02*
X16989230Y-11617317D01*
X16989230Y-11617317D02*
X16970182Y-11607793D01*
X16970182Y-11607793D02*
X16960658Y-11588746D01*
X16960658Y-11588746D02*
X16960658Y-11579222D01*
X16960658Y-11579222D02*
X16970182Y-11560174D01*
X16970182Y-11560174D02*
X16989230Y-11550650D01*
X16989230Y-11550650D02*
X17017801Y-11550650D01*
X17017801Y-11550650D02*
X17036849Y-11560174D01*
X17113039Y-11760174D02*
X17122563Y-11750650D01*
X17122563Y-11750650D02*
X17141611Y-11722079D01*
X17141611Y-11722079D02*
X17151134Y-11703031D01*
X17151134Y-11703031D02*
X17160658Y-11674460D01*
X17160658Y-11674460D02*
X17170182Y-11626841D01*
X17170182Y-11626841D02*
X17170182Y-11588746D01*
X17170182Y-11588746D02*
X17160658Y-11541127D01*
X17160658Y-11541127D02*
X17151134Y-11512555D01*
X17151134Y-11512555D02*
X17141611Y-11493508D01*
X17141611Y-11493508D02*
X17122563Y-11464936D01*
X17122563Y-11464936D02*
X17113039Y-11455412D01*
D12*
X12147500Y-11856500D02*
G75*
G02*
X12107500Y-11856500I-20000J0D01*
G01*
X12107500Y-11856500D02*
G75*
G02*
X12147500Y-11856500I20000J0D01*
G01*
D11*
X12446372Y-11747984D02*
X12465420Y-11747984D01*
X12465420Y-11747984D02*
X12484467Y-11757508D01*
X12484467Y-11757508D02*
X12493991Y-11767031D01*
X12493991Y-11767031D02*
X12503515Y-11786079D01*
X12503515Y-11786079D02*
X12513039Y-11824174D01*
X12513039Y-11824174D02*
X12513039Y-11871793D01*
X12513039Y-11871793D02*
X12503515Y-11909888D01*
X12503515Y-11909888D02*
X12493991Y-11928936D01*
X12493991Y-11928936D02*
X12484467Y-11938460D01*
X12484467Y-11938460D02*
X12465420Y-11947984D01*
X12465420Y-11947984D02*
X12446372Y-11947984D01*
X12446372Y-11947984D02*
X12427324Y-11938460D01*
X12427324Y-11938460D02*
X12417801Y-11928936D01*
X12417801Y-11928936D02*
X12408277Y-11909888D01*
X12408277Y-11909888D02*
X12398753Y-11871793D01*
X12398753Y-11871793D02*
X12398753Y-11824174D01*
X12398753Y-11824174D02*
X12408277Y-11786079D01*
X12408277Y-11786079D02*
X12417801Y-11767031D01*
X12417801Y-11767031D02*
X12427324Y-11757508D01*
X12427324Y-11757508D02*
X12446372Y-11747984D01*
X12598753Y-11928936D02*
X12608277Y-11938460D01*
X12608277Y-11938460D02*
X12598753Y-11947984D01*
X12598753Y-11947984D02*
X12589229Y-11938460D01*
X12589229Y-11938460D02*
X12598753Y-11928936D01*
X12598753Y-11928936D02*
X12598753Y-11947984D01*
X12779705Y-11814650D02*
X12779705Y-11947984D01*
X12732086Y-11738460D02*
X12684467Y-11881317D01*
X12684467Y-11881317D02*
X12808277Y-11881317D01*
X12922562Y-11747984D02*
X12941610Y-11747984D01*
X12941610Y-11747984D02*
X12960658Y-11757508D01*
X12960658Y-11757508D02*
X12970182Y-11767031D01*
X12970182Y-11767031D02*
X12979705Y-11786079D01*
X12979705Y-11786079D02*
X12989229Y-11824174D01*
X12989229Y-11824174D02*
X12989229Y-11871793D01*
X12989229Y-11871793D02*
X12979705Y-11909888D01*
X12979705Y-11909888D02*
X12970182Y-11928936D01*
X12970182Y-11928936D02*
X12960658Y-11938460D01*
X12960658Y-11938460D02*
X12941610Y-11947984D01*
X12941610Y-11947984D02*
X12922562Y-11947984D01*
X12922562Y-11947984D02*
X12903515Y-11938460D01*
X12903515Y-11938460D02*
X12893991Y-11928936D01*
X12893991Y-11928936D02*
X12884467Y-11909888D01*
X12884467Y-11909888D02*
X12874943Y-11871793D01*
X12874943Y-11871793D02*
X12874943Y-11824174D01*
X12874943Y-11824174D02*
X12884467Y-11786079D01*
X12884467Y-11786079D02*
X12893991Y-11767031D01*
X12893991Y-11767031D02*
X12903515Y-11757508D01*
X12903515Y-11757508D02*
X12922562Y-11747984D01*
X13113039Y-11747984D02*
X13132086Y-11747984D01*
X13132086Y-11747984D02*
X13151134Y-11757508D01*
X13151134Y-11757508D02*
X13160658Y-11767031D01*
X13160658Y-11767031D02*
X13170182Y-11786079D01*
X13170182Y-11786079D02*
X13179705Y-11824174D01*
X13179705Y-11824174D02*
X13179705Y-11871793D01*
X13179705Y-11871793D02*
X13170182Y-11909888D01*
X13170182Y-11909888D02*
X13160658Y-11928936D01*
X13160658Y-11928936D02*
X13151134Y-11938460D01*
X13151134Y-11938460D02*
X13132086Y-11947984D01*
X13132086Y-11947984D02*
X13113039Y-11947984D01*
X13113039Y-11947984D02*
X13093991Y-11938460D01*
X13093991Y-11938460D02*
X13084467Y-11928936D01*
X13084467Y-11928936D02*
X13074943Y-11909888D01*
X13074943Y-11909888D02*
X13065420Y-11871793D01*
X13065420Y-11871793D02*
X13065420Y-11824174D01*
X13065420Y-11824174D02*
X13074943Y-11786079D01*
X13074943Y-11786079D02*
X13084467Y-11767031D01*
X13084467Y-11767031D02*
X13093991Y-11757508D01*
X13093991Y-11757508D02*
X13113039Y-11747984D01*
X13265420Y-11947984D02*
X13265420Y-11814650D01*
X13265420Y-11833698D02*
X13274943Y-11824174D01*
X13274943Y-11824174D02*
X13293991Y-11814650D01*
X13293991Y-11814650D02*
X13322563Y-11814650D01*
X13322563Y-11814650D02*
X13341610Y-11824174D01*
X13341610Y-11824174D02*
X13351134Y-11843222D01*
X13351134Y-11843222D02*
X13351134Y-11947984D01*
X13351134Y-11843222D02*
X13360658Y-11824174D01*
X13360658Y-11824174D02*
X13379705Y-11814650D01*
X13379705Y-11814650D02*
X13408277Y-11814650D01*
X13408277Y-11814650D02*
X13427324Y-11824174D01*
X13427324Y-11824174D02*
X13436848Y-11843222D01*
X13436848Y-11843222D02*
X13436848Y-11947984D01*
X13532086Y-11947984D02*
X13532086Y-11814650D01*
X13532086Y-11833698D02*
X13541610Y-11824174D01*
X13541610Y-11824174D02*
X13560658Y-11814650D01*
X13560658Y-11814650D02*
X13589229Y-11814650D01*
X13589229Y-11814650D02*
X13608277Y-11824174D01*
X13608277Y-11824174D02*
X13617801Y-11843222D01*
X13617801Y-11843222D02*
X13617801Y-11947984D01*
X13617801Y-11843222D02*
X13627324Y-11824174D01*
X13627324Y-11824174D02*
X13646372Y-11814650D01*
X13646372Y-11814650D02*
X13674943Y-11814650D01*
X13674943Y-11814650D02*
X13693991Y-11824174D01*
X13693991Y-11824174D02*
X13703515Y-11843222D01*
X13703515Y-11843222D02*
X13703515Y-11947984D01*
X14093991Y-11738460D02*
X13922563Y-11995603D01*
X14351134Y-11747984D02*
X14370182Y-11747984D01*
X14370182Y-11747984D02*
X14389229Y-11757508D01*
X14389229Y-11757508D02*
X14398753Y-11767031D01*
X14398753Y-11767031D02*
X14408277Y-11786079D01*
X14408277Y-11786079D02*
X14417801Y-11824174D01*
X14417801Y-11824174D02*
X14417801Y-11871793D01*
X14417801Y-11871793D02*
X14408277Y-11909888D01*
X14408277Y-11909888D02*
X14398753Y-11928936D01*
X14398753Y-11928936D02*
X14389229Y-11938460D01*
X14389229Y-11938460D02*
X14370182Y-11947984D01*
X14370182Y-11947984D02*
X14351134Y-11947984D01*
X14351134Y-11947984D02*
X14332086Y-11938460D01*
X14332086Y-11938460D02*
X14322563Y-11928936D01*
X14322563Y-11928936D02*
X14313039Y-11909888D01*
X14313039Y-11909888D02*
X14303515Y-11871793D01*
X14303515Y-11871793D02*
X14303515Y-11824174D01*
X14303515Y-11824174D02*
X14313039Y-11786079D01*
X14313039Y-11786079D02*
X14322563Y-11767031D01*
X14322563Y-11767031D02*
X14332086Y-11757508D01*
X14332086Y-11757508D02*
X14351134Y-11747984D01*
X14503515Y-11928936D02*
X14513039Y-11938460D01*
X14513039Y-11938460D02*
X14503515Y-11947984D01*
X14503515Y-11947984D02*
X14493991Y-11938460D01*
X14493991Y-11938460D02*
X14503515Y-11928936D01*
X14503515Y-11928936D02*
X14503515Y-11947984D01*
X14636848Y-11747984D02*
X14655896Y-11747984D01*
X14655896Y-11747984D02*
X14674944Y-11757508D01*
X14674944Y-11757508D02*
X14684467Y-11767031D01*
X14684467Y-11767031D02*
X14693991Y-11786079D01*
X14693991Y-11786079D02*
X14703515Y-11824174D01*
X14703515Y-11824174D02*
X14703515Y-11871793D01*
X14703515Y-11871793D02*
X14693991Y-11909888D01*
X14693991Y-11909888D02*
X14684467Y-11928936D01*
X14684467Y-11928936D02*
X14674944Y-11938460D01*
X14674944Y-11938460D02*
X14655896Y-11947984D01*
X14655896Y-11947984D02*
X14636848Y-11947984D01*
X14636848Y-11947984D02*
X14617801Y-11938460D01*
X14617801Y-11938460D02*
X14608277Y-11928936D01*
X14608277Y-11928936D02*
X14598753Y-11909888D01*
X14598753Y-11909888D02*
X14589229Y-11871793D01*
X14589229Y-11871793D02*
X14589229Y-11824174D01*
X14589229Y-11824174D02*
X14598753Y-11786079D01*
X14598753Y-11786079D02*
X14608277Y-11767031D01*
X14608277Y-11767031D02*
X14617801Y-11757508D01*
X14617801Y-11757508D02*
X14636848Y-11747984D01*
X14893991Y-11947984D02*
X14779706Y-11947984D01*
X14836848Y-11947984D02*
X14836848Y-11747984D01*
X14836848Y-11747984D02*
X14817801Y-11776555D01*
X14817801Y-11776555D02*
X14798753Y-11795603D01*
X14798753Y-11795603D02*
X14779706Y-11805127D01*
X15074944Y-11747984D02*
X14979706Y-11747984D01*
X14979706Y-11747984D02*
X14970182Y-11843222D01*
X14970182Y-11843222D02*
X14979706Y-11833698D01*
X14979706Y-11833698D02*
X14998753Y-11824174D01*
X14998753Y-11824174D02*
X15046372Y-11824174D01*
X15046372Y-11824174D02*
X15065420Y-11833698D01*
X15065420Y-11833698D02*
X15074944Y-11843222D01*
X15074944Y-11843222D02*
X15084467Y-11862269D01*
X15084467Y-11862269D02*
X15084467Y-11909888D01*
X15084467Y-11909888D02*
X15074944Y-11928936D01*
X15074944Y-11928936D02*
X15065420Y-11938460D01*
X15065420Y-11938460D02*
X15046372Y-11947984D01*
X15046372Y-11947984D02*
X14998753Y-11947984D01*
X14998753Y-11947984D02*
X14979706Y-11938460D01*
X14979706Y-11938460D02*
X14970182Y-11928936D01*
X15151134Y-11747984D02*
X15284467Y-11747984D01*
X15284467Y-11747984D02*
X15198753Y-11947984D01*
X15351134Y-11747984D02*
X15351134Y-11786079D01*
X15427325Y-11747984D02*
X15427325Y-11786079D01*
X15722563Y-12024174D02*
X15713039Y-12014650D01*
X15713039Y-12014650D02*
X15693991Y-11986079D01*
X15693991Y-11986079D02*
X15684468Y-11967031D01*
X15684468Y-11967031D02*
X15674944Y-11938460D01*
X15674944Y-11938460D02*
X15665420Y-11890841D01*
X15665420Y-11890841D02*
X15665420Y-11852746D01*
X15665420Y-11852746D02*
X15674944Y-11805127D01*
X15674944Y-11805127D02*
X15684468Y-11776555D01*
X15684468Y-11776555D02*
X15693991Y-11757508D01*
X15693991Y-11757508D02*
X15713039Y-11728936D01*
X15713039Y-11728936D02*
X15722563Y-11719412D01*
X15779706Y-11747984D02*
X15903515Y-11747984D01*
X15903515Y-11747984D02*
X15836848Y-11824174D01*
X15836848Y-11824174D02*
X15865420Y-11824174D01*
X15865420Y-11824174D02*
X15884468Y-11833698D01*
X15884468Y-11833698D02*
X15893991Y-11843222D01*
X15893991Y-11843222D02*
X15903515Y-11862269D01*
X15903515Y-11862269D02*
X15903515Y-11909888D01*
X15903515Y-11909888D02*
X15893991Y-11928936D01*
X15893991Y-11928936D02*
X15884468Y-11938460D01*
X15884468Y-11938460D02*
X15865420Y-11947984D01*
X15865420Y-11947984D02*
X15808277Y-11947984D01*
X15808277Y-11947984D02*
X15789229Y-11938460D01*
X15789229Y-11938460D02*
X15779706Y-11928936D01*
X16084468Y-11747984D02*
X15989229Y-11747984D01*
X15989229Y-11747984D02*
X15979706Y-11843222D01*
X15979706Y-11843222D02*
X15989229Y-11833698D01*
X15989229Y-11833698D02*
X16008277Y-11824174D01*
X16008277Y-11824174D02*
X16055896Y-11824174D01*
X16055896Y-11824174D02*
X16074944Y-11833698D01*
X16074944Y-11833698D02*
X16084468Y-11843222D01*
X16084468Y-11843222D02*
X16093991Y-11862269D01*
X16093991Y-11862269D02*
X16093991Y-11909888D01*
X16093991Y-11909888D02*
X16084468Y-11928936D01*
X16084468Y-11928936D02*
X16074944Y-11938460D01*
X16074944Y-11938460D02*
X16055896Y-11947984D01*
X16055896Y-11947984D02*
X16008277Y-11947984D01*
X16008277Y-11947984D02*
X15989229Y-11938460D01*
X15989229Y-11938460D02*
X15979706Y-11928936D01*
X16332087Y-11947984D02*
X16332087Y-11747984D01*
X16417801Y-11947984D02*
X16417801Y-11843222D01*
X16417801Y-11843222D02*
X16408277Y-11824174D01*
X16408277Y-11824174D02*
X16389230Y-11814650D01*
X16389230Y-11814650D02*
X16360658Y-11814650D01*
X16360658Y-11814650D02*
X16341610Y-11824174D01*
X16341610Y-11824174D02*
X16332087Y-11833698D01*
X16541610Y-11947984D02*
X16522563Y-11938460D01*
X16522563Y-11938460D02*
X16513039Y-11928936D01*
X16513039Y-11928936D02*
X16503515Y-11909888D01*
X16503515Y-11909888D02*
X16503515Y-11852746D01*
X16503515Y-11852746D02*
X16513039Y-11833698D01*
X16513039Y-11833698D02*
X16522563Y-11824174D01*
X16522563Y-11824174D02*
X16541610Y-11814650D01*
X16541610Y-11814650D02*
X16570182Y-11814650D01*
X16570182Y-11814650D02*
X16589230Y-11824174D01*
X16589230Y-11824174D02*
X16598753Y-11833698D01*
X16598753Y-11833698D02*
X16608277Y-11852746D01*
X16608277Y-11852746D02*
X16608277Y-11909888D01*
X16608277Y-11909888D02*
X16598753Y-11928936D01*
X16598753Y-11928936D02*
X16589230Y-11938460D01*
X16589230Y-11938460D02*
X16570182Y-11947984D01*
X16570182Y-11947984D02*
X16541610Y-11947984D01*
X16722563Y-11947984D02*
X16703515Y-11938460D01*
X16703515Y-11938460D02*
X16693991Y-11919412D01*
X16693991Y-11919412D02*
X16693991Y-11747984D01*
X16874944Y-11938460D02*
X16855896Y-11947984D01*
X16855896Y-11947984D02*
X16817801Y-11947984D01*
X16817801Y-11947984D02*
X16798753Y-11938460D01*
X16798753Y-11938460D02*
X16789230Y-11919412D01*
X16789230Y-11919412D02*
X16789230Y-11843222D01*
X16789230Y-11843222D02*
X16798753Y-11824174D01*
X16798753Y-11824174D02*
X16817801Y-11814650D01*
X16817801Y-11814650D02*
X16855896Y-11814650D01*
X16855896Y-11814650D02*
X16874944Y-11824174D01*
X16874944Y-11824174D02*
X16884468Y-11843222D01*
X16884468Y-11843222D02*
X16884468Y-11862269D01*
X16884468Y-11862269D02*
X16789230Y-11881317D01*
X16960658Y-11938460D02*
X16979706Y-11947984D01*
X16979706Y-11947984D02*
X17017801Y-11947984D01*
X17017801Y-11947984D02*
X17036849Y-11938460D01*
X17036849Y-11938460D02*
X17046373Y-11919412D01*
X17046373Y-11919412D02*
X17046373Y-11909888D01*
X17046373Y-11909888D02*
X17036849Y-11890841D01*
X17036849Y-11890841D02*
X17017801Y-11881317D01*
X17017801Y-11881317D02*
X16989230Y-11881317D01*
X16989230Y-11881317D02*
X16970182Y-11871793D01*
X16970182Y-11871793D02*
X16960658Y-11852746D01*
X16960658Y-11852746D02*
X16960658Y-11843222D01*
X16960658Y-11843222D02*
X16970182Y-11824174D01*
X16970182Y-11824174D02*
X16989230Y-11814650D01*
X16989230Y-11814650D02*
X17017801Y-11814650D01*
X17017801Y-11814650D02*
X17036849Y-11824174D01*
X17113039Y-12024174D02*
X17122563Y-12014650D01*
X17122563Y-12014650D02*
X17141611Y-11986079D01*
X17141611Y-11986079D02*
X17151134Y-11967031D01*
X17151134Y-11967031D02*
X17160658Y-11938460D01*
X17160658Y-11938460D02*
X17170182Y-11890841D01*
X17170182Y-11890841D02*
X17170182Y-11852746D01*
X17170182Y-11852746D02*
X17160658Y-11805127D01*
X17160658Y-11805127D02*
X17151134Y-11776555D01*
X17151134Y-11776555D02*
X17141611Y-11757508D01*
X17141611Y-11757508D02*
X17122563Y-11728936D01*
X17122563Y-11728936D02*
X17113039Y-11719412D01*
D12*
X12097500Y-12070500D02*
X12097500Y-12170500D01*
X12047500Y-12120500D02*
X12147500Y-12120500D01*
D11*
X12513039Y-12211984D02*
X12398753Y-12211984D01*
X12455896Y-12211984D02*
X12455896Y-12011984D01*
X12455896Y-12011984D02*
X12436848Y-12040555D01*
X12436848Y-12040555D02*
X12417801Y-12059603D01*
X12417801Y-12059603D02*
X12398753Y-12069127D01*
X12598753Y-12192936D02*
X12608277Y-12202460D01*
X12608277Y-12202460D02*
X12598753Y-12211984D01*
X12598753Y-12211984D02*
X12589229Y-12202460D01*
X12589229Y-12202460D02*
X12598753Y-12192936D01*
X12598753Y-12192936D02*
X12598753Y-12211984D01*
X12732086Y-12011984D02*
X12751134Y-12011984D01*
X12751134Y-12011984D02*
X12770182Y-12021508D01*
X12770182Y-12021508D02*
X12779705Y-12031031D01*
X12779705Y-12031031D02*
X12789229Y-12050079D01*
X12789229Y-12050079D02*
X12798753Y-12088174D01*
X12798753Y-12088174D02*
X12798753Y-12135793D01*
X12798753Y-12135793D02*
X12789229Y-12173888D01*
X12789229Y-12173888D02*
X12779705Y-12192936D01*
X12779705Y-12192936D02*
X12770182Y-12202460D01*
X12770182Y-12202460D02*
X12751134Y-12211984D01*
X12751134Y-12211984D02*
X12732086Y-12211984D01*
X12732086Y-12211984D02*
X12713039Y-12202460D01*
X12713039Y-12202460D02*
X12703515Y-12192936D01*
X12703515Y-12192936D02*
X12693991Y-12173888D01*
X12693991Y-12173888D02*
X12684467Y-12135793D01*
X12684467Y-12135793D02*
X12684467Y-12088174D01*
X12684467Y-12088174D02*
X12693991Y-12050079D01*
X12693991Y-12050079D02*
X12703515Y-12031031D01*
X12703515Y-12031031D02*
X12713039Y-12021508D01*
X12713039Y-12021508D02*
X12732086Y-12011984D01*
X12922562Y-12011984D02*
X12941610Y-12011984D01*
X12941610Y-12011984D02*
X12960658Y-12021508D01*
X12960658Y-12021508D02*
X12970182Y-12031031D01*
X12970182Y-12031031D02*
X12979705Y-12050079D01*
X12979705Y-12050079D02*
X12989229Y-12088174D01*
X12989229Y-12088174D02*
X12989229Y-12135793D01*
X12989229Y-12135793D02*
X12979705Y-12173888D01*
X12979705Y-12173888D02*
X12970182Y-12192936D01*
X12970182Y-12192936D02*
X12960658Y-12202460D01*
X12960658Y-12202460D02*
X12941610Y-12211984D01*
X12941610Y-12211984D02*
X12922562Y-12211984D01*
X12922562Y-12211984D02*
X12903515Y-12202460D01*
X12903515Y-12202460D02*
X12893991Y-12192936D01*
X12893991Y-12192936D02*
X12884467Y-12173888D01*
X12884467Y-12173888D02*
X12874943Y-12135793D01*
X12874943Y-12135793D02*
X12874943Y-12088174D01*
X12874943Y-12088174D02*
X12884467Y-12050079D01*
X12884467Y-12050079D02*
X12893991Y-12031031D01*
X12893991Y-12031031D02*
X12903515Y-12021508D01*
X12903515Y-12021508D02*
X12922562Y-12011984D01*
X13113039Y-12011984D02*
X13132086Y-12011984D01*
X13132086Y-12011984D02*
X13151134Y-12021508D01*
X13151134Y-12021508D02*
X13160658Y-12031031D01*
X13160658Y-12031031D02*
X13170182Y-12050079D01*
X13170182Y-12050079D02*
X13179705Y-12088174D01*
X13179705Y-12088174D02*
X13179705Y-12135793D01*
X13179705Y-12135793D02*
X13170182Y-12173888D01*
X13170182Y-12173888D02*
X13160658Y-12192936D01*
X13160658Y-12192936D02*
X13151134Y-12202460D01*
X13151134Y-12202460D02*
X13132086Y-12211984D01*
X13132086Y-12211984D02*
X13113039Y-12211984D01*
X13113039Y-12211984D02*
X13093991Y-12202460D01*
X13093991Y-12202460D02*
X13084467Y-12192936D01*
X13084467Y-12192936D02*
X13074943Y-12173888D01*
X13074943Y-12173888D02*
X13065420Y-12135793D01*
X13065420Y-12135793D02*
X13065420Y-12088174D01*
X13065420Y-12088174D02*
X13074943Y-12050079D01*
X13074943Y-12050079D02*
X13084467Y-12031031D01*
X13084467Y-12031031D02*
X13093991Y-12021508D01*
X13093991Y-12021508D02*
X13113039Y-12011984D01*
X13265420Y-12211984D02*
X13265420Y-12078650D01*
X13265420Y-12097698D02*
X13274943Y-12088174D01*
X13274943Y-12088174D02*
X13293991Y-12078650D01*
X13293991Y-12078650D02*
X13322563Y-12078650D01*
X13322563Y-12078650D02*
X13341610Y-12088174D01*
X13341610Y-12088174D02*
X13351134Y-12107222D01*
X13351134Y-12107222D02*
X13351134Y-12211984D01*
X13351134Y-12107222D02*
X13360658Y-12088174D01*
X13360658Y-12088174D02*
X13379705Y-12078650D01*
X13379705Y-12078650D02*
X13408277Y-12078650D01*
X13408277Y-12078650D02*
X13427324Y-12088174D01*
X13427324Y-12088174D02*
X13436848Y-12107222D01*
X13436848Y-12107222D02*
X13436848Y-12211984D01*
X13532086Y-12211984D02*
X13532086Y-12078650D01*
X13532086Y-12097698D02*
X13541610Y-12088174D01*
X13541610Y-12088174D02*
X13560658Y-12078650D01*
X13560658Y-12078650D02*
X13589229Y-12078650D01*
X13589229Y-12078650D02*
X13608277Y-12088174D01*
X13608277Y-12088174D02*
X13617801Y-12107222D01*
X13617801Y-12107222D02*
X13617801Y-12211984D01*
X13617801Y-12107222D02*
X13627324Y-12088174D01*
X13627324Y-12088174D02*
X13646372Y-12078650D01*
X13646372Y-12078650D02*
X13674943Y-12078650D01*
X13674943Y-12078650D02*
X13693991Y-12088174D01*
X13693991Y-12088174D02*
X13703515Y-12107222D01*
X13703515Y-12107222D02*
X13703515Y-12211984D01*
X14093991Y-12002460D02*
X13922563Y-12259603D01*
X14351134Y-12011984D02*
X14370182Y-12011984D01*
X14370182Y-12011984D02*
X14389229Y-12021508D01*
X14389229Y-12021508D02*
X14398753Y-12031031D01*
X14398753Y-12031031D02*
X14408277Y-12050079D01*
X14408277Y-12050079D02*
X14417801Y-12088174D01*
X14417801Y-12088174D02*
X14417801Y-12135793D01*
X14417801Y-12135793D02*
X14408277Y-12173888D01*
X14408277Y-12173888D02*
X14398753Y-12192936D01*
X14398753Y-12192936D02*
X14389229Y-12202460D01*
X14389229Y-12202460D02*
X14370182Y-12211984D01*
X14370182Y-12211984D02*
X14351134Y-12211984D01*
X14351134Y-12211984D02*
X14332086Y-12202460D01*
X14332086Y-12202460D02*
X14322563Y-12192936D01*
X14322563Y-12192936D02*
X14313039Y-12173888D01*
X14313039Y-12173888D02*
X14303515Y-12135793D01*
X14303515Y-12135793D02*
X14303515Y-12088174D01*
X14303515Y-12088174D02*
X14313039Y-12050079D01*
X14313039Y-12050079D02*
X14322563Y-12031031D01*
X14322563Y-12031031D02*
X14332086Y-12021508D01*
X14332086Y-12021508D02*
X14351134Y-12011984D01*
X14503515Y-12192936D02*
X14513039Y-12202460D01*
X14513039Y-12202460D02*
X14503515Y-12211984D01*
X14503515Y-12211984D02*
X14493991Y-12202460D01*
X14493991Y-12202460D02*
X14503515Y-12192936D01*
X14503515Y-12192936D02*
X14503515Y-12211984D01*
X14636848Y-12011984D02*
X14655896Y-12011984D01*
X14655896Y-12011984D02*
X14674944Y-12021508D01*
X14674944Y-12021508D02*
X14684467Y-12031031D01*
X14684467Y-12031031D02*
X14693991Y-12050079D01*
X14693991Y-12050079D02*
X14703515Y-12088174D01*
X14703515Y-12088174D02*
X14703515Y-12135793D01*
X14703515Y-12135793D02*
X14693991Y-12173888D01*
X14693991Y-12173888D02*
X14684467Y-12192936D01*
X14684467Y-12192936D02*
X14674944Y-12202460D01*
X14674944Y-12202460D02*
X14655896Y-12211984D01*
X14655896Y-12211984D02*
X14636848Y-12211984D01*
X14636848Y-12211984D02*
X14617801Y-12202460D01*
X14617801Y-12202460D02*
X14608277Y-12192936D01*
X14608277Y-12192936D02*
X14598753Y-12173888D01*
X14598753Y-12173888D02*
X14589229Y-12135793D01*
X14589229Y-12135793D02*
X14589229Y-12088174D01*
X14589229Y-12088174D02*
X14598753Y-12050079D01*
X14598753Y-12050079D02*
X14608277Y-12031031D01*
X14608277Y-12031031D02*
X14617801Y-12021508D01*
X14617801Y-12021508D02*
X14636848Y-12011984D01*
X14770182Y-12011984D02*
X14893991Y-12011984D01*
X14893991Y-12011984D02*
X14827325Y-12088174D01*
X14827325Y-12088174D02*
X14855896Y-12088174D01*
X14855896Y-12088174D02*
X14874944Y-12097698D01*
X14874944Y-12097698D02*
X14884467Y-12107222D01*
X14884467Y-12107222D02*
X14893991Y-12126269D01*
X14893991Y-12126269D02*
X14893991Y-12173888D01*
X14893991Y-12173888D02*
X14884467Y-12192936D01*
X14884467Y-12192936D02*
X14874944Y-12202460D01*
X14874944Y-12202460D02*
X14855896Y-12211984D01*
X14855896Y-12211984D02*
X14798753Y-12211984D01*
X14798753Y-12211984D02*
X14779706Y-12202460D01*
X14779706Y-12202460D02*
X14770182Y-12192936D01*
X14989229Y-12211984D02*
X15027325Y-12211984D01*
X15027325Y-12211984D02*
X15046372Y-12202460D01*
X15046372Y-12202460D02*
X15055896Y-12192936D01*
X15055896Y-12192936D02*
X15074944Y-12164365D01*
X15074944Y-12164365D02*
X15084467Y-12126269D01*
X15084467Y-12126269D02*
X15084467Y-12050079D01*
X15084467Y-12050079D02*
X15074944Y-12031031D01*
X15074944Y-12031031D02*
X15065420Y-12021508D01*
X15065420Y-12021508D02*
X15046372Y-12011984D01*
X15046372Y-12011984D02*
X15008277Y-12011984D01*
X15008277Y-12011984D02*
X14989229Y-12021508D01*
X14989229Y-12021508D02*
X14979706Y-12031031D01*
X14979706Y-12031031D02*
X14970182Y-12050079D01*
X14970182Y-12050079D02*
X14970182Y-12097698D01*
X14970182Y-12097698D02*
X14979706Y-12116746D01*
X14979706Y-12116746D02*
X14989229Y-12126269D01*
X14989229Y-12126269D02*
X15008277Y-12135793D01*
X15008277Y-12135793D02*
X15046372Y-12135793D01*
X15046372Y-12135793D02*
X15065420Y-12126269D01*
X15065420Y-12126269D02*
X15074944Y-12116746D01*
X15074944Y-12116746D02*
X15084467Y-12097698D01*
X15255896Y-12078650D02*
X15255896Y-12211984D01*
X15208277Y-12002460D02*
X15160658Y-12145317D01*
X15160658Y-12145317D02*
X15284467Y-12145317D01*
X15351134Y-12011984D02*
X15351134Y-12050079D01*
X15427325Y-12011984D02*
X15427325Y-12050079D01*
X15722563Y-12288174D02*
X15713039Y-12278650D01*
X15713039Y-12278650D02*
X15693991Y-12250079D01*
X15693991Y-12250079D02*
X15684468Y-12231031D01*
X15684468Y-12231031D02*
X15674944Y-12202460D01*
X15674944Y-12202460D02*
X15665420Y-12154841D01*
X15665420Y-12154841D02*
X15665420Y-12116746D01*
X15665420Y-12116746D02*
X15674944Y-12069127D01*
X15674944Y-12069127D02*
X15684468Y-12040555D01*
X15684468Y-12040555D02*
X15693991Y-12021508D01*
X15693991Y-12021508D02*
X15713039Y-11992936D01*
X15713039Y-11992936D02*
X15722563Y-11983412D01*
X15884468Y-12078650D02*
X15884468Y-12211984D01*
X15836848Y-12002460D02*
X15789229Y-12145317D01*
X15789229Y-12145317D02*
X15913039Y-12145317D01*
X16074944Y-12078650D02*
X16074944Y-12211984D01*
X16027325Y-12002460D02*
X15979706Y-12145317D01*
X15979706Y-12145317D02*
X16103515Y-12145317D01*
X16332087Y-12211984D02*
X16332087Y-12011984D01*
X16417801Y-12211984D02*
X16417801Y-12107222D01*
X16417801Y-12107222D02*
X16408277Y-12088174D01*
X16408277Y-12088174D02*
X16389230Y-12078650D01*
X16389230Y-12078650D02*
X16360658Y-12078650D01*
X16360658Y-12078650D02*
X16341610Y-12088174D01*
X16341610Y-12088174D02*
X16332087Y-12097698D01*
X16541610Y-12211984D02*
X16522563Y-12202460D01*
X16522563Y-12202460D02*
X16513039Y-12192936D01*
X16513039Y-12192936D02*
X16503515Y-12173888D01*
X16503515Y-12173888D02*
X16503515Y-12116746D01*
X16503515Y-12116746D02*
X16513039Y-12097698D01*
X16513039Y-12097698D02*
X16522563Y-12088174D01*
X16522563Y-12088174D02*
X16541610Y-12078650D01*
X16541610Y-12078650D02*
X16570182Y-12078650D01*
X16570182Y-12078650D02*
X16589230Y-12088174D01*
X16589230Y-12088174D02*
X16598753Y-12097698D01*
X16598753Y-12097698D02*
X16608277Y-12116746D01*
X16608277Y-12116746D02*
X16608277Y-12173888D01*
X16608277Y-12173888D02*
X16598753Y-12192936D01*
X16598753Y-12192936D02*
X16589230Y-12202460D01*
X16589230Y-12202460D02*
X16570182Y-12211984D01*
X16570182Y-12211984D02*
X16541610Y-12211984D01*
X16722563Y-12211984D02*
X16703515Y-12202460D01*
X16703515Y-12202460D02*
X16693991Y-12183412D01*
X16693991Y-12183412D02*
X16693991Y-12011984D01*
X16874944Y-12202460D02*
X16855896Y-12211984D01*
X16855896Y-12211984D02*
X16817801Y-12211984D01*
X16817801Y-12211984D02*
X16798753Y-12202460D01*
X16798753Y-12202460D02*
X16789230Y-12183412D01*
X16789230Y-12183412D02*
X16789230Y-12107222D01*
X16789230Y-12107222D02*
X16798753Y-12088174D01*
X16798753Y-12088174D02*
X16817801Y-12078650D01*
X16817801Y-12078650D02*
X16855896Y-12078650D01*
X16855896Y-12078650D02*
X16874944Y-12088174D01*
X16874944Y-12088174D02*
X16884468Y-12107222D01*
X16884468Y-12107222D02*
X16884468Y-12126269D01*
X16884468Y-12126269D02*
X16789230Y-12145317D01*
X16960658Y-12202460D02*
X16979706Y-12211984D01*
X16979706Y-12211984D02*
X17017801Y-12211984D01*
X17017801Y-12211984D02*
X17036849Y-12202460D01*
X17036849Y-12202460D02*
X17046373Y-12183412D01*
X17046373Y-12183412D02*
X17046373Y-12173888D01*
X17046373Y-12173888D02*
X17036849Y-12154841D01*
X17036849Y-12154841D02*
X17017801Y-12145317D01*
X17017801Y-12145317D02*
X16989230Y-12145317D01*
X16989230Y-12145317D02*
X16970182Y-12135793D01*
X16970182Y-12135793D02*
X16960658Y-12116746D01*
X16960658Y-12116746D02*
X16960658Y-12107222D01*
X16960658Y-12107222D02*
X16970182Y-12088174D01*
X16970182Y-12088174D02*
X16989230Y-12078650D01*
X16989230Y-12078650D02*
X17017801Y-12078650D01*
X17017801Y-12078650D02*
X17036849Y-12088174D01*
X17113039Y-12288174D02*
X17122563Y-12278650D01*
X17122563Y-12278650D02*
X17141611Y-12250079D01*
X17141611Y-12250079D02*
X17151134Y-12231031D01*
X17151134Y-12231031D02*
X17160658Y-12202460D01*
X17160658Y-12202460D02*
X17170182Y-12154841D01*
X17170182Y-12154841D02*
X17170182Y-12116746D01*
X17170182Y-12116746D02*
X17160658Y-12069127D01*
X17160658Y-12069127D02*
X17151134Y-12040555D01*
X17151134Y-12040555D02*
X17141611Y-12021508D01*
X17141611Y-12021508D02*
X17122563Y-11992936D01*
X17122563Y-11992936D02*
X17113039Y-11983412D01*
X12118211Y-12455211D02*
X12118211Y-12313789D01*
X11976789Y-12313789D01*
X11976789Y-12455211D01*
X12118211Y-12455211D01*
X12389229Y-12275984D02*
X12513039Y-12275984D01*
X12513039Y-12275984D02*
X12446372Y-12352174D01*
X12446372Y-12352174D02*
X12474943Y-12352174D01*
X12474943Y-12352174D02*
X12493991Y-12361698D01*
X12493991Y-12361698D02*
X12503515Y-12371222D01*
X12503515Y-12371222D02*
X12513039Y-12390269D01*
X12513039Y-12390269D02*
X12513039Y-12437888D01*
X12513039Y-12437888D02*
X12503515Y-12456936D01*
X12503515Y-12456936D02*
X12493991Y-12466460D01*
X12493991Y-12466460D02*
X12474943Y-12475984D01*
X12474943Y-12475984D02*
X12417801Y-12475984D01*
X12417801Y-12475984D02*
X12398753Y-12466460D01*
X12398753Y-12466460D02*
X12389229Y-12456936D01*
X12598753Y-12456936D02*
X12608277Y-12466460D01*
X12608277Y-12466460D02*
X12598753Y-12475984D01*
X12598753Y-12475984D02*
X12589229Y-12466460D01*
X12589229Y-12466460D02*
X12598753Y-12456936D01*
X12598753Y-12456936D02*
X12598753Y-12475984D01*
X12684467Y-12295031D02*
X12693991Y-12285508D01*
X12693991Y-12285508D02*
X12713039Y-12275984D01*
X12713039Y-12275984D02*
X12760658Y-12275984D01*
X12760658Y-12275984D02*
X12779705Y-12285508D01*
X12779705Y-12285508D02*
X12789229Y-12295031D01*
X12789229Y-12295031D02*
X12798753Y-12314079D01*
X12798753Y-12314079D02*
X12798753Y-12333127D01*
X12798753Y-12333127D02*
X12789229Y-12361698D01*
X12789229Y-12361698D02*
X12674943Y-12475984D01*
X12674943Y-12475984D02*
X12798753Y-12475984D01*
X12922562Y-12275984D02*
X12941610Y-12275984D01*
X12941610Y-12275984D02*
X12960658Y-12285508D01*
X12960658Y-12285508D02*
X12970182Y-12295031D01*
X12970182Y-12295031D02*
X12979705Y-12314079D01*
X12979705Y-12314079D02*
X12989229Y-12352174D01*
X12989229Y-12352174D02*
X12989229Y-12399793D01*
X12989229Y-12399793D02*
X12979705Y-12437888D01*
X12979705Y-12437888D02*
X12970182Y-12456936D01*
X12970182Y-12456936D02*
X12960658Y-12466460D01*
X12960658Y-12466460D02*
X12941610Y-12475984D01*
X12941610Y-12475984D02*
X12922562Y-12475984D01*
X12922562Y-12475984D02*
X12903515Y-12466460D01*
X12903515Y-12466460D02*
X12893991Y-12456936D01*
X12893991Y-12456936D02*
X12884467Y-12437888D01*
X12884467Y-12437888D02*
X12874943Y-12399793D01*
X12874943Y-12399793D02*
X12874943Y-12352174D01*
X12874943Y-12352174D02*
X12884467Y-12314079D01*
X12884467Y-12314079D02*
X12893991Y-12295031D01*
X12893991Y-12295031D02*
X12903515Y-12285508D01*
X12903515Y-12285508D02*
X12922562Y-12275984D01*
X13113039Y-12275984D02*
X13132086Y-12275984D01*
X13132086Y-12275984D02*
X13151134Y-12285508D01*
X13151134Y-12285508D02*
X13160658Y-12295031D01*
X13160658Y-12295031D02*
X13170182Y-12314079D01*
X13170182Y-12314079D02*
X13179705Y-12352174D01*
X13179705Y-12352174D02*
X13179705Y-12399793D01*
X13179705Y-12399793D02*
X13170182Y-12437888D01*
X13170182Y-12437888D02*
X13160658Y-12456936D01*
X13160658Y-12456936D02*
X13151134Y-12466460D01*
X13151134Y-12466460D02*
X13132086Y-12475984D01*
X13132086Y-12475984D02*
X13113039Y-12475984D01*
X13113039Y-12475984D02*
X13093991Y-12466460D01*
X13093991Y-12466460D02*
X13084467Y-12456936D01*
X13084467Y-12456936D02*
X13074943Y-12437888D01*
X13074943Y-12437888D02*
X13065420Y-12399793D01*
X13065420Y-12399793D02*
X13065420Y-12352174D01*
X13065420Y-12352174D02*
X13074943Y-12314079D01*
X13074943Y-12314079D02*
X13084467Y-12295031D01*
X13084467Y-12295031D02*
X13093991Y-12285508D01*
X13093991Y-12285508D02*
X13113039Y-12275984D01*
X13265420Y-12475984D02*
X13265420Y-12342650D01*
X13265420Y-12361698D02*
X13274943Y-12352174D01*
X13274943Y-12352174D02*
X13293991Y-12342650D01*
X13293991Y-12342650D02*
X13322563Y-12342650D01*
X13322563Y-12342650D02*
X13341610Y-12352174D01*
X13341610Y-12352174D02*
X13351134Y-12371222D01*
X13351134Y-12371222D02*
X13351134Y-12475984D01*
X13351134Y-12371222D02*
X13360658Y-12352174D01*
X13360658Y-12352174D02*
X13379705Y-12342650D01*
X13379705Y-12342650D02*
X13408277Y-12342650D01*
X13408277Y-12342650D02*
X13427324Y-12352174D01*
X13427324Y-12352174D02*
X13436848Y-12371222D01*
X13436848Y-12371222D02*
X13436848Y-12475984D01*
X13532086Y-12475984D02*
X13532086Y-12342650D01*
X13532086Y-12361698D02*
X13541610Y-12352174D01*
X13541610Y-12352174D02*
X13560658Y-12342650D01*
X13560658Y-12342650D02*
X13589229Y-12342650D01*
X13589229Y-12342650D02*
X13608277Y-12352174D01*
X13608277Y-12352174D02*
X13617801Y-12371222D01*
X13617801Y-12371222D02*
X13617801Y-12475984D01*
X13617801Y-12371222D02*
X13627324Y-12352174D01*
X13627324Y-12352174D02*
X13646372Y-12342650D01*
X13646372Y-12342650D02*
X13674943Y-12342650D01*
X13674943Y-12342650D02*
X13693991Y-12352174D01*
X13693991Y-12352174D02*
X13703515Y-12371222D01*
X13703515Y-12371222D02*
X13703515Y-12475984D01*
X14093991Y-12266460D02*
X13922563Y-12523603D01*
X14351134Y-12275984D02*
X14370182Y-12275984D01*
X14370182Y-12275984D02*
X14389229Y-12285508D01*
X14389229Y-12285508D02*
X14398753Y-12295031D01*
X14398753Y-12295031D02*
X14408277Y-12314079D01*
X14408277Y-12314079D02*
X14417801Y-12352174D01*
X14417801Y-12352174D02*
X14417801Y-12399793D01*
X14417801Y-12399793D02*
X14408277Y-12437888D01*
X14408277Y-12437888D02*
X14398753Y-12456936D01*
X14398753Y-12456936D02*
X14389229Y-12466460D01*
X14389229Y-12466460D02*
X14370182Y-12475984D01*
X14370182Y-12475984D02*
X14351134Y-12475984D01*
X14351134Y-12475984D02*
X14332086Y-12466460D01*
X14332086Y-12466460D02*
X14322563Y-12456936D01*
X14322563Y-12456936D02*
X14313039Y-12437888D01*
X14313039Y-12437888D02*
X14303515Y-12399793D01*
X14303515Y-12399793D02*
X14303515Y-12352174D01*
X14303515Y-12352174D02*
X14313039Y-12314079D01*
X14313039Y-12314079D02*
X14322563Y-12295031D01*
X14322563Y-12295031D02*
X14332086Y-12285508D01*
X14332086Y-12285508D02*
X14351134Y-12275984D01*
X14503515Y-12456936D02*
X14513039Y-12466460D01*
X14513039Y-12466460D02*
X14503515Y-12475984D01*
X14503515Y-12475984D02*
X14493991Y-12466460D01*
X14493991Y-12466460D02*
X14503515Y-12456936D01*
X14503515Y-12456936D02*
X14503515Y-12475984D01*
X14703515Y-12475984D02*
X14589229Y-12475984D01*
X14646372Y-12475984D02*
X14646372Y-12275984D01*
X14646372Y-12275984D02*
X14627325Y-12304555D01*
X14627325Y-12304555D02*
X14608277Y-12323603D01*
X14608277Y-12323603D02*
X14589229Y-12333127D01*
X14779706Y-12295031D02*
X14789229Y-12285508D01*
X14789229Y-12285508D02*
X14808277Y-12275984D01*
X14808277Y-12275984D02*
X14855896Y-12275984D01*
X14855896Y-12275984D02*
X14874944Y-12285508D01*
X14874944Y-12285508D02*
X14884467Y-12295031D01*
X14884467Y-12295031D02*
X14893991Y-12314079D01*
X14893991Y-12314079D02*
X14893991Y-12333127D01*
X14893991Y-12333127D02*
X14884467Y-12361698D01*
X14884467Y-12361698D02*
X14770182Y-12475984D01*
X14770182Y-12475984D02*
X14893991Y-12475984D01*
X15065420Y-12275984D02*
X15027325Y-12275984D01*
X15027325Y-12275984D02*
X15008277Y-12285508D01*
X15008277Y-12285508D02*
X14998753Y-12295031D01*
X14998753Y-12295031D02*
X14979706Y-12323603D01*
X14979706Y-12323603D02*
X14970182Y-12361698D01*
X14970182Y-12361698D02*
X14970182Y-12437888D01*
X14970182Y-12437888D02*
X14979706Y-12456936D01*
X14979706Y-12456936D02*
X14989229Y-12466460D01*
X14989229Y-12466460D02*
X15008277Y-12475984D01*
X15008277Y-12475984D02*
X15046372Y-12475984D01*
X15046372Y-12475984D02*
X15065420Y-12466460D01*
X15065420Y-12466460D02*
X15074944Y-12456936D01*
X15074944Y-12456936D02*
X15084467Y-12437888D01*
X15084467Y-12437888D02*
X15084467Y-12390269D01*
X15084467Y-12390269D02*
X15074944Y-12371222D01*
X15074944Y-12371222D02*
X15065420Y-12361698D01*
X15065420Y-12361698D02*
X15046372Y-12352174D01*
X15046372Y-12352174D02*
X15008277Y-12352174D01*
X15008277Y-12352174D02*
X14989229Y-12361698D01*
X14989229Y-12361698D02*
X14979706Y-12371222D01*
X14979706Y-12371222D02*
X14970182Y-12390269D01*
X15208277Y-12275984D02*
X15227325Y-12275984D01*
X15227325Y-12275984D02*
X15246372Y-12285508D01*
X15246372Y-12285508D02*
X15255896Y-12295031D01*
X15255896Y-12295031D02*
X15265420Y-12314079D01*
X15265420Y-12314079D02*
X15274944Y-12352174D01*
X15274944Y-12352174D02*
X15274944Y-12399793D01*
X15274944Y-12399793D02*
X15265420Y-12437888D01*
X15265420Y-12437888D02*
X15255896Y-12456936D01*
X15255896Y-12456936D02*
X15246372Y-12466460D01*
X15246372Y-12466460D02*
X15227325Y-12475984D01*
X15227325Y-12475984D02*
X15208277Y-12475984D01*
X15208277Y-12475984D02*
X15189229Y-12466460D01*
X15189229Y-12466460D02*
X15179706Y-12456936D01*
X15179706Y-12456936D02*
X15170182Y-12437888D01*
X15170182Y-12437888D02*
X15160658Y-12399793D01*
X15160658Y-12399793D02*
X15160658Y-12352174D01*
X15160658Y-12352174D02*
X15170182Y-12314079D01*
X15170182Y-12314079D02*
X15179706Y-12295031D01*
X15179706Y-12295031D02*
X15189229Y-12285508D01*
X15189229Y-12285508D02*
X15208277Y-12275984D01*
X15351134Y-12275984D02*
X15351134Y-12314079D01*
X15427325Y-12275984D02*
X15427325Y-12314079D01*
X15722563Y-12552174D02*
X15713039Y-12542650D01*
X15713039Y-12542650D02*
X15693991Y-12514079D01*
X15693991Y-12514079D02*
X15684468Y-12495031D01*
X15684468Y-12495031D02*
X15674944Y-12466460D01*
X15674944Y-12466460D02*
X15665420Y-12418841D01*
X15665420Y-12418841D02*
X15665420Y-12380746D01*
X15665420Y-12380746D02*
X15674944Y-12333127D01*
X15674944Y-12333127D02*
X15684468Y-12304555D01*
X15684468Y-12304555D02*
X15693991Y-12285508D01*
X15693991Y-12285508D02*
X15713039Y-12256936D01*
X15713039Y-12256936D02*
X15722563Y-12247412D01*
X15789229Y-12295031D02*
X15798753Y-12285508D01*
X15798753Y-12285508D02*
X15817801Y-12275984D01*
X15817801Y-12275984D02*
X15865420Y-12275984D01*
X15865420Y-12275984D02*
X15884468Y-12285508D01*
X15884468Y-12285508D02*
X15893991Y-12295031D01*
X15893991Y-12295031D02*
X15903515Y-12314079D01*
X15903515Y-12314079D02*
X15903515Y-12333127D01*
X15903515Y-12333127D02*
X15893991Y-12361698D01*
X15893991Y-12361698D02*
X15779706Y-12475984D01*
X15779706Y-12475984D02*
X15903515Y-12475984D01*
X16141610Y-12475984D02*
X16141610Y-12275984D01*
X16227325Y-12475984D02*
X16227325Y-12371222D01*
X16227325Y-12371222D02*
X16217801Y-12352174D01*
X16217801Y-12352174D02*
X16198753Y-12342650D01*
X16198753Y-12342650D02*
X16170182Y-12342650D01*
X16170182Y-12342650D02*
X16151134Y-12352174D01*
X16151134Y-12352174D02*
X16141610Y-12361698D01*
X16351134Y-12475984D02*
X16332087Y-12466460D01*
X16332087Y-12466460D02*
X16322563Y-12456936D01*
X16322563Y-12456936D02*
X16313039Y-12437888D01*
X16313039Y-12437888D02*
X16313039Y-12380746D01*
X16313039Y-12380746D02*
X16322563Y-12361698D01*
X16322563Y-12361698D02*
X16332087Y-12352174D01*
X16332087Y-12352174D02*
X16351134Y-12342650D01*
X16351134Y-12342650D02*
X16379706Y-12342650D01*
X16379706Y-12342650D02*
X16398753Y-12352174D01*
X16398753Y-12352174D02*
X16408277Y-12361698D01*
X16408277Y-12361698D02*
X16417801Y-12380746D01*
X16417801Y-12380746D02*
X16417801Y-12437888D01*
X16417801Y-12437888D02*
X16408277Y-12456936D01*
X16408277Y-12456936D02*
X16398753Y-12466460D01*
X16398753Y-12466460D02*
X16379706Y-12475984D01*
X16379706Y-12475984D02*
X16351134Y-12475984D01*
X16532087Y-12475984D02*
X16513039Y-12466460D01*
X16513039Y-12466460D02*
X16503515Y-12447412D01*
X16503515Y-12447412D02*
X16503515Y-12275984D01*
X16684468Y-12466460D02*
X16665420Y-12475984D01*
X16665420Y-12475984D02*
X16627325Y-12475984D01*
X16627325Y-12475984D02*
X16608277Y-12466460D01*
X16608277Y-12466460D02*
X16598753Y-12447412D01*
X16598753Y-12447412D02*
X16598753Y-12371222D01*
X16598753Y-12371222D02*
X16608277Y-12352174D01*
X16608277Y-12352174D02*
X16627325Y-12342650D01*
X16627325Y-12342650D02*
X16665420Y-12342650D01*
X16665420Y-12342650D02*
X16684468Y-12352174D01*
X16684468Y-12352174D02*
X16693991Y-12371222D01*
X16693991Y-12371222D02*
X16693991Y-12390269D01*
X16693991Y-12390269D02*
X16598753Y-12409317D01*
X16770182Y-12466460D02*
X16789230Y-12475984D01*
X16789230Y-12475984D02*
X16827325Y-12475984D01*
X16827325Y-12475984D02*
X16846373Y-12466460D01*
X16846373Y-12466460D02*
X16855896Y-12447412D01*
X16855896Y-12447412D02*
X16855896Y-12437888D01*
X16855896Y-12437888D02*
X16846373Y-12418841D01*
X16846373Y-12418841D02*
X16827325Y-12409317D01*
X16827325Y-12409317D02*
X16798753Y-12409317D01*
X16798753Y-12409317D02*
X16779706Y-12399793D01*
X16779706Y-12399793D02*
X16770182Y-12380746D01*
X16770182Y-12380746D02*
X16770182Y-12371222D01*
X16770182Y-12371222D02*
X16779706Y-12352174D01*
X16779706Y-12352174D02*
X16798753Y-12342650D01*
X16798753Y-12342650D02*
X16827325Y-12342650D01*
X16827325Y-12342650D02*
X16846373Y-12352174D01*
X16922563Y-12552174D02*
X16932087Y-12542650D01*
X16932087Y-12542650D02*
X16951134Y-12514079D01*
X16951134Y-12514079D02*
X16960658Y-12495031D01*
X16960658Y-12495031D02*
X16970182Y-12466460D01*
X16970182Y-12466460D02*
X16979706Y-12418841D01*
X16979706Y-12418841D02*
X16979706Y-12380746D01*
X16979706Y-12380746D02*
X16970182Y-12333127D01*
X16970182Y-12333127D02*
X16960658Y-12304555D01*
X16960658Y-12304555D02*
X16951134Y-12285508D01*
X16951134Y-12285508D02*
X16932087Y-12256936D01*
X16932087Y-12256936D02*
X16922563Y-12247412D01*
M02*
