%TF.GenerationSoftware,KiCad,Pcbnew,9.0.4*%
%TF.CreationDate,2026-03-13T04:49:11-04:00*%
%TF.ProjectId,WSG_2.0,5753475f-322e-4302-9e6b-696361645f70,rev?*%
%TF.SameCoordinates,Original*%
%TF.FileFunction,Soldermask,Bot*%
%TF.FilePolarity,Negative*%
%FSLAX46Y46*%
G04 Gerber Fmt 4.6, Leading zero omitted, Abs format (unit mm)*
G04 Created by KiCad (PCBNEW 9.0.4) date 2026-03-13 04:49:11*
%MOMM*%
%LPD*%
G01*
G04 APERTURE LIST*
G04 Aperture macros list*
%AMRoundRect*
0 Rectangle with rounded corners*
0 $1 Rounding radius*
0 $2 $3 $4 $5 $6 $7 $8 $9 X,Y pos of 4 corners*
0 Add a 4 corners polygon primitive as box body*
4,1,4,$2,$3,$4,$5,$6,$7,$8,$9,$2,$3,0*
0 Add four circle primitives for the rounded corners*
1,1,$1+$1,$2,$3*
1,1,$1+$1,$4,$5*
1,1,$1+$1,$6,$7*
1,1,$1+$1,$8,$9*
0 Add four rect primitives between the rounded corners*
20,1,$1+$1,$2,$3,$4,$5,0*
20,1,$1+$1,$4,$5,$6,$7,0*
20,1,$1+$1,$6,$7,$8,$9,0*
20,1,$1+$1,$8,$9,$2,$3,0*%
G04 Aperture macros list end*
%ADD10C,1.300000*%
%ADD11C,0.660400*%
%ADD12R,1.350000X1.350000*%
%ADD13C,1.350000*%
%ADD14RoundRect,0.102000X-0.654000X-0.654000X0.654000X-0.654000X0.654000X0.654000X-0.654000X0.654000X0*%
%ADD15C,1.512000*%
%ADD16RoundRect,0.135000X-0.135000X-0.185000X0.135000X-0.185000X0.135000X0.185000X-0.135000X0.185000X0*%
%ADD17RoundRect,0.140000X-0.170000X0.140000X-0.170000X-0.140000X0.170000X-0.140000X0.170000X0.140000X0*%
%ADD18RoundRect,0.225000X-0.250000X0.225000X-0.250000X-0.225000X0.250000X-0.225000X0.250000X0.225000X0*%
%ADD19RoundRect,0.135000X0.185000X-0.135000X0.185000X0.135000X-0.185000X0.135000X-0.185000X-0.135000X0*%
%ADD20RoundRect,0.147500X-0.147500X-0.172500X0.147500X-0.172500X0.147500X0.172500X-0.147500X0.172500X0*%
%ADD21R,1.320800X0.508000*%
%ADD22RoundRect,0.250000X-0.300000X0.300000X-0.300000X-0.300000X0.300000X-0.300000X0.300000X0.300000X0*%
%ADD23R,1.200000X0.650001*%
%ADD24RoundRect,0.135000X0.135000X0.185000X-0.135000X0.185000X-0.135000X-0.185000X0.135000X-0.185000X0*%
%ADD25RoundRect,0.140000X-0.140000X-0.170000X0.140000X-0.170000X0.140000X0.170000X-0.140000X0.170000X0*%
%ADD26R,1.000000X1.000000*%
%ADD27R,0.650000X1.700000*%
%ADD28R,1.500000X0.650000*%
%ADD29R,0.450000X0.950000*%
%ADD30R,4.350000X3.450000*%
%ADD31R,1.050000X0.500000*%
%ADD32RoundRect,0.140000X0.140000X0.170000X-0.140000X0.170000X-0.140000X-0.170000X0.140000X-0.170000X0*%
G04 APERTURE END LIST*
D10*
%TO.C,H2*%
X144000000Y-86000000D03*
%TD*%
%TO.C,H1*%
X100000000Y-99000000D03*
%TD*%
D11*
%TO.C,J1*%
X140575000Y-83859999D03*
X140575000Y-89640001D03*
%TD*%
D12*
%TO.C,J3*%
X103320000Y-82510000D03*
D13*
X101320000Y-82510000D03*
X103320000Y-84510000D03*
X101320000Y-84510000D03*
X103320000Y-86510000D03*
X101320000Y-86510000D03*
X103320000Y-88510000D03*
X101320000Y-88510000D03*
X103320000Y-90510000D03*
X101320000Y-90510000D03*
%TD*%
D14*
%TO.C,J4*%
X100060000Y-94807500D03*
D15*
X102060000Y-94807500D03*
%TD*%
D16*
%TO.C,R25*%
X121840000Y-84190000D03*
X122860000Y-84190000D03*
%TD*%
D17*
%TO.C,C30*%
X120910000Y-86310000D03*
X120910000Y-87270000D03*
%TD*%
D18*
%TO.C,C2*%
X121000000Y-96085001D03*
X121000000Y-97635001D03*
%TD*%
D19*
%TO.C,R4*%
X128500000Y-99510000D03*
X128500000Y-98490000D03*
%TD*%
D20*
%TO.C,D1*%
X127515000Y-100860001D03*
X128485000Y-100860001D03*
%TD*%
D21*
%TO.C,IC3*%
X114425400Y-84669999D03*
X114425400Y-85620000D03*
X114425400Y-86570001D03*
X111834600Y-86570001D03*
X111834600Y-84669999D03*
%TD*%
D17*
%TO.C,C28*%
X110400000Y-84710000D03*
X110400000Y-85670000D03*
%TD*%
D22*
%TO.C,D2*%
X118950000Y-86492500D03*
X118950000Y-89292500D03*
%TD*%
D23*
%TO.C,U1*%
X126475001Y-96910000D03*
X126475001Y-97860001D03*
X126475001Y-98809999D03*
X123525002Y-98809999D03*
X123525002Y-97860001D03*
X123525002Y-96910000D03*
%TD*%
D24*
%TO.C,R3*%
X121510000Y-99360001D03*
X120490000Y-99360001D03*
%TD*%
D25*
%TO.C,C29*%
X115940000Y-84710000D03*
X116900000Y-84710000D03*
%TD*%
D26*
%TO.C,TP4*%
X128460000Y-91530000D03*
%TD*%
D27*
%TO.C,IC5*%
X132815000Y-84220000D03*
X134085000Y-84220000D03*
X135355000Y-84220000D03*
X136625000Y-84220000D03*
X136625000Y-91420000D03*
X135355000Y-91420000D03*
X134085000Y-91420000D03*
X132815000Y-91420000D03*
%TD*%
D19*
%TO.C,R45*%
X123760000Y-83990000D03*
X123760000Y-82970000D03*
%TD*%
D28*
%TO.C,IC8*%
X122470000Y-89415000D03*
X122470000Y-88145000D03*
X122470000Y-86875000D03*
X122470000Y-85605000D03*
X127870000Y-85605000D03*
X127870000Y-86875000D03*
X127870000Y-88145000D03*
X127870000Y-89415000D03*
%TD*%
D16*
%TO.C,R7*%
X129990000Y-98000000D03*
X131010000Y-98000000D03*
%TD*%
D17*
%TO.C,C26*%
X130550000Y-92170000D03*
X130550000Y-93130000D03*
%TD*%
D16*
%TO.C,R6*%
X111780000Y-99660000D03*
X112800000Y-99660000D03*
%TD*%
D29*
%TO.C,IC1*%
X113130000Y-97160000D03*
X111860000Y-97160000D03*
X110590000Y-97160000D03*
X109320000Y-97160000D03*
X109320000Y-89360000D03*
X110590000Y-89360000D03*
X111860000Y-89360000D03*
X113130000Y-89360000D03*
D30*
X111225000Y-93260000D03*
%TD*%
D31*
%TO.C,MOSFET1*%
X118550000Y-83845000D03*
X118550000Y-82545000D03*
X120650000Y-83195000D03*
%TD*%
D32*
%TO.C,C13*%
X118910000Y-90690000D03*
X117950000Y-90690000D03*
%TD*%
%TO.C,C14*%
X118900000Y-91610000D03*
X117940000Y-91610000D03*
%TD*%
M02*
