%TF.GenerationSoftware,KiCad,Pcbnew,9.0.5*%
%TF.CreationDate,2025-11-13T19:52:16-05:00*%
%TF.ProjectId,TC_kent,54435f6b-656e-4742-9e6b-696361645f70,rev?*%
%TF.SameCoordinates,Original*%
%TF.FileFunction,Copper,L1,Top*%
%TF.FilePolarity,Positive*%
%FSLAX46Y46*%
G04 Gerber Fmt 4.6, Leading zero omitted, Abs format (unit mm)*
G04 Created by KiCad (PCBNEW 9.0.5) date 2025-11-13 19:52:16*
%MOMM*%
%LPD*%
G01*
G04 APERTURE LIST*
G04 Aperture macros list*
%AMRoundRect*
0 Rectangle with rounded corners*
0 $1 Rounding radius*
0 $2 $3 $4 $5 $6 $7 $8 $9 X,Y pos of 4 corners*
0 Add a 4 corners polygon primitive as box body*
4,1,4,$2,$3,$4,$5,$6,$7,$8,$9,$2,$3,0*
0 Add four circle primitives for the rounded corners*
1,1,$1+$1,$2,$3*
1,1,$1+$1,$4,$5*
1,1,$1+$1,$6,$7*
1,1,$1+$1,$8,$9*
0 Add four rect primitives between the rounded corners*
20,1,$1+$1,$2,$3,$4,$5,0*
20,1,$1+$1,$4,$5,$6,$7,0*
20,1,$1+$1,$6,$7,$8,$9,0*
20,1,$1+$1,$8,$9,$2,$3,0*%
G04 Aperture macros list end*
%TA.AperFunction,ComponentPad*%
%ADD10RoundRect,0.250000X0.725000X-0.600000X0.725000X0.600000X-0.725000X0.600000X-0.725000X-0.600000X0*%
%TD*%
%TA.AperFunction,ComponentPad*%
%ADD11O,1.950000X1.700000*%
%TD*%
%TA.AperFunction,ComponentPad*%
%ADD12RoundRect,0.250000X-0.750000X0.600000X-0.750000X-0.600000X0.750000X-0.600000X0.750000X0.600000X0*%
%TD*%
%TA.AperFunction,ComponentPad*%
%ADD13O,2.000000X1.700000*%
%TD*%
%TA.AperFunction,SMDPad,CuDef*%
%ADD14RoundRect,0.135000X0.135000X0.185000X-0.135000X0.185000X-0.135000X-0.185000X0.135000X-0.185000X0*%
%TD*%
%TA.AperFunction,SMDPad,CuDef*%
%ADD15RoundRect,0.135000X-0.135000X-0.185000X0.135000X-0.185000X0.135000X0.185000X-0.135000X0.185000X0*%
%TD*%
%TA.AperFunction,SMDPad,CuDef*%
%ADD16RoundRect,0.135000X-0.185000X0.135000X-0.185000X-0.135000X0.185000X-0.135000X0.185000X0.135000X0*%
%TD*%
%TA.AperFunction,SMDPad,CuDef*%
%ADD17RoundRect,0.125000X-0.687500X-0.125000X0.687500X-0.125000X0.687500X0.125000X-0.687500X0.125000X0*%
%TD*%
%TA.AperFunction,SMDPad,CuDef*%
%ADD18RoundRect,0.140000X0.170000X-0.140000X0.170000X0.140000X-0.170000X0.140000X-0.170000X-0.140000X0*%
%TD*%
%TA.AperFunction,ViaPad*%
%ADD19C,0.600000*%
%TD*%
%TA.AperFunction,Conductor*%
%ADD20C,0.200000*%
%TD*%
G04 APERTURE END LIST*
D10*
%TO.P,J1,1,Pin_1*%
%TO.N,GND*%
X143000000Y-88600000D03*
D11*
%TO.P,J1,2,Pin_2*%
%TO.N,TC_OUT*%
X143000000Y-86100000D03*
%TO.P,J1,3,Pin_3*%
%TO.N,5V_ref*%
X143000000Y-83600000D03*
%TO.P,J1,4,Pin_4*%
%TO.N,5V_buck*%
X143000000Y-81100000D03*
%TD*%
D12*
%TO.P,J2,1,Pin_1*%
%TO.N,TC-*%
X127100000Y-83800000D03*
D13*
%TO.P,J2,2,Pin_2*%
%TO.N,TC+*%
X127100000Y-86300000D03*
%TD*%
D14*
%TO.P,R1,1*%
%TO.N,5V_buck*%
X136100000Y-87400000D03*
%TO.P,R1,2*%
%TO.N,TC+*%
X135080000Y-87400000D03*
%TD*%
%TO.P,R2,1*%
%TO.N,TC+*%
X133800000Y-87400000D03*
%TO.P,R2,2*%
%TO.N,GND*%
X132780000Y-87400000D03*
%TD*%
D15*
%TO.P,R4,1*%
%TO.N,Net-(U1-Ref)*%
X137280000Y-88200000D03*
%TO.P,R4,2*%
%TO.N,GND*%
X138300000Y-88200000D03*
%TD*%
%TO.P,Rg1,1*%
%TO.N,Net-(Rg1-Pad1)*%
X133100000Y-82500000D03*
%TO.P,Rg1,2*%
%TO.N,Net-(Rg1-Pad2)*%
X134120000Y-82500000D03*
%TD*%
D16*
%TO.P,R3,1*%
%TO.N,5V_ref*%
X137900000Y-85900000D03*
%TO.P,R3,2*%
%TO.N,Net-(U1-Ref)*%
X137900000Y-86920000D03*
%TD*%
D17*
%TO.P,U1,1,Rg*%
%TO.N,Net-(Rg1-Pad1)*%
X131600000Y-83900000D03*
%TO.P,U1,2,-*%
%TO.N,TC-*%
X131600000Y-84550000D03*
%TO.P,U1,3,+*%
%TO.N,TC+*%
X131600000Y-85200000D03*
%TO.P,U1,4,V-*%
%TO.N,GND*%
X131600000Y-85850000D03*
%TO.P,U1,5,Ref*%
%TO.N,Net-(U1-Ref)*%
X135825000Y-85850000D03*
%TO.P,U1,6*%
%TO.N,TC_OUT*%
X135825000Y-85200000D03*
%TO.P,U1,7,V+*%
%TO.N,5V_buck*%
X135825000Y-84550000D03*
%TO.P,U1,8,Rg*%
%TO.N,Net-(Rg1-Pad2)*%
X135825000Y-83900000D03*
%TD*%
D18*
%TO.P,C1,1*%
%TO.N,5V_buck*%
X137900000Y-84300000D03*
%TO.P,C1,2*%
%TO.N,GND*%
X137900000Y-83340000D03*
%TD*%
D19*
%TO.N,GND*%
X142000000Y-89900000D03*
%TO.N,5V_ref*%
X141500000Y-83600000D03*
%TO.N,5V_buck*%
X136100000Y-87400000D03*
X134579607Y-84789009D03*
%TO.N,GND*%
X138600000Y-89100000D03*
X132200000Y-87900000D03*
X131100000Y-86700000D03*
X137900000Y-82500000D03*
%TO.N,5V_ref*%
X137900000Y-86000000D03*
%TD*%
D20*
%TO.N,GND*%
X143000000Y-88900000D02*
X142000000Y-89900000D01*
X143000000Y-88600000D02*
X143000000Y-88900000D01*
%TO.N,TC_OUT*%
X142100000Y-85200000D02*
X143000000Y-86100000D01*
X135825000Y-85200000D02*
X142100000Y-85200000D01*
%TO.N,5V_ref*%
X141500000Y-83600000D02*
X143000000Y-83600000D01*
%TO.N,5V_buck*%
X141100000Y-81100000D02*
X143000000Y-81100000D01*
%TO.N,TC+*%
X128200000Y-85200000D02*
X131600000Y-85200000D01*
X127100000Y-86300000D02*
X128200000Y-85200000D01*
%TO.N,TC-*%
X127850000Y-84550000D02*
X131600000Y-84550000D01*
X127100000Y-83800000D02*
X127850000Y-84550000D01*
%TO.N,5V_buck*%
X137900000Y-84300000D02*
X141100000Y-81100000D01*
X135825000Y-84550000D02*
X137650000Y-84550000D01*
X135825000Y-84550000D02*
X134818616Y-84550000D01*
X134818616Y-84550000D02*
X134579607Y-84789009D01*
X137650000Y-84550000D02*
X137900000Y-84300000D01*
%TO.N,GND*%
X131600000Y-86200000D02*
X131100000Y-86700000D01*
X132700000Y-87400000D02*
X132200000Y-87900000D01*
X132780000Y-87400000D02*
X132700000Y-87400000D01*
X138300000Y-88200000D02*
X138300000Y-88800000D01*
X138300000Y-88800000D02*
X138600000Y-89100000D01*
X137900000Y-83340000D02*
X137900000Y-82500000D01*
X131600000Y-85850000D02*
X131600000Y-86200000D01*
%TO.N,5V_ref*%
X137900000Y-85900000D02*
X137900000Y-86000000D01*
%TO.N,TC+*%
X132412499Y-85200000D02*
X131600000Y-85200000D01*
X133800000Y-87400000D02*
X135080000Y-87400000D01*
X133800000Y-87400000D02*
X133800000Y-86587501D01*
X133800000Y-86587501D02*
X132412499Y-85200000D01*
%TO.N,Net-(U1-Ref)*%
X136900000Y-87700000D02*
X136900000Y-86925000D01*
X137280000Y-88200000D02*
X137280000Y-88080000D01*
X137900000Y-87000000D02*
X137700000Y-87200000D01*
X136900000Y-86925000D02*
X135825000Y-85850000D01*
X137175000Y-87200000D02*
X136900000Y-86925000D01*
X137700000Y-87200000D02*
X137175000Y-87200000D01*
X137280000Y-88080000D02*
X136900000Y-87700000D01*
X137900000Y-86920000D02*
X137900000Y-87000000D01*
%TO.N,Net-(Rg1-Pad1)*%
X133100000Y-82500000D02*
X133000000Y-82500000D01*
X133000000Y-82500000D02*
X131600000Y-83900000D01*
%TO.N,Net-(Rg1-Pad2)*%
X134120000Y-82500000D02*
X134425000Y-82500000D01*
X134425000Y-82500000D02*
X135825000Y-83900000D01*
%TD*%
M02*
