G04 #@! TF.GenerationSoftware,KiCad,Pcbnew,9.0.4*
G04 #@! TF.CreationDate,2025-12-19T23:47:42-05:00*
G04 #@! TF.ProjectId,TC_kent,54435f6b-656e-4742-9e6b-696361645f70,rev?*
G04 #@! TF.SameCoordinates,Original*
G04 #@! TF.FileFunction,Legend,Top*
G04 #@! TF.FilePolarity,Positive*
%FSLAX46Y46*%
G04 Gerber Fmt 4.6, Leading zero omitted, Abs format (unit mm)*
G04 Created by KiCad (PCBNEW 9.0.4) date 2025-12-19 23:47:42*
%MOMM*%
%LPD*%
G01*
G04 APERTURE LIST*
G04 Aperture macros list*
%AMRoundRect*
0 Rectangle with rounded corners*
0 $1 Rounding radius*
0 $2 $3 $4 $5 $6 $7 $8 $9 X,Y pos of 4 corners*
0 Add a 4 corners polygon primitive as box body*
4,1,4,$2,$3,$4,$5,$6,$7,$8,$9,$2,$3,0*
0 Add four circle primitives for the rounded corners*
1,1,$1+$1,$2,$3*
1,1,$1+$1,$4,$5*
1,1,$1+$1,$6,$7*
1,1,$1+$1,$8,$9*
0 Add four rect primitives between the rounded corners*
20,1,$1+$1,$2,$3,$4,$5,0*
20,1,$1+$1,$4,$5,$6,$7,0*
20,1,$1+$1,$6,$7,$8,$9,0*
20,1,$1+$1,$8,$9,$2,$3,0*%
G04 Aperture macros list end*
%ADD10C,0.100000*%
%ADD11C,0.150000*%
%ADD12C,0.120000*%
%ADD13C,0.000000*%
%ADD14C,1.200000*%
%ADD15RoundRect,0.250000X0.725000X-0.600000X0.725000X0.600000X-0.725000X0.600000X-0.725000X-0.600000X0*%
%ADD16O,1.950000X1.700000*%
%ADD17RoundRect,0.135000X0.135000X0.185000X-0.135000X0.185000X-0.135000X-0.185000X0.135000X-0.185000X0*%
%ADD18RoundRect,0.250000X-0.750000X0.600000X-0.750000X-0.600000X0.750000X-0.600000X0.750000X0.600000X0*%
%ADD19O,2.000000X1.700000*%
%ADD20RoundRect,0.135000X-0.135000X-0.185000X0.135000X-0.185000X0.135000X0.185000X-0.135000X0.185000X0*%
%ADD21RoundRect,0.135000X-0.185000X0.135000X-0.185000X-0.135000X0.185000X-0.135000X0.185000X0.135000X0*%
%ADD22RoundRect,0.125000X-0.687500X-0.125000X0.687500X-0.125000X0.687500X0.125000X-0.687500X0.125000X0*%
%ADD23RoundRect,0.140000X0.170000X-0.140000X0.170000X0.140000X-0.170000X0.140000X-0.170000X-0.140000X0*%
G04 APERTURE END LIST*
D10*
X119432455Y-91082172D02*
X119432455Y-90382172D01*
X119832455Y-91082172D02*
X119532455Y-90682172D01*
X119832455Y-90382172D02*
X119432455Y-90782172D01*
X120399122Y-91048839D02*
X120332455Y-91082172D01*
X120332455Y-91082172D02*
X120199122Y-91082172D01*
X120199122Y-91082172D02*
X120132455Y-91048839D01*
X120132455Y-91048839D02*
X120099122Y-90982172D01*
X120099122Y-90982172D02*
X120099122Y-90715505D01*
X120099122Y-90715505D02*
X120132455Y-90648839D01*
X120132455Y-90648839D02*
X120199122Y-90615505D01*
X120199122Y-90615505D02*
X120332455Y-90615505D01*
X120332455Y-90615505D02*
X120399122Y-90648839D01*
X120399122Y-90648839D02*
X120432455Y-90715505D01*
X120432455Y-90715505D02*
X120432455Y-90782172D01*
X120432455Y-90782172D02*
X120099122Y-90848839D01*
X120732455Y-90615505D02*
X120732455Y-91082172D01*
X120732455Y-90682172D02*
X120765789Y-90648839D01*
X120765789Y-90648839D02*
X120832455Y-90615505D01*
X120832455Y-90615505D02*
X120932455Y-90615505D01*
X120932455Y-90615505D02*
X120999122Y-90648839D01*
X120999122Y-90648839D02*
X121032455Y-90715505D01*
X121032455Y-90715505D02*
X121032455Y-91082172D01*
X121265788Y-90615505D02*
X121532455Y-90615505D01*
X121365788Y-90382172D02*
X121365788Y-90982172D01*
X121365788Y-90982172D02*
X121399122Y-91048839D01*
X121399122Y-91048839D02*
X121465788Y-91082172D01*
X121465788Y-91082172D02*
X121532455Y-91082172D01*
X122232455Y-90382172D02*
X122699121Y-90382172D01*
X122699121Y-90382172D02*
X122232455Y-91082172D01*
X122232455Y-91082172D02*
X122699121Y-91082172D01*
X122965788Y-91082172D02*
X122965788Y-90382172D01*
X123265788Y-91082172D02*
X123265788Y-90715505D01*
X123265788Y-90715505D02*
X123232455Y-90648839D01*
X123232455Y-90648839D02*
X123165788Y-90615505D01*
X123165788Y-90615505D02*
X123065788Y-90615505D01*
X123065788Y-90615505D02*
X122999122Y-90648839D01*
X122999122Y-90648839D02*
X122965788Y-90682172D01*
X123899121Y-91082172D02*
X123899121Y-90715505D01*
X123899121Y-90715505D02*
X123865788Y-90648839D01*
X123865788Y-90648839D02*
X123799121Y-90615505D01*
X123799121Y-90615505D02*
X123665788Y-90615505D01*
X123665788Y-90615505D02*
X123599121Y-90648839D01*
X123899121Y-91048839D02*
X123832455Y-91082172D01*
X123832455Y-91082172D02*
X123665788Y-91082172D01*
X123665788Y-91082172D02*
X123599121Y-91048839D01*
X123599121Y-91048839D02*
X123565788Y-90982172D01*
X123565788Y-90982172D02*
X123565788Y-90915505D01*
X123565788Y-90915505D02*
X123599121Y-90848839D01*
X123599121Y-90848839D02*
X123665788Y-90815505D01*
X123665788Y-90815505D02*
X123832455Y-90815505D01*
X123832455Y-90815505D02*
X123899121Y-90782172D01*
X124232454Y-90615505D02*
X124232454Y-91082172D01*
X124232454Y-90682172D02*
X124265788Y-90648839D01*
X124265788Y-90648839D02*
X124332454Y-90615505D01*
X124332454Y-90615505D02*
X124432454Y-90615505D01*
X124432454Y-90615505D02*
X124499121Y-90648839D01*
X124499121Y-90648839D02*
X124532454Y-90715505D01*
X124532454Y-90715505D02*
X124532454Y-91082172D01*
X125165787Y-90615505D02*
X125165787Y-91182172D01*
X125165787Y-91182172D02*
X125132454Y-91248839D01*
X125132454Y-91248839D02*
X125099121Y-91282172D01*
X125099121Y-91282172D02*
X125032454Y-91315505D01*
X125032454Y-91315505D02*
X124932454Y-91315505D01*
X124932454Y-91315505D02*
X124865787Y-91282172D01*
X125165787Y-91048839D02*
X125099121Y-91082172D01*
X125099121Y-91082172D02*
X124965787Y-91082172D01*
X124965787Y-91082172D02*
X124899121Y-91048839D01*
X124899121Y-91048839D02*
X124865787Y-91015505D01*
X124865787Y-91015505D02*
X124832454Y-90948839D01*
X124832454Y-90948839D02*
X124832454Y-90748839D01*
X124832454Y-90748839D02*
X124865787Y-90682172D01*
X124865787Y-90682172D02*
X124899121Y-90648839D01*
X124899121Y-90648839D02*
X124965787Y-90615505D01*
X124965787Y-90615505D02*
X125099121Y-90615505D01*
X125099121Y-90615505D02*
X125165787Y-90648839D01*
X119432455Y-91842466D02*
X119665789Y-91842466D01*
X119765789Y-92209133D02*
X119432455Y-92209133D01*
X119432455Y-92209133D02*
X119432455Y-91509133D01*
X119432455Y-91509133D02*
X119765789Y-91509133D01*
X120065788Y-92209133D02*
X120065788Y-91742466D01*
X120065788Y-91809133D02*
X120099122Y-91775800D01*
X120099122Y-91775800D02*
X120165788Y-91742466D01*
X120165788Y-91742466D02*
X120265788Y-91742466D01*
X120265788Y-91742466D02*
X120332455Y-91775800D01*
X120332455Y-91775800D02*
X120365788Y-91842466D01*
X120365788Y-91842466D02*
X120365788Y-92209133D01*
X120365788Y-91842466D02*
X120399122Y-91775800D01*
X120399122Y-91775800D02*
X120465788Y-91742466D01*
X120465788Y-91742466D02*
X120565788Y-91742466D01*
X120565788Y-91742466D02*
X120632455Y-91775800D01*
X120632455Y-91775800D02*
X120665788Y-91842466D01*
X120665788Y-91842466D02*
X120665788Y-92209133D01*
X120999121Y-92209133D02*
X120999121Y-91742466D01*
X120999121Y-91809133D02*
X121032455Y-91775800D01*
X121032455Y-91775800D02*
X121099121Y-91742466D01*
X121099121Y-91742466D02*
X121199121Y-91742466D01*
X121199121Y-91742466D02*
X121265788Y-91775800D01*
X121265788Y-91775800D02*
X121299121Y-91842466D01*
X121299121Y-91842466D02*
X121299121Y-92209133D01*
X121299121Y-91842466D02*
X121332455Y-91775800D01*
X121332455Y-91775800D02*
X121399121Y-91742466D01*
X121399121Y-91742466D02*
X121499121Y-91742466D01*
X121499121Y-91742466D02*
X121565788Y-91775800D01*
X121565788Y-91775800D02*
X121599121Y-91842466D01*
X121599121Y-91842466D02*
X121599121Y-92209133D01*
X122232454Y-92209133D02*
X122232454Y-91842466D01*
X122232454Y-91842466D02*
X122199121Y-91775800D01*
X122199121Y-91775800D02*
X122132454Y-91742466D01*
X122132454Y-91742466D02*
X121999121Y-91742466D01*
X121999121Y-91742466D02*
X121932454Y-91775800D01*
X122232454Y-92175800D02*
X122165788Y-92209133D01*
X122165788Y-92209133D02*
X121999121Y-92209133D01*
X121999121Y-92209133D02*
X121932454Y-92175800D01*
X121932454Y-92175800D02*
X121899121Y-92109133D01*
X121899121Y-92109133D02*
X121899121Y-92042466D01*
X121899121Y-92042466D02*
X121932454Y-91975800D01*
X121932454Y-91975800D02*
X121999121Y-91942466D01*
X121999121Y-91942466D02*
X122165788Y-91942466D01*
X122165788Y-91942466D02*
X122232454Y-91909133D01*
X123232454Y-91509133D02*
X123365787Y-91509133D01*
X123365787Y-91509133D02*
X123432454Y-91542466D01*
X123432454Y-91542466D02*
X123499120Y-91609133D01*
X123499120Y-91609133D02*
X123532454Y-91742466D01*
X123532454Y-91742466D02*
X123532454Y-91975800D01*
X123532454Y-91975800D02*
X123499120Y-92109133D01*
X123499120Y-92109133D02*
X123432454Y-92175800D01*
X123432454Y-92175800D02*
X123365787Y-92209133D01*
X123365787Y-92209133D02*
X123232454Y-92209133D01*
X123232454Y-92209133D02*
X123165787Y-92175800D01*
X123165787Y-92175800D02*
X123099120Y-92109133D01*
X123099120Y-92109133D02*
X123065787Y-91975800D01*
X123065787Y-91975800D02*
X123065787Y-91742466D01*
X123065787Y-91742466D02*
X123099120Y-91609133D01*
X123099120Y-91609133D02*
X123165787Y-91542466D01*
X123165787Y-91542466D02*
X123232454Y-91509133D01*
X124132453Y-91742466D02*
X124132453Y-92209133D01*
X123832453Y-91742466D02*
X123832453Y-92109133D01*
X123832453Y-92109133D02*
X123865787Y-92175800D01*
X123865787Y-92175800D02*
X123932453Y-92209133D01*
X123932453Y-92209133D02*
X124032453Y-92209133D01*
X124032453Y-92209133D02*
X124099120Y-92175800D01*
X124099120Y-92175800D02*
X124132453Y-92142466D01*
X124399120Y-91742466D02*
X124565786Y-92209133D01*
X124732453Y-91742466D02*
X124565786Y-92209133D01*
X124565786Y-92209133D02*
X124499120Y-92375800D01*
X124499120Y-92375800D02*
X124465786Y-92409133D01*
X124465786Y-92409133D02*
X124399120Y-92442466D01*
X125299119Y-92209133D02*
X125299119Y-91842466D01*
X125299119Y-91842466D02*
X125265786Y-91775800D01*
X125265786Y-91775800D02*
X125199119Y-91742466D01*
X125199119Y-91742466D02*
X125065786Y-91742466D01*
X125065786Y-91742466D02*
X124999119Y-91775800D01*
X125299119Y-92175800D02*
X125232453Y-92209133D01*
X125232453Y-92209133D02*
X125065786Y-92209133D01*
X125065786Y-92209133D02*
X124999119Y-92175800D01*
X124999119Y-92175800D02*
X124965786Y-92109133D01*
X124965786Y-92109133D02*
X124965786Y-92042466D01*
X124965786Y-92042466D02*
X124999119Y-91975800D01*
X124999119Y-91975800D02*
X125065786Y-91942466D01*
X125065786Y-91942466D02*
X125232453Y-91942466D01*
X125232453Y-91942466D02*
X125299119Y-91909133D01*
X125632452Y-91742466D02*
X125632452Y-92209133D01*
X125632452Y-91809133D02*
X125665786Y-91775800D01*
X125665786Y-91775800D02*
X125732452Y-91742466D01*
X125732452Y-91742466D02*
X125832452Y-91742466D01*
X125832452Y-91742466D02*
X125899119Y-91775800D01*
X125899119Y-91775800D02*
X125932452Y-91842466D01*
X125932452Y-91842466D02*
X125932452Y-92209133D01*
X126565785Y-91742466D02*
X126565785Y-92309133D01*
X126565785Y-92309133D02*
X126532452Y-92375800D01*
X126532452Y-92375800D02*
X126499119Y-92409133D01*
X126499119Y-92409133D02*
X126432452Y-92442466D01*
X126432452Y-92442466D02*
X126332452Y-92442466D01*
X126332452Y-92442466D02*
X126265785Y-92409133D01*
X126565785Y-92175800D02*
X126499119Y-92209133D01*
X126499119Y-92209133D02*
X126365785Y-92209133D01*
X126365785Y-92209133D02*
X126299119Y-92175800D01*
X126299119Y-92175800D02*
X126265785Y-92142466D01*
X126265785Y-92142466D02*
X126232452Y-92075800D01*
X126232452Y-92075800D02*
X126232452Y-91875800D01*
X126232452Y-91875800D02*
X126265785Y-91809133D01*
X126265785Y-91809133D02*
X126299119Y-91775800D01*
X126299119Y-91775800D02*
X126365785Y-91742466D01*
X126365785Y-91742466D02*
X126499119Y-91742466D01*
X126499119Y-91742466D02*
X126565785Y-91775800D01*
X119965789Y-77915505D02*
X120065789Y-77948839D01*
X120065789Y-77948839D02*
X120099122Y-77982172D01*
X120099122Y-77982172D02*
X120132455Y-78048839D01*
X120132455Y-78048839D02*
X120132455Y-78148839D01*
X120132455Y-78148839D02*
X120099122Y-78215505D01*
X120099122Y-78215505D02*
X120065789Y-78248839D01*
X120065789Y-78248839D02*
X119999122Y-78282172D01*
X119999122Y-78282172D02*
X119732455Y-78282172D01*
X119732455Y-78282172D02*
X119732455Y-77582172D01*
X119732455Y-77582172D02*
X119965789Y-77582172D01*
X119965789Y-77582172D02*
X120032455Y-77615505D01*
X120032455Y-77615505D02*
X120065789Y-77648839D01*
X120065789Y-77648839D02*
X120099122Y-77715505D01*
X120099122Y-77715505D02*
X120099122Y-77782172D01*
X120099122Y-77782172D02*
X120065789Y-77848839D01*
X120065789Y-77848839D02*
X120032455Y-77882172D01*
X120032455Y-77882172D02*
X119965789Y-77915505D01*
X119965789Y-77915505D02*
X119732455Y-77915505D01*
X120532455Y-78282172D02*
X120465789Y-78248839D01*
X120465789Y-78248839D02*
X120432455Y-78182172D01*
X120432455Y-78182172D02*
X120432455Y-77582172D01*
X121099122Y-77815505D02*
X121099122Y-78282172D01*
X120799122Y-77815505D02*
X120799122Y-78182172D01*
X120799122Y-78182172D02*
X120832456Y-78248839D01*
X120832456Y-78248839D02*
X120899122Y-78282172D01*
X120899122Y-78282172D02*
X120999122Y-78282172D01*
X120999122Y-78282172D02*
X121065789Y-78248839D01*
X121065789Y-78248839D02*
X121099122Y-78215505D01*
X121699122Y-78248839D02*
X121632455Y-78282172D01*
X121632455Y-78282172D02*
X121499122Y-78282172D01*
X121499122Y-78282172D02*
X121432455Y-78248839D01*
X121432455Y-78248839D02*
X121399122Y-78182172D01*
X121399122Y-78182172D02*
X121399122Y-77915505D01*
X121399122Y-77915505D02*
X121432455Y-77848839D01*
X121432455Y-77848839D02*
X121499122Y-77815505D01*
X121499122Y-77815505D02*
X121632455Y-77815505D01*
X121632455Y-77815505D02*
X121699122Y-77848839D01*
X121699122Y-77848839D02*
X121732455Y-77915505D01*
X121732455Y-77915505D02*
X121732455Y-77982172D01*
X121732455Y-77982172D02*
X121399122Y-78048839D01*
X122765788Y-77582172D02*
X122765788Y-78082172D01*
X122765788Y-78082172D02*
X122732455Y-78182172D01*
X122732455Y-78182172D02*
X122665788Y-78248839D01*
X122665788Y-78248839D02*
X122565788Y-78282172D01*
X122565788Y-78282172D02*
X122499122Y-78282172D01*
X123399121Y-78282172D02*
X123399121Y-77915505D01*
X123399121Y-77915505D02*
X123365788Y-77848839D01*
X123365788Y-77848839D02*
X123299121Y-77815505D01*
X123299121Y-77815505D02*
X123165788Y-77815505D01*
X123165788Y-77815505D02*
X123099121Y-77848839D01*
X123399121Y-78248839D02*
X123332455Y-78282172D01*
X123332455Y-78282172D02*
X123165788Y-78282172D01*
X123165788Y-78282172D02*
X123099121Y-78248839D01*
X123099121Y-78248839D02*
X123065788Y-78182172D01*
X123065788Y-78182172D02*
X123065788Y-78115505D01*
X123065788Y-78115505D02*
X123099121Y-78048839D01*
X123099121Y-78048839D02*
X123165788Y-78015505D01*
X123165788Y-78015505D02*
X123332455Y-78015505D01*
X123332455Y-78015505D02*
X123399121Y-77982172D01*
X123665788Y-77815505D02*
X123832454Y-78282172D01*
X123999121Y-77815505D02*
X123832454Y-78282172D01*
X123832454Y-78282172D02*
X123765788Y-78448839D01*
X123765788Y-78448839D02*
X123732454Y-78482172D01*
X123732454Y-78482172D02*
X123665788Y-78515505D01*
X125199120Y-78282172D02*
X124965787Y-77948839D01*
X124799120Y-78282172D02*
X124799120Y-77582172D01*
X124799120Y-77582172D02*
X125065787Y-77582172D01*
X125065787Y-77582172D02*
X125132454Y-77615505D01*
X125132454Y-77615505D02*
X125165787Y-77648839D01*
X125165787Y-77648839D02*
X125199120Y-77715505D01*
X125199120Y-77715505D02*
X125199120Y-77815505D01*
X125199120Y-77815505D02*
X125165787Y-77882172D01*
X125165787Y-77882172D02*
X125132454Y-77915505D01*
X125132454Y-77915505D02*
X125065787Y-77948839D01*
X125065787Y-77948839D02*
X124799120Y-77948839D01*
X125799120Y-78282172D02*
X125799120Y-77915505D01*
X125799120Y-77915505D02*
X125765787Y-77848839D01*
X125765787Y-77848839D02*
X125699120Y-77815505D01*
X125699120Y-77815505D02*
X125565787Y-77815505D01*
X125565787Y-77815505D02*
X125499120Y-77848839D01*
X125799120Y-78248839D02*
X125732454Y-78282172D01*
X125732454Y-78282172D02*
X125565787Y-78282172D01*
X125565787Y-78282172D02*
X125499120Y-78248839D01*
X125499120Y-78248839D02*
X125465787Y-78182172D01*
X125465787Y-78182172D02*
X125465787Y-78115505D01*
X125465787Y-78115505D02*
X125499120Y-78048839D01*
X125499120Y-78048839D02*
X125565787Y-78015505D01*
X125565787Y-78015505D02*
X125732454Y-78015505D01*
X125732454Y-78015505D02*
X125799120Y-77982172D01*
X126432453Y-78248839D02*
X126365787Y-78282172D01*
X126365787Y-78282172D02*
X126232453Y-78282172D01*
X126232453Y-78282172D02*
X126165787Y-78248839D01*
X126165787Y-78248839D02*
X126132453Y-78215505D01*
X126132453Y-78215505D02*
X126099120Y-78148839D01*
X126099120Y-78148839D02*
X126099120Y-77948839D01*
X126099120Y-77948839D02*
X126132453Y-77882172D01*
X126132453Y-77882172D02*
X126165787Y-77848839D01*
X126165787Y-77848839D02*
X126232453Y-77815505D01*
X126232453Y-77815505D02*
X126365787Y-77815505D01*
X126365787Y-77815505D02*
X126432453Y-77848839D01*
X126732453Y-78282172D02*
X126732453Y-77815505D01*
X126732453Y-77582172D02*
X126699120Y-77615505D01*
X126699120Y-77615505D02*
X126732453Y-77648839D01*
X126732453Y-77648839D02*
X126765787Y-77615505D01*
X126765787Y-77615505D02*
X126732453Y-77582172D01*
X126732453Y-77582172D02*
X126732453Y-77648839D01*
X127065786Y-77815505D02*
X127065786Y-78282172D01*
X127065786Y-77882172D02*
X127099120Y-77848839D01*
X127099120Y-77848839D02*
X127165786Y-77815505D01*
X127165786Y-77815505D02*
X127265786Y-77815505D01*
X127265786Y-77815505D02*
X127332453Y-77848839D01*
X127332453Y-77848839D02*
X127365786Y-77915505D01*
X127365786Y-77915505D02*
X127365786Y-78282172D01*
X127999119Y-77815505D02*
X127999119Y-78382172D01*
X127999119Y-78382172D02*
X127965786Y-78448839D01*
X127965786Y-78448839D02*
X127932453Y-78482172D01*
X127932453Y-78482172D02*
X127865786Y-78515505D01*
X127865786Y-78515505D02*
X127765786Y-78515505D01*
X127765786Y-78515505D02*
X127699119Y-78482172D01*
X127999119Y-78248839D02*
X127932453Y-78282172D01*
X127932453Y-78282172D02*
X127799119Y-78282172D01*
X127799119Y-78282172D02*
X127732453Y-78248839D01*
X127732453Y-78248839D02*
X127699119Y-78215505D01*
X127699119Y-78215505D02*
X127665786Y-78148839D01*
X127665786Y-78148839D02*
X127665786Y-77948839D01*
X127665786Y-77948839D02*
X127699119Y-77882172D01*
X127699119Y-77882172D02*
X127732453Y-77848839D01*
X127732453Y-77848839D02*
X127799119Y-77815505D01*
X127799119Y-77815505D02*
X127932453Y-77815505D01*
X127932453Y-77815505D02*
X127999119Y-77848839D01*
X129299119Y-77948839D02*
X129265785Y-77915505D01*
X129265785Y-77915505D02*
X129199119Y-77882172D01*
X129199119Y-77882172D02*
X129132452Y-77882172D01*
X129132452Y-77882172D02*
X129065785Y-77915505D01*
X129065785Y-77915505D02*
X129032452Y-77948839D01*
X129032452Y-77948839D02*
X128999119Y-78015505D01*
X128999119Y-78015505D02*
X128999119Y-78082172D01*
X128999119Y-78082172D02*
X129032452Y-78148839D01*
X129032452Y-78148839D02*
X129065785Y-78182172D01*
X129065785Y-78182172D02*
X129132452Y-78215505D01*
X129132452Y-78215505D02*
X129199119Y-78215505D01*
X129199119Y-78215505D02*
X129265785Y-78182172D01*
X129265785Y-78182172D02*
X129299119Y-78148839D01*
X129299119Y-77882172D02*
X129299119Y-78148839D01*
X129299119Y-78148839D02*
X129332452Y-78182172D01*
X129332452Y-78182172D02*
X129365785Y-78182172D01*
X129365785Y-78182172D02*
X129432452Y-78148839D01*
X129432452Y-78148839D02*
X129465785Y-78082172D01*
X129465785Y-78082172D02*
X129465785Y-77915505D01*
X129465785Y-77915505D02*
X129399119Y-77815505D01*
X129399119Y-77815505D02*
X129299119Y-77748839D01*
X129299119Y-77748839D02*
X129165785Y-77715505D01*
X129165785Y-77715505D02*
X129032452Y-77748839D01*
X129032452Y-77748839D02*
X128932452Y-77815505D01*
X128932452Y-77815505D02*
X128865785Y-77915505D01*
X128865785Y-77915505D02*
X128832452Y-78048839D01*
X128832452Y-78048839D02*
X128865785Y-78182172D01*
X128865785Y-78182172D02*
X128932452Y-78282172D01*
X128932452Y-78282172D02*
X129032452Y-78348839D01*
X129032452Y-78348839D02*
X129165785Y-78382172D01*
X129165785Y-78382172D02*
X129299119Y-78348839D01*
X129299119Y-78348839D02*
X129399119Y-78282172D01*
X130499118Y-77582172D02*
X130499118Y-78082172D01*
X130499118Y-78082172D02*
X130465785Y-78182172D01*
X130465785Y-78182172D02*
X130399118Y-78248839D01*
X130399118Y-78248839D02*
X130299118Y-78282172D01*
X130299118Y-78282172D02*
X130232452Y-78282172D01*
X130832451Y-78282172D02*
X130832451Y-77582172D01*
X130832451Y-77915505D02*
X131232451Y-77915505D01*
X131232451Y-78282172D02*
X131232451Y-77582172D01*
X131565784Y-77582172D02*
X131565784Y-78148839D01*
X131565784Y-78148839D02*
X131599118Y-78215505D01*
X131599118Y-78215505D02*
X131632451Y-78248839D01*
X131632451Y-78248839D02*
X131699118Y-78282172D01*
X131699118Y-78282172D02*
X131832451Y-78282172D01*
X131832451Y-78282172D02*
X131899118Y-78248839D01*
X131899118Y-78248839D02*
X131932451Y-78215505D01*
X131932451Y-78215505D02*
X131965784Y-78148839D01*
X131965784Y-78148839D02*
X131965784Y-77582172D01*
X119699122Y-78775800D02*
X119732455Y-78742466D01*
X119732455Y-78742466D02*
X119799122Y-78709133D01*
X119799122Y-78709133D02*
X119965789Y-78709133D01*
X119965789Y-78709133D02*
X120032455Y-78742466D01*
X120032455Y-78742466D02*
X120065789Y-78775800D01*
X120065789Y-78775800D02*
X120099122Y-78842466D01*
X120099122Y-78842466D02*
X120099122Y-78909133D01*
X120099122Y-78909133D02*
X120065789Y-79009133D01*
X120065789Y-79009133D02*
X119665789Y-79409133D01*
X119665789Y-79409133D02*
X120099122Y-79409133D01*
X120365789Y-78775800D02*
X120399122Y-78742466D01*
X120399122Y-78742466D02*
X120465789Y-78709133D01*
X120465789Y-78709133D02*
X120632456Y-78709133D01*
X120632456Y-78709133D02*
X120699122Y-78742466D01*
X120699122Y-78742466D02*
X120732456Y-78775800D01*
X120732456Y-78775800D02*
X120765789Y-78842466D01*
X120765789Y-78842466D02*
X120765789Y-78909133D01*
X120765789Y-78909133D02*
X120732456Y-79009133D01*
X120732456Y-79009133D02*
X120332456Y-79409133D01*
X120332456Y-79409133D02*
X120765789Y-79409133D01*
X120999123Y-78709133D02*
X121465789Y-79409133D01*
X121465789Y-78709133D02*
X120999123Y-79409133D01*
X121632456Y-78709133D02*
X122032456Y-78709133D01*
X121832456Y-79409133D02*
X121832456Y-78709133D01*
X122699122Y-78709133D02*
X123099122Y-78709133D01*
X122899122Y-79409133D02*
X122899122Y-78709133D01*
X123732455Y-79342466D02*
X123699122Y-79375800D01*
X123699122Y-79375800D02*
X123599122Y-79409133D01*
X123599122Y-79409133D02*
X123532455Y-79409133D01*
X123532455Y-79409133D02*
X123432455Y-79375800D01*
X123432455Y-79375800D02*
X123365789Y-79309133D01*
X123365789Y-79309133D02*
X123332455Y-79242466D01*
X123332455Y-79242466D02*
X123299122Y-79109133D01*
X123299122Y-79109133D02*
X123299122Y-79009133D01*
X123299122Y-79009133D02*
X123332455Y-78875800D01*
X123332455Y-78875800D02*
X123365789Y-78809133D01*
X123365789Y-78809133D02*
X123432455Y-78742466D01*
X123432455Y-78742466D02*
X123532455Y-78709133D01*
X123532455Y-78709133D02*
X123599122Y-78709133D01*
X123599122Y-78709133D02*
X123699122Y-78742466D01*
X123699122Y-78742466D02*
X123732455Y-78775800D01*
X123865789Y-79475800D02*
X124399122Y-79475800D01*
X124565788Y-79409133D02*
X124565788Y-78709133D01*
X124965788Y-79409133D02*
X124665788Y-79009133D01*
X124965788Y-78709133D02*
X124565788Y-79109133D01*
X125199122Y-78709133D02*
X125665788Y-78709133D01*
X125665788Y-78709133D02*
X125199122Y-79409133D01*
X125199122Y-79409133D02*
X125665788Y-79409133D01*
D11*
X147054819Y-85233333D02*
X147769104Y-85233333D01*
X147769104Y-85233333D02*
X147911961Y-85280952D01*
X147911961Y-85280952D02*
X148007200Y-85376190D01*
X148007200Y-85376190D02*
X148054819Y-85519047D01*
X148054819Y-85519047D02*
X148054819Y-85614285D01*
X148054819Y-84233333D02*
X148054819Y-84804761D01*
X148054819Y-84519047D02*
X147054819Y-84519047D01*
X147054819Y-84519047D02*
X147197676Y-84614285D01*
X147197676Y-84614285D02*
X147292914Y-84709523D01*
X147292914Y-84709523D02*
X147340533Y-84804761D01*
X135533333Y-89154819D02*
X135200000Y-88678628D01*
X134961905Y-89154819D02*
X134961905Y-88154819D01*
X134961905Y-88154819D02*
X135342857Y-88154819D01*
X135342857Y-88154819D02*
X135438095Y-88202438D01*
X135438095Y-88202438D02*
X135485714Y-88250057D01*
X135485714Y-88250057D02*
X135533333Y-88345295D01*
X135533333Y-88345295D02*
X135533333Y-88488152D01*
X135533333Y-88488152D02*
X135485714Y-88583390D01*
X135485714Y-88583390D02*
X135438095Y-88631009D01*
X135438095Y-88631009D02*
X135342857Y-88678628D01*
X135342857Y-88678628D02*
X134961905Y-88678628D01*
X136485714Y-89154819D02*
X135914286Y-89154819D01*
X136200000Y-89154819D02*
X136200000Y-88154819D01*
X136200000Y-88154819D02*
X136104762Y-88297676D01*
X136104762Y-88297676D02*
X136009524Y-88392914D01*
X136009524Y-88392914D02*
X135914286Y-88440533D01*
X130154819Y-81933333D02*
X130869104Y-81933333D01*
X130869104Y-81933333D02*
X131011961Y-81980952D01*
X131011961Y-81980952D02*
X131107200Y-82076190D01*
X131107200Y-82076190D02*
X131154819Y-82219047D01*
X131154819Y-82219047D02*
X131154819Y-82314285D01*
X130250057Y-81504761D02*
X130202438Y-81457142D01*
X130202438Y-81457142D02*
X130154819Y-81361904D01*
X130154819Y-81361904D02*
X130154819Y-81123809D01*
X130154819Y-81123809D02*
X130202438Y-81028571D01*
X130202438Y-81028571D02*
X130250057Y-80980952D01*
X130250057Y-80980952D02*
X130345295Y-80933333D01*
X130345295Y-80933333D02*
X130440533Y-80933333D01*
X130440533Y-80933333D02*
X130583390Y-80980952D01*
X130583390Y-80980952D02*
X131154819Y-81552380D01*
X131154819Y-81552380D02*
X131154819Y-80933333D01*
X133233333Y-89054819D02*
X132900000Y-88578628D01*
X132661905Y-89054819D02*
X132661905Y-88054819D01*
X132661905Y-88054819D02*
X133042857Y-88054819D01*
X133042857Y-88054819D02*
X133138095Y-88102438D01*
X133138095Y-88102438D02*
X133185714Y-88150057D01*
X133185714Y-88150057D02*
X133233333Y-88245295D01*
X133233333Y-88245295D02*
X133233333Y-88388152D01*
X133233333Y-88388152D02*
X133185714Y-88483390D01*
X133185714Y-88483390D02*
X133138095Y-88531009D01*
X133138095Y-88531009D02*
X133042857Y-88578628D01*
X133042857Y-88578628D02*
X132661905Y-88578628D01*
X133614286Y-88150057D02*
X133661905Y-88102438D01*
X133661905Y-88102438D02*
X133757143Y-88054819D01*
X133757143Y-88054819D02*
X133995238Y-88054819D01*
X133995238Y-88054819D02*
X134090476Y-88102438D01*
X134090476Y-88102438D02*
X134138095Y-88150057D01*
X134138095Y-88150057D02*
X134185714Y-88245295D01*
X134185714Y-88245295D02*
X134185714Y-88340533D01*
X134185714Y-88340533D02*
X134138095Y-88483390D01*
X134138095Y-88483390D02*
X133566667Y-89054819D01*
X133566667Y-89054819D02*
X134185714Y-89054819D01*
X137633333Y-91854819D02*
X137300000Y-91378628D01*
X137061905Y-91854819D02*
X137061905Y-90854819D01*
X137061905Y-90854819D02*
X137442857Y-90854819D01*
X137442857Y-90854819D02*
X137538095Y-90902438D01*
X137538095Y-90902438D02*
X137585714Y-90950057D01*
X137585714Y-90950057D02*
X137633333Y-91045295D01*
X137633333Y-91045295D02*
X137633333Y-91188152D01*
X137633333Y-91188152D02*
X137585714Y-91283390D01*
X137585714Y-91283390D02*
X137538095Y-91331009D01*
X137538095Y-91331009D02*
X137442857Y-91378628D01*
X137442857Y-91378628D02*
X137061905Y-91378628D01*
X138490476Y-91188152D02*
X138490476Y-91854819D01*
X138252381Y-90807200D02*
X138014286Y-91521485D01*
X138014286Y-91521485D02*
X138633333Y-91521485D01*
X132980952Y-81454819D02*
X132647619Y-80978628D01*
X132409524Y-81454819D02*
X132409524Y-80454819D01*
X132409524Y-80454819D02*
X132790476Y-80454819D01*
X132790476Y-80454819D02*
X132885714Y-80502438D01*
X132885714Y-80502438D02*
X132933333Y-80550057D01*
X132933333Y-80550057D02*
X132980952Y-80645295D01*
X132980952Y-80645295D02*
X132980952Y-80788152D01*
X132980952Y-80788152D02*
X132933333Y-80883390D01*
X132933333Y-80883390D02*
X132885714Y-80931009D01*
X132885714Y-80931009D02*
X132790476Y-80978628D01*
X132790476Y-80978628D02*
X132409524Y-80978628D01*
X133838095Y-80788152D02*
X133838095Y-81597676D01*
X133838095Y-81597676D02*
X133790476Y-81692914D01*
X133790476Y-81692914D02*
X133742857Y-81740533D01*
X133742857Y-81740533D02*
X133647619Y-81788152D01*
X133647619Y-81788152D02*
X133504762Y-81788152D01*
X133504762Y-81788152D02*
X133409524Y-81740533D01*
X133838095Y-81407200D02*
X133742857Y-81454819D01*
X133742857Y-81454819D02*
X133552381Y-81454819D01*
X133552381Y-81454819D02*
X133457143Y-81407200D01*
X133457143Y-81407200D02*
X133409524Y-81359580D01*
X133409524Y-81359580D02*
X133361905Y-81264342D01*
X133361905Y-81264342D02*
X133361905Y-80978628D01*
X133361905Y-80978628D02*
X133409524Y-80883390D01*
X133409524Y-80883390D02*
X133457143Y-80835771D01*
X133457143Y-80835771D02*
X133552381Y-80788152D01*
X133552381Y-80788152D02*
X133742857Y-80788152D01*
X133742857Y-80788152D02*
X133838095Y-80835771D01*
X134838095Y-81454819D02*
X134266667Y-81454819D01*
X134552381Y-81454819D02*
X134552381Y-80454819D01*
X134552381Y-80454819D02*
X134457143Y-80597676D01*
X134457143Y-80597676D02*
X134361905Y-80692914D01*
X134361905Y-80692914D02*
X134266667Y-80740533D01*
X137854819Y-89866666D02*
X137378628Y-90199999D01*
X137854819Y-90438094D02*
X136854819Y-90438094D01*
X136854819Y-90438094D02*
X136854819Y-90057142D01*
X136854819Y-90057142D02*
X136902438Y-89961904D01*
X136902438Y-89961904D02*
X136950057Y-89914285D01*
X136950057Y-89914285D02*
X137045295Y-89866666D01*
X137045295Y-89866666D02*
X137188152Y-89866666D01*
X137188152Y-89866666D02*
X137283390Y-89914285D01*
X137283390Y-89914285D02*
X137331009Y-89961904D01*
X137331009Y-89961904D02*
X137378628Y-90057142D01*
X137378628Y-90057142D02*
X137378628Y-90438094D01*
X136854819Y-89533332D02*
X136854819Y-88914285D01*
X136854819Y-88914285D02*
X137235771Y-89247618D01*
X137235771Y-89247618D02*
X137235771Y-89104761D01*
X137235771Y-89104761D02*
X137283390Y-89009523D01*
X137283390Y-89009523D02*
X137331009Y-88961904D01*
X137331009Y-88961904D02*
X137426247Y-88914285D01*
X137426247Y-88914285D02*
X137664342Y-88914285D01*
X137664342Y-88914285D02*
X137759580Y-88961904D01*
X137759580Y-88961904D02*
X137807200Y-89009523D01*
X137807200Y-89009523D02*
X137854819Y-89104761D01*
X137854819Y-89104761D02*
X137854819Y-89390475D01*
X137854819Y-89390475D02*
X137807200Y-89485713D01*
X137807200Y-89485713D02*
X137759580Y-89533332D01*
X130338095Y-87154819D02*
X130338095Y-87964342D01*
X130338095Y-87964342D02*
X130385714Y-88059580D01*
X130385714Y-88059580D02*
X130433333Y-88107200D01*
X130433333Y-88107200D02*
X130528571Y-88154819D01*
X130528571Y-88154819D02*
X130719047Y-88154819D01*
X130719047Y-88154819D02*
X130814285Y-88107200D01*
X130814285Y-88107200D02*
X130861904Y-88059580D01*
X130861904Y-88059580D02*
X130909523Y-87964342D01*
X130909523Y-87964342D02*
X130909523Y-87154819D01*
X131909523Y-88154819D02*
X131338095Y-88154819D01*
X131623809Y-88154819D02*
X131623809Y-87154819D01*
X131623809Y-87154819D02*
X131528571Y-87297676D01*
X131528571Y-87297676D02*
X131433333Y-87392914D01*
X131433333Y-87392914D02*
X131338095Y-87440533D01*
X137159580Y-82566666D02*
X137207200Y-82614285D01*
X137207200Y-82614285D02*
X137254819Y-82757142D01*
X137254819Y-82757142D02*
X137254819Y-82852380D01*
X137254819Y-82852380D02*
X137207200Y-82995237D01*
X137207200Y-82995237D02*
X137111961Y-83090475D01*
X137111961Y-83090475D02*
X137016723Y-83138094D01*
X137016723Y-83138094D02*
X136826247Y-83185713D01*
X136826247Y-83185713D02*
X136683390Y-83185713D01*
X136683390Y-83185713D02*
X136492914Y-83138094D01*
X136492914Y-83138094D02*
X136397676Y-83090475D01*
X136397676Y-83090475D02*
X136302438Y-82995237D01*
X136302438Y-82995237D02*
X136254819Y-82852380D01*
X136254819Y-82852380D02*
X136254819Y-82757142D01*
X136254819Y-82757142D02*
X136302438Y-82614285D01*
X136302438Y-82614285D02*
X136350057Y-82566666D01*
X137254819Y-81614285D02*
X137254819Y-82185713D01*
X137254819Y-81899999D02*
X136254819Y-81899999D01*
X136254819Y-81899999D02*
X136397676Y-81995237D01*
X136397676Y-81995237D02*
X136492914Y-82090475D01*
X136492914Y-82090475D02*
X136540533Y-82185713D01*
D12*
X140250000Y-90200000D02*
X140250000Y-91450000D01*
X140250000Y-91450000D02*
X141500000Y-91450000D01*
X140540000Y-78540000D02*
X140540000Y-91160000D01*
X140540000Y-91160000D02*
X146510000Y-91160000D01*
X140550000Y-78550000D02*
X140550000Y-80350000D01*
X140550000Y-80350000D02*
X141300000Y-80350000D01*
X140550000Y-81850000D02*
X140550000Y-87850000D01*
X140550000Y-87850000D02*
X141300000Y-87850000D01*
X140550000Y-89350000D02*
X140550000Y-91150000D01*
X140550000Y-91150000D02*
X141300000Y-91150000D01*
X141300000Y-78550000D02*
X140550000Y-78550000D01*
X141300000Y-80350000D02*
X141300000Y-78550000D01*
X141300000Y-81850000D02*
X140550000Y-81850000D01*
X141300000Y-87850000D02*
X141300000Y-81850000D01*
X141300000Y-89350000D02*
X140550000Y-89350000D01*
X141300000Y-91150000D02*
X141300000Y-89350000D01*
X142800000Y-78550000D02*
X142800000Y-79300000D01*
X142800000Y-79300000D02*
X145750000Y-79300000D01*
X142800000Y-90400000D02*
X144140000Y-90400000D01*
X142800000Y-91150000D02*
X142800000Y-90400000D01*
X145750000Y-79300000D02*
X145750000Y-84850000D01*
X145750000Y-84850000D02*
X145750000Y-89340000D01*
X146510000Y-78540000D02*
X140540000Y-78540000D01*
X146510000Y-91160000D02*
X146510000Y-78540000D01*
X135743641Y-87020000D02*
X135436359Y-87020000D01*
X135743641Y-87780000D02*
X135436359Y-87780000D01*
D13*
G36*
X136537444Y-78476710D02*
G01*
X136566161Y-78477401D01*
X136595180Y-78478202D01*
X136625241Y-78479140D01*
X136657089Y-78480239D01*
X136691466Y-78481523D01*
X136729115Y-78483018D01*
X136741221Y-78483514D01*
X136775715Y-78484935D01*
X136775715Y-78749303D01*
X136775702Y-78782385D01*
X136775666Y-78814269D01*
X136775607Y-78844703D01*
X136775527Y-78873432D01*
X136775428Y-78900204D01*
X136775311Y-78924764D01*
X136775177Y-78946860D01*
X136775029Y-78966237D01*
X136774868Y-78982644D01*
X136774694Y-78995825D01*
X136774511Y-79005527D01*
X136774319Y-79011498D01*
X136774123Y-79013485D01*
X136772154Y-79012310D01*
X136766913Y-79008959D01*
X136758658Y-79003602D01*
X136747651Y-78996410D01*
X136734152Y-78987555D01*
X136718420Y-78977206D01*
X136700716Y-78965536D01*
X136681300Y-78952716D01*
X136660432Y-78938916D01*
X136638373Y-78924307D01*
X136622351Y-78913685D01*
X136472171Y-78814071D01*
X136472171Y-78644663D01*
X136472171Y-78475254D01*
X136537444Y-78476710D01*
G37*
G36*
X135684314Y-79164529D02*
G01*
X135706185Y-79166603D01*
X135725530Y-79171124D01*
X135743195Y-79178470D01*
X135760027Y-79189021D01*
X135776870Y-79203155D01*
X135782372Y-79208469D01*
X135798725Y-79227221D01*
X135811064Y-79247124D01*
X135819526Y-79268509D01*
X135824248Y-79291704D01*
X135825425Y-79312221D01*
X135824674Y-79330142D01*
X135822160Y-79345966D01*
X135817490Y-79361353D01*
X135810271Y-79377967D01*
X135809566Y-79379411D01*
X135797651Y-79399022D01*
X135782334Y-79416829D01*
X135764274Y-79432260D01*
X135744131Y-79444743D01*
X135724778Y-79452980D01*
X135708681Y-79457077D01*
X135690478Y-79459506D01*
X135671661Y-79460209D01*
X135653719Y-79459128D01*
X135638726Y-79456362D01*
X135615551Y-79448025D01*
X135594425Y-79436263D01*
X135575651Y-79421465D01*
X135559529Y-79404021D01*
X135546363Y-79384319D01*
X135536452Y-79362749D01*
X135530099Y-79339700D01*
X135527604Y-79315563D01*
X135527578Y-79312829D01*
X135529604Y-79287647D01*
X135535552Y-79263813D01*
X135545228Y-79241640D01*
X135558436Y-79221441D01*
X135574982Y-79203529D01*
X135594672Y-79188218D01*
X135610815Y-79178914D01*
X135627414Y-79171685D01*
X135643870Y-79167027D01*
X135661458Y-79164690D01*
X135681453Y-79164423D01*
X135684314Y-79164529D01*
G37*
G36*
X136032971Y-79348060D02*
G01*
X136049726Y-79350108D01*
X136062494Y-79353371D01*
X136076405Y-79360318D01*
X136089185Y-79370564D01*
X136099956Y-79383181D01*
X136107841Y-79397241D01*
X136110231Y-79403849D01*
X136112870Y-79416716D01*
X136113215Y-79430434D01*
X136111173Y-79445513D01*
X136106649Y-79462464D01*
X136099551Y-79481797D01*
X136093200Y-79496576D01*
X136083763Y-79516065D01*
X136072946Y-79535887D01*
X136061175Y-79555426D01*
X136048873Y-79574065D01*
X136036466Y-79591186D01*
X136024380Y-79606172D01*
X136013039Y-79618404D01*
X136003632Y-79626693D01*
X135989758Y-79635028D01*
X135974067Y-79640716D01*
X135957814Y-79643449D01*
X135942254Y-79642919D01*
X135939475Y-79642423D01*
X135922845Y-79636863D01*
X135907406Y-79627242D01*
X135893165Y-79613565D01*
X135880127Y-79595839D01*
X135875988Y-79588922D01*
X135861738Y-79561095D01*
X135851192Y-79534306D01*
X135844322Y-79508701D01*
X135841101Y-79484425D01*
X135841503Y-79461626D01*
X135845499Y-79440447D01*
X135853064Y-79421035D01*
X135864170Y-79403535D01*
X135878789Y-79388094D01*
X135896895Y-79374856D01*
X135917801Y-79364244D01*
X135934238Y-79358495D01*
X135952978Y-79353877D01*
X135973122Y-79350456D01*
X135993769Y-79348301D01*
X136014019Y-79347480D01*
X136032971Y-79348060D01*
G37*
G36*
X135703975Y-79523466D02*
G01*
X135724771Y-79530885D01*
X135742554Y-79540794D01*
X135757773Y-79552329D01*
X135773204Y-79566833D01*
X135788207Y-79583473D01*
X135802137Y-79601418D01*
X135814353Y-79619835D01*
X135824211Y-79637890D01*
X135831068Y-79654750D01*
X135831448Y-79655961D01*
X135834983Y-79674055D01*
X135834527Y-79691524D01*
X135830327Y-79707957D01*
X135822632Y-79722941D01*
X135811691Y-79736065D01*
X135797752Y-79746916D01*
X135781064Y-79755084D01*
X135769537Y-79758597D01*
X135755980Y-79761225D01*
X135739215Y-79763459D01*
X135720268Y-79765245D01*
X135700163Y-79766524D01*
X135679925Y-79767241D01*
X135660579Y-79767341D01*
X135643148Y-79766766D01*
X135633712Y-79766042D01*
X135622514Y-79764679D01*
X135609975Y-79762745D01*
X135597333Y-79760472D01*
X135585825Y-79758089D01*
X135576687Y-79755827D01*
X135573427Y-79754824D01*
X135556728Y-79747087D01*
X135542598Y-79736480D01*
X135531341Y-79723498D01*
X135523258Y-79708635D01*
X135518651Y-79692387D01*
X135517822Y-79675246D01*
X135519045Y-79665831D01*
X135523126Y-79651897D01*
X135530075Y-79636155D01*
X135539378Y-79619357D01*
X135550521Y-79602253D01*
X135562989Y-79585593D01*
X135576267Y-79570128D01*
X135589841Y-79556609D01*
X135599471Y-79548529D01*
X135619765Y-79535265D01*
X135640566Y-79526116D01*
X135661669Y-79521092D01*
X135682873Y-79520205D01*
X135703975Y-79523466D01*
G37*
G36*
X135976773Y-78984332D02*
G01*
X135991094Y-78989399D01*
X136002785Y-78996835D01*
X136015382Y-79007848D01*
X136028560Y-79021961D01*
X136041995Y-79038697D01*
X136055362Y-79057579D01*
X136068336Y-79078132D01*
X136080594Y-79099878D01*
X136091810Y-79122341D01*
X136101660Y-79145044D01*
X136107310Y-79160083D01*
X136112905Y-79180902D01*
X136114617Y-79200306D01*
X136112459Y-79218195D01*
X136106445Y-79234466D01*
X136096588Y-79249018D01*
X136095414Y-79250349D01*
X136083875Y-79260571D01*
X136069777Y-79269052D01*
X136054724Y-79274883D01*
X136050184Y-79275995D01*
X136040973Y-79277235D01*
X136028717Y-79277915D01*
X136014576Y-79278049D01*
X135999713Y-79277651D01*
X135985288Y-79276734D01*
X135972463Y-79275313D01*
X135970763Y-79275059D01*
X135955954Y-79272110D01*
X135940114Y-79267856D01*
X135924623Y-79262745D01*
X135910859Y-79257224D01*
X135901900Y-79252745D01*
X135883259Y-79239912D01*
X135868097Y-79224777D01*
X135856446Y-79207504D01*
X135848336Y-79188261D01*
X135843798Y-79167214D01*
X135842862Y-79144529D01*
X135845560Y-79120372D01*
X135851921Y-79094910D01*
X135861977Y-79068308D01*
X135866165Y-79059195D01*
X135877201Y-79038015D01*
X135888212Y-79020721D01*
X135899495Y-79006975D01*
X135911346Y-78996438D01*
X135924062Y-78988775D01*
X135930353Y-78986096D01*
X135944878Y-78982595D01*
X135960858Y-78982035D01*
X135976773Y-78984332D01*
G37*
G36*
X135362191Y-79349102D02*
G01*
X135382175Y-79351397D01*
X135409698Y-79356857D01*
X135433808Y-79364589D01*
X135454734Y-79374695D01*
X135472709Y-79387277D01*
X135480894Y-79394759D01*
X135494860Y-79411545D01*
X135505020Y-79430144D01*
X135511368Y-79450489D01*
X135513904Y-79472512D01*
X135512624Y-79496149D01*
X135507526Y-79521333D01*
X135498607Y-79547997D01*
X135488107Y-79571599D01*
X135476565Y-79592918D01*
X135464846Y-79610225D01*
X135452741Y-79623740D01*
X135440045Y-79633686D01*
X135426551Y-79640283D01*
X135422984Y-79641449D01*
X135411060Y-79643749D01*
X135397760Y-79644377D01*
X135385061Y-79643322D01*
X135377929Y-79641686D01*
X135366338Y-79637059D01*
X135355274Y-79630470D01*
X135344196Y-79621466D01*
X135332561Y-79609596D01*
X135319828Y-79594408D01*
X135317134Y-79590974D01*
X135295179Y-79559920D01*
X135275258Y-79526098D01*
X135258074Y-79490766D01*
X135250405Y-79472082D01*
X135246676Y-79462035D01*
X135244293Y-79454284D01*
X135242951Y-79447223D01*
X135242348Y-79439247D01*
X135242177Y-79428751D01*
X135242177Y-79428676D01*
X135242238Y-79418237D01*
X135242672Y-79410777D01*
X135243690Y-79405047D01*
X135245503Y-79399796D01*
X135247931Y-79394561D01*
X135254379Y-79384325D01*
X135263230Y-79374078D01*
X135273281Y-79365003D01*
X135283329Y-79358279D01*
X135286436Y-79356779D01*
X135301312Y-79352090D01*
X135319354Y-79349222D01*
X135339875Y-79348213D01*
X135362191Y-79349102D01*
G37*
G36*
X135704678Y-78859328D02*
G01*
X135727343Y-78861023D01*
X135748429Y-78863715D01*
X135767222Y-78867406D01*
X135783010Y-78872094D01*
X135790424Y-78875229D01*
X135805029Y-78884630D01*
X135817408Y-78897210D01*
X135826771Y-78912163D01*
X135826881Y-78912394D01*
X135832542Y-78927693D01*
X135834717Y-78942828D01*
X135833367Y-78958420D01*
X135828454Y-78975094D01*
X135822096Y-78989304D01*
X135807890Y-79014423D01*
X135791741Y-79037459D01*
X135774105Y-79057893D01*
X135755439Y-79075204D01*
X135736196Y-79088874D01*
X135733478Y-79090469D01*
X135716888Y-79098065D01*
X135698547Y-79103232D01*
X135679823Y-79105716D01*
X135662083Y-79105260D01*
X135657798Y-79104628D01*
X135637493Y-79098971D01*
X135617385Y-79089367D01*
X135597785Y-79076099D01*
X135579004Y-79059454D01*
X135561354Y-79039715D01*
X135545147Y-79017168D01*
X135530693Y-78992099D01*
X135527203Y-78985084D01*
X135522977Y-78976101D01*
X135520301Y-78969401D01*
X135518823Y-78963481D01*
X135518194Y-78956838D01*
X135518062Y-78947967D01*
X135518065Y-78945915D01*
X135518257Y-78935606D01*
X135518958Y-78928073D01*
X135520426Y-78921862D01*
X135522916Y-78915521D01*
X135523771Y-78913655D01*
X135531839Y-78900549D01*
X135542893Y-78888465D01*
X135555679Y-78878671D01*
X135561648Y-78875356D01*
X135575419Y-78870080D01*
X135592598Y-78865799D01*
X135612473Y-78862513D01*
X135634331Y-78860223D01*
X135657459Y-78858928D01*
X135681146Y-78858630D01*
X135704678Y-78859328D01*
G37*
G36*
X135405905Y-78983131D02*
G01*
X135413032Y-78983675D01*
X135418865Y-78984969D01*
X135424878Y-78987310D01*
X135430337Y-78989902D01*
X135445410Y-78999437D01*
X135454710Y-79008092D01*
X135465488Y-79021709D01*
X135476207Y-79038531D01*
X135486341Y-79057552D01*
X135495366Y-79077769D01*
X135502758Y-79098176D01*
X135504185Y-79102837D01*
X135507329Y-79116694D01*
X135509369Y-79132428D01*
X135510248Y-79148678D01*
X135509908Y-79164085D01*
X135508294Y-79177289D01*
X135507468Y-79180944D01*
X135499974Y-79201697D01*
X135488983Y-79220087D01*
X135474543Y-79236077D01*
X135456703Y-79249630D01*
X135435512Y-79260713D01*
X135411018Y-79269288D01*
X135383271Y-79275319D01*
X135377929Y-79276133D01*
X135369026Y-79277037D01*
X135357706Y-79277650D01*
X135345020Y-79277973D01*
X135332020Y-79278006D01*
X135319755Y-79277751D01*
X135309277Y-79277208D01*
X135301636Y-79276381D01*
X135299912Y-79276044D01*
X135284292Y-79270356D01*
X135269717Y-79261246D01*
X135257140Y-79249485D01*
X135247514Y-79235842D01*
X135245656Y-79232177D01*
X135242393Y-79223988D01*
X135240436Y-79215550D01*
X135239414Y-79205105D01*
X135239259Y-79201919D01*
X135239050Y-79193316D01*
X135239405Y-79186291D01*
X135240558Y-79179455D01*
X135242742Y-79171419D01*
X135246135Y-79160953D01*
X135254150Y-79139586D01*
X135263871Y-79117845D01*
X135274966Y-79096220D01*
X135287101Y-79075201D01*
X135299942Y-79055277D01*
X135313157Y-79036938D01*
X135326410Y-79020673D01*
X135339370Y-79006974D01*
X135351702Y-78996328D01*
X135363071Y-78989227D01*
X135369786Y-78986251D01*
X135375725Y-78984419D01*
X135382346Y-78983456D01*
X135391107Y-78983089D01*
X135396009Y-78983045D01*
X135405905Y-78983131D01*
G37*
G36*
X137247777Y-77689550D02*
G01*
X137252492Y-77692801D01*
X137259662Y-77697949D01*
X137268825Y-77704659D01*
X137279519Y-77712596D01*
X137288875Y-77719611D01*
X137331115Y-77751417D01*
X137420928Y-77984542D01*
X137432482Y-78014553D01*
X137443590Y-78043451D01*
X137454159Y-78070992D01*
X137464097Y-78096931D01*
X137473311Y-78121025D01*
X137481706Y-78143028D01*
X137489191Y-78162696D01*
X137495673Y-78179785D01*
X137501057Y-78194051D01*
X137505252Y-78205249D01*
X137508164Y-78213135D01*
X137509701Y-78217465D01*
X137509922Y-78218256D01*
X137507593Y-78218212D01*
X137502129Y-78217572D01*
X137494576Y-78216466D01*
X137492120Y-78216072D01*
X137459532Y-78211051D01*
X137423081Y-78205981D01*
X137383145Y-78200891D01*
X137340106Y-78195812D01*
X137294343Y-78190771D01*
X137246237Y-78185799D01*
X137196168Y-78180923D01*
X137144518Y-78176175D01*
X137091664Y-78171582D01*
X137037990Y-78167174D01*
X136983873Y-78162980D01*
X136929696Y-78159029D01*
X136875837Y-78155351D01*
X136822678Y-78151974D01*
X136770599Y-78148928D01*
X136719980Y-78146243D01*
X136671202Y-78143947D01*
X136624644Y-78142069D01*
X136580687Y-78140638D01*
X136539711Y-78139685D01*
X136502098Y-78139238D01*
X136490790Y-78139206D01*
X136477949Y-78139125D01*
X136468304Y-78138813D01*
X136460809Y-78138152D01*
X136454416Y-78137024D01*
X136448077Y-78135310D01*
X136443716Y-78133903D01*
X136435516Y-78131355D01*
X136428351Y-78129479D01*
X136423593Y-78128627D01*
X136423152Y-78128609D01*
X136419904Y-78128203D01*
X136419521Y-78127488D01*
X136422161Y-78126292D01*
X136428341Y-78124171D01*
X136437497Y-78121289D01*
X136449067Y-78117807D01*
X136462485Y-78113886D01*
X136477190Y-78109689D01*
X136492617Y-78105377D01*
X136508202Y-78101113D01*
X136523383Y-78097058D01*
X136537596Y-78093373D01*
X136543281Y-78091941D01*
X136614480Y-78075622D01*
X136687286Y-78061722D01*
X136761219Y-78050266D01*
X136835801Y-78041276D01*
X136910553Y-78034777D01*
X136984996Y-78030791D01*
X137058650Y-78029343D01*
X137131037Y-78030457D01*
X137201678Y-78034155D01*
X137270094Y-78040462D01*
X137335806Y-78049401D01*
X137351643Y-78052030D01*
X137374612Y-78055988D01*
X137373461Y-78051539D01*
X137372596Y-78048923D01*
X137370415Y-78042607D01*
X137367021Y-78032883D01*
X137362516Y-78020043D01*
X137357005Y-78004377D01*
X137350589Y-77986179D01*
X137343371Y-77965738D01*
X137335454Y-77943348D01*
X137326941Y-77919299D01*
X137317935Y-77893883D01*
X137308816Y-77868173D01*
X137299471Y-77841812D01*
X137290555Y-77816606D01*
X137282167Y-77792839D01*
X137274406Y-77770794D01*
X137267372Y-77750755D01*
X137261163Y-77733006D01*
X137255880Y-77717830D01*
X137251620Y-77705510D01*
X137248484Y-77696331D01*
X137246570Y-77690577D01*
X137245978Y-77688529D01*
X137247777Y-77689550D01*
G37*
G36*
X135548630Y-77690146D02*
G01*
X135546787Y-77695809D01*
X135543725Y-77704906D01*
X135539538Y-77717158D01*
X135534325Y-77732284D01*
X135528183Y-77750006D01*
X135521208Y-77770044D01*
X135513497Y-77792118D01*
X135505147Y-77815949D01*
X135496255Y-77841257D01*
X135486918Y-77867763D01*
X135485857Y-77870769D01*
X135476457Y-77897429D01*
X135467468Y-77922946D01*
X135458991Y-77947038D01*
X135451125Y-77969423D01*
X135443967Y-77989818D01*
X135437618Y-78007941D01*
X135432175Y-78023510D01*
X135427738Y-78036242D01*
X135424406Y-78045857D01*
X135422278Y-78052070D01*
X135421451Y-78054600D01*
X135421444Y-78054639D01*
X135423391Y-78054827D01*
X135428666Y-78054339D01*
X135436426Y-78053275D01*
X135444263Y-78052004D01*
X135508148Y-78042560D01*
X135574907Y-78035675D01*
X135644050Y-78031326D01*
X135715086Y-78029488D01*
X135787524Y-78030140D01*
X135860875Y-78033257D01*
X135934648Y-78038815D01*
X136008352Y-78046792D01*
X136081497Y-78057163D01*
X136153593Y-78069906D01*
X136224150Y-78084996D01*
X136246908Y-78090461D01*
X136261773Y-78094231D01*
X136278387Y-78098612D01*
X136295897Y-78103365D01*
X136313447Y-78108248D01*
X136330184Y-78113022D01*
X136345253Y-78117447D01*
X136357801Y-78121282D01*
X136365968Y-78123941D01*
X136377573Y-78127908D01*
X136367367Y-78129303D01*
X136358758Y-78131141D01*
X136349809Y-78134014D01*
X136347532Y-78134947D01*
X136343129Y-78136643D01*
X136338325Y-78137827D01*
X136332270Y-78138588D01*
X136324113Y-78139012D01*
X136313003Y-78139186D01*
X136305802Y-78139206D01*
X136267711Y-78139499D01*
X136225832Y-78140336D01*
X136180581Y-78141689D01*
X136132374Y-78143532D01*
X136081631Y-78145838D01*
X136028767Y-78148578D01*
X135974201Y-78151726D01*
X135918349Y-78155253D01*
X135861629Y-78159134D01*
X135804458Y-78163339D01*
X135747254Y-78167843D01*
X135690433Y-78172618D01*
X135634413Y-78177635D01*
X135579611Y-78182869D01*
X135526445Y-78188291D01*
X135479818Y-78193368D01*
X135460567Y-78195576D01*
X135440115Y-78197998D01*
X135419019Y-78200563D01*
X135397841Y-78203196D01*
X135377139Y-78205827D01*
X135357471Y-78208383D01*
X135339398Y-78210791D01*
X135323478Y-78212979D01*
X135310271Y-78214874D01*
X135300335Y-78216404D01*
X135295675Y-78217211D01*
X135289857Y-78217986D01*
X135286214Y-78217854D01*
X135285593Y-78217372D01*
X135286336Y-78215219D01*
X135288488Y-78209415D01*
X135291933Y-78200261D01*
X135296556Y-78188061D01*
X135302240Y-78173114D01*
X135308870Y-78155723D01*
X135316330Y-78136189D01*
X135324504Y-78114814D01*
X135333276Y-78091900D01*
X135342531Y-78067747D01*
X135352152Y-78042657D01*
X135362024Y-78016932D01*
X135372030Y-77990874D01*
X135382056Y-77964784D01*
X135391985Y-77938963D01*
X135401701Y-77913714D01*
X135411089Y-77889337D01*
X135420032Y-77866135D01*
X135428415Y-77844408D01*
X135436123Y-77824459D01*
X135443038Y-77806588D01*
X135449046Y-77791099D01*
X135454031Y-77778291D01*
X135457876Y-77768466D01*
X135460466Y-77761927D01*
X135461615Y-77759128D01*
X135463397Y-77755942D01*
X135466270Y-77752363D01*
X135470648Y-77748026D01*
X135476946Y-77742567D01*
X135485576Y-77735621D01*
X135496954Y-77726824D01*
X135506698Y-77719427D01*
X135518188Y-77710780D01*
X135528541Y-77703052D01*
X135537284Y-77696591D01*
X135543944Y-77691744D01*
X135548046Y-77688861D01*
X135549155Y-77688196D01*
X135548630Y-77690146D01*
G37*
G36*
X137694156Y-78584230D02*
G01*
X137701419Y-78585372D01*
X137712599Y-78587247D01*
X137727569Y-78589835D01*
X137746200Y-78593112D01*
X137768365Y-78597056D01*
X137793936Y-78601646D01*
X137802031Y-78603106D01*
X137820487Y-78606480D01*
X137839915Y-78610109D01*
X137859869Y-78613904D01*
X137879906Y-78617775D01*
X137899581Y-78621632D01*
X137918449Y-78625387D01*
X137936065Y-78628949D01*
X137951985Y-78632228D01*
X137965764Y-78635136D01*
X137976958Y-78637583D01*
X137985121Y-78639478D01*
X137989809Y-78640733D01*
X137990755Y-78641127D01*
X137991225Y-78643682D01*
X137990884Y-78649759D01*
X137989716Y-78659455D01*
X137987706Y-78672868D01*
X137984840Y-78690094D01*
X137981103Y-78711231D01*
X137976480Y-78736375D01*
X137974709Y-78745823D01*
X137949978Y-78866513D01*
X137921600Y-78985114D01*
X137889584Y-79101605D01*
X137853940Y-79215964D01*
X137814674Y-79328171D01*
X137771795Y-79438205D01*
X137725313Y-79546042D01*
X137675235Y-79651663D01*
X137621569Y-79755046D01*
X137564325Y-79856169D01*
X137503510Y-79955011D01*
X137491692Y-79973317D01*
X137444525Y-80043569D01*
X137394761Y-80113394D01*
X137342897Y-80182167D01*
X137289430Y-80249266D01*
X137234857Y-80314068D01*
X137179677Y-80375950D01*
X137124386Y-80434289D01*
X137120202Y-80438552D01*
X137081544Y-80477834D01*
X137081463Y-80202046D01*
X137081459Y-80168242D01*
X137081469Y-80135627D01*
X137081492Y-80104449D01*
X137081527Y-80074958D01*
X137081572Y-80047402D01*
X137081629Y-80022028D01*
X137081694Y-79999086D01*
X137081769Y-79978824D01*
X137081852Y-79961489D01*
X137081942Y-79947332D01*
X137082039Y-79936599D01*
X137082143Y-79929539D01*
X137082251Y-79926401D01*
X137082280Y-79926259D01*
X137084143Y-79927402D01*
X137089285Y-79930718D01*
X137097445Y-79936036D01*
X137108365Y-79943187D01*
X137121786Y-79952000D01*
X137137450Y-79962305D01*
X137155097Y-79973932D01*
X137174469Y-79986711D01*
X137195308Y-80000471D01*
X137217354Y-80015042D01*
X137233521Y-80025735D01*
X137383863Y-80125212D01*
X137384924Y-79772825D01*
X137385986Y-79420438D01*
X137536149Y-79519839D01*
X137558881Y-79534878D01*
X137580593Y-79549226D01*
X137601024Y-79562712D01*
X137619916Y-79575166D01*
X137637009Y-79586418D01*
X137652044Y-79596297D01*
X137664763Y-79604632D01*
X137674905Y-79611254D01*
X137682211Y-79615992D01*
X137686423Y-79618675D01*
X137687390Y-79619240D01*
X137687487Y-79617152D01*
X137687582Y-79611012D01*
X137687673Y-79600999D01*
X137687762Y-79587295D01*
X137687847Y-79570082D01*
X137687929Y-79549541D01*
X137688006Y-79525852D01*
X137688078Y-79499198D01*
X137688146Y-79469759D01*
X137688208Y-79437718D01*
X137688264Y-79403254D01*
X137688315Y-79366550D01*
X137688359Y-79327786D01*
X137688396Y-79287145D01*
X137688425Y-79244807D01*
X137688447Y-79200954D01*
X137688462Y-79155766D01*
X137688467Y-79109426D01*
X137688468Y-79101542D01*
X137688472Y-79043129D01*
X137688487Y-78988835D01*
X137688513Y-78938545D01*
X137688549Y-78892142D01*
X137688598Y-78849512D01*
X137688658Y-78810539D01*
X137688731Y-78775106D01*
X137688818Y-78743100D01*
X137688919Y-78714403D01*
X137689034Y-78688901D01*
X137689163Y-78666477D01*
X137689309Y-78647017D01*
X137689471Y-78630404D01*
X137689649Y-78616523D01*
X137689844Y-78605259D01*
X137690058Y-78596495D01*
X137690289Y-78590116D01*
X137690540Y-78586007D01*
X137690810Y-78584052D01*
X137690939Y-78583844D01*
X137694156Y-78584230D01*
G37*
G36*
X137087578Y-78505741D02*
G01*
X137095671Y-78506424D01*
X137107093Y-78507504D01*
X137121400Y-78508929D01*
X137138146Y-78510652D01*
X137156889Y-78512623D01*
X137177185Y-78514793D01*
X137198588Y-78517112D01*
X137220656Y-78519532D01*
X137242944Y-78522003D01*
X137265009Y-78524476D01*
X137286406Y-78526901D01*
X137306691Y-78529230D01*
X137325420Y-78531413D01*
X137342149Y-78533401D01*
X137356435Y-78535145D01*
X137367833Y-78536596D01*
X137375899Y-78537704D01*
X137380148Y-78538411D01*
X137384924Y-78539460D01*
X137384924Y-78978775D01*
X137384919Y-79021583D01*
X137384904Y-79063253D01*
X137384880Y-79103589D01*
X137384847Y-79142393D01*
X137384805Y-79179469D01*
X137384755Y-79214620D01*
X137384698Y-79247649D01*
X137384634Y-79278360D01*
X137384564Y-79306554D01*
X137384487Y-79332037D01*
X137384405Y-79354611D01*
X137384318Y-79374078D01*
X137384226Y-79390244D01*
X137384131Y-79402909D01*
X137384031Y-79411879D01*
X137383929Y-79416955D01*
X137383852Y-79418089D01*
X137381964Y-79416942D01*
X137376805Y-79413614D01*
X137368634Y-79408276D01*
X137357710Y-79401100D01*
X137344292Y-79392256D01*
X137328639Y-79381917D01*
X137311011Y-79370252D01*
X137291667Y-79357434D01*
X137270865Y-79343632D01*
X137248865Y-79329019D01*
X137233152Y-79318573D01*
X137210478Y-79303500D01*
X137188824Y-79289122D01*
X137168448Y-79275608D01*
X137149610Y-79263130D01*
X137132569Y-79251860D01*
X137117584Y-79241968D01*
X137104915Y-79233625D01*
X137094820Y-79227003D01*
X137087559Y-79222272D01*
X137083391Y-79219605D01*
X137082453Y-79219056D01*
X137082337Y-79221137D01*
X137082224Y-79227232D01*
X137082115Y-79237122D01*
X137082011Y-79250587D01*
X137081912Y-79267407D01*
X137081820Y-79287361D01*
X137081735Y-79310230D01*
X137081657Y-79335793D01*
X137081587Y-79363831D01*
X137081527Y-79394123D01*
X137081476Y-79426451D01*
X137081435Y-79460592D01*
X137081405Y-79496328D01*
X137081387Y-79533439D01*
X137081381Y-79570540D01*
X137081369Y-79616378D01*
X137081334Y-79659500D01*
X137081276Y-79699788D01*
X137081196Y-79737122D01*
X137081095Y-79771384D01*
X137080974Y-79802456D01*
X137080832Y-79830219D01*
X137080672Y-79854554D01*
X137080492Y-79875343D01*
X137080295Y-79892467D01*
X137080081Y-79905808D01*
X137079850Y-79915246D01*
X137079603Y-79920664D01*
X137079393Y-79922024D01*
X137077364Y-79920878D01*
X137072063Y-79917554D01*
X137063751Y-79912223D01*
X137052689Y-79905055D01*
X137039139Y-79896221D01*
X137023360Y-79885892D01*
X137005613Y-79874239D01*
X136986160Y-79861431D01*
X136965262Y-79847640D01*
X136943179Y-79833037D01*
X136927091Y-79822379D01*
X136776776Y-79722735D01*
X136775715Y-80233672D01*
X136774653Y-80744608D01*
X136737506Y-80771611D01*
X136702996Y-80796221D01*
X136666729Y-80821201D01*
X136629594Y-80845974D01*
X136592480Y-80869959D01*
X136556274Y-80892579D01*
X136521866Y-80913255D01*
X136504628Y-80923247D01*
X136494457Y-80929020D01*
X136485608Y-80933971D01*
X136478719Y-80937748D01*
X136474428Y-80939999D01*
X136473319Y-80940480D01*
X136473230Y-80938388D01*
X136473144Y-80932217D01*
X136473059Y-80922121D01*
X136472977Y-80908254D01*
X136472898Y-80890772D01*
X136472821Y-80869830D01*
X136472747Y-80845583D01*
X136472677Y-80818185D01*
X136472610Y-80787791D01*
X136472546Y-80754556D01*
X136472487Y-80718635D01*
X136472432Y-80680184D01*
X136472382Y-80639356D01*
X136472336Y-80596307D01*
X136472296Y-80551191D01*
X136472260Y-80504164D01*
X136472230Y-80455380D01*
X136472206Y-80404994D01*
X136472188Y-80353162D01*
X136472177Y-80300037D01*
X136472172Y-80245775D01*
X136472171Y-80231160D01*
X136472174Y-80176622D01*
X136472182Y-80123179D01*
X136472195Y-80070988D01*
X136472213Y-80020202D01*
X136472235Y-79970977D01*
X136472262Y-79923467D01*
X136472293Y-79877827D01*
X136472328Y-79834213D01*
X136472367Y-79792778D01*
X136472410Y-79753679D01*
X136472456Y-79717070D01*
X136472505Y-79683105D01*
X136472557Y-79651940D01*
X136472613Y-79623729D01*
X136472670Y-79598628D01*
X136472731Y-79576791D01*
X136472793Y-79558373D01*
X136472858Y-79543529D01*
X136472924Y-79532414D01*
X136472992Y-79525183D01*
X136473062Y-79521990D01*
X136473081Y-79521840D01*
X136474945Y-79522985D01*
X136480086Y-79526304D01*
X136488244Y-79531627D01*
X136499161Y-79538785D01*
X136512579Y-79547607D01*
X136528238Y-79557922D01*
X136545880Y-79569561D01*
X136565247Y-79582352D01*
X136586079Y-79596126D01*
X136608119Y-79610712D01*
X136624322Y-79621444D01*
X136774653Y-79721047D01*
X136775715Y-79368537D01*
X136776776Y-79016026D01*
X136928548Y-79116482D01*
X137080319Y-79216938D01*
X137080856Y-78861220D01*
X137080928Y-78820766D01*
X137081019Y-78781856D01*
X137081127Y-78744687D01*
X137081252Y-78709453D01*
X137081391Y-78676352D01*
X137081544Y-78645577D01*
X137081709Y-78617326D01*
X137081885Y-78591794D01*
X137082071Y-78569177D01*
X137082265Y-78549669D01*
X137082465Y-78533468D01*
X137082672Y-78520769D01*
X137082883Y-78511768D01*
X137083096Y-78506660D01*
X137083256Y-78505502D01*
X137087578Y-78505741D01*
G37*
G36*
X136442922Y-77438218D02*
G01*
X136475229Y-77438322D01*
X136506413Y-77438483D01*
X136535986Y-77438703D01*
X136563459Y-77438980D01*
X136588346Y-77439315D01*
X136610157Y-77439708D01*
X136628405Y-77440158D01*
X136634556Y-77440353D01*
X136769399Y-77445980D01*
X136901180Y-77453545D01*
X137030649Y-77463122D01*
X137158557Y-77474783D01*
X137285653Y-77488602D01*
X137412687Y-77504651D01*
X137540408Y-77523003D01*
X137629032Y-77536998D01*
X137655046Y-77541325D01*
X137682289Y-77545988D01*
X137710404Y-77550918D01*
X137739033Y-77556046D01*
X137767819Y-77561302D01*
X137796403Y-77566615D01*
X137824428Y-77571918D01*
X137851537Y-77577139D01*
X137877371Y-77582210D01*
X137901572Y-77587060D01*
X137923783Y-77591620D01*
X137943646Y-77595821D01*
X137960804Y-77599592D01*
X137974898Y-77602865D01*
X137985570Y-77605569D01*
X137992464Y-77607634D01*
X137993072Y-77607856D01*
X138005234Y-77614235D01*
X138017116Y-77623668D01*
X138027623Y-77635051D01*
X138035659Y-77647281D01*
X138038475Y-77653549D01*
X138043293Y-77666542D01*
X138042344Y-77912927D01*
X138042173Y-77951879D01*
X138041969Y-77988817D01*
X138041734Y-78023524D01*
X138041472Y-78055783D01*
X138041185Y-78085378D01*
X138040876Y-78112090D01*
X138040546Y-78135703D01*
X138040198Y-78156001D01*
X138039836Y-78172766D01*
X138039462Y-78185781D01*
X138039078Y-78194830D01*
X138038986Y-78196365D01*
X138036704Y-78230998D01*
X138034605Y-78261858D01*
X138032654Y-78289399D01*
X138030817Y-78314078D01*
X138029061Y-78336351D01*
X138027352Y-78356672D01*
X138025872Y-78373166D01*
X138024654Y-78386028D01*
X138023249Y-78400332D01*
X138021721Y-78415497D01*
X138020131Y-78430945D01*
X138018542Y-78446095D01*
X138017014Y-78460368D01*
X138015609Y-78473183D01*
X138014391Y-78483961D01*
X138013420Y-78492123D01*
X138012759Y-78497087D01*
X138012503Y-78498365D01*
X138010424Y-78498027D01*
X138004702Y-78496940D01*
X137995852Y-78495205D01*
X137984389Y-78492924D01*
X137970829Y-78490199D01*
X137955686Y-78487133D01*
X137950619Y-78486102D01*
X137808340Y-78458663D01*
X137663264Y-78433697D01*
X137516109Y-78411295D01*
X137367588Y-78391551D01*
X137218418Y-78374557D01*
X137069314Y-78360406D01*
X136920992Y-78349189D01*
X136864867Y-78345709D01*
X136823843Y-78343381D01*
X136785496Y-78341341D01*
X136749213Y-78339572D01*
X136714381Y-78338057D01*
X136680384Y-78336779D01*
X136646611Y-78335723D01*
X136612446Y-78334870D01*
X136577275Y-78334205D01*
X136540485Y-78333711D01*
X136501463Y-78333370D01*
X136459593Y-78333167D01*
X136414262Y-78333084D01*
X136401062Y-78333081D01*
X136360477Y-78333112D01*
X136323554Y-78333213D01*
X136289708Y-78333399D01*
X136258355Y-78333680D01*
X136228911Y-78334070D01*
X136200793Y-78334581D01*
X136173417Y-78335227D01*
X136146199Y-78336019D01*
X136118554Y-78336971D01*
X136089900Y-78338096D01*
X136059651Y-78339405D01*
X136027225Y-78340912D01*
X136015795Y-78341462D01*
X135837554Y-78352153D01*
X135659361Y-78366921D01*
X135481555Y-78385727D01*
X135304474Y-78408533D01*
X135128456Y-78435298D01*
X134985233Y-78460159D01*
X134970011Y-78462978D01*
X134953019Y-78466171D01*
X134934751Y-78469641D01*
X134915701Y-78473292D01*
X134896363Y-78477027D01*
X134877230Y-78480749D01*
X134858796Y-78484361D01*
X134841555Y-78487767D01*
X134826002Y-78490870D01*
X134812629Y-78493572D01*
X134801930Y-78495778D01*
X134794400Y-78497390D01*
X134790532Y-78498312D01*
X134790477Y-78498328D01*
X134787325Y-78498071D01*
X134786721Y-78496646D01*
X134786413Y-78493205D01*
X134785651Y-78486985D01*
X134784707Y-78480093D01*
X134783700Y-78472258D01*
X134782394Y-78460876D01*
X134780855Y-78446621D01*
X134779150Y-78430164D01*
X134777345Y-78412180D01*
X134775507Y-78393340D01*
X134773701Y-78374318D01*
X134771994Y-78355785D01*
X134770452Y-78338415D01*
X134769141Y-78322881D01*
X134768758Y-78318114D01*
X134766745Y-78290717D01*
X135177336Y-78290717D01*
X135179255Y-78297624D01*
X135184203Y-78303184D01*
X135190970Y-78306220D01*
X135193570Y-78306469D01*
X135197087Y-78306102D01*
X135204094Y-78305075D01*
X135213907Y-78303500D01*
X135225842Y-78301487D01*
X135239215Y-78299148D01*
X135244759Y-78298156D01*
X135346206Y-78281084D01*
X135451355Y-78265742D01*
X135560026Y-78252152D01*
X135672037Y-78240332D01*
X135787209Y-78230301D01*
X135905360Y-78222079D01*
X136007304Y-78216559D01*
X136129075Y-78211702D01*
X136250742Y-78208626D01*
X136371998Y-78207316D01*
X136492540Y-78207755D01*
X136612060Y-78209928D01*
X136730255Y-78213820D01*
X136846818Y-78219412D01*
X136961445Y-78226691D01*
X137073830Y-78235640D01*
X137183667Y-78246243D01*
X137290652Y-78258484D01*
X137394479Y-78272346D01*
X137494843Y-78287815D01*
X137549016Y-78297102D01*
X137563710Y-78299679D01*
X137577250Y-78301986D01*
X137589002Y-78303918D01*
X137598332Y-78305374D01*
X137604607Y-78306252D01*
X137606956Y-78306469D01*
X137612923Y-78304634D01*
X137618399Y-78300065D01*
X137621992Y-78294167D01*
X137622664Y-78290615D01*
X137621799Y-78287996D01*
X137619281Y-78281785D01*
X137615227Y-78272240D01*
X137609755Y-78259618D01*
X137602980Y-78244176D01*
X137595019Y-78226172D01*
X137585991Y-78205864D01*
X137576011Y-78183509D01*
X137565196Y-78159365D01*
X137553664Y-78133688D01*
X137541531Y-78106737D01*
X137528914Y-78078768D01*
X137515929Y-78050040D01*
X137502694Y-78020810D01*
X137489326Y-77991335D01*
X137475941Y-77961873D01*
X137462657Y-77932681D01*
X137449590Y-77904017D01*
X137436857Y-77876138D01*
X137424574Y-77849302D01*
X137412860Y-77823766D01*
X137401830Y-77799787D01*
X137391601Y-77777624D01*
X137382291Y-77757533D01*
X137374017Y-77739773D01*
X137366894Y-77724599D01*
X137361040Y-77712271D01*
X137356573Y-77703046D01*
X137353607Y-77697180D01*
X137352300Y-77694965D01*
X137347384Y-77691633D01*
X137339616Y-77689002D01*
X137331429Y-77687312D01*
X137323325Y-77685749D01*
X137316674Y-77684174D01*
X137312753Y-77682896D01*
X137312486Y-77682753D01*
X137310069Y-77681005D01*
X137304792Y-77677019D01*
X137297140Y-77671167D01*
X137287596Y-77663820D01*
X137276645Y-77655348D01*
X137266861Y-77647750D01*
X137255046Y-77638602D01*
X137244169Y-77630256D01*
X137234729Y-77623090D01*
X137227223Y-77617480D01*
X137222150Y-77613803D01*
X137220162Y-77612496D01*
X137215140Y-77610789D01*
X137206406Y-77608776D01*
X137194476Y-77606533D01*
X137179865Y-77604139D01*
X137163089Y-77601672D01*
X137144663Y-77599210D01*
X137125103Y-77596830D01*
X137104925Y-77594610D01*
X137095178Y-77593625D01*
X137082079Y-77592610D01*
X137065380Y-77591740D01*
X137045726Y-77591019D01*
X137023759Y-77590449D01*
X137000125Y-77590032D01*
X136975465Y-77589771D01*
X136950424Y-77589670D01*
X136925646Y-77589730D01*
X136901774Y-77589954D01*
X136879452Y-77590346D01*
X136859323Y-77590908D01*
X136842031Y-77591642D01*
X136828782Y-77592504D01*
X136770334Y-77597906D01*
X136715425Y-77604252D01*
X136663432Y-77611640D01*
X136613735Y-77620165D01*
X136565711Y-77629926D01*
X136520993Y-77640450D01*
X136504107Y-77644833D01*
X136486250Y-77649719D01*
X136468256Y-77654858D01*
X136450965Y-77660001D01*
X136435213Y-77664899D01*
X136421836Y-77669302D01*
X136411673Y-77672960D01*
X136410981Y-77673230D01*
X136400465Y-77677364D01*
X136368923Y-77666826D01*
X136316563Y-77650740D01*
X136260684Y-77636254D01*
X136201733Y-77623452D01*
X136140157Y-77612420D01*
X136076400Y-77603243D01*
X136010910Y-77596006D01*
X135987139Y-77593904D01*
X135968855Y-77592633D01*
X135947313Y-77591535D01*
X135923327Y-77590622D01*
X135897709Y-77589905D01*
X135871269Y-77589396D01*
X135844820Y-77589107D01*
X135819174Y-77589048D01*
X135795143Y-77589232D01*
X135773539Y-77589670D01*
X135755174Y-77590372D01*
X135751521Y-77590571D01*
X135723033Y-77592509D01*
X135694393Y-77594987D01*
X135666568Y-77597897D01*
X135640527Y-77601135D01*
X135617236Y-77604594D01*
X135606054Y-77606532D01*
X135579160Y-77611489D01*
X135534796Y-77646025D01*
X135522678Y-77655400D01*
X135511416Y-77664004D01*
X135501514Y-77671460D01*
X135493476Y-77677391D01*
X135487807Y-77681421D01*
X135485125Y-77683121D01*
X135479970Y-77684858D01*
X135472643Y-77686477D01*
X135468143Y-77687176D01*
X135457025Y-77689487D01*
X135448991Y-77693543D01*
X135443013Y-77700027D01*
X135439601Y-77706172D01*
X135438152Y-77709312D01*
X135435055Y-77716086D01*
X135430412Y-77726271D01*
X135424324Y-77739642D01*
X135416893Y-77755977D01*
X135408220Y-77775051D01*
X135398407Y-77796640D01*
X135387557Y-77820520D01*
X135375770Y-77846469D01*
X135363149Y-77874261D01*
X135349795Y-77903673D01*
X135335810Y-77934482D01*
X135321295Y-77966463D01*
X135306352Y-77999392D01*
X135305958Y-78000261D01*
X135285612Y-78045150D01*
X135267043Y-78086213D01*
X135250243Y-78123470D01*
X135235205Y-78156937D01*
X135221920Y-78186633D01*
X135210382Y-78212574D01*
X135200581Y-78234778D01*
X135192511Y-78253264D01*
X135186164Y-78268048D01*
X135181531Y-78279148D01*
X135178605Y-78286582D01*
X135177379Y-78290367D01*
X135177336Y-78290717D01*
X134766745Y-78290717D01*
X134765913Y-78279395D01*
X134763422Y-78239516D01*
X134761278Y-78198149D01*
X134759472Y-78154970D01*
X134757994Y-78109651D01*
X134756836Y-78061866D01*
X134755989Y-78011291D01*
X134755445Y-77957597D01*
X134755195Y-77900460D01*
X134755230Y-77839552D01*
X134755322Y-77814180D01*
X134755984Y-77663846D01*
X134762722Y-77649658D01*
X134767765Y-77640683D01*
X134774067Y-77631695D01*
X134779277Y-77625678D01*
X134783682Y-77621479D01*
X134788132Y-77617806D01*
X134793026Y-77614532D01*
X134798760Y-77611532D01*
X134805732Y-77608678D01*
X134814339Y-77605847D01*
X134824978Y-77602910D01*
X134838047Y-77599744D01*
X134853943Y-77596221D01*
X134873063Y-77592216D01*
X134895805Y-77587603D01*
X134905633Y-77585633D01*
X135042804Y-77559385D01*
X135178275Y-77535870D01*
X135312701Y-77515014D01*
X135446735Y-77496742D01*
X135581033Y-77480977D01*
X135716249Y-77467644D01*
X135853036Y-77456669D01*
X135992050Y-77447974D01*
X136133945Y-77441486D01*
X136165444Y-77440353D01*
X136182142Y-77439880D01*
X136202596Y-77439464D01*
X136226320Y-77439106D01*
X136252824Y-77438806D01*
X136281621Y-77438564D01*
X136312224Y-77438379D01*
X136344143Y-77438252D01*
X136376891Y-77438183D01*
X136409980Y-77438171D01*
X136442922Y-77438218D01*
G37*
G36*
X136327829Y-79707873D02*
G01*
X136327826Y-79779932D01*
X136327818Y-79850932D01*
X136327804Y-79920755D01*
X136327786Y-79989285D01*
X136327762Y-80056405D01*
X136327733Y-80121995D01*
X136327700Y-80185940D01*
X136327662Y-80248121D01*
X136327619Y-80308421D01*
X136327573Y-80366723D01*
X136327522Y-80422909D01*
X136327467Y-80476861D01*
X136327409Y-80528463D01*
X136327347Y-80577596D01*
X136327282Y-80624143D01*
X136327213Y-80667986D01*
X136327141Y-80709009D01*
X136327066Y-80747093D01*
X136326989Y-80782122D01*
X136326908Y-80813977D01*
X136326825Y-80842541D01*
X136326740Y-80867697D01*
X136326653Y-80889327D01*
X136326563Y-80907314D01*
X136326472Y-80921540D01*
X136326379Y-80931887D01*
X136326284Y-80938239D01*
X136326188Y-80940478D01*
X136326185Y-80940480D01*
X136323891Y-80939472D01*
X136318561Y-80936677D01*
X136310824Y-80932441D01*
X136301313Y-80927107D01*
X136292752Y-80922226D01*
X136213997Y-80874922D01*
X136135471Y-80823640D01*
X136057484Y-80768638D01*
X135980348Y-80710172D01*
X135904375Y-80648498D01*
X135829878Y-80583874D01*
X135757166Y-80516556D01*
X135686552Y-80446801D01*
X135618349Y-80374865D01*
X135589888Y-80343381D01*
X135515468Y-80256666D01*
X135444345Y-80167308D01*
X135376550Y-80075368D01*
X135312115Y-79980908D01*
X135251069Y-79883987D01*
X135193444Y-79784668D01*
X135139270Y-79683010D01*
X135088577Y-79579075D01*
X135041397Y-79472925D01*
X134997760Y-79364619D01*
X134987581Y-79336570D01*
X135134775Y-79336570D01*
X135135360Y-79344973D01*
X135135944Y-79353375D01*
X135152925Y-79358444D01*
X135160705Y-79360790D01*
X135166676Y-79362636D01*
X135169877Y-79363682D01*
X135170165Y-79363805D01*
X135170583Y-79365869D01*
X135171342Y-79370759D01*
X135171751Y-79373624D01*
X135173077Y-79383153D01*
X135157164Y-79392669D01*
X135150036Y-79397074D01*
X135144558Y-79400730D01*
X135141566Y-79403067D01*
X135141250Y-79403520D01*
X135141629Y-79406356D01*
X135142533Y-79411253D01*
X135143360Y-79414343D01*
X135144927Y-79416458D01*
X135148100Y-79418034D01*
X135153744Y-79419507D01*
X135162387Y-79421248D01*
X135180959Y-79424846D01*
X135183083Y-79434103D01*
X135185206Y-79443359D01*
X135172407Y-79453486D01*
X135166022Y-79458508D01*
X135160840Y-79462529D01*
X135157835Y-79464793D01*
X135157611Y-79464949D01*
X135156810Y-79467852D01*
X135157992Y-79473472D01*
X135158060Y-79473681D01*
X135160507Y-79481076D01*
X135179267Y-79482540D01*
X135198028Y-79484004D01*
X135201490Y-79492797D01*
X135204953Y-79501590D01*
X135192206Y-79514419D01*
X135185282Y-79521719D01*
X135181266Y-79527055D01*
X135179831Y-79531204D01*
X135180651Y-79534944D01*
X135182402Y-79537751D01*
X135184333Y-79539684D01*
X135187263Y-79540820D01*
X135192137Y-79541306D01*
X135199902Y-79541291D01*
X135204294Y-79541168D01*
X135223242Y-79540570D01*
X135227041Y-79548972D01*
X135230839Y-79557374D01*
X135220008Y-79571122D01*
X135214109Y-79578879D01*
X135210745Y-79584329D01*
X135209656Y-79588355D01*
X135210585Y-79591840D01*
X135212938Y-79595251D01*
X135214998Y-79597542D01*
X135217283Y-79598695D01*
X135220876Y-79598803D01*
X135226856Y-79597961D01*
X135232526Y-79596951D01*
X135241930Y-79595261D01*
X135248109Y-79594428D01*
X135252026Y-79594617D01*
X135254645Y-79595994D01*
X135256929Y-79598724D01*
X135258801Y-79601466D01*
X135264002Y-79609101D01*
X135254632Y-79624496D01*
X135250357Y-79631741D01*
X135247106Y-79637678D01*
X135245398Y-79641335D01*
X135245262Y-79641900D01*
X135246673Y-79644633D01*
X135250073Y-79648419D01*
X135250140Y-79648482D01*
X135255019Y-79653053D01*
X135271898Y-79647824D01*
X135279805Y-79645417D01*
X135286083Y-79643587D01*
X135289692Y-79642633D01*
X135290117Y-79642562D01*
X135292107Y-79644073D01*
X135295520Y-79647905D01*
X135297005Y-79649786D01*
X135302553Y-79657042D01*
X135294775Y-79674259D01*
X135286996Y-79691475D01*
X135292384Y-79696850D01*
X135297773Y-79702225D01*
X135315279Y-79694547D01*
X135332786Y-79686869D01*
X135340056Y-79692400D01*
X135344770Y-79696652D01*
X135346310Y-79700241D01*
X135345997Y-79702521D01*
X135344697Y-79706843D01*
X135342589Y-79713692D01*
X135340222Y-79721286D01*
X135335777Y-79735461D01*
X135340933Y-79739742D01*
X135344981Y-79742759D01*
X135347589Y-79744092D01*
X135347620Y-79744094D01*
X135350021Y-79743114D01*
X135355129Y-79740437D01*
X135362022Y-79736555D01*
X135365231Y-79734682D01*
X135381311Y-79725199D01*
X135388615Y-79729917D01*
X135392305Y-79732371D01*
X135394549Y-79734591D01*
X135395498Y-79737518D01*
X135395301Y-79742092D01*
X135394108Y-79749250D01*
X135392790Y-79756146D01*
X135391255Y-79764419D01*
X135390608Y-79769575D01*
X135390932Y-79772653D01*
X135392309Y-79774693D01*
X135394382Y-79776400D01*
X135398805Y-79779129D01*
X135401855Y-79780113D01*
X135404696Y-79778897D01*
X135409833Y-79775629D01*
X135416284Y-79770946D01*
X135418059Y-79769573D01*
X135424674Y-79764623D01*
X135430207Y-79760911D01*
X135433686Y-79759076D01*
X135434137Y-79758986D01*
X135437611Y-79759984D01*
X135442619Y-79762413D01*
X135443107Y-79762692D01*
X135449505Y-79766397D01*
X135448519Y-79785744D01*
X135447533Y-79805091D01*
X135454123Y-79808300D01*
X135460714Y-79811508D01*
X135474865Y-79797654D01*
X135489015Y-79783801D01*
X135497153Y-79787027D01*
X135505290Y-79790254D01*
X135507413Y-79809882D01*
X135508567Y-79819369D01*
X135509716Y-79825462D01*
X135511109Y-79828992D01*
X135512996Y-79830793D01*
X135513781Y-79831153D01*
X135518505Y-79832493D01*
X135522448Y-79832001D01*
X135526474Y-79829186D01*
X135531449Y-79823554D01*
X135534815Y-79819195D01*
X135539867Y-79812650D01*
X135544048Y-79807493D01*
X135546634Y-79804610D01*
X135546971Y-79804332D01*
X135549954Y-79804161D01*
X135555250Y-79805053D01*
X135557020Y-79805494D01*
X135565332Y-79807727D01*
X135568740Y-79826054D01*
X135570349Y-79834332D01*
X135571748Y-79840862D01*
X135572719Y-79844646D01*
X135572950Y-79845180D01*
X135575386Y-79846001D01*
X135580269Y-79846943D01*
X135580913Y-79847041D01*
X135584380Y-79847380D01*
X135587050Y-79846748D01*
X135589640Y-79844493D01*
X135592867Y-79839964D01*
X135597448Y-79832510D01*
X135598087Y-79831448D01*
X135608099Y-79814793D01*
X135617010Y-79816004D01*
X135625920Y-79817214D01*
X135631470Y-79835202D01*
X135634183Y-79843827D01*
X135636391Y-79849303D01*
X135638909Y-79852507D01*
X135642551Y-79854313D01*
X135648133Y-79855599D01*
X135650943Y-79856135D01*
X135652333Y-79854453D01*
X135654981Y-79849730D01*
X135658436Y-79842804D01*
X135660495Y-79838407D01*
X135668737Y-79820429D01*
X135678289Y-79820434D01*
X135687841Y-79820439D01*
X135695270Y-79837542D01*
X135698713Y-79845269D01*
X135701586Y-79851352D01*
X135703442Y-79854861D01*
X135703813Y-79855345D01*
X135706446Y-79855436D01*
X135711384Y-79854725D01*
X135711990Y-79854605D01*
X135715535Y-79853636D01*
X135718049Y-79851877D01*
X135720126Y-79848442D01*
X135722364Y-79842444D01*
X135724346Y-79836248D01*
X135726934Y-79828328D01*
X135729193Y-79822046D01*
X135730741Y-79818441D01*
X135731028Y-79818019D01*
X135733873Y-79816868D01*
X135739111Y-79815710D01*
X135740306Y-79815517D01*
X135748195Y-79814327D01*
X135758054Y-79830592D01*
X135762501Y-79837886D01*
X135766082Y-79843676D01*
X135768258Y-79847099D01*
X135768640Y-79847641D01*
X135770990Y-79847814D01*
X135775803Y-79847214D01*
X135776640Y-79847063D01*
X135783915Y-79845702D01*
X135787648Y-79826529D01*
X135789576Y-79817276D01*
X135791241Y-79811345D01*
X135793007Y-79807869D01*
X135795239Y-79805981D01*
X135796531Y-79805404D01*
X135801895Y-79803857D01*
X135806329Y-79804160D01*
X135810697Y-79806769D01*
X135815862Y-79812140D01*
X135820727Y-79818190D01*
X135826689Y-79825670D01*
X135830977Y-79830224D01*
X135834427Y-79832341D01*
X135837872Y-79832510D01*
X135842150Y-79831221D01*
X135842658Y-79831029D01*
X135846569Y-79828591D01*
X135848006Y-79824337D01*
X135848103Y-79821812D01*
X135848330Y-79815708D01*
X135848915Y-79807530D01*
X135849467Y-79801639D01*
X135850328Y-79794473D01*
X135851492Y-79790354D01*
X135853686Y-79788115D01*
X135857637Y-79786589D01*
X135859123Y-79786140D01*
X135867414Y-79783663D01*
X135880634Y-79796733D01*
X135887550Y-79803413D01*
X135892411Y-79807440D01*
X135896094Y-79809227D01*
X135899478Y-79809182D01*
X135903439Y-79807715D01*
X135903793Y-79807555D01*
X135906061Y-79806311D01*
X135907458Y-79804500D01*
X135908141Y-79801251D01*
X135908269Y-79795690D01*
X135907999Y-79786945D01*
X135907912Y-79784764D01*
X135907085Y-79764221D01*
X135914633Y-79760630D01*
X135922182Y-79757040D01*
X135936993Y-79768600D01*
X135943941Y-79773783D01*
X135949847Y-79777752D01*
X135953781Y-79779900D01*
X135954613Y-79780113D01*
X135958268Y-79778842D01*
X135962029Y-79776407D01*
X135964325Y-79774353D01*
X135965481Y-79772073D01*
X135965590Y-79768490D01*
X135964746Y-79762525D01*
X135963733Y-79756869D01*
X135961915Y-79746504D01*
X135961037Y-79739452D01*
X135961212Y-79734869D01*
X135962553Y-79731915D01*
X135965174Y-79729747D01*
X135967573Y-79728384D01*
X135974542Y-79724641D01*
X135990661Y-79734403D01*
X135998082Y-79738767D01*
X136004198Y-79742125D01*
X136008063Y-79743966D01*
X136008795Y-79744165D01*
X136011526Y-79742756D01*
X136015339Y-79739355D01*
X136015466Y-79739221D01*
X136020122Y-79734277D01*
X136014415Y-79715918D01*
X136008709Y-79697559D01*
X136013684Y-79692277D01*
X136017813Y-79688672D01*
X136021166Y-79687009D01*
X136021369Y-79686996D01*
X136024432Y-79687807D01*
X136030308Y-79689974D01*
X136037944Y-79693099D01*
X136041442Y-79694610D01*
X136058805Y-79702225D01*
X136064056Y-79696986D01*
X136069308Y-79691748D01*
X136060802Y-79672631D01*
X136052295Y-79653514D01*
X136058423Y-79647658D01*
X136064550Y-79641802D01*
X136082914Y-79647481D01*
X136092545Y-79650274D01*
X136099094Y-79651486D01*
X136103463Y-79651006D01*
X136106551Y-79648722D01*
X136109258Y-79644525D01*
X136109423Y-79644219D01*
X136110032Y-79641458D01*
X136109035Y-79637527D01*
X136106131Y-79631632D01*
X136101878Y-79624384D01*
X136097525Y-79616947D01*
X136094202Y-79610722D01*
X136092423Y-79606699D01*
X136092259Y-79605931D01*
X136093499Y-79602516D01*
X136096235Y-79598261D01*
X136098351Y-79595753D01*
X136100582Y-79594404D01*
X136103990Y-79594083D01*
X136109638Y-79594663D01*
X136116884Y-79595751D01*
X136125290Y-79597110D01*
X136132376Y-79598363D01*
X136136833Y-79599275D01*
X136137289Y-79599394D01*
X136140583Y-79598780D01*
X136143745Y-79594575D01*
X136144502Y-79593071D01*
X136148030Y-79585691D01*
X136137457Y-79572293D01*
X136131287Y-79564420D01*
X136127392Y-79559056D01*
X136125436Y-79555369D01*
X136125084Y-79552528D01*
X136126000Y-79549702D01*
X136127291Y-79547143D01*
X136130703Y-79540561D01*
X136150280Y-79541129D01*
X136159148Y-79541231D01*
X136166478Y-79541029D01*
X136171182Y-79540564D01*
X136172192Y-79540258D01*
X136174413Y-79537280D01*
X136175950Y-79533158D01*
X136176275Y-79530113D01*
X136175266Y-79526990D01*
X136172421Y-79522999D01*
X136167234Y-79517349D01*
X136163289Y-79513338D01*
X136149203Y-79499179D01*
X136152350Y-79491666D01*
X136155497Y-79484152D01*
X136175777Y-79482636D01*
X136196056Y-79481119D01*
X136198474Y-79473812D01*
X136199872Y-79468900D01*
X136200234Y-79466120D01*
X136200149Y-79465952D01*
X136188895Y-79457271D01*
X136179877Y-79449701D01*
X136173450Y-79443573D01*
X136169965Y-79439215D01*
X136169467Y-79437393D01*
X136171070Y-79431787D01*
X136172729Y-79428110D01*
X136175337Y-79425754D01*
X136179788Y-79424110D01*
X136186975Y-79422569D01*
X136192858Y-79421463D01*
X136212802Y-79417716D01*
X136214201Y-79410276D01*
X136214957Y-79405217D01*
X136215011Y-79402378D01*
X136214933Y-79402228D01*
X136212940Y-79400936D01*
X136208164Y-79397985D01*
X136201458Y-79393901D01*
X136197815Y-79391699D01*
X136190024Y-79386914D01*
X136185186Y-79383506D01*
X136182598Y-79380697D01*
X136181559Y-79377712D01*
X136181364Y-79373774D01*
X136181364Y-79373529D01*
X136181364Y-79365282D01*
X136200999Y-79359205D01*
X136220634Y-79353128D01*
X136221187Y-79344849D01*
X136221741Y-79336570D01*
X136204206Y-79328720D01*
X136195914Y-79324943D01*
X136190728Y-79322195D01*
X136187876Y-79319787D01*
X136186586Y-79317028D01*
X136186085Y-79313227D01*
X136186026Y-79312466D01*
X136185381Y-79304062D01*
X136203670Y-79295512D01*
X136221960Y-79286963D01*
X136221297Y-79279030D01*
X136220634Y-79271097D01*
X136203572Y-79265721D01*
X136193843Y-79262579D01*
X136187470Y-79260153D01*
X136183745Y-79257936D01*
X136181958Y-79255422D01*
X136181402Y-79252106D01*
X136181364Y-79249852D01*
X136181392Y-79247327D01*
X136181799Y-79245240D01*
X136183067Y-79243189D01*
X136185682Y-79240776D01*
X136190127Y-79237601D01*
X136196886Y-79233265D01*
X136206442Y-79227367D01*
X136214731Y-79222295D01*
X136214732Y-79220253D01*
X136214142Y-79215571D01*
X136213951Y-79214358D01*
X136212707Y-79206707D01*
X136192811Y-79202969D01*
X136182962Y-79200940D01*
X136176638Y-79199134D01*
X136173144Y-79197302D01*
X136171833Y-79195381D01*
X136170273Y-79189837D01*
X136169636Y-79187577D01*
X136169978Y-79184862D01*
X136172663Y-79181209D01*
X136178139Y-79176108D01*
X136183964Y-79171333D01*
X136190727Y-79165960D01*
X136196091Y-79161716D01*
X136199300Y-79159199D01*
X136199869Y-79158769D01*
X136199612Y-79156796D01*
X136198397Y-79152243D01*
X136197974Y-79150838D01*
X136195618Y-79143181D01*
X136175534Y-79141679D01*
X136155451Y-79140177D01*
X136152327Y-79132719D01*
X136149203Y-79125262D01*
X136163580Y-79110810D01*
X136177957Y-79096358D01*
X136174590Y-79089314D01*
X136171222Y-79082269D01*
X136151002Y-79083152D01*
X136130782Y-79084034D01*
X136127417Y-79077542D01*
X136125155Y-79072933D01*
X136124069Y-79070233D01*
X136124052Y-79070105D01*
X136125264Y-79068126D01*
X136128512Y-79063611D01*
X136133213Y-79057358D01*
X136135913Y-79053847D01*
X136147775Y-79038533D01*
X136143873Y-79031300D01*
X136140509Y-79026401D01*
X136137185Y-79024926D01*
X136135726Y-79025121D01*
X136131572Y-79025981D01*
X136124682Y-79027240D01*
X136116515Y-79028633D01*
X136116146Y-79028694D01*
X136108206Y-79029925D01*
X136103303Y-79030287D01*
X136100288Y-79029630D01*
X136098015Y-79027804D01*
X136096582Y-79026147D01*
X136093555Y-79021809D01*
X136092282Y-79018610D01*
X136093274Y-79015774D01*
X136095984Y-79010309D01*
X136099910Y-79003199D01*
X136101772Y-79000008D01*
X136111332Y-78983878D01*
X136106679Y-78977601D01*
X136103433Y-78973510D01*
X136101340Y-78971401D01*
X136101144Y-78971324D01*
X136098859Y-78971912D01*
X136093495Y-78973486D01*
X136086025Y-78975757D01*
X136082324Y-78976903D01*
X136064385Y-78982482D01*
X136058208Y-78976579D01*
X136054550Y-78972531D01*
X136052937Y-78969611D01*
X136052997Y-78969117D01*
X136054222Y-78966576D01*
X136056660Y-78961132D01*
X136059868Y-78953784D01*
X136061235Y-78950611D01*
X136068507Y-78933664D01*
X136062847Y-78928261D01*
X136057187Y-78922859D01*
X136040382Y-78930152D01*
X136032476Y-78933467D01*
X136025932Y-78935993D01*
X136021812Y-78937332D01*
X136021117Y-78937446D01*
X136018097Y-78936023D01*
X136014063Y-78932561D01*
X136013718Y-78932201D01*
X136008779Y-78926957D01*
X136013649Y-78910498D01*
X136016025Y-78902534D01*
X136017988Y-78896074D01*
X136019192Y-78892252D01*
X136019337Y-78891833D01*
X136018329Y-78889282D01*
X136014804Y-78885725D01*
X136013659Y-78884836D01*
X136007163Y-78880045D01*
X135990852Y-78889923D01*
X135974542Y-78899800D01*
X135967573Y-78896057D01*
X135964057Y-78893937D01*
X135961909Y-78891565D01*
X135961010Y-78888088D01*
X135961238Y-78882654D01*
X135962472Y-78874409D01*
X135963596Y-78868029D01*
X135966363Y-78852606D01*
X135960503Y-78848443D01*
X135956126Y-78845613D01*
X135953313Y-78844294D01*
X135953182Y-78844281D01*
X135950959Y-78845499D01*
X135946257Y-78848754D01*
X135939920Y-78853451D01*
X135936861Y-78855799D01*
X135922001Y-78867316D01*
X135914654Y-78863821D01*
X135907308Y-78860326D01*
X135907715Y-78840187D01*
X135908122Y-78820047D01*
X135901131Y-78817202D01*
X135894140Y-78814356D01*
X135880777Y-78827568D01*
X135867414Y-78840779D01*
X135859123Y-78838301D01*
X135854563Y-78836766D01*
X135851960Y-78834838D01*
X135850586Y-78831350D01*
X135849715Y-78825136D01*
X135849467Y-78822803D01*
X135848719Y-78814544D01*
X135848223Y-78806943D01*
X135848103Y-78803037D01*
X135847573Y-78798416D01*
X135845179Y-78795779D01*
X135840230Y-78793882D01*
X135834938Y-78792733D01*
X135831577Y-78792876D01*
X135831208Y-78793155D01*
X135825865Y-78800428D01*
X135819932Y-78807632D01*
X135814143Y-78813974D01*
X135809230Y-78818662D01*
X135805925Y-78820904D01*
X135805475Y-78820990D01*
X135799279Y-78820416D01*
X135794922Y-78818215D01*
X135791813Y-78813667D01*
X135789365Y-78806054D01*
X135787939Y-78799568D01*
X135786148Y-78791384D01*
X135784451Y-78784868D01*
X135783136Y-78781086D01*
X135782824Y-78780610D01*
X135779765Y-78779251D01*
X135774780Y-78778005D01*
X135771612Y-78777647D01*
X135769055Y-78778374D01*
X135766417Y-78780830D01*
X135763007Y-78785655D01*
X135758164Y-78793445D01*
X135753344Y-78801244D01*
X135749988Y-78806066D01*
X135747356Y-78808551D01*
X135744702Y-78809339D01*
X135741285Y-78809069D01*
X135740212Y-78808909D01*
X135734734Y-78807810D01*
X135731282Y-78806617D01*
X135731008Y-78806422D01*
X135729784Y-78803910D01*
X135727761Y-78798372D01*
X135725311Y-78790852D01*
X135724489Y-78788171D01*
X135719379Y-78771232D01*
X135711039Y-78770649D01*
X135702700Y-78770066D01*
X135694900Y-78787059D01*
X135687100Y-78804051D01*
X135677863Y-78804051D01*
X135668626Y-78804051D01*
X135661252Y-78787054D01*
X135653878Y-78770057D01*
X135645472Y-78770645D01*
X135637066Y-78771232D01*
X135631346Y-78789230D01*
X135625626Y-78807227D01*
X135616402Y-78807843D01*
X135611422Y-78808027D01*
X135608090Y-78807236D01*
X135605314Y-78804698D01*
X135602001Y-78799636D01*
X135599966Y-78796198D01*
X135594770Y-78787595D01*
X135590935Y-78782102D01*
X135587799Y-78779105D01*
X135584702Y-78777990D01*
X135580983Y-78778143D01*
X135580590Y-78778199D01*
X135576564Y-78779189D01*
X135573710Y-78781290D01*
X135571603Y-78785288D01*
X135569818Y-78791969D01*
X135568060Y-78801356D01*
X135566612Y-78809241D01*
X135565246Y-78813968D01*
X135563354Y-78816555D01*
X135560327Y-78818024D01*
X135557643Y-78818812D01*
X135552290Y-78820213D01*
X135548904Y-78820947D01*
X135548588Y-78820978D01*
X135546903Y-78819467D01*
X135543359Y-78815531D01*
X135538713Y-78810077D01*
X135533723Y-78804013D01*
X135529146Y-78798248D01*
X135525740Y-78793690D01*
X135525369Y-78793155D01*
X135522804Y-78792622D01*
X135517909Y-78793433D01*
X135516614Y-78793800D01*
X135509007Y-78796129D01*
X135507148Y-78815163D01*
X135505290Y-78834196D01*
X135497156Y-78837417D01*
X135489021Y-78840638D01*
X135475450Y-78827221D01*
X135461879Y-78813804D01*
X135454795Y-78817174D01*
X135447710Y-78820544D01*
X135448549Y-78839294D01*
X135449388Y-78858044D01*
X135442673Y-78861750D01*
X135437628Y-78864224D01*
X135434065Y-78865432D01*
X135433779Y-78865455D01*
X135431205Y-78864214D01*
X135426285Y-78860913D01*
X135419946Y-78856188D01*
X135417917Y-78854596D01*
X135404236Y-78843736D01*
X135396920Y-78847666D01*
X135392294Y-78850162D01*
X135389765Y-78851548D01*
X135389604Y-78851644D01*
X135389972Y-78853583D01*
X135390949Y-78858692D01*
X135392346Y-78865981D01*
X135392788Y-78868288D01*
X135394541Y-78877419D01*
X135395454Y-78883357D01*
X135395373Y-78887087D01*
X135394143Y-78889597D01*
X135391610Y-78891871D01*
X135388760Y-78894018D01*
X135381548Y-78899505D01*
X135365481Y-78889775D01*
X135349415Y-78880045D01*
X135342976Y-78884794D01*
X135338836Y-78887915D01*
X135336642Y-78889701D01*
X135336537Y-78889830D01*
X135337102Y-78891840D01*
X135338610Y-78896966D01*
X135340785Y-78904269D01*
X135341844Y-78907802D01*
X135344222Y-78915790D01*
X135346049Y-78922043D01*
X135347046Y-78925604D01*
X135347150Y-78926066D01*
X135345633Y-78927574D01*
X135341820Y-78930679D01*
X135339962Y-78932113D01*
X135332773Y-78937582D01*
X135316082Y-78930229D01*
X135299390Y-78922877D01*
X135293702Y-78928298D01*
X135291082Y-78930860D01*
X135289616Y-78933094D01*
X135289413Y-78935855D01*
X135290582Y-78939997D01*
X135293232Y-78946377D01*
X135297103Y-78955026D01*
X135302620Y-78967312D01*
X135297038Y-78974611D01*
X135293557Y-78979047D01*
X135291349Y-78981636D01*
X135291022Y-78981911D01*
X135288938Y-78981347D01*
X135283740Y-78979840D01*
X135276381Y-78977667D01*
X135272857Y-78976617D01*
X135264855Y-78974245D01*
X135258597Y-78972423D01*
X135255041Y-78971428D01*
X135254584Y-78971324D01*
X135253134Y-78972861D01*
X135250239Y-78976660D01*
X135249499Y-78977687D01*
X135244957Y-78984050D01*
X135254479Y-78999695D01*
X135264002Y-79015340D01*
X135258801Y-79022975D01*
X135255233Y-79027639D01*
X135252413Y-79030340D01*
X135251740Y-79030610D01*
X135248896Y-79030235D01*
X135243035Y-79029241D01*
X135235304Y-79027826D01*
X135233448Y-79027474D01*
X135225137Y-79025969D01*
X135219970Y-79025373D01*
X135216937Y-79025714D01*
X135215030Y-79027020D01*
X135214214Y-79028003D01*
X135211224Y-79032635D01*
X135210332Y-79036797D01*
X135211759Y-79041459D01*
X135215726Y-79047589D01*
X135219907Y-79052990D01*
X135230947Y-79066829D01*
X135227061Y-79075425D01*
X135223175Y-79084021D01*
X135204277Y-79083120D01*
X135185379Y-79082219D01*
X135182001Y-79089286D01*
X135178623Y-79096352D01*
X135191788Y-79109602D01*
X135204953Y-79122852D01*
X135201517Y-79131577D01*
X135198081Y-79140302D01*
X135179310Y-79141784D01*
X135160540Y-79143266D01*
X135158077Y-79150711D01*
X135156823Y-79156417D01*
X135157542Y-79159442D01*
X135157611Y-79159492D01*
X135160148Y-79161382D01*
X135165028Y-79165157D01*
X135171277Y-79170062D01*
X135172407Y-79170955D01*
X135185206Y-79181082D01*
X135183075Y-79190369D01*
X135180945Y-79199656D01*
X135162870Y-79203001D01*
X135154687Y-79204562D01*
X135148304Y-79205868D01*
X135144711Y-79206713D01*
X135144273Y-79206878D01*
X135143581Y-79209098D01*
X135142555Y-79213863D01*
X135142373Y-79214821D01*
X135141842Y-79218430D01*
X135142288Y-79221115D01*
X135144360Y-79223621D01*
X135148709Y-79226694D01*
X135155983Y-79231078D01*
X135157139Y-79231760D01*
X135173284Y-79241289D01*
X135171907Y-79249758D01*
X135170720Y-79255470D01*
X135169464Y-79259228D01*
X135169157Y-79259702D01*
X135166600Y-79260993D01*
X135161063Y-79263087D01*
X135153634Y-79265576D01*
X135151864Y-79266134D01*
X135135944Y-79271091D01*
X135135429Y-79279481D01*
X135134914Y-79287871D01*
X135151879Y-79295718D01*
X135168845Y-79303566D01*
X135168845Y-79312288D01*
X135168845Y-79321010D01*
X135151810Y-79328790D01*
X135134775Y-79336570D01*
X134987581Y-79336570D01*
X134957696Y-79254220D01*
X134921236Y-79141787D01*
X134888410Y-79027382D01*
X134859250Y-78911067D01*
X134849632Y-78868631D01*
X134845950Y-78851623D01*
X134842045Y-78833049D01*
X134837996Y-78813332D01*
X134833883Y-78792896D01*
X134829786Y-78772164D01*
X134825785Y-78751560D01*
X134821958Y-78731507D01*
X134818386Y-78712428D01*
X134815149Y-78694747D01*
X134812326Y-78678888D01*
X134809996Y-78665273D01*
X134808240Y-78654327D01*
X134807138Y-78646472D01*
X134806768Y-78642132D01*
X134806881Y-78641414D01*
X134809336Y-78640609D01*
X134815567Y-78639113D01*
X134825174Y-78637003D01*
X134837757Y-78634358D01*
X134852919Y-78631256D01*
X134870260Y-78627773D01*
X134889379Y-78623989D01*
X134909879Y-78619982D01*
X134931359Y-78615828D01*
X134953421Y-78611607D01*
X134975665Y-78607395D01*
X134997693Y-78603272D01*
X135019104Y-78599314D01*
X135039500Y-78595600D01*
X135058481Y-78592208D01*
X135063773Y-78591276D01*
X135200956Y-78568461D01*
X135337543Y-78548259D01*
X135474090Y-78530617D01*
X135611153Y-78515482D01*
X135749289Y-78502802D01*
X135889054Y-78492522D01*
X136031003Y-78484590D01*
X136175694Y-78478952D01*
X136261495Y-78476704D01*
X136327829Y-78475267D01*
X136327829Y-79707873D01*
G37*
D12*
X123590000Y-81240000D02*
X123590000Y-88860000D01*
X123590000Y-88860000D02*
X129560000Y-88860000D01*
X124350000Y-85050000D02*
X124350000Y-83060000D01*
X124350000Y-88100000D02*
X124350000Y-85050000D01*
X127300000Y-81250000D02*
X127300000Y-82000000D01*
X127300000Y-82000000D02*
X125960000Y-82000000D01*
X127300000Y-88100000D02*
X124350000Y-88100000D01*
X127300000Y-88850000D02*
X127300000Y-88100000D01*
X128800000Y-81250000D02*
X128800000Y-83050000D01*
X128800000Y-83050000D02*
X129550000Y-83050000D01*
X128800000Y-84550000D02*
X128800000Y-85550000D01*
X128800000Y-85550000D02*
X129550000Y-85550000D01*
X128800000Y-87050000D02*
X128800000Y-88850000D01*
X128800000Y-88850000D02*
X129550000Y-88850000D01*
X129550000Y-81250000D02*
X128800000Y-81250000D01*
X129550000Y-83050000D02*
X129550000Y-81250000D01*
X129550000Y-84550000D02*
X128800000Y-84550000D01*
X129550000Y-85550000D02*
X129550000Y-84550000D01*
X129550000Y-87050000D02*
X128800000Y-87050000D01*
X129550000Y-88850000D02*
X129550000Y-87050000D01*
X129560000Y-81240000D02*
X123590000Y-81240000D01*
X129560000Y-88860000D02*
X129560000Y-81240000D01*
X129850000Y-80950000D02*
X128600000Y-80950000D01*
X129850000Y-82200000D02*
X129850000Y-80950000D01*
X133443641Y-87020000D02*
X133136359Y-87020000D01*
X133443641Y-87780000D02*
X133136359Y-87780000D01*
X137636359Y-87820000D02*
X137943641Y-87820000D01*
X137636359Y-88580000D02*
X137943641Y-88580000D01*
X133456359Y-82120000D02*
X133763641Y-82120000D01*
X133456359Y-82880000D02*
X133763641Y-82880000D01*
X137520000Y-86256359D02*
X137520000Y-86563641D01*
X138280000Y-86256359D02*
X138280000Y-86563641D01*
X132102500Y-83265000D02*
X135322500Y-83265000D01*
X132102500Y-83390000D02*
X132102500Y-83265000D01*
X132102500Y-86485000D02*
X132102500Y-86360000D01*
X135322500Y-83265000D02*
X135322500Y-83390000D01*
X135322500Y-86360000D02*
X135322500Y-86485000D01*
X135322500Y-86485000D02*
X132102500Y-86485000D01*
X131552500Y-83385000D02*
X131312500Y-83055000D01*
X131792500Y-83055000D01*
X131552500Y-83385000D01*
G36*
X131552500Y-83385000D02*
G01*
X131312500Y-83055000D01*
X131792500Y-83055000D01*
X131552500Y-83385000D01*
G37*
X137540000Y-83927836D02*
X137540000Y-83712164D01*
X138260000Y-83927836D02*
X138260000Y-83712164D01*
%LPC*%
D14*
X145000000Y-90200000D03*
D15*
X143000000Y-88600000D03*
D16*
X143000000Y-86100000D03*
X143000000Y-83600000D03*
X143000000Y-81100000D03*
D17*
X136100000Y-87400000D03*
X135080000Y-87400000D03*
D14*
X125100000Y-82200000D03*
D18*
X127100000Y-83800000D03*
D19*
X127100000Y-86300000D03*
D17*
X133800000Y-87400000D03*
X132780000Y-87400000D03*
D20*
X137280000Y-88200000D03*
X138300000Y-88200000D03*
X133100000Y-82500000D03*
X134120000Y-82500000D03*
D21*
X137900000Y-85900000D03*
X137900000Y-86920000D03*
D22*
X131600000Y-83900000D03*
X131600000Y-84550000D03*
X131600000Y-85200000D03*
X131600000Y-85850000D03*
X135825000Y-85850000D03*
X135825000Y-85200000D03*
X135825000Y-84550000D03*
X135825000Y-83900000D03*
D23*
X137900000Y-84300000D03*
X137900000Y-83340000D03*
%LPD*%
M02*
