%TF.GenerationSoftware,KiCad,Pcbnew,9.0.4*%
%TF.CreationDate,2025-12-19T23:47:45-05:00*%
%TF.ProjectId,TC_kent,54435f6b-656e-4742-9e6b-696361645f70,rev?*%
%TF.SameCoordinates,Original*%
%TF.FileFunction,Drillmap*%
%TF.FilePolarity,Positive*%
%FSLAX45Y45*%
G04 Gerber Fmt 4.5, Leading zero omitted, Abs format (unit mm)*
G04 Created by KiCad (PCBNEW 9.0.4) date 2025-12-19 23:47:45*
%MOMM*%
%LPD*%
G01*
G04 APERTURE LIST*
%ADD10C,0.050000*%
%ADD11C,0.200000*%
%ADD12C,0.120000*%
G04 APERTURE END LIST*
D10*
X11850000Y-7650000D02*
X15100000Y-7650000D01*
X15100000Y-9350000D01*
X11850000Y-9350000D01*
X11850000Y-7650000D01*
D11*
D12*
X12450000Y-8160000D02*
X12570000Y-8280000D01*
X12570000Y-8160000D02*
X12450000Y-8280000D01*
X14440000Y-8960000D02*
X14560000Y-9080000D01*
X14560000Y-8960000D02*
X14440000Y-9080000D01*
D11*
X12108277Y-9663984D02*
X12108277Y-9463984D01*
X12108277Y-9463984D02*
X12155896Y-9463984D01*
X12155896Y-9463984D02*
X12184467Y-9473508D01*
X12184467Y-9473508D02*
X12203515Y-9492555D01*
X12203515Y-9492555D02*
X12213039Y-9511603D01*
X12213039Y-9511603D02*
X12222562Y-9549698D01*
X12222562Y-9549698D02*
X12222562Y-9578270D01*
X12222562Y-9578270D02*
X12213039Y-9616365D01*
X12213039Y-9616365D02*
X12203515Y-9635412D01*
X12203515Y-9635412D02*
X12184467Y-9654460D01*
X12184467Y-9654460D02*
X12155896Y-9663984D01*
X12155896Y-9663984D02*
X12108277Y-9663984D01*
X12308277Y-9663984D02*
X12308277Y-9530650D01*
X12308277Y-9568746D02*
X12317801Y-9549698D01*
X12317801Y-9549698D02*
X12327324Y-9540174D01*
X12327324Y-9540174D02*
X12346372Y-9530650D01*
X12346372Y-9530650D02*
X12365420Y-9530650D01*
X12432086Y-9663984D02*
X12432086Y-9530650D01*
X12432086Y-9463984D02*
X12422562Y-9473508D01*
X12422562Y-9473508D02*
X12432086Y-9483031D01*
X12432086Y-9483031D02*
X12441610Y-9473508D01*
X12441610Y-9473508D02*
X12432086Y-9463984D01*
X12432086Y-9463984D02*
X12432086Y-9483031D01*
X12555896Y-9663984D02*
X12536848Y-9654460D01*
X12536848Y-9654460D02*
X12527324Y-9635412D01*
X12527324Y-9635412D02*
X12527324Y-9463984D01*
X12660658Y-9663984D02*
X12641610Y-9654460D01*
X12641610Y-9654460D02*
X12632086Y-9635412D01*
X12632086Y-9635412D02*
X12632086Y-9463984D01*
X12889229Y-9663984D02*
X12889229Y-9463984D01*
X12889229Y-9463984D02*
X12955896Y-9606841D01*
X12955896Y-9606841D02*
X13022562Y-9463984D01*
X13022562Y-9463984D02*
X13022562Y-9663984D01*
X13203515Y-9663984D02*
X13203515Y-9559222D01*
X13203515Y-9559222D02*
X13193991Y-9540174D01*
X13193991Y-9540174D02*
X13174943Y-9530650D01*
X13174943Y-9530650D02*
X13136848Y-9530650D01*
X13136848Y-9530650D02*
X13117801Y-9540174D01*
X13203515Y-9654460D02*
X13184467Y-9663984D01*
X13184467Y-9663984D02*
X13136848Y-9663984D01*
X13136848Y-9663984D02*
X13117801Y-9654460D01*
X13117801Y-9654460D02*
X13108277Y-9635412D01*
X13108277Y-9635412D02*
X13108277Y-9616365D01*
X13108277Y-9616365D02*
X13117801Y-9597317D01*
X13117801Y-9597317D02*
X13136848Y-9587793D01*
X13136848Y-9587793D02*
X13184467Y-9587793D01*
X13184467Y-9587793D02*
X13203515Y-9578270D01*
X13298753Y-9530650D02*
X13298753Y-9730650D01*
X13298753Y-9540174D02*
X13317801Y-9530650D01*
X13317801Y-9530650D02*
X13355896Y-9530650D01*
X13355896Y-9530650D02*
X13374943Y-9540174D01*
X13374943Y-9540174D02*
X13384467Y-9549698D01*
X13384467Y-9549698D02*
X13393991Y-9568746D01*
X13393991Y-9568746D02*
X13393991Y-9625889D01*
X13393991Y-9625889D02*
X13384467Y-9644936D01*
X13384467Y-9644936D02*
X13374943Y-9654460D01*
X13374943Y-9654460D02*
X13355896Y-9663984D01*
X13355896Y-9663984D02*
X13317801Y-9663984D01*
X13317801Y-9663984D02*
X13298753Y-9654460D01*
X13479705Y-9644936D02*
X13489229Y-9654460D01*
X13489229Y-9654460D02*
X13479705Y-9663984D01*
X13479705Y-9663984D02*
X13470182Y-9654460D01*
X13470182Y-9654460D02*
X13479705Y-9644936D01*
X13479705Y-9644936D02*
X13479705Y-9663984D01*
X13479705Y-9540174D02*
X13489229Y-9549698D01*
X13489229Y-9549698D02*
X13479705Y-9559222D01*
X13479705Y-9559222D02*
X13470182Y-9549698D01*
X13470182Y-9549698D02*
X13479705Y-9540174D01*
X13479705Y-9540174D02*
X13479705Y-9559222D01*
D12*
X11727500Y-9932500D02*
X11847500Y-10052500D01*
X11847500Y-9932500D02*
X11727500Y-10052500D01*
D11*
X12213039Y-10083984D02*
X12098753Y-10083984D01*
X12155896Y-10083984D02*
X12155896Y-9883984D01*
X12155896Y-9883984D02*
X12136848Y-9912555D01*
X12136848Y-9912555D02*
X12117801Y-9931603D01*
X12117801Y-9931603D02*
X12098753Y-9941127D01*
X12298753Y-10064936D02*
X12308277Y-10074460D01*
X12308277Y-10074460D02*
X12298753Y-10083984D01*
X12298753Y-10083984D02*
X12289229Y-10074460D01*
X12289229Y-10074460D02*
X12298753Y-10064936D01*
X12298753Y-10064936D02*
X12298753Y-10083984D01*
X12384467Y-9903031D02*
X12393991Y-9893508D01*
X12393991Y-9893508D02*
X12413039Y-9883984D01*
X12413039Y-9883984D02*
X12460658Y-9883984D01*
X12460658Y-9883984D02*
X12479705Y-9893508D01*
X12479705Y-9893508D02*
X12489229Y-9903031D01*
X12489229Y-9903031D02*
X12498753Y-9922079D01*
X12498753Y-9922079D02*
X12498753Y-9941127D01*
X12498753Y-9941127D02*
X12489229Y-9969698D01*
X12489229Y-9969698D02*
X12374943Y-10083984D01*
X12374943Y-10083984D02*
X12498753Y-10083984D01*
X12622562Y-9883984D02*
X12641610Y-9883984D01*
X12641610Y-9883984D02*
X12660658Y-9893508D01*
X12660658Y-9893508D02*
X12670182Y-9903031D01*
X12670182Y-9903031D02*
X12679705Y-9922079D01*
X12679705Y-9922079D02*
X12689229Y-9960174D01*
X12689229Y-9960174D02*
X12689229Y-10007793D01*
X12689229Y-10007793D02*
X12679705Y-10045889D01*
X12679705Y-10045889D02*
X12670182Y-10064936D01*
X12670182Y-10064936D02*
X12660658Y-10074460D01*
X12660658Y-10074460D02*
X12641610Y-10083984D01*
X12641610Y-10083984D02*
X12622562Y-10083984D01*
X12622562Y-10083984D02*
X12603515Y-10074460D01*
X12603515Y-10074460D02*
X12593991Y-10064936D01*
X12593991Y-10064936D02*
X12584467Y-10045889D01*
X12584467Y-10045889D02*
X12574943Y-10007793D01*
X12574943Y-10007793D02*
X12574943Y-9960174D01*
X12574943Y-9960174D02*
X12584467Y-9922079D01*
X12584467Y-9922079D02*
X12593991Y-9903031D01*
X12593991Y-9903031D02*
X12603515Y-9893508D01*
X12603515Y-9893508D02*
X12622562Y-9883984D01*
X12813039Y-9883984D02*
X12832086Y-9883984D01*
X12832086Y-9883984D02*
X12851134Y-9893508D01*
X12851134Y-9893508D02*
X12860658Y-9903031D01*
X12860658Y-9903031D02*
X12870182Y-9922079D01*
X12870182Y-9922079D02*
X12879705Y-9960174D01*
X12879705Y-9960174D02*
X12879705Y-10007793D01*
X12879705Y-10007793D02*
X12870182Y-10045889D01*
X12870182Y-10045889D02*
X12860658Y-10064936D01*
X12860658Y-10064936D02*
X12851134Y-10074460D01*
X12851134Y-10074460D02*
X12832086Y-10083984D01*
X12832086Y-10083984D02*
X12813039Y-10083984D01*
X12813039Y-10083984D02*
X12793991Y-10074460D01*
X12793991Y-10074460D02*
X12784467Y-10064936D01*
X12784467Y-10064936D02*
X12774943Y-10045889D01*
X12774943Y-10045889D02*
X12765420Y-10007793D01*
X12765420Y-10007793D02*
X12765420Y-9960174D01*
X12765420Y-9960174D02*
X12774943Y-9922079D01*
X12774943Y-9922079D02*
X12784467Y-9903031D01*
X12784467Y-9903031D02*
X12793991Y-9893508D01*
X12793991Y-9893508D02*
X12813039Y-9883984D01*
X12965420Y-10083984D02*
X12965420Y-9950650D01*
X12965420Y-9969698D02*
X12974943Y-9960174D01*
X12974943Y-9960174D02*
X12993991Y-9950650D01*
X12993991Y-9950650D02*
X13022563Y-9950650D01*
X13022563Y-9950650D02*
X13041610Y-9960174D01*
X13041610Y-9960174D02*
X13051134Y-9979222D01*
X13051134Y-9979222D02*
X13051134Y-10083984D01*
X13051134Y-9979222D02*
X13060658Y-9960174D01*
X13060658Y-9960174D02*
X13079705Y-9950650D01*
X13079705Y-9950650D02*
X13108277Y-9950650D01*
X13108277Y-9950650D02*
X13127324Y-9960174D01*
X13127324Y-9960174D02*
X13136848Y-9979222D01*
X13136848Y-9979222D02*
X13136848Y-10083984D01*
X13232086Y-10083984D02*
X13232086Y-9950650D01*
X13232086Y-9969698D02*
X13241610Y-9960174D01*
X13241610Y-9960174D02*
X13260658Y-9950650D01*
X13260658Y-9950650D02*
X13289229Y-9950650D01*
X13289229Y-9950650D02*
X13308277Y-9960174D01*
X13308277Y-9960174D02*
X13317801Y-9979222D01*
X13317801Y-9979222D02*
X13317801Y-10083984D01*
X13317801Y-9979222D02*
X13327324Y-9960174D01*
X13327324Y-9960174D02*
X13346372Y-9950650D01*
X13346372Y-9950650D02*
X13374943Y-9950650D01*
X13374943Y-9950650D02*
X13393991Y-9960174D01*
X13393991Y-9960174D02*
X13403515Y-9979222D01*
X13403515Y-9979222D02*
X13403515Y-10083984D01*
X13793991Y-9874460D02*
X13622563Y-10131603D01*
X14051134Y-9883984D02*
X14070182Y-9883984D01*
X14070182Y-9883984D02*
X14089229Y-9893508D01*
X14089229Y-9893508D02*
X14098753Y-9903031D01*
X14098753Y-9903031D02*
X14108277Y-9922079D01*
X14108277Y-9922079D02*
X14117801Y-9960174D01*
X14117801Y-9960174D02*
X14117801Y-10007793D01*
X14117801Y-10007793D02*
X14108277Y-10045889D01*
X14108277Y-10045889D02*
X14098753Y-10064936D01*
X14098753Y-10064936D02*
X14089229Y-10074460D01*
X14089229Y-10074460D02*
X14070182Y-10083984D01*
X14070182Y-10083984D02*
X14051134Y-10083984D01*
X14051134Y-10083984D02*
X14032086Y-10074460D01*
X14032086Y-10074460D02*
X14022563Y-10064936D01*
X14022563Y-10064936D02*
X14013039Y-10045889D01*
X14013039Y-10045889D02*
X14003515Y-10007793D01*
X14003515Y-10007793D02*
X14003515Y-9960174D01*
X14003515Y-9960174D02*
X14013039Y-9922079D01*
X14013039Y-9922079D02*
X14022563Y-9903031D01*
X14022563Y-9903031D02*
X14032086Y-9893508D01*
X14032086Y-9893508D02*
X14051134Y-9883984D01*
X14203515Y-10064936D02*
X14213039Y-10074460D01*
X14213039Y-10074460D02*
X14203515Y-10083984D01*
X14203515Y-10083984D02*
X14193991Y-10074460D01*
X14193991Y-10074460D02*
X14203515Y-10064936D01*
X14203515Y-10064936D02*
X14203515Y-10083984D01*
X14336848Y-9883984D02*
X14355896Y-9883984D01*
X14355896Y-9883984D02*
X14374944Y-9893508D01*
X14374944Y-9893508D02*
X14384467Y-9903031D01*
X14384467Y-9903031D02*
X14393991Y-9922079D01*
X14393991Y-9922079D02*
X14403515Y-9960174D01*
X14403515Y-9960174D02*
X14403515Y-10007793D01*
X14403515Y-10007793D02*
X14393991Y-10045889D01*
X14393991Y-10045889D02*
X14384467Y-10064936D01*
X14384467Y-10064936D02*
X14374944Y-10074460D01*
X14374944Y-10074460D02*
X14355896Y-10083984D01*
X14355896Y-10083984D02*
X14336848Y-10083984D01*
X14336848Y-10083984D02*
X14317801Y-10074460D01*
X14317801Y-10074460D02*
X14308277Y-10064936D01*
X14308277Y-10064936D02*
X14298753Y-10045889D01*
X14298753Y-10045889D02*
X14289229Y-10007793D01*
X14289229Y-10007793D02*
X14289229Y-9960174D01*
X14289229Y-9960174D02*
X14298753Y-9922079D01*
X14298753Y-9922079D02*
X14308277Y-9903031D01*
X14308277Y-9903031D02*
X14317801Y-9893508D01*
X14317801Y-9893508D02*
X14336848Y-9883984D01*
X14574944Y-9950650D02*
X14574944Y-10083984D01*
X14527325Y-9874460D02*
X14479706Y-10017317D01*
X14479706Y-10017317D02*
X14603515Y-10017317D01*
X14660658Y-9883984D02*
X14793991Y-9883984D01*
X14793991Y-9883984D02*
X14708277Y-10083984D01*
X14860658Y-9903031D02*
X14870182Y-9893508D01*
X14870182Y-9893508D02*
X14889229Y-9883984D01*
X14889229Y-9883984D02*
X14936848Y-9883984D01*
X14936848Y-9883984D02*
X14955896Y-9893508D01*
X14955896Y-9893508D02*
X14965420Y-9903031D01*
X14965420Y-9903031D02*
X14974944Y-9922079D01*
X14974944Y-9922079D02*
X14974944Y-9941127D01*
X14974944Y-9941127D02*
X14965420Y-9969698D01*
X14965420Y-9969698D02*
X14851134Y-10083984D01*
X14851134Y-10083984D02*
X14974944Y-10083984D01*
X15051134Y-9883984D02*
X15051134Y-9922079D01*
X15127325Y-9883984D02*
X15127325Y-9922079D01*
X15422563Y-10160174D02*
X15413039Y-10150650D01*
X15413039Y-10150650D02*
X15393991Y-10122079D01*
X15393991Y-10122079D02*
X15384468Y-10103031D01*
X15384468Y-10103031D02*
X15374944Y-10074460D01*
X15374944Y-10074460D02*
X15365420Y-10026841D01*
X15365420Y-10026841D02*
X15365420Y-9988746D01*
X15365420Y-9988746D02*
X15374944Y-9941127D01*
X15374944Y-9941127D02*
X15384468Y-9912555D01*
X15384468Y-9912555D02*
X15393991Y-9893508D01*
X15393991Y-9893508D02*
X15413039Y-9864936D01*
X15413039Y-9864936D02*
X15422563Y-9855412D01*
X15489229Y-9903031D02*
X15498753Y-9893508D01*
X15498753Y-9893508D02*
X15517801Y-9883984D01*
X15517801Y-9883984D02*
X15565420Y-9883984D01*
X15565420Y-9883984D02*
X15584468Y-9893508D01*
X15584468Y-9893508D02*
X15593991Y-9903031D01*
X15593991Y-9903031D02*
X15603515Y-9922079D01*
X15603515Y-9922079D02*
X15603515Y-9941127D01*
X15603515Y-9941127D02*
X15593991Y-9969698D01*
X15593991Y-9969698D02*
X15479706Y-10083984D01*
X15479706Y-10083984D02*
X15603515Y-10083984D01*
X15841610Y-10083984D02*
X15841610Y-9883984D01*
X15927325Y-10083984D02*
X15927325Y-9979222D01*
X15927325Y-9979222D02*
X15917801Y-9960174D01*
X15917801Y-9960174D02*
X15898753Y-9950650D01*
X15898753Y-9950650D02*
X15870182Y-9950650D01*
X15870182Y-9950650D02*
X15851134Y-9960174D01*
X15851134Y-9960174D02*
X15841610Y-9969698D01*
X16051134Y-10083984D02*
X16032087Y-10074460D01*
X16032087Y-10074460D02*
X16022563Y-10064936D01*
X16022563Y-10064936D02*
X16013039Y-10045889D01*
X16013039Y-10045889D02*
X16013039Y-9988746D01*
X16013039Y-9988746D02*
X16022563Y-9969698D01*
X16022563Y-9969698D02*
X16032087Y-9960174D01*
X16032087Y-9960174D02*
X16051134Y-9950650D01*
X16051134Y-9950650D02*
X16079706Y-9950650D01*
X16079706Y-9950650D02*
X16098753Y-9960174D01*
X16098753Y-9960174D02*
X16108277Y-9969698D01*
X16108277Y-9969698D02*
X16117801Y-9988746D01*
X16117801Y-9988746D02*
X16117801Y-10045889D01*
X16117801Y-10045889D02*
X16108277Y-10064936D01*
X16108277Y-10064936D02*
X16098753Y-10074460D01*
X16098753Y-10074460D02*
X16079706Y-10083984D01*
X16079706Y-10083984D02*
X16051134Y-10083984D01*
X16232087Y-10083984D02*
X16213039Y-10074460D01*
X16213039Y-10074460D02*
X16203515Y-10055412D01*
X16203515Y-10055412D02*
X16203515Y-9883984D01*
X16384468Y-10074460D02*
X16365420Y-10083984D01*
X16365420Y-10083984D02*
X16327325Y-10083984D01*
X16327325Y-10083984D02*
X16308277Y-10074460D01*
X16308277Y-10074460D02*
X16298753Y-10055412D01*
X16298753Y-10055412D02*
X16298753Y-9979222D01*
X16298753Y-9979222D02*
X16308277Y-9960174D01*
X16308277Y-9960174D02*
X16327325Y-9950650D01*
X16327325Y-9950650D02*
X16365420Y-9950650D01*
X16365420Y-9950650D02*
X16384468Y-9960174D01*
X16384468Y-9960174D02*
X16393991Y-9979222D01*
X16393991Y-9979222D02*
X16393991Y-9998270D01*
X16393991Y-9998270D02*
X16298753Y-10017317D01*
X16470182Y-10074460D02*
X16489230Y-10083984D01*
X16489230Y-10083984D02*
X16527325Y-10083984D01*
X16527325Y-10083984D02*
X16546372Y-10074460D01*
X16546372Y-10074460D02*
X16555896Y-10055412D01*
X16555896Y-10055412D02*
X16555896Y-10045889D01*
X16555896Y-10045889D02*
X16546372Y-10026841D01*
X16546372Y-10026841D02*
X16527325Y-10017317D01*
X16527325Y-10017317D02*
X16498753Y-10017317D01*
X16498753Y-10017317D02*
X16479706Y-10007793D01*
X16479706Y-10007793D02*
X16470182Y-9988746D01*
X16470182Y-9988746D02*
X16470182Y-9979222D01*
X16470182Y-9979222D02*
X16479706Y-9960174D01*
X16479706Y-9960174D02*
X16498753Y-9950650D01*
X16498753Y-9950650D02*
X16527325Y-9950650D01*
X16527325Y-9950650D02*
X16546372Y-9960174D01*
X16622563Y-10160174D02*
X16632087Y-10150650D01*
X16632087Y-10150650D02*
X16651134Y-10122079D01*
X16651134Y-10122079D02*
X16660658Y-10103031D01*
X16660658Y-10103031D02*
X16670182Y-10074460D01*
X16670182Y-10074460D02*
X16679706Y-10026841D01*
X16679706Y-10026841D02*
X16679706Y-9988746D01*
X16679706Y-9988746D02*
X16670182Y-9941127D01*
X16670182Y-9941127D02*
X16660658Y-9912555D01*
X16660658Y-9912555D02*
X16651134Y-9893508D01*
X16651134Y-9893508D02*
X16632087Y-9864936D01*
X16632087Y-9864936D02*
X16622563Y-9855412D01*
X16984468Y-10160174D02*
X16974944Y-10150650D01*
X16974944Y-10150650D02*
X16955896Y-10122079D01*
X16955896Y-10122079D02*
X16946373Y-10103031D01*
X16946373Y-10103031D02*
X16936849Y-10074460D01*
X16936849Y-10074460D02*
X16927325Y-10026841D01*
X16927325Y-10026841D02*
X16927325Y-9988746D01*
X16927325Y-9988746D02*
X16936849Y-9941127D01*
X16936849Y-9941127D02*
X16946373Y-9912555D01*
X16946373Y-9912555D02*
X16955896Y-9893508D01*
X16955896Y-9893508D02*
X16974944Y-9864936D01*
X16974944Y-9864936D02*
X16984468Y-9855412D01*
X17060658Y-9950650D02*
X17060658Y-10083984D01*
X17060658Y-9969698D02*
X17070182Y-9960174D01*
X17070182Y-9960174D02*
X17089230Y-9950650D01*
X17089230Y-9950650D02*
X17117801Y-9950650D01*
X17117801Y-9950650D02*
X17136849Y-9960174D01*
X17136849Y-9960174D02*
X17146373Y-9979222D01*
X17146373Y-9979222D02*
X17146373Y-10083984D01*
X17270182Y-10083984D02*
X17251134Y-10074460D01*
X17251134Y-10074460D02*
X17241611Y-10064936D01*
X17241611Y-10064936D02*
X17232087Y-10045889D01*
X17232087Y-10045889D02*
X17232087Y-9988746D01*
X17232087Y-9988746D02*
X17241611Y-9969698D01*
X17241611Y-9969698D02*
X17251134Y-9960174D01*
X17251134Y-9960174D02*
X17270182Y-9950650D01*
X17270182Y-9950650D02*
X17298754Y-9950650D01*
X17298754Y-9950650D02*
X17317801Y-9960174D01*
X17317801Y-9960174D02*
X17327325Y-9969698D01*
X17327325Y-9969698D02*
X17336849Y-9988746D01*
X17336849Y-9988746D02*
X17336849Y-10045889D01*
X17336849Y-10045889D02*
X17327325Y-10064936D01*
X17327325Y-10064936D02*
X17317801Y-10074460D01*
X17317801Y-10074460D02*
X17298754Y-10083984D01*
X17298754Y-10083984D02*
X17270182Y-10083984D01*
X17393992Y-9950650D02*
X17470182Y-9950650D01*
X17422563Y-9883984D02*
X17422563Y-10055412D01*
X17422563Y-10055412D02*
X17432087Y-10074460D01*
X17432087Y-10074460D02*
X17451134Y-10083984D01*
X17451134Y-10083984D02*
X17470182Y-10083984D01*
X17689230Y-9950650D02*
X17689230Y-10150650D01*
X17689230Y-9960174D02*
X17708277Y-9950650D01*
X17708277Y-9950650D02*
X17746373Y-9950650D01*
X17746373Y-9950650D02*
X17765420Y-9960174D01*
X17765420Y-9960174D02*
X17774944Y-9969698D01*
X17774944Y-9969698D02*
X17784468Y-9988746D01*
X17784468Y-9988746D02*
X17784468Y-10045889D01*
X17784468Y-10045889D02*
X17774944Y-10064936D01*
X17774944Y-10064936D02*
X17765420Y-10074460D01*
X17765420Y-10074460D02*
X17746373Y-10083984D01*
X17746373Y-10083984D02*
X17708277Y-10083984D01*
X17708277Y-10083984D02*
X17689230Y-10074460D01*
X17898754Y-10083984D02*
X17879706Y-10074460D01*
X17879706Y-10074460D02*
X17870182Y-10055412D01*
X17870182Y-10055412D02*
X17870182Y-9883984D01*
X18060658Y-10083984D02*
X18060658Y-9979222D01*
X18060658Y-9979222D02*
X18051135Y-9960174D01*
X18051135Y-9960174D02*
X18032087Y-9950650D01*
X18032087Y-9950650D02*
X17993992Y-9950650D01*
X17993992Y-9950650D02*
X17974944Y-9960174D01*
X18060658Y-10074460D02*
X18041611Y-10083984D01*
X18041611Y-10083984D02*
X17993992Y-10083984D01*
X17993992Y-10083984D02*
X17974944Y-10074460D01*
X17974944Y-10074460D02*
X17965420Y-10055412D01*
X17965420Y-10055412D02*
X17965420Y-10036365D01*
X17965420Y-10036365D02*
X17974944Y-10017317D01*
X17974944Y-10017317D02*
X17993992Y-10007793D01*
X17993992Y-10007793D02*
X18041611Y-10007793D01*
X18041611Y-10007793D02*
X18060658Y-9998270D01*
X18127325Y-9950650D02*
X18203515Y-9950650D01*
X18155896Y-9883984D02*
X18155896Y-10055412D01*
X18155896Y-10055412D02*
X18165420Y-10074460D01*
X18165420Y-10074460D02*
X18184468Y-10083984D01*
X18184468Y-10083984D02*
X18203515Y-10083984D01*
X18346373Y-10074460D02*
X18327325Y-10083984D01*
X18327325Y-10083984D02*
X18289230Y-10083984D01*
X18289230Y-10083984D02*
X18270182Y-10074460D01*
X18270182Y-10074460D02*
X18260658Y-10055412D01*
X18260658Y-10055412D02*
X18260658Y-9979222D01*
X18260658Y-9979222D02*
X18270182Y-9960174D01*
X18270182Y-9960174D02*
X18289230Y-9950650D01*
X18289230Y-9950650D02*
X18327325Y-9950650D01*
X18327325Y-9950650D02*
X18346373Y-9960174D01*
X18346373Y-9960174D02*
X18355896Y-9979222D01*
X18355896Y-9979222D02*
X18355896Y-9998270D01*
X18355896Y-9998270D02*
X18260658Y-10017317D01*
X18527325Y-10083984D02*
X18527325Y-9883984D01*
X18527325Y-10074460D02*
X18508277Y-10083984D01*
X18508277Y-10083984D02*
X18470182Y-10083984D01*
X18470182Y-10083984D02*
X18451135Y-10074460D01*
X18451135Y-10074460D02*
X18441611Y-10064936D01*
X18441611Y-10064936D02*
X18432087Y-10045889D01*
X18432087Y-10045889D02*
X18432087Y-9988746D01*
X18432087Y-9988746D02*
X18441611Y-9969698D01*
X18441611Y-9969698D02*
X18451135Y-9960174D01*
X18451135Y-9960174D02*
X18470182Y-9950650D01*
X18470182Y-9950650D02*
X18508277Y-9950650D01*
X18508277Y-9950650D02*
X18527325Y-9960174D01*
X18603516Y-10160174D02*
X18613039Y-10150650D01*
X18613039Y-10150650D02*
X18632087Y-10122079D01*
X18632087Y-10122079D02*
X18641611Y-10103031D01*
X18641611Y-10103031D02*
X18651135Y-10074460D01*
X18651135Y-10074460D02*
X18660658Y-10026841D01*
X18660658Y-10026841D02*
X18660658Y-9988746D01*
X18660658Y-9988746D02*
X18651135Y-9941127D01*
X18651135Y-9941127D02*
X18641611Y-9912555D01*
X18641611Y-9912555D02*
X18632087Y-9893508D01*
X18632087Y-9893508D02*
X18613039Y-9864936D01*
X18613039Y-9864936D02*
X18603516Y-9855412D01*
M02*
