G04 #@! TF.GenerationSoftware,KiCad,Pcbnew,9.0.4*
G04 #@! TF.CreationDate,2025-12-18T17:29:26-05:00*
G04 #@! TF.ProjectId,TC_kent,54435f6b-656e-4742-9e6b-696361645f70,rev?*
G04 #@! TF.SameCoordinates,Original*
G04 #@! TF.FileFunction,Copper,L2,Bot*
G04 #@! TF.FilePolarity,Positive*
%FSLAX46Y46*%
G04 Gerber Fmt 4.6, Leading zero omitted, Abs format (unit mm)*
G04 Created by KiCad (PCBNEW 9.0.4) date 2025-12-18 17:29:26*
%MOMM*%
%LPD*%
G01*
G04 APERTURE LIST*
G04 Aperture macros list*
%AMRoundRect*
0 Rectangle with rounded corners*
0 $1 Rounding radius*
0 $2 $3 $4 $5 $6 $7 $8 $9 X,Y pos of 4 corners*
0 Add a 4 corners polygon primitive as box body*
4,1,4,$2,$3,$4,$5,$6,$7,$8,$9,$2,$3,0*
0 Add four circle primitives for the rounded corners*
1,1,$1+$1,$2,$3*
1,1,$1+$1,$4,$5*
1,1,$1+$1,$6,$7*
1,1,$1+$1,$8,$9*
0 Add four rect primitives between the rounded corners*
20,1,$1+$1,$2,$3,$4,$5,0*
20,1,$1+$1,$4,$5,$6,$7,0*
20,1,$1+$1,$6,$7,$8,$9,0*
20,1,$1+$1,$8,$9,$2,$3,0*%
G04 Aperture macros list end*
G04 #@! TA.AperFunction,ComponentPad*
%ADD10RoundRect,0.250000X0.725000X-0.600000X0.725000X0.600000X-0.725000X0.600000X-0.725000X-0.600000X0*%
G04 #@! TD*
G04 #@! TA.AperFunction,ComponentPad*
%ADD11O,1.950000X1.700000*%
G04 #@! TD*
G04 #@! TA.AperFunction,ComponentPad*
%ADD12RoundRect,0.250000X-0.750000X0.600000X-0.750000X-0.600000X0.750000X-0.600000X0.750000X0.600000X0*%
G04 #@! TD*
G04 #@! TA.AperFunction,ComponentPad*
%ADD13O,2.000000X1.700000*%
G04 #@! TD*
G04 #@! TA.AperFunction,ViaPad*
%ADD14C,0.600000*%
G04 #@! TD*
G04 #@! TA.AperFunction,Conductor*
%ADD15C,0.200000*%
G04 #@! TD*
G04 APERTURE END LIST*
D10*
X143000000Y-88600000D03*
D11*
X143000000Y-86100000D03*
X143000000Y-83600000D03*
X143000000Y-81100000D03*
D12*
X127100000Y-83800000D03*
D13*
X127100000Y-86300000D03*
D14*
X136100000Y-87400000D03*
X134579607Y-84789009D03*
X138600000Y-89100000D03*
X132200000Y-87900000D03*
X131100000Y-86700000D03*
X142000000Y-89900000D03*
X137900000Y-82500000D03*
X141500000Y-83600000D03*
X137900000Y-86000000D03*
D15*
X134579607Y-85379607D02*
X136100000Y-86900000D01*
X134579607Y-84789009D02*
X134579607Y-85379607D01*
X136100000Y-86900000D02*
X136100000Y-87400000D01*
X140300000Y-83600000D02*
X141500000Y-83600000D01*
X137900000Y-86000000D02*
X140300000Y-83600000D01*
G04 #@! TA.AperFunction,Conductor*
G36*
X150542539Y-76920185D02*
G01*
X150588294Y-76972989D01*
X150599500Y-77024500D01*
X150599500Y-92975500D01*
X150579815Y-93042539D01*
X150527011Y-93088294D01*
X150475500Y-93099500D01*
X119024500Y-93099500D01*
X118957461Y-93079815D01*
X118911706Y-93027011D01*
X118900500Y-92975500D01*
X118900500Y-82121153D01*
X124299500Y-82121153D01*
X124299500Y-82278846D01*
X124330261Y-82433489D01*
X124330264Y-82433501D01*
X124390602Y-82579172D01*
X124390609Y-82579185D01*
X124478210Y-82710288D01*
X124478213Y-82710292D01*
X124589707Y-82821786D01*
X124589711Y-82821789D01*
X124720814Y-82909390D01*
X124720827Y-82909397D01*
X124866498Y-82969735D01*
X124866503Y-82969737D01*
X125016030Y-82999480D01*
X125021153Y-83000499D01*
X125021156Y-83000500D01*
X125021158Y-83000500D01*
X125178844Y-83000500D01*
X125178845Y-83000499D01*
X125333497Y-82969737D01*
X125438560Y-82926218D01*
X125508027Y-82918750D01*
X125570507Y-82950025D01*
X125606159Y-83010114D01*
X125609369Y-83053382D01*
X125599500Y-83149981D01*
X125599500Y-84450001D01*
X125599501Y-84450018D01*
X125610000Y-84552796D01*
X125610001Y-84552799D01*
X125662147Y-84710162D01*
X125665186Y-84719334D01*
X125756791Y-84867851D01*
X125757289Y-84868657D01*
X125881344Y-84992712D01*
X126036120Y-85088178D01*
X126082845Y-85140126D01*
X126094068Y-85209088D01*
X126066224Y-85273171D01*
X126058706Y-85281398D01*
X125919889Y-85420215D01*
X125794951Y-85592179D01*
X125698444Y-85781585D01*
X125632753Y-85983760D01*
X125617694Y-86078842D01*
X125599500Y-86193713D01*
X125599500Y-86406287D01*
X125632754Y-86616243D01*
X125695001Y-86807820D01*
X125698444Y-86818414D01*
X125794951Y-87007820D01*
X125919890Y-87179786D01*
X126070213Y-87330109D01*
X126242179Y-87455048D01*
X126242181Y-87455049D01*
X126242184Y-87455051D01*
X126431588Y-87551557D01*
X126633757Y-87617246D01*
X126843713Y-87650500D01*
X126843714Y-87650500D01*
X127356286Y-87650500D01*
X127356287Y-87650500D01*
X127566243Y-87617246D01*
X127768412Y-87551557D01*
X127957816Y-87455051D01*
X127979789Y-87439086D01*
X128129786Y-87330109D01*
X128129788Y-87330106D01*
X128129792Y-87330104D01*
X128280104Y-87179792D01*
X128280106Y-87179788D01*
X128280109Y-87179786D01*
X128405048Y-87007820D01*
X128405047Y-87007820D01*
X128405051Y-87007816D01*
X128501557Y-86818412D01*
X128567246Y-86616243D01*
X128600500Y-86406287D01*
X128600500Y-86193713D01*
X128567246Y-85983757D01*
X128501557Y-85781588D01*
X128405051Y-85592184D01*
X128405049Y-85592181D01*
X128405048Y-85592179D01*
X128280109Y-85420213D01*
X128141294Y-85281398D01*
X128107809Y-85220075D01*
X128112793Y-85150383D01*
X128154665Y-85094450D01*
X128163879Y-85088178D01*
X128169331Y-85084814D01*
X128169334Y-85084814D01*
X128318656Y-84992712D01*
X128442712Y-84868656D01*
X128534814Y-84719334D01*
X128537853Y-84710162D01*
X133779107Y-84710162D01*
X133779107Y-84867855D01*
X133809868Y-85022498D01*
X133809871Y-85022510D01*
X133870209Y-85168181D01*
X133870216Y-85168194D01*
X133958208Y-85299882D01*
X133979086Y-85366559D01*
X133979106Y-85368773D01*
X133979106Y-85458661D01*
X133979105Y-85458661D01*
X133979106Y-85458664D01*
X134020030Y-85611392D01*
X134025474Y-85620821D01*
X134099084Y-85748319D01*
X134099088Y-85748324D01*
X134217956Y-85867192D01*
X134217962Y-85867197D01*
X135326448Y-86975683D01*
X135359933Y-87037006D01*
X135354949Y-87106698D01*
X135353329Y-87110814D01*
X135330263Y-87166502D01*
X135330260Y-87166511D01*
X135299500Y-87321153D01*
X135299500Y-87478846D01*
X135330261Y-87633489D01*
X135330264Y-87633501D01*
X135390602Y-87779172D01*
X135390609Y-87779185D01*
X135478210Y-87910288D01*
X135478213Y-87910292D01*
X135589707Y-88021786D01*
X135589711Y-88021789D01*
X135720814Y-88109390D01*
X135720827Y-88109397D01*
X135836646Y-88157370D01*
X135866503Y-88169737D01*
X136021153Y-88200499D01*
X136021156Y-88200500D01*
X136021158Y-88200500D01*
X136178844Y-88200500D01*
X136178845Y-88200499D01*
X136333497Y-88169737D01*
X136479179Y-88109394D01*
X136610289Y-88021789D01*
X136721789Y-87910289D01*
X136809394Y-87779179D01*
X136869737Y-87633497D01*
X136900500Y-87478842D01*
X136900500Y-87321158D01*
X136900500Y-87321155D01*
X136900499Y-87321153D01*
X136887350Y-87255051D01*
X136869737Y-87166503D01*
X136850046Y-87118964D01*
X136809397Y-87020827D01*
X136809390Y-87020814D01*
X136721398Y-86889125D01*
X136702532Y-86828875D01*
X136701561Y-86829003D01*
X136700826Y-86823426D01*
X136700520Y-86822447D01*
X136700506Y-86820997D01*
X136700500Y-86820950D01*
X136700500Y-86820943D01*
X136659577Y-86668216D01*
X136629571Y-86616243D01*
X136580524Y-86531290D01*
X136580521Y-86531286D01*
X136580520Y-86531284D01*
X136468716Y-86419480D01*
X136468715Y-86419479D01*
X136464385Y-86415149D01*
X136464374Y-86415139D01*
X135970388Y-85921153D01*
X137099500Y-85921153D01*
X137099500Y-86078846D01*
X137130261Y-86233489D01*
X137130264Y-86233501D01*
X137190602Y-86379172D01*
X137190609Y-86379185D01*
X137278210Y-86510288D01*
X137278213Y-86510292D01*
X137389707Y-86621786D01*
X137389711Y-86621789D01*
X137520814Y-86709390D01*
X137520827Y-86709397D01*
X137666498Y-86769735D01*
X137666503Y-86769737D01*
X137821153Y-86800499D01*
X137821156Y-86800500D01*
X137821158Y-86800500D01*
X137978844Y-86800500D01*
X137978845Y-86800499D01*
X138133497Y-86769737D01*
X138279179Y-86709394D01*
X138410289Y-86621789D01*
X138521789Y-86510289D01*
X138609394Y-86379179D01*
X138669737Y-86233497D01*
X138689113Y-86136085D01*
X138700638Y-86078150D01*
X138733023Y-86016239D01*
X138734517Y-86014717D01*
X140512417Y-84236819D01*
X140573740Y-84203334D01*
X140600098Y-84200500D01*
X140920234Y-84200500D01*
X140987273Y-84220185D01*
X140989125Y-84221398D01*
X141120814Y-84309390D01*
X141120827Y-84309397D01*
X141242334Y-84359726D01*
X141266503Y-84369737D01*
X141421153Y-84400499D01*
X141421156Y-84400500D01*
X141421158Y-84400500D01*
X141578844Y-84400500D01*
X141683113Y-84379759D01*
X141752705Y-84385986D01*
X141807623Y-84428490D01*
X141844897Y-84479793D01*
X141995209Y-84630105D01*
X141995214Y-84630109D01*
X142159793Y-84749682D01*
X142202459Y-84805011D01*
X142208438Y-84874625D01*
X142175833Y-84936420D01*
X142159793Y-84950318D01*
X141995214Y-85069890D01*
X141995209Y-85069894D01*
X141844890Y-85220213D01*
X141719951Y-85392179D01*
X141623444Y-85581585D01*
X141557753Y-85783760D01*
X141524500Y-85993713D01*
X141524500Y-86206286D01*
X141557580Y-86415149D01*
X141557754Y-86416243D01*
X141622738Y-86616243D01*
X141623444Y-86618414D01*
X141719951Y-86807820D01*
X141844890Y-86979786D01*
X141984068Y-87118964D01*
X142017553Y-87180287D01*
X142012569Y-87249979D01*
X141970697Y-87305912D01*
X141961484Y-87312183D01*
X141806659Y-87407680D01*
X141806655Y-87407683D01*
X141682684Y-87531654D01*
X141590643Y-87680875D01*
X141590641Y-87680880D01*
X141535494Y-87847302D01*
X141535493Y-87847309D01*
X141525000Y-87950013D01*
X141525000Y-88350000D01*
X142595854Y-88350000D01*
X142557370Y-88416657D01*
X142525000Y-88537465D01*
X142525000Y-88662535D01*
X142557370Y-88783343D01*
X142595854Y-88850000D01*
X141525001Y-88850000D01*
X141525001Y-89249986D01*
X141535494Y-89352697D01*
X141590641Y-89519119D01*
X141590643Y-89519124D01*
X141682684Y-89668345D01*
X141806654Y-89792315D01*
X141955875Y-89884356D01*
X141955880Y-89884358D01*
X142122302Y-89939505D01*
X142122309Y-89939506D01*
X142225019Y-89949999D01*
X142749999Y-89949999D01*
X142750000Y-89949998D01*
X142750000Y-89004145D01*
X142816657Y-89042630D01*
X142937465Y-89075000D01*
X143062535Y-89075000D01*
X143183343Y-89042630D01*
X143250000Y-89004145D01*
X143250000Y-89949999D01*
X143774972Y-89949999D01*
X143774986Y-89949998D01*
X143877697Y-89939505D01*
X144044120Y-89884358D01*
X144045540Y-89883696D01*
X144046608Y-89883533D01*
X144050977Y-89882086D01*
X144051224Y-89882832D01*
X144114617Y-89873200D01*
X144178403Y-89901716D01*
X144216645Y-89960191D01*
X144219568Y-90020266D01*
X144199500Y-90121153D01*
X144199500Y-90278846D01*
X144230261Y-90433489D01*
X144230264Y-90433501D01*
X144290602Y-90579172D01*
X144290609Y-90579185D01*
X144378210Y-90710288D01*
X144378213Y-90710292D01*
X144489707Y-90821786D01*
X144489711Y-90821789D01*
X144620814Y-90909390D01*
X144620827Y-90909397D01*
X144766498Y-90969735D01*
X144766503Y-90969737D01*
X144921153Y-91000499D01*
X144921156Y-91000500D01*
X144921158Y-91000500D01*
X145078844Y-91000500D01*
X145078845Y-91000499D01*
X145233497Y-90969737D01*
X145379179Y-90909394D01*
X145510289Y-90821789D01*
X145621789Y-90710289D01*
X145709394Y-90579179D01*
X145769737Y-90433497D01*
X145800500Y-90278842D01*
X145800500Y-90121158D01*
X145800500Y-90121155D01*
X145800499Y-90121153D01*
X145769738Y-89966510D01*
X145769737Y-89966503D01*
X145762901Y-89949999D01*
X145709397Y-89820827D01*
X145709390Y-89820814D01*
X145621789Y-89689711D01*
X145621786Y-89689707D01*
X145510292Y-89578213D01*
X145510288Y-89578210D01*
X145379185Y-89490609D01*
X145379172Y-89490602D01*
X145233501Y-89430264D01*
X145233489Y-89430261D01*
X145078845Y-89399500D01*
X145078842Y-89399500D01*
X144921158Y-89399500D01*
X144921155Y-89399500D01*
X144766510Y-89430261D01*
X144766503Y-89430263D01*
X144634809Y-89484811D01*
X144565340Y-89492279D01*
X144502861Y-89461003D01*
X144467209Y-89400914D01*
X144464000Y-89357646D01*
X144474999Y-89249986D01*
X144475000Y-89249973D01*
X144475000Y-88850000D01*
X143404146Y-88850000D01*
X143442630Y-88783343D01*
X143475000Y-88662535D01*
X143475000Y-88537465D01*
X143442630Y-88416657D01*
X143404146Y-88350000D01*
X144474999Y-88350000D01*
X144474999Y-87950028D01*
X144474998Y-87950013D01*
X144464505Y-87847302D01*
X144409358Y-87680880D01*
X144409356Y-87680875D01*
X144317315Y-87531654D01*
X144193345Y-87407684D01*
X144038515Y-87312184D01*
X143991791Y-87260236D01*
X143980568Y-87191273D01*
X144008412Y-87127191D01*
X144015909Y-87118986D01*
X144155104Y-86979792D01*
X144158090Y-86975683D01*
X144269421Y-86822447D01*
X144280051Y-86807816D01*
X144376557Y-86618412D01*
X144442246Y-86416243D01*
X144475500Y-86206287D01*
X144475500Y-85993713D01*
X144442246Y-85783757D01*
X144376557Y-85581588D01*
X144280051Y-85392184D01*
X144280049Y-85392181D01*
X144280048Y-85392179D01*
X144155109Y-85220213D01*
X144004792Y-85069896D01*
X143939570Y-85022510D01*
X143840204Y-84950316D01*
X143797540Y-84894989D01*
X143791561Y-84825376D01*
X143824166Y-84763580D01*
X143840199Y-84749686D01*
X144004792Y-84630104D01*
X144155104Y-84479792D01*
X144155106Y-84479788D01*
X144155109Y-84479786D01*
X144278902Y-84309397D01*
X144280051Y-84307816D01*
X144376557Y-84118412D01*
X144442246Y-83916243D01*
X144475500Y-83706287D01*
X144475500Y-83493713D01*
X144442246Y-83283757D01*
X144376557Y-83081588D01*
X144280051Y-82892184D01*
X144280049Y-82892181D01*
X144280048Y-82892179D01*
X144155109Y-82720213D01*
X144004792Y-82569896D01*
X144004784Y-82569890D01*
X143840204Y-82450316D01*
X143797540Y-82394989D01*
X143791561Y-82325376D01*
X143824166Y-82263580D01*
X143840199Y-82249686D01*
X144004792Y-82130104D01*
X144155104Y-81979792D01*
X144155106Y-81979788D01*
X144155109Y-81979786D01*
X144280048Y-81807820D01*
X144280047Y-81807820D01*
X144280051Y-81807816D01*
X144376557Y-81618412D01*
X144442246Y-81416243D01*
X144475500Y-81206287D01*
X144475500Y-80993713D01*
X144442246Y-80783757D01*
X144376557Y-80581588D01*
X144280051Y-80392184D01*
X144280049Y-80392181D01*
X144280048Y-80392179D01*
X144155109Y-80220213D01*
X144004786Y-80069890D01*
X143832820Y-79944951D01*
X143643414Y-79848444D01*
X143643413Y-79848443D01*
X143643412Y-79848443D01*
X143441243Y-79782754D01*
X143441241Y-79782753D01*
X143441240Y-79782753D01*
X143279957Y-79757208D01*
X143231287Y-79749500D01*
X142768713Y-79749500D01*
X142720042Y-79757208D01*
X142558760Y-79782753D01*
X142356585Y-79848444D01*
X142167179Y-79944951D01*
X141995213Y-80069890D01*
X141844890Y-80220213D01*
X141719951Y-80392179D01*
X141623444Y-80581585D01*
X141557753Y-80783760D01*
X141524500Y-80993713D01*
X141524500Y-81206287D01*
X141557754Y-81416243D01*
X141610381Y-81578213D01*
X141623444Y-81618414D01*
X141719951Y-81807820D01*
X141844890Y-81979786D01*
X141995209Y-82130105D01*
X141995214Y-82130109D01*
X142159793Y-82249682D01*
X142202459Y-82305011D01*
X142208438Y-82374625D01*
X142175833Y-82436420D01*
X142159793Y-82450318D01*
X141995214Y-82569890D01*
X141995209Y-82569894D01*
X141844894Y-82720209D01*
X141807623Y-82771509D01*
X141752293Y-82814174D01*
X141683114Y-82820240D01*
X141578846Y-82799500D01*
X141578842Y-82799500D01*
X141421158Y-82799500D01*
X141421155Y-82799500D01*
X141266510Y-82830261D01*
X141266498Y-82830264D01*
X141120827Y-82890602D01*
X141120814Y-82890609D01*
X140989125Y-82978602D01*
X140922447Y-82999480D01*
X140920234Y-82999500D01*
X140386670Y-82999500D01*
X140386654Y-82999499D01*
X140379058Y-82999499D01*
X140220943Y-82999499D01*
X140144579Y-83019961D01*
X140068214Y-83040423D01*
X140068209Y-83040426D01*
X139931290Y-83119475D01*
X139931282Y-83119481D01*
X137885339Y-85165425D01*
X137824016Y-85198910D01*
X137821850Y-85199361D01*
X137666508Y-85230261D01*
X137666498Y-85230264D01*
X137520827Y-85290602D01*
X137520814Y-85290609D01*
X137389711Y-85378210D01*
X137389707Y-85378213D01*
X137278213Y-85489707D01*
X137278210Y-85489711D01*
X137190609Y-85620814D01*
X137190602Y-85620827D01*
X137130264Y-85766498D01*
X137130261Y-85766510D01*
X137099500Y-85921153D01*
X135970388Y-85921153D01*
X135326623Y-85277388D01*
X135293138Y-85216065D01*
X135298122Y-85146373D01*
X135299743Y-85142255D01*
X135323535Y-85084814D01*
X135349344Y-85022506D01*
X135380107Y-84867851D01*
X135380107Y-84710167D01*
X135380107Y-84710164D01*
X135380106Y-84710162D01*
X135349344Y-84555512D01*
X135348219Y-84552795D01*
X135289004Y-84409836D01*
X135288997Y-84409823D01*
X135201396Y-84278720D01*
X135201393Y-84278716D01*
X135089899Y-84167222D01*
X135089895Y-84167219D01*
X134958792Y-84079618D01*
X134958779Y-84079611D01*
X134813108Y-84019273D01*
X134813096Y-84019270D01*
X134658452Y-83988509D01*
X134658449Y-83988509D01*
X134500765Y-83988509D01*
X134500762Y-83988509D01*
X134346117Y-84019270D01*
X134346105Y-84019273D01*
X134200434Y-84079611D01*
X134200421Y-84079618D01*
X134069318Y-84167219D01*
X134069314Y-84167222D01*
X133957820Y-84278716D01*
X133957817Y-84278720D01*
X133870216Y-84409823D01*
X133870209Y-84409836D01*
X133809871Y-84555507D01*
X133809868Y-84555519D01*
X133779107Y-84710162D01*
X128537853Y-84710162D01*
X128589999Y-84552797D01*
X128600500Y-84450009D01*
X128600499Y-83149992D01*
X128593511Y-83081588D01*
X128589999Y-83047203D01*
X128589998Y-83047200D01*
X128567137Y-82978211D01*
X128534814Y-82880666D01*
X128442712Y-82731344D01*
X128318656Y-82607288D01*
X128169334Y-82515186D01*
X128002797Y-82460001D01*
X128002795Y-82460000D01*
X127900010Y-82449500D01*
X126299998Y-82449500D01*
X126299981Y-82449501D01*
X126197203Y-82460000D01*
X126197200Y-82460001D01*
X126043158Y-82511046D01*
X125973329Y-82513448D01*
X125913288Y-82477716D01*
X125882095Y-82415195D01*
X125882537Y-82369148D01*
X125900500Y-82278844D01*
X125900500Y-82121155D01*
X125900499Y-82121153D01*
X125869738Y-81966510D01*
X125869737Y-81966503D01*
X125869735Y-81966498D01*
X125809397Y-81820827D01*
X125809390Y-81820814D01*
X125721789Y-81689711D01*
X125721786Y-81689707D01*
X125610292Y-81578213D01*
X125610288Y-81578210D01*
X125479185Y-81490609D01*
X125479172Y-81490602D01*
X125333501Y-81430264D01*
X125333489Y-81430261D01*
X125178845Y-81399500D01*
X125178842Y-81399500D01*
X125021158Y-81399500D01*
X125021155Y-81399500D01*
X124866510Y-81430261D01*
X124866498Y-81430264D01*
X124720827Y-81490602D01*
X124720814Y-81490609D01*
X124589711Y-81578210D01*
X124589707Y-81578213D01*
X124478213Y-81689707D01*
X124478210Y-81689711D01*
X124390609Y-81820814D01*
X124390602Y-81820827D01*
X124330264Y-81966498D01*
X124330261Y-81966510D01*
X124299500Y-82121153D01*
X118900500Y-82121153D01*
X118900500Y-77024500D01*
X118920185Y-76957461D01*
X118972989Y-76911706D01*
X119024500Y-76900500D01*
X150475500Y-76900500D01*
X150542539Y-76920185D01*
G37*
G04 #@! TD.AperFunction*
M02*
