%TF.GenerationSoftware,KiCad,Pcbnew,9.0.5*%
%TF.CreationDate,2025-12-22T17:05:03-05:00*%
%TF.ProjectId,stm32f072cb_breakout,73746d33-3266-4303-9732-63625f627265,rev?*%
%TF.SameCoordinates,Original*%
%TF.FileFunction,Soldermask,Top*%
%TF.FilePolarity,Negative*%
%FSLAX46Y46*%
G04 Gerber Fmt 4.6, Leading zero omitted, Abs format (unit mm)*
G04 Created by KiCad (PCBNEW 9.0.5) date 2025-12-22 17:05:03*
%MOMM*%
%LPD*%
G01*
G04 APERTURE LIST*
G04 Aperture macros list*
%AMRoundRect*
0 Rectangle with rounded corners*
0 $1 Rounding radius*
0 $2 $3 $4 $5 $6 $7 $8 $9 X,Y pos of 4 corners*
0 Add a 4 corners polygon primitive as box body*
4,1,4,$2,$3,$4,$5,$6,$7,$8,$9,$2,$3,0*
0 Add four circle primitives for the rounded corners*
1,1,$1+$1,$2,$3*
1,1,$1+$1,$4,$5*
1,1,$1+$1,$6,$7*
1,1,$1+$1,$8,$9*
0 Add four rect primitives between the rounded corners*
20,1,$1+$1,$2,$3,$4,$5,0*
20,1,$1+$1,$4,$5,$6,$7,0*
20,1,$1+$1,$6,$7,$8,$9,0*
20,1,$1+$1,$8,$9,$2,$3,0*%
G04 Aperture macros list end*
%ADD10R,0.300000X1.475000*%
%ADD11R,1.475000X0.300000*%
%ADD12R,1.700000X1.700000*%
%ADD13C,1.700000*%
%ADD14RoundRect,0.225000X0.225000X0.250000X-0.225000X0.250000X-0.225000X-0.250000X0.225000X-0.250000X0*%
%ADD15RoundRect,0.225000X-0.225000X-0.250000X0.225000X-0.250000X0.225000X0.250000X-0.225000X0.250000X0*%
G04 APERTURE END LIST*
D10*
%TO.C,IC1*%
X145912000Y-84588000D03*
X146412000Y-84588000D03*
X146912000Y-84588000D03*
X147412000Y-84588000D03*
X147912000Y-84588000D03*
X148412000Y-84588000D03*
X148912000Y-84588000D03*
X149412000Y-84588000D03*
X149912000Y-84588000D03*
X150412000Y-84588000D03*
X150912000Y-84588000D03*
X151412000Y-84588000D03*
D11*
X152900000Y-83100000D03*
X152900000Y-82600000D03*
X152900000Y-82100000D03*
X152900000Y-81600000D03*
X152900000Y-81100000D03*
X152900000Y-80600000D03*
X152900000Y-80100000D03*
X152900000Y-79600000D03*
X152900000Y-79100000D03*
X152900000Y-78600000D03*
X152900000Y-78100000D03*
X152900000Y-77600000D03*
D10*
X151412000Y-76112000D03*
X150912000Y-76112000D03*
X150412000Y-76112000D03*
X149912000Y-76112000D03*
X149412000Y-76112000D03*
X148912000Y-76112000D03*
X148412000Y-76112000D03*
X147912000Y-76112000D03*
X147412000Y-76112000D03*
X146912000Y-76112000D03*
X146412000Y-76112000D03*
X145912000Y-76112000D03*
D11*
X144424000Y-77600000D03*
X144424000Y-78100000D03*
X144424000Y-78600000D03*
X144424000Y-79100000D03*
X144424000Y-79600000D03*
X144424000Y-80100000D03*
X144424000Y-80600000D03*
X144424000Y-81100000D03*
X144424000Y-81600000D03*
X144424000Y-82100000D03*
X144424000Y-82600000D03*
X144424000Y-83100000D03*
%TD*%
D12*
%TO.C,J2*%
X160670000Y-71170000D03*
D13*
X160670000Y-73710000D03*
X160670000Y-76250000D03*
X160670000Y-78790000D03*
X160670000Y-81330000D03*
X160670000Y-83870000D03*
X160670000Y-86410000D03*
X160670000Y-88950000D03*
%TD*%
D14*
%TO.C,C7*%
X146062000Y-74350000D03*
X144512000Y-74350000D03*
%TD*%
D15*
%TO.C,C3*%
X154612000Y-80550000D03*
X156162000Y-80550000D03*
%TD*%
%TO.C,C8*%
X147512000Y-74350000D03*
X149062000Y-74350000D03*
%TD*%
%TO.C,C4*%
X154612000Y-82150000D03*
X156162000Y-82150000D03*
%TD*%
D14*
%TO.C,C9*%
X150162000Y-86350000D03*
X148612000Y-86350000D03*
%TD*%
D15*
%TO.C,C1*%
X154612000Y-77350000D03*
X156162000Y-77350000D03*
%TD*%
%TO.C,C2*%
X154662000Y-78950000D03*
X156212000Y-78950000D03*
%TD*%
%TO.C,C10*%
X151587000Y-86350000D03*
X153137000Y-86350000D03*
%TD*%
D12*
%TO.C,J1*%
X140350000Y-71170000D03*
D13*
X140350000Y-73710000D03*
X140350000Y-76250000D03*
X140350000Y-78790000D03*
X140350000Y-81330000D03*
X140350000Y-83870000D03*
X140350000Y-86410000D03*
X140350000Y-88950000D03*
%TD*%
M02*
