%TF.GenerationSoftware,KiCad,Pcbnew,9.0.5*%
%TF.CreationDate,2025-12-22T17:05:02-05:00*%
%TF.ProjectId,stm32f072cb_breakout,73746d33-3266-4303-9732-63625f627265,rev?*%
%TF.SameCoordinates,Original*%
%TF.FileFunction,Legend,Bot*%
%TF.FilePolarity,Positive*%
%FSLAX46Y46*%
G04 Gerber Fmt 4.6, Leading zero omitted, Abs format (unit mm)*
G04 Created by KiCad (PCBNEW 9.0.5) date 2025-12-22 17:05:02*
%MOMM*%
%LPD*%
G01*
G04 APERTURE LIST*
%ADD10C,0.150000*%
G04 APERTURE END LIST*
D10*
X154972744Y-68885183D02*
X154865601Y-68920897D01*
X154865601Y-68920897D02*
X154829887Y-68956611D01*
X154829887Y-68956611D02*
X154794173Y-69028040D01*
X154794173Y-69028040D02*
X154794173Y-69135183D01*
X154794173Y-69135183D02*
X154829887Y-69206611D01*
X154829887Y-69206611D02*
X154865601Y-69242326D01*
X154865601Y-69242326D02*
X154937030Y-69278040D01*
X154937030Y-69278040D02*
X155222744Y-69278040D01*
X155222744Y-69278040D02*
X155222744Y-68528040D01*
X155222744Y-68528040D02*
X154972744Y-68528040D01*
X154972744Y-68528040D02*
X154901316Y-68563754D01*
X154901316Y-68563754D02*
X154865601Y-68599468D01*
X154865601Y-68599468D02*
X154829887Y-68670897D01*
X154829887Y-68670897D02*
X154829887Y-68742326D01*
X154829887Y-68742326D02*
X154865601Y-68813754D01*
X154865601Y-68813754D02*
X154901316Y-68849468D01*
X154901316Y-68849468D02*
X154972744Y-68885183D01*
X154972744Y-68885183D02*
X155222744Y-68885183D01*
X154258458Y-68528040D02*
X154258458Y-69063754D01*
X154258458Y-69063754D02*
X154294173Y-69170897D01*
X154294173Y-69170897D02*
X154365601Y-69242326D01*
X154365601Y-69242326D02*
X154472744Y-69278040D01*
X154472744Y-69278040D02*
X154544173Y-69278040D01*
X153472744Y-69278040D02*
X153722744Y-68920897D01*
X153901315Y-69278040D02*
X153901315Y-68528040D01*
X153901315Y-68528040D02*
X153615601Y-68528040D01*
X153615601Y-68528040D02*
X153544172Y-68563754D01*
X153544172Y-68563754D02*
X153508458Y-68599468D01*
X153508458Y-68599468D02*
X153472744Y-68670897D01*
X153472744Y-68670897D02*
X153472744Y-68778040D01*
X153472744Y-68778040D02*
X153508458Y-68849468D01*
X153508458Y-68849468D02*
X153544172Y-68885183D01*
X153544172Y-68885183D02*
X153615601Y-68920897D01*
X153615601Y-68920897D02*
X153901315Y-68920897D01*
X152687029Y-68920897D02*
X152722744Y-68885183D01*
X152722744Y-68885183D02*
X152794172Y-68849468D01*
X152794172Y-68849468D02*
X152865601Y-68849468D01*
X152865601Y-68849468D02*
X152937029Y-68885183D01*
X152937029Y-68885183D02*
X152972744Y-68920897D01*
X152972744Y-68920897D02*
X153008458Y-68992326D01*
X153008458Y-68992326D02*
X153008458Y-69063754D01*
X153008458Y-69063754D02*
X152972744Y-69135183D01*
X152972744Y-69135183D02*
X152937029Y-69170897D01*
X152937029Y-69170897D02*
X152865601Y-69206611D01*
X152865601Y-69206611D02*
X152794172Y-69206611D01*
X152794172Y-69206611D02*
X152722744Y-69170897D01*
X152722744Y-69170897D02*
X152687029Y-69135183D01*
X152687029Y-68849468D02*
X152687029Y-69135183D01*
X152687029Y-69135183D02*
X152651315Y-69170897D01*
X152651315Y-69170897D02*
X152615601Y-69170897D01*
X152615601Y-69170897D02*
X152544172Y-69135183D01*
X152544172Y-69135183D02*
X152508458Y-69063754D01*
X152508458Y-69063754D02*
X152508458Y-68885183D01*
X152508458Y-68885183D02*
X152579887Y-68778040D01*
X152579887Y-68778040D02*
X152687029Y-68706611D01*
X152687029Y-68706611D02*
X152829887Y-68670897D01*
X152829887Y-68670897D02*
X152972744Y-68706611D01*
X152972744Y-68706611D02*
X153079887Y-68778040D01*
X153079887Y-68778040D02*
X153151315Y-68885183D01*
X153151315Y-68885183D02*
X153187029Y-69028040D01*
X153187029Y-69028040D02*
X153151315Y-69170897D01*
X153151315Y-69170897D02*
X153079887Y-69278040D01*
X153079887Y-69278040D02*
X152972744Y-69349468D01*
X152972744Y-69349468D02*
X152829887Y-69385183D01*
X152829887Y-69385183D02*
X152687029Y-69349468D01*
X152687029Y-69349468D02*
X152579887Y-69278040D01*
X151972743Y-68528040D02*
X151972743Y-69063754D01*
X151972743Y-69063754D02*
X152008458Y-69170897D01*
X152008458Y-69170897D02*
X152079886Y-69242326D01*
X152079886Y-69242326D02*
X152187029Y-69278040D01*
X152187029Y-69278040D02*
X152258458Y-69278040D01*
X151615600Y-69278040D02*
X151615600Y-68528040D01*
X151615600Y-68885183D02*
X151187029Y-68885183D01*
X151187029Y-69278040D02*
X151187029Y-68528040D01*
X150829886Y-68528040D02*
X150829886Y-69135183D01*
X150829886Y-69135183D02*
X150794172Y-69206611D01*
X150794172Y-69206611D02*
X150758458Y-69242326D01*
X150758458Y-69242326D02*
X150687029Y-69278040D01*
X150687029Y-69278040D02*
X150544172Y-69278040D01*
X150544172Y-69278040D02*
X150472743Y-69242326D01*
X150472743Y-69242326D02*
X150437029Y-69206611D01*
X150437029Y-69206611D02*
X150401315Y-69135183D01*
X150401315Y-69135183D02*
X150401315Y-68528040D01*
X155258458Y-70449784D02*
X155151316Y-70485498D01*
X155151316Y-70485498D02*
X154972744Y-70485498D01*
X154972744Y-70485498D02*
X154901316Y-70449784D01*
X154901316Y-70449784D02*
X154865601Y-70414069D01*
X154865601Y-70414069D02*
X154829887Y-70342641D01*
X154829887Y-70342641D02*
X154829887Y-70271212D01*
X154829887Y-70271212D02*
X154865601Y-70199784D01*
X154865601Y-70199784D02*
X154901316Y-70164069D01*
X154901316Y-70164069D02*
X154972744Y-70128355D01*
X154972744Y-70128355D02*
X155115601Y-70092641D01*
X155115601Y-70092641D02*
X155187030Y-70056926D01*
X155187030Y-70056926D02*
X155222744Y-70021212D01*
X155222744Y-70021212D02*
X155258458Y-69949784D01*
X155258458Y-69949784D02*
X155258458Y-69878355D01*
X155258458Y-69878355D02*
X155222744Y-69806926D01*
X155222744Y-69806926D02*
X155187030Y-69771212D01*
X155187030Y-69771212D02*
X155115601Y-69735498D01*
X155115601Y-69735498D02*
X154937030Y-69735498D01*
X154937030Y-69735498D02*
X154829887Y-69771212D01*
X154615601Y-69735498D02*
X154187030Y-69735498D01*
X154401315Y-70485498D02*
X154401315Y-69735498D01*
X153937029Y-70485498D02*
X153937029Y-69735498D01*
X153937029Y-69735498D02*
X153687029Y-70271212D01*
X153687029Y-70271212D02*
X153437029Y-69735498D01*
X153437029Y-69735498D02*
X153437029Y-70485498D01*
X153151315Y-69735498D02*
X152687029Y-69735498D01*
X152687029Y-69735498D02*
X152937029Y-70021212D01*
X152937029Y-70021212D02*
X152829886Y-70021212D01*
X152829886Y-70021212D02*
X152758458Y-70056926D01*
X152758458Y-70056926D02*
X152722743Y-70092641D01*
X152722743Y-70092641D02*
X152687029Y-70164069D01*
X152687029Y-70164069D02*
X152687029Y-70342641D01*
X152687029Y-70342641D02*
X152722743Y-70414069D01*
X152722743Y-70414069D02*
X152758458Y-70449784D01*
X152758458Y-70449784D02*
X152829886Y-70485498D01*
X152829886Y-70485498D02*
X153044172Y-70485498D01*
X153044172Y-70485498D02*
X153115600Y-70449784D01*
X153115600Y-70449784D02*
X153151315Y-70414069D01*
X152401314Y-69806926D02*
X152365600Y-69771212D01*
X152365600Y-69771212D02*
X152294172Y-69735498D01*
X152294172Y-69735498D02*
X152115600Y-69735498D01*
X152115600Y-69735498D02*
X152044172Y-69771212D01*
X152044172Y-69771212D02*
X152008457Y-69806926D01*
X152008457Y-69806926D02*
X151972743Y-69878355D01*
X151972743Y-69878355D02*
X151972743Y-69949784D01*
X151972743Y-69949784D02*
X152008457Y-70056926D01*
X152008457Y-70056926D02*
X152437029Y-70485498D01*
X152437029Y-70485498D02*
X151972743Y-70485498D01*
X151401314Y-70092641D02*
X151651314Y-70092641D01*
X151651314Y-70485498D02*
X151651314Y-69735498D01*
X151651314Y-69735498D02*
X151294171Y-69735498D01*
X150865600Y-69735498D02*
X150794171Y-69735498D01*
X150794171Y-69735498D02*
X150722743Y-69771212D01*
X150722743Y-69771212D02*
X150687029Y-69806926D01*
X150687029Y-69806926D02*
X150651314Y-69878355D01*
X150651314Y-69878355D02*
X150615600Y-70021212D01*
X150615600Y-70021212D02*
X150615600Y-70199784D01*
X150615600Y-70199784D02*
X150651314Y-70342641D01*
X150651314Y-70342641D02*
X150687029Y-70414069D01*
X150687029Y-70414069D02*
X150722743Y-70449784D01*
X150722743Y-70449784D02*
X150794171Y-70485498D01*
X150794171Y-70485498D02*
X150865600Y-70485498D01*
X150865600Y-70485498D02*
X150937029Y-70449784D01*
X150937029Y-70449784D02*
X150972743Y-70414069D01*
X150972743Y-70414069D02*
X151008457Y-70342641D01*
X151008457Y-70342641D02*
X151044171Y-70199784D01*
X151044171Y-70199784D02*
X151044171Y-70021212D01*
X151044171Y-70021212D02*
X151008457Y-69878355D01*
X151008457Y-69878355D02*
X150972743Y-69806926D01*
X150972743Y-69806926D02*
X150937029Y-69771212D01*
X150937029Y-69771212D02*
X150865600Y-69735498D01*
X150365600Y-69735498D02*
X149865600Y-69735498D01*
X149865600Y-69735498D02*
X150187028Y-70485498D01*
X149615599Y-69806926D02*
X149579885Y-69771212D01*
X149579885Y-69771212D02*
X149508457Y-69735498D01*
X149508457Y-69735498D02*
X149329885Y-69735498D01*
X149329885Y-69735498D02*
X149258457Y-69771212D01*
X149258457Y-69771212D02*
X149222742Y-69806926D01*
X149222742Y-69806926D02*
X149187028Y-69878355D01*
X149187028Y-69878355D02*
X149187028Y-69949784D01*
X149187028Y-69949784D02*
X149222742Y-70056926D01*
X149222742Y-70056926D02*
X149651314Y-70485498D01*
X149651314Y-70485498D02*
X149187028Y-70485498D01*
X148437028Y-70414069D02*
X148472742Y-70449784D01*
X148472742Y-70449784D02*
X148579885Y-70485498D01*
X148579885Y-70485498D02*
X148651313Y-70485498D01*
X148651313Y-70485498D02*
X148758456Y-70449784D01*
X148758456Y-70449784D02*
X148829885Y-70378355D01*
X148829885Y-70378355D02*
X148865599Y-70306926D01*
X148865599Y-70306926D02*
X148901313Y-70164069D01*
X148901313Y-70164069D02*
X148901313Y-70056926D01*
X148901313Y-70056926D02*
X148865599Y-69914069D01*
X148865599Y-69914069D02*
X148829885Y-69842641D01*
X148829885Y-69842641D02*
X148758456Y-69771212D01*
X148758456Y-69771212D02*
X148651313Y-69735498D01*
X148651313Y-69735498D02*
X148579885Y-69735498D01*
X148579885Y-69735498D02*
X148472742Y-69771212D01*
X148472742Y-69771212D02*
X148437028Y-69806926D01*
X147865599Y-70092641D02*
X147758456Y-70128355D01*
X147758456Y-70128355D02*
X147722742Y-70164069D01*
X147722742Y-70164069D02*
X147687028Y-70235498D01*
X147687028Y-70235498D02*
X147687028Y-70342641D01*
X147687028Y-70342641D02*
X147722742Y-70414069D01*
X147722742Y-70414069D02*
X147758456Y-70449784D01*
X147758456Y-70449784D02*
X147829885Y-70485498D01*
X147829885Y-70485498D02*
X148115599Y-70485498D01*
X148115599Y-70485498D02*
X148115599Y-69735498D01*
X148115599Y-69735498D02*
X147865599Y-69735498D01*
X147865599Y-69735498D02*
X147794171Y-69771212D01*
X147794171Y-69771212D02*
X147758456Y-69806926D01*
X147758456Y-69806926D02*
X147722742Y-69878355D01*
X147722742Y-69878355D02*
X147722742Y-69949784D01*
X147722742Y-69949784D02*
X147758456Y-70021212D01*
X147758456Y-70021212D02*
X147794171Y-70056926D01*
X147794171Y-70056926D02*
X147865599Y-70092641D01*
X147865599Y-70092641D02*
X148115599Y-70092641D01*
X146544170Y-70092641D02*
X146437027Y-70128355D01*
X146437027Y-70128355D02*
X146401313Y-70164069D01*
X146401313Y-70164069D02*
X146365599Y-70235498D01*
X146365599Y-70235498D02*
X146365599Y-70342641D01*
X146365599Y-70342641D02*
X146401313Y-70414069D01*
X146401313Y-70414069D02*
X146437027Y-70449784D01*
X146437027Y-70449784D02*
X146508456Y-70485498D01*
X146508456Y-70485498D02*
X146794170Y-70485498D01*
X146794170Y-70485498D02*
X146794170Y-69735498D01*
X146794170Y-69735498D02*
X146544170Y-69735498D01*
X146544170Y-69735498D02*
X146472742Y-69771212D01*
X146472742Y-69771212D02*
X146437027Y-69806926D01*
X146437027Y-69806926D02*
X146401313Y-69878355D01*
X146401313Y-69878355D02*
X146401313Y-69949784D01*
X146401313Y-69949784D02*
X146437027Y-70021212D01*
X146437027Y-70021212D02*
X146472742Y-70056926D01*
X146472742Y-70056926D02*
X146544170Y-70092641D01*
X146544170Y-70092641D02*
X146794170Y-70092641D01*
X146044170Y-70485498D02*
X146044170Y-69985498D01*
X146044170Y-70128355D02*
X146008456Y-70056926D01*
X146008456Y-70056926D02*
X145972742Y-70021212D01*
X145972742Y-70021212D02*
X145901313Y-69985498D01*
X145901313Y-69985498D02*
X145829884Y-69985498D01*
X145294170Y-70449784D02*
X145365598Y-70485498D01*
X145365598Y-70485498D02*
X145508456Y-70485498D01*
X145508456Y-70485498D02*
X145579884Y-70449784D01*
X145579884Y-70449784D02*
X145615598Y-70378355D01*
X145615598Y-70378355D02*
X145615598Y-70092641D01*
X145615598Y-70092641D02*
X145579884Y-70021212D01*
X145579884Y-70021212D02*
X145508456Y-69985498D01*
X145508456Y-69985498D02*
X145365598Y-69985498D01*
X145365598Y-69985498D02*
X145294170Y-70021212D01*
X145294170Y-70021212D02*
X145258456Y-70092641D01*
X145258456Y-70092641D02*
X145258456Y-70164069D01*
X145258456Y-70164069D02*
X145615598Y-70235498D01*
X144615599Y-70485498D02*
X144615599Y-70092641D01*
X144615599Y-70092641D02*
X144651313Y-70021212D01*
X144651313Y-70021212D02*
X144722741Y-69985498D01*
X144722741Y-69985498D02*
X144865599Y-69985498D01*
X144865599Y-69985498D02*
X144937027Y-70021212D01*
X144615599Y-70449784D02*
X144687027Y-70485498D01*
X144687027Y-70485498D02*
X144865599Y-70485498D01*
X144865599Y-70485498D02*
X144937027Y-70449784D01*
X144937027Y-70449784D02*
X144972741Y-70378355D01*
X144972741Y-70378355D02*
X144972741Y-70306926D01*
X144972741Y-70306926D02*
X144937027Y-70235498D01*
X144937027Y-70235498D02*
X144865599Y-70199784D01*
X144865599Y-70199784D02*
X144687027Y-70199784D01*
X144687027Y-70199784D02*
X144615599Y-70164069D01*
X144258456Y-70485498D02*
X144258456Y-69735498D01*
X144187028Y-70199784D02*
X143972742Y-70485498D01*
X143972742Y-69985498D02*
X144258456Y-70271212D01*
X143544170Y-70485498D02*
X143615599Y-70449784D01*
X143615599Y-70449784D02*
X143651313Y-70414069D01*
X143651313Y-70414069D02*
X143687027Y-70342641D01*
X143687027Y-70342641D02*
X143687027Y-70128355D01*
X143687027Y-70128355D02*
X143651313Y-70056926D01*
X143651313Y-70056926D02*
X143615599Y-70021212D01*
X143615599Y-70021212D02*
X143544170Y-69985498D01*
X143544170Y-69985498D02*
X143437027Y-69985498D01*
X143437027Y-69985498D02*
X143365599Y-70021212D01*
X143365599Y-70021212D02*
X143329885Y-70056926D01*
X143329885Y-70056926D02*
X143294170Y-70128355D01*
X143294170Y-70128355D02*
X143294170Y-70342641D01*
X143294170Y-70342641D02*
X143329885Y-70414069D01*
X143329885Y-70414069D02*
X143365599Y-70449784D01*
X143365599Y-70449784D02*
X143437027Y-70485498D01*
X143437027Y-70485498D02*
X143544170Y-70485498D01*
X142651314Y-69985498D02*
X142651314Y-70485498D01*
X142972742Y-69985498D02*
X142972742Y-70378355D01*
X142972742Y-70378355D02*
X142937028Y-70449784D01*
X142937028Y-70449784D02*
X142865599Y-70485498D01*
X142865599Y-70485498D02*
X142758456Y-70485498D01*
X142758456Y-70485498D02*
X142687028Y-70449784D01*
X142687028Y-70449784D02*
X142651314Y-70414069D01*
X142401314Y-69985498D02*
X142115600Y-69985498D01*
X142294171Y-69735498D02*
X142294171Y-70378355D01*
X142294171Y-70378355D02*
X142258457Y-70449784D01*
X142258457Y-70449784D02*
X142187028Y-70485498D01*
X142187028Y-70485498D02*
X142115600Y-70485498D01*
X155258458Y-71014384D02*
X155222744Y-70978670D01*
X155222744Y-70978670D02*
X155151316Y-70942956D01*
X155151316Y-70942956D02*
X154972744Y-70942956D01*
X154972744Y-70942956D02*
X154901316Y-70978670D01*
X154901316Y-70978670D02*
X154865601Y-71014384D01*
X154865601Y-71014384D02*
X154829887Y-71085813D01*
X154829887Y-71085813D02*
X154829887Y-71157242D01*
X154829887Y-71157242D02*
X154865601Y-71264384D01*
X154865601Y-71264384D02*
X155294173Y-71692956D01*
X155294173Y-71692956D02*
X154829887Y-71692956D01*
X154544172Y-71014384D02*
X154508458Y-70978670D01*
X154508458Y-70978670D02*
X154437030Y-70942956D01*
X154437030Y-70942956D02*
X154258458Y-70942956D01*
X154258458Y-70942956D02*
X154187030Y-70978670D01*
X154187030Y-70978670D02*
X154151315Y-71014384D01*
X154151315Y-71014384D02*
X154115601Y-71085813D01*
X154115601Y-71085813D02*
X154115601Y-71157242D01*
X154115601Y-71157242D02*
X154151315Y-71264384D01*
X154151315Y-71264384D02*
X154579887Y-71692956D01*
X154579887Y-71692956D02*
X154115601Y-71692956D01*
X153865601Y-70942956D02*
X153365601Y-71692956D01*
X153365601Y-70942956D02*
X153865601Y-71692956D01*
X153187029Y-70942956D02*
X152758458Y-70942956D01*
X152972743Y-71692956D02*
X152972743Y-70942956D01*
X154794173Y-72828985D02*
X154829887Y-72864700D01*
X154829887Y-72864700D02*
X154937030Y-72900414D01*
X154937030Y-72900414D02*
X155008458Y-72900414D01*
X155008458Y-72900414D02*
X155115601Y-72864700D01*
X155115601Y-72864700D02*
X155187030Y-72793271D01*
X155187030Y-72793271D02*
X155222744Y-72721842D01*
X155222744Y-72721842D02*
X155258458Y-72578985D01*
X155258458Y-72578985D02*
X155258458Y-72471842D01*
X155258458Y-72471842D02*
X155222744Y-72328985D01*
X155222744Y-72328985D02*
X155187030Y-72257557D01*
X155187030Y-72257557D02*
X155115601Y-72186128D01*
X155115601Y-72186128D02*
X155008458Y-72150414D01*
X155008458Y-72150414D02*
X154937030Y-72150414D01*
X154937030Y-72150414D02*
X154829887Y-72186128D01*
X154829887Y-72186128D02*
X154794173Y-72221842D01*
X154544173Y-72400414D02*
X154365601Y-72900414D01*
X154187030Y-72400414D02*
X154365601Y-72900414D01*
X154365601Y-72900414D02*
X154437030Y-73078985D01*
X154437030Y-73078985D02*
X154472744Y-73114700D01*
X154472744Y-73114700D02*
X154544173Y-73150414D01*
X153579887Y-72900414D02*
X153579887Y-72507557D01*
X153579887Y-72507557D02*
X153615601Y-72436128D01*
X153615601Y-72436128D02*
X153687029Y-72400414D01*
X153687029Y-72400414D02*
X153829887Y-72400414D01*
X153829887Y-72400414D02*
X153901315Y-72436128D01*
X153579887Y-72864700D02*
X153651315Y-72900414D01*
X153651315Y-72900414D02*
X153829887Y-72900414D01*
X153829887Y-72900414D02*
X153901315Y-72864700D01*
X153901315Y-72864700D02*
X153937029Y-72793271D01*
X153937029Y-72793271D02*
X153937029Y-72721842D01*
X153937029Y-72721842D02*
X153901315Y-72650414D01*
X153901315Y-72650414D02*
X153829887Y-72614700D01*
X153829887Y-72614700D02*
X153651315Y-72614700D01*
X153651315Y-72614700D02*
X153579887Y-72578985D01*
X153222744Y-72400414D02*
X153222744Y-72900414D01*
X153222744Y-72471842D02*
X153187030Y-72436128D01*
X153187030Y-72436128D02*
X153115601Y-72400414D01*
X153115601Y-72400414D02*
X153008458Y-72400414D01*
X153008458Y-72400414D02*
X152937030Y-72436128D01*
X152937030Y-72436128D02*
X152901316Y-72507557D01*
X152901316Y-72507557D02*
X152901316Y-72900414D01*
X151722744Y-72507557D02*
X151615601Y-72543271D01*
X151615601Y-72543271D02*
X151579887Y-72578985D01*
X151579887Y-72578985D02*
X151544173Y-72650414D01*
X151544173Y-72650414D02*
X151544173Y-72757557D01*
X151544173Y-72757557D02*
X151579887Y-72828985D01*
X151579887Y-72828985D02*
X151615601Y-72864700D01*
X151615601Y-72864700D02*
X151687030Y-72900414D01*
X151687030Y-72900414D02*
X151972744Y-72900414D01*
X151972744Y-72900414D02*
X151972744Y-72150414D01*
X151972744Y-72150414D02*
X151722744Y-72150414D01*
X151722744Y-72150414D02*
X151651316Y-72186128D01*
X151651316Y-72186128D02*
X151615601Y-72221842D01*
X151615601Y-72221842D02*
X151579887Y-72293271D01*
X151579887Y-72293271D02*
X151579887Y-72364700D01*
X151579887Y-72364700D02*
X151615601Y-72436128D01*
X151615601Y-72436128D02*
X151651316Y-72471842D01*
X151651316Y-72471842D02*
X151722744Y-72507557D01*
X151722744Y-72507557D02*
X151972744Y-72507557D01*
X151222744Y-72900414D02*
X151222744Y-72400414D01*
X151222744Y-72543271D02*
X151187030Y-72471842D01*
X151187030Y-72471842D02*
X151151316Y-72436128D01*
X151151316Y-72436128D02*
X151079887Y-72400414D01*
X151079887Y-72400414D02*
X151008458Y-72400414D01*
X150651315Y-72900414D02*
X150722744Y-72864700D01*
X150722744Y-72864700D02*
X150758458Y-72828985D01*
X150758458Y-72828985D02*
X150794172Y-72757557D01*
X150794172Y-72757557D02*
X150794172Y-72543271D01*
X150794172Y-72543271D02*
X150758458Y-72471842D01*
X150758458Y-72471842D02*
X150722744Y-72436128D01*
X150722744Y-72436128D02*
X150651315Y-72400414D01*
X150651315Y-72400414D02*
X150544172Y-72400414D01*
X150544172Y-72400414D02*
X150472744Y-72436128D01*
X150472744Y-72436128D02*
X150437030Y-72471842D01*
X150437030Y-72471842D02*
X150401315Y-72543271D01*
X150401315Y-72543271D02*
X150401315Y-72757557D01*
X150401315Y-72757557D02*
X150437030Y-72828985D01*
X150437030Y-72828985D02*
X150472744Y-72864700D01*
X150472744Y-72864700D02*
X150544172Y-72900414D01*
X150544172Y-72900414D02*
X150651315Y-72900414D01*
X150151316Y-72400414D02*
X150008459Y-72900414D01*
X150008459Y-72900414D02*
X149865601Y-72543271D01*
X149865601Y-72543271D02*
X149722744Y-72900414D01*
X149722744Y-72900414D02*
X149579887Y-72400414D01*
X149294173Y-72400414D02*
X149294173Y-72900414D01*
X149294173Y-72471842D02*
X149258459Y-72436128D01*
X149258459Y-72436128D02*
X149187030Y-72400414D01*
X149187030Y-72400414D02*
X149079887Y-72400414D01*
X149079887Y-72400414D02*
X149008459Y-72436128D01*
X149008459Y-72436128D02*
X148972745Y-72507557D01*
X148972745Y-72507557D02*
X148972745Y-72900414D01*
M02*
