M48
; DRILL file {KiCad 9.0.5} date 2025-12-22T17:05:05-0500
; FORMAT={-:-/ absolute / metric / decimal}
; #@! TF.CreationDate,2025-12-22T17:05:05-05:00
; #@! TF.GenerationSoftware,Kicad,Pcbnew,9.0.5
; #@! TF.FileFunction,Plated,1,4,PTH
FMAT,2
METRIC
; #@! TA.AperFunction,Plated,PTH,ViaDrill
T1C0.300
; #@! TA.AperFunction,Plated,PTH,ComponentDrill
T2C1.000
%
G90
G05
T1
X143.0Y-82.7
X143.0Y-84.47
X143.8Y-86.1
X144.2Y-72.8
X146.4Y-77.6
X146.609Y-72.796
X148.131Y-81.731
X148.2Y-87.7
X148.456Y-78.257
X148.697Y-82.297
X149.001Y-77.599
X149.2Y-72.9
X149.7Y-83.1
X150.4Y-82.3
X150.825Y-87.706
X151.6Y-78.2
X154.026Y-75.54
X154.635Y-75.133
X154.8Y-86.3
X155.27Y-75.489
X157.025Y-81.663
X157.06Y-80.708
X157.099Y-78.791
X157.175Y-77.394
T2
X140.35Y-71.17
X140.35Y-73.71
X140.35Y-76.25
X140.35Y-78.79
X140.35Y-81.33
X140.35Y-83.87
X140.35Y-86.41
X140.35Y-88.95
X160.67Y-71.17
X160.67Y-73.71
X160.67Y-76.25
X160.67Y-78.79
X160.67Y-81.33
X160.67Y-83.87
X160.67Y-86.41
X160.67Y-88.95
M30
