%TF.GenerationSoftware,KiCad,Pcbnew,9.0.6*%
%TF.CreationDate,2026-02-09T18:54:11-05:00*%
%TF.ProjectId,main_board_v3,6d61696e-5f62-46f6-9172-645f76332e6b,rev?*%
%TF.SameCoordinates,Original*%
%TF.FileFunction,Soldermask,Bot*%
%TF.FilePolarity,Negative*%
%FSLAX46Y46*%
G04 Gerber Fmt 4.6, Leading zero omitted, Abs format (unit mm)*
G04 Created by KiCad (PCBNEW 9.0.6) date 2026-02-09 18:54:11*
%MOMM*%
%LPD*%
G01*
G04 APERTURE LIST*
G04 Aperture macros list*
%AMRoundRect*
0 Rectangle with rounded corners*
0 $1 Rounding radius*
0 $2 $3 $4 $5 $6 $7 $8 $9 X,Y pos of 4 corners*
0 Add a 4 corners polygon primitive as box body*
4,1,4,$2,$3,$4,$5,$6,$7,$8,$9,$2,$3,0*
0 Add four circle primitives for the rounded corners*
1,1,$1+$1,$2,$3*
1,1,$1+$1,$4,$5*
1,1,$1+$1,$6,$7*
1,1,$1+$1,$8,$9*
0 Add four rect primitives between the rounded corners*
20,1,$1+$1,$2,$3,$4,$5,0*
20,1,$1+$1,$4,$5,$6,$7,0*
20,1,$1+$1,$6,$7,$8,$9,0*
20,1,$1+$1,$8,$9,$2,$3,0*%
G04 Aperture macros list end*
%ADD10C,3.500000*%
%ADD11R,1.600000X1.600000*%
%ADD12C,1.600000*%
%ADD13R,1.300000X1.300000*%
%ADD14C,1.300000*%
%ADD15RoundRect,0.135000X0.185000X-0.135000X0.185000X0.135000X-0.185000X0.135000X-0.185000X-0.135000X0*%
%ADD16RoundRect,0.135000X-0.135000X-0.185000X0.135000X-0.185000X0.135000X0.185000X-0.135000X0.185000X0*%
%ADD17RoundRect,0.135000X0.135000X0.185000X-0.135000X0.185000X-0.135000X-0.185000X0.135000X-0.185000X0*%
%ADD18RoundRect,0.150000X-0.150000X0.512500X-0.150000X-0.512500X0.150000X-0.512500X0.150000X0.512500X0*%
%ADD19RoundRect,0.140000X0.140000X0.170000X-0.140000X0.170000X-0.140000X-0.170000X0.140000X-0.170000X0*%
%ADD20RoundRect,0.150000X-0.150000X0.825000X-0.150000X-0.825000X0.150000X-0.825000X0.150000X0.825000X0*%
%ADD21RoundRect,0.102000X-0.937000X-1.129900X0.937000X-1.129900X0.937000X1.129900X-0.937000X1.129900X0*%
%ADD22RoundRect,0.140000X-0.170000X0.140000X-0.170000X-0.140000X0.170000X-0.140000X0.170000X0.140000X0*%
%ADD23RoundRect,0.140000X0.170000X-0.140000X0.170000X0.140000X-0.170000X0.140000X-0.170000X-0.140000X0*%
%ADD24RoundRect,0.135000X-0.185000X0.135000X-0.185000X-0.135000X0.185000X-0.135000X0.185000X0.135000X0*%
%ADD25R,1.000000X1.000000*%
%ADD26RoundRect,0.140000X-0.140000X-0.170000X0.140000X-0.170000X0.140000X0.170000X-0.140000X0.170000X0*%
%ADD27RoundRect,0.225000X-0.250000X0.225000X-0.250000X-0.225000X0.250000X-0.225000X0.250000X0.225000X0*%
%ADD28RoundRect,0.150000X0.512500X0.150000X-0.512500X0.150000X-0.512500X-0.150000X0.512500X-0.150000X0*%
%ADD29R,1.473200X0.355600*%
G04 APERTURE END LIST*
D10*
X132000000Y-85000000D03*
X132000000Y-17000000D03*
X55000000Y-17000000D03*
X55000000Y-85000000D03*
D11*
X126000000Y-32860000D03*
D12*
X98060000Y-32860000D03*
X95520000Y-32860000D03*
X92980000Y-32860000D03*
X90440000Y-32860000D03*
X87900000Y-32860000D03*
X85360000Y-32860000D03*
X82820000Y-32860000D03*
X80280000Y-32860000D03*
X77740000Y-32860000D03*
X75200000Y-32860000D03*
X72660000Y-32860000D03*
X70120000Y-32860000D03*
X67580000Y-32860000D03*
X67580000Y-48100000D03*
X70120000Y-48100000D03*
X72660000Y-48100000D03*
X75200000Y-48100000D03*
X77740000Y-48100000D03*
X82820000Y-48100000D03*
X85360000Y-48100000D03*
X87900000Y-48100000D03*
X90440000Y-48100000D03*
X92980000Y-48100000D03*
X95520000Y-48100000D03*
X98060000Y-48100000D03*
X100600000Y-48100000D03*
X103140000Y-48100000D03*
X105680000Y-48100000D03*
X108220000Y-48100000D03*
X110760000Y-48100000D03*
X113300000Y-48100000D03*
X115840000Y-48100000D03*
X118380000Y-48100000D03*
X120920000Y-48100000D03*
X123460000Y-48100000D03*
X126000000Y-48100000D03*
X123460000Y-45560000D03*
X80280000Y-35400000D03*
X80280000Y-37940000D03*
X80280000Y-40480000D03*
D13*
X113030000Y-45661600D03*
D14*
X113030000Y-43661600D03*
X113030000Y-41661600D03*
X111030000Y-41661600D03*
X111030000Y-43661600D03*
X111030000Y-45661600D03*
X131290000Y-41750000D03*
X131290000Y-39210000D03*
D15*
X102700000Y-80440000D03*
X102700000Y-79420000D03*
X107000000Y-54480000D03*
X107000000Y-53460000D03*
X96800000Y-80420000D03*
X96800000Y-79400000D03*
D16*
X93005000Y-23950000D03*
X94025000Y-23950000D03*
D17*
X85610000Y-64400000D03*
X84590000Y-64400000D03*
D18*
X55050000Y-75362500D03*
X56950000Y-75362500D03*
X56000000Y-77637500D03*
D15*
X94300000Y-57310000D03*
X94300000Y-56290000D03*
D19*
X120540000Y-52761600D03*
X119580000Y-52761600D03*
D20*
X115190000Y-55211600D03*
X116460000Y-55211600D03*
X117730000Y-55211600D03*
X119000000Y-55211600D03*
X119000000Y-60161600D03*
X117730000Y-60161600D03*
X116460000Y-60161600D03*
X115190000Y-60161600D03*
D21*
X87486000Y-82200000D03*
X91900000Y-82200000D03*
D16*
X125500000Y-80250000D03*
X126520000Y-80250000D03*
D22*
X98800000Y-82150000D03*
X98800000Y-83110000D03*
D15*
X104300000Y-54420000D03*
X104300000Y-53400000D03*
D23*
X112500000Y-20478685D03*
X112500000Y-19518685D03*
D15*
X101800000Y-57420000D03*
X101800000Y-56400000D03*
D22*
X99600000Y-38120000D03*
X99600000Y-39080000D03*
D18*
X71500000Y-40500000D03*
X72450000Y-40500000D03*
X73400000Y-40500000D03*
X73400000Y-42775000D03*
X71500000Y-42775000D03*
D24*
X103800000Y-74490000D03*
X103800000Y-75510000D03*
D16*
X93005000Y-21960000D03*
X94025000Y-21960000D03*
D22*
X102700000Y-82220000D03*
X102700000Y-83180000D03*
X104800000Y-82260000D03*
X104800000Y-83220000D03*
D15*
X104300000Y-57420000D03*
X104300000Y-56400000D03*
D25*
X96500000Y-44000000D03*
D23*
X103800000Y-72900000D03*
X103800000Y-71940000D03*
D15*
X101750000Y-54460000D03*
X101750000Y-53440000D03*
D24*
X97700000Y-74490000D03*
X97700000Y-75510000D03*
D26*
X71540000Y-45000000D03*
X72500000Y-45000000D03*
D27*
X101200000Y-37500000D03*
X101200000Y-39050000D03*
D25*
X68500000Y-58000000D03*
X103500000Y-37400000D03*
D15*
X99300000Y-54420000D03*
X99300000Y-53400000D03*
D26*
X117910000Y-62626600D03*
X118870000Y-62626600D03*
D19*
X116370000Y-62626600D03*
X115410000Y-62626600D03*
D17*
X126510000Y-78250000D03*
X125490000Y-78250000D03*
D28*
X90100000Y-22050000D03*
X90100000Y-23000000D03*
X90100000Y-23950000D03*
X87825000Y-23950000D03*
X87825000Y-22050000D03*
D25*
X59800000Y-74300000D03*
D22*
X100800000Y-82180000D03*
X100800000Y-83140000D03*
D15*
X107000000Y-57420000D03*
X107000000Y-56400000D03*
D29*
X97219400Y-36425001D03*
X97219400Y-37074999D03*
X97219400Y-37725001D03*
X97219400Y-38374999D03*
X97219400Y-39024998D03*
X97219400Y-39674999D03*
X97219400Y-40324998D03*
X97219400Y-40974999D03*
X91580600Y-40974999D03*
X91580600Y-40325001D03*
X91580600Y-39674999D03*
X91580600Y-39025001D03*
X91580600Y-38375002D03*
X91580600Y-37725001D03*
X91580600Y-37075002D03*
X91580600Y-36425001D03*
D26*
X71420000Y-38498898D03*
X72380000Y-38498898D03*
D15*
X104800000Y-80500000D03*
X104800000Y-79480000D03*
D22*
X96800000Y-82160000D03*
X96800000Y-83120000D03*
D17*
X85610000Y-62400000D03*
X84590000Y-62400000D03*
D24*
X101800000Y-74480000D03*
X101800000Y-75500000D03*
D17*
X113610000Y-83000000D03*
X112590000Y-83000000D03*
D24*
X87600000Y-63400000D03*
X87600000Y-64420000D03*
D25*
X73900000Y-65900000D03*
D15*
X98800000Y-80410000D03*
X98800000Y-79390000D03*
D23*
X101800000Y-72900000D03*
X101800000Y-71940000D03*
D25*
X93111100Y-43850000D03*
D22*
X111000000Y-24518685D03*
X111000000Y-25478685D03*
D25*
X76250000Y-44000000D03*
D15*
X72730000Y-54371600D03*
X72730000Y-53351600D03*
D16*
X82100000Y-62400000D03*
X83120000Y-62400000D03*
D15*
X70130000Y-54381600D03*
X70130000Y-53361600D03*
D16*
X82090000Y-64400000D03*
X83110000Y-64400000D03*
D24*
X105800000Y-74480000D03*
X105800000Y-75500000D03*
D23*
X99800000Y-72990000D03*
X99800000Y-72030000D03*
X53200000Y-76030000D03*
X53200000Y-75070000D03*
X105800000Y-72870000D03*
X105800000Y-71910000D03*
D25*
X68500000Y-62400000D03*
D15*
X100800000Y-80410000D03*
X100800000Y-79390000D03*
X125250000Y-65010000D03*
X125250000Y-63990000D03*
D22*
X89150000Y-39300000D03*
X89150000Y-40260000D03*
D23*
X97700000Y-72980000D03*
X97700000Y-72020000D03*
D22*
X112500000Y-24498685D03*
X112500000Y-25458685D03*
D25*
X71100000Y-65800000D03*
D22*
X120845000Y-59646600D03*
X120845000Y-60606600D03*
D24*
X94300000Y-53380000D03*
X94300000Y-54400000D03*
X99800000Y-74480000D03*
X99800000Y-75500000D03*
D15*
X96750000Y-57310000D03*
X96750000Y-56290000D03*
X99300000Y-57320000D03*
X99300000Y-56300000D03*
D23*
X111000000Y-20458685D03*
X111000000Y-19498685D03*
D15*
X96800000Y-54420000D03*
X96800000Y-53400000D03*
M02*
