%TF.GenerationSoftware,KiCad,Pcbnew,9.0.4*%
%TF.CreationDate,2026-02-08T21:42:33-05:00*%
%TF.ProjectId,main_board_v3,6d61696e-5f62-46f6-9172-645f76332e6b,rev?*%
%TF.SameCoordinates,Original*%
%TF.FileFunction,Legend,Bot*%
%TF.FilePolarity,Positive*%
%FSLAX46Y46*%
G04 Gerber Fmt 4.6, Leading zero omitted, Abs format (unit mm)*
G04 Created by KiCad (PCBNEW 9.0.4) date 2026-02-08 21:42:33*
%MOMM*%
%LPD*%
G01*
G04 APERTURE LIST*
G04 Aperture macros list*
%AMRoundRect*
0 Rectangle with rounded corners*
0 $1 Rounding radius*
0 $2 $3 $4 $5 $6 $7 $8 $9 X,Y pos of 4 corners*
0 Add a 4 corners polygon primitive as box body*
4,1,4,$2,$3,$4,$5,$6,$7,$8,$9,$2,$3,0*
0 Add four circle primitives for the rounded corners*
1,1,$1+$1,$2,$3*
1,1,$1+$1,$4,$5*
1,1,$1+$1,$6,$7*
1,1,$1+$1,$8,$9*
0 Add four rect primitives between the rounded corners*
20,1,$1+$1,$2,$3,$4,$5,0*
20,1,$1+$1,$4,$5,$6,$7,0*
20,1,$1+$1,$6,$7,$8,$9,0*
20,1,$1+$1,$8,$9,$2,$3,0*%
G04 Aperture macros list end*
%ADD10C,0.150000*%
%ADD11C,0.120000*%
%ADD12C,0.152400*%
%ADD13C,0.000000*%
%ADD14C,3.500000*%
%ADD15R,1.600000X1.600000*%
%ADD16C,1.600000*%
%ADD17R,1.300000X1.300000*%
%ADD18C,1.300000*%
%ADD19RoundRect,0.135000X0.185000X-0.135000X0.185000X0.135000X-0.185000X0.135000X-0.185000X-0.135000X0*%
%ADD20RoundRect,0.135000X-0.135000X-0.185000X0.135000X-0.185000X0.135000X0.185000X-0.135000X0.185000X0*%
%ADD21RoundRect,0.135000X0.135000X0.185000X-0.135000X0.185000X-0.135000X-0.185000X0.135000X-0.185000X0*%
%ADD22RoundRect,0.150000X-0.150000X0.512500X-0.150000X-0.512500X0.150000X-0.512500X0.150000X0.512500X0*%
%ADD23RoundRect,0.140000X0.140000X0.170000X-0.140000X0.170000X-0.140000X-0.170000X0.140000X-0.170000X0*%
%ADD24RoundRect,0.150000X-0.150000X0.825000X-0.150000X-0.825000X0.150000X-0.825000X0.150000X0.825000X0*%
%ADD25RoundRect,0.102000X-0.937000X-1.129900X0.937000X-1.129900X0.937000X1.129900X-0.937000X1.129900X0*%
%ADD26RoundRect,0.140000X-0.170000X0.140000X-0.170000X-0.140000X0.170000X-0.140000X0.170000X0.140000X0*%
%ADD27RoundRect,0.140000X0.170000X-0.140000X0.170000X0.140000X-0.170000X0.140000X-0.170000X-0.140000X0*%
%ADD28RoundRect,0.135000X-0.185000X0.135000X-0.185000X-0.135000X0.185000X-0.135000X0.185000X0.135000X0*%
%ADD29R,1.000000X1.000000*%
%ADD30RoundRect,0.140000X-0.140000X-0.170000X0.140000X-0.170000X0.140000X0.170000X-0.140000X0.170000X0*%
%ADD31RoundRect,0.225000X-0.250000X0.225000X-0.250000X-0.225000X0.250000X-0.225000X0.250000X0.225000X0*%
%ADD32RoundRect,0.150000X0.512500X0.150000X-0.512500X0.150000X-0.512500X-0.150000X0.512500X-0.150000X0*%
%ADD33R,1.473200X0.355600*%
G04 APERTURE END LIST*
D10*
X78274580Y-49336779D02*
X78322200Y-49384398D01*
X78322200Y-49384398D02*
X78369819Y-49336779D01*
X78369819Y-49336779D02*
X78322200Y-49289160D01*
X78322200Y-49289160D02*
X78274580Y-49336779D01*
X78274580Y-49336779D02*
X78369819Y-49336779D01*
X77988866Y-49336779D02*
X77417438Y-49289160D01*
X77417438Y-49289160D02*
X77369819Y-49336779D01*
X77369819Y-49336779D02*
X77417438Y-49384398D01*
X77417438Y-49384398D02*
X77988866Y-49336779D01*
X77988866Y-49336779D02*
X77369819Y-49336779D01*
X78274580Y-50384397D02*
X78322200Y-50336778D01*
X78322200Y-50336778D02*
X78369819Y-50193921D01*
X78369819Y-50193921D02*
X78369819Y-50098683D01*
X78369819Y-50098683D02*
X78322200Y-49955826D01*
X78322200Y-49955826D02*
X78226961Y-49860588D01*
X78226961Y-49860588D02*
X78131723Y-49812969D01*
X78131723Y-49812969D02*
X77941247Y-49765350D01*
X77941247Y-49765350D02*
X77798390Y-49765350D01*
X77798390Y-49765350D02*
X77607914Y-49812969D01*
X77607914Y-49812969D02*
X77512676Y-49860588D01*
X77512676Y-49860588D02*
X77417438Y-49955826D01*
X77417438Y-49955826D02*
X77369819Y-50098683D01*
X77369819Y-50098683D02*
X77369819Y-50193921D01*
X77369819Y-50193921D02*
X77417438Y-50336778D01*
X77417438Y-50336778D02*
X77465057Y-50384397D01*
X78322200Y-50765350D02*
X78369819Y-50908207D01*
X78369819Y-50908207D02*
X78369819Y-51146302D01*
X78369819Y-51146302D02*
X78322200Y-51241540D01*
X78322200Y-51241540D02*
X78274580Y-51289159D01*
X78274580Y-51289159D02*
X78179342Y-51336778D01*
X78179342Y-51336778D02*
X78084104Y-51336778D01*
X78084104Y-51336778D02*
X77988866Y-51289159D01*
X77988866Y-51289159D02*
X77941247Y-51241540D01*
X77941247Y-51241540D02*
X77893628Y-51146302D01*
X77893628Y-51146302D02*
X77846009Y-50955826D01*
X77846009Y-50955826D02*
X77798390Y-50860588D01*
X77798390Y-50860588D02*
X77750771Y-50812969D01*
X77750771Y-50812969D02*
X77655533Y-50765350D01*
X77655533Y-50765350D02*
X77560295Y-50765350D01*
X77560295Y-50765350D02*
X77465057Y-50812969D01*
X77465057Y-50812969D02*
X77417438Y-50860588D01*
X77417438Y-50860588D02*
X77369819Y-50955826D01*
X77369819Y-50955826D02*
X77369819Y-51193921D01*
X77369819Y-51193921D02*
X77417438Y-51336778D01*
X78465057Y-51527255D02*
X78465057Y-52289159D01*
X78084104Y-52479636D02*
X78084104Y-52955826D01*
X78369819Y-52384398D02*
X77369819Y-52717731D01*
X77369819Y-52717731D02*
X78369819Y-53051064D01*
X78369819Y-53384398D02*
X77369819Y-53384398D01*
X77369819Y-53384398D02*
X77369819Y-53622493D01*
X77369819Y-53622493D02*
X77417438Y-53765350D01*
X77417438Y-53765350D02*
X77512676Y-53860588D01*
X77512676Y-53860588D02*
X77607914Y-53908207D01*
X77607914Y-53908207D02*
X77798390Y-53955826D01*
X77798390Y-53955826D02*
X77941247Y-53955826D01*
X77941247Y-53955826D02*
X78131723Y-53908207D01*
X78131723Y-53908207D02*
X78226961Y-53860588D01*
X78226961Y-53860588D02*
X78322200Y-53765350D01*
X78322200Y-53765350D02*
X78369819Y-53622493D01*
X78369819Y-53622493D02*
X78369819Y-53384398D01*
X78274580Y-54955826D02*
X78322200Y-54908207D01*
X78322200Y-54908207D02*
X78369819Y-54765350D01*
X78369819Y-54765350D02*
X78369819Y-54670112D01*
X78369819Y-54670112D02*
X78322200Y-54527255D01*
X78322200Y-54527255D02*
X78226961Y-54432017D01*
X78226961Y-54432017D02*
X78131723Y-54384398D01*
X78131723Y-54384398D02*
X77941247Y-54336779D01*
X77941247Y-54336779D02*
X77798390Y-54336779D01*
X77798390Y-54336779D02*
X77607914Y-54384398D01*
X77607914Y-54384398D02*
X77512676Y-54432017D01*
X77512676Y-54432017D02*
X77417438Y-54527255D01*
X77417438Y-54527255D02*
X77369819Y-54670112D01*
X77369819Y-54670112D02*
X77369819Y-54765350D01*
X77369819Y-54765350D02*
X77417438Y-54908207D01*
X77417438Y-54908207D02*
X77465057Y-54955826D01*
X103569819Y-49536779D02*
X102569819Y-49536779D01*
X102569819Y-49536779D02*
X102569819Y-49774874D01*
X102569819Y-49774874D02*
X102617438Y-49917731D01*
X102617438Y-49917731D02*
X102712676Y-50012969D01*
X102712676Y-50012969D02*
X102807914Y-50060588D01*
X102807914Y-50060588D02*
X102998390Y-50108207D01*
X102998390Y-50108207D02*
X103141247Y-50108207D01*
X103141247Y-50108207D02*
X103331723Y-50060588D01*
X103331723Y-50060588D02*
X103426961Y-50012969D01*
X103426961Y-50012969D02*
X103522200Y-49917731D01*
X103522200Y-49917731D02*
X103569819Y-49774874D01*
X103569819Y-49774874D02*
X103569819Y-49536779D01*
X102569819Y-50441541D02*
X102569819Y-51060588D01*
X102569819Y-51060588D02*
X102950771Y-50727255D01*
X102950771Y-50727255D02*
X102950771Y-50870112D01*
X102950771Y-50870112D02*
X102998390Y-50965350D01*
X102998390Y-50965350D02*
X103046009Y-51012969D01*
X103046009Y-51012969D02*
X103141247Y-51060588D01*
X103141247Y-51060588D02*
X103379342Y-51060588D01*
X103379342Y-51060588D02*
X103474580Y-51012969D01*
X103474580Y-51012969D02*
X103522200Y-50965350D01*
X103522200Y-50965350D02*
X103569819Y-50870112D01*
X103569819Y-50870112D02*
X103569819Y-50584398D01*
X103569819Y-50584398D02*
X103522200Y-50489160D01*
X103522200Y-50489160D02*
X103474580Y-50441541D01*
X103665057Y-51251065D02*
X103665057Y-52012969D01*
X103522200Y-52203446D02*
X103569819Y-52298684D01*
X103569819Y-52298684D02*
X103569819Y-52489160D01*
X103569819Y-52489160D02*
X103522200Y-52584398D01*
X103522200Y-52584398D02*
X103426961Y-52632017D01*
X103426961Y-52632017D02*
X103379342Y-52632017D01*
X103379342Y-52632017D02*
X103284104Y-52584398D01*
X103284104Y-52584398D02*
X103236485Y-52489160D01*
X103236485Y-52489160D02*
X103236485Y-52346303D01*
X103236485Y-52346303D02*
X103188866Y-52251065D01*
X103188866Y-52251065D02*
X103093628Y-52203446D01*
X103093628Y-52203446D02*
X103046009Y-52203446D01*
X103046009Y-52203446D02*
X102950771Y-52251065D01*
X102950771Y-52251065D02*
X102903152Y-52346303D01*
X102903152Y-52346303D02*
X102903152Y-52489160D01*
X102903152Y-52489160D02*
X102950771Y-52584398D01*
X103569819Y-53060589D02*
X102569819Y-53060589D01*
X103569819Y-53489160D02*
X103046009Y-53489160D01*
X103046009Y-53489160D02*
X102950771Y-53441541D01*
X102950771Y-53441541D02*
X102903152Y-53346303D01*
X102903152Y-53346303D02*
X102903152Y-53203446D01*
X102903152Y-53203446D02*
X102950771Y-53108208D01*
X102950771Y-53108208D02*
X102998390Y-53060589D01*
X103569819Y-53965351D02*
X102903152Y-53965351D01*
X102569819Y-53965351D02*
X102617438Y-53917732D01*
X102617438Y-53917732D02*
X102665057Y-53965351D01*
X102665057Y-53965351D02*
X102617438Y-54012970D01*
X102617438Y-54012970D02*
X102569819Y-53965351D01*
X102569819Y-53965351D02*
X102665057Y-53965351D01*
X102903152Y-54298684D02*
X102903152Y-54679636D01*
X103569819Y-54441541D02*
X102712676Y-54441541D01*
X102712676Y-54441541D02*
X102617438Y-54489160D01*
X102617438Y-54489160D02*
X102569819Y-54584398D01*
X102569819Y-54584398D02*
X102569819Y-54679636D01*
X102903152Y-54870113D02*
X102903152Y-55251065D01*
X102569819Y-55012970D02*
X103426961Y-55012970D01*
X103426961Y-55012970D02*
X103522200Y-55060589D01*
X103522200Y-55060589D02*
X103569819Y-55155827D01*
X103569819Y-55155827D02*
X103569819Y-55251065D01*
X83469819Y-24536779D02*
X82469819Y-24536779D01*
X82469819Y-24536779D02*
X83184104Y-24870112D01*
X83184104Y-24870112D02*
X82469819Y-25203445D01*
X82469819Y-25203445D02*
X83469819Y-25203445D01*
X82469819Y-25870112D02*
X82469819Y-26060588D01*
X82469819Y-26060588D02*
X82517438Y-26155826D01*
X82517438Y-26155826D02*
X82612676Y-26251064D01*
X82612676Y-26251064D02*
X82803152Y-26298683D01*
X82803152Y-26298683D02*
X83136485Y-26298683D01*
X83136485Y-26298683D02*
X83326961Y-26251064D01*
X83326961Y-26251064D02*
X83422200Y-26155826D01*
X83422200Y-26155826D02*
X83469819Y-26060588D01*
X83469819Y-26060588D02*
X83469819Y-25870112D01*
X83469819Y-25870112D02*
X83422200Y-25774874D01*
X83422200Y-25774874D02*
X83326961Y-25679636D01*
X83326961Y-25679636D02*
X83136485Y-25632017D01*
X83136485Y-25632017D02*
X82803152Y-25632017D01*
X82803152Y-25632017D02*
X82612676Y-25679636D01*
X82612676Y-25679636D02*
X82517438Y-25774874D01*
X82517438Y-25774874D02*
X82469819Y-25870112D01*
X83422200Y-26679636D02*
X83469819Y-26822493D01*
X83469819Y-26822493D02*
X83469819Y-27060588D01*
X83469819Y-27060588D02*
X83422200Y-27155826D01*
X83422200Y-27155826D02*
X83374580Y-27203445D01*
X83374580Y-27203445D02*
X83279342Y-27251064D01*
X83279342Y-27251064D02*
X83184104Y-27251064D01*
X83184104Y-27251064D02*
X83088866Y-27203445D01*
X83088866Y-27203445D02*
X83041247Y-27155826D01*
X83041247Y-27155826D02*
X82993628Y-27060588D01*
X82993628Y-27060588D02*
X82946009Y-26870112D01*
X82946009Y-26870112D02*
X82898390Y-26774874D01*
X82898390Y-26774874D02*
X82850771Y-26727255D01*
X82850771Y-26727255D02*
X82755533Y-26679636D01*
X82755533Y-26679636D02*
X82660295Y-26679636D01*
X82660295Y-26679636D02*
X82565057Y-26727255D01*
X82565057Y-26727255D02*
X82517438Y-26774874D01*
X82517438Y-26774874D02*
X82469819Y-26870112D01*
X82469819Y-26870112D02*
X82469819Y-27108207D01*
X82469819Y-27108207D02*
X82517438Y-27251064D01*
X83469819Y-27679636D02*
X82469819Y-27679636D01*
X83565057Y-27917731D02*
X83565057Y-28679635D01*
X82946009Y-28917731D02*
X82946009Y-29251064D01*
X83469819Y-29393921D02*
X83469819Y-28917731D01*
X83469819Y-28917731D02*
X82469819Y-28917731D01*
X82469819Y-28917731D02*
X82469819Y-29393921D01*
X83422200Y-29774874D02*
X83469819Y-29917731D01*
X83469819Y-29917731D02*
X83469819Y-30155826D01*
X83469819Y-30155826D02*
X83422200Y-30251064D01*
X83422200Y-30251064D02*
X83374580Y-30298683D01*
X83374580Y-30298683D02*
X83279342Y-30346302D01*
X83279342Y-30346302D02*
X83184104Y-30346302D01*
X83184104Y-30346302D02*
X83088866Y-30298683D01*
X83088866Y-30298683D02*
X83041247Y-30251064D01*
X83041247Y-30251064D02*
X82993628Y-30155826D01*
X82993628Y-30155826D02*
X82946009Y-29965350D01*
X82946009Y-29965350D02*
X82898390Y-29870112D01*
X82898390Y-29870112D02*
X82850771Y-29822493D01*
X82850771Y-29822493D02*
X82755533Y-29774874D01*
X82755533Y-29774874D02*
X82660295Y-29774874D01*
X82660295Y-29774874D02*
X82565057Y-29822493D01*
X82565057Y-29822493D02*
X82517438Y-29870112D01*
X82517438Y-29870112D02*
X82469819Y-29965350D01*
X82469819Y-29965350D02*
X82469819Y-30203445D01*
X82469819Y-30203445D02*
X82517438Y-30346302D01*
X83469819Y-30774874D02*
X82469819Y-30774874D01*
X82469819Y-30774874D02*
X82469819Y-31155826D01*
X82469819Y-31155826D02*
X82517438Y-31251064D01*
X82517438Y-31251064D02*
X82565057Y-31298683D01*
X82565057Y-31298683D02*
X82660295Y-31346302D01*
X82660295Y-31346302D02*
X82803152Y-31346302D01*
X82803152Y-31346302D02*
X82898390Y-31298683D01*
X82898390Y-31298683D02*
X82946009Y-31251064D01*
X82946009Y-31251064D02*
X82993628Y-31155826D01*
X82993628Y-31155826D02*
X82993628Y-30774874D01*
X68107494Y-49860588D02*
X68059875Y-49765350D01*
X68059875Y-49765350D02*
X68059875Y-49622493D01*
X68059875Y-49622493D02*
X68107494Y-49479636D01*
X68107494Y-49479636D02*
X68202732Y-49384398D01*
X68202732Y-49384398D02*
X68297970Y-49336779D01*
X68297970Y-49336779D02*
X68488446Y-49289160D01*
X68488446Y-49289160D02*
X68631303Y-49289160D01*
X68631303Y-49289160D02*
X68821779Y-49336779D01*
X68821779Y-49336779D02*
X68917017Y-49384398D01*
X68917017Y-49384398D02*
X69012256Y-49479636D01*
X69012256Y-49479636D02*
X69059875Y-49622493D01*
X69059875Y-49622493D02*
X69059875Y-49717731D01*
X69059875Y-49717731D02*
X69012256Y-49860588D01*
X69012256Y-49860588D02*
X68964636Y-49908207D01*
X68964636Y-49908207D02*
X68631303Y-49908207D01*
X68631303Y-49908207D02*
X68631303Y-49717731D01*
X69059875Y-50336779D02*
X68059875Y-50336779D01*
X68059875Y-50336779D02*
X68059875Y-50717731D01*
X68059875Y-50717731D02*
X68107494Y-50812969D01*
X68107494Y-50812969D02*
X68155113Y-50860588D01*
X68155113Y-50860588D02*
X68250351Y-50908207D01*
X68250351Y-50908207D02*
X68393208Y-50908207D01*
X68393208Y-50908207D02*
X68488446Y-50860588D01*
X68488446Y-50860588D02*
X68536065Y-50812969D01*
X68536065Y-50812969D02*
X68583684Y-50717731D01*
X68583684Y-50717731D02*
X68583684Y-50336779D01*
X68012256Y-52051064D02*
X69297970Y-51193922D01*
X70669819Y-49336779D02*
X69669819Y-49336779D01*
X70669819Y-49812969D02*
X69669819Y-49812969D01*
X69669819Y-49812969D02*
X70669819Y-50384397D01*
X70669819Y-50384397D02*
X69669819Y-50384397D01*
X69669819Y-50717731D02*
X69669819Y-51289159D01*
X70669819Y-51003445D02*
X69669819Y-51003445D01*
X69765057Y-51574874D02*
X69717438Y-51622493D01*
X69717438Y-51622493D02*
X69669819Y-51717731D01*
X69669819Y-51717731D02*
X69669819Y-51955826D01*
X69669819Y-51955826D02*
X69717438Y-52051064D01*
X69717438Y-52051064D02*
X69765057Y-52098683D01*
X69765057Y-52098683D02*
X69860295Y-52146302D01*
X69860295Y-52146302D02*
X69955533Y-52146302D01*
X69955533Y-52146302D02*
X70098390Y-52098683D01*
X70098390Y-52098683D02*
X70669819Y-51527255D01*
X70669819Y-51527255D02*
X70669819Y-52146302D01*
X71307494Y-49860588D02*
X71259875Y-49765350D01*
X71259875Y-49765350D02*
X71259875Y-49622493D01*
X71259875Y-49622493D02*
X71307494Y-49479636D01*
X71307494Y-49479636D02*
X71402732Y-49384398D01*
X71402732Y-49384398D02*
X71497970Y-49336779D01*
X71497970Y-49336779D02*
X71688446Y-49289160D01*
X71688446Y-49289160D02*
X71831303Y-49289160D01*
X71831303Y-49289160D02*
X72021779Y-49336779D01*
X72021779Y-49336779D02*
X72117017Y-49384398D01*
X72117017Y-49384398D02*
X72212256Y-49479636D01*
X72212256Y-49479636D02*
X72259875Y-49622493D01*
X72259875Y-49622493D02*
X72259875Y-49717731D01*
X72259875Y-49717731D02*
X72212256Y-49860588D01*
X72212256Y-49860588D02*
X72164636Y-49908207D01*
X72164636Y-49908207D02*
X71831303Y-49908207D01*
X71831303Y-49908207D02*
X71831303Y-49717731D01*
X72259875Y-50336779D02*
X71259875Y-50336779D01*
X71259875Y-50336779D02*
X71259875Y-50717731D01*
X71259875Y-50717731D02*
X71307494Y-50812969D01*
X71307494Y-50812969D02*
X71355113Y-50860588D01*
X71355113Y-50860588D02*
X71450351Y-50908207D01*
X71450351Y-50908207D02*
X71593208Y-50908207D01*
X71593208Y-50908207D02*
X71688446Y-50860588D01*
X71688446Y-50860588D02*
X71736065Y-50812969D01*
X71736065Y-50812969D02*
X71783684Y-50717731D01*
X71783684Y-50717731D02*
X71783684Y-50336779D01*
X71212256Y-52051064D02*
X72497970Y-51193922D01*
X73869819Y-49336779D02*
X72869819Y-49336779D01*
X73869819Y-49812969D02*
X72869819Y-49812969D01*
X72869819Y-49812969D02*
X73869819Y-50384397D01*
X73869819Y-50384397D02*
X72869819Y-50384397D01*
X72869819Y-50717731D02*
X72869819Y-51289159D01*
X73869819Y-51003445D02*
X72869819Y-51003445D01*
X73869819Y-52146302D02*
X73869819Y-51574874D01*
X73869819Y-51860588D02*
X72869819Y-51860588D01*
X72869819Y-51860588D02*
X73012676Y-51765350D01*
X73012676Y-51765350D02*
X73107914Y-51670112D01*
X73107914Y-51670112D02*
X73155533Y-51574874D01*
X68069819Y-29312969D02*
X68069819Y-28836779D01*
X68069819Y-28836779D02*
X67069819Y-28836779D01*
X67546009Y-29646303D02*
X67546009Y-29979636D01*
X68069819Y-30122493D02*
X68069819Y-29646303D01*
X68069819Y-29646303D02*
X67069819Y-29646303D01*
X67069819Y-29646303D02*
X67069819Y-30122493D01*
X68069819Y-30551065D02*
X67069819Y-30551065D01*
X67069819Y-30551065D02*
X67069819Y-30789160D01*
X67069819Y-30789160D02*
X67117438Y-30932017D01*
X67117438Y-30932017D02*
X67212676Y-31027255D01*
X67212676Y-31027255D02*
X67307914Y-31074874D01*
X67307914Y-31074874D02*
X67498390Y-31122493D01*
X67498390Y-31122493D02*
X67641247Y-31122493D01*
X67641247Y-31122493D02*
X67831723Y-31074874D01*
X67831723Y-31074874D02*
X67926961Y-31027255D01*
X67926961Y-31027255D02*
X68022200Y-30932017D01*
X68022200Y-30932017D02*
X68069819Y-30789160D01*
X68069819Y-30789160D02*
X68069819Y-30551065D01*
X111269819Y-49636779D02*
X110269819Y-49636779D01*
X110269819Y-49636779D02*
X110269819Y-49874874D01*
X110269819Y-49874874D02*
X110317438Y-50017731D01*
X110317438Y-50017731D02*
X110412676Y-50112969D01*
X110412676Y-50112969D02*
X110507914Y-50160588D01*
X110507914Y-50160588D02*
X110698390Y-50208207D01*
X110698390Y-50208207D02*
X110841247Y-50208207D01*
X110841247Y-50208207D02*
X111031723Y-50160588D01*
X111031723Y-50160588D02*
X111126961Y-50112969D01*
X111126961Y-50112969D02*
X111222200Y-50017731D01*
X111222200Y-50017731D02*
X111269819Y-49874874D01*
X111269819Y-49874874D02*
X111269819Y-49636779D01*
X110365057Y-50589160D02*
X110317438Y-50636779D01*
X110317438Y-50636779D02*
X110269819Y-50732017D01*
X110269819Y-50732017D02*
X110269819Y-50970112D01*
X110269819Y-50970112D02*
X110317438Y-51065350D01*
X110317438Y-51065350D02*
X110365057Y-51112969D01*
X110365057Y-51112969D02*
X110460295Y-51160588D01*
X110460295Y-51160588D02*
X110555533Y-51160588D01*
X110555533Y-51160588D02*
X110698390Y-51112969D01*
X110698390Y-51112969D02*
X111269819Y-50541541D01*
X111269819Y-50541541D02*
X111269819Y-51160588D01*
X111365057Y-51351065D02*
X111365057Y-52112969D01*
X111222200Y-52303446D02*
X111269819Y-52398684D01*
X111269819Y-52398684D02*
X111269819Y-52589160D01*
X111269819Y-52589160D02*
X111222200Y-52684398D01*
X111222200Y-52684398D02*
X111126961Y-52732017D01*
X111126961Y-52732017D02*
X111079342Y-52732017D01*
X111079342Y-52732017D02*
X110984104Y-52684398D01*
X110984104Y-52684398D02*
X110936485Y-52589160D01*
X110936485Y-52589160D02*
X110936485Y-52446303D01*
X110936485Y-52446303D02*
X110888866Y-52351065D01*
X110888866Y-52351065D02*
X110793628Y-52303446D01*
X110793628Y-52303446D02*
X110746009Y-52303446D01*
X110746009Y-52303446D02*
X110650771Y-52351065D01*
X110650771Y-52351065D02*
X110603152Y-52446303D01*
X110603152Y-52446303D02*
X110603152Y-52589160D01*
X110603152Y-52589160D02*
X110650771Y-52684398D01*
X111269819Y-53160589D02*
X110269819Y-53160589D01*
X111269819Y-53589160D02*
X110746009Y-53589160D01*
X110746009Y-53589160D02*
X110650771Y-53541541D01*
X110650771Y-53541541D02*
X110603152Y-53446303D01*
X110603152Y-53446303D02*
X110603152Y-53303446D01*
X110603152Y-53303446D02*
X110650771Y-53208208D01*
X110650771Y-53208208D02*
X110698390Y-53160589D01*
X111269819Y-54065351D02*
X110603152Y-54065351D01*
X110269819Y-54065351D02*
X110317438Y-54017732D01*
X110317438Y-54017732D02*
X110365057Y-54065351D01*
X110365057Y-54065351D02*
X110317438Y-54112970D01*
X110317438Y-54112970D02*
X110269819Y-54065351D01*
X110269819Y-54065351D02*
X110365057Y-54065351D01*
X110603152Y-54398684D02*
X110603152Y-54779636D01*
X111269819Y-54541541D02*
X110412676Y-54541541D01*
X110412676Y-54541541D02*
X110317438Y-54589160D01*
X110317438Y-54589160D02*
X110269819Y-54684398D01*
X110269819Y-54684398D02*
X110269819Y-54779636D01*
X110603152Y-54970113D02*
X110603152Y-55351065D01*
X110269819Y-55112970D02*
X111126961Y-55112970D01*
X111126961Y-55112970D02*
X111222200Y-55160589D01*
X111222200Y-55160589D02*
X111269819Y-55255827D01*
X111269819Y-55255827D02*
X111269819Y-55351065D01*
X75674580Y-49908207D02*
X75722200Y-49860588D01*
X75722200Y-49860588D02*
X75769819Y-49717731D01*
X75769819Y-49717731D02*
X75769819Y-49622493D01*
X75769819Y-49622493D02*
X75722200Y-49479636D01*
X75722200Y-49479636D02*
X75626961Y-49384398D01*
X75626961Y-49384398D02*
X75531723Y-49336779D01*
X75531723Y-49336779D02*
X75341247Y-49289160D01*
X75341247Y-49289160D02*
X75198390Y-49289160D01*
X75198390Y-49289160D02*
X75007914Y-49336779D01*
X75007914Y-49336779D02*
X74912676Y-49384398D01*
X74912676Y-49384398D02*
X74817438Y-49479636D01*
X74817438Y-49479636D02*
X74769819Y-49622493D01*
X74769819Y-49622493D02*
X74769819Y-49717731D01*
X74769819Y-49717731D02*
X74817438Y-49860588D01*
X74817438Y-49860588D02*
X74865057Y-49908207D01*
X75722200Y-50289160D02*
X75769819Y-50432017D01*
X75769819Y-50432017D02*
X75769819Y-50670112D01*
X75769819Y-50670112D02*
X75722200Y-50765350D01*
X75722200Y-50765350D02*
X75674580Y-50812969D01*
X75674580Y-50812969D02*
X75579342Y-50860588D01*
X75579342Y-50860588D02*
X75484104Y-50860588D01*
X75484104Y-50860588D02*
X75388866Y-50812969D01*
X75388866Y-50812969D02*
X75341247Y-50765350D01*
X75341247Y-50765350D02*
X75293628Y-50670112D01*
X75293628Y-50670112D02*
X75246009Y-50479636D01*
X75246009Y-50479636D02*
X75198390Y-50384398D01*
X75198390Y-50384398D02*
X75150771Y-50336779D01*
X75150771Y-50336779D02*
X75055533Y-50289160D01*
X75055533Y-50289160D02*
X74960295Y-50289160D01*
X74960295Y-50289160D02*
X74865057Y-50336779D01*
X74865057Y-50336779D02*
X74817438Y-50384398D01*
X74817438Y-50384398D02*
X74769819Y-50479636D01*
X74769819Y-50479636D02*
X74769819Y-50717731D01*
X74769819Y-50717731D02*
X74817438Y-50860588D01*
X75865057Y-51051065D02*
X75865057Y-51812969D01*
X75246009Y-52051065D02*
X75246009Y-52384398D01*
X75769819Y-52527255D02*
X75769819Y-52051065D01*
X75769819Y-52051065D02*
X74769819Y-52051065D01*
X74769819Y-52051065D02*
X74769819Y-52527255D01*
X75722200Y-52908208D02*
X75769819Y-53051065D01*
X75769819Y-53051065D02*
X75769819Y-53289160D01*
X75769819Y-53289160D02*
X75722200Y-53384398D01*
X75722200Y-53384398D02*
X75674580Y-53432017D01*
X75674580Y-53432017D02*
X75579342Y-53479636D01*
X75579342Y-53479636D02*
X75484104Y-53479636D01*
X75484104Y-53479636D02*
X75388866Y-53432017D01*
X75388866Y-53432017D02*
X75341247Y-53384398D01*
X75341247Y-53384398D02*
X75293628Y-53289160D01*
X75293628Y-53289160D02*
X75246009Y-53098684D01*
X75246009Y-53098684D02*
X75198390Y-53003446D01*
X75198390Y-53003446D02*
X75150771Y-52955827D01*
X75150771Y-52955827D02*
X75055533Y-52908208D01*
X75055533Y-52908208D02*
X74960295Y-52908208D01*
X74960295Y-52908208D02*
X74865057Y-52955827D01*
X74865057Y-52955827D02*
X74817438Y-53003446D01*
X74817438Y-53003446D02*
X74769819Y-53098684D01*
X74769819Y-53098684D02*
X74769819Y-53336779D01*
X74769819Y-53336779D02*
X74817438Y-53479636D01*
X75769819Y-53908208D02*
X74769819Y-53908208D01*
X74769819Y-53908208D02*
X74769819Y-54289160D01*
X74769819Y-54289160D02*
X74817438Y-54384398D01*
X74817438Y-54384398D02*
X74865057Y-54432017D01*
X74865057Y-54432017D02*
X74960295Y-54479636D01*
X74960295Y-54479636D02*
X75103152Y-54479636D01*
X75103152Y-54479636D02*
X75198390Y-54432017D01*
X75198390Y-54432017D02*
X75246009Y-54384398D01*
X75246009Y-54384398D02*
X75293628Y-54289160D01*
X75293628Y-54289160D02*
X75293628Y-53908208D01*
X93522200Y-49489160D02*
X93569819Y-49632017D01*
X93569819Y-49632017D02*
X93569819Y-49870112D01*
X93569819Y-49870112D02*
X93522200Y-49965350D01*
X93522200Y-49965350D02*
X93474580Y-50012969D01*
X93474580Y-50012969D02*
X93379342Y-50060588D01*
X93379342Y-50060588D02*
X93284104Y-50060588D01*
X93284104Y-50060588D02*
X93188866Y-50012969D01*
X93188866Y-50012969D02*
X93141247Y-49965350D01*
X93141247Y-49965350D02*
X93093628Y-49870112D01*
X93093628Y-49870112D02*
X93046009Y-49679636D01*
X93046009Y-49679636D02*
X92998390Y-49584398D01*
X92998390Y-49584398D02*
X92950771Y-49536779D01*
X92950771Y-49536779D02*
X92855533Y-49489160D01*
X92855533Y-49489160D02*
X92760295Y-49489160D01*
X92760295Y-49489160D02*
X92665057Y-49536779D01*
X92665057Y-49536779D02*
X92617438Y-49584398D01*
X92617438Y-49584398D02*
X92569819Y-49679636D01*
X92569819Y-49679636D02*
X92569819Y-49917731D01*
X92569819Y-49917731D02*
X92617438Y-50060588D01*
X93474580Y-51060588D02*
X93522200Y-51012969D01*
X93522200Y-51012969D02*
X93569819Y-50870112D01*
X93569819Y-50870112D02*
X93569819Y-50774874D01*
X93569819Y-50774874D02*
X93522200Y-50632017D01*
X93522200Y-50632017D02*
X93426961Y-50536779D01*
X93426961Y-50536779D02*
X93331723Y-50489160D01*
X93331723Y-50489160D02*
X93141247Y-50441541D01*
X93141247Y-50441541D02*
X92998390Y-50441541D01*
X92998390Y-50441541D02*
X92807914Y-50489160D01*
X92807914Y-50489160D02*
X92712676Y-50536779D01*
X92712676Y-50536779D02*
X92617438Y-50632017D01*
X92617438Y-50632017D02*
X92569819Y-50774874D01*
X92569819Y-50774874D02*
X92569819Y-50870112D01*
X92569819Y-50870112D02*
X92617438Y-51012969D01*
X92617438Y-51012969D02*
X92665057Y-51060588D01*
X93569819Y-51965350D02*
X93569819Y-51489160D01*
X93569819Y-51489160D02*
X92569819Y-51489160D01*
X93569819Y-52298684D02*
X92569819Y-52298684D01*
X93569819Y-52870112D02*
X92998390Y-52441541D01*
X92569819Y-52870112D02*
X93141247Y-52298684D01*
X93569819Y-53822493D02*
X93569819Y-53251065D01*
X93569819Y-53536779D02*
X92569819Y-53536779D01*
X92569819Y-53536779D02*
X92712676Y-53441541D01*
X92712676Y-53441541D02*
X92807914Y-53346303D01*
X92807914Y-53346303D02*
X92855533Y-53251065D01*
X125469819Y-50512969D02*
X125469819Y-50036779D01*
X125469819Y-50036779D02*
X125946009Y-49989160D01*
X125946009Y-49989160D02*
X125898390Y-50036779D01*
X125898390Y-50036779D02*
X125850771Y-50132017D01*
X125850771Y-50132017D02*
X125850771Y-50370112D01*
X125850771Y-50370112D02*
X125898390Y-50465350D01*
X125898390Y-50465350D02*
X125946009Y-50512969D01*
X125946009Y-50512969D02*
X126041247Y-50560588D01*
X126041247Y-50560588D02*
X126279342Y-50560588D01*
X126279342Y-50560588D02*
X126374580Y-50512969D01*
X126374580Y-50512969D02*
X126422200Y-50465350D01*
X126422200Y-50465350D02*
X126469819Y-50370112D01*
X126469819Y-50370112D02*
X126469819Y-50132017D01*
X126469819Y-50132017D02*
X126422200Y-50036779D01*
X126422200Y-50036779D02*
X126374580Y-49989160D01*
X125469819Y-50846303D02*
X126469819Y-51179636D01*
X126469819Y-51179636D02*
X125469819Y-51512969D01*
X107093922Y-42230180D02*
X107665350Y-42230180D01*
X107379636Y-41230180D02*
X107379636Y-42230180D01*
X107998684Y-41230180D02*
X107998684Y-42230180D01*
X107998684Y-42230180D02*
X108236779Y-42230180D01*
X108236779Y-42230180D02*
X108379636Y-42182561D01*
X108379636Y-42182561D02*
X108474874Y-42087323D01*
X108474874Y-42087323D02*
X108522493Y-41992085D01*
X108522493Y-41992085D02*
X108570112Y-41801609D01*
X108570112Y-41801609D02*
X108570112Y-41658752D01*
X108570112Y-41658752D02*
X108522493Y-41468276D01*
X108522493Y-41468276D02*
X108474874Y-41373038D01*
X108474874Y-41373038D02*
X108379636Y-41277800D01*
X108379636Y-41277800D02*
X108236779Y-41230180D01*
X108236779Y-41230180D02*
X107998684Y-41230180D01*
X108998684Y-41611133D02*
X109760589Y-41611133D01*
X109379636Y-41230180D02*
X109379636Y-41992085D01*
X81022200Y-24289160D02*
X81069819Y-24432017D01*
X81069819Y-24432017D02*
X81069819Y-24670112D01*
X81069819Y-24670112D02*
X81022200Y-24765350D01*
X81022200Y-24765350D02*
X80974580Y-24812969D01*
X80974580Y-24812969D02*
X80879342Y-24860588D01*
X80879342Y-24860588D02*
X80784104Y-24860588D01*
X80784104Y-24860588D02*
X80688866Y-24812969D01*
X80688866Y-24812969D02*
X80641247Y-24765350D01*
X80641247Y-24765350D02*
X80593628Y-24670112D01*
X80593628Y-24670112D02*
X80546009Y-24479636D01*
X80546009Y-24479636D02*
X80498390Y-24384398D01*
X80498390Y-24384398D02*
X80450771Y-24336779D01*
X80450771Y-24336779D02*
X80355533Y-24289160D01*
X80355533Y-24289160D02*
X80260295Y-24289160D01*
X80260295Y-24289160D02*
X80165057Y-24336779D01*
X80165057Y-24336779D02*
X80117438Y-24384398D01*
X80117438Y-24384398D02*
X80069819Y-24479636D01*
X80069819Y-24479636D02*
X80069819Y-24717731D01*
X80069819Y-24717731D02*
X80117438Y-24860588D01*
X80974580Y-25860588D02*
X81022200Y-25812969D01*
X81022200Y-25812969D02*
X81069819Y-25670112D01*
X81069819Y-25670112D02*
X81069819Y-25574874D01*
X81069819Y-25574874D02*
X81022200Y-25432017D01*
X81022200Y-25432017D02*
X80926961Y-25336779D01*
X80926961Y-25336779D02*
X80831723Y-25289160D01*
X80831723Y-25289160D02*
X80641247Y-25241541D01*
X80641247Y-25241541D02*
X80498390Y-25241541D01*
X80498390Y-25241541D02*
X80307914Y-25289160D01*
X80307914Y-25289160D02*
X80212676Y-25336779D01*
X80212676Y-25336779D02*
X80117438Y-25432017D01*
X80117438Y-25432017D02*
X80069819Y-25574874D01*
X80069819Y-25574874D02*
X80069819Y-25670112D01*
X80069819Y-25670112D02*
X80117438Y-25812969D01*
X80117438Y-25812969D02*
X80165057Y-25860588D01*
X81069819Y-26765350D02*
X81069819Y-26289160D01*
X81069819Y-26289160D02*
X80069819Y-26289160D01*
X81069819Y-27098684D02*
X80069819Y-27098684D01*
X81069819Y-27670112D02*
X80498390Y-27241541D01*
X80069819Y-27670112D02*
X80641247Y-27098684D01*
X81165057Y-27860589D02*
X81165057Y-28622493D01*
X80546009Y-28860589D02*
X80546009Y-29193922D01*
X81069819Y-29336779D02*
X81069819Y-28860589D01*
X81069819Y-28860589D02*
X80069819Y-28860589D01*
X80069819Y-28860589D02*
X80069819Y-29336779D01*
X81022200Y-29717732D02*
X81069819Y-29860589D01*
X81069819Y-29860589D02*
X81069819Y-30098684D01*
X81069819Y-30098684D02*
X81022200Y-30193922D01*
X81022200Y-30193922D02*
X80974580Y-30241541D01*
X80974580Y-30241541D02*
X80879342Y-30289160D01*
X80879342Y-30289160D02*
X80784104Y-30289160D01*
X80784104Y-30289160D02*
X80688866Y-30241541D01*
X80688866Y-30241541D02*
X80641247Y-30193922D01*
X80641247Y-30193922D02*
X80593628Y-30098684D01*
X80593628Y-30098684D02*
X80546009Y-29908208D01*
X80546009Y-29908208D02*
X80498390Y-29812970D01*
X80498390Y-29812970D02*
X80450771Y-29765351D01*
X80450771Y-29765351D02*
X80355533Y-29717732D01*
X80355533Y-29717732D02*
X80260295Y-29717732D01*
X80260295Y-29717732D02*
X80165057Y-29765351D01*
X80165057Y-29765351D02*
X80117438Y-29812970D01*
X80117438Y-29812970D02*
X80069819Y-29908208D01*
X80069819Y-29908208D02*
X80069819Y-30146303D01*
X80069819Y-30146303D02*
X80117438Y-30289160D01*
X81069819Y-30717732D02*
X80069819Y-30717732D01*
X80069819Y-30717732D02*
X80069819Y-31098684D01*
X80069819Y-31098684D02*
X80117438Y-31193922D01*
X80117438Y-31193922D02*
X80165057Y-31241541D01*
X80165057Y-31241541D02*
X80260295Y-31289160D01*
X80260295Y-31289160D02*
X80403152Y-31289160D01*
X80403152Y-31289160D02*
X80498390Y-31241541D01*
X80498390Y-31241541D02*
X80546009Y-31193922D01*
X80546009Y-31193922D02*
X80593628Y-31098684D01*
X80593628Y-31098684D02*
X80593628Y-30717732D01*
X73169819Y-24208207D02*
X72693628Y-23874874D01*
X73169819Y-23636779D02*
X72169819Y-23636779D01*
X72169819Y-23636779D02*
X72169819Y-24017731D01*
X72169819Y-24017731D02*
X72217438Y-24112969D01*
X72217438Y-24112969D02*
X72265057Y-24160588D01*
X72265057Y-24160588D02*
X72360295Y-24208207D01*
X72360295Y-24208207D02*
X72503152Y-24208207D01*
X72503152Y-24208207D02*
X72598390Y-24160588D01*
X72598390Y-24160588D02*
X72646009Y-24112969D01*
X72646009Y-24112969D02*
X72693628Y-24017731D01*
X72693628Y-24017731D02*
X72693628Y-23636779D01*
X72646009Y-24636779D02*
X72646009Y-24970112D01*
X73169819Y-25112969D02*
X73169819Y-24636779D01*
X73169819Y-24636779D02*
X72169819Y-24636779D01*
X72169819Y-24636779D02*
X72169819Y-25112969D01*
X73122200Y-25493922D02*
X73169819Y-25636779D01*
X73169819Y-25636779D02*
X73169819Y-25874874D01*
X73169819Y-25874874D02*
X73122200Y-25970112D01*
X73122200Y-25970112D02*
X73074580Y-26017731D01*
X73074580Y-26017731D02*
X72979342Y-26065350D01*
X72979342Y-26065350D02*
X72884104Y-26065350D01*
X72884104Y-26065350D02*
X72788866Y-26017731D01*
X72788866Y-26017731D02*
X72741247Y-25970112D01*
X72741247Y-25970112D02*
X72693628Y-25874874D01*
X72693628Y-25874874D02*
X72646009Y-25684398D01*
X72646009Y-25684398D02*
X72598390Y-25589160D01*
X72598390Y-25589160D02*
X72550771Y-25541541D01*
X72550771Y-25541541D02*
X72455533Y-25493922D01*
X72455533Y-25493922D02*
X72360295Y-25493922D01*
X72360295Y-25493922D02*
X72265057Y-25541541D01*
X72265057Y-25541541D02*
X72217438Y-25589160D01*
X72217438Y-25589160D02*
X72169819Y-25684398D01*
X72169819Y-25684398D02*
X72169819Y-25922493D01*
X72169819Y-25922493D02*
X72217438Y-26065350D01*
X72646009Y-26493922D02*
X72646009Y-26827255D01*
X73169819Y-26970112D02*
X73169819Y-26493922D01*
X73169819Y-26493922D02*
X72169819Y-26493922D01*
X72169819Y-26493922D02*
X72169819Y-26970112D01*
X72169819Y-27255827D02*
X72169819Y-27827255D01*
X73169819Y-27541541D02*
X72169819Y-27541541D01*
X73265057Y-27922494D02*
X73265057Y-28684398D01*
X73169819Y-28922494D02*
X72169819Y-28922494D01*
X72169819Y-28922494D02*
X72169819Y-29160589D01*
X72169819Y-29160589D02*
X72217438Y-29303446D01*
X72217438Y-29303446D02*
X72312676Y-29398684D01*
X72312676Y-29398684D02*
X72407914Y-29446303D01*
X72407914Y-29446303D02*
X72598390Y-29493922D01*
X72598390Y-29493922D02*
X72741247Y-29493922D01*
X72741247Y-29493922D02*
X72931723Y-29446303D01*
X72931723Y-29446303D02*
X73026961Y-29398684D01*
X73026961Y-29398684D02*
X73122200Y-29303446D01*
X73122200Y-29303446D02*
X73169819Y-29160589D01*
X73169819Y-29160589D02*
X73169819Y-28922494D01*
X72884104Y-29874875D02*
X72884104Y-30351065D01*
X73169819Y-29779637D02*
X72169819Y-30112970D01*
X72169819Y-30112970D02*
X73169819Y-30446303D01*
X73074580Y-31351065D02*
X73122200Y-31303446D01*
X73122200Y-31303446D02*
X73169819Y-31160589D01*
X73169819Y-31160589D02*
X73169819Y-31065351D01*
X73169819Y-31065351D02*
X73122200Y-30922494D01*
X73122200Y-30922494D02*
X73026961Y-30827256D01*
X73026961Y-30827256D02*
X72931723Y-30779637D01*
X72931723Y-30779637D02*
X72741247Y-30732018D01*
X72741247Y-30732018D02*
X72598390Y-30732018D01*
X72598390Y-30732018D02*
X72407914Y-30779637D01*
X72407914Y-30779637D02*
X72312676Y-30827256D01*
X72312676Y-30827256D02*
X72217438Y-30922494D01*
X72217438Y-30922494D02*
X72169819Y-31065351D01*
X72169819Y-31065351D02*
X72169819Y-31160589D01*
X72169819Y-31160589D02*
X72217438Y-31303446D01*
X72217438Y-31303446D02*
X72265057Y-31351065D01*
X82260588Y-40882561D02*
X82165350Y-40930180D01*
X82165350Y-40930180D02*
X82022493Y-40930180D01*
X82022493Y-40930180D02*
X81879636Y-40882561D01*
X81879636Y-40882561D02*
X81784398Y-40787323D01*
X81784398Y-40787323D02*
X81736779Y-40692085D01*
X81736779Y-40692085D02*
X81689160Y-40501609D01*
X81689160Y-40501609D02*
X81689160Y-40358752D01*
X81689160Y-40358752D02*
X81736779Y-40168276D01*
X81736779Y-40168276D02*
X81784398Y-40073038D01*
X81784398Y-40073038D02*
X81879636Y-39977800D01*
X81879636Y-39977800D02*
X82022493Y-39930180D01*
X82022493Y-39930180D02*
X82117731Y-39930180D01*
X82117731Y-39930180D02*
X82260588Y-39977800D01*
X82260588Y-39977800D02*
X82308207Y-40025419D01*
X82308207Y-40025419D02*
X82308207Y-40358752D01*
X82308207Y-40358752D02*
X82117731Y-40358752D01*
X82736779Y-39930180D02*
X82736779Y-40930180D01*
X82736779Y-40930180D02*
X83308207Y-39930180D01*
X83308207Y-39930180D02*
X83308207Y-40930180D01*
X83784398Y-39930180D02*
X83784398Y-40930180D01*
X83784398Y-40930180D02*
X84022493Y-40930180D01*
X84022493Y-40930180D02*
X84165350Y-40882561D01*
X84165350Y-40882561D02*
X84260588Y-40787323D01*
X84260588Y-40787323D02*
X84308207Y-40692085D01*
X84308207Y-40692085D02*
X84355826Y-40501609D01*
X84355826Y-40501609D02*
X84355826Y-40358752D01*
X84355826Y-40358752D02*
X84308207Y-40168276D01*
X84308207Y-40168276D02*
X84260588Y-40073038D01*
X84260588Y-40073038D02*
X84165350Y-39977800D01*
X84165350Y-39977800D02*
X84022493Y-39930180D01*
X84022493Y-39930180D02*
X83784398Y-39930180D01*
X84784398Y-39930180D02*
X84784398Y-40930180D01*
X84784398Y-40930180D02*
X85022493Y-40930180D01*
X85022493Y-40930180D02*
X85165350Y-40882561D01*
X85165350Y-40882561D02*
X85260588Y-40787323D01*
X85260588Y-40787323D02*
X85308207Y-40692085D01*
X85308207Y-40692085D02*
X85355826Y-40501609D01*
X85355826Y-40501609D02*
X85355826Y-40358752D01*
X85355826Y-40358752D02*
X85308207Y-40168276D01*
X85308207Y-40168276D02*
X85260588Y-40073038D01*
X85260588Y-40073038D02*
X85165350Y-39977800D01*
X85165350Y-39977800D02*
X85022493Y-39930180D01*
X85022493Y-39930180D02*
X84784398Y-39930180D01*
X115208207Y-45130180D02*
X114874874Y-45606371D01*
X114636779Y-45130180D02*
X114636779Y-46130180D01*
X114636779Y-46130180D02*
X115017731Y-46130180D01*
X115017731Y-46130180D02*
X115112969Y-46082561D01*
X115112969Y-46082561D02*
X115160588Y-46034942D01*
X115160588Y-46034942D02*
X115208207Y-45939704D01*
X115208207Y-45939704D02*
X115208207Y-45796847D01*
X115208207Y-45796847D02*
X115160588Y-45701609D01*
X115160588Y-45701609D02*
X115112969Y-45653990D01*
X115112969Y-45653990D02*
X115017731Y-45606371D01*
X115017731Y-45606371D02*
X114636779Y-45606371D01*
X115636779Y-45130180D02*
X115636779Y-46130180D01*
X115636779Y-46130180D02*
X115874874Y-46130180D01*
X115874874Y-46130180D02*
X116017731Y-46082561D01*
X116017731Y-46082561D02*
X116112969Y-45987323D01*
X116112969Y-45987323D02*
X116160588Y-45892085D01*
X116160588Y-45892085D02*
X116208207Y-45701609D01*
X116208207Y-45701609D02*
X116208207Y-45558752D01*
X116208207Y-45558752D02*
X116160588Y-45368276D01*
X116160588Y-45368276D02*
X116112969Y-45273038D01*
X116112969Y-45273038D02*
X116017731Y-45177800D01*
X116017731Y-45177800D02*
X115874874Y-45130180D01*
X115874874Y-45130180D02*
X115636779Y-45130180D01*
X116636779Y-45511133D02*
X117398684Y-45511133D01*
X117017731Y-45130180D02*
X117017731Y-45892085D01*
X123117438Y-50560588D02*
X123069819Y-50465350D01*
X123069819Y-50465350D02*
X123069819Y-50322493D01*
X123069819Y-50322493D02*
X123117438Y-50179636D01*
X123117438Y-50179636D02*
X123212676Y-50084398D01*
X123212676Y-50084398D02*
X123307914Y-50036779D01*
X123307914Y-50036779D02*
X123498390Y-49989160D01*
X123498390Y-49989160D02*
X123641247Y-49989160D01*
X123641247Y-49989160D02*
X123831723Y-50036779D01*
X123831723Y-50036779D02*
X123926961Y-50084398D01*
X123926961Y-50084398D02*
X124022200Y-50179636D01*
X124022200Y-50179636D02*
X124069819Y-50322493D01*
X124069819Y-50322493D02*
X124069819Y-50417731D01*
X124069819Y-50417731D02*
X124022200Y-50560588D01*
X124022200Y-50560588D02*
X123974580Y-50608207D01*
X123974580Y-50608207D02*
X123641247Y-50608207D01*
X123641247Y-50608207D02*
X123641247Y-50417731D01*
X124069819Y-51036779D02*
X123069819Y-51036779D01*
X123069819Y-51036779D02*
X124069819Y-51608207D01*
X124069819Y-51608207D02*
X123069819Y-51608207D01*
X124069819Y-52084398D02*
X123069819Y-52084398D01*
X123069819Y-52084398D02*
X123069819Y-52322493D01*
X123069819Y-52322493D02*
X123117438Y-52465350D01*
X123117438Y-52465350D02*
X123212676Y-52560588D01*
X123212676Y-52560588D02*
X123307914Y-52608207D01*
X123307914Y-52608207D02*
X123498390Y-52655826D01*
X123498390Y-52655826D02*
X123641247Y-52655826D01*
X123641247Y-52655826D02*
X123831723Y-52608207D01*
X123831723Y-52608207D02*
X123926961Y-52560588D01*
X123926961Y-52560588D02*
X124022200Y-52465350D01*
X124022200Y-52465350D02*
X124069819Y-52322493D01*
X124069819Y-52322493D02*
X124069819Y-52084398D01*
X123784104Y-53036779D02*
X123784104Y-53512969D01*
X124069819Y-52941541D02*
X123069819Y-53274874D01*
X123069819Y-53274874D02*
X124069819Y-53608207D01*
X70622200Y-27789160D02*
X70669819Y-27932017D01*
X70669819Y-27932017D02*
X70669819Y-28170112D01*
X70669819Y-28170112D02*
X70622200Y-28265350D01*
X70622200Y-28265350D02*
X70574580Y-28312969D01*
X70574580Y-28312969D02*
X70479342Y-28360588D01*
X70479342Y-28360588D02*
X70384104Y-28360588D01*
X70384104Y-28360588D02*
X70288866Y-28312969D01*
X70288866Y-28312969D02*
X70241247Y-28265350D01*
X70241247Y-28265350D02*
X70193628Y-28170112D01*
X70193628Y-28170112D02*
X70146009Y-27979636D01*
X70146009Y-27979636D02*
X70098390Y-27884398D01*
X70098390Y-27884398D02*
X70050771Y-27836779D01*
X70050771Y-27836779D02*
X69955533Y-27789160D01*
X69955533Y-27789160D02*
X69860295Y-27789160D01*
X69860295Y-27789160D02*
X69765057Y-27836779D01*
X69765057Y-27836779D02*
X69717438Y-27884398D01*
X69717438Y-27884398D02*
X69669819Y-27979636D01*
X69669819Y-27979636D02*
X69669819Y-28217731D01*
X69669819Y-28217731D02*
X69717438Y-28360588D01*
X70193628Y-28979636D02*
X70669819Y-28979636D01*
X69669819Y-28646303D02*
X70193628Y-28979636D01*
X70193628Y-28979636D02*
X69669819Y-29312969D01*
X70669819Y-29646303D02*
X69669819Y-29646303D01*
X69669819Y-29646303D02*
X70669819Y-30217731D01*
X70669819Y-30217731D02*
X69669819Y-30217731D01*
X70574580Y-31265350D02*
X70622200Y-31217731D01*
X70622200Y-31217731D02*
X70669819Y-31074874D01*
X70669819Y-31074874D02*
X70669819Y-30979636D01*
X70669819Y-30979636D02*
X70622200Y-30836779D01*
X70622200Y-30836779D02*
X70526961Y-30741541D01*
X70526961Y-30741541D02*
X70431723Y-30693922D01*
X70431723Y-30693922D02*
X70241247Y-30646303D01*
X70241247Y-30646303D02*
X70098390Y-30646303D01*
X70098390Y-30646303D02*
X69907914Y-30693922D01*
X69907914Y-30693922D02*
X69812676Y-30741541D01*
X69812676Y-30741541D02*
X69717438Y-30836779D01*
X69717438Y-30836779D02*
X69669819Y-30979636D01*
X69669819Y-30979636D02*
X69669819Y-31074874D01*
X69669819Y-31074874D02*
X69717438Y-31217731D01*
X69717438Y-31217731D02*
X69765057Y-31265350D01*
X89917438Y-50060588D02*
X89869819Y-49965350D01*
X89869819Y-49965350D02*
X89869819Y-49822493D01*
X89869819Y-49822493D02*
X89917438Y-49679636D01*
X89917438Y-49679636D02*
X90012676Y-49584398D01*
X90012676Y-49584398D02*
X90107914Y-49536779D01*
X90107914Y-49536779D02*
X90298390Y-49489160D01*
X90298390Y-49489160D02*
X90441247Y-49489160D01*
X90441247Y-49489160D02*
X90631723Y-49536779D01*
X90631723Y-49536779D02*
X90726961Y-49584398D01*
X90726961Y-49584398D02*
X90822200Y-49679636D01*
X90822200Y-49679636D02*
X90869819Y-49822493D01*
X90869819Y-49822493D02*
X90869819Y-49917731D01*
X90869819Y-49917731D02*
X90822200Y-50060588D01*
X90822200Y-50060588D02*
X90774580Y-50108207D01*
X90774580Y-50108207D02*
X90441247Y-50108207D01*
X90441247Y-50108207D02*
X90441247Y-49917731D01*
X90869819Y-50536779D02*
X89869819Y-50536779D01*
X89869819Y-50536779D02*
X90869819Y-51108207D01*
X90869819Y-51108207D02*
X89869819Y-51108207D01*
X90869819Y-51584398D02*
X89869819Y-51584398D01*
X89869819Y-51584398D02*
X89869819Y-51822493D01*
X89869819Y-51822493D02*
X89917438Y-51965350D01*
X89917438Y-51965350D02*
X90012676Y-52060588D01*
X90012676Y-52060588D02*
X90107914Y-52108207D01*
X90107914Y-52108207D02*
X90298390Y-52155826D01*
X90298390Y-52155826D02*
X90441247Y-52155826D01*
X90441247Y-52155826D02*
X90631723Y-52108207D01*
X90631723Y-52108207D02*
X90726961Y-52060588D01*
X90726961Y-52060588D02*
X90822200Y-51965350D01*
X90822200Y-51965350D02*
X90869819Y-51822493D01*
X90869819Y-51822493D02*
X90869819Y-51584398D01*
X90869819Y-52584398D02*
X89869819Y-52584398D01*
X89869819Y-52584398D02*
X89869819Y-52822493D01*
X89869819Y-52822493D02*
X89917438Y-52965350D01*
X89917438Y-52965350D02*
X90012676Y-53060588D01*
X90012676Y-53060588D02*
X90107914Y-53108207D01*
X90107914Y-53108207D02*
X90298390Y-53155826D01*
X90298390Y-53155826D02*
X90441247Y-53155826D01*
X90441247Y-53155826D02*
X90631723Y-53108207D01*
X90631723Y-53108207D02*
X90726961Y-53060588D01*
X90726961Y-53060588D02*
X90822200Y-52965350D01*
X90822200Y-52965350D02*
X90869819Y-52822493D01*
X90869819Y-52822493D02*
X90869819Y-52584398D01*
X95869819Y-27436779D02*
X94869819Y-27436779D01*
X94869819Y-27436779D02*
X95584104Y-27770112D01*
X95584104Y-27770112D02*
X94869819Y-28103445D01*
X94869819Y-28103445D02*
X95869819Y-28103445D01*
X94869819Y-28770112D02*
X94869819Y-28960588D01*
X94869819Y-28960588D02*
X94917438Y-29055826D01*
X94917438Y-29055826D02*
X95012676Y-29151064D01*
X95012676Y-29151064D02*
X95203152Y-29198683D01*
X95203152Y-29198683D02*
X95536485Y-29198683D01*
X95536485Y-29198683D02*
X95726961Y-29151064D01*
X95726961Y-29151064D02*
X95822200Y-29055826D01*
X95822200Y-29055826D02*
X95869819Y-28960588D01*
X95869819Y-28960588D02*
X95869819Y-28770112D01*
X95869819Y-28770112D02*
X95822200Y-28674874D01*
X95822200Y-28674874D02*
X95726961Y-28579636D01*
X95726961Y-28579636D02*
X95536485Y-28532017D01*
X95536485Y-28532017D02*
X95203152Y-28532017D01*
X95203152Y-28532017D02*
X95012676Y-28579636D01*
X95012676Y-28579636D02*
X94917438Y-28674874D01*
X94917438Y-28674874D02*
X94869819Y-28770112D01*
X95822200Y-29579636D02*
X95869819Y-29722493D01*
X95869819Y-29722493D02*
X95869819Y-29960588D01*
X95869819Y-29960588D02*
X95822200Y-30055826D01*
X95822200Y-30055826D02*
X95774580Y-30103445D01*
X95774580Y-30103445D02*
X95679342Y-30151064D01*
X95679342Y-30151064D02*
X95584104Y-30151064D01*
X95584104Y-30151064D02*
X95488866Y-30103445D01*
X95488866Y-30103445D02*
X95441247Y-30055826D01*
X95441247Y-30055826D02*
X95393628Y-29960588D01*
X95393628Y-29960588D02*
X95346009Y-29770112D01*
X95346009Y-29770112D02*
X95298390Y-29674874D01*
X95298390Y-29674874D02*
X95250771Y-29627255D01*
X95250771Y-29627255D02*
X95155533Y-29579636D01*
X95155533Y-29579636D02*
X95060295Y-29579636D01*
X95060295Y-29579636D02*
X94965057Y-29627255D01*
X94965057Y-29627255D02*
X94917438Y-29674874D01*
X94917438Y-29674874D02*
X94869819Y-29770112D01*
X94869819Y-29770112D02*
X94869819Y-30008207D01*
X94869819Y-30008207D02*
X94917438Y-30151064D01*
X95869819Y-30579636D02*
X94869819Y-30579636D01*
X95869819Y-31579635D02*
X95869819Y-31008207D01*
X95869819Y-31293921D02*
X94869819Y-31293921D01*
X94869819Y-31293921D02*
X95012676Y-31198683D01*
X95012676Y-31198683D02*
X95107914Y-31103445D01*
X95107914Y-31103445D02*
X95155533Y-31008207D01*
X108622200Y-49689160D02*
X108669819Y-49832017D01*
X108669819Y-49832017D02*
X108669819Y-50070112D01*
X108669819Y-50070112D02*
X108622200Y-50165350D01*
X108622200Y-50165350D02*
X108574580Y-50212969D01*
X108574580Y-50212969D02*
X108479342Y-50260588D01*
X108479342Y-50260588D02*
X108384104Y-50260588D01*
X108384104Y-50260588D02*
X108288866Y-50212969D01*
X108288866Y-50212969D02*
X108241247Y-50165350D01*
X108241247Y-50165350D02*
X108193628Y-50070112D01*
X108193628Y-50070112D02*
X108146009Y-49879636D01*
X108146009Y-49879636D02*
X108098390Y-49784398D01*
X108098390Y-49784398D02*
X108050771Y-49736779D01*
X108050771Y-49736779D02*
X107955533Y-49689160D01*
X107955533Y-49689160D02*
X107860295Y-49689160D01*
X107860295Y-49689160D02*
X107765057Y-49736779D01*
X107765057Y-49736779D02*
X107717438Y-49784398D01*
X107717438Y-49784398D02*
X107669819Y-49879636D01*
X107669819Y-49879636D02*
X107669819Y-50117731D01*
X107669819Y-50117731D02*
X107717438Y-50260588D01*
X108574580Y-51260588D02*
X108622200Y-51212969D01*
X108622200Y-51212969D02*
X108669819Y-51070112D01*
X108669819Y-51070112D02*
X108669819Y-50974874D01*
X108669819Y-50974874D02*
X108622200Y-50832017D01*
X108622200Y-50832017D02*
X108526961Y-50736779D01*
X108526961Y-50736779D02*
X108431723Y-50689160D01*
X108431723Y-50689160D02*
X108241247Y-50641541D01*
X108241247Y-50641541D02*
X108098390Y-50641541D01*
X108098390Y-50641541D02*
X107907914Y-50689160D01*
X107907914Y-50689160D02*
X107812676Y-50736779D01*
X107812676Y-50736779D02*
X107717438Y-50832017D01*
X107717438Y-50832017D02*
X107669819Y-50974874D01*
X107669819Y-50974874D02*
X107669819Y-51070112D01*
X107669819Y-51070112D02*
X107717438Y-51212969D01*
X107717438Y-51212969D02*
X107765057Y-51260588D01*
X108669819Y-52165350D02*
X108669819Y-51689160D01*
X108669819Y-51689160D02*
X107669819Y-51689160D01*
X116174580Y-50408207D02*
X116222200Y-50360588D01*
X116222200Y-50360588D02*
X116269819Y-50217731D01*
X116269819Y-50217731D02*
X116269819Y-50122493D01*
X116269819Y-50122493D02*
X116222200Y-49979636D01*
X116222200Y-49979636D02*
X116126961Y-49884398D01*
X116126961Y-49884398D02*
X116031723Y-49836779D01*
X116031723Y-49836779D02*
X115841247Y-49789160D01*
X115841247Y-49789160D02*
X115698390Y-49789160D01*
X115698390Y-49789160D02*
X115507914Y-49836779D01*
X115507914Y-49836779D02*
X115412676Y-49884398D01*
X115412676Y-49884398D02*
X115317438Y-49979636D01*
X115317438Y-49979636D02*
X115269819Y-50122493D01*
X115269819Y-50122493D02*
X115269819Y-50217731D01*
X115269819Y-50217731D02*
X115317438Y-50360588D01*
X115317438Y-50360588D02*
X115365057Y-50408207D01*
X115984104Y-50789160D02*
X115984104Y-51265350D01*
X116269819Y-50693922D02*
X115269819Y-51027255D01*
X115269819Y-51027255D02*
X116269819Y-51360588D01*
X116269819Y-51693922D02*
X115269819Y-51693922D01*
X115269819Y-51693922D02*
X116269819Y-52265350D01*
X116269819Y-52265350D02*
X115269819Y-52265350D01*
X116269819Y-52741541D02*
X115269819Y-52741541D01*
X115269819Y-52741541D02*
X115269819Y-52979636D01*
X115269819Y-52979636D02*
X115317438Y-53122493D01*
X115317438Y-53122493D02*
X115412676Y-53217731D01*
X115412676Y-53217731D02*
X115507914Y-53265350D01*
X115507914Y-53265350D02*
X115698390Y-53312969D01*
X115698390Y-53312969D02*
X115841247Y-53312969D01*
X115841247Y-53312969D02*
X116031723Y-53265350D01*
X116031723Y-53265350D02*
X116126961Y-53217731D01*
X116126961Y-53217731D02*
X116222200Y-53122493D01*
X116222200Y-53122493D02*
X116269819Y-52979636D01*
X116269819Y-52979636D02*
X116269819Y-52741541D01*
X115888866Y-53741541D02*
X115888866Y-54503446D01*
X116269819Y-54122493D02*
X115507914Y-54122493D01*
X98474580Y-27536779D02*
X98522200Y-27584398D01*
X98522200Y-27584398D02*
X98569819Y-27536779D01*
X98569819Y-27536779D02*
X98522200Y-27489160D01*
X98522200Y-27489160D02*
X98474580Y-27536779D01*
X98474580Y-27536779D02*
X98569819Y-27536779D01*
X98188866Y-27536779D02*
X97617438Y-27489160D01*
X97617438Y-27489160D02*
X97569819Y-27536779D01*
X97569819Y-27536779D02*
X97617438Y-27584398D01*
X97617438Y-27584398D02*
X98188866Y-27536779D01*
X98188866Y-27536779D02*
X97569819Y-27536779D01*
X98569819Y-28489159D02*
X98569819Y-28012969D01*
X98569819Y-28012969D02*
X97569819Y-28012969D01*
X98569819Y-28822493D02*
X97569819Y-28822493D01*
X97569819Y-28822493D02*
X97569819Y-29060588D01*
X97569819Y-29060588D02*
X97617438Y-29203445D01*
X97617438Y-29203445D02*
X97712676Y-29298683D01*
X97712676Y-29298683D02*
X97807914Y-29346302D01*
X97807914Y-29346302D02*
X97998390Y-29393921D01*
X97998390Y-29393921D02*
X98141247Y-29393921D01*
X98141247Y-29393921D02*
X98331723Y-29346302D01*
X98331723Y-29346302D02*
X98426961Y-29298683D01*
X98426961Y-29298683D02*
X98522200Y-29203445D01*
X98522200Y-29203445D02*
X98569819Y-29060588D01*
X98569819Y-29060588D02*
X98569819Y-28822493D01*
X98284104Y-29774874D02*
X98284104Y-30251064D01*
X98569819Y-29679636D02*
X97569819Y-30012969D01*
X97569819Y-30012969D02*
X98569819Y-30346302D01*
X98474580Y-31251064D02*
X98522200Y-31203445D01*
X98522200Y-31203445D02*
X98569819Y-31060588D01*
X98569819Y-31060588D02*
X98569819Y-30965350D01*
X98569819Y-30965350D02*
X98522200Y-30822493D01*
X98522200Y-30822493D02*
X98426961Y-30727255D01*
X98426961Y-30727255D02*
X98331723Y-30679636D01*
X98331723Y-30679636D02*
X98141247Y-30632017D01*
X98141247Y-30632017D02*
X97998390Y-30632017D01*
X97998390Y-30632017D02*
X97807914Y-30679636D01*
X97807914Y-30679636D02*
X97712676Y-30727255D01*
X97712676Y-30727255D02*
X97617438Y-30822493D01*
X97617438Y-30822493D02*
X97569819Y-30965350D01*
X97569819Y-30965350D02*
X97569819Y-31060588D01*
X97569819Y-31060588D02*
X97617438Y-31203445D01*
X97617438Y-31203445D02*
X97665057Y-31251064D01*
X107808207Y-45330180D02*
X107474874Y-45806371D01*
X107236779Y-45330180D02*
X107236779Y-46330180D01*
X107236779Y-46330180D02*
X107617731Y-46330180D01*
X107617731Y-46330180D02*
X107712969Y-46282561D01*
X107712969Y-46282561D02*
X107760588Y-46234942D01*
X107760588Y-46234942D02*
X107808207Y-46139704D01*
X107808207Y-46139704D02*
X107808207Y-45996847D01*
X107808207Y-45996847D02*
X107760588Y-45901609D01*
X107760588Y-45901609D02*
X107712969Y-45853990D01*
X107712969Y-45853990D02*
X107617731Y-45806371D01*
X107617731Y-45806371D02*
X107236779Y-45806371D01*
X108236779Y-45330180D02*
X108236779Y-46330180D01*
X108236779Y-46330180D02*
X108474874Y-46330180D01*
X108474874Y-46330180D02*
X108617731Y-46282561D01*
X108617731Y-46282561D02*
X108712969Y-46187323D01*
X108712969Y-46187323D02*
X108760588Y-46092085D01*
X108760588Y-46092085D02*
X108808207Y-45901609D01*
X108808207Y-45901609D02*
X108808207Y-45758752D01*
X108808207Y-45758752D02*
X108760588Y-45568276D01*
X108760588Y-45568276D02*
X108712969Y-45473038D01*
X108712969Y-45473038D02*
X108617731Y-45377800D01*
X108617731Y-45377800D02*
X108474874Y-45330180D01*
X108474874Y-45330180D02*
X108236779Y-45330180D01*
X109236779Y-45711133D02*
X109998684Y-45711133D01*
X101069819Y-49536779D02*
X100069819Y-49536779D01*
X100069819Y-49536779D02*
X100069819Y-49774874D01*
X100069819Y-49774874D02*
X100117438Y-49917731D01*
X100117438Y-49917731D02*
X100212676Y-50012969D01*
X100212676Y-50012969D02*
X100307914Y-50060588D01*
X100307914Y-50060588D02*
X100498390Y-50108207D01*
X100498390Y-50108207D02*
X100641247Y-50108207D01*
X100641247Y-50108207D02*
X100831723Y-50060588D01*
X100831723Y-50060588D02*
X100926961Y-50012969D01*
X100926961Y-50012969D02*
X101022200Y-49917731D01*
X101022200Y-49917731D02*
X101069819Y-49774874D01*
X101069819Y-49774874D02*
X101069819Y-49536779D01*
X100403152Y-50965350D02*
X101069819Y-50965350D01*
X100022200Y-50727255D02*
X100736485Y-50489160D01*
X100736485Y-50489160D02*
X100736485Y-51108207D01*
X101165057Y-51251065D02*
X101165057Y-52012969D01*
X101022200Y-52203446D02*
X101069819Y-52298684D01*
X101069819Y-52298684D02*
X101069819Y-52489160D01*
X101069819Y-52489160D02*
X101022200Y-52584398D01*
X101022200Y-52584398D02*
X100926961Y-52632017D01*
X100926961Y-52632017D02*
X100879342Y-52632017D01*
X100879342Y-52632017D02*
X100784104Y-52584398D01*
X100784104Y-52584398D02*
X100736485Y-52489160D01*
X100736485Y-52489160D02*
X100736485Y-52346303D01*
X100736485Y-52346303D02*
X100688866Y-52251065D01*
X100688866Y-52251065D02*
X100593628Y-52203446D01*
X100593628Y-52203446D02*
X100546009Y-52203446D01*
X100546009Y-52203446D02*
X100450771Y-52251065D01*
X100450771Y-52251065D02*
X100403152Y-52346303D01*
X100403152Y-52346303D02*
X100403152Y-52489160D01*
X100403152Y-52489160D02*
X100450771Y-52584398D01*
X101069819Y-53060589D02*
X100069819Y-53060589D01*
X101069819Y-53489160D02*
X100546009Y-53489160D01*
X100546009Y-53489160D02*
X100450771Y-53441541D01*
X100450771Y-53441541D02*
X100403152Y-53346303D01*
X100403152Y-53346303D02*
X100403152Y-53203446D01*
X100403152Y-53203446D02*
X100450771Y-53108208D01*
X100450771Y-53108208D02*
X100498390Y-53060589D01*
X101069819Y-53965351D02*
X100403152Y-53965351D01*
X100069819Y-53965351D02*
X100117438Y-53917732D01*
X100117438Y-53917732D02*
X100165057Y-53965351D01*
X100165057Y-53965351D02*
X100117438Y-54012970D01*
X100117438Y-54012970D02*
X100069819Y-53965351D01*
X100069819Y-53965351D02*
X100165057Y-53965351D01*
X100403152Y-54298684D02*
X100403152Y-54679636D01*
X101069819Y-54441541D02*
X100212676Y-54441541D01*
X100212676Y-54441541D02*
X100117438Y-54489160D01*
X100117438Y-54489160D02*
X100069819Y-54584398D01*
X100069819Y-54584398D02*
X100069819Y-54679636D01*
X100403152Y-54870113D02*
X100403152Y-55251065D01*
X100069819Y-55012970D02*
X100926961Y-55012970D01*
X100926961Y-55012970D02*
X101022200Y-55060589D01*
X101022200Y-55060589D02*
X101069819Y-55155827D01*
X101069819Y-55155827D02*
X101069819Y-55251065D01*
X113769819Y-49636779D02*
X112769819Y-49636779D01*
X112769819Y-49636779D02*
X112769819Y-49874874D01*
X112769819Y-49874874D02*
X112817438Y-50017731D01*
X112817438Y-50017731D02*
X112912676Y-50112969D01*
X112912676Y-50112969D02*
X113007914Y-50160588D01*
X113007914Y-50160588D02*
X113198390Y-50208207D01*
X113198390Y-50208207D02*
X113341247Y-50208207D01*
X113341247Y-50208207D02*
X113531723Y-50160588D01*
X113531723Y-50160588D02*
X113626961Y-50112969D01*
X113626961Y-50112969D02*
X113722200Y-50017731D01*
X113722200Y-50017731D02*
X113769819Y-49874874D01*
X113769819Y-49874874D02*
X113769819Y-49636779D01*
X113769819Y-51160588D02*
X113769819Y-50589160D01*
X113769819Y-50874874D02*
X112769819Y-50874874D01*
X112769819Y-50874874D02*
X112912676Y-50779636D01*
X112912676Y-50779636D02*
X113007914Y-50684398D01*
X113007914Y-50684398D02*
X113055533Y-50589160D01*
X113865057Y-51351065D02*
X113865057Y-52112969D01*
X113722200Y-52303446D02*
X113769819Y-52398684D01*
X113769819Y-52398684D02*
X113769819Y-52589160D01*
X113769819Y-52589160D02*
X113722200Y-52684398D01*
X113722200Y-52684398D02*
X113626961Y-52732017D01*
X113626961Y-52732017D02*
X113579342Y-52732017D01*
X113579342Y-52732017D02*
X113484104Y-52684398D01*
X113484104Y-52684398D02*
X113436485Y-52589160D01*
X113436485Y-52589160D02*
X113436485Y-52446303D01*
X113436485Y-52446303D02*
X113388866Y-52351065D01*
X113388866Y-52351065D02*
X113293628Y-52303446D01*
X113293628Y-52303446D02*
X113246009Y-52303446D01*
X113246009Y-52303446D02*
X113150771Y-52351065D01*
X113150771Y-52351065D02*
X113103152Y-52446303D01*
X113103152Y-52446303D02*
X113103152Y-52589160D01*
X113103152Y-52589160D02*
X113150771Y-52684398D01*
X113769819Y-53160589D02*
X112769819Y-53160589D01*
X113769819Y-53589160D02*
X113246009Y-53589160D01*
X113246009Y-53589160D02*
X113150771Y-53541541D01*
X113150771Y-53541541D02*
X113103152Y-53446303D01*
X113103152Y-53446303D02*
X113103152Y-53303446D01*
X113103152Y-53303446D02*
X113150771Y-53208208D01*
X113150771Y-53208208D02*
X113198390Y-53160589D01*
X113769819Y-54065351D02*
X113103152Y-54065351D01*
X112769819Y-54065351D02*
X112817438Y-54017732D01*
X112817438Y-54017732D02*
X112865057Y-54065351D01*
X112865057Y-54065351D02*
X112817438Y-54112970D01*
X112817438Y-54112970D02*
X112769819Y-54065351D01*
X112769819Y-54065351D02*
X112865057Y-54065351D01*
X113103152Y-54398684D02*
X113103152Y-54779636D01*
X113769819Y-54541541D02*
X112912676Y-54541541D01*
X112912676Y-54541541D02*
X112817438Y-54589160D01*
X112817438Y-54589160D02*
X112769819Y-54684398D01*
X112769819Y-54684398D02*
X112769819Y-54779636D01*
X113103152Y-54970113D02*
X113103152Y-55351065D01*
X112769819Y-55112970D02*
X113626961Y-55112970D01*
X113626961Y-55112970D02*
X113722200Y-55160589D01*
X113722200Y-55160589D02*
X113769819Y-55255827D01*
X113769819Y-55255827D02*
X113769819Y-55351065D01*
X89869819Y-28841541D02*
X89869819Y-29460588D01*
X89869819Y-29460588D02*
X90250771Y-29127255D01*
X90250771Y-29127255D02*
X90250771Y-29270112D01*
X90250771Y-29270112D02*
X90298390Y-29365350D01*
X90298390Y-29365350D02*
X90346009Y-29412969D01*
X90346009Y-29412969D02*
X90441247Y-29460588D01*
X90441247Y-29460588D02*
X90679342Y-29460588D01*
X90679342Y-29460588D02*
X90774580Y-29412969D01*
X90774580Y-29412969D02*
X90822200Y-29365350D01*
X90822200Y-29365350D02*
X90869819Y-29270112D01*
X90869819Y-29270112D02*
X90869819Y-28984398D01*
X90869819Y-28984398D02*
X90822200Y-28889160D01*
X90822200Y-28889160D02*
X90774580Y-28841541D01*
X89869819Y-29746303D02*
X90869819Y-30079636D01*
X90869819Y-30079636D02*
X89869819Y-30412969D01*
X89869819Y-30651065D02*
X89869819Y-31270112D01*
X89869819Y-31270112D02*
X90250771Y-30936779D01*
X90250771Y-30936779D02*
X90250771Y-31079636D01*
X90250771Y-31079636D02*
X90298390Y-31174874D01*
X90298390Y-31174874D02*
X90346009Y-31222493D01*
X90346009Y-31222493D02*
X90441247Y-31270112D01*
X90441247Y-31270112D02*
X90679342Y-31270112D01*
X90679342Y-31270112D02*
X90774580Y-31222493D01*
X90774580Y-31222493D02*
X90822200Y-31174874D01*
X90822200Y-31174874D02*
X90869819Y-31079636D01*
X90869819Y-31079636D02*
X90869819Y-30793922D01*
X90869819Y-30793922D02*
X90822200Y-30698684D01*
X90822200Y-30698684D02*
X90774580Y-30651065D01*
X73508207Y-34925419D02*
X73460588Y-34877800D01*
X73460588Y-34877800D02*
X73317731Y-34830180D01*
X73317731Y-34830180D02*
X73222493Y-34830180D01*
X73222493Y-34830180D02*
X73079636Y-34877800D01*
X73079636Y-34877800D02*
X72984398Y-34973038D01*
X72984398Y-34973038D02*
X72936779Y-35068276D01*
X72936779Y-35068276D02*
X72889160Y-35258752D01*
X72889160Y-35258752D02*
X72889160Y-35401609D01*
X72889160Y-35401609D02*
X72936779Y-35592085D01*
X72936779Y-35592085D02*
X72984398Y-35687323D01*
X72984398Y-35687323D02*
X73079636Y-35782561D01*
X73079636Y-35782561D02*
X73222493Y-35830180D01*
X73222493Y-35830180D02*
X73317731Y-35830180D01*
X73317731Y-35830180D02*
X73460588Y-35782561D01*
X73460588Y-35782561D02*
X73508207Y-35734942D01*
X74079636Y-34830180D02*
X73984398Y-34877800D01*
X73984398Y-34877800D02*
X73936779Y-34925419D01*
X73936779Y-34925419D02*
X73889160Y-35020657D01*
X73889160Y-35020657D02*
X73889160Y-35306371D01*
X73889160Y-35306371D02*
X73936779Y-35401609D01*
X73936779Y-35401609D02*
X73984398Y-35449228D01*
X73984398Y-35449228D02*
X74079636Y-35496847D01*
X74079636Y-35496847D02*
X74222493Y-35496847D01*
X74222493Y-35496847D02*
X74317731Y-35449228D01*
X74317731Y-35449228D02*
X74365350Y-35401609D01*
X74365350Y-35401609D02*
X74412969Y-35306371D01*
X74412969Y-35306371D02*
X74412969Y-35020657D01*
X74412969Y-35020657D02*
X74365350Y-34925419D01*
X74365350Y-34925419D02*
X74317731Y-34877800D01*
X74317731Y-34877800D02*
X74222493Y-34830180D01*
X74222493Y-34830180D02*
X74079636Y-34830180D01*
X74841541Y-34830180D02*
X74841541Y-35496847D01*
X74841541Y-35830180D02*
X74793922Y-35782561D01*
X74793922Y-35782561D02*
X74841541Y-35734942D01*
X74841541Y-35734942D02*
X74889160Y-35782561D01*
X74889160Y-35782561D02*
X74841541Y-35830180D01*
X74841541Y-35830180D02*
X74841541Y-35734942D01*
X75317731Y-35496847D02*
X75317731Y-34830180D01*
X75317731Y-35401609D02*
X75365350Y-35449228D01*
X75365350Y-35449228D02*
X75460588Y-35496847D01*
X75460588Y-35496847D02*
X75603445Y-35496847D01*
X75603445Y-35496847D02*
X75698683Y-35449228D01*
X75698683Y-35449228D02*
X75746302Y-35353990D01*
X75746302Y-35353990D02*
X75746302Y-34830180D01*
X77317731Y-35353990D02*
X77460588Y-35306371D01*
X77460588Y-35306371D02*
X77508207Y-35258752D01*
X77508207Y-35258752D02*
X77555826Y-35163514D01*
X77555826Y-35163514D02*
X77555826Y-35020657D01*
X77555826Y-35020657D02*
X77508207Y-34925419D01*
X77508207Y-34925419D02*
X77460588Y-34877800D01*
X77460588Y-34877800D02*
X77365350Y-34830180D01*
X77365350Y-34830180D02*
X76984398Y-34830180D01*
X76984398Y-34830180D02*
X76984398Y-35830180D01*
X76984398Y-35830180D02*
X77317731Y-35830180D01*
X77317731Y-35830180D02*
X77412969Y-35782561D01*
X77412969Y-35782561D02*
X77460588Y-35734942D01*
X77460588Y-35734942D02*
X77508207Y-35639704D01*
X77508207Y-35639704D02*
X77508207Y-35544466D01*
X77508207Y-35544466D02*
X77460588Y-35449228D01*
X77460588Y-35449228D02*
X77412969Y-35401609D01*
X77412969Y-35401609D02*
X77317731Y-35353990D01*
X77317731Y-35353990D02*
X76984398Y-35353990D01*
X78412969Y-34830180D02*
X78412969Y-35353990D01*
X78412969Y-35353990D02*
X78365350Y-35449228D01*
X78365350Y-35449228D02*
X78270112Y-35496847D01*
X78270112Y-35496847D02*
X78079636Y-35496847D01*
X78079636Y-35496847D02*
X77984398Y-35449228D01*
X78412969Y-34877800D02*
X78317731Y-34830180D01*
X78317731Y-34830180D02*
X78079636Y-34830180D01*
X78079636Y-34830180D02*
X77984398Y-34877800D01*
X77984398Y-34877800D02*
X77936779Y-34973038D01*
X77936779Y-34973038D02*
X77936779Y-35068276D01*
X77936779Y-35068276D02*
X77984398Y-35163514D01*
X77984398Y-35163514D02*
X78079636Y-35211133D01*
X78079636Y-35211133D02*
X78317731Y-35211133D01*
X78317731Y-35211133D02*
X78412969Y-35258752D01*
X78746303Y-35496847D02*
X79127255Y-35496847D01*
X78889160Y-35830180D02*
X78889160Y-34973038D01*
X78889160Y-34973038D02*
X78936779Y-34877800D01*
X78936779Y-34877800D02*
X79032017Y-34830180D01*
X79032017Y-34830180D02*
X79127255Y-34830180D01*
X83369819Y-49336779D02*
X82369819Y-49336779D01*
X82369819Y-49336779D02*
X83084104Y-49670112D01*
X83084104Y-49670112D02*
X82369819Y-50003445D01*
X82369819Y-50003445D02*
X83369819Y-50003445D01*
X83369819Y-50479636D02*
X82369819Y-50479636D01*
X83322200Y-50908207D02*
X83369819Y-51051064D01*
X83369819Y-51051064D02*
X83369819Y-51289159D01*
X83369819Y-51289159D02*
X83322200Y-51384397D01*
X83322200Y-51384397D02*
X83274580Y-51432016D01*
X83274580Y-51432016D02*
X83179342Y-51479635D01*
X83179342Y-51479635D02*
X83084104Y-51479635D01*
X83084104Y-51479635D02*
X82988866Y-51432016D01*
X82988866Y-51432016D02*
X82941247Y-51384397D01*
X82941247Y-51384397D02*
X82893628Y-51289159D01*
X82893628Y-51289159D02*
X82846009Y-51098683D01*
X82846009Y-51098683D02*
X82798390Y-51003445D01*
X82798390Y-51003445D02*
X82750771Y-50955826D01*
X82750771Y-50955826D02*
X82655533Y-50908207D01*
X82655533Y-50908207D02*
X82560295Y-50908207D01*
X82560295Y-50908207D02*
X82465057Y-50955826D01*
X82465057Y-50955826D02*
X82417438Y-51003445D01*
X82417438Y-51003445D02*
X82369819Y-51098683D01*
X82369819Y-51098683D02*
X82369819Y-51336778D01*
X82369819Y-51336778D02*
X82417438Y-51479635D01*
X82369819Y-52098683D02*
X82369819Y-52289159D01*
X82369819Y-52289159D02*
X82417438Y-52384397D01*
X82417438Y-52384397D02*
X82512676Y-52479635D01*
X82512676Y-52479635D02*
X82703152Y-52527254D01*
X82703152Y-52527254D02*
X83036485Y-52527254D01*
X83036485Y-52527254D02*
X83226961Y-52479635D01*
X83226961Y-52479635D02*
X83322200Y-52384397D01*
X83322200Y-52384397D02*
X83369819Y-52289159D01*
X83369819Y-52289159D02*
X83369819Y-52098683D01*
X83369819Y-52098683D02*
X83322200Y-52003445D01*
X83322200Y-52003445D02*
X83226961Y-51908207D01*
X83226961Y-51908207D02*
X83036485Y-51860588D01*
X83036485Y-51860588D02*
X82703152Y-51860588D01*
X82703152Y-51860588D02*
X82512676Y-51908207D01*
X82512676Y-51908207D02*
X82417438Y-52003445D01*
X82417438Y-52003445D02*
X82369819Y-52098683D01*
X83465057Y-52717731D02*
X83465057Y-53479635D01*
X82846009Y-53717731D02*
X82846009Y-54051064D01*
X83369819Y-54193921D02*
X83369819Y-53717731D01*
X83369819Y-53717731D02*
X82369819Y-53717731D01*
X82369819Y-53717731D02*
X82369819Y-54193921D01*
X83322200Y-54574874D02*
X83369819Y-54717731D01*
X83369819Y-54717731D02*
X83369819Y-54955826D01*
X83369819Y-54955826D02*
X83322200Y-55051064D01*
X83322200Y-55051064D02*
X83274580Y-55098683D01*
X83274580Y-55098683D02*
X83179342Y-55146302D01*
X83179342Y-55146302D02*
X83084104Y-55146302D01*
X83084104Y-55146302D02*
X82988866Y-55098683D01*
X82988866Y-55098683D02*
X82941247Y-55051064D01*
X82941247Y-55051064D02*
X82893628Y-54955826D01*
X82893628Y-54955826D02*
X82846009Y-54765350D01*
X82846009Y-54765350D02*
X82798390Y-54670112D01*
X82798390Y-54670112D02*
X82750771Y-54622493D01*
X82750771Y-54622493D02*
X82655533Y-54574874D01*
X82655533Y-54574874D02*
X82560295Y-54574874D01*
X82560295Y-54574874D02*
X82465057Y-54622493D01*
X82465057Y-54622493D02*
X82417438Y-54670112D01*
X82417438Y-54670112D02*
X82369819Y-54765350D01*
X82369819Y-54765350D02*
X82369819Y-55003445D01*
X82369819Y-55003445D02*
X82417438Y-55146302D01*
X83369819Y-55574874D02*
X82369819Y-55574874D01*
X82369819Y-55574874D02*
X82369819Y-55955826D01*
X82369819Y-55955826D02*
X82417438Y-56051064D01*
X82417438Y-56051064D02*
X82465057Y-56098683D01*
X82465057Y-56098683D02*
X82560295Y-56146302D01*
X82560295Y-56146302D02*
X82703152Y-56146302D01*
X82703152Y-56146302D02*
X82798390Y-56098683D01*
X82798390Y-56098683D02*
X82846009Y-56051064D01*
X82846009Y-56051064D02*
X82893628Y-55955826D01*
X82893628Y-55955826D02*
X82893628Y-55574874D01*
X120469819Y-49841541D02*
X120469819Y-50460588D01*
X120469819Y-50460588D02*
X120850771Y-50127255D01*
X120850771Y-50127255D02*
X120850771Y-50270112D01*
X120850771Y-50270112D02*
X120898390Y-50365350D01*
X120898390Y-50365350D02*
X120946009Y-50412969D01*
X120946009Y-50412969D02*
X121041247Y-50460588D01*
X121041247Y-50460588D02*
X121279342Y-50460588D01*
X121279342Y-50460588D02*
X121374580Y-50412969D01*
X121374580Y-50412969D02*
X121422200Y-50365350D01*
X121422200Y-50365350D02*
X121469819Y-50270112D01*
X121469819Y-50270112D02*
X121469819Y-49984398D01*
X121469819Y-49984398D02*
X121422200Y-49889160D01*
X121422200Y-49889160D02*
X121374580Y-49841541D01*
X120469819Y-50746303D02*
X121469819Y-51079636D01*
X121469819Y-51079636D02*
X120469819Y-51412969D01*
X120469819Y-51651065D02*
X120469819Y-52270112D01*
X120469819Y-52270112D02*
X120850771Y-51936779D01*
X120850771Y-51936779D02*
X120850771Y-52079636D01*
X120850771Y-52079636D02*
X120898390Y-52174874D01*
X120898390Y-52174874D02*
X120946009Y-52222493D01*
X120946009Y-52222493D02*
X121041247Y-52270112D01*
X121041247Y-52270112D02*
X121279342Y-52270112D01*
X121279342Y-52270112D02*
X121374580Y-52222493D01*
X121374580Y-52222493D02*
X121422200Y-52174874D01*
X121422200Y-52174874D02*
X121469819Y-52079636D01*
X121469819Y-52079636D02*
X121469819Y-51793922D01*
X121469819Y-51793922D02*
X121422200Y-51698684D01*
X121422200Y-51698684D02*
X121374580Y-51651065D01*
X93369819Y-27536779D02*
X92369819Y-27536779D01*
X92369819Y-27536779D02*
X93084104Y-27870112D01*
X93084104Y-27870112D02*
X92369819Y-28203445D01*
X92369819Y-28203445D02*
X93369819Y-28203445D01*
X93369819Y-28679636D02*
X92369819Y-28679636D01*
X93322200Y-29108207D02*
X93369819Y-29251064D01*
X93369819Y-29251064D02*
X93369819Y-29489159D01*
X93369819Y-29489159D02*
X93322200Y-29584397D01*
X93322200Y-29584397D02*
X93274580Y-29632016D01*
X93274580Y-29632016D02*
X93179342Y-29679635D01*
X93179342Y-29679635D02*
X93084104Y-29679635D01*
X93084104Y-29679635D02*
X92988866Y-29632016D01*
X92988866Y-29632016D02*
X92941247Y-29584397D01*
X92941247Y-29584397D02*
X92893628Y-29489159D01*
X92893628Y-29489159D02*
X92846009Y-29298683D01*
X92846009Y-29298683D02*
X92798390Y-29203445D01*
X92798390Y-29203445D02*
X92750771Y-29155826D01*
X92750771Y-29155826D02*
X92655533Y-29108207D01*
X92655533Y-29108207D02*
X92560295Y-29108207D01*
X92560295Y-29108207D02*
X92465057Y-29155826D01*
X92465057Y-29155826D02*
X92417438Y-29203445D01*
X92417438Y-29203445D02*
X92369819Y-29298683D01*
X92369819Y-29298683D02*
X92369819Y-29536778D01*
X92369819Y-29536778D02*
X92417438Y-29679635D01*
X92369819Y-30298683D02*
X92369819Y-30489159D01*
X92369819Y-30489159D02*
X92417438Y-30584397D01*
X92417438Y-30584397D02*
X92512676Y-30679635D01*
X92512676Y-30679635D02*
X92703152Y-30727254D01*
X92703152Y-30727254D02*
X93036485Y-30727254D01*
X93036485Y-30727254D02*
X93226961Y-30679635D01*
X93226961Y-30679635D02*
X93322200Y-30584397D01*
X93322200Y-30584397D02*
X93369819Y-30489159D01*
X93369819Y-30489159D02*
X93369819Y-30298683D01*
X93369819Y-30298683D02*
X93322200Y-30203445D01*
X93322200Y-30203445D02*
X93226961Y-30108207D01*
X93226961Y-30108207D02*
X93036485Y-30060588D01*
X93036485Y-30060588D02*
X92703152Y-30060588D01*
X92703152Y-30060588D02*
X92512676Y-30108207D01*
X92512676Y-30108207D02*
X92417438Y-30203445D01*
X92417438Y-30203445D02*
X92369819Y-30298683D01*
X93369819Y-31679635D02*
X93369819Y-31108207D01*
X93369819Y-31393921D02*
X92369819Y-31393921D01*
X92369819Y-31393921D02*
X92512676Y-31298683D01*
X92512676Y-31298683D02*
X92607914Y-31203445D01*
X92607914Y-31203445D02*
X92655533Y-31108207D01*
X118774580Y-50408207D02*
X118822200Y-50360588D01*
X118822200Y-50360588D02*
X118869819Y-50217731D01*
X118869819Y-50217731D02*
X118869819Y-50122493D01*
X118869819Y-50122493D02*
X118822200Y-49979636D01*
X118822200Y-49979636D02*
X118726961Y-49884398D01*
X118726961Y-49884398D02*
X118631723Y-49836779D01*
X118631723Y-49836779D02*
X118441247Y-49789160D01*
X118441247Y-49789160D02*
X118298390Y-49789160D01*
X118298390Y-49789160D02*
X118107914Y-49836779D01*
X118107914Y-49836779D02*
X118012676Y-49884398D01*
X118012676Y-49884398D02*
X117917438Y-49979636D01*
X117917438Y-49979636D02*
X117869819Y-50122493D01*
X117869819Y-50122493D02*
X117869819Y-50217731D01*
X117869819Y-50217731D02*
X117917438Y-50360588D01*
X117917438Y-50360588D02*
X117965057Y-50408207D01*
X118584104Y-50789160D02*
X118584104Y-51265350D01*
X118869819Y-50693922D02*
X117869819Y-51027255D01*
X117869819Y-51027255D02*
X118869819Y-51360588D01*
X118869819Y-51693922D02*
X117869819Y-51693922D01*
X117869819Y-51693922D02*
X118869819Y-52265350D01*
X118869819Y-52265350D02*
X117869819Y-52265350D01*
X118869819Y-52741541D02*
X117869819Y-52741541D01*
X117869819Y-52741541D02*
X117869819Y-52979636D01*
X117869819Y-52979636D02*
X117917438Y-53122493D01*
X117917438Y-53122493D02*
X118012676Y-53217731D01*
X118012676Y-53217731D02*
X118107914Y-53265350D01*
X118107914Y-53265350D02*
X118298390Y-53312969D01*
X118298390Y-53312969D02*
X118441247Y-53312969D01*
X118441247Y-53312969D02*
X118631723Y-53265350D01*
X118631723Y-53265350D02*
X118726961Y-53217731D01*
X118726961Y-53217731D02*
X118822200Y-53122493D01*
X118822200Y-53122493D02*
X118869819Y-52979636D01*
X118869819Y-52979636D02*
X118869819Y-52741541D01*
X118488866Y-53741541D02*
X118488866Y-54503446D01*
X98569819Y-49636779D02*
X97569819Y-49636779D01*
X97569819Y-49636779D02*
X97569819Y-49874874D01*
X97569819Y-49874874D02*
X97617438Y-50017731D01*
X97617438Y-50017731D02*
X97712676Y-50112969D01*
X97712676Y-50112969D02*
X97807914Y-50160588D01*
X97807914Y-50160588D02*
X97998390Y-50208207D01*
X97998390Y-50208207D02*
X98141247Y-50208207D01*
X98141247Y-50208207D02*
X98331723Y-50160588D01*
X98331723Y-50160588D02*
X98426961Y-50112969D01*
X98426961Y-50112969D02*
X98522200Y-50017731D01*
X98522200Y-50017731D02*
X98569819Y-49874874D01*
X98569819Y-49874874D02*
X98569819Y-49636779D01*
X97569819Y-51112969D02*
X97569819Y-50636779D01*
X97569819Y-50636779D02*
X98046009Y-50589160D01*
X98046009Y-50589160D02*
X97998390Y-50636779D01*
X97998390Y-50636779D02*
X97950771Y-50732017D01*
X97950771Y-50732017D02*
X97950771Y-50970112D01*
X97950771Y-50970112D02*
X97998390Y-51065350D01*
X97998390Y-51065350D02*
X98046009Y-51112969D01*
X98046009Y-51112969D02*
X98141247Y-51160588D01*
X98141247Y-51160588D02*
X98379342Y-51160588D01*
X98379342Y-51160588D02*
X98474580Y-51112969D01*
X98474580Y-51112969D02*
X98522200Y-51065350D01*
X98522200Y-51065350D02*
X98569819Y-50970112D01*
X98569819Y-50970112D02*
X98569819Y-50732017D01*
X98569819Y-50732017D02*
X98522200Y-50636779D01*
X98522200Y-50636779D02*
X98474580Y-50589160D01*
X98665057Y-51351065D02*
X98665057Y-52112969D01*
X98522200Y-52303446D02*
X98569819Y-52398684D01*
X98569819Y-52398684D02*
X98569819Y-52589160D01*
X98569819Y-52589160D02*
X98522200Y-52684398D01*
X98522200Y-52684398D02*
X98426961Y-52732017D01*
X98426961Y-52732017D02*
X98379342Y-52732017D01*
X98379342Y-52732017D02*
X98284104Y-52684398D01*
X98284104Y-52684398D02*
X98236485Y-52589160D01*
X98236485Y-52589160D02*
X98236485Y-52446303D01*
X98236485Y-52446303D02*
X98188866Y-52351065D01*
X98188866Y-52351065D02*
X98093628Y-52303446D01*
X98093628Y-52303446D02*
X98046009Y-52303446D01*
X98046009Y-52303446D02*
X97950771Y-52351065D01*
X97950771Y-52351065D02*
X97903152Y-52446303D01*
X97903152Y-52446303D02*
X97903152Y-52589160D01*
X97903152Y-52589160D02*
X97950771Y-52684398D01*
X98569819Y-53160589D02*
X97569819Y-53160589D01*
X98569819Y-53589160D02*
X98046009Y-53589160D01*
X98046009Y-53589160D02*
X97950771Y-53541541D01*
X97950771Y-53541541D02*
X97903152Y-53446303D01*
X97903152Y-53446303D02*
X97903152Y-53303446D01*
X97903152Y-53303446D02*
X97950771Y-53208208D01*
X97950771Y-53208208D02*
X97998390Y-53160589D01*
X98569819Y-54065351D02*
X97903152Y-54065351D01*
X97569819Y-54065351D02*
X97617438Y-54017732D01*
X97617438Y-54017732D02*
X97665057Y-54065351D01*
X97665057Y-54065351D02*
X97617438Y-54112970D01*
X97617438Y-54112970D02*
X97569819Y-54065351D01*
X97569819Y-54065351D02*
X97665057Y-54065351D01*
X97903152Y-54398684D02*
X97903152Y-54779636D01*
X98569819Y-54541541D02*
X97712676Y-54541541D01*
X97712676Y-54541541D02*
X97617438Y-54589160D01*
X97617438Y-54589160D02*
X97569819Y-54684398D01*
X97569819Y-54684398D02*
X97569819Y-54779636D01*
X97903152Y-54970113D02*
X97903152Y-55351065D01*
X97569819Y-55112970D02*
X98426961Y-55112970D01*
X98426961Y-55112970D02*
X98522200Y-55160589D01*
X98522200Y-55160589D02*
X98569819Y-55255827D01*
X98569819Y-55255827D02*
X98569819Y-55351065D01*
X114393922Y-42230180D02*
X114965350Y-42230180D01*
X114679636Y-41230180D02*
X114679636Y-42230180D01*
X115298684Y-41230180D02*
X115298684Y-42230180D01*
X115298684Y-42230180D02*
X115536779Y-42230180D01*
X115536779Y-42230180D02*
X115679636Y-42182561D01*
X115679636Y-42182561D02*
X115774874Y-42087323D01*
X115774874Y-42087323D02*
X115822493Y-41992085D01*
X115822493Y-41992085D02*
X115870112Y-41801609D01*
X115870112Y-41801609D02*
X115870112Y-41658752D01*
X115870112Y-41658752D02*
X115822493Y-41468276D01*
X115822493Y-41468276D02*
X115774874Y-41373038D01*
X115774874Y-41373038D02*
X115679636Y-41277800D01*
X115679636Y-41277800D02*
X115536779Y-41230180D01*
X115536779Y-41230180D02*
X115298684Y-41230180D01*
X116298684Y-41611133D02*
X117060589Y-41611133D01*
X88374580Y-49436779D02*
X88422200Y-49484398D01*
X88422200Y-49484398D02*
X88469819Y-49436779D01*
X88469819Y-49436779D02*
X88422200Y-49389160D01*
X88422200Y-49389160D02*
X88374580Y-49436779D01*
X88374580Y-49436779D02*
X88469819Y-49436779D01*
X88088866Y-49436779D02*
X87517438Y-49389160D01*
X87517438Y-49389160D02*
X87469819Y-49436779D01*
X87469819Y-49436779D02*
X87517438Y-49484398D01*
X87517438Y-49484398D02*
X88088866Y-49436779D01*
X88088866Y-49436779D02*
X87469819Y-49436779D01*
X87946009Y-49912969D02*
X87946009Y-50246302D01*
X88469819Y-50389159D02*
X88469819Y-49912969D01*
X88469819Y-49912969D02*
X87469819Y-49912969D01*
X87469819Y-49912969D02*
X87469819Y-50389159D01*
X88469819Y-51389159D02*
X87993628Y-51055826D01*
X88469819Y-50817731D02*
X87469819Y-50817731D01*
X87469819Y-50817731D02*
X87469819Y-51198683D01*
X87469819Y-51198683D02*
X87517438Y-51293921D01*
X87517438Y-51293921D02*
X87565057Y-51341540D01*
X87565057Y-51341540D02*
X87660295Y-51389159D01*
X87660295Y-51389159D02*
X87803152Y-51389159D01*
X87803152Y-51389159D02*
X87898390Y-51341540D01*
X87898390Y-51341540D02*
X87946009Y-51293921D01*
X87946009Y-51293921D02*
X87993628Y-51198683D01*
X87993628Y-51198683D02*
X87993628Y-50817731D01*
X88469819Y-52389159D02*
X87993628Y-52055826D01*
X88469819Y-51817731D02*
X87469819Y-51817731D01*
X87469819Y-51817731D02*
X87469819Y-52198683D01*
X87469819Y-52198683D02*
X87517438Y-52293921D01*
X87517438Y-52293921D02*
X87565057Y-52341540D01*
X87565057Y-52341540D02*
X87660295Y-52389159D01*
X87660295Y-52389159D02*
X87803152Y-52389159D01*
X87803152Y-52389159D02*
X87898390Y-52341540D01*
X87898390Y-52341540D02*
X87946009Y-52293921D01*
X87946009Y-52293921D02*
X87993628Y-52198683D01*
X87993628Y-52198683D02*
X87993628Y-51817731D01*
X87469819Y-53008207D02*
X87469819Y-53198683D01*
X87469819Y-53198683D02*
X87517438Y-53293921D01*
X87517438Y-53293921D02*
X87612676Y-53389159D01*
X87612676Y-53389159D02*
X87803152Y-53436778D01*
X87803152Y-53436778D02*
X88136485Y-53436778D01*
X88136485Y-53436778D02*
X88326961Y-53389159D01*
X88326961Y-53389159D02*
X88422200Y-53293921D01*
X88422200Y-53293921D02*
X88469819Y-53198683D01*
X88469819Y-53198683D02*
X88469819Y-53008207D01*
X88469819Y-53008207D02*
X88422200Y-52912969D01*
X88422200Y-52912969D02*
X88326961Y-52817731D01*
X88326961Y-52817731D02*
X88136485Y-52770112D01*
X88136485Y-52770112D02*
X87803152Y-52770112D01*
X87803152Y-52770112D02*
X87612676Y-52817731D01*
X87612676Y-52817731D02*
X87517438Y-52912969D01*
X87517438Y-52912969D02*
X87469819Y-53008207D01*
X95969819Y-49536779D02*
X94969819Y-49536779D01*
X94969819Y-49536779D02*
X94969819Y-49774874D01*
X94969819Y-49774874D02*
X95017438Y-49917731D01*
X95017438Y-49917731D02*
X95112676Y-50012969D01*
X95112676Y-50012969D02*
X95207914Y-50060588D01*
X95207914Y-50060588D02*
X95398390Y-50108207D01*
X95398390Y-50108207D02*
X95541247Y-50108207D01*
X95541247Y-50108207D02*
X95731723Y-50060588D01*
X95731723Y-50060588D02*
X95826961Y-50012969D01*
X95826961Y-50012969D02*
X95922200Y-49917731D01*
X95922200Y-49917731D02*
X95969819Y-49774874D01*
X95969819Y-49774874D02*
X95969819Y-49536779D01*
X94969819Y-50965350D02*
X94969819Y-50774874D01*
X94969819Y-50774874D02*
X95017438Y-50679636D01*
X95017438Y-50679636D02*
X95065057Y-50632017D01*
X95065057Y-50632017D02*
X95207914Y-50536779D01*
X95207914Y-50536779D02*
X95398390Y-50489160D01*
X95398390Y-50489160D02*
X95779342Y-50489160D01*
X95779342Y-50489160D02*
X95874580Y-50536779D01*
X95874580Y-50536779D02*
X95922200Y-50584398D01*
X95922200Y-50584398D02*
X95969819Y-50679636D01*
X95969819Y-50679636D02*
X95969819Y-50870112D01*
X95969819Y-50870112D02*
X95922200Y-50965350D01*
X95922200Y-50965350D02*
X95874580Y-51012969D01*
X95874580Y-51012969D02*
X95779342Y-51060588D01*
X95779342Y-51060588D02*
X95541247Y-51060588D01*
X95541247Y-51060588D02*
X95446009Y-51012969D01*
X95446009Y-51012969D02*
X95398390Y-50965350D01*
X95398390Y-50965350D02*
X95350771Y-50870112D01*
X95350771Y-50870112D02*
X95350771Y-50679636D01*
X95350771Y-50679636D02*
X95398390Y-50584398D01*
X95398390Y-50584398D02*
X95446009Y-50536779D01*
X95446009Y-50536779D02*
X95541247Y-50489160D01*
X96065057Y-51251065D02*
X96065057Y-52012969D01*
X95922200Y-52203446D02*
X95969819Y-52298684D01*
X95969819Y-52298684D02*
X95969819Y-52489160D01*
X95969819Y-52489160D02*
X95922200Y-52584398D01*
X95922200Y-52584398D02*
X95826961Y-52632017D01*
X95826961Y-52632017D02*
X95779342Y-52632017D01*
X95779342Y-52632017D02*
X95684104Y-52584398D01*
X95684104Y-52584398D02*
X95636485Y-52489160D01*
X95636485Y-52489160D02*
X95636485Y-52346303D01*
X95636485Y-52346303D02*
X95588866Y-52251065D01*
X95588866Y-52251065D02*
X95493628Y-52203446D01*
X95493628Y-52203446D02*
X95446009Y-52203446D01*
X95446009Y-52203446D02*
X95350771Y-52251065D01*
X95350771Y-52251065D02*
X95303152Y-52346303D01*
X95303152Y-52346303D02*
X95303152Y-52489160D01*
X95303152Y-52489160D02*
X95350771Y-52584398D01*
X95969819Y-53060589D02*
X94969819Y-53060589D01*
X95969819Y-53489160D02*
X95446009Y-53489160D01*
X95446009Y-53489160D02*
X95350771Y-53441541D01*
X95350771Y-53441541D02*
X95303152Y-53346303D01*
X95303152Y-53346303D02*
X95303152Y-53203446D01*
X95303152Y-53203446D02*
X95350771Y-53108208D01*
X95350771Y-53108208D02*
X95398390Y-53060589D01*
X95969819Y-53965351D02*
X95303152Y-53965351D01*
X94969819Y-53965351D02*
X95017438Y-53917732D01*
X95017438Y-53917732D02*
X95065057Y-53965351D01*
X95065057Y-53965351D02*
X95017438Y-54012970D01*
X95017438Y-54012970D02*
X94969819Y-53965351D01*
X94969819Y-53965351D02*
X95065057Y-53965351D01*
X95303152Y-54298684D02*
X95303152Y-54679636D01*
X95969819Y-54441541D02*
X95112676Y-54441541D01*
X95112676Y-54441541D02*
X95017438Y-54489160D01*
X95017438Y-54489160D02*
X94969819Y-54584398D01*
X94969819Y-54584398D02*
X94969819Y-54679636D01*
X95303152Y-54870113D02*
X95303152Y-55251065D01*
X94969819Y-55012970D02*
X95826961Y-55012970D01*
X95826961Y-55012970D02*
X95922200Y-55060589D01*
X95922200Y-55060589D02*
X95969819Y-55155827D01*
X95969819Y-55155827D02*
X95969819Y-55251065D01*
X106122200Y-49589160D02*
X106169819Y-49732017D01*
X106169819Y-49732017D02*
X106169819Y-49970112D01*
X106169819Y-49970112D02*
X106122200Y-50065350D01*
X106122200Y-50065350D02*
X106074580Y-50112969D01*
X106074580Y-50112969D02*
X105979342Y-50160588D01*
X105979342Y-50160588D02*
X105884104Y-50160588D01*
X105884104Y-50160588D02*
X105788866Y-50112969D01*
X105788866Y-50112969D02*
X105741247Y-50065350D01*
X105741247Y-50065350D02*
X105693628Y-49970112D01*
X105693628Y-49970112D02*
X105646009Y-49779636D01*
X105646009Y-49779636D02*
X105598390Y-49684398D01*
X105598390Y-49684398D02*
X105550771Y-49636779D01*
X105550771Y-49636779D02*
X105455533Y-49589160D01*
X105455533Y-49589160D02*
X105360295Y-49589160D01*
X105360295Y-49589160D02*
X105265057Y-49636779D01*
X105265057Y-49636779D02*
X105217438Y-49684398D01*
X105217438Y-49684398D02*
X105169819Y-49779636D01*
X105169819Y-49779636D02*
X105169819Y-50017731D01*
X105169819Y-50017731D02*
X105217438Y-50160588D01*
X106169819Y-50589160D02*
X105169819Y-50589160D01*
X105169819Y-50589160D02*
X105169819Y-50827255D01*
X105169819Y-50827255D02*
X105217438Y-50970112D01*
X105217438Y-50970112D02*
X105312676Y-51065350D01*
X105312676Y-51065350D02*
X105407914Y-51112969D01*
X105407914Y-51112969D02*
X105598390Y-51160588D01*
X105598390Y-51160588D02*
X105741247Y-51160588D01*
X105741247Y-51160588D02*
X105931723Y-51112969D01*
X105931723Y-51112969D02*
X106026961Y-51065350D01*
X106026961Y-51065350D02*
X106122200Y-50970112D01*
X106122200Y-50970112D02*
X106169819Y-50827255D01*
X106169819Y-50827255D02*
X106169819Y-50589160D01*
X105884104Y-51541541D02*
X105884104Y-52017731D01*
X106169819Y-51446303D02*
X105169819Y-51779636D01*
X105169819Y-51779636D02*
X106169819Y-52112969D01*
X85291666Y-66742819D02*
X85624999Y-66266628D01*
X85863094Y-66742819D02*
X85863094Y-65742819D01*
X85863094Y-65742819D02*
X85482142Y-65742819D01*
X85482142Y-65742819D02*
X85386904Y-65790438D01*
X85386904Y-65790438D02*
X85339285Y-65838057D01*
X85339285Y-65838057D02*
X85291666Y-65933295D01*
X85291666Y-65933295D02*
X85291666Y-66076152D01*
X85291666Y-66076152D02*
X85339285Y-66171390D01*
X85339285Y-66171390D02*
X85386904Y-66219009D01*
X85386904Y-66219009D02*
X85482142Y-66266628D01*
X85482142Y-66266628D02*
X85863094Y-66266628D01*
X84958332Y-65742819D02*
X84339285Y-65742819D01*
X84339285Y-65742819D02*
X84672618Y-66123771D01*
X84672618Y-66123771D02*
X84529761Y-66123771D01*
X84529761Y-66123771D02*
X84434523Y-66171390D01*
X84434523Y-66171390D02*
X84386904Y-66219009D01*
X84386904Y-66219009D02*
X84339285Y-66314247D01*
X84339285Y-66314247D02*
X84339285Y-66552342D01*
X84339285Y-66552342D02*
X84386904Y-66647580D01*
X84386904Y-66647580D02*
X84434523Y-66695200D01*
X84434523Y-66695200D02*
X84529761Y-66742819D01*
X84529761Y-66742819D02*
X84815475Y-66742819D01*
X84815475Y-66742819D02*
X84910713Y-66695200D01*
X84910713Y-66695200D02*
X84958332Y-66647580D01*
X58854819Y-75273810D02*
X57854819Y-75273810D01*
X58759580Y-76321428D02*
X58807200Y-76273809D01*
X58807200Y-76273809D02*
X58854819Y-76130952D01*
X58854819Y-76130952D02*
X58854819Y-76035714D01*
X58854819Y-76035714D02*
X58807200Y-75892857D01*
X58807200Y-75892857D02*
X58711961Y-75797619D01*
X58711961Y-75797619D02*
X58616723Y-75750000D01*
X58616723Y-75750000D02*
X58426247Y-75702381D01*
X58426247Y-75702381D02*
X58283390Y-75702381D01*
X58283390Y-75702381D02*
X58092914Y-75750000D01*
X58092914Y-75750000D02*
X57997676Y-75797619D01*
X57997676Y-75797619D02*
X57902438Y-75892857D01*
X57902438Y-75892857D02*
X57854819Y-76035714D01*
X57854819Y-76035714D02*
X57854819Y-76130952D01*
X57854819Y-76130952D02*
X57902438Y-76273809D01*
X57902438Y-76273809D02*
X57950057Y-76321428D01*
X58854819Y-77273809D02*
X58854819Y-76702381D01*
X58854819Y-76988095D02*
X57854819Y-76988095D01*
X57854819Y-76988095D02*
X57997676Y-76892857D01*
X57997676Y-76892857D02*
X58092914Y-76797619D01*
X58092914Y-76797619D02*
X58140533Y-76702381D01*
X121806904Y-57141419D02*
X121806904Y-57950942D01*
X121806904Y-57950942D02*
X121759285Y-58046180D01*
X121759285Y-58046180D02*
X121711666Y-58093800D01*
X121711666Y-58093800D02*
X121616428Y-58141419D01*
X121616428Y-58141419D02*
X121425952Y-58141419D01*
X121425952Y-58141419D02*
X121330714Y-58093800D01*
X121330714Y-58093800D02*
X121283095Y-58046180D01*
X121283095Y-58046180D02*
X121235476Y-57950942D01*
X121235476Y-57950942D02*
X121235476Y-57141419D01*
X120854523Y-57141419D02*
X120235476Y-57141419D01*
X120235476Y-57141419D02*
X120568809Y-57522371D01*
X120568809Y-57522371D02*
X120425952Y-57522371D01*
X120425952Y-57522371D02*
X120330714Y-57569990D01*
X120330714Y-57569990D02*
X120283095Y-57617609D01*
X120283095Y-57617609D02*
X120235476Y-57712847D01*
X120235476Y-57712847D02*
X120235476Y-57950942D01*
X120235476Y-57950942D02*
X120283095Y-58046180D01*
X120283095Y-58046180D02*
X120330714Y-58093800D01*
X120330714Y-58093800D02*
X120425952Y-58141419D01*
X120425952Y-58141419D02*
X120711666Y-58141419D01*
X120711666Y-58141419D02*
X120806904Y-58093800D01*
X120806904Y-58093800D02*
X120854523Y-58046180D01*
X90329494Y-82654819D02*
X90329494Y-81654819D01*
X90329494Y-81654819D02*
X90091399Y-81654819D01*
X90091399Y-81654819D02*
X89948542Y-81702438D01*
X89948542Y-81702438D02*
X89853304Y-81797676D01*
X89853304Y-81797676D02*
X89805685Y-81892914D01*
X89805685Y-81892914D02*
X89758066Y-82083390D01*
X89758066Y-82083390D02*
X89758066Y-82226247D01*
X89758066Y-82226247D02*
X89805685Y-82416723D01*
X89805685Y-82416723D02*
X89853304Y-82511961D01*
X89853304Y-82511961D02*
X89948542Y-82607200D01*
X89948542Y-82607200D02*
X90091399Y-82654819D01*
X90091399Y-82654819D02*
X90329494Y-82654819D01*
X88805685Y-82654819D02*
X89377113Y-82654819D01*
X89091399Y-82654819D02*
X89091399Y-81654819D01*
X89091399Y-81654819D02*
X89186637Y-81797676D01*
X89186637Y-81797676D02*
X89281875Y-81892914D01*
X89281875Y-81892914D02*
X89377113Y-81940533D01*
X93552524Y-85804819D02*
X93552524Y-84804819D01*
X93552524Y-84804819D02*
X93314429Y-84804819D01*
X93314429Y-84804819D02*
X93171572Y-84852438D01*
X93171572Y-84852438D02*
X93076334Y-84947676D01*
X93076334Y-84947676D02*
X93028715Y-85042914D01*
X93028715Y-85042914D02*
X92981096Y-85233390D01*
X92981096Y-85233390D02*
X92981096Y-85376247D01*
X92981096Y-85376247D02*
X93028715Y-85566723D01*
X93028715Y-85566723D02*
X93076334Y-85661961D01*
X93076334Y-85661961D02*
X93171572Y-85757200D01*
X93171572Y-85757200D02*
X93314429Y-85804819D01*
X93314429Y-85804819D02*
X93552524Y-85804819D01*
X92790620Y-85900057D02*
X92028715Y-85900057D01*
X91838238Y-85757200D02*
X91695381Y-85804819D01*
X91695381Y-85804819D02*
X91457286Y-85804819D01*
X91457286Y-85804819D02*
X91362048Y-85757200D01*
X91362048Y-85757200D02*
X91314429Y-85709580D01*
X91314429Y-85709580D02*
X91266810Y-85614342D01*
X91266810Y-85614342D02*
X91266810Y-85519104D01*
X91266810Y-85519104D02*
X91314429Y-85423866D01*
X91314429Y-85423866D02*
X91362048Y-85376247D01*
X91362048Y-85376247D02*
X91457286Y-85328628D01*
X91457286Y-85328628D02*
X91647762Y-85281009D01*
X91647762Y-85281009D02*
X91743000Y-85233390D01*
X91743000Y-85233390D02*
X91790619Y-85185771D01*
X91790619Y-85185771D02*
X91838238Y-85090533D01*
X91838238Y-85090533D02*
X91838238Y-84995295D01*
X91838238Y-84995295D02*
X91790619Y-84900057D01*
X91790619Y-84900057D02*
X91743000Y-84852438D01*
X91743000Y-84852438D02*
X91647762Y-84804819D01*
X91647762Y-84804819D02*
X91409667Y-84804819D01*
X91409667Y-84804819D02*
X91266810Y-84852438D01*
X90409667Y-85757200D02*
X90504905Y-85804819D01*
X90504905Y-85804819D02*
X90695381Y-85804819D01*
X90695381Y-85804819D02*
X90790619Y-85757200D01*
X90790619Y-85757200D02*
X90838238Y-85709580D01*
X90838238Y-85709580D02*
X90885857Y-85614342D01*
X90885857Y-85614342D02*
X90885857Y-85328628D01*
X90885857Y-85328628D02*
X90838238Y-85233390D01*
X90838238Y-85233390D02*
X90790619Y-85185771D01*
X90790619Y-85185771D02*
X90695381Y-85138152D01*
X90695381Y-85138152D02*
X90504905Y-85138152D01*
X90504905Y-85138152D02*
X90409667Y-85185771D01*
X89981095Y-85804819D02*
X89981095Y-84804819D01*
X89552524Y-85804819D02*
X89552524Y-85281009D01*
X89552524Y-85281009D02*
X89600143Y-85185771D01*
X89600143Y-85185771D02*
X89695381Y-85138152D01*
X89695381Y-85138152D02*
X89838238Y-85138152D01*
X89838238Y-85138152D02*
X89933476Y-85185771D01*
X89933476Y-85185771D02*
X89981095Y-85233390D01*
X88933476Y-85804819D02*
X89028714Y-85757200D01*
X89028714Y-85757200D02*
X89076333Y-85709580D01*
X89076333Y-85709580D02*
X89123952Y-85614342D01*
X89123952Y-85614342D02*
X89123952Y-85328628D01*
X89123952Y-85328628D02*
X89076333Y-85233390D01*
X89076333Y-85233390D02*
X89028714Y-85185771D01*
X89028714Y-85185771D02*
X88933476Y-85138152D01*
X88933476Y-85138152D02*
X88790619Y-85138152D01*
X88790619Y-85138152D02*
X88695381Y-85185771D01*
X88695381Y-85185771D02*
X88647762Y-85233390D01*
X88647762Y-85233390D02*
X88600143Y-85328628D01*
X88600143Y-85328628D02*
X88600143Y-85614342D01*
X88600143Y-85614342D02*
X88647762Y-85709580D01*
X88647762Y-85709580D02*
X88695381Y-85757200D01*
X88695381Y-85757200D02*
X88790619Y-85804819D01*
X88790619Y-85804819D02*
X88933476Y-85804819D01*
X88314428Y-85138152D02*
X87933476Y-85138152D01*
X88171571Y-84804819D02*
X88171571Y-85661961D01*
X88171571Y-85661961D02*
X88123952Y-85757200D01*
X88123952Y-85757200D02*
X88028714Y-85804819D01*
X88028714Y-85804819D02*
X87933476Y-85804819D01*
X87742999Y-85138152D02*
X87362047Y-85138152D01*
X87600142Y-84804819D02*
X87600142Y-85661961D01*
X87600142Y-85661961D02*
X87552523Y-85757200D01*
X87552523Y-85757200D02*
X87457285Y-85804819D01*
X87457285Y-85804819D02*
X87362047Y-85804819D01*
X87028713Y-85804819D02*
X87028713Y-84804819D01*
X86933475Y-85423866D02*
X86647761Y-85804819D01*
X86647761Y-85138152D02*
X87028713Y-85519104D01*
X86314427Y-85138152D02*
X86076332Y-85804819D01*
X85838237Y-85138152D02*
X86076332Y-85804819D01*
X86076332Y-85804819D02*
X86171570Y-86042914D01*
X86171570Y-86042914D02*
X86219189Y-86090533D01*
X86219189Y-86090533D02*
X86314427Y-86138152D01*
X126902857Y-81954819D02*
X127236190Y-81478628D01*
X127474285Y-81954819D02*
X127474285Y-80954819D01*
X127474285Y-80954819D02*
X127093333Y-80954819D01*
X127093333Y-80954819D02*
X126998095Y-81002438D01*
X126998095Y-81002438D02*
X126950476Y-81050057D01*
X126950476Y-81050057D02*
X126902857Y-81145295D01*
X126902857Y-81145295D02*
X126902857Y-81288152D01*
X126902857Y-81288152D02*
X126950476Y-81383390D01*
X126950476Y-81383390D02*
X126998095Y-81431009D01*
X126998095Y-81431009D02*
X127093333Y-81478628D01*
X127093333Y-81478628D02*
X127474285Y-81478628D01*
X125950476Y-81954819D02*
X126521904Y-81954819D01*
X126236190Y-81954819D02*
X126236190Y-80954819D01*
X126236190Y-80954819D02*
X126331428Y-81097676D01*
X126331428Y-81097676D02*
X126426666Y-81192914D01*
X126426666Y-81192914D02*
X126521904Y-81240533D01*
X125617142Y-80954819D02*
X124998095Y-80954819D01*
X124998095Y-80954819D02*
X125331428Y-81335771D01*
X125331428Y-81335771D02*
X125188571Y-81335771D01*
X125188571Y-81335771D02*
X125093333Y-81383390D01*
X125093333Y-81383390D02*
X125045714Y-81431009D01*
X125045714Y-81431009D02*
X124998095Y-81526247D01*
X124998095Y-81526247D02*
X124998095Y-81764342D01*
X124998095Y-81764342D02*
X125045714Y-81859580D01*
X125045714Y-81859580D02*
X125093333Y-81907200D01*
X125093333Y-81907200D02*
X125188571Y-81954819D01*
X125188571Y-81954819D02*
X125474285Y-81954819D01*
X125474285Y-81954819D02*
X125569523Y-81907200D01*
X125569523Y-81907200D02*
X125617142Y-81859580D01*
X69976189Y-42204819D02*
X69976189Y-41204819D01*
X68928571Y-42109580D02*
X68976190Y-42157200D01*
X68976190Y-42157200D02*
X69119047Y-42204819D01*
X69119047Y-42204819D02*
X69214285Y-42204819D01*
X69214285Y-42204819D02*
X69357142Y-42157200D01*
X69357142Y-42157200D02*
X69452380Y-42061961D01*
X69452380Y-42061961D02*
X69499999Y-41966723D01*
X69499999Y-41966723D02*
X69547618Y-41776247D01*
X69547618Y-41776247D02*
X69547618Y-41633390D01*
X69547618Y-41633390D02*
X69499999Y-41442914D01*
X69499999Y-41442914D02*
X69452380Y-41347676D01*
X69452380Y-41347676D02*
X69357142Y-41252438D01*
X69357142Y-41252438D02*
X69214285Y-41204819D01*
X69214285Y-41204819D02*
X69119047Y-41204819D01*
X69119047Y-41204819D02*
X68976190Y-41252438D01*
X68976190Y-41252438D02*
X68928571Y-41300057D01*
X68547618Y-41300057D02*
X68499999Y-41252438D01*
X68499999Y-41252438D02*
X68404761Y-41204819D01*
X68404761Y-41204819D02*
X68166666Y-41204819D01*
X68166666Y-41204819D02*
X68071428Y-41252438D01*
X68071428Y-41252438D02*
X68023809Y-41300057D01*
X68023809Y-41300057D02*
X67976190Y-41395295D01*
X67976190Y-41395295D02*
X67976190Y-41490533D01*
X67976190Y-41490533D02*
X68023809Y-41633390D01*
X68023809Y-41633390D02*
X68595237Y-42204819D01*
X68595237Y-42204819D02*
X67976190Y-42204819D01*
X94117857Y-21154819D02*
X94451190Y-20678628D01*
X94689285Y-21154819D02*
X94689285Y-20154819D01*
X94689285Y-20154819D02*
X94308333Y-20154819D01*
X94308333Y-20154819D02*
X94213095Y-20202438D01*
X94213095Y-20202438D02*
X94165476Y-20250057D01*
X94165476Y-20250057D02*
X94117857Y-20345295D01*
X94117857Y-20345295D02*
X94117857Y-20488152D01*
X94117857Y-20488152D02*
X94165476Y-20583390D01*
X94165476Y-20583390D02*
X94213095Y-20631009D01*
X94213095Y-20631009D02*
X94308333Y-20678628D01*
X94308333Y-20678628D02*
X94689285Y-20678628D01*
X93736904Y-20250057D02*
X93689285Y-20202438D01*
X93689285Y-20202438D02*
X93594047Y-20154819D01*
X93594047Y-20154819D02*
X93355952Y-20154819D01*
X93355952Y-20154819D02*
X93260714Y-20202438D01*
X93260714Y-20202438D02*
X93213095Y-20250057D01*
X93213095Y-20250057D02*
X93165476Y-20345295D01*
X93165476Y-20345295D02*
X93165476Y-20440533D01*
X93165476Y-20440533D02*
X93213095Y-20583390D01*
X93213095Y-20583390D02*
X93784523Y-21154819D01*
X93784523Y-21154819D02*
X93165476Y-21154819D01*
X92594047Y-20583390D02*
X92689285Y-20535771D01*
X92689285Y-20535771D02*
X92736904Y-20488152D01*
X92736904Y-20488152D02*
X92784523Y-20392914D01*
X92784523Y-20392914D02*
X92784523Y-20345295D01*
X92784523Y-20345295D02*
X92736904Y-20250057D01*
X92736904Y-20250057D02*
X92689285Y-20202438D01*
X92689285Y-20202438D02*
X92594047Y-20154819D01*
X92594047Y-20154819D02*
X92403571Y-20154819D01*
X92403571Y-20154819D02*
X92308333Y-20202438D01*
X92308333Y-20202438D02*
X92260714Y-20250057D01*
X92260714Y-20250057D02*
X92213095Y-20345295D01*
X92213095Y-20345295D02*
X92213095Y-20392914D01*
X92213095Y-20392914D02*
X92260714Y-20488152D01*
X92260714Y-20488152D02*
X92308333Y-20535771D01*
X92308333Y-20535771D02*
X92403571Y-20583390D01*
X92403571Y-20583390D02*
X92594047Y-20583390D01*
X92594047Y-20583390D02*
X92689285Y-20631009D01*
X92689285Y-20631009D02*
X92736904Y-20678628D01*
X92736904Y-20678628D02*
X92784523Y-20773866D01*
X92784523Y-20773866D02*
X92784523Y-20964342D01*
X92784523Y-20964342D02*
X92736904Y-21059580D01*
X92736904Y-21059580D02*
X92689285Y-21107200D01*
X92689285Y-21107200D02*
X92594047Y-21154819D01*
X92594047Y-21154819D02*
X92403571Y-21154819D01*
X92403571Y-21154819D02*
X92308333Y-21107200D01*
X92308333Y-21107200D02*
X92260714Y-21059580D01*
X92260714Y-21059580D02*
X92213095Y-20964342D01*
X92213095Y-20964342D02*
X92213095Y-20773866D01*
X92213095Y-20773866D02*
X92260714Y-20678628D01*
X92260714Y-20678628D02*
X92308333Y-20631009D01*
X92308333Y-20631009D02*
X92403571Y-20583390D01*
X98547618Y-46004819D02*
X98547618Y-45004819D01*
X98547618Y-45004819D02*
X98214285Y-45719104D01*
X98214285Y-45719104D02*
X97880952Y-45004819D01*
X97880952Y-45004819D02*
X97880952Y-46004819D01*
X97404761Y-46004819D02*
X97404761Y-45004819D01*
X96976190Y-45957200D02*
X96833333Y-46004819D01*
X96833333Y-46004819D02*
X96595238Y-46004819D01*
X96595238Y-46004819D02*
X96500000Y-45957200D01*
X96500000Y-45957200D02*
X96452381Y-45909580D01*
X96452381Y-45909580D02*
X96404762Y-45814342D01*
X96404762Y-45814342D02*
X96404762Y-45719104D01*
X96404762Y-45719104D02*
X96452381Y-45623866D01*
X96452381Y-45623866D02*
X96500000Y-45576247D01*
X96500000Y-45576247D02*
X96595238Y-45528628D01*
X96595238Y-45528628D02*
X96785714Y-45481009D01*
X96785714Y-45481009D02*
X96880952Y-45433390D01*
X96880952Y-45433390D02*
X96928571Y-45385771D01*
X96928571Y-45385771D02*
X96976190Y-45290533D01*
X96976190Y-45290533D02*
X96976190Y-45195295D01*
X96976190Y-45195295D02*
X96928571Y-45100057D01*
X96928571Y-45100057D02*
X96880952Y-45052438D01*
X96880952Y-45052438D02*
X96785714Y-45004819D01*
X96785714Y-45004819D02*
X96547619Y-45004819D01*
X96547619Y-45004819D02*
X96404762Y-45052438D01*
X95785714Y-45004819D02*
X95595238Y-45004819D01*
X95595238Y-45004819D02*
X95500000Y-45052438D01*
X95500000Y-45052438D02*
X95404762Y-45147676D01*
X95404762Y-45147676D02*
X95357143Y-45338152D01*
X95357143Y-45338152D02*
X95357143Y-45671485D01*
X95357143Y-45671485D02*
X95404762Y-45861961D01*
X95404762Y-45861961D02*
X95500000Y-45957200D01*
X95500000Y-45957200D02*
X95595238Y-46004819D01*
X95595238Y-46004819D02*
X95785714Y-46004819D01*
X95785714Y-46004819D02*
X95880952Y-45957200D01*
X95880952Y-45957200D02*
X95976190Y-45861961D01*
X95976190Y-45861961D02*
X96023809Y-45671485D01*
X96023809Y-45671485D02*
X96023809Y-45338152D01*
X96023809Y-45338152D02*
X95976190Y-45147676D01*
X95976190Y-45147676D02*
X95880952Y-45052438D01*
X95880952Y-45052438D02*
X95785714Y-45004819D01*
X94404762Y-46004819D02*
X94976190Y-46004819D01*
X94690476Y-46004819D02*
X94690476Y-45004819D01*
X94690476Y-45004819D02*
X94785714Y-45147676D01*
X94785714Y-45147676D02*
X94880952Y-45242914D01*
X94880952Y-45242914D02*
X94976190Y-45290533D01*
X67099999Y-58207200D02*
X66957142Y-58254819D01*
X66957142Y-58254819D02*
X66719047Y-58254819D01*
X66719047Y-58254819D02*
X66623809Y-58207200D01*
X66623809Y-58207200D02*
X66576190Y-58159580D01*
X66576190Y-58159580D02*
X66528571Y-58064342D01*
X66528571Y-58064342D02*
X66528571Y-57969104D01*
X66528571Y-57969104D02*
X66576190Y-57873866D01*
X66576190Y-57873866D02*
X66623809Y-57826247D01*
X66623809Y-57826247D02*
X66719047Y-57778628D01*
X66719047Y-57778628D02*
X66909523Y-57731009D01*
X66909523Y-57731009D02*
X67004761Y-57683390D01*
X67004761Y-57683390D02*
X67052380Y-57635771D01*
X67052380Y-57635771D02*
X67099999Y-57540533D01*
X67099999Y-57540533D02*
X67099999Y-57445295D01*
X67099999Y-57445295D02*
X67052380Y-57350057D01*
X67052380Y-57350057D02*
X67004761Y-57302438D01*
X67004761Y-57302438D02*
X66909523Y-57254819D01*
X66909523Y-57254819D02*
X66671428Y-57254819D01*
X66671428Y-57254819D02*
X66528571Y-57302438D01*
X65528571Y-58159580D02*
X65576190Y-58207200D01*
X65576190Y-58207200D02*
X65719047Y-58254819D01*
X65719047Y-58254819D02*
X65814285Y-58254819D01*
X65814285Y-58254819D02*
X65957142Y-58207200D01*
X65957142Y-58207200D02*
X66052380Y-58111961D01*
X66052380Y-58111961D02*
X66099999Y-58016723D01*
X66099999Y-58016723D02*
X66147618Y-57826247D01*
X66147618Y-57826247D02*
X66147618Y-57683390D01*
X66147618Y-57683390D02*
X66099999Y-57492914D01*
X66099999Y-57492914D02*
X66052380Y-57397676D01*
X66052380Y-57397676D02*
X65957142Y-57302438D01*
X65957142Y-57302438D02*
X65814285Y-57254819D01*
X65814285Y-57254819D02*
X65719047Y-57254819D01*
X65719047Y-57254819D02*
X65576190Y-57302438D01*
X65576190Y-57302438D02*
X65528571Y-57350057D01*
X64623809Y-58254819D02*
X65099999Y-58254819D01*
X65099999Y-58254819D02*
X65099999Y-57254819D01*
X64528571Y-58350057D02*
X63766666Y-58350057D01*
X63528570Y-57731009D02*
X63195237Y-57731009D01*
X63052380Y-58254819D02*
X63528570Y-58254819D01*
X63528570Y-58254819D02*
X63528570Y-57254819D01*
X63528570Y-57254819D02*
X63052380Y-57254819D01*
X62671427Y-58207200D02*
X62528570Y-58254819D01*
X62528570Y-58254819D02*
X62290475Y-58254819D01*
X62290475Y-58254819D02*
X62195237Y-58207200D01*
X62195237Y-58207200D02*
X62147618Y-58159580D01*
X62147618Y-58159580D02*
X62099999Y-58064342D01*
X62099999Y-58064342D02*
X62099999Y-57969104D01*
X62099999Y-57969104D02*
X62147618Y-57873866D01*
X62147618Y-57873866D02*
X62195237Y-57826247D01*
X62195237Y-57826247D02*
X62290475Y-57778628D01*
X62290475Y-57778628D02*
X62480951Y-57731009D01*
X62480951Y-57731009D02*
X62576189Y-57683390D01*
X62576189Y-57683390D02*
X62623808Y-57635771D01*
X62623808Y-57635771D02*
X62671427Y-57540533D01*
X62671427Y-57540533D02*
X62671427Y-57445295D01*
X62671427Y-57445295D02*
X62623808Y-57350057D01*
X62623808Y-57350057D02*
X62576189Y-57302438D01*
X62576189Y-57302438D02*
X62480951Y-57254819D01*
X62480951Y-57254819D02*
X62242856Y-57254819D01*
X62242856Y-57254819D02*
X62099999Y-57302438D01*
X61671427Y-58254819D02*
X61671427Y-57254819D01*
X61671427Y-57254819D02*
X61290475Y-57254819D01*
X61290475Y-57254819D02*
X61195237Y-57302438D01*
X61195237Y-57302438D02*
X61147618Y-57350057D01*
X61147618Y-57350057D02*
X61099999Y-57445295D01*
X61099999Y-57445295D02*
X61099999Y-57588152D01*
X61099999Y-57588152D02*
X61147618Y-57683390D01*
X61147618Y-57683390D02*
X61195237Y-57731009D01*
X61195237Y-57731009D02*
X61290475Y-57778628D01*
X61290475Y-57778628D02*
X61671427Y-57778628D01*
X105197618Y-36004819D02*
X105197618Y-35004819D01*
X105197618Y-35004819D02*
X104864285Y-35719104D01*
X104864285Y-35719104D02*
X104530952Y-35004819D01*
X104530952Y-35004819D02*
X104530952Y-36004819D01*
X103864285Y-35004819D02*
X103673809Y-35004819D01*
X103673809Y-35004819D02*
X103578571Y-35052438D01*
X103578571Y-35052438D02*
X103483333Y-35147676D01*
X103483333Y-35147676D02*
X103435714Y-35338152D01*
X103435714Y-35338152D02*
X103435714Y-35671485D01*
X103435714Y-35671485D02*
X103483333Y-35861961D01*
X103483333Y-35861961D02*
X103578571Y-35957200D01*
X103578571Y-35957200D02*
X103673809Y-36004819D01*
X103673809Y-36004819D02*
X103864285Y-36004819D01*
X103864285Y-36004819D02*
X103959523Y-35957200D01*
X103959523Y-35957200D02*
X104054761Y-35861961D01*
X104054761Y-35861961D02*
X104102380Y-35671485D01*
X104102380Y-35671485D02*
X104102380Y-35338152D01*
X104102380Y-35338152D02*
X104054761Y-35147676D01*
X104054761Y-35147676D02*
X103959523Y-35052438D01*
X103959523Y-35052438D02*
X103864285Y-35004819D01*
X103054761Y-35957200D02*
X102911904Y-36004819D01*
X102911904Y-36004819D02*
X102673809Y-36004819D01*
X102673809Y-36004819D02*
X102578571Y-35957200D01*
X102578571Y-35957200D02*
X102530952Y-35909580D01*
X102530952Y-35909580D02*
X102483333Y-35814342D01*
X102483333Y-35814342D02*
X102483333Y-35719104D01*
X102483333Y-35719104D02*
X102530952Y-35623866D01*
X102530952Y-35623866D02*
X102578571Y-35576247D01*
X102578571Y-35576247D02*
X102673809Y-35528628D01*
X102673809Y-35528628D02*
X102864285Y-35481009D01*
X102864285Y-35481009D02*
X102959523Y-35433390D01*
X102959523Y-35433390D02*
X103007142Y-35385771D01*
X103007142Y-35385771D02*
X103054761Y-35290533D01*
X103054761Y-35290533D02*
X103054761Y-35195295D01*
X103054761Y-35195295D02*
X103007142Y-35100057D01*
X103007142Y-35100057D02*
X102959523Y-35052438D01*
X102959523Y-35052438D02*
X102864285Y-35004819D01*
X102864285Y-35004819D02*
X102626190Y-35004819D01*
X102626190Y-35004819D02*
X102483333Y-35052438D01*
X102054761Y-36004819D02*
X102054761Y-35004819D01*
X101054762Y-36004819D02*
X101626190Y-36004819D01*
X101340476Y-36004819D02*
X101340476Y-35004819D01*
X101340476Y-35004819D02*
X101435714Y-35147676D01*
X101435714Y-35147676D02*
X101530952Y-35242914D01*
X101530952Y-35242914D02*
X101626190Y-35290533D01*
X128204819Y-78333333D02*
X127728628Y-78000000D01*
X128204819Y-77761905D02*
X127204819Y-77761905D01*
X127204819Y-77761905D02*
X127204819Y-78142857D01*
X127204819Y-78142857D02*
X127252438Y-78238095D01*
X127252438Y-78238095D02*
X127300057Y-78285714D01*
X127300057Y-78285714D02*
X127395295Y-78333333D01*
X127395295Y-78333333D02*
X127538152Y-78333333D01*
X127538152Y-78333333D02*
X127633390Y-78285714D01*
X127633390Y-78285714D02*
X127681009Y-78238095D01*
X127681009Y-78238095D02*
X127728628Y-78142857D01*
X127728628Y-78142857D02*
X127728628Y-77761905D01*
X127204819Y-79238095D02*
X127204819Y-78761905D01*
X127204819Y-78761905D02*
X127681009Y-78714286D01*
X127681009Y-78714286D02*
X127633390Y-78761905D01*
X127633390Y-78761905D02*
X127585771Y-78857143D01*
X127585771Y-78857143D02*
X127585771Y-79095238D01*
X127585771Y-79095238D02*
X127633390Y-79190476D01*
X127633390Y-79190476D02*
X127681009Y-79238095D01*
X127681009Y-79238095D02*
X127776247Y-79285714D01*
X127776247Y-79285714D02*
X128014342Y-79285714D01*
X128014342Y-79285714D02*
X128109580Y-79238095D01*
X128109580Y-79238095D02*
X128157200Y-79190476D01*
X128157200Y-79190476D02*
X128204819Y-79095238D01*
X128204819Y-79095238D02*
X128204819Y-78857143D01*
X128204819Y-78857143D02*
X128157200Y-78761905D01*
X128157200Y-78761905D02*
X128109580Y-78714286D01*
X64595238Y-73954819D02*
X65071428Y-73954819D01*
X65071428Y-73954819D02*
X65119047Y-74431009D01*
X65119047Y-74431009D02*
X65071428Y-74383390D01*
X65071428Y-74383390D02*
X64976190Y-74335771D01*
X64976190Y-74335771D02*
X64738095Y-74335771D01*
X64738095Y-74335771D02*
X64642857Y-74383390D01*
X64642857Y-74383390D02*
X64595238Y-74431009D01*
X64595238Y-74431009D02*
X64547619Y-74526247D01*
X64547619Y-74526247D02*
X64547619Y-74764342D01*
X64547619Y-74764342D02*
X64595238Y-74859580D01*
X64595238Y-74859580D02*
X64642857Y-74907200D01*
X64642857Y-74907200D02*
X64738095Y-74954819D01*
X64738095Y-74954819D02*
X64976190Y-74954819D01*
X64976190Y-74954819D02*
X65071428Y-74907200D01*
X65071428Y-74907200D02*
X65119047Y-74859580D01*
X64261904Y-73954819D02*
X63928571Y-74954819D01*
X63928571Y-74954819D02*
X63595238Y-73954819D01*
X63500000Y-75050057D02*
X62738095Y-75050057D01*
X62499999Y-74954819D02*
X62499999Y-74288152D01*
X62499999Y-74478628D02*
X62452380Y-74383390D01*
X62452380Y-74383390D02*
X62404761Y-74335771D01*
X62404761Y-74335771D02*
X62309523Y-74288152D01*
X62309523Y-74288152D02*
X62214285Y-74288152D01*
X61499999Y-74907200D02*
X61595237Y-74954819D01*
X61595237Y-74954819D02*
X61785713Y-74954819D01*
X61785713Y-74954819D02*
X61880951Y-74907200D01*
X61880951Y-74907200D02*
X61928570Y-74811961D01*
X61928570Y-74811961D02*
X61928570Y-74431009D01*
X61928570Y-74431009D02*
X61880951Y-74335771D01*
X61880951Y-74335771D02*
X61785713Y-74288152D01*
X61785713Y-74288152D02*
X61595237Y-74288152D01*
X61595237Y-74288152D02*
X61499999Y-74335771D01*
X61499999Y-74335771D02*
X61452380Y-74431009D01*
X61452380Y-74431009D02*
X61452380Y-74526247D01*
X61452380Y-74526247D02*
X61928570Y-74621485D01*
X61166665Y-74288152D02*
X60785713Y-74288152D01*
X61023808Y-74954819D02*
X61023808Y-74097676D01*
X61023808Y-74097676D02*
X60976189Y-74002438D01*
X60976189Y-74002438D02*
X60880951Y-73954819D01*
X60880951Y-73954819D02*
X60785713Y-73954819D01*
X95161904Y-34516217D02*
X95161904Y-35325740D01*
X95161904Y-35325740D02*
X95114285Y-35420978D01*
X95114285Y-35420978D02*
X95066666Y-35468598D01*
X95066666Y-35468598D02*
X94971428Y-35516217D01*
X94971428Y-35516217D02*
X94780952Y-35516217D01*
X94780952Y-35516217D02*
X94685714Y-35468598D01*
X94685714Y-35468598D02*
X94638095Y-35420978D01*
X94638095Y-35420978D02*
X94590476Y-35325740D01*
X94590476Y-35325740D02*
X94590476Y-34516217D01*
X94161904Y-34611455D02*
X94114285Y-34563836D01*
X94114285Y-34563836D02*
X94019047Y-34516217D01*
X94019047Y-34516217D02*
X93780952Y-34516217D01*
X93780952Y-34516217D02*
X93685714Y-34563836D01*
X93685714Y-34563836D02*
X93638095Y-34611455D01*
X93638095Y-34611455D02*
X93590476Y-34706693D01*
X93590476Y-34706693D02*
X93590476Y-34801931D01*
X93590476Y-34801931D02*
X93638095Y-34944788D01*
X93638095Y-34944788D02*
X94209523Y-35516217D01*
X94209523Y-35516217D02*
X93590476Y-35516217D01*
X96811099Y-34854819D02*
X96811099Y-35092914D01*
X97049194Y-34997676D02*
X96811099Y-35092914D01*
X96811099Y-35092914D02*
X96573004Y-34997676D01*
X96953956Y-35283390D02*
X96811099Y-35092914D01*
X96811099Y-35092914D02*
X96668242Y-35283390D01*
X85191666Y-61292819D02*
X85524999Y-60816628D01*
X85763094Y-61292819D02*
X85763094Y-60292819D01*
X85763094Y-60292819D02*
X85382142Y-60292819D01*
X85382142Y-60292819D02*
X85286904Y-60340438D01*
X85286904Y-60340438D02*
X85239285Y-60388057D01*
X85239285Y-60388057D02*
X85191666Y-60483295D01*
X85191666Y-60483295D02*
X85191666Y-60626152D01*
X85191666Y-60626152D02*
X85239285Y-60721390D01*
X85239285Y-60721390D02*
X85286904Y-60769009D01*
X85286904Y-60769009D02*
X85382142Y-60816628D01*
X85382142Y-60816628D02*
X85763094Y-60816628D01*
X84858332Y-60292819D02*
X84191666Y-60292819D01*
X84191666Y-60292819D02*
X84620237Y-61292819D01*
X113592857Y-79754819D02*
X113926190Y-79278628D01*
X114164285Y-79754819D02*
X114164285Y-78754819D01*
X114164285Y-78754819D02*
X113783333Y-78754819D01*
X113783333Y-78754819D02*
X113688095Y-78802438D01*
X113688095Y-78802438D02*
X113640476Y-78850057D01*
X113640476Y-78850057D02*
X113592857Y-78945295D01*
X113592857Y-78945295D02*
X113592857Y-79088152D01*
X113592857Y-79088152D02*
X113640476Y-79183390D01*
X113640476Y-79183390D02*
X113688095Y-79231009D01*
X113688095Y-79231009D02*
X113783333Y-79278628D01*
X113783333Y-79278628D02*
X114164285Y-79278628D01*
X113259523Y-78754819D02*
X112640476Y-78754819D01*
X112640476Y-78754819D02*
X112973809Y-79135771D01*
X112973809Y-79135771D02*
X112830952Y-79135771D01*
X112830952Y-79135771D02*
X112735714Y-79183390D01*
X112735714Y-79183390D02*
X112688095Y-79231009D01*
X112688095Y-79231009D02*
X112640476Y-79326247D01*
X112640476Y-79326247D02*
X112640476Y-79564342D01*
X112640476Y-79564342D02*
X112688095Y-79659580D01*
X112688095Y-79659580D02*
X112735714Y-79707200D01*
X112735714Y-79707200D02*
X112830952Y-79754819D01*
X112830952Y-79754819D02*
X113116666Y-79754819D01*
X113116666Y-79754819D02*
X113211904Y-79707200D01*
X113211904Y-79707200D02*
X113259523Y-79659580D01*
X112164285Y-79754819D02*
X111973809Y-79754819D01*
X111973809Y-79754819D02*
X111878571Y-79707200D01*
X111878571Y-79707200D02*
X111830952Y-79659580D01*
X111830952Y-79659580D02*
X111735714Y-79516723D01*
X111735714Y-79516723D02*
X111688095Y-79326247D01*
X111688095Y-79326247D02*
X111688095Y-78945295D01*
X111688095Y-78945295D02*
X111735714Y-78850057D01*
X111735714Y-78850057D02*
X111783333Y-78802438D01*
X111783333Y-78802438D02*
X111878571Y-78754819D01*
X111878571Y-78754819D02*
X112069047Y-78754819D01*
X112069047Y-78754819D02*
X112164285Y-78802438D01*
X112164285Y-78802438D02*
X112211904Y-78850057D01*
X112211904Y-78850057D02*
X112259523Y-78945295D01*
X112259523Y-78945295D02*
X112259523Y-79183390D01*
X112259523Y-79183390D02*
X112211904Y-79278628D01*
X112211904Y-79278628D02*
X112164285Y-79326247D01*
X112164285Y-79326247D02*
X112069047Y-79373866D01*
X112069047Y-79373866D02*
X111878571Y-79373866D01*
X111878571Y-79373866D02*
X111783333Y-79326247D01*
X111783333Y-79326247D02*
X111735714Y-79278628D01*
X111735714Y-79278628D02*
X111688095Y-79183390D01*
X87929819Y-60795142D02*
X87453628Y-60461809D01*
X87929819Y-60223714D02*
X86929819Y-60223714D01*
X86929819Y-60223714D02*
X86929819Y-60604666D01*
X86929819Y-60604666D02*
X86977438Y-60699904D01*
X86977438Y-60699904D02*
X87025057Y-60747523D01*
X87025057Y-60747523D02*
X87120295Y-60795142D01*
X87120295Y-60795142D02*
X87263152Y-60795142D01*
X87263152Y-60795142D02*
X87358390Y-60747523D01*
X87358390Y-60747523D02*
X87406009Y-60699904D01*
X87406009Y-60699904D02*
X87453628Y-60604666D01*
X87453628Y-60604666D02*
X87453628Y-60223714D01*
X87263152Y-61652285D02*
X87929819Y-61652285D01*
X86882200Y-61414190D02*
X87596485Y-61176095D01*
X87596485Y-61176095D02*
X87596485Y-61795142D01*
X86929819Y-62366571D02*
X86929819Y-62461809D01*
X86929819Y-62461809D02*
X86977438Y-62557047D01*
X86977438Y-62557047D02*
X87025057Y-62604666D01*
X87025057Y-62604666D02*
X87120295Y-62652285D01*
X87120295Y-62652285D02*
X87310771Y-62699904D01*
X87310771Y-62699904D02*
X87548866Y-62699904D01*
X87548866Y-62699904D02*
X87739342Y-62652285D01*
X87739342Y-62652285D02*
X87834580Y-62604666D01*
X87834580Y-62604666D02*
X87882200Y-62557047D01*
X87882200Y-62557047D02*
X87929819Y-62461809D01*
X87929819Y-62461809D02*
X87929819Y-62366571D01*
X87929819Y-62366571D02*
X87882200Y-62271333D01*
X87882200Y-62271333D02*
X87834580Y-62223714D01*
X87834580Y-62223714D02*
X87739342Y-62176095D01*
X87739342Y-62176095D02*
X87548866Y-62128476D01*
X87548866Y-62128476D02*
X87310771Y-62128476D01*
X87310771Y-62128476D02*
X87120295Y-62176095D01*
X87120295Y-62176095D02*
X87025057Y-62223714D01*
X87025057Y-62223714D02*
X86977438Y-62271333D01*
X86977438Y-62271333D02*
X86929819Y-62366571D01*
X76571428Y-67254819D02*
X76000000Y-67254819D01*
X76285714Y-68254819D02*
X76285714Y-67254819D01*
X75761904Y-67254819D02*
X75095238Y-68254819D01*
X75095238Y-67254819D02*
X75761904Y-68254819D01*
X74952381Y-68350057D02*
X74190476Y-68350057D01*
X73952380Y-67731009D02*
X73619047Y-67731009D01*
X73476190Y-68254819D02*
X73952380Y-68254819D01*
X73952380Y-68254819D02*
X73952380Y-67254819D01*
X73952380Y-67254819D02*
X73476190Y-67254819D01*
X73095237Y-68207200D02*
X72952380Y-68254819D01*
X72952380Y-68254819D02*
X72714285Y-68254819D01*
X72714285Y-68254819D02*
X72619047Y-68207200D01*
X72619047Y-68207200D02*
X72571428Y-68159580D01*
X72571428Y-68159580D02*
X72523809Y-68064342D01*
X72523809Y-68064342D02*
X72523809Y-67969104D01*
X72523809Y-67969104D02*
X72571428Y-67873866D01*
X72571428Y-67873866D02*
X72619047Y-67826247D01*
X72619047Y-67826247D02*
X72714285Y-67778628D01*
X72714285Y-67778628D02*
X72904761Y-67731009D01*
X72904761Y-67731009D02*
X72999999Y-67683390D01*
X72999999Y-67683390D02*
X73047618Y-67635771D01*
X73047618Y-67635771D02*
X73095237Y-67540533D01*
X73095237Y-67540533D02*
X73095237Y-67445295D01*
X73095237Y-67445295D02*
X73047618Y-67350057D01*
X73047618Y-67350057D02*
X72999999Y-67302438D01*
X72999999Y-67302438D02*
X72904761Y-67254819D01*
X72904761Y-67254819D02*
X72666666Y-67254819D01*
X72666666Y-67254819D02*
X72523809Y-67302438D01*
X72095237Y-68254819D02*
X72095237Y-67254819D01*
X72095237Y-67254819D02*
X71714285Y-67254819D01*
X71714285Y-67254819D02*
X71619047Y-67302438D01*
X71619047Y-67302438D02*
X71571428Y-67350057D01*
X71571428Y-67350057D02*
X71523809Y-67445295D01*
X71523809Y-67445295D02*
X71523809Y-67588152D01*
X71523809Y-67588152D02*
X71571428Y-67683390D01*
X71571428Y-67683390D02*
X71619047Y-67731009D01*
X71619047Y-67731009D02*
X71714285Y-67778628D01*
X71714285Y-67778628D02*
X72095237Y-67778628D01*
X94877766Y-42707200D02*
X94734909Y-42754819D01*
X94734909Y-42754819D02*
X94496814Y-42754819D01*
X94496814Y-42754819D02*
X94401576Y-42707200D01*
X94401576Y-42707200D02*
X94353957Y-42659580D01*
X94353957Y-42659580D02*
X94306338Y-42564342D01*
X94306338Y-42564342D02*
X94306338Y-42469104D01*
X94306338Y-42469104D02*
X94353957Y-42373866D01*
X94353957Y-42373866D02*
X94401576Y-42326247D01*
X94401576Y-42326247D02*
X94496814Y-42278628D01*
X94496814Y-42278628D02*
X94687290Y-42231009D01*
X94687290Y-42231009D02*
X94782528Y-42183390D01*
X94782528Y-42183390D02*
X94830147Y-42135771D01*
X94830147Y-42135771D02*
X94877766Y-42040533D01*
X94877766Y-42040533D02*
X94877766Y-41945295D01*
X94877766Y-41945295D02*
X94830147Y-41850057D01*
X94830147Y-41850057D02*
X94782528Y-41802438D01*
X94782528Y-41802438D02*
X94687290Y-41754819D01*
X94687290Y-41754819D02*
X94449195Y-41754819D01*
X94449195Y-41754819D02*
X94306338Y-41802438D01*
X93306338Y-42659580D02*
X93353957Y-42707200D01*
X93353957Y-42707200D02*
X93496814Y-42754819D01*
X93496814Y-42754819D02*
X93592052Y-42754819D01*
X93592052Y-42754819D02*
X93734909Y-42707200D01*
X93734909Y-42707200D02*
X93830147Y-42611961D01*
X93830147Y-42611961D02*
X93877766Y-42516723D01*
X93877766Y-42516723D02*
X93925385Y-42326247D01*
X93925385Y-42326247D02*
X93925385Y-42183390D01*
X93925385Y-42183390D02*
X93877766Y-41992914D01*
X93877766Y-41992914D02*
X93830147Y-41897676D01*
X93830147Y-41897676D02*
X93734909Y-41802438D01*
X93734909Y-41802438D02*
X93592052Y-41754819D01*
X93592052Y-41754819D02*
X93496814Y-41754819D01*
X93496814Y-41754819D02*
X93353957Y-41802438D01*
X93353957Y-41802438D02*
X93306338Y-41850057D01*
X92401576Y-42754819D02*
X92877766Y-42754819D01*
X92877766Y-42754819D02*
X92877766Y-41754819D01*
X92068242Y-42754819D02*
X92068242Y-41754819D01*
X91496814Y-42754819D02*
X91925385Y-42183390D01*
X91496814Y-41754819D02*
X92068242Y-42326247D01*
X90544433Y-42754819D02*
X91115861Y-42754819D01*
X90830147Y-42754819D02*
X90830147Y-41754819D01*
X90830147Y-41754819D02*
X90925385Y-41897676D01*
X90925385Y-41897676D02*
X91020623Y-41992914D01*
X91020623Y-41992914D02*
X91115861Y-42040533D01*
X77690475Y-41750057D02*
X77642856Y-41702438D01*
X77642856Y-41702438D02*
X77547618Y-41654819D01*
X77547618Y-41654819D02*
X77309523Y-41654819D01*
X77309523Y-41654819D02*
X77214285Y-41702438D01*
X77214285Y-41702438D02*
X77166666Y-41750057D01*
X77166666Y-41750057D02*
X77119047Y-41845295D01*
X77119047Y-41845295D02*
X77119047Y-41940533D01*
X77119047Y-41940533D02*
X77166666Y-42083390D01*
X77166666Y-42083390D02*
X77738094Y-42654819D01*
X77738094Y-42654819D02*
X77119047Y-42654819D01*
X76833332Y-41654819D02*
X76499999Y-42654819D01*
X76499999Y-42654819D02*
X76166666Y-41654819D01*
X75357142Y-41654819D02*
X75833332Y-41654819D01*
X75833332Y-41654819D02*
X75880951Y-42131009D01*
X75880951Y-42131009D02*
X75833332Y-42083390D01*
X75833332Y-42083390D02*
X75738094Y-42035771D01*
X75738094Y-42035771D02*
X75499999Y-42035771D01*
X75499999Y-42035771D02*
X75404761Y-42083390D01*
X75404761Y-42083390D02*
X75357142Y-42131009D01*
X75357142Y-42131009D02*
X75309523Y-42226247D01*
X75309523Y-42226247D02*
X75309523Y-42464342D01*
X75309523Y-42464342D02*
X75357142Y-42559580D01*
X75357142Y-42559580D02*
X75404761Y-42607200D01*
X75404761Y-42607200D02*
X75499999Y-42654819D01*
X75499999Y-42654819D02*
X75738094Y-42654819D01*
X75738094Y-42654819D02*
X75833332Y-42607200D01*
X75833332Y-42607200D02*
X75880951Y-42559580D01*
X73184819Y-55818742D02*
X72708628Y-55485409D01*
X73184819Y-55247314D02*
X72184819Y-55247314D01*
X72184819Y-55247314D02*
X72184819Y-55628266D01*
X72184819Y-55628266D02*
X72232438Y-55723504D01*
X72232438Y-55723504D02*
X72280057Y-55771123D01*
X72280057Y-55771123D02*
X72375295Y-55818742D01*
X72375295Y-55818742D02*
X72518152Y-55818742D01*
X72518152Y-55818742D02*
X72613390Y-55771123D01*
X72613390Y-55771123D02*
X72661009Y-55723504D01*
X72661009Y-55723504D02*
X72708628Y-55628266D01*
X72708628Y-55628266D02*
X72708628Y-55247314D01*
X73184819Y-56771123D02*
X73184819Y-56199695D01*
X73184819Y-56485409D02*
X72184819Y-56485409D01*
X72184819Y-56485409D02*
X72327676Y-56390171D01*
X72327676Y-56390171D02*
X72422914Y-56294933D01*
X72422914Y-56294933D02*
X72470533Y-56199695D01*
X72518152Y-57628266D02*
X73184819Y-57628266D01*
X72137200Y-57390171D02*
X72851485Y-57152076D01*
X72851485Y-57152076D02*
X72851485Y-57771123D01*
X82691666Y-61142819D02*
X83024999Y-60666628D01*
X83263094Y-61142819D02*
X83263094Y-60142819D01*
X83263094Y-60142819D02*
X82882142Y-60142819D01*
X82882142Y-60142819D02*
X82786904Y-60190438D01*
X82786904Y-60190438D02*
X82739285Y-60238057D01*
X82739285Y-60238057D02*
X82691666Y-60333295D01*
X82691666Y-60333295D02*
X82691666Y-60476152D01*
X82691666Y-60476152D02*
X82739285Y-60571390D01*
X82739285Y-60571390D02*
X82786904Y-60619009D01*
X82786904Y-60619009D02*
X82882142Y-60666628D01*
X82882142Y-60666628D02*
X83263094Y-60666628D01*
X81834523Y-60142819D02*
X82024999Y-60142819D01*
X82024999Y-60142819D02*
X82120237Y-60190438D01*
X82120237Y-60190438D02*
X82167856Y-60238057D01*
X82167856Y-60238057D02*
X82263094Y-60380914D01*
X82263094Y-60380914D02*
X82310713Y-60571390D01*
X82310713Y-60571390D02*
X82310713Y-60952342D01*
X82310713Y-60952342D02*
X82263094Y-61047580D01*
X82263094Y-61047580D02*
X82215475Y-61095200D01*
X82215475Y-61095200D02*
X82120237Y-61142819D01*
X82120237Y-61142819D02*
X81929761Y-61142819D01*
X81929761Y-61142819D02*
X81834523Y-61095200D01*
X81834523Y-61095200D02*
X81786904Y-61047580D01*
X81786904Y-61047580D02*
X81739285Y-60952342D01*
X81739285Y-60952342D02*
X81739285Y-60714247D01*
X81739285Y-60714247D02*
X81786904Y-60619009D01*
X81786904Y-60619009D02*
X81834523Y-60571390D01*
X81834523Y-60571390D02*
X81929761Y-60523771D01*
X81929761Y-60523771D02*
X82120237Y-60523771D01*
X82120237Y-60523771D02*
X82215475Y-60571390D01*
X82215475Y-60571390D02*
X82263094Y-60619009D01*
X82263094Y-60619009D02*
X82310713Y-60714247D01*
X70484819Y-56104933D02*
X70008628Y-55771600D01*
X70484819Y-55533505D02*
X69484819Y-55533505D01*
X69484819Y-55533505D02*
X69484819Y-55914457D01*
X69484819Y-55914457D02*
X69532438Y-56009695D01*
X69532438Y-56009695D02*
X69580057Y-56057314D01*
X69580057Y-56057314D02*
X69675295Y-56104933D01*
X69675295Y-56104933D02*
X69818152Y-56104933D01*
X69818152Y-56104933D02*
X69913390Y-56057314D01*
X69913390Y-56057314D02*
X69961009Y-56009695D01*
X69961009Y-56009695D02*
X70008628Y-55914457D01*
X70008628Y-55914457D02*
X70008628Y-55533505D01*
X69580057Y-56485886D02*
X69532438Y-56533505D01*
X69532438Y-56533505D02*
X69484819Y-56628743D01*
X69484819Y-56628743D02*
X69484819Y-56866838D01*
X69484819Y-56866838D02*
X69532438Y-56962076D01*
X69532438Y-56962076D02*
X69580057Y-57009695D01*
X69580057Y-57009695D02*
X69675295Y-57057314D01*
X69675295Y-57057314D02*
X69770533Y-57057314D01*
X69770533Y-57057314D02*
X69913390Y-57009695D01*
X69913390Y-57009695D02*
X70484819Y-56438267D01*
X70484819Y-56438267D02*
X70484819Y-57057314D01*
X82841666Y-66742819D02*
X83174999Y-66266628D01*
X83413094Y-66742819D02*
X83413094Y-65742819D01*
X83413094Y-65742819D02*
X83032142Y-65742819D01*
X83032142Y-65742819D02*
X82936904Y-65790438D01*
X82936904Y-65790438D02*
X82889285Y-65838057D01*
X82889285Y-65838057D02*
X82841666Y-65933295D01*
X82841666Y-65933295D02*
X82841666Y-66076152D01*
X82841666Y-66076152D02*
X82889285Y-66171390D01*
X82889285Y-66171390D02*
X82936904Y-66219009D01*
X82936904Y-66219009D02*
X83032142Y-66266628D01*
X83032142Y-66266628D02*
X83413094Y-66266628D01*
X82270237Y-66171390D02*
X82365475Y-66123771D01*
X82365475Y-66123771D02*
X82413094Y-66076152D01*
X82413094Y-66076152D02*
X82460713Y-65980914D01*
X82460713Y-65980914D02*
X82460713Y-65933295D01*
X82460713Y-65933295D02*
X82413094Y-65838057D01*
X82413094Y-65838057D02*
X82365475Y-65790438D01*
X82365475Y-65790438D02*
X82270237Y-65742819D01*
X82270237Y-65742819D02*
X82079761Y-65742819D01*
X82079761Y-65742819D02*
X81984523Y-65790438D01*
X81984523Y-65790438D02*
X81936904Y-65838057D01*
X81936904Y-65838057D02*
X81889285Y-65933295D01*
X81889285Y-65933295D02*
X81889285Y-65980914D01*
X81889285Y-65980914D02*
X81936904Y-66076152D01*
X81936904Y-66076152D02*
X81984523Y-66123771D01*
X81984523Y-66123771D02*
X82079761Y-66171390D01*
X82079761Y-66171390D02*
X82270237Y-66171390D01*
X82270237Y-66171390D02*
X82365475Y-66219009D01*
X82365475Y-66219009D02*
X82413094Y-66266628D01*
X82413094Y-66266628D02*
X82460713Y-66361866D01*
X82460713Y-66361866D02*
X82460713Y-66552342D01*
X82460713Y-66552342D02*
X82413094Y-66647580D01*
X82413094Y-66647580D02*
X82365475Y-66695200D01*
X82365475Y-66695200D02*
X82270237Y-66742819D01*
X82270237Y-66742819D02*
X82079761Y-66742819D01*
X82079761Y-66742819D02*
X81984523Y-66695200D01*
X81984523Y-66695200D02*
X81936904Y-66647580D01*
X81936904Y-66647580D02*
X81889285Y-66552342D01*
X81889285Y-66552342D02*
X81889285Y-66361866D01*
X81889285Y-66361866D02*
X81936904Y-66266628D01*
X81936904Y-66266628D02*
X81984523Y-66219009D01*
X81984523Y-66219009D02*
X82079761Y-66171390D01*
X71523809Y-60907200D02*
X71380952Y-60954819D01*
X71380952Y-60954819D02*
X71142857Y-60954819D01*
X71142857Y-60954819D02*
X71047619Y-60907200D01*
X71047619Y-60907200D02*
X71000000Y-60859580D01*
X71000000Y-60859580D02*
X70952381Y-60764342D01*
X70952381Y-60764342D02*
X70952381Y-60669104D01*
X70952381Y-60669104D02*
X71000000Y-60573866D01*
X71000000Y-60573866D02*
X71047619Y-60526247D01*
X71047619Y-60526247D02*
X71142857Y-60478628D01*
X71142857Y-60478628D02*
X71333333Y-60431009D01*
X71333333Y-60431009D02*
X71428571Y-60383390D01*
X71428571Y-60383390D02*
X71476190Y-60335771D01*
X71476190Y-60335771D02*
X71523809Y-60240533D01*
X71523809Y-60240533D02*
X71523809Y-60145295D01*
X71523809Y-60145295D02*
X71476190Y-60050057D01*
X71476190Y-60050057D02*
X71428571Y-60002438D01*
X71428571Y-60002438D02*
X71333333Y-59954819D01*
X71333333Y-59954819D02*
X71095238Y-59954819D01*
X71095238Y-59954819D02*
X70952381Y-60002438D01*
X70523809Y-60954819D02*
X70523809Y-59954819D01*
X70523809Y-59954819D02*
X70285714Y-59954819D01*
X70285714Y-59954819D02*
X70142857Y-60002438D01*
X70142857Y-60002438D02*
X70047619Y-60097676D01*
X70047619Y-60097676D02*
X70000000Y-60192914D01*
X70000000Y-60192914D02*
X69952381Y-60383390D01*
X69952381Y-60383390D02*
X69952381Y-60526247D01*
X69952381Y-60526247D02*
X70000000Y-60716723D01*
X70000000Y-60716723D02*
X70047619Y-60811961D01*
X70047619Y-60811961D02*
X70142857Y-60907200D01*
X70142857Y-60907200D02*
X70285714Y-60954819D01*
X70285714Y-60954819D02*
X70523809Y-60954819D01*
X69571428Y-60669104D02*
X69095238Y-60669104D01*
X69666666Y-60954819D02*
X69333333Y-59954819D01*
X69333333Y-59954819D02*
X69000000Y-60954819D01*
X68904762Y-61050057D02*
X68142857Y-61050057D01*
X67904761Y-60431009D02*
X67571428Y-60431009D01*
X67428571Y-60954819D02*
X67904761Y-60954819D01*
X67904761Y-60954819D02*
X67904761Y-59954819D01*
X67904761Y-59954819D02*
X67428571Y-59954819D01*
X67047618Y-60907200D02*
X66904761Y-60954819D01*
X66904761Y-60954819D02*
X66666666Y-60954819D01*
X66666666Y-60954819D02*
X66571428Y-60907200D01*
X66571428Y-60907200D02*
X66523809Y-60859580D01*
X66523809Y-60859580D02*
X66476190Y-60764342D01*
X66476190Y-60764342D02*
X66476190Y-60669104D01*
X66476190Y-60669104D02*
X66523809Y-60573866D01*
X66523809Y-60573866D02*
X66571428Y-60526247D01*
X66571428Y-60526247D02*
X66666666Y-60478628D01*
X66666666Y-60478628D02*
X66857142Y-60431009D01*
X66857142Y-60431009D02*
X66952380Y-60383390D01*
X66952380Y-60383390D02*
X66999999Y-60335771D01*
X66999999Y-60335771D02*
X67047618Y-60240533D01*
X67047618Y-60240533D02*
X67047618Y-60145295D01*
X67047618Y-60145295D02*
X66999999Y-60050057D01*
X66999999Y-60050057D02*
X66952380Y-60002438D01*
X66952380Y-60002438D02*
X66857142Y-59954819D01*
X66857142Y-59954819D02*
X66619047Y-59954819D01*
X66619047Y-59954819D02*
X66476190Y-60002438D01*
X66047618Y-60954819D02*
X66047618Y-59954819D01*
X66047618Y-59954819D02*
X65666666Y-59954819D01*
X65666666Y-59954819D02*
X65571428Y-60002438D01*
X65571428Y-60002438D02*
X65523809Y-60050057D01*
X65523809Y-60050057D02*
X65476190Y-60145295D01*
X65476190Y-60145295D02*
X65476190Y-60288152D01*
X65476190Y-60288152D02*
X65523809Y-60383390D01*
X65523809Y-60383390D02*
X65571428Y-60431009D01*
X65571428Y-60431009D02*
X65666666Y-60478628D01*
X65666666Y-60478628D02*
X66047618Y-60478628D01*
X73176190Y-64454819D02*
X73509523Y-63978628D01*
X73747618Y-64454819D02*
X73747618Y-63454819D01*
X73747618Y-63454819D02*
X73366666Y-63454819D01*
X73366666Y-63454819D02*
X73271428Y-63502438D01*
X73271428Y-63502438D02*
X73223809Y-63550057D01*
X73223809Y-63550057D02*
X73176190Y-63645295D01*
X73176190Y-63645295D02*
X73176190Y-63788152D01*
X73176190Y-63788152D02*
X73223809Y-63883390D01*
X73223809Y-63883390D02*
X73271428Y-63931009D01*
X73271428Y-63931009D02*
X73366666Y-63978628D01*
X73366666Y-63978628D02*
X73747618Y-63978628D01*
X72842856Y-63454819D02*
X72176190Y-64454819D01*
X72176190Y-63454819D02*
X72842856Y-64454819D01*
X72033333Y-64550057D02*
X71271428Y-64550057D01*
X71033332Y-63931009D02*
X70699999Y-63931009D01*
X70557142Y-64454819D02*
X71033332Y-64454819D01*
X71033332Y-64454819D02*
X71033332Y-63454819D01*
X71033332Y-63454819D02*
X70557142Y-63454819D01*
X70176189Y-64407200D02*
X70033332Y-64454819D01*
X70033332Y-64454819D02*
X69795237Y-64454819D01*
X69795237Y-64454819D02*
X69699999Y-64407200D01*
X69699999Y-64407200D02*
X69652380Y-64359580D01*
X69652380Y-64359580D02*
X69604761Y-64264342D01*
X69604761Y-64264342D02*
X69604761Y-64169104D01*
X69604761Y-64169104D02*
X69652380Y-64073866D01*
X69652380Y-64073866D02*
X69699999Y-64026247D01*
X69699999Y-64026247D02*
X69795237Y-63978628D01*
X69795237Y-63978628D02*
X69985713Y-63931009D01*
X69985713Y-63931009D02*
X70080951Y-63883390D01*
X70080951Y-63883390D02*
X70128570Y-63835771D01*
X70128570Y-63835771D02*
X70176189Y-63740533D01*
X70176189Y-63740533D02*
X70176189Y-63645295D01*
X70176189Y-63645295D02*
X70128570Y-63550057D01*
X70128570Y-63550057D02*
X70080951Y-63502438D01*
X70080951Y-63502438D02*
X69985713Y-63454819D01*
X69985713Y-63454819D02*
X69747618Y-63454819D01*
X69747618Y-63454819D02*
X69604761Y-63502438D01*
X69176189Y-64454819D02*
X69176189Y-63454819D01*
X69176189Y-63454819D02*
X68795237Y-63454819D01*
X68795237Y-63454819D02*
X68699999Y-63502438D01*
X68699999Y-63502438D02*
X68652380Y-63550057D01*
X68652380Y-63550057D02*
X68604761Y-63645295D01*
X68604761Y-63645295D02*
X68604761Y-63788152D01*
X68604761Y-63788152D02*
X68652380Y-63883390D01*
X68652380Y-63883390D02*
X68699999Y-63931009D01*
X68699999Y-63931009D02*
X68795237Y-63978628D01*
X68795237Y-63978628D02*
X69176189Y-63978628D01*
D11*
X102320000Y-80083641D02*
X102320000Y-79776359D01*
X103080000Y-80083641D02*
X103080000Y-79776359D01*
X106620000Y-54123641D02*
X106620000Y-53816359D01*
X107380000Y-54123641D02*
X107380000Y-53816359D01*
X96420000Y-80063641D02*
X96420000Y-79756359D01*
X97180000Y-80063641D02*
X97180000Y-79756359D01*
X93361359Y-23570000D02*
X93668641Y-23570000D01*
X93361359Y-24330000D02*
X93668641Y-24330000D01*
X85253641Y-64020000D02*
X84946359Y-64020000D01*
X85253641Y-64780000D02*
X84946359Y-64780000D01*
X54440000Y-75590000D02*
X54440000Y-77410000D01*
X54440000Y-77410000D02*
X55440000Y-77410000D01*
X54490000Y-75590000D02*
X54440000Y-75590000D01*
X56390000Y-75590000D02*
X55610000Y-75590000D01*
X56560000Y-77410000D02*
X57560000Y-77410000D01*
X57560000Y-75590000D02*
X57510000Y-75590000D01*
X57560000Y-77410000D02*
X57560000Y-75590000D01*
X55950000Y-75290000D02*
X55620000Y-75050000D01*
X55950000Y-74810000D01*
X55950000Y-75290000D01*
G36*
X55950000Y-75290000D02*
G01*
X55620000Y-75050000D01*
X55950000Y-74810000D01*
X55950000Y-75290000D01*
G37*
X93920000Y-56953641D02*
X93920000Y-56646359D01*
X94680000Y-56953641D02*
X94680000Y-56646359D01*
X120167836Y-52401600D02*
X119952164Y-52401600D01*
X120167836Y-53121600D02*
X119952164Y-53121600D01*
X114535000Y-55626600D02*
X114535000Y-59746600D01*
X114535000Y-59746600D02*
X114630000Y-59746600D01*
X114630000Y-55626600D02*
X114535000Y-55626600D01*
X119560000Y-59746600D02*
X119655000Y-59746600D01*
X119655000Y-55626600D02*
X119560000Y-55626600D01*
X119655000Y-59746600D02*
X119655000Y-55626600D01*
X114625000Y-55086600D02*
X114295000Y-55326600D01*
X114295000Y-54846600D01*
X114625000Y-55086600D01*
G36*
X114625000Y-55086600D02*
G01*
X114295000Y-55326600D01*
X114295000Y-54846600D01*
X114625000Y-55086600D01*
G37*
D12*
X87280000Y-80117200D02*
X92106000Y-80117200D01*
X87280000Y-80726800D02*
X87280000Y-80117200D01*
X87280000Y-84282800D02*
X87280000Y-83673200D01*
X92106000Y-80117200D02*
X92106000Y-80726800D01*
X92106000Y-83673200D02*
X92106000Y-84282800D01*
X92106000Y-84282800D02*
X87280000Y-84282800D01*
X85578200Y-82200000D02*
G75*
G02*
X85730600Y-82200000I76200J0D01*
G01*
X85730600Y-82200000D02*
G75*
G02*
X85578200Y-82200000I-76200J0D01*
G01*
D11*
X125856359Y-79870000D02*
X126163641Y-79870000D01*
X125856359Y-80630000D02*
X126163641Y-80630000D01*
X98440000Y-82522164D02*
X98440000Y-82737836D01*
X99160000Y-82522164D02*
X99160000Y-82737836D01*
X103920000Y-54063641D02*
X103920000Y-53756359D01*
X104680000Y-54063641D02*
X104680000Y-53756359D01*
X112140000Y-20106521D02*
X112140000Y-19890849D01*
X112860000Y-20106521D02*
X112860000Y-19890849D01*
X101420000Y-57063641D02*
X101420000Y-56756359D01*
X102180000Y-57063641D02*
X102180000Y-56756359D01*
X99240000Y-38492164D02*
X99240000Y-38707836D01*
X99960000Y-38492164D02*
X99960000Y-38707836D01*
X70890000Y-40727500D02*
X70890000Y-42547500D01*
X70890000Y-42547500D02*
X70940000Y-42547500D01*
X70940000Y-40727500D02*
X70890000Y-40727500D01*
X72060000Y-42547500D02*
X72840000Y-42547500D01*
X73960000Y-42547500D02*
X74010000Y-42547500D01*
X74010000Y-40727500D02*
X73960000Y-40727500D01*
X74010000Y-42547500D02*
X74010000Y-40727500D01*
X70940000Y-40187500D02*
X70610000Y-40427500D01*
X70610000Y-39947500D01*
X70940000Y-40187500D01*
G36*
X70940000Y-40187500D02*
G01*
X70610000Y-40427500D01*
X70610000Y-39947500D01*
X70940000Y-40187500D01*
G37*
X103420000Y-74846359D02*
X103420000Y-75153641D01*
X104180000Y-74846359D02*
X104180000Y-75153641D01*
X93361359Y-21580000D02*
X93668641Y-21580000D01*
X93361359Y-22340000D02*
X93668641Y-22340000D01*
X102340000Y-82592164D02*
X102340000Y-82807836D01*
X103060000Y-82592164D02*
X103060000Y-82807836D01*
X104440000Y-82632164D02*
X104440000Y-82847836D01*
X105160000Y-82632164D02*
X105160000Y-82847836D01*
X103920000Y-57063641D02*
X103920000Y-56756359D01*
X104680000Y-57063641D02*
X104680000Y-56756359D01*
X95800000Y-43300000D02*
X95800000Y-44700000D01*
X95800000Y-44700000D02*
X97200000Y-44700000D01*
X97200000Y-43300000D02*
X95800000Y-43300000D01*
X97200000Y-44700000D02*
X97200000Y-43300000D01*
X103440000Y-72527836D02*
X103440000Y-72312164D01*
X104160000Y-72527836D02*
X104160000Y-72312164D01*
X101370000Y-54103641D02*
X101370000Y-53796359D01*
X102130000Y-54103641D02*
X102130000Y-53796359D01*
X97320000Y-74846359D02*
X97320000Y-75153641D01*
X98080000Y-74846359D02*
X98080000Y-75153641D01*
X71912164Y-44640000D02*
X72127836Y-44640000D01*
X71912164Y-45360000D02*
X72127836Y-45360000D01*
X100690000Y-38134420D02*
X100690000Y-38415580D01*
X101710000Y-38134420D02*
X101710000Y-38415580D01*
X67800000Y-57300000D02*
X67800000Y-58700000D01*
X67800000Y-58700000D02*
X69200000Y-58700000D01*
X69200000Y-57300000D02*
X67800000Y-57300000D01*
X69200000Y-58700000D02*
X69200000Y-57300000D01*
X102800000Y-36700000D02*
X102800000Y-38100000D01*
X102800000Y-38100000D02*
X104200000Y-38100000D01*
X104200000Y-36700000D02*
X102800000Y-36700000D01*
X104200000Y-38100000D02*
X104200000Y-36700000D01*
X98920000Y-54063641D02*
X98920000Y-53756359D01*
X99680000Y-54063641D02*
X99680000Y-53756359D01*
X118282164Y-62266600D02*
X118497836Y-62266600D01*
X118282164Y-62986600D02*
X118497836Y-62986600D01*
X115997836Y-62266600D02*
X115782164Y-62266600D01*
X115997836Y-62986600D02*
X115782164Y-62986600D01*
X126153641Y-77870000D02*
X125846359Y-77870000D01*
X126153641Y-78630000D02*
X125846359Y-78630000D01*
X88052500Y-21440000D02*
X88052500Y-21490000D01*
X88052500Y-22610000D02*
X88052500Y-23390000D01*
X88052500Y-24510000D02*
X88052500Y-24560000D01*
X88052500Y-24560000D02*
X89872500Y-24560000D01*
X89872500Y-21440000D02*
X88052500Y-21440000D01*
X89872500Y-21490000D02*
X89872500Y-21440000D01*
X89872500Y-24560000D02*
X89872500Y-24510000D01*
X90412500Y-21490000D02*
X90172500Y-21160000D01*
X90652500Y-21160000D01*
X90412500Y-21490000D01*
G36*
X90412500Y-21490000D02*
G01*
X90172500Y-21160000D01*
X90652500Y-21160000D01*
X90412500Y-21490000D01*
G37*
X59100000Y-73600000D02*
X59100000Y-75000000D01*
X59100000Y-75000000D02*
X60500000Y-75000000D01*
X60500000Y-73600000D02*
X59100000Y-73600000D01*
X60500000Y-75000000D02*
X60500000Y-73600000D01*
X100440000Y-82552164D02*
X100440000Y-82767836D01*
X101160000Y-82552164D02*
X101160000Y-82767836D01*
X106620000Y-57063641D02*
X106620000Y-56756359D01*
X107380000Y-57063641D02*
X107380000Y-56756359D01*
D12*
X92560576Y-36020300D02*
X96239424Y-36020300D01*
X96239424Y-41379700D02*
X92560576Y-41379700D01*
D13*
G36*
X90590000Y-40515501D02*
G01*
X90336000Y-40515501D01*
X90336000Y-40134501D01*
X90590000Y-40134501D01*
X90590000Y-40515501D01*
G37*
D11*
X71792164Y-38138898D02*
X72007836Y-38138898D01*
X71792164Y-38858898D02*
X72007836Y-38858898D01*
X104420000Y-80143641D02*
X104420000Y-79836359D01*
X105180000Y-80143641D02*
X105180000Y-79836359D01*
X96440000Y-82532164D02*
X96440000Y-82747836D01*
X97160000Y-82532164D02*
X97160000Y-82747836D01*
X85253641Y-62020000D02*
X84946359Y-62020000D01*
X85253641Y-62780000D02*
X84946359Y-62780000D01*
X101420000Y-74836359D02*
X101420000Y-75143641D01*
X102180000Y-74836359D02*
X102180000Y-75143641D01*
X113253641Y-82620000D02*
X112946359Y-82620000D01*
X113253641Y-83380000D02*
X112946359Y-83380000D01*
X87220000Y-63756359D02*
X87220000Y-64063641D01*
X87980000Y-63756359D02*
X87980000Y-64063641D01*
X73200000Y-65200000D02*
X73200000Y-66600000D01*
X73200000Y-66600000D02*
X74600000Y-66600000D01*
X74600000Y-65200000D02*
X73200000Y-65200000D01*
X74600000Y-66600000D02*
X74600000Y-65200000D01*
X98420000Y-80053641D02*
X98420000Y-79746359D01*
X99180000Y-80053641D02*
X99180000Y-79746359D01*
X101440000Y-72527836D02*
X101440000Y-72312164D01*
X102160000Y-72527836D02*
X102160000Y-72312164D01*
X92411100Y-43150000D02*
X92411100Y-44550000D01*
X92411100Y-44550000D02*
X93811100Y-44550000D01*
X93811100Y-43150000D02*
X92411100Y-43150000D01*
X93811100Y-44550000D02*
X93811100Y-43150000D01*
X110640000Y-24890849D02*
X110640000Y-25106521D01*
X111360000Y-24890849D02*
X111360000Y-25106521D01*
X75550000Y-43300000D02*
X75550000Y-44700000D01*
X75550000Y-44700000D02*
X76950000Y-44700000D01*
X76950000Y-43300000D02*
X75550000Y-43300000D01*
X76950000Y-44700000D02*
X76950000Y-43300000D01*
X72350000Y-54015241D02*
X72350000Y-53707959D01*
X73110000Y-54015241D02*
X73110000Y-53707959D01*
X82456359Y-62020000D02*
X82763641Y-62020000D01*
X82456359Y-62780000D02*
X82763641Y-62780000D01*
X69750000Y-54025241D02*
X69750000Y-53717959D01*
X70510000Y-54025241D02*
X70510000Y-53717959D01*
X82446359Y-64020000D02*
X82753641Y-64020000D01*
X82446359Y-64780000D02*
X82753641Y-64780000D01*
X105420000Y-74836359D02*
X105420000Y-75143641D01*
X106180000Y-74836359D02*
X106180000Y-75143641D01*
X99440000Y-72617836D02*
X99440000Y-72402164D01*
X100160000Y-72617836D02*
X100160000Y-72402164D01*
X52840000Y-75657836D02*
X52840000Y-75442164D01*
X53560000Y-75657836D02*
X53560000Y-75442164D01*
X105440000Y-72497836D02*
X105440000Y-72282164D01*
X106160000Y-72497836D02*
X106160000Y-72282164D01*
X67800000Y-61700000D02*
X67800000Y-63100000D01*
X67800000Y-63100000D02*
X69200000Y-63100000D01*
X69200000Y-61700000D02*
X67800000Y-61700000D01*
X69200000Y-63100000D02*
X69200000Y-61700000D01*
X100420000Y-80053641D02*
X100420000Y-79746359D01*
X101180000Y-80053641D02*
X101180000Y-79746359D01*
X124870000Y-64653641D02*
X124870000Y-64346359D01*
X125630000Y-64653641D02*
X125630000Y-64346359D01*
X88790000Y-39672164D02*
X88790000Y-39887836D01*
X89510000Y-39672164D02*
X89510000Y-39887836D01*
X97340000Y-72607836D02*
X97340000Y-72392164D01*
X98060000Y-72607836D02*
X98060000Y-72392164D01*
X112140000Y-24870849D02*
X112140000Y-25086521D01*
X112860000Y-24870849D02*
X112860000Y-25086521D01*
X70400000Y-65100000D02*
X70400000Y-66500000D01*
X70400000Y-66500000D02*
X71800000Y-66500000D01*
X71800000Y-65100000D02*
X70400000Y-65100000D01*
X71800000Y-66500000D02*
X71800000Y-65100000D01*
X120485000Y-60018764D02*
X120485000Y-60234436D01*
X121205000Y-60018764D02*
X121205000Y-60234436D01*
X93920000Y-53736359D02*
X93920000Y-54043641D01*
X94680000Y-53736359D02*
X94680000Y-54043641D01*
X99420000Y-74836359D02*
X99420000Y-75143641D01*
X100180000Y-74836359D02*
X100180000Y-75143641D01*
X96370000Y-56953641D02*
X96370000Y-56646359D01*
X97130000Y-56953641D02*
X97130000Y-56646359D01*
X98920000Y-56963641D02*
X98920000Y-56656359D01*
X99680000Y-56963641D02*
X99680000Y-56656359D01*
X110640000Y-20086521D02*
X110640000Y-19870849D01*
X111360000Y-20086521D02*
X111360000Y-19870849D01*
X96420000Y-54063641D02*
X96420000Y-53756359D01*
X97180000Y-54063641D02*
X97180000Y-53756359D01*
D14*
X55000000Y-85000000D03*
%LPC*%
X132000000Y-85000000D03*
X132000000Y-17000000D03*
X55000000Y-17000000D03*
X55000000Y-85000000D03*
D15*
X126000000Y-32860000D03*
D16*
X98060000Y-32860000D03*
X95520000Y-32860000D03*
X92980000Y-32860000D03*
X90440000Y-32860000D03*
X87900000Y-32860000D03*
X85360000Y-32860000D03*
X82820000Y-32860000D03*
X80280000Y-32860000D03*
X77740000Y-32860000D03*
X75200000Y-32860000D03*
X72660000Y-32860000D03*
X70120000Y-32860000D03*
X67580000Y-32860000D03*
X67580000Y-48100000D03*
X70120000Y-48100000D03*
X72660000Y-48100000D03*
X75200000Y-48100000D03*
X77740000Y-48100000D03*
X82820000Y-48100000D03*
X85360000Y-48100000D03*
X87900000Y-48100000D03*
X90440000Y-48100000D03*
X92980000Y-48100000D03*
X95520000Y-48100000D03*
X98060000Y-48100000D03*
X100600000Y-48100000D03*
X103140000Y-48100000D03*
X105680000Y-48100000D03*
X108220000Y-48100000D03*
X110760000Y-48100000D03*
X113300000Y-48100000D03*
X115840000Y-48100000D03*
X118380000Y-48100000D03*
X120920000Y-48100000D03*
X123460000Y-48100000D03*
X126000000Y-48100000D03*
X123460000Y-45560000D03*
X80280000Y-35400000D03*
X80280000Y-37940000D03*
X80280000Y-40480000D03*
D17*
X113030000Y-45661600D03*
D18*
X113030000Y-43661600D03*
X113030000Y-41661600D03*
X111030000Y-41661600D03*
X111030000Y-43661600D03*
X111030000Y-45661600D03*
X131290000Y-41750000D03*
X131290000Y-39210000D03*
D19*
X102700000Y-80440000D03*
X102700000Y-79420000D03*
X107000000Y-54480000D03*
X107000000Y-53460000D03*
X96800000Y-80420000D03*
X96800000Y-79400000D03*
D20*
X93005000Y-23950000D03*
X94025000Y-23950000D03*
D21*
X85610000Y-64400000D03*
X84590000Y-64400000D03*
D22*
X55050000Y-75362500D03*
X56950000Y-75362500D03*
X56000000Y-77637500D03*
D19*
X94300000Y-57310000D03*
X94300000Y-56290000D03*
D23*
X120540000Y-52761600D03*
X119580000Y-52761600D03*
D24*
X115190000Y-55211600D03*
X116460000Y-55211600D03*
X117730000Y-55211600D03*
X119000000Y-55211600D03*
X119000000Y-60161600D03*
X117730000Y-60161600D03*
X116460000Y-60161600D03*
X115190000Y-60161600D03*
D25*
X87486000Y-82200000D03*
X91900000Y-82200000D03*
D20*
X125500000Y-80250000D03*
X126520000Y-80250000D03*
D26*
X98800000Y-82150000D03*
X98800000Y-83110000D03*
D19*
X104300000Y-54420000D03*
X104300000Y-53400000D03*
D27*
X112500000Y-20478685D03*
X112500000Y-19518685D03*
D19*
X101800000Y-57420000D03*
X101800000Y-56400000D03*
D26*
X99600000Y-38120000D03*
X99600000Y-39080000D03*
D22*
X71500000Y-40500000D03*
X72450000Y-40500000D03*
X73400000Y-40500000D03*
X73400000Y-42775000D03*
X71500000Y-42775000D03*
D28*
X103800000Y-74490000D03*
X103800000Y-75510000D03*
D20*
X93005000Y-21960000D03*
X94025000Y-21960000D03*
D26*
X102700000Y-82220000D03*
X102700000Y-83180000D03*
X104800000Y-82260000D03*
X104800000Y-83220000D03*
D19*
X104300000Y-57420000D03*
X104300000Y-56400000D03*
D29*
X96500000Y-44000000D03*
D27*
X103800000Y-72900000D03*
X103800000Y-71940000D03*
D19*
X101750000Y-54460000D03*
X101750000Y-53440000D03*
D28*
X97700000Y-74490000D03*
X97700000Y-75510000D03*
D30*
X71540000Y-45000000D03*
X72500000Y-45000000D03*
D31*
X101200000Y-37500000D03*
X101200000Y-39050000D03*
D29*
X68500000Y-58000000D03*
X103500000Y-37400000D03*
D19*
X99300000Y-54420000D03*
X99300000Y-53400000D03*
D30*
X117910000Y-62626600D03*
X118870000Y-62626600D03*
D23*
X116370000Y-62626600D03*
X115410000Y-62626600D03*
D21*
X126510000Y-78250000D03*
X125490000Y-78250000D03*
D32*
X90100000Y-22050000D03*
X90100000Y-23000000D03*
X90100000Y-23950000D03*
X87825000Y-23950000D03*
X87825000Y-22050000D03*
D29*
X59800000Y-74300000D03*
D26*
X100800000Y-82180000D03*
X100800000Y-83140000D03*
D19*
X107000000Y-57420000D03*
X107000000Y-56400000D03*
D33*
X97219400Y-36425001D03*
X97219400Y-37074999D03*
X97219400Y-37725001D03*
X97219400Y-38374999D03*
X97219400Y-39024998D03*
X97219400Y-39674999D03*
X97219400Y-40324998D03*
X97219400Y-40974999D03*
X91580600Y-40974999D03*
X91580600Y-40325001D03*
X91580600Y-39674999D03*
X91580600Y-39025001D03*
X91580600Y-38375002D03*
X91580600Y-37725001D03*
X91580600Y-37075002D03*
X91580600Y-36425001D03*
D30*
X71420000Y-38498898D03*
X72380000Y-38498898D03*
D19*
X104800000Y-80500000D03*
X104800000Y-79480000D03*
D26*
X96800000Y-82160000D03*
X96800000Y-83120000D03*
D21*
X85610000Y-62400000D03*
X84590000Y-62400000D03*
D28*
X101800000Y-74480000D03*
X101800000Y-75500000D03*
D21*
X113610000Y-83000000D03*
X112590000Y-83000000D03*
D28*
X87600000Y-63400000D03*
X87600000Y-64420000D03*
D29*
X73900000Y-65900000D03*
D19*
X98800000Y-80410000D03*
X98800000Y-79390000D03*
D27*
X101800000Y-72900000D03*
X101800000Y-71940000D03*
D29*
X93111100Y-43850000D03*
D26*
X111000000Y-24518685D03*
X111000000Y-25478685D03*
D29*
X76250000Y-44000000D03*
D19*
X72730000Y-54371600D03*
X72730000Y-53351600D03*
D20*
X82100000Y-62400000D03*
X83120000Y-62400000D03*
D19*
X70130000Y-54381600D03*
X70130000Y-53361600D03*
D20*
X82090000Y-64400000D03*
X83110000Y-64400000D03*
D28*
X105800000Y-74480000D03*
X105800000Y-75500000D03*
D27*
X99800000Y-72990000D03*
X99800000Y-72030000D03*
X53200000Y-76030000D03*
X53200000Y-75070000D03*
X105800000Y-72870000D03*
X105800000Y-71910000D03*
D29*
X68500000Y-62400000D03*
D19*
X100800000Y-80410000D03*
X100800000Y-79390000D03*
X125250000Y-65010000D03*
X125250000Y-63990000D03*
D26*
X89150000Y-39300000D03*
X89150000Y-40260000D03*
D27*
X97700000Y-72980000D03*
X97700000Y-72020000D03*
D26*
X112500000Y-24498685D03*
X112500000Y-25458685D03*
D29*
X71100000Y-65800000D03*
D26*
X120845000Y-59646600D03*
X120845000Y-60606600D03*
D28*
X94300000Y-53380000D03*
X94300000Y-54400000D03*
X99800000Y-74480000D03*
X99800000Y-75500000D03*
D19*
X96750000Y-57310000D03*
X96750000Y-56290000D03*
X99300000Y-57320000D03*
X99300000Y-56300000D03*
D27*
X111000000Y-20458685D03*
X111000000Y-19498685D03*
D19*
X96800000Y-54420000D03*
X96800000Y-53400000D03*
%LPD*%
M02*
