%TF.GenerationSoftware,KiCad,Pcbnew,9.0.6*%
%TF.CreationDate,2026-02-09T18:54:10-05:00*%
%TF.ProjectId,main_board_v3,6d61696e-5f62-46f6-9172-645f76332e6b,rev?*%
%TF.SameCoordinates,Original*%
%TF.FileFunction,Copper,L3,Inr*%
%TF.FilePolarity,Positive*%
%FSLAX46Y46*%
G04 Gerber Fmt 4.6, Leading zero omitted, Abs format (unit mm)*
G04 Created by KiCad (PCBNEW 9.0.6) date 2026-02-09 18:54:10*
%MOMM*%
%LPD*%
G01*
G04 APERTURE LIST*
%TA.AperFunction,ComponentPad*%
%ADD10C,3.500000*%
%TD*%
%TA.AperFunction,ComponentPad*%
%ADD11R,1.600000X1.600000*%
%TD*%
%TA.AperFunction,ComponentPad*%
%ADD12C,1.600000*%
%TD*%
%TA.AperFunction,ComponentPad*%
%ADD13R,1.300000X1.300000*%
%TD*%
%TA.AperFunction,ComponentPad*%
%ADD14C,1.300000*%
%TD*%
%TA.AperFunction,ViaPad*%
%ADD15C,0.450000*%
%TD*%
%TA.AperFunction,Conductor*%
%ADD16C,0.300000*%
%TD*%
%TA.AperFunction,Conductor*%
%ADD17C,0.200000*%
%TD*%
G04 APERTURE END LIST*
D10*
X132000000Y-85000000D03*
X132000000Y-17000000D03*
X55000000Y-17000000D03*
X55000000Y-85000000D03*
D11*
X126000000Y-32860000D03*
D12*
X98060000Y-32860000D03*
X95520000Y-32860000D03*
X92980000Y-32860000D03*
X90440000Y-32860000D03*
X87900000Y-32860000D03*
X85360000Y-32860000D03*
X82820000Y-32860000D03*
X80280000Y-32860000D03*
X77740000Y-32860000D03*
X75200000Y-32860000D03*
X72660000Y-32860000D03*
X70120000Y-32860000D03*
X67580000Y-32860000D03*
X67580000Y-48100000D03*
X70120000Y-48100000D03*
X72660000Y-48100000D03*
X75200000Y-48100000D03*
X77740000Y-48100000D03*
X82820000Y-48100000D03*
X85360000Y-48100000D03*
X87900000Y-48100000D03*
X90440000Y-48100000D03*
X92980000Y-48100000D03*
X95520000Y-48100000D03*
X98060000Y-48100000D03*
X100600000Y-48100000D03*
X103140000Y-48100000D03*
X105680000Y-48100000D03*
X108220000Y-48100000D03*
X110760000Y-48100000D03*
X113300000Y-48100000D03*
X115840000Y-48100000D03*
X118380000Y-48100000D03*
X120920000Y-48100000D03*
X123460000Y-48100000D03*
X126000000Y-48100000D03*
X123460000Y-45560000D03*
X80280000Y-35400000D03*
X80280000Y-37940000D03*
X80280000Y-40480000D03*
D13*
X113030000Y-45661600D03*
D14*
X113030000Y-43661600D03*
X113030000Y-41661600D03*
X111030000Y-41661600D03*
X111030000Y-43661600D03*
X111030000Y-45661600D03*
X131290000Y-41750000D03*
X131290000Y-39210000D03*
D15*
X127800000Y-82600000D03*
X95550000Y-85500000D03*
X116600000Y-77400000D03*
X105400000Y-83100000D03*
X121250000Y-59775000D03*
X103600000Y-71400000D03*
X100100000Y-71440000D03*
X97100000Y-84000000D03*
X135124000Y-49250000D03*
X124800000Y-73600000D03*
X130514040Y-70178343D03*
X129250000Y-49250000D03*
X90600000Y-77600000D03*
X114100000Y-76200000D03*
X132321212Y-69789943D03*
X112000000Y-82900000D03*
X134500000Y-61250000D03*
X99100000Y-83900000D03*
X133250000Y-65000000D03*
X101500000Y-71400000D03*
X105500000Y-71390000D03*
X130750000Y-73500000D03*
X128800000Y-75600000D03*
X113300000Y-76300000D03*
X115000000Y-76200000D03*
X126700000Y-79600000D03*
X125800000Y-51800000D03*
X128301000Y-77700000D03*
X128511866Y-72259128D03*
X117200000Y-80600000D03*
X129834854Y-48932893D03*
X101100000Y-83900000D03*
X115900000Y-71500000D03*
X120750000Y-53000000D03*
X127250000Y-70250000D03*
X103300000Y-83600000D03*
X134750000Y-57250000D03*
X97925000Y-71425000D03*
X133900000Y-71200000D03*
X132750000Y-60500000D03*
X123100000Y-54800000D03*
X118700000Y-76500000D03*
X118700000Y-68600000D03*
X124075000Y-67100000D03*
X128900000Y-73825000D03*
X79800000Y-44900000D03*
X62000000Y-42000000D03*
X65100000Y-32900000D03*
X61500000Y-44500000D03*
X134750000Y-58500000D03*
X68400000Y-75700000D03*
X129250000Y-47750000D03*
X133874000Y-47000000D03*
X130000000Y-71000000D03*
X88200000Y-65700000D03*
X86200000Y-64600000D03*
X132300000Y-71200000D03*
X133250000Y-62000000D03*
X59400000Y-51700000D03*
X134374000Y-48000000D03*
X56750000Y-47250000D03*
X88247968Y-63969908D03*
X78492280Y-76091874D03*
X125250000Y-52500000D03*
X127250002Y-71781670D03*
X81600000Y-64600000D03*
X134500000Y-62750000D03*
X128301000Y-70700000D03*
X93500000Y-82800000D03*
X92600000Y-78900000D03*
X93600000Y-78700000D03*
X127776000Y-69250000D03*
X125500000Y-83250000D03*
X110300000Y-75625000D03*
X116875000Y-69625000D03*
X83565000Y-64855000D03*
X84725000Y-65000000D03*
X76150000Y-69950000D03*
X105800000Y-76200000D03*
X75600000Y-72425000D03*
X103800000Y-76200000D03*
X75700000Y-71400000D03*
X90100000Y-23950000D03*
X81570300Y-28000000D03*
X75108732Y-74333732D03*
X66621232Y-75721232D03*
X80700000Y-51100000D03*
X91100000Y-59800000D03*
X80700000Y-45600000D03*
X96800000Y-78700000D03*
X87825000Y-23950000D03*
X80929700Y-28000000D03*
X99800000Y-76100000D03*
X60365000Y-23591000D03*
X57575000Y-37150000D03*
X73000000Y-44500000D03*
X59750000Y-33500000D03*
X62500000Y-20000000D03*
X61200000Y-23500000D03*
X88600000Y-85300000D03*
X58000000Y-25000000D03*
X59750000Y-38000000D03*
X60300000Y-25300000D03*
X58725000Y-37150000D03*
X61300000Y-21700000D03*
X59500000Y-25300000D03*
X59500000Y-24500000D03*
X60400000Y-21700000D03*
X61200000Y-24600000D03*
X52900000Y-76800000D03*
X72500000Y-39250000D03*
X61300000Y-22500000D03*
X59500000Y-21700000D03*
X58000000Y-48000000D03*
X56750000Y-25250000D03*
X59500000Y-23500000D03*
X56934616Y-42890000D03*
X59750000Y-35000000D03*
X60400000Y-22500000D03*
X63250000Y-25750000D03*
X59500000Y-22500000D03*
X55200000Y-78100000D03*
X61200000Y-25300000D03*
X60300000Y-24600000D03*
X101800000Y-76100000D03*
X74645382Y-75387082D03*
X76400000Y-30366387D03*
X97900000Y-76000000D03*
X83570300Y-22400000D03*
X87825000Y-22050000D03*
X125250000Y-86250000D03*
X116900000Y-85625000D03*
X104800000Y-78600000D03*
X82929700Y-22400000D03*
X90100000Y-22050000D03*
X75500000Y-73325000D03*
X77100000Y-30366387D03*
X109000000Y-81400000D03*
X102700000Y-78600000D03*
X100800000Y-78600000D03*
X64100000Y-76000000D03*
X92539861Y-39564806D03*
X118005087Y-61547984D03*
X90000000Y-39500000D03*
X92455000Y-36250000D03*
X98800000Y-78600000D03*
X117491700Y-62208300D03*
X116733352Y-62233352D03*
X113000000Y-24000000D03*
X121700000Y-71000000D03*
X82100000Y-28700000D03*
X120800000Y-68600000D03*
X82100000Y-23900000D03*
X112750000Y-21250000D03*
X118100000Y-70400000D03*
X88250000Y-61520000D03*
X92250000Y-22000000D03*
X79682584Y-28659362D03*
X84500000Y-24200000D03*
X67300000Y-78600000D03*
X93800000Y-53000000D03*
X116200000Y-54000000D03*
X110500000Y-21000000D03*
X77300000Y-76200000D03*
X115000000Y-63000000D03*
X80200000Y-76200000D03*
X92500000Y-24000000D03*
X85800000Y-77900000D03*
X99250000Y-37500000D03*
X86900000Y-67100000D03*
X65300000Y-78600000D03*
X103900000Y-52475000D03*
X60500000Y-55400000D03*
X99800000Y-52475000D03*
X100481112Y-37107529D03*
X82440900Y-28307152D03*
X75600000Y-24200000D03*
X115735000Y-60250000D03*
X119300000Y-70500000D03*
X116900000Y-71500000D03*
X92500000Y-40400000D03*
X77000000Y-23900000D03*
X62500000Y-76200000D03*
X80440900Y-28740159D03*
X96396069Y-38318859D03*
X108000000Y-65200000D03*
X110500000Y-24250000D03*
X91000000Y-23000000D03*
X79600000Y-23800000D03*
X77233350Y-28633251D03*
X107300000Y-52475000D03*
X96300000Y-53000000D03*
X77800000Y-28700000D03*
X86720000Y-60200000D03*
X119500000Y-63000000D03*
X88750000Y-40750000D03*
X122922742Y-69863044D03*
X102100000Y-52475000D03*
X61900000Y-79200000D03*
X90200000Y-85300000D03*
X94500000Y-78900000D03*
X94550000Y-85500000D03*
X65750000Y-26000000D03*
X63624061Y-23503097D03*
X59750000Y-19750000D03*
X63250000Y-28750000D03*
X94200000Y-80400000D03*
X98800000Y-72700000D03*
X109000000Y-19500000D03*
X109000000Y-25750000D03*
X100700000Y-73225000D03*
X103100000Y-73626000D03*
X104824000Y-74027000D03*
X106600000Y-75000000D03*
X53200000Y-74100000D03*
X54200000Y-74800000D03*
X85600000Y-82800000D03*
X55500000Y-24000000D03*
X122250000Y-78000000D03*
X123000000Y-78500000D03*
X123475000Y-79000000D03*
X124000000Y-79500000D03*
X124525000Y-79997449D03*
X122500000Y-64750000D03*
X108750000Y-54000000D03*
X91700000Y-54800000D03*
X83570000Y-61950000D03*
X84725000Y-61900000D03*
X105786119Y-55413881D03*
X103000000Y-55500000D03*
X126500000Y-62750000D03*
X133149173Y-69139173D03*
X126500000Y-50600000D03*
X128250000Y-56750000D03*
X100700000Y-55600000D03*
X97250000Y-25750000D03*
X97250000Y-19500000D03*
X98200000Y-55700000D03*
X95900000Y-55400000D03*
X86760000Y-65260000D03*
X74030000Y-56661600D03*
X76300000Y-50700000D03*
X126000000Y-61750000D03*
X107250000Y-46500000D03*
X125336861Y-62470542D03*
X111500000Y-51000000D03*
X102228768Y-37771232D03*
X124750000Y-62750000D03*
X109071232Y-53071232D03*
X100250000Y-36500000D03*
X131000000Y-62500000D03*
X105900000Y-37900000D03*
X126200000Y-58100000D03*
X129900000Y-77200000D03*
X125800000Y-77400000D03*
X82250000Y-45000000D03*
X108500000Y-54750000D03*
X124075000Y-69500000D03*
X98750000Y-40750000D03*
X131000000Y-59250000D03*
X104000000Y-44750000D03*
X103800000Y-40100000D03*
X89317952Y-38375002D03*
X82000000Y-34400000D03*
X71271000Y-34100000D03*
X122400000Y-69200000D03*
X82220000Y-61950000D03*
X128586792Y-76214040D03*
X70000000Y-40500000D03*
X85470000Y-61700000D03*
X72200000Y-59500000D03*
X124647000Y-66200000D03*
X88100000Y-59800000D03*
X128374126Y-69504449D03*
X86100000Y-59000000D03*
X73900000Y-67600000D03*
X69605000Y-55700000D03*
X68500000Y-67400000D03*
X71100000Y-67300000D03*
X125075000Y-77700000D03*
X89800000Y-36700000D03*
D16*
X79800000Y-44900000D02*
X79800000Y-46800000D01*
X116700000Y-67100000D02*
X124075000Y-67100000D01*
X119000000Y-76800000D02*
X118700000Y-76500000D01*
X118700000Y-68600000D02*
X118700000Y-68100000D01*
X100100000Y-67100000D02*
X116700000Y-67100000D01*
X126700000Y-76800000D02*
X119000000Y-76800000D01*
X118700000Y-68100000D02*
X117700000Y-67100000D01*
X129225000Y-73825000D02*
X129225000Y-74275000D01*
X117700000Y-67100000D02*
X116700000Y-67100000D01*
X129225000Y-74275000D02*
X126700000Y-76800000D01*
X128900000Y-73825000D02*
X129225000Y-73825000D01*
X79800000Y-46800000D02*
X100100000Y-67100000D01*
X65100000Y-33712240D02*
X62000000Y-36812240D01*
X65100000Y-32900000D02*
X65100000Y-33712240D01*
X62000000Y-36812240D02*
X62000000Y-42000000D01*
X118005087Y-61547984D02*
X117957103Y-61500000D01*
X100400000Y-43500000D02*
X96700000Y-43500000D01*
X90440000Y-32860000D02*
X90440000Y-34440000D01*
X104529000Y-47629000D02*
X100400000Y-43500000D01*
X112685412Y-61500000D02*
X104529000Y-53343588D01*
X117957103Y-61500000D02*
X112685412Y-61500000D01*
X90440000Y-33540000D02*
X90440000Y-32860000D01*
X90440000Y-34440000D02*
X91300000Y-35300000D01*
X104529000Y-53343588D02*
X104529000Y-47629000D01*
D17*
X121224000Y-56224000D02*
X128717877Y-56224000D01*
X131526000Y-59032123D02*
X131526000Y-61974000D01*
X118250000Y-50138000D02*
X118250000Y-53250000D01*
X119819000Y-48569000D02*
X118250000Y-50138000D01*
X119819000Y-47105682D02*
X119819000Y-48569000D01*
X131526000Y-61974000D02*
X131000000Y-62500000D01*
X100250000Y-36500000D02*
X109213318Y-36500000D01*
X109213318Y-36500000D02*
X119819000Y-47105682D01*
X128717877Y-56224000D02*
X131526000Y-59032123D01*
X118250000Y-53250000D02*
X121224000Y-56224000D01*
D16*
X108684028Y-37900000D02*
X112030000Y-41245972D01*
X126676000Y-78276000D02*
X128824000Y-78276000D01*
X121672240Y-58100000D02*
X126200000Y-58100000D01*
X105900000Y-37900000D02*
X108684028Y-37900000D01*
X112030000Y-41245972D02*
X112030000Y-48457760D01*
X112030000Y-48457760D02*
X121672240Y-58100000D01*
X128824000Y-78276000D02*
X129900000Y-77200000D01*
X125800000Y-77400000D02*
X126676000Y-78276000D01*
D17*
X104000000Y-44750000D02*
X107119000Y-47869000D01*
X117812950Y-59250000D02*
X131000000Y-59250000D01*
X107119000Y-48556050D02*
X117812950Y-59250000D01*
X107119000Y-47869000D02*
X107119000Y-48556050D01*
D16*
X124651000Y-66204000D02*
X124647000Y-66200000D01*
X89300000Y-61100000D02*
X89200000Y-61100000D01*
X95800000Y-67600000D02*
X116548000Y-67600000D01*
X118148000Y-69200000D02*
X122400000Y-69200000D01*
X71271000Y-34100000D02*
X71271000Y-39229000D01*
X116548000Y-67600000D02*
X118148000Y-69200000D01*
X122400000Y-69200000D02*
X123560412Y-69200000D01*
X68750000Y-41750000D02*
X68750000Y-48250000D01*
X72200000Y-58500000D02*
X72300000Y-58600000D01*
X123836412Y-68924000D02*
X123876000Y-68924000D01*
X72200000Y-53100000D02*
X72200000Y-57200000D01*
X128500000Y-68600000D02*
X128500000Y-69200000D01*
X68731000Y-48269000D02*
X68731000Y-49631000D01*
X123876000Y-68924000D02*
X124651000Y-68149000D01*
X124647000Y-66200000D02*
X126100000Y-66200000D01*
X71271000Y-39229000D02*
X70000000Y-40500000D01*
X70000000Y-40500000D02*
X68750000Y-41750000D01*
X126100000Y-66200000D02*
X128500000Y-68600000D01*
X68750000Y-48250000D02*
X68731000Y-48269000D01*
X95800000Y-67600000D02*
X89300000Y-61100000D01*
X128500000Y-69378575D02*
X128374126Y-69504449D01*
X123560412Y-69200000D02*
X123836412Y-68924000D01*
X124651000Y-68149000D02*
X124651000Y-66204000D01*
X68731000Y-49631000D02*
X72200000Y-53100000D01*
X128500000Y-69200000D02*
X128500000Y-69378575D01*
X72200000Y-57200000D02*
X72200000Y-58500000D01*
%TA.AperFunction,Conductor*%
G36*
X94165929Y-78419685D02*
G01*
X94211684Y-78472489D01*
X94221628Y-78541647D01*
X94192603Y-78605203D01*
X94186571Y-78611681D01*
X94159517Y-78638734D01*
X94159513Y-78638740D01*
X94103498Y-78735760D01*
X94103497Y-78735763D01*
X94074500Y-78843982D01*
X94074500Y-78956018D01*
X94103497Y-79064237D01*
X94159515Y-79161263D01*
X94238737Y-79240485D01*
X94335763Y-79296503D01*
X94372531Y-79306355D01*
X94432191Y-79342717D01*
X94462722Y-79405564D01*
X94464427Y-79424383D01*
X94470685Y-79868677D01*
X94451946Y-79935987D01*
X94399792Y-79982481D01*
X94330780Y-79993397D01*
X94314604Y-79990198D01*
X94256018Y-79974500D01*
X94143982Y-79974500D01*
X94035763Y-80003497D01*
X94035760Y-80003498D01*
X93938740Y-80059513D01*
X93938734Y-80059517D01*
X93859517Y-80138734D01*
X93859513Y-80138740D01*
X93803498Y-80235760D01*
X93803497Y-80235763D01*
X93774500Y-80343982D01*
X93774500Y-80456018D01*
X93803497Y-80564237D01*
X93859515Y-80661263D01*
X93938737Y-80740485D01*
X94035763Y-80796503D01*
X94143982Y-80825500D01*
X94143984Y-80825500D01*
X94256015Y-80825500D01*
X94256018Y-80825500D01*
X94329468Y-80805819D01*
X94399315Y-80807482D01*
X94457178Y-80846644D01*
X94484682Y-80910872D01*
X94485547Y-80923848D01*
X94542459Y-84964613D01*
X94523720Y-85031923D01*
X94471566Y-85078417D01*
X94450566Y-85086133D01*
X94385763Y-85103497D01*
X94385760Y-85103498D01*
X94288740Y-85159513D01*
X94288734Y-85159517D01*
X94209517Y-85238734D01*
X94209513Y-85238740D01*
X94153498Y-85335760D01*
X94153497Y-85335763D01*
X94134115Y-85408094D01*
X94097752Y-85467754D01*
X94034906Y-85498283D01*
X94014342Y-85500000D01*
X90747939Y-85500000D01*
X90680900Y-85480315D01*
X90635145Y-85427511D01*
X90625649Y-85364145D01*
X90625500Y-85364145D01*
X90625500Y-85363148D01*
X90625000Y-85359812D01*
X90625498Y-85356021D01*
X90625500Y-85356018D01*
X90625500Y-85243982D01*
X90596503Y-85135763D01*
X90540485Y-85038737D01*
X90461263Y-84959515D01*
X90364239Y-84903498D01*
X90364238Y-84903497D01*
X90349636Y-84899584D01*
X90331706Y-84894780D01*
X90272047Y-84858415D01*
X90241518Y-84795568D01*
X90239813Y-84776752D01*
X90183753Y-80796502D01*
X90151771Y-78525745D01*
X90170510Y-78458436D01*
X90222664Y-78411942D01*
X90275759Y-78400000D01*
X94098890Y-78400000D01*
X94165929Y-78419685D01*
G37*
%TD.AperFunction*%
%TA.AperFunction,Conductor*%
G36*
X56935296Y-23124442D02*
G01*
X56984761Y-23173788D01*
X57000000Y-23233345D01*
X57000000Y-24714877D01*
X56980315Y-24781916D01*
X56927511Y-24827671D01*
X56858353Y-24837615D01*
X56843908Y-24834652D01*
X56806019Y-24824500D01*
X56806018Y-24824500D01*
X56693982Y-24824500D01*
X56585763Y-24853497D01*
X56585760Y-24853498D01*
X56488740Y-24909513D01*
X56488734Y-24909517D01*
X56409517Y-24988734D01*
X56409513Y-24988740D01*
X56353498Y-25085760D01*
X56353497Y-25085763D01*
X56324500Y-25193982D01*
X56324500Y-25306018D01*
X56353497Y-25414237D01*
X56409515Y-25511263D01*
X56488737Y-25590485D01*
X56585763Y-25646503D01*
X56693982Y-25675500D01*
X56693984Y-25675500D01*
X56806015Y-25675500D01*
X56806018Y-25675500D01*
X56843909Y-25665347D01*
X56913756Y-25667010D01*
X56971618Y-25706172D01*
X56999123Y-25770400D01*
X57000000Y-25785122D01*
X57000000Y-27576120D01*
X56991131Y-27622172D01*
X54300000Y-34349996D01*
X54300000Y-34350000D01*
X54600000Y-73700000D01*
X57378550Y-73795812D01*
X57444872Y-73817795D01*
X57488780Y-73872144D01*
X57498264Y-73921509D01*
X57399999Y-80799999D01*
X57400000Y-80800000D01*
X88877180Y-81098833D01*
X88944027Y-81119153D01*
X88989278Y-81172389D01*
X89000000Y-81222827D01*
X89000000Y-84824840D01*
X88980315Y-84891879D01*
X88927511Y-84937634D01*
X88858353Y-84947578D01*
X88814001Y-84932228D01*
X88764237Y-84903497D01*
X88656018Y-84874500D01*
X88543982Y-84874500D01*
X88435763Y-84903497D01*
X88435760Y-84903498D01*
X88338740Y-84959513D01*
X88338734Y-84959517D01*
X88259517Y-85038734D01*
X88259513Y-85038740D01*
X88203498Y-85135760D01*
X88203497Y-85135763D01*
X88174500Y-85243982D01*
X88174500Y-85248751D01*
X88154815Y-85315790D01*
X88102011Y-85361545D01*
X88053475Y-85372715D01*
X56822028Y-86122270D01*
X56754536Y-86104200D01*
X56707527Y-86052509D01*
X56695927Y-85983609D01*
X56711665Y-85936308D01*
X56753104Y-85864535D01*
X56850950Y-85628313D01*
X56917126Y-85381340D01*
X56950500Y-85127843D01*
X56950500Y-84872157D01*
X56917126Y-84618660D01*
X56850950Y-84371687D01*
X56753104Y-84135465D01*
X56753102Y-84135462D01*
X56753100Y-84135457D01*
X56625265Y-83914042D01*
X56625261Y-83914035D01*
X56469610Y-83711187D01*
X56469605Y-83711181D01*
X56288818Y-83530394D01*
X56288811Y-83530388D01*
X56085973Y-83374745D01*
X56085971Y-83374743D01*
X56085965Y-83374739D01*
X56085960Y-83374736D01*
X56085957Y-83374734D01*
X55864542Y-83246899D01*
X55864531Y-83246894D01*
X55628322Y-83149053D01*
X55628315Y-83149051D01*
X55628313Y-83149050D01*
X55381340Y-83082874D01*
X55325007Y-83075457D01*
X55127850Y-83049500D01*
X55127843Y-83049500D01*
X54872157Y-83049500D01*
X54872149Y-83049500D01*
X54646826Y-83079165D01*
X54618660Y-83082874D01*
X54371687Y-83149050D01*
X54371677Y-83149053D01*
X54135468Y-83246894D01*
X54135457Y-83246899D01*
X53914042Y-83374734D01*
X53914026Y-83374745D01*
X53711188Y-83530388D01*
X53711181Y-83530394D01*
X53530394Y-83711181D01*
X53530388Y-83711188D01*
X53374745Y-83914026D01*
X53374734Y-83914042D01*
X53246899Y-84135457D01*
X53246894Y-84135468D01*
X53149053Y-84371677D01*
X53149050Y-84371687D01*
X53082874Y-84618661D01*
X53049500Y-84872149D01*
X53049500Y-85127850D01*
X53064790Y-85243982D01*
X53082874Y-85381340D01*
X53131084Y-85561263D01*
X53149050Y-85628312D01*
X53149053Y-85628322D01*
X53246894Y-85864531D01*
X53246899Y-85864542D01*
X53338055Y-86022427D01*
X53354528Y-86090327D01*
X53331676Y-86156354D01*
X53276754Y-86199544D01*
X53233643Y-86208391D01*
X51626975Y-86246952D01*
X51559483Y-86228882D01*
X51512474Y-86177191D01*
X51500000Y-86122988D01*
X51500000Y-78043982D01*
X54774500Y-78043982D01*
X54774500Y-78156018D01*
X54803497Y-78264237D01*
X54859515Y-78361263D01*
X54938737Y-78440485D01*
X55035763Y-78496503D01*
X55143982Y-78525500D01*
X55143984Y-78525500D01*
X55256016Y-78525500D01*
X55256018Y-78525500D01*
X55364237Y-78496503D01*
X55461263Y-78440485D01*
X55540485Y-78361263D01*
X55596503Y-78264237D01*
X55625500Y-78156018D01*
X55625500Y-78043982D01*
X55596503Y-77935763D01*
X55540485Y-77838737D01*
X55461263Y-77759515D01*
X55364237Y-77703497D01*
X55256018Y-77674500D01*
X55143982Y-77674500D01*
X55035763Y-77703497D01*
X55035760Y-77703498D01*
X54938740Y-77759513D01*
X54938734Y-77759517D01*
X54859517Y-77838734D01*
X54859513Y-77838740D01*
X54803498Y-77935760D01*
X54803497Y-77935763D01*
X54774500Y-78043982D01*
X51500000Y-78043982D01*
X51500000Y-76743982D01*
X52474500Y-76743982D01*
X52474500Y-76856018D01*
X52503497Y-76964237D01*
X52559515Y-77061263D01*
X52638737Y-77140485D01*
X52735763Y-77196503D01*
X52843982Y-77225500D01*
X52843984Y-77225500D01*
X52956016Y-77225500D01*
X52956018Y-77225500D01*
X53064237Y-77196503D01*
X53161263Y-77140485D01*
X53240485Y-77061263D01*
X53296503Y-76964237D01*
X53325500Y-76856018D01*
X53325500Y-76743982D01*
X53296503Y-76635763D01*
X53240485Y-76538737D01*
X53161263Y-76459515D01*
X53064237Y-76403497D01*
X52956018Y-76374500D01*
X52843982Y-76374500D01*
X52735763Y-76403497D01*
X52735760Y-76403498D01*
X52638740Y-76459513D01*
X52638734Y-76459517D01*
X52559517Y-76538734D01*
X52559513Y-76538740D01*
X52503498Y-76635760D01*
X52503497Y-76635763D01*
X52474500Y-76743982D01*
X51500000Y-76743982D01*
X51500000Y-23615308D01*
X51519685Y-23548269D01*
X51572489Y-23502514D01*
X51615000Y-23491636D01*
X56867007Y-23109672D01*
X56935296Y-23124442D01*
G37*
%TD.AperFunction*%
%TA.AperFunction,Conductor*%
G36*
X133250000Y-53000000D02*
G01*
X124624000Y-53000000D01*
X124556961Y-52980315D01*
X124511206Y-52927511D01*
X124500000Y-52876000D01*
X124500000Y-51743982D01*
X125374500Y-51743982D01*
X125374500Y-51856018D01*
X125403497Y-51964237D01*
X125459515Y-52061263D01*
X125538737Y-52140485D01*
X125635763Y-52196503D01*
X125743982Y-52225500D01*
X125743984Y-52225500D01*
X125856016Y-52225500D01*
X125856018Y-52225500D01*
X125964237Y-52196503D01*
X126061263Y-52140485D01*
X126140485Y-52061263D01*
X126196503Y-51964237D01*
X126225500Y-51856018D01*
X126225500Y-51743982D01*
X126196503Y-51635763D01*
X126140485Y-51538737D01*
X126061263Y-51459515D01*
X125964237Y-51403497D01*
X125856018Y-51374500D01*
X125743982Y-51374500D01*
X125635763Y-51403497D01*
X125635760Y-51403498D01*
X125538740Y-51459513D01*
X125538734Y-51459517D01*
X125459517Y-51538734D01*
X125459513Y-51538740D01*
X125403498Y-51635760D01*
X125403497Y-51635763D01*
X125374500Y-51743982D01*
X124500000Y-51743982D01*
X124500000Y-50543982D01*
X126074500Y-50543982D01*
X126074500Y-50656018D01*
X126103497Y-50764237D01*
X126159515Y-50861263D01*
X126238737Y-50940485D01*
X126335763Y-50996503D01*
X126443982Y-51025500D01*
X126443984Y-51025500D01*
X126556016Y-51025500D01*
X126556018Y-51025500D01*
X126664237Y-50996503D01*
X126761263Y-50940485D01*
X126840485Y-50861263D01*
X126896503Y-50764237D01*
X126925500Y-50656018D01*
X126925500Y-50543982D01*
X126896503Y-50435763D01*
X126840485Y-50338737D01*
X126761263Y-50259515D01*
X126664237Y-50203497D01*
X126556018Y-50174500D01*
X126443982Y-50174500D01*
X126335763Y-50203497D01*
X126335760Y-50203498D01*
X126238740Y-50259513D01*
X126238734Y-50259517D01*
X126159517Y-50338734D01*
X126159513Y-50338740D01*
X126103498Y-50435760D01*
X126103497Y-50435763D01*
X126074500Y-50543982D01*
X124500000Y-50543982D01*
X124500000Y-48473269D01*
X124519685Y-48406230D01*
X124572489Y-48360475D01*
X124641647Y-48350531D01*
X124705203Y-48379556D01*
X124741931Y-48434950D01*
X124795244Y-48599031D01*
X124888141Y-48781350D01*
X124888147Y-48781359D01*
X124920523Y-48825921D01*
X124920524Y-48825922D01*
X125476212Y-48270234D01*
X125487482Y-48312292D01*
X125559890Y-48437708D01*
X125662292Y-48540110D01*
X125787708Y-48612518D01*
X125829765Y-48623787D01*
X125274076Y-49179474D01*
X125318650Y-49211859D01*
X125500968Y-49304755D01*
X125695582Y-49367990D01*
X125897683Y-49400000D01*
X126102317Y-49400000D01*
X126304417Y-49367990D01*
X126499031Y-49304755D01*
X126681349Y-49211859D01*
X126705954Y-49193982D01*
X128824500Y-49193982D01*
X128824500Y-49306018D01*
X128849683Y-49400000D01*
X128853497Y-49414236D01*
X128853498Y-49414239D01*
X128872169Y-49446579D01*
X128909515Y-49511263D01*
X128988737Y-49590485D01*
X129085763Y-49646503D01*
X129193982Y-49675500D01*
X129193984Y-49675500D01*
X129306016Y-49675500D01*
X129306018Y-49675500D01*
X129414237Y-49646503D01*
X129511263Y-49590485D01*
X129590485Y-49511263D01*
X129644580Y-49417566D01*
X129695147Y-49369352D01*
X129763754Y-49356128D01*
X129770771Y-49357394D01*
X129770780Y-49357332D01*
X129778834Y-49358392D01*
X129778836Y-49358393D01*
X129778838Y-49358393D01*
X129890870Y-49358393D01*
X129890872Y-49358393D01*
X129999091Y-49329396D01*
X130096117Y-49273378D01*
X130175339Y-49194156D01*
X130231357Y-49097130D01*
X130260354Y-48988911D01*
X130260354Y-48876875D01*
X130231357Y-48768656D01*
X130175339Y-48671630D01*
X130096117Y-48592408D01*
X129999091Y-48536390D01*
X129890872Y-48507393D01*
X129778836Y-48507393D01*
X129670617Y-48536390D01*
X129670614Y-48536391D01*
X129573594Y-48592406D01*
X129573588Y-48592410D01*
X129494371Y-48671627D01*
X129494369Y-48671630D01*
X129440273Y-48765326D01*
X129389705Y-48813541D01*
X129321098Y-48826763D01*
X129314082Y-48825497D01*
X129314074Y-48825561D01*
X129306019Y-48824500D01*
X129306018Y-48824500D01*
X129193982Y-48824500D01*
X129085763Y-48853497D01*
X129085760Y-48853498D01*
X128988740Y-48909513D01*
X128988734Y-48909517D01*
X128909517Y-48988734D01*
X128909513Y-48988740D01*
X128853498Y-49085760D01*
X128853497Y-49085763D01*
X128824500Y-49193982D01*
X126705954Y-49193982D01*
X126725921Y-49179475D01*
X126725921Y-49179473D01*
X126170234Y-48623787D01*
X126212292Y-48612518D01*
X126337708Y-48540110D01*
X126440110Y-48437708D01*
X126512518Y-48312292D01*
X126523787Y-48270235D01*
X127079474Y-48825922D01*
X127079474Y-48825921D01*
X127111859Y-48781349D01*
X127204755Y-48599031D01*
X127267990Y-48404417D01*
X127300000Y-48202317D01*
X127300000Y-47997682D01*
X127267990Y-47795582D01*
X127204755Y-47600968D01*
X127111859Y-47418650D01*
X127079474Y-47374077D01*
X127079474Y-47374076D01*
X126523787Y-47929764D01*
X126512518Y-47887708D01*
X126440110Y-47762292D01*
X126337708Y-47659890D01*
X126212292Y-47587482D01*
X126170233Y-47576212D01*
X126725922Y-47020524D01*
X126725921Y-47020523D01*
X126681359Y-46988147D01*
X126681350Y-46988141D01*
X126499031Y-46895244D01*
X126304417Y-46832009D01*
X126102317Y-46800000D01*
X125897683Y-46800000D01*
X125695582Y-46832009D01*
X125500968Y-46895244D01*
X125318644Y-46988143D01*
X125274077Y-47020523D01*
X125274077Y-47020524D01*
X125829766Y-47576212D01*
X125787708Y-47587482D01*
X125662292Y-47659890D01*
X125559890Y-47762292D01*
X125487482Y-47887708D01*
X125476212Y-47929765D01*
X124920524Y-47374077D01*
X124920523Y-47374077D01*
X124888143Y-47418644D01*
X124795244Y-47600968D01*
X124741931Y-47765049D01*
X124702493Y-47822724D01*
X124638134Y-47849922D01*
X124569288Y-47838007D01*
X124517812Y-47790763D01*
X124500000Y-47726730D01*
X124500000Y-46124000D01*
X124519685Y-46056961D01*
X124572489Y-46011206D01*
X124624000Y-46000000D01*
X133000000Y-46000000D01*
X133250000Y-53000000D01*
G37*
%TD.AperFunction*%
%TA.AperFunction,Conductor*%
G36*
X90240122Y-58319685D02*
G01*
X90285877Y-58372489D01*
X90297049Y-58426883D01*
X90204824Y-62392590D01*
X90202817Y-62478883D01*
X90181580Y-62545447D01*
X90127726Y-62589961D01*
X90078851Y-62600000D01*
X83730045Y-62600000D01*
X83663006Y-62580315D01*
X83617251Y-62527511D01*
X83607307Y-62458353D01*
X83636332Y-62394797D01*
X83695110Y-62357023D01*
X83697915Y-62356235D01*
X83734237Y-62346503D01*
X83831263Y-62290485D01*
X83910485Y-62211263D01*
X83966503Y-62114237D01*
X83995500Y-62006018D01*
X83995500Y-61893982D01*
X83982103Y-61843982D01*
X84299500Y-61843982D01*
X84299500Y-61956018D01*
X84328497Y-62064237D01*
X84384515Y-62161263D01*
X84463737Y-62240485D01*
X84560763Y-62296503D01*
X84668982Y-62325500D01*
X84668984Y-62325500D01*
X84781016Y-62325500D01*
X84781018Y-62325500D01*
X84889237Y-62296503D01*
X84986263Y-62240485D01*
X85065485Y-62161263D01*
X85121503Y-62064237D01*
X85150500Y-61956018D01*
X85150500Y-61843982D01*
X85121503Y-61735763D01*
X85065485Y-61638737D01*
X84986263Y-61559515D01*
X84975841Y-61553498D01*
X84889239Y-61503498D01*
X84889238Y-61503497D01*
X84889237Y-61503497D01*
X84781018Y-61474500D01*
X84668982Y-61474500D01*
X84560763Y-61503497D01*
X84560760Y-61503498D01*
X84463740Y-61559513D01*
X84463734Y-61559517D01*
X84384517Y-61638734D01*
X84384513Y-61638740D01*
X84328498Y-61735760D01*
X84328497Y-61735763D01*
X84299500Y-61843982D01*
X83982103Y-61843982D01*
X83966503Y-61785763D01*
X83910485Y-61688737D01*
X83831263Y-61609515D01*
X83744664Y-61559517D01*
X83734239Y-61553498D01*
X83734238Y-61553497D01*
X83734237Y-61553497D01*
X83626018Y-61524500D01*
X83513982Y-61524500D01*
X83405763Y-61553497D01*
X83405760Y-61553498D01*
X83308740Y-61609513D01*
X83308734Y-61609517D01*
X83229517Y-61688734D01*
X83229513Y-61688740D01*
X83173498Y-61785760D01*
X83173497Y-61785763D01*
X83144500Y-61893982D01*
X83144500Y-62006018D01*
X83173497Y-62114237D01*
X83229515Y-62211263D01*
X83308737Y-62290485D01*
X83405763Y-62346503D01*
X83442049Y-62356225D01*
X83501709Y-62392590D01*
X83532238Y-62455437D01*
X83523943Y-62524812D01*
X83479458Y-62578690D01*
X83412906Y-62599965D01*
X83409955Y-62600000D01*
X71424000Y-62600000D01*
X71356961Y-62580315D01*
X71311206Y-62527511D01*
X71300000Y-62476000D01*
X71300000Y-61463982D01*
X87824500Y-61463982D01*
X87824500Y-61576018D01*
X87853497Y-61684237D01*
X87909515Y-61781263D01*
X87988737Y-61860485D01*
X88085763Y-61916503D01*
X88193982Y-61945500D01*
X88193984Y-61945500D01*
X88306016Y-61945500D01*
X88306018Y-61945500D01*
X88414237Y-61916503D01*
X88511263Y-61860485D01*
X88590485Y-61781263D01*
X88646503Y-61684237D01*
X88675500Y-61576018D01*
X88675500Y-61463982D01*
X88646503Y-61355763D01*
X88590485Y-61258737D01*
X88511263Y-61179515D01*
X88414237Y-61123497D01*
X88306018Y-61094500D01*
X88193982Y-61094500D01*
X88085763Y-61123497D01*
X88085760Y-61123498D01*
X87988740Y-61179513D01*
X87988734Y-61179517D01*
X87909517Y-61258734D01*
X87909513Y-61258740D01*
X87853498Y-61355760D01*
X87853497Y-61355763D01*
X87824500Y-61463982D01*
X71300000Y-61463982D01*
X71300000Y-60143982D01*
X86294500Y-60143982D01*
X86294500Y-60256018D01*
X86323497Y-60364237D01*
X86379515Y-60461263D01*
X86458737Y-60540485D01*
X86555763Y-60596503D01*
X86663982Y-60625500D01*
X86663984Y-60625500D01*
X86776016Y-60625500D01*
X86776018Y-60625500D01*
X86884237Y-60596503D01*
X86981263Y-60540485D01*
X87060485Y-60461263D01*
X87116503Y-60364237D01*
X87145500Y-60256018D01*
X87145500Y-60143982D01*
X87116503Y-60035763D01*
X87060485Y-59938737D01*
X86981263Y-59859515D01*
X86884237Y-59803497D01*
X86776018Y-59774500D01*
X86663982Y-59774500D01*
X86555763Y-59803497D01*
X86555760Y-59803498D01*
X86458740Y-59859513D01*
X86458734Y-59859517D01*
X86379517Y-59938734D01*
X86379513Y-59938740D01*
X86323498Y-60035760D01*
X86323497Y-60035763D01*
X86294500Y-60143982D01*
X71300000Y-60143982D01*
X71300000Y-58424000D01*
X71319685Y-58356961D01*
X71372489Y-58311206D01*
X71424000Y-58300000D01*
X90173083Y-58300000D01*
X90240122Y-58319685D01*
G37*
%TD.AperFunction*%
%TA.AperFunction,Conductor*%
G36*
X67443039Y-17769685D02*
G01*
X67488794Y-17822489D01*
X67500000Y-17874000D01*
X67500000Y-29129593D01*
X67480315Y-29196632D01*
X67427511Y-29242387D01*
X67379645Y-29253539D01*
X59124957Y-29496324D01*
X59057368Y-29478619D01*
X59010081Y-29427183D01*
X58997340Y-29375019D01*
X58917167Y-25606866D01*
X58935421Y-25539425D01*
X58987240Y-25492557D01*
X59056171Y-25481145D01*
X59120330Y-25508811D01*
X59148525Y-25542227D01*
X59159515Y-25561263D01*
X59238737Y-25640485D01*
X59335763Y-25696503D01*
X59443982Y-25725500D01*
X59443984Y-25725500D01*
X59556016Y-25725500D01*
X59556018Y-25725500D01*
X59664237Y-25696503D01*
X59761263Y-25640485D01*
X59812319Y-25589429D01*
X59873642Y-25555944D01*
X59943334Y-25560928D01*
X59987681Y-25589429D01*
X60038737Y-25640485D01*
X60135763Y-25696503D01*
X60243982Y-25725500D01*
X60243984Y-25725500D01*
X60356016Y-25725500D01*
X60356018Y-25725500D01*
X60464237Y-25696503D01*
X60561263Y-25640485D01*
X60640485Y-25561263D01*
X60642613Y-25557576D01*
X60645220Y-25555090D01*
X60645433Y-25554814D01*
X60645476Y-25554847D01*
X60693179Y-25509362D01*
X60761786Y-25496138D01*
X60826651Y-25522106D01*
X60857386Y-25557576D01*
X60859515Y-25561263D01*
X60938737Y-25640485D01*
X61035763Y-25696503D01*
X61143982Y-25725500D01*
X61143984Y-25725500D01*
X61256016Y-25725500D01*
X61256018Y-25725500D01*
X61364237Y-25696503D01*
X61368603Y-25693982D01*
X62824500Y-25693982D01*
X62824500Y-25806018D01*
X62853497Y-25914237D01*
X62909515Y-26011263D01*
X62988737Y-26090485D01*
X63085763Y-26146503D01*
X63193982Y-26175500D01*
X63193984Y-26175500D01*
X63306016Y-26175500D01*
X63306018Y-26175500D01*
X63414237Y-26146503D01*
X63511263Y-26090485D01*
X63590485Y-26011263D01*
X63646503Y-25914237D01*
X63675500Y-25806018D01*
X63675500Y-25693982D01*
X63646503Y-25585763D01*
X63590485Y-25488737D01*
X63511263Y-25409515D01*
X63446579Y-25372169D01*
X63414239Y-25353498D01*
X63414238Y-25353497D01*
X63414237Y-25353497D01*
X63306018Y-25324500D01*
X63193982Y-25324500D01*
X63085763Y-25353497D01*
X63085760Y-25353498D01*
X62988740Y-25409513D01*
X62988734Y-25409517D01*
X62909517Y-25488734D01*
X62909513Y-25488740D01*
X62853498Y-25585760D01*
X62853497Y-25585763D01*
X62824500Y-25693982D01*
X61368603Y-25693982D01*
X61461263Y-25640485D01*
X61540485Y-25561263D01*
X61596503Y-25464237D01*
X61625500Y-25356018D01*
X61625500Y-25243982D01*
X61596503Y-25135763D01*
X61540485Y-25038737D01*
X61539429Y-25037681D01*
X61538824Y-25036573D01*
X61535538Y-25032291D01*
X61536205Y-25031778D01*
X61505944Y-24976358D01*
X61510928Y-24906666D01*
X61535823Y-24867928D01*
X61535538Y-24867709D01*
X61538165Y-24864284D01*
X61539429Y-24862319D01*
X61540485Y-24861263D01*
X61596503Y-24764237D01*
X61625500Y-24656018D01*
X61625500Y-24543982D01*
X61596503Y-24435763D01*
X61540485Y-24338737D01*
X61461263Y-24259515D01*
X61364237Y-24203497D01*
X61256018Y-24174500D01*
X61143982Y-24174500D01*
X61035763Y-24203497D01*
X61035760Y-24203498D01*
X60938740Y-24259513D01*
X60938734Y-24259517D01*
X60859517Y-24338734D01*
X60859513Y-24338740D01*
X60857385Y-24342426D01*
X60854776Y-24344913D01*
X60854567Y-24345186D01*
X60854524Y-24345153D01*
X60806816Y-24390640D01*
X60738209Y-24403860D01*
X60673345Y-24377890D01*
X60642615Y-24342426D01*
X60642244Y-24341784D01*
X60640485Y-24338737D01*
X60561263Y-24259515D01*
X60488571Y-24217546D01*
X60440356Y-24166980D01*
X60427133Y-24098373D01*
X60453101Y-24033508D01*
X60510015Y-23992980D01*
X60518471Y-23990387D01*
X60529237Y-23987503D01*
X60626263Y-23931485D01*
X60705485Y-23852263D01*
X60714372Y-23836869D01*
X60764936Y-23788655D01*
X60833543Y-23775430D01*
X60898408Y-23801397D01*
X60909440Y-23811188D01*
X60938737Y-23840485D01*
X61035763Y-23896503D01*
X61143982Y-23925500D01*
X61143984Y-23925500D01*
X61256016Y-23925500D01*
X61256018Y-23925500D01*
X61364237Y-23896503D01*
X61461263Y-23840485D01*
X61540485Y-23761263D01*
X61596503Y-23664237D01*
X61625500Y-23556018D01*
X61625500Y-23443982D01*
X61596503Y-23335763D01*
X61540485Y-23238737D01*
X61461263Y-23159515D01*
X61410312Y-23130098D01*
X61362098Y-23079531D01*
X61348876Y-23010924D01*
X61374844Y-22946060D01*
X61431759Y-22905532D01*
X61440210Y-22902940D01*
X61464237Y-22896503D01*
X61561263Y-22840485D01*
X61640485Y-22761263D01*
X61696503Y-22664237D01*
X61725500Y-22556018D01*
X61725500Y-22443982D01*
X61696503Y-22335763D01*
X61640485Y-22238737D01*
X61589429Y-22187681D01*
X61555944Y-22126358D01*
X61560928Y-22056666D01*
X61589429Y-22012319D01*
X61640485Y-21961263D01*
X61696503Y-21864237D01*
X61725500Y-21756018D01*
X61725500Y-21643982D01*
X61696503Y-21535763D01*
X61640485Y-21438737D01*
X61561263Y-21359515D01*
X61464237Y-21303497D01*
X61356018Y-21274500D01*
X61243982Y-21274500D01*
X61135763Y-21303497D01*
X61135760Y-21303498D01*
X61038740Y-21359513D01*
X61038734Y-21359517D01*
X60959517Y-21438734D01*
X60959513Y-21438740D01*
X60957385Y-21442426D01*
X60954776Y-21444913D01*
X60954567Y-21445186D01*
X60954524Y-21445153D01*
X60906816Y-21490640D01*
X60838209Y-21503860D01*
X60773345Y-21477890D01*
X60742615Y-21442426D01*
X60742244Y-21441784D01*
X60740485Y-21438737D01*
X60661263Y-21359515D01*
X60564237Y-21303497D01*
X60456018Y-21274500D01*
X60343982Y-21274500D01*
X60235763Y-21303497D01*
X60235760Y-21303498D01*
X60138740Y-21359513D01*
X60138734Y-21359517D01*
X60059517Y-21438734D01*
X60059513Y-21438740D01*
X60057385Y-21442426D01*
X60054776Y-21444913D01*
X60054567Y-21445186D01*
X60054524Y-21445153D01*
X60006816Y-21490640D01*
X59938209Y-21503860D01*
X59873345Y-21477890D01*
X59842615Y-21442426D01*
X59842244Y-21441784D01*
X59840485Y-21438737D01*
X59761263Y-21359515D01*
X59664237Y-21303497D01*
X59556018Y-21274500D01*
X59443982Y-21274500D01*
X59335763Y-21303497D01*
X59335760Y-21303498D01*
X59238740Y-21359513D01*
X59238734Y-21359517D01*
X59159517Y-21438734D01*
X59159513Y-21438740D01*
X59103498Y-21535760D01*
X59103497Y-21535761D01*
X59080434Y-21621832D01*
X59080434Y-21621835D01*
X59074500Y-21643982D01*
X59074500Y-21756018D01*
X59084048Y-21791651D01*
X59103497Y-21864238D01*
X59103498Y-21864239D01*
X59159515Y-21961263D01*
X59159517Y-21961265D01*
X59210571Y-22012319D01*
X59244056Y-22073642D01*
X59239072Y-22143334D01*
X59210571Y-22187681D01*
X59159517Y-22238734D01*
X59159513Y-22238740D01*
X59103498Y-22335760D01*
X59103496Y-22335765D01*
X59091630Y-22380048D01*
X59055264Y-22439707D01*
X58992417Y-22470236D01*
X58923041Y-22461939D01*
X58869164Y-22417453D01*
X58847891Y-22350902D01*
X58796680Y-19943982D01*
X62074500Y-19943982D01*
X62074500Y-20056018D01*
X62103497Y-20164237D01*
X62159515Y-20261263D01*
X62238737Y-20340485D01*
X62335763Y-20396503D01*
X62443982Y-20425500D01*
X62443984Y-20425500D01*
X62556016Y-20425500D01*
X62556018Y-20425500D01*
X62664237Y-20396503D01*
X62761263Y-20340485D01*
X62840485Y-20261263D01*
X62896503Y-20164237D01*
X62925500Y-20056018D01*
X62925500Y-19943982D01*
X62896503Y-19835763D01*
X62840485Y-19738737D01*
X62761263Y-19659515D01*
X62664237Y-19603497D01*
X62556018Y-19574500D01*
X62443982Y-19574500D01*
X62335763Y-19603497D01*
X62335760Y-19603498D01*
X62238740Y-19659513D01*
X62238734Y-19659517D01*
X62159517Y-19738734D01*
X62159513Y-19738740D01*
X62103498Y-19835760D01*
X62103497Y-19835763D01*
X62074500Y-19943982D01*
X58796680Y-19943982D01*
X58752694Y-17876636D01*
X58770948Y-17809195D01*
X58822767Y-17762327D01*
X58876666Y-17750000D01*
X67376000Y-17750000D01*
X67443039Y-17769685D01*
G37*
%TD.AperFunction*%
%TA.AperFunction,Conductor*%
G36*
X89393039Y-63869685D02*
G01*
X89438794Y-63922489D01*
X89450000Y-63974000D01*
X89450000Y-69643853D01*
X89450000Y-70000000D01*
X80750000Y-70000000D01*
X80750000Y-69562848D01*
X80750000Y-67043982D01*
X86474500Y-67043982D01*
X86474500Y-67156018D01*
X86503497Y-67264237D01*
X86559515Y-67361263D01*
X86638737Y-67440485D01*
X86735763Y-67496503D01*
X86843982Y-67525500D01*
X86843984Y-67525500D01*
X86956016Y-67525500D01*
X86956018Y-67525500D01*
X87064237Y-67496503D01*
X87161263Y-67440485D01*
X87240485Y-67361263D01*
X87296503Y-67264237D01*
X87325500Y-67156018D01*
X87325500Y-67043982D01*
X87296503Y-66935763D01*
X87240485Y-66838737D01*
X87161263Y-66759515D01*
X87064237Y-66703497D01*
X86956018Y-66674500D01*
X86843982Y-66674500D01*
X86735763Y-66703497D01*
X86735760Y-66703498D01*
X86638740Y-66759513D01*
X86638734Y-66759517D01*
X86559517Y-66838734D01*
X86559513Y-66838740D01*
X86503498Y-66935760D01*
X86503497Y-66935763D01*
X86474500Y-67043982D01*
X80750000Y-67043982D01*
X80750000Y-64798982D01*
X83139500Y-64798982D01*
X83139500Y-64911018D01*
X83168497Y-65019237D01*
X83224515Y-65116263D01*
X83303737Y-65195485D01*
X83400763Y-65251503D01*
X83508982Y-65280500D01*
X83508984Y-65280500D01*
X83621016Y-65280500D01*
X83621018Y-65280500D01*
X83729237Y-65251503D01*
X83826263Y-65195485D01*
X83905485Y-65116263D01*
X83961503Y-65019237D01*
X83981667Y-64943982D01*
X84299500Y-64943982D01*
X84299500Y-65056018D01*
X84328497Y-65164237D01*
X84384515Y-65261263D01*
X84463737Y-65340485D01*
X84560763Y-65396503D01*
X84668982Y-65425500D01*
X84668984Y-65425500D01*
X84781016Y-65425500D01*
X84781018Y-65425500D01*
X84889237Y-65396503D01*
X84986263Y-65340485D01*
X85065485Y-65261263D01*
X85098556Y-65203982D01*
X86334500Y-65203982D01*
X86334500Y-65316018D01*
X86356066Y-65396502D01*
X86363497Y-65424236D01*
X86363498Y-65424239D01*
X86364226Y-65425500D01*
X86419515Y-65521263D01*
X86498737Y-65600485D01*
X86595763Y-65656503D01*
X86703982Y-65685500D01*
X86703984Y-65685500D01*
X86816016Y-65685500D01*
X86816018Y-65685500D01*
X86924237Y-65656503D01*
X87021263Y-65600485D01*
X87100485Y-65521263D01*
X87156503Y-65424237D01*
X87185500Y-65316018D01*
X87185500Y-65203982D01*
X87156503Y-65095763D01*
X87100485Y-64998737D01*
X87021263Y-64919515D01*
X86924237Y-64863497D01*
X86816018Y-64834500D01*
X86703982Y-64834500D01*
X86595763Y-64863497D01*
X86595760Y-64863498D01*
X86498740Y-64919513D01*
X86498734Y-64919517D01*
X86419517Y-64998734D01*
X86419513Y-64998740D01*
X86363498Y-65095760D01*
X86363497Y-65095763D01*
X86334500Y-65203982D01*
X85098556Y-65203982D01*
X85121503Y-65164237D01*
X85150500Y-65056018D01*
X85150500Y-64943982D01*
X85121503Y-64835763D01*
X85065485Y-64738737D01*
X84986263Y-64659515D01*
X84889237Y-64603497D01*
X84781018Y-64574500D01*
X84668982Y-64574500D01*
X84560763Y-64603497D01*
X84560760Y-64603498D01*
X84463740Y-64659513D01*
X84463734Y-64659517D01*
X84384517Y-64738734D01*
X84384513Y-64738740D01*
X84328498Y-64835760D01*
X84328497Y-64835763D01*
X84299500Y-64943982D01*
X83981667Y-64943982D01*
X83990500Y-64911018D01*
X83990500Y-64798982D01*
X83961503Y-64690763D01*
X83905485Y-64593737D01*
X83826263Y-64514515D01*
X83729237Y-64458497D01*
X83621018Y-64429500D01*
X83508982Y-64429500D01*
X83400763Y-64458497D01*
X83400760Y-64458498D01*
X83303740Y-64514513D01*
X83303734Y-64514517D01*
X83224517Y-64593734D01*
X83224513Y-64593740D01*
X83168498Y-64690760D01*
X83168497Y-64690763D01*
X83139500Y-64798982D01*
X80750000Y-64798982D01*
X80750000Y-63974000D01*
X80769685Y-63906961D01*
X80822489Y-63861206D01*
X80874000Y-63850000D01*
X89326000Y-63850000D01*
X89393039Y-63869685D01*
G37*
%TD.AperFunction*%
%TA.AperFunction,Conductor*%
G36*
X91545025Y-16720202D02*
G01*
X91591274Y-16772574D01*
X91602932Y-16822167D01*
X91899999Y-29199999D01*
X91900000Y-29200000D01*
X126979417Y-29399314D01*
X127046341Y-29419379D01*
X127091795Y-29472442D01*
X127102679Y-29520557D01*
X127146090Y-31474099D01*
X127127900Y-31541559D01*
X127076126Y-31588476D01*
X127007205Y-31599954D01*
X126978789Y-31593036D01*
X126907383Y-31566403D01*
X126907372Y-31566401D01*
X126847844Y-31560000D01*
X126250000Y-31560000D01*
X126250000Y-32369252D01*
X126212292Y-32347482D01*
X126072409Y-32310000D01*
X125927591Y-32310000D01*
X125787708Y-32347482D01*
X125750000Y-32369252D01*
X125750000Y-31560000D01*
X125152155Y-31560000D01*
X125092627Y-31566401D01*
X125092620Y-31566403D01*
X124957913Y-31616645D01*
X124957906Y-31616649D01*
X124842812Y-31702809D01*
X124842809Y-31702812D01*
X124756649Y-31817906D01*
X124756645Y-31817913D01*
X124706403Y-31952620D01*
X124706401Y-31952627D01*
X124700000Y-32012155D01*
X124700000Y-32610000D01*
X125509252Y-32610000D01*
X125487482Y-32647708D01*
X125450000Y-32787591D01*
X125450000Y-32932409D01*
X125487482Y-33072292D01*
X125509252Y-33110000D01*
X124700000Y-33110000D01*
X124700000Y-33707844D01*
X124706401Y-33767372D01*
X124706403Y-33767379D01*
X124756645Y-33902086D01*
X124756649Y-33902093D01*
X124842809Y-34017187D01*
X124842812Y-34017190D01*
X124957906Y-34103350D01*
X124957913Y-34103354D01*
X125092620Y-34153596D01*
X125092627Y-34153598D01*
X125152155Y-34159999D01*
X125152172Y-34160000D01*
X125750000Y-34160000D01*
X125750000Y-33350747D01*
X125787708Y-33372518D01*
X125927591Y-33410000D01*
X126072409Y-33410000D01*
X126212292Y-33372518D01*
X126250000Y-33350747D01*
X126250000Y-34160000D01*
X126847828Y-34160000D01*
X126847844Y-34159999D01*
X126907372Y-34153598D01*
X126907376Y-34153597D01*
X127039755Y-34104223D01*
X127109447Y-34099239D01*
X127170770Y-34132724D01*
X127204255Y-34194047D01*
X127207058Y-34217650D01*
X127397183Y-42773245D01*
X127378993Y-42840705D01*
X127327219Y-42887622D01*
X127273214Y-42900000D01*
X121251362Y-42900000D01*
X121184323Y-42880315D01*
X121163681Y-42863681D01*
X110900000Y-32600000D01*
X99118091Y-32600000D01*
X99051052Y-32580315D01*
X99005297Y-32527511D01*
X99003530Y-32523452D01*
X98946635Y-32386091D01*
X98946628Y-32386079D01*
X98837139Y-32222218D01*
X98837136Y-32222214D01*
X98697785Y-32082863D01*
X98697781Y-32082860D01*
X98533920Y-31973371D01*
X98533907Y-31973364D01*
X98351839Y-31897950D01*
X98351829Y-31897947D01*
X98158543Y-31859500D01*
X98158541Y-31859500D01*
X97961459Y-31859500D01*
X97961457Y-31859500D01*
X97768170Y-31897947D01*
X97768160Y-31897950D01*
X97586092Y-31973364D01*
X97586079Y-31973371D01*
X97422218Y-32082860D01*
X97422214Y-32082863D01*
X97282863Y-32222214D01*
X97282860Y-32222218D01*
X97173371Y-32386079D01*
X97173364Y-32386091D01*
X97116470Y-32523452D01*
X97072630Y-32577856D01*
X97006336Y-32599921D01*
X97001909Y-32600000D01*
X96578091Y-32600000D01*
X96511052Y-32580315D01*
X96465297Y-32527511D01*
X96463530Y-32523452D01*
X96406635Y-32386091D01*
X96406628Y-32386079D01*
X96297139Y-32222218D01*
X96297136Y-32222214D01*
X96157785Y-32082863D01*
X96157781Y-32082860D01*
X95993920Y-31973371D01*
X95993907Y-31973364D01*
X95811839Y-31897950D01*
X95811829Y-31897947D01*
X95618543Y-31859500D01*
X95618541Y-31859500D01*
X95421459Y-31859500D01*
X95421457Y-31859500D01*
X95228170Y-31897947D01*
X95228160Y-31897950D01*
X95046092Y-31973364D01*
X95046079Y-31973371D01*
X94882218Y-32082860D01*
X94882214Y-32082863D01*
X94742863Y-32222214D01*
X94742860Y-32222218D01*
X94633371Y-32386079D01*
X94633364Y-32386091D01*
X94576470Y-32523452D01*
X94532630Y-32577856D01*
X94466336Y-32599921D01*
X94461909Y-32600000D01*
X94038091Y-32600000D01*
X93971052Y-32580315D01*
X93925297Y-32527511D01*
X93923530Y-32523452D01*
X93866635Y-32386091D01*
X93866628Y-32386079D01*
X93757139Y-32222218D01*
X93757136Y-32222214D01*
X93617785Y-32082863D01*
X93617781Y-32082860D01*
X93453920Y-31973371D01*
X93453907Y-31973364D01*
X93271839Y-31897950D01*
X93271829Y-31897947D01*
X93078543Y-31859500D01*
X93078541Y-31859500D01*
X92881459Y-31859500D01*
X92881457Y-31859500D01*
X92688170Y-31897947D01*
X92688160Y-31897950D01*
X92506092Y-31973364D01*
X92506079Y-31973371D01*
X92342218Y-32082860D01*
X92342214Y-32082863D01*
X92202863Y-32222214D01*
X92202860Y-32222218D01*
X92093371Y-32386079D01*
X92093364Y-32386091D01*
X92036470Y-32523452D01*
X91992630Y-32577856D01*
X91926336Y-32599921D01*
X91921909Y-32600000D01*
X91498091Y-32600000D01*
X91431052Y-32580315D01*
X91385297Y-32527511D01*
X91383530Y-32523452D01*
X91326635Y-32386091D01*
X91326628Y-32386079D01*
X91217139Y-32222218D01*
X91217136Y-32222214D01*
X91077785Y-32082863D01*
X91077781Y-32082860D01*
X90913920Y-31973371D01*
X90913907Y-31973364D01*
X90731839Y-31897950D01*
X90731829Y-31897947D01*
X90538543Y-31859500D01*
X90538541Y-31859500D01*
X90341459Y-31859500D01*
X90341457Y-31859500D01*
X90148170Y-31897947D01*
X90148160Y-31897950D01*
X89966092Y-31973364D01*
X89966079Y-31973371D01*
X89802218Y-32082860D01*
X89802214Y-32082863D01*
X89662863Y-32222214D01*
X89662860Y-32222218D01*
X89553371Y-32386079D01*
X89553364Y-32386091D01*
X89496470Y-32523452D01*
X89452630Y-32577856D01*
X89386336Y-32599921D01*
X89381909Y-32600000D01*
X88958091Y-32600000D01*
X88891052Y-32580315D01*
X88845297Y-32527511D01*
X88843530Y-32523452D01*
X88786635Y-32386091D01*
X88786628Y-32386079D01*
X88677139Y-32222218D01*
X88677136Y-32222214D01*
X88537785Y-32082863D01*
X88537781Y-32082860D01*
X88373920Y-31973371D01*
X88373907Y-31973364D01*
X88191839Y-31897950D01*
X88191829Y-31897947D01*
X87998543Y-31859500D01*
X87998541Y-31859500D01*
X87801459Y-31859500D01*
X87801457Y-31859500D01*
X87608170Y-31897947D01*
X87608160Y-31897950D01*
X87426092Y-31973364D01*
X87426079Y-31973371D01*
X87262218Y-32082860D01*
X87262214Y-32082863D01*
X87122863Y-32222214D01*
X87122860Y-32222218D01*
X87013371Y-32386079D01*
X87013364Y-32386091D01*
X86956470Y-32523452D01*
X86912630Y-32577856D01*
X86846336Y-32599921D01*
X86841909Y-32600000D01*
X86418091Y-32600000D01*
X86351052Y-32580315D01*
X86305297Y-32527511D01*
X86303530Y-32523452D01*
X86246635Y-32386091D01*
X86246628Y-32386079D01*
X86137139Y-32222218D01*
X86137136Y-32222214D01*
X85997785Y-32082863D01*
X85997781Y-32082860D01*
X85833920Y-31973371D01*
X85833907Y-31973364D01*
X85651839Y-31897950D01*
X85651829Y-31897947D01*
X85458543Y-31859500D01*
X85458541Y-31859500D01*
X85261459Y-31859500D01*
X85261457Y-31859500D01*
X85068170Y-31897947D01*
X85068160Y-31897950D01*
X84886092Y-31973364D01*
X84886079Y-31973371D01*
X84722218Y-32082860D01*
X84722214Y-32082863D01*
X84582863Y-32222214D01*
X84582860Y-32222218D01*
X84473371Y-32386079D01*
X84473364Y-32386091D01*
X84416470Y-32523452D01*
X84372630Y-32577856D01*
X84306336Y-32599921D01*
X84301909Y-32600000D01*
X83878091Y-32600000D01*
X83811052Y-32580315D01*
X83765297Y-32527511D01*
X83763530Y-32523452D01*
X83706635Y-32386091D01*
X83706628Y-32386079D01*
X83597139Y-32222218D01*
X83597136Y-32222214D01*
X83457785Y-32082863D01*
X83457781Y-32082860D01*
X83293920Y-31973371D01*
X83293907Y-31973364D01*
X83111839Y-31897950D01*
X83111829Y-31897947D01*
X82918543Y-31859500D01*
X82918541Y-31859500D01*
X82721459Y-31859500D01*
X82721457Y-31859500D01*
X82528170Y-31897947D01*
X82528160Y-31897950D01*
X82346092Y-31973364D01*
X82346079Y-31973371D01*
X82182218Y-32082860D01*
X82182214Y-32082863D01*
X82042863Y-32222214D01*
X82042860Y-32222218D01*
X81933371Y-32386079D01*
X81933364Y-32386091D01*
X81876470Y-32523452D01*
X81832630Y-32577856D01*
X81766336Y-32599921D01*
X81761909Y-32600000D01*
X81338091Y-32600000D01*
X81271052Y-32580315D01*
X81225297Y-32527511D01*
X81223530Y-32523452D01*
X81166635Y-32386091D01*
X81166628Y-32386079D01*
X81057139Y-32222218D01*
X81057136Y-32222214D01*
X80917785Y-32082863D01*
X80917781Y-32082860D01*
X80753920Y-31973371D01*
X80753907Y-31973364D01*
X80571839Y-31897950D01*
X80571829Y-31897947D01*
X80378543Y-31859500D01*
X80378541Y-31859500D01*
X80181459Y-31859500D01*
X80181457Y-31859500D01*
X79988170Y-31897947D01*
X79988160Y-31897950D01*
X79806092Y-31973364D01*
X79806079Y-31973371D01*
X79642218Y-32082860D01*
X79642214Y-32082863D01*
X79502863Y-32222214D01*
X79502860Y-32222218D01*
X79393371Y-32386079D01*
X79393364Y-32386091D01*
X79336470Y-32523452D01*
X79292630Y-32577856D01*
X79226336Y-32599921D01*
X79221909Y-32600000D01*
X78798091Y-32600000D01*
X78731052Y-32580315D01*
X78685297Y-32527511D01*
X78683530Y-32523452D01*
X78626635Y-32386091D01*
X78626628Y-32386079D01*
X78517139Y-32222218D01*
X78517136Y-32222214D01*
X78377785Y-32082863D01*
X78377781Y-32082860D01*
X78213920Y-31973371D01*
X78213907Y-31973364D01*
X78031839Y-31897950D01*
X78031829Y-31897947D01*
X77838543Y-31859500D01*
X77838541Y-31859500D01*
X77641459Y-31859500D01*
X77641457Y-31859500D01*
X77448170Y-31897947D01*
X77448160Y-31897950D01*
X77266092Y-31973364D01*
X77266079Y-31973371D01*
X77102218Y-32082860D01*
X77102214Y-32082863D01*
X76962863Y-32222214D01*
X76962860Y-32222218D01*
X76853371Y-32386079D01*
X76853364Y-32386091D01*
X76796470Y-32523452D01*
X76752630Y-32577856D01*
X76686336Y-32599921D01*
X76681909Y-32600000D01*
X76258091Y-32600000D01*
X76191052Y-32580315D01*
X76145297Y-32527511D01*
X76143530Y-32523452D01*
X76086635Y-32386091D01*
X76086628Y-32386079D01*
X75977139Y-32222218D01*
X75977136Y-32222214D01*
X75837785Y-32082863D01*
X75837781Y-32082860D01*
X75673920Y-31973371D01*
X75673907Y-31973364D01*
X75491839Y-31897950D01*
X75491829Y-31897947D01*
X75298543Y-31859500D01*
X75298541Y-31859500D01*
X75101459Y-31859500D01*
X75101457Y-31859500D01*
X74908170Y-31897947D01*
X74908160Y-31897950D01*
X74726092Y-31973364D01*
X74726079Y-31973371D01*
X74562218Y-32082860D01*
X74562214Y-32082863D01*
X74422863Y-32222214D01*
X74422860Y-32222218D01*
X74313371Y-32386079D01*
X74313364Y-32386091D01*
X74256470Y-32523452D01*
X74212630Y-32577856D01*
X74146336Y-32599921D01*
X74141909Y-32600000D01*
X73718091Y-32600000D01*
X73651052Y-32580315D01*
X73605297Y-32527511D01*
X73603530Y-32523452D01*
X73546635Y-32386091D01*
X73546628Y-32386079D01*
X73437139Y-32222218D01*
X73437136Y-32222214D01*
X73297785Y-32082863D01*
X73297781Y-32082860D01*
X73133920Y-31973371D01*
X73133907Y-31973364D01*
X72951839Y-31897950D01*
X72951829Y-31897947D01*
X72758543Y-31859500D01*
X72758541Y-31859500D01*
X72561459Y-31859500D01*
X72561457Y-31859500D01*
X72368170Y-31897947D01*
X72368160Y-31897950D01*
X72186092Y-31973364D01*
X72186079Y-31973371D01*
X72022218Y-32082860D01*
X72022214Y-32082863D01*
X71882863Y-32222214D01*
X71882860Y-32222218D01*
X71773371Y-32386079D01*
X71773364Y-32386091D01*
X71716470Y-32523452D01*
X71672630Y-32577856D01*
X71606336Y-32599921D01*
X71601909Y-32600000D01*
X71178091Y-32600000D01*
X71111052Y-32580315D01*
X71065297Y-32527511D01*
X71063530Y-32523452D01*
X71006635Y-32386091D01*
X71006628Y-32386079D01*
X70897139Y-32222218D01*
X70897136Y-32222214D01*
X70757785Y-32082863D01*
X70757781Y-32082860D01*
X70593920Y-31973371D01*
X70593910Y-31973366D01*
X70566422Y-31961980D01*
X70512018Y-31918138D01*
X70489954Y-31851844D01*
X70489887Y-31849153D01*
X70469163Y-30310369D01*
X75974500Y-30310369D01*
X75974500Y-30422405D01*
X76003497Y-30530624D01*
X76059515Y-30627650D01*
X76138737Y-30706872D01*
X76235763Y-30762890D01*
X76343982Y-30791887D01*
X76343984Y-30791887D01*
X76456016Y-30791887D01*
X76456018Y-30791887D01*
X76564237Y-30762890D01*
X76661263Y-30706872D01*
X76662319Y-30705816D01*
X76663426Y-30705211D01*
X76667709Y-30701925D01*
X76668221Y-30702592D01*
X76723642Y-30672331D01*
X76793334Y-30677315D01*
X76832071Y-30702210D01*
X76832291Y-30701925D01*
X76835715Y-30704552D01*
X76837681Y-30705816D01*
X76838737Y-30706872D01*
X76935763Y-30762890D01*
X77043982Y-30791887D01*
X77043984Y-30791887D01*
X77156016Y-30791887D01*
X77156018Y-30791887D01*
X77264237Y-30762890D01*
X77361263Y-30706872D01*
X77440485Y-30627650D01*
X77496503Y-30530624D01*
X77525500Y-30422405D01*
X77525500Y-30310369D01*
X77496503Y-30202150D01*
X77440485Y-30105124D01*
X77361263Y-30025902D01*
X77264237Y-29969884D01*
X77156018Y-29940887D01*
X77043982Y-29940887D01*
X76935763Y-29969884D01*
X76935760Y-29969885D01*
X76838740Y-30025900D01*
X76838734Y-30025904D01*
X76837675Y-30026964D01*
X76836562Y-30027571D01*
X76832291Y-30030849D01*
X76831779Y-30030182D01*
X76776349Y-30060444D01*
X76706658Y-30055455D01*
X76667927Y-30030564D01*
X76667709Y-30030849D01*
X76664301Y-30028234D01*
X76662325Y-30026964D01*
X76661265Y-30025904D01*
X76661263Y-30025902D01*
X76564237Y-29969884D01*
X76456018Y-29940887D01*
X76343982Y-29940887D01*
X76235763Y-29969884D01*
X76235760Y-29969885D01*
X76138740Y-30025900D01*
X76138734Y-30025904D01*
X76059517Y-30105121D01*
X76059513Y-30105127D01*
X76003498Y-30202147D01*
X76003497Y-30202150D01*
X75974500Y-30310369D01*
X70469163Y-30310369D01*
X70437292Y-27943982D01*
X80504200Y-27943982D01*
X80504200Y-28056018D01*
X80533197Y-28164237D01*
X80589215Y-28261263D01*
X80668437Y-28340485D01*
X80765463Y-28396503D01*
X80873682Y-28425500D01*
X80873684Y-28425500D01*
X80985716Y-28425500D01*
X80985718Y-28425500D01*
X81093937Y-28396503D01*
X81188002Y-28342194D01*
X81255899Y-28325722D01*
X81311996Y-28342193D01*
X81406063Y-28396503D01*
X81514282Y-28425500D01*
X81514284Y-28425500D01*
X81626316Y-28425500D01*
X81626318Y-28425500D01*
X81734537Y-28396503D01*
X81831563Y-28340485D01*
X81910785Y-28261263D01*
X81966803Y-28164237D01*
X81995800Y-28056018D01*
X81995800Y-27943982D01*
X81966803Y-27835763D01*
X81910785Y-27738737D01*
X81831563Y-27659515D01*
X81734537Y-27603497D01*
X81626318Y-27574500D01*
X81514282Y-27574500D01*
X81406063Y-27603497D01*
X81406060Y-27603498D01*
X81312000Y-27657804D01*
X81244100Y-27674277D01*
X81188000Y-27657804D01*
X81093939Y-27603498D01*
X81093938Y-27603497D01*
X81093937Y-27603497D01*
X80985718Y-27574500D01*
X80873682Y-27574500D01*
X80765463Y-27603497D01*
X80765460Y-27603498D01*
X80668440Y-27659513D01*
X80668434Y-27659517D01*
X80589217Y-27738734D01*
X80589213Y-27738740D01*
X80533198Y-27835760D01*
X80533197Y-27835763D01*
X80504200Y-27943982D01*
X70437292Y-27943982D01*
X70434528Y-27738740D01*
X70387020Y-24211259D01*
X70382747Y-23893982D01*
X87399500Y-23893982D01*
X87399500Y-24006018D01*
X87428497Y-24114237D01*
X87484515Y-24211263D01*
X87563737Y-24290485D01*
X87660763Y-24346503D01*
X87768982Y-24375500D01*
X87768984Y-24375500D01*
X87881016Y-24375500D01*
X87881018Y-24375500D01*
X87989237Y-24346503D01*
X88086263Y-24290485D01*
X88165485Y-24211263D01*
X88221503Y-24114237D01*
X88250500Y-24006018D01*
X88250500Y-23893982D01*
X89674500Y-23893982D01*
X89674500Y-24006018D01*
X89703497Y-24114237D01*
X89759515Y-24211263D01*
X89838737Y-24290485D01*
X89935763Y-24346503D01*
X90043982Y-24375500D01*
X90043984Y-24375500D01*
X90156016Y-24375500D01*
X90156018Y-24375500D01*
X90264237Y-24346503D01*
X90361263Y-24290485D01*
X90440485Y-24211263D01*
X90496503Y-24114237D01*
X90525500Y-24006018D01*
X90525500Y-23893982D01*
X90496503Y-23785763D01*
X90440485Y-23688737D01*
X90361263Y-23609515D01*
X90264237Y-23553497D01*
X90156018Y-23524500D01*
X90043982Y-23524500D01*
X89935763Y-23553497D01*
X89935760Y-23553498D01*
X89838740Y-23609513D01*
X89838734Y-23609517D01*
X89759517Y-23688734D01*
X89759513Y-23688740D01*
X89703498Y-23785760D01*
X89703497Y-23785763D01*
X89674500Y-23893982D01*
X88250500Y-23893982D01*
X88221503Y-23785763D01*
X88165485Y-23688737D01*
X88086263Y-23609515D01*
X87989237Y-23553497D01*
X87881018Y-23524500D01*
X87768982Y-23524500D01*
X87660763Y-23553497D01*
X87660760Y-23553498D01*
X87563740Y-23609513D01*
X87563734Y-23609517D01*
X87484517Y-23688734D01*
X87484513Y-23688740D01*
X87428498Y-23785760D01*
X87428497Y-23785763D01*
X87399500Y-23893982D01*
X70382747Y-23893982D01*
X70361871Y-22343982D01*
X82504200Y-22343982D01*
X82504200Y-22456018D01*
X82533197Y-22564237D01*
X82589215Y-22661263D01*
X82668437Y-22740485D01*
X82765463Y-22796503D01*
X82873682Y-22825500D01*
X82873684Y-22825500D01*
X82985716Y-22825500D01*
X82985718Y-22825500D01*
X83093937Y-22796503D01*
X83188002Y-22742194D01*
X83255899Y-22725722D01*
X83311996Y-22742193D01*
X83406063Y-22796503D01*
X83514282Y-22825500D01*
X83514284Y-22825500D01*
X83626316Y-22825500D01*
X83626318Y-22825500D01*
X83734537Y-22796503D01*
X83831563Y-22740485D01*
X83910785Y-22661263D01*
X83966803Y-22564237D01*
X83995800Y-22456018D01*
X83995800Y-22343982D01*
X83966803Y-22235763D01*
X83910785Y-22138737D01*
X83831563Y-22059515D01*
X83734537Y-22003497D01*
X83699026Y-21993982D01*
X87399500Y-21993982D01*
X87399500Y-22106018D01*
X87428497Y-22214237D01*
X87484515Y-22311263D01*
X87563737Y-22390485D01*
X87660763Y-22446503D01*
X87768982Y-22475500D01*
X87768984Y-22475500D01*
X87881016Y-22475500D01*
X87881018Y-22475500D01*
X87989237Y-22446503D01*
X88086263Y-22390485D01*
X88165485Y-22311263D01*
X88221503Y-22214237D01*
X88250500Y-22106018D01*
X88250500Y-21993982D01*
X89674500Y-21993982D01*
X89674500Y-22106018D01*
X89703497Y-22214237D01*
X89759515Y-22311263D01*
X89838737Y-22390485D01*
X89935763Y-22446503D01*
X90043982Y-22475500D01*
X90043984Y-22475500D01*
X90156016Y-22475500D01*
X90156018Y-22475500D01*
X90264237Y-22446503D01*
X90361263Y-22390485D01*
X90440485Y-22311263D01*
X90496503Y-22214237D01*
X90525500Y-22106018D01*
X90525500Y-21993982D01*
X90496503Y-21885763D01*
X90440485Y-21788737D01*
X90361263Y-21709515D01*
X90264237Y-21653497D01*
X90156018Y-21624500D01*
X90043982Y-21624500D01*
X89935763Y-21653497D01*
X89935760Y-21653498D01*
X89838740Y-21709513D01*
X89838734Y-21709517D01*
X89759517Y-21788734D01*
X89759513Y-21788740D01*
X89703498Y-21885760D01*
X89703497Y-21885763D01*
X89674500Y-21993982D01*
X88250500Y-21993982D01*
X88221503Y-21885763D01*
X88165485Y-21788737D01*
X88086263Y-21709515D01*
X87989237Y-21653497D01*
X87881018Y-21624500D01*
X87768982Y-21624500D01*
X87660763Y-21653497D01*
X87660760Y-21653498D01*
X87563740Y-21709513D01*
X87563734Y-21709517D01*
X87484517Y-21788734D01*
X87484513Y-21788740D01*
X87428498Y-21885760D01*
X87428497Y-21885763D01*
X87399500Y-21993982D01*
X83699026Y-21993982D01*
X83626318Y-21974500D01*
X83514282Y-21974500D01*
X83406063Y-22003497D01*
X83406060Y-22003498D01*
X83312000Y-22057804D01*
X83244100Y-22074277D01*
X83188000Y-22057804D01*
X83093939Y-22003498D01*
X83093938Y-22003497D01*
X83093937Y-22003497D01*
X82985718Y-21974500D01*
X82873682Y-21974500D01*
X82765463Y-22003497D01*
X82765460Y-22003498D01*
X82668440Y-22059513D01*
X82668434Y-22059517D01*
X82589217Y-22138734D01*
X82589213Y-22138740D01*
X82533198Y-22235760D01*
X82533197Y-22235763D01*
X82504200Y-22343982D01*
X70361871Y-22343982D01*
X70360124Y-22214239D01*
X70300011Y-17750816D01*
X70300000Y-17749146D01*
X70300000Y-17022841D01*
X70319685Y-16955802D01*
X70372489Y-16910047D01*
X70422833Y-16898846D01*
X91477805Y-16701147D01*
X91545025Y-16720202D01*
G37*
%TD.AperFunction*%
%TA.AperFunction,Conductor*%
G36*
X97094132Y-34719685D02*
G01*
X97139887Y-34772489D01*
X97151087Y-34822901D01*
X97207469Y-41194013D01*
X97248893Y-45874903D01*
X97229803Y-45942114D01*
X97177406Y-45988334D01*
X97124898Y-46000000D01*
X89122907Y-46000000D01*
X89055868Y-45980315D01*
X89010113Y-45927511D01*
X88998912Y-45877097D01*
X88957469Y-41194013D01*
X88976559Y-41126802D01*
X89005978Y-41094540D01*
X89011256Y-41090488D01*
X89011263Y-41090485D01*
X89090485Y-41011263D01*
X89146503Y-40914237D01*
X89175500Y-40806018D01*
X89175500Y-40693982D01*
X89146503Y-40585763D01*
X89090485Y-40488737D01*
X89011263Y-40409515D01*
X89001785Y-40404043D01*
X88993180Y-40396714D01*
X88979987Y-40376565D01*
X88963368Y-40359137D01*
X88960207Y-40346356D01*
X88958653Y-40343982D01*
X92074500Y-40343982D01*
X92074500Y-40456018D01*
X92103497Y-40564237D01*
X92159515Y-40661263D01*
X92238737Y-40740485D01*
X92335763Y-40796503D01*
X92443982Y-40825500D01*
X92443984Y-40825500D01*
X92556016Y-40825500D01*
X92556018Y-40825500D01*
X92664237Y-40796503D01*
X92761263Y-40740485D01*
X92840485Y-40661263D01*
X92896503Y-40564237D01*
X92925500Y-40456018D01*
X92925500Y-40343982D01*
X92896503Y-40235763D01*
X92840485Y-40138737D01*
X92761263Y-40059515D01*
X92664237Y-40003497D01*
X92556018Y-39974500D01*
X92443982Y-39974500D01*
X92335763Y-40003497D01*
X92335760Y-40003498D01*
X92238740Y-40059513D01*
X92238734Y-40059517D01*
X92159517Y-40138734D01*
X92159513Y-40138740D01*
X92103498Y-40235760D01*
X92103497Y-40235763D01*
X92074500Y-40343982D01*
X88958653Y-40343982D01*
X88954906Y-40338260D01*
X88954788Y-40324444D01*
X88949587Y-40303416D01*
X88936833Y-38862151D01*
X88955922Y-38794945D01*
X89008319Y-38748725D01*
X89077387Y-38738170D01*
X89122827Y-38753672D01*
X89153715Y-38771505D01*
X89261934Y-38800502D01*
X89261936Y-38800502D01*
X89373968Y-38800502D01*
X89373970Y-38800502D01*
X89482189Y-38771505D01*
X89579215Y-38715487D01*
X89658437Y-38636265D01*
X89714455Y-38539239D01*
X89743452Y-38431020D01*
X89743452Y-38318984D01*
X89728409Y-38262841D01*
X95970569Y-38262841D01*
X95970569Y-38374877D01*
X95999566Y-38483096D01*
X96055584Y-38580122D01*
X96134806Y-38659344D01*
X96231832Y-38715362D01*
X96340051Y-38744359D01*
X96340053Y-38744359D01*
X96452085Y-38744359D01*
X96452087Y-38744359D01*
X96560306Y-38715362D01*
X96657332Y-38659344D01*
X96736554Y-38580122D01*
X96792572Y-38483096D01*
X96821569Y-38374877D01*
X96821569Y-38262841D01*
X96792572Y-38154622D01*
X96736554Y-38057596D01*
X96657332Y-37978374D01*
X96560306Y-37922356D01*
X96452087Y-37893359D01*
X96340051Y-37893359D01*
X96231832Y-37922356D01*
X96231829Y-37922357D01*
X96134809Y-37978372D01*
X96134803Y-37978376D01*
X96055586Y-38057593D01*
X96055582Y-38057599D01*
X95999567Y-38154619D01*
X95999566Y-38154622D01*
X95970569Y-38262841D01*
X89728409Y-38262841D01*
X89714455Y-38210765D01*
X89658437Y-38113739D01*
X89579215Y-38034517D01*
X89482189Y-37978499D01*
X89373970Y-37949502D01*
X89261934Y-37949502D01*
X89153715Y-37978499D01*
X89153714Y-37978499D01*
X89114267Y-38001274D01*
X89046366Y-38017745D01*
X88980340Y-37994893D01*
X88937150Y-37939971D01*
X88928274Y-37894989D01*
X88917203Y-36643982D01*
X89374500Y-36643982D01*
X89374500Y-36756018D01*
X89403497Y-36864237D01*
X89459515Y-36961263D01*
X89538737Y-37040485D01*
X89635763Y-37096503D01*
X89743982Y-37125500D01*
X89743984Y-37125500D01*
X89856016Y-37125500D01*
X89856018Y-37125500D01*
X89964237Y-37096503D01*
X90061263Y-37040485D01*
X90140485Y-36961263D01*
X90196503Y-36864237D01*
X90225500Y-36756018D01*
X90225500Y-36643982D01*
X90196503Y-36535763D01*
X90140485Y-36438737D01*
X90061263Y-36359515D01*
X89964237Y-36303497D01*
X89856018Y-36274500D01*
X89743982Y-36274500D01*
X89635763Y-36303497D01*
X89635760Y-36303498D01*
X89538740Y-36359513D01*
X89538734Y-36359517D01*
X89459517Y-36438734D01*
X89459513Y-36438740D01*
X89403498Y-36535760D01*
X89403497Y-36535763D01*
X89374500Y-36643982D01*
X88917203Y-36643982D01*
X88901107Y-34825096D01*
X88920197Y-34757886D01*
X88972594Y-34711666D01*
X89025102Y-34700000D01*
X97027093Y-34700000D01*
X97094132Y-34719685D01*
G37*
%TD.AperFunction*%
%TA.AperFunction,Conductor*%
G36*
X62017027Y-43075896D02*
G01*
X62063057Y-43126115D01*
X66986909Y-52973818D01*
X67000000Y-53029272D01*
X67000000Y-63000000D01*
X70979498Y-66695248D01*
X71015230Y-66755289D01*
X71012828Y-66825118D01*
X70973056Y-66882563D01*
X70942578Y-66900674D01*
X70935762Y-66903497D01*
X70838740Y-66959513D01*
X70838734Y-66959517D01*
X70759517Y-67038734D01*
X70759513Y-67038740D01*
X70703498Y-67135760D01*
X70703497Y-67135763D01*
X70674500Y-67243982D01*
X70674500Y-67356018D01*
X70703497Y-67464237D01*
X70759515Y-67561263D01*
X70838737Y-67640485D01*
X70935763Y-67696503D01*
X71043982Y-67725500D01*
X71043984Y-67725500D01*
X71156016Y-67725500D01*
X71156018Y-67725500D01*
X71264237Y-67696503D01*
X71361263Y-67640485D01*
X71440485Y-67561263D01*
X71496503Y-67464237D01*
X71505209Y-67431744D01*
X71541570Y-67372089D01*
X71604416Y-67341558D01*
X71673792Y-67349852D01*
X71709356Y-67372974D01*
X74000000Y-69500000D01*
X75695752Y-69515789D01*
X75762603Y-69536096D01*
X75807864Y-69589324D01*
X75817163Y-69658572D01*
X75801983Y-69701782D01*
X75753497Y-69785762D01*
X75753497Y-69785763D01*
X75724500Y-69893982D01*
X75724500Y-70006018D01*
X75753497Y-70114237D01*
X75809515Y-70211263D01*
X75888737Y-70290485D01*
X75985763Y-70346503D01*
X76093982Y-70375500D01*
X76093984Y-70375500D01*
X76206016Y-70375500D01*
X76206018Y-70375500D01*
X76314237Y-70346503D01*
X76411263Y-70290485D01*
X76490485Y-70211263D01*
X76546503Y-70114237D01*
X76575500Y-70006018D01*
X76575500Y-69893982D01*
X76546503Y-69785763D01*
X76502939Y-69710309D01*
X76486467Y-69642410D01*
X76509319Y-69576383D01*
X76564241Y-69533192D01*
X76611479Y-69524315D01*
X80750000Y-69562848D01*
X80750000Y-70000000D01*
X89450000Y-70000000D01*
X89450000Y-69643854D01*
X116493701Y-69895658D01*
X116560550Y-69915965D01*
X116580223Y-69931971D01*
X116613737Y-69965485D01*
X116710763Y-70021503D01*
X116818982Y-70050500D01*
X116818984Y-70050500D01*
X116931016Y-70050500D01*
X116931018Y-70050500D01*
X117039237Y-70021503D01*
X117136263Y-69965485D01*
X117162721Y-69939026D01*
X117224039Y-69905543D01*
X117251540Y-69902714D01*
X117693229Y-69906827D01*
X117760077Y-69927133D01*
X117805338Y-69980361D01*
X117814637Y-70049609D01*
X117785022Y-70112892D01*
X117779752Y-70118500D01*
X117759515Y-70138737D01*
X117759513Y-70138740D01*
X117703498Y-70235760D01*
X117703497Y-70235763D01*
X117674500Y-70343982D01*
X117674500Y-70456018D01*
X117703497Y-70564237D01*
X117759515Y-70661263D01*
X117838737Y-70740485D01*
X117935763Y-70796503D01*
X118043982Y-70825500D01*
X118043984Y-70825500D01*
X118156016Y-70825500D01*
X118156018Y-70825500D01*
X118264237Y-70796503D01*
X118361263Y-70740485D01*
X118440485Y-70661263D01*
X118496503Y-70564237D01*
X118525500Y-70456018D01*
X118525500Y-70343982D01*
X118496503Y-70235763D01*
X118440485Y-70138737D01*
X118427917Y-70126169D01*
X118394432Y-70064846D01*
X118399416Y-69995154D01*
X118441288Y-69939221D01*
X118506752Y-69914804D01*
X118516705Y-69914494D01*
X118993827Y-69918936D01*
X119060674Y-69939243D01*
X119105935Y-69992471D01*
X119115234Y-70061719D01*
X119085619Y-70125002D01*
X119054671Y-70150314D01*
X119038743Y-70159510D01*
X119038734Y-70159517D01*
X118959517Y-70238734D01*
X118959513Y-70238740D01*
X118903498Y-70335760D01*
X118903497Y-70335763D01*
X118874500Y-70443982D01*
X118874500Y-70556018D01*
X118903497Y-70664237D01*
X118959515Y-70761263D01*
X119038737Y-70840485D01*
X119135763Y-70896503D01*
X119243982Y-70925500D01*
X119243984Y-70925500D01*
X119356016Y-70925500D01*
X119356018Y-70925500D01*
X119464237Y-70896503D01*
X119561263Y-70840485D01*
X119640485Y-70761263D01*
X119696503Y-70664237D01*
X119725500Y-70556018D01*
X119725500Y-70443982D01*
X119696503Y-70335763D01*
X119640485Y-70238737D01*
X119561263Y-70159515D01*
X119555409Y-70156135D01*
X119507194Y-70105570D01*
X119493969Y-70036964D01*
X119519936Y-69972098D01*
X119576849Y-69931569D01*
X119618557Y-69924753D01*
X122412849Y-69950771D01*
X122479699Y-69971078D01*
X122521725Y-70020502D01*
X122522175Y-70020243D01*
X122523591Y-70022697D01*
X122524960Y-70024306D01*
X122526239Y-70027282D01*
X122582254Y-70124303D01*
X122582256Y-70124305D01*
X122582257Y-70124307D01*
X122661479Y-70203529D01*
X122758505Y-70259547D01*
X122866724Y-70288544D01*
X122866726Y-70288544D01*
X122978758Y-70288544D01*
X122978760Y-70288544D01*
X123086979Y-70259547D01*
X123184005Y-70203529D01*
X123263227Y-70124307D01*
X123319245Y-70027281D01*
X123319245Y-70027278D01*
X123322153Y-70022243D01*
X123372719Y-69974028D01*
X123430691Y-69960248D01*
X126718484Y-69990861D01*
X126785335Y-70011168D01*
X126830596Y-70064396D01*
X126839895Y-70133644D01*
X126837102Y-70146946D01*
X126824500Y-70193977D01*
X126824500Y-70193982D01*
X126824500Y-70306018D01*
X126853497Y-70414237D01*
X126909515Y-70511263D01*
X126988737Y-70590485D01*
X127085763Y-70646503D01*
X127193982Y-70675500D01*
X127193984Y-70675500D01*
X127306016Y-70675500D01*
X127306018Y-70675500D01*
X127414237Y-70646503D01*
X127500000Y-70596987D01*
X127500000Y-73050000D01*
X127700000Y-73050000D01*
X127700000Y-75127785D01*
X127680315Y-75194824D01*
X127627511Y-75240579D01*
X127577798Y-75251772D01*
X110789817Y-75495261D01*
X110722499Y-75476551D01*
X110680632Y-75433274D01*
X110659402Y-75396503D01*
X110640485Y-75363737D01*
X110561263Y-75284515D01*
X110464237Y-75228497D01*
X110356018Y-75199500D01*
X110243982Y-75199500D01*
X110135763Y-75228497D01*
X110135760Y-75228498D01*
X110038740Y-75284513D01*
X110038734Y-75284517D01*
X109959517Y-75363734D01*
X109959515Y-75363737D01*
X109911125Y-75447551D01*
X109860558Y-75495766D01*
X109805536Y-75509537D01*
X106951970Y-75550924D01*
X106884652Y-75532214D01*
X106838137Y-75480079D01*
X106827191Y-75411072D01*
X106855291Y-75347102D01*
X106862468Y-75339279D01*
X106940485Y-75261263D01*
X106996503Y-75164237D01*
X107025500Y-75056018D01*
X107025500Y-74943982D01*
X106996503Y-74835763D01*
X106940485Y-74738737D01*
X106861263Y-74659515D01*
X106764237Y-74603497D01*
X106656018Y-74574500D01*
X106543982Y-74574500D01*
X106435763Y-74603497D01*
X106435760Y-74603498D01*
X106338740Y-74659513D01*
X106338734Y-74659517D01*
X106259517Y-74738734D01*
X106259513Y-74738740D01*
X106203498Y-74835760D01*
X106203497Y-74835763D01*
X106174500Y-74943982D01*
X106174500Y-75056018D01*
X106203497Y-75164237D01*
X106259515Y-75261263D01*
X106259517Y-75261265D01*
X106344484Y-75346232D01*
X106342950Y-75347765D01*
X106377433Y-75394988D01*
X106381588Y-75464734D01*
X106347376Y-75525655D01*
X106285659Y-75558408D01*
X106262542Y-75560924D01*
X98227399Y-75677465D01*
X98163601Y-75660865D01*
X98161259Y-75659513D01*
X98064237Y-75603497D01*
X97956018Y-75574500D01*
X97843982Y-75574500D01*
X97735763Y-75603497D01*
X97735760Y-75603498D01*
X97638734Y-75659516D01*
X97636150Y-75661499D01*
X97633577Y-75662493D01*
X97631699Y-75663578D01*
X97631529Y-75663284D01*
X97570980Y-75686691D01*
X97562465Y-75687108D01*
X80588220Y-75933299D01*
X80520902Y-75914589D01*
X80498741Y-75896993D01*
X80461265Y-75859517D01*
X80461263Y-75859515D01*
X80364237Y-75803497D01*
X80256018Y-75774500D01*
X80143982Y-75774500D01*
X80035763Y-75803497D01*
X80035760Y-75803498D01*
X79938740Y-75859513D01*
X79938733Y-75859518D01*
X79889883Y-75908368D01*
X79828560Y-75941852D01*
X79804001Y-75944673D01*
X77729681Y-75974760D01*
X77662363Y-75956050D01*
X77640202Y-75938454D01*
X77561265Y-75859517D01*
X77561263Y-75859515D01*
X77464237Y-75803497D01*
X77356018Y-75774500D01*
X77243982Y-75774500D01*
X77135763Y-75803497D01*
X77135760Y-75803498D01*
X77038740Y-75859513D01*
X77038738Y-75859514D01*
X76959511Y-75938740D01*
X76959439Y-75938835D01*
X76959357Y-75938894D01*
X76953768Y-75944484D01*
X76952896Y-75943612D01*
X76903010Y-75980036D01*
X76862864Y-75987332D01*
X74871235Y-76016218D01*
X74803917Y-75997508D01*
X74757402Y-75945373D01*
X74746456Y-75876366D01*
X74774556Y-75812396D01*
X74807438Y-75784844D01*
X74809624Y-75783582D01*
X74906645Y-75727567D01*
X74985867Y-75648345D01*
X75041885Y-75551319D01*
X75070882Y-75443100D01*
X75070882Y-75331064D01*
X75041885Y-75222845D01*
X74985867Y-75125819D01*
X74906645Y-75046597D01*
X74809619Y-74990579D01*
X74701400Y-74961582D01*
X74589364Y-74961582D01*
X74481145Y-74990579D01*
X74481142Y-74990580D01*
X74384122Y-75046595D01*
X74384116Y-75046599D01*
X74304899Y-75125816D01*
X74304895Y-75125822D01*
X74248880Y-75222842D01*
X74248879Y-75222845D01*
X74219882Y-75331064D01*
X74219882Y-75443100D01*
X74248879Y-75551319D01*
X74304897Y-75648345D01*
X74384119Y-75727567D01*
X74481145Y-75783585D01*
X74481151Y-75783586D01*
X74482086Y-75783974D01*
X74482761Y-75784518D01*
X74488184Y-75787649D01*
X74487695Y-75788494D01*
X74536491Y-75827813D01*
X74558558Y-75894107D01*
X74541281Y-75961807D01*
X74490145Y-76009419D01*
X74436435Y-76022524D01*
X67093684Y-76129021D01*
X67026366Y-76110311D01*
X66979851Y-76058176D01*
X66968905Y-75989169D01*
X66984497Y-75943038D01*
X67017735Y-75885469D01*
X67046732Y-75777250D01*
X67046732Y-75665214D01*
X67017735Y-75556995D01*
X66961717Y-75459969D01*
X66882495Y-75380747D01*
X66785469Y-75324729D01*
X66677250Y-75295732D01*
X66565214Y-75295732D01*
X66456995Y-75324729D01*
X66456992Y-75324730D01*
X66359972Y-75380745D01*
X66359966Y-75380749D01*
X66280749Y-75459966D01*
X66280745Y-75459972D01*
X66224730Y-75556992D01*
X66224729Y-75556995D01*
X66195732Y-75665214D01*
X66195732Y-75777250D01*
X66217776Y-75859518D01*
X66224729Y-75885468D01*
X66224730Y-75885471D01*
X66265781Y-75956574D01*
X66282254Y-76024475D01*
X66259401Y-76090502D01*
X66204480Y-76133692D01*
X66160192Y-76142561D01*
X64651298Y-76164446D01*
X64583980Y-76145736D01*
X64537465Y-76093601D01*
X64525500Y-76040459D01*
X64525500Y-75943984D01*
X64525500Y-75943982D01*
X64496503Y-75835763D01*
X64440485Y-75738737D01*
X64361263Y-75659515D01*
X64264237Y-75603497D01*
X64156018Y-75574500D01*
X64043982Y-75574500D01*
X63935763Y-75603497D01*
X63935760Y-75603498D01*
X63838740Y-75659513D01*
X63838734Y-75659517D01*
X63759517Y-75738734D01*
X63759513Y-75738740D01*
X63703498Y-75835760D01*
X63703497Y-75835763D01*
X63674500Y-75943982D01*
X63674500Y-76056398D01*
X63654815Y-76123437D01*
X63602011Y-76169192D01*
X63552298Y-76180385D01*
X63034217Y-76187900D01*
X62966900Y-76169190D01*
X62920384Y-76117055D01*
X62912646Y-76096011D01*
X62896503Y-76035763D01*
X62840485Y-75938737D01*
X62761263Y-75859515D01*
X62664237Y-75803497D01*
X62556018Y-75774500D01*
X62443982Y-75774500D01*
X62335763Y-75803497D01*
X62335760Y-75803498D01*
X62300777Y-75823696D01*
X62232877Y-75840169D01*
X62166850Y-75817316D01*
X62123659Y-75762395D01*
X62116745Y-75738315D01*
X62114807Y-75727570D01*
X61853358Y-74277714D01*
X74683232Y-74277714D01*
X74683232Y-74389750D01*
X74712229Y-74497969D01*
X74768247Y-74594995D01*
X74847469Y-74674217D01*
X74944495Y-74730235D01*
X75052714Y-74759232D01*
X75052716Y-74759232D01*
X75164748Y-74759232D01*
X75164750Y-74759232D01*
X75272969Y-74730235D01*
X75369995Y-74674217D01*
X75449217Y-74594995D01*
X75505235Y-74497969D01*
X75534232Y-74389750D01*
X75534232Y-74277714D01*
X75505235Y-74169495D01*
X75449217Y-74072469D01*
X75369995Y-73993247D01*
X75357045Y-73985770D01*
X75344931Y-73978776D01*
X75344929Y-73978775D01*
X75272969Y-73937229D01*
X75170708Y-73909828D01*
X75170707Y-73909828D01*
X75168456Y-73909225D01*
X75164750Y-73908232D01*
X75052714Y-73908232D01*
X74944495Y-73937229D01*
X74944492Y-73937230D01*
X74847472Y-73993245D01*
X74847466Y-73993249D01*
X74768249Y-74072466D01*
X74768245Y-74072472D01*
X74712230Y-74169492D01*
X74712229Y-74169495D01*
X74683232Y-74277714D01*
X61853358Y-74277714D01*
X61671456Y-73268982D01*
X75074500Y-73268982D01*
X75074500Y-73381018D01*
X75103497Y-73489237D01*
X75159515Y-73586263D01*
X75238737Y-73665485D01*
X75335763Y-73721503D01*
X75443982Y-73750500D01*
X75443985Y-73750500D01*
X75556016Y-73750500D01*
X75556018Y-73750500D01*
X75664237Y-73721503D01*
X75761263Y-73665485D01*
X75840485Y-73586263D01*
X75896503Y-73489237D01*
X75925500Y-73381018D01*
X75925500Y-73268982D01*
X75898705Y-73168982D01*
X100274500Y-73168982D01*
X100274500Y-73281018D01*
X100303497Y-73389237D01*
X100359515Y-73486263D01*
X100438737Y-73565485D01*
X100535763Y-73621503D01*
X100643982Y-73650500D01*
X100643984Y-73650500D01*
X100756016Y-73650500D01*
X100756018Y-73650500D01*
X100864237Y-73621503D01*
X100953474Y-73569982D01*
X102674500Y-73569982D01*
X102674500Y-73682018D01*
X102703497Y-73790237D01*
X102759515Y-73887263D01*
X102838737Y-73966485D01*
X102935763Y-74022503D01*
X103043982Y-74051500D01*
X103043984Y-74051500D01*
X103156016Y-74051500D01*
X103156018Y-74051500D01*
X103264237Y-74022503D01*
X103353474Y-73970982D01*
X104398500Y-73970982D01*
X104398500Y-74083018D01*
X104427497Y-74191237D01*
X104483515Y-74288263D01*
X104562737Y-74367485D01*
X104659763Y-74423503D01*
X104767982Y-74452500D01*
X104767984Y-74452500D01*
X104880016Y-74452500D01*
X104880018Y-74452500D01*
X104988237Y-74423503D01*
X105085263Y-74367485D01*
X105164485Y-74288263D01*
X105220503Y-74191237D01*
X105249500Y-74083018D01*
X105249500Y-73970982D01*
X105220503Y-73862763D01*
X105164485Y-73765737D01*
X105085263Y-73686515D01*
X104988237Y-73630497D01*
X104880018Y-73601500D01*
X104767982Y-73601500D01*
X104659763Y-73630497D01*
X104659760Y-73630498D01*
X104562740Y-73686513D01*
X104562734Y-73686517D01*
X104483517Y-73765734D01*
X104483513Y-73765740D01*
X104427498Y-73862760D01*
X104427497Y-73862763D01*
X104398500Y-73970982D01*
X103353474Y-73970982D01*
X103361263Y-73966485D01*
X103440485Y-73887263D01*
X103496503Y-73790237D01*
X103525500Y-73682018D01*
X103525500Y-73569982D01*
X103518533Y-73543982D01*
X124374500Y-73543982D01*
X124374500Y-73656018D01*
X124403497Y-73764237D01*
X124459515Y-73861263D01*
X124538737Y-73940485D01*
X124635763Y-73996503D01*
X124743982Y-74025500D01*
X124743984Y-74025500D01*
X124856016Y-74025500D01*
X124856018Y-74025500D01*
X124964237Y-73996503D01*
X125061263Y-73940485D01*
X125140485Y-73861263D01*
X125196503Y-73764237D01*
X125225500Y-73656018D01*
X125225500Y-73543982D01*
X125196503Y-73435763D01*
X125140485Y-73338737D01*
X125061263Y-73259515D01*
X124964237Y-73203497D01*
X124856018Y-73174500D01*
X124743982Y-73174500D01*
X124635763Y-73203497D01*
X124635760Y-73203498D01*
X124538740Y-73259513D01*
X124538734Y-73259517D01*
X124459517Y-73338734D01*
X124459513Y-73338740D01*
X124403498Y-73435760D01*
X124403497Y-73435763D01*
X124374500Y-73543982D01*
X103518533Y-73543982D01*
X103496503Y-73461763D01*
X103440485Y-73364737D01*
X103361263Y-73285515D01*
X103264237Y-73229497D01*
X103156018Y-73200500D01*
X103043982Y-73200500D01*
X102935763Y-73229497D01*
X102935760Y-73229498D01*
X102838740Y-73285513D01*
X102838734Y-73285517D01*
X102759517Y-73364734D01*
X102759513Y-73364740D01*
X102703498Y-73461760D01*
X102703497Y-73461763D01*
X102674500Y-73569982D01*
X100953474Y-73569982D01*
X100961263Y-73565485D01*
X101040485Y-73486263D01*
X101096503Y-73389237D01*
X101125500Y-73281018D01*
X101125500Y-73168982D01*
X101096503Y-73060763D01*
X101040485Y-72963737D01*
X100961263Y-72884515D01*
X100864237Y-72828497D01*
X100756018Y-72799500D01*
X100643982Y-72799500D01*
X100535763Y-72828497D01*
X100535760Y-72828498D01*
X100438740Y-72884513D01*
X100438734Y-72884517D01*
X100359517Y-72963734D01*
X100359513Y-72963740D01*
X100303498Y-73060760D01*
X100303497Y-73060763D01*
X100274500Y-73168982D01*
X75898705Y-73168982D01*
X75896503Y-73160763D01*
X75840485Y-73063737D01*
X75773274Y-72996526D01*
X75739789Y-72935203D01*
X75744773Y-72865511D01*
X75786645Y-72809578D01*
X75798956Y-72801458D01*
X75802347Y-72799500D01*
X75861263Y-72765485D01*
X75940485Y-72686263D01*
X75964896Y-72643982D01*
X98374500Y-72643982D01*
X98374500Y-72756018D01*
X98390250Y-72814796D01*
X98403497Y-72864236D01*
X98403498Y-72864239D01*
X98415206Y-72884517D01*
X98459515Y-72961263D01*
X98538737Y-73040485D01*
X98635763Y-73096503D01*
X98743982Y-73125500D01*
X98743984Y-73125500D01*
X98856016Y-73125500D01*
X98856018Y-73125500D01*
X98964237Y-73096503D01*
X99061263Y-73040485D01*
X99140485Y-72961263D01*
X99196503Y-72864237D01*
X99225500Y-72756018D01*
X99225500Y-72643982D01*
X99196503Y-72535763D01*
X99140485Y-72438737D01*
X99061263Y-72359515D01*
X98964237Y-72303497D01*
X98856018Y-72274500D01*
X98743982Y-72274500D01*
X98635763Y-72303497D01*
X98635760Y-72303498D01*
X98538740Y-72359513D01*
X98538734Y-72359517D01*
X98459517Y-72438734D01*
X98459513Y-72438740D01*
X98403498Y-72535760D01*
X98403497Y-72535763D01*
X98374500Y-72643982D01*
X75964896Y-72643982D01*
X75996503Y-72589237D01*
X76025500Y-72481018D01*
X76025500Y-72368982D01*
X75996503Y-72260763D01*
X75940485Y-72163737D01*
X75861263Y-72084515D01*
X75780737Y-72038023D01*
X75732522Y-71987457D01*
X75719299Y-71918850D01*
X75745267Y-71853985D01*
X75802181Y-71813457D01*
X75810631Y-71810866D01*
X75864237Y-71796503D01*
X75961263Y-71740485D01*
X76040485Y-71661263D01*
X76096503Y-71564237D01*
X76125500Y-71456018D01*
X76125500Y-71368982D01*
X97499500Y-71368982D01*
X97499500Y-71481018D01*
X97528497Y-71589237D01*
X97584515Y-71686263D01*
X97663737Y-71765485D01*
X97760763Y-71821503D01*
X97868982Y-71850500D01*
X97868984Y-71850500D01*
X97981016Y-71850500D01*
X97981018Y-71850500D01*
X98089237Y-71821503D01*
X98186263Y-71765485D01*
X98265485Y-71686263D01*
X98321503Y-71589237D01*
X98350500Y-71481018D01*
X98350500Y-71383982D01*
X99674500Y-71383982D01*
X99674500Y-71496018D01*
X99703497Y-71604237D01*
X99759515Y-71701263D01*
X99838737Y-71780485D01*
X99935763Y-71836503D01*
X100043982Y-71865500D01*
X100043984Y-71865500D01*
X100156016Y-71865500D01*
X100156018Y-71865500D01*
X100264237Y-71836503D01*
X100361263Y-71780485D01*
X100440485Y-71701263D01*
X100496503Y-71604237D01*
X100525500Y-71496018D01*
X100525500Y-71383982D01*
X100514782Y-71343982D01*
X101074500Y-71343982D01*
X101074500Y-71456018D01*
X101103497Y-71564237D01*
X101159515Y-71661263D01*
X101238737Y-71740485D01*
X101335763Y-71796503D01*
X101443982Y-71825500D01*
X101443984Y-71825500D01*
X101556016Y-71825500D01*
X101556018Y-71825500D01*
X101664237Y-71796503D01*
X101761263Y-71740485D01*
X101840485Y-71661263D01*
X101896503Y-71564237D01*
X101925500Y-71456018D01*
X101925500Y-71343982D01*
X103174500Y-71343982D01*
X103174500Y-71456018D01*
X103203497Y-71564237D01*
X103259515Y-71661263D01*
X103338737Y-71740485D01*
X103435763Y-71796503D01*
X103543982Y-71825500D01*
X103543984Y-71825500D01*
X103656016Y-71825500D01*
X103656018Y-71825500D01*
X103764237Y-71796503D01*
X103861263Y-71740485D01*
X103940485Y-71661263D01*
X103996503Y-71564237D01*
X104025500Y-71456018D01*
X104025500Y-71343982D01*
X104022821Y-71333982D01*
X105074500Y-71333982D01*
X105074500Y-71446018D01*
X105087898Y-71496018D01*
X105103497Y-71554236D01*
X105103498Y-71554239D01*
X105109272Y-71564239D01*
X105159515Y-71651263D01*
X105238737Y-71730485D01*
X105335763Y-71786503D01*
X105443982Y-71815500D01*
X105443984Y-71815500D01*
X105556016Y-71815500D01*
X105556018Y-71815500D01*
X105664237Y-71786503D01*
X105761263Y-71730485D01*
X105840485Y-71651263D01*
X105896503Y-71554237D01*
X105925500Y-71446018D01*
X105925500Y-71443982D01*
X115474500Y-71443982D01*
X115474500Y-71556018D01*
X115483402Y-71589239D01*
X115503497Y-71664236D01*
X115503498Y-71664239D01*
X115516211Y-71686259D01*
X115559515Y-71761263D01*
X115638737Y-71840485D01*
X115735763Y-71896503D01*
X115843982Y-71925500D01*
X115843984Y-71925500D01*
X115956016Y-71925500D01*
X115956018Y-71925500D01*
X116064237Y-71896503D01*
X116161263Y-71840485D01*
X116240485Y-71761263D01*
X116292613Y-71670973D01*
X116343180Y-71622759D01*
X116411787Y-71609535D01*
X116476651Y-71635503D01*
X116507385Y-71670972D01*
X116559515Y-71761263D01*
X116638737Y-71840485D01*
X116735763Y-71896503D01*
X116843982Y-71925500D01*
X116843984Y-71925500D01*
X116956016Y-71925500D01*
X116956018Y-71925500D01*
X117064237Y-71896503D01*
X117161263Y-71840485D01*
X117240485Y-71761263D01*
X117296503Y-71664237D01*
X117325500Y-71556018D01*
X117325500Y-71443982D01*
X117296503Y-71335763D01*
X117240485Y-71238737D01*
X117161263Y-71159515D01*
X117064237Y-71103497D01*
X116956018Y-71074500D01*
X116843982Y-71074500D01*
X116735763Y-71103497D01*
X116735760Y-71103498D01*
X116638740Y-71159513D01*
X116638734Y-71159517D01*
X116559517Y-71238734D01*
X116559513Y-71238740D01*
X116507387Y-71329025D01*
X116456820Y-71377241D01*
X116388213Y-71390463D01*
X116323348Y-71364495D01*
X116292613Y-71329025D01*
X116261860Y-71275760D01*
X116240485Y-71238737D01*
X116161263Y-71159515D01*
X116064237Y-71103497D01*
X115956018Y-71074500D01*
X115843982Y-71074500D01*
X115735763Y-71103497D01*
X115735760Y-71103498D01*
X115638740Y-71159513D01*
X115638734Y-71159517D01*
X115559517Y-71238734D01*
X115559513Y-71238740D01*
X115503498Y-71335760D01*
X115503497Y-71335763D01*
X115474500Y-71443982D01*
X105925500Y-71443982D01*
X105925500Y-71333982D01*
X105896503Y-71225763D01*
X105840485Y-71128737D01*
X105761263Y-71049515D01*
X105681558Y-71003497D01*
X105664239Y-70993498D01*
X105664238Y-70993497D01*
X105664237Y-70993497D01*
X105556018Y-70964500D01*
X105443982Y-70964500D01*
X105335763Y-70993497D01*
X105335760Y-70993498D01*
X105238740Y-71049513D01*
X105238734Y-71049517D01*
X105159517Y-71128734D01*
X105159513Y-71128740D01*
X105103498Y-71225760D01*
X105103497Y-71225763D01*
X105074500Y-71333982D01*
X104022821Y-71333982D01*
X103996503Y-71235763D01*
X103940485Y-71138737D01*
X103861263Y-71059515D01*
X103764237Y-71003497D01*
X103656018Y-70974500D01*
X103543982Y-70974500D01*
X103435763Y-71003497D01*
X103435760Y-71003498D01*
X103338740Y-71059513D01*
X103338734Y-71059517D01*
X103259517Y-71138734D01*
X103259513Y-71138740D01*
X103203498Y-71235760D01*
X103203497Y-71235763D01*
X103174500Y-71343982D01*
X101925500Y-71343982D01*
X101896503Y-71235763D01*
X101840485Y-71138737D01*
X101761263Y-71059515D01*
X101664237Y-71003497D01*
X101556018Y-70974500D01*
X101443982Y-70974500D01*
X101335763Y-71003497D01*
X101335760Y-71003498D01*
X101238740Y-71059513D01*
X101238734Y-71059517D01*
X101159517Y-71138734D01*
X101159513Y-71138740D01*
X101103498Y-71235760D01*
X101103497Y-71235763D01*
X101074500Y-71343982D01*
X100514782Y-71343982D01*
X100496503Y-71275763D01*
X100440485Y-71178737D01*
X100361263Y-71099515D01*
X100274664Y-71049517D01*
X100264239Y-71043498D01*
X100264238Y-71043497D01*
X100264237Y-71043497D01*
X100156018Y-71014500D01*
X100043982Y-71014500D01*
X99935763Y-71043497D01*
X99935760Y-71043498D01*
X99838740Y-71099513D01*
X99838734Y-71099517D01*
X99759517Y-71178734D01*
X99759513Y-71178740D01*
X99703498Y-71275760D01*
X99703497Y-71275763D01*
X99674500Y-71383982D01*
X98350500Y-71383982D01*
X98350500Y-71368982D01*
X98321503Y-71260763D01*
X98265485Y-71163737D01*
X98186263Y-71084515D01*
X98121579Y-71047169D01*
X98089239Y-71028498D01*
X98089238Y-71028497D01*
X98089237Y-71028497D01*
X97981018Y-70999500D01*
X97868982Y-70999500D01*
X97760763Y-71028497D01*
X97760760Y-71028498D01*
X97663740Y-71084513D01*
X97663734Y-71084517D01*
X97584517Y-71163734D01*
X97584513Y-71163740D01*
X97528498Y-71260760D01*
X97528497Y-71260763D01*
X97499500Y-71368982D01*
X76125500Y-71368982D01*
X76125500Y-71343982D01*
X76096503Y-71235763D01*
X76040485Y-71138737D01*
X75961263Y-71059515D01*
X75864237Y-71003497D01*
X75756018Y-70974500D01*
X75643982Y-70974500D01*
X75535763Y-71003497D01*
X75535760Y-71003498D01*
X75438740Y-71059513D01*
X75438734Y-71059517D01*
X75359517Y-71138734D01*
X75359513Y-71138740D01*
X75303498Y-71235760D01*
X75303497Y-71235763D01*
X75274500Y-71343982D01*
X75274500Y-71456018D01*
X75303497Y-71564237D01*
X75359515Y-71661263D01*
X75438737Y-71740485D01*
X75519262Y-71786976D01*
X75567476Y-71837541D01*
X75580700Y-71906148D01*
X75554732Y-71971013D01*
X75497818Y-72011542D01*
X75489356Y-72014136D01*
X75435767Y-72028495D01*
X75435760Y-72028498D01*
X75338740Y-72084513D01*
X75338734Y-72084517D01*
X75259517Y-72163734D01*
X75259513Y-72163740D01*
X75203498Y-72260760D01*
X75203497Y-72260763D01*
X75174500Y-72368982D01*
X75174500Y-72481018D01*
X75203497Y-72589237D01*
X75259515Y-72686263D01*
X75259517Y-72686265D01*
X75326725Y-72753473D01*
X75360210Y-72814796D01*
X75355226Y-72884488D01*
X75313354Y-72940421D01*
X75301045Y-72948540D01*
X75238743Y-72984511D01*
X75238734Y-72984517D01*
X75159517Y-73063734D01*
X75159513Y-73063740D01*
X75103498Y-73160760D01*
X75103497Y-73160763D01*
X75074500Y-73268982D01*
X61671456Y-73268982D01*
X61287313Y-71138734D01*
X61252194Y-70943982D01*
X121274500Y-70943982D01*
X121274500Y-71056018D01*
X121302233Y-71159517D01*
X121303497Y-71164236D01*
X121303498Y-71164239D01*
X121311870Y-71178740D01*
X121359515Y-71261263D01*
X121438737Y-71340485D01*
X121535763Y-71396503D01*
X121643982Y-71425500D01*
X121643984Y-71425500D01*
X121756016Y-71425500D01*
X121756018Y-71425500D01*
X121864237Y-71396503D01*
X121961263Y-71340485D01*
X122040485Y-71261263D01*
X122096503Y-71164237D01*
X122125500Y-71056018D01*
X122125500Y-70943982D01*
X122096503Y-70835763D01*
X122040485Y-70738737D01*
X121961263Y-70659515D01*
X121864237Y-70603497D01*
X121756018Y-70574500D01*
X121643982Y-70574500D01*
X121535763Y-70603497D01*
X121535760Y-70603498D01*
X121438740Y-70659513D01*
X121438734Y-70659517D01*
X121359517Y-70738734D01*
X121359513Y-70738740D01*
X121303498Y-70835760D01*
X121303497Y-70835763D01*
X121274500Y-70943982D01*
X61252194Y-70943982D01*
X60605516Y-67357861D01*
X60603013Y-67343982D01*
X68074500Y-67343982D01*
X68074500Y-67456018D01*
X68103497Y-67564237D01*
X68159515Y-67661263D01*
X68238737Y-67740485D01*
X68335763Y-67796503D01*
X68443982Y-67825500D01*
X68443984Y-67825500D01*
X68556016Y-67825500D01*
X68556018Y-67825500D01*
X68664237Y-67796503D01*
X68761263Y-67740485D01*
X68840485Y-67661263D01*
X68896503Y-67564237D01*
X68925500Y-67456018D01*
X68925500Y-67343982D01*
X68896503Y-67235763D01*
X68840485Y-67138737D01*
X68761263Y-67059515D01*
X68664237Y-67003497D01*
X68556018Y-66974500D01*
X68443982Y-66974500D01*
X68335763Y-67003497D01*
X68335760Y-67003498D01*
X68238740Y-67059513D01*
X68238734Y-67059517D01*
X68159517Y-67138734D01*
X68159513Y-67138740D01*
X68103498Y-67235760D01*
X68103497Y-67235763D01*
X68074500Y-67343982D01*
X60603013Y-67343982D01*
X60001968Y-64010913D01*
X60000000Y-63988907D01*
X60000000Y-55801110D01*
X60019685Y-55734071D01*
X60072489Y-55688316D01*
X60141647Y-55678372D01*
X60205203Y-55707397D01*
X60211681Y-55713429D01*
X60238737Y-55740485D01*
X60335763Y-55796503D01*
X60443982Y-55825500D01*
X60443984Y-55825500D01*
X60556016Y-55825500D01*
X60556018Y-55825500D01*
X60664237Y-55796503D01*
X60761263Y-55740485D01*
X60840485Y-55661263D01*
X60896503Y-55564237D01*
X60925500Y-55456018D01*
X60925500Y-55343982D01*
X60896503Y-55235763D01*
X60840485Y-55138737D01*
X60761263Y-55059515D01*
X60664237Y-55003497D01*
X60556018Y-54974500D01*
X60443982Y-54974500D01*
X60335763Y-55003497D01*
X60335760Y-55003498D01*
X60238740Y-55059513D01*
X60238734Y-55059517D01*
X60211681Y-55086571D01*
X60150358Y-55120056D01*
X60080666Y-55115072D01*
X60024733Y-55073200D01*
X60000316Y-55007736D01*
X60000000Y-54998890D01*
X60000000Y-54000000D01*
X59999999Y-53999999D01*
X59423190Y-53029272D01*
X56687616Y-48425500D01*
X56434307Y-47999199D01*
X56434306Y-47999198D01*
X56401498Y-47943984D01*
X56401497Y-47943982D01*
X57574500Y-47943982D01*
X57574500Y-48056018D01*
X57603497Y-48164237D01*
X57659515Y-48261263D01*
X57738737Y-48340485D01*
X57835763Y-48396503D01*
X57943982Y-48425500D01*
X57943984Y-48425500D01*
X58056016Y-48425500D01*
X58056018Y-48425500D01*
X58164237Y-48396503D01*
X58261263Y-48340485D01*
X58340485Y-48261263D01*
X58396503Y-48164237D01*
X58425500Y-48056018D01*
X58425500Y-47943982D01*
X58396503Y-47835763D01*
X58340485Y-47738737D01*
X58261263Y-47659515D01*
X58164237Y-47603497D01*
X58056018Y-47574500D01*
X57943982Y-47574500D01*
X57835763Y-47603497D01*
X57835760Y-47603498D01*
X57738740Y-47659513D01*
X57738734Y-47659517D01*
X57659517Y-47738734D01*
X57659513Y-47738740D01*
X57603498Y-47835760D01*
X57603497Y-47835763D01*
X57574500Y-47943982D01*
X56401497Y-47943982D01*
X55959912Y-47200828D01*
X55942590Y-47133141D01*
X55964612Y-47066833D01*
X55997340Y-47034574D01*
X61882977Y-43078654D01*
X61949597Y-43057595D01*
X62017027Y-43075896D01*
G37*
%TD.AperFunction*%
%TA.AperFunction,Conductor*%
G36*
X135542539Y-46019685D02*
G01*
X135588294Y-46072489D01*
X135599500Y-46124000D01*
X135599500Y-48824390D01*
X135579815Y-48891429D01*
X135527011Y-48937184D01*
X135457853Y-48947128D01*
X135394297Y-48918103D01*
X135387819Y-48912071D01*
X135385265Y-48909517D01*
X135385263Y-48909515D01*
X135288237Y-48853497D01*
X135180018Y-48824500D01*
X135067982Y-48824500D01*
X134959763Y-48853497D01*
X134959760Y-48853498D01*
X134862740Y-48909513D01*
X134862734Y-48909517D01*
X134783517Y-48988734D01*
X134783513Y-48988740D01*
X134727498Y-49085760D01*
X134727497Y-49085763D01*
X134698500Y-49193982D01*
X134698500Y-49306018D01*
X134727497Y-49414237D01*
X134783515Y-49511263D01*
X134862737Y-49590485D01*
X134959763Y-49646503D01*
X135067982Y-49675500D01*
X135067984Y-49675500D01*
X135180016Y-49675500D01*
X135180018Y-49675500D01*
X135288237Y-49646503D01*
X135385263Y-49590485D01*
X135387819Y-49587929D01*
X135390503Y-49586463D01*
X135391709Y-49585538D01*
X135391853Y-49585726D01*
X135449142Y-49554444D01*
X135518834Y-49559428D01*
X135574767Y-49601300D01*
X135599184Y-49666764D01*
X135599500Y-49675610D01*
X135599500Y-72926000D01*
X135579815Y-72993039D01*
X135527011Y-73038794D01*
X135475500Y-73050000D01*
X127500000Y-73050000D01*
X127500000Y-72203110D01*
X128086366Y-72203110D01*
X128086366Y-72315146D01*
X128115363Y-72423365D01*
X128171381Y-72520391D01*
X128250603Y-72599613D01*
X128347629Y-72655631D01*
X128455848Y-72684628D01*
X128455850Y-72684628D01*
X128567882Y-72684628D01*
X128567884Y-72684628D01*
X128676103Y-72655631D01*
X128773129Y-72599613D01*
X128852351Y-72520391D01*
X128908369Y-72423365D01*
X128937366Y-72315146D01*
X128937366Y-72203110D01*
X128908369Y-72094891D01*
X128852351Y-71997865D01*
X128773129Y-71918643D01*
X128676103Y-71862625D01*
X128567884Y-71833628D01*
X128455848Y-71833628D01*
X128347629Y-71862625D01*
X128347626Y-71862626D01*
X128250606Y-71918641D01*
X128250600Y-71918645D01*
X128171383Y-71997862D01*
X128171379Y-71997868D01*
X128115364Y-72094888D01*
X128115363Y-72094891D01*
X128086366Y-72203110D01*
X127500000Y-72203110D01*
X127500000Y-71143982D01*
X133474500Y-71143982D01*
X133474500Y-71256018D01*
X133503497Y-71364237D01*
X133559515Y-71461263D01*
X133638737Y-71540485D01*
X133735763Y-71596503D01*
X133843982Y-71625500D01*
X133843984Y-71625500D01*
X133956016Y-71625500D01*
X133956018Y-71625500D01*
X134064237Y-71596503D01*
X134161263Y-71540485D01*
X134240485Y-71461263D01*
X134296503Y-71364237D01*
X134325500Y-71256018D01*
X134325500Y-71143982D01*
X134296503Y-71035763D01*
X134240485Y-70938737D01*
X134161263Y-70859515D01*
X134064237Y-70803497D01*
X133956018Y-70774500D01*
X133843982Y-70774500D01*
X133735763Y-70803497D01*
X133735760Y-70803498D01*
X133638740Y-70859513D01*
X133638734Y-70859517D01*
X133559517Y-70938734D01*
X133559513Y-70938740D01*
X133503498Y-71035760D01*
X133503497Y-71035763D01*
X133474500Y-71143982D01*
X127500000Y-71143982D01*
X127500000Y-70596987D01*
X127511263Y-70590485D01*
X127590485Y-70511263D01*
X127646503Y-70414237D01*
X127675500Y-70306018D01*
X127675500Y-70193982D01*
X127665347Y-70156090D01*
X127667010Y-70086244D01*
X127706172Y-70028382D01*
X127770400Y-70000877D01*
X127785122Y-70000000D01*
X129964540Y-70000000D01*
X130031579Y-70019685D01*
X130077334Y-70072489D01*
X130088540Y-70124000D01*
X130088540Y-70234361D01*
X130117537Y-70342580D01*
X130173555Y-70439606D01*
X130252777Y-70518828D01*
X130349803Y-70574846D01*
X130458022Y-70603843D01*
X130458024Y-70603843D01*
X130570056Y-70603843D01*
X130570058Y-70603843D01*
X130678277Y-70574846D01*
X130775303Y-70518828D01*
X130854525Y-70439606D01*
X130910543Y-70342580D01*
X130939540Y-70234361D01*
X130939540Y-70124000D01*
X130959225Y-70056961D01*
X131012029Y-70011206D01*
X131063540Y-70000000D01*
X131880285Y-70000000D01*
X131947324Y-70019685D01*
X131978658Y-70048509D01*
X131980725Y-70051203D01*
X131980727Y-70051206D01*
X132059949Y-70130428D01*
X132156975Y-70186446D01*
X132265194Y-70215443D01*
X132265196Y-70215443D01*
X132377228Y-70215443D01*
X132377230Y-70215443D01*
X132485449Y-70186446D01*
X132582475Y-70130428D01*
X132661697Y-70051206D01*
X132661701Y-70051198D01*
X132663766Y-70048509D01*
X132666092Y-70046810D01*
X132667444Y-70045459D01*
X132667654Y-70045669D01*
X132720196Y-70007309D01*
X132747469Y-70002556D01*
X132749998Y-70000000D01*
X132750000Y-70000000D01*
X132745976Y-69613771D01*
X132764961Y-69546533D01*
X132817285Y-69500230D01*
X132886336Y-69489567D01*
X132931965Y-69505093D01*
X132984936Y-69535676D01*
X133093155Y-69564673D01*
X133093157Y-69564673D01*
X133205189Y-69564673D01*
X133205191Y-69564673D01*
X133313410Y-69535676D01*
X133410436Y-69479658D01*
X133489658Y-69400436D01*
X133545676Y-69303410D01*
X133574673Y-69195191D01*
X133574673Y-69083155D01*
X133545676Y-68974936D01*
X133489658Y-68877910D01*
X133410436Y-68798688D01*
X133313410Y-68742670D01*
X133205191Y-68713673D01*
X133093155Y-68713673D01*
X132984936Y-68742670D01*
X132984935Y-68742670D01*
X132922166Y-68778910D01*
X132854266Y-68795382D01*
X132788239Y-68772529D01*
X132745049Y-68717607D01*
X132736175Y-68672820D01*
X132701604Y-65353993D01*
X132720588Y-65286757D01*
X132772912Y-65240454D01*
X132841964Y-65229791D01*
X132905818Y-65258152D01*
X132913277Y-65265025D01*
X132988737Y-65340485D01*
X133085763Y-65396503D01*
X133193982Y-65425500D01*
X133193984Y-65425500D01*
X133306016Y-65425500D01*
X133306018Y-65425500D01*
X133414237Y-65396503D01*
X133511263Y-65340485D01*
X133590485Y-65261263D01*
X133646503Y-65164237D01*
X133675500Y-65056018D01*
X133675500Y-64943982D01*
X133646503Y-64835763D01*
X133590485Y-64738737D01*
X133511263Y-64659515D01*
X133414237Y-64603497D01*
X133306018Y-64574500D01*
X133193982Y-64574500D01*
X133085763Y-64603497D01*
X133085760Y-64603498D01*
X132988740Y-64659513D01*
X132988738Y-64659514D01*
X132906005Y-64742247D01*
X132844681Y-64775731D01*
X132774990Y-64770747D01*
X132719056Y-64728875D01*
X132694640Y-64663410D01*
X132694332Y-64655888D01*
X132658271Y-61193982D01*
X134074500Y-61193982D01*
X134074500Y-61306018D01*
X134103497Y-61414237D01*
X134159515Y-61511263D01*
X134238737Y-61590485D01*
X134335763Y-61646503D01*
X134443982Y-61675500D01*
X134443984Y-61675500D01*
X134556016Y-61675500D01*
X134556018Y-61675500D01*
X134664237Y-61646503D01*
X134761263Y-61590485D01*
X134840485Y-61511263D01*
X134896503Y-61414237D01*
X134925500Y-61306018D01*
X134925500Y-61193982D01*
X134896503Y-61085763D01*
X134840485Y-60988737D01*
X134761263Y-60909515D01*
X134664237Y-60853497D01*
X134556018Y-60824500D01*
X134443982Y-60824500D01*
X134335763Y-60853497D01*
X134335760Y-60853498D01*
X134238740Y-60909513D01*
X134238734Y-60909517D01*
X134159517Y-60988734D01*
X134159513Y-60988740D01*
X134103498Y-61085760D01*
X134103497Y-61085763D01*
X134074500Y-61193982D01*
X132658271Y-61193982D01*
X132656779Y-61050790D01*
X132675764Y-60983550D01*
X132728089Y-60937248D01*
X132780772Y-60925500D01*
X132806016Y-60925500D01*
X132806018Y-60925500D01*
X132914237Y-60896503D01*
X133011263Y-60840485D01*
X133090485Y-60761263D01*
X133146503Y-60664237D01*
X133175500Y-60556018D01*
X133175500Y-60443982D01*
X133146503Y-60335763D01*
X133090485Y-60238737D01*
X133011263Y-60159515D01*
X132914237Y-60103497D01*
X132806018Y-60074500D01*
X132769324Y-60074500D01*
X132702285Y-60054815D01*
X132656530Y-60002011D01*
X132645331Y-59951792D01*
X132618898Y-57414236D01*
X132616604Y-57193982D01*
X134324500Y-57193982D01*
X134324500Y-57306018D01*
X134353497Y-57414237D01*
X134409515Y-57511263D01*
X134488737Y-57590485D01*
X134585763Y-57646503D01*
X134693982Y-57675500D01*
X134693984Y-57675500D01*
X134806016Y-57675500D01*
X134806018Y-57675500D01*
X134914237Y-57646503D01*
X135011263Y-57590485D01*
X135090485Y-57511263D01*
X135146503Y-57414237D01*
X135175500Y-57306018D01*
X135175500Y-57193982D01*
X135146503Y-57085763D01*
X135090485Y-56988737D01*
X135011263Y-56909515D01*
X134914237Y-56853497D01*
X134806018Y-56824500D01*
X134693982Y-56824500D01*
X134585763Y-56853497D01*
X134585760Y-56853498D01*
X134488740Y-56909513D01*
X134488734Y-56909517D01*
X134409517Y-56988734D01*
X134409513Y-56988740D01*
X134353498Y-57085760D01*
X134353497Y-57085763D01*
X134324500Y-57193982D01*
X132616604Y-57193982D01*
X132572917Y-53000000D01*
X133250000Y-53000000D01*
X133000000Y-46000000D01*
X135475500Y-46000000D01*
X135542539Y-46019685D01*
G37*
%TD.AperFunction*%
M02*
