M48
; DRILL file {KiCad 9.0.4} date 2026-02-10T01:46:26-0500
; FORMAT={-:-/ absolute / metric / decimal}
; #@! TF.CreationDate,2026-02-10T01:46:26-05:00
; #@! TF.GenerationSoftware,Kicad,Pcbnew,9.0.4
; #@! TF.FileFunction,Plated,1,4,PTH
FMAT,2
METRIC
; #@! TA.AperFunction,Plated,PTH,ViaDrill
T1C0.300
; #@! TA.AperFunction,Plated,PTH,ComponentDrill
T2C0.800
; #@! TA.AperFunction,Plated,PTH,ComponentDrill
T3C1.100
; #@! TA.AperFunction,Plated,PTH,ComponentDrill
T4C1.152
; #@! TA.AperFunction,Plated,PTH,ComponentDrill
T5C2.500
%
G90
G05
T1
X52.5Y-17.0
X52.5Y-85.0
X52.9Y-76.8
X53.2Y-74.1
X54.2Y-74.8
X55.2Y-78.1
X55.5Y-24.0
X56.75Y-25.25
X56.75Y-47.25
X56.935Y-42.89
X57.575Y-37.15
X58.0Y-25.0
X58.0Y-48.0
X58.725Y-37.15
X59.4Y-51.7
X59.5Y-21.7
X59.5Y-22.5
X59.5Y-23.5
X59.5Y-24.5
X59.5Y-25.3
X59.75Y-19.75
X59.75Y-33.5
X59.75Y-35.0
X59.75Y-38.0
X60.3Y-24.6
X60.3Y-25.3
X60.365Y-23.591
X60.4Y-21.7
X60.4Y-22.5
X60.5Y-55.4
X61.2Y-23.5
X61.2Y-24.6
X61.2Y-25.3
X61.3Y-21.7
X61.3Y-22.5
X61.5Y-44.5
X61.9Y-79.2
X62.0Y-42.0
X62.5Y-20.0
X62.5Y-76.2
X63.25Y-25.75
X63.25Y-28.75
X63.624Y-23.503
X64.1Y-76.0
X65.1Y-32.9
X65.3Y-78.6
X65.75Y-26.0
X66.621Y-75.721
X67.3Y-78.6
X68.4Y-75.7
X68.5Y-67.4
X69.605Y-55.7
X70.0Y-40.5
X71.1Y-67.3
X71.271Y-34.1
X72.2Y-59.5
X72.5Y-39.25
X73.0Y-44.5
X73.9Y-67.6
X74.03Y-56.662
X74.645Y-75.387
X75.109Y-74.334
X75.5Y-73.325
X75.6Y-24.2
X75.6Y-72.425
X75.7Y-71.4
X76.15Y-69.95
X76.3Y-50.7
X76.4Y-30.366
X77.0Y-23.9
X77.1Y-30.366
X77.233Y-28.633
X77.3Y-76.2
X77.8Y-28.7
X78.492Y-76.092
X79.6Y-23.8
X79.683Y-28.659
X79.8Y-44.9
X80.2Y-76.2
X80.441Y-28.74
X80.7Y-45.6
X80.7Y-51.1
X80.93Y-28.0
X81.57Y-28.0
X81.6Y-64.6
X82.0Y-34.4
X82.1Y-23.9
X82.1Y-28.7
X82.22Y-61.95
X82.25Y-45.0
X82.441Y-28.307
X82.93Y-22.4
X83.565Y-64.855
X83.57Y-61.95
X83.57Y-22.4
X84.5Y-24.2
X84.725Y-61.9
X84.725Y-65.0
X85.47Y-61.7
X85.6Y-82.8
X85.8Y-77.9
X86.1Y-59.0
X86.2Y-64.6
X86.72Y-60.2
X86.76Y-65.26
X86.9Y-67.1
X87.825Y-22.05
X87.825Y-23.95
X88.1Y-59.8
X88.2Y-65.7
X88.248Y-63.97
X88.25Y-61.52
X88.6Y-85.3
X88.75Y-40.75
X89.318Y-38.375
X89.8Y-36.7
X90.0Y-39.5
X90.1Y-22.05
X90.1Y-23.95
X90.2Y-85.3
X90.6Y-77.6
X91.0Y-23.0
X91.1Y-59.8
X91.7Y-54.8
X92.25Y-22.0
X92.455Y-36.25
X92.5Y-24.0
X92.5Y-40.4
X92.54Y-39.565
X92.6Y-78.9
X93.5Y-82.8
X93.6Y-78.7
X93.8Y-53.0
X94.2Y-80.4
X94.5Y-78.9
X94.55Y-85.5
X95.55Y-85.5
X95.9Y-55.4
X96.3Y-53.0
X96.396Y-38.319
X96.8Y-78.7
X97.1Y-84.0
X97.25Y-19.5
X97.25Y-25.75
X97.9Y-76.0
X97.925Y-71.425
X98.2Y-55.7
X98.75Y-40.75
X98.8Y-72.7
X98.8Y-78.6
X99.1Y-83.9
X99.25Y-37.5
X99.8Y-52.475
X99.8Y-76.1
X100.1Y-71.44
X100.25Y-36.5
X100.481Y-37.108
X100.7Y-55.6
X100.7Y-73.225
X100.8Y-78.6
X101.1Y-83.9
X101.5Y-71.4
X101.8Y-76.1
X102.1Y-52.475
X102.229Y-37.771
X102.7Y-78.6
X103.0Y-55.5
X103.1Y-73.626
X103.3Y-83.6
X103.6Y-71.4
X103.8Y-40.1
X103.8Y-76.2
X103.9Y-52.475
X104.0Y-44.75
X104.8Y-78.6
X104.824Y-74.027
X105.4Y-83.1
X105.5Y-71.39
X105.786Y-55.414
X105.8Y-76.2
X105.9Y-37.9
X106.6Y-75.0
X107.25Y-46.5
X107.3Y-52.475
X108.0Y-65.2
X108.5Y-54.75
X108.75Y-54.0
X109.0Y-19.5
X109.0Y-25.75
X109.0Y-81.4
X109.071Y-53.071
X110.3Y-75.625
X110.5Y-21.0
X110.5Y-24.25
X111.5Y-51.0
X112.0Y-82.9
X112.75Y-21.25
X113.0Y-24.0
X113.3Y-76.3
X114.1Y-76.2
X115.0Y-63.0
X115.0Y-76.2
X115.735Y-60.25
X115.9Y-71.5
X116.2Y-54.0
X116.6Y-77.4
X116.733Y-62.233
X116.875Y-69.625
X116.9Y-71.5
X116.9Y-85.625
X117.2Y-80.6
X117.492Y-62.208
X118.005Y-61.548
X118.1Y-70.4
X118.7Y-68.6
X118.7Y-76.5
X119.3Y-70.5
X119.5Y-63.0
X120.75Y-53.0
X120.8Y-68.6
X121.25Y-59.775
X121.7Y-71.0
X122.25Y-78.0
X122.4Y-69.2
X122.5Y-64.75
X122.923Y-69.863
X123.0Y-78.5
X123.1Y-54.8
X123.475Y-79.0
X124.0Y-79.5
X124.075Y-67.1
X124.075Y-69.5
X124.525Y-79.997
X124.647Y-66.2
X124.75Y-62.75
X124.8Y-73.6
X125.075Y-77.7
X125.25Y-52.5
X125.25Y-86.25
X125.337Y-62.471
X125.5Y-83.25
X125.8Y-51.8
X125.8Y-77.4
X126.0Y-61.75
X126.2Y-58.1
X126.5Y-50.6
X126.5Y-62.75
X126.7Y-79.6
X127.25Y-70.25
X127.25Y-71.782
X127.776Y-69.25
X127.8Y-82.6
X128.25Y-56.75
X128.301Y-70.7
X128.301Y-77.7
X128.374Y-69.504
X128.512Y-72.259
X128.587Y-76.214
X128.8Y-75.6
X128.9Y-73.825
X129.25Y-47.75
X129.25Y-49.25
X129.835Y-48.933
X129.9Y-77.2
X130.0Y-71.0
X130.514Y-70.178
X130.75Y-73.5
X131.0Y-59.25
X131.0Y-62.5
X132.3Y-71.2
X132.321Y-69.79
X132.75Y-60.5
X133.149Y-69.139
X133.25Y-62.0
X133.25Y-65.0
X133.874Y-47.0
X133.9Y-71.2
X134.374Y-48.0
X134.5Y-17.0
X134.5Y-61.25
X134.5Y-62.75
X134.5Y-85.0
X134.75Y-57.25
X134.75Y-58.5
X135.124Y-49.25
T2
X111.03Y-41.662
X111.03Y-43.662
X111.03Y-45.662
X113.03Y-41.662
X113.03Y-43.662
X113.03Y-45.662
X131.29Y-39.21
X131.29Y-41.75
T3
X67.58Y-32.86
X67.58Y-48.1
X70.12Y-32.86
X70.12Y-48.1
X72.66Y-32.86
X72.66Y-48.1
X75.2Y-32.86
X75.2Y-48.1
X77.74Y-32.86
X77.74Y-48.1
X80.28Y-32.86
X80.28Y-35.4
X80.28Y-37.94
X80.28Y-40.48
X82.82Y-32.86
X82.82Y-48.1
X85.36Y-32.86
X85.36Y-48.1
X87.9Y-32.86
X87.9Y-48.1
X90.44Y-32.86
X90.44Y-48.1
X92.98Y-32.86
X92.98Y-48.1
X95.52Y-32.86
X95.52Y-48.1
X98.06Y-32.86
X98.06Y-48.1
X100.6Y-48.1
X103.14Y-48.1
X105.68Y-48.1
X108.22Y-48.1
X110.76Y-48.1
X113.3Y-48.1
X115.84Y-48.1
X118.38Y-48.1
X120.92Y-48.1
X123.46Y-45.56
X123.46Y-48.1
X126.0Y-32.86
X126.0Y-48.1
T4
X55.0Y-80.5
X132.0Y-28.0
X132.0Y-81.0
T5
X55.0Y-17.0
X55.0Y-85.0
X132.0Y-17.0
X132.0Y-85.0
M30
